<?xml version="1.0" encoding="utf-8"?>
<!-- Generator: Adobe Illustrator 15.1.0, SVG Export Plug-In . SVG Version: 6.00 Build 0)  -->
<!DOCTYPE svg PUBLIC "-//W3C//DTD SVG 1.1//EN" "http://www.w3.org/Graphics/SVG/1.1/DTD/svg11.dtd">
<svg version="1.1" id="art" xmlns="http://www.w3.org/2000/svg" xmlns:xlink="http://www.w3.org/1999/xlink" x="0px" y="0px"
	 width="912px" height="482px" viewBox="0 0 912 482" enable-background="new 0 0 912 482" xml:space="preserve">
<g>
	<defs>
		<rect id="SVGID_1_" x="-9" y="-1" width="930" height="482.252"/>
	</defs>
	<clipPath id="SVGID_2_">
		<use xlink:href="#SVGID_1_"  overflow="visible"/>
	</clipPath>
	<rect y="320" clip-path="url(#SVGID_2_)" fill="#F3E3D5" width="912" height="20"/>
	<rect clip-path="url(#SVGID_2_)" fill="#F3E3D5" width="912" height="40"/>
	<rect y="80" clip-path="url(#SVGID_2_)" fill="#F3E3D5" width="912" height="40"/>
	<rect y="160" clip-path="url(#SVGID_2_)" fill="#F3E3D5" width="912" height="40"/>
	<rect y="240" clip-path="url(#SVGID_2_)" fill="#F3E3D5" width="912" height="40"/>
	<g clip-path="url(#SVGID_2_)">
		<defs>
			<rect id="SVGID_3_" x="-9" y="-1" width="930" height="482.252"/>
		</defs>
		<clipPath id="SVGID_4_">
			<use xlink:href="#SVGID_3_"  overflow="visible"/>
		</clipPath>
		<g clip-path="url(#SVGID_4_)">
			<g>
				<defs>
					<rect id="SVGID_5_" x="102.75" y="-1" width="18.5" height="342"/>
				</defs>
				<clipPath id="SVGID_6_">
					<use xlink:href="#SVGID_5_"  overflow="visible"/>
				</clipPath>
				<line clip-path="url(#SVGID_6_)" fill="none" stroke="#E8E9EA" stroke-width="0.5" x1="112" y1="0" x2="112" y2="340"/>
			</g>
		</g>
		<g clip-path="url(#SVGID_4_)">
			<g>
				<defs>
					<rect id="SVGID_7_" x="790.75" y="-1" width="18.5" height="342"/>
				</defs>
				<clipPath id="SVGID_8_">
					<use xlink:href="#SVGID_7_"  overflow="visible"/>
				</clipPath>
				<line clip-path="url(#SVGID_8_)" fill="none" stroke="#E8E9EA" stroke-width="0.5" x1="800" y1="0" x2="800" y2="340"/>
			</g>
		</g>
		<g clip-path="url(#SVGID_4_)">
			<g>
				<defs>
					<rect id="SVGID_9_" x="74.952" y="53.004" width="25.248" height="13.76"/>
				</defs>
				<clipPath id="SVGID_10_">
					<use xlink:href="#SVGID_9_"  overflow="visible"/>
				</clipPath>
				<polygon clip-path="url(#SVGID_10_)" fill="#F9A25E" points="84.368,65.188 85.488,65.764 91.2,54.004 83.952,54.004 
					83.952,55.188 89.248,55.188 				"/>
			</g>
		</g>
		<g clip-path="url(#SVGID_4_)">
			<g>
				<defs>
					<rect id="SVGID_11_" x="74.44" y="12.78" width="25.695" height="13.856"/>
				</defs>
				<clipPath id="SVGID_12_">
					<use xlink:href="#SVGID_11_"  overflow="visible"/>
				</clipPath>
				<path clip-path="url(#SVGID_12_)" fill="#F9A25E" d="M87.296,14.82c1.248,0,2.017,0.72,2.017,1.904
					c0,1.152-0.736,1.856-2.049,1.856c-1.279,0-2-0.72-2-1.856C85.264,15.556,86.032,14.82,87.296,14.82 M87.28,24.532
					c-1.536,0-2.4-0.88-2.4-2.304c0-1.44,0.896-2.352,2.4-2.352s2.399,0.896,2.399,2.352C89.68,23.652,88.816,24.532,87.28,24.532
					 M85.792,19.284c-1.504,0.416-2.352,1.536-2.352,3.04c0,1.984,1.424,3.312,3.855,3.312c2.448,0,3.84-1.296,3.84-3.344
					c0-1.472-0.848-2.576-2.352-3.008c1.231-0.368,1.936-1.296,1.936-2.528c0-1.776-1.296-2.976-3.424-2.976
					c-2.096,0-3.439,1.232-3.439,2.864C83.856,18.004,84.512,18.884,85.792,19.284"/>
			</g>
		</g>
		<g clip-path="url(#SVGID_4_)">
			<g>
				<defs>
					<rect id="SVGID_13_" x="74.296" y="133.004" width="25.648" height="13.632"/>
				</defs>
				<clipPath id="SVGID_14_">
					<use xlink:href="#SVGID_13_"  overflow="visible"/>
				</clipPath>
				<path clip-path="url(#SVGID_14_)" fill="#F9A25E" d="M84.224,139.62c0.704-0.544,1.536-0.816,2.433-0.816
					c1.76,0,2.848,1.12,2.848,2.752c0,1.776-1.104,2.896-2.735,2.896c-1.12,0-2-0.56-2.513-1.616l-0.96,1.12
					c0.784,1.152,1.889,1.68,3.44,1.68c2.624,0,4.208-1.632,4.208-4.208c0-2.288-1.393-3.728-3.632-3.728
					c-0.641,0-1.232,0.128-1.776,0.416l0.72-2.944h4.097v-1.168h-5.024l-1.36,5.568L84.224,139.62z"/>
			</g>
		</g>
		<g clip-path="url(#SVGID_4_)">
			<g>
				<defs>
					<rect id="SVGID_15_" x="74.44" y="212.78" width="25.312" height="13.856"/>
				</defs>
				<clipPath id="SVGID_16_">
					<use xlink:href="#SVGID_15_"  overflow="visible"/>
				</clipPath>
				<path clip-path="url(#SVGID_16_)" fill="#F9A25E" d="M83.44,222.437v0.208c0,1.808,1.344,2.992,3.472,2.992
					c2.432,0,3.84-1.28,3.84-3.328c0-1.552-0.815-2.592-2.176-2.816c1.28-0.336,2.032-1.312,2.032-2.672
					c0-1.856-1.296-3.04-3.424-3.04c-2.208,0-3.44,1.104-3.536,3.056h1.344c0.063-1.232,0.832-1.904,2.16-1.904
					c1.264,0,2.032,0.768,2.032,1.952c0,1.344-0.801,2.048-2.385,2.048c-0.128,0-0.239-0.016-0.368-0.016v1.12
					c0.145-0.016,0.272-0.016,0.4-0.016c1.648,0,2.496,0.768,2.496,2.24c0,1.392-0.848,2.208-2.368,2.208
					c-1.312,0-2.128-0.736-2.128-1.904v-0.128H83.44z"/>
			</g>
		</g>
		<g clip-path="url(#SVGID_4_)">
			<g>
				<defs>
					<rect id="SVGID_17_" x="75.592" y="293.004" width="21.664" height="13.328"/>
				</defs>
				<clipPath id="SVGID_18_">
					<use xlink:href="#SVGID_17_"  overflow="visible"/>
				</clipPath>
				<polygon clip-path="url(#SVGID_18_)" fill="#F9A25E" points="86.928,305.332 88.256,305.332 88.256,294.004 85.36,294.004 
					84.592,295.188 86.928,295.188 				"/>
			</g>
		</g>
		<g clip-path="url(#SVGID_4_)">
			<g>
				<defs>
					<rect id="SVGID_19_" x="74.488" y="92.444" width="25.536" height="14.192"/>
				</defs>
				<clipPath id="SVGID_20_">
					<use xlink:href="#SVGID_19_"  overflow="visible"/>
				</clipPath>
				<path clip-path="url(#SVGID_20_)" fill="#F9A25E" d="M84.896,102.004c0-1.504,0.928-2.544,2.288-2.544
					c1.52,0,2.432,0.976,2.432,2.528c0,1.52-0.944,2.512-2.353,2.512C85.824,104.5,84.896,103.556,84.896,102.004 M85.808,98.868
					l3.696-4.8l-1.184-0.624l-2.608,3.68c-1.264,1.792-2.224,3.12-2.224,4.768c0,2.24,1.408,3.744,3.504,3.744
					c2.496,0,4.032-1.488,4.032-3.776c0-2.096-1.408-3.536-3.456-3.536C86.928,98.324,86.368,98.5,85.808,98.868"/>
			</g>
		</g>
		<g clip-path="url(#SVGID_4_)">
			<g>
				<defs>
					<rect id="SVGID_21_" x="73.912" y="172.78" width="26.048" height="13.552"/>
				</defs>
				<clipPath id="SVGID_22_">
					<use xlink:href="#SVGID_21_"  overflow="visible"/>
				</clipPath>
				<path clip-path="url(#SVGID_22_)" fill="#F9A25E" d="M88.272,185.333h1.344v-2.464h1.344v-1.104h-1.344v-7.984H89.04
					l-6.128,9.088h5.36V185.333z M88.272,181.764h-3.345l3.345-5.024V181.764z"/>
			</g>
		</g>
		<g clip-path="url(#SVGID_4_)">
			<g>
				<defs>
					<rect id="SVGID_23_" x="74.456" y="252.779" width="25.248" height="13.553"/>
				</defs>
				<clipPath id="SVGID_24_">
					<use xlink:href="#SVGID_23_"  overflow="visible"/>
				</clipPath>
				<path clip-path="url(#SVGID_24_)" fill="#F9A25E" d="M90.353,264.036h-4.337l1.792-1.936c1.841-2,2.896-3.505,2.896-5.152
					c0-1.968-1.312-3.168-3.552-3.168c-2.256,0-3.584,1.265-3.584,3.425c0,0.096,0.016,0.207,0.016,0.303h1.28v-0.127
					c0-1.521,0.8-2.353,2.24-2.353c1.376,0,2.256,0.849,2.256,2c0,1.488-1.424,3.008-3.488,5.44l-2.416,2.863h6.896V264.036z"/>
			</g>
		</g>
		<path clip-path="url(#SVGID_4_)" fill="#F9A25E" d="M47.072,100.361l0.432-0.832c-2.288-1.232-4.864-1.856-7.728-1.856
			c-2.96,0-5.504,0.576-7.76,1.856l0.384,0.832c2.272-1.152,4.64-1.648,7.376-1.648C42.592,98.713,44.96,99.209,47.072,100.361
			 M40.672,108.009c-1.504,0-2.544-0.928-2.544-2.288c0-1.52,0.976-2.432,2.528-2.432c1.52,0,2.512,0.944,2.512,2.352
			C43.168,107.082,42.224,108.009,40.672,108.009 M37.536,107.098l-4.8-3.696l-0.624,1.184l3.68,2.608
			c1.792,1.264,3.12,2.224,4.768,2.224c2.24,0,3.744-1.408,3.744-3.504c0-2.496-1.488-4.032-3.776-4.032
			c-2.096,0-3.536,1.408-3.536,3.456C36.992,105.978,37.168,106.538,37.536,107.098 M34.464,116.457v0.928h4.304v4.224h0.912v-4.224
			H44v-0.928h-4.32v-4.208h-0.912v4.208H34.464z M38.288,131.289c-0.544-0.704-0.816-1.536-0.816-2.432
			c0-1.76,1.12-2.848,2.752-2.848c1.776,0,2.896,1.104,2.896,2.736c0,1.12-0.56,2-1.616,2.512l1.12,0.96
			c1.152-0.784,1.68-1.888,1.68-3.44c0-2.624-1.632-4.208-4.208-4.208c-2.288,0-3.728,1.392-3.728,3.632
			c0,0.64,0.128,1.232,0.416,1.776l-2.944-0.72v-4.096h-1.168v5.024l5.568,1.36L38.288,131.289z M47.072,133.497
			c-2.112,1.152-4.48,1.648-7.296,1.648c-2.736,0-5.104-0.496-7.376-1.648l-0.384,0.832c2.256,1.28,4.8,1.856,7.76,1.856
			c2.864,0,5.44-0.624,7.728-1.856L47.072,133.497z M42.8,148.057c1.008-0.56,1.504-1.488,1.504-2.816
			c0-1.584-0.944-2.608-2.272-2.608c-1.168,0-1.68,0.688-2.128,2.08c-0.384,1.184-0.48,1.84-1.232,1.84
			c-0.624,0-1.072-0.496-1.072-1.216c0-0.752,0.368-1.344,1.024-1.632l-0.608-0.992c-0.912,0.384-1.424,1.312-1.424,2.544
			c0,1.52,0.912,2.528,2.16,2.528c1.408,0,1.712-1.056,2.32-2.816c0.256-0.752,0.544-1.12,1.088-1.12
			c0.624,0,1.072,0.528,1.072,1.344s-0.368,1.424-1.136,1.824L42.8,148.057z M39.616,150.376v4.352
			c-1.216-0.128-1.968-1.008-1.968-2.176C37.648,151.256,38.352,150.457,39.616,150.376 M40.608,149.064h-0.24
			c-2.368,0-3.792,1.344-3.792,3.44c0,2.08,1.568,3.568,3.824,3.568c2.336,0,3.904-1.472,3.904-3.648
			c0-1.472-0.656-2.592-1.952-3.312l-0.624,0.928c1.04,0.592,1.552,1.36,1.552,2.32c0,1.376-1.008,2.368-2.56,2.368h-0.112V149.064z
			 M44,160.968v-1.216h-3.488c-1.872,0-2.8-0.64-2.8-1.936c0-0.224,0.048-0.48,0.144-0.752l-1.104-0.416
			c-0.096,0.272-0.144,0.544-0.144,0.832c0,1.088,0.512,1.76,1.728,2.4h-1.488v1.088H44z M40.448,169.289
			c-1.52,0-2.704-1.152-2.704-2.592c0-1.424,1.184-2.576,2.704-2.576c1.52,0,2.704,1.152,2.704,2.576
			C43.152,168.121,41.968,169.289,40.448,169.289 M40.448,170.584c1.04,0,1.968-0.384,2.72-1.136
			c0.736-0.736,1.136-1.696,1.136-2.752c0-1.04-0.416-2-1.152-2.752c-0.72-0.736-1.664-1.136-2.704-1.136c-1.04,0-2,0.4-2.72,1.136
			c-0.736,0.752-1.136,1.696-1.136,2.752c0,1.056,0.384,2.016,1.12,2.752C38.448,170.201,39.408,170.584,40.448,170.584
			 M42.304,171.625c0.544,0.752,0.816,1.44,0.816,2.208c0,1.488-1.152,2.56-2.592,2.56c-1.696,0-2.752-1.088-2.752-2.656
			c0-0.704,0.224-1.376,0.624-1.984h-1.312c-0.32,0.656-0.496,1.424-0.496,2.224c0,2.144,1.568,3.728,3.904,3.728
			c2.256,0,3.808-1.456,3.808-3.68c0-0.928-0.192-1.744-0.576-2.4H42.304z M37.648,180.968l-0.72,1.632
			c-0.464,1.04-1.024,1.536-1.84,1.536c-0.976,0-1.664-0.72-1.664-1.744c0-0.816,0.448-1.44,1.312-1.936l-0.72-1.12
			c-1.136,0.56-1.728,1.584-1.728,2.96c0,1.904,1.216,3.216,2.816,3.216c1.392,0,2.384-0.736,3.024-2.256l0.592-1.392
			c0.512-1.184,1.264-1.776,2.288-1.776c1.248,0,2.128,0.912,2.128,2.288c0,1.152-0.72,1.936-2.112,2.272l0.608,1.232
			c1.696-0.432,2.656-1.696,2.656-3.504c0-2.208-1.408-3.664-3.504-3.664C39.344,178.712,38.304,179.48,37.648,180.968 M44,192.456
			H32.56v1.36H44V192.456z M35.12,200.135l4.208-1.824v3.648L35.12,200.135z M32.112,200.135L44,205.319v-1.472l-3.504-1.488v-4.464
			L44,196.407v-1.472L32.112,200.135z M42.72,213.912h-8.896v-0.88c0-1.968,0.032-3.328,0.832-4.272c0.784-0.944,2-1.44,3.616-1.44
			s2.864,0.512,3.632,1.44c0.8,0.96,0.816,2.32,0.816,4.272V213.912z M44,215.271v-2.688c0-1.856-0.048-3.36-1.072-4.688
			c-1.008-1.312-2.592-2-4.64-2s-3.648,0.688-4.656,2c-1.072,1.392-1.072,3.04-1.072,5.184v2.192H44z M37.648,219.255l-0.72,1.632
			c-0.464,1.04-1.024,1.536-1.84,1.536c-0.976,0-1.664-0.72-1.664-1.744c0-0.816,0.448-1.44,1.312-1.936l-0.72-1.12
			c-1.136,0.56-1.728,1.584-1.728,2.96c0,1.904,1.216,3.216,2.816,3.216c1.392,0,2.384-0.736,3.024-2.256l0.592-1.392
			c0.512-1.184,1.264-1.776,2.288-1.776c1.248,0,2.128,0.912,2.128,2.288c0,1.152-0.72,1.936-2.112,2.272l0.608,1.232
			c1.696-0.432,2.656-1.696,2.656-3.504c0-2.208-1.408-3.664-3.504-3.664C39.344,217,38.304,217.768,37.648,219.255 M35.12,229.719
			l4.208-1.824v3.648L35.12,229.719z M32.112,229.719L44,234.903v-1.472l-3.504-1.488v-4.464L44,225.991v-1.472L32.112,229.719z
			 M44,242.248v-2.385c0-1.632-0.048-2.752-0.864-3.584c-0.576-0.576-1.44-0.944-2.384-0.944c-1.536,0-2.608,0.848-2.816,2.192
			c-0.32-1.088-1.152-1.696-2.368-1.696c-1.024,0-1.904,0.432-2.432,1.152c-0.528,0.72-0.576,1.632-0.576,2.88v2.385H44z
			 M38.64,240.888v-1.424c0-0.704,0.016-1.264,0.304-1.744c0.352-0.624,0.976-0.944,1.808-0.944c0.72,0,1.344,0.288,1.68,0.752
			c0.352,0.496,0.384,1.248,0.384,2.336v1.024H38.64z M33.744,240.888v-1.024c0-1.808,0.336-2.64,1.984-2.64
			c1.392,0,1.84,0.8,1.84,2.64v1.04L33.744,240.888z"/>
	</g>
	<rect x="163.368" y="71.6" clip-path="url(#SVGID_2_)" fill="#A6A8AA" width="113.536" height="268.4"/>
	<rect x="507.368" y="78" clip-path="url(#SVGID_2_)" fill="#F9A25E" width="113.536" height="262"/>
	<rect x="291.096" y="98" clip-path="url(#SVGID_2_)" fill="#D1D3D4" width="113.536" height="242"/>
	<rect x="635.096" y="147.6" clip-path="url(#SVGID_2_)" fill="#FCD1AE" width="113.536" height="192.4"/>
	<line clip-path="url(#SVGID_2_)" fill="none" stroke="#F9A25E" stroke-width="3" x1="0" y1="340" x2="912" y2="340"/>
	<g clip-path="url(#SVGID_2_)">
		<defs>
			<rect id="SVGID_25_" x="-9" y="-1" width="930" height="482.252"/>
		</defs>
		<clipPath id="SVGID_26_">
			<use xlink:href="#SVGID_25_"  overflow="visible"/>
		</clipPath>
		<path clip-path="url(#SVGID_26_)" fill="#F9A25E" d="M663.663,431.072l0.832,0.432c1.232-2.287,1.857-4.863,1.857-7.728
			c0-2.96-0.577-5.504-1.857-7.76l-0.832,0.384c1.152,2.271,1.648,4.64,1.648,7.376C665.312,426.593,664.815,428.96,663.663,431.072
			 M658.048,428h1.328v-11.328h-2.896l-0.769,1.185h2.336V428z M652.112,426.704h-4.336l1.792-1.936c1.84-2,2.896-3.504,2.896-5.152
			c0-1.968-1.312-3.168-3.552-3.168c-2.256,0-3.584,1.264-3.584,3.424c0,0.097,0.017,0.208,0.017,0.305h1.279v-0.128
			c0-1.521,0.8-2.353,2.24-2.353c1.376,0,2.256,0.848,2.256,2c0,1.488-1.424,3.008-3.488,5.44L645.216,428h6.896V426.704z
			 M639.328,428h1.328v-11.328h-2.896l-0.768,1.185h2.336V428z M633.057,424.272h-9.36v0.912h9.36V424.272z M633.057,421.28h-9.36
			v0.912h9.36V421.28z M614.128,428h1.217v-3.695c0-0.784,0-1.376,0.415-1.889c0.4-0.496,1.024-0.768,1.744-0.768
			c1.28,0,1.904,0.704,1.904,2.144V428h1.216v-4.863c0-1.616-1.023-2.544-2.688-2.544c-1.12,0-1.984,0.432-2.592,1.359v-1.104
			h-1.217V428z M612.336,431.072c-1.151-2.112-1.647-4.479-1.647-7.296c0-2.736,0.496-5.104,1.647-7.376l-0.832-0.384
			c-1.279,2.256-1.855,4.8-1.855,7.76c0,2.864,0.624,5.44,1.855,7.728L612.336,431.072z"/>
		<path clip-path="url(#SVGID_26_)" fill="#F9A25E" d="M698.615,405.265c0,1.695-0.928,2.655-2.4,2.655
			c-1.424,0-2.32-1.023-2.32-2.815c0-1.584,0.881-2.496,2.305-2.496C697.639,402.608,698.615,403.648,698.615,405.265
			 M699.799,396.688h-1.216v6.304c-0.544-1.056-1.424-1.6-2.608-1.6c-2,0-3.376,1.455-3.376,3.855c0,2.336,1.376,3.856,3.425,3.856
			c1.104,0,2.031-0.576,2.592-1.601v1.297h1.184V396.688z M690.071,404.416h-4.353c0.128-1.216,1.008-1.968,2.176-1.968
			C689.191,402.448,689.991,403.152,690.071,404.416 M691.383,405.408v-0.24c0-2.367-1.344-3.791-3.439-3.791
			c-2.08,0-3.568,1.567-3.568,3.823c0,2.336,1.472,3.904,3.648,3.904c1.472,0,2.592-0.656,3.312-1.952l-0.928-0.624
			c-0.592,1.04-1.36,1.552-2.32,1.552c-1.376,0-2.368-1.008-2.368-2.56v-0.112H691.383z M676.167,408.801h1.216v-3.696
			c0-0.784,0-1.376,0.416-1.888c0.4-0.496,1.024-0.769,1.744-0.769c1.28,0,1.904,0.704,1.904,2.144v4.209h1.216v-4.864
			c0-1.616-1.024-2.544-2.688-2.544c-1.119,0-1.983,0.432-2.592,1.359v-1.104h-1.216V408.801z M672.151,398.209
			c0,0.512,0.399,0.896,0.896,0.896s0.896-0.384,0.896-0.88s-0.4-0.912-0.896-0.912S672.151,397.713,672.151,398.209
			 M672.439,408.801h1.216v-7.152h-1.216V408.801z M664.472,405.265c0-1.616,0.992-2.656,2.433-2.656
			c1.424,0,2.304,0.912,2.304,2.496c0,1.792-0.912,2.815-2.336,2.815C665.4,407.92,664.472,406.96,664.472,405.265 M663.304,396.688
			v12.112h1.168v-1.297c0.561,1.024,1.504,1.601,2.608,1.601c2.048,0,3.424-1.521,3.424-3.856c0-2.4-1.376-3.855-3.376-3.855
			c-1.184,0-2.063,0.544-2.608,1.6v-6.304H663.304z M659.768,408.801h1.217v-4.864c0-1.616-0.96-2.544-2.544-2.544
			c-1.089,0-1.921,0.464-2.544,1.455c-0.416-0.959-1.248-1.455-2.4-1.455c-1.072,0-1.888,0.447-2.464,1.359v-1.104h-1.216v7.152
			h1.216v-3.696c0-0.177-0.017-0.353-0.017-0.513c0-0.543,0.064-0.991,0.368-1.375c0.384-0.496,0.977-0.769,1.632-0.769
			c1.217,0,1.776,0.704,1.776,2.144v4.209h1.216v-3.696c0-0.16-0.016-0.304-0.016-0.448c0-0.592,0.08-1.04,0.384-1.439
			c0.384-0.496,0.96-0.769,1.616-0.769c1.216,0,1.775,0.704,1.775,2.144V408.801z M641.512,405.248c0-1.52,1.152-2.703,2.593-2.703
			c1.424,0,2.575,1.184,2.575,2.703c0,1.521-1.151,2.704-2.575,2.704C642.68,407.952,641.512,406.769,641.512,405.248
			 M640.216,405.248c0,1.04,0.384,1.969,1.136,2.721c0.736,0.735,1.696,1.136,2.753,1.136c1.04,0,2-0.416,2.752-1.152
			c0.735-0.72,1.136-1.664,1.136-2.704c0-1.039-0.4-2-1.136-2.72c-0.752-0.735-1.696-1.136-2.752-1.136
			c-1.057,0-2.017,0.384-2.753,1.119C640.6,403.248,640.216,404.209,640.216,405.248 M638.68,400.096v-1.775
			c-1.184-0.816-2.399-1.232-3.76-1.232c-1.68,0-3.088,0.561-4.256,1.681c-1.2,1.168-1.792,2.592-1.792,4.368
			c0,2.031,0.912,3.76,2.576,4.912c0.992,0.688,2.16,1.056,3.376,1.056c1.392,0,2.72-0.433,3.855-1.248v-1.808
			c-1.04,1.216-2.304,1.808-3.744,1.808c-1.552,0-2.943-0.736-3.855-2.032c-0.528-0.752-0.784-1.648-0.784-2.704
			c0-1.344,0.433-2.464,1.312-3.376c0.848-0.88,2.063-1.392,3.264-1.392C636.36,398.353,637.576,398.896,638.68,400.096
			 M621.08,405.296c0,1.648-0.896,2.593-2.336,2.593c-1.521,0-2.384-0.977-2.384-2.704c0-1.632,0.863-2.576,2.336-2.576
			C620.072,402.608,621.08,403.633,621.08,405.296 M622.264,401.648h-1.216v1.344c-0.544-1.056-1.424-1.6-2.624-1.6
			c-2,0-3.359,1.455-3.359,3.855c0,2.336,1.376,3.856,3.424,3.856c1.104,0,2.016-0.561,2.592-1.601v1.297h1.184V401.648z
			 M611.593,398.209c0,0.512,0.4,0.896,0.896,0.896s0.896-0.384,0.896-0.88s-0.399-0.912-0.896-0.912
			S611.593,397.713,611.593,398.209 M611.881,408.801h1.216v-7.152h-1.216V408.801z M603.993,408.801h6.224v-1.072h-4.063
			l4.096-6.08h-6v1.072h3.84L603.993,408.801z M601.465,408.801h1.216v-4.864c0-1.616-0.96-2.544-2.544-2.544
			c-1.088,0-1.92,0.464-2.544,1.455c-0.416-0.959-1.248-1.455-2.399-1.455c-1.072,0-1.889,0.447-2.464,1.359v-1.104h-1.217v7.152
			h1.217v-3.696c0-0.177-0.017-0.353-0.017-0.513c0-0.543,0.064-0.991,0.368-1.375c0.384-0.496,0.976-0.769,1.632-0.769
			c1.216,0,1.776,0.704,1.776,2.144v4.209h1.216v-3.696c0-0.16-0.016-0.304-0.016-0.448c0-0.592,0.08-1.04,0.384-1.439
			c0.384-0.496,0.96-0.769,1.616-0.769c1.216,0,1.775,0.704,1.775,2.144V408.801z M587.497,398.209c0,0.512,0.4,0.896,0.896,0.896
			c0.496,0,0.896-0.384,0.896-0.88s-0.4-0.912-0.896-0.912C587.897,397.312,587.497,397.713,587.497,398.209 M587.785,408.801h1.216
			v-7.152h-1.216V408.801z M585.609,400.096v-1.775c-1.185-0.816-2.4-1.232-3.761-1.232c-1.68,0-3.088,0.561-4.256,1.681
			c-1.2,1.168-1.792,2.592-1.792,4.368c0,2.031,0.912,3.76,2.576,4.912c0.992,0.688,2.16,1.056,3.376,1.056
			c1.392,0,2.72-0.433,3.856-1.248v-1.808c-1.04,1.216-2.305,1.808-3.744,1.808c-1.552,0-2.944-0.736-3.856-2.032
			c-0.527-0.752-0.784-1.648-0.784-2.704c0-1.344,0.433-2.464,1.312-3.376c0.848-0.88,2.063-1.392,3.264-1.392
			C583.289,398.353,584.505,398.896,585.609,400.096"/>
		<path clip-path="url(#SVGID_26_)" fill="#F9A25E" d="M294.984,431.072l0.831,0.432c1.232-2.287,1.856-4.863,1.856-7.728
			c0-2.96-0.575-5.504-1.856-7.76l-0.831,0.384c1.152,2.271,1.647,4.64,1.647,7.376C296.632,426.593,296.137,428.96,294.984,431.072
			 M286.809,427.856l1.12,0.576l5.712-11.761h-7.248v1.185h5.296L286.809,427.856z M277.305,422.288
			c0.703-0.544,1.535-0.815,2.432-0.815c1.76,0,2.848,1.12,2.848,2.752c0,1.775-1.104,2.896-2.735,2.896c-1.12,0-2-0.56-2.513-1.616
			l-0.96,1.12c0.784,1.152,1.889,1.681,3.44,1.681c2.624,0,4.208-1.633,4.208-4.208c0-2.288-1.393-3.729-3.632-3.729
			c-0.641,0-1.232,0.128-1.776,0.416l0.72-2.943h4.097v-1.169h-5.024l-1.36,5.568L277.305,422.288z M273.736,424.272h-9.36v0.912
			h9.36V424.272z M273.736,421.28h-9.36v0.912h9.36V421.28z M254.809,428h1.216v-3.695c0-0.784,0-1.376,0.416-1.889
			c0.399-0.496,1.023-0.768,1.744-0.768c1.279,0,1.903,0.704,1.903,2.144V428h1.217v-4.863c0-1.616-1.024-2.544-2.688-2.544
			c-1.12,0-1.984,0.432-2.592,1.359v-1.104h-1.216V428z M253.017,431.072c-1.152-2.112-1.648-4.479-1.648-7.296
			c0-2.736,0.496-5.104,1.648-7.376l-0.832-0.384c-1.28,2.256-1.856,4.8-1.856,7.76c0,2.864,0.624,5.44,1.856,7.728L253.017,431.072
			z"/>
		<path clip-path="url(#SVGID_26_)" fill="#F9A25E" d="M294.008,405.248c0-1.52,1.151-2.703,2.592-2.703
			c1.424,0,2.576,1.184,2.576,2.703c0,1.521-1.152,2.704-2.576,2.704S294.008,406.769,294.008,405.248 M292.712,405.248
			c0,1.04,0.384,1.969,1.136,2.721c0.736,0.735,1.696,1.136,2.752,1.136c1.04,0,2-0.416,2.752-1.152
			c0.736-0.72,1.136-1.664,1.136-2.704c0-1.039-0.399-2-1.136-2.72c-0.752-0.735-1.696-1.136-2.752-1.136s-2.016,0.384-2.752,1.119
			C293.096,403.248,292.712,404.209,292.712,405.248 M285.384,405.265c0-1.616,0.992-2.656,2.432-2.656
			c1.424,0,2.304,0.912,2.304,2.496c0,1.792-0.911,2.815-2.336,2.815C286.312,407.92,285.384,406.96,285.384,405.265
			 M284.216,396.688v12.112h1.168v-1.297c0.56,1.024,1.504,1.601,2.607,1.601c2.049,0,3.425-1.521,3.425-3.856
			c0-2.4-1.376-3.855-3.376-3.855c-1.185,0-2.064,0.544-2.608,1.6v-6.304H284.216z M281.144,404.416h-4.352
			c0.128-1.216,1.008-1.968,2.176-1.968C280.264,402.448,281.063,403.152,281.144,404.416 M282.455,405.408v-0.24
			c0-2.367-1.344-3.791-3.439-3.791c-2.08,0-3.568,1.567-3.568,3.823c0,2.336,1.473,3.904,3.648,3.904
			c1.472,0,2.592-0.656,3.312-1.952l-0.928-0.624c-0.592,1.04-1.36,1.552-2.32,1.552c-1.376,0-2.367-1.008-2.367-2.56v-0.112
			H282.455z M274.457,407.104c-0.752,0.544-1.44,0.815-2.208,0.815c-1.488,0-2.561-1.151-2.561-2.592
			c0-1.695,1.088-2.752,2.656-2.752c0.704,0,1.376,0.225,1.983,0.624v-1.312c-0.656-0.32-1.424-0.496-2.224-0.496
			c-2.145,0-3.728,1.568-3.728,3.903c0,2.257,1.456,3.809,3.68,3.809c0.928,0,1.744-0.192,2.4-0.576V407.104z M265.417,405.296
			c0,1.648-0.896,2.593-2.337,2.593c-1.52,0-2.384-0.977-2.384-2.704c0-1.632,0.864-2.576,2.336-2.576
			C264.408,402.608,265.417,403.633,265.417,405.296 M266.601,401.648h-1.216v1.344c-0.544-1.056-1.424-1.6-2.624-1.6
			c-2,0-3.36,1.455-3.36,3.855c0,2.336,1.376,3.856,3.424,3.856c1.104,0,2.017-0.561,2.593-1.601v1.297h1.184V401.648z
			 M256.217,408.801h1.216v-12.112h-1.216V408.801z M249.593,403.664h1.04c1.184,0,2.111-0.031,2.88-0.576
			c0.72-0.512,1.168-1.455,1.168-2.576c0-1.119-0.448-2.063-1.168-2.575c-0.769-0.544-1.712-0.576-2.88-0.576h-2.4v11.44h1.36
			V403.664z M249.593,402.432v-3.823h0.656c1.983,0,2.96,0.319,2.96,1.983c0,1.584-0.992,1.84-2.96,1.84H249.593z"/>
		<path clip-path="url(#SVGID_26_)" fill="#808285" d="M763.532,105.333h1.328V94.004h-2.896l-0.768,1.184h2.336V105.333z
			 M754.54,105.636c2.4,0,3.952-2.128,3.952-5.936c0-3.808-1.536-5.92-3.984-5.92c-2.384,0-3.951,2.144-3.951,5.92
			C750.557,103.477,752.124,105.636,754.54,105.636 M754.524,104.517c-1.584,0-2.561-1.728-2.561-4.832c0-3.088,0.977-4.8,2.561-4.8
			c1.664,0,2.56,1.648,2.56,4.832C757.084,102.884,756.188,104.517,754.524,104.517 M745.181,105.636
			c2.399,0,3.951-2.128,3.951-5.936c0-3.808-1.535-5.92-3.983-5.92c-2.384,0-3.952,2.144-3.952,5.92
			C741.196,103.477,742.765,105.636,745.181,105.636 M745.164,104.517c-1.584,0-2.56-1.728-2.56-4.832c0-3.088,0.976-4.8,2.56-4.8
			c1.664,0,2.561,1.648,2.561,4.832C747.725,102.884,746.828,104.517,745.164,104.517 M737.229,104.564
			c0,0.512,0.399,0.912,0.928,0.912s0.944-0.4,0.944-0.912c0-0.512-0.416-0.928-0.944-0.928
			C737.645,103.636,737.229,104.052,737.229,104.564 M731.181,105.636c2.399,0,3.951-2.128,3.951-5.936
			c0-3.808-1.535-5.92-3.983-5.92c-2.384,0-3.952,2.144-3.952,5.92C727.196,103.477,728.765,105.636,731.181,105.636
			 M731.164,104.517c-1.584,0-2.56-1.728-2.56-4.832c0-3.088,0.976-4.8,2.56-4.8c1.664,0,2.561,1.648,2.561,4.832
			C733.725,102.884,732.828,104.517,731.164,104.517 M724.46,97.38v-0.992l-9.2,3.776v0.8l9.2,3.776v-1.008l-7.808-3.168
			L724.46,97.38z M706.557,101.78c0-1.696,0.928-2.672,2.399-2.672c1.424,0,2.32,1.024,2.32,2.816c0,1.584-0.88,2.512-2.304,2.512
			C707.532,104.437,706.557,103.396,706.557,101.78 M705.372,108.82h1.216v-4.784c0.544,1.056,1.425,1.6,2.608,1.6
			c2,0,3.376-1.44,3.376-3.856c0-2.352-1.376-3.856-3.424-3.856c-1.104,0-2.048,0.56-2.608,1.6V98.18h-1.168V108.82z"/>
	</g>
	<polyline clip-path="url(#SVGID_2_)" fill="none" stroke="#F9A25E" points="689.312,142.5 689.312,21.5 350.416,21.5 
		350.416,90.935 	"/>
	<polygon clip-path="url(#SVGID_2_)" fill="#F9A25E" points="689.312,147.963 691.864,140.95 686.76,140.95 	"/>
	<polygon clip-path="url(#SVGID_2_)" fill="#F9A25E" points="350.416,96.397 352.968,89.384 347.863,89.384 	"/>
	<g clip-path="url(#SVGID_2_)">
		<defs>
			<rect id="SVGID_27_" x="-9" y="-1" width="930" height="482.252"/>
		</defs>
		<clipPath id="SVGID_28_">
			<use xlink:href="#SVGID_27_"  overflow="visible"/>
		</clipPath>
		<path clip-path="url(#SVGID_28_)" fill="#808285" d="M442.078,472.295h-2.37l0.979-1.058c1.007-1.095,1.582-1.916,1.582-2.816
			c0-1.076-0.716-1.731-1.939-1.731c-1.234,0-1.959,0.689-1.959,1.871c0,0.053,0.009,0.113,0.009,0.165h0.699v-0.068
			c0-0.831,0.437-1.286,1.224-1.286c0.753,0,1.234,0.464,1.234,1.094c0,0.812-0.779,1.643-1.907,2.973l-1.32,1.565h3.769V472.295z
			 M434.806,477.278c0,0.479,0.374,0.854,0.869,0.854c0.494,0,0.884-0.374,0.884-0.854s-0.39-0.869-0.884-0.869
			C435.195,476.409,434.806,476.799,434.806,477.278 M431.761,473.889h-4.082c0.12-1.141,0.945-1.847,2.041-1.847
			C430.936,472.042,431.686,472.703,431.761,473.889 M432.989,474.816v-0.224c0-2.221-1.258-3.554-3.225-3.554
			c-1.95,0-3.344,1.469-3.344,3.584c0,2.19,1.378,3.659,3.419,3.659c1.381,0,2.43-0.614,3.104-1.829l-0.869-0.585
			c-0.554,0.976-1.275,1.456-2.175,1.456c-1.291,0-2.222-0.946-2.222-2.402v-0.105H432.989z M423.511,477.997h1.139v-11.354h-1.139
			V477.997z M419.686,468.067c0,0.48,0.375,0.84,0.84,0.84s0.839-0.359,0.839-0.824c0-0.464-0.374-0.854-0.839-0.854
			S419.686,467.604,419.686,468.067 M419.956,477.997h1.138v-6.703h-1.138V477.997z M412.486,477.997h1.273v-5.295h4.38v-1.184
			h-4.38v-3.077h4.38v-1.168h-5.653V477.997z M399.737,477.997h1.138v-3.464c0-0.735,0-1.29,0.39-1.771
			c0.375-0.465,0.96-0.72,1.637-0.72c1.199,0,1.785,0.66,1.785,2.011v3.944h1.139v-4.56c0-1.516-0.959-2.384-2.52-2.384
			c-1.051,0-1.86,0.404-2.431,1.273v-1.033h-1.138V477.997z M391.95,474.668c0-1.425,1.08-2.536,2.431-2.536
			c1.335,0,2.416,1.111,2.416,2.536c0,1.426-1.081,2.536-2.416,2.536C393.045,477.204,391.95,476.094,391.95,474.668
			 M390.737,474.668c0,0.975,0.358,1.846,1.062,2.551c0.69,0.689,1.59,1.063,2.581,1.063c0.976,0,1.876-0.39,2.581-1.078
			c0.688-0.675,1.063-1.562,1.063-2.536c0-0.976-0.375-1.876-1.063-2.551c-0.705-0.689-1.591-1.063-2.581-1.063
			c-0.991,0-1.891,0.359-2.581,1.048C391.096,472.792,390.737,473.692,390.737,474.668 M383.597,474.713
			c0,1.546-0.84,2.431-2.19,2.431c-1.425,0-2.236-0.915-2.236-2.536c0-1.529,0.812-2.416,2.191-2.416
			C382.652,472.191,383.597,473.153,383.597,474.713 M384.705,471.294h-1.138v1.258c-0.511-0.99-1.336-1.498-2.461-1.498
			c-1.876,0-3.149,1.363-3.149,3.614c0,2.19,1.288,3.614,3.209,3.614c1.035,0,1.891-0.523,2.431-1.498v1.213h1.108V471.294z
			 M374.837,472.237v5.76h1.138v-5.76h1.261v-0.943h-1.261v-2.7h-1.138v2.7h-1.229v0.943H374.837z M371.327,474.713
			c0,1.546-0.84,2.431-2.19,2.431c-1.426,0-2.235-0.915-2.235-2.536c0-1.529,0.81-2.416,2.19-2.416
			C370.382,472.191,371.327,473.153,371.327,474.713 M372.436,471.294h-1.139v1.258c-0.51-0.99-1.335-1.498-2.461-1.498
			c-1.875,0-3.149,1.363-3.149,3.614c0,2.19,1.289,3.614,3.21,3.614c1.035,0,1.891-0.523,2.431-1.498v1.213h1.108V471.294z
			 M356.791,476.799v-8.342h0.825c1.846,0,3.121,0.03,4.006,0.78c0.885,0.734,1.351,1.876,1.351,3.391s-0.48,2.686-1.351,3.406
			c-0.9,0.75-2.175,0.765-4.006,0.765H356.791z M355.518,477.997h2.519c1.741,0,3.15-0.045,4.396-1.003
			c1.23-0.945,1.874-2.432,1.874-4.352s-0.644-3.421-1.874-4.366c-1.305-1.003-2.85-1.003-4.86-1.003h-2.054V477.997z
			 M347.673,474.683c0,1.591-0.871,2.491-2.251,2.491c-1.336,0-2.176-0.96-2.176-2.641c0-1.486,0.825-2.342,2.161-2.342
			C346.757,472.191,347.673,473.167,347.673,474.683 M348.781,466.644h-1.139v5.908c-0.51-0.989-1.336-1.498-2.445-1.498
			c-1.876,0-3.164,1.363-3.164,3.614c0,2.19,1.288,3.614,3.209,3.614c1.035,0,1.906-0.539,2.431-1.498v1.214h1.108V466.644z
			 M334.263,477.997h1.139v-3.464c0-0.735,0-1.29,0.39-1.771c0.375-0.465,0.961-0.72,1.636-0.72c1.201,0,1.786,0.66,1.786,2.011
			v3.944h1.138v-4.56c0-1.516-0.958-2.384-2.519-2.384c-1.05,0-1.861,0.404-2.431,1.273v-1.033h-1.139V477.997z M330.933,474.713
			c0,1.546-0.84,2.431-2.19,2.431c-1.425,0-2.236-0.915-2.236-2.536c0-1.529,0.812-2.416,2.191-2.416
			C329.988,472.191,330.933,473.153,330.933,474.713 M332.041,471.294h-1.138v1.258c-0.511-0.99-1.335-1.498-2.461-1.498
			c-1.876,0-3.149,1.363-3.149,3.614c0,2.19,1.288,3.614,3.209,3.614c1.036,0,1.891-0.523,2.431-1.498v1.213h1.108V471.294z
			 M317.554,473.003h0.726v-6.191h-1.582l-0.419,0.646h1.275V473.003z M311.747,477.997h1.259v-2.311h1.26v-1.032h-1.26v-7.485
			h-0.54l-5.744,8.518h5.025V477.997z M311.747,474.654h-3.135l3.135-4.712V474.654z M301.712,477.997h1.244v-10.618h-2.714
			l-0.721,1.108h2.19V477.997z M293.282,478.282c2.25,0,3.704-1.993,3.704-5.564s-1.438-5.549-3.734-5.549
			c-2.236,0-3.704,2.008-3.704,5.549S291.016,478.282,293.282,478.282 M293.267,477.233c-1.485,0-2.4-1.619-2.4-4.53
			c0-2.896,0.915-4.501,2.4-4.501c1.561,0,2.401,1.545,2.401,4.53C295.668,475.704,294.827,477.233,293.267,477.233
			 M287.371,476.784h-4.065l1.682-1.816c1.725-1.875,2.714-3.286,2.714-4.829c0-1.847-1.229-2.97-3.329-2.97
			c-2.116,0-3.359,1.183-3.359,3.21c0,0.089,0.016,0.194,0.016,0.283h1.197v-0.119c0-1.425,0.75-2.206,2.102-2.206
			c1.29,0,2.116,0.796,2.116,1.877c0,1.393-1.336,2.819-3.272,5.1l-2.263,2.684h6.463V476.784z M273.393,477.997h1.139v-11.354
			h-1.139V477.997z M270.003,474.713c0,1.546-0.84,2.431-2.191,2.431c-1.426,0-2.235-0.915-2.235-2.536
			c0-1.529,0.81-2.416,2.19-2.416C269.058,472.191,270.003,473.153,270.003,474.713 M271.111,471.294h-1.139v1.258
			c-0.51-0.99-1.336-1.498-2.461-1.498c-1.876,0-3.148,1.363-3.148,3.614c0,2.19,1.288,3.614,3.209,3.614
			c1.035,0,1.891-0.523,2.431-1.498v1.213h1.108V471.294z M256.893,472.237v5.76h1.139v-5.76h1.26v-0.943h-1.26v-2.7h-1.139v2.7
			h-1.229v0.943H256.893z M253.833,473.889h-4.082c0.121-1.141,0.946-1.847,2.041-1.847
			C253.008,472.042,253.758,472.703,253.833,473.889 M255.061,474.816v-0.224c0-2.221-1.258-3.554-3.224-3.554
			c-1.95,0-3.344,1.469-3.344,3.584c0,2.19,1.379,3.659,3.419,3.659c1.381,0,2.431-0.614,3.104-1.829l-0.868-0.585
			c-0.556,0.976-1.275,1.456-2.177,1.456c-1.29,0-2.221-0.946-2.221-2.402v-0.105H255.061z M241.848,473.889h-4.081
			c0.12-1.141,0.945-1.847,2.041-1.847C241.023,472.042,241.773,472.703,241.848,473.889 M243.077,474.816v-0.224
			c0-2.221-1.259-3.554-3.225-3.554c-1.95,0-3.345,1.469-3.345,3.584c0,2.19,1.379,3.659,3.42,3.659c1.38,0,2.431-0.614,3.104-1.829
			l-0.869-0.585c-0.555,0.976-1.275,1.456-2.175,1.456c-1.291,0-2.222-0.946-2.222-2.402v-0.105H243.077z M238.728,470.242h0.886
			l2.084-2.548h-1.47L238.728,470.242z M230.898,471.054h-0.181l-2.04,4.814l-1.785-4.574h-1.273l2.983,7.123l2.205-5.145
			l2.204,5.145l2.985-7.123h-1.29l-1.8,4.574L230.898,471.054z M223.909,473.889h-4.082c0.12-1.141,0.945-1.847,2.041-1.847
			C223.083,472.042,223.834,472.703,223.909,473.889 M225.137,474.816v-0.224c0-2.221-1.258-3.554-3.224-3.554
			c-1.951,0-3.344,1.469-3.344,3.584c0,2.19,1.378,3.659,3.419,3.659c1.381,0,2.43-0.614,3.104-1.829l-0.869-0.585
			c-0.554,0.976-1.274,1.456-2.175,1.456c-1.291,0-2.221-0.946-2.221-2.402v-0.105H225.137z M215.779,474.683
			c0,1.591-0.87,2.491-2.251,2.491c-1.336,0-2.177-0.96-2.177-2.641c0-1.486,0.825-2.342,2.161-2.342
			C214.864,472.191,215.779,473.167,215.779,474.683 M216.887,466.644h-1.138v5.908c-0.51-0.989-1.336-1.498-2.446-1.498
			c-1.876,0-3.164,1.363-3.164,3.614c0,2.19,1.288,3.614,3.209,3.614c1.035,0,1.906-0.539,2.432-1.498v1.214h1.107V466.644z
			 M202.369,477.997h1.138v-3.464c0-0.735,0-1.29,0.391-1.771c0.376-0.465,0.961-0.72,1.636-0.72c1.201,0,1.786,0.66,1.786,2.011
			v3.944h1.138v-4.56c0-1.516-0.958-2.384-2.519-2.384c-1.051,0-1.861,0.404-2.432,1.273v-1.033h-1.138V477.997z M199.039,474.713
			c0,1.546-0.84,2.431-2.191,2.431c-1.425,0-2.235-0.915-2.235-2.536c0-1.529,0.811-2.416,2.19-2.416
			C198.094,472.191,199.039,473.153,199.039,474.713 M200.147,471.294h-1.139v1.258c-0.51-0.99-1.335-1.498-2.461-1.498
			c-1.876,0-3.148,1.363-3.148,3.614c0,2.19,1.287,3.614,3.209,3.614c1.035,0,1.891-0.523,2.431-1.498v1.213h1.108V471.294z
			 M187.264,477.997h5.324v-1.213h-4.05v-9.511h-1.274V477.997z M179.48,477.997h1.138v-4.56c0-1.516-0.899-2.384-2.384-2.384
			c-1.021,0-1.802,0.435-2.387,1.363c-0.39-0.899-1.169-1.363-2.249-1.363c-1.006,0-1.771,0.419-2.311,1.273v-1.033h-1.138v6.703
			h1.138v-3.464c0-0.165-0.015-0.33-0.015-0.48c0-0.51,0.06-0.931,0.345-1.291c0.359-0.465,0.915-0.72,1.531-0.72
			c1.14,0,1.666,0.66,1.666,2.011v3.944h1.138v-3.464c0-0.15-0.015-0.285-0.015-0.42c0-0.556,0.074-0.977,0.359-1.352
			c0.36-0.465,0.9-0.72,1.517-0.72c1.14,0,1.666,0.66,1.666,2.011V477.997z M162.363,474.668c0-1.425,1.08-2.536,2.431-2.536
			c1.335,0,2.416,1.111,2.416,2.536c0,1.426-1.081,2.536-2.416,2.536C163.458,477.204,162.363,476.094,162.363,474.668
			 M161.15,474.668c0,0.975,0.358,1.846,1.062,2.551c0.69,0.689,1.59,1.063,2.581,1.063c0.975,0,1.876-0.39,2.581-1.078
			c0.688-0.675,1.063-1.562,1.063-2.536c0-0.976-0.375-1.876-1.063-2.551c-0.705-0.689-1.591-1.063-2.581-1.063
			c-0.991,0-1.891,0.359-2.581,1.048C161.509,472.792,161.15,473.692,161.15,474.668 M156.515,477.997h1.139v-3.27
			c0-1.756,0.6-2.626,1.814-2.626c0.21,0,0.45,0.045,0.705,0.136l0.39-1.033c-0.255-0.09-0.51-0.135-0.779-0.135
			c-1.021,0-1.65,0.479-2.25,1.617v-1.393h-1.019V477.997z M152.54,477.997h1.138v-5.76h1.785v-0.943h-1.785v-1.786
			c0-1.291,0.03-1.906,0.885-1.906c0.301,0,0.601,0.075,0.9,0.24v-1.183c-0.314-0.105-0.645-0.15-0.99-0.15
			c-1.604,0-1.933,0.839-1.933,2.849v1.937h-1.29v0.943h1.29V477.997z M144.515,474.683c0,1.591-0.87,2.491-2.251,2.491
			c-1.335,0-2.176-0.96-2.176-2.641c0-1.486,0.826-2.342,2.161-2.342C143.6,472.191,144.515,473.167,144.515,474.683
			 M145.623,466.644h-1.138v5.908c-0.511-0.989-1.335-1.498-2.446-1.498c-1.876,0-3.164,1.363-3.164,3.614
			c0,2.19,1.288,3.614,3.209,3.614c1.036,0,1.906-0.539,2.431-1.498v1.214h1.108V466.644z M136.505,473.889h-4.082
			c0.12-1.141,0.946-1.847,2.041-1.847C135.68,472.042,136.43,472.703,136.505,473.889 M137.733,474.816v-0.224
			c0-2.221-1.259-3.554-3.225-3.554c-1.951,0-3.344,1.469-3.344,3.584c0,2.19,1.378,3.659,3.419,3.659
			c1.381,0,2.43-0.614,3.104-1.829l-0.867-0.585c-0.556,0.976-1.275,1.456-2.177,1.456c-1.29,0-2.221-0.946-2.221-2.402v-0.105
			H137.733z M128.12,472.237v5.76h1.139v-5.76h1.26v-0.943h-1.26v-2.7h-1.139v2.7h-1.23v0.943H128.12z M120.544,474.668
			c0-1.591,0.87-2.506,2.251-2.506c1.335,0,2.176,0.96,2.176,2.641c0,1.486-0.826,2.356-2.161,2.356
			C121.459,477.159,120.544,476.184,120.544,474.668 M119.436,481.252h1.139v-4.468c0.51,0.988,1.335,1.498,2.445,1.498
			c1.877,0,3.164-1.349,3.164-3.614c0-2.206-1.287-3.614-3.209-3.614c-1.035,0-1.921,0.524-2.445,1.498v-1.258h-1.094V481.252z
			 M116.106,474.713c0,1.546-0.842,2.431-2.191,2.431c-1.426,0-2.236-0.915-2.236-2.536c0-1.529,0.811-2.416,2.191-2.416
			C115.16,472.191,116.106,473.153,116.106,474.713 M117.214,471.294h-1.138v1.258c-0.51-0.99-1.336-1.498-2.461-1.498
			c-1.876,0-3.149,1.363-3.149,3.614c0,2.19,1.288,3.614,3.209,3.614c1.035,0,1.892-0.523,2.432-1.498v1.213h1.107V471.294z
			 M107.601,474.683c0,1.591-0.869,2.491-2.251,2.491c-1.336,0-2.176-0.96-2.176-2.641c0-1.486,0.825-2.342,2.161-2.342
			C106.686,472.191,107.601,473.167,107.601,474.683 M108.709,466.644h-1.138v5.908c-0.511-0.989-1.336-1.498-2.446-1.498
			c-1.876,0-3.164,1.363-3.164,3.614c0,2.19,1.288,3.614,3.209,3.614c1.035,0,1.906-0.539,2.431-1.498v1.214h1.108V466.644z
			 M96.68,469.673l1.71,3.946h-3.42L96.68,469.673z M96.68,466.854l-4.858,11.144h1.38l1.394-3.285h4.186l1.394,3.285h1.38
			L96.68,466.854z"/>
		<path clip-path="url(#SVGID_28_)" fill="#6D6E71" d="M235.744,213.132h2.332v-15.576h-4.598l-0.99,2.024h3.256V213.132z
			 M219.223,212.802l2.067,0.924l7.921-16.17h-10.847v2.024h7.282L219.223,212.802z M212.14,211.944c0,0.77,0.616,1.386,1.408,1.386
			s1.407-0.616,1.407-1.386c0-0.792-0.615-1.43-1.407-1.43S212.14,211.152,212.14,211.944 M200.699,208.314
			c0-1.87,1.166-3.146,2.838-3.146c1.893,0,2.992,1.188,2.992,3.146c0,1.914-1.122,3.124-3.014,3.124
			C201.888,211.438,200.699,210.228,200.699,208.314 M202.13,203.584l4.554-5.94l-1.958-0.99l-2.75,3.894
			c-2.112,2.97-3.718,5.104-3.718,7.744c0,3.124,2.046,5.258,5.191,5.258c3.345,0,5.566-2.156,5.566-5.39
			c0-3.014-2.068-5.082-4.84-5.082C203.493,203.078,202.812,203.254,202.13,203.584"/>
		<path clip-path="url(#SVGID_28_)" fill="#6D6E71" d="M576.467,212.57l-1.694,1.87c1.166,1.584,2.75,2.31,4.906,2.31
			c3.74,0,6.05-2.31,6.05-5.786c0-3.08-2.068-5.192-5.06-5.192c-0.814,0-1.606,0.176-2.442,0.528l0.924-3.476h5.896v-2.068h-7.437
			l-1.958,7.986l0.639,0.132c0.857-0.88,2.002-1.342,3.321-1.342c2.2,0,3.674,1.452,3.674,3.52c0,2.178-1.43,3.608-3.497,3.608
			C578.402,214.66,577.215,213.934,576.467,212.57 M563.289,212.57l-1.694,1.87c1.166,1.584,2.75,2.31,4.906,2.31
			c3.739,0,6.05-2.31,6.05-5.786c0-3.08-2.068-5.192-5.061-5.192c-0.813,0-1.605,0.176-2.441,0.528l0.924-3.476h5.896v-2.068h-7.436
			l-1.958,7.986l0.638,0.132c0.858-0.88,2.002-1.342,3.322-1.342c2.2,0,3.674,1.452,3.674,3.52c0,2.178-1.43,3.608-3.498,3.608
			C565.225,214.66,564.036,213.934,563.289,212.57 M556.14,215.144c0,0.77,0.616,1.386,1.408,1.386s1.407-0.616,1.407-1.386
			c0-0.792-0.615-1.43-1.407-1.43S556.14,214.352,556.14,215.144 M544.699,211.514c0-1.87,1.166-3.146,2.838-3.146
			c1.893,0,2.992,1.188,2.992,3.146c0,1.914-1.122,3.124-3.014,3.124C545.888,214.638,544.699,213.428,544.699,211.514
			 M546.13,206.784l4.554-5.94l-1.958-0.99l-2.75,3.894c-2.112,2.97-3.718,5.104-3.718,7.744c0,3.124,2.046,5.258,5.191,5.258
			c3.345,0,5.566-2.156,5.566-5.39c0-3.014-2.068-5.082-4.84-5.082C547.493,206.278,546.812,206.454,546.13,206.784"/>
		<path clip-path="url(#SVGID_28_)" fill="#6D6E71" d="M360.194,222.57l-1.694,1.87c1.166,1.584,2.75,2.31,4.906,2.31
			c3.74,0,6.05-2.31,6.05-5.786c0-3.08-2.067-5.192-5.06-5.192c-0.814,0-1.606,0.176-2.442,0.528l0.925-3.476h5.896v-2.068h-7.436
			l-1.958,7.986l0.638,0.132c0.858-0.88,2.002-1.342,3.322-1.342c2.199,0,3.674,1.452,3.674,3.52c0,2.178-1.43,3.608-3.498,3.608
			C362.131,224.66,360.942,223.934,360.194,222.57 M356.784,218.764c0-5.412-2.067-8.316-5.632-8.316
			c-3.52,0-5.676,2.948-5.676,8.14c0,5.236,2.134,8.162,5.654,8.162C354.606,226.75,356.784,223.824,356.784,218.764
			 M351.087,224.55c-1.937,0-3.059-2.068-3.059-5.94c0-3.96,1.078-5.984,3.146-5.984c1.979,0,3.058,2.046,3.058,5.94
			C354.232,222.548,353.177,224.55,351.087,224.55 M339.867,225.144c0,0.77,0.616,1.386,1.408,1.386s1.408-0.616,1.408-1.386
			c0-0.792-0.616-1.43-1.408-1.43S339.867,224.352,339.867,225.144 M328.428,221.514c0-1.87,1.166-3.146,2.838-3.146
			c1.892,0,2.992,1.188,2.992,3.146c0,1.914-1.122,3.124-3.015,3.124C329.615,224.638,328.428,223.428,328.428,221.514
			 M329.857,216.784l4.554-5.94l-1.958-0.99l-2.75,3.894c-2.111,2.97-3.718,5.104-3.718,7.744c0,3.124,2.046,5.258,5.192,5.258
			c3.344,0,5.565-2.156,5.565-5.39c0-3.014-2.067-5.082-4.84-5.082C331.222,216.278,330.539,216.454,329.857,216.784"/>
		<path clip-path="url(#SVGID_28_)" fill="#6D6E71" d="M707.473,251.132h2.332v-15.576h-4.599l-0.989,2.024h3.256V251.132z
			 M692.513,242.816c-1.782,0.571-2.794,2.09-2.794,4.135c0,2.772,1.958,4.599,5.39,4.599c3.454,0,5.412-1.804,5.412-4.642
			c0-1.98-1.056-3.521-2.794-4.092c1.474-0.572,2.266-1.694,2.266-3.256c0-2.574-1.848-4.312-4.884-4.312
			c-2.992,0-4.862,1.738-4.862,4.202C690.246,241.1,690.973,242.156,692.513,242.816 M695.152,237.316
			c1.475,0,2.332,0.836,2.332,2.178c0,1.298-0.836,2.112-2.376,2.112c-1.496,0-2.354-0.813-2.354-2.112
			C692.755,238.174,693.656,237.316,695.152,237.316 M695.108,249.46c-1.87,0-2.926-1.056-2.926-2.728c0-1.694,1.1-2.75,2.926-2.75
			c1.848,0,2.948,1.033,2.948,2.75C698.057,248.404,696.979,249.46,695.108,249.46 M683.867,249.943
			c0,0.771,0.616,1.387,1.408,1.387s1.408-0.616,1.408-1.387c0-0.791-0.616-1.43-1.408-1.43S683.867,249.152,683.867,249.943
			 M676.674,240.506c-0.066,0.902-0.066,1.43-0.066,1.562v4.092h-3.938L676.674,240.506z M676.607,251.132h2.332v-3.19h1.914v-1.781
			h-1.914v-10.912h-0.726l-9.152,12.693h7.546V251.132z"/>
		<line clip-path="url(#SVGID_28_)" fill="none" stroke="#6D6E71" stroke-dasharray="4,4" x1="456" y1="0" x2="456" y2="340"/>
		<path clip-path="url(#SVGID_28_)" fill="#808285" d="M246.808,358.998h-4.353c0.128-1.216,1.009-1.968,2.177-1.968
			C245.928,357.03,246.728,357.734,246.808,358.998 M248.119,359.99v-0.24c0-2.367-1.344-3.791-3.439-3.791
			c-2.08,0-3.568,1.567-3.568,3.823c0,2.336,1.472,3.904,3.648,3.904c1.472,0,2.592-0.656,3.312-1.952l-0.928-0.624
			c-0.592,1.04-1.36,1.552-2.32,1.552c-1.376,0-2.368-1.008-2.368-2.56v-0.112H248.119z M232.903,363.383h1.216v-3.696
			c0-0.784,0-1.376,0.416-1.888c0.4-0.496,1.024-0.769,1.744-0.769c1.28,0,1.904,0.704,1.904,2.144v4.209h1.216v-4.864
			c0-1.616-1.024-2.544-2.688-2.544c-1.12,0-1.984,0.432-2.593,1.359v-1.104h-1.216V363.383z M228.888,352.791
			c0,0.512,0.399,0.896,0.896,0.896s0.896-0.384,0.896-0.88s-0.4-0.912-0.896-0.912S228.888,352.295,228.888,352.791
			 M229.176,363.383h1.216v-7.152h-1.216V363.383z M225.385,363.383h1.216v-12.112h-1.216V363.383z M222.248,358.998h-4.352
			c0.128-1.216,1.008-1.968,2.176-1.968C221.368,357.03,222.169,357.734,222.248,358.998 M223.561,359.99v-0.24
			c0-2.367-1.344-3.791-3.44-3.791c-2.08,0-3.567,1.567-3.567,3.823c0,2.336,1.472,3.904,3.647,3.904
			c1.473,0,2.593-0.656,3.312-1.952l-0.928-0.624c-0.593,1.04-1.36,1.552-2.32,1.552c-1.376,0-2.368-1.008-2.368-2.56v-0.112
			H223.561z M209.992,362.182c0.561,1.009,1.488,1.505,2.816,1.505c1.584,0,2.607-0.944,2.607-2.272c0-1.168-0.688-1.68-2.079-2.128
			c-1.185-0.384-1.841-0.479-1.841-1.231c0-0.625,0.496-1.072,1.217-1.072c0.752,0,1.344,0.368,1.632,1.023l0.992-0.607
			c-0.385-0.912-1.312-1.424-2.544-1.424c-1.521,0-2.528,0.912-2.528,2.16c0,1.408,1.056,1.711,2.815,2.32
			c0.752,0.256,1.12,0.543,1.12,1.088c0,0.623-0.527,1.071-1.344,1.071s-1.424-0.368-1.824-1.136L209.992,362.182z M207.192,359.879
			c0,1.647-0.896,2.592-2.336,2.592c-1.52,0-2.384-0.977-2.384-2.704c0-1.632,0.864-2.576,2.336-2.576
			C206.185,357.19,207.192,358.215,207.192,359.879 M208.377,356.23h-1.217v1.344c-0.544-1.056-1.424-1.6-2.624-1.6
			c-2,0-3.359,1.455-3.359,3.855c0,2.336,1.376,3.856,3.424,3.856c1.104,0,2.016-0.56,2.592-1.601v1.297h1.185V356.23z
			 M192.937,363.383h2.384c1.632,0,2.752-0.049,3.584-0.864c0.576-0.576,0.944-1.44,0.944-2.384c0-1.537-0.849-2.608-2.192-2.816
			c1.088-0.32,1.696-1.152,1.696-2.368c0-1.024-0.432-1.903-1.152-2.432c-0.72-0.528-1.632-0.576-2.88-0.576h-2.384V363.383z
			 M194.297,358.022h1.424c0.704,0,1.264,0.017,1.744,0.304c0.624,0.352,0.943,0.977,0.943,1.809c0,0.72-0.288,1.344-0.752,1.68
			c-0.496,0.352-1.248,0.384-2.336,0.384h-1.023V358.022z M194.297,353.127h1.023c1.809,0,2.641,0.336,2.641,1.983
			c0,1.392-0.801,1.84-2.641,1.84h-1.04L194.297,353.127z"/>
		<path clip-path="url(#SVGID_28_)" fill="#808285" d="M590.808,358.998h-4.353c0.129-1.216,1.009-1.968,2.177-1.968
			C589.928,357.03,590.728,357.734,590.808,358.998 M592.119,359.99v-0.24c0-2.367-1.344-3.791-3.439-3.791
			c-2.08,0-3.568,1.567-3.568,3.823c0,2.336,1.473,3.904,3.648,3.904c1.472,0,2.592-0.656,3.312-1.952l-0.928-0.624
			c-0.592,1.04-1.36,1.552-2.32,1.552c-1.376,0-2.368-1.008-2.368-2.56v-0.112H592.119z M576.903,363.383h1.216v-3.696
			c0-0.784,0-1.376,0.416-1.888c0.4-0.496,1.024-0.769,1.744-0.769c1.28,0,1.904,0.704,1.904,2.144v4.209h1.216v-4.864
			c0-1.616-1.023-2.544-2.688-2.544c-1.12,0-1.984,0.432-2.593,1.359v-1.104h-1.216V363.383z M572.888,352.791
			c0,0.512,0.399,0.896,0.896,0.896s0.896-0.384,0.896-0.88s-0.4-0.912-0.896-0.912S572.888,352.295,572.888,352.791
			 M573.176,363.383h1.216v-7.152h-1.216V363.383z M569.385,363.383h1.216v-12.112h-1.216V363.383z M566.248,358.998h-4.352
			c0.128-1.216,1.008-1.968,2.176-1.968C565.368,357.03,566.169,357.734,566.248,358.998 M567.561,359.99v-0.24
			c0-2.367-1.344-3.791-3.44-3.791c-2.079,0-3.567,1.567-3.567,3.823c0,2.336,1.472,3.904,3.647,3.904
			c1.473,0,2.593-0.656,3.312-1.952l-0.928-0.624c-0.593,1.04-1.36,1.552-2.32,1.552c-1.376,0-2.368-1.008-2.368-2.56v-0.112
			H567.561z M553.992,362.182c0.561,1.009,1.488,1.505,2.816,1.505c1.584,0,2.608-0.944,2.608-2.272c0-1.168-0.688-1.68-2.08-2.128
			c-1.185-0.384-1.841-0.479-1.841-1.231c0-0.625,0.496-1.072,1.217-1.072c0.752,0,1.344,0.368,1.632,1.023l0.992-0.607
			c-0.385-0.912-1.312-1.424-2.544-1.424c-1.521,0-2.528,0.912-2.528,2.16c0,1.408,1.056,1.711,2.815,2.32
			c0.752,0.256,1.12,0.543,1.12,1.088c0,0.623-0.527,1.071-1.344,1.071c-0.815,0-1.424-0.368-1.824-1.136L553.992,362.182z
			 M551.192,359.879c0,1.647-0.896,2.592-2.336,2.592c-1.52,0-2.384-0.977-2.384-2.704c0-1.632,0.864-2.576,2.336-2.576
			C550.185,357.19,551.192,358.215,551.192,359.879 M552.377,356.23h-1.217v1.344c-0.544-1.056-1.424-1.6-2.624-1.6
			c-2,0-3.359,1.455-3.359,3.855c0,2.336,1.376,3.856,3.424,3.856c1.104,0,2.016-0.56,2.592-1.601v1.297h1.185V356.23z
			 M536.937,363.383h2.384c1.632,0,2.752-0.049,3.584-0.864c0.576-0.576,0.944-1.44,0.944-2.384c0-1.537-0.848-2.608-2.192-2.816
			c1.088-0.32,1.696-1.152,1.696-2.368c0-1.024-0.432-1.903-1.152-2.432c-0.72-0.528-1.632-0.576-2.88-0.576h-2.384V363.383z
			 M538.297,358.022h1.424c0.704,0,1.264,0.017,1.744,0.304c0.624,0.352,0.943,0.977,0.943,1.809c0,0.72-0.288,1.344-0.752,1.68
			c-0.496,0.352-1.248,0.384-2.336,0.384h-1.023V358.022z M538.297,353.127h1.023c1.809,0,2.641,0.336,2.641,1.983
			c0,1.392-0.801,1.84-2.641,1.84h-1.04L538.297,353.127z"/>
		<path clip-path="url(#SVGID_28_)" fill="#808285" d="M369.145,363.383h1.328v-11.328h-2.896l-0.768,1.184h2.336V363.383z
			 M353.592,363.383h1.217l0.016-3.776l3.68,3.776h1.712l-3.888-3.873l3.568-3.279h-1.632l-3.44,3.248l-0.016-8.208h-1.217V363.383z
			 M350.504,358.998h-4.352c0.128-1.216,1.008-1.968,2.176-1.968C349.624,357.03,350.424,357.734,350.504,358.998 M351.816,359.99
			v-0.24c0-2.367-1.344-3.791-3.44-3.791c-2.08,0-3.567,1.567-3.567,3.823c0,2.336,1.472,3.904,3.647,3.904
			c1.472,0,2.592-0.656,3.312-1.952l-0.929-0.624c-0.592,1.04-1.359,1.552-2.319,1.552c-1.376,0-2.368-1.008-2.368-2.56v-0.112
			H351.816z M342.36,358.998h-4.353c0.128-1.216,1.009-1.968,2.177-1.968C341.48,357.03,342.28,357.734,342.36,358.998
			 M343.672,359.99v-0.24c0-2.367-1.344-3.791-3.439-3.791c-2.08,0-3.568,1.567-3.568,3.823c0,2.336,1.472,3.904,3.648,3.904
			c1.472,0,2.592-0.656,3.312-1.952l-0.928-0.624c-0.592,1.04-1.36,1.552-2.32,1.552c-1.376,0-2.368-1.008-2.368-2.56v-0.112
			H343.672z M321.4,351.942l4.432,11.888l2.977-8.848l2.991,8.848l4.433-11.888h-1.473l-2.911,8.416l-3.057-8.864l-3.023,8.864
			l-2.896-8.416H321.4z"/>
		<path clip-path="url(#SVGID_28_)" fill="#808285" d="M713.145,363.383h1.328v-11.328h-2.896l-0.768,1.184h2.336V363.383z
			 M697.592,363.383h1.217l0.016-3.776l3.68,3.776h1.713l-3.889-3.873l3.568-3.279h-1.632l-3.44,3.248l-0.016-8.208h-1.217V363.383z
			 M694.504,358.998h-4.352c0.128-1.216,1.008-1.968,2.176-1.968C693.624,357.03,694.424,357.734,694.504,358.998 M695.816,359.99
			v-0.24c0-2.367-1.344-3.791-3.44-3.791c-2.08,0-3.567,1.567-3.567,3.823c0,2.336,1.472,3.904,3.647,3.904
			c1.473,0,2.592-0.656,3.312-1.952l-0.929-0.624c-0.592,1.04-1.359,1.552-2.319,1.552c-1.376,0-2.368-1.008-2.368-2.56v-0.112
			H695.816z M686.36,358.998h-4.353c0.129-1.216,1.009-1.968,2.177-1.968C685.48,357.03,686.28,357.734,686.36,358.998
			 M687.672,359.99v-0.24c0-2.367-1.344-3.791-3.439-3.791c-2.08,0-3.568,1.567-3.568,3.823c0,2.336,1.473,3.904,3.648,3.904
			c1.472,0,2.592-0.656,3.312-1.952l-0.928-0.624c-0.592,1.04-1.36,1.552-2.32,1.552c-1.376,0-2.368-1.008-2.368-2.56v-0.112
			H687.672z M665.4,351.942l4.432,11.888l2.977-8.848l2.992,8.848l4.432-11.888h-1.472l-2.912,8.416l-3.057-8.864l-3.023,8.864
			l-2.896-8.416H665.4z"/>
	</g>
</g>
</svg>
