<?xml version="1.0" encoding="utf-8"?>
<!-- Generator: Adobe Illustrator 15.1.0, SVG Export Plug-In . SVG Version: 6.00 Build 0)  -->
<!DOCTYPE svg PUBLIC "-//W3C//DTD SVG 1.1//EN" "http://www.w3.org/Graphics/SVG/1.1/DTD/svg11.dtd">
<svg version="1.1" id="art" xmlns="http://www.w3.org/2000/svg" xmlns:xlink="http://www.w3.org/1999/xlink" x="0px" y="0px"
	 width="912px" height="313px" viewBox="0 0 912 313" enable-background="new 0 0 912 313" xml:space="preserve">
<rect x="537.011" y="51.117" fill="#CCE0D4" width="173.592" height="260.389"/>
<rect x="201.398" y="22.185" fill="#C0C1C2" width="109.942" height="28.933"/>
<rect x="201.398" y="51.117" fill="#E6E6E7" width="109.942" height="260.389"/>
<rect x="312.787" y="22.185" fill="#F9A25E" width="110.665" height="28.933"/>
<rect x="424.898" y="22.185" fill="#F9A25E" width="110.665" height="28.933"/>
<rect x="537.011" y="22.185" fill="#006227" width="173.592" height="28.933"/>
<g>
	<g>
		<defs>
			<rect id="SVGID_1_" x="306.277" y="50.394" width="123.685" height="261.834"/>
		</defs>
		<clipPath id="SVGID_2_">
			<use xlink:href="#SVGID_1_"  overflow="visible"/>
		</clipPath>
		<rect x="312.787" y="51.117" clip-path="url(#SVGID_2_)" fill="#FEECDF" width="110.665" height="260.389"/>
	</g>
</g>
<g>
	<g>
		<defs>
			<rect id="SVGID_3_" x="418.389" y="50.394" width="123.685" height="261.834"/>
		</defs>
		<clipPath id="SVGID_4_">
			<use xlink:href="#SVGID_3_"  overflow="visible"/>
		</clipPath>
		<rect x="424.898" y="51.117" clip-path="url(#SVGID_4_)" fill="#FEECDF" width="110.665" height="260.389"/>
	</g>
</g>
<g opacity="0.3">
	<g>
		<defs>
			<rect id="SVGID_5_" x="312.37" y="207.893" width="398.956" height="13.743"/>
		</defs>
		<clipPath id="SVGID_6_">
			<use xlink:href="#SVGID_5_"  overflow="visible"/>
		</clipPath>
		<line clip-path="url(#SVGID_6_)" fill="none" stroke="#6D6E71" x1="710.603" y1="214.764" x2="313.094" y2="214.764"/>
	</g>
</g>
<g opacity="0.3">
	<g>
		<defs>
			<rect id="SVGID_7_" x="361.248" y="50.394" width="13.743" height="261.834"/>
		</defs>
		<clipPath id="SVGID_8_">
			<use xlink:href="#SVGID_7_"  overflow="visible"/>
		</clipPath>
		
			<line clip-path="url(#SVGID_8_)" fill="none" stroke="#6D6E71" stroke-dasharray="4.045,4.045" x1="368.12" y1="51.117" x2="368.12" y2="311.506"/>
	</g>
</g>
<path fill="none" stroke="#A8A8AA" stroke-width="5" d="M392.876,242.792h-10.701c0,0-3.588,0-3.588,3.587v12.687"/>
<path fill="none" stroke="#A8A8AA" stroke-width="5" d="M392.876,275.341h-10.701c0,0-3.588,0-3.588-3.588v-73.806"/>
<path fill="#FFFFFF" d="M220.205,91.803c0,0-2.893,0-2.893,2.159v86.095c0,0,0,2.158,2.893,2.158h57.864c0,0,2.894,0,2.894-2.158
	V93.962c0,0,0-2.159-2.894-2.159H220.205z"/>
<path fill="none" stroke="#A8A8AA" stroke-width="5" d="M312.787,90.898h-12.139c0,0-3.588,0-3.58,3.588l0.062,32.605
	c0,0,0.008,3.588-3.581,3.588h-12.325"/>
<path fill="none" stroke="#A8A8AA" stroke-width="5" d="M312.787,183.119h-12.139c0,0-3.588,0-3.582-3.588l0.066-45.263
	c0,0,0.006-3.588-3.583-3.588h-12.325"/>
<path fill="#FFFFFF" d="M315.68,168.653c0,0-2.894,0-2.894,2.894v23.146c0,0,0,2.894,2.894,2.894h105.602c0,0,2.893,0,2.893-2.894
	v-23.146c0,0,0-2.894-2.893-2.894H315.68z"/>
<line fill="none" stroke="#A8A8AA" stroke-width="5" x1="280.962" y1="130.68" x2="312.787" y2="130.68"/>
<path fill="#FFFFFF" d="M315.68,116.214c0,0-2.894,0-2.894,2.893v23.146c0,0,0,2.893,2.894,2.893h376.117c0,0,2.893,0,2.893-2.893
	v-23.146c0,0,0-2.893-2.893-2.893H315.68z"/>
<path fill="#ECECED" d="M344.612,145.146v-28.932H315.68c0,0-2.894,0-2.894,2.893v23.146c0,0,0,2.893,2.894,2.893H344.612z"/>
<path fill="#808285" d="M328.945,132.688v-4.021h0.398c0.89,0,1.504,0.014,1.932,0.375c0.427,0.354,0.651,0.904,0.651,1.636
	c0,0.73-0.231,1.294-0.651,1.642c-0.435,0.362-1.049,0.369-1.932,0.369H328.945z M328.331,133.265h1.214
	c0.839,0,1.52-0.021,2.12-0.483c0.592-0.456,0.903-1.172,0.903-2.098c0-0.926-0.311-1.649-0.903-2.106
	c-0.629-0.483-1.375-0.483-2.344-0.483h-0.99V133.265z M325.069,133.265h2.566v-0.584h-1.952v-4.586h-0.615V133.265z"/>
<path fill="#FFFFFF" d="M315.68,76.433c0,0-2.894,0-2.894,2.893v23.146c0,0,0,2.894,2.894,2.894h376.117c0,0,2.893,0,2.893-2.894
	V79.326c0,0,0-2.893-2.893-2.893H315.68z"/>
<path fill="#ECECED" d="M344.612,105.365V76.433H315.68c0,0-2.894,0-2.894,2.893v23.146c0,0,0,2.894,2.894,2.894H344.612z"/>
<path fill="#808285" d="M328.945,92.906v-4.023h0.398c0.89,0,1.504,0.015,1.932,0.376c0.427,0.354,0.651,0.904,0.651,1.636
	c0,0.73-0.231,1.295-0.651,1.642c-0.435,0.361-1.049,0.369-1.932,0.369H328.945z M328.331,93.484h1.214
	c0.839,0,1.52-0.021,2.12-0.484c0.592-0.456,0.903-1.171,0.903-2.098c0-0.926-0.311-1.65-0.903-2.105
	c-0.629-0.484-1.375-0.484-2.344-0.484h-0.99V93.484z M325.069,93.484h2.566v-0.585h-1.952v-4.586h-0.615V93.484z"/>
<path fill="#FFFFFF" d="M395.243,231.942c0,0-2.893,0-2.893,2.894v15.913c0,0,0,2.893,2.893,2.893h296.554c0,0,2.893,0,2.893-2.893
	v-15.913c0,0,0-2.894-2.893-2.894H395.243z"/>
<path fill="#ECECED" d="M419.112,253.642v-21.699h-23.869c0,0-2.893,0-2.893,2.894v15.913c0,0,0,2.893,2.893,2.893H419.112z"/>
<path fill="#FFFFFF" d="M395.243,264.491c0,0-2.893,0-2.893,2.893v15.913c0,0,0,2.893,2.893,2.893h296.554c0,0,2.893,0,2.893-2.893
	v-15.913c0,0,0-2.893-2.893-2.893H395.243z"/>
<path fill="#ECECED" d="M419.112,286.189v-21.698h-23.869c0,0-2.893,0-2.893,2.893v15.913c0,0,0,2.893,2.893,2.893H419.112z"/>
<polygon fill="#A7A8AA" points="312.787,94.761 316.649,90.898 312.787,87.036 "/>
<polygon fill="#A7A8AA" points="312.787,134.542 316.649,130.68 312.787,126.818 "/>
<polygon fill="#A7A8AA" points="312.787,186.981 316.649,183.119 312.787,179.257 "/>
<polygon fill="#A7A8AA" points="392.35,246.654 396.212,242.792 392.35,238.929 "/>
<polygon fill="#A7A8AA" points="392.35,279.202 396.212,275.341 392.35,271.479 "/>
<path fill="#808285" d="M405.977,244.8v-4.022h0.398c0.89,0,1.504,0.015,1.932,0.375c0.427,0.355,0.651,0.904,0.651,1.637
	c0,0.73-0.231,1.294-0.651,1.642c-0.434,0.362-1.049,0.369-1.932,0.369H405.977z M405.362,245.377h1.215
	c0.838,0,1.519-0.021,2.12-0.484c0.592-0.455,0.903-1.171,0.903-2.097c0-0.927-0.311-1.65-0.903-2.106
	c-0.629-0.482-1.375-0.482-2.345-0.482h-0.99V245.377z M402.101,245.377h2.567v-0.584h-1.953v-4.586h-0.614V245.377z"/>
<path fill="#808285" d="M405.977,277.348v-4.022h0.398c0.89,0,1.504,0.015,1.932,0.377c0.427,0.354,0.651,0.904,0.651,1.635
	c0,0.731-0.231,1.295-0.651,1.642c-0.434,0.362-1.049,0.369-1.932,0.369H405.977z M405.362,277.926h1.215
	c0.838,0,1.519-0.022,2.12-0.483c0.592-0.456,0.903-1.173,0.903-2.098c0-0.927-0.311-1.65-0.903-2.106
	c-0.629-0.483-1.375-0.483-2.345-0.483h-0.99V277.926z M402.101,277.926h2.567v-0.585h-1.953v-4.586h-0.614V277.926z"/>
<line fill="none" stroke="#F9A25E" stroke-width="3" x1="201.398" y1="311.506" x2="535.563" y2="311.506"/>
<line fill="none" stroke="#F9A25E" stroke-width="3" x1="596.331" y1="311.506" x2="604.287" y2="311.506"/>
<line fill="none" stroke="#F9A25E" stroke-width="3" x1="694.689" y1="311.506" x2="710.603" y2="311.506"/>
<path fill="#F9A25E" d="M584.117,311.502c0-0.819,0.67-1.498,1.498-1.498l0,0c0.828,0,1.498,0.679,1.498,1.498l0,0
	c0,0.829-0.67,1.498-1.498,1.498l0,0C584.787,313,584.117,312.331,584.117,311.502z M577.955,311.502
	c0-0.819,0.669-1.498,1.498-1.498l0,0c0.829,0,1.498,0.679,1.498,1.498l0,0c0,0.829-0.669,1.498-1.498,1.498l0,0
	C578.624,313,577.955,312.331,577.955,311.502z M571.804,311.502c0-0.819,0.669-1.498,1.498-1.498l0,0
	c0.828,0,1.498,0.679,1.498,1.498l0,0c0,0.829-0.67,1.498-1.498,1.498l0,0C572.473,313,571.804,312.331,571.804,311.502z
	 M565.641,311.502c0-0.819,0.67-1.498,1.498-1.498l0,0c0.829,0,1.498,0.679,1.498,1.498l0,0c0,0.829-0.669,1.498-1.498,1.498l0,0
	C566.311,313,565.641,312.331,565.641,311.502z M559.479,311.502c0-0.819,0.669-1.498,1.498-1.498l0,0
	c0.829,0,1.498,0.679,1.498,1.498l0,0c0,0.829-0.669,1.498-1.498,1.498l0,0C560.148,313,559.479,312.331,559.479,311.502z
	 M553.328,311.502c0-0.819,0.669-1.498,1.498-1.498l0,0c0.818,0,1.498,0.679,1.498,1.498l0,0c0,0.829-0.68,1.498-1.498,1.498l0,0
	C553.997,313,553.328,312.331,553.328,311.502z M547.165,311.502c0-0.819,0.67-1.498,1.498-1.498l0,0
	c0.829,0,1.498,0.679,1.498,1.498l0,0c0,0.829-0.669,1.498-1.498,1.498l0,0C547.835,313,547.165,312.331,547.165,311.502z"/>
<path fill="none" stroke="#F9A25E" stroke-width="3" stroke-linecap="round" stroke-linejoin="round" d="M591.837,311.506
	L591.837,311.506 M542.174,311.506L542.174,311.506"/>
<path fill="#F9A25E" d="M680.413,311.502c0-0.829,0.669-1.498,1.498-1.498l0,0c0.829,0,1.498,0.669,1.498,1.498l0,0
	c0,0.829-0.669,1.498-1.498,1.498l0,0C681.082,313,680.413,312.331,680.413,311.502z M674.562,311.502
	c0-0.829,0.669-1.498,1.498-1.498l0,0c0.818,0,1.487,0.669,1.487,1.498l0,0c0,0.829-0.669,1.498-1.487,1.498l0,0
	C675.23,313,674.562,312.331,674.562,311.502z M668.699,311.502c0-0.829,0.669-1.498,1.498-1.498l0,0
	c0.829,0,1.498,0.669,1.498,1.498l0,0c0,0.829-0.669,1.498-1.498,1.498l0,0C669.368,313,668.699,312.331,668.699,311.502z
	 M662.847,311.502c0-0.829,0.669-1.498,1.498-1.498l0,0c0.829,0,1.498,0.669,1.498,1.498l0,0c0,0.829-0.669,1.498-1.498,1.498l0,0
	C663.516,313,662.847,312.331,662.847,311.502z M656.984,311.502c0-0.829,0.669-1.498,1.498-1.498l0,0
	c0.829,0,1.498,0.669,1.498,1.498l0,0c0,0.829-0.669,1.498-1.498,1.498l0,0C657.653,313,656.984,312.331,656.984,311.502z
	 M651.133,311.502c0-0.829,0.669-1.498,1.498-1.498l0,0c0.828,0,1.498,0.669,1.498,1.498l0,0c0,0.829-0.67,1.498-1.498,1.498l0,0
	C651.802,313,651.133,312.331,651.133,311.502z M645.279,311.502c0-0.829,0.67-1.498,1.488-1.498l0,0
	c0.829,0,1.498,0.669,1.498,1.498l0,0c0,0.829-0.669,1.498-1.498,1.498l0,0C645.949,313,645.279,312.331,645.279,311.502z
	 M639.417,311.502c0-0.829,0.669-1.498,1.498-1.498l0,0c0.829,0,1.498,0.669,1.498,1.498l0,0c0,0.829-0.669,1.498-1.498,1.498l0,0
	C640.086,313,639.417,312.331,639.417,311.502z M633.565,311.502c0-0.829,0.669-1.498,1.498-1.498l0,0
	c0.818,0,1.498,0.669,1.498,1.498l0,0c0,0.829-0.68,1.498-1.498,1.498l0,0C634.234,313,633.565,312.331,633.565,311.502z
	 M627.703,311.502c0-0.829,0.669-1.498,1.498-1.498l0,0c0.829,0,1.498,0.669,1.498,1.498l0,0c0,0.829-0.669,1.498-1.498,1.498l0,0
	C628.372,313,627.703,312.331,627.703,311.502z M621.851,311.502c0-0.829,0.669-1.498,1.498-1.498l0,0
	c0.829,0,1.498,0.669,1.498,1.498l0,0c0,0.829-0.669,1.498-1.498,1.498l0,0C622.52,313,621.851,312.331,621.851,311.502z
	 M615.988,311.502c0-0.829,0.679-1.498,1.498-1.498l0,0c0.829,0,1.508,0.669,1.508,1.498l0,0c0,0.829-0.679,1.498-1.508,1.498l0,0
	C616.667,313,615.988,312.331,615.988,311.502z"/>
<path fill="none" stroke="#F9A25E" stroke-width="3" stroke-linecap="round" stroke-linejoin="round" d="M688.788,311.506
	L688.788,311.506 M610.552,311.506L610.552,311.506"/>
<path fill="#F9A25E" d="M271.859,6.191c0,1.192-0.648,1.886-1.689,1.886c-1.1,0-1.725-0.706-1.725-1.956
	c0-1.18,0.625-1.863,1.69-1.863C271.13,4.259,271.859,4.988,271.859,6.191 M272.739,3.587h-0.903v0.961
	c-0.382-0.752-1.042-1.146-1.898-1.146c-1.447,0-2.43,1.03-2.43,2.754c0,1.679,0.995,2.766,2.477,2.766
	c0.799,0,1.47-0.405,1.875-1.146v0.868c0,0.475-0.023,0.856-0.22,1.181c-0.266,0.451-0.775,0.683-1.481,0.683
	c-0.996,0-1.539-0.452-1.539-1.216V9.223h-0.995c0.034,1.296,0.937,2.061,2.522,2.061c0.914,0,1.608-0.267,2.083-0.775
	c0.486-0.521,0.509-1.1,0.509-1.84V3.587z M261.513,8.76h0.88V6.087c0-0.567,0-0.996,0.301-1.366
	c0.289-0.358,0.741-0.555,1.261-0.555c0.926,0,1.378,0.509,1.378,1.551V8.76h0.879V5.243c0-1.169-0.741-1.84-1.944-1.84
	c-0.81,0-1.435,0.312-1.875,0.983V3.587h-0.88V8.76z M258.609,1.1c0,0.37,0.289,0.648,0.647,0.648c0.359,0,0.648-0.278,0.648-0.637
	c0-0.358-0.29-0.659-0.648-0.659C258.898,0.452,258.609,0.741,258.609,1.1 M258.816,8.76h0.88V3.587h-0.88V8.76z M252.382,8.76h0.88
	V6.087c0-0.567,0-0.996,0.301-1.366c0.289-0.358,0.741-0.555,1.261-0.555c0.926,0,1.377,0.509,1.377,1.551V8.76h0.879V5.243
	c0-1.169-0.74-1.84-1.944-1.84c-0.81,0-1.435,0.312-1.875,0.983V3.587h-0.88V8.76z M250.161,5.59h-3.147
	c0.093-0.88,0.729-1.424,1.574-1.424C249.524,4.166,250.103,4.675,250.161,5.59 M251.11,6.307V6.134
	c0-1.713-0.973-2.743-2.488-2.743c-1.504,0-2.581,1.134-2.581,2.765c0,1.69,1.065,2.824,2.639,2.824
	c1.064,0,1.875-0.475,2.396-1.412l-0.671-0.452c-0.428,0.752-0.984,1.123-1.678,1.123c-0.995,0-1.713-0.729-1.713-1.852V6.307
	H251.11z M244.27,5.59h-3.147c0.092-0.88,0.729-1.424,1.574-1.424C243.634,4.166,244.212,4.675,244.27,5.59 M245.219,6.307V6.134
	c0-1.713-0.972-2.743-2.488-2.743c-1.504,0-2.581,1.134-2.581,2.765c0,1.69,1.064,2.824,2.639,2.824
	c1.064,0,1.875-0.475,2.396-1.412l-0.671-0.452c-0.428,0.752-0.984,1.123-1.678,1.123c-0.995,0-1.713-0.729-1.713-1.852V6.307
	H245.219z M236.609,8.76h0.879V6.238c0-1.354,0.463-2.025,1.401-2.025c0.162,0,0.347,0.035,0.543,0.104l0.301-0.798
	c-0.196-0.069-0.393-0.104-0.602-0.104c-0.787,0-1.273,0.37-1.735,1.25V3.587h-0.787V8.76z M235.429,7.534
	c-0.544,0.393-1.042,0.59-1.597,0.59c-1.076,0-1.852-0.833-1.852-1.875c0-1.226,0.787-1.99,1.921-1.99
	c0.51,0,0.995,0.162,1.435,0.451V3.761c-0.475-0.231-1.03-0.359-1.609-0.359c-1.55,0-2.696,1.134-2.696,2.824
	c0,1.632,1.053,2.754,2.662,2.754c0.671,0,1.261-0.139,1.736-0.417V7.534z M228.67,4.166l-1.181-0.521
	c-0.751-0.336-1.11-0.741-1.11-1.331c0-0.706,0.521-1.204,1.261-1.204c0.59,0,1.042,0.324,1.4,0.949l0.81-0.521
	c-0.405-0.822-1.146-1.25-2.141-1.25c-1.377,0-2.326,0.88-2.326,2.037c0,1.007,0.532,1.724,1.632,2.187l1.007,0.429
	c0.856,0.37,1.284,0.914,1.284,1.655c0,0.902-0.66,1.539-1.655,1.539c-0.833,0-1.4-0.521-1.644-1.528l-0.891,0.44
	c0.312,1.227,1.226,1.921,2.534,1.921c1.597,0,2.65-1.018,2.65-2.534C230.302,5.393,229.746,4.641,228.67,4.166"/>
<path fill="#F9A25E" d="M530.374,6.203c0,1.227-0.672,1.921-1.737,1.921c-1.03,0-1.678-0.741-1.678-2.037
	c0-1.146,0.636-1.805,1.667-1.805C529.667,4.282,530.374,5.034,530.374,6.203 M531.229,0h-0.879v4.56
	c-0.395-0.764-1.03-1.157-1.888-1.157c-1.446,0-2.441,1.053-2.441,2.789c0,1.69,0.995,2.789,2.477,2.789
	c0.799,0,1.47-0.417,1.876-1.157V8.76h0.855V0z M520.409,6.191c0-1.1,0.833-1.956,1.875-1.956c1.029,0,1.862,0.856,1.862,1.956
	c0,1.099-0.833,1.956-1.862,1.956C521.254,8.147,520.409,7.291,520.409,6.191 M519.472,6.191c0,0.752,0.277,1.424,0.821,1.967
	c0.533,0.533,1.228,0.822,1.991,0.822c0.752,0,1.446-0.301,1.99-0.833c0.532-0.521,0.821-1.204,0.821-1.956
	c0-0.752-0.289-1.447-0.821-1.967c-0.544-0.532-1.228-0.822-1.99-0.822c-0.764,0-1.458,0.278-1.991,0.81
	C519.749,4.745,519.472,5.439,519.472,6.191 M516.983,1.1c0,0.37,0.289,0.648,0.648,0.648c0.358,0,0.647-0.278,0.647-0.637
	c0-0.358-0.289-0.659-0.647-0.659C517.272,0.452,516.983,0.741,516.983,1.1 M517.191,8.76h0.879V3.587h-0.879V8.76z M513.152,8.76
	h0.88V6.238c0-1.354,0.463-2.025,1.4-2.025c0.161,0,0.347,0.035,0.544,0.104l0.301-0.798c-0.197-0.069-0.394-0.104-0.603-0.104
	c-0.786,0-1.272,0.37-1.735,1.25V3.587h-0.787V8.76z M510.919,5.59h-3.147c0.093-0.88,0.729-1.424,1.574-1.424
	C510.283,4.166,510.861,4.675,510.919,5.59 M511.869,6.307V6.134c0-1.713-0.974-2.743-2.489-2.743c-1.504,0-2.581,1.134-2.581,2.765
	c0,1.69,1.065,2.824,2.64,2.824c1.063,0,1.874-0.475,2.396-1.412l-0.673-0.452c-0.427,0.752-0.982,1.123-1.677,1.123
	c-0.996,0-1.713-0.729-1.713-1.852V6.307H511.869z M502.506,5.045h0.752c0.856,0,1.528-0.022,2.083-0.416
	c0.521-0.371,0.845-1.054,0.845-1.863c0-0.81-0.323-1.493-0.845-1.863c-0.555-0.394-1.238-0.417-2.083-0.417h-1.736V8.76h0.984
	V5.045z M502.506,4.155V1.389h0.474c1.436,0,2.143,0.231,2.143,1.435c0,1.146-0.718,1.332-2.143,1.332H502.506z M495.377,8.76h0.879
	V0h-0.879V8.76z M492.763,6.226c0,1.192-0.648,1.875-1.691,1.875c-1.099,0-1.724-0.706-1.724-1.955c0-1.181,0.625-1.863,1.689-1.863
	C492.032,4.282,492.763,5.023,492.763,6.226 M493.618,3.587h-0.879V4.56c-0.394-0.764-1.029-1.157-1.897-1.157
	c-1.447,0-2.432,1.053-2.432,2.789c0,1.69,0.996,2.789,2.478,2.789c0.799,0,1.458-0.405,1.875-1.157V8.76h0.855V3.587z M485.899,1.1
	c0,0.37,0.289,0.648,0.647,0.648c0.359,0,0.649-0.278,0.649-0.637c0-0.358-0.29-0.659-0.649-0.659
	C486.188,0.452,485.899,0.741,485.899,1.1 M486.107,8.76h0.88V3.587h-0.88V8.76z M482.068,8.76h0.88V6.238
	c0-1.354,0.463-2.025,1.399-2.025c0.163,0,0.349,0.035,0.545,0.104l0.3-0.798c-0.195-0.069-0.393-0.104-0.602-0.104
	c-0.786,0-1.272,0.37-1.735,1.25V3.587h-0.787V8.76z M477.787,8.76h0.983V1.423h2.338V0.486h-5.66v0.937h2.339V8.76z"/>
<path fill="#808285" d="M378.585,226.156c1.997,0,3.616-1.619,3.616-3.617c0-1.997-1.62-3.616-3.616-3.616
	c-1.997,0-3.617,1.619-3.617,3.616C374.969,224.537,376.588,226.156,378.585,226.156"/>
<path fill="#FFFFFF" d="M293.145,39.753h0.72v-6.144h-1.571l-0.416,0.641h1.267V39.753z M288.936,36.482
	c0,0.277,0.216,0.503,0.503,0.503c0.285,0,0.502-0.226,0.502-0.503c0-0.278-0.226-0.503-0.502-0.503
	C289.16,35.979,288.936,36.204,288.936,36.482 M288.936,39.329c0,0.277,0.216,0.503,0.503,0.503c0.285,0,0.502-0.226,0.502-0.503
	s-0.226-0.495-0.502-0.495C289.16,38.834,288.936,39.051,288.936,39.329 M285.342,39.753h0.719v-6.144h-1.57l-0.417,0.641h1.268
	V39.753z M281.132,36.482c0,0.277,0.216,0.503,0.503,0.503c0.286,0,0.503-0.226,0.503-0.503c0-0.278-0.225-0.503-0.503-0.503
	S281.132,36.204,281.132,36.482 M281.132,39.329c0,0.277,0.216,0.503,0.503,0.503c0.286,0,0.503-0.226,0.503-0.503
	s-0.225-0.495-0.503-0.495S281.132,39.051,281.132,39.329 M277.54,39.753h0.718v-6.144h-1.569l-0.417,0.641h1.268V39.753z
	 M268.538,39.753h0.658v-2.004c0-0.426,0-0.747,0.227-1.025c0.216-0.269,0.555-0.416,0.946-0.416c0.695,0,1.033,0.382,1.033,1.163
	v2.282h0.659v-2.638c0-0.876-0.554-1.379-1.458-1.379c-0.608,0-1.077,0.234-1.407,0.737v-0.598h-0.658V39.753z M264.033,37.827
	c0-0.824,0.625-1.467,1.406-1.467c0.773,0,1.398,0.643,1.398,1.467c0,0.825-0.625,1.468-1.398,1.468
	C264.666,39.295,264.033,38.652,264.033,37.827 M263.331,37.827c0,0.565,0.208,1.068,0.616,1.477
	c0.399,0.398,0.92,0.615,1.493,0.615c0.565,0,1.086-0.226,1.494-0.624c0.398-0.391,0.616-0.903,0.616-1.468
	c0-0.564-0.217-1.085-0.616-1.476c-0.408-0.398-0.92-0.616-1.494-0.616c-0.573,0-1.094,0.209-1.493,0.607
	C263.539,36.741,263.331,37.262,263.331,37.827 M261.464,34.008c0,0.277,0.217,0.485,0.486,0.485s0.485-0.208,0.485-0.476
	c0-0.27-0.216-0.494-0.485-0.494S261.464,33.739,261.464,34.008 M261.621,39.753h0.659v-3.878h-0.659V39.753z M259.485,36.42v3.333
	h0.659V36.42h0.729v-0.545h-0.729v-1.562h-0.659v1.562h-0.712v0.545H259.485z M257.455,37.853c0,0.895-0.486,1.407-1.267,1.407
	c-0.826,0-1.294-0.53-1.294-1.467c0-0.886,0.468-1.398,1.268-1.398C256.908,36.394,257.455,36.95,257.455,37.853 M258.096,35.875
	h-0.658v0.728c-0.296-0.573-0.773-0.867-1.424-0.867c-1.085,0-1.822,0.789-1.822,2.091c0,1.268,0.745,2.092,1.857,2.092
	c0.599,0,1.093-0.303,1.406-0.867v0.702h0.642V35.875z M250.589,39.103c0.303,0.547,0.806,0.815,1.527,0.815
	c0.859,0,1.414-0.512,1.414-1.232c0-0.633-0.372-0.911-1.127-1.154c-0.643-0.208-0.999-0.26-0.999-0.669
	c0-0.338,0.269-0.581,0.66-0.581c0.408,0,0.729,0.199,0.886,0.555l0.537-0.33c-0.208-0.494-0.711-0.772-1.379-0.772
	c-0.826,0-1.371,0.494-1.371,1.171c0,0.765,0.571,0.93,1.527,1.26c0.408,0.139,0.608,0.295,0.608,0.59
	c0,0.339-0.287,0.582-0.73,0.582c-0.443,0-0.773-0.2-0.989-0.617L250.589,39.103z M248.819,34.008c0,0.277,0.216,0.485,0.485,0.485
	c0.268,0,0.485-0.208,0.485-0.476c0-0.27-0.217-0.494-0.485-0.494C249.036,33.523,248.819,33.739,248.819,34.008 M248.976,39.753
	h0.659v-3.878h-0.659V39.753z M247.022,39.753h0.658v-2.638c0-0.876-0.52-1.379-1.379-1.379c-0.591,0-1.042,0.251-1.381,0.789
	c-0.225-0.52-0.676-0.789-1.301-0.789c-0.582,0-1.024,0.243-1.337,0.737v-0.598h-0.659v3.878h0.659v-2.004
	c0-0.095-0.009-0.191-0.009-0.278c0-0.296,0.034-0.539,0.2-0.747c0.208-0.269,0.53-0.416,0.886-0.416
	c0.66,0,0.964,0.382,0.964,1.163v2.282h0.658v-2.004c0-0.086-0.009-0.165-0.009-0.243c0-0.322,0.043-0.564,0.209-0.782
	c0.208-0.269,0.521-0.416,0.877-0.416c0.661,0,0.964,0.382,0.964,1.163V39.753z M237.117,37.827c0-0.824,0.626-1.467,1.408-1.467
	c0.773,0,1.397,0.643,1.397,1.467c0,0.825-0.625,1.468-1.397,1.468S237.117,38.652,237.117,37.827 M236.416,37.827
	c0,0.565,0.208,1.068,0.616,1.477c0.399,0.398,0.92,0.615,1.493,0.615c0.564,0,1.085-0.226,1.493-0.624
	c0.398-0.391,0.615-0.903,0.615-1.468c0-0.564-0.216-1.085-0.615-1.476c-0.408-0.398-0.92-0.616-1.493-0.616
	s-1.094,0.209-1.493,0.607C236.624,36.741,236.416,37.262,236.416,37.827 M234.776,37.836c0,0.92-0.504,1.441-1.303,1.441
	c-0.772,0-1.258-0.556-1.258-1.528c0-0.86,0.477-1.355,1.25-1.355C234.246,36.394,234.776,36.958,234.776,37.836 M235.417,33.184
	h-0.659v3.418c-0.295-0.572-0.772-0.867-1.416-0.867c-1.085,0-1.831,0.789-1.831,2.091c0,1.268,0.746,2.092,1.856,2.092
	c0.6,0,1.104-0.312,1.408-0.867v0.702h0.641V33.184z M227.016,39.753h0.66v-2.004c0-0.426,0-0.747,0.226-1.025
	c0.217-0.269,0.555-0.416,0.946-0.416c0.695,0,1.034,0.382,1.034,1.163v2.282h0.659v-2.638c0-0.876-0.554-1.379-1.458-1.379
	c-0.608,0-1.077,0.234-1.406,0.737v-0.598h-0.66V39.753z M225.089,37.853c0,0.895-0.486,1.407-1.268,1.407
	c-0.825,0-1.293-0.53-1.293-1.467c0-0.886,0.468-1.398,1.268-1.398C224.542,36.394,225.089,36.95,225.089,37.853 M225.731,35.875
	h-0.659v0.728c-0.295-0.573-0.772-0.867-1.423-0.867c-1.086,0-1.823,0.789-1.823,2.091c0,1.268,0.746,2.092,1.857,2.092
	c0.599,0,1.094-0.303,1.407-0.867v0.702h0.642V35.875z M217.59,39.753h0.737v-2.959h0.087l2.266,2.959h0.937l-2.369-2.959h0.13
	c1.094,0,1.675-0.537,1.675-1.553c0-0.608-0.226-1.103-0.581-1.38c-0.382-0.294-0.833-0.311-1.424-0.311h-1.458V39.753z
	 M218.327,34.172h0.546c0.982,0,1.451,0.174,1.451,1.077c0,0.859-0.478,1-1.451,1h-0.546V34.172z"/>
<path fill="#FFFFFF" d="M391.385,37.836c0,0.92-0.502,1.441-1.302,1.441c-0.772,0-1.259-0.556-1.259-1.528
	c0-0.86,0.478-1.355,1.251-1.355C390.856,36.394,391.385,36.958,391.385,37.836 M392.027,33.184h-0.659v3.418
	c-0.295-0.572-0.773-0.867-1.416-0.867c-1.086,0-1.831,0.789-1.831,2.091c0,1.268,0.745,2.092,1.857,2.092
	c0.6,0,1.103-0.312,1.406-0.867v0.702h0.642V33.184z M383.626,39.753h0.658v-2.004c0-0.426,0-0.747,0.226-1.025
	c0.217-0.269,0.556-0.416,0.946-0.416c0.695,0,1.034,0.382,1.034,1.163v2.282h0.658v-2.638c0-0.876-0.555-1.379-1.458-1.379
	c-0.607,0-1.076,0.234-1.406,0.737v-0.598h-0.658V39.753z M381.447,34.008c0,0.277,0.217,0.485,0.485,0.485
	c0.269,0,0.486-0.208,0.486-0.476c0-0.27-0.217-0.495-0.486-0.495C381.664,33.522,381.447,33.739,381.447,34.008 M381.604,39.753
	h0.658v-3.878h-0.658V39.753z M379.547,39.753h0.657v-6.569h-0.657V39.753z M375.223,37.836c0-0.877,0.538-1.442,1.32-1.442
	c0.773,0,1.25,0.495,1.25,1.355c0,0.972-0.495,1.528-1.268,1.528C375.727,39.277,375.223,38.756,375.223,37.836 M374.59,33.184
	v6.569h0.633v-0.702c0.304,0.556,0.816,0.867,1.416,0.867c1.111,0,1.857-0.824,1.857-2.092c0-1.302-0.746-2.091-1.831-2.091
	c-0.643,0-1.121,0.295-1.416,0.867v-3.418H374.59z M371.379,38.156h1.978v-0.667h-1.978V38.156z M369.791,37.377h-2.362
	c0.069-0.661,0.547-1.069,1.182-1.069C369.313,36.308,369.747,36.69,369.791,37.377 M370.501,37.913v-0.129
	c0-1.285-0.728-2.056-1.865-2.056c-1.129,0-1.936,0.85-1.936,2.073c0,1.268,0.797,2.118,1.979,2.118
	c0.798,0,1.407-0.355,1.796-1.058l-0.503-0.338c-0.321,0.564-0.738,0.842-1.259,0.842c-0.747,0-1.285-0.547-1.285-1.39v-0.061
	H370.501z M365.017,39.753h0.659v-6.569h-0.659V39.753z M360.694,37.836c0-0.877,0.538-1.442,1.32-1.442
	c0.772,0,1.25,0.495,1.25,1.355c0,0.972-0.496,1.528-1.268,1.528C361.197,39.277,360.694,38.756,360.694,37.836 M360.061,33.184
	v6.569h0.633v-0.702c0.303,0.556,0.816,0.867,1.415,0.867c1.112,0,1.857-0.824,1.857-2.092c0-1.302-0.745-2.091-1.831-2.091
	c-0.642,0-1.12,0.295-1.416,0.867v-3.418H360.061z M355.963,35.875h-0.658v2.317c0,1.136,0.616,1.726,1.744,1.726
	c1.164,0,1.77-0.607,1.77-1.779v-2.265h-0.658v1.909c0,1.024-0.243,1.502-1.094,1.502c-0.852,0-1.104-0.478-1.104-1.502V35.875z
	 M350.851,37.827c0-0.824,0.626-1.467,1.407-1.467c0.773,0,1.398,0.643,1.398,1.467c0,0.825-0.625,1.468-1.398,1.468
	C351.485,39.295,350.851,38.652,350.851,37.827 M350.149,37.827c0,0.565,0.208,1.068,0.616,1.477
	c0.399,0.398,0.92,0.615,1.492,0.615c0.565,0,1.085-0.226,1.494-0.624c0.398-0.391,0.615-0.903,0.615-1.468
	c0-0.564-0.216-1.085-0.615-1.476c-0.409-0.398-0.921-0.616-1.494-0.616c-0.572,0-1.093,0.209-1.492,0.607
	C350.356,36.741,350.149,37.262,350.149,37.827 M345.019,39.06v-4.827h0.477c1.068,0,1.806,0.018,2.318,0.452
	c0.512,0.425,0.781,1.085,0.781,1.962c0,0.876-0.278,1.553-0.781,1.97c-0.521,0.435-1.259,0.443-2.318,0.443H345.019z
	 M344.282,39.753h1.458c1.006,0,1.823-0.025,2.543-0.58c0.711-0.547,1.084-1.406,1.084-2.517c0-1.112-0.373-1.98-1.084-2.527
	c-0.755-0.58-1.65-0.58-2.812-0.58h-1.189V39.753z"/>
<path fill="#FFFFFF" d="M499.399,37.836c0,0.92-0.502,1.441-1.302,1.441c-0.773,0-1.259-0.556-1.259-1.528
	c0-0.86,0.478-1.355,1.25-1.355C498.871,36.394,499.399,36.958,499.399,37.836 M500.042,33.184h-0.659v3.418
	c-0.295-0.572-0.772-0.867-1.416-0.867c-1.084,0-1.83,0.789-1.83,2.091c0,1.268,0.746,2.092,1.856,2.092
	c0.6,0,1.104-0.312,1.406-0.867v0.702h0.643V33.184z M491.641,39.753h0.659v-2.004c0-0.426,0-0.747,0.225-1.025
	c0.217-0.269,0.557-0.416,0.947-0.416c0.694,0,1.033,0.382,1.033,1.163v2.282h0.659v-2.638c0-0.876-0.555-1.379-1.458-1.379
	c-0.607,0-1.077,0.234-1.406,0.737v-0.598h-0.659V39.753z M489.463,34.008c0,0.277,0.216,0.485,0.485,0.485
	c0.269,0,0.485-0.208,0.485-0.476c0-0.27-0.217-0.495-0.485-0.495C489.679,33.522,489.463,33.739,489.463,34.008 M489.618,39.753
	h0.659v-3.878h-0.659V39.753z M487.562,39.753h0.658v-6.569h-0.658V39.753z M483.238,37.836c0-0.877,0.538-1.442,1.319-1.442
	c0.773,0,1.251,0.495,1.251,1.355c0,0.972-0.495,1.528-1.269,1.528C483.741,39.277,483.238,38.756,483.238,37.836 M482.606,33.184
	v6.569h0.632v-0.702c0.304,0.556,0.816,0.867,1.415,0.867c1.112,0,1.857-0.824,1.857-2.092c0-1.302-0.745-2.091-1.831-2.091
	c-0.642,0-1.121,0.295-1.415,0.867v-3.418H482.606z M479.395,38.156h1.978v-0.667h-1.978V38.156z M477.806,37.377h-2.362
	c0.069-0.661,0.549-1.069,1.182-1.069C477.328,36.308,477.762,36.69,477.806,37.377 M478.516,37.913v-0.129
	c0-1.285-0.728-2.056-1.864-2.056c-1.13,0-1.936,0.85-1.936,2.073c0,1.268,0.797,2.118,1.979,2.118c0.799,0,1.406-0.355,1.796-1.058
	l-0.503-0.338c-0.32,0.564-0.737,0.842-1.258,0.842c-0.747,0-1.286-0.547-1.286-1.39v-0.061H478.516z M471.157,39.103
	c0.304,0.547,0.806,0.815,1.527,0.815c0.858,0,1.414-0.512,1.414-1.232c0-0.633-0.373-0.911-1.128-1.154
	c-0.642-0.208-0.999-0.26-0.999-0.669c0-0.339,0.27-0.582,0.66-0.582c0.409,0,0.729,0.199,0.887,0.555l0.536-0.33
	c-0.207-0.494-0.71-0.772-1.379-0.772c-0.826,0-1.371,0.494-1.371,1.171c0,0.765,0.571,0.93,1.527,1.26
	c0.407,0.139,0.608,0.295,0.608,0.59c0,0.339-0.288,0.582-0.729,0.582c-0.443,0-0.774-0.2-0.99-0.617L471.157,39.103z
	 M467.06,37.827c0-0.824,0.625-1.467,1.407-1.467c0.773,0,1.397,0.643,1.397,1.467c0,0.825-0.624,1.468-1.397,1.468
	S467.06,38.652,467.06,37.827 M466.358,37.827c0,0.565,0.207,1.068,0.614,1.477c0.399,0.398,0.921,0.615,1.494,0.615
	c0.563,0,1.085-0.226,1.493-0.624c0.398-0.391,0.614-0.903,0.614-1.468c0-0.564-0.216-1.085-0.614-1.476
	c-0.408-0.398-0.921-0.616-1.493-0.616c-0.573,0-1.095,0.209-1.494,0.607C466.565,36.741,466.358,37.262,466.358,37.827
	 M461.227,39.06v-4.827h0.479c1.066,0,1.804,0.018,2.317,0.452c0.512,0.425,0.781,1.085,0.781,1.962c0,0.876-0.277,1.553-0.781,1.97
	c-0.521,0.435-1.259,0.443-2.317,0.443H461.227z M460.489,39.753h1.458c1.007,0,1.823-0.025,2.544-0.58
	c0.712-0.547,1.084-1.406,1.084-2.517c0-1.112-0.372-1.98-1.084-2.527c-0.755-0.58-1.65-0.58-2.812-0.58h-1.189V39.753z"/>
<path fill="#FFFFFF" d="M659.909,39.753h0.658v-2.004c0-0.425,0-0.747,0.226-1.025c0.217-0.269,0.557-0.417,0.946-0.417
	c0.694,0,1.034,0.382,1.034,1.163v2.282h0.658v-2.638c0-0.877-0.555-1.379-1.457-1.379c-0.607,0-1.077,0.234-1.407,0.736v-0.598
	h-0.658V39.753z M655.403,37.827c0-0.824,0.625-1.467,1.406-1.467c0.773,0,1.398,0.643,1.398,1.467c0,0.825-0.625,1.468-1.398,1.468
	C656.038,39.295,655.403,38.652,655.403,37.827 M654.701,37.827c0,0.565,0.208,1.069,0.616,1.477
	c0.399,0.398,0.92,0.615,1.492,0.615c0.564,0,1.086-0.226,1.494-0.624c0.397-0.391,0.614-0.903,0.614-1.468
	c0-0.563-0.217-1.085-0.614-1.476c-0.408-0.398-0.921-0.615-1.494-0.615c-0.572,0-1.093,0.208-1.492,0.606
	C654.909,36.741,654.701,37.263,654.701,37.827 M652.835,34.008c0,0.277,0.218,0.485,0.485,0.485c0.269,0,0.486-0.208,0.486-0.477
	s-0.218-0.494-0.486-0.494C653.053,33.522,652.835,33.739,652.835,34.008 M652.992,39.753h0.658v-3.878h-0.658V39.753z
	 M649.06,39.104c0.304,0.546,0.807,0.814,1.527,0.814c0.859,0,1.415-0.511,1.415-1.232c0-0.634-0.374-0.911-1.128-1.155
	c-0.644-0.208-0.999-0.26-0.999-0.668c0-0.339,0.269-0.582,0.659-0.582c0.409,0,0.729,0.199,0.886,0.556l0.538-0.331
	c-0.208-0.494-0.71-0.771-1.38-0.771c-0.824,0-1.371,0.494-1.371,1.171c0,0.764,0.572,0.929,1.527,1.259
	c0.409,0.139,0.607,0.295,0.607,0.59c0,0.339-0.286,0.582-0.729,0.582c-0.442,0-0.772-0.199-0.988-0.617L649.06,39.104z
	 M644.677,39.753h0.658v-2.004c0-0.425,0-0.747,0.226-1.025c0.218-0.269,0.556-0.417,0.946-0.417c0.695,0,1.034,0.382,1.034,1.163
	v2.282h0.659v-2.638c0-0.877-0.556-1.379-1.458-1.379c-0.608,0-1.077,0.234-1.407,0.736v-0.598h-0.658V39.753z M643.01,37.376
	h-2.361c0.069-0.661,0.547-1.069,1.181-1.069C642.533,36.308,642.967,36.69,643.01,37.376 M643.722,37.913v-0.129
	c0-1.285-0.729-2.056-1.866-2.056c-1.128,0-1.935,0.85-1.935,2.074c0,1.267,0.797,2.117,1.978,2.117
	c0.799,0,1.406-0.355,1.797-1.058l-0.504-0.339c-0.319,0.564-0.737,0.842-1.258,0.842c-0.747,0-1.285-0.547-1.285-1.39v-0.061
	H643.722z M638.158,36.42v3.333h0.658V36.42h0.729v-0.545h-0.729v-1.562h-0.658v1.562h-0.712v0.545H638.158z M633.662,39.753h0.825
	l1.05-1.501l1.059,1.501h0.824l-1.501-2.004l1.457-1.874h-0.824l-1.015,1.388l-1.007-1.388h-0.824l1.449,1.874L633.662,39.753z
	 M629.93,39.753h3.272v-0.684h-2.535V36.69h2.535v-0.685h-2.535v-1.781h2.535v-0.675h-3.272V39.753z M625.321,39.753h0.658v-6.569
	h-0.658V39.753z M623.621,37.376h-2.362c0.069-0.661,0.547-1.069,1.181-1.069C623.143,36.308,623.578,36.69,623.621,37.376
	 M624.331,37.913v-0.129c0-1.285-0.728-2.056-1.865-2.056c-1.129,0-1.936,0.85-1.936,2.074c0,1.267,0.798,2.117,1.979,2.117
	c0.8,0,1.406-0.355,1.797-1.058l-0.504-0.339c-0.32,0.564-0.737,0.842-1.259,0.842c-0.745,0-1.284-0.547-1.284-1.39v-0.061H624.331z
	 M616.58,37.836c0-0.877,0.538-1.442,1.319-1.442c0.773,0,1.252,0.495,1.252,1.355c0,0.972-0.496,1.528-1.269,1.528
	C617.084,39.277,616.58,38.756,616.58,37.836 M615.947,33.184v6.569h0.633v-0.702c0.305,0.556,0.816,0.867,1.415,0.867
	c1.112,0,1.857-0.824,1.857-2.092c0-1.302-0.745-2.091-1.831-2.091c-0.643,0-1.12,0.294-1.416,0.867v-3.418H615.947z
	 M614.021,37.853c0,0.894-0.486,1.407-1.268,1.407c-0.825,0-1.294-0.53-1.294-1.468c0-0.885,0.469-1.398,1.268-1.398
	C613.474,36.394,614.021,36.951,614.021,37.853 M614.663,35.875h-0.66v0.728c-0.295-0.573-0.772-0.867-1.424-0.867
	c-1.084,0-1.821,0.789-1.821,2.091c0,1.268,0.745,2.092,1.856,2.092c0.601,0,1.094-0.303,1.406-0.867v0.702h0.643V35.875z
	 M609.03,39.753h0.658v-6.569h-0.658V39.753z M605.783,38.156h1.979v-0.667h-1.979V38.156z M601.071,39.753h0.659v-2.004
	c0-0.425,0-0.747,0.226-1.025c0.216-0.269,0.556-0.417,0.946-0.417c0.694,0,1.033,0.382,1.033,1.163v2.282h0.659v-2.638
	c0-0.877-0.556-1.379-1.458-1.379c-0.608,0-1.076,0.234-1.406,0.736v-0.598h-0.659V39.753z M599.404,37.376h-2.361
	c0.069-0.661,0.547-1.069,1.182-1.069C598.928,36.308,599.361,36.69,599.404,37.376 M600.115,37.913v-0.129
	c0-1.285-0.729-2.056-1.865-2.056c-1.129,0-1.936,0.85-1.936,2.074c0,1.267,0.798,2.117,1.979,2.117
	c0.798,0,1.405-0.355,1.795-1.058l-0.502-0.339c-0.321,0.564-0.738,0.842-1.259,0.842c-0.748,0-1.285-0.547-1.285-1.39v-0.061
	H600.115z M592.373,37.827c0-0.919,0.504-1.45,1.303-1.45c0.772,0,1.259,0.556,1.259,1.528c0,0.86-0.478,1.364-1.249,1.364
	C592.903,39.269,592.373,38.704,592.373,37.827 M591.731,41.637h0.659v-2.585c0.295,0.573,0.771,0.867,1.416,0.867
	c1.084,0,1.83-0.78,1.83-2.092c0-1.276-0.746-2.091-1.856-2.091c-0.601,0-1.112,0.303-1.415,0.867v-0.729h-0.634V41.637z
	 M587.322,39.226c-0.686,0-1.303-0.261-1.797-0.755c-0.486-0.496-0.747-1.112-0.747-1.806s0.261-1.328,0.747-1.823
	c0.477-0.486,1.111-0.747,1.797-0.747s1.311,0.261,1.797,0.747c0.485,0.486,0.747,1.129,0.747,1.823s-0.262,1.319-0.747,1.806
	C588.625,38.965,587.999,39.226,587.322,39.226 M590.638,36.664c0-0.885-0.329-1.693-0.963-2.309
	c-0.625-0.607-1.476-0.945-2.353-0.945s-1.719,0.338-2.345,0.945c-0.632,0.616-0.971,1.424-0.971,2.309s0.339,1.684,0.971,2.301
	c0.626,0.607,1.468,0.954,2.345,0.954c0.868,0,1.719-0.338,2.353-0.954C590.299,38.356,590.638,37.549,590.638,36.664"/>
</svg>
