<?xml version="1.0" encoding="utf-8"?>
<!-- Generator: Adobe Illustrator 15.1.0, SVG Export Plug-In . SVG Version: 6.00 Build 0)  -->
<!DOCTYPE svg PUBLIC "-//W3C//DTD SVG 1.1//EN" "http://www.w3.org/Graphics/SVG/1.1/DTD/svg11.dtd">
<svg version="1.1" id="Layer_1" xmlns="http://www.w3.org/2000/svg" xmlns:xlink="http://www.w3.org/1999/xlink" x="0px" y="0px"
	 width="1500px" height="480px" viewBox="0 0 1500 480" enable-background="new 0 0 1500 480" xml:space="preserve">
<rect x="386" y="200" fill="#F3E3D5" width="728" height="40"/>
<rect x="386" y="120" fill="#F3E3D5" width="728" height="40"/>
<rect x="386" y="40" fill="#F3E3D5" width="728" height="40"/>
<rect x="386" fill="#F9A25E" width="728" height="40"/>
<rect x="386" y="360" fill="#F3E3D5" width="728" height="40"/>
<rect x="386" y="280" fill="#F3E3D5" width="728" height="40"/>
<rect x="386" y="440" fill="#F3E3D5" width="728" height="40"/>
<line fill="none" stroke="#D1D3D4" x1="1114" y1="280" x2="386" y2="280"/>
<line fill="none" stroke="#D1D3D4" x1="1114" y1="240" x2="386" y2="240"/>
<line fill="none" stroke="#D1D3D4" x1="1114" y1="200" x2="386" y2="200"/>
<line fill="none" stroke="#D1D3D4" x1="1114" y1="160" x2="386" y2="160"/>
<line fill="none" stroke="#D1D3D4" x1="1114" y1="120" x2="386" y2="120"/>
<line fill="none" stroke="#D1D3D4" x1="1114" y1="80" x2="386" y2="80"/>
<line fill="none" stroke="#D1D3D4" x1="1114" y1="40" x2="386" y2="40"/>
<line fill="none" stroke="#D1D3D4" x1="1114" y1="320" x2="386" y2="320"/>
<line fill="none" stroke="#D1D3D4" x1="1114" y1="360" x2="386" y2="360"/>
<line fill="none" stroke="#D1D3D4" x1="1114" y1="400" x2="386" y2="400"/>
<line fill="none" stroke="#D1D3D4" x1="1114" y1="440" x2="386" y2="440"/>
<g>
	<defs>
		<rect id="SVGID_1_" x="377" y="-1" width="746" height="482"/>
	</defs>
	<clipPath id="SVGID_2_">
		<use xlink:href="#SVGID_1_"  overflow="visible"/>
	</clipPath>
	<line clip-path="url(#SVGID_2_)" fill="none" stroke="#D1D3D4" x1="1114" y1="480" x2="386" y2="480"/>
	<line clip-path="url(#SVGID_2_)" fill="none" stroke="#D1D3D4" x1="686" y1="0" x2="686" y2="480"/>
	<path clip-path="url(#SVGID_2_)" fill="#808285" d="M509.65,260.391h0.772v-6.603h-1.687l-0.448,0.688h1.362V260.391z
		 M501.263,265.721h5.68v-1.297h-4.32v-10.145h-1.36V265.721z M498.895,254.023l-5.6,13.185h1.056l5.616-13.185H498.895z
		 M490.959,262.168c0,1.648-0.896,2.607-2.336,2.607c-1.52,0-2.384-0.976-2.384-2.703c0-1.633,0.864-2.576,2.336-2.576
		C489.951,259.496,490.959,260.504,490.959,262.168 M492.175,258.568h-1.248v1.328c-0.528-1.041-1.44-1.584-2.624-1.584
		c-2,0-3.36,1.424-3.36,3.808c0,2.319,1.376,3.823,3.424,3.823c1.104,0,2.032-0.56,2.592-1.584v1.201
		c0,0.655-0.032,1.184-0.304,1.631c-0.368,0.625-1.072,0.945-2.048,0.945c-1.376,0-2.128-0.625-2.128-1.681v-0.097h-1.376
		c0.048,1.793,1.296,2.849,3.488,2.849c1.264,0,2.224-0.368,2.88-1.071c0.672-0.721,0.704-1.521,0.704-2.545V258.568z
		 M481.951,265.721h1.216v-4.865c0-1.615-0.96-2.543-2.544-2.543c-1.088,0-1.92,0.463-2.544,1.455
		c-0.416-0.959-1.248-1.455-2.4-1.455c-1.072,0-1.888,0.447-2.464,1.359v-1.104h-1.216v7.152h1.216v-3.697
		c0-0.176-0.016-0.352-0.016-0.512c0-0.544,0.064-0.992,0.368-1.375c0.384-0.496,0.976-0.769,1.632-0.769
		c1.216,0,1.776,0.704,1.776,2.144v4.209h1.216v-3.697c0-0.159-0.016-0.303-0.016-0.447c0-0.592,0.08-1.04,0.384-1.439
		c0.384-0.496,0.96-0.769,1.616-0.769c1.216,0,1.776,0.704,1.776,2.144V265.721z M458.415,260.008
		c0.704-0.544,1.536-0.816,2.432-0.816c1.76,0,2.848,1.121,2.848,2.752c0,1.777-1.104,2.896-2.736,2.896
		c-1.12,0-2-0.561-2.512-1.615l-0.96,1.119c0.784,1.152,1.888,1.68,3.44,1.68c2.624,0,4.208-1.631,4.208-4.207
		c0-2.289-1.392-3.729-3.632-3.729c-0.64,0-1.232,0.128-1.776,0.416l0.72-2.943h4.096v-1.168h-5.024l-1.36,5.567L458.415,260.008z
		 M451.76,265.721h1.328v-11.328h-2.896l-0.768,1.184h2.336V265.721z M447.104,259.176l-7.952-3.68v0.992l6.928,3.184l-6.928,3.184
		v0.992l7.952-3.68V259.176z M447.104,264.84h-7.952v0.881h7.952V264.84z M428.736,260.584h1.04c1.184,0,2.112-0.031,2.88-0.576
		c0.72-0.512,1.168-1.455,1.168-2.576c0-1.119-0.448-2.063-1.168-2.576c-0.768-0.543-1.712-0.576-2.88-0.576h-2.4v11.441h1.36
		V260.584z M428.736,259.352v-3.824h0.656c1.984,0,2.96,0.32,2.96,1.984c0,1.584-0.992,1.84-2.96,1.84H428.736z M418.896,265.721
		h1.36v-5.457h0.16l4.176,5.457h1.728l-4.368-5.457h0.24c2.016,0,3.088-0.992,3.088-2.863c0-1.121-0.416-2.032-1.072-2.545
		c-0.704-0.543-1.536-0.576-2.624-0.576h-2.688V265.721z M420.256,255.432h1.008c1.808,0,2.672,0.32,2.672,1.984
		c0,1.584-0.88,1.84-2.672,1.84h-1.008V255.432z M416.656,257.016v-1.775c-1.184-0.816-2.4-1.232-3.76-1.232
		c-1.68,0-3.088,0.561-4.256,1.68c-1.2,1.168-1.792,2.592-1.792,4.369c0,2.031,0.912,3.76,2.576,4.911
		c0.992,0.688,2.16,1.056,3.376,1.056c1.392,0,2.72-0.432,3.856-1.248v-1.808c-1.04,1.216-2.304,1.808-3.744,1.808
		c-1.552,0-2.944-0.735-3.856-2.031c-0.528-0.752-0.784-1.648-0.784-2.704c0-1.345,0.432-2.464,1.312-3.376
		c0.848-0.88,2.064-1.393,3.264-1.393C414.336,255.271,415.552,255.816,416.656,257.016"/>
	<path clip-path="url(#SVGID_2_)" fill="#808285" d="M477.586,220.391h0.773v-6.603h-1.687l-0.448,0.689h1.362V220.391z
		 M469.199,225.72h5.68v-1.296h-4.32V214.28h-1.36V225.72z M466.831,214.024l-5.6,13.184h1.056l5.616-13.184H466.831z
		 M458.895,222.168c0,1.648-0.896,2.608-2.336,2.608c-1.52,0-2.384-0.976-2.384-2.704c0-1.632,0.864-2.576,2.336-2.576
		C457.887,219.496,458.895,220.504,458.895,222.168 M460.111,218.568h-1.248v1.328c-0.528-1.04-1.44-1.584-2.624-1.584
		c-2,0-3.36,1.424-3.36,3.808c0,2.32,1.376,3.824,3.424,3.824c1.104,0,2.032-0.56,2.592-1.584v1.2c0,0.656-0.032,1.184-0.304,1.632
		c-0.368,0.624-1.072,0.944-2.048,0.944c-1.376,0-2.128-0.624-2.128-1.68v-0.096h-1.376c0.048,1.792,1.296,2.848,3.488,2.848
		c1.264,0,2.224-0.368,2.88-1.072c0.672-0.72,0.704-1.52,0.704-2.544V218.568z M449.888,225.72h1.216v-4.864
		c0-1.616-0.96-2.544-2.544-2.544c-1.088,0-1.92,0.464-2.544,1.456c-0.416-0.96-1.248-1.456-2.4-1.456
		c-1.072,0-1.888,0.448-2.464,1.36v-1.104h-1.216v7.152h1.216v-3.696c0-0.176-0.016-0.352-0.016-0.512
		c0-0.544,0.064-0.992,0.368-1.376c0.384-0.496,0.976-0.768,1.632-0.768c1.216,0,1.776,0.704,1.776,2.144v4.208h1.216v-3.696
		c0-0.16-0.016-0.304-0.016-0.448c0-0.592,0.08-1.04,0.384-1.44c0.384-0.496,0.96-0.768,1.616-0.768
		c1.216,0,1.776,0.704,1.776,2.144V225.72z M428.736,220.584h1.04c1.184,0,2.112-0.032,2.88-0.576
		c0.72-0.512,1.168-1.456,1.168-2.576c0-1.12-0.448-2.064-1.168-2.576c-0.768-0.544-1.712-0.576-2.88-0.576h-2.4v11.44h1.36V220.584
		z M428.736,219.352v-3.824h0.656c1.984,0,2.96,0.32,2.96,1.984c0,1.584-0.992,1.84-2.96,1.84H428.736z M418.896,225.72h1.36v-5.456
		h0.16l4.176,5.456h1.728l-4.368-5.456h0.24c2.016,0,3.088-0.992,3.088-2.864c0-1.12-0.416-2.032-1.072-2.544
		c-0.704-0.544-1.536-0.576-2.624-0.576h-2.688V225.72z M420.256,215.432h1.008c1.808,0,2.672,0.32,2.672,1.984
		c0,1.584-0.88,1.84-2.672,1.84h-1.008V215.432z M416.656,217.016v-1.776c-1.184-0.816-2.4-1.232-3.76-1.232
		c-1.68,0-3.088,0.56-4.256,1.68c-1.2,1.168-1.792,2.592-1.792,4.368c0,2.032,0.912,3.76,2.576,4.912
		c0.992,0.688,2.16,1.056,3.376,1.056c1.392,0,2.72-0.432,3.856-1.248v-1.808c-1.04,1.216-2.304,1.808-3.744,1.808
		c-1.552,0-2.944-0.736-3.856-2.032c-0.528-0.752-0.784-1.648-0.784-2.704c0-1.344,0.432-2.464,1.312-3.376
		c0.848-0.88,2.064-1.392,3.264-1.392C414.336,215.272,415.552,215.816,416.656,217.016"/>
	<path clip-path="url(#SVGID_2_)" fill="#808285" d="M478.749,179.637h-2.528l1.046-1.129c1.072-1.166,1.687-2.043,1.687-3.003
		c0-1.149-0.764-1.847-2.07-1.847c-1.316,0-2.089,0.736-2.089,1.996c0,0.056,0.009,0.12,0.009,0.176h0.745v-0.074
		c0-0.886,0.467-1.372,1.307-1.372c0.802,0,1.316,0.495,1.316,1.167c0,0.867-0.831,1.753-2.035,3.172l-1.407,1.668h4.019V179.637z
		 M466.623,185.72h1.216v-3.696c0-0.784,0-1.376,0.416-1.888c0.4-0.496,1.024-0.768,1.744-0.768c1.28,0,1.904,0.704,1.904,2.144
		v4.208h1.216v-4.864c0-1.616-1.024-2.544-2.688-2.544c-1.12,0-1.984,0.432-2.592,1.36v-1.104h-1.216V185.72z M462.607,175.128
		c0,0.512,0.4,0.896,0.896,0.896s0.896-0.384,0.896-0.88s-0.4-0.912-0.896-0.912S462.607,174.632,462.607,175.128 M462.895,185.72
		h1.216v-7.152h-1.216V185.72z M459.279,182.216c0,1.648-0.896,2.592-2.336,2.592c-1.52,0-2.384-0.976-2.384-2.704
		c0-1.632,0.864-2.576,2.336-2.576C458.271,179.528,459.279,180.552,459.279,182.216 M460.463,178.568h-1.216v1.344
		c-0.544-1.056-1.424-1.6-2.624-1.6c-2,0-3.36,1.456-3.36,3.856c0,2.336,1.376,3.856,3.424,3.856c1.104,0,2.016-0.56,2.592-1.6
		v1.296h1.184V178.568z M445.919,182.168c0-1.696,0.928-2.672,2.4-2.672c1.424,0,2.32,1.024,2.32,2.816
		c0,1.584-0.88,2.512-2.304,2.512C446.895,184.824,445.919,183.784,445.919,182.168 M444.735,189.208h1.216v-4.784
		c0.544,1.056,1.424,1.6,2.608,1.6c2,0,3.376-1.44,3.376-3.856c0-2.352-1.376-3.856-3.424-3.856c-1.104,0-2.048,0.56-2.608,1.6
		v-1.344h-1.168V189.208z M432.304,185.72h1.216l0.016-3.776l3.68,3.776h1.712l-3.888-3.872l3.568-3.28h-1.632l-3.44,3.248
		l-0.016-8.208h-1.216V185.72z M430.672,184.024c-0.752,0.544-1.44,0.816-2.208,0.816c-1.488,0-2.56-1.152-2.56-2.592
		c0-1.696,1.088-2.752,2.656-2.752c0.704,0,1.376,0.224,1.984,0.624v-1.312c-0.656-0.32-1.424-0.496-2.224-0.496
		c-2.144,0-3.728,1.568-3.728,3.904c0,2.256,1.456,3.808,3.68,3.808c0.928,0,1.744-0.192,2.4-0.576V184.024z M421.632,182.216
		c0,1.648-0.896,2.592-2.336,2.592c-1.52,0-2.384-0.976-2.384-2.704c0-1.632,0.864-2.576,2.336-2.576
		C420.624,179.528,421.632,180.552,421.632,182.216 M422.816,178.568H421.6v1.344c-0.544-1.056-1.424-1.6-2.624-1.6
		c-2,0-3.36,1.456-3.36,3.856c0,2.336,1.376,3.856,3.424,3.856c1.104,0,2.016-0.56,2.592-1.6v1.296h1.184V178.568z M407.376,185.72
		h2.384c1.632,0,2.752-0.048,3.584-0.864c0.576-0.576,0.944-1.44,0.944-2.384c0-1.536-0.848-2.608-2.192-2.816
		c1.088-0.32,1.696-1.152,1.696-2.368c0-1.024-0.432-1.904-1.152-2.432c-0.72-0.528-1.632-0.576-2.88-0.576h-2.384V185.72z
		 M408.736,180.36h1.424c0.704,0,1.264,0.016,1.744,0.304c0.624,0.352,0.944,0.976,0.944,1.808c0,0.72-0.288,1.344-0.752,1.68
		c-0.496,0.352-1.248,0.384-2.336,0.384h-1.024V180.36z M408.736,175.464h1.024c1.808,0,2.64,0.336,2.64,1.984
		c0,1.392-0.8,1.84-2.64,1.84h-1.04L408.736,175.464z"/>
	<path clip-path="url(#SVGID_2_)" fill="#808285" d="M600.815,140.391h0.772v-6.603h-1.687l-0.448,0.689h1.362V140.391z
		 M590.684,145.72h1.217v-3.696c0-0.784,0-1.376,0.416-1.888c0.399-0.496,1.023-0.768,1.743-0.768c1.28,0,1.904,0.704,1.904,2.144
		v4.208h1.216v-4.864c0-1.616-1.023-2.544-2.688-2.544c-1.12,0-1.984,0.432-2.592,1.36v-1.104h-1.217V145.72z M582.381,142.168
		c0-1.52,1.152-2.704,2.592-2.704c1.425,0,2.576,1.184,2.576,2.704s-1.151,2.704-2.576,2.704
		C583.549,144.872,582.381,143.688,582.381,142.168 M581.085,142.168c0,1.04,0.384,1.968,1.136,2.72
		c0.736,0.736,1.696,1.136,2.752,1.136c1.04,0,2-0.416,2.752-1.152c0.736-0.72,1.137-1.664,1.137-2.704s-0.4-2-1.137-2.72
		c-0.752-0.736-1.695-1.136-2.752-1.136c-1.056,0-2.016,0.384-2.752,1.12C581.469,140.168,581.085,141.128,581.085,142.168
		 M577.645,135.128c0,0.512,0.4,0.896,0.896,0.896s0.896-0.384,0.896-0.88s-0.399-0.912-0.896-0.912
		S577.645,134.632,577.645,135.128 M577.933,145.72h1.217v-7.152h-1.217V145.72z M573.997,139.576v6.144h1.216v-6.144h1.344v-1.008
		h-1.344v-2.88h-1.216v2.88h-1.312v1.008H573.997z M572.189,144.024c-0.753,0.544-1.44,0.816-2.208,0.816
		c-1.488,0-2.561-1.152-2.561-2.592c0-1.696,1.088-2.752,2.656-2.752c0.704,0,1.376,0.224,1.983,0.624v-1.312
		c-0.655-0.32-1.424-0.496-2.224-0.496c-2.144,0-3.728,1.568-3.728,3.904c0,2.256,1.456,3.808,3.68,3.808
		c0.928,0,1.744-0.192,2.4-0.576V144.024z M557.869,145.72h1.216v-3.696c0-0.784,0-1.376,0.416-1.888
		c0.4-0.496,1.024-0.768,1.744-0.768c1.28,0,1.904,0.704,1.904,2.144v4.208h1.216v-4.864c0-1.616-1.024-2.544-2.688-2.544
		c-1.12,0-1.983,0.432-2.592,1.36v-1.104h-1.216V145.72z M550.317,138.568h-1.217v4.272c0,2.096,1.137,3.184,3.217,3.184
		c2.144,0,3.264-1.12,3.264-3.28v-4.176h-1.216v3.52c0,1.888-0.448,2.768-2.017,2.768c-1.567,0-2.031-0.88-2.031-2.768V138.568z
		 M544.974,145.72h1.217v-6.144h1.903v-1.008h-1.903v-1.904c0-1.376,0.031-2.032,0.943-2.032c0.32,0,0.641,0.08,0.96,0.256v-1.264
		c-0.336-0.112-0.688-0.16-1.056-0.16c-1.712,0-2.064,0.896-2.064,3.04v2.064h-1.376v1.008h1.376V145.72z M536.286,145.72h1.216
		v-12.112h-1.216V145.72z M532.67,142.216c0,1.648-0.896,2.592-2.336,2.592c-1.52,0-2.384-0.976-2.384-2.704
		c0-1.632,0.864-2.576,2.336-2.576C531.662,139.528,532.67,140.552,532.67,142.216 M533.854,138.568h-1.216v1.344
		c-0.544-1.056-1.424-1.6-2.624-1.6c-2,0-3.359,1.456-3.359,3.856c0,2.336,1.376,3.856,3.424,3.856c1.104,0,2.016-0.56,2.592-1.6
		v1.296h1.184V138.568z M525.582,144.024c-0.752,0.544-1.44,0.816-2.208,0.816c-1.488,0-2.56-1.152-2.56-2.592
		c0-1.696,1.088-2.752,2.655-2.752c0.704,0,1.376,0.224,1.984,0.624v-1.312c-0.656-0.32-1.424-0.496-2.224-0.496
		c-2.145,0-3.729,1.568-3.729,3.904c0,2.256,1.456,3.808,3.68,3.808c0.929,0,1.744-0.192,2.4-0.576V144.024z M516.078,135.128
		c0,0.512,0.399,0.896,0.896,0.896s0.896-0.384,0.896-0.88s-0.4-0.912-0.896-0.912S516.078,134.632,516.078,135.128 M516.366,145.72
		h1.216v-7.152h-1.216V145.72z M509.118,144.52c0.56,1.008,1.488,1.504,2.815,1.504c1.584,0,2.608-0.944,2.608-2.272
		c0-1.168-0.688-1.68-2.08-2.128c-1.184-0.384-1.84-0.48-1.84-1.232c0-0.624,0.496-1.072,1.216-1.072
		c0.752,0,1.344,0.368,1.632,1.024l0.992-0.608c-0.384-0.912-1.312-1.424-2.544-1.424c-1.52,0-2.528,0.912-2.528,2.16
		c0,1.408,1.057,1.712,2.816,2.32c0.752,0.256,1.12,0.544,1.12,1.088c0,0.624-0.528,1.072-1.344,1.072
		c-0.816,0-1.425-0.368-1.824-1.136L509.118,144.52z M502.623,149.208h1.376l4.8-10.64h-1.344l-2.208,5.136l-2.08-5.136h-1.408
		l2.8,6.448L502.623,149.208z M494.079,145.72h1.216v-3.696c0-0.784,0-1.376,0.416-1.888c0.4-0.496,1.024-0.768,1.744-0.768
		c1.28,0,1.904,0.704,1.904,2.144v4.208h1.216v-4.864c0-1.616-1.024-2.544-2.688-2.544c-1.12,0-1.984,0.432-2.608,1.36v-6.064h-1.2
		V145.72z M486.191,142.168c0-1.696,0.928-2.672,2.4-2.672c1.424,0,2.32,1.024,2.32,2.816c0,1.584-0.88,2.512-2.304,2.512
		C487.167,144.824,486.191,143.784,486.191,142.168 M485.007,149.208h1.216v-4.784c0.544,1.056,1.424,1.6,2.608,1.6
		c2,0,3.376-1.44,3.376-3.856c0-2.352-1.376-3.856-3.424-3.856c-1.104,0-2.048,0.56-2.608,1.6v-1.344h-1.168V149.208z
		 M476.767,142.184c0,1.696-0.928,2.656-2.4,2.656c-1.424,0-2.32-1.024-2.32-2.816c0-1.584,0.88-2.496,2.304-2.496
		C475.791,139.528,476.767,140.568,476.767,142.184 M477.951,133.608h-1.216v6.304c-0.544-1.056-1.424-1.6-2.608-1.6
		c-2,0-3.376,1.456-3.376,3.856c0,2.336,1.376,3.856,3.424,3.856c1.104,0,2.032-0.576,2.592-1.6v1.296h1.184V133.608z
		 M468.223,141.336h-4.352c0.128-1.216,1.008-1.968,2.176-1.968C467.343,139.368,468.143,140.072,468.223,141.336 M469.535,142.328
		v-0.24c0-2.368-1.344-3.792-3.44-3.792c-2.08,0-3.568,1.568-3.568,3.824c0,2.336,1.472,3.904,3.648,3.904
		c1.472,0,2.592-0.656,3.312-1.952l-0.928-0.624c-0.592,1.04-1.36,1.552-2.32,1.552c-1.376,0-2.368-1.008-2.368-2.56v-0.112H469.535
		z M455.967,144.52c0.56,1.008,1.488,1.504,2.816,1.504c1.584,0,2.608-0.944,2.608-2.272c0-1.168-0.688-1.68-2.08-2.128
		c-1.184-0.384-1.84-0.48-1.84-1.232c0-0.624,0.496-1.072,1.216-1.072c0.752,0,1.344,0.368,1.632,1.024l0.992-0.608
		c-0.384-0.912-1.312-1.424-2.544-1.424c-1.52,0-2.528,0.912-2.528,2.16c0,1.408,1.056,1.712,2.816,2.32
		c0.752,0.256,1.12,0.544,1.12,1.088c0,0.624-0.528,1.072-1.344,1.072s-1.424-0.368-1.824-1.136L455.967,144.52z M453.167,142.216
		c0,1.648-0.896,2.592-2.336,2.592c-1.52,0-2.384-0.976-2.384-2.704c0-1.632,0.864-2.576,2.336-2.576
		C452.159,139.528,453.167,140.552,453.167,142.216 M454.351,138.568h-1.216v1.344c-0.544-1.056-1.424-1.6-2.624-1.6
		c-2,0-3.36,1.456-3.36,3.856c0,2.336,1.376,3.856,3.424,3.856c1.104,0,2.016-0.56,2.592-1.6v1.296h1.184V138.568z M444.624,141.336
		h-4.352c0.128-1.216,1.008-1.968,2.176-1.968C443.744,139.368,444.544,140.072,444.624,141.336 M445.936,142.328v-0.24
		c0-2.368-1.344-3.792-3.44-3.792c-2.08,0-3.568,1.568-3.568,3.824c0,2.336,1.472,3.904,3.648,3.904
		c1.472,0,2.592-0.656,3.312-1.952l-0.928-0.624c-0.592,1.04-1.36,1.552-2.32,1.552c-1.376,0-2.368-1.008-2.368-2.56v-0.112H445.936
		z M434.032,145.72h1.216v-3.488c0-1.872,0.64-2.8,1.936-2.8c0.224,0,0.48,0.048,0.752,0.144l0.416-1.104
		c-0.272-0.096-0.544-0.144-0.832-0.144c-1.088,0-1.76,0.512-2.4,1.728v-1.488h-1.088V145.72z M432.4,144.024
		c-0.752,0.544-1.44,0.816-2.208,0.816c-1.488,0-2.56-1.152-2.56-2.592c0-1.696,1.088-2.752,2.656-2.752
		c0.704,0,1.376,0.224,1.984,0.624v-1.312c-0.656-0.32-1.424-0.496-2.224-0.496c-2.144,0-3.728,1.568-3.728,3.904
		c0,2.256,1.456,3.808,3.68,3.808c0.928,0,1.744-0.192,2.4-0.576V144.024z M423.84,141.336h-4.352
		c0.128-1.216,1.008-1.968,2.176-1.968C422.96,139.368,423.76,140.072,423.84,141.336 M425.152,142.328v-0.24
		c0-2.368-1.344-3.792-3.44-3.792c-2.08,0-3.568,1.568-3.568,3.824c0,2.336,1.472,3.904,3.648,3.904
		c1.472,0,2.592-0.656,3.312-1.952l-0.928-0.624c-0.592,1.04-1.36,1.552-2.32,1.552c-1.376,0-2.368-1.008-2.368-2.56v-0.112H425.152
		z M408.736,144.44v-8.896h0.88c1.968,0,3.328,0.032,4.272,0.832c0.944,0.784,1.44,2,1.44,3.616c0,1.616-0.512,2.864-1.44,3.632
		c-0.96,0.8-2.32,0.816-4.272,0.816H408.736z M407.376,145.72h2.688c1.856,0,3.36-0.048,4.688-1.072c1.312-1.008,2-2.592,2-4.64
		c0-2.048-0.688-3.648-2-4.656c-1.392-1.072-3.04-1.072-5.184-1.072h-2.192V145.72z"/>
	<path clip-path="url(#SVGID_2_)" fill="#808285" d="M509.825,100.391h0.772v-6.603h-1.687l-0.448,0.689h1.362V100.391z
		 M501.278,109.208h1.376l4.8-10.64h-1.344l-2.208,5.136l-2.081-5.136h-1.408l2.8,6.448L501.278,109.208z M497.694,99.576v6.144
		h1.216v-6.144h1.344v-1.008h-1.344v-2.88h-1.216v2.88h-1.312v1.008H497.694z M493.486,95.128c0,0.512,0.4,0.896,0.896,0.896
		c0.496,0,0.896-0.384,0.896-0.88s-0.4-0.912-0.896-0.912C493.886,94.232,493.486,94.632,493.486,95.128 M493.774,105.72h1.216
		v-7.152h-1.216V105.72z M489.982,105.72h1.216V93.608h-1.216V105.72z M485.902,95.128c0,0.512,0.4,0.896,0.896,0.896
		s0.896-0.384,0.896-0.88s-0.4-0.912-0.896-0.912S485.902,94.632,485.902,95.128 M486.19,105.72h1.216v-7.152h-1.216V105.72z
		 M478.223,102.184c0-1.616,0.992-2.656,2.432-2.656c1.424,0,2.304,0.912,2.304,2.496c0,1.792-0.912,2.816-2.336,2.816
		C479.151,104.84,478.223,103.88,478.223,102.184 M477.055,93.608v12.112h1.168v-1.296c0.56,1.024,1.504,1.6,2.608,1.6
		c2.048,0,3.424-1.52,3.424-3.856c0-2.4-1.376-3.856-3.376-3.856c-1.184,0-2.064,0.544-2.608,1.6v-6.304H477.055z M468.751,102.168
		c0-1.52,1.152-2.704,2.592-2.704c1.424,0,2.576,1.184,2.576,2.704s-1.152,2.704-2.576,2.704
		C469.919,104.872,468.751,103.688,468.751,102.168 M467.455,102.168c0,1.04,0.384,1.968,1.136,2.72
		c0.736,0.736,1.696,1.136,2.752,1.136c1.04,0,2-0.416,2.752-1.152c0.736-0.72,1.136-1.664,1.136-2.704s-0.4-2-1.136-2.72
		c-0.752-0.736-1.696-1.136-2.752-1.136c-1.056,0-2.016,0.384-2.752,1.12C467.839,100.168,467.455,101.128,467.455,102.168
		 M464.495,105.72h1.216v-4.864c0-1.616-0.96-2.544-2.544-2.544c-1.088,0-1.92,0.464-2.544,1.456c-0.416-0.96-1.248-1.456-2.4-1.456
		c-1.072,0-1.888,0.448-2.464,1.36v-1.104h-1.216v7.152h1.216v-3.696c0-0.176-0.016-0.352-0.016-0.512
		c0-0.544,0.064-0.992,0.368-1.376c0.384-0.496,0.976-0.768,1.632-0.768c1.216,0,1.776,0.704,1.776,2.144v4.208h1.216v-3.696
		c0-0.16-0.016-0.304-0.016-0.448c0-0.592,0.08-1.04,0.384-1.44c0.384-0.496,0.96-0.768,1.616-0.768
		c1.216,0,1.776,0.704,1.776,2.144V105.72z M446.175,105.72h1.216V93.608h-1.216V105.72z M442.559,102.216
		c0,1.648-0.896,2.592-2.336,2.592c-1.52,0-2.384-0.976-2.384-2.704c0-1.632,0.864-2.576,2.336-2.576
		C441.551,99.528,442.559,100.552,442.559,102.216 M443.743,98.568h-1.216v1.344c-0.544-1.056-1.424-1.6-2.624-1.6
		c-2,0-3.36,1.456-3.36,3.856c0,2.336,1.376,3.856,3.424,3.856c1.104,0,2.016-0.56,2.592-1.6v1.296h1.184V98.568z M428.256,105.72
		h1.216v-3.696c0-0.784,0-1.376,0.416-1.888c0.4-0.496,1.024-0.768,1.744-0.768c1.28,0,1.904,0.704,1.904,2.144v4.208h1.216v-4.864
		c0-1.616-1.024-2.544-2.688-2.544c-1.12,0-1.984,0.432-2.592,1.36v-1.104h-1.216V105.72z M424.24,95.128
		c0,0.512,0.4,0.896,0.896,0.896c0.496,0,0.896-0.384,0.896-0.88s-0.4-0.912-0.896-0.912C424.64,94.232,424.24,94.632,424.24,95.128
		 M424.528,105.72h1.216v-7.152h-1.216V105.72z M416.576,102.168c0-1.696,0.928-2.672,2.4-2.672c1.424,0,2.32,1.024,2.32,2.816
		c0,1.584-0.88,2.512-2.304,2.512C417.552,104.824,416.576,103.784,416.576,102.168 M415.392,109.208h1.216v-4.784
		c0.544,1.056,1.424,1.6,2.608,1.6c2,0,3.376-1.44,3.376-3.856c0-2.352-1.376-3.856-3.424-3.856c-1.104,0-2.048,0.56-2.608,1.6
		v-1.344h-1.168V109.208z M411.536,99.368l-1.632-0.72c-1.04-0.464-1.536-1.024-1.536-1.84c0-0.976,0.72-1.664,1.744-1.664
		c0.816,0,1.44,0.448,1.936,1.312l1.12-0.72c-0.56-1.136-1.584-1.728-2.96-1.728c-1.904,0-3.216,1.216-3.216,2.816
		c0,1.392,0.736,2.384,2.256,3.024l1.392,0.592c1.184,0.512,1.776,1.264,1.776,2.288c0,1.248-0.912,2.128-2.288,2.128
		c-1.152,0-1.936-0.72-2.272-2.112l-1.232,0.608c0.432,1.696,1.696,2.656,3.504,2.656c2.208,0,3.664-1.408,3.664-3.504
		C413.792,101.064,413.024,100.024,411.536,99.368"/>
	<path clip-path="url(#SVGID_2_)" fill="#808285" d="M512.577,60.391h0.772v-6.603h-1.687l-0.448,0.689h1.362V60.391z
		 M504.03,69.208h1.376l4.8-10.64h-1.344l-2.208,5.136l-2.08-5.136h-1.408l2.8,6.448L504.03,69.208z M500.446,59.576v6.144h1.216
		v-6.144h1.344v-1.008h-1.344v-2.88h-1.216v2.88h-1.312v1.008H500.446z M496.238,55.128c0,0.512,0.4,0.896,0.896,0.896
		c0.496,0,0.896-0.384,0.896-0.88s-0.4-0.912-0.896-0.912C496.638,54.232,496.238,54.632,496.238,55.128 M496.526,65.72h1.216
		v-7.152h-1.216V65.72z M491.71,66.168l3.52-7.6h-1.376l-2.16,4.992l-2.144-4.992h-1.376L491.71,66.168z M485.342,55.128
		c0,0.512,0.4,0.896,0.896,0.896c0.496,0,0.896-0.384,0.896-0.88s-0.4-0.912-0.896-0.912
		C485.742,54.232,485.342,54.632,485.342,55.128 M485.63,65.72h1.216v-7.152h-1.216V65.72z M481.695,59.576v6.144h1.216v-6.144
		h1.344v-1.008h-1.344v-2.88h-1.216v2.88h-1.312v1.008H481.695z M479.887,64.024c-0.752,0.544-1.44,0.816-2.208,0.816
		c-1.488,0-2.56-1.152-2.56-2.592c0-1.696,1.088-2.752,2.656-2.752c0.704,0,1.376,0.224,1.984,0.624v-1.312
		c-0.656-0.32-1.424-0.496-2.224-0.496c-2.144,0-3.728,1.568-3.728,3.904c0,2.256,1.456,3.808,3.68,3.808
		c0.928,0,1.744-0.192,2.4-0.576V64.024z M470.847,62.216c0,1.648-0.896,2.592-2.336,2.592c-1.52,0-2.384-0.976-2.384-2.704
		c0-1.632,0.864-2.576,2.336-2.576C469.839,59.528,470.847,60.552,470.847,62.216 M472.031,58.568h-1.216v1.344
		c-0.544-1.056-1.424-1.6-2.624-1.6c-2,0-3.36,1.456-3.36,3.856c0,2.336,1.376,3.856,3.424,3.856c1.104,0,2.016-0.56,2.592-1.6
		v1.296h1.184V58.568z M457.663,61.336h-4.352c0.128-1.216,1.008-1.968,2.176-1.968C456.783,59.368,457.583,60.072,457.663,61.336
		 M458.975,62.328v-0.24c0-2.368-1.344-3.792-3.44-3.792c-2.08,0-3.568,1.568-3.568,3.824c0,2.336,1.472,3.904,3.648,3.904
		c1.472,0,2.592-0.656,3.312-1.952l-0.928-0.624c-0.592,1.04-1.36,1.552-2.32,1.552c-1.376,0-2.368-1.008-2.368-2.56v-0.112H458.975
		z M445.407,64.52c0.56,1.008,1.488,1.504,2.816,1.504c1.584,0,2.608-0.944,2.608-2.272c0-1.168-0.688-1.68-2.08-2.128
		c-1.184-0.384-1.84-0.48-1.84-1.232c0-0.624,0.496-1.072,1.216-1.072c0.752,0,1.344,0.368,1.632,1.024l0.992-0.608
		c-0.384-0.912-1.312-1.424-2.544-1.424c-1.52,0-2.528,0.912-2.528,2.16c0,1.408,1.056,1.712,2.816,2.32
		c0.752,0.256,1.12,0.544,1.12,1.088c0,0.624-0.528,1.072-1.344,1.072s-1.424-0.368-1.824-1.136L445.407,64.52z M442.608,62.216
		c0,1.648-0.896,2.592-2.336,2.592c-1.52,0-2.384-0.976-2.384-2.704c0-1.632,0.864-2.576,2.336-2.576
		C441.6,59.528,442.608,60.552,442.608,62.216 M443.792,58.568h-1.216v1.344c-0.544-1.056-1.424-1.6-2.624-1.6
		c-2,0-3.36,1.456-3.36,3.856c0,2.336,1.376,3.856,3.424,3.856c1.104,0,2.016-0.56,2.592-1.6v1.296h1.184V58.568z M434.064,61.336
		h-4.352c0.128-1.216,1.008-1.968,2.176-1.968C433.184,59.368,433.984,60.072,434.064,61.336 M435.376,62.328v-0.24
		c0-2.368-1.344-3.792-3.44-3.792c-2.08,0-3.568,1.568-3.568,3.824c0,2.336,1.472,3.904,3.648,3.904
		c1.472,0,2.592-0.656,3.312-1.952l-0.928-0.624c-0.592,1.04-1.36,1.552-2.32,1.552c-1.376,0-2.368-1.008-2.368-2.56v-0.112H435.376
		z M421.808,64.52c0.56,1.008,1.488,1.504,2.816,1.504c1.584,0,2.608-0.944,2.608-2.272c0-1.168-0.688-1.68-2.08-2.128
		c-1.184-0.384-1.84-0.48-1.84-1.232c0-0.624,0.496-1.072,1.216-1.072c0.752,0,1.344,0.368,1.632,1.024l0.992-0.608
		c-0.384-0.912-1.312-1.424-2.544-1.424c-1.52,0-2.528,0.912-2.528,2.16c0,1.408,1.056,1.712,2.816,2.32
		c0.752,0.256,1.12,0.544,1.12,1.088c0,0.624-0.528,1.072-1.344,1.072s-1.424-0.368-1.824-1.136L421.808,64.52z M418.544,55.128
		c0,0.512,0.4,0.896,0.896,0.896s0.896-0.384,0.896-0.88s-0.4-0.912-0.896-0.912S418.544,54.632,418.544,55.128 M418.832,65.72
		h1.216v-7.152h-1.216V65.72z M408.736,64.44v-8.896h0.88c1.968,0,3.328,0.032,4.272,0.832c0.944,0.784,1.44,2,1.44,3.616
		c0,1.616-0.512,2.864-1.44,3.632c-0.96,0.8-2.32,0.816-4.272,0.816H408.736z M407.376,65.72h2.688c1.856,0,3.36-0.048,4.688-1.072
		c1.312-1.008,2-2.592,2-4.64c0-2.048-0.688-3.648-2-4.656c-1.392-1.072-3.04-1.072-5.184-1.072h-2.192V65.72z"/>
	<path clip-path="url(#SVGID_2_)" fill="#FFFFFF" d="M516.266,20.477v-2.142c-0.647-0.36-1.367-0.522-2.214-0.522
		c-2.754,0-4.626,1.8-4.626,4.482c0,2.646,1.818,4.482,4.428,4.482c0.919,0,1.711-0.198,2.412-0.594v-2.196
		c-0.558,0.702-1.277,1.044-2.195,1.044c-1.656,0-2.664-1.044-2.664-2.79c0-1.674,1.025-2.754,2.574-2.754
		C514.898,19.487,515.69,19.847,516.266,20.477 M505.251,14.501c0,0.648,0.54,1.206,1.206,1.206s1.188-0.522,1.188-1.206
		s-0.521-1.188-1.188-1.188S505.251,13.853,505.251,14.501 M505.503,26.435h1.908v-8.334h-1.908V26.435z M500.499,26.435h1.908
		v-6.66h1.458v-1.674h-1.458v-3.15h-1.908v3.15h-1.458v1.674h1.458V26.435z M491.517,24.923c0.612,1.26,1.674,1.854,3.294,1.854
		c2.178,0,3.402-1.044,3.402-2.664c0-1.206-0.684-1.89-2.142-2.466c-1.296-0.522-2.196-0.648-2.196-1.458
		c0-0.576,0.468-0.954,1.206-0.954c0.666,0,1.188,0.342,1.386,0.864l1.35-0.936c-0.414-0.864-1.35-1.368-2.664-1.368
		c-1.98,0-3.186,1.062-3.186,2.502c0,1.206,0.81,1.854,2.394,2.52c1.152,0.486,1.98,0.558,1.98,1.422
		c0,0.666-0.504,1.098-1.368,1.098c-1.008,0-1.638-0.45-1.872-1.278L491.517,24.923z M487.683,14.501
		c0,0.648,0.54,1.206,1.206,1.206s1.188-0.522,1.188-1.206s-0.522-1.188-1.188-1.188S487.683,13.853,487.683,14.501 M487.935,26.435
		h1.908v-8.334h-1.908V26.435z M483.219,19.433v-1.35h-1.908v8.352h1.908v-3.654c0-2.25,0.432-3.312,1.782-3.312
		c0.432,0,0.81,0.09,1.17,0.342l0.684-1.62c-0.504-0.252-1.026-0.378-1.566-0.378C484.281,17.813,483.633,18.335,483.219,19.433
		 M479.421,22.547v-0.36c0-2.772-1.584-4.374-4.266-4.374c-2.592,0-4.374,1.89-4.374,4.482c0,2.718,1.71,4.482,4.374,4.482
		c1.872,0,3.24-0.81,4.176-2.484l-1.602-0.9c-0.612,1.152-1.386,1.638-2.61,1.638c-1.386,0-2.268-0.918-2.358-2.484H479.421z
		 M477.441,21.269h-4.554c0.306-1.242,1.062-1.836,2.304-1.836C476.505,19.433,477.297,20.063,477.441,21.269 M466.479,26.435h1.908
		v-6.66h1.458v-1.674h-1.458v-3.15h-1.908v3.15h-1.458v1.674h1.458V26.435z M464.175,20.477v-2.142
		c-0.648-0.36-1.368-0.522-2.214-0.522c-2.754,0-4.626,1.8-4.626,4.482c0,2.646,1.818,4.482,4.428,4.482
		c0.918,0,1.71-0.198,2.412-0.594v-2.196c-0.558,0.702-1.278,1.044-2.196,1.044c-1.656,0-2.664-1.044-2.664-2.79
		c0-1.674,1.026-2.754,2.574-2.754C462.807,19.487,463.599,19.847,464.175,20.477 M455.409,26.435v-8.334h-1.908v1.368
		c-0.45-1.062-1.44-1.656-2.808-1.656c-2.196,0-3.744,1.764-3.744,4.446c0,2.844,1.476,4.518,3.798,4.518
		c1.17,0,2.07-0.468,2.754-1.422v1.08H455.409z M453.555,22.241c0,1.764-1.008,2.844-2.322,2.844c-1.44,0-2.286-0.99-2.286-2.772
		c0-1.764,0.882-2.808,2.322-2.808C452.691,19.505,453.555,20.495,453.555,22.241 M442.935,19.433v-1.35h-1.908v8.352h1.908v-3.654
		c0-2.25,0.432-3.312,1.782-3.312c0.432,0,0.81,0.09,1.17,0.342l0.684-1.62c-0.504-0.252-1.026-0.378-1.566-0.378
		C443.997,17.813,443.349,18.335,442.935,19.433 M438.49,26.435v-8.334h-1.908v1.368c-0.45-1.062-1.44-1.656-2.808-1.656
		c-2.196,0-3.744,1.764-3.744,4.446c0,2.844,1.476,4.518,3.798,4.518c1.17,0,2.07-0.468,2.754-1.422v1.08H438.49z M436.636,22.241
		c0,1.764-1.008,2.844-2.322,2.844c-1.44,0-2.286-0.99-2.286-2.772c0-1.764,0.882-2.808,2.322-2.808
		C435.772,19.505,436.636,20.495,436.636,22.241 M420.148,26.435h1.908v-3.798c0-1.044,0.036-1.764,0.378-2.268
		c0.396-0.594,1.116-0.936,2.016-0.936c1.584,0,1.818,0.864,1.818,2.718v4.284h1.926v-5.058c0-1.008,0-1.764-0.414-2.394
		c-0.486-0.774-1.368-1.17-2.61-1.17c-1.458,0-2.448,0.486-3.222,1.656v-6.66h-1.8V26.435z M417.808,16.697l0.108-2.106
		c-1.26-0.882-2.61-1.332-4.158-1.332c-1.926,0-3.6,0.666-4.878,1.926c-1.278,1.26-1.962,2.952-1.962,4.842
		c0,1.872,0.684,3.6,1.944,4.842c1.26,1.242,2.952,1.908,4.932,1.908c1.548,0,2.862-0.396,3.996-1.206v-2.358
		c-1.26,1.08-2.628,1.62-4.158,1.62c-2.574,0-4.536-1.962-4.536-4.788c0-2.862,1.926-4.86,4.752-4.86
		C415.306,15.185,416.62,15.689,417.808,16.697"/>
	<path clip-path="url(#SVGID_2_)" fill="#808285" d="M527.741,349.208h1.376l4.8-10.64h-1.344l-2.208,5.136l-2.08-5.136h-1.408
		l2.8,6.447L527.741,349.208z M524.478,342.216c0,1.647-0.896,2.593-2.336,2.593c-1.52,0-2.384-0.977-2.384-2.705
		c0-1.631,0.864-2.576,2.336-2.576C523.47,339.527,524.478,340.552,524.478,342.216 M525.662,338.568h-1.216v1.344
		c-0.544-1.057-1.424-1.6-2.624-1.6c-2,0-3.36,1.455-3.36,3.855c0,2.336,1.376,3.855,3.424,3.855c1.104,0,2.017-0.56,2.592-1.6
		v1.297h1.185V338.568z M513.486,345.721h1.216v-3.488c0-1.873,0.64-2.801,1.936-2.801c0.225,0,0.48,0.049,0.752,0.145l0.416-1.104
		c-0.271-0.097-0.544-0.145-0.832-0.145c-1.088,0-1.76,0.512-2.399,1.729v-1.488h-1.088V345.721z M507.55,342.775h3.648v-1.231
		h-3.648V342.775z M499.598,345.721h1.52l1.936-2.769l1.952,2.769h1.521l-2.769-3.697l2.688-3.455h-1.521l-1.872,2.56l-1.855-2.56
		h-1.52l2.671,3.455L499.598,345.721z M488.958,349.208h1.376l4.8-10.64h-1.344l-2.208,5.136l-2.08-5.136h-1.408l2.8,6.447
		L488.958,349.208z M481.342,342.184c0-1.615,0.992-2.656,2.432-2.656c1.424,0,2.304,0.912,2.304,2.496
		c0,1.793-0.912,2.816-2.336,2.816C482.27,344.84,481.342,343.88,481.342,342.184 M480.174,333.607v12.113h1.168v-1.297
		c0.56,1.024,1.504,1.6,2.608,1.6c2.048,0,3.424-1.52,3.424-3.855c0-2.4-1.376-3.855-3.376-3.855c-1.184,0-2.064,0.543-2.608,1.6
		v-6.305H480.174z M468.35,344.52c0.56,1.008,1.488,1.504,2.816,1.504c1.584,0,2.608-0.943,2.608-2.271
		c0-1.168-0.688-1.68-2.08-2.128c-1.184-0.384-1.84-0.479-1.84-1.231c0-0.625,0.496-1.072,1.216-1.072
		c0.752,0,1.344,0.367,1.632,1.023l0.992-0.607c-0.384-0.912-1.312-1.424-2.544-1.424c-1.52,0-2.528,0.912-2.528,2.16
		c0,1.407,1.056,1.711,2.816,2.319c0.752,0.256,1.12,0.544,1.12,1.088c0,0.624-0.528,1.072-1.344,1.072s-1.424-0.368-1.824-1.136
		L468.35,344.52z M465.086,335.128c0,0.513,0.4,0.896,0.896,0.896s0.896-0.383,0.896-0.879s-0.4-0.912-0.896-0.912
		S465.086,334.632,465.086,335.128 M465.374,345.721h1.216v-7.152h-1.216V345.721z M461.439,339.576v6.145h1.216v-6.145h1.344
		v-1.008h-1.344v-2.881h-1.216v2.881h-1.312v1.008H461.439z M457.231,335.128c0,0.513,0.4,0.896,0.896,0.896
		s0.896-0.383,0.896-0.879s-0.4-0.912-0.896-0.912S457.231,334.632,457.231,335.128 M457.519,345.721h1.216v-7.152h-1.216V345.721z
		 M453.439,335.128c0,0.513,0.4,0.896,0.896,0.896s0.896-0.383,0.896-0.879s-0.4-0.912-0.896-0.912S453.439,334.632,453.439,335.128
		 M453.727,345.721h1.216v-7.152h-1.216V345.721z M449.935,345.721h1.216v-12.113h-1.216V345.721z M445.855,335.128
		c0,0.513,0.4,0.896,0.896,0.896s0.896-0.383,0.896-0.879s-0.4-0.912-0.896-0.912S445.855,334.632,445.855,335.128 M446.143,345.721
		h1.216v-7.152h-1.216V345.721z M437.775,342.168c0-1.52,1.152-2.704,2.592-2.704c1.424,0,2.576,1.185,2.576,2.704
		s-1.152,2.704-2.576,2.704C438.943,344.872,437.775,343.688,437.775,342.168 M436.479,342.168c0,1.04,0.384,1.969,1.136,2.721
		c0.736,0.735,1.696,1.135,2.752,1.135c1.04,0,2-0.416,2.752-1.151c0.736-0.72,1.136-1.664,1.136-2.704s-0.4-2-1.136-2.72
		c-0.752-0.736-1.696-1.136-2.752-1.136c-1.056,0-2.016,0.383-2.752,1.119C436.863,340.168,436.479,341.128,436.479,342.168
		 M431.535,345.721h1.216v-3.488c0-1.873,0.64-2.801,1.936-2.801c0.224,0,0.48,0.049,0.752,0.145l0.416-1.104
		c-0.272-0.097-0.544-0.145-0.832-0.145c-1.088,0-1.76,0.512-2.4,1.729v-1.488h-1.088V345.721z M429.904,344.023
		c-0.752,0.545-1.44,0.816-2.208,0.816c-1.488,0-2.56-1.152-2.56-2.592c0-1.696,1.088-2.752,2.656-2.752
		c0.704,0,1.376,0.225,1.984,0.624v-1.312c-0.656-0.32-1.424-0.496-2.224-0.496c-2.144,0-3.728,1.567-3.728,3.903
		c0,2.257,1.456,3.808,3.68,3.808c0.928,0,1.744-0.191,2.4-0.575V344.023z M420.864,342.216c0,1.647-0.896,2.593-2.336,2.593
		c-1.52,0-2.384-0.977-2.384-2.705c0-1.631,0.864-2.576,2.336-2.576C419.856,339.527,420.864,340.552,420.864,342.216
		 M422.048,338.568h-1.216v1.344c-0.544-1.057-1.424-1.6-2.624-1.6c-2,0-3.36,1.455-3.36,3.855c0,2.336,1.376,3.855,3.424,3.855
		c1.104,0,2.016-0.56,2.592-1.6v1.297h1.184V338.568z M411.536,339.368l-1.632-0.72c-1.04-0.465-1.536-1.024-1.536-1.84
		c0-0.977,0.72-1.664,1.744-1.664c0.816,0,1.44,0.447,1.936,1.312l1.12-0.72c-0.56-1.137-1.584-1.729-2.96-1.729
		c-1.904,0-3.216,1.217-3.216,2.816c0,1.392,0.736,2.384,2.256,3.023l1.392,0.592c1.184,0.513,1.776,1.265,1.776,2.289
		c0,1.248-0.912,2.127-2.288,2.127c-1.152,0-1.936-0.719-2.272-2.111l-1.232,0.607c0.432,1.696,1.696,2.656,3.504,2.656
		c2.208,0,3.664-1.408,3.664-3.504C413.792,341.064,413.024,340.023,411.536,339.368"/>
	<path clip-path="url(#SVGID_2_)" fill="#808285" d="M470.563,300.391h0.773v-6.603h-1.688l-0.447,0.688h1.362V300.391z
		 M460.463,305.576l1.12,0.576l5.712-11.76h-7.248v1.184h5.296L460.463,305.576z M457.088,304.424h-4.336l1.792-1.936
		c1.84-2,2.896-3.504,2.896-5.152c0-1.968-1.312-3.168-3.552-3.168c-2.256,0-3.584,1.264-3.584,3.424
		c0,0.096,0.016,0.208,0.016,0.305h1.28v-0.129c0-1.52,0.8-2.352,2.24-2.352c1.376,0,2.256,0.848,2.256,2
		c0,1.488-1.424,3.008-3.488,5.439l-2.416,2.865h6.896V304.424z M441.76,305.721h2.384c1.632,0,2.752-0.049,3.584-0.865
		c0.576-0.576,0.944-1.439,0.944-2.383c0-1.537-0.848-2.608-2.192-2.816c1.088-0.32,1.696-1.152,1.696-2.368
		c0-1.024-0.432-1.904-1.152-2.433c-0.72-0.527-1.632-0.576-2.88-0.576h-2.384V305.721z M443.12,300.359h1.424
		c0.704,0,1.264,0.017,1.744,0.305c0.624,0.352,0.944,0.977,0.944,1.809c0,0.719-0.288,1.344-0.752,1.68
		c-0.496,0.352-1.248,0.384-2.336,0.384h-1.024V300.359z M443.12,295.464h1.024c1.808,0,2.64,0.336,2.64,1.984
		c0,1.392-0.8,1.84-2.64,1.84h-1.04L443.12,295.464z M435.712,302.775h3.648v-1.231h-3.648V302.775z M429.68,296.84l1.824,4.208
		h-3.648L429.68,296.84z M429.68,293.832l-5.184,11.889h1.472l1.488-3.505h4.464l1.488,3.505h1.472L429.68,293.832z
		 M418.848,305.721h5.68v-1.297h-4.32v-10.145h-1.36V305.721z M407.376,305.721h1.36v-5.744h6.08v5.744h1.36v-11.441h-1.36v4.4
		h-6.08v-4.4h-1.36V305.721z"/>
	<path clip-path="url(#SVGID_2_)" fill="#808285" d="M474.367,421.336h-4.352c0.128-1.216,1.008-1.968,2.176-1.968
		C473.487,419.368,474.287,420.072,474.367,421.336 M475.679,422.328v-0.24c0-2.368-1.344-3.792-3.44-3.792
		c-2.08,0-3.568,1.568-3.568,3.824c0,2.336,1.472,3.904,3.648,3.904c1.472,0,2.592-0.656,3.312-1.952l-0.928-0.624
		c-0.592,1.04-1.36,1.552-2.32,1.552c-1.376,0-2.368-1.008-2.368-2.56v-0.112H475.679z M465.711,422.168
		c0,1.648-0.896,2.608-2.336,2.608c-1.52,0-2.384-0.977-2.384-2.704c0-1.632,0.864-2.576,2.336-2.576
		C464.703,419.496,465.711,420.504,465.711,422.168 M466.927,418.568h-1.248v1.328c-0.528-1.04-1.44-1.585-2.624-1.585
		c-2,0-3.36,1.425-3.36,3.809c0,2.32,1.376,3.824,3.424,3.824c1.104,0,2.032-0.561,2.592-1.584v1.199
		c0,0.656-0.032,1.185-0.304,1.633c-0.368,0.624-1.072,0.943-2.048,0.943c-1.376,0-2.128-0.624-2.128-1.68v-0.096h-1.376
		c0.048,1.792,1.296,2.848,3.488,2.848c1.264,0,2.224-0.368,2.88-1.072c0.672-0.72,0.704-1.52,0.704-2.544V418.568z
		 M456.687,422.216c0,1.648-0.896,2.592-2.336,2.592c-1.52,0-2.384-0.976-2.384-2.704c0-1.632,0.864-2.575,2.336-2.575
		C455.679,419.528,456.687,420.552,456.687,422.216 M457.871,418.568h-1.216v1.344c-0.544-1.056-1.424-1.601-2.624-1.601
		c-2,0-3.36,1.456-3.36,3.856c0,2.336,1.376,3.856,3.424,3.856c1.104,0,2.016-0.561,2.592-1.601v1.296h1.184V418.568z
		 M437.744,425.72h1.216v-3.695c0-0.784,0-1.376,0.416-1.889c0.4-0.496,1.024-0.768,1.744-0.768c1.28,0,1.904,0.704,1.904,2.144
		v4.208h1.216v-4.863c0-1.616-1.024-2.545-2.688-2.545c-1.12,0-1.984,0.433-2.592,1.36v-1.104h-1.216V425.72z M434.192,422.216
		c0,1.648-0.896,2.592-2.336,2.592c-1.52,0-2.384-0.976-2.384-2.704c0-1.632,0.864-2.575,2.336-2.575
		C433.184,419.528,434.192,420.552,434.192,422.216 M435.376,418.568h-1.216v1.344c-0.544-1.056-1.424-1.601-2.624-1.601
		c-2,0-3.36,1.456-3.36,3.856c0,2.336,1.376,3.856,3.424,3.856c1.104,0,2.016-0.561,2.592-1.601v1.296h1.184V418.568z
		 M425.648,421.336h-4.352c0.128-1.216,1.008-1.968,2.176-1.968C424.768,419.368,425.568,420.072,425.648,421.336 M426.96,422.328
		v-0.24c0-2.368-1.344-3.792-3.44-3.792c-2.08,0-3.568,1.568-3.568,3.824c0,2.336,1.472,3.904,3.648,3.904
		c1.472,0,2.592-0.656,3.312-1.952l-0.928-0.624c-0.592,1.04-1.36,1.552-2.32,1.552c-1.376,0-2.368-1.008-2.368-2.56v-0.112H426.96z
		 M412.704,426.168l3.536-8.224l1.456,7.775h1.328l-2.32-11.888l-4,9.456l-4-9.456l-2.32,11.888h1.328l1.44-7.775L412.704,426.168z"
		/>
	<path clip-path="url(#SVGID_2_)" fill="#808285" d="M562.605,461.336h-4.353c0.128-1.216,1.008-1.968,2.176-1.968
		C561.725,459.368,562.525,460.072,562.605,461.336 M563.917,462.328v-0.24c0-2.368-1.344-3.792-3.44-3.792
		c-2.079,0-3.567,1.568-3.567,3.824c0,2.336,1.472,3.904,3.647,3.904c1.473,0,2.593-0.656,3.312-1.952l-0.928-0.624
		c-0.593,1.04-1.36,1.552-2.32,1.552c-1.376,0-2.368-1.008-2.368-2.56v-0.112H563.917z M550.349,464.52
		c0.561,1.009,1.488,1.505,2.816,1.505c1.584,0,2.608-0.944,2.608-2.272c0-1.168-0.688-1.68-2.08-2.128
		c-1.185-0.384-1.841-0.48-1.841-1.232c0-0.624,0.496-1.071,1.217-1.071c0.752,0,1.344,0.368,1.632,1.023l0.992-0.607
		c-0.385-0.912-1.312-1.425-2.544-1.425c-1.521,0-2.528,0.912-2.528,2.16c0,1.408,1.056,1.712,2.815,2.32
		c0.753,0.256,1.12,0.544,1.12,1.088c0,0.624-0.527,1.072-1.344,1.072c-0.815,0-1.424-0.368-1.824-1.136L550.349,464.52z
		 M543.549,458.568h-1.216v4.271c0,2.096,1.136,3.185,3.216,3.185c2.145,0,3.266-1.12,3.266-3.28v-4.176h-1.218v3.52
		c0,1.888-0.447,2.769-2.016,2.769s-2.032-0.881-2.032-2.769V458.568z M527.758,464.44v-8.896h0.88c1.969,0,3.328,0.032,4.272,0.832
		c0.943,0.784,1.439,2,1.439,3.616s-0.512,2.864-1.439,3.632c-0.96,0.8-2.32,0.816-4.272,0.816H527.758z M526.398,465.72h2.688
		c1.856,0,3.36-0.048,4.688-1.071c1.312-1.009,2-2.593,2-4.641s-0.688-3.647-2-4.656c-1.393-1.071-3.04-1.071-5.185-1.071h-2.191
		V465.72z M522.35,465.72h1.36V454.28h-1.36V465.72z M516.03,456.84l1.823,4.208h-3.647L516.03,456.84z M516.03,453.832
		l-5.185,11.888h1.473l1.487-3.504h4.464l1.488,3.504h1.473L516.03,453.832z M508.43,459.368l-1.632-0.72
		c-1.04-0.465-1.536-1.024-1.536-1.841c0-0.976,0.721-1.664,1.744-1.664c0.816,0,1.44,0.448,1.937,1.312l1.119-0.72
		c-0.56-1.137-1.584-1.729-2.96-1.729c-1.903,0-3.216,1.216-3.216,2.816c0,1.392,0.736,2.384,2.256,3.023l1.393,0.593
		c1.184,0.512,1.775,1.264,1.775,2.287c0,1.248-0.911,2.129-2.287,2.129c-1.152,0-1.937-0.721-2.272-2.112l-1.232,0.607
		c0.433,1.696,1.696,2.656,3.505,2.656c2.208,0,3.663-1.408,3.663-3.504C510.686,461.064,509.918,460.024,508.43,459.368
		 M491.95,465.72h1.36v-8.592l8.304,9.04V454.28h-1.36v8.688l-8.304-9.136V465.72z M483.31,459.576v6.144h1.216v-6.144h1.344v-1.008
		h-1.344v-2.88h-1.216v2.88h-1.312v1.008H483.31z M474.286,465.72h1.216v-3.695c0-0.784,0-1.376,0.416-1.889
		c0.4-0.496,1.024-0.768,1.744-0.768c1.28,0,1.904,0.704,1.904,2.144v4.208h1.216v-4.863c0-1.616-1.024-2.545-2.688-2.545
		c-1.12,0-1.984,0.433-2.592,1.36v-1.104h-1.216V465.72z M470.735,462.216c0,1.648-0.896,2.592-2.336,2.592
		c-1.52,0-2.384-0.976-2.384-2.704c0-1.632,0.864-2.575,2.336-2.575C469.727,459.528,470.735,460.552,470.735,462.216
		 M471.919,458.568h-1.216v1.344c-0.544-1.056-1.424-1.601-2.624-1.601c-2,0-3.36,1.456-3.36,3.856c0,2.336,1.376,3.856,3.424,3.856
		c1.104,0,2.016-0.561,2.592-1.601v1.296h1.184V458.568z M461.391,459.576v6.144h1.216v-6.144h1.344v-1.008h-1.344v-2.88h-1.216
		v2.88h-1.312v1.008H461.391z M457.183,455.128c0,0.512,0.4,0.896,0.896,0.896s0.896-0.385,0.896-0.881
		c0-0.495-0.4-0.911-0.896-0.911S457.183,454.632,457.183,455.128 M457.471,465.72h1.216v-7.151h-1.216V465.72z M453.871,465.72
		h1.216v-4.863c0-1.616-0.96-2.545-2.544-2.545c-1.088,0-1.92,0.465-2.544,1.456c-0.416-0.96-1.248-1.456-2.4-1.456
		c-1.072,0-1.888,0.448-2.464,1.36v-1.104h-1.216v7.151h1.216v-3.695c0-0.177-0.016-0.353-0.016-0.513
		c0-0.544,0.064-0.992,0.368-1.376c0.384-0.496,0.976-0.768,1.632-0.768c1.216,0,1.776,0.704,1.776,2.144v4.208h1.216v-3.695
		c0-0.16-0.016-0.305-0.016-0.448c0-0.592,0.08-1.04,0.384-1.44c0.384-0.496,0.96-0.768,1.616-0.768
		c1.216,0,1.776,0.704,1.776,2.144V465.72z M435.615,462.168c0-1.52,1.152-2.704,2.592-2.704c1.424,0,2.576,1.185,2.576,2.704
		c0,1.521-1.152,2.704-2.576,2.704S435.615,463.688,435.615,462.168 M434.319,462.168c0,1.04,0.384,1.968,1.136,2.72
		c0.736,0.736,1.696,1.137,2.752,1.137c1.04,0,2-0.416,2.752-1.152c0.736-0.72,1.136-1.664,1.136-2.704s-0.4-2-1.136-2.72
		c-0.752-0.736-1.696-1.137-2.752-1.137s-2.016,0.385-2.752,1.12C434.703,460.168,434.319,461.128,434.319,462.168 M433.28,464.024
		c-0.752,0.544-1.44,0.815-2.208,0.815c-1.488,0-2.56-1.151-2.56-2.592c0-1.696,1.088-2.752,2.656-2.752
		c0.704,0,1.376,0.224,1.984,0.624v-1.312c-0.656-0.319-1.424-0.496-2.224-0.496c-2.144,0-3.728,1.568-3.728,3.904
		c0,2.256,1.456,3.809,3.68,3.809c0.928,0,1.744-0.192,2.4-0.576V464.024z M419.488,462.168c0-1.52,1.152-2.704,2.592-2.704
		c1.424,0,2.576,1.185,2.576,2.704c0,1.521-1.152,2.704-2.576,2.704C420.656,464.872,419.488,463.688,419.488,462.168
		 M418.192,462.168c0,1.04,0.384,1.968,1.136,2.72c0.736,0.736,1.696,1.137,2.752,1.137c1.04,0,2-0.416,2.752-1.152
		c0.736-0.72,1.136-1.664,1.136-2.704s-0.4-2-1.136-2.72c-0.752-0.736-1.696-1.137-2.752-1.137s-2.016,0.385-2.752,1.12
		C418.576,460.168,418.192,461.128,418.192,462.168 M416.656,457.016v-1.775c-1.184-0.816-2.4-1.232-3.76-1.232
		c-1.68,0-3.088,0.561-4.256,1.681c-1.2,1.168-1.792,2.592-1.792,4.367c0,2.032,0.912,3.761,2.576,4.912
		c0.992,0.688,2.16,1.057,3.376,1.057c1.392,0,2.72-0.433,3.856-1.248v-1.809c-1.04,1.216-2.304,1.809-3.744,1.809
		c-1.552,0-2.944-0.736-3.856-2.032c-0.528-0.752-0.784-1.648-0.784-2.704c0-1.344,0.432-2.464,1.312-3.376
		c0.848-0.88,2.064-1.392,3.264-1.392C414.336,455.272,415.552,455.816,416.656,457.016"/>
	<path clip-path="url(#SVGID_2_)" fill="#808285" d="M556.077,385.721h1.216v-3.697c0-0.783,0-1.375,0.416-1.887
		c0.4-0.496,1.024-0.769,1.744-0.769c1.28,0,1.904,0.704,1.904,2.144v4.209h1.216v-4.865c0-1.615-1.024-2.543-2.688-2.543
		c-1.12,0-1.983,0.432-2.592,1.359v-1.104h-1.216V385.721z M547.774,382.168c0-1.52,1.151-2.704,2.592-2.704
		c1.424,0,2.576,1.185,2.576,2.704s-1.152,2.704-2.576,2.704S547.774,383.688,547.774,382.168 M546.478,382.168
		c0,1.04,0.385,1.969,1.137,2.721c0.735,0.735,1.695,1.135,2.752,1.135c1.04,0,2-0.416,2.752-1.151
		c0.735-0.72,1.136-1.664,1.136-2.704s-0.4-2-1.136-2.72c-0.752-0.736-1.696-1.136-2.752-1.136c-1.057,0-2.017,0.383-2.752,1.119
		C546.862,380.168,546.478,381.128,546.478,382.168 M543.038,375.128c0,0.513,0.399,0.896,0.896,0.896s0.896-0.383,0.896-0.879
		s-0.4-0.912-0.896-0.912S543.038,374.632,543.038,375.128 M543.326,385.721h1.216v-7.152h-1.216V385.721z M539.39,379.576v6.145
		h1.217v-6.145h1.344v-1.008h-1.344v-2.881h-1.217v2.881h-1.312v1.008H539.39z M535.646,382.216c0,1.647-0.896,2.593-2.337,2.593
		c-1.52,0-2.384-0.977-2.384-2.705c0-1.631,0.864-2.576,2.336-2.576C534.638,379.527,535.646,380.552,535.646,382.216
		 M536.83,378.568h-1.216v1.344c-0.544-1.057-1.424-1.6-2.624-1.6c-2,0-3.36,1.455-3.36,3.855c0,2.336,1.376,3.855,3.424,3.855
		c1.104,0,2.017-0.56,2.593-1.6v1.297h1.184V378.568z M524.654,385.721h1.216v-3.488c0-1.873,0.64-2.801,1.936-2.801
		c0.225,0,0.48,0.049,0.752,0.145l0.416-1.104c-0.271-0.097-0.544-0.145-0.832-0.145c-1.088,0-1.76,0.512-2.399,1.729v-1.488h-1.088
		V385.721z M517.086,378.568h-1.216v4.271c0,2.096,1.136,3.184,3.216,3.184c2.145,0,3.264-1.119,3.264-3.279v-4.176h-1.216v3.52
		c0,1.889-0.448,2.768-2.016,2.768c-1.568,0-2.032-0.879-2.032-2.768V378.568z M512.367,382.184c0,1.696-0.928,2.656-2.4,2.656
		c-1.424,0-2.319-1.023-2.319-2.816c0-1.584,0.88-2.496,2.304-2.496C511.391,379.527,512.367,380.568,512.367,382.184
		 M513.551,373.607h-1.216v6.305c-0.544-1.057-1.424-1.6-2.608-1.6c-2,0-3.376,1.455-3.376,3.855c0,2.336,1.376,3.855,3.425,3.855
		c1.104,0,2.031-0.575,2.592-1.6v1.297h1.184V373.607z M499.183,381.336h-4.352c0.128-1.216,1.008-1.968,2.176-1.968
		C498.303,379.368,499.103,380.072,499.183,381.336 M500.495,382.328v-0.24c0-2.367-1.344-3.792-3.44-3.792
		c-2.08,0-3.568,1.567-3.568,3.824c0,2.336,1.472,3.903,3.648,3.903c1.472,0,2.592-0.655,3.312-1.951l-0.928-0.624
		c-0.592,1.04-1.36,1.552-2.32,1.552c-1.376,0-2.368-1.008-2.368-2.561v-0.111H500.495z M486.927,384.52
		c0.56,1.008,1.488,1.504,2.816,1.504c1.584,0,2.608-0.943,2.608-2.271c0-1.168-0.688-1.68-2.08-2.128
		c-1.184-0.384-1.84-0.479-1.84-1.231c0-0.625,0.496-1.072,1.216-1.072c0.752,0,1.344,0.367,1.632,1.023l0.992-0.607
		c-0.384-0.912-1.312-1.424-2.544-1.424c-1.52,0-2.528,0.912-2.528,2.16c0,1.407,1.056,1.711,2.816,2.319
		c0.752,0.256,1.12,0.544,1.12,1.088c0,0.624-0.528,1.072-1.344,1.072s-1.424-0.368-1.824-1.136L486.927,384.52z M484.127,382.216
		c0,1.647-0.896,2.593-2.336,2.593c-1.52,0-2.384-0.977-2.384-2.705c0-1.631,0.864-2.576,2.336-2.576
		C483.119,379.527,484.127,380.552,484.127,382.216 M485.311,378.568h-1.216v1.344c-0.544-1.057-1.424-1.6-2.624-1.6
		c-2,0-3.36,1.455-3.36,3.855c0,2.336,1.376,3.855,3.424,3.855c1.104,0,2.016-0.56,2.592-1.6v1.297h1.184V378.568z M475.583,381.336
		h-4.352c0.128-1.216,1.008-1.968,2.176-1.968C474.703,379.368,475.503,380.072,475.583,381.336 M476.895,382.328v-0.24
		c0-2.367-1.344-3.792-3.44-3.792c-2.08,0-3.568,1.567-3.568,3.824c0,2.336,1.472,3.903,3.648,3.903
		c1.472,0,2.592-0.655,3.312-1.951l-0.928-0.624c-0.592,1.04-1.36,1.552-2.32,1.552c-1.376,0-2.368-1.008-2.368-2.561v-0.111
		H476.895z M463.327,384.52c0.56,1.008,1.488,1.504,2.816,1.504c1.584,0,2.608-0.943,2.608-2.271c0-1.168-0.688-1.68-2.08-2.128
		c-1.184-0.384-1.84-0.479-1.84-1.231c0-0.625,0.496-1.072,1.216-1.072c0.752,0,1.344,0.367,1.632,1.023l0.992-0.607
		c-0.384-0.912-1.312-1.424-2.544-1.424c-1.52,0-2.528,0.912-2.528,2.16c0,1.407,1.056,1.711,2.816,2.319
		c0.752,0.256,1.12,0.544,1.12,1.088c0,0.624-0.528,1.072-1.344,1.072s-1.424-0.368-1.824-1.136L463.327,384.52z M460.063,375.128
		c0,0.513,0.4,0.896,0.896,0.896s0.896-0.383,0.896-0.879s-0.4-0.912-0.896-0.912S460.063,374.632,460.063,375.128 M460.351,385.721
		h1.216v-7.152h-1.216V385.721z M456.687,382.184c0,1.696-0.928,2.656-2.4,2.656c-1.424,0-2.32-1.023-2.32-2.816
		c0-1.584,0.88-2.496,2.304-2.496C455.711,379.527,456.687,380.568,456.687,382.184 M457.871,373.607h-1.216v6.305
		c-0.544-1.057-1.424-1.6-2.608-1.6c-2,0-3.376,1.455-3.376,3.855c0,2.336,1.376,3.855,3.424,3.855c1.104,0,2.032-0.575,2.592-1.6
		v1.297h1.184V373.607z M437.744,385.721h1.216v-3.697c0-0.783,0-1.375,0.416-1.887c0.4-0.496,1.024-0.769,1.744-0.769
		c1.28,0,1.904,0.704,1.904,2.144v4.209h1.216v-4.865c0-1.615-1.024-2.543-2.688-2.543c-1.12,0-1.984,0.432-2.592,1.359v-1.104
		h-1.216V385.721z M434.192,382.216c0,1.647-0.896,2.593-2.336,2.593c-1.52,0-2.384-0.977-2.384-2.705
		c0-1.631,0.864-2.576,2.336-2.576C433.184,379.527,434.192,380.552,434.192,382.216 M435.376,378.568h-1.216v1.344
		c-0.544-1.057-1.424-1.6-2.624-1.6c-2,0-3.36,1.455-3.36,3.855c0,2.336,1.376,3.855,3.424,3.855c1.104,0,2.016-0.56,2.592-1.6
		v1.297h1.184V378.568z M425.648,381.336h-4.352c0.128-1.216,1.008-1.968,2.176-1.968
		C424.768,379.368,425.568,380.072,425.648,381.336 M426.96,382.328v-0.24c0-2.367-1.344-3.792-3.44-3.792
		c-2.08,0-3.568,1.567-3.568,3.824c0,2.336,1.472,3.903,3.648,3.903c1.472,0,2.592-0.655,3.312-1.951l-0.928-0.624
		c-0.592,1.04-1.36,1.552-2.32,1.552c-1.376,0-2.368-1.008-2.368-2.561v-0.111H426.96z M412.704,386.168l3.536-8.225l1.456,7.777
		h1.328l-2.32-11.889l-4,9.456l-4-9.456l-2.32,11.889h1.328l1.44-7.777L412.704,386.168z"/>
	<path clip-path="url(#SVGID_2_)" fill="#FFFFFF" d="M775.695,22.547v-0.36c0-2.772-1.584-4.374-4.267-4.374
		c-2.592,0-4.374,1.89-4.374,4.482c0,2.718,1.71,4.482,4.374,4.482c1.872,0,3.24-0.81,4.177-2.484l-1.603-0.9
		c-0.612,1.152-1.386,1.638-2.61,1.638c-1.386,0-2.268-0.918-2.357-2.484H775.695z M773.715,21.269h-4.554
		c0.306-1.242,1.062-1.836,2.304-1.836C772.779,19.433,773.571,20.063,773.715,21.269 M763.041,19.433v-1.35h-1.908v8.352h1.908
		v-3.654c0-2.25,0.432-3.312,1.782-3.312c0.432,0,0.81,0.09,1.17,0.342l0.684-1.62c-0.504-0.252-1.025-0.378-1.565-0.378
		C764.103,17.813,763.455,18.335,763.041,19.433 M752.493,18.101h-1.908v4.122c0,3.132,1.134,4.554,4.05,4.554
		c2.862,0,4.015-1.44,4.015-4.554v-4.122h-1.908v4.698c0,1.566-0.576,2.268-2.124,2.268s-2.124-0.702-2.124-2.268V18.101z
		 M742.108,24.923c0.611,1.26,1.674,1.854,3.294,1.854c2.178,0,3.401-1.044,3.401-2.664c0-1.206-0.684-1.89-2.142-2.466
		c-1.296-0.522-2.196-0.648-2.196-1.458c0-0.576,0.468-0.954,1.206-0.954c0.666,0,1.188,0.342,1.386,0.864l1.351-0.936
		c-0.414-0.864-1.351-1.368-2.664-1.368c-1.98,0-3.187,1.062-3.187,2.502c0,1.206,0.811,1.854,2.395,2.52
		c1.151,0.486,1.979,0.558,1.979,1.422c0,0.666-0.504,1.098-1.367,1.098c-1.009,0-1.639-0.45-1.872-1.278L742.108,24.923z
		 M740.524,26.435v-8.334h-1.908v1.368c-0.45-1.062-1.44-1.656-2.809-1.656c-2.195,0-3.743,1.764-3.743,4.446
		c0,2.844,1.476,4.518,3.798,4.518c1.17,0,2.069-0.468,2.754-1.422v1.08H740.524z M738.67,22.241c0,1.764-1.008,2.844-2.322,2.844
		c-1.439,0-2.286-0.99-2.286-2.772c0-1.764,0.883-2.808,2.322-2.808C737.806,19.505,738.67,20.495,738.67,22.241 M730.786,22.547
		v-0.36c0-2.772-1.584-4.374-4.267-4.374c-2.592,0-4.373,1.89-4.373,4.482c0,2.718,1.71,4.482,4.373,4.482
		c1.872,0,3.24-0.81,4.177-2.484l-1.603-0.9c-0.611,1.152-1.386,1.638-2.609,1.638c-1.387,0-2.269-0.918-2.358-2.484H730.786z
		 M728.806,21.269h-4.554c0.306-1.242,1.062-1.836,2.304-1.836C727.87,19.433,728.662,20.063,728.806,21.269 M717.97,20.081
		l1.422,6.354h1.944l-3.114-13.374l-3.708,8.082c-0.197,0.45-0.485,1.026-0.737,1.746c-0.36-0.936-0.595-1.512-0.702-1.746
		l-3.798-8.082l-3.042,13.374h1.926l1.386-6.336c0.126-0.576,0.216-1.17,0.234-1.782c0.162,0.576,0.378,1.116,0.63,1.638
		l3.366,7.002l3.365-6.858c0.288-0.594,0.486-1.17,0.595-1.782C717.862,19.271,717.916,19.847,717.97,20.081"/>
</g>
</svg>
