<?xml version="1.0" encoding="utf-8"?>
<!-- Generator: Adobe Illustrator 15.1.0, SVG Export Plug-In . SVG Version: 6.00 Build 0)  -->
<!DOCTYPE svg PUBLIC "-//W3C//DTD SVG 1.1//EN" "http://www.w3.org/Graphics/SVG/1.1/DTD/svg11.dtd">
<svg version="1.1" id="art" xmlns="http://www.w3.org/2000/svg" xmlns:xlink="http://www.w3.org/1999/xlink" x="0px" y="0px"
	 width="912px" height="543px" viewBox="0 0 912 543" enable-background="new 0 0 912 543" xml:space="preserve">
<g>
	<g>
		<g>
			<defs>
				<rect id="SVGID_1_" width="912" height="393.55"/>
			</defs>
			<clipPath id="SVGID_2_">
				<use xlink:href="#SVGID_1_"  overflow="visible"/>
			</clipPath>
			<line clip-path="url(#SVGID_2_)" fill="none" stroke="#F8A15E" stroke-width="3" x1="0" y1="392.05" x2="912" y2="392.05"/>
		</g>
	</g>
	<g>
		<g>
			<defs>
				<rect id="SVGID_3_" width="912" height="393.55"/>
			</defs>
			<clipPath id="SVGID_4_">
				<use xlink:href="#SVGID_3_"  overflow="visible"/>
			</clipPath>
			<path clip-path="url(#SVGID_4_)" fill="#F8A15E" d="M456.052,40c11.046,0,20-8.954,20-20s-8.954-20-20-20s-20,8.954-20,20
				S445.006,40,456.052,40"/>
		</g>
	</g>
	<g>
		<g>
			<defs>
				<rect id="SVGID_5_" width="912" height="393.55"/>
			</defs>
			<clipPath id="SVGID_6_">
				<use xlink:href="#SVGID_5_"  overflow="visible"/>
			</clipPath>
			<path clip-path="url(#SVGID_6_)" fill="#F8A15E" d="M454.543,45.903c0,0,1.531,2.58,3.062,0l4.908-8.273
				c0,0,1.531-2.58-1.469-2.58H451.1c0,0-3,0-1.468,2.58L454.543,45.903z"/>
		</g>
	</g>
	<g>
		<g>
			<defs>
				<rect id="SVGID_7_" width="912" height="393.55"/>
			</defs>
			<clipPath id="SVGID_8_">
				<use xlink:href="#SVGID_7_"  overflow="visible"/>
			</clipPath>
			<path clip-path="url(#SVGID_8_)" fill="#FFFFFF" d="M463.756,27.447v-0.832h-5.846l4.938-6.457
				c0.666-0.87,0.907-1.554,0.907-2.534c0-2.091-1.369-3.46-3.478-3.46c-2.186,0-3.479,1.499-3.479,3.46h0.943
				c0-1.85,1.166-2.628,2.535-2.628c1.591,0,2.531,1.055,2.531,2.628c0,0.758-0.222,1.387-0.737,2.053l-5.291,6.938v0.832H463.756z
				 M451.916,27.447V14.275h-0.943l-2.387,2.054v1.128l2.387-2.109v12.099H451.916z"/>
		</g>
	</g>
	<g>
		<g>
			<defs>
				<rect id="SVGID_9_" width="912" height="393.55"/>
			</defs>
			<clipPath id="SVGID_10_">
				<use xlink:href="#SVGID_9_"  overflow="visible"/>
			</clipPath>
			<path clip-path="url(#SVGID_10_)" fill="#808184" d="M456.052,319.014c2.199,0,3.982-1.781,3.982-3.98
				c0-2.198-1.783-3.98-3.982-3.98s-3.98,1.782-3.98,3.98C452.069,317.23,453.853,319.014,456.052,319.014"/>
		</g>
	</g>
	<g>
		<g>
			<defs>
				<rect id="SVGID_11_" width="912" height="393.55"/>
			</defs>
			<clipPath id="SVGID_12_">
				<use xlink:href="#SVGID_11_"  overflow="visible"/>
			</clipPath>
			<path clip-path="url(#SVGID_12_)" fill="#F8A15E" d="M456.052,221.466c2.199,0,3.982-1.783,3.982-3.982
				c0-2.199-1.783-3.982-3.982-3.982s-3.98,1.783-3.98,3.982C452.069,219.683,453.853,221.466,456.052,221.466"/>
		</g>
	</g>
	<g>
		<g>
			<defs>
				<rect id="SVGID_13_" width="912" height="393.55"/>
			</defs>
			<clipPath id="SVGID_14_">
				<use xlink:href="#SVGID_13_"  overflow="visible"/>
			</clipPath>
			<path clip-path="url(#SVGID_14_)" fill="#FFFFFF" d="M481.052,202.952v-34c0-3-3-3-3-3h-44c-3,0-3,3-3,3v34c0,3,3,3,3,3h16.943
				l3.504,5.904c1.53,2.579,3.062,0,3.062,0l3.506-5.904h16.985C481.052,205.952,481.052,202.952,481.052,202.952"/>
		</g>
	</g>
	<g>
		<g>
			<defs>
				<rect id="SVGID_15_" width="912" height="393.55"/>
			</defs>
			<clipPath id="SVGID_16_">
				<use xlink:href="#SVGID_15_"  overflow="visible"/>
			</clipPath>
			<path clip-path="url(#SVGID_16_)" fill="none" stroke="#D0D2D3" d="M481.052,202.952v-34c0-3-3-3-3-3h-44c-3,0-3,3-3,3v34
				c0,3,3,3,3,3h16.943l3.504,5.904c1.53,2.579,3.062,0,3.062,0l3.506-5.904h16.985
				C481.052,205.952,481.052,202.952,481.052,202.952z"/>
		</g>
	</g>
	<g>
		<g>
			<defs>
				<rect id="SVGID_17_" width="912" height="393.55"/>
			</defs>
			<clipPath id="SVGID_18_">
				<use xlink:href="#SVGID_17_"  overflow="visible"/>
			</clipPath>
			<path clip-path="url(#SVGID_18_)" fill="#F8A15E" d="M471.112,189.775c-0.541,0-0.854-0.541-0.854-1.561
				c0-1.045,0.3-1.573,0.877-1.573c0.54,0,0.854,0.54,0.854,1.561C471.988,189.258,471.688,189.775,471.112,189.775
				 M469.216,188.202c0,1.428,0.707,2.267,1.908,2.267c1.2,0,1.919-0.839,1.919-2.267c0-1.453-0.707-2.255-1.907-2.255
				C469.935,185.947,469.216,186.773,469.216,188.202 M464.2,183.834c0,1.44,0.719,2.256,1.92,2.256c1.2,0,1.907-0.828,1.907-2.256
				c0-1.453-0.707-2.255-1.907-2.255C464.919,181.579,464.2,182.405,464.2,183.834 M466.107,185.406c-0.541,0-0.854-0.54-0.854-1.56
				c0-1.045,0.3-1.585,0.877-1.585c0.54,0,0.84,0.552,0.84,1.573C466.972,184.89,466.684,185.406,466.107,185.406 M466.528,190.469
				l5.004-8.89h-0.808l-5.004,8.89H466.528z M458.667,187.614c0-1.021,0.636-1.717,1.549-1.717c1.032,0,1.633,0.648,1.633,1.717
				c0,1.044-0.61,1.704-1.645,1.704C459.314,189.318,458.667,188.658,458.667,187.614 M459.447,185.034l2.482-3.241l-1.065-0.538
				l-1.501,2.123c-1.151,1.62-2.026,2.783-2.026,4.224c0,1.704,1.114,2.867,2.831,2.867c1.824,0,3.035-1.175,3.035-2.938
				c0-1.646-1.127-2.771-2.642-2.771C460.191,184.759,459.82,184.854,459.447,185.034 M454.157,189.594
				c0,0.419,0.335,0.755,0.767,0.755c0.434,0,0.769-0.336,0.769-0.755c0-0.432-0.335-0.779-0.769-0.779
				C454.492,188.815,454.157,189.162,454.157,189.594 M450.232,184.446c-0.035,0.492-0.035,0.78-0.035,0.852v2.233h-2.148
				L450.232,184.446z M450.197,190.241h1.27v-1.74h1.044v-0.97h-1.044v-5.952h-0.395l-4.991,6.922h4.116V190.241z M443.045,184.446
				c-0.036,0.492-0.036,0.78-0.036,0.852v2.233h-2.146L443.045,184.446z M443.009,190.241h1.271v-1.74h1.044v-0.97h-1.044v-5.952
				h-0.396l-4.991,6.922h4.116V190.241z"/>
		</g>
	</g>
	<g>
		<g>
			<defs>
				<rect id="SVGID_19_" width="912" height="393.55"/>
			</defs>
			<clipPath id="SVGID_20_">
				<use xlink:href="#SVGID_19_"  overflow="visible"/>
			</clipPath>
			<path clip-path="url(#SVGID_20_)" fill="#FFFFFF" d="M481.052,300.499v-34c0-3-3-3-3-3h-44c-3,0-3,3-3,3v34c0,3,3,3,3,3h16.943
				l3.504,5.903c1.531,2.58,3.062,0,3.062,0l3.506-5.903h16.985C481.052,303.499,481.052,300.499,481.052,300.499"/>
		</g>
	</g>
	<g>
		<g>
			<defs>
				<rect id="SVGID_21_" width="912" height="393.55"/>
			</defs>
			<clipPath id="SVGID_22_">
				<use xlink:href="#SVGID_21_"  overflow="visible"/>
			</clipPath>
			<path clip-path="url(#SVGID_22_)" fill="none" stroke="#D0D2D3" d="M481.052,300.499v-34c0-3-3-3-3-3h-44c-3,0-3,3-3,3v34
				c0,3,3,3,3,3h16.943l3.504,5.903c1.531,2.58,3.062,0,3.062,0l3.506-5.903h16.985
				C481.052,303.499,481.052,300.499,481.052,300.499z"/>
		</g>
	</g>
	<g>
		<g>
			<defs>
				<rect id="SVGID_23_" width="912" height="393.55"/>
			</defs>
			<clipPath id="SVGID_24_">
				<use xlink:href="#SVGID_23_"  overflow="visible"/>
			</clipPath>
			<path clip-path="url(#SVGID_24_)" fill="#F8A15E" d="M471.112,287.323c-0.541,0-0.854-0.541-0.854-1.562
				c0-1.045,0.3-1.571,0.877-1.571c0.54,0,0.854,0.539,0.854,1.562C471.988,286.807,471.688,287.323,471.112,287.323
				 M469.216,285.75c0,1.428,0.707,2.268,1.908,2.268c1.2,0,1.919-0.84,1.919-2.268c0-1.453-0.707-2.255-1.907-2.255
				C469.935,283.495,469.216,284.32,469.216,285.75 M464.2,281.382c0,1.44,0.719,2.257,1.92,2.257c1.2,0,1.907-0.828,1.907-2.257
				c0-1.452-0.707-2.256-1.907-2.256C464.919,279.126,464.2,279.953,464.2,281.382 M466.108,282.954c-0.541,0-0.854-0.54-0.854-1.56
				c0-1.047,0.3-1.586,0.877-1.586c0.54,0,0.84,0.553,0.84,1.571C466.972,282.438,466.684,282.954,466.108,282.954 M466.528,288.018
				l5.004-8.892h-0.808l-5.004,8.892H466.528z M457.229,285.498c0.051,1.548,1.143,2.52,2.784,2.52c1.859,0,2.962-0.994,2.962-2.481
				c0-1.263-0.587-2.029-1.666-2.222c0.938-0.145,1.477-0.862,1.477-1.906c0-1.395-0.972-2.28-2.555-2.28
				c-1.646,0-2.567,0.813-2.651,2.271h1.26c0.024-0.733,0.518-1.153,1.356-1.153c0.777,0,1.281,0.468,1.281,1.2
				c0,0.841-0.525,1.261-1.533,1.261c-0.084,0-0.168-0.013-0.252-0.013v1.127c0.096,0,0.18-0.012,0.264-0.012
				c1.152,0,1.74,0.517,1.74,1.549c0,0.973-0.588,1.513-1.635,1.513c-0.924,0-1.5-0.517-1.5-1.296V285.5h-1.331L457.229,285.498
				L457.229,285.498z M454.157,287.143c0,0.42,0.335,0.756,0.767,0.756c0.435,0,0.77-0.336,0.77-0.756
				c0-0.433-0.335-0.777-0.77-0.777C454.492,286.363,454.157,286.71,454.157,287.143 M451.073,281.971
				c0,1.021-0.639,1.729-1.549,1.729c-1.032,0-1.636-0.661-1.636-1.729c0-1.046,0.625-1.705,1.657-1.705
				C450.438,280.266,451.073,280.925,451.073,281.971 M450.292,284.562l-2.473,3.229l1.057,0.539l1.513-2.123
				c1.151-1.621,2.026-2.784,2.026-4.225c0-1.705-1.126-2.855-2.843-2.855c-1.824,0-3.035,1.176-3.035,2.939
				c0,1.645,1.127,2.76,2.639,2.76C449.548,284.825,449.92,284.741,450.292,284.562 M441.905,287.789h1.27v-8.494h-2.506
				l-0.54,1.104h1.776V287.789L441.905,287.789z"/>
		</g>
	</g>
</g>
</svg>
