<?xml version="1.0" encoding="utf-8"?>
<!-- Generator: Adobe Illustrator 15.1.0, SVG Export Plug-In . SVG Version: 6.00 Build 0)  -->
<!DOCTYPE svg PUBLIC "-//W3C//DTD SVG 1.1//EN" "http://www.w3.org/Graphics/SVG/1.1/DTD/svg11.dtd">
<svg version="1.1" id="art" xmlns="http://www.w3.org/2000/svg" xmlns:xlink="http://www.w3.org/1999/xlink" x="0px" y="0px"
	 width="912px" height="543px" viewBox="0 0 912 543" enable-background="new 0 0 912 543" xml:space="preserve">
<g>
	<g>
		<g>
			<g>
				<defs>
					<rect id="SVGID_1_" width="912" height="393.55"/>
				</defs>
				<clipPath id="SVGID_2_">
					<use xlink:href="#SVGID_1_"  overflow="visible"/>
				</clipPath>
				<line clip-path="url(#SVGID_2_)" fill="none" stroke="#F8A15E" stroke-width="3" x1="0" y1="392.05" x2="912" y2="392.05"/>
			</g>
		</g>
	</g>
	<g>
		<g>
			<g>
				<defs>
					<rect id="SVGID_3_" width="912" height="393.55"/>
				</defs>
				<clipPath id="SVGID_4_">
					<use xlink:href="#SVGID_3_"  overflow="visible"/>
				</clipPath>
				<path clip-path="url(#SVGID_4_)" fill="#F8A15E" d="M798,40c11.046,0,20-8.954,20-20s-8.954-20-20-20s-20,8.954-20,20
					S786.954,40,798,40"/>
			</g>
		</g>
	</g>
	<g>
		<g>
			<g>
				<defs>
					<rect id="SVGID_5_" width="912" height="393.55"/>
				</defs>
				<clipPath id="SVGID_6_">
					<use xlink:href="#SVGID_5_"  overflow="visible"/>
				</clipPath>
				<path clip-path="url(#SVGID_6_)" fill="#F8A15E" d="M796.491,45.903c0,0,1.531,2.58,3.062,0l4.911-8.273
					c0,0,1.531-2.58-1.469-2.58h-9.946c0,0-3,0-1.468,2.58L796.491,45.903z"/>
			</g>
		</g>
	</g>
	<g>
		<g>
			<g>
				<defs>
					<rect id="SVGID_7_" width="912" height="393.55"/>
				</defs>
				<clipPath id="SVGID_8_">
					<use xlink:href="#SVGID_7_"  overflow="visible"/>
				</clipPath>
				<path clip-path="url(#SVGID_8_)" fill="#FFFFFF" d="M806.621,25.283V24.45h-1.758v-4.182h-0.943v4.182h-4.218l4.847-10.176
					h-0.999l-4.847,10.176v0.833h5.217v2.164h0.943v-2.164H806.621z M796.89,27.447v-0.832h-5.846l4.94-6.457
					c0.666-0.87,0.902-1.554,0.902-2.534c0-2.091-1.365-3.46-3.478-3.46c-2.185,0-3.479,1.499-3.479,3.46h0.943
					c0-1.85,1.166-2.628,2.535-2.628c1.591,0,2.535,1.056,2.535,2.628c0,0.758-0.226,1.387-0.74,2.053l-5.291,6.938v0.832H796.89z"
					/>
			</g>
		</g>
	</g>
	<g>
		<g>
			<g>
				<defs>
					<rect id="SVGID_9_" width="912" height="393.55"/>
				</defs>
				<clipPath id="SVGID_10_">
					<use xlink:href="#SVGID_9_"  overflow="visible"/>
				</clipPath>
				<path clip-path="url(#SVGID_10_)" fill="#F8A15E" d="M798,184.478c2.199,0,3.982-1.783,3.982-3.982
					c0-2.199-1.783-3.982-3.982-3.982s-3.982,1.783-3.982,3.982C794.018,182.695,795.801,184.478,798,184.478"/>
			</g>
		</g>
	</g>
	<g>
		<g>
			<g>
				<defs>
					<rect id="SVGID_11_" width="912" height="393.55"/>
				</defs>
				<clipPath id="SVGID_12_">
					<use xlink:href="#SVGID_11_"  overflow="visible"/>
				</clipPath>
				<path clip-path="url(#SVGID_12_)" fill="#FFFFFF" d="M823,165.963v-34c0-3-3-3-3-3h-44c-3,0-3,3-3,3v34c0,3,3,3,3,3h16.943
					l3.504,5.903c1.531,2.58,3.062,0,3.062,0l3.504-5.903H820C823,168.963,823,165.963,823,165.963"/>
			</g>
		</g>
	</g>
	<g>
		<g>
			<g>
				<defs>
					<rect id="SVGID_13_" width="912" height="393.55"/>
				</defs>
				<clipPath id="SVGID_14_">
					<use xlink:href="#SVGID_13_"  overflow="visible"/>
				</clipPath>
				<path clip-path="url(#SVGID_14_)" fill="none" stroke="#D0D2D3" d="M823,165.963v-34c0-3-3-3-3-3h-44c-3,0-3,3-3,3v34
					c0,3,3,3,3,3h16.943l3.504,5.903c1.531,2.58,3.062,0,3.062,0l3.504-5.903H820C823,168.963,823,165.963,823,165.963z"/>
			</g>
		</g>
	</g>
	<g>
		<g>
			<g>
				<defs>
					<rect id="SVGID_15_" width="912" height="393.55"/>
				</defs>
				<clipPath id="SVGID_16_">
					<use xlink:href="#SVGID_15_"  overflow="visible"/>
				</clipPath>
				<path clip-path="url(#SVGID_16_)" fill="#F8A15E" d="M813.061,152.786c-0.541,0-0.854-0.541-0.854-1.561
					c0-1.045,0.3-1.573,0.877-1.573c0.54,0,0.854,0.54,0.854,1.562C813.938,152.27,813.636,152.786,813.061,152.786
					 M811.164,151.214c0,1.428,0.707,2.267,1.908,2.267c1.2,0,1.919-0.839,1.919-2.267c0-1.453-0.707-2.256-1.907-2.256
					C811.883,148.958,811.164,149.784,811.164,151.214 M806.148,146.845c0,1.441,0.719,2.257,1.92,2.257
					c1.197,0,1.904-0.828,1.904-2.257c0-1.452-0.707-2.256-1.904-2.256C806.867,144.589,806.148,145.417,806.148,146.845
					 M808.057,148.417c-0.541,0-0.854-0.539-0.854-1.56c0-1.045,0.3-1.585,0.877-1.585c0.54,0,0.84,0.552,0.84,1.572
					C808.92,147.901,808.632,148.417,808.057,148.417 M808.477,153.48l5.007-8.892h-0.809l-5.004,8.892H808.477z M803.773,147.434
					c0,1.021-0.641,1.728-1.552,1.728c-1.03,0-1.634-0.66-1.634-1.728c0-1.046,0.624-1.705,1.657-1.705
					C803.136,145.729,803.773,146.388,803.773,147.434 M802.992,150.024l-2.476,3.229l1.06,0.539l1.512-2.123
					c1.152-1.621,2.027-2.783,2.027-4.224c0-1.705-1.127-2.856-2.844-2.856c-1.824,0-3.034,1.176-3.034,2.94
					c0,1.644,1.126,2.759,2.639,2.759C802.248,150.288,802.62,150.204,802.992,150.024 M796.105,152.605
					c0,0.419,0.335,0.755,0.767,0.755s0.767-0.336,0.767-0.755c0-0.433-0.335-0.78-0.767-0.78S796.105,152.173,796.105,152.605
					 M793.871,152.138h-3.262l1.092-1.26c1.307-1.5,2.158-2.568,2.158-3.914c0-1.463-1.021-2.375-2.677-2.375
					c-1.752,0-2.854,0.996-2.854,2.531h1.344c0.062-0.804,0.612-1.332,1.396-1.332c0.888,0,1.416,0.528,1.416,1.368
					c0,0.624-0.396,1.345-1.152,2.257l-3.204,3.84h5.746L793.871,152.138L793.871,152.138z M782.065,151.201l-0.927,1.021
					c0.639,0.863,1.5,1.259,2.679,1.259c2.04,0,3.299-1.259,3.299-3.155c0-1.681-1.127-2.832-2.759-2.832
					c-0.444,0-0.876,0.096-1.332,0.288l0.504-1.897h3.215v-1.127h-4.055l-1.068,4.355l0.348,0.072
					c0.472-0.48,1.096-0.732,1.812-0.732c1.2,0,2.004,0.793,2.004,1.922c0,1.188-0.78,1.967-1.908,1.967
					C783.121,152.341,782.473,151.945,782.065,151.201"/>
			</g>
		</g>
	</g>
	<g>
		<g>
			<g>
				<defs>
					<rect id="SVGID_17_" width="912" height="393.55"/>
				</defs>
				<clipPath id="SVGID_18_">
					<use xlink:href="#SVGID_17_"  overflow="visible"/>
				</clipPath>
				<path clip-path="url(#SVGID_18_)" fill="#808184" d="M798,332.05c2.199,0,3.982-1.782,3.982-3.979
					c0-2.198-1.783-3.981-3.982-3.981s-3.982,1.783-3.982,3.981C794.018,330.268,795.801,332.05,798,332.05"/>
			</g>
		</g>
	</g>
	<g>
		<g>
			<g>
				<defs>
					<rect id="SVGID_19_" width="912" height="393.55"/>
				</defs>
				<clipPath id="SVGID_20_">
					<use xlink:href="#SVGID_19_"  overflow="visible"/>
				</clipPath>
				<path clip-path="url(#SVGID_20_)" fill="#FFFFFF" d="M823,313.535v-34c0-3-3-3-3-3h-44c-3,0-3,3-3,3v34c0,3,3,3,3,3h16.943
					l3.504,5.902c1.531,2.578,3.062,0,3.062,0l3.504-5.902H820C823,316.535,823,313.535,823,313.535"/>
			</g>
		</g>
	</g>
	<g>
		<g>
			<g>
				<defs>
					<rect id="SVGID_21_" width="912" height="393.55"/>
				</defs>
				<clipPath id="SVGID_22_">
					<use xlink:href="#SVGID_21_"  overflow="visible"/>
				</clipPath>
				<path clip-path="url(#SVGID_22_)" fill="none" stroke="#D0D2D3" d="M823,313.535v-34c0-3-3-3-3-3h-44c-3,0-3,3-3,3v34
					c0,3,3,3,3,3h16.943l3.504,5.902c1.531,2.578,3.062,0,3.062,0l3.504-5.902H820C823,316.535,823,313.535,823,313.535z"/>
			</g>
		</g>
	</g>
</g>
<g enable-background="new    ">
	<path fill="#F8A15E" d="M783.851,293.438h-1.772l0.539-1.104h2.507v8.491h-1.271L783.851,293.438L783.851,293.438z"/>
	<path fill="#F8A15E" d="M791.123,299.915c1.127,0,1.906-0.78,1.906-1.968c0-1.127-0.805-1.918-2.002-1.918
		c-0.723,0-1.346,0.251-1.812,0.729l-0.348-0.071l1.065-4.354h4.056v1.127h-3.215l-0.505,1.896c0.455-0.191,0.889-0.289,1.331-0.289
		c1.633,0,2.761,1.152,2.761,2.83c0,1.896-1.262,3.154-3.301,3.154c-1.175,0-2.039-0.396-2.674-1.259l0.924-1.021
		C789.72,299.52,790.367,299.915,791.123,299.915z"/>
	<path fill="#F8A15E" d="M796.991,299.398c0.432,0,0.768,0.349,0.768,0.778c0,0.421-0.336,0.757-0.768,0.757
		c-0.434,0-0.77-0.336-0.77-0.757C796.224,299.747,796.56,299.398,796.991,299.398z"/>
	<path fill="#F8A15E" d="M799.764,294.458c0-1.344,1.021-2.291,2.65-2.291c1.655,0,2.662,0.947,2.662,2.351
		c0,0.854-0.434,1.463-1.234,1.775c0.947,0.312,1.523,1.15,1.523,2.23c0,1.547-1.068,2.529-2.951,2.529
		c-1.871,0-2.938-0.994-2.938-2.507c0-1.114,0.554-1.942,1.523-2.255C800.16,295.934,799.764,295.357,799.764,294.458z
		 M804.021,298.428c0-0.936-0.602-1.498-1.607-1.498c-0.995,0-1.595,0.574-1.595,1.498c0,0.911,0.575,1.487,1.595,1.487
		S804.021,299.339,804.021,298.428z M801.131,294.48c0,0.709,0.468,1.15,1.283,1.15c0.84,0,1.295-0.441,1.295-1.15
		c0-0.73-0.467-1.188-1.271-1.188C801.623,293.294,801.131,293.762,801.131,294.48z"/>
</g>
<g enable-background="new    ">
	<path fill="#F8A15E" d="M808.115,292.167c1.199,0,1.906,0.804,1.906,2.255c0,1.428-0.707,2.255-1.906,2.255
		s-1.919-0.815-1.919-2.255C806.196,292.994,806.916,292.167,808.115,292.167z M808.967,294.422c0-1.02-0.3-1.57-0.84-1.57
		c-0.576,0-0.875,0.539-0.875,1.582c0,1.021,0.312,1.562,0.852,1.562C808.679,295.993,808.967,295.479,808.967,294.422z
		 M807.719,301.055l5.002-8.888h0.805l-5,8.888H807.719z M813.129,296.532c1.199,0,1.906,0.804,1.906,2.255
		c0,1.428-0.719,2.268-1.919,2.268c-1.199,0-1.907-0.84-1.907-2.268S811.93,296.532,813.129,296.532z M813.98,298.787
		c0-1.02-0.312-1.559-0.854-1.559c-0.576,0-0.876,0.525-0.876,1.568c0,1.021,0.312,1.561,0.852,1.561
		C813.68,300.357,813.98,299.843,813.98,298.787z"/>
</g>
</svg>
