<?xml version="1.0" encoding="utf-8"?>
<!-- Generator: Adobe Illustrator 15.1.0, SVG Export Plug-In . SVG Version: 6.00 Build 0)  -->
<!DOCTYPE svg PUBLIC "-//W3C//DTD SVG 1.1//EN" "http://www.w3.org/Graphics/SVG/1.1/DTD/svg11.dtd">
<svg version="1.1" id="art" xmlns="http://www.w3.org/2000/svg" xmlns:xlink="http://www.w3.org/1999/xlink" x="0px" y="0px"
	 width="912px" height="490px" viewBox="0 0 912 490" enable-background="new 0 0 912 490" xml:space="preserve">
<g>
	<defs>
		<rect id="SVGID_1_" x="-9" y="-1" width="930" height="489.457"/>
	</defs>
	<clipPath id="SVGID_2_">
		<use xlink:href="#SVGID_1_"  overflow="visible"/>
	</clipPath>
	<rect y="320" clip-path="url(#SVGID_2_)" fill="#F3E3D5" width="912" height="20"/>
	<rect clip-path="url(#SVGID_2_)" fill="#F3E3D5" width="912" height="40"/>
	<rect y="80" clip-path="url(#SVGID_2_)" fill="#F3E3D5" width="912" height="40"/>
	<rect y="160" clip-path="url(#SVGID_2_)" fill="#F3E3D5" width="912" height="40"/>
	<rect y="240" clip-path="url(#SVGID_2_)" fill="#F3E3D5" width="912" height="40"/>
	<line clip-path="url(#SVGID_2_)" fill="none" stroke="#D1D3D4" stroke-width="0.5" x1="228" y1="0" x2="228" y2="340"/>
	<line clip-path="url(#SVGID_2_)" fill="none" stroke="#D1D3D4" stroke-width="0.5" x1="142.5" y1="0" x2="142.5" y2="340"/>
	<line clip-path="url(#SVGID_2_)" fill="none" stroke="#D1D3D4" stroke-width="0.5" x1="114" y1="0" x2="114" y2="340"/>
	<line clip-path="url(#SVGID_2_)" fill="none" stroke="#D1D3D4" stroke-width="0.5" x1="342" y1="0" x2="342" y2="340"/>
	<line clip-path="url(#SVGID_2_)" fill="none" stroke="#D1D3D4" stroke-width="0.5" x1="456" y1="120" x2="456" y2="340"/>
	<line clip-path="url(#SVGID_2_)" fill="none" stroke="#D1D3D4" stroke-width="0.5" x1="570" y1="120" x2="570" y2="340"/>
	<line clip-path="url(#SVGID_2_)" fill="none" stroke="#D1D3D4" stroke-width="0.5" x1="684" y1="120" x2="684" y2="340"/>
	<g clip-path="url(#SVGID_2_)">
		<defs>
			<rect id="SVGID_3_" x="-9" y="-1" width="930" height="489.457"/>
		</defs>
		<clipPath id="SVGID_4_">
			<use xlink:href="#SVGID_3_"  overflow="visible"/>
		</clipPath>
		<line clip-path="url(#SVGID_4_)" fill="none" stroke="#6D6E71" stroke-dasharray="4,4" x1="798" y1="0" x2="798" y2="340"/>
		<line clip-path="url(#SVGID_4_)" fill="none" stroke="#6D6E71" stroke-dasharray="4,4" x1="171" y1="0" x2="171" y2="340"/>
		
			<line clip-path="url(#SVGID_4_)" fill="none" stroke="#6D6E71" stroke-dasharray="4,4" x1="456.052" y1="0" x2="456.052" y2="340"/>
		<path clip-path="url(#SVGID_4_)" fill="#F9A25E" d="M44,52.517H32.56v1.36H44V52.517z M44,61.923v-1.36h-5.648v-4.672h-1.264
			v4.672h-3.28v-4.672H32.56v6.032H44z M37.648,65.908l-0.72,1.632c-0.464,1.04-1.024,1.536-1.84,1.536
			c-0.976,0-1.664-0.72-1.664-1.744c0-0.816,0.448-1.44,1.312-1.936l-0.72-1.12c-1.136,0.56-1.728,1.584-1.728,2.96
			c0,1.904,1.216,3.216,2.816,3.216c1.392,0,2.384-0.736,3.024-2.256l0.592-1.392c0.512-1.184,1.264-1.776,2.288-1.776
			c1.248,0,2.128,0.912,2.128,2.288c0,1.152-0.72,1.936-2.112,2.272l0.608,1.232c1.696-0.432,2.656-1.696,2.656-3.504
			c0-2.208-1.408-3.664-3.504-3.664C39.344,63.651,38.304,64.419,37.648,65.908 M35.12,76.372l4.208-1.824v3.648L35.12,76.372z
			 M32.112,76.372L44,81.556v-1.472l-3.504-1.488v-4.464L44,72.644v-1.472L32.112,76.372z M44,88.899v-2.384
			c0-1.632-0.048-2.752-0.864-3.584c-0.576-0.576-1.44-0.944-2.384-0.944c-1.536,0-2.608,0.848-2.816,2.192
			c-0.32-1.088-1.152-1.696-2.368-1.696c-1.024,0-1.904,0.432-2.432,1.152c-0.528,0.72-0.576,1.632-0.576,2.88v2.384H44z
			 M38.64,87.54v-1.424c0-0.704,0.016-1.264,0.304-1.744c0.352-0.624,0.976-0.944,1.808-0.944c0.72,0,1.344,0.288,1.68,0.752
			c0.352,0.496,0.384,1.248,0.384,2.336v1.024H38.64z M33.744,87.54v-1.024c0-1.808,0.336-2.64,1.984-2.64
			c1.392,0,1.84,0.8,1.84,2.64v1.04L33.744,87.54z M39.616,96.74v4.352c-1.216-0.128-1.968-1.008-1.968-2.176
			C37.648,97.62,38.352,96.819,39.616,96.74 M40.608,95.428h-0.24c-2.368,0-3.792,1.344-3.792,3.44c0,2.08,1.568,3.568,3.824,3.568
			c2.336,0,3.904-1.472,3.904-3.648c0-1.472-0.656-2.592-1.952-3.312l-0.624,0.928c1.04,0.592,1.552,1.36,1.552,2.32
			c0,1.376-1.008,2.368-2.56,2.368h-0.112V95.428z M44,110.644v-1.216h-3.696c-0.784,0-1.376,0-1.888-0.416
			c-0.496-0.4-0.768-1.024-0.768-1.744c0-1.28,0.704-1.904,2.144-1.904H44v-1.216h-4.864c-1.616,0-2.544,1.024-2.544,2.688
			c0,1.12,0.432,1.984,1.36,2.592h-1.104v1.216H44z M33.408,114.66c0.512,0,0.896-0.4,0.896-0.896s-0.384-0.896-0.88-0.896
			c-0.496,0-0.912,0.4-0.912,0.896S32.912,114.66,33.408,114.66 M44,113.156h-7.152v1.216H44V113.156z M44,116.948H31.888v1.216H44
			V116.948z M39.616,121.298v4.352c-1.216-0.127-1.968-1.008-1.968-2.176C37.648,122.179,38.352,121.378,39.616,121.298
			 M40.608,119.986h-0.24c-2.368,0-3.792,1.345-3.792,3.44c0,2.08,1.568,3.569,3.824,3.569c2.336,0,3.904-1.472,3.904-3.648
			c0-1.473-0.656-2.593-1.952-3.313l-0.624,0.928c1.04,0.593,1.552,1.36,1.552,2.32c0,1.376-1.008,2.368-2.56,2.368h-0.112V119.986z
			 M42.8,133.555c1.008-0.56,1.504-1.488,1.504-2.816c0-1.584-0.944-2.608-2.272-2.608c-1.168,0-1.68,0.688-2.128,2.08
			c-0.384,1.184-0.48,1.84-1.232,1.84c-0.624,0-1.072-0.496-1.072-1.216c0-0.752,0.368-1.344,1.024-1.632l-0.608-0.992
			c-0.912,0.384-1.424,1.312-1.424,2.544c0,1.52,0.912,2.528,2.16,2.528c1.408,0,1.712-1.056,2.32-2.816
			c0.256-0.752,0.544-1.12,1.088-1.12c0.624,0,1.072,0.528,1.072,1.344s-0.368,1.424-1.136,1.824L42.8,133.555z M40.496,136.354
			c1.648,0,2.592,0.896,2.592,2.336c0,1.52-0.976,2.384-2.704,2.384c-1.632,0-2.576-0.864-2.576-2.336
			C37.808,137.362,38.832,136.354,40.496,136.354 M36.848,135.17v1.216h1.344c-1.056,0.544-1.6,1.424-1.6,2.624
			c0,2,1.456,3.36,3.856,3.36c2.336,0,3.856-1.376,3.856-3.424c0-1.104-0.56-2.016-1.6-2.592H44v-1.184H36.848z M40.464,149.73
			c-1.616,0-2.656-0.992-2.656-2.432c0-1.424,0.912-2.304,2.496-2.304c1.792,0,2.816,0.912,2.816,2.336
			C43.12,148.803,42.16,149.73,40.464,149.73 M31.888,150.898H44v-1.168h-1.296c1.024-0.56,1.6-1.504,1.6-2.608
			c0-2.048-1.52-3.424-3.856-3.424c-2.4,0-3.856,1.376-3.856,3.376c0,1.184,0.544,2.064,1.6,2.608h-6.304V150.898z M44,159.075
			v-1.216h-4.864c-1.616,0-2.544,0.96-2.544,2.544c0,1.088,0.464,1.92,1.456,2.544c-0.96,0.416-1.456,1.248-1.456,2.4
			c0,1.072,0.448,1.888,1.36,2.464h-1.104v1.216H44v-1.216h-3.696c-0.176,0-0.352,0.016-0.512,0.016
			c-0.544,0-0.992-0.064-1.376-0.368c-0.496-0.384-0.768-0.976-0.768-1.632c0-1.216,0.704-1.776,2.144-1.776H44v-1.216h-3.696
			c-0.16,0-0.304,0.016-0.448,0.016c-0.592,0-1.04-0.08-1.44-0.384c-0.496-0.384-0.768-0.96-0.768-1.616
			c0-1.216,0.704-1.776,2.144-1.776H44z M40.448,177.331c-1.52,0-2.704-1.152-2.704-2.592c0-1.424,1.184-2.576,2.704-2.576
			c1.52,0,2.704,1.152,2.704,2.576C43.152,176.163,41.968,177.331,40.448,177.331 M40.448,178.626c1.04,0,1.968-0.384,2.72-1.136
			c0.736-0.736,1.136-1.696,1.136-2.752c0-1.04-0.416-2-1.152-2.752c-0.72-0.736-1.664-1.136-2.704-1.136c-1.04,0-2,0.4-2.72,1.136
			c-0.736,0.752-1.136,1.696-1.136,2.752c0,1.056,0.384,2.016,1.12,2.752C38.448,178.243,39.408,178.626,40.448,178.626 M44,183.57
			v-1.216h-3.488c-1.872,0-2.8-0.64-2.8-1.936c0-0.224,0.048-0.48,0.144-0.752l-1.104-0.416c-0.096,0.272-0.144,0.544-0.144,0.832
			c0,1.088,0.512,1.76,1.728,2.4h-1.488v1.088H44z M44,187.81v-1.216h-6.144v-1.904h-1.008v1.904h-1.904
			c-1.376,0-2.032-0.032-2.032-0.944c0-0.32,0.08-0.64,0.256-0.96h-1.264c-0.112,0.336-0.16,0.688-0.16,1.056
			c0,1.712,0.896,2.064,3.04,2.064h2.064v1.376h1.008v-1.376H44z M39.616,195.842v4.352c-1.216-0.128-1.968-1.008-1.968-2.176
			C37.648,196.722,38.352,195.921,39.616,195.842 M40.608,194.529h-0.24c-2.368,0-3.792,1.344-3.792,3.44
			c0,2.08,1.568,3.568,3.824,3.568c2.336,0,3.904-1.472,3.904-3.648c0-1.472-0.656-2.592-1.952-3.312l-0.624,0.928
			c1.04,0.592,1.552,1.36,1.552,2.32c0,1.376-1.008,2.368-2.56,2.368h-0.112V194.529z M40.448,204.498
			c1.648,0,2.608,0.896,2.608,2.336c0,1.52-0.976,2.384-2.704,2.384c-1.632,0-2.576-0.864-2.576-2.336
			C37.776,205.506,38.784,204.498,40.448,204.498 M36.848,203.282v1.248h1.328c-1.04,0.528-1.584,1.44-1.584,2.624
			c0,2,1.424,3.36,3.808,3.36c2.32,0,3.824-1.376,3.824-3.424c0-1.104-0.56-2.032-1.584-2.592h1.2c0.656,0,1.184,0.032,1.632,0.304
			c0.624,0.368,0.944,1.071,0.944,2.048c0,1.376-0.624,2.128-1.68,2.128H44.64v1.376c1.792-0.048,2.848-1.296,2.848-3.488
			c0-1.264-0.368-2.224-1.072-2.88c-0.72-0.672-1.52-0.704-2.544-0.704H36.848z M44,218.802v-1.216h-3.696
			c-0.784,0-1.376,0-1.888-0.416c-0.496-0.4-0.768-1.024-0.768-1.744c0-1.28,0.704-1.904,2.144-1.904H44v-1.216h-4.864
			c-1.616,0-2.544,1.023-2.544,2.688c0,1.12,0.432,1.984,1.36,2.593h-1.104v1.216H44z M40.496,222.354
			c1.648,0,2.592,0.896,2.592,2.336c0,1.521-0.976,2.384-2.704,2.384c-1.632,0-2.576-0.863-2.576-2.336
			C37.808,223.361,38.832,222.354,40.496,222.354 M36.848,221.17v1.216h1.344c-1.056,0.544-1.6,1.424-1.6,2.624
			c0,2,1.456,3.359,3.856,3.359c2.336,0,3.856-1.376,3.856-3.424c0-1.104-0.56-2.016-1.6-2.592H44v-1.184H36.848z M44,236.657
			v-1.216h-3.696c-0.784,0-1.376,0-1.888-0.416c-0.496-0.399-0.768-1.023-0.768-1.744c0-1.279,0.704-1.903,2.144-1.903H44v-1.217
			h-4.864c-1.616,0-2.544,1.024-2.544,2.688c0,1.12,0.432,1.984,1.36,2.608h-6.064v1.199H44z M42.304,238.273
			c0.544,0.752,0.816,1.44,0.816,2.208c0,1.488-1.152,2.561-2.592,2.561c-1.696,0-2.752-1.089-2.752-2.656
			c0-0.704,0.224-1.376,0.624-1.984h-1.312c-0.32,0.656-0.496,1.424-0.496,2.225c0,2.144,1.568,3.728,3.904,3.728
			c2.256,0,3.808-1.456,3.808-3.68c0-0.929-0.192-1.744-0.576-2.4H42.304z M44,257.232v-1.216h-3.696c-0.784,0-1.376,0-1.888-0.416
			c-0.496-0.4-0.768-1.024-0.768-1.744c0-1.28,0.704-1.904,2.144-1.904H44v-1.216h-4.864c-1.616,0-2.544,1.024-2.544,2.688
			c0,1.12,0.432,1.983,1.36,2.592h-1.104v1.216H44z M40.496,260.784c1.648,0,2.592,0.896,2.592,2.336
			c0,1.521-0.976,2.385-2.704,2.385c-1.632,0-2.576-0.864-2.576-2.336C37.808,261.793,38.832,260.784,40.496,260.784
			 M36.848,259.601v1.216h1.344c-1.056,0.544-1.6,1.424-1.6,2.624c0,2,1.456,3.36,3.856,3.36c2.336,0,3.856-1.376,3.856-3.424
			c0-1.104-0.56-2.017-1.6-2.593H44v-1.184H36.848z M39.616,269.328v4.353c-1.216-0.128-1.968-1.008-1.968-2.176
			C37.648,270.209,38.352,269.408,39.616,269.328 M40.608,268.017h-0.24c-2.368,0-3.792,1.344-3.792,3.44
			c0,2.079,1.568,3.566,3.824,3.566c2.336,0,3.904-1.471,3.904-3.646c0-1.473-0.656-2.593-1.952-3.312l-0.624,0.928
			c1.04,0.593,1.552,1.36,1.552,2.32c0,1.376-1.008,2.368-2.56,2.368h-0.112V268.017z M44.448,282.271l-8.224-3.535L44,277.279
			v-1.328l-11.888,2.32l9.456,4l-9.456,4L44,288.592v-1.328l-7.776-1.439L44.448,282.271z"/>
		<g clip-path="url(#SVGID_4_)">
			<g>
				<defs>
					<rect id="SVGID_5_" x="59.912" y="13.168" width="40.336" height="13.856"/>
				</defs>
				<clipPath id="SVGID_6_">
					<use xlink:href="#SVGID_5_"  overflow="visible"/>
				</clipPath>
				<path clip-path="url(#SVGID_6_)" fill="#F9A25E" d="M87.296,26.024c2.4,0,3.952-2.128,3.952-5.936s-1.536-5.92-3.984-5.92
					c-2.384,0-3.952,2.144-3.952,5.92S84.88,26.024,87.296,26.024 M87.28,24.904c-1.584,0-2.56-1.728-2.56-4.832
					c0-3.088,0.976-4.8,2.56-4.8c1.664,0,2.56,1.648,2.56,4.832C89.84,23.272,88.944,24.904,87.28,24.904 M79.344,24.953
					c0,0.512,0.4,0.912,0.928,0.912c0.528,0,0.944-0.4,0.944-0.912c0-0.512-0.416-0.928-0.944-0.928
					C79.76,24.024,79.344,24.44,79.344,24.953 M74.272,25.721h1.344v-2.464h1.344v-1.104h-1.344v-7.984H75.04l-6.128,9.088h5.36
					V25.721z M74.272,22.152h-3.344l3.344-5.024V22.152z"/>
			</g>
		</g>
		<g clip-path="url(#SVGID_4_)">
			<g>
				<defs>
					<rect id="SVGID_7_" x="60.44" y="93.168" width="39.808" height="13.856"/>
				</defs>
				<clipPath id="SVGID_8_">
					<use xlink:href="#SVGID_7_"  overflow="visible"/>
				</clipPath>
				<path clip-path="url(#SVGID_8_)" fill="#F9A25E" d="M87.296,106.024c2.4,0,3.952-2.128,3.952-5.936s-1.536-5.92-3.984-5.92
					c-2.384,0-3.952,2.144-3.952,5.92S84.88,106.024,87.296,106.024 M87.28,104.904c-1.584,0-2.56-1.728-2.56-4.832
					c0-3.088,0.976-4.8,2.56-4.8c1.664,0,2.56,1.648,2.56,4.832C89.84,103.272,88.944,104.904,87.28,104.904 M79.344,104.953
					c0,0.512,0.4,0.912,0.928,0.912c0.528,0,0.944-0.4,0.944-0.912c0-0.512-0.416-0.928-0.944-0.928
					C79.76,104.024,79.344,104.44,79.344,104.953 M69.44,102.824v0.208c0,1.808,1.344,2.992,3.472,2.992
					c2.432,0,3.84-1.28,3.84-3.328c0-1.552-0.816-2.592-2.176-2.816c1.28-0.336,2.032-1.312,2.032-2.672
					c0-1.856-1.296-3.04-3.424-3.04c-2.208,0-3.44,1.104-3.536,3.056h1.344c0.064-1.232,0.832-1.904,2.16-1.904
					c1.264,0,2.032,0.768,2.032,1.952c0,1.344-0.8,2.048-2.384,2.048c-0.128,0-0.24-0.016-0.368-0.016v1.12
					c0.144-0.016,0.272-0.016,0.4-0.016c1.648,0,2.496,0.768,2.496,2.24c0,1.392-0.848,2.208-2.368,2.208
					c-1.312,0-2.128-0.736-2.128-1.904v-0.128H69.44z"/>
			</g>
		</g>
		<g clip-path="url(#SVGID_4_)">
			<g>
				<defs>
					<rect id="SVGID_9_" x="60.456" y="173.168" width="39.792" height="13.856"/>
				</defs>
				<clipPath id="SVGID_10_">
					<use xlink:href="#SVGID_9_"  overflow="visible"/>
				</clipPath>
				<path clip-path="url(#SVGID_10_)" fill="#F9A25E" d="M87.296,186.024c2.4,0,3.952-2.128,3.952-5.936s-1.536-5.92-3.984-5.92
					c-2.384,0-3.952,2.144-3.952,5.92S84.88,186.024,87.296,186.024 M87.28,184.904c-1.584,0-2.56-1.728-2.56-4.832
					c0-3.088,0.976-4.8,2.56-4.8c1.664,0,2.56,1.648,2.56,4.832C89.84,183.272,88.944,184.904,87.28,184.904 M79.344,184.953
					c0,0.512,0.4,0.912,0.928,0.912c0.528,0,0.944-0.4,0.944-0.912c0-0.512-0.416-0.928-0.944-0.928
					C79.76,184.024,79.344,184.44,79.344,184.953 M76.352,184.424h-4.336l1.792-1.936c1.84-2,2.896-3.504,2.896-5.152
					c0-1.968-1.312-3.168-3.552-3.168c-2.256,0-3.584,1.264-3.584,3.424c0,0.096,0.016,0.208,0.016,0.304h1.28v-0.128
					c0-1.52,0.8-2.352,2.24-2.352c1.376,0,2.256,0.848,2.256,2c0,1.488-1.424,3.008-3.488,5.44l-2.416,2.864h6.896V184.424z"/>
			</g>
		</g>
		<g clip-path="url(#SVGID_4_)">
			<g>
				<defs>
					<rect id="SVGID_11_" x="61.592" y="253.168" width="38.656" height="13.856"/>
				</defs>
				<clipPath id="SVGID_12_">
					<use xlink:href="#SVGID_11_"  overflow="visible"/>
				</clipPath>
				<path clip-path="url(#SVGID_12_)" fill="#F9A25E" d="M87.296,266.024c2.4,0,3.952-2.128,3.952-5.936
					c0-3.809-1.536-5.921-3.984-5.921c-2.384,0-3.952,2.145-3.952,5.921C83.312,263.864,84.88,266.024,87.296,266.024
					 M87.28,264.904c-1.584,0-2.56-1.728-2.56-4.832c0-3.088,0.976-4.8,2.56-4.8c1.664,0,2.56,1.648,2.56,4.832
					C89.84,263.272,88.944,264.904,87.28,264.904 M79.344,264.952c0,0.513,0.4,0.912,0.928,0.912c0.528,0,0.944-0.399,0.944-0.912
					c0-0.512-0.416-0.928-0.944-0.928C79.76,264.024,79.344,264.44,79.344,264.952 M72.928,265.721h1.328v-11.328H71.36
					l-0.768,1.184h2.336V265.721z"/>
			</g>
		</g>
	</g>
	<path clip-path="url(#SVGID_2_)" fill="none" stroke="#808285" stroke-width="2" d="M113.863,339.359"/>
	<polyline clip-path="url(#SVGID_2_)" fill="none" stroke="#808285" stroke-width="2" points="114,340.281 171.393,295.201 
		227.904,283.201 341.926,291.201 456.052,280 569.971,279.201 683.997,276.801 797.515,271.201 	"/>
	<path clip-path="url(#SVGID_2_)" fill="none" stroke="#808285" stroke-width="2" d="M142.388,311.199"/>
	<polyline clip-path="url(#SVGID_2_)" fill="none" stroke="#F9A25E" stroke-width="2" points="113.179,340 142.5,240.001 
		171,232.801 228,209.601 342,196 456.052,192 570,175.201 684,159.201 798,152.801 	"/>
	<line clip-path="url(#SVGID_2_)" fill="none" stroke="#F9A25E" stroke-width="3" x1="0" y1="340" x2="912" y2="340"/>
	<g clip-path="url(#SVGID_2_)">
		<defs>
			<rect id="SVGID_13_" x="-9" y="-1" width="930" height="489.457"/>
		</defs>
		<clipPath id="SVGID_14_">
			<use xlink:href="#SVGID_13_"  overflow="visible"/>
		</clipPath>
		<g clip-path="url(#SVGID_14_)">
			<g>
				<defs>
					<rect id="SVGID_15_" x="780.496" y="363.447" width="34.864" height="13.553"/>
				</defs>
				<clipPath id="SVGID_16_">
					<use xlink:href="#SVGID_15_"  overflow="visible"/>
				</clipPath>
				<path clip-path="url(#SVGID_16_)" fill="#F9A25E" d="M803.672,376h1.344v-2.465h1.345v-1.104h-1.345v-7.984h-0.575l-6.128,9.088
					h5.359V376z M803.672,372.432h-3.344l3.344-5.023V372.432z M796.392,374.703h-4.336l1.792-1.936c1.84-2,2.896-3.504,2.896-5.152
					c0-1.967-1.312-3.168-3.552-3.168c-2.257,0-3.584,1.266-3.584,3.424c0,0.098,0.016,0.209,0.016,0.305h1.28v-0.127
					c0-1.521,0.8-2.354,2.239-2.354c1.376,0,2.257,0.85,2.257,2c0,1.488-1.425,3.008-3.488,5.441L789.496,376h6.896V374.703z"/>
			</g>
		</g>
		<g clip-path="url(#SVGID_14_)">
			<g>
				<defs>
					<rect id="SVGID_17_" x="666.496" y="363.447" width="35.152" height="13.855"/>
				</defs>
				<clipPath id="SVGID_18_">
					<use xlink:href="#SVGID_17_"  overflow="visible"/>
				</clipPath>
				<path clip-path="url(#SVGID_18_)" fill="#F9A25E" d="M688.696,376.305c2.399,0,3.952-2.129,3.952-5.938
					c0-3.807-1.536-5.92-3.984-5.92c-2.384,0-3.952,2.145-3.952,5.92C684.712,374.145,686.28,376.305,688.696,376.305
					 M688.68,375.184c-1.584,0-2.56-1.729-2.56-4.832c0-3.088,0.976-4.799,2.56-4.799c1.664,0,2.561,1.646,2.561,4.832
					C691.24,373.553,690.344,375.184,688.68,375.184 M682.392,374.703h-4.336l1.792-1.936c1.84-2,2.896-3.504,2.896-5.152
					c0-1.967-1.312-3.168-3.552-3.168c-2.257,0-3.584,1.266-3.584,3.424c0,0.098,0.016,0.209,0.016,0.305h1.28v-0.127
					c0-1.521,0.8-2.354,2.239-2.354c1.376,0,2.257,0.85,2.257,2c0,1.488-1.425,3.008-3.488,5.441L675.496,376h6.896V374.703z"/>
			</g>
		</g>
		<g clip-path="url(#SVGID_14_)">
			<g>
				<defs>
					<rect id="SVGID_19_" x="553.632" y="363.111" width="33.792" height="14.191"/>
				</defs>
				<clipPath id="SVGID_20_">
					<use xlink:href="#SVGID_19_"  overflow="visible"/>
				</clipPath>
				<path clip-path="url(#SVGID_20_)" fill="#F9A25E" d="M572.296,372.672c0-1.504,0.928-2.543,2.288-2.543
					c1.52,0,2.432,0.975,2.432,2.527c0,1.52-0.943,2.512-2.352,2.512C573.224,375.168,572.296,374.225,572.296,372.672
					 M573.208,369.535l3.696-4.799l-1.185-0.625l-2.607,3.68c-1.265,1.793-2.225,3.121-2.225,4.77c0,2.24,1.408,3.744,3.504,3.744
					c2.496,0,4.032-1.488,4.032-3.777c0-2.096-1.408-3.535-3.456-3.535C574.328,368.992,573.768,369.168,573.208,369.535
					 M564.968,376h1.328v-11.328H563.4l-0.769,1.184h2.336V376z"/>
			</g>
		</g>
		<g clip-path="url(#SVGID_14_)">
			<g>
				<defs>
					<rect id="SVGID_21_" x="439.632" y="363.447" width="33.472" height="13.553"/>
				</defs>
				<clipPath id="SVGID_22_">
					<use xlink:href="#SVGID_21_"  overflow="visible"/>
				</clipPath>
				<path clip-path="url(#SVGID_22_)" fill="#F9A25E" d="M463.752,374.703h-4.336l1.792-1.936c1.84-2,2.896-3.504,2.896-5.152
					c0-1.967-1.312-3.168-3.552-3.168c-2.256,0-3.584,1.266-3.584,3.424c0,0.098,0.017,0.209,0.017,0.305h1.279v-0.127
					c0-1.521,0.801-2.354,2.24-2.354c1.376,0,2.256,0.85,2.256,2c0,1.488-1.424,3.008-3.488,5.441L456.855,376h6.896V374.703z
					 M450.968,376h1.328v-11.328H449.4l-0.769,1.184h2.336V376z"/>
			</g>
		</g>
		<g clip-path="url(#SVGID_14_)">
			<g>
				<defs>
					<rect id="SVGID_23_" x="329.16" y="363.447" width="25.696" height="13.855"/>
				</defs>
				<clipPath id="SVGID_24_">
					<use xlink:href="#SVGID_23_"  overflow="visible"/>
				</clipPath>
				<path clip-path="url(#SVGID_24_)" fill="#F9A25E" d="M342.016,365.488c1.248,0,2.017,0.719,2.017,1.904
					c0,1.152-0.736,1.855-2.048,1.855c-1.28,0-2-0.721-2-1.855C339.984,366.225,340.752,365.488,342.016,365.488 M342,375.199
					c-1.536,0-2.4-0.879-2.4-2.303c0-1.441,0.896-2.352,2.4-2.352s2.4,0.895,2.4,2.352C344.4,374.32,343.536,375.199,342,375.199
					 M340.512,369.951c-1.504,0.416-2.352,1.537-2.352,3.041c0,1.984,1.424,3.312,3.855,3.312c2.448,0,3.841-1.297,3.841-3.346
					c0-1.471-0.849-2.574-2.353-3.008c1.232-0.367,1.937-1.295,1.937-2.527c0-1.775-1.297-2.977-3.425-2.977
					c-2.096,0-3.439,1.232-3.439,2.865C338.576,368.672,339.232,369.553,340.512,369.951"/>
			</g>
		</g>
		<g clip-path="url(#SVGID_14_)">
			<g>
				<defs>
					<rect id="SVGID_25_" x="214.632" y="363.447" width="26.048" height="13.553"/>
				</defs>
				<clipPath id="SVGID_26_">
					<use xlink:href="#SVGID_25_"  overflow="visible"/>
				</clipPath>
				<path clip-path="url(#SVGID_26_)" fill="#F9A25E" d="M228.992,376h1.344v-2.465h1.344v-1.104h-1.344v-7.984h-0.576l-6.128,9.088
					h5.36V376z M228.992,372.432h-3.344l3.344-5.023V372.432z"/>
			</g>
		</g>
		<g clip-path="url(#SVGID_14_)">
			<g>
				<defs>
					<rect id="SVGID_27_" x="158.176" y="363.447" width="25.248" height="13.553"/>
				</defs>
				<clipPath id="SVGID_28_">
					<use xlink:href="#SVGID_27_"  overflow="visible"/>
				</clipPath>
				<path clip-path="url(#SVGID_28_)" fill="#F9A25E" d="M174.072,374.703h-4.336l1.792-1.936c1.84-2,2.896-3.504,2.896-5.152
					c0-1.967-1.312-3.168-3.552-3.168c-2.256,0-3.584,1.266-3.584,3.424c0,0.098,0.016,0.209,0.016,0.305h1.28v-0.127
					c0-1.521,0.8-2.354,2.24-2.354c1.376,0,2.256,0.85,2.256,2c0,1.488-1.424,3.008-3.488,5.441L167.176,376h6.896V374.703z"/>
			</g>
		</g>
		<g clip-path="url(#SVGID_14_)">
			<g>
				<defs>
					<rect id="SVGID_29_" x="101.032" y="363.447" width="25.936" height="13.855"/>
				</defs>
				<clipPath id="SVGID_30_">
					<use xlink:href="#SVGID_29_"  overflow="visible"/>
				</clipPath>
				<path clip-path="url(#SVGID_30_)" fill="#F9A25E" d="M114.016,376.305c2.4,0,3.952-2.129,3.952-5.938
					c0-3.807-1.536-5.92-3.984-5.92c-2.384,0-3.952,2.145-3.952,5.92C110.032,374.145,111.6,376.305,114.016,376.305 M114,375.184
					c-1.584,0-2.56-1.729-2.56-4.832c0-3.088,0.976-4.799,2.56-4.799c1.664,0,2.56,1.646,2.56,4.832
					C116.56,373.553,115.664,375.184,114,375.184"/>
			</g>
		</g>
		<path clip-path="url(#SVGID_14_)" fill="#F9A25E" d="M472.552,426.801c0.561,1.008,1.488,1.504,2.816,1.504
			c1.584,0,2.608-0.945,2.608-2.273c0-1.168-0.688-1.68-2.08-2.127c-1.185-0.385-1.84-0.48-1.84-1.232
			c0-0.623,0.495-1.072,1.216-1.072c0.752,0,1.344,0.369,1.632,1.023l0.992-0.607c-0.385-0.912-1.312-1.424-2.544-1.424
			c-1.521,0-2.528,0.912-2.528,2.16c0,1.408,1.056,1.713,2.816,2.32c0.752,0.256,1.119,0.543,1.119,1.088
			c0,0.623-0.527,1.072-1.344,1.072c-0.815,0-1.424-0.369-1.824-1.137L472.552,426.801z M465.512,428h1.217l0.016-3.775l3.68,3.775
			h1.712l-3.888-3.871l3.568-3.281h-1.632l-3.44,3.248l-0.016-8.207h-1.217V428z M462.424,423.615h-4.352
			c0.128-1.215,1.008-1.967,2.176-1.967C461.544,421.648,462.344,422.352,462.424,423.615 M463.736,424.607v-0.24
			c0-2.367-1.344-3.791-3.44-3.791c-2.08,0-3.567,1.568-3.567,3.824c0,2.336,1.472,3.904,3.647,3.904
			c1.473,0,2.592-0.656,3.312-1.953l-0.929-0.623c-0.592,1.039-1.359,1.551-2.319,1.551c-1.376,0-2.368-1.008-2.368-2.559v-0.113
			H463.736z M454.28,423.615h-4.353c0.129-1.215,1.009-1.967,2.177-1.967C453.4,421.648,454.2,422.352,454.28,423.615
			 M455.592,424.607v-0.24c0-2.367-1.344-3.791-3.439-3.791c-2.08,0-3.568,1.568-3.568,3.824c0,2.336,1.473,3.904,3.648,3.904
			c1.472,0,2.592-0.656,3.312-1.953l-0.928-0.623c-0.592,1.039-1.36,1.551-2.32,1.551c-1.376,0-2.368-1.008-2.368-2.559v-0.113
			H455.592z M433.32,416.561l4.432,11.887l2.977-8.848l2.991,8.848l4.433-11.887h-1.473l-2.911,8.416l-3.057-8.865l-3.023,8.865
			l-2.896-8.416H433.32z"/>
	</g>
	<polygon clip-path="url(#SVGID_2_)" fill="#F9A25E" points="142.735,230.592 141.764,230.592 141.764,223.535 139.628,223.535 
		139.628,222.696 141.764,222.696 141.764,219.41 142.735,219.41 142.735,222.696 144.871,222.696 144.871,223.535 142.735,223.535 
			"/>
	<polygon clip-path="url(#SVGID_2_)" fill="none" stroke="#F9A25E" points="142.735,230.592 141.764,230.592 141.764,223.535 
		139.628,223.535 139.628,222.696 141.764,222.696 141.764,219.41 142.735,219.41 142.735,222.696 144.871,222.696 144.871,223.535 
		142.735,223.535 	"/>
	<polygon clip-path="url(#SVGID_2_)" fill="#F9A25E" points="227.265,202.683 228.236,202.683 228.236,195.627 230.372,195.627 
		230.372,194.788 228.236,194.788 228.236,191.501 227.265,191.501 227.265,194.788 225.129,194.788 225.129,195.627 
		227.265,195.627 	"/>
	<polygon clip-path="url(#SVGID_2_)" fill="none" stroke="#F9A25E" points="227.265,202.683 228.236,202.683 228.236,195.627 
		230.372,195.627 230.372,194.788 228.236,194.788 228.236,191.501 227.265,191.501 227.265,194.788 225.129,194.788 
		225.129,195.627 227.265,195.627 	"/>
	<polygon clip-path="url(#SVGID_2_)" fill="#F9A25E" points="341.515,187.683 342.485,187.683 342.485,180.627 344.622,180.627 
		344.622,179.788 342.485,179.788 342.485,176.501 341.515,176.501 341.515,179.788 339.379,179.788 339.379,180.627 
		341.515,180.627 	"/>
	<polygon clip-path="url(#SVGID_2_)" fill="none" stroke="#F9A25E" points="341.515,187.683 342.485,187.683 342.485,180.627 
		344.622,180.627 344.622,179.788 342.485,179.788 342.485,176.501 341.515,176.501 341.515,179.788 339.379,179.788 
		339.379,180.627 341.515,180.627 	"/>
	<polygon clip-path="url(#SVGID_2_)" fill="#F9A25E" points="455.566,184.5 456.536,184.5 456.536,177.444 458.673,177.444 
		458.673,176.605 456.536,176.605 456.536,173.318 455.566,173.318 455.566,176.605 453.431,176.605 453.431,177.444 
		455.566,177.444 	"/>
	<polygon clip-path="url(#SVGID_2_)" fill="none" stroke="#F9A25E" points="455.566,184.5 456.536,184.5 456.536,177.444 
		458.673,177.444 458.673,176.605 456.536,176.605 456.536,173.318 455.566,173.318 455.566,176.605 453.431,176.605 
		453.431,177.444 455.566,177.444 	"/>
	<polygon clip-path="url(#SVGID_2_)" fill="#F9A25E" points="569.265,166.683 570.235,166.683 570.235,159.627 572.372,159.627 
		572.372,158.788 570.235,158.788 570.235,155.501 569.265,155.501 569.265,158.788 567.129,158.788 567.129,159.627 
		569.265,159.627 	"/>
	<polygon clip-path="url(#SVGID_2_)" fill="none" stroke="#F9A25E" points="569.265,166.683 570.235,166.683 570.235,159.627 
		572.372,159.627 572.372,158.788 570.235,158.788 570.235,155.501 569.265,155.501 569.265,158.788 567.129,158.788 
		567.129,159.627 569.265,159.627 	"/>
	<polygon clip-path="url(#SVGID_2_)" fill="#F9A25E" points="683.515,150.592 684.485,150.592 684.485,143.536 686.622,143.536 
		686.622,142.697 684.485,142.697 684.485,139.41 683.515,139.41 683.515,142.697 681.379,142.697 681.379,143.536 683.515,143.536 
			"/>
	<polygon clip-path="url(#SVGID_2_)" fill="none" stroke="#F9A25E" points="683.515,150.592 684.485,150.592 684.485,143.536 
		686.622,143.536 686.622,142.697 684.485,142.697 684.485,139.41 683.515,139.41 683.515,142.697 681.379,142.697 681.379,143.536 
		683.515,143.536 	"/>
	<polygon clip-path="url(#SVGID_2_)" fill="#F9A25E" points="797.571,144.5 798.542,144.5 798.542,137.444 800.678,137.444 
		800.678,136.605 798.542,136.605 798.542,133.318 797.571,133.318 797.571,136.605 795.435,136.605 795.435,137.444 
		797.571,137.444 	"/>
	<polygon clip-path="url(#SVGID_2_)" fill="none" stroke="#F9A25E" points="797.571,144.5 798.542,144.5 798.542,137.444 
		800.678,137.444 800.678,136.605 798.542,136.605 798.542,133.318 797.571,133.318 797.571,136.605 795.435,136.605 
		795.435,137.444 797.571,137.444 	"/>
	<polygon clip-path="url(#SVGID_2_)" fill="#F9A25E" points="172.324,217.172 171.225,216.532 171.225,217.771 170.726,217.771 
		170.726,216.552 169.666,217.162 169.425,216.722 170.496,216.112 169.425,215.491 169.666,215.051 170.735,215.661 
		170.726,214.412 171.225,214.412 171.214,215.691 172.314,215.051 172.564,215.481 171.475,216.112 172.564,216.742 	"/>
	<polygon clip-path="url(#SVGID_2_)" fill="none" stroke="#F9A25E" points="172.324,217.172 171.225,216.532 171.225,217.771 
		170.726,217.771 170.726,216.552 169.666,217.162 169.425,216.722 170.496,216.112 169.425,215.491 169.666,215.051 
		170.735,215.661 170.726,214.412 171.225,214.412 171.214,215.691 172.314,215.051 172.564,215.481 171.475,216.112 
		172.564,216.742 	"/>
	<g clip-path="url(#SVGID_2_)">
		<defs>
			<rect id="SVGID_31_" x="-9" y="-1" width="930" height="489.457"/>
		</defs>
		<clipPath id="SVGID_32_">
			<use xlink:href="#SVGID_31_"  overflow="visible"/>
		</clipPath>
		<path clip-path="url(#SVGID_32_)" fill="#808285" d="M709.251,108.792l0.832,0.432c1.232-2.288,1.856-4.864,1.856-7.728
			c0-2.96-0.576-5.504-1.856-7.76l-0.832,0.384c1.152,2.272,1.648,4.64,1.648,7.376
			C710.899,104.312,710.403,106.681,709.251,108.792 M701.075,105.577l1.12,0.576l5.712-11.76h-7.248v1.184h5.296L701.075,105.577z
			 M691.571,100.008c0.704-0.544,1.536-0.816,2.432-0.816c1.761,0,2.849,1.12,2.849,2.752c0,1.776-1.104,2.896-2.736,2.896
			c-1.12,0-2-0.56-2.512-1.616l-0.96,1.12c0.783,1.152,1.888,1.68,3.439,1.68c2.624,0,4.208-1.632,4.208-4.208
			c0-2.288-1.392-3.728-3.632-3.728c-0.64,0-1.232,0.128-1.776,0.416l0.721-2.944h4.096v-1.168h-5.024l-1.359,5.568L691.571,100.008
			z M688.003,101.992h-9.359v0.912h9.359V101.992z M688.003,99h-9.359v0.912h9.359V99z M669.075,105.72h1.216v-3.696
			c0-0.784,0-1.376,0.416-1.888c0.4-0.496,1.024-0.768,1.744-0.768c1.28,0,1.904,0.704,1.904,2.144v4.208h1.216v-4.864
			c0-1.616-1.024-2.544-2.688-2.544c-1.119,0-1.983,0.432-2.592,1.36v-1.104h-1.216V105.72z M667.284,108.792
			c-1.152-2.112-1.647-4.48-1.647-7.296c0-2.736,0.495-5.104,1.647-7.376l-0.832-0.384c-1.28,2.256-1.856,4.8-1.856,7.76
			c0,2.864,0.625,5.44,1.856,7.728L667.284,108.792z M644.021,94.28l4.432,11.888l2.976-8.848l2.992,8.848l4.433-11.888h-1.473
			l-2.912,8.416l-3.056-8.864l-3.023,8.864l-2.896-8.416H644.021z M642.564,104.424h-4.336l1.792-1.936
			c1.84-2,2.896-3.504,2.896-5.152c0-1.968-1.312-3.168-3.552-3.168c-2.256,0-3.584,1.264-3.584,3.424
			c0,0.096,0.016,0.208,0.016,0.304h1.28v-0.128c0-1.52,0.8-2.352,2.24-2.352c1.376,0,2.256,0.848,2.256,2
			c0,1.488-1.424,3.008-3.488,5.44l-2.416,2.864h6.896V104.424z M629.332,101.641h-1.68l2.336,2.528
			c-0.64,0.352-1.36,0.512-2.208,0.512c-0.976,0-1.872-0.288-2.608-0.816c-1.296-0.944-1.951-2.24-1.951-3.856
			c0-1.248,0.479-2.432,1.359-3.312c0.88-0.88,2.064-1.36,3.312-1.36c1.695,0,3.151,0.816,4.016,2.24
			c0.416,0.688,0.64,1.552,0.64,2.496c0,1.408-0.56,2.624-1.52,3.392L629.332,101.641z M634.148,106.824l-2.176-2.352
			c1.344-1.072,2.048-2.624,2.048-4.448c0-1.744-0.672-3.296-1.904-4.416c-1.152-1.04-2.592-1.584-4.224-1.584
			c-1.633,0-3.152,0.608-4.32,1.744c-1.152,1.136-1.792,2.64-1.792,4.24c0,1.984,0.848,3.664,2.448,4.848
			c0.992,0.736,2.176,1.12,3.472,1.12c1.264,0,2.336-0.256,3.248-0.784l1.52,1.632H634.148z M609.236,102.168
			c0-1.52,1.152-2.704,2.592-2.704c1.424,0,2.576,1.184,2.576,2.704s-1.152,2.704-2.576,2.704S609.236,103.688,609.236,102.168
			 M607.94,102.168c0,1.04,0.384,1.968,1.136,2.72c0.736,0.736,1.696,1.136,2.752,1.136c1.04,0,2-0.416,2.752-1.152
			c0.736-0.72,1.136-1.664,1.136-2.704s-0.399-2-1.136-2.72c-0.752-0.736-1.696-1.136-2.752-1.136s-2.016,0.384-2.752,1.12
			C608.324,100.168,607.94,101.128,607.94,102.168 M600.612,102.185c0-1.616,0.992-2.656,2.432-2.656
			c1.424,0,2.305,0.912,2.305,2.496c0,1.792-0.912,2.816-2.337,2.816C601.54,104.84,600.612,103.88,600.612,102.185 M599.444,93.608
			v12.112h1.168v-1.296c0.56,1.024,1.504,1.6,2.608,1.6c2.048,0,3.424-1.52,3.424-3.856c0-2.4-1.376-3.856-3.376-3.856
			c-1.185,0-2.064,0.544-2.608,1.6v-6.304H599.444z M596.372,101.336h-4.352c0.128-1.216,1.008-1.968,2.176-1.968
			C595.492,99.369,596.292,100.072,596.372,101.336 M597.685,102.329v-0.24c0-2.368-1.345-3.792-3.44-3.792
			c-2.08,0-3.568,1.568-3.568,3.824c0,2.336,1.473,3.904,3.648,3.904c1.472,0,2.592-0.656,3.312-1.952l-0.928-0.624
			c-0.592,1.04-1.359,1.552-2.319,1.552c-1.377,0-2.368-1.008-2.368-2.56v-0.112H597.685z M589.685,104.024
			c-0.751,0.544-1.44,0.816-2.207,0.816c-1.489,0-2.561-1.152-2.561-2.592c0-1.696,1.087-2.752,2.655-2.752
			c0.705,0,1.377,0.224,1.984,0.624v-1.312c-0.656-0.32-1.424-0.496-2.225-0.496c-2.144,0-3.727,1.568-3.727,3.904
			c0,2.256,1.456,3.808,3.68,3.808c0.927,0,1.744-0.192,2.399-0.576V104.024z M580.646,102.216c0,1.648-0.896,2.592-2.336,2.592
			c-1.521,0-2.385-0.976-2.385-2.704c0-1.632,0.864-2.576,2.336-2.576C579.637,99.528,580.646,100.552,580.646,102.216
			 M581.829,98.568h-1.216v1.344c-0.544-1.056-1.424-1.6-2.624-1.6c-2,0-3.36,1.456-3.36,3.856c0,2.336,1.376,3.856,3.424,3.856
			c1.104,0,2.017-0.56,2.593-1.6v1.296h1.184V98.568z M571.445,105.72h1.216V93.608h-1.216V105.72z M564.821,100.584h1.04
			c1.184,0,2.112-0.032,2.88-0.576c0.72-0.512,1.168-1.456,1.168-2.576c0-1.12-0.448-2.064-1.168-2.576
			c-0.768-0.544-1.712-0.576-2.88-0.576h-2.4v11.44h1.36V100.584z M564.821,99.353v-3.824h0.656c1.983,0,2.96,0.32,2.96,1.984
			c0,1.584-0.992,1.84-2.96,1.84H564.821z"/>
	</g>
	<line clip-path="url(#SVGID_2_)" fill="none" stroke="#808285" stroke-width="2" x1="502.894" y1="100" x2="547.893" y2="100"/>
	<g clip-path="url(#SVGID_2_)">
		<defs>
			<rect id="SVGID_33_" x="-9" y="-1" width="930" height="489.457"/>
		</defs>
		<clipPath id="SVGID_34_">
			<use xlink:href="#SVGID_33_"  overflow="visible"/>
		</clipPath>
		<path clip-path="url(#SVGID_34_)" fill="#F9A25E" d="M733.268,57.792l0.832,0.432c1.231-2.288,1.855-4.864,1.855-7.728
			c0-2.96-0.576-5.504-1.855-7.76l-0.832,0.384c1.151,2.272,1.647,4.64,1.647,7.376C734.915,53.312,734.419,55.681,733.268,57.792
			 M727.651,54.72h1.328V43.393h-2.896l-0.768,1.184h2.336V54.72z M721.716,53.424h-4.337l1.793-1.936
			c1.84-2,2.896-3.504,2.896-5.152c0-1.968-1.312-3.168-3.552-3.168c-2.256,0-3.584,1.264-3.584,3.424
			c0,0.096,0.016,0.208,0.016,0.304h1.28v-0.128c0-1.52,0.8-2.352,2.24-2.352c1.376,0,2.256,0.848,2.256,2
			c0,1.488-1.424,3.008-3.488,5.44l-2.416,2.864h6.896V53.424z M708.932,54.72h1.328V43.393h-2.896l-0.768,1.184h2.336V54.72z
			 M702.659,50.992H693.3v0.912h9.359V50.992z M702.659,48H693.3v0.912h9.359V48z M683.731,54.72h1.216v-3.696
			c0-0.784,0-1.376,0.416-1.888c0.4-0.496,1.024-0.768,1.744-0.768c1.28,0,1.904,0.704,1.904,2.144v4.208h1.216v-4.864
			c0-1.616-1.024-2.544-2.688-2.544c-1.12,0-1.983,0.432-2.592,1.36v-1.104h-1.216V54.72z M681.939,57.792
			c-1.152-2.112-1.648-4.48-1.648-7.296c0-2.736,0.496-5.104,1.648-7.376l-0.832-0.384c-1.28,2.256-1.856,4.8-1.856,7.76
			c0,2.864,0.624,5.44,1.856,7.728L681.939,57.792z M658.676,43.28l4.432,11.888l2.976-8.848l2.992,8.848l4.433-11.888h-1.473
			l-2.912,8.416l-3.056-8.864l-3.024,8.864l-2.896-8.416H658.676z M655.14,54.72h1.344v-2.464h1.344v-1.104h-1.344v-7.984h-0.576
			l-6.128,9.088h5.36V54.72z M655.14,51.152h-3.345l3.345-5.024V51.152z M643.988,50.641h-1.68l2.336,2.528
			c-0.641,0.352-1.36,0.512-2.208,0.512c-0.977,0-1.872-0.288-2.609-0.816c-1.295-0.944-1.951-2.24-1.951-3.856
			c0-1.248,0.48-2.432,1.36-3.312c0.88-0.88,2.064-1.36,3.312-1.36c1.695,0,3.151,0.816,4.016,2.24
			c0.416,0.688,0.64,1.552,0.64,2.496c0,1.408-0.56,2.624-1.52,3.392L643.988,50.641z M648.805,55.824l-2.177-2.352
			c1.345-1.072,2.049-2.624,2.049-4.448c0-1.744-0.673-3.296-1.904-4.416c-1.153-1.04-2.592-1.584-4.224-1.584
			c-1.633,0-3.153,0.608-4.32,1.744c-1.152,1.136-1.792,2.64-1.792,4.24c0,1.984,0.848,3.664,2.448,4.848
			c0.991,0.736,2.176,1.12,3.472,1.12c1.263,0,2.336-0.256,3.247-0.784l1.521,1.632H648.805z M628.612,51.168
			c0,1.648-0.896,2.608-2.336,2.608c-1.521,0-2.384-0.976-2.384-2.704c0-1.632,0.863-2.576,2.336-2.576
			C627.604,48.497,628.612,49.504,628.612,51.168 M629.828,47.568h-1.248v1.328c-0.527-1.04-1.439-1.584-2.624-1.584
			c-2,0-3.359,1.424-3.359,3.808c0,2.32,1.376,3.824,3.424,3.824c1.104,0,2.032-0.56,2.592-1.584v1.2
			c0,0.656-0.032,1.184-0.304,1.632c-0.368,0.624-1.072,0.944-2.048,0.944c-1.376,0-2.128-0.624-2.128-1.68V55.36h-1.377
			c0.049,1.792,1.297,2.848,3.488,2.848c1.265,0,2.225-0.368,2.88-1.072c0.673-0.72,0.704-1.52,0.704-2.544V47.568z M619.604,54.72
			h1.216v-4.864c0-1.616-0.96-2.544-2.544-2.544c-1.088,0-1.92,0.464-2.544,1.456c-0.416-0.96-1.248-1.456-2.4-1.456
			c-1.071,0-1.888,0.448-2.464,1.36v-1.104h-1.216v7.152h1.216v-3.696c0-0.176-0.016-0.352-0.016-0.512
			c0-0.544,0.063-0.992,0.368-1.376c0.384-0.496,0.976-0.768,1.632-0.768c1.216,0,1.775,0.704,1.775,2.144v4.208h1.217v-3.696
			c0-0.16-0.017-0.304-0.017-0.448c0-0.592,0.08-1.04,0.384-1.44c0.385-0.496,0.96-0.768,1.616-0.768
			c1.216,0,1.776,0.704,1.776,2.144V54.72z M603.78,55.024c2.4,0,3.952-2.128,3.952-5.936s-1.536-5.92-3.984-5.92
			c-2.384,0-3.951,2.144-3.951,5.92S601.364,55.024,603.78,55.024 M603.765,53.904c-1.584,0-2.561-1.728-2.561-4.832
			c0-3.088,0.977-4.8,2.561-4.8c1.664,0,2.56,1.648,2.56,4.832C606.324,52.272,605.429,53.904,603.765,53.904 M594.42,55.024
			c2.4,0,3.952-2.128,3.952-5.936s-1.536-5.92-3.983-5.92c-2.385,0-3.952,2.144-3.952,5.92S592.004,55.024,594.42,55.024
			 M594.404,53.904c-1.584,0-2.56-1.728-2.56-4.832c0-3.088,0.976-4.8,2.56-4.8c1.664,0,2.561,1.648,2.561,4.832
			C596.965,52.272,596.068,53.904,594.404,53.904 M586.036,54.72h1.345v-2.464h1.344v-1.104h-1.344v-7.984h-0.576l-6.128,9.088
			h5.359V54.72z M586.036,51.152h-3.344l3.344-5.024V51.152z M569.572,45.185h-0.928v4.304h-4.225V50.4h4.225v4.32h0.928V50.4h4.208
			v-0.912h-4.208V45.185z"/>
		<path clip-path="url(#SVGID_34_)" fill="#F9A25E" d="M693.859,25.28l4.432,11.888l2.977-8.848l2.992,8.848l4.432-11.888h-1.472
			l-2.912,8.416l-3.057-8.864l-3.023,8.864l-2.896-8.416H693.859z M688.531,32.641h-1.68l2.336,2.528
			c-0.641,0.352-1.36,0.512-2.208,0.512c-0.977,0-1.872-0.288-2.608-0.816c-1.296-0.944-1.952-2.24-1.952-3.856
			c0-1.248,0.48-2.432,1.36-3.312c0.88-0.88,2.064-1.36,3.312-1.36c1.695,0,3.151,0.816,4.016,2.24
			c0.416,0.688,0.64,1.552,0.64,2.496c0,1.408-0.56,2.624-1.52,3.392L688.531,32.641z M693.348,37.824l-2.176-2.352
			c1.344-1.072,2.048-2.624,2.048-4.448c0-1.744-0.673-3.296-1.904-4.416c-1.152-1.04-2.592-1.584-4.224-1.584
			c-1.633,0-3.152,0.608-4.32,1.744c-1.152,1.136-1.792,2.64-1.792,4.24c0,1.984,0.848,3.664,2.448,4.848
			c0.991,0.736,2.176,1.12,3.472,1.12c1.264,0,2.336-0.256,3.248-0.784l1.52,1.632H693.348z M678.563,35.424h-4.336l1.792-1.936
			c1.84-2,2.896-3.504,2.896-5.152c0-1.968-1.312-3.168-3.552-3.168c-2.256,0-3.584,1.264-3.584,3.424
			c0,0.096,0.016,0.208,0.016,0.304h1.28v-0.128c0-1.52,0.8-2.352,2.24-2.352c1.376,0,2.256,0.848,2.256,2
			c0,1.488-1.424,3.008-3.488,5.44l-2.416,2.864h6.896V35.424z M663.795,33.168c0,1.648-0.896,2.608-2.336,2.608
			c-1.52,0-2.384-0.976-2.384-2.704c0-1.632,0.864-2.576,2.336-2.576C662.787,30.497,663.795,31.504,663.795,33.168 M665.012,29.568
			h-1.248v1.328c-0.528-1.04-1.44-1.584-2.624-1.584c-2,0-3.36,1.424-3.36,3.808c0,2.32,1.376,3.824,3.424,3.824
			c1.104,0,2.032-0.56,2.592-1.584v1.2c0,0.656-0.031,1.184-0.304,1.632c-0.368,0.624-1.072,0.944-2.048,0.944
			c-1.376,0-2.128-0.624-2.128-1.68V37.36h-1.376c0.048,1.792,1.296,2.848,3.488,2.848c1.264,0,2.224-0.368,2.88-1.072
			c0.672-0.72,0.704-1.52,0.704-2.544V29.568z M654.787,36.72h1.216v-4.864c0-1.616-0.96-2.544-2.544-2.544
			c-1.088,0-1.92,0.464-2.544,1.456c-0.416-0.96-1.248-1.456-2.399-1.456c-1.072,0-1.889,0.448-2.464,1.36v-1.104h-1.217v7.152
			h1.217v-3.696c0-0.176-0.017-0.352-0.017-0.512c0-0.544,0.064-0.992,0.368-1.376c0.384-0.496,0.976-0.768,1.632-0.768
			c1.216,0,1.776,0.704,1.776,2.144v4.208h1.216v-3.696c0-0.16-0.016-0.304-0.016-0.448c0-0.592,0.08-1.04,0.384-1.44
			c0.384-0.496,0.96-0.768,1.616-0.768c1.216,0,1.775,0.704,1.775,2.144V36.72z M638.963,37.024c2.4,0,3.952-2.128,3.952-5.936
			s-1.536-5.92-3.983-5.92c-2.385,0-3.952,2.144-3.952,5.92S636.547,37.024,638.963,37.024 M638.947,35.904
			c-1.584,0-2.56-1.728-2.56-4.832c0-3.088,0.976-4.8,2.56-4.8c1.664,0,2.561,1.648,2.561,4.832
			C641.508,34.272,640.611,35.904,638.947,35.904 M629.604,37.024c2.399,0,3.952-2.128,3.952-5.936s-1.536-5.92-3.984-5.92
			c-2.384,0-3.952,2.144-3.952,5.92S627.188,37.024,629.604,37.024 M629.588,35.904c-1.585,0-2.561-1.728-2.561-4.832
			c0-3.088,0.976-4.8,2.561-4.8c1.663,0,2.56,1.648,2.56,4.832C632.147,34.272,631.251,35.904,629.588,35.904 M623.3,35.424h-4.337
			l1.793-1.936c1.84-2,2.896-3.504,2.896-5.152c0-1.968-1.312-3.168-3.552-3.168c-2.256,0-3.584,1.264-3.584,3.424
			c0,0.096,0.016,0.208,0.016,0.304h1.28v-0.128c0-1.52,0.8-2.352,2.24-2.352c1.376,0,2.256,0.848,2.256,2
			c0,1.488-1.424,3.008-3.488,5.44l-2.416,2.864h6.896V35.424z M608.563,33.216c0,1.648-0.896,2.592-2.336,2.592
			c-1.521,0-2.384-0.976-2.384-2.704c0-1.632,0.863-2.576,2.336-2.576C607.556,30.528,608.563,31.552,608.563,33.216
			 M609.747,29.568h-1.216v1.344c-0.544-1.056-1.424-1.6-2.624-1.6c-2,0-3.36,1.456-3.36,3.856c0,2.336,1.377,3.856,3.425,3.856
			c1.104,0,2.016-0.56,2.592-1.6v1.296h1.184V29.568z M599.076,26.128c0,0.512,0.4,0.896,0.896,0.896s0.896-0.384,0.896-0.88
			s-0.399-0.912-0.896-0.912S599.076,25.632,599.076,26.128 M599.364,36.72h1.216v-7.152h-1.216V36.72z M591.477,36.72h6.224v-1.072
			h-4.063l4.096-6.08h-6v1.072h3.84L591.477,36.72z M588.948,36.72h1.216v-4.864c0-1.616-0.96-2.544-2.544-2.544
			c-1.088,0-1.92,0.464-2.544,1.456c-0.416-0.96-1.248-1.456-2.399-1.456c-1.072,0-1.889,0.448-2.464,1.36v-1.104h-1.217v7.152
			h1.217v-3.696c0-0.176-0.017-0.352-0.017-0.512c0-0.544,0.064-0.992,0.368-1.376c0.384-0.496,0.976-0.768,1.632-0.768
			c1.216,0,1.776,0.704,1.776,2.144v4.208h1.216v-3.696c0-0.16-0.017-0.304-0.017-0.448c0-0.592,0.08-1.04,0.385-1.44
			c0.384-0.496,0.96-0.768,1.615-0.768c1.217,0,1.776,0.704,1.776,2.144V36.72z M574.98,26.128c0,0.512,0.4,0.896,0.896,0.896
			c0.496,0,0.896-0.384,0.896-0.88s-0.4-0.912-0.896-0.912C575.381,25.232,574.98,25.632,574.98,26.128 M575.269,36.72h1.216v-7.152
			h-1.216V36.72z M573.093,28.017V26.24c-1.185-0.816-2.4-1.232-3.761-1.232c-1.68,0-3.088,0.56-4.256,1.68
			c-1.2,1.168-1.792,2.592-1.792,4.368c0,2.032,0.912,3.76,2.576,4.912c0.992,0.688,2.16,1.056,3.376,1.056
			c1.392,0,2.72-0.432,3.856-1.248v-1.808c-1.04,1.216-2.305,1.808-3.744,1.808c-1.552,0-2.944-0.736-3.856-2.032
			c-0.527-0.752-0.784-1.648-0.784-2.704c0-1.344,0.433-2.464,1.312-3.376c0.848-0.88,2.063-1.392,3.264-1.392
			C570.772,26.272,571.988,26.816,573.093,28.017"/>
	</g>
	<line clip-path="url(#SVGID_2_)" fill="none" stroke="#F9A25E" stroke-width="2" x1="503.244" y1="40" x2="548.244" y2="40"/>
	<g clip-path="url(#SVGID_2_)">
		<defs>
			<rect id="SVGID_35_" x="-9" y="-1" width="930" height="489.457"/>
		</defs>
		<clipPath id="SVGID_36_">
			<use xlink:href="#SVGID_35_"  overflow="visible"/>
		</clipPath>
		<path clip-path="url(#SVGID_36_)" fill="#808285" d="M784.012,485.277c0,0.479,0.374,0.854,0.869,0.854
			c0.494,0,0.885-0.375,0.885-0.854c0-0.48-0.391-0.869-0.885-0.869C784.401,484.408,784.012,484.797,784.012,485.277
			 M778.057,477.672l1.71,3.947h-3.421L778.057,477.672z M778.057,474.854l-4.859,11.143h1.38l1.394-3.285h4.186l1.394,3.285h1.38
			L778.057,474.854z M767.812,484.873c0.523,0.945,1.393,1.408,2.639,1.408c1.486,0,2.444-0.883,2.444-2.129
			c0-1.094-0.645-1.574-1.949-1.994c-1.111-0.361-1.727-0.451-1.727-1.156c0-0.586,0.466-1.006,1.142-1.006
			c0.705,0,1.261,0.346,1.531,0.961l0.928-0.57c-0.359-0.854-1.229-1.334-2.384-1.334c-1.427,0-2.369,0.854-2.369,2.023
			c0,1.322,0.987,1.607,2.639,2.176c0.706,0.24,1.051,0.51,1.051,1.021c0,0.586-0.495,1.006-1.261,1.006s-1.336-0.346-1.71-1.066
			L767.812,484.873z M762.365,481.182h0.976c1.11,0,1.981-0.029,2.701-0.539c0.674-0.479,1.093-1.365,1.093-2.414
			c0-1.053-0.419-1.938-1.093-2.416c-0.72-0.51-1.605-0.539-2.701-0.539h-2.249v10.723h1.273V481.182z M762.365,480.029v-3.588
			h0.615c1.86,0,2.776,0.301,2.776,1.861c0,1.486-0.931,1.727-2.776,1.727H762.365z M753.742,481.889h-4.082
			c0.12-1.141,0.946-1.848,2.041-1.848C752.917,480.041,753.667,480.703,753.742,481.889 M754.97,482.816v-0.225
			c0-2.221-1.258-3.553-3.224-3.553c-1.951,0-3.344,1.467-3.344,3.582c0,2.191,1.378,3.66,3.419,3.66
			c1.381,0,2.43-0.613,3.104-1.828l-0.867-0.586c-0.556,0.975-1.275,1.457-2.177,1.457c-1.29,0-2.221-0.947-2.221-2.402v-0.105
			H754.97z M744.531,486.416l3.299-7.123h-1.289l-2.024,4.68l-2.01-4.68h-1.29L744.531,486.416z M738.562,476.068
			c0,0.479,0.375,0.838,0.84,0.838c0.464,0,0.839-0.359,0.839-0.824s-0.375-0.854-0.839-0.854
			C738.938,475.229,738.562,475.604,738.562,476.068 M738.833,485.996h1.138v-6.703h-1.138V485.996z M735.144,480.236v5.76h1.138
			v-5.76h1.26v-0.943h-1.26v-2.699h-1.138v2.699h-1.23v0.943H735.144z M733.446,484.408c-0.705,0.51-1.351,0.766-2.07,0.766
			c-1.395,0-2.399-1.082-2.399-2.432c0-1.59,1.02-2.58,2.489-2.58c0.66,0,1.29,0.209,1.86,0.584v-1.229
			c-0.615-0.299-1.335-0.465-2.085-0.465c-2.01,0-3.493,1.469-3.493,3.66c0,2.115,1.363,3.568,3.448,3.568
			c0.87,0,1.635-0.18,2.25-0.539V484.408z M724.973,482.713c0,1.545-0.84,2.432-2.19,2.432c-1.426,0-2.236-0.916-2.236-2.537
			c0-1.531,0.811-2.416,2.191-2.416C724.028,480.191,724.973,481.152,724.973,482.713 M726.081,479.293h-1.138v1.258
			c-0.51-0.988-1.336-1.498-2.461-1.498c-1.876,0-3.149,1.363-3.149,3.615c0,2.191,1.288,3.613,3.209,3.613
			c1.035,0,1.892-0.523,2.431-1.498v1.213h1.108V479.293z M712.118,482.684c0,1.59-0.87,2.49-2.251,2.49
			c-1.335,0-2.176-0.961-2.176-2.641c0-1.486,0.826-2.342,2.161-2.342C711.203,480.191,712.118,481.166,712.118,482.684
			 M713.227,474.645h-1.139v5.906c-0.51-0.988-1.335-1.498-2.445-1.498c-1.876,0-3.164,1.363-3.164,3.615
			c0,2.191,1.288,3.613,3.209,3.613c1.035,0,1.905-0.539,2.431-1.498v1.213h1.108V474.645z M698.708,485.996h1.138v-3.463
			c0-0.736,0-1.291,0.392-1.771c0.375-0.465,0.96-0.721,1.635-0.721c1.201,0,1.786,0.66,1.786,2.012v3.943h1.138v-4.559
			c0-1.516-0.958-2.385-2.518-2.385c-1.051,0-1.861,0.404-2.433,1.273v-1.033h-1.138V485.996z M695.378,482.713
			c0,1.545-0.84,2.432-2.189,2.432c-1.427,0-2.236-0.916-2.236-2.537c0-1.531,0.81-2.416,2.191-2.416
			C694.434,480.191,695.378,481.152,695.378,482.713 M696.487,479.293h-1.14v1.258c-0.51-0.988-1.334-1.498-2.461-1.498
			c-1.875,0-3.147,1.363-3.147,3.615c0,2.191,1.288,3.613,3.208,3.613c1.036,0,1.891-0.523,2.431-1.498v1.213h1.109V479.293z
			 M682.283,480.043l-1.53-0.676c-0.976-0.434-1.44-0.961-1.44-1.725c0-0.916,0.675-1.561,1.636-1.561c0.765,0,1.35,0.42,1.815,1.23
			l1.05-0.676c-0.525-1.064-1.485-1.617-2.775-1.617c-1.786,0-3.014,1.137-3.014,2.637c0,1.307,0.688,2.236,2.112,2.836l1.307,0.555
			c1.109,0.48,1.666,1.186,1.666,2.146c0,1.17-0.856,1.996-2.146,1.996c-1.081,0-1.815-0.676-2.13-1.982l-1.154,0.572
			c0.405,1.59,1.589,2.488,3.284,2.488c2.071,0,3.435-1.318,3.435-3.285C684.397,481.633,683.678,480.658,682.283,480.043
			 M672.473,477.672l1.71,3.947h-3.419L672.473,477.672z M672.473,474.854l-4.858,11.143h1.379l1.396-3.285h4.184l1.395,3.285h1.381
			L672.473,474.854z M661.734,481.889h-4.082c0.12-1.141,0.945-1.848,2.041-1.848C660.908,480.041,661.659,480.703,661.734,481.889
			 M662.962,482.816v-0.225c0-2.221-1.258-3.553-3.224-3.553c-1.951,0-3.344,1.467-3.344,3.582c0,2.191,1.378,3.66,3.419,3.66
			c1.381,0,2.43-0.613,3.104-1.828l-0.869-0.586c-0.554,0.975-1.274,1.457-2.175,1.457c-1.291,0-2.221-0.947-2.221-2.402v-0.105
			H662.962z M652.523,486.416l3.299-7.123h-1.29l-2.024,4.68l-2.009-4.68h-1.29L652.523,486.416z M646.554,476.068
			c0,0.479,0.375,0.838,0.84,0.838c0.464,0,0.839-0.359,0.839-0.824s-0.375-0.854-0.839-0.854
			C646.929,475.229,646.554,475.604,646.554,476.068 M646.824,485.996h1.138v-6.703h-1.138V485.996z M643.134,480.236v5.76h1.139
			v-5.76h1.26v-0.943h-1.26v-2.699h-1.139v2.699h-1.229v0.943H643.134z M641.438,484.408c-0.705,0.51-1.351,0.766-2.07,0.766
			c-1.396,0-2.4-1.082-2.4-2.432c0-1.59,1.021-2.58,2.49-2.58c0.66,0,1.29,0.209,1.86,0.584v-1.229
			c-0.615-0.299-1.335-0.465-2.085-0.465c-2.011,0-3.494,1.469-3.494,3.66c0,2.115,1.364,3.568,3.449,3.568
			c0.87,0,1.635-0.18,2.25-0.539V484.408z M632.965,482.713c0,1.545-0.841,2.432-2.19,2.432c-1.427,0-2.236-0.916-2.236-2.537
			c0-1.531,0.81-2.416,2.191-2.416C632.02,480.191,632.965,481.152,632.965,482.713 M634.073,479.293h-1.138v1.258
			c-0.512-0.988-1.336-1.498-2.461-1.498c-1.877,0-3.149,1.363-3.149,3.615c0,2.191,1.288,3.613,3.209,3.613
			c1.035,0,1.89-0.523,2.431-1.498v1.213h1.108V479.293z M618.851,488.129l0.839,0.328l1.799-3.885l-1.244-0.434L618.851,488.129z
			 M613.344,477.672l1.709,3.947h-3.419L613.344,477.672z M613.344,474.854l-4.858,11.143h1.379l1.395-3.285h4.185l1.395,3.285h1.38
			L613.344,474.854z M602.005,485.996h1.273v-5.115h0.149l3.916,5.115h1.619l-4.094-5.115h0.225c1.892,0,2.895-0.928,2.895-2.684
			c0-1.051-0.389-1.906-1.003-2.385c-0.66-0.51-1.441-0.539-2.461-0.539h-2.52V485.996z M603.278,476.352h0.946
			c1.695,0,2.506,0.301,2.506,1.861c0,1.486-0.825,1.727-2.506,1.727h-0.946V476.352z M594.655,481.889h-4.082
			c0.12-1.141,0.946-1.848,2.041-1.848C593.83,480.041,594.58,480.703,594.655,481.889 M595.883,482.816v-0.225
			c0-2.221-1.258-3.553-3.224-3.553c-1.951,0-3.344,1.467-3.344,3.582c0,2.191,1.378,3.66,3.419,3.66
			c1.381,0,2.43-0.613,3.104-1.828l-0.868-0.586c-0.555,0.975-1.274,1.457-2.176,1.457c-1.29,0-2.221-0.947-2.221-2.402v-0.105
			H595.883z M585.444,486.416l3.299-7.123h-1.289l-2.024,4.68l-2.01-4.68h-1.29L585.444,486.416z M579.476,476.068
			c0,0.479,0.375,0.838,0.839,0.838c0.465,0,0.839-0.359,0.839-0.824s-0.374-0.854-0.839-0.854
			C579.851,475.229,579.476,475.604,579.476,476.068 M579.745,485.996h1.138v-6.703h-1.138V485.996z M576.057,480.236v5.76h1.138
			v-5.76h1.26v-0.943h-1.26v-2.699h-1.138v2.699h-1.23v0.943H576.057z M574.359,484.408c-0.705,0.51-1.351,0.766-2.07,0.766
			c-1.395,0-2.4-1.082-2.4-2.432c0-1.59,1.021-2.58,2.49-2.58c0.66,0,1.29,0.209,1.86,0.584v-1.229
			c-0.615-0.299-1.335-0.465-2.085-0.465c-2.01,0-3.493,1.469-3.493,3.66c0,2.115,1.363,3.568,3.448,3.568
			c0.87,0,1.635-0.18,2.25-0.539V484.408z M565.886,482.713c0,1.545-0.84,2.432-2.19,2.432c-1.426,0-2.236-0.916-2.236-2.537
			c0-1.531,0.811-2.416,2.191-2.416C564.941,480.191,565.886,481.152,565.886,482.713 M566.994,479.293h-1.138v1.258
			c-0.511-0.988-1.336-1.498-2.461-1.498c-1.876,0-3.149,1.363-3.149,3.615c0,2.191,1.288,3.613,3.209,3.613
			c1.035,0,1.891-0.523,2.431-1.498v1.213h1.108V479.293z M553.526,481.889h-4.082c0.12-1.141,0.946-1.848,2.041-1.848
			C552.701,480.041,553.451,480.703,553.526,481.889 M554.754,482.816v-0.225c0-2.221-1.258-3.553-3.224-3.553
			c-1.951,0-3.344,1.467-3.344,3.582c0,2.191,1.378,3.66,3.419,3.66c1.381,0,2.43-0.613,3.104-1.828l-0.868-0.586
			c-0.555,0.975-1.274,1.457-2.176,1.457c-1.29,0-2.221-0.947-2.221-2.402v-0.105H554.754z M543.596,485.996h1.139v-3.268
			c0-1.758,0.6-2.627,1.814-2.627c0.21,0,0.45,0.045,0.705,0.135l0.391-1.033c-0.256-0.09-0.511-0.135-0.78-0.135
			c-1.021,0-1.65,0.479-2.25,1.619v-1.395h-1.019V485.996z M540.701,481.889h-4.082c0.12-1.141,0.946-1.848,2.041-1.848
			C539.876,480.041,540.626,480.703,540.701,481.889 M541.93,482.816v-0.225c0-2.221-1.259-3.553-3.225-3.553
			c-1.951,0-3.344,1.467-3.344,3.582c0,2.191,1.378,3.66,3.419,3.66c1.381,0,2.43-0.613,3.104-1.828l-0.867-0.586
			c-0.556,0.975-1.275,1.457-2.177,1.457c-1.29,0-2.221-0.947-2.221-2.402v-0.105H541.93z M531.49,486.416l3.299-7.123H533.5
			l-2.024,4.68l-2.01-4.68h-1.29L531.49,486.416z M526.407,481.889h-4.082c0.12-1.141,0.945-1.848,2.041-1.848
			C525.581,480.041,526.331,480.703,526.407,481.889 M527.635,482.816v-0.225c0-2.221-1.258-3.553-3.224-3.553
			c-1.951,0-3.344,1.467-3.344,3.582c0,2.191,1.378,3.66,3.419,3.66c1.38,0,2.43-0.613,3.104-1.828l-0.869-0.586
			c-0.555,0.975-1.274,1.457-2.175,1.457c-1.291,0-2.221-0.947-2.221-2.402v-0.105H527.635z M514.917,484.873
			c0.524,0.945,1.394,1.408,2.64,1.408c1.484,0,2.443-0.883,2.443-2.129c0-1.094-0.644-1.574-1.949-1.994
			c-1.11-0.361-1.726-0.451-1.726-1.156c0-0.586,0.465-1.006,1.141-1.006c0.705,0,1.261,0.346,1.53,0.961l0.929-0.57
			c-0.359-0.854-1.229-1.334-2.384-1.334c-1.426,0-2.369,0.854-2.369,2.023c0,1.322,0.988,1.607,2.64,2.176
			c0.705,0.24,1.05,0.51,1.05,1.021c0,0.586-0.495,1.006-1.26,1.006c-0.767,0-1.336-0.346-1.711-1.066L514.917,484.873z
			 M503.485,482.668c0-1.426,1.08-2.537,2.431-2.537c1.335,0,2.416,1.111,2.416,2.537c0,1.424-1.081,2.535-2.416,2.535
			C504.58,485.203,503.485,484.092,503.485,482.668 M502.272,482.668c0,0.975,0.358,1.846,1.062,2.551
			c0.69,0.689,1.59,1.062,2.581,1.062c0.976,0,1.876-0.389,2.581-1.078c0.688-0.674,1.063-1.561,1.063-2.535
			s-0.375-1.877-1.063-2.551c-0.705-0.689-1.591-1.064-2.581-1.064c-0.991,0-1.891,0.359-2.581,1.049
			C502.631,480.791,502.272,481.693,502.272,482.668 M499.183,480.236v5.76h1.138v-5.76h1.26v-0.943h-1.26v-2.699h-1.138v2.699
			h-1.23v0.943H499.183z M491.772,481.889h-4.082c0.12-1.141,0.945-1.848,2.041-1.848
			C490.947,480.041,491.697,480.703,491.772,481.889 M493,482.816v-0.225c0-2.221-1.258-3.553-3.224-3.553
			c-1.951,0-3.344,1.467-3.344,3.582c0,2.191,1.378,3.66,3.419,3.66c1.381,0,2.43-0.613,3.104-1.828l-0.868-0.586
			c-0.555,0.975-1.274,1.457-2.176,1.457c-1.29,0-2.221-0.947-2.221-2.402v-0.105H493z M483.387,480.236v5.76h1.139v-5.76h1.26
			v-0.943h-1.26v-2.699h-1.139v2.699h-1.229v0.943H483.387z M479.877,482.713c0,1.545-0.84,2.432-2.189,2.432
			c-1.427,0-2.236-0.916-2.236-2.537c0-1.531,0.81-2.416,2.191-2.416C478.933,480.191,479.877,481.152,479.877,482.713
			 M480.986,479.293h-1.138v1.258c-0.512-0.988-1.337-1.498-2.463-1.498c-1.875,0-3.147,1.363-3.147,3.615
			c0,2.191,1.288,3.613,3.208,3.613c1.036,0,1.891-0.523,2.431-1.498v1.213h1.109V479.293z M469.573,485.996h1.138v-3.268
			c0-1.758,0.601-2.627,1.815-2.627c0.21,0,0.45,0.045,0.705,0.135l0.39-1.033c-0.255-0.09-0.51-0.135-0.78-0.135
			c-1.02,0-1.649,0.479-2.25,1.619v-1.395h-1.018V485.996z M466.678,481.889h-4.082c0.12-1.141,0.945-1.848,2.041-1.848
			C465.853,480.041,466.604,480.703,466.678,481.889 M467.906,482.816v-0.225c0-2.221-1.258-3.553-3.224-3.553
			c-1.951,0-3.345,1.467-3.345,3.582c0,2.191,1.378,3.66,3.419,3.66c1.38,0,2.431-0.613,3.104-1.828l-0.869-0.586
			c-0.554,0.975-1.275,1.457-2.175,1.457c-1.291,0-2.222-0.947-2.222-2.402v-0.105H467.906z M458.548,482.684
			c0,1.59-0.871,2.49-2.251,2.49c-1.336,0-2.176-0.961-2.176-2.641c0-1.486,0.825-2.342,2.161-2.342
			C457.632,480.191,458.548,481.166,458.548,482.684 M459.656,474.645h-1.138v5.906c-0.511-0.988-1.336-1.498-2.446-1.498
			c-1.876,0-3.164,1.363-3.164,3.615c0,2.191,1.288,3.613,3.209,3.613c1.035,0,1.906-0.539,2.431-1.498v1.213h1.108V474.645z
			 M445.631,482.668c0-1.426,1.081-2.537,2.432-2.537c1.336,0,2.416,1.111,2.416,2.537c0,1.424-1.08,2.535-2.416,2.535
			C446.728,485.203,445.631,484.092,445.631,482.668 M444.418,482.668c0,0.975,0.359,1.846,1.063,2.551
			c0.689,0.689,1.591,1.062,2.581,1.062c0.975,0,1.876-0.389,2.581-1.078c0.688-0.674,1.062-1.561,1.062-2.535
			s-0.374-1.877-1.062-2.551c-0.705-0.689-1.592-1.064-2.581-1.064c-0.99,0-1.892,0.359-2.581,1.049
			C444.777,480.791,444.418,481.693,444.418,482.668 M441.644,485.996h1.138v-4.559c0-1.516-0.898-2.385-2.384-2.385
			c-1.021,0-1.8,0.436-2.387,1.363c-0.389-0.898-1.168-1.363-2.249-1.363c-1.005,0-1.77,0.42-2.311,1.273v-1.033h-1.138v6.703h1.138
			v-3.463c0-0.166-0.015-0.33-0.015-0.48c0-0.512,0.06-0.932,0.345-1.291c0.361-0.465,0.916-0.721,1.531-0.721
			c1.141,0,1.666,0.66,1.666,2.012v3.943h1.138v-3.463c0-0.15-0.015-0.285-0.015-0.42c0-0.557,0.074-0.977,0.359-1.352
			c0.361-0.465,0.901-0.721,1.517-0.721c1.141,0,1.666,0.66,1.666,2.012V485.996z M419.684,485.996h1.138v-3.463
			c0-0.736,0-1.291,0.391-1.771c0.375-0.465,0.96-0.721,1.636-0.721c1.2,0,1.785,0.66,1.785,2.012v3.943h1.139v-4.559
			c0-1.516-0.958-2.385-2.519-2.385c-1.051,0-1.86,0.404-2.446,1.273v-5.682h-1.123V485.996z M416.053,480.236v5.76h1.14v-5.76h1.26
			v-0.943h-1.26v-2.699h-1.14v2.699h-1.229v0.943H416.053z M412.109,476.068c0,0.479,0.374,0.838,0.839,0.838
			c0.464,0,0.839-0.359,0.839-0.824s-0.375-0.854-0.839-0.854C412.483,475.229,412.109,475.604,412.109,476.068 M412.379,485.996
			h1.139v-6.703h-1.139V485.996z M406.123,479.053h-0.18l-2.04,4.814l-1.784-4.574h-1.275l2.984,7.123l2.205-5.145l2.205,5.145
			l2.984-7.123h-1.29l-1.8,4.574L406.123,479.053z M390.93,484.873c0.524,0.945,1.393,1.408,2.639,1.408
			c1.486,0,2.443-0.883,2.443-2.129c0-1.094-0.644-1.574-1.948-1.994c-1.11-0.361-1.727-0.451-1.727-1.156
			c0-0.586,0.465-1.006,1.142-1.006c0.705,0,1.261,0.346,1.53,0.961l0.929-0.57c-0.359-0.854-1.229-1.334-2.385-1.334
			c-1.426,0-2.368,0.854-2.368,2.023c0,1.322,0.987,1.607,2.639,2.176c0.706,0.24,1.051,0.51,1.051,1.021
			c0,0.586-0.495,1.006-1.261,1.006s-1.336-0.346-1.71-1.066L390.93,484.873z M388.004,480.236v5.76h1.139v-5.76h1.26v-0.943h-1.26
			v-2.699h-1.139v2.699h-1.229v0.943H388.004z M384.329,485.996h1.138v-11.352h-1.138V485.996z M377.188,479.293h-1.139v4.004
			c0,1.967,1.064,2.984,3.015,2.984c2.011,0,3.059-1.047,3.059-3.074v-3.914h-1.138v3.299c0,1.771-0.42,2.598-1.892,2.598
			c-1.47,0-1.905-0.826-1.905-2.598V479.293z M372.765,482.684c0,1.59-0.87,2.49-2.25,2.49c-1.337,0-2.177-0.961-2.177-2.641
			c0-1.486,0.825-2.342,2.161-2.342C371.85,480.191,372.765,481.166,372.765,482.684 M373.873,474.645h-1.139v5.906
			c-0.51-0.988-1.335-1.498-2.446-1.498c-1.875,0-3.164,1.363-3.164,3.615c0,2.191,1.289,3.613,3.209,3.613
			c1.036,0,1.906-0.539,2.432-1.498v1.213h1.108V474.645z M364.306,482.713c0,1.545-0.842,2.432-2.191,2.432
			c-1.426,0-2.236-0.916-2.236-2.537c0-1.531,0.811-2.416,2.191-2.416C363.359,480.191,364.306,481.152,364.306,482.713
			 M365.413,479.293h-1.138v1.258c-0.511-0.988-1.336-1.498-2.461-1.498c-1.876,0-3.149,1.363-3.149,3.615
			c0,2.191,1.288,3.613,3.209,3.613c1.035,0,1.891-0.523,2.432-1.498v1.213h1.107V479.293z M350.865,485.996h1.138v-5.76h1.785
			v-0.943h-1.785v-1.785c0-1.291,0.03-1.906,0.886-1.906c0.3,0,0.6,0.074,0.899,0.24v-1.184c-0.314-0.105-0.645-0.15-0.99-0.15
			c-1.604,0-1.933,0.838-1.933,2.85v1.936h-1.29v0.943h1.29V485.996z M342.778,482.668c0-1.426,1.081-2.537,2.431-2.537
			c1.336,0,2.416,1.111,2.416,2.537c0,1.424-1.08,2.535-2.416,2.535C343.874,485.203,342.778,484.092,342.778,482.668
			 M341.565,482.668c0,0.975,0.359,1.846,1.062,2.551c0.69,0.689,1.591,1.062,2.581,1.062c0.977,0,1.876-0.389,2.581-1.078
			c0.689-0.674,1.063-1.561,1.063-2.535s-0.374-1.877-1.063-2.551c-0.705-0.689-1.59-1.064-2.581-1.064
			c-0.99,0-1.891,0.359-2.581,1.049C341.925,480.791,341.565,481.693,341.565,482.668 M334.125,480.236v5.76h1.139v-5.76h1.26
			v-0.943h-1.26v-2.699h-1.139v2.699h-1.229v0.943H334.125z M325.665,485.996h1.14v-3.463c0-0.736,0-1.291,0.39-1.771
			c0.375-0.465,0.96-0.721,1.636-0.721c1.2,0,1.785,0.66,1.785,2.012v3.943h1.139v-4.559c0-1.516-0.959-2.385-2.519-2.385
			c-1.051,0-1.861,0.404-2.431,1.273v-1.033h-1.14V485.996z M322.786,481.889h-4.082c0.12-1.141,0.945-1.848,2.041-1.848
			C321.96,480.041,322.711,480.703,322.786,481.889 M324.015,482.816v-0.225c0-2.221-1.259-3.553-3.225-3.553
			c-1.951,0-3.344,1.467-3.344,3.582c0,2.191,1.378,3.66,3.419,3.66c1.38,0,2.43-0.613,3.104-1.828l-0.868-0.586
			c-0.556,0.975-1.275,1.457-2.176,1.457c-1.291,0-2.221-0.947-2.221-2.402v-0.105H324.015z M314.716,485.996h1.139v-4.559
			c0-1.516-0.899-2.385-2.385-2.385c-1.02,0-1.801,0.436-2.386,1.363c-0.389-0.898-1.168-1.363-2.249-1.363
			c-1.005,0-1.771,0.42-2.311,1.273v-1.033h-1.139v6.703h1.139v-3.463c0-0.166-0.016-0.33-0.016-0.48
			c0-0.512,0.061-0.932,0.346-1.291c0.359-0.465,0.916-0.721,1.53-0.721c1.141,0,1.666,0.66,1.666,2.012v3.943h1.139v-3.463
			c0-0.15-0.016-0.285-0.016-0.42c0-0.557,0.075-0.977,0.36-1.352c0.36-0.465,0.9-0.721,1.516-0.721c1.141,0,1.666,0.66,1.666,2.012
			V485.996z M301.756,480.236v5.76h1.139v-5.76h1.26v-0.943h-1.26v-2.699h-1.139v2.699h-1.229v0.943H301.756z M298.246,482.713
			c0,1.545-0.84,2.432-2.191,2.432c-1.425,0-2.235-0.916-2.235-2.537c0-1.531,0.811-2.416,2.19-2.416
			C297.301,480.191,298.246,481.152,298.246,482.713 M299.354,479.293h-1.139v1.258c-0.51-0.988-1.335-1.498-2.461-1.498
			c-1.876,0-3.148,1.363-3.148,3.615c0,2.191,1.288,3.613,3.209,3.613c1.036,0,1.891-0.523,2.431-1.498v1.213h1.108V479.293z
			 M290.236,481.889h-4.082c0.12-1.141,0.946-1.848,2.041-1.848C289.411,480.041,290.161,480.703,290.236,481.889 M291.464,482.816
			v-0.225c0-2.221-1.258-3.553-3.224-3.553c-1.951,0-3.344,1.467-3.344,3.582c0,2.191,1.378,3.66,3.419,3.66
			c1.381,0,2.43-0.613,3.104-1.828l-0.868-0.586c-0.555,0.975-1.274,1.457-2.176,1.457c-1.29,0-2.221-0.947-2.221-2.402v-0.105
			H291.464z M280.307,485.996h1.138v-3.268c0-1.758,0.6-2.627,1.814-2.627c0.21,0,0.45,0.045,0.705,0.135l0.391-1.033
			c-0.255-0.09-0.511-0.135-0.78-0.135c-1.02,0-1.65,0.479-2.249,1.619v-1.395h-1.019V485.996z M276.661,480.236v5.76h1.139v-5.76
			h1.261v-0.943H277.8v-2.699h-1.139v2.699h-1.229v0.943H276.661z M269.252,481.889h-4.082c0.12-1.141,0.945-1.848,2.041-1.848
			C268.426,480.041,269.177,480.703,269.252,481.889 M270.48,482.816v-0.225c0-2.221-1.258-3.553-3.224-3.553
			c-1.951,0-3.344,1.467-3.344,3.582c0,2.191,1.378,3.66,3.419,3.66c1.38,0,2.43-0.613,3.104-1.828l-0.869-0.586
			c-0.555,0.975-1.275,1.457-2.175,1.457c-1.291,0-2.221-0.947-2.221-2.402v-0.105H270.48z M256.217,485.996h1.138v-3.463
			c0-0.736,0-1.291,0.39-1.771c0.375-0.465,0.961-0.721,1.636-0.721c1.2,0,1.786,0.66,1.786,2.012v3.943h1.138v-4.559
			c0-1.516-0.959-2.385-2.519-2.385c-1.05,0-1.861,0.404-2.446,1.273v-5.682h-1.123V485.996z M252.587,480.236v5.76h1.138v-5.76
			h1.26v-0.943h-1.26v-2.699h-1.138v2.699h-1.23v0.943H252.587z M242.882,485.996h1.138v-3.268c0-1.758,0.6-2.627,1.815-2.627
			c0.21,0,0.45,0.045,0.705,0.135l0.39-1.033c-0.255-0.09-0.51-0.135-0.78-0.135c-1.02,0-1.65,0.479-2.25,1.619v-1.395h-1.018
			V485.996z M235.08,482.668c0-1.426,1.081-2.537,2.431-2.537c1.336,0,2.416,1.111,2.416,2.537c0,1.424-1.08,2.535-2.416,2.535
			C236.176,485.203,235.08,484.092,235.08,482.668 M233.867,482.668c0,0.975,0.36,1.846,1.064,2.551
			c0.69,0.689,1.59,1.062,2.58,1.062c0.976,0,1.876-0.389,2.581-1.078c0.689-0.674,1.063-1.561,1.063-2.535
			s-0.374-1.877-1.063-2.551c-0.705-0.689-1.59-1.064-2.581-1.064c-0.99,0-1.89,0.359-2.58,1.049
			C234.227,480.791,233.867,481.693,233.867,482.668 M230.447,485.996h1.139v-5.76h1.785v-0.943h-1.785v-1.785
			c0-1.291,0.03-1.906,0.885-1.906c0.3,0,0.6,0.074,0.9,0.24v-1.184c-0.315-0.105-0.645-0.15-0.99-0.15
			c-1.604,0-1.934,0.838-1.934,2.85v1.936h-1.29v0.943h1.29V485.996z M222.423,482.684c0,1.59-0.871,2.49-2.251,2.49
			c-1.336,0-2.176-0.961-2.176-2.641c0-1.486,0.825-2.342,2.161-2.342C221.507,480.191,222.423,481.166,222.423,482.684
			 M223.531,474.645h-1.138v5.906c-0.511-0.988-1.336-1.498-2.446-1.498c-1.876,0-3.164,1.363-3.164,3.615
			c0,2.191,1.288,3.613,3.209,3.613c1.035,0,1.905-0.539,2.431-1.498v1.213h1.108V474.645z M214.413,481.889h-4.082
			c0.12-1.141,0.945-1.848,2.041-1.848C213.587,480.041,214.338,480.703,214.413,481.889 M215.641,482.816v-0.225
			c0-2.221-1.258-3.553-3.224-3.553c-1.951,0-3.344,1.467-3.344,3.582c0,2.191,1.378,3.66,3.419,3.66c1.38,0,2.43-0.613,3.104-1.828
			l-0.869-0.586c-0.554,0.975-1.275,1.457-2.175,1.457c-1.291,0-2.221-0.947-2.221-2.402v-0.105H215.641z M206.028,480.236v5.76
			h1.138v-5.76h1.26v-0.943h-1.26v-2.699h-1.138v2.699h-1.23v0.943H206.028z M202.518,482.713c0,1.545-0.84,2.432-2.191,2.432
			c-1.425,0-2.236-0.916-2.236-2.537c0-1.531,0.811-2.416,2.191-2.416C201.573,480.191,202.518,481.152,202.518,482.713
			 M203.626,479.293h-1.138v1.258c-0.51-0.988-1.335-1.498-2.461-1.498c-1.876,0-3.149,1.363-3.149,3.615
			c0,2.191,1.288,3.613,3.209,3.613c1.036,0,1.891-0.523,2.431-1.498v1.213h1.108V479.293z M195.871,484.408
			c-0.705,0.51-1.35,0.766-2.07,0.766c-1.395,0-2.4-1.082-2.4-2.432c0-1.59,1.02-2.58,2.49-2.58c0.66,0,1.29,0.209,1.86,0.584
			v-1.229c-0.615-0.299-1.335-0.465-2.085-0.465c-2.01,0-3.493,1.469-3.493,3.66c0,2.115,1.363,3.568,3.448,3.568
			c0.87,0,1.635-0.18,2.25-0.539V484.408z M186.963,476.068c0,0.479,0.375,0.838,0.839,0.838c0.465,0,0.84-0.359,0.84-0.824
			s-0.375-0.854-0.84-0.854C187.338,475.229,186.963,475.604,186.963,476.068 M187.233,485.996h1.138v-6.703h-1.138V485.996z
			 M183.799,482.684c0,1.59-0.871,2.49-2.251,2.49c-1.336,0-2.176-0.961-2.176-2.641c0-1.486,0.825-2.342,2.161-2.342
			C182.883,480.191,183.799,481.166,183.799,482.684 M184.907,474.645h-1.138v5.906c-0.511-0.988-1.336-1.498-2.446-1.498
			c-1.876,0-3.164,1.363-3.164,3.615c0,2.191,1.288,3.613,3.209,3.613c1.035,0,1.905-0.539,2.431-1.498v1.213h1.108V474.645z
			 M170.389,485.996h1.138v-3.463c0-0.736,0-1.291,0.39-1.771c0.375-0.465,0.96-0.721,1.636-0.721c1.2,0,1.786,0.66,1.786,2.012
			v3.943h1.138v-4.559c0-1.516-0.959-2.385-2.519-2.385c-1.051,0-1.861,0.404-2.431,1.273v-1.033h-1.138V485.996z M166.624,476.068
			c0,0.479,0.375,0.838,0.839,0.838c0.464,0,0.839-0.359,0.839-0.824s-0.375-0.854-0.839-0.854
			C166.999,475.229,166.624,475.604,166.624,476.068 M166.894,485.996h1.138v-6.703h-1.138V485.996z M155.749,484.873
			c0.524,0.945,1.393,1.408,2.639,1.408c1.486,0,2.444-0.883,2.444-2.129c0-1.094-0.644-1.574-1.949-1.994
			c-1.111-0.361-1.726-0.451-1.726-1.156c0-0.586,0.465-1.006,1.141-1.006c0.705,0,1.261,0.346,1.531,0.961l0.928-0.57
			c-0.359-0.854-1.228-1.334-2.384-1.334c-1.426,0-2.369,0.854-2.369,2.023c0,1.322,0.988,1.607,2.639,2.176
			c0.706,0.24,1.051,0.51,1.051,1.021c0,0.586-0.495,1.006-1.261,1.006s-1.336-0.346-1.71-1.066L155.749,484.873z M152.689,476.068
			c0,0.479,0.375,0.838,0.839,0.838c0.464,0,0.839-0.359,0.839-0.824s-0.375-0.854-0.839-0.854
			C153.064,475.229,152.689,475.604,152.689,476.068 M152.959,485.996h1.138v-6.703h-1.138V485.996z M145.563,476.455
			c0.674,0,0.989,0.174,0.989,0.639c0,0.455-0.307,0.604-0.972,0.604h-0.63v-1.242H145.563z M145.677,476.062h-1.329v3.586h0.602
			v-1.559h0.762l0.752,1.559h0.673l-0.804-1.646c0.524-0.086,0.839-0.453,0.839-0.953
			C147.172,476.375,146.674,476.062,145.677,476.062 M148.362,477.924c0,0.744-0.289,1.416-0.805,1.926
			c-0.543,0.531-1.233,0.812-1.977,0.812c-0.717,0-1.407-0.281-1.932-0.812c-0.525-0.535-0.814-1.217-0.814-1.943
			c0-0.734,0.289-1.436,0.831-1.977c0.508-0.516,1.181-0.787,1.924-0.787c0.761,0,1.443,0.279,1.976,0.814
			C148.082,476.471,148.362,477.172,148.362,477.924 M145.589,474.768c-0.848,0-1.609,0.314-2.186,0.9
			c-0.613,0.613-0.944,1.408-0.944,2.238c0,0.832,0.323,1.609,0.918,2.205c0.603,0.604,1.381,0.934,2.212,0.934
			c0.823,0,1.609-0.33,2.23-0.934c0.595-0.578,0.909-1.348,0.909-2.205c0-0.838-0.314-1.625-0.9-2.211
			C147.224,475.09,146.447,474.768,145.589,474.768 M139.792,482.713c0,1.545-0.84,2.432-2.19,2.432
			c-1.426,0-2.236-0.916-2.236-2.537c0-1.531,0.81-2.416,2.191-2.416C138.847,480.191,139.792,481.152,139.792,482.713
			 M140.901,479.293h-1.139v1.258c-0.51-0.988-1.335-1.498-2.461-1.498c-1.875,0-3.149,1.363-3.149,3.615
			c0,2.191,1.289,3.613,3.209,3.613c1.036,0,1.891-0.523,2.431-1.498v1.213h1.109V479.293z M130.898,476.068
			c0,0.479,0.374,0.838,0.839,0.838c0.464,0,0.839-0.359,0.839-0.824s-0.375-0.854-0.839-0.854
			C131.272,475.229,130.898,475.604,130.898,476.068 M131.168,485.996h1.138v-6.703h-1.138V485.996z M123.773,485.996h5.833v-1.002
			h-3.809l3.839-5.701h-5.623v1.004h3.598L123.773,485.996z M121.403,485.996h1.138v-4.559c0-1.516-0.899-2.385-2.384-2.385
			c-1.02,0-1.801,0.436-2.386,1.363c-0.389-0.898-1.168-1.363-2.249-1.363c-1.005,0-1.771,0.42-2.311,1.273v-1.033h-1.138v6.703
			h1.138v-3.463c0-0.166-0.015-0.33-0.015-0.48c0-0.512,0.06-0.932,0.345-1.291c0.36-0.465,0.916-0.721,1.531-0.721
			c1.141,0,1.666,0.66,1.666,2.012v3.943h1.138v-3.463c0-0.15-0.015-0.285-0.015-0.42c0-0.557,0.075-0.977,0.36-1.352
			c0.36-0.465,0.901-0.721,1.516-0.721c1.141,0,1.666,0.66,1.666,2.012V485.996z M108.308,476.068c0,0.479,0.375,0.838,0.839,0.838
			c0.464,0,0.839-0.359,0.839-0.824s-0.375-0.854-0.839-0.854C108.683,475.229,108.308,475.604,108.308,476.068 M108.578,485.996
			h1.138v-6.703h-1.138V485.996z M106.536,477.836v-1.664c-1.11-0.764-2.25-1.152-3.525-1.152c-1.575,0-2.895,0.523-3.99,1.572
			c-1.124,1.096-1.678,2.432-1.678,4.096c0,1.904,0.854,3.525,2.413,4.605c0.93,0.645,2.025,0.988,3.165,0.988
			c1.305,0,2.55-0.404,3.615-1.168v-1.695c-0.975,1.141-2.16,1.695-3.51,1.695c-1.455,0-2.76-0.689-3.615-1.906
			c-0.495-0.705-0.735-1.545-0.735-2.535c0-1.26,0.405-2.311,1.23-3.166c0.795-0.824,1.935-1.305,3.06-1.305
			C104.361,476.201,105.501,476.711,106.536,477.836 M93.933,482.9h0.725v-2.145h1.548v-0.637h-1.548v-2.922h1.548v-0.637h-1.548
			v-1.811h-0.725v1.811h-1.548v0.637h1.548v2.922h-1.548v0.637h1.548V482.9z"/>
		<path clip-path="url(#SVGID_36_)" fill="#808285" d="M737.247,462.295h-2.37l0.979-1.059c1.006-1.094,1.582-1.916,1.582-2.816
			c0-1.076-0.716-1.73-1.94-1.73c-1.234,0-1.958,0.689-1.958,1.871c0,0.053,0.008,0.113,0.008,0.166h0.699v-0.07
			c0-0.83,0.437-1.285,1.225-1.285c0.752,0,1.233,0.463,1.233,1.094c0,0.812-0.778,1.643-1.907,2.973l-1.32,1.564h3.77V462.295z
			 M729.974,467.277c0,0.479,0.375,0.854,0.869,0.854c0.495,0,0.884-0.375,0.884-0.854c0-0.48-0.389-0.869-0.884-0.869
			C730.364,466.408,729.974,466.797,729.974,467.277 M726.929,463.889h-4.082c0.12-1.141,0.946-1.848,2.041-1.848
			C726.104,462.041,726.854,462.703,726.929,463.889 M728.157,464.816v-0.225c0-2.221-1.259-3.553-3.225-3.553
			c-1.951,0-3.344,1.467-3.344,3.582c0,2.191,1.378,3.66,3.419,3.66c1.381,0,2.43-0.613,3.104-1.828l-0.868-0.586
			c-0.556,0.975-1.275,1.457-2.176,1.457c-1.29,0-2.222-0.947-2.222-2.402v-0.105H728.157z M718.679,467.996h1.138v-11.352h-1.138
			V467.996z M714.854,458.068c0,0.479,0.374,0.838,0.84,0.838c0.464,0,0.839-0.359,0.839-0.824s-0.375-0.854-0.839-0.854
			C715.229,457.229,714.854,457.604,714.854,458.068 M715.125,467.996h1.138v-6.703h-1.138V467.996z M707.655,467.996h1.272v-5.295
			h4.38v-1.182h-4.38v-3.078h4.38v-1.168h-5.652V467.996z M694.905,467.996h1.138v-3.463c0-0.736,0-1.291,0.39-1.771
			c0.375-0.465,0.961-0.721,1.637-0.721c1.2,0,1.785,0.66,1.785,2.012v3.943h1.139v-4.559c0-1.516-0.958-2.385-2.52-2.385
			c-1.05,0-1.86,0.404-2.431,1.273v-1.033h-1.138V467.996z M687.118,464.668c0-1.426,1.081-2.537,2.431-2.537
			c1.336,0,2.416,1.111,2.416,2.537c0,1.424-1.08,2.535-2.416,2.535C688.214,467.203,687.118,466.092,687.118,464.668
			 M685.905,464.668c0,0.975,0.358,1.846,1.062,2.551c0.69,0.689,1.591,1.062,2.581,1.062c0.975,0,1.876-0.389,2.581-1.078
			c0.689-0.674,1.063-1.561,1.063-2.535s-0.374-1.877-1.063-2.551c-0.705-0.689-1.591-1.064-2.581-1.064s-1.891,0.359-2.581,1.049
			C686.264,462.791,685.905,463.693,685.905,464.668 M678.765,464.713c0,1.545-0.84,2.432-2.19,2.432
			c-1.426,0-2.236-0.916-2.236-2.537c0-1.531,0.811-2.416,2.191-2.416C677.82,462.191,678.765,463.152,678.765,464.713
			 M679.873,461.293h-1.138v1.258c-0.511-0.988-1.335-1.498-2.462-1.498c-1.876,0-3.148,1.363-3.148,3.615
			c0,2.191,1.289,3.613,3.209,3.613c1.036,0,1.891-0.523,2.431-1.498v1.213h1.108V461.293z M670.005,462.236v5.76h1.139v-5.76h1.261
			v-0.943h-1.261v-2.699h-1.139v2.699h-1.229v0.943H670.005z M666.496,464.713c0,1.545-0.841,2.432-2.191,2.432
			c-1.426,0-2.235-0.916-2.235-2.537c0-1.531,0.81-2.416,2.19-2.416C665.55,462.191,666.496,463.152,666.496,464.713
			 M667.604,461.293h-1.138v1.258c-0.51-0.988-1.336-1.498-2.461-1.498c-1.876,0-3.149,1.363-3.149,3.615
			c0,2.191,1.288,3.613,3.209,3.613c1.035,0,1.892-0.523,2.432-1.498v1.213h1.107V461.293z M651.959,466.799v-8.342h0.825
			c1.846,0,3.121,0.029,4.006,0.779c0.886,0.734,1.351,1.877,1.351,3.391c0,1.516-0.479,2.686-1.351,3.406
			c-0.9,0.75-2.175,0.766-4.006,0.766H651.959z M650.686,467.996h2.519c1.741,0,3.15-0.045,4.396-1.002
			c1.229-0.945,1.873-2.432,1.873-4.352c0-1.922-0.644-3.422-1.873-4.365c-1.306-1.004-2.851-1.004-4.861-1.004h-2.054V467.996z
			 M642.841,464.684c0,1.59-0.87,2.49-2.251,2.49c-1.335,0-2.176-0.961-2.176-2.641c0-1.486,0.826-2.342,2.161-2.342
			C641.926,462.191,642.841,463.166,642.841,464.684 M643.949,456.645h-1.139v5.906c-0.51-0.988-1.336-1.498-2.445-1.498
			c-1.876,0-3.164,1.363-3.164,3.615c0,2.191,1.288,3.613,3.209,3.613c1.035,0,1.906-0.539,2.431-1.498v1.213h1.108V456.645z
			 M629.431,467.996h1.139v-3.463c0-0.736,0-1.291,0.39-1.771c0.376-0.465,0.961-0.721,1.636-0.721c1.201,0,1.786,0.66,1.786,2.012
			v3.943h1.138v-4.559c0-1.516-0.958-2.385-2.519-2.385c-1.05,0-1.86,0.404-2.431,1.273v-1.033h-1.139V467.996z M626.101,464.713
			c0,1.545-0.84,2.432-2.19,2.432c-1.425,0-2.236-0.916-2.236-2.537c0-1.531,0.812-2.416,2.191-2.416
			C625.156,462.191,626.101,463.152,626.101,464.713 M627.209,461.293h-1.138v1.258c-0.511-0.988-1.335-1.498-2.461-1.498
			c-1.876,0-3.149,1.363-3.149,3.615c0,2.191,1.289,3.613,3.209,3.613c1.036,0,1.891-0.523,2.431-1.498v1.213h1.108V461.293z
			 M612.723,463.002h0.725v-6.189h-1.581l-0.42,0.645h1.276V463.002z M606.916,467.996h1.258v-2.309h1.26v-1.033h-1.26v-7.486
			h-0.539l-5.744,8.52h5.025V467.996z M606.916,464.654h-3.135l3.135-4.711V464.654z M596.881,467.996h1.243v-10.617h-2.713
			l-0.721,1.107h2.19V467.996z M588.45,468.281c2.251,0,3.704-1.992,3.704-5.564c0-3.57-1.438-5.549-3.734-5.549
			c-2.236,0-3.704,2.008-3.704,5.549S586.184,468.281,588.45,468.281 M588.435,467.234c-1.485,0-2.4-1.621-2.4-4.531
			c0-2.896,0.915-4.502,2.4-4.502c1.562,0,2.401,1.545,2.401,4.531C590.836,465.703,589.996,467.234,588.435,467.234
			 M582.539,466.783h-4.065l1.682-1.816c1.725-1.875,2.714-3.285,2.714-4.828c0-1.848-1.229-2.971-3.329-2.971
			c-2.116,0-3.359,1.184-3.359,3.211c0,0.088,0.016,0.193,0.016,0.283h1.197v-0.119c0-1.426,0.75-2.207,2.102-2.207
			c1.29,0,2.116,0.797,2.116,1.877c0,1.395-1.336,2.82-3.272,5.1l-2.263,2.684h6.463V466.783z M568.561,467.996h1.139v-11.352
			h-1.139V467.996z M565.171,464.713c0,1.545-0.84,2.432-2.191,2.432c-1.425,0-2.235-0.916-2.235-2.537
			c0-1.531,0.811-2.416,2.19-2.416C564.226,462.191,565.171,463.152,565.171,464.713 M566.279,461.293h-1.139v1.258
			c-0.51-0.988-1.335-1.498-2.461-1.498c-1.876,0-3.148,1.363-3.148,3.615c0,2.191,1.288,3.613,3.209,3.613
			c1.035,0,1.891-0.523,2.431-1.498v1.213h1.108V461.293z M552.061,462.236v5.76h1.14v-5.76h1.26v-0.943h-1.26v-2.699h-1.14v2.699
			h-1.229v0.943H552.061z M549.002,463.889h-4.082c0.12-1.141,0.945-1.848,2.041-1.848
			C548.176,462.041,548.927,462.703,549.002,463.889 M550.229,464.816v-0.225c0-2.221-1.258-3.553-3.224-3.553
			c-1.951,0-3.344,1.467-3.344,3.582c0,2.191,1.378,3.66,3.419,3.66c1.38,0,2.43-0.613,3.104-1.828l-0.869-0.586
			c-0.554,0.975-1.274,1.457-2.175,1.457c-1.291,0-2.221-0.947-2.221-2.402v-0.105H550.229z M537.017,463.889h-4.082
			c0.12-1.141,0.945-1.848,2.041-1.848C536.19,462.041,536.941,462.703,537.017,463.889 M538.245,464.816v-0.225
			c0-2.221-1.258-3.553-3.225-3.553c-1.95,0-3.344,1.467-3.344,3.582c0,2.191,1.378,3.66,3.419,3.66c1.381,0,2.43-0.613,3.104-1.828
			l-0.869-0.586c-0.554,0.975-1.275,1.457-2.175,1.457c-1.291,0-2.222-0.947-2.222-2.402v-0.105H538.245z M533.896,460.242h0.885
			l2.084-2.549h-1.47L533.896,460.242z M526.065,461.053h-0.18l-2.04,4.814l-1.784-4.574h-1.274l2.983,7.123l2.205-5.145
			l2.205,5.145l2.984-7.123h-1.29l-1.799,4.574L526.065,461.053z M519.077,463.889h-4.082c0.12-1.141,0.945-1.848,2.041-1.848
			C518.252,462.041,519.002,462.703,519.077,463.889 M520.305,464.816v-0.225c0-2.221-1.258-3.553-3.224-3.553
			c-1.951,0-3.344,1.467-3.344,3.582c0,2.191,1.378,3.66,3.419,3.66c1.381,0,2.43-0.613,3.104-1.828l-0.868-0.586
			c-0.555,0.975-1.274,1.457-2.176,1.457c-1.29,0-2.221-0.947-2.221-2.402v-0.105H520.305z M510.947,464.684
			c0,1.59-0.87,2.49-2.251,2.49c-1.335,0-2.177-0.961-2.177-2.641c0-1.486,0.826-2.342,2.161-2.342
			C510.032,462.191,510.947,463.166,510.947,464.684 M512.055,456.645h-1.138v5.906c-0.51-0.988-1.335-1.498-2.446-1.498
			c-1.876,0-3.164,1.363-3.164,3.615c0,2.191,1.288,3.613,3.209,3.613c1.036,0,1.906-0.539,2.432-1.498v1.213h1.107V456.645z
			 M497.537,467.996h1.138v-3.463c0-0.736,0-1.291,0.391-1.771c0.375-0.465,0.961-0.721,1.636-0.721c1.201,0,1.786,0.66,1.786,2.012
			v3.943h1.138v-4.559c0-1.516-0.958-2.385-2.519-2.385c-1.051,0-1.86,0.404-2.432,1.273v-1.033h-1.138V467.996z M494.208,464.713
			c0,1.545-0.841,2.432-2.191,2.432c-1.426,0-2.235-0.916-2.235-2.537c0-1.531,0.81-2.416,2.19-2.416
			C493.262,462.191,494.208,463.152,494.208,464.713 M495.315,461.293h-1.138v1.258c-0.511-0.988-1.336-1.498-2.461-1.498
			c-1.876,0-3.148,1.363-3.148,3.615c0,2.191,1.287,3.613,3.209,3.613c1.034,0,1.89-0.523,2.431-1.498v1.213h1.107V461.293z
			 M482.433,467.996h5.323v-1.213h-4.05v-9.51h-1.273V467.996z M474.647,467.996h1.139v-4.559c0-1.516-0.899-2.385-2.384-2.385
			c-1.021,0-1.802,0.436-2.387,1.363c-0.389-0.898-1.168-1.363-2.249-1.363c-1.005,0-1.771,0.42-2.311,1.273v-1.033h-1.138v6.703
			h1.138v-3.463c0-0.166-0.016-0.33-0.016-0.48c0-0.512,0.061-0.932,0.346-1.291c0.359-0.465,0.916-0.721,1.53-0.721
			c1.142,0,1.666,0.66,1.666,2.012v3.943h1.139v-3.463c0-0.15-0.016-0.285-0.016-0.42c0-0.557,0.075-0.977,0.36-1.352
			c0.36-0.465,0.901-0.721,1.516-0.721c1.142,0,1.666,0.66,1.666,2.012V467.996z M457.531,464.668c0-1.426,1.081-2.537,2.431-2.537
			c1.336,0,2.416,1.111,2.416,2.537c0,1.424-1.08,2.535-2.416,2.535C458.627,467.203,457.531,466.092,457.531,464.668
			 M456.318,464.668c0,0.975,0.358,1.846,1.062,2.551c0.69,0.689,1.591,1.062,2.581,1.062c0.975,0,1.876-0.389,2.581-1.078
			c0.688-0.674,1.062-1.561,1.062-2.535s-0.374-1.877-1.062-2.551c-0.705-0.689-1.591-1.064-2.581-1.064s-1.891,0.359-2.581,1.049
			C456.677,462.791,456.318,463.693,456.318,464.668 M451.683,467.996h1.139v-3.268c0-1.758,0.6-2.627,1.814-2.627
			c0.21,0,0.45,0.045,0.705,0.135l0.39-1.033c-0.255-0.09-0.51-0.135-0.779-0.135c-1.021,0-1.65,0.479-2.25,1.619v-1.395h-1.019
			V467.996z M447.708,467.996h1.138v-5.76h1.785v-0.943h-1.785v-1.785c0-1.291,0.03-1.906,0.885-1.906c0.301,0,0.601,0.074,0.9,0.24
			v-1.184c-0.315-0.105-0.645-0.15-0.99-0.15c-1.603,0-1.933,0.838-1.933,2.85v1.936h-1.29v0.943h1.29V467.996z M439.683,464.684
			c0,1.59-0.87,2.49-2.251,2.49c-1.335,0-2.175-0.961-2.175-2.641c0-1.486,0.825-2.342,2.16-2.342
			C438.768,462.191,439.683,463.166,439.683,464.684 M440.792,456.645h-1.139v5.906c-0.511-0.988-1.335-1.498-2.446-1.498
			c-1.875,0-3.164,1.363-3.164,3.615c0,2.191,1.289,3.613,3.209,3.613c1.036,0,1.906-0.539,2.431-1.498v1.213h1.109V456.645z
			 M431.674,463.889h-4.082c0.12-1.141,0.945-1.848,2.041-1.848C430.848,462.041,431.599,462.703,431.674,463.889 M432.902,464.816
			v-0.225c0-2.221-1.259-3.553-3.225-3.553c-1.951,0-3.344,1.467-3.344,3.582c0,2.191,1.378,3.66,3.419,3.66
			c1.38,0,2.43-0.613,3.104-1.828l-0.868-0.586c-0.556,0.975-1.275,1.457-2.176,1.457c-1.291,0-2.221-0.947-2.221-2.402v-0.105
			H432.902z M423.289,462.236v5.76h1.138v-5.76h1.26v-0.943h-1.26v-2.699h-1.138v2.699h-1.23v0.943H423.289z M415.712,464.668
			c0-1.592,0.87-2.506,2.251-2.506c1.336,0,2.176,0.959,2.176,2.641c0,1.484-0.825,2.355-2.161,2.355
			C416.627,467.158,415.712,466.184,415.712,464.668 M414.604,471.252h1.139v-4.469c0.51,0.99,1.336,1.498,2.445,1.498
			c1.876,0,3.164-1.348,3.164-3.613c0-2.207-1.288-3.615-3.209-3.615c-1.035,0-1.921,0.525-2.445,1.498v-1.258h-1.094V471.252z
			 M411.273,464.713c0,1.545-0.84,2.432-2.19,2.432c-1.425,0-2.236-0.916-2.236-2.537c0-1.531,0.812-2.416,2.191-2.416
			C410.329,462.191,411.273,463.152,411.273,464.713 M412.382,461.293h-1.138v1.258c-0.51-0.988-1.335-1.498-2.461-1.498
			c-1.876,0-3.149,1.363-3.149,3.615c0,2.191,1.288,3.613,3.209,3.613c1.036,0,1.892-0.523,2.431-1.498v1.213h1.108V461.293z
			 M402.769,464.684c0,1.59-0.87,2.49-2.251,2.49c-1.335,0-2.176-0.961-2.176-2.641c0-1.486,0.826-2.342,2.161-2.342
			C401.854,462.191,402.769,463.166,402.769,464.684 M403.877,456.645h-1.138v5.906c-0.511-0.988-1.335-1.498-2.446-1.498
			c-1.876,0-3.164,1.363-3.164,3.615c0,2.191,1.288,3.613,3.209,3.613c1.036,0,1.906-0.539,2.431-1.498v1.213h1.108V456.645z
			 M391.848,459.672l1.71,3.947h-3.419L391.848,459.672z M391.848,456.854l-4.858,11.143h1.38l1.395-3.285h4.185l1.395,3.285h1.379
			L391.848,456.854z M379.804,467.277c0,0.479,0.375,0.854,0.869,0.854c0.495,0,0.884-0.375,0.884-0.854
			c0-0.48-0.389-0.869-0.884-0.869C380.194,466.408,379.804,466.797,379.804,467.277 M371.853,464.668
			c0-1.426,1.08-2.537,2.432-2.537c1.335,0,2.415,1.111,2.415,2.537c0,1.424-1.08,2.535-2.415,2.535
			C372.948,467.203,371.853,466.092,371.853,464.668 M370.639,464.668c0,0.975,0.36,1.846,1.064,2.551
			c0.689,0.689,1.59,1.062,2.581,1.062c0.975,0,1.875-0.389,2.58-1.078c0.688-0.674,1.063-1.561,1.063-2.535
			s-0.375-1.877-1.063-2.551c-0.705-0.689-1.591-1.064-2.58-1.064c-0.991,0-1.892,0.359-2.581,1.049
			C370.999,462.791,370.639,463.693,370.639,464.668 M363.768,464.684c0-1.518,0.931-2.492,2.281-2.492
			c1.335,0,2.161,0.855,2.161,2.342c0,1.68-0.856,2.641-2.191,2.641C364.638,467.174,363.768,466.273,363.768,464.684
			 M362.675,456.645v11.352h1.093v-1.213c0.525,0.961,1.41,1.498,2.446,1.498c1.921,0,3.209-1.422,3.209-3.613
			c0-2.252-1.288-3.615-3.164-3.615c-1.111,0-1.936,0.51-2.446,1.498v-5.906H362.675z M359.795,463.889h-4.082
			c0.12-1.141,0.945-1.848,2.041-1.848C358.969,462.041,359.72,462.703,359.795,463.889 M361.022,464.816v-0.225
			c0-2.221-1.258-3.553-3.224-3.553c-1.951,0-3.344,1.467-3.344,3.582c0,2.191,1.378,3.66,3.419,3.66
			c1.381,0,2.43-0.613,3.104-1.828l-0.868-0.586c-0.555,0.975-1.275,1.457-2.176,1.457c-1.291,0-2.221-0.947-2.221-2.402v-0.105
			H361.022z M353.522,466.408c-0.704,0.51-1.35,0.766-2.069,0.766c-1.396,0-2.4-1.082-2.4-2.432c0-1.59,1.021-2.58,2.49-2.58
			c0.66,0,1.29,0.209,1.86,0.584v-1.229c-0.615-0.299-1.335-0.465-2.085-0.465c-2.011,0-3.493,1.469-3.493,3.66
			c0,2.115,1.362,3.568,3.447,3.568c0.87,0,1.636-0.18,2.25-0.539V466.408z M345.05,464.713c0,1.545-0.84,2.432-2.19,2.432
			c-1.426,0-2.236-0.916-2.236-2.537c0-1.531,0.811-2.416,2.19-2.416C344.104,462.191,345.05,463.152,345.05,464.713
			 M346.158,461.293h-1.139v1.258c-0.51-0.988-1.335-1.498-2.461-1.498c-1.876,0-3.148,1.363-3.148,3.615
			c0,2.191,1.288,3.613,3.209,3.613c1.036,0,1.891-0.523,2.431-1.498v1.213h1.108V461.293z M336.425,467.996h1.138v-11.352h-1.138
			V467.996z M328.969,464.668c0-1.592,0.87-2.506,2.251-2.506c1.335,0,2.175,0.959,2.175,2.641c0,1.484-0.824,2.355-2.159,2.355
			C329.884,467.158,328.969,466.184,328.969,464.668 M327.86,471.252h1.139v-4.469c0.51,0.99,1.335,1.498,2.446,1.498
			c1.875,0,3.164-1.348,3.164-3.613c0-2.207-1.289-3.615-3.21-3.615c-1.035,0-1.921,0.525-2.445,1.498v-1.258h-1.094V471.252z
			 M316.775,466.873c0.524,0.945,1.394,1.408,2.64,1.408c1.484,0,2.444-0.883,2.444-2.129c0-1.094-0.645-1.574-1.949-1.994
			c-1.111-0.361-1.727-0.451-1.727-1.156c0-0.586,0.465-1.006,1.141-1.006c0.706,0,1.261,0.346,1.53,0.961l0.93-0.57
			c-0.36-0.854-1.229-1.334-2.385-1.334c-1.426,0-2.368,0.854-2.368,2.023c0,1.322,0.987,1.607,2.639,2.176
			c0.705,0.24,1.051,0.51,1.051,1.021c0,0.586-0.496,1.006-1.261,1.006c-0.766,0-1.336-0.346-1.711-1.066L316.775,466.873z
			 M313.024,468.416l3.3-7.123h-1.29l-2.024,4.68l-2.01-4.68h-1.289L313.024,468.416z M297.351,465.283v0.195
			c0,1.695,1.261,2.803,3.255,2.803c2.28,0,3.599-1.197,3.599-3.119c0-1.455-0.765-2.43-2.038-2.639
			c1.199-0.316,1.903-1.23,1.903-2.506c0-1.74-1.214-2.85-3.208-2.85c-2.07,0-3.226,1.033-3.315,2.865h1.26
			c0.061-1.156,0.78-1.787,2.025-1.787c1.185,0,1.905,0.721,1.905,1.832c0,1.26-0.75,1.92-2.235,1.92
			c-0.12,0-0.226-0.014-0.345-0.014v1.047c0.135-0.014,0.255-0.014,0.375-0.014c1.545,0,2.34,0.719,2.34,2.1
			c0,1.305-0.795,2.072-2.221,2.072c-1.229,0-1.994-0.691-1.994-1.787v-0.119H297.351z M292.189,468.281
			c2.251,0,3.704-1.992,3.704-5.564c0-3.57-1.438-5.549-3.733-5.549c-2.236,0-3.704,2.008-3.704,5.549
			S289.924,468.281,292.189,468.281 M292.175,467.234c-1.486,0-2.401-1.621-2.401-4.531c0-2.896,0.915-4.502,2.401-4.502
			c1.561,0,2.401,1.545,2.401,4.531C294.576,465.703,293.735,467.234,292.175,467.234 M283.415,468.281
			c2.251,0,3.704-1.992,3.704-5.564c0-3.57-1.438-5.549-3.734-5.549c-2.236,0-3.704,2.008-3.704,5.549
			S281.148,468.281,283.415,468.281 M283.399,467.234c-1.485,0-2.4-1.621-2.4-4.531c0-2.896,0.915-4.502,2.4-4.502
			c1.562,0,2.401,1.545,2.401,4.531C285.801,465.703,284.961,467.234,283.399,467.234 M275.961,467.277
			c0,0.479,0.374,0.854,0.869,0.854c0.494,0,0.884-0.375,0.884-0.854c0-0.48-0.39-0.869-0.884-0.869
			C276.35,466.408,275.961,466.797,275.961,467.277 M270.29,468.281c2.251,0,3.704-1.992,3.704-5.564
			c0-3.57-1.438-5.549-3.734-5.549c-2.236,0-3.704,2.008-3.704,5.549S268.024,468.281,270.29,468.281 M270.275,467.234
			c-1.486,0-2.401-1.621-2.401-4.531c0-2.896,0.915-4.502,2.401-4.502c1.561,0,2.401,1.545,2.401,4.531
			C272.676,465.703,271.836,467.234,270.275,467.234 M264.064,464.504h-8.773v0.854h8.773V464.504z M264.064,461.699h-8.773v0.852
			h8.773V461.699z M247.204,464.668c0-1.592,0.871-2.506,2.251-2.506c1.336,0,2.176,0.959,2.176,2.641
			c0,1.484-0.825,2.355-2.161,2.355C248.12,467.158,247.204,466.184,247.204,464.668 M246.096,471.252h1.138v-4.469
			c0.511,0.99,1.336,1.498,2.446,1.498c1.876,0,3.164-1.348,3.164-3.613c0-2.207-1.288-3.615-3.209-3.615
			c-1.035,0-1.92,0.525-2.446,1.498v-1.258h-1.093V471.252z M239.901,461.414l1.65-0.961v1.859h0.748v-1.83l1.591,0.916l0.36-0.66
			l-1.606-0.916l1.606-0.93l-0.36-0.66l-1.605,0.916l0.014-1.875h-0.748l0.015,1.92l-1.65-0.961l-0.375,0.645l1.635,0.945
			l-1.635,0.945L239.901,461.414z M230.976,470.129l0.84,0.328l1.799-3.885l-1.245-0.434L230.976,470.129z M223.475,464.668
			c0-1.426,1.08-2.537,2.431-2.537c1.335,0,2.416,1.111,2.416,2.537c0,1.424-1.081,2.535-2.416,2.535
			C224.57,467.203,223.475,466.092,223.475,464.668 M222.262,464.668c0,0.975,0.359,1.846,1.063,2.551
			c0.69,0.689,1.59,1.062,2.581,1.062c0.975,0,1.875-0.389,2.58-1.078c0.689-0.674,1.064-1.561,1.064-2.535
			s-0.375-1.877-1.064-2.551c-0.705-0.689-1.59-1.064-2.58-1.064c-0.991,0-1.891,0.359-2.581,1.049
			C222.621,462.791,222.262,463.693,222.262,464.668 M215.39,464.684c0-1.518,0.93-2.492,2.281-2.492
			c1.335,0,2.161,0.855,2.161,2.342c0,1.68-0.856,2.641-2.191,2.641C216.26,467.174,215.39,466.273,215.39,464.684 M214.297,456.645
			v11.352h1.093v-1.213c0.525,0.961,1.411,1.498,2.446,1.498c1.921,0,3.209-1.422,3.209-3.613c0-2.252-1.288-3.615-3.164-3.615
			c-1.11,0-1.936,0.51-2.446,1.498v-5.906H214.297z M211.417,463.889h-4.082c0.12-1.141,0.945-1.848,2.041-1.848
			C210.592,462.041,211.342,462.703,211.417,463.889 M212.645,464.816v-0.225c0-2.221-1.258-3.553-3.224-3.553
			c-1.951,0-3.344,1.467-3.344,3.582c0,2.191,1.378,3.66,3.419,3.66c1.381,0,2.43-0.613,3.104-1.828l-0.869-0.586
			c-0.554,0.975-1.275,1.457-2.175,1.457c-1.291,0-2.221-0.947-2.221-2.402v-0.105H212.645z M205.145,466.408
			c-0.705,0.51-1.35,0.766-2.07,0.766c-1.395,0-2.4-1.082-2.4-2.432c0-1.59,1.02-2.58,2.49-2.58c0.66,0,1.29,0.209,1.86,0.584
			v-1.229c-0.615-0.299-1.335-0.465-2.085-0.465c-2.01,0-3.493,1.469-3.493,3.66c0,2.115,1.363,3.568,3.448,3.568
			c0.87,0,1.635-0.18,2.25-0.539V466.408z M196.672,464.713c0,1.545-0.84,2.432-2.191,2.432c-1.425,0-2.236-0.916-2.236-2.537
			c0-1.531,0.811-2.416,2.191-2.416C195.727,462.191,196.672,463.152,196.672,464.713 M197.78,461.293h-1.138v1.258
			c-0.51-0.988-1.335-1.498-2.461-1.498c-1.876,0-3.149,1.363-3.149,3.615c0,2.191,1.288,3.613,3.209,3.613
			c1.036,0,1.891-0.523,2.431-1.498v1.213h1.108V461.293z M188.047,467.996h1.138v-11.352h-1.138V467.996z M180.591,464.668
			c0-1.592,0.87-2.506,2.251-2.506c1.335,0,2.176,0.959,2.176,2.641c0,1.484-0.826,2.355-2.161,2.355
			C181.506,467.158,180.591,466.184,180.591,464.668 M179.483,471.252h1.138v-4.469c0.51,0.99,1.335,1.498,2.446,1.498
			c1.876,0,3.164-1.348,3.164-3.613c0-2.207-1.288-3.615-3.209-3.615c-1.036,0-1.921,0.525-2.446,1.498v-1.258h-1.093V471.252z
			 M168.398,466.873c0.524,0.945,1.393,1.408,2.639,1.408c1.485,0,2.444-0.883,2.444-2.129c0-1.094-0.644-1.574-1.949-1.994
			c-1.111-0.361-1.726-0.451-1.726-1.156c0-0.586,0.465-1.006,1.141-1.006c0.705,0,1.261,0.346,1.53,0.961l0.929-0.57
			c-0.359-0.854-1.228-1.334-2.384-1.334c-1.426,0-2.369,0.854-2.369,2.023c0,1.322,0.988,1.607,2.639,2.176
			c0.705,0.24,1.051,0.51,1.051,1.021c0,0.586-0.496,1.006-1.261,1.006c-0.766,0-1.336-0.346-1.711-1.066L168.398,466.873z
			 M164.647,468.416l3.299-7.123h-1.29l-2.024,4.68l-2.01-4.68h-1.289L164.647,468.416z M152.243,467.996h1.243v-10.617h-2.713
			l-0.72,1.107h2.19V467.996z M143.812,468.281c2.251,0,3.704-1.992,3.704-5.564c0-3.57-1.438-5.549-3.734-5.549
			c-2.236,0-3.704,2.008-3.704,5.549S141.546,468.281,143.812,468.281 M143.797,467.234c-1.486,0-2.401-1.621-2.401-4.531
			c0-2.896,0.915-4.502,2.401-4.502c1.561,0,2.401,1.545,2.401,4.531C146.198,465.703,145.358,467.234,143.797,467.234
			 M135.037,468.281c2.251,0,3.704-1.992,3.704-5.564c0-3.57-1.438-5.549-3.734-5.549c-2.236,0-3.704,2.008-3.704,5.549
			S132.771,468.281,135.037,468.281 M135.022,467.234c-1.486,0-2.401-1.621-2.401-4.531c0-2.896,0.915-4.502,2.401-4.502
			c1.561,0,2.401,1.545,2.401,4.531C137.423,465.703,136.583,467.234,135.022,467.234 M127.583,467.277
			c0,0.479,0.375,0.854,0.869,0.854c0.495,0,0.884-0.375,0.884-0.854c0-0.48-0.389-0.869-0.884-0.869
			C127.973,466.408,127.583,466.797,127.583,467.277 M121.912,468.281c2.251,0,3.704-1.992,3.704-5.564
			c0-3.57-1.438-5.549-3.734-5.549c-2.236,0-3.704,2.008-3.704,5.549S119.646,468.281,121.912,468.281 M121.897,467.234
			c-1.485,0-2.401-1.621-2.401-4.531c0-2.896,0.916-4.502,2.401-4.502c1.561,0,2.401,1.545,2.401,4.531
			C124.298,465.703,123.458,467.234,121.897,467.234 M115.611,460.543v-0.93l-8.623,3.539v0.75l8.623,3.539v-0.945l-7.318-2.969
			L115.611,460.543z M98.827,464.668c0-1.592,0.87-2.506,2.25-2.506c1.336,0,2.176,0.959,2.176,2.641
			c0,1.484-0.825,2.355-2.161,2.355C99.742,467.158,98.827,466.184,98.827,464.668 M97.718,471.252h1.138v-4.469
			c0.511,0.99,1.336,1.498,2.447,1.498c1.875,0,3.163-1.348,3.163-3.613c0-2.207-1.288-3.615-3.209-3.615
			c-1.035,0-1.92,0.525-2.445,1.498v-1.258h-1.094V471.252z M93.942,464.9h0.707v-5.143h1.557v-0.611h-1.557v-2.396h-0.707v2.396
			h-1.557v0.611h1.557V464.9z"/>
	</g>
</g>
</svg>
