<?xml version="1.0" encoding="utf-8"?>
<!-- Generator: Adobe Illustrator 15.1.0, SVG Export Plug-In . SVG Version: 6.00 Build 0)  -->
<!DOCTYPE svg PUBLIC "-//W3C//DTD SVG 1.1//EN" "http://www.w3.org/Graphics/SVG/1.1/DTD/svg11.dtd">
<svg version="1.1" id="art" xmlns="http://www.w3.org/2000/svg" xmlns:xlink="http://www.w3.org/1999/xlink" x="0px" y="0px"
	 width="912px" height="483px" viewBox="0 0 912 483" enable-background="new 0 0 912 483" xml:space="preserve">
<g>
	<defs>
		<rect id="SVGID_1_" x="-9" y="-1" width="930" height="482.252"/>
	</defs>
	<clipPath id="SVGID_2_">
		<use xlink:href="#SVGID_1_"  overflow="visible"/>
	</clipPath>
	<rect y="320" clip-path="url(#SVGID_2_)" fill="#F3E3D5" width="912" height="20"/>
	<rect clip-path="url(#SVGID_2_)" fill="#F3E3D5" width="912" height="40"/>
	<rect y="80" clip-path="url(#SVGID_2_)" fill="#F3E3D5" width="912" height="40"/>
	<rect y="160" clip-path="url(#SVGID_2_)" fill="#F3E3D5" width="912" height="40"/>
	<rect y="240" clip-path="url(#SVGID_2_)" fill="#F3E3D5" width="912" height="40"/>
	<line clip-path="url(#SVGID_2_)" fill="none" stroke="#D1D3D4" stroke-width="0.5" x1="114" y1="0" x2="114" y2="340"/>
	<line clip-path="url(#SVGID_2_)" fill="none" stroke="#D1D3D4" stroke-width="0.5" x1="285" y1="0" x2="285" y2="340"/>
	<line clip-path="url(#SVGID_2_)" fill="none" stroke="#D1D3D4" stroke-width="0.5" x1="456" y1="0" x2="456" y2="340"/>
	<line clip-path="url(#SVGID_2_)" fill="none" stroke="#D1D3D4" stroke-width="0.5" x1="627" y1="120" x2="627" y2="340"/>
	<line clip-path="url(#SVGID_2_)" fill="none" stroke="#D1D3D4" stroke-width="0.5" x1="798" y1="0" x2="798" y2="340"/>
	<g clip-path="url(#SVGID_2_)">
		<defs>
			<rect id="SVGID_3_" x="-9" y="-1" width="930" height="482.252"/>
		</defs>
		<clipPath id="SVGID_4_">
			<use xlink:href="#SVGID_3_"  overflow="visible"/>
		</clipPath>
		<path clip-path="url(#SVGID_4_)" fill="#F9A25E" d="M44,45.812H32.56v1.36H44V45.812z M35.12,53.493l4.208-1.824v3.648
			L35.12,53.493z M32.112,53.493L44,58.676v-1.472l-3.504-1.488v-4.464L44,49.765v-1.472L32.112,53.493z M42.72,67.268h-8.896v-0.88
			c0-1.968,0.032-3.328,0.832-4.272c0.784-0.944,2-1.44,3.616-1.44s2.864,0.512,3.632,1.44c0.8,0.96,0.816,2.32,0.816,4.272V67.268z
			 M44,68.627v-2.688c0-1.856-0.048-3.36-1.072-4.688c-1.008-1.312-2.592-2-4.64-2s-3.648,0.688-4.656,2
			c-1.072,1.392-1.072,3.04-1.072,5.184v2.192H44z M37.648,72.611l-0.72,1.632c-0.464,1.04-1.024,1.536-1.84,1.536
			c-0.976,0-1.664-0.72-1.664-1.744c0-0.816,0.448-1.44,1.312-1.936l-0.72-1.12c-1.136,0.56-1.728,1.584-1.728,2.96
			c0,1.904,1.216,3.216,2.816,3.216c1.392,0,2.384-0.736,3.024-2.256l0.592-1.392c0.512-1.184,1.264-1.776,2.288-1.776
			c1.248,0,2.128,0.912,2.128,2.288c0,1.152-0.72,1.936-2.112,2.272l0.608,1.232c1.696-0.432,2.656-1.696,2.656-3.504
			c0-2.208-1.408-3.664-3.504-3.664C39.344,70.355,38.304,71.124,37.648,72.611 M35.12,83.076l4.208-1.824v3.648L35.12,83.076z
			 M32.112,83.076L44,88.259v-1.472l-3.504-1.488v-4.464L44,79.348v-1.472L32.112,83.076z M44,95.604v-2.384
			c0-1.632-0.048-2.752-0.864-3.584c-0.576-0.576-1.44-0.944-2.384-0.944c-1.536,0-2.608,0.848-2.816,2.192
			c-0.32-1.088-1.152-1.696-2.368-1.696c-1.024,0-1.904,0.432-2.432,1.152c-0.528,0.72-0.576,1.632-0.576,2.88v2.384H44z
			 M38.64,94.244v-1.424c0-0.704,0.016-1.264,0.304-1.744c0.352-0.624,0.976-0.944,1.808-0.944c0.72,0,1.344,0.288,1.68,0.752
			c0.352,0.496,0.384,1.248,0.384,2.336v1.024H38.64z M33.744,94.244v-1.024c0-1.808,0.336-2.64,1.984-2.64
			c1.392,0,1.84,0.8,1.84,2.64v1.04L33.744,94.244z M39.616,103.443v4.352c-1.216-0.128-1.968-1.008-1.968-2.176
			C37.648,104.323,38.352,103.523,39.616,103.443 M40.608,102.131h-0.24c-2.368,0-3.792,1.344-3.792,3.44
			c0,2.08,1.568,3.568,3.824,3.568c2.336,0,3.904-1.472,3.904-3.648c0-1.472-0.656-2.592-1.952-3.312l-0.624,0.928
			c1.04,0.592,1.552,1.36,1.552,2.32c0,1.376-1.008,2.368-2.56,2.368h-0.112V102.131z M44,117.348v-1.216h-3.696
			c-0.784,0-1.376,0-1.888-0.416c-0.496-0.4-0.768-1.024-0.768-1.744c0-1.28,0.704-1.904,2.144-1.904H44v-1.216h-4.864
			c-1.616,0-2.544,1.024-2.544,2.688c0,1.12,0.432,1.984,1.36,2.592h-1.104v1.216H44z M33.408,121.363
			c0.512,0,0.896-0.4,0.896-0.896c0-0.496-0.384-0.896-0.88-0.896c-0.496,0-0.912,0.4-0.912,0.896
			C32.512,120.963,32.912,121.363,33.408,121.363 M44,119.859h-7.152v1.216H44V119.859z M44,123.651H31.888v1.216H44V123.651z
			 M39.616,128.002v4.352c-1.216-0.128-1.968-1.008-1.968-2.176C37.648,128.882,38.352,128.083,39.616,128.002 M40.608,126.69h-0.24
			c-2.368,0-3.792,1.345-3.792,3.44c0,2.08,1.568,3.569,3.824,3.569c2.336,0,3.904-1.473,3.904-3.649
			c0-1.472-0.656-2.592-1.952-3.312l-0.624,0.928c1.04,0.593,1.552,1.36,1.552,2.32c0,1.376-1.008,2.368-2.56,2.368h-0.112V126.69z
			 M42.8,140.258c1.008-0.56,1.504-1.488,1.504-2.816c0-1.584-0.944-2.608-2.272-2.608c-1.168,0-1.68,0.688-2.128,2.08
			c-0.384,1.184-0.48,1.84-1.232,1.84c-0.624,0-1.072-0.496-1.072-1.216c0-0.752,0.368-1.344,1.024-1.632l-0.608-0.992
			c-0.912,0.384-1.424,1.312-1.424,2.544c0,1.52,0.912,2.528,2.16,2.528c1.408,0,1.712-1.056,2.32-2.816
			c0.256-0.752,0.544-1.12,1.088-1.12c0.624,0,1.072,0.528,1.072,1.344s-0.368,1.424-1.136,1.824L42.8,140.258z M40.496,143.059
			c1.648,0,2.592,0.896,2.592,2.336c0,1.52-0.976,2.384-2.704,2.384c-1.632,0-2.576-0.864-2.576-2.336
			C37.808,144.066,38.832,143.059,40.496,143.059 M36.848,141.875v1.216h1.344c-1.056,0.544-1.6,1.424-1.6,2.624
			c0,2,1.456,3.36,3.856,3.36c2.336,0,3.856-1.376,3.856-3.424c0-1.104-0.56-2.016-1.6-2.592H44v-1.184H36.848z M40.464,156.435
			c-1.616,0-2.656-0.992-2.656-2.432c0-1.424,0.912-2.304,2.496-2.304c1.792,0,2.816,0.912,2.816,2.336
			C43.12,155.506,42.16,156.435,40.464,156.435 M31.888,157.603H44v-1.168h-1.296c1.024-0.56,1.6-1.504,1.6-2.608
			c0-2.048-1.52-3.424-3.856-3.424c-2.4,0-3.856,1.376-3.856,3.376c0,1.184,0.544,2.064,1.6,2.608h-6.304V157.603z M44,165.778
			v-1.216h-4.864c-1.616,0-2.544,0.96-2.544,2.544c0,1.088,0.464,1.92,1.456,2.544c-0.96,0.416-1.456,1.248-1.456,2.4
			c0,1.072,0.448,1.888,1.36,2.464h-1.104v1.216H44v-1.216h-3.696c-0.176,0-0.352,0.016-0.512,0.016
			c-0.544,0-0.992-0.064-1.376-0.368c-0.496-0.384-0.768-0.976-0.768-1.632c0-1.216,0.704-1.776,2.144-1.776H44v-1.216h-3.696
			c-0.16,0-0.304,0.016-0.448,0.016c-0.592,0-1.04-0.08-1.44-0.384c-0.496-0.384-0.768-0.96-0.768-1.616
			c0-1.216,0.704-1.776,2.144-1.776H44z M40.448,184.035c-1.52,0-2.704-1.152-2.704-2.592c0-1.424,1.184-2.576,2.704-2.576
			c1.52,0,2.704,1.152,2.704,2.576S41.968,184.035,40.448,184.035 M40.448,185.331c1.04,0,1.968-0.384,2.72-1.136
			c0.736-0.736,1.136-1.696,1.136-2.752c0-1.04-0.416-2-1.152-2.752c-0.72-0.736-1.664-1.136-2.704-1.136c-1.04,0-2,0.4-2.72,1.136
			c-0.736,0.752-1.136,1.696-1.136,2.752c0,1.056,0.384,2.016,1.12,2.752C38.448,184.946,39.408,185.331,40.448,185.331 M44,190.274
			v-1.216h-3.488c-1.872,0-2.8-0.64-2.8-1.936c0-0.224,0.048-0.48,0.144-0.752l-1.104-0.416c-0.096,0.272-0.144,0.544-0.144,0.832
			c0,1.088,0.512,1.76,1.728,2.4h-1.488v1.088H44z M44,194.514v-1.216h-6.144v-1.904h-1.008v1.904h-1.904
			c-1.376,0-2.032-0.032-2.032-0.944c0-0.32,0.08-0.64,0.256-0.96h-1.264c-0.112,0.336-0.16,0.688-0.16,1.056
			c0,1.712,0.896,2.064,3.04,2.064h2.064v1.376h1.008v-1.376H44z M39.616,202.545v4.352c-1.216-0.128-1.968-1.008-1.968-2.176
			C37.648,203.425,38.352,202.625,39.616,202.545 M40.608,201.233h-0.24c-2.368,0-3.792,1.344-3.792,3.44
			c0,2.08,1.568,3.568,3.824,3.568c2.336,0,3.904-1.472,3.904-3.648c0-1.472-0.656-2.592-1.952-3.312l-0.624,0.928
			c1.04,0.592,1.552,1.36,1.552,2.32c0,1.376-1.008,2.368-2.56,2.368h-0.112V201.233z M40.448,211.202
			c1.648,0,2.608,0.896,2.608,2.336c0,1.52-0.976,2.384-2.704,2.384c-1.632,0-2.576-0.864-2.576-2.336
			C37.776,212.209,38.784,211.202,40.448,211.202 M36.848,209.985v1.248h1.328c-1.04,0.528-1.584,1.44-1.584,2.624
			c0,2,1.424,3.36,3.808,3.36c2.32,0,3.824-1.376,3.824-3.424c0-1.104-0.56-2.032-1.584-2.592h1.2c0.656,0,1.184,0.032,1.632,0.304
			c0.624,0.368,0.944,1.072,0.944,2.048c0,1.376-0.624,2.128-1.68,2.128H44.64v1.376c1.792-0.048,2.848-1.296,2.848-3.488
			c0-1.264-0.368-2.224-1.072-2.88c-0.72-0.672-1.52-0.704-2.544-0.704H36.848z M44,225.505v-1.216h-3.696
			c-0.784,0-1.376,0-1.888-0.416c-0.496-0.4-0.768-1.024-0.768-1.744c0-1.28,0.704-1.904,2.144-1.904H44v-1.216h-4.864
			c-1.616,0-2.544,1.024-2.544,2.688c0,1.12,0.432,1.984,1.36,2.592h-1.104v1.216H44z M40.496,229.058
			c1.648,0,2.592,0.896,2.592,2.336c0,1.52-0.976,2.384-2.704,2.384c-1.632,0-2.576-0.864-2.576-2.336
			C37.808,230.065,38.832,229.058,40.496,229.058 M36.848,227.874v1.216h1.344c-1.056,0.544-1.6,1.424-1.6,2.624
			c0,2,1.456,3.36,3.856,3.36c2.336,0,3.856-1.376,3.856-3.424c0-1.104-0.56-2.016-1.6-2.592H44v-1.184H36.848z M44,243.361v-1.216
			h-3.696c-0.784,0-1.376,0-1.888-0.416c-0.496-0.399-0.768-1.024-0.768-1.744c0-1.28,0.704-1.904,2.144-1.904H44v-1.216h-4.864
			c-1.616,0-2.544,1.024-2.544,2.688c0,1.12,0.432,1.983,1.36,2.608h-6.064v1.199H44z M42.304,244.978
			c0.544,0.752,0.816,1.44,0.816,2.208c0,1.488-1.152,2.561-2.592,2.561c-1.696,0-2.752-1.089-2.752-2.656
			c0-0.705,0.224-1.377,0.624-1.984h-1.312c-0.32,0.656-0.496,1.424-0.496,2.225c0,2.144,1.568,3.728,3.904,3.728
			c2.256,0,3.808-1.456,3.808-3.681c0-0.928-0.192-1.744-0.576-2.399H42.304z M44,263.937v-1.216h-3.696
			c-0.784,0-1.376,0-1.888-0.416c-0.496-0.4-0.768-1.024-0.768-1.744c0-1.28,0.704-1.904,2.144-1.904H44v-1.216h-4.864
			c-1.616,0-2.544,1.024-2.544,2.688c0,1.119,0.432,1.983,1.36,2.592h-1.104v1.216H44z M40.496,267.488
			c1.648,0,2.592,0.896,2.592,2.336c0,1.52-0.976,2.385-2.704,2.385c-1.632,0-2.576-0.865-2.576-2.336
			C37.808,268.496,38.832,267.488,40.496,267.488 M36.848,266.305v1.216h1.344c-1.056,0.544-1.6,1.424-1.6,2.624
			c0,2,1.456,3.359,3.856,3.359c2.336,0,3.856-1.375,3.856-3.424c0-1.104-0.56-2.016-1.6-2.592H44v-1.184H36.848z M39.616,276.032
			v4.353c-1.216-0.129-1.968-1.008-1.968-2.176C37.648,276.912,38.352,276.112,39.616,276.032 M40.608,274.721h-0.24
			c-2.368,0-3.792,1.344-3.792,3.439c0,2.08,1.568,3.568,3.824,3.568c2.336,0,3.904-1.473,3.904-3.648
			c0-1.472-0.656-2.592-1.952-3.312l-0.624,0.928c1.04,0.593,1.552,1.36,1.552,2.32c0,1.376-1.008,2.368-2.56,2.368h-0.112V274.721z
			 M44.448,288.977l-8.224-3.536L44,283.984v-1.328l-11.888,2.32l9.456,4l-9.456,4L44,295.297v-1.328l-7.776-1.44L44.448,288.977z"
			/>
		<g clip-path="url(#SVGID_4_)">
			<g>
				<defs>
					<rect id="SVGID_5_" x="59.912" y="13.168" width="40.336" height="13.856"/>
				</defs>
				<clipPath id="SVGID_6_">
					<use xlink:href="#SVGID_5_"  overflow="visible"/>
				</clipPath>
				<path clip-path="url(#SVGID_6_)" fill="#F9A25E" d="M87.296,26.024c2.4,0,3.952-2.128,3.952-5.936s-1.536-5.92-3.983-5.92
					c-2.385,0-3.952,2.144-3.952,5.92S84.88,26.024,87.296,26.024 M87.28,24.904c-1.584,0-2.561-1.728-2.561-4.832
					c0-3.088,0.977-4.8,2.561-4.8c1.664,0,2.56,1.648,2.56,4.832C89.84,23.272,88.944,24.904,87.28,24.904 M79.344,24.952
					c0,0.512,0.4,0.912,0.929,0.912c0.527,0,0.943-0.4,0.943-0.912c0-0.512-0.416-0.928-0.943-0.928
					C79.76,24.024,79.344,24.44,79.344,24.952 M74.272,25.72h1.344v-2.464h1.344v-1.104h-1.344v-7.984H75.04l-6.128,9.088h5.36
					V25.72z M74.272,22.152h-3.345l3.345-5.024V22.152z"/>
			</g>
		</g>
		<g clip-path="url(#SVGID_4_)">
			<g>
				<defs>
					<rect id="SVGID_7_" x="60.44" y="93.168" width="39.808" height="13.856"/>
				</defs>
				<clipPath id="SVGID_8_">
					<use xlink:href="#SVGID_7_"  overflow="visible"/>
				</clipPath>
				<path clip-path="url(#SVGID_8_)" fill="#F9A25E" d="M87.296,106.024c2.4,0,3.952-2.128,3.952-5.936s-1.536-5.92-3.983-5.92
					c-2.385,0-3.952,2.144-3.952,5.92S84.88,106.024,87.296,106.024 M87.28,104.904c-1.584,0-2.561-1.728-2.561-4.832
					c0-3.088,0.977-4.8,2.561-4.8c1.664,0,2.56,1.648,2.56,4.832C89.84,103.272,88.944,104.904,87.28,104.904 M79.344,104.952
					c0,0.512,0.4,0.912,0.929,0.912c0.527,0,0.943-0.4,0.943-0.912c0-0.512-0.416-0.928-0.943-0.928
					C79.76,104.024,79.344,104.44,79.344,104.952 M69.44,102.824v0.208c0,1.808,1.344,2.992,3.472,2.992
					c2.432,0,3.84-1.28,3.84-3.328c0-1.552-0.815-2.592-2.176-2.816c1.28-0.336,2.032-1.312,2.032-2.672
					c0-1.856-1.296-3.04-3.424-3.04c-2.208,0-3.44,1.104-3.536,3.056h1.344c0.064-1.232,0.832-1.904,2.16-1.904
					c1.264,0,2.032,0.768,2.032,1.952c0,1.344-0.801,2.048-2.385,2.048c-0.128,0-0.239-0.016-0.367-0.016v1.12
					c0.144-0.016,0.271-0.016,0.399-0.016c1.648,0,2.496,0.768,2.496,2.24c0,1.392-0.848,2.208-2.368,2.208
					c-1.312,0-2.128-0.736-2.128-1.904v-0.128H69.44z"/>
			</g>
		</g>
		<g clip-path="url(#SVGID_4_)">
			<g>
				<defs>
					<rect id="SVGID_9_" x="60.456" y="173.168" width="39.792" height="13.856"/>
				</defs>
				<clipPath id="SVGID_10_">
					<use xlink:href="#SVGID_9_"  overflow="visible"/>
				</clipPath>
				<path clip-path="url(#SVGID_10_)" fill="#F9A25E" d="M87.296,186.024c2.4,0,3.952-2.128,3.952-5.936s-1.536-5.92-3.984-5.92
					c-2.384,0-3.951,2.144-3.951,5.92S84.88,186.024,87.296,186.024 M87.28,184.904c-1.584,0-2.561-1.728-2.561-4.832
					c0-3.088,0.977-4.8,2.561-4.8c1.664,0,2.56,1.648,2.56,4.832C89.84,183.272,88.944,184.904,87.28,184.904 M79.344,184.952
					c0,0.512,0.4,0.912,0.929,0.912c0.527,0,0.943-0.4,0.943-0.912c0-0.512-0.416-0.928-0.943-0.928
					C79.76,184.024,79.344,184.44,79.344,184.952 M76.353,184.424h-4.337l1.792-1.936c1.841-2,2.896-3.504,2.896-5.152
					c0-1.968-1.312-3.168-3.552-3.168c-2.256,0-3.584,1.264-3.584,3.424c0,0.096,0.016,0.208,0.016,0.304h1.28v-0.128
					c0-1.52,0.8-2.352,2.24-2.352c1.376,0,2.256,0.848,2.256,2c0,1.488-1.424,3.008-3.488,5.44l-2.416,2.864h6.896V184.424z"/>
			</g>
		</g>
		<g clip-path="url(#SVGID_4_)">
			<g>
				<defs>
					<rect id="SVGID_11_" x="61.592" y="253.168" width="38.656" height="13.855"/>
				</defs>
				<clipPath id="SVGID_12_">
					<use xlink:href="#SVGID_11_"  overflow="visible"/>
				</clipPath>
				<path clip-path="url(#SVGID_12_)" fill="#F9A25E" d="M87.296,266.024c2.4,0,3.952-2.128,3.952-5.937
					c0-3.808-1.536-5.92-3.984-5.92c-2.384,0-3.951,2.145-3.951,5.92C83.312,263.864,84.88,266.024,87.296,266.024 M87.28,264.904
					c-1.584,0-2.561-1.729-2.561-4.832c0-3.088,0.977-4.8,2.561-4.8c1.664,0,2.56,1.647,2.56,4.832
					C89.84,263.272,88.944,264.904,87.28,264.904 M79.344,264.952c0,0.513,0.4,0.912,0.929,0.912c0.527,0,0.943-0.399,0.943-0.912
					c0-0.512-0.416-0.928-0.943-0.928C79.76,264.024,79.344,264.44,79.344,264.952 M72.928,265.721h1.328v-11.328H71.36
					l-0.769,1.184h2.336V265.721z"/>
			</g>
		</g>
	</g>
	<polyline clip-path="url(#SVGID_2_)" fill="none" stroke="#808285" stroke-width="2" points="113.993,340.266 285,264 456,255.115 
		798.56,245 	"/>
	
		<line clip-path="url(#SVGID_2_)" fill="none" stroke="#FAB57E" stroke-width="2" stroke-dasharray="9.987,4.987" x1="122.135" y1="334.492" x2="278.893" y2="223.331"/>
	
		<line clip-path="url(#SVGID_2_)" fill="none" stroke="#FAB57E" stroke-width="2" stroke-dasharray="9.764,4.764" x1="294.462" y1="217.119" x2="448.875" y2="186.417"/>
	
		<line clip-path="url(#SVGID_2_)" fill="none" stroke="#FAB57E" stroke-width="2" stroke-dasharray="9.954,4.954" x1="465.922" y1="184.567" x2="791.113" y2="170.375"/>
	<path clip-path="url(#SVGID_2_)" fill="none" stroke="#FAB57E" stroke-width="2" d="M793.588,170.268l4.972-0.217 M451.212,185.952
		L456,185l4.972-0.217 M280.927,221.888L285,219l4.789-0.952 M113.993,340.266l4.072-2.889"/>
	<polyline clip-path="url(#SVGID_2_)" fill="none" stroke="#F9A25E" stroke-width="2" points="113.993,340.266 285,172 456,163 
		798.56,153.775 	"/>
	<line clip-path="url(#SVGID_2_)" fill="none" stroke="#F9A25E" stroke-width="3" x1="0" y1="340" x2="912" y2="340"/>
	<g clip-path="url(#SVGID_2_)">
		<defs>
			<rect id="SVGID_13_" x="-9" y="-1" width="930" height="482.252"/>
		</defs>
		<clipPath id="SVGID_14_">
			<use xlink:href="#SVGID_13_"  overflow="visible"/>
		</clipPath>
		<g clip-path="url(#SVGID_14_)">
			<g>
				<defs>
					<rect id="SVGID_15_" x="781.085" y="363.041" width="33.705" height="13.959"/>
				</defs>
				<clipPath id="SVGID_16_">
					<use xlink:href="#SVGID_15_"  overflow="visible"/>
				</clipPath>
				<path clip-path="url(#SVGID_16_)" fill="#F9A25E" d="M803.524,366.744l-0.439,1.242h-1.193l0.429-1.242H803.524z
					 M803.29,364.041h-0.662l-0.764,2.146h-1.567l-0.195,0.558h1.557l-0.438,1.242h-1.455l-0.196,0.559h1.455l-0.755,2.127h0.652
					l0.765-2.127h1.203l-0.765,2.127h0.662l0.755-2.127h1.512l0.195-0.559h-1.502l0.43-1.242h1.418l0.195-0.558h-1.398l0.746-2.146
					h-0.653l-0.765,2.146h-1.185L803.29,364.041z M795.445,376h1.344v-2.464h1.345v-1.104h-1.345v-7.983h-0.576l-6.128,9.088h5.36
					V376z M795.445,372.432h-3.344l3.344-5.023V372.432z"/>
			</g>
		</g>
		<g clip-path="url(#SVGID_14_)">
			<g>
				<defs>
					<rect id="SVGID_17_" x="614.16" y="363.447" width="25.312" height="13.856"/>
				</defs>
				<clipPath id="SVGID_18_">
					<use xlink:href="#SVGID_17_"  overflow="visible"/>
				</clipPath>
				<path clip-path="url(#SVGID_18_)" fill="#F9A25E" d="M623.16,373.104v0.208c0,1.808,1.344,2.992,3.472,2.992
					c2.433,0,3.84-1.28,3.84-3.328c0-1.553-0.815-2.592-2.176-2.816c1.28-0.336,2.032-1.312,2.032-2.672
					c0-1.855-1.296-3.04-3.424-3.04c-2.208,0-3.44,1.104-3.536,3.056h1.344c0.064-1.231,0.832-1.903,2.16-1.903
					c1.264,0,2.032,0.768,2.032,1.952c0,1.344-0.801,2.048-2.385,2.048c-0.128,0-0.239-0.017-0.367-0.017v1.121
					c0.144-0.017,0.271-0.017,0.399-0.017c1.648,0,2.496,0.769,2.496,2.239c0,1.393-0.848,2.209-2.368,2.209
					c-1.312,0-2.128-0.736-2.128-1.904v-0.128H623.16z"/>
			</g>
		</g>
		<g clip-path="url(#SVGID_14_)">
			<g>
				<defs>
					<rect id="SVGID_19_" x="439.629" y="363.041" width="33.161" height="13.959"/>
				</defs>
				<clipPath id="SVGID_20_">
					<use xlink:href="#SVGID_19_"  overflow="visible"/>
				</clipPath>
				<path clip-path="url(#SVGID_20_)" fill="#F9A25E" d="M461.524,366.744l-0.439,1.242h-1.192l0.429-1.242H461.524z
					 M461.29,364.041h-0.662l-0.764,2.146h-1.567l-0.195,0.558h1.557l-0.438,1.242h-1.455l-0.196,0.559h1.455l-0.755,2.127h0.652
					l0.765-2.127h1.203l-0.765,2.127h0.662l0.755-2.127h1.512l0.195-0.559h-1.502l0.43-1.242h1.418l0.195-0.558h-1.398l0.746-2.146
					h-0.653l-0.765,2.146h-1.185L461.29,364.041z M455.525,374.705h-4.336l1.792-1.937c1.84-2,2.896-3.505,2.896-5.152
					c0-1.968-1.312-3.168-3.552-3.168c-2.256,0-3.584,1.265-3.584,3.425c0,0.096,0.017,0.207,0.017,0.303h1.279v-0.127
					c0-1.521,0.8-2.353,2.24-2.353c1.376,0,2.256,0.849,2.256,2c0,1.488-1.424,3.009-3.488,5.44L448.629,376h6.896V374.705z"/>
			</g>
		</g>
		<g clip-path="url(#SVGID_14_)">
			<g>
				<defs>
					<rect id="SVGID_21_" x="273.312" y="363.672" width="21.663" height="13.328"/>
				</defs>
				<clipPath id="SVGID_22_">
					<use xlink:href="#SVGID_21_"  overflow="visible"/>
				</clipPath>
				<polygon clip-path="url(#SVGID_22_)" fill="#F9A25E" points="284.648,376 285.976,376 285.976,364.672 283.08,364.672 
					282.312,365.856 284.648,365.856 				"/>
			</g>
		</g>
		<g clip-path="url(#SVGID_14_)">
			<g>
				<defs>
					<rect id="SVGID_23_" x="97.485" y="363.041" width="33.305" height="14.263"/>
				</defs>
				<clipPath id="SVGID_24_">
					<use xlink:href="#SVGID_23_"  overflow="visible"/>
				</clipPath>
				<path clip-path="url(#SVGID_24_)" fill="#F9A25E" d="M119.524,366.744l-0.439,1.242h-1.192l0.429-1.242H119.524z
					 M119.29,364.041h-0.662l-0.764,2.146h-1.566l-0.196,0.558h1.557l-0.438,1.242h-1.455l-0.196,0.559h1.455l-0.755,2.127h0.653
					l0.764-2.127h1.203l-0.765,2.127h0.662l0.755-2.127h1.512l0.195-0.559h-1.502l0.43-1.242h1.418l0.195-0.558h-1.398l0.746-2.146
					h-0.653l-0.765,2.146h-1.185L119.29,364.041z M110.47,376.305c2.399,0,3.952-2.129,3.952-5.937s-1.536-5.92-3.984-5.92
					c-2.384,0-3.952,2.144-3.952,5.92S108.054,376.305,110.47,376.305 M110.453,375.185c-1.584,0-2.56-1.728-2.56-4.832
					c0-3.089,0.976-4.8,2.56-4.8c1.664,0,2.561,1.647,2.561,4.832C113.014,373.553,112.117,375.185,110.453,375.185"/>
			</g>
		</g>
		<path clip-path="url(#SVGID_14_)" fill="#F9A25E" d="M472.552,426.801c0.561,1.008,1.488,1.504,2.816,1.504
			c1.584,0,2.608-0.944,2.608-2.272c0-1.168-0.688-1.68-2.08-2.128c-1.185-0.384-1.84-0.479-1.84-1.232
			c0-0.623,0.495-1.071,1.216-1.071c0.752,0,1.344,0.368,1.632,1.023l0.992-0.607c-0.385-0.912-1.312-1.424-2.544-1.424
			c-1.521,0-2.528,0.911-2.528,2.159c0,1.408,1.056,1.713,2.816,2.32c0.752,0.256,1.119,0.544,1.119,1.088
			c0,0.624-0.527,1.072-1.344,1.072c-0.815,0-1.424-0.368-1.824-1.136L472.552,426.801z M465.512,428h1.217l0.016-3.775l3.68,3.775
			h1.712l-3.888-3.872l3.568-3.279h-1.632l-3.44,3.248l-0.016-8.208h-1.217V428z M462.424,423.616h-4.352
			c0.128-1.216,1.008-1.968,2.176-1.968C461.544,421.648,462.344,422.353,462.424,423.616 M463.736,424.608v-0.24
			c0-2.368-1.344-3.792-3.44-3.792c-2.08,0-3.567,1.568-3.567,3.824c0,2.336,1.472,3.904,3.647,3.904
			c1.473,0,2.592-0.656,3.312-1.952l-0.929-0.624c-0.592,1.04-1.359,1.552-2.319,1.552c-1.376,0-2.368-1.008-2.368-2.56v-0.112
			H463.736z M454.28,423.616h-4.353c0.129-1.216,1.009-1.968,2.177-1.968C453.4,421.648,454.2,422.353,454.28,423.616
			 M455.592,424.608v-0.24c0-2.368-1.344-3.792-3.439-3.792c-2.08,0-3.568,1.568-3.568,3.824c0,2.336,1.473,3.904,3.648,3.904
			c1.472,0,2.592-0.656,3.312-1.952l-0.928-0.624c-0.592,1.04-1.36,1.552-2.32,1.552c-1.376,0-2.368-1.008-2.368-2.56v-0.112
			H455.592z M433.32,416.561l4.432,11.888l2.977-8.848l2.991,8.848l4.433-11.888h-1.473l-2.911,8.416l-3.057-8.864l-3.023,8.864
			l-2.896-8.416H433.32z"/>
	</g>
	<polygon clip-path="url(#SVGID_2_)" fill="#F9A25E" points="284.652,165.55 285.347,165.55 285.347,160.502 286.875,160.502 
		286.875,159.902 285.347,159.902 285.347,157.55 284.652,157.55 284.652,159.902 283.125,159.902 283.125,160.502 284.652,160.502 
			"/>
	<polygon clip-path="url(#SVGID_2_)" fill="none" stroke="#F9A25E" points="284.652,165.55 285.347,165.55 285.347,160.502 
		286.875,160.502 286.875,159.902 285.347,159.902 285.347,157.55 284.652,157.55 284.652,159.902 283.125,159.902 283.125,160.502 
		284.652,160.502 	"/>
	<polygon clip-path="url(#SVGID_2_)" fill="#F9A25E" points="455.592,157 456.286,157 456.286,151.952 457.814,151.952 
		457.814,151.353 456.286,151.353 456.286,149 455.592,149 455.592,151.353 454.064,151.353 454.064,151.952 455.592,151.952 	"/>
	<polygon clip-path="url(#SVGID_2_)" fill="none" stroke="#F9A25E" points="455.592,157 456.286,157 456.286,151.952 
		457.814,151.952 457.814,151.353 456.286,151.353 456.286,149 455.592,149 455.592,151.353 454.064,151.353 454.064,151.952 
		455.592,151.952 	"/>
	<polygon clip-path="url(#SVGID_2_)" fill="#F9A25E" points="455.592,179 456.286,179 456.286,173.952 457.814,173.952 
		457.814,173.353 456.286,173.353 456.286,171 455.592,171 455.592,173.353 454.064,173.353 454.064,173.952 455.592,173.952 	"/>
	<polygon clip-path="url(#SVGID_2_)" fill="none" stroke="#F9A25E" points="455.592,179 456.286,179 456.286,173.952 
		457.814,173.952 457.814,173.353 456.286,173.353 456.286,171 455.592,171 455.592,173.353 454.064,173.353 454.064,173.952 
		455.592,173.952 	"/>
	<polygon clip-path="url(#SVGID_2_)" fill="#F9A25E" points="797.653,148 798.347,148 798.347,142.952 799.875,142.952 
		799.875,142.353 798.347,142.353 798.347,140 797.653,140 797.653,142.353 796.125,142.353 796.125,142.952 797.653,142.952 	"/>
	<polygon clip-path="url(#SVGID_2_)" fill="none" stroke="#F9A25E" points="797.653,148 798.347,148 798.347,142.952 
		799.875,142.952 799.875,142.353 798.347,142.353 798.347,140 797.653,140 797.653,142.353 796.125,142.353 796.125,142.952 
		797.653,142.952 	"/>
	<polygon clip-path="url(#SVGID_2_)" fill="#F9A25E" points="797.653,184 798.347,184 798.347,178.952 799.875,178.952 
		799.875,178.353 798.347,178.353 798.347,176 797.653,176 797.653,178.353 796.125,178.353 796.125,178.952 797.653,178.952 	"/>
	<polygon clip-path="url(#SVGID_2_)" fill="none" stroke="#F9A25E" points="797.653,184 798.347,184 798.347,178.952 
		799.875,178.952 799.875,178.353 798.347,178.353 798.347,176 797.653,176 797.653,178.353 796.125,178.353 796.125,178.952 
		797.653,178.952 	"/>
	<g clip-path="url(#SVGID_2_)">
		<defs>
			<rect id="SVGID_25_" x="-9" y="-1" width="930" height="482.252"/>
		</defs>
		<clipPath id="SVGID_26_">
			<use xlink:href="#SVGID_25_"  overflow="visible"/>
		</clipPath>
		<path clip-path="url(#SVGID_26_)" fill="#F9A25E" d="M748.293,28.792l0.832,0.432c1.231-2.288,1.855-4.864,1.855-7.728
			c0-2.96-0.575-5.504-1.855-7.76l-0.832,0.384c1.152,2.272,1.648,4.64,1.648,7.376C749.941,24.312,749.445,26.68,748.293,28.792
			 M739.973,20.008c0.704-0.544,1.536-0.816,2.433-0.816c1.76,0,2.848,1.12,2.848,2.752c0,1.776-1.104,2.896-2.736,2.896
			c-1.12,0-2-0.56-2.512-1.616l-0.96,1.12c0.784,1.152,1.888,1.68,3.44,1.68c2.624,0,4.208-1.632,4.208-4.208
			c0-2.288-1.393-3.728-3.633-3.728c-0.64,0-1.231,0.128-1.775,0.416l0.72-2.944h4.096v-1.168h-5.023l-1.36,5.568L739.973,20.008z
			 M731.285,22.393c0-1.504,0.928-2.544,2.288-2.544c1.52,0,2.432,0.976,2.432,2.528c0,1.52-0.944,2.512-2.352,2.512
			C732.213,24.888,731.285,23.944,731.285,22.393 M732.197,19.256l3.695-4.8l-1.184-0.624l-2.608,3.68
			c-1.264,1.792-2.224,3.12-2.224,4.768c0,2.24,1.408,3.744,3.504,3.744c2.496,0,4.032-1.488,4.032-3.776
			c0-2.096-1.408-3.536-3.456-3.536C733.316,18.712,732.757,18.888,732.197,19.256 M727.045,21.992h-9.36v0.912h9.36V21.992z
			 M727.045,19h-9.36v0.912h9.36V19z M708.117,25.72h1.216v-3.696c0-0.784,0-1.376,0.416-1.888c0.399-0.496,1.023-0.768,1.744-0.768
			c1.279,0,1.903,0.704,1.903,2.144v4.208h1.217v-4.864c0-1.616-1.024-2.544-2.688-2.544c-1.12,0-1.983,0.432-2.592,1.36v-1.104
			h-1.216V25.72z M706.326,28.792c-1.153-2.112-1.648-4.48-1.648-7.296c0-2.736,0.495-5.104,1.648-7.376l-0.833-0.384
			c-1.28,2.256-1.855,4.8-1.855,7.76c0,2.864,0.623,5.44,1.855,7.728L706.326,28.792z M683.062,14.28l4.433,11.888l2.976-8.848
			l2.992,8.848l4.432-11.888h-1.472l-2.912,8.416l-3.056-8.864l-3.024,8.864l-2.896-8.416H683.062z M681.605,24.424h-4.336
			l1.792-1.936c1.841-2,2.896-3.504,2.896-5.152c0-1.968-1.312-3.168-3.552-3.168c-2.256,0-3.584,1.264-3.584,3.424
			c0,0.096,0.016,0.208,0.016,0.304h1.28v-0.128c0-1.52,0.8-2.352,2.239-2.352c1.377,0,2.257,0.848,2.257,2
			c0,1.488-1.425,3.008-3.488,5.44l-2.416,2.864h6.896V24.424z M668.374,21.641h-1.68l2.336,2.528
			c-0.641,0.352-1.36,0.512-2.208,0.512c-0.977,0-1.872-0.288-2.608-0.816c-1.296-0.944-1.952-2.24-1.952-3.856
			c0-1.248,0.48-2.432,1.36-3.312s2.063-1.36,3.312-1.36c1.696,0,3.152,0.816,4.017,2.24c0.416,0.688,0.64,1.552,0.64,2.496
			c0,1.408-0.56,2.624-1.52,3.392L668.374,21.641z M673.189,26.824l-2.176-2.352c1.344-1.072,2.048-2.624,2.048-4.448
			c0-1.744-0.672-3.296-1.903-4.416c-1.152-1.04-2.592-1.584-4.225-1.584c-1.632,0-3.151,0.608-4.319,1.744
			c-1.152,1.136-1.792,2.64-1.792,4.24c0,1.984,0.848,3.664,2.447,4.848c0.992,0.736,2.177,1.12,3.473,1.12
			c1.264,0,2.336-0.256,3.248-0.784l1.52,1.632H673.189z M652.998,22.168c0,1.648-0.896,2.608-2.336,2.608
			c-1.521,0-2.384-0.976-2.384-2.704c0-1.632,0.863-2.576,2.336-2.576C651.99,19.497,652.998,20.504,652.998,22.168 M654.214,18.568
			h-1.248v1.328c-0.528-1.04-1.44-1.584-2.624-1.584c-2,0-3.36,1.424-3.36,3.808c0,2.32,1.376,3.824,3.425,3.824
			c1.104,0,2.031-0.56,2.592-1.584v1.2c0,0.656-0.032,1.184-0.304,1.632c-0.368,0.624-1.072,0.944-2.049,0.944
			c-1.376,0-2.128-0.624-2.128-1.68V26.36h-1.376c0.048,1.792,1.296,2.848,3.488,2.848c1.264,0,2.224-0.368,2.88-1.072
			c0.672-0.72,0.704-1.52,0.704-2.544V18.568z M643.99,25.72h1.216v-4.864c0-1.616-0.96-2.544-2.544-2.544
			c-1.088,0-1.92,0.464-2.544,1.456c-0.416-0.96-1.248-1.456-2.4-1.456c-1.072,0-1.888,0.448-2.464,1.36v-1.104h-1.216v7.152h1.216
			v-3.696c0-0.176-0.016-0.352-0.016-0.512c0-0.544,0.063-0.992,0.367-1.376c0.385-0.496,0.977-0.768,1.633-0.768
			c1.216,0,1.775,0.704,1.775,2.144v4.208h1.216v-3.696c0-0.16-0.016-0.304-0.016-0.448c0-0.592,0.08-1.04,0.384-1.44
			c0.384-0.496,0.96-0.768,1.616-0.768c1.216,0,1.776,0.704,1.776,2.144V25.72z M628.166,26.024c2.4,0,3.952-2.128,3.952-5.936
			s-1.536-5.92-3.984-5.92c-2.384,0-3.952,2.144-3.952,5.92S625.75,26.024,628.166,26.024 M628.15,24.904
			c-1.584,0-2.561-1.728-2.561-4.832c0-3.088,0.977-4.8,2.561-4.8c1.663,0,2.56,1.648,2.56,4.832
			C630.71,23.272,629.813,24.904,628.15,24.904 M618.806,26.024c2.4,0,3.952-2.128,3.952-5.936s-1.536-5.92-3.984-5.92
			c-2.384,0-3.951,2.144-3.951,5.92S616.39,26.024,618.806,26.024 M618.79,24.904c-1.584,0-2.561-1.728-2.561-4.832
			c0-3.088,0.977-4.8,2.561-4.8c1.664,0,2.56,1.648,2.56,4.832C621.35,23.272,620.454,24.904,618.79,24.904 M612.502,24.424h-4.336
			l1.792-1.936c1.84-2,2.896-3.504,2.896-5.152c0-1.968-1.312-3.168-3.552-3.168c-2.256,0-3.584,1.264-3.584,3.424
			c0,0.096,0.017,0.208,0.017,0.304h1.279v-0.128c0-1.52,0.8-2.352,2.24-2.352c1.376,0,2.256,0.848,2.256,2
			c0,1.488-1.424,3.008-3.488,5.44l-2.416,2.864h6.896V24.424z M597.766,22.216c0,1.648-0.896,2.592-2.336,2.592
			c-1.52,0-2.384-0.976-2.384-2.704c0-1.632,0.864-2.576,2.336-2.576C596.758,19.528,597.766,20.552,597.766,22.216 M598.95,18.568
			h-1.216v1.344c-0.545-1.056-1.425-1.6-2.625-1.6c-2,0-3.359,1.456-3.359,3.856c0,2.336,1.376,3.856,3.424,3.856
			c1.104,0,2.016-0.56,2.592-1.6v1.296h1.185V18.568z M588.279,15.128c0,0.512,0.399,0.896,0.896,0.896s0.896-0.384,0.896-0.88
			s-0.4-0.912-0.896-0.912S588.279,14.632,588.279,15.128 M588.566,25.72h1.217v-7.152h-1.217V25.72z M580.679,25.72h6.225v-1.072
			h-4.064l4.096-6.08h-6v1.072h3.841L580.679,25.72z M578.15,25.72h1.217v-4.864c0-1.616-0.96-2.544-2.544-2.544
			c-1.089,0-1.92,0.464-2.544,1.456c-0.416-0.96-1.248-1.456-2.4-1.456c-1.072,0-1.888,0.448-2.464,1.36v-1.104h-1.216v7.152h1.216
			v-3.696c0-0.176-0.017-0.352-0.017-0.512c0-0.544,0.064-0.992,0.368-1.376c0.384-0.496,0.977-0.768,1.632-0.768
			c1.217,0,1.776,0.704,1.776,2.144v4.208h1.216v-3.696c0-0.16-0.016-0.304-0.016-0.448c0-0.592,0.08-1.04,0.384-1.44
			c0.384-0.496,0.96-0.768,1.616-0.768c1.216,0,1.775,0.704,1.775,2.144V25.72z M564.183,15.128c0,0.512,0.4,0.896,0.896,0.896
			s0.896-0.384,0.896-0.88s-0.399-0.912-0.896-0.912S564.183,14.632,564.183,15.128 M564.471,25.72h1.216v-7.152h-1.216V25.72z
			 M562.295,17.017V15.24c-1.184-0.816-2.4-1.232-3.76-1.232c-1.681,0-3.088,0.56-4.256,1.68c-1.2,1.168-1.792,2.592-1.792,4.368
			c0,2.032,0.911,3.76,2.575,4.912c0.992,0.688,2.16,1.056,3.376,1.056c1.393,0,2.721-0.432,3.856-1.248v-1.808
			c-1.04,1.216-2.304,1.808-3.744,1.808c-1.552,0-2.944-0.736-3.855-2.032c-0.528-0.752-0.784-1.648-0.784-2.704
			c0-1.344,0.432-2.464,1.312-3.376c0.849-0.88,2.064-1.392,3.265-1.392C559.975,15.272,561.191,15.816,562.295,17.017"/>
		<path clip-path="url(#SVGID_26_)" fill="#F9A25E" d="M748.293,68.792l0.832,0.432c1.231-2.288,1.855-4.864,1.855-7.728
			c0-2.96-0.575-5.504-1.855-7.76l-0.832,0.384c1.152,2.272,1.648,4.64,1.648,7.376C749.941,64.312,749.445,66.68,748.293,68.792
			 M740.645,62.393c0-1.504,0.929-2.544,2.288-2.544c1.521,0,2.433,0.976,2.433,2.528c0,1.52-0.944,2.512-2.353,2.512
			C741.573,64.888,740.645,63.944,740.645,62.393 M741.557,59.256l3.696-4.8l-1.184-0.624l-2.608,3.68
			c-1.264,1.792-2.224,3.12-2.224,4.768c0,2.24,1.407,3.744,3.504,3.744c2.496,0,4.031-1.488,4.031-3.776
			c0-2.096-1.407-3.536-3.456-3.536C742.677,58.712,742.117,58.888,741.557,59.256 M730.613,60.008
			c0.703-0.544,1.535-0.816,2.432-0.816c1.76,0,2.848,1.12,2.848,2.752c0,1.776-1.104,2.896-2.735,2.896c-1.12,0-2-0.56-2.513-1.616
			l-0.96,1.12c0.784,1.152,1.889,1.68,3.44,1.68c2.624,0,4.208-1.632,4.208-4.208c0-2.288-1.392-3.728-3.632-3.728
			c-0.641,0-1.232,0.128-1.776,0.416l0.72-2.944h4.097v-1.168h-5.024l-1.36,5.568L730.613,60.008z M727.045,61.992h-9.36v0.912h9.36
			V61.992z M727.045,59h-9.36v0.912h9.36V59z M708.117,65.72h1.216v-3.696c0-0.784,0-1.376,0.416-1.888
			c0.399-0.496,1.023-0.768,1.744-0.768c1.279,0,1.903,0.704,1.903,2.144v4.208h1.217v-4.864c0-1.616-1.024-2.544-2.688-2.544
			c-1.12,0-1.983,0.432-2.592,1.36v-1.104h-1.216V65.72z M706.326,68.792c-1.153-2.112-1.648-4.48-1.648-7.296
			c0-2.736,0.495-5.104,1.648-7.376l-0.833-0.384c-1.28,2.256-1.855,4.8-1.855,7.76c0,2.864,0.623,5.44,1.855,7.728L706.326,68.792z
			 M683.062,54.28l4.433,11.888l2.976-8.848l2.992,8.848l4.432-11.888h-1.472l-2.912,8.416l-3.056-8.864l-3.024,8.864l-2.896-8.416
			H683.062z M679.525,65.72h1.345v-2.464h1.344v-1.104h-1.344v-7.984h-0.576l-6.128,9.088h5.359V65.72z M679.525,62.152h-3.344
			l3.344-5.024V62.152z M668.374,61.641h-1.68l2.336,2.528c-0.641,0.352-1.36,0.512-2.208,0.512c-0.977,0-1.872-0.288-2.608-0.816
			c-1.296-0.944-1.952-2.24-1.952-3.856c0-1.248,0.48-2.432,1.36-3.312s2.063-1.36,3.312-1.36c1.696,0,3.152,0.816,4.017,2.24
			c0.416,0.688,0.64,1.552,0.64,2.496c0,1.408-0.56,2.624-1.52,3.392L668.374,61.641z M673.189,66.824l-2.176-2.352
			c1.344-1.072,2.048-2.624,2.048-4.448c0-1.744-0.672-3.296-1.903-4.416c-1.152-1.04-2.592-1.584-4.225-1.584
			c-1.632,0-3.151,0.608-4.319,1.744c-1.152,1.136-1.792,2.64-1.792,4.24c0,1.984,0.848,3.664,2.447,4.848
			c0.992,0.736,2.177,1.12,3.473,1.12c1.264,0,2.336-0.256,3.248-0.784l1.52,1.632H673.189z M652.998,62.168
			c0,1.648-0.896,2.608-2.336,2.608c-1.521,0-2.384-0.976-2.384-2.704c0-1.632,0.863-2.576,2.336-2.576
			C651.99,59.497,652.998,60.504,652.998,62.168 M654.214,58.568h-1.248v1.328c-0.528-1.04-1.44-1.584-2.624-1.584
			c-2,0-3.36,1.424-3.36,3.808c0,2.32,1.376,3.824,3.425,3.824c1.104,0,2.031-0.56,2.592-1.584v1.2c0,0.656-0.032,1.184-0.304,1.632
			c-0.368,0.624-1.072,0.944-2.049,0.944c-1.376,0-2.128-0.624-2.128-1.68V66.36h-1.376c0.048,1.792,1.296,2.848,3.488,2.848
			c1.264,0,2.224-0.368,2.88-1.072c0.672-0.72,0.704-1.52,0.704-2.544V58.568z M643.99,65.72h1.216v-4.864
			c0-1.616-0.96-2.544-2.544-2.544c-1.088,0-1.92,0.464-2.544,1.456c-0.416-0.96-1.248-1.456-2.4-1.456
			c-1.072,0-1.888,0.448-2.464,1.36v-1.104h-1.216v7.152h1.216v-3.696c0-0.176-0.016-0.352-0.016-0.512
			c0-0.544,0.063-0.992,0.367-1.376c0.385-0.496,0.977-0.768,1.633-0.768c1.216,0,1.775,0.704,1.775,2.144v4.208h1.216v-3.696
			c0-0.16-0.016-0.304-0.016-0.448c0-0.592,0.08-1.04,0.384-1.44c0.384-0.496,0.96-0.768,1.616-0.768
			c1.216,0,1.776,0.704,1.776,2.144V65.72z M628.166,66.024c2.4,0,3.952-2.128,3.952-5.936s-1.536-5.92-3.984-5.92
			c-2.384,0-3.952,2.144-3.952,5.92S625.75,66.024,628.166,66.024 M628.15,64.904c-1.584,0-2.561-1.728-2.561-4.832
			c0-3.088,0.977-4.8,2.561-4.8c1.663,0,2.56,1.648,2.56,4.832C630.71,63.272,629.813,64.904,628.15,64.904 M618.806,66.024
			c2.4,0,3.952-2.128,3.952-5.936s-1.536-5.92-3.984-5.92c-2.384,0-3.951,2.144-3.951,5.92S616.39,66.024,618.806,66.024
			 M618.79,64.904c-1.584,0-2.561-1.728-2.561-4.832c0-3.088,0.977-4.8,2.561-4.8c1.664,0,2.56,1.648,2.56,4.832
			C621.35,63.272,620.454,64.904,618.79,64.904 M610.422,65.72h1.344v-2.464h1.344v-1.104h-1.344v-7.984h-0.576l-6.128,9.088h5.36
			V65.72z M610.422,62.152h-3.344l3.344-5.024V62.152z M597.766,62.216c0,1.648-0.896,2.592-2.336,2.592
			c-1.52,0-2.384-0.976-2.384-2.704c0-1.632,0.864-2.576,2.336-2.576C596.758,59.528,597.766,60.552,597.766,62.216 M598.95,58.568
			h-1.216v1.344c-0.545-1.056-1.425-1.6-2.625-1.6c-2,0-3.359,1.456-3.359,3.856c0,2.336,1.376,3.856,3.424,3.856
			c1.104,0,2.016-0.56,2.592-1.6v1.296h1.185V58.568z M588.279,55.128c0,0.512,0.399,0.896,0.896,0.896s0.896-0.384,0.896-0.88
			s-0.4-0.912-0.896-0.912S588.279,54.632,588.279,55.128 M588.566,65.72h1.217v-7.152h-1.217V65.72z M580.679,65.72h6.225v-1.072
			h-4.064l4.096-6.08h-6v1.072h3.841L580.679,65.72z M578.15,65.72h1.217v-4.864c0-1.616-0.96-2.544-2.544-2.544
			c-1.089,0-1.92,0.464-2.544,1.456c-0.416-0.96-1.248-1.456-2.4-1.456c-1.072,0-1.888,0.448-2.464,1.36v-1.104h-1.216v7.152h1.216
			v-3.696c0-0.176-0.017-0.352-0.017-0.512c0-0.544,0.064-0.992,0.368-1.376c0.384-0.496,0.977-0.768,1.632-0.768
			c1.217,0,1.776,0.704,1.776,2.144v4.208h1.216v-3.696c0-0.16-0.016-0.304-0.016-0.448c0-0.592,0.08-1.04,0.384-1.44
			c0.384-0.496,0.96-0.768,1.616-0.768c1.216,0,1.775,0.704,1.775,2.144V65.72z M564.183,55.128c0,0.512,0.4,0.896,0.896,0.896
			s0.896-0.384,0.896-0.88s-0.399-0.912-0.896-0.912S564.183,54.632,564.183,55.128 M564.471,65.72h1.216v-7.152h-1.216V65.72z
			 M562.295,57.017V55.24c-1.184-0.816-2.4-1.232-3.76-1.232c-1.681,0-3.088,0.56-4.256,1.68c-1.2,1.168-1.792,2.592-1.792,4.368
			c0,2.032,0.911,3.76,2.575,4.912c0.992,0.688,2.16,1.056,3.376,1.056c1.393,0,2.721-0.432,3.856-1.248v-1.808
			c-1.04,1.216-2.304,1.808-3.744,1.808c-1.552,0-2.944-0.736-3.855-2.032c-0.528-0.752-0.784-1.648-0.784-2.704
			c0-1.344,0.432-2.464,1.312-3.376c0.849-0.88,2.064-1.392,3.265-1.392C559.975,55.272,561.191,55.816,562.295,57.017"/>
		<path clip-path="url(#SVGID_26_)" fill="#808285" d="M703.445,108.792l0.832,0.432c1.231-2.288,1.855-4.864,1.855-7.728
			c0-2.96-0.576-5.504-1.855-7.76l-0.832,0.384c1.151,2.272,1.647,4.64,1.647,7.376C705.093,104.312,704.597,106.68,703.445,108.792
			 M695.269,105.576l1.12,0.576l5.712-11.76h-7.248v1.184h5.296L695.269,105.576z M685.765,100.008
			c0.704-0.544,1.536-0.816,2.433-0.816c1.76,0,2.848,1.12,2.848,2.752c0,1.776-1.104,2.896-2.736,2.896c-1.12,0-2-0.56-2.512-1.616
			l-0.96,1.12c0.784,1.152,1.888,1.68,3.44,1.68c2.623,0,4.207-1.632,4.207-4.208c0-2.288-1.392-3.728-3.632-3.728
			c-0.64,0-1.231,0.128-1.775,0.416l0.72-2.944h4.096v-1.168h-5.023l-1.36,5.568L685.765,100.008z M677.557,101.992h-9.359v0.912
			h9.359V101.992z M677.557,99h-9.359v0.912h9.359V99z M658.629,105.72h1.216v-3.696c0-0.784,0-1.376,0.416-1.888
			c0.4-0.496,1.024-0.768,1.744-0.768c1.28,0,1.904,0.704,1.904,2.144v4.208h1.216v-4.864c0-1.616-1.024-2.544-2.688-2.544
			c-1.12,0-1.983,0.432-2.592,1.36v-1.104h-1.216V105.72z M656.838,108.792c-1.152-2.112-1.648-4.48-1.648-7.296
			c0-2.736,0.496-5.104,1.648-7.376l-0.832-0.384c-1.28,2.256-1.856,4.8-1.856,7.76c0,2.864,0.624,5.44,1.856,7.728L656.838,108.792
			z M633.574,94.28l4.432,11.888l2.976-8.848l2.992,8.848l4.433-11.888h-1.473l-2.912,8.416l-3.056-8.864l-3.024,8.864l-2.896-8.416
			H633.574z M632.118,104.424h-4.336l1.792-1.936c1.84-2,2.896-3.504,2.896-5.152c0-1.968-1.312-3.168-3.552-3.168
			c-2.256,0-3.584,1.264-3.584,3.424c0,0.096,0.016,0.208,0.016,0.304h1.28v-0.128c0-1.52,0.8-2.352,2.24-2.352
			c1.376,0,2.256,0.848,2.256,2c0,1.488-1.424,3.008-3.488,5.44l-2.416,2.864h6.896V104.424z M618.886,101.641h-1.68l2.336,2.528
			c-0.64,0.352-1.36,0.512-2.208,0.512c-0.977,0-1.872-0.288-2.608-0.816c-1.296-0.944-1.952-2.24-1.952-3.856
			c0-1.248,0.48-2.432,1.36-3.312s2.064-1.36,3.312-1.36c1.695,0,3.151,0.816,4.016,2.24c0.416,0.688,0.64,1.552,0.64,2.496
			c0,1.408-0.56,2.624-1.52,3.392L618.886,101.641z M623.702,106.824l-2.177-2.352c1.345-1.072,2.049-2.624,2.049-4.448
			c0-1.744-0.672-3.296-1.904-4.416c-1.152-1.04-2.592-1.584-4.224-1.584c-1.633,0-3.152,0.608-4.32,1.744
			c-1.152,1.136-1.792,2.64-1.792,4.24c0,1.984,0.848,3.664,2.448,4.848c0.991,0.736,2.176,1.12,3.472,1.12
			c1.264,0,2.336-0.256,3.248-0.784l1.52,1.632H623.702z M598.79,102.168c0-1.52,1.151-2.704,2.592-2.704
			c1.424,0,2.576,1.184,2.576,2.704s-1.152,2.704-2.576,2.704S598.79,103.688,598.79,102.168 M597.494,102.168
			c0,1.04,0.384,1.968,1.136,2.72c0.736,0.736,1.696,1.136,2.752,1.136c1.04,0,2-0.416,2.752-1.152
			c0.736-0.72,1.136-1.664,1.136-2.704s-0.399-2-1.136-2.72c-0.752-0.736-1.696-1.136-2.752-1.136s-2.016,0.384-2.752,1.12
			C597.878,100.168,597.494,101.128,597.494,102.168 M590.166,102.185c0-1.616,0.992-2.656,2.432-2.656
			c1.424,0,2.305,0.912,2.305,2.496c0,1.792-0.912,2.816-2.337,2.816C591.094,104.84,590.166,103.88,590.166,102.185
			 M588.998,93.608v12.112h1.168v-1.296c0.56,1.024,1.504,1.6,2.607,1.6c2.049,0,3.425-1.52,3.425-3.856
			c0-2.4-1.376-3.856-3.376-3.856c-1.185,0-2.064,0.544-2.608,1.6v-6.304H588.998z M585.926,101.336h-4.352
			c0.128-1.216,1.008-1.968,2.176-1.968C585.046,99.368,585.846,100.072,585.926,101.336 M587.238,102.328v-0.24
			c0-2.368-1.345-3.792-3.44-3.792c-2.08,0-3.568,1.568-3.568,3.824c0,2.336,1.473,3.904,3.648,3.904
			c1.472,0,2.592-0.656,3.312-1.952l-0.928-0.624c-0.592,1.04-1.359,1.552-2.32,1.552c-1.376,0-2.367-1.008-2.367-2.56v-0.112
			H587.238z M579.238,104.024c-0.751,0.544-1.439,0.816-2.207,0.816c-1.489,0-2.561-1.152-2.561-2.592
			c0-1.696,1.087-2.752,2.655-2.752c0.705,0,1.377,0.224,1.983,0.624v-1.312c-0.655-0.32-1.424-0.496-2.224-0.496
			c-2.144,0-3.727,1.568-3.727,3.904c0,2.256,1.456,3.808,3.68,3.808c0.927,0,1.744-0.192,2.399-0.576V104.024z M570.199,102.216
			c0,1.648-0.896,2.592-2.336,2.592c-1.521,0-2.385-0.976-2.385-2.704c0-1.632,0.864-2.576,2.336-2.576
			C569.19,99.528,570.199,100.552,570.199,102.216 M571.383,98.568h-1.216v1.344c-0.544-1.056-1.424-1.6-2.624-1.6
			c-2,0-3.36,1.456-3.36,3.856c0,2.336,1.376,3.856,3.424,3.856c1.104,0,2.017-0.56,2.593-1.6v1.296h1.184V98.568z M560.999,105.72
			h1.216V93.608h-1.216V105.72z M554.375,100.584h1.04c1.184,0,2.112-0.032,2.88-0.576c0.72-0.512,1.168-1.456,1.168-2.576
			c0-1.12-0.448-2.064-1.168-2.576c-0.768-0.544-1.712-0.576-2.88-0.576h-2.4v11.44h1.36V100.584z M554.375,99.353v-3.824h0.656
			c1.983,0,2.96,0.32,2.96,1.984c0,1.584-0.992,1.84-2.96,1.84H554.375z"/>
	</g>
	<line clip-path="url(#SVGID_2_)" fill="none" stroke="#F9A25E" stroke-width="2" x1="492.447" y1="20.5" x2="537.447" y2="20.5"/>
	
		<line clip-path="url(#SVGID_2_)" fill="none" stroke="#F9A25E" stroke-width="2" stroke-dasharray="9,9" x1="492.447" y1="60" x2="537.447" y2="60"/>
	<line clip-path="url(#SVGID_2_)" fill="none" stroke="#808285" stroke-width="2" x1="492.447" y1="100" x2="537.447" y2="100"/>
	<g clip-path="url(#SVGID_2_)">
		<defs>
			<rect id="SVGID_27_" x="-9" y="-1" width="930" height="482.252"/>
		</defs>
		<clipPath id="SVGID_28_">
			<use xlink:href="#SVGID_27_"  overflow="visible"/>
		</clipPath>
		<path clip-path="url(#SVGID_28_)" fill="#808285" d="M681.154,472.295h-2.369l0.979-1.058c1.006-1.095,1.583-1.916,1.583-2.816
			c0-1.077-0.716-1.73-1.94-1.73c-1.234,0-1.959,0.688-1.959,1.871c0,0.052,0.009,0.112,0.009,0.164h0.699v-0.068
			c0-0.831,0.437-1.286,1.225-1.286c0.752,0,1.233,0.463,1.233,1.094c0,0.812-0.779,1.644-1.907,2.974l-1.32,1.563h3.769V472.295z
			 M673.882,477.278c0,0.479,0.375,0.854,0.869,0.854s0.884-0.375,0.884-0.854c0-0.48-0.39-0.869-0.884-0.869
			C674.271,476.409,673.882,476.798,673.882,477.278 M670.837,473.889h-4.082c0.12-1.141,0.946-1.847,2.041-1.847
			C670.012,472.042,670.762,472.703,670.837,473.889 M672.064,474.817v-0.226c0-2.22-1.258-3.553-3.224-3.553
			c-1.951,0-3.344,1.468-3.344,3.583c0,2.191,1.378,3.66,3.419,3.66c1.381,0,2.43-0.614,3.104-1.829l-0.867-0.585
			c-0.556,0.975-1.275,1.456-2.177,1.456c-1.29,0-2.221-0.946-2.221-2.402v-0.104H672.064z M662.587,477.997h1.138v-11.353h-1.138
			V477.997z M658.762,468.068c0,0.479,0.375,0.839,0.839,0.839c0.466,0,0.839-0.36,0.839-0.824c0-0.465-0.373-0.854-0.839-0.854
			C659.137,467.229,658.762,467.604,658.762,468.068 M659.032,477.997h1.138v-6.703h-1.138V477.997z M651.562,477.997h1.274v-5.295
			h4.38v-1.183h-4.38v-3.077h4.38v-1.168h-5.654V477.997z M638.812,477.997h1.139v-3.464c0-0.735,0-1.291,0.39-1.771
			c0.375-0.465,0.96-0.72,1.636-0.72c1.2,0,1.786,0.66,1.786,2.011v3.944h1.138v-4.56c0-1.516-0.959-2.384-2.519-2.384
			c-1.051,0-1.861,0.404-2.431,1.273v-1.034h-1.139V477.997z M631.025,474.668c0-1.426,1.08-2.536,2.432-2.536
			c1.335,0,2.416,1.11,2.416,2.536c0,1.425-1.081,2.536-2.416,2.536C632.121,477.204,631.025,476.093,631.025,474.668
			 M629.812,474.668c0,0.975,0.359,1.846,1.063,2.551c0.69,0.689,1.591,1.063,2.581,1.063c0.975,0,1.876-0.39,2.581-1.078
			c0.688-0.675,1.062-1.562,1.062-2.536s-0.374-1.876-1.062-2.551c-0.705-0.689-1.591-1.063-2.581-1.063s-1.891,0.359-2.581,1.049
			C630.172,472.792,629.812,473.693,629.812,474.668 M622.673,474.713c0,1.545-0.84,2.432-2.191,2.432
			c-1.425,0-2.235-0.916-2.235-2.536c0-1.531,0.811-2.416,2.19-2.416C621.728,472.192,622.673,473.152,622.673,474.713
			 M623.781,471.294h-1.139v1.258c-0.51-0.989-1.335-1.498-2.461-1.498c-1.876,0-3.148,1.363-3.148,3.614
			c0,2.191,1.288,3.614,3.209,3.614c1.036,0,1.891-0.524,2.431-1.498v1.213h1.108V471.294z M613.913,472.237v5.76h1.138v-5.76h1.26
			v-0.943h-1.26v-2.7h-1.138v2.7h-1.23v0.943H613.913z M610.404,474.713c0,1.545-0.842,2.432-2.191,2.432
			c-1.426,0-2.236-0.916-2.236-2.536c0-1.531,0.811-2.416,2.191-2.416C609.458,472.192,610.404,473.152,610.404,474.713
			 M611.512,471.294h-1.138v1.258c-0.511-0.989-1.336-1.498-2.462-1.498c-1.875,0-3.148,1.363-3.148,3.614
			c0,2.191,1.288,3.614,3.209,3.614c1.035,0,1.891-0.524,2.432-1.498v1.213h1.107V471.294z M595.867,476.799v-8.342h0.824
			c1.847,0,3.121,0.03,4.007,0.78c0.886,0.734,1.351,1.876,1.351,3.391s-0.479,2.686-1.351,3.406c-0.9,0.75-2.176,0.765-4.007,0.765
			H595.867z M594.594,477.997h2.519c1.74,0,3.15-0.045,4.396-1.003c1.229-0.945,1.873-2.431,1.873-4.352s-0.644-3.421-1.873-4.365
			c-1.306-1.003-2.851-1.003-4.862-1.003h-2.053V477.997z M586.749,474.683c0,1.591-0.871,2.491-2.251,2.491
			c-1.336,0-2.176-0.961-2.176-2.641c0-1.486,0.824-2.341,2.16-2.341C585.833,472.192,586.749,473.167,586.749,474.683
			 M587.856,466.645h-1.138v5.907c-0.51-0.988-1.336-1.498-2.446-1.498c-1.876,0-3.163,1.363-3.163,3.614
			c0,2.191,1.287,3.614,3.209,3.614c1.034,0,1.905-0.539,2.431-1.498v1.213h1.107V466.645z M573.339,477.997h1.138v-3.464
			c0-0.735,0-1.291,0.391-1.771c0.375-0.465,0.961-0.72,1.636-0.72c1.201,0,1.786,0.66,1.786,2.011v3.944h1.138v-4.56
			c0-1.516-0.958-2.384-2.519-2.384c-1.051,0-1.861,0.404-2.432,1.273v-1.034h-1.138V477.997z M570.009,474.713
			c0,1.545-0.84,2.432-2.19,2.432c-1.426,0-2.236-0.916-2.236-2.536c0-1.531,0.811-2.416,2.19-2.416
			C569.063,472.192,570.009,473.152,570.009,474.713 M571.117,471.294h-1.139v1.258c-0.51-0.989-1.335-1.498-2.461-1.498
			c-1.876,0-3.148,1.363-3.148,3.614c0,2.191,1.288,3.614,3.209,3.614c1.036,0,1.891-0.524,2.431-1.498v1.213h1.108V471.294z
			 M558.444,473.002h0.725v-6.189h-1.582l-0.419,0.646h1.276V473.002z M552.637,477.997h1.259v-2.31h1.261v-1.033h-1.261v-7.485
			h-0.54l-5.743,8.519h5.024V477.997z M552.637,474.654h-3.134l3.134-4.711V474.654z M542.603,477.997h1.243v-10.618h-2.713
			l-0.72,1.108h2.189V477.997z M534.172,478.282c2.251,0,3.704-1.993,3.704-5.564c0-3.57-1.438-5.549-3.734-5.549
			c-2.235,0-3.704,2.008-3.704,5.549S531.906,478.282,534.172,478.282 M534.157,477.234c-1.486,0-2.401-1.621-2.401-4.531
			c0-2.896,0.915-4.501,2.401-4.501c1.56,0,2.4,1.545,2.4,4.531C536.558,475.703,535.717,477.234,534.157,477.234 M528.261,476.784
			h-4.064l1.681-1.816c1.725-1.875,2.714-3.286,2.714-4.829c0-1.847-1.228-2.97-3.329-2.97c-2.116,0-3.358,1.184-3.358,3.21
			c0,0.089,0.015,0.194,0.015,0.283h1.198v-0.119c0-1.425,0.75-2.206,2.101-2.206c1.29,0,2.116,0.796,2.116,1.877
			c0,1.394-1.336,2.819-3.272,5.1l-2.263,2.684h6.463V476.784z M514.283,477.997h1.138v-11.353h-1.138V477.997z M510.893,474.713
			c0,1.545-0.84,2.432-2.19,2.432c-1.425,0-2.236-0.916-2.236-2.536c0-1.531,0.812-2.416,2.191-2.416
			C509.948,472.192,510.893,473.152,510.893,474.713 M512.001,471.294h-1.138v1.258c-0.511-0.989-1.335-1.498-2.461-1.498
			c-1.877,0-3.149,1.363-3.149,3.614c0,2.191,1.288,3.614,3.209,3.614c1.035,0,1.891-0.524,2.431-1.498v1.213h1.108V471.294z
			 M497.783,472.237v5.76h1.138v-5.76h1.26v-0.943h-1.26v-2.7h-1.138v2.7h-1.23v0.943H497.783z M494.723,473.889h-4.082
			c0.121-1.141,0.946-1.847,2.041-1.847C493.897,472.042,494.647,472.703,494.723,473.889 M495.951,474.817v-0.226
			c0-2.22-1.258-3.553-3.225-3.553c-1.949,0-3.344,1.468-3.344,3.583c0,2.191,1.379,3.66,3.419,3.66
			c1.381,0,2.431-0.614,3.105-1.829l-0.869-0.585c-0.556,0.975-1.275,1.456-2.176,1.456c-1.29,0-2.222-0.946-2.222-2.402v-0.104
			H495.951z M482.739,473.889h-4.082c0.12-1.141,0.944-1.847,2.041-1.847C481.913,472.042,482.663,472.703,482.739,473.889
			 M483.967,474.817v-0.226c0-2.22-1.259-3.553-3.224-3.553c-1.951,0-3.345,1.468-3.345,3.583c0,2.191,1.379,3.66,3.42,3.66
			c1.38,0,2.43-0.614,3.104-1.829l-0.869-0.585c-0.555,0.975-1.274,1.456-2.175,1.456c-1.291,0-2.221-0.946-2.221-2.402v-0.104
			H483.967z M479.619,470.242h0.884l2.084-2.548h-1.469L479.619,470.242z M471.788,471.054h-0.181l-2.039,4.814l-1.784-4.574h-1.275
			l2.984,7.123l2.205-5.145l2.204,5.145l2.984-7.123h-1.29l-1.8,4.574L471.788,471.054z M464.799,473.889h-4.082
			c0.12-1.141,0.945-1.847,2.041-1.847C463.973,472.042,464.724,472.703,464.799,473.889 M466.027,474.817v-0.226
			c0-2.22-1.259-3.553-3.225-3.553c-1.951,0-3.344,1.468-3.344,3.583c0,2.191,1.378,3.66,3.419,3.66c1.381,0,2.43-0.614,3.104-1.829
			l-0.868-0.585c-0.555,0.975-1.275,1.456-2.176,1.456c-1.291,0-2.221-0.946-2.221-2.402v-0.104H466.027z M456.669,474.683
			c0,1.591-0.87,2.491-2.251,2.491c-1.336,0-2.176-0.961-2.176-2.641c0-1.486,0.824-2.341,2.161-2.341
			C455.754,472.192,456.669,473.167,456.669,474.683 M457.777,466.645h-1.139v5.907c-0.51-0.988-1.336-1.498-2.445-1.498
			c-1.877,0-3.164,1.363-3.164,3.614c0,2.191,1.287,3.614,3.209,3.614c1.034,0,1.905-0.539,2.431-1.498v1.213h1.108V466.645z
			 M443.259,477.997h1.138v-3.464c0-0.735,0-1.291,0.391-1.771c0.376-0.465,0.961-0.72,1.636-0.72c1.201,0,1.786,0.66,1.786,2.011
			v3.944h1.138v-4.56c0-1.516-0.958-2.384-2.519-2.384c-1.05,0-1.861,0.404-2.432,1.273v-1.034h-1.138V477.997z M439.929,474.713
			c0,1.545-0.84,2.432-2.19,2.432c-1.426,0-2.235-0.916-2.235-2.536c0-1.531,0.81-2.416,2.19-2.416
			C438.984,472.192,439.929,473.152,439.929,474.713 M441.037,471.294h-1.139v1.258c-0.51-0.989-1.335-1.498-2.461-1.498
			c-1.876,0-3.148,1.363-3.148,3.614c0,2.191,1.289,3.614,3.209,3.614c1.036,0,1.891-0.524,2.431-1.498v1.213h1.108V471.294z
			 M428.154,477.997h5.323v-1.213h-4.05v-9.51h-1.273V477.997z M420.37,477.997h1.138v-4.56c0-1.516-0.898-2.384-2.384-2.384
			c-1.021,0-1.801,0.435-2.386,1.363c-0.39-0.899-1.169-1.363-2.249-1.363c-1.007,0-1.771,0.419-2.312,1.273v-1.034h-1.138v6.704
			h1.138v-3.464c0-0.165-0.015-0.33-0.015-0.48c0-0.511,0.06-0.931,0.345-1.291c0.36-0.465,0.915-0.72,1.531-0.72
			c1.14,0,1.666,0.66,1.666,2.011v3.944h1.138v-3.464c0-0.15-0.015-0.285-0.015-0.42c0-0.557,0.075-0.977,0.359-1.352
			c0.36-0.465,0.9-0.72,1.517-0.72c1.14,0,1.666,0.66,1.666,2.011V477.997z M403.253,474.668c0-1.426,1.08-2.536,2.431-2.536
			c1.335,0,2.416,1.11,2.416,2.536c0,1.425-1.081,2.536-2.416,2.536C404.348,477.204,403.253,476.093,403.253,474.668
			 M402.04,474.668c0,0.975,0.358,1.846,1.062,2.551c0.69,0.689,1.591,1.063,2.581,1.063c0.976,0,1.876-0.39,2.581-1.078
			c0.688-0.675,1.063-1.562,1.063-2.536s-0.375-1.876-1.063-2.551c-0.705-0.689-1.591-1.063-2.581-1.063s-1.891,0.359-2.581,1.049
			C402.398,472.792,402.04,473.693,402.04,474.668 M397.405,477.997h1.138v-3.269c0-1.757,0.6-2.626,1.814-2.626
			c0.211,0,0.45,0.045,0.705,0.135l0.391-1.033c-0.255-0.09-0.51-0.135-0.78-0.135c-1.02,0-1.65,0.479-2.25,1.618v-1.395h-1.018
			V477.997z M393.43,477.997h1.139v-5.76h1.784v-0.943h-1.784v-1.786c0-1.291,0.029-1.905,0.885-1.905c0.3,0,0.6,0.074,0.899,0.239
			v-1.183c-0.314-0.105-0.645-0.15-0.989-0.15c-1.604,0-1.934,0.838-1.934,2.85v1.936h-1.29v0.943h1.29V477.997z M385.405,474.683
			c0,1.591-0.87,2.491-2.251,2.491c-1.335,0-2.177-0.961-2.177-2.641c0-1.486,0.826-2.341,2.161-2.341
			C384.49,472.192,385.405,473.167,385.405,474.683 M386.513,466.645h-1.138v5.907c-0.51-0.988-1.335-1.498-2.446-1.498
			c-1.876,0-3.164,1.363-3.164,3.614c0,2.191,1.288,3.614,3.209,3.614c1.036,0,1.906-0.539,2.432-1.498v1.213h1.107V466.645z
			 M377.395,473.889h-4.082c0.121-1.141,0.946-1.847,2.041-1.847C376.57,472.042,377.32,472.703,377.395,473.889 M378.623,474.817
			v-0.226c0-2.22-1.258-3.553-3.225-3.553c-1.949,0-3.344,1.468-3.344,3.583c0,2.191,1.379,3.66,3.419,3.66
			c1.381,0,2.432-0.614,3.105-1.829l-0.869-0.585c-0.555,0.975-1.275,1.456-2.176,1.456c-1.29,0-2.222-0.946-2.222-2.402v-0.104
			H378.623z M369.01,472.237v5.76h1.139v-5.76h1.261v-0.943h-1.261v-2.7h-1.139v2.7h-1.229v0.943H369.01z M361.434,474.668
			c0-1.591,0.87-2.506,2.251-2.506c1.335,0,2.177,0.96,2.177,2.641c0,1.485-0.826,2.356-2.161,2.356
			C362.349,477.159,361.434,476.183,361.434,474.668 M360.326,481.252h1.138v-4.468c0.51,0.989,1.335,1.498,2.446,1.498
			c1.876,0,3.164-1.349,3.164-3.614c0-2.206-1.288-3.614-3.209-3.614c-1.036,0-1.921,0.524-2.446,1.498v-1.259h-1.093V481.252z
			 M356.996,474.713c0,1.545-0.84,2.432-2.191,2.432c-1.426,0-2.235-0.916-2.235-2.536c0-1.531,0.81-2.416,2.19-2.416
			C356.051,472.192,356.996,473.152,356.996,474.713 M358.104,471.294h-1.138v1.258c-0.51-0.989-1.336-1.498-2.461-1.498
			c-1.876,0-3.149,1.363-3.149,3.614c0,2.191,1.288,3.614,3.209,3.614c1.035,0,1.892-0.524,2.432-1.498v1.213h1.107V471.294z
			 M348.491,474.683c0,1.591-0.87,2.491-2.251,2.491c-1.336,0-2.177-0.961-2.177-2.641c0-1.486,0.825-2.341,2.161-2.341
			C347.576,472.192,348.491,473.167,348.491,474.683 M349.599,466.645h-1.138v5.907c-0.51-0.988-1.336-1.498-2.446-1.498
			c-1.876,0-3.164,1.363-3.164,3.614c0,2.191,1.288,3.614,3.209,3.614c1.035,0,1.906-0.539,2.432-1.498v1.213h1.107V466.645z
			 M337.57,469.673l1.71,3.946h-3.42L337.57,469.673z M337.57,466.854l-4.859,11.143h1.38l1.395-3.285h4.185l1.394,3.285h1.381
			L337.57,466.854z M325.525,477.278c0,0.479,0.375,0.854,0.869,0.854c0.495,0,0.885-0.375,0.885-0.854
			c0-0.48-0.39-0.869-0.885-0.869C325.916,476.409,325.525,476.798,325.525,477.278 M322.48,473.889h-4.082
			c0.12-1.141,0.946-1.847,2.041-1.847C321.656,472.042,322.406,472.703,322.48,473.889 M323.709,474.817v-0.226
			c0-2.22-1.258-3.553-3.224-3.553c-1.951,0-3.345,1.468-3.345,3.583c0,2.191,1.378,3.66,3.419,3.66
			c1.381,0,2.431-0.614,3.104-1.829l-0.868-0.585c-0.555,0.975-1.275,1.456-2.176,1.456c-1.29,0-2.222-0.946-2.222-2.402v-0.104
			H323.709z M310.991,476.874c0.524,0.944,1.393,1.408,2.639,1.408c1.486,0,2.444-0.883,2.444-2.129
			c0-1.096-0.645-1.575-1.948-1.995c-1.111-0.36-1.728-0.45-1.728-1.156c0-0.585,0.467-1.005,1.142-1.005
			c0.706,0,1.261,0.345,1.531,0.96l0.928-0.57c-0.359-0.854-1.229-1.333-2.384-1.333c-1.426,0-2.369,0.854-2.369,2.023
			c0,1.321,0.989,1.605,2.639,2.176c0.706,0.24,1.051,0.51,1.051,1.021c0,0.586-0.495,1.006-1.261,1.006
			c-0.765,0-1.336-0.346-1.71-1.066L310.991,476.874z M303.91,474.668c0-1.426,1.08-2.536,2.43-2.536
			c1.336,0,2.416,1.11,2.416,2.536c0,1.425-1.08,2.536-2.416,2.536C305.005,477.204,303.91,476.093,303.91,474.668 M302.696,474.668
			c0,0.975,0.359,1.846,1.063,2.551c0.69,0.689,1.59,1.063,2.58,1.063c0.976,0,1.876-0.39,2.581-1.078
			c0.689-0.675,1.064-1.562,1.064-2.536s-0.375-1.876-1.064-2.551c-0.705-0.689-1.59-1.063-2.581-1.063
			c-0.99,0-1.89,0.359-2.58,1.049C303.056,472.792,302.696,473.693,302.696,474.668 M299.862,474.683
			c0,1.591-0.871,2.491-2.251,2.491c-1.337,0-2.177-0.961-2.177-2.641c0-1.486,0.825-2.341,2.161-2.341
			C298.946,472.192,299.862,473.167,299.862,474.683 M300.97,466.645h-1.138v5.907c-0.511-0.988-1.336-1.498-2.446-1.498
			c-1.876,0-3.164,1.363-3.164,3.614c0,2.191,1.288,3.614,3.209,3.614c1.035,0,1.905-0.539,2.432-1.498v1.213h1.107V466.645z
			 M287.021,474.668c0,1.546-0.841,2.446-2.19,2.446c-1.426,0-2.236-0.915-2.236-2.536c0-1.531,0.811-2.416,2.191-2.416
			C286.076,472.162,287.021,473.107,287.021,474.668 M288.16,471.294h-1.168v1.243c-0.496-0.975-1.352-1.483-2.461-1.483
			c-1.876,0-3.149,1.333-3.149,3.569c0,2.176,1.288,3.584,3.209,3.584c1.035,0,1.905-0.524,2.431-1.483v1.124
			c0,0.612-0.029,1.104-0.284,1.521c-0.347,0.582-1.007,0.88-1.922,0.88c-1.291,0-1.995-0.581-1.995-1.565v-0.09h-1.289
			c0.045,1.67,1.214,2.658,3.27,2.658c1.186,0,2.086-0.344,2.7-1.003c0.629-0.671,0.659-1.416,0.659-2.371V471.294z
			 M273.612,477.997h1.138v-3.464c0-0.735,0-1.291,0.39-1.771c0.375-0.465,0.961-0.72,1.636-0.72c1.2,0,1.786,0.66,1.786,2.011
			v3.944h1.139v-4.56c0-1.516-0.959-2.384-2.52-2.384c-1.05,0-1.86,0.404-2.431,1.273v-1.034h-1.138V477.997z M269.847,468.068
			c0,0.479,0.375,0.839,0.839,0.839s0.839-0.36,0.839-0.824c0-0.465-0.375-0.854-0.839-0.854S269.847,467.604,269.847,468.068
			 M270.117,477.997h1.138v-6.703h-1.138V477.997z M266.682,474.683c0,1.591-0.87,2.491-2.251,2.491
			c-1.335,0-2.176-0.961-2.176-2.641c0-1.486,0.826-2.341,2.161-2.341C265.767,472.192,266.682,473.167,266.682,474.683
			 M267.79,466.645h-1.138v5.907c-0.511-0.988-1.337-1.498-2.446-1.498c-1.876,0-3.164,1.363-3.164,3.614
			c0,2.191,1.288,3.614,3.209,3.614c1.035,0,1.906-0.539,2.431-1.498v1.213h1.108V466.645z M258.222,474.713
			c0,1.545-0.84,2.432-2.19,2.432c-1.426,0-2.236-0.916-2.236-2.536c0-1.531,0.811-2.416,2.191-2.416
			C257.277,472.192,258.222,473.152,258.222,474.713 M259.33,471.294h-1.139v1.258c-0.51-0.989-1.335-1.498-2.461-1.498
			c-1.876,0-3.148,1.363-3.148,3.614c0,2.191,1.288,3.614,3.209,3.614c1.036,0,1.891-0.524,2.431-1.498v1.213h1.108V471.294z
			 M245.306,474.668c0-1.426,1.08-2.536,2.432-2.536c1.335,0,2.415,1.11,2.415,2.536c0,1.425-1.08,2.536-2.415,2.536
			C246.401,477.204,245.306,476.093,245.306,474.668 M244.092,474.668c0,0.975,0.36,1.846,1.064,2.551
			c0.689,0.689,1.59,1.063,2.581,1.063c0.975,0,1.875-0.39,2.579-1.078c0.689-0.675,1.064-1.562,1.064-2.536
			s-0.375-1.876-1.064-2.551c-0.704-0.689-1.59-1.063-2.579-1.063c-0.991,0-1.892,0.359-2.581,1.049
			C244.452,472.792,244.092,473.693,244.092,474.668 M237.988,477.997h5.322v-1.213h-4.05v-9.51h-1.272V477.997z M234.169,469.321
			l-0.411,1.164h-1.119l0.402-1.164H234.169z M233.951,466.786h-0.621l-0.717,2.011h-1.47l-0.184,0.524h1.461l-0.411,1.164h-1.364
			l-0.184,0.522h1.364l-0.708,1.994h0.611l0.718-1.994h1.128l-0.718,1.994h0.621l0.708-1.994h1.416l0.185-0.522h-1.408l0.402-1.164
			h1.329l0.184-0.524h-1.312l0.7-2.011h-0.611l-0.718,2.011h-1.11L233.951,466.786z M222.652,477.278
			c0,0.479,0.374,0.854,0.868,0.854s0.885-0.375,0.885-0.854c0-0.48-0.391-0.869-0.885-0.869
			C223.041,476.409,222.652,476.798,222.652,477.278 M214.7,474.668c0-1.426,1.08-2.536,2.431-2.536c1.335,0,2.416,1.11,2.416,2.536
			c0,1.425-1.081,2.536-2.416,2.536C215.795,477.204,214.7,476.093,214.7,474.668 M213.487,474.668c0,0.975,0.358,1.846,1.062,2.551
			c0.69,0.689,1.59,1.063,2.581,1.063c0.975,0,1.875-0.39,2.58-1.078c0.689-0.675,1.064-1.562,1.064-2.536s-0.375-1.876-1.064-2.551
			c-0.705-0.689-1.59-1.063-2.58-1.063c-0.991,0-1.891,0.359-2.581,1.049C213.846,472.792,213.487,473.693,213.487,474.668
			 M206.615,474.683c0-1.516,0.93-2.49,2.28-2.49c1.336,0,2.161,0.854,2.161,2.341c0,1.68-0.854,2.641-2.19,2.641
			C207.485,477.174,206.615,476.273,206.615,474.683 M205.521,466.645v11.353h1.094v-1.213c0.524,0.96,1.411,1.498,2.445,1.498
			c1.921,0,3.209-1.423,3.209-3.614c0-2.251-1.288-3.614-3.164-3.614c-1.109,0-1.936,0.51-2.445,1.498v-5.907H205.521z
			 M202.642,473.889h-4.082c0.12-1.141,0.946-1.847,2.041-1.847C201.816,472.042,202.566,472.703,202.642,473.889 M203.87,474.817
			v-0.226c0-2.22-1.258-3.553-3.225-3.553c-1.95,0-3.344,1.468-3.344,3.583c0,2.191,1.378,3.66,3.419,3.66
			c1.381,0,2.431-0.614,3.104-1.829l-0.869-0.585c-0.554,0.975-1.274,1.456-2.175,1.456c-1.29,0-2.222-0.946-2.222-2.402v-0.104
			H203.87z M196.37,476.409c-0.705,0.51-1.351,0.765-2.07,0.765c-1.395,0-2.399-1.081-2.399-2.431c0-1.591,1.02-2.581,2.489-2.581
			c0.66,0,1.29,0.21,1.86,0.585v-1.229c-0.615-0.299-1.335-0.464-2.085-0.464c-2.01,0-3.493,1.469-3.493,3.659
			c0,2.116,1.363,3.569,3.448,3.569c0.87,0,1.635-0.18,2.25-0.539V476.409z M187.896,474.713c0,1.545-0.84,2.432-2.19,2.432
			c-1.425,0-2.236-0.916-2.236-2.536c0-1.531,0.812-2.416,2.191-2.416C186.952,472.192,187.896,473.152,187.896,474.713
			 M189.005,471.294h-1.138v1.258c-0.511-0.989-1.335-1.498-2.461-1.498c-1.875,0-3.149,1.363-3.149,3.614
			c0,2.191,1.289,3.614,3.209,3.614c1.036,0,1.891-0.524,2.431-1.498v1.213h1.108V471.294z M179.272,477.997h1.139v-11.353h-1.139
			V477.997z M171.815,474.668c0-1.591,0.87-2.506,2.251-2.506c1.336,0,2.177,0.96,2.177,2.641c0,1.485-0.826,2.356-2.161,2.356
			C172.73,477.159,171.815,476.183,171.815,474.668 M170.708,481.252h1.138v-4.468c0.51,0.989,1.335,1.498,2.446,1.498
			c1.876,0,3.164-1.349,3.164-3.614c0-2.206-1.288-3.614-3.209-3.614c-1.036,0-1.921,0.524-2.446,1.498v-1.259h-1.093V481.252z
			 M159.623,476.874c0.523,0.944,1.393,1.408,2.639,1.408c1.485,0,2.444-0.883,2.444-2.129c0-1.096-0.645-1.575-1.949-1.995
			c-1.111-0.36-1.726-0.45-1.726-1.156c0-0.585,0.465-1.005,1.141-1.005c0.705,0,1.261,0.345,1.53,0.96l0.929-0.57
			c-0.359-0.854-1.228-1.333-2.384-1.333c-1.426,0-2.369,0.854-2.369,2.023c0,1.321,0.988,1.605,2.639,2.176
			c0.705,0.24,1.052,0.51,1.052,1.021c0,0.586-0.496,1.006-1.262,1.006s-1.336-0.346-1.71-1.066L159.623,476.874z M155.872,478.417
			l3.299-7.123h-1.29l-2.024,4.679l-2.009-4.679h-1.29L155.872,478.417z M140.933,472.642c0.66-0.51,1.44-0.765,2.28-0.765
			c1.65,0,2.67,1.05,2.67,2.581c0,1.665-1.035,2.716-2.564,2.716c-1.051,0-1.875-0.524-2.355-1.516l-0.9,1.051
			c0.735,1.079,1.771,1.573,3.226,1.573c2.46,0,3.942-1.528,3.942-3.944c0-2.146-1.303-3.494-3.402-3.494
			c-0.601,0-1.155,0.12-1.665,0.39l0.675-2.762h3.839v-1.093h-4.709l-1.274,5.218L140.933,472.642z M135.037,478.282
			c2.251,0,3.704-1.993,3.704-5.564c0-3.57-1.438-5.549-3.734-5.549c-2.236,0-3.704,2.008-3.704,5.549
			S132.771,478.282,135.037,478.282 M135.021,477.234c-1.485,0-2.4-1.621-2.4-4.531c0-2.896,0.915-4.501,2.4-4.501
			c1.562,0,2.401,1.545,2.401,4.531C137.423,475.703,136.583,477.234,135.021,477.234 M127.583,477.278
			c0,0.479,0.375,0.854,0.869,0.854c0.495,0,0.884-0.375,0.884-0.854c0-0.48-0.389-0.869-0.884-0.869
			C127.973,476.409,127.583,476.798,127.583,477.278 M121.912,478.282c2.251,0,3.704-1.993,3.704-5.564
			c0-3.57-1.438-5.549-3.734-5.549c-2.236,0-3.704,2.008-3.704,5.549S119.646,478.282,121.912,478.282 M121.896,477.234
			c-1.484,0-2.4-1.621-2.4-4.531c0-2.896,0.916-4.501,2.4-4.501c1.562,0,2.401,1.545,2.401,4.531
			C124.298,475.703,123.458,477.234,121.896,477.234 M115.611,470.544v-0.93l-8.623,3.539v0.75l8.623,3.539v-0.945l-7.318-2.969
			L115.611,470.544z M98.827,474.668c0-1.591,0.87-2.506,2.25-2.506c1.336,0,2.176,0.96,2.176,2.641
			c0,1.485-0.825,2.356-2.161,2.356C99.742,477.159,98.827,476.183,98.827,474.668 M97.718,481.252h1.138v-4.468
			c0.512,0.989,1.337,1.498,2.447,1.498c1.875,0,3.163-1.349,3.163-3.614c0-2.206-1.288-3.614-3.209-3.614
			c-1.035,0-1.92,0.524-2.445,1.498v-1.259h-1.094V481.252z M93.942,474.9h0.706v-5.143h1.558v-0.61h-1.558v-2.396h-0.706v2.396
			h-1.558v0.61h1.558V474.9z"/>
	</g>
</g>
</svg>
