<?xml version="1.0" encoding="utf-8"?>
<!-- Generator: Adobe Illustrator 15.1.0, SVG Export Plug-In . SVG Version: 6.00 Build 0)  -->
<!DOCTYPE svg PUBLIC "-//W3C//DTD SVG 1.1//EN" "http://www.w3.org/Graphics/SVG/1.1/DTD/svg11.dtd">
<svg version="1.1" id="x-axis" xmlns="http://www.w3.org/2000/svg" xmlns:xlink="http://www.w3.org/1999/xlink" x="0px" y="0px"
	 width="912px" height="422px" viewBox="0 0 912 422" enable-background="new 0 0 912 422" xml:space="preserve">
<rect y="400" fill="#F3E3D5" width="912" height="20"/>
<rect y="80" fill="#F3E3D5" width="912" height="40"/>
<rect fill="#F3E3D5" width="912" height="40"/>
<rect y="160" fill="#F3E3D5" width="912" height="40"/>
<rect y="240" fill="#F3E3D5" width="912" height="40"/>
<rect y="320" fill="#F3E3D5" width="912" height="40"/>
<g>
	<defs>
		<rect id="SVGID_1_" x="-9" y="-1" width="930" height="422.5"/>
	</defs>
	<clipPath id="SVGID_2_">
		<use xlink:href="#SVGID_1_"  overflow="visible"/>
	</clipPath>
	<polyline clip-path="url(#SVGID_2_)" fill="none" stroke="#808285" stroke-width="2" points="114.455,419.5 120,376 129,351 
		141,350.661 171,332 213,326 228,315 241.902,291.748 258,301.748 284.723,296 299,304 313,304 371.121,301.748 457.121,296 
		543.121,294 629.121,311.748 715.121,295 801.121,301.748 	"/>
</g>
<line fill="none" stroke="#808285" stroke-width="2" stroke-dasharray="10.299,5.299" x1="116.646" y1="409.285" x2="119.364" y2="396.625"/>
<line fill="none" stroke="#808285" stroke-width="2" stroke-dasharray="10.01,5.01" x1="151.351" y1="370.199" x2="193.609" y2="331.1"/>
<line fill="none" stroke="#808285" stroke-width="2" stroke-dasharray="9.65,4.65" x1="233.632" y1="310.38" x2="240.75" y2="300.75"/>
<line fill="none" stroke="#808285" stroke-width="2" stroke-dasharray="9.294,4.294" x1="266.923" y1="301.172" x2="278.341" y2="300.437"/>
<line fill="none" stroke="#808285" stroke-width="2" stroke-dasharray="9.904,4.904" x1="290.406" y1="291.68" x2="297.031" y2="281.25"/>
<line fill="none" stroke="#808285" stroke-width="2" stroke-dasharray="9.515,4.515" x1="324.272" y1="290.361" x2="364.106" y2="290.361"/>
<line fill="none" stroke="#808285" stroke-width="2" stroke-dasharray="9.784,4.784" x1="380.642" y1="292.092" x2="449.955" y2="304.696"/>
<line fill="none" stroke="#808285" stroke-width="2" stroke-dasharray="9.736,4.736" x1="466.634" y1="304.673" x2="535.954" y2="295"/>
<line fill="none" stroke="#808285" stroke-width="2" stroke-dasharray="9.674,4.674" x1="552.623" y1="294.441" x2="621.955" y2="297.667"/>
<line fill="none" stroke="#808285" stroke-width="2" stroke-dasharray="9.72,4.72" x1="638.387" y1="300.433" x2="705.934" y2="318.166"/>
<line fill="none" stroke="#808285" stroke-width="2" stroke-dasharray="9.89,4.89" x1="722.722" y1="319.224" x2="793.956" y2="313.584"/>
<g>
	<defs>
		<rect id="SVGID_3_" x="-9" y="-1" width="930" height="422.5"/>
	</defs>
	<clipPath id="SVGID_4_">
		<use xlink:href="#SVGID_3_"  overflow="visible"/>
	</clipPath>
	<path clip-path="url(#SVGID_4_)" fill="none" stroke="#808285" stroke-width="2" d="M796.395,313.391l4.93-0.391 M708.217,318.766
		l4.699,1.234l4.931-0.391 M624.289,297.775l4.832,0.225l4.701,1.234 M538.301,294.673l4.82-0.673l4.832,0.225 M452.309,305.125
		l4.812,0.875l4.821-0.673 M366.363,290.361h4.758l4.813,0.875 M310.658,285.598l4.342,4.764h4.758 M298.346,279.18L301,275
		l4.343,4.764 M280.483,300.299l4.638-0.299l2.655-4.18 M253.641,299.484l4.359,2.264l4.638-0.299 M242.133,298.88l2.868-3.88
		l4.358,2.264 M223.448,320.926L228,318l2.868-3.88 M209.033,326.666L214,327l4.552-2.926 M195.447,329.398l3.674-3.398l4.968,0.334
		 M139.504,377.346L144,377l3.674-3.399 M127.659,381.675L131,378l4.496-0.346 M119.92,394.035L121,389l3.341-3.675 M114.455,419.5
		l1.08-5.035"/>
	<polyline clip-path="url(#SVGID_4_)" fill="none" stroke="#F9A25E" stroke-width="2" points="114.455,419.5 119,332 128,302 
		144,276 169,255 201,247 214,226 228,207 241.902,225 258,226 285.121,212 298,225 316,207 371.121,210.05 456,208 541.639,192 
		629.121,207 715.121,200 801.121,225 	"/>
</g>
<line fill="none" stroke="#F9A25E" stroke-width="1.5" stroke-dasharray="9.578,4.578" x1="115.397" y1="410.182" x2="122.288" y2="342.042"/>
<line fill="none" stroke="#F9A25E" stroke-width="1.5" stroke-dasharray="9.231,4.231" x1="125.3" y1="326.457" x2="128.25" y2="315.5"/>
<line fill="none" stroke="#F9A25E" stroke-width="1.5" stroke-dasharray="11.462,6.462" x1="134.762" y1="297.775" x2="140.5" y2="284.25"/>
<line fill="none" stroke="#F9A25E" stroke-width="1.5" stroke-dasharray="10.822,5.822" x1="153.448" y1="269.926" x2="164.999" y2="262.5"/>
<line fill="none" stroke="#F9A25E" stroke-width="1.5" stroke-dasharray="9.58,4.58" x1="178.948" y1="251.713" x2="208.75" y2="224.75"/>
<line fill="none" stroke="#F9A25E" stroke-width="1.5" stroke-dasharray="9.569,4.569" x1="266.972" y1="222.354" x2="278.341" y2="219"/>
<line fill="none" stroke="#F9A25E" stroke-width="1.5" stroke-dasharray="8.148,3.148" x1="289.878" y1="211.566" x2="296.28" y2="204.25"/>
<line fill="none" stroke="#F9A25E" stroke-width="1.5" stroke-dasharray="9.873,4.873" x1="325.167" y1="203.508" x2="364.231" y2="188.625"/>
<line fill="none" stroke="#F9A25E" stroke-width="1.5" stroke-dasharray="9.801,4.801" x1="380.68" y1="184.339" x2="450.247" y2="172.25"/>
<line fill="none" stroke="#F9A25E" stroke-width="1.5" stroke-dasharray="9.557,4.557" x1="466.722" y1="171.992" x2="534.622" y2="179.25"/>
<line fill="none" stroke="#F9A25E" stroke-width="1.5" stroke-dasharray="10.13,5.13" x1="551.38" y1="183.006" x2="621.831" y2="204.75"/>
<line fill="none" stroke="#F9A25E" stroke-width="1.5" stroke-dasharray="9.748,4.748" x1="638.636" y1="205.562" x2="707.955" y2="195.083"/>
<line fill="none" stroke="#F9A25E" stroke-width="1.5" stroke-dasharray="9.891,4.891" x1="724.679" y1="196.329" x2="794.112" y2="213.25"/>
<g>
	<defs>
		<rect id="SVGID_5_" x="-9" y="-1" width="930" height="422.5"/>
	</defs>
	<clipPath id="SVGID_6_">
		<use xlink:href="#SVGID_5_"  overflow="visible"/>
	</clipPath>
	<path clip-path="url(#SVGID_6_)" fill="none" stroke="#F9A25E" stroke-width="1.5" d="M796.488,213.829l4.805,1.171
		 M710.303,194.729l4.818-0.729l4.806,1.171 M624.282,205.506l4.839,1.494l4.819-0.729 M536.888,179.492l4.751,0.508l4.84,1.494
		 M452.611,171.839l4.828-0.839l4.752,0.508 M366.509,187.758l4.612-1.758l4.828-0.839 M310.854,204.749L316,207l4.613-1.758
		 M297.316,203.066L300,200l5.146,2.251 M280.532,218.354l4.589-1.354l2.684-3.066 M253.06,220.412L258,225l4.59-1.354
		 M237.92,215.282l3.982-5.232l4.941,4.589 M224.117,224.721L229,227l3.982-5.232 M210.448,223.214L214,220l4.883,2.279
		 M167.448,260.926L172,258l3.552-3.214 M141.762,281.275L144,276l4.552-2.926 M128.801,313.457L130,309l2.238-5.275
		 M122.519,339.764L123,335l1.2-4.457 M114.455,419.5l0.482-4.764"/>
	<polyline clip-path="url(#SVGID_6_)" fill="none" stroke="#006227" stroke-width="2" points="114.455,419.5 121,257 128,232 
		145,198 172,187 201,190.984 215,180 229,160 241.902,168 258,160 284.723,154 300,152.826 316,151.767 371.121,134 457.439,136 
		541.639,141 629.121,170.243 715.121,158 801.121,173 	"/>
</g>
<line fill="none" stroke="#006227" stroke-width="2" stroke-dasharray="9.892,4.892" x1="114.851" y1="409.669" x2="120.702" y2="264.387"/>
<line fill="none" stroke="#006227" stroke-width="2" stroke-dasharray="8.99,3.99" x1="123.288" y1="248.828" x2="126.25" y2="238.25"/>
<line fill="none" stroke="#006227" stroke-width="2" stroke-dasharray="8.836,3.836" x1="131.691" y1="224.617" x2="142.167" y2="203.667"/>
<line fill="none" stroke="#006227" stroke-width="2" stroke-dasharray="9.352,4.352" x1="150.929" y1="191.192" x2="167.5" y2="172.167"/>
<line fill="none" stroke="#006227" stroke-width="2" stroke-dasharray="9.795,4.795" x1="181.633" y1="168.077" x2="193.75" y2="169.432"/>
<line fill="none" stroke="#006227" stroke-width="2" stroke-dasharray="9.633,4.633" x1="266.85" y1="143.312" x2="278.042" y2="147.5"/>
<line fill="none" stroke="#006227" stroke-width="2" stroke-dasharray="8.521,3.521" x1="305.17" y1="144.816" x2="312" y2="152.5"/>
<line fill="none" stroke="#006227" stroke-width="2" stroke-dasharray="9.748,4.748" x1="325.147" y1="154.013" x2="364.231" y2="141.25"/>
<line fill="none" stroke="#006227" stroke-width="2" stroke-dasharray="9.732,4.732" x1="380.668" y1="138.004" x2="450.247" y2="130.75"/>
<line fill="none" stroke="#006227" stroke-width="2" stroke-dasharray="9.541,4.541" x1="466.719" y1="130.771" x2="534.622" y2="136.417"/>
<line fill="none" stroke="#006227" stroke-width="2" stroke-dasharray="9.978,4.978" x1="551.355" y1="139.221" x2="621.832" y2="155.333"/>
<line fill="none" stroke="#006227" stroke-width="2" stroke-dasharray="9.667,4.667" x1="638.621" y1="156.89" x2="707.954" y2="156.083"/>
<line fill="none" stroke="#006227" stroke-width="2" stroke-dasharray="9.736,4.736" x1="724.634" y1="157.327" x2="793.954" y2="167"/>
<g>
	<defs>
		<rect id="SVGID_7_" x="-9" y="-1" width="930" height="422.5"/>
	</defs>
	<clipPath id="SVGID_8_">
		<use xlink:href="#SVGID_7_"  overflow="visible"/>
	</clipPath>
	<path clip-path="url(#SVGID_8_)" fill="none" stroke="#006227" stroke-width="2" d="M796.301,167.327l4.82,0.673 M710.288,156.056
		l4.833-0.056l4.821,0.673 M624.258,155.888l4.863,1.112l4.833-0.056 M536.885,136.605l4.754,0.395l4.864,1.112 M452.601,130.505
		l4.839-0.505l4.754,0.395 M366.488,140.513l4.633-1.513l4.841-0.505 M313.17,153.816L316,157l4.634-1.513 M295.166,142.48L300,139
		l2.83,3.184 M280.212,148.312l4.511,1.688l4.834-3.48 M252.782,141.621L258,140l4.512,1.688 M237.726,148.561l4.177-3.561
		l5.218-1.621 M224.25,156H229l4.177-3.561 M210.623,160.452L215,156h4.75 M196.133,169.699l4.867,0.544l4.377-4.452
		 M168.93,170.526L172,167l4.867,0.544 M143.024,201.951L145,198l3.071-3.526 M126.787,236.329L128,232l1.976-3.951
		 M120.801,261.941L121,257l1.213-4.329 M114.455,419.5l0.199-4.942"/>
	<line clip-path="url(#SVGID_8_)" fill="none" stroke="#F9A25E" stroke-width="3" x1="0" y1="420" x2="912" y2="420"/>
</g>
</svg>
