<?xml version="1.0" encoding="utf-8"?>
<!-- Generator: Adobe Illustrator 15.1.0, SVG Export Plug-In . SVG Version: 6.00 Build 0)  -->
<!DOCTYPE svg PUBLIC "-//W3C//DTD SVG 1.1//EN" "http://www.w3.org/Graphics/SVG/1.1/DTD/svg11.dtd">
<svg version="1.1" id="art" xmlns="http://www.w3.org/2000/svg" xmlns:xlink="http://www.w3.org/1999/xlink" x="0px" y="0px"
	 width="912px" height="543px" viewBox="0 0 912 543" enable-background="new 0 0 912 543" xml:space="preserve">
<g>
	<defs>
		<rect id="SVGID_1_" x="-9" width="930" height="543.007"/>
	</defs>
	<clipPath id="SVGID_2_">
		<use xlink:href="#SVGID_1_"  overflow="visible"/>
	</clipPath>
	<rect y="372.05" clip-path="url(#SVGID_2_)" fill="#F3E3D5" width="912" height="20"/>
	<rect y="52.05" clip-path="url(#SVGID_2_)" fill="#F3E3D5" width="912" height="40"/>
	<rect y="132.05" clip-path="url(#SVGID_2_)" fill="#F3E3D5" width="912" height="40"/>
	<rect y="212.05" clip-path="url(#SVGID_2_)" fill="#F3E3D5" width="912" height="40"/>
	<rect y="292.05" clip-path="url(#SVGID_2_)" fill="#F3E3D5" width="912" height="40"/>
	<line clip-path="url(#SVGID_2_)" fill="none" stroke="#D1D3D4" stroke-width="0.5" x1="114" y1="52.05" x2="114" y2="392.05"/>
	
		<line clip-path="url(#SVGID_2_)" fill="none" stroke="#D1D3D4" stroke-width="0.5" x1="171.25" y1="52.05" x2="171.25" y2="392.05"/>
	<line clip-path="url(#SVGID_2_)" fill="none" stroke="#D1D3D4" stroke-width="0.5" x1="570" y1="52.05" x2="570" y2="392.05"/>
	
		<line clip-path="url(#SVGID_2_)" fill="none" stroke="#D1D3D4" stroke-width="0.5" x1="512.75" y1="52.05" x2="512.75" y2="392.05"/>
	
		<line clip-path="url(#SVGID_2_)" fill="none" stroke="#D1D3D4" stroke-width="0.5" x1="627.25" y1="52.05" x2="627.25" y2="392.05"/>
	<line clip-path="url(#SVGID_2_)" fill="none" stroke="#D1D3D4" stroke-width="0.5" x1="684" y1="52.05" x2="684" y2="392.05"/>
	
		<line clip-path="url(#SVGID_2_)" fill="none" stroke="#D1D3D4" stroke-width="0.5" x1="741.25" y1="52.05" x2="741.25" y2="392.05"/>
	<line clip-path="url(#SVGID_2_)" fill="none" stroke="#D1D3D4" stroke-width="0.5" x1="228" y1="172.05" x2="228" y2="392.05"/>
	
		<line clip-path="url(#SVGID_2_)" fill="none" stroke="#D1D3D4" stroke-width="0.5" x1="285.25" y1="172.05" x2="285.25" y2="392.05"/>
	<line clip-path="url(#SVGID_2_)" fill="none" stroke="#D1D3D4" stroke-width="0.5" x1="342" y1="172.05" x2="342" y2="392.05"/>
	
		<line clip-path="url(#SVGID_2_)" fill="none" stroke="#D1D3D4" stroke-width="0.5" x1="399.25" y1="172.05" x2="399.25" y2="392.05"/>
	
		<line clip-path="url(#SVGID_2_)" fill="none" stroke="#6D6E71" stroke-dasharray="4,4" x1="142.5" y1="52.05" x2="142.5" y2="392.05"/>
	
		<line clip-path="url(#SVGID_2_)" fill="none" stroke="#6D6E71" stroke-dasharray="4,4" x1="456.052" y1="52.05" x2="456.052" y2="392.05"/>
	<line clip-path="url(#SVGID_2_)" fill="none" stroke="#6D6E71" stroke-dasharray="4,4" x1="798" y1="52.05" x2="798" y2="392.05"/>
	<g clip-path="url(#SVGID_2_)">
		<defs>
			<rect id="SVGID_3_" x="-9" width="930" height="543.007"/>
		</defs>
		<clipPath id="SVGID_4_">
			<use xlink:href="#SVGID_3_"  overflow="visible"/>
		</clipPath>
		<path clip-path="url(#SVGID_4_)" fill="#F9A25E" d="M47.072,187.116l0.432-0.832c-2.288-1.232-4.864-1.856-7.728-1.856
			c-2.96,0-5.504,0.576-7.76,1.856l0.384,0.832c2.272-1.152,4.64-1.648,7.376-1.648C42.592,185.468,44.96,185.964,47.072,187.116
			 M41.344,188.044c-1.888,0-2.96,0.88-2.96,2.336s1.072,2.352,2.96,2.352c1.888,0,2.96-0.896,2.96-2.352
			S43.232,188.044,41.344,188.044 M43.504,190.38c0,0.752-0.752,1.2-2.16,1.2c-1.408,0-2.16-0.448-2.16-1.2
			c0-0.784,0.72-1.2,2.16-1.2C42.752,189.181,43.504,189.628,43.504,190.38 M37.568,196.7c0,0.752-0.752,1.2-2.16,1.2
			c-1.408,0-2.176-0.448-2.176-1.2c0-0.784,0.736-1.2,2.176-1.2C36.816,195.5,37.568,195.948,37.568,196.7 M35.408,194.349
			c-1.888,0-2.96,0.896-2.96,2.352c0,1.456,1.072,2.352,2.96,2.352c1.888,0,2.944-0.896,2.944-2.352
			C38.352,195.245,37.296,194.349,35.408,194.349 M44.304,197.373v-0.976l-11.856-6.56v0.96L44.304,197.373z M47.072,200.044
			c-2.112,1.152-4.48,1.648-7.296,1.648c-2.736,0-5.104-0.496-7.376-1.648l-0.384,0.832c2.256,1.28,4.8,1.856,7.76,1.856
			c2.864,0,5.44-0.624,7.728-1.856L47.072,200.044z M42.8,214.604c1.008-0.56,1.504-1.488,1.504-2.816
			c0-1.584-0.944-2.608-2.272-2.608c-1.168,0-1.68,0.688-2.128,2.08c-0.384,1.184-0.48,1.84-1.232,1.84
			c-0.624,0-1.072-0.496-1.072-1.216c0-0.752,0.368-1.344,1.024-1.632l-0.608-0.992c-0.912,0.384-1.424,1.312-1.424,2.544
			c0,1.52,0.912,2.528,2.16,2.528c1.408,0,1.712-1.056,2.32-2.816c0.256-0.752,0.544-1.12,1.088-1.12
			c0.624,0,1.072,0.528,1.072,1.344c0,0.816-0.368,1.424-1.136,1.824L42.8,214.604z M37.856,217.725H44v-1.216h-6.144v-1.344h-1.008
			v1.344h-2.88v1.216h2.88v1.312h1.008V217.725z M44,226.749v-1.216h-3.696c-0.784,0-1.376,0-1.888-0.416
			c-0.496-0.4-0.768-1.024-0.768-1.744c0-1.28,0.704-1.904,2.144-1.904H44v-1.216h-4.864c-1.616,0-2.544,1.024-2.544,2.688
			c0,1.12,0.432,1.984,1.36,2.592h-1.104v1.216H44z M39.616,229.82v4.352c-1.216-0.128-1.968-1.008-1.968-2.176
			C37.648,230.7,38.352,229.9,39.616,229.82 M40.608,228.508h-0.24c-2.368,0-3.792,1.344-3.792,3.44c0,2.08,1.568,3.568,3.824,3.568
			c2.336,0,3.904-1.472,3.904-3.648c0-1.472-0.656-2.592-1.952-3.312l-0.624,0.928c1.04,0.592,1.552,1.36,1.552,2.32
			c0,1.376-1.008,2.368-2.56,2.368h-0.112V228.508z M33.408,238.908c0.512,0,0.896-0.4,0.896-0.896c0-0.496-0.384-0.896-0.88-0.896
			c-0.496,0-0.912,0.4-0.912,0.896C32.512,238.508,32.912,238.908,33.408,238.908 M44,237.404h-7.152v1.216H44V237.404z
			 M37.856,242.556H44v-1.216h-6.144v-1.344h-1.008v1.344h-2.88v1.216h2.88v1.312h1.008V242.556z M40.496,246.299
			c1.648,0,2.592,0.896,2.592,2.336c0,1.52-0.976,2.384-2.704,2.384c-1.632,0-2.576-0.864-2.576-2.336
			C37.808,247.308,38.832,246.299,40.496,246.299 M36.848,245.115v1.216h1.344c-1.056,0.544-1.6,1.424-1.6,2.624
			c0,2,1.456,3.36,3.856,3.36c2.336,0,3.856-1.376,3.856-3.424c0-1.104-0.56-2.016-1.6-2.592H44v-1.184H36.848z M38.864,258.332
			v-1.04c0-1.184-0.032-2.112-0.576-2.88c-0.512-0.72-1.456-1.168-2.576-1.168s-2.064,0.448-2.576,1.168
			c-0.544,0.768-0.576,1.712-0.576,2.88v2.4H44v-1.36H38.864z M37.632,258.332h-3.824v-0.656c0-1.984,0.32-2.96,1.984-2.96
			c1.584,0,1.84,0.992,1.84,2.96V258.332z"/>
		<g clip-path="url(#SVGID_4_)">
			<g>
				<defs>
					<rect id="SVGID_5_" x="65.08" y="65.218" width="35.168" height="13.856"/>
				</defs>
				<clipPath id="SVGID_6_">
					<use xlink:href="#SVGID_5_"  overflow="visible"/>
				</clipPath>
				<path clip-path="url(#SVGID_6_)" fill="#F9A25E" d="M87.296,78.074c2.4,0,3.952-2.128,3.952-5.936s-1.536-5.92-3.984-5.92
					c-2.384,0-3.951,2.144-3.951,5.92S84.88,78.074,87.296,78.074 M87.28,76.954c-1.584,0-2.561-1.728-2.561-4.832
					c0-3.088,0.977-4.8,2.561-4.8c1.664,0,2.56,1.648,2.56,4.832C89.84,75.322,88.944,76.954,87.28,76.954 M77.937,67.258
					c1.248,0,2.016,0.72,2.016,1.904c0,1.152-0.736,1.856-2.048,1.856c-1.28,0-2-0.72-2-1.856
					C75.904,67.994,76.672,67.258,77.937,67.258 M77.92,76.97c-1.536,0-2.399-0.88-2.399-2.304c0-1.44,0.896-2.352,2.399-2.352
					s2.4,0.896,2.4,2.352C80.32,76.09,79.456,76.97,77.92,76.97 M76.432,71.722c-1.504,0.416-2.352,1.536-2.352,3.04
					c0,1.984,1.424,3.312,3.856,3.312c2.447,0,3.84-1.296,3.84-3.344c0-1.472-0.849-2.576-2.353-3.008
					c1.232-0.368,1.937-1.296,1.937-2.528c0-1.776-1.296-2.976-3.424-2.976c-2.097,0-3.44,1.232-3.44,2.864
					C74.496,70.442,75.152,71.322,76.432,71.722"/>
			</g>
		</g>
		<g clip-path="url(#SVGID_4_)">
			<g>
				<defs>
					<rect id="SVGID_7_" x="65.128" y="144.882" width="35.12" height="14.192"/>
				</defs>
				<clipPath id="SVGID_8_">
					<use xlink:href="#SVGID_7_"  overflow="visible"/>
				</clipPath>
				<path clip-path="url(#SVGID_8_)" fill="#F9A25E" d="M87.296,158.074c2.4,0,3.952-2.128,3.952-5.936s-1.536-5.92-3.984-5.92
					c-2.384,0-3.951,2.144-3.951,5.92S84.88,158.074,87.296,158.074 M87.28,156.954c-1.584,0-2.561-1.728-2.561-4.832
					c0-3.088,0.977-4.8,2.561-4.8c1.664,0,2.56,1.648,2.56,4.832C89.84,155.322,88.944,156.954,87.28,156.954 M75.536,154.442
					c0-1.504,0.928-2.544,2.288-2.544c1.52,0,2.432,0.976,2.432,2.528c0,1.52-0.943,2.512-2.352,2.512
					C76.464,156.938,75.536,155.994,75.536,154.442 M76.448,151.306l3.696-4.8l-1.185-0.624l-2.607,3.68
					c-1.265,1.792-2.225,3.12-2.225,4.768c0,2.24,1.408,3.744,3.504,3.744c2.496,0,4.032-1.488,4.032-3.776
					c0-2.096-1.408-3.536-3.456-3.536C77.568,150.762,77.008,150.938,76.448,151.306"/>
			</g>
		</g>
		<g clip-path="url(#SVGID_4_)">
			<g>
				<defs>
					<rect id="SVGID_9_" x="64.552" y="225.218" width="35.696" height="13.856"/>
				</defs>
				<clipPath id="SVGID_10_">
					<use xlink:href="#SVGID_9_"  overflow="visible"/>
				</clipPath>
				<path clip-path="url(#SVGID_10_)" fill="#F9A25E" d="M87.296,238.074c2.4,0,3.952-2.128,3.952-5.936s-1.536-5.92-3.984-5.92
					c-2.384,0-3.951,2.144-3.951,5.92S84.88,238.074,87.296,238.074 M87.28,236.954c-1.584,0-2.561-1.728-2.561-4.832
					c0-3.088,0.977-4.8,2.561-4.8c1.664,0,2.56,1.648,2.56,4.832C89.84,235.322,88.944,236.954,87.28,236.954 M78.912,237.771h1.344
					v-2.464H81.6v-1.104h-1.344v-7.984H79.68l-6.128,9.088h5.36V237.771z M78.912,234.202h-3.344l3.344-5.024V234.202z"/>
			</g>
		</g>
		<g clip-path="url(#SVGID_4_)">
			<g>
				<defs>
					<rect id="SVGID_11_" x="65.096" y="305.218" width="35.152" height="13.855"/>
				</defs>
				<clipPath id="SVGID_12_">
					<use xlink:href="#SVGID_11_"  overflow="visible"/>
				</clipPath>
				<path clip-path="url(#SVGID_12_)" fill="#F9A25E" d="M87.296,318.074c2.4,0,3.952-2.128,3.952-5.937
					c0-3.808-1.536-5.92-3.984-5.92c-2.384,0-3.951,2.145-3.951,5.92C83.312,315.914,84.88,318.074,87.296,318.074 M87.28,316.954
					c-1.584,0-2.561-1.729-2.561-4.832c0-3.088,0.977-4.8,2.561-4.8c1.664,0,2.56,1.647,2.56,4.832
					C89.84,315.322,88.944,316.954,87.28,316.954 M80.992,316.474h-4.336l1.792-1.936c1.84-2,2.896-3.504,2.896-5.152
					c0-1.967-1.312-3.168-3.552-3.168c-2.256,0-3.584,1.265-3.584,3.424c0,0.097,0.016,0.209,0.016,0.305h1.28v-0.128
					c0-1.521,0.8-2.353,2.24-2.353c1.376,0,2.256,0.849,2.256,2c0,1.488-1.424,3.008-3.488,5.44l-2.416,2.864h6.896V316.474z"/>
			</g>
		</g>
	</g>
	<polyline clip-path="url(#SVGID_2_)" fill="none" stroke="#808285" stroke-width="2" points="113.98,392.05 142.5,342.05 
		228.25,329.05 341.989,342.241 456.547,315.438 570.25,322.05 684.25,329.05 798.5,329.05 	"/>
	<polyline clip-path="url(#SVGID_2_)" fill="none" stroke="#F9A25E" stroke-width="2" points="113.989,392.05 142.5,273.05 
		227.75,264.05 341.996,247.05 456.551,218.05 570.002,166.05 684.006,170.05 798.009,180.05 	"/>
	<line clip-path="url(#SVGID_2_)" fill="none" stroke="#F9A25E" stroke-width="3" x1="0" y1="392.05" x2="912" y2="392.05"/>
	<g clip-path="url(#SVGID_2_)">
		<defs>
			<rect id="SVGID_13_" x="-9" width="930" height="543.007"/>
		</defs>
		<clipPath id="SVGID_14_">
			<use xlink:href="#SVGID_13_"  overflow="visible"/>
		</clipPath>
		<g clip-path="url(#SVGID_14_)">
			<g>
				<defs>
					<rect id="SVGID_15_" x="780.496" y="415.498" width="34.864" height="13.552"/>
				</defs>
				<clipPath id="SVGID_16_">
					<use xlink:href="#SVGID_15_"  overflow="visible"/>
				</clipPath>
				<path clip-path="url(#SVGID_16_)" fill="#F9A25E" d="M803.672,428.05h1.344v-2.463h1.345v-1.104h-1.345v-7.984h-0.575
					l-6.128,9.089h5.359V428.05z M803.672,424.482h-3.344l3.344-5.024V424.482z M796.392,426.755h-4.336l1.792-1.937
					c1.84-2,2.896-3.504,2.896-5.152c0-1.968-1.312-3.168-3.552-3.168c-2.257,0-3.584,1.265-3.584,3.425
					c0,0.096,0.016,0.207,0.016,0.303h1.28v-0.127c0-1.521,0.8-2.353,2.239-2.353c1.376,0,2.257,0.849,2.257,2
					c0,1.488-1.425,3.009-3.488,5.44l-2.416,2.863h6.896V426.755z"/>
			</g>
		</g>
		<g clip-path="url(#SVGID_14_)">
			<g>
				<defs>
					<rect id="SVGID_17_" x="666.496" y="415.498" width="35.152" height="13.856"/>
				</defs>
				<clipPath id="SVGID_18_">
					<use xlink:href="#SVGID_17_"  overflow="visible"/>
				</clipPath>
				<path clip-path="url(#SVGID_18_)" fill="#F9A25E" d="M688.696,428.354c2.399,0,3.952-2.129,3.952-5.936
					c0-3.809-1.536-5.921-3.984-5.921c-2.384,0-3.952,2.144-3.952,5.921C684.712,426.194,686.28,428.354,688.696,428.354
					 M688.68,427.234c-1.584,0-2.56-1.728-2.56-4.832c0-3.088,0.976-4.8,2.56-4.8c1.664,0,2.561,1.647,2.561,4.832
					C691.24,425.603,690.344,427.234,688.68,427.234 M682.392,426.755h-4.336l1.792-1.937c1.84-2,2.896-3.504,2.896-5.152
					c0-1.968-1.312-3.168-3.552-3.168c-2.257,0-3.584,1.265-3.584,3.425c0,0.096,0.016,0.207,0.016,0.303h1.28v-0.127
					c0-1.521,0.8-2.353,2.239-2.353c1.376,0,2.257,0.849,2.257,2c0,1.488-1.425,3.009-3.488,5.44l-2.416,2.863h6.896V426.755z"/>
			</g>
		</g>
		<g clip-path="url(#SVGID_14_)">
			<g>
				<defs>
					<rect id="SVGID_19_" x="553.632" y="415.161" width="33.792" height="14.193"/>
				</defs>
				<clipPath id="SVGID_20_">
					<use xlink:href="#SVGID_19_"  overflow="visible"/>
				</clipPath>
				<path clip-path="url(#SVGID_20_)" fill="#F9A25E" d="M572.296,424.722c0-1.504,0.928-2.543,2.288-2.543
					c1.52,0,2.432,0.976,2.432,2.527c0,1.52-0.943,2.512-2.352,2.512C573.224,427.218,572.296,426.274,572.296,424.722
					 M573.208,421.587l3.696-4.801l-1.185-0.624l-2.607,3.681c-1.265,1.791-2.225,3.119-2.225,4.768c0,2.24,1.408,3.744,3.504,3.744
					c2.496,0,4.032-1.488,4.032-3.776c0-2.096-1.408-3.536-3.456-3.536C574.328,421.042,573.768,421.218,573.208,421.587
					 M564.968,428.05h1.328v-11.328H563.4l-0.769,1.185h2.336V428.05z"/>
			</g>
		</g>
		<g clip-path="url(#SVGID_14_)">
			<g>
				<defs>
					<rect id="SVGID_21_" x="439.632" y="415.498" width="33.472" height="13.552"/>
				</defs>
				<clipPath id="SVGID_22_">
					<use xlink:href="#SVGID_21_"  overflow="visible"/>
				</clipPath>
				<path clip-path="url(#SVGID_22_)" fill="#F9A25E" d="M463.752,426.755h-4.336l1.792-1.937c1.84-2,2.896-3.504,2.896-5.152
					c0-1.968-1.312-3.168-3.552-3.168c-2.256,0-3.584,1.265-3.584,3.425c0,0.096,0.017,0.207,0.017,0.303h1.279v-0.127
					c0-1.521,0.801-2.353,2.24-2.353c1.376,0,2.256,0.849,2.256,2c0,1.488-1.424,3.009-3.488,5.44l-2.416,2.863h6.896V426.755z
					 M450.968,428.05h1.328v-11.328H449.4l-0.769,1.185h2.336V428.05z"/>
			</g>
		</g>
		<g clip-path="url(#SVGID_14_)">
			<g>
				<defs>
					<rect id="SVGID_23_" x="329.16" y="415.498" width="25.696" height="13.856"/>
				</defs>
				<clipPath id="SVGID_24_">
					<use xlink:href="#SVGID_23_"  overflow="visible"/>
				</clipPath>
				<path clip-path="url(#SVGID_24_)" fill="#F9A25E" d="M342.016,417.538c1.248,0,2.017,0.721,2.017,1.904
					c0,1.152-0.736,1.855-2.048,1.855c-1.28,0-2-0.72-2-1.855C339.984,418.274,340.752,417.538,342.016,417.538 M342,427.25
					c-1.536,0-2.4-0.88-2.4-2.304c0-1.439,0.896-2.352,2.4-2.352s2.4,0.896,2.4,2.352C344.4,426.37,343.536,427.25,342,427.25
					 M340.512,422.003c-1.504,0.416-2.352,1.535-2.352,3.039c0,1.984,1.424,3.312,3.855,3.312c2.448,0,3.841-1.297,3.841-3.344
					c0-1.473-0.849-2.576-2.353-3.008c1.232-0.369,1.937-1.297,1.937-2.529c0-1.775-1.297-2.976-3.425-2.976
					c-2.096,0-3.439,1.232-3.439,2.864C338.576,420.722,339.232,421.603,340.512,422.003"/>
			</g>
		</g>
		<g clip-path="url(#SVGID_14_)">
			<g>
				<defs>
					<rect id="SVGID_25_" x="214.632" y="415.498" width="26.048" height="13.552"/>
				</defs>
				<clipPath id="SVGID_26_">
					<use xlink:href="#SVGID_25_"  overflow="visible"/>
				</clipPath>
				<path clip-path="url(#SVGID_26_)" fill="#F9A25E" d="M228.992,428.05h1.344v-2.463h1.344v-1.104h-1.344v-7.984h-0.576
					l-6.128,9.089h5.36V428.05z M228.992,424.482h-3.344l3.344-5.024V424.482z"/>
			</g>
		</g>
		<g clip-path="url(#SVGID_14_)">
			<g>
				<defs>
					<rect id="SVGID_27_" x="101.032" y="415.498" width="25.936" height="13.856"/>
				</defs>
				<clipPath id="SVGID_28_">
					<use xlink:href="#SVGID_27_"  overflow="visible"/>
				</clipPath>
				<path clip-path="url(#SVGID_28_)" fill="#F9A25E" d="M114.016,428.354c2.4,0,3.952-2.129,3.952-5.936
					c0-3.809-1.536-5.921-3.983-5.921c-2.385,0-3.952,2.144-3.952,5.921C110.032,426.194,111.6,428.354,114.016,428.354
					 M114,427.234c-1.584,0-2.56-1.728-2.56-4.832c0-3.088,0.976-4.8,2.56-4.8c1.664,0,2.56,1.647,2.56,4.832
					C116.56,425.603,115.664,427.234,114,427.234"/>
			</g>
		</g>
		<path clip-path="url(#SVGID_14_)" fill="#F9A25E" d="M472.552,478.851c0.561,1.008,1.488,1.504,2.816,1.504
			c1.584,0,2.608-0.944,2.608-2.272c0-1.168-0.688-1.68-2.08-2.128c-1.185-0.384-1.84-0.479-1.84-1.231
			c0-0.624,0.495-1.072,1.216-1.072c0.752,0,1.344,0.368,1.632,1.023l0.992-0.607c-0.385-0.912-1.312-1.424-2.544-1.424
			c-1.521,0-2.528,0.912-2.528,2.159c0,1.408,1.056,1.713,2.816,2.32c0.752,0.256,1.119,0.544,1.119,1.088
			c0,0.624-0.527,1.072-1.344,1.072c-0.815,0-1.424-0.368-1.824-1.136L472.552,478.851z M465.512,480.05h1.217l0.016-3.775
			l3.68,3.775h1.712l-3.888-3.871l3.568-3.28h-1.632l-3.44,3.248l-0.016-8.208h-1.217V480.05z M462.424,475.666h-4.352
			c0.128-1.216,1.008-1.968,2.176-1.968C461.544,473.698,462.344,474.402,462.424,475.666 M463.736,476.658v-0.24
			c0-2.368-1.344-3.792-3.44-3.792c-2.08,0-3.567,1.568-3.567,3.824c0,2.336,1.472,3.904,3.647,3.904
			c1.473,0,2.592-0.656,3.312-1.952l-0.929-0.624c-0.592,1.04-1.359,1.552-2.319,1.552c-1.376,0-2.368-1.008-2.368-2.56v-0.112
			H463.736z M454.28,475.666h-4.353c0.129-1.216,1.009-1.968,2.177-1.968C453.4,473.698,454.2,474.402,454.28,475.666
			 M455.592,476.658v-0.24c0-2.368-1.344-3.792-3.439-3.792c-2.08,0-3.568,1.568-3.568,3.824c0,2.336,1.473,3.904,3.648,3.904
			c1.472,0,2.592-0.656,3.312-1.952l-0.928-0.624c-0.592,1.04-1.36,1.552-2.32,1.552c-1.376,0-2.368-1.008-2.368-2.56v-0.112
			H455.592z M433.32,468.61l4.432,11.888l2.977-8.848l2.991,8.848l4.433-11.888h-1.473l-2.911,8.416l-3.057-8.864l-3.023,8.864
			l-2.896-8.416H433.32z"/>
	</g>
	<polygon clip-path="url(#SVGID_2_)" fill="#F9A25E" points="341.515,239.55 342.485,239.55 342.485,232.494 344.622,232.494 
		344.622,231.655 342.485,231.655 342.485,228.368 341.515,228.368 341.515,231.655 339.379,231.655 339.379,232.494 
		341.515,232.494 	"/>
	<polygon clip-path="url(#SVGID_2_)" fill="none" stroke="#F9A25E" points="341.515,239.55 342.485,239.55 342.485,232.494 
		344.622,232.494 344.622,231.655 342.485,231.655 342.485,228.368 341.515,228.368 341.515,231.655 339.379,231.655 
		339.379,232.494 341.515,232.494 	"/>
	<polygon clip-path="url(#SVGID_2_)" fill="#F9A25E" points="455.566,208.733 456.537,208.733 456.537,201.677 458.674,201.677 
		458.674,200.838 456.537,200.838 456.537,197.551 455.566,197.551 455.566,200.838 453.431,200.838 453.431,201.677 
		455.566,201.677 	"/>
	<polygon clip-path="url(#SVGID_2_)" fill="none" stroke="#F9A25E" points="455.566,208.733 456.537,208.733 456.537,201.677 
		458.674,201.677 458.674,200.838 456.537,200.838 456.537,197.551 455.566,197.551 455.566,200.838 453.431,200.838 
		453.431,201.677 455.566,201.677 	"/>
	<polygon clip-path="url(#SVGID_2_)" fill="#F9A25E" points="569.515,159.243 570.485,159.243 570.485,152.188 572.622,152.188 
		572.622,151.348 570.485,151.348 570.485,148.062 569.515,148.062 569.515,151.348 567.379,151.348 567.379,152.188 
		569.515,152.188 	"/>
	<polygon clip-path="url(#SVGID_2_)" fill="none" stroke="#F9A25E" points="569.515,159.243 570.485,159.243 570.485,152.188 
		572.622,152.188 572.622,151.348 570.485,151.348 570.485,148.062 569.515,148.062 569.515,151.348 567.379,151.348 
		567.379,152.188 569.515,152.188 	"/>
	<polygon clip-path="url(#SVGID_2_)" fill="#F9A25E" points="683.515,162.642 684.485,162.642 684.485,155.585 686.622,155.585 
		686.622,154.747 684.485,154.747 684.485,151.459 683.515,151.459 683.515,154.747 681.379,154.747 681.379,155.585 
		683.515,155.585 	"/>
	<polygon clip-path="url(#SVGID_2_)" fill="none" stroke="#F9A25E" points="683.515,162.642 684.485,162.642 684.485,155.585 
		686.622,155.585 686.622,154.747 684.485,154.747 684.485,151.459 683.515,151.459 683.515,154.747 681.379,154.747 
		681.379,155.585 683.515,155.585 	"/>
	<polygon clip-path="url(#SVGID_2_)" fill="#F9A25E" points="797.611,171.426 798.582,171.426 798.582,164.37 800.718,164.37 
		800.718,163.531 798.582,163.531 798.582,160.244 797.611,160.244 797.611,163.531 795.475,163.531 795.475,164.37 797.611,164.37 
			"/>
	<polygon clip-path="url(#SVGID_2_)" fill="none" stroke="#F9A25E" points="797.611,171.426 798.582,171.426 798.582,164.37 
		800.718,164.37 800.718,163.531 798.582,163.531 798.582,160.244 797.611,160.244 797.611,163.531 795.475,163.531 795.475,164.37 
		797.611,164.37 	"/>
	<polygon clip-path="url(#SVGID_2_)" fill="#F9A25E" points="141.676,263.131 142.775,262.491 142.775,263.729 143.274,263.729 
		143.274,262.511 144.335,263.121 144.575,262.681 143.505,262.071 144.575,261.45 144.335,261.01 143.265,261.62 143.274,260.371 
		142.775,260.371 142.786,261.649 141.686,261.01 141.436,261.439 142.525,262.071 141.436,262.701 	"/>
	<polygon clip-path="url(#SVGID_2_)" fill="none" stroke="#F9A25E" points="141.676,263.131 142.775,262.491 142.775,263.729 
		143.274,263.729 143.274,262.511 144.335,263.121 144.575,262.681 143.505,262.071 144.575,261.45 144.335,261.01 143.265,261.62 
		143.274,260.371 142.775,260.371 142.786,261.649 141.686,261.01 141.436,261.439 142.525,262.071 141.436,262.701 	"/>
	<polygon clip-path="url(#SVGID_2_)" fill="#F9A25E" points="169.676,256.31 170.775,255.67 170.775,256.909 171.274,256.909 
		171.274,255.69 172.335,256.3 172.575,255.86 171.505,255.25 172.575,254.629 172.335,254.189 171.265,254.799 171.274,253.55 
		170.775,253.55 170.786,254.829 169.686,254.189 169.436,254.619 170.525,255.25 169.436,255.88 	"/>
	<polygon clip-path="url(#SVGID_2_)" fill="none" stroke="#F9A25E" points="169.676,256.31 170.775,255.67 170.775,256.909 
		171.274,256.909 171.274,255.69 172.335,256.3 172.575,255.86 171.505,255.25 172.575,254.629 172.335,254.189 171.265,254.799 
		171.274,253.55 170.775,253.55 170.786,254.829 169.686,254.189 169.436,254.619 170.525,255.25 169.436,255.88 	"/>
	<polygon clip-path="url(#SVGID_2_)" fill="#F9A25E" points="226.676,250.31 227.775,249.67 227.775,250.909 228.274,250.909 
		228.274,249.69 229.335,250.3 229.575,249.86 228.505,249.25 229.575,248.629 229.335,248.189 228.265,248.799 228.274,247.55 
		227.775,247.55 227.786,248.829 226.686,248.189 226.436,248.619 227.525,249.25 226.436,249.88 	"/>
	<polygon clip-path="url(#SVGID_2_)" fill="none" stroke="#F9A25E" points="226.676,250.31 227.775,249.67 227.775,250.909 
		228.274,250.909 228.274,249.69 229.335,250.3 229.575,249.86 228.505,249.25 229.575,248.629 229.335,248.189 228.265,248.799 
		228.274,247.55 227.775,247.55 227.786,248.829 226.686,248.189 226.436,248.619 227.525,249.25 226.436,249.88 	"/>
	<g clip-path="url(#SVGID_2_)">
		<defs>
			<rect id="SVGID_29_" x="-9" width="930" height="543.007"/>
		</defs>
		<clipPath id="SVGID_30_">
			<use xlink:href="#SVGID_29_"  overflow="visible"/>
		</clipPath>
		<path clip-path="url(#SVGID_30_)" fill="#FFFFFF" d="M142.5,40c11.046,0,20-8.954,20-20s-8.954-20-20-20s-20,8.954-20,20
			S131.454,40,142.5,40"/>
		<path clip-path="url(#SVGID_30_)" fill="#FFFFFF" d="M140.991,45.903c0,0,1.531,2.58,3.062,0l4.911-8.273
			c0,0,1.531-2.58-1.469-2.58h-9.946c0,0-3,0-1.468,2.58L140.991,45.903z"/>
	</g>
	<polygon clip-path="url(#SVGID_2_)" fill="#F9A25E" points="143.536,27.447 143.536,14.275 142.593,14.275 140.206,16.329 
		140.206,17.458 142.593,15.349 142.593,27.447 	"/>
	<g clip-path="url(#SVGID_2_)">
		<defs>
			<rect id="SVGID_31_" x="-9" width="930" height="543.007"/>
		</defs>
		<clipPath id="SVGID_32_">
			<use xlink:href="#SVGID_31_"  overflow="visible"/>
		</clipPath>
		<path clip-path="url(#SVGID_32_)" fill="#FFFFFF" d="M456.052,40c11.046,0,20-8.954,20-20s-8.954-20-20-20s-20,8.954-20,20
			S445.006,40,456.052,40"/>
		<path clip-path="url(#SVGID_32_)" fill="#FFFFFF" d="M454.543,45.903c0,0,1.531,2.58,3.062,0l4.911-8.273
			c0,0,1.531-2.58-1.469-2.58h-9.946c0,0-3,0-1.468,2.58L454.543,45.903z"/>
		<path clip-path="url(#SVGID_32_)" fill="#FFFFFF" d="M798,40c11.046,0,20-8.954,20-20s-8.954-20-20-20s-20,8.954-20,20
			S786.954,40,798,40"/>
		<path clip-path="url(#SVGID_32_)" fill="#FFFFFF" d="M796.491,45.903c0,0,1.531,2.58,3.062,0l4.911-8.273
			c0,0,1.531-2.58-1.469-2.58h-9.946c0,0-3,0-1.468,2.58L796.491,45.903z"/>
		<path clip-path="url(#SVGID_32_)" fill="#F9A25E" d="M463.756,27.447v-0.833h-5.846l4.938-6.456
			c0.666-0.87,0.907-1.554,0.907-2.535c0-2.09-1.369-3.459-3.478-3.459c-2.184,0-3.479,1.498-3.479,3.459h0.943
			c0-1.85,1.166-2.627,2.535-2.627c1.591,0,2.533,1.055,2.533,2.627c0,0.759-0.222,1.388-0.739,2.054l-5.291,6.937v0.833H463.756z
			 M451.916,27.447V14.275h-0.943l-2.387,2.053v1.129l2.387-2.109v12.099H451.916z"/>
		<path clip-path="url(#SVGID_32_)" fill="#F9A25E" d="M806.621,25.283v-0.832h-1.758V20.27h-0.943v4.181h-4.218l4.847-10.175
			h-0.999l-4.847,10.175v0.832h5.217v2.165h0.943v-2.165H806.621z M796.89,27.447v-0.833h-5.846l4.94-6.456
			c0.666-0.87,0.905-1.554,0.905-2.535c0-2.09-1.368-3.459-3.478-3.459c-2.183,0-3.479,1.498-3.479,3.459h0.943
			c0-1.85,1.166-2.627,2.535-2.627c1.591,0,2.535,1.055,2.535,2.627c0,0.759-0.223,1.388-0.74,2.054l-5.291,6.937v0.833H796.89z"/>
		<path clip-path="url(#SVGID_32_)" fill="#F9A25E" d="M409.31,109.842l0.832,0.432c1.231-2.288,1.855-4.864,1.855-7.728
			c0-2.96-0.576-5.504-1.855-7.76l-0.832,0.384c1.151,2.272,1.647,4.64,1.647,7.376C410.957,105.362,410.461,107.73,409.31,109.842
			 M403.693,106.77h1.328V95.442h-2.896l-0.768,1.184h2.336V106.77z M397.757,105.474h-4.336l1.792-1.936
			c1.841-2,2.896-3.504,2.896-5.152c0-1.968-1.312-3.168-3.552-3.168c-2.256,0-3.584,1.264-3.584,3.424
			c0,0.096,0.016,0.208,0.016,0.304h1.28v-0.128c0-1.52,0.8-2.352,2.24-2.352c1.376,0,2.256,0.848,2.256,2
			c0,1.488-1.424,3.008-3.488,5.44l-2.416,2.864h6.896V105.474z M384.974,106.77h1.328V95.442h-2.896l-0.768,1.184h2.336V106.77z
			 M378.701,103.042h-9.359v0.912h9.359V103.042z M378.701,100.05h-9.359v0.912h9.359V100.05z M359.773,106.77h1.216v-3.696
			c0-0.784,0-1.376,0.416-1.888c0.4-0.496,1.024-0.768,1.744-0.768c1.28,0,1.904,0.704,1.904,2.144v4.208h1.216v-4.864
			c0-1.616-1.024-2.544-2.688-2.544c-1.12,0-1.983,0.432-2.592,1.36v-1.104h-1.216V106.77z M357.981,109.842
			c-1.152-2.112-1.648-4.48-1.648-7.296c0-2.736,0.496-5.104,1.648-7.376l-0.832-0.384c-1.28,2.256-1.856,4.8-1.856,7.76
			c0,2.864,0.624,5.44,1.856,7.728L357.981,109.842z M334.717,95.33l4.433,11.888l2.976-8.848l2.992,8.848l4.432-11.888h-1.472
			l-2.912,8.416l-3.056-8.864l-3.024,8.864l-2.896-8.416H334.717z M331.182,106.77h1.344v-2.464h1.344v-1.104h-1.344v-7.984h-0.576
			l-6.128,9.088h5.36V106.77z M331.182,103.202h-3.345l3.345-5.024V103.202z M320.03,102.69h-1.68l2.336,2.528
			c-0.641,0.352-1.36,0.512-2.208,0.512c-0.978,0-1.872-0.288-2.608-0.816c-1.296-0.944-1.952-2.24-1.952-3.856
			c0-1.248,0.479-2.432,1.359-3.312c0.881-0.88,2.063-1.36,3.312-1.36c1.695,0,3.151,0.816,4.017,2.24
			c0.416,0.688,0.64,1.552,0.64,2.496c0,1.408-0.56,2.624-1.521,3.392L320.03,102.69z M324.846,107.874l-2.177-2.352
			c1.346-1.072,2.05-2.624,2.05-4.448c0-1.744-0.673-3.296-1.904-4.416c-1.152-1.04-2.593-1.584-4.225-1.584
			c-1.633,0-3.151,0.608-4.319,1.744c-1.153,1.136-1.792,2.64-1.792,4.24c0,1.984,0.848,3.664,2.448,4.848
			c0.991,0.736,2.176,1.12,3.471,1.12c1.265,0,2.336-0.256,3.249-0.784l1.519,1.632H324.846z M304.654,103.218
			c0,1.648-0.896,2.608-2.336,2.608c-1.521,0-2.384-0.976-2.384-2.704c0-1.632,0.863-2.576,2.336-2.576
			C303.646,100.546,304.654,101.554,304.654,103.218 M305.87,99.618h-1.248v1.328c-0.527-1.04-1.439-1.584-2.624-1.584
			c-2,0-3.359,1.424-3.359,3.808c0,2.32,1.376,3.824,3.424,3.824c1.104,0,2.032-0.56,2.592-1.584v1.2
			c0,0.656-0.032,1.184-0.304,1.632c-0.368,0.624-1.072,0.944-2.048,0.944c-1.376,0-2.129-0.624-2.129-1.68v-0.096h-1.376
			c0.049,1.792,1.297,2.848,3.488,2.848c1.265,0,2.225-0.368,2.88-1.072c0.672-0.72,0.704-1.52,0.704-2.544V99.618z M295.646,106.77
			h1.216v-4.864c0-1.616-0.96-2.544-2.544-2.544c-1.088,0-1.92,0.464-2.544,1.456c-0.416-0.96-1.248-1.456-2.4-1.456
			c-1.071,0-1.888,0.448-2.464,1.36v-1.104h-1.216v7.152h1.216v-3.696c0-0.176-0.016-0.352-0.016-0.512
			c0-0.544,0.063-0.992,0.368-1.376c0.384-0.496,0.976-0.768,1.632-0.768c1.216,0,1.775,0.704,1.775,2.144v4.208h1.217v-3.696
			c0-0.16-0.017-0.304-0.017-0.448c0-0.592,0.08-1.04,0.384-1.44c0.385-0.496,0.96-0.768,1.616-0.768
			c1.216,0,1.776,0.704,1.776,2.144V106.77z M279.822,107.074c2.4,0,3.952-2.128,3.952-5.936s-1.536-5.92-3.984-5.92
			c-2.384,0-3.952,2.144-3.952,5.92S277.406,107.074,279.822,107.074 M279.807,105.954c-1.584,0-2.561-1.728-2.561-4.832
			c0-3.088,0.977-4.8,2.561-4.8c1.664,0,2.56,1.648,2.56,4.832C282.366,104.322,281.471,105.954,279.807,105.954 M270.462,107.074
			c2.4,0,3.952-2.128,3.952-5.936s-1.536-5.92-3.983-5.92c-2.385,0-3.952,2.144-3.952,5.92S268.046,107.074,270.462,107.074
			 M270.446,105.954c-1.584,0-2.56-1.728-2.56-4.832c0-3.088,0.976-4.8,2.56-4.8c1.664,0,2.56,1.648,2.56,4.832
			C273.006,104.322,272.11,105.954,270.446,105.954 M262.078,106.77h1.344v-2.464h1.345v-1.104h-1.345v-7.984h-0.575l-6.128,9.088
			h5.359V106.77z M262.078,103.202h-3.344l3.344-5.024V103.202z M245.614,97.234h-0.928v4.304h-4.225v0.912h4.225v4.32h0.928v-4.32
			h4.208v-0.912h-4.208V97.234z"/>
		<path clip-path="url(#SVGID_32_)" fill="#F9A25E" d="M369.901,77.33l4.432,11.888l2.977-8.848l2.992,8.848l4.432-11.888h-1.472
			l-2.912,8.416l-3.057-8.864l-3.023,8.864l-2.896-8.416H369.901z M364.573,84.69h-1.68l2.336,2.528
			c-0.641,0.352-1.36,0.512-2.208,0.512c-0.977,0-1.872-0.288-2.608-0.816c-1.296-0.944-1.952-2.24-1.952-3.856
			c0-1.248,0.48-2.432,1.36-3.312c0.88-0.88,2.064-1.36,3.312-1.36c1.696,0,3.152,0.816,4.017,2.24
			c0.416,0.688,0.64,1.552,0.64,2.496c0,1.408-0.56,2.624-1.52,3.392L364.573,84.69z M369.39,89.874l-2.177-2.352
			c1.345-1.072,2.049-2.624,2.049-4.448c0-1.744-0.673-3.296-1.904-4.416c-1.152-1.04-2.592-1.584-4.225-1.584
			c-1.632,0-3.151,0.608-4.319,1.744c-1.152,1.136-1.792,2.64-1.792,4.24c0,1.984,0.848,3.664,2.448,4.848
			c0.991,0.736,2.176,1.12,3.472,1.12c1.264,0,2.336-0.256,3.248-0.784l1.52,1.632H369.39z M354.605,87.474h-4.336l1.792-1.936
			c1.84-2,2.896-3.504,2.896-5.152c0-1.968-1.312-3.168-3.552-3.168c-2.256,0-3.584,1.264-3.584,3.424
			c0,0.096,0.016,0.208,0.016,0.304h1.28v-0.128c0-1.52,0.8-2.352,2.24-2.352c1.376,0,2.256,0.848,2.256,2
			c0,1.488-1.424,3.008-3.488,5.44l-2.416,2.864h6.896V87.474z M339.837,85.218c0,1.648-0.896,2.608-2.336,2.608
			c-1.52,0-2.384-0.976-2.384-2.704c0-1.632,0.864-2.576,2.336-2.576C338.829,82.546,339.837,83.554,339.837,85.218 M341.054,81.618
			h-1.248v1.328c-0.528-1.04-1.44-1.584-2.624-1.584c-2,0-3.36,1.424-3.36,3.808c0,2.32,1.376,3.824,3.424,3.824
			c1.104,0,2.032-0.56,2.592-1.584v1.2c0,0.656-0.031,1.184-0.304,1.632c-0.368,0.624-1.072,0.944-2.048,0.944
			c-1.376,0-2.128-0.624-2.128-1.68V89.41h-1.376c0.048,1.792,1.296,2.848,3.488,2.848c1.264,0,2.224-0.368,2.88-1.072
			c0.672-0.72,0.704-1.52,0.704-2.544V81.618z M330.829,88.77h1.216v-4.864c0-1.616-0.96-2.544-2.544-2.544
			c-1.088,0-1.92,0.464-2.544,1.456c-0.416-0.96-1.248-1.456-2.399-1.456c-1.072,0-1.889,0.448-2.464,1.36v-1.104h-1.217v7.152
			h1.217v-3.696c0-0.176-0.017-0.352-0.017-0.512c0-0.544,0.064-0.992,0.368-1.376c0.384-0.496,0.976-0.768,1.632-0.768
			c1.216,0,1.776,0.704,1.776,2.144v4.208h1.216v-3.696c0-0.16-0.016-0.304-0.016-0.448c0-0.592,0.079-1.04,0.384-1.44
			c0.384-0.496,0.96-0.768,1.616-0.768c1.216,0,1.775,0.704,1.775,2.144V88.77z M315.005,89.074c2.4,0,3.952-2.128,3.952-5.936
			s-1.536-5.92-3.983-5.92c-2.385,0-3.952,2.144-3.952,5.92S312.589,89.074,315.005,89.074 M314.989,87.954
			c-1.584,0-2.56-1.728-2.56-4.832c0-3.088,0.976-4.8,2.56-4.8c1.664,0,2.56,1.648,2.56,4.832
			C317.549,86.322,316.653,87.954,314.989,87.954 M305.646,89.074c2.399,0,3.952-2.128,3.952-5.936s-1.536-5.92-3.984-5.92
			c-2.384,0-3.952,2.144-3.952,5.92S303.229,89.074,305.646,89.074 M305.629,87.954c-1.584,0-2.56-1.728-2.56-4.832
			c0-3.088,0.976-4.8,2.56-4.8c1.664,0,2.561,1.648,2.561,4.832C308.189,86.322,307.293,87.954,305.629,87.954 M299.342,87.474
			h-4.337l1.792-1.936c1.841-2,2.896-3.504,2.896-5.152c0-1.968-1.312-3.168-3.552-3.168c-2.256,0-3.584,1.264-3.584,3.424
			c0,0.096,0.016,0.208,0.016,0.304h1.28v-0.128c0-1.52,0.8-2.352,2.24-2.352c1.376,0,2.256,0.848,2.256,2
			c0,1.488-1.424,3.008-3.488,5.44l-2.416,2.864h6.896V87.474z M284.605,85.266c0,1.648-0.896,2.592-2.336,2.592
			c-1.521,0-2.384-0.976-2.384-2.704c0-1.632,0.863-2.576,2.336-2.576C283.598,82.578,284.605,83.602,284.605,85.266
			 M285.789,81.618h-1.216v1.344c-0.544-1.056-1.424-1.6-2.624-1.6c-2,0-3.36,1.456-3.36,3.856c0,2.336,1.376,3.856,3.425,3.856
			c1.104,0,2.016-0.56,2.592-1.6v1.296h1.184V81.618z M275.118,78.178c0,0.512,0.4,0.896,0.896,0.896s0.896-0.384,0.896-0.88
			s-0.399-0.912-0.896-0.912S275.118,77.682,275.118,78.178 M275.406,88.77h1.216v-7.152h-1.216V88.77z M267.519,88.77h6.224v-1.072
			h-4.063l4.096-6.08h-6v1.072h3.84L267.519,88.77z M264.99,88.77h1.216v-4.864c0-1.616-0.96-2.544-2.544-2.544
			c-1.088,0-1.92,0.464-2.544,1.456c-0.416-0.96-1.248-1.456-2.399-1.456c-1.072,0-1.889,0.448-2.465,1.36v-1.104h-1.216v7.152
			h1.216v-3.696c0-0.176-0.016-0.352-0.016-0.512c0-0.544,0.064-0.992,0.368-1.376c0.384-0.496,0.976-0.768,1.632-0.768
			c1.216,0,1.776,0.704,1.776,2.144v4.208h1.216v-3.696c0-0.16-0.017-0.304-0.017-0.448c0-0.592,0.08-1.04,0.385-1.44
			c0.384-0.496,0.96-0.768,1.615-0.768c1.217,0,1.776,0.704,1.776,2.144V88.77z M251.022,78.178c0,0.512,0.399,0.896,0.896,0.896
			s0.896-0.384,0.896-0.88s-0.4-0.912-0.896-0.912S251.022,77.682,251.022,78.178 M251.311,88.77h1.216v-7.152h-1.216V88.77z
			 M249.135,80.066V78.29c-1.185-0.816-2.4-1.232-3.761-1.232c-1.68,0-3.088,0.56-4.256,1.68c-1.2,1.168-1.792,2.592-1.792,4.368
			c0,2.032,0.912,3.76,2.576,4.912c0.992,0.688,2.16,1.056,3.376,1.056c1.392,0,2.72-0.432,3.856-1.248v-1.808
			c-1.04,1.216-2.305,1.808-3.744,1.808c-1.553,0-2.944-0.736-3.856-2.032c-0.528-0.752-0.784-1.648-0.784-2.704
			c0-1.344,0.433-2.464,1.312-3.376c0.848-0.88,2.063-1.392,3.264-1.392C246.814,78.322,248.03,78.866,249.135,80.066"/>
		<path clip-path="url(#SVGID_32_)" fill="#808285" d="M343.276,160.842l0.832,0.432c1.231-2.288,1.855-4.864,1.855-7.728
			c0-2.96-0.575-5.504-1.855-7.76l-0.832,0.384c1.152,2.272,1.647,4.64,1.647,7.376C344.924,156.362,344.429,158.73,343.276,160.842
			 M335.101,157.626l1.12,0.576l5.712-11.76h-7.248v1.184h5.296L335.101,157.626z M325.597,152.058
			c0.704-0.544,1.535-0.816,2.432-0.816c1.76,0,2.848,1.12,2.848,2.752c0,1.776-1.103,2.896-2.735,2.896c-1.12,0-2-0.56-2.513-1.616
			l-0.96,1.12c0.784,1.152,1.889,1.68,3.441,1.68c2.623,0,4.207-1.632,4.207-4.208c0-2.288-1.393-3.728-3.632-3.728
			c-0.641,0-1.232,0.128-1.776,0.416l0.72-2.944h4.097v-1.168H326.7l-1.36,5.568L325.597,152.058z M322.029,154.042h-9.36v0.912
			h9.36V154.042z M322.029,151.05h-9.36v0.912h9.36V151.05z M303.102,157.77h1.216v-3.696c0-0.784,0-1.376,0.416-1.888
			c0.399-0.496,1.023-0.768,1.744-0.768c1.279,0,1.903,0.704,1.903,2.144v4.208h1.217v-4.864c0-1.616-1.024-2.544-2.688-2.544
			c-1.12,0-1.983,0.432-2.592,1.36v-1.104h-1.216V157.77z M301.31,160.842c-1.152-2.112-1.648-4.48-1.648-7.296
			c0-2.736,0.496-5.104,1.648-7.376l-0.832-0.384c-1.28,2.256-1.856,4.8-1.856,7.76c0,2.864,0.624,5.44,1.856,7.728L301.31,160.842z
			 M285.629,154.218c0-1.52,1.152-2.704,2.593-2.704c1.424,0,2.575,1.184,2.575,2.704s-1.151,2.704-2.575,2.704
			C286.797,156.922,285.629,155.738,285.629,154.218 M284.333,154.218c0,1.04,0.384,1.968,1.137,2.72
			c0.735,0.736,1.695,1.136,2.752,1.136c1.04,0,2-0.416,2.752-1.152c0.735-0.72,1.136-1.664,1.136-2.704s-0.4-2-1.136-2.72
			c-0.752-0.736-1.696-1.136-2.752-1.136c-1.057,0-2.017,0.384-2.752,1.12C284.717,152.218,284.333,153.178,284.333,154.218
			 M277.005,154.234c0-1.616,0.992-2.656,2.433-2.656c1.424,0,2.304,0.912,2.304,2.496c0,1.792-0.912,2.816-2.336,2.816
			C277.934,156.89,277.005,155.93,277.005,154.234 M275.837,145.658v12.112h1.168v-1.296c0.561,1.024,1.505,1.6,2.608,1.6
			c2.048,0,3.424-1.52,3.424-3.856c0-2.4-1.376-3.856-3.376-3.856c-1.184,0-2.063,0.544-2.607,1.6v-6.304H275.837z M272.766,153.386
			h-4.353c0.128-1.216,1.008-1.968,2.176-1.968C271.886,151.418,272.686,152.122,272.766,153.386 M274.077,154.378v-0.24
			c0-2.368-1.344-3.792-3.439-3.792c-2.08,0-3.568,1.568-3.568,3.824c0,2.336,1.472,3.904,3.647,3.904
			c1.473,0,2.593-0.656,3.312-1.952l-0.928-0.624c-0.592,1.04-1.36,1.552-2.32,1.552c-1.376,0-2.368-1.008-2.368-2.56v-0.112
			H274.077z M266.078,156.074c-0.752,0.544-1.439,0.816-2.208,0.816c-1.488,0-2.56-1.152-2.56-2.592
			c0-1.696,1.088-2.752,2.655-2.752c0.704,0,1.376,0.224,1.984,0.624v-1.312c-0.656-0.32-1.424-0.496-2.224-0.496
			c-2.145,0-3.729,1.568-3.729,3.904c0,2.256,1.456,3.808,3.681,3.808c0.928,0,1.743-0.192,2.399-0.576V156.074z M257.038,154.266
			c0,1.648-0.896,2.592-2.336,2.592c-1.52,0-2.384-0.976-2.384-2.704c0-1.632,0.864-2.576,2.336-2.576
			C256.03,151.578,257.038,152.602,257.038,154.266 M258.223,150.618h-1.217v1.344c-0.544-1.056-1.424-1.6-2.624-1.6
			c-2,0-3.359,1.456-3.359,3.856c0,2.336,1.376,3.856,3.424,3.856c1.104,0,2.016-0.56,2.592-1.6v1.296h1.185V150.618z
			 M247.838,157.77h1.217v-12.112h-1.217V157.77z M241.214,152.634h1.04c1.185,0,2.112-0.032,2.881-0.576
			c0.72-0.512,1.168-1.456,1.168-2.576c0-1.12-0.448-2.064-1.168-2.576c-0.769-0.544-1.713-0.576-2.881-0.576h-2.399v11.44h1.359
			V152.634z M241.214,151.402v-3.824h0.656c1.984,0,2.96,0.32,2.96,1.984c0,1.584-0.992,1.84-2.96,1.84H241.214z"/>
	</g>
	
		<line clip-path="url(#SVGID_2_)" fill="none" stroke="#F9A25E" stroke-width="2" x1="179.286" y1="92.05" x2="224.286" y2="92.05"/>
	
		<line clip-path="url(#SVGID_2_)" fill="none" stroke="#808285" stroke-width="2" x1="179.286" y1="152.05" x2="224.286" y2="152.05"/>
	<g clip-path="url(#SVGID_2_)">
		<defs>
			<rect id="SVGID_33_" x="-9" width="930" height="543.007"/>
		</defs>
		<clipPath id="SVGID_34_">
			<use xlink:href="#SVGID_33_"  overflow="visible"/>
		</clipPath>
		<path clip-path="url(#SVGID_34_)" fill="#808285" d="M704.393,532.223l1.711,3.946h-3.421L704.393,532.223z M704.393,529.404
			l-4.858,11.143h1.38l1.394-3.285h4.186l1.394,3.285h1.38L704.393,529.404z M694.149,539.424c0.524,0.944,1.393,1.408,2.639,1.408
			c1.486,0,2.444-0.883,2.444-2.129c0-1.096-0.645-1.575-1.949-1.995c-1.11-0.36-1.727-0.45-1.727-1.156
			c0-0.585,0.465-1.005,1.142-1.005c0.705,0,1.261,0.345,1.53,0.96l0.929-0.57c-0.359-0.854-1.229-1.333-2.384-1.333
			c-1.427,0-2.369,0.854-2.369,2.023c0,1.321,0.987,1.605,2.639,2.176c0.706,0.24,1.051,0.51,1.051,1.021
			c0,0.585-0.495,1.005-1.261,1.005c-0.765,0-1.336-0.346-1.71-1.066L694.149,539.424z M688.702,535.731h0.976
			c1.11,0,1.981-0.029,2.701-0.539c0.674-0.479,1.093-1.364,1.093-2.414c0-1.052-0.419-1.937-1.093-2.415
			c-0.72-0.51-1.605-0.539-2.701-0.539h-2.249v10.723h1.273V535.731z M688.702,534.579v-3.587h0.616c1.86,0,2.775,0.3,2.775,1.86
			c0,1.486-0.93,1.727-2.775,1.727H688.702z M680.079,536.438h-4.082c0.12-1.141,0.946-1.847,2.041-1.847
			C679.254,534.592,680.004,535.253,680.079,536.438 M681.307,537.367v-0.226c0-2.22-1.258-3.553-3.224-3.553
			c-1.951,0-3.344,1.468-3.344,3.583c0,2.191,1.378,3.66,3.419,3.66c1.381,0,2.43-0.614,3.104-1.829l-0.868-0.585
			c-0.555,0.976-1.274,1.456-2.176,1.456c-1.29,0-2.221-0.946-2.221-2.402v-0.104H681.307z M670.868,540.967l3.299-7.123h-1.289
			l-2.024,4.679l-2.01-4.679h-1.29L670.868,540.967z M664.9,530.618c0,0.479,0.374,0.839,0.839,0.839
			c0.464,0,0.839-0.36,0.839-0.824c0-0.465-0.375-0.854-0.839-0.854C665.274,529.779,664.9,530.153,664.9,530.618 M665.17,540.547
			h1.138v-6.703h-1.138V540.547z M661.48,534.787v5.76h1.138v-5.76h1.26v-0.943h-1.26v-2.7h-1.138v2.7h-1.23v0.943H661.48z
			 M659.783,538.959c-0.705,0.51-1.351,0.765-2.07,0.765c-1.395,0-2.4-1.081-2.4-2.431c0-1.591,1.021-2.581,2.49-2.581
			c0.66,0,1.29,0.21,1.86,0.585v-1.229c-0.615-0.299-1.335-0.464-2.085-0.464c-2.01,0-3.493,1.469-3.493,3.659
			c0,2.116,1.363,3.569,3.448,3.569c0.87,0,1.635-0.181,2.25-0.539V538.959z M651.31,537.263c0,1.545-0.84,2.431-2.19,2.431
			c-1.425,0-2.236-0.915-2.236-2.535c0-1.531,0.812-2.416,2.191-2.416C650.365,534.742,651.31,535.702,651.31,537.263
			 M652.418,533.844h-1.138v1.258c-0.511-0.989-1.335-1.498-2.461-1.498c-1.876,0-3.149,1.363-3.149,3.614
			c0,2.191,1.288,3.614,3.209,3.614c1.035,0,1.891-0.524,2.431-1.498v1.213h1.108V533.844z M638.455,537.232
			c0,1.592-0.87,2.491-2.251,2.491c-1.335,0-2.176-0.96-2.176-2.641c0-1.486,0.825-2.341,2.161-2.341
			C637.54,534.742,638.455,535.717,638.455,537.232 M639.562,529.193h-1.138v5.908c-0.51-0.988-1.335-1.498-2.446-1.498
			c-1.875,0-3.163,1.363-3.163,3.614c0,2.191,1.288,3.614,3.209,3.614c1.035,0,1.905-0.539,2.431-1.498v1.213h1.107V529.193z
			 M625.045,540.547h1.139v-3.464c0-0.735,0-1.291,0.391-1.771c0.375-0.465,0.96-0.72,1.635-0.72c1.201,0,1.786,0.66,1.786,2.011
			v3.944h1.138v-4.56c0-1.516-0.958-2.384-2.518-2.384c-1.051,0-1.861,0.404-2.432,1.273v-1.034h-1.139V540.547z M621.716,537.263
			c0,1.545-0.841,2.431-2.19,2.431c-1.427,0-2.236-0.915-2.236-2.535c0-1.531,0.81-2.416,2.191-2.416
			C620.77,534.742,621.716,535.702,621.716,537.263 M622.824,533.844h-1.139v1.258c-0.511-0.989-1.336-1.498-2.461-1.498
			c-1.876,0-3.148,1.363-3.148,3.614c0,2.191,1.288,3.614,3.209,3.614c1.035,0,1.89-0.524,2.431-1.498v1.213h1.108V533.844z
			 M608.62,534.593l-1.53-0.675c-0.976-0.436-1.44-0.96-1.44-1.727c0-0.915,0.675-1.56,1.636-1.56c0.765,0,1.35,0.42,1.815,1.23
			l1.05-0.676c-0.525-1.063-1.485-1.618-2.775-1.618c-1.786,0-3.014,1.139-3.014,2.639c0,1.306,0.688,2.235,2.112,2.836l1.307,0.555
			c1.109,0.48,1.666,1.186,1.666,2.146c0,1.171-0.856,1.996-2.146,1.996c-1.081,0-1.815-0.676-2.13-1.981l-1.154,0.571
			c0.405,1.59,1.588,2.487,3.284,2.487c2.071,0,3.435-1.317,3.435-3.283C610.734,536.183,610.015,535.208,608.62,534.593
			 M598.81,532.223l1.709,3.946H597.1L598.81,532.223z M598.81,529.404l-4.858,11.143h1.379l1.395-3.285h4.185l1.395,3.285h1.38
			L598.81,529.404z M588.071,536.438h-4.082c0.12-1.141,0.944-1.847,2.041-1.847C587.245,534.592,587.996,535.253,588.071,536.438
			 M589.299,537.367v-0.226c0-2.22-1.258-3.553-3.224-3.553c-1.951,0-3.344,1.468-3.344,3.583c0,2.191,1.378,3.66,3.419,3.66
			c1.381,0,2.43-0.614,3.104-1.829l-0.869-0.585c-0.554,0.976-1.274,1.456-2.175,1.456c-1.291,0-2.221-0.946-2.221-2.402v-0.104
			H589.299z M578.86,540.967l3.299-7.123h-1.289l-2.025,4.679l-2.009-4.679h-1.29L578.86,540.967z M572.891,530.618
			c0,0.479,0.375,0.839,0.84,0.839c0.464,0,0.839-0.36,0.839-0.824c0-0.465-0.375-0.854-0.839-0.854
			C573.266,529.779,572.891,530.153,572.891,530.618 M573.161,540.547h1.138v-6.703h-1.138V540.547z M569.471,534.787v5.76h1.139
			v-5.76h1.261v-0.943h-1.261v-2.7h-1.139v2.7h-1.229v0.943H569.471z M567.775,538.959c-0.705,0.51-1.351,0.765-2.07,0.765
			c-1.396,0-2.4-1.081-2.4-2.431c0-1.591,1.021-2.581,2.49-2.581c0.66,0,1.29,0.21,1.86,0.585v-1.229
			c-0.615-0.299-1.335-0.464-2.085-0.464c-2.011,0-3.493,1.469-3.493,3.659c0,2.116,1.363,3.569,3.448,3.569
			c0.869,0,1.635-0.181,2.25-0.539V538.959z M559.302,537.263c0,1.545-0.841,2.431-2.19,2.431c-1.427,0-2.236-0.915-2.236-2.535
			c0-1.531,0.81-2.416,2.191-2.416C558.356,534.742,559.302,535.702,559.302,537.263 M560.41,533.844h-1.139v1.258
			c-0.51-0.989-1.336-1.498-2.461-1.498c-1.876,0-3.148,1.363-3.148,3.614c0,2.191,1.288,3.614,3.209,3.614
			c1.035,0,1.891-0.524,2.431-1.498v1.213h1.108V533.844z M545.188,542.679l0.839,0.328l1.799-3.885l-1.244-0.434L545.188,542.679z
			 M539.681,532.223l1.71,3.946h-3.42L539.681,532.223z M539.681,529.404l-4.858,11.143h1.38l1.394-3.285h4.185l1.395,3.285h1.38
			L539.681,529.404z M528.342,540.547h1.273v-5.115h0.149l3.916,5.115h1.619l-4.094-5.115h0.225c1.892,0,2.895-0.928,2.895-2.684
			c0-1.051-0.39-1.906-1.003-2.385c-0.66-0.51-1.441-0.539-2.461-0.539h-2.52V540.547z M529.615,530.901h0.945
			c1.696,0,2.507,0.301,2.507,1.861c0,1.486-0.825,1.727-2.507,1.727h-0.945V530.901z M520.992,536.438h-4.082
			c0.12-1.141,0.946-1.847,2.041-1.847C520.167,534.592,520.917,535.253,520.992,536.438 M522.22,537.367v-0.226
			c0-2.22-1.258-3.553-3.224-3.553c-1.951,0-3.344,1.468-3.344,3.583c0,2.191,1.378,3.66,3.419,3.66c1.381,0,2.43-0.614,3.104-1.829
			l-0.868-0.585c-0.555,0.976-1.274,1.456-2.176,1.456c-1.29,0-2.221-0.946-2.221-2.402v-0.104H522.22z M511.781,540.967
			l3.299-7.123h-1.289l-2.025,4.679l-2.009-4.679h-1.29L511.781,540.967z M505.812,530.618c0,0.479,0.375,0.839,0.839,0.839
			c0.465,0,0.84-0.36,0.84-0.824c0-0.465-0.375-0.854-0.84-0.854C506.188,529.779,505.812,530.153,505.812,530.618 M506.082,540.547
			h1.138v-6.703h-1.138V540.547z M502.393,534.787v5.76h1.139v-5.76h1.26v-0.943h-1.26v-2.7h-1.139v2.7h-1.229v0.943H502.393z
			 M500.696,538.959c-0.705,0.51-1.351,0.765-2.07,0.765c-1.395,0-2.4-1.081-2.4-2.431c0-1.591,1.021-2.581,2.49-2.581
			c0.66,0,1.29,0.21,1.86,0.585v-1.229c-0.615-0.299-1.335-0.464-2.085-0.464c-2.01,0-3.493,1.469-3.493,3.659
			c0,2.116,1.363,3.569,3.448,3.569c0.87,0,1.635-0.181,2.25-0.539V538.959z M492.223,537.263c0,1.545-0.84,2.431-2.19,2.431
			c-1.425,0-2.236-0.915-2.236-2.535c0-1.531,0.812-2.416,2.191-2.416C491.278,534.742,492.223,535.702,492.223,537.263
			 M493.331,533.844h-1.138v1.258c-0.511-0.989-1.336-1.498-2.461-1.498c-1.876,0-3.149,1.363-3.149,3.614
			c0,2.191,1.288,3.614,3.209,3.614c1.035,0,1.891-0.524,2.431-1.498v1.213h1.108V533.844z M479.863,536.438h-4.082
			c0.12-1.141,0.945-1.847,2.041-1.847C479.038,534.592,479.788,535.253,479.863,536.438 M481.091,537.367v-0.226
			c0-2.22-1.258-3.553-3.224-3.553c-1.951,0-3.344,1.468-3.344,3.583c0,2.191,1.378,3.66,3.419,3.66c1.381,0,2.43-0.614,3.104-1.829
			l-0.868-0.585c-0.555,0.976-1.274,1.456-2.176,1.456c-1.29,0-2.221-0.946-2.221-2.402v-0.104H481.091z M469.933,540.547h1.139
			v-3.269c0-1.757,0.6-2.627,1.814-2.627c0.21,0,0.45,0.046,0.705,0.136l0.391-1.033c-0.256-0.09-0.511-0.135-0.78-0.135
			c-1.021,0-1.65,0.479-2.249,1.618v-1.395h-1.02V540.547z M467.038,536.438h-4.082c0.12-1.141,0.946-1.847,2.041-1.847
			C466.213,534.592,466.963,535.253,467.038,536.438 M468.266,537.367v-0.226c0-2.22-1.258-3.553-3.224-3.553
			c-1.951,0-3.344,1.468-3.344,3.583c0,2.191,1.378,3.66,3.419,3.66c1.381,0,2.431-0.614,3.104-1.829l-0.868-0.585
			c-0.555,0.976-1.274,1.456-2.176,1.456c-1.29,0-2.221-0.946-2.221-2.402v-0.104H468.266z M457.828,540.967l3.299-7.123h-1.29
			l-2.024,4.679l-2.01-4.679h-1.29L457.828,540.967z M452.744,536.438h-4.082c0.12-1.141,0.945-1.847,2.041-1.847
			C451.918,534.592,452.669,535.253,452.744,536.438 M453.972,537.367v-0.226c0-2.22-1.258-3.553-3.224-3.553
			c-1.951,0-3.344,1.468-3.344,3.583c0,2.191,1.378,3.66,3.419,3.66c1.38,0,2.43-0.614,3.104-1.829l-0.869-0.585
			c-0.555,0.976-1.274,1.456-2.175,1.456c-1.291,0-2.221-0.946-2.221-2.402v-0.104H453.972z M441.254,539.424
			c0.524,0.944,1.394,1.408,2.639,1.408c1.485,0,2.444-0.883,2.444-2.129c0-1.096-0.644-1.575-1.949-1.995
			c-1.11-0.36-1.726-0.45-1.726-1.156c0-0.585,0.465-1.005,1.141-1.005c0.705,0,1.26,0.345,1.53,0.96l0.929-0.57
			c-0.359-0.854-1.229-1.333-2.384-1.333c-1.426,0-2.369,0.854-2.369,2.023c0,1.321,0.988,1.605,2.64,2.176
			c0.704,0.24,1.051,0.51,1.051,1.021c0,0.585-0.496,1.005-1.262,1.005s-1.336-0.346-1.711-1.066L441.254,539.424z M429.822,537.218
			c0-1.426,1.08-2.536,2.431-2.536c1.335,0,2.416,1.11,2.416,2.536c0,1.425-1.081,2.536-2.416,2.536
			C430.917,539.754,429.822,538.643,429.822,537.218 M428.609,537.218c0,0.975,0.358,1.846,1.062,2.551
			c0.69,0.689,1.591,1.063,2.581,1.063c0.975,0,1.876-0.39,2.581-1.078c0.689-0.675,1.063-1.562,1.063-2.536
			s-0.374-1.876-1.063-2.551c-0.705-0.689-1.591-1.063-2.581-1.063s-1.891,0.359-2.581,1.048
			C428.968,535.342,428.609,536.243,428.609,537.218 M425.519,534.787v5.76h1.139v-5.76h1.26v-0.943h-1.26v-2.7h-1.139v2.7h-1.229
			v0.943H425.519z M418.109,536.438h-4.082c0.12-1.141,0.945-1.847,2.041-1.847C417.284,534.592,418.034,535.253,418.109,536.438
			 M419.337,537.367v-0.226c0-2.22-1.258-3.553-3.224-3.553c-1.951,0-3.345,1.468-3.345,3.583c0,2.191,1.379,3.66,3.419,3.66
			c1.382,0,2.431-0.614,3.104-1.829l-0.868-0.585c-0.555,0.976-1.274,1.456-2.176,1.456c-1.29,0-2.221-0.946-2.221-2.402v-0.104
			H419.337z M409.724,534.787v5.76h1.14v-5.76h1.26v-0.943h-1.26v-2.7h-1.14v2.7h-1.229v0.943H409.724z M406.215,537.263
			c0,1.545-0.841,2.431-2.19,2.431c-1.427,0-2.236-0.915-2.236-2.535c0-1.531,0.81-2.416,2.19-2.416
			C405.269,534.742,406.215,535.702,406.215,537.263 M407.323,533.844h-1.139v1.258c-0.511-0.989-1.336-1.498-2.461-1.498
			c-1.876,0-3.148,1.363-3.148,3.614c0,2.191,1.288,3.614,3.209,3.614c1.035,0,1.89-0.524,2.431-1.498v1.213h1.108V533.844z
			 M395.91,540.547h1.138v-3.269c0-1.757,0.601-2.627,1.815-2.627c0.21,0,0.449,0.046,0.705,0.136l0.39-1.033
			c-0.255-0.09-0.51-0.135-0.78-0.135c-1.02,0-1.649,0.479-2.25,1.618v-1.395h-1.018V540.547z M393.015,536.438h-4.082
			c0.12-1.141,0.945-1.847,2.041-1.847C392.189,534.592,392.94,535.253,393.015,536.438 M394.243,537.367v-0.226
			c0-2.22-1.258-3.553-3.225-3.553c-1.95,0-3.344,1.468-3.344,3.583c0,2.191,1.378,3.66,3.419,3.66c1.38,0,2.431-0.614,3.104-1.829
			l-0.869-0.585c-0.554,0.976-1.275,1.456-2.175,1.456c-1.291,0-2.222-0.946-2.222-2.402v-0.104H394.243z M384.885,537.232
			c0,1.592-0.87,2.491-2.251,2.491c-1.336,0-2.176-0.96-2.176-2.641c0-1.486,0.825-2.341,2.161-2.341
			C383.97,534.742,384.885,535.717,384.885,537.232 M385.993,529.193h-1.138v5.908c-0.511-0.988-1.337-1.498-2.446-1.498
			c-1.876,0-3.164,1.363-3.164,3.614c0,2.191,1.288,3.614,3.209,3.614c1.035,0,1.906-0.539,2.431-1.498v1.213h1.108V529.193z
			 M371.968,537.218c0-1.426,1.081-2.536,2.432-2.536c1.336,0,2.416,1.11,2.416,2.536c0,1.425-1.08,2.536-2.416,2.536
			C373.064,539.754,371.968,538.643,371.968,537.218 M370.755,537.218c0,0.975,0.36,1.846,1.064,2.551
			c0.688,0.689,1.59,1.063,2.58,1.063c0.976,0,1.876-0.39,2.581-1.078c0.688-0.675,1.062-1.562,1.062-2.536
			s-0.374-1.876-1.062-2.551c-0.705-0.689-1.591-1.063-2.581-1.063s-1.892,0.359-2.58,1.048
			C371.115,535.342,370.755,536.243,370.755,537.218 M367.98,540.547h1.138v-4.56c0-1.516-0.898-2.384-2.383-2.384
			c-1.021,0-1.802,0.435-2.387,1.363c-0.39-0.899-1.169-1.363-2.249-1.363c-1.006,0-1.771,0.419-2.312,1.273v-1.034h-1.138v6.704
			h1.138v-3.464c0-0.165-0.015-0.33-0.015-0.48c0-0.511,0.06-0.931,0.346-1.291c0.359-0.465,0.915-0.72,1.53-0.72
			c1.141,0,1.666,0.66,1.666,2.011v3.944h1.138v-3.464c0-0.15-0.016-0.285-0.016-0.42c0-0.557,0.075-0.977,0.361-1.352
			c0.36-0.465,0.9-0.72,1.516-0.72c1.141,0,1.666,0.66,1.666,2.011V540.547z M346.02,540.547h1.14v-3.464
			c0-0.735,0-1.291,0.39-1.771c0.375-0.465,0.96-0.72,1.636-0.72c1.2,0,1.785,0.66,1.785,2.011v3.944h1.14v-4.56
			c0-1.516-0.959-2.384-2.52-2.384c-1.051,0-1.861,0.404-2.446,1.273v-5.684h-1.124V540.547z M342.391,534.787v5.76h1.139v-5.76
			h1.26v-0.943h-1.26v-2.7h-1.139v2.7h-1.229v0.943H342.391z M338.446,530.618c0,0.479,0.375,0.839,0.839,0.839
			s0.839-0.36,0.839-0.824c0-0.465-0.375-0.854-0.839-0.854S338.446,530.153,338.446,530.618 M338.716,540.547h1.138v-6.703h-1.138
			V540.547z M332.46,533.604h-0.18l-2.04,4.814l-1.784-4.574h-1.275l2.984,7.123l2.205-5.145l2.205,5.145l2.983-7.123h-1.29
			l-1.799,4.574L332.46,533.604z M317.266,539.424c0.525,0.944,1.394,1.408,2.64,1.408c1.485,0,2.443-0.883,2.443-2.129
			c0-1.096-0.644-1.575-1.948-1.995c-1.11-0.36-1.727-0.45-1.727-1.156c0-0.585,0.465-1.005,1.142-1.005
			c0.706,0,1.261,0.345,1.53,0.96l0.929-0.57c-0.359-0.854-1.229-1.333-2.385-1.333c-1.426,0-2.368,0.854-2.368,2.023
			c0,1.321,0.987,1.605,2.639,2.176c0.706,0.24,1.051,0.51,1.051,1.021c0,0.585-0.495,1.005-1.261,1.005s-1.336-0.346-1.71-1.066
			L317.266,539.424z M314.341,534.787v5.76h1.138v-5.76h1.261v-0.943h-1.261v-2.7h-1.138v2.7h-1.229v0.943H314.341z
			 M310.666,540.547h1.138v-11.354h-1.138V540.547z M303.525,533.844h-1.14v4.004c0,1.966,1.064,2.984,3.015,2.984
			c2.011,0,3.06-1.048,3.06-3.074v-3.914h-1.139v3.299c0,1.771-0.42,2.597-1.892,2.597c-1.47,0-1.904-0.825-1.904-2.597V533.844z
			 M299.102,537.232c0,1.592-0.87,2.491-2.251,2.491c-1.336,0-2.176-0.96-2.176-2.641c0-1.486,0.825-2.341,2.161-2.341
			C298.186,534.742,299.102,535.717,299.102,537.232 M300.21,529.193h-1.138v5.908c-0.512-0.988-1.336-1.498-2.447-1.498
			c-1.875,0-3.163,1.363-3.163,3.614c0,2.191,1.288,3.614,3.209,3.614c1.035,0,1.905-0.539,2.431-1.498v1.213h1.108V529.193z
			 M290.642,537.263c0,1.545-0.841,2.431-2.19,2.431c-1.426,0-2.236-0.915-2.236-2.535c0-1.531,0.811-2.416,2.191-2.416
			C289.696,534.742,290.642,535.702,290.642,537.263 M291.75,533.844h-1.138v1.258c-0.511-0.989-1.336-1.498-2.461-1.498
			c-1.876,0-3.149,1.363-3.149,3.614c0,2.191,1.288,3.614,3.209,3.614c1.035,0,1.891-0.524,2.431-1.498v1.213h1.108V533.844z
			 M277.202,540.547h1.138v-5.76h1.785v-0.943h-1.785v-1.786c0-1.291,0.03-1.906,0.885-1.906c0.301,0,0.601,0.075,0.9,0.24v-1.183
			c-0.315-0.105-0.645-0.15-0.99-0.15c-1.604,0-1.933,0.838-1.933,2.85v1.936h-1.29v0.943h1.29V540.547z M269.115,537.218
			c0-1.426,1.081-2.536,2.431-2.536c1.336,0,2.416,1.11,2.416,2.536c0,1.425-1.08,2.536-2.416,2.536
			C270.211,539.754,269.115,538.643,269.115,537.218 M267.902,537.218c0,0.975,0.359,1.846,1.063,2.551
			c0.69,0.689,1.59,1.063,2.58,1.063c0.977,0,1.876-0.39,2.581-1.078c0.689-0.675,1.063-1.562,1.063-2.536s-0.374-1.876-1.063-2.551
			c-0.705-0.689-1.59-1.063-2.581-1.063c-0.99,0-1.89,0.359-2.58,1.048C268.262,535.342,267.902,536.243,267.902,537.218
			 M260.462,534.787v5.76h1.139v-5.76h1.261v-0.943h-1.261v-2.7h-1.139v2.7h-1.229v0.943H260.462z M252.003,540.547h1.138v-3.464
			c0-0.735,0-1.291,0.391-1.771c0.375-0.465,0.96-0.72,1.636-0.72c1.2,0,1.786,0.66,1.786,2.011v3.944h1.138v-4.56
			c0-1.516-0.959-2.384-2.519-2.384c-1.051,0-1.861,0.404-2.432,1.273v-1.034h-1.138V540.547z M249.123,536.438h-4.082
			c0.12-1.141,0.945-1.847,2.041-1.847C248.297,534.592,249.048,535.253,249.123,536.438 M250.351,537.367v-0.226
			c0-2.22-1.258-3.553-3.224-3.553c-1.951,0-3.344,1.468-3.344,3.583c0,2.191,1.378,3.66,3.419,3.66c1.38,0,2.43-0.614,3.104-1.829
			l-0.868-0.585c-0.555,0.976-1.275,1.456-2.176,1.456c-1.291,0-2.221-0.946-2.221-2.402v-0.104H250.351z M241.053,540.547h1.139
			v-4.56c0-1.516-0.899-2.384-2.385-2.384c-1.02,0-1.801,0.435-2.386,1.363c-0.389-0.899-1.168-1.363-2.249-1.363
			c-1.005,0-1.771,0.419-2.311,1.273v-1.034h-1.139v6.704h1.139v-3.464c0-0.165-0.016-0.33-0.016-0.48
			c0-0.511,0.061-0.931,0.346-1.291c0.359-0.465,0.916-0.72,1.53-0.72c1.142,0,1.666,0.66,1.666,2.011v3.944h1.139v-3.464
			c0-0.15-0.016-0.285-0.016-0.42c0-0.557,0.075-0.977,0.36-1.352c0.36-0.465,0.901-0.72,1.516-0.72c1.142,0,1.666,0.66,1.666,2.011
			V540.547z M228.093,534.787v5.76h1.139v-5.76h1.26v-0.943h-1.26v-2.7h-1.139v2.7h-1.229v0.943H228.093z M224.583,537.263
			c0,1.545-0.84,2.431-2.191,2.431c-1.425,0-2.235-0.915-2.235-2.535c0-1.531,0.811-2.416,2.19-2.416
			C223.638,534.742,224.583,535.702,224.583,537.263 M225.691,533.844h-1.139v1.258c-0.51-0.989-1.335-1.498-2.461-1.498
			c-1.876,0-3.148,1.363-3.148,3.614c0,2.191,1.288,3.614,3.209,3.614c1.036,0,1.891-0.524,2.431-1.498v1.213h1.108V533.844z
			 M216.573,536.438h-4.082c0.121-1.141,0.945-1.847,2.041-1.847C215.748,534.592,216.498,535.253,216.573,536.438 M217.801,537.367
			v-0.226c0-2.22-1.258-3.553-3.224-3.553c-1.95,0-3.344,1.468-3.344,3.583c0,2.191,1.379,3.66,3.419,3.66
			c1.381,0,2.431-0.614,3.104-1.829l-0.869-0.585c-0.555,0.976-1.274,1.456-2.176,1.456c-1.29,0-2.221-0.946-2.221-2.402v-0.104
			H217.801z M206.643,540.547h1.139v-3.269c0-1.757,0.601-2.627,1.814-2.627c0.21,0,0.45,0.046,0.705,0.136l0.391-1.033
			c-0.256-0.09-0.511-0.135-0.78-0.135c-1.021,0-1.65,0.479-2.249,1.618v-1.395h-1.02V540.547z M202.999,534.787v5.76h1.138v-5.76
			h1.261v-0.943h-1.261v-2.7h-1.138v2.7h-1.23v0.943H202.999z M195.589,536.438h-4.082c0.12-1.141,0.945-1.847,2.041-1.847
			C194.763,534.592,195.514,535.253,195.589,536.438 M196.817,537.367v-0.226c0-2.22-1.259-3.553-3.225-3.553
			c-1.951,0-3.344,1.468-3.344,3.583c0,2.191,1.378,3.66,3.419,3.66c1.38,0,2.43-0.614,3.104-1.829l-0.869-0.585
			c-0.555,0.976-1.275,1.456-2.176,1.456c-1.291,0-2.221-0.946-2.221-2.402v-0.104H196.817z M182.554,540.547h1.139v-3.464
			c0-0.735,0-1.291,0.39-1.771c0.375-0.465,0.961-0.72,1.636-0.72c1.201,0,1.786,0.66,1.786,2.011v3.944h1.138v-4.56
			c0-1.516-0.958-2.384-2.519-2.384c-1.05,0-1.861,0.404-2.446,1.273v-5.684h-1.123V540.547z M178.924,534.787v5.76h1.138v-5.76
			h1.261v-0.943h-1.261v-2.7h-1.138v2.7h-1.229v0.943H178.924z M169.219,540.547h1.139v-3.269c0-1.757,0.6-2.627,1.814-2.627
			c0.21,0,0.45,0.046,0.705,0.136l0.39-1.033c-0.255-0.09-0.51-0.135-0.779-0.135c-1.021,0-1.65,0.479-2.25,1.618v-1.395h-1.019
			V540.547z M161.417,537.218c0-1.426,1.081-2.536,2.431-2.536c1.336,0,2.416,1.11,2.416,2.536c0,1.425-1.08,2.536-2.416,2.536
			C162.513,539.754,161.417,538.643,161.417,537.218 M160.204,537.218c0,0.975,0.36,1.846,1.063,2.551
			c0.69,0.689,1.591,1.063,2.58,1.063c0.977,0,1.876-0.39,2.581-1.078c0.689-0.675,1.063-1.562,1.063-2.536
			s-0.374-1.876-1.063-2.551c-0.705-0.689-1.59-1.063-2.581-1.063c-0.989,0-1.89,0.359-2.58,1.048
			C160.564,535.342,160.204,536.243,160.204,537.218 M156.785,540.547h1.138v-5.76h1.785v-0.943h-1.785v-1.786
			c0-1.291,0.03-1.906,0.885-1.906c0.301,0,0.601,0.075,0.9,0.24v-1.183c-0.315-0.105-0.645-0.15-0.99-0.15
			c-1.604,0-1.933,0.838-1.933,2.85v1.936h-1.29v0.943h1.29V540.547z M148.76,537.232c0,1.592-0.871,2.491-2.251,2.491
			c-1.336,0-2.176-0.96-2.176-2.641c0-1.486,0.825-2.341,2.161-2.341C147.844,534.742,148.76,535.717,148.76,537.232
			 M149.868,529.193h-1.138v5.908c-0.512-0.988-1.337-1.498-2.446-1.498c-1.876,0-3.164,1.363-3.164,3.614
			c0,2.191,1.288,3.614,3.209,3.614c1.035,0,1.905-0.539,2.431-1.498v1.213h1.108V529.193z M140.75,536.438h-4.082
			c0.12-1.141,0.945-1.847,2.041-1.847C139.924,534.592,140.675,535.253,140.75,536.438 M141.978,537.367v-0.226
			c0-2.22-1.258-3.553-3.224-3.553c-1.951,0-3.344,1.468-3.344,3.583c0,2.191,1.378,3.66,3.419,3.66c1.381,0,2.43-0.614,3.104-1.829
			l-0.868-0.585c-0.555,0.976-1.275,1.456-2.176,1.456c-1.291,0-2.221-0.946-2.221-2.402v-0.104H141.978z M132.365,534.787v5.76
			h1.138v-5.76h1.26v-0.943h-1.26v-2.7h-1.138v2.7h-1.23v0.943H132.365z M128.855,537.263c0,1.545-0.841,2.431-2.191,2.431
			c-1.425,0-2.236-0.915-2.236-2.535c0-1.531,0.812-2.416,2.191-2.416C127.91,534.742,128.855,535.702,128.855,537.263
			 M129.963,533.844h-1.138v1.258c-0.51-0.989-1.335-1.498-2.461-1.498c-1.876,0-3.149,1.363-3.149,3.614
			c0,2.191,1.288,3.614,3.209,3.614c1.036,0,1.892-0.524,2.432-1.498v1.213h1.107V533.844z M122.208,538.959
			c-0.705,0.51-1.35,0.765-2.07,0.765c-1.395,0-2.399-1.081-2.399-2.431c0-1.591,1.02-2.581,2.489-2.581
			c0.66,0,1.29,0.21,1.86,0.585v-1.229c-0.615-0.299-1.335-0.464-2.085-0.464c-2.01,0-3.493,1.469-3.493,3.659
			c0,2.116,1.363,3.569,3.448,3.569c0.87,0,1.635-0.181,2.25-0.539V538.959z M113.301,530.618c0,0.479,0.374,0.839,0.839,0.839
			c0.464,0,0.839-0.36,0.839-0.824c0-0.465-0.375-0.854-0.839-0.854C113.675,529.779,113.301,530.153,113.301,530.618
			 M113.571,540.547h1.138v-6.703h-1.138V540.547z M110.136,537.232c0,1.592-0.871,2.491-2.251,2.491
			c-1.336,0-2.176-0.96-2.176-2.641c0-1.486,0.825-2.341,2.161-2.341C109.22,534.742,110.136,535.717,110.136,537.232
			 M111.244,529.193h-1.138v5.908c-0.512-0.988-1.337-1.498-2.446-1.498c-1.876,0-3.164,1.363-3.164,3.614
			c0,2.191,1.288,3.614,3.209,3.614c1.035,0,1.905-0.539,2.431-1.498v1.213h1.108V529.193z M96.726,540.547h1.139v-3.464
			c0-0.735,0-1.291,0.39-1.771c0.375-0.465,0.961-0.72,1.636-0.72c1.2,0,1.786,0.66,1.786,2.011v3.944h1.139v-4.56
			c0-1.516-0.959-2.384-2.52-2.384c-1.05,0-1.861,0.404-2.431,1.273v-1.034h-1.139V540.547z M92.961,530.618
			c0,0.479,0.375,0.839,0.839,0.839s0.839-0.36,0.839-0.824c0-0.465-0.375-0.854-0.839-0.854S92.961,530.153,92.961,530.618
			 M93.231,540.547h1.138v-6.703h-1.138V540.547z"/>
		<path clip-path="url(#SVGID_34_)" fill="#808285" d="M797.428,521.424c0.525,0.944,1.394,1.408,2.639,1.408
			c1.486,0,2.444-0.883,2.444-2.129c0-1.096-0.644-1.575-1.949-1.995c-1.109-0.36-1.726-0.45-1.726-1.156
			c0-0.585,0.465-1.005,1.141-1.005c0.705,0,1.262,0.345,1.531,0.96l0.928-0.57c-0.358-0.854-1.228-1.333-2.384-1.333
			c-1.426,0-2.369,0.854-2.369,2.023c0,1.321,0.988,1.605,2.64,2.176c0.706,0.24,1.051,0.51,1.051,1.021
			c0,0.586-0.495,1.006-1.261,1.006c-0.767,0-1.337-0.346-1.71-1.066L797.428,521.424z M794.368,512.618
			c0,0.479,0.375,0.839,0.839,0.839s0.839-0.36,0.839-0.824c0-0.465-0.375-0.854-0.839-0.854S794.368,512.153,794.368,512.618
			 M794.638,522.547h1.138v-6.703h-1.138V522.547z M785.428,513.005c0.674,0,0.989,0.175,0.989,0.639
			c0,0.455-0.306,0.604-0.971,0.604h-0.632v-1.243H785.428z M785.542,512.613h-1.329v3.585h0.602v-1.559h0.763l0.752,1.559h0.673
			l-0.804-1.646c0.523-0.087,0.839-0.454,0.839-0.953C787.037,512.926,786.539,512.613,785.542,512.613 M788.227,514.475
			c0,0.743-0.289,1.416-0.805,1.924c-0.542,0.533-1.233,0.813-1.976,0.813c-0.719,0-1.408-0.28-1.934-0.813
			c-0.524-0.533-0.813-1.216-0.813-1.941c0-0.734,0.289-1.436,0.832-1.977c0.507-0.516,1.18-0.788,1.923-0.788
			c0.762,0,1.442,0.28,1.977,0.814C787.947,513.021,788.227,513.723,788.227,514.475 M785.454,511.317
			c-0.849,0-1.608,0.314-2.187,0.901c-0.611,0.612-0.943,1.407-0.943,2.238s0.322,1.608,0.918,2.204
			c0.604,0.604,1.381,0.935,2.212,0.935c0.823,0,1.608-0.331,2.229-0.935c0.596-0.577,0.909-1.348,0.909-2.204
			c0-0.839-0.313-1.626-0.899-2.212C787.089,511.641,786.312,511.317,785.454,511.317 M779.658,519.263
			c0,1.545-0.842,2.431-2.191,2.431c-1.426,0-2.236-0.915-2.236-2.535c0-1.531,0.811-2.416,2.191-2.416
			C778.712,516.742,779.658,517.702,779.658,519.263 M780.766,515.844h-1.138v1.258c-0.511-0.989-1.336-1.498-2.461-1.498
			c-1.876,0-3.149,1.363-3.149,3.614c0,2.191,1.288,3.614,3.209,3.614c1.035,0,1.891-0.524,2.432-1.498v1.213h1.107V515.844z
			 M770.763,512.618c0,0.479,0.375,0.839,0.839,0.839c0.465,0,0.84-0.36,0.84-0.824c0-0.465-0.375-0.854-0.84-0.854
			C771.138,511.779,770.763,512.153,770.763,512.618 M771.033,522.547h1.138v-6.703h-1.138V522.547z M763.638,522.547h5.833v-1.003
			h-3.809l3.839-5.7h-5.623v1.003h3.599L763.638,522.547z M761.268,522.547h1.139v-4.56c0-1.516-0.898-2.384-2.385-2.384
			c-1.02,0-1.801,0.435-2.386,1.363c-0.389-0.899-1.168-1.363-2.249-1.363c-1.005,0-1.771,0.419-2.311,1.273v-1.034h-1.139v6.704
			h1.139v-3.464c0-0.165-0.016-0.33-0.016-0.48c0-0.511,0.061-0.931,0.346-1.291c0.359-0.465,0.916-0.72,1.53-0.72
			c1.142,0,1.666,0.66,1.666,2.011v3.944h1.139v-3.464c0-0.15-0.016-0.285-0.016-0.42c0-0.557,0.075-0.977,0.36-1.352
			c0.36-0.465,0.901-0.72,1.516-0.72c1.142,0,1.666,0.66,1.666,2.011V522.547z M748.173,512.618c0,0.479,0.375,0.839,0.839,0.839
			s0.839-0.36,0.839-0.824c0-0.465-0.375-0.854-0.839-0.854S748.173,512.153,748.173,512.618 M748.443,522.547h1.138v-6.703h-1.138
			V522.547z M746.4,514.387v-1.665c-1.109-0.764-2.25-1.153-3.524-1.153c-1.575,0-2.896,0.524-3.99,1.573
			c-1.124,1.096-1.678,2.432-1.678,4.097c0,1.904,0.854,3.525,2.413,4.605c0.93,0.645,2.024,0.988,3.165,0.988
			c1.305,0,2.55-0.404,3.614-1.168v-1.696c-0.975,1.141-2.159,1.696-3.51,1.696c-1.455,0-2.76-0.69-3.615-1.906
			c-0.494-0.705-0.734-1.545-0.734-2.535c0-1.26,0.405-2.311,1.229-3.166c0.796-0.825,1.936-1.305,3.061-1.305
			C744.226,512.752,745.366,513.262,746.4,514.387 M733.798,519.45h0.725v-2.144h1.549v-0.637h-1.549v-2.922h1.549v-0.638h-1.549
			v-1.81h-0.725v1.81h-1.548v0.638h1.548v2.922h-1.548v0.637h1.548V519.45z M728.472,516.845h-2.37l0.98-1.058
			c1.006-1.095,1.582-1.916,1.582-2.816c0-1.077-0.716-1.73-1.941-1.73c-1.233,0-1.958,0.688-1.958,1.87
			c0,0.053,0.008,0.113,0.008,0.165h0.699v-0.068c0-0.831,0.438-1.286,1.226-1.286c0.752,0,1.232,0.463,1.232,1.094
			c0,0.812-0.777,1.644-1.907,2.974l-1.319,1.563h3.769V516.845z M721.199,521.828c0,0.479,0.375,0.854,0.869,0.854
			s0.884-0.375,0.884-0.854c0-0.48-0.39-0.869-0.884-0.869C721.589,520.959,721.199,521.348,721.199,521.828 M718.154,518.438
			h-4.082c0.119-1.141,0.945-1.847,2.041-1.847C717.329,516.592,718.079,517.253,718.154,518.438 M719.382,519.367v-0.226
			c0-2.22-1.258-3.553-3.224-3.553c-1.951,0-3.345,1.468-3.345,3.583c0,2.191,1.378,3.66,3.419,3.66
			c1.382,0,2.432-0.614,3.104-1.829l-0.868-0.585c-0.555,0.975-1.274,1.456-2.176,1.456c-1.29,0-2.221-0.946-2.221-2.402v-0.104
			H719.382z M709.904,522.547h1.138v-11.354h-1.138V522.547z M706.08,512.618c0,0.479,0.374,0.839,0.839,0.839
			c0.464,0,0.839-0.36,0.839-0.824c0-0.465-0.375-0.854-0.839-0.854C706.454,511.779,706.08,512.153,706.08,512.618 M706.35,522.547
			h1.139v-6.703h-1.139V522.547z M698.88,522.547h1.273v-5.295h4.38v-1.184h-4.38v-3.076h4.38v-1.168h-5.653V522.547z
			 M686.13,522.547h1.138v-3.464c0-0.735,0-1.291,0.391-1.771c0.375-0.465,0.961-0.72,1.636-0.72c1.201,0,1.786,0.66,1.786,2.011
			v3.944h1.138v-4.56c0-1.516-0.958-2.384-2.519-2.384c-1.051,0-1.861,0.404-2.432,1.273v-1.034h-1.138V522.547z M678.343,519.218
			c0-1.426,1.081-2.536,2.431-2.536c1.337,0,2.416,1.11,2.416,2.536c0,1.425-1.079,2.536-2.416,2.536
			C679.438,521.754,678.343,520.643,678.343,519.218 M677.13,519.218c0,0.975,0.36,1.846,1.063,2.551
			c0.689,0.689,1.591,1.063,2.58,1.063c0.977,0,1.877-0.39,2.581-1.078c0.689-0.675,1.063-1.562,1.063-2.536
			s-0.374-1.876-1.063-2.551c-0.704-0.689-1.59-1.063-2.581-1.063c-0.989,0-1.891,0.359-2.58,1.048
			C677.49,517.342,677.13,518.243,677.13,519.218 M669.99,519.263c0,1.545-0.84,2.431-2.191,2.431c-1.425,0-2.235-0.915-2.235-2.535
			c0-1.531,0.811-2.416,2.191-2.416C669.045,516.742,669.99,517.702,669.99,519.263 M671.099,515.844h-1.139v1.258
			c-0.51-0.989-1.335-1.498-2.461-1.498c-1.875,0-3.149,1.363-3.149,3.614c0,2.191,1.289,3.614,3.209,3.614
			c1.036,0,1.892-0.524,2.432-1.498v1.213h1.108V515.844z M661.23,516.787v5.76h1.139v-5.76h1.26v-0.943h-1.26v-2.7h-1.139v2.7
			h-1.229v0.943H661.23z M657.721,519.263c0,1.545-0.841,2.431-2.19,2.431c-1.427,0-2.236-0.915-2.236-2.535
			c0-1.531,0.81-2.416,2.191-2.416C656.775,516.742,657.721,517.702,657.721,519.263 M658.829,515.844h-1.138v1.258
			c-0.511-0.989-1.337-1.498-2.462-1.498c-1.876,0-3.148,1.363-3.148,3.614c0,2.191,1.288,3.614,3.209,3.614
			c1.035,0,1.891-0.524,2.431-1.498v1.213h1.108V515.844z M643.184,521.349v-8.342h0.825c1.846,0,3.121,0.03,4.007,0.78
			c0.885,0.734,1.351,1.876,1.351,3.391s-0.48,2.686-1.351,3.406c-0.9,0.75-2.176,0.765-4.007,0.765H643.184z M641.911,522.547
			h2.518c1.741,0,3.151-0.045,4.397-1.003c1.229-0.945,1.873-2.431,1.873-4.352s-0.645-3.421-1.873-4.365
			c-1.307-1.003-2.852-1.003-4.862-1.003h-2.053V522.547z M634.066,519.232c0,1.591-0.87,2.491-2.252,2.491
			c-1.335,0-2.176-0.961-2.176-2.641c0-1.486,0.826-2.341,2.161-2.341C633.15,516.742,634.066,517.717,634.066,519.232
			 M635.174,511.193h-1.138v5.908c-0.511-0.988-1.335-1.498-2.446-1.498c-1.876,0-3.164,1.363-3.164,3.614
			c0,2.191,1.288,3.614,3.209,3.614c1.036,0,1.906-0.539,2.432-1.498v1.213h1.107V511.193z M620.656,522.547h1.138v-3.464
			c0-0.735,0-1.291,0.391-1.771c0.375-0.465,0.96-0.72,1.636-0.72c1.2,0,1.785,0.66,1.785,2.011v3.944h1.139v-4.56
			c0-1.516-0.958-2.384-2.519-2.384c-1.051,0-1.86,0.404-2.432,1.273v-1.034h-1.138V522.547z M617.326,519.263
			c0,1.545-0.84,2.431-2.19,2.431c-1.426,0-2.235-0.915-2.235-2.535c0-1.531,0.81-2.416,2.19-2.416
			C616.381,516.742,617.326,517.702,617.326,519.263 M618.435,515.844h-1.139v1.258c-0.51-0.989-1.335-1.498-2.461-1.498
			c-1.875,0-3.149,1.363-3.149,3.614c0,2.191,1.289,3.614,3.209,3.614c1.036,0,1.892-0.524,2.432-1.498v1.213h1.108V515.844z
			 M603.948,517.552h0.724v-6.189h-1.581l-0.42,0.646h1.277V517.552z M598.141,522.547h1.258v-2.31h1.261v-1.033h-1.261v-7.485
			h-0.539l-5.743,8.519h5.024V522.547z M598.141,519.204h-3.135l3.135-4.711V519.204z M588.105,522.547h1.243v-10.618h-2.713
			l-0.72,1.108h2.189V522.547z M579.675,522.832c2.251,0,3.704-1.993,3.704-5.564c0-3.57-1.438-5.549-3.734-5.549
			c-2.235,0-3.704,2.008-3.704,5.549S577.409,522.832,579.675,522.832 M579.66,521.784c-1.486,0-2.401-1.621-2.401-4.531
			c0-2.896,0.915-4.501,2.401-4.501c1.561,0,2.4,1.545,2.4,4.531C582.061,520.253,581.221,521.784,579.66,521.784 M573.765,521.334
			H569.7l1.68-1.816c1.726-1.875,2.714-3.286,2.714-4.829c0-1.847-1.228-2.97-3.329-2.97c-2.116,0-3.358,1.183-3.358,3.21
			c0,0.089,0.015,0.194,0.015,0.283h1.198v-0.119c0-1.425,0.75-2.206,2.101-2.206c1.291,0,2.116,0.796,2.116,1.877
			c0,1.394-1.336,2.819-3.271,5.1l-2.264,2.684h6.464V521.334z M559.786,522.547h1.138v-11.354h-1.138V522.547z M556.396,519.263
			c0,1.545-0.84,2.431-2.19,2.431c-1.425,0-2.236-0.915-2.236-2.535c0-1.531,0.812-2.416,2.191-2.416
			C555.451,516.742,556.396,517.702,556.396,519.263 M557.504,515.844h-1.138v1.258c-0.511-0.989-1.335-1.498-2.461-1.498
			c-1.876,0-3.149,1.363-3.149,3.614c0,2.191,1.288,3.614,3.209,3.614c1.036,0,1.891-0.524,2.431-1.498v1.213h1.108V515.844z
			 M543.287,516.787v5.76h1.138v-5.76h1.26v-0.943h-1.26v-2.7h-1.138v2.7h-1.23v0.943H543.287z M540.227,518.438h-4.082
			c0.12-1.141,0.945-1.847,2.041-1.847C539.4,516.592,540.152,517.253,540.227,518.438 M541.455,519.367v-0.226
			c0-2.22-1.258-3.553-3.225-3.553c-1.95,0-3.344,1.468-3.344,3.583c0,2.191,1.378,3.66,3.419,3.66c1.38,0,2.431-0.614,3.104-1.829
			l-0.869-0.585c-0.554,0.975-1.275,1.456-2.175,1.456c-1.291,0-2.222-0.946-2.222-2.402v-0.104H541.455z M528.242,518.438h-4.082
			c0.12-1.141,0.944-1.847,2.041-1.847C527.416,516.592,528.167,517.253,528.242,518.438 M529.47,519.367v-0.226
			c0-2.22-1.258-3.553-3.224-3.553c-1.951,0-3.344,1.468-3.344,3.583c0,2.191,1.378,3.66,3.419,3.66c1.381,0,2.43-0.614,3.104-1.829
			l-0.869-0.585c-0.554,0.975-1.274,1.456-2.175,1.456c-1.291,0-2.221-0.946-2.221-2.402v-0.104H529.47z M525.122,514.792h0.884
			l2.084-2.548h-1.469L525.122,514.792z M517.291,515.604h-0.18l-2.04,4.814l-1.784-4.574h-1.275l2.985,7.123l2.204-5.145
			l2.205,5.145l2.983-7.123h-1.29l-1.799,4.574L517.291,515.604z M510.302,518.438h-4.082c0.12-1.141,0.946-1.847,2.041-1.847
			C509.477,516.592,510.227,517.253,510.302,518.438 M511.53,519.367v-0.226c0-2.22-1.259-3.553-3.225-3.553
			c-1.951,0-3.344,1.468-3.344,3.583c0,2.191,1.378,3.66,3.419,3.66c1.381,0,2.43-0.614,3.104-1.829l-0.867-0.585
			c-0.556,0.975-1.275,1.456-2.177,1.456c-1.29,0-2.221-0.946-2.221-2.402v-0.104H511.53z M502.172,519.232
			c0,1.591-0.87,2.491-2.251,2.491c-1.335,0-2.176-0.961-2.176-2.641c0-1.486,0.826-2.341,2.161-2.341
			C501.257,516.742,502.172,517.717,502.172,519.232 M503.28,511.193h-1.139v5.908c-0.51-0.988-1.335-1.498-2.445-1.498
			c-1.876,0-3.164,1.363-3.164,3.614c0,2.191,1.288,3.614,3.209,3.614c1.036,0,1.905-0.539,2.431-1.498v1.213h1.108V511.193z
			 M488.762,522.547h1.14v-3.464c0-0.735,0-1.291,0.39-1.771c0.375-0.465,0.96-0.72,1.636-0.72c1.2,0,1.785,0.66,1.785,2.011v3.944
			h1.139v-4.56c0-1.516-0.959-2.384-2.519-2.384c-1.051,0-1.861,0.404-2.431,1.273v-1.034h-1.14V522.547z M485.433,519.263
			c0,1.545-0.841,2.431-2.19,2.431c-1.427,0-2.236-0.915-2.236-2.535c0-1.531,0.81-2.416,2.191-2.416
			C484.487,516.742,485.433,517.702,485.433,519.263 M486.541,515.844h-1.138v1.258c-0.512-0.989-1.337-1.498-2.462-1.498
			c-1.876,0-3.148,1.363-3.148,3.614c0,2.191,1.288,3.614,3.209,3.614c1.035,0,1.89-0.524,2.431-1.498v1.213h1.108V515.844z
			 M473.658,522.547h5.322v-1.213h-4.05v-9.51h-1.272V522.547z M465.873,522.547h1.138v-4.56c0-1.516-0.898-2.384-2.384-2.384
			c-1.021,0-1.801,0.435-2.386,1.363c-0.39-0.899-1.168-1.363-2.249-1.363c-1.005,0-1.771,0.419-2.312,1.273v-1.034h-1.138v6.704
			h1.138v-3.464c0-0.165-0.015-0.33-0.015-0.48c0-0.511,0.06-0.931,0.345-1.291c0.36-0.465,0.916-0.72,1.531-0.72
			c1.141,0,1.666,0.66,1.666,2.011v3.944h1.138v-3.464c0-0.15-0.015-0.285-0.015-0.42c0-0.557,0.075-0.977,0.359-1.352
			c0.36-0.465,0.901-0.72,1.517-0.72c1.141,0,1.666,0.66,1.666,2.011V522.547z M448.756,519.218c0-1.426,1.081-2.536,2.431-2.536
			c1.336,0,2.416,1.11,2.416,2.536c0,1.425-1.08,2.536-2.416,2.536C449.852,521.754,448.756,520.643,448.756,519.218
			 M447.543,519.218c0,0.975,0.36,1.846,1.062,2.551c0.69,0.689,1.592,1.063,2.581,1.063c0.977,0,1.876-0.39,2.581-1.078
			c0.689-0.675,1.063-1.562,1.063-2.536s-0.374-1.876-1.063-2.551c-0.705-0.689-1.59-1.063-2.581-1.063
			c-0.989,0-1.891,0.359-2.581,1.048C447.903,517.342,447.543,518.243,447.543,519.218 M442.908,522.547h1.138v-3.269
			c0-1.757,0.6-2.627,1.815-2.627c0.21,0,0.449,0.046,0.704,0.136l0.391-1.033c-0.255-0.09-0.51-0.135-0.78-0.135
			c-1.02,0-1.649,0.479-2.25,1.618v-1.395h-1.018V522.547z M438.933,522.547h1.139v-5.76h1.784v-0.943h-1.784v-1.786
			c0-1.291,0.029-1.906,0.885-1.906c0.3,0,0.6,0.075,0.899,0.24v-1.183c-0.314-0.105-0.645-0.15-0.989-0.15
			c-1.604,0-1.934,0.838-1.934,2.85v1.936h-1.29v0.943h1.29V522.547z M430.908,519.232c0,1.591-0.87,2.491-2.25,2.491
			c-1.336,0-2.177-0.961-2.177-2.641c0-1.486,0.825-2.341,2.161-2.341C429.993,516.742,430.908,517.717,430.908,519.232
			 M432.017,511.193h-1.138v5.908c-0.511-0.988-1.336-1.498-2.447-1.498c-1.875,0-3.164,1.363-3.164,3.614
			c0,2.191,1.289,3.614,3.209,3.614c1.036,0,1.906-0.539,2.432-1.498v1.213h1.108V511.193z M422.898,518.438h-4.082
			c0.12-1.141,0.945-1.847,2.041-1.847C422.073,516.592,422.824,517.253,422.898,518.438 M424.127,519.367v-0.226
			c0-2.22-1.258-3.553-3.224-3.553c-1.951,0-3.345,1.468-3.345,3.583c0,2.191,1.378,3.66,3.419,3.66c1.38,0,2.431-0.614,3.104-1.829
			l-0.869-0.585c-0.554,0.975-1.275,1.456-2.175,1.456c-1.291,0-2.222-0.946-2.222-2.402v-0.104H424.127z M414.514,516.787v5.76
			h1.139v-5.76h1.26v-0.943h-1.26v-2.7h-1.139v2.7h-1.229v0.943H414.514z M406.937,519.218c0-1.591,0.87-2.506,2.251-2.506
			c1.336,0,2.177,0.96,2.177,2.641c0,1.485-0.825,2.356-2.161,2.356C407.852,521.709,406.937,520.732,406.937,519.218
			 M405.829,525.802h1.138v-4.468c0.51,0.989,1.336,1.498,2.446,1.498c1.876,0,3.164-1.349,3.164-3.614
			c0-2.206-1.288-3.614-3.209-3.614c-1.035,0-1.921,0.524-2.446,1.498v-1.259h-1.093V525.802z M402.499,519.263
			c0,1.545-0.84,2.431-2.191,2.431c-1.425,0-2.235-0.915-2.235-2.535c0-1.531,0.811-2.416,2.19-2.416
			C401.554,516.742,402.499,517.702,402.499,519.263 M403.606,515.844h-1.138v1.258c-0.51-0.989-1.335-1.498-2.461-1.498
			c-1.876,0-3.148,1.363-3.148,3.614c0,2.191,1.287,3.614,3.209,3.614c1.035,0,1.891-0.524,2.431-1.498v1.213h1.107V515.844z
			 M393.994,519.232c0,1.591-0.87,2.491-2.251,2.491c-1.335,0-2.177-0.961-2.177-2.641c0-1.486,0.826-2.341,2.161-2.341
			C393.079,516.742,393.994,517.717,393.994,519.232 M395.102,511.193h-1.138v5.908c-0.51-0.988-1.335-1.498-2.446-1.498
			c-1.876,0-3.164,1.363-3.164,3.614c0,2.191,1.288,3.614,3.209,3.614c1.036,0,1.906-0.539,2.432-1.498v1.213h1.107V511.193z
			 M383.073,514.223l1.71,3.946h-3.419L383.073,514.223z M383.073,511.404l-4.859,11.143h1.38l1.396-3.285h4.184l1.396,3.285h1.379
			L383.073,511.404z M371.029,521.828c0,0.479,0.375,0.854,0.868,0.854c0.495,0,0.885-0.375,0.885-0.854
			c0-0.48-0.39-0.869-0.885-0.869C371.419,520.959,371.029,521.348,371.029,521.828 M363.078,519.218
			c0-1.426,1.08-2.536,2.431-2.536c1.335,0,2.416,1.11,2.416,2.536c0,1.425-1.081,2.536-2.416,2.536
			C364.173,521.754,363.078,520.643,363.078,519.218 M361.865,519.218c0,0.975,0.358,1.846,1.062,2.551
			c0.69,0.689,1.59,1.063,2.581,1.063c0.976,0,1.875-0.39,2.58-1.078c0.689-0.675,1.064-1.562,1.064-2.536s-0.375-1.876-1.064-2.551
			c-0.705-0.689-1.59-1.063-2.58-1.063c-0.991,0-1.891,0.359-2.581,1.048C362.224,517.342,361.865,518.243,361.865,519.218
			 M354.993,519.232c0-1.516,0.93-2.49,2.28-2.49c1.336,0,2.161,0.854,2.161,2.341c0,1.68-0.855,2.641-2.19,2.641
			C355.863,521.724,354.993,520.823,354.993,519.232 M353.9,511.193v11.354h1.093v-1.213c0.524,0.96,1.41,1.498,2.445,1.498
			c1.922,0,3.209-1.423,3.209-3.614c0-2.251-1.287-3.614-3.163-3.614c-1.111,0-1.937,0.51-2.446,1.498v-5.908H353.9z
			 M351.02,518.438h-4.082c0.12-1.141,0.945-1.847,2.041-1.847C350.194,516.592,350.945,517.253,351.02,518.438 M352.248,519.367
			v-0.226c0-2.22-1.258-3.553-3.225-3.553c-1.95,0-3.344,1.468-3.344,3.583c0,2.191,1.378,3.66,3.419,3.66
			c1.381,0,2.431-0.614,3.104-1.829l-0.869-0.585c-0.554,0.975-1.275,1.456-2.175,1.456c-1.291,0-2.222-0.946-2.222-2.402v-0.104
			H352.248z M344.748,520.959c-0.705,0.51-1.351,0.765-2.07,0.765c-1.395,0-2.399-1.081-2.399-2.431c0-1.591,1.02-2.581,2.489-2.581
			c0.66,0,1.29,0.21,1.86,0.585v-1.229c-0.615-0.299-1.335-0.464-2.085-0.464c-2.01,0-3.493,1.469-3.493,3.659
			c0,2.116,1.363,3.569,3.448,3.569c0.87,0,1.635-0.181,2.25-0.539V520.959z M336.274,519.263c0,1.545-0.84,2.431-2.19,2.431
			c-1.425,0-2.236-0.915-2.236-2.535c0-1.531,0.812-2.416,2.191-2.416C335.33,516.742,336.274,517.702,336.274,519.263
			 M337.383,515.844h-1.138v1.258c-0.51-0.989-1.335-1.498-2.461-1.498c-1.876,0-3.149,1.363-3.149,3.614
			c0,2.191,1.288,3.614,3.209,3.614c1.036,0,1.892-0.524,2.431-1.498v1.213h1.108V515.844z M327.649,522.547h1.139v-11.354h-1.139
			V522.547z M320.194,519.218c0-1.591,0.869-2.506,2.251-2.506c1.335,0,2.175,0.96,2.175,2.641c0,1.485-0.825,2.356-2.16,2.356
			C321.109,521.709,320.194,520.732,320.194,519.218 M319.086,525.802h1.138v-4.468c0.511,0.989,1.335,1.498,2.446,1.498
			c1.875,0,3.164-1.349,3.164-3.614c0-2.206-1.289-3.614-3.209-3.614c-1.036,0-1.921,0.524-2.446,1.498v-1.259h-1.093V525.802z
			 M308.001,521.424c0.523,0.944,1.393,1.408,2.639,1.408c1.485,0,2.444-0.883,2.444-2.129c0-1.096-0.645-1.575-1.949-1.995
			c-1.111-0.36-1.726-0.45-1.726-1.156c0-0.585,0.465-1.005,1.14-1.005c0.706,0,1.261,0.345,1.531,0.96l0.929-0.57
			c-0.36-0.854-1.229-1.333-2.384-1.333c-1.426,0-2.369,0.854-2.369,2.023c0,1.321,0.988,1.605,2.639,2.176
			c0.705,0.24,1.052,0.51,1.052,1.021c0,0.586-0.496,1.006-1.262,1.006s-1.336-0.346-1.711-1.066L308.001,521.424z M304.25,522.967
			l3.299-7.123h-1.29l-2.023,4.679l-2.011-4.679h-1.289L304.25,522.967z M295.054,521.334h-4.064l1.681-1.816
			c1.725-1.875,2.714-3.286,2.714-4.829c0-1.847-1.228-2.97-3.329-2.97c-2.116,0-3.358,1.183-3.358,3.21
			c0,0.089,0.015,0.194,0.015,0.283h1.198v-0.119c0-1.425,0.75-2.206,2.101-2.206c1.29,0,2.116,0.796,2.116,1.877
			c0,1.394-1.336,2.819-3.272,5.1l-2.263,2.684h6.463V521.334z M283.415,522.832c2.251,0,3.704-1.993,3.704-5.564
			c0-3.57-1.438-5.549-3.734-5.549c-2.236,0-3.704,2.008-3.704,5.549S281.148,522.832,283.415,522.832 M283.399,521.784
			c-1.485,0-2.4-1.621-2.4-4.531c0-2.896,0.915-4.501,2.4-4.501c1.562,0,2.401,1.545,2.401,4.531
			C285.801,520.253,284.961,521.784,283.399,521.784 M275.961,521.828c0,0.479,0.374,0.854,0.869,0.854
			c0.494,0,0.884-0.375,0.884-0.854c0-0.48-0.39-0.869-0.884-0.869C276.35,520.959,275.961,521.348,275.961,521.828 M270.29,522.832
			c2.251,0,3.704-1.993,3.704-5.564c0-3.57-1.438-5.549-3.734-5.549c-2.236,0-3.704,2.008-3.704,5.549
			S268.023,522.832,270.29,522.832 M270.274,521.784c-1.485,0-2.4-1.621-2.4-4.531c0-2.896,0.915-4.501,2.4-4.501
			c1.562,0,2.401,1.545,2.401,4.531C272.676,520.253,271.836,521.784,270.274,521.784 M263.989,515.094v-0.93l-8.623,3.539v0.75
			l8.623,3.539v-0.945l-7.318-2.969L263.989,515.094z M247.204,519.218c0-1.591,0.871-2.506,2.251-2.506
			c1.336,0,2.176,0.96,2.176,2.641c0,1.485-0.825,2.356-2.161,2.356C248.12,521.709,247.204,520.732,247.204,519.218
			 M246.096,525.802h1.139v-4.468c0.511,0.989,1.336,1.498,2.445,1.498c1.876,0,3.164-1.349,3.164-3.614
			c0-2.206-1.288-3.614-3.209-3.614c-1.035,0-1.92,0.524-2.446,1.498v-1.259h-1.093V525.802z M239.901,515.964l1.649-0.961v1.859
			h0.748v-1.829l1.591,0.916l0.36-0.661l-1.606-0.915l1.606-0.932l-0.36-0.659l-1.604,0.916l0.014-1.874h-0.748l0.015,1.919
			l-1.649-0.961l-0.375,0.645l1.635,0.946l-1.635,0.944L239.901,515.964z M230.976,524.679l0.84,0.328l1.8-3.885l-1.245-0.434
			L230.976,524.679z M223.475,519.218c0-1.426,1.08-2.536,2.432-2.536c1.335,0,2.416,1.11,2.416,2.536
			c0,1.425-1.081,2.536-2.416,2.536C224.57,521.754,223.475,520.643,223.475,519.218 M222.262,519.218
			c0,0.975,0.359,1.846,1.063,2.551c0.689,0.689,1.59,1.063,2.581,1.063c0.975,0,1.875-0.39,2.58-1.078
			c0.688-0.675,1.063-1.562,1.063-2.536s-0.375-1.876-1.063-2.551c-0.705-0.689-1.591-1.063-2.58-1.063
			c-0.991,0-1.892,0.359-2.581,1.048C222.621,517.342,222.262,518.243,222.262,519.218 M215.39,519.232
			c0-1.516,0.931-2.49,2.281-2.49c1.335,0,2.161,0.854,2.161,2.341c0,1.68-0.856,2.641-2.191,2.641
			C216.26,521.724,215.39,520.823,215.39,519.232 M214.297,511.193v11.354h1.093v-1.213c0.525,0.96,1.411,1.498,2.446,1.498
			c1.921,0,3.209-1.423,3.209-3.614c0-2.251-1.288-3.614-3.164-3.614c-1.11,0-1.936,0.51-2.446,1.498v-5.908H214.297z
			 M211.417,518.438h-4.082c0.12-1.141,0.945-1.847,2.041-1.847C210.592,516.592,211.342,517.253,211.417,518.438 M212.645,519.367
			v-0.226c0-2.22-1.258-3.553-3.224-3.553c-1.951,0-3.344,1.468-3.344,3.583c0,2.191,1.378,3.66,3.419,3.66
			c1.381,0,2.43-0.614,3.104-1.829l-0.869-0.585c-0.554,0.975-1.274,1.456-2.175,1.456c-1.291,0-2.221-0.946-2.221-2.402v-0.104
			H212.645z M205.145,520.959c-0.705,0.51-1.35,0.765-2.069,0.765c-1.396,0-2.4-1.081-2.4-2.431c0-1.591,1.021-2.581,2.49-2.581
			c0.66,0,1.29,0.21,1.86,0.585v-1.229c-0.615-0.299-1.336-0.464-2.086-0.464c-2.01,0-3.492,1.469-3.492,3.659
			c0,2.116,1.362,3.569,3.447,3.569c0.87,0,1.636-0.181,2.25-0.539V520.959z M196.672,519.263c0,1.545-0.84,2.431-2.191,2.431
			c-1.425,0-2.235-0.915-2.235-2.535c0-1.531,0.811-2.416,2.19-2.416C195.727,516.742,196.672,517.702,196.672,519.263
			 M197.78,515.844h-1.139v1.258c-0.51-0.989-1.335-1.498-2.461-1.498c-1.876,0-3.148,1.363-3.148,3.614
			c0,2.191,1.288,3.614,3.209,3.614c1.036,0,1.891-0.524,2.431-1.498v1.213h1.108V515.844z M188.047,522.547h1.138v-11.354h-1.138
			V522.547z M180.591,519.218c0-1.591,0.87-2.506,2.251-2.506c1.335,0,2.176,0.96,2.176,2.641c0,1.485-0.826,2.356-2.161,2.356
			C181.506,521.709,180.591,520.732,180.591,519.218 M179.482,525.802h1.139v-4.468c0.51,0.989,1.335,1.498,2.445,1.498
			c1.877,0,3.164-1.349,3.164-3.614c0-2.206-1.287-3.614-3.209-3.614c-1.035,0-1.921,0.524-2.445,1.498v-1.259h-1.094V525.802z
			 M168.397,521.424c0.524,0.944,1.394,1.408,2.64,1.408c1.484,0,2.443-0.883,2.443-2.129c0-1.096-0.644-1.575-1.948-1.995
			c-1.111-0.36-1.727-0.45-1.727-1.156c0-0.585,0.465-1.005,1.142-1.005c0.705,0,1.261,0.345,1.529,0.96l0.93-0.57
			c-0.359-0.854-1.229-1.333-2.385-1.333c-1.426,0-2.368,0.854-2.368,2.023c0,1.321,0.987,1.605,2.639,2.176
			c0.705,0.24,1.051,0.51,1.051,1.021c0,0.586-0.496,1.006-1.261,1.006c-0.767,0-1.336-0.346-1.711-1.066L168.397,521.424z
			 M164.646,522.967l3.3-7.123h-1.29l-2.024,4.679l-2.01-4.679h-1.289L164.646,522.967z M152.243,522.547h1.243v-10.618h-2.714
			l-0.72,1.108h2.19V522.547z M143.812,522.832c2.251,0,3.704-1.993,3.704-5.564c0-3.57-1.438-5.549-3.733-5.549
			c-2.236,0-3.704,2.008-3.704,5.549S141.546,522.832,143.812,522.832 M143.797,521.784c-1.486,0-2.401-1.621-2.401-4.531
			c0-2.896,0.915-4.501,2.401-4.501c1.561,0,2.401,1.545,2.401,4.531C146.198,520.253,145.357,521.784,143.797,521.784
			 M135.037,522.832c2.251,0,3.704-1.993,3.704-5.564c0-3.57-1.438-5.549-3.734-5.549c-2.236,0-3.704,2.008-3.704,5.549
			S132.771,522.832,135.037,522.832 M135.021,521.784c-1.485,0-2.4-1.621-2.4-4.531c0-2.896,0.915-4.501,2.4-4.501
			c1.562,0,2.401,1.545,2.401,4.531C137.423,520.253,136.583,521.784,135.021,521.784 M127.583,521.828
			c0,0.479,0.375,0.854,0.869,0.854c0.495,0,0.884-0.375,0.884-0.854c0-0.48-0.389-0.869-0.884-0.869
			C127.973,520.959,127.583,521.348,127.583,521.828 M121.912,522.832c2.251,0,3.704-1.993,3.704-5.564
			c0-3.57-1.438-5.549-3.734-5.549c-2.236,0-3.704,2.008-3.704,5.549S119.646,522.832,121.912,522.832 M121.896,521.784
			c-1.484,0-2.4-1.621-2.4-4.531c0-2.896,0.916-4.501,2.4-4.501c1.562,0,2.401,1.545,2.401,4.531
			C124.298,520.253,123.458,521.784,121.896,521.784 M115.611,515.094v-0.93l-8.623,3.539v0.75l8.623,3.539v-0.945l-7.318-2.969
			L115.611,515.094z M98.827,519.218c0-1.591,0.87-2.506,2.25-2.506c1.336,0,2.176,0.96,2.176,2.641
			c0,1.485-0.825,2.356-2.161,2.356C99.742,521.709,98.827,520.732,98.827,519.218 M97.718,525.802h1.138v-4.468
			c0.512,0.989,1.337,1.498,2.447,1.498c1.875,0,3.163-1.349,3.163-3.614c0-2.206-1.288-3.614-3.209-3.614
			c-1.035,0-1.92,0.524-2.445,1.498v-1.259h-1.094V525.802z M93.942,519.45h0.706v-5.143h1.558v-0.61h-1.558v-2.396h-0.706v2.396
			h-1.558v0.61h1.558V519.45z"/>
	</g>
</g>
</svg>
