<?xml version="1.0" encoding="utf-8"?>
<!-- Generator: Adobe Illustrator 15.1.0, SVG Export Plug-In . SVG Version: 6.00 Build 0)  -->
<!DOCTYPE svg PUBLIC "-//W3C//DTD SVG 1.1//EN" "http://www.w3.org/Graphics/SVG/1.1/DTD/svg11.dtd">
<svg version="1.1" id="x-axis" xmlns="http://www.w3.org/2000/svg" xmlns:xlink="http://www.w3.org/1999/xlink" x="0px" y="0px"
	 width="912px" height="570px" viewBox="0 0 912 570" enable-background="new 0 0 912 570" xml:space="preserve">
<g>
	<defs>
		<rect id="SVGID_1_" x="-9" y="-1" width="930" height="570.252"/>
	</defs>
	<clipPath id="SVGID_2_">
		<use xlink:href="#SVGID_1_"  overflow="visible"/>
	</clipPath>
	<rect y="400" clip-path="url(#SVGID_2_)" fill="#F3E3D5" width="912" height="20"/>
	<rect y="80" clip-path="url(#SVGID_2_)" fill="#F3E3D5" width="912" height="40"/>
	<rect clip-path="url(#SVGID_2_)" fill="#F3E3D5" width="912" height="40"/>
	<rect y="160" clip-path="url(#SVGID_2_)" fill="#F3E3D5" width="912" height="40"/>
	<rect y="240" clip-path="url(#SVGID_2_)" fill="#F3E3D5" width="912" height="40"/>
	<rect y="320" clip-path="url(#SVGID_2_)" fill="#F3E3D5" width="912" height="40"/>
	<line clip-path="url(#SVGID_2_)" fill="none" stroke="#D1D3D4" stroke-width="0.5" x1="285.25" y1="200" x2="285.25" y2="420"/>
	<line clip-path="url(#SVGID_2_)" fill="none" stroke="#D1D3D4" stroke-width="0.5" x1="113" y1="0" x2="113" y2="420"/>
	<line clip-path="url(#SVGID_2_)" fill="none" stroke="#D1D3D4" stroke-width="0.5" x1="199" y1="0" x2="199" y2="420"/>
	<line clip-path="url(#SVGID_2_)" fill="none" stroke="#D1D3D4" stroke-width="0.5" x1="285" y1="0" x2="285" y2="420"/>
	<line clip-path="url(#SVGID_2_)" fill="none" stroke="#D1D3D4" stroke-width="0.5" x1="371" y1="0" x2="371" y2="420"/>
	<line clip-path="url(#SVGID_2_)" fill="none" stroke="#D1D3D4" stroke-width="0.5" x1="457" y1="0" x2="457" y2="420"/>
	<line clip-path="url(#SVGID_2_)" fill="none" stroke="#D1D3D4" stroke-width="0.5" x1="543" y1="80" x2="543" y2="420"/>
	<line clip-path="url(#SVGID_2_)" fill="none" stroke="#D1D3D4" stroke-width="0.5" x1="629" y1="80" x2="629" y2="420"/>
	<line clip-path="url(#SVGID_2_)" fill="none" stroke="#D1D3D4" stroke-width="0.5" x1="715" y1="80" x2="715" y2="420"/>
	<line clip-path="url(#SVGID_2_)" fill="none" stroke="#D1D3D4" stroke-width="0.5" x1="801" y1="0" x2="801" y2="420"/>
	<g clip-path="url(#SVGID_2_)">
		<defs>
			<rect id="SVGID_3_" x="-9" y="-1" width="930" height="570.252"/>
		</defs>
		<clipPath id="SVGID_4_">
			<use xlink:href="#SVGID_3_"  overflow="visible"/>
		</clipPath>
		<path clip-path="url(#SVGID_4_)" fill="#F9A25E" d="M47.072,84.477l0.432-0.832c-2.288-1.232-4.864-1.856-7.728-1.856
			c-2.96,0-5.504,0.576-7.76,1.856l0.384,0.832c2.272-1.152,4.64-1.648,7.376-1.648C42.592,82.828,44.96,83.324,47.072,84.477
			 M41.344,85.404c-1.888,0-2.96,0.88-2.96,2.336s1.072,2.352,2.96,2.352c1.888,0,2.96-0.896,2.96-2.352
			S43.232,85.404,41.344,85.404 M43.504,87.74c0,0.752-0.752,1.2-2.16,1.2c-1.408,0-2.16-0.448-2.16-1.2c0-0.784,0.72-1.2,2.16-1.2
			C42.752,86.541,43.504,86.988,43.504,87.74 M37.568,94.061c0,0.752-0.752,1.2-2.16,1.2c-1.408,0-2.176-0.448-2.176-1.2
			c0-0.784,0.736-1.2,2.176-1.2C36.816,92.86,37.568,93.309,37.568,94.061 M35.408,91.708c-1.888,0-2.96,0.896-2.96,2.352
			s1.072,2.352,2.96,2.352c1.888,0,2.944-0.896,2.944-2.352S37.296,91.708,35.408,91.708 M44.304,94.732v-0.976l-11.856-6.56v0.96
			L44.304,94.732z M47.072,97.404c-2.112,1.152-4.48,1.648-7.296,1.648c-2.736,0-5.104-0.496-7.376-1.648l-0.384,0.832
			c2.256,1.28,4.8,1.856,7.76,1.856c2.864,0,5.44-0.624,7.728-1.856L47.072,97.404z M39.616,107.853v4.352
			c-1.216-0.128-1.968-1.008-1.968-2.177C37.648,108.732,38.352,107.931,39.616,107.853 M40.608,106.541h-0.24
			c-2.368,0-3.792,1.344-3.792,3.44c0,2.08,1.568,3.568,3.824,3.568c2.336,0,3.904-1.472,3.904-3.649
			c0-1.471-0.656-2.591-1.952-3.312l-0.624,0.929c1.04,0.592,1.552,1.36,1.552,2.32c0,1.376-1.008,2.368-2.56,2.368h-0.112V106.541z
			 M42.8,120.107c1.008-0.56,1.504-1.488,1.504-2.816c0-1.584-0.944-2.608-2.272-2.608c-1.168,0-1.68,0.688-2.128,2.08
			c-0.384,1.184-0.48,1.84-1.232,1.84c-0.624,0-1.072-0.496-1.072-1.216c0-0.752,0.368-1.344,1.024-1.632l-0.608-0.992
			c-0.912,0.384-1.424,1.312-1.424,2.544c0,1.52,0.912,2.528,2.16,2.528c1.408,0,1.712-1.056,2.32-2.816
			c0.256-0.752,0.544-1.12,1.088-1.12c0.624,0,1.072,0.528,1.072,1.344c0,0.816-0.368,1.424-1.136,1.824L42.8,120.107z M44,128.188
			v-1.216h-3.696c-0.784,0-1.376,0-1.888-0.416c-0.496-0.4-0.768-1.024-0.768-1.744c0-1.28,0.704-1.904,2.144-1.904H44v-1.216
			h-4.864c-1.616,0-2.544,1.024-2.544,2.688c0,1.12,0.432,1.984,1.36,2.592h-1.104v1.216H44z M40.448,136.491
			c-1.52,0-2.704-1.152-2.704-2.592c0-1.424,1.184-2.576,2.704-2.576c1.52,0,2.704,1.152,2.704,2.576S41.968,136.491,40.448,136.491
			 M40.448,137.787c1.04,0,1.968-0.384,2.72-1.136c0.736-0.736,1.136-1.696,1.136-2.752c0-1.04-0.416-2-1.152-2.752
			c-0.72-0.736-1.664-1.136-2.704-1.136c-1.04,0-2,0.4-2.72,1.136c-0.736,0.752-1.136,1.696-1.136,2.752s0.384,2.016,1.12,2.752
			C38.448,137.403,39.408,137.787,40.448,137.787 M40.448,145.1c-1.696,0-2.672-0.928-2.672-2.4c0-1.424,1.024-2.32,2.816-2.32
			c1.584,0,2.512,0.88,2.512,2.304C43.104,144.124,42.064,145.1,40.448,145.1 M47.488,146.283v-1.216h-4.784
			c1.056-0.544,1.6-1.424,1.6-2.608c0-2-1.44-3.376-3.856-3.376c-2.352,0-3.856,1.376-3.856,3.424c0,1.104,0.56,2.048,1.6,2.608
			h-1.344v1.168H47.488z M42.8,153.467c1.008-0.56,1.504-1.488,1.504-2.816c0-1.584-0.944-2.608-2.272-2.608
			c-1.168,0-1.68,0.688-2.128,2.08c-0.384,1.184-0.48,1.84-1.232,1.84c-0.624,0-1.072-0.496-1.072-1.216
			c0-0.752,0.368-1.344,1.024-1.632l-0.608-0.992c-0.912,0.384-1.424,1.312-1.424,2.544c0,1.52,0.912,2.528,2.16,2.528
			c1.408,0,1.712-1.056,2.32-2.816c0.256-0.752,0.544-1.12,1.088-1.12c0.624,0,1.072,0.528,1.072,1.344
			c0,0.816-0.368,1.424-1.136,1.824L42.8,153.467z M39.616,155.787v4.352c-1.216-0.128-1.968-1.008-1.968-2.176
			C37.648,156.667,38.352,155.867,39.616,155.787 M40.608,154.476h-0.24c-2.368,0-3.792,1.344-3.792,3.44
			c0,2.08,1.568,3.568,3.824,3.568c2.336,0,3.904-1.472,3.904-3.648c0-1.472-0.656-2.592-1.952-3.312l-0.624,0.928
			c1.04,0.592,1.552,1.36,1.552,2.32c0,1.376-1.008,2.368-2.56,2.368h-0.112V154.476z M44,169.211v-1.36h-5.456v-0.16L44,163.516
			v-1.729l-5.456,4.368v-0.24c0-2.016-0.992-3.088-2.864-3.088c-1.12,0-2.032,0.416-2.544,1.072
			c-0.544,0.704-0.576,1.536-0.576,2.624v2.688H44z M33.712,167.852v-1.008c0-1.808,0.32-2.672,1.984-2.672
			c1.584,0,1.84,0.88,1.84,2.672v1.008H33.712z M37.648,177.834l-0.72,1.632c-0.464,1.04-1.024,1.536-1.84,1.536
			c-0.976,0-1.664-0.72-1.664-1.744c0-0.816,0.448-1.44,1.312-1.936l-0.72-1.12c-1.136,0.56-1.728,1.584-1.728,2.96
			c0,1.904,1.216,3.216,2.816,3.216c1.392,0,2.384-0.736,3.024-2.256l0.592-1.392c0.512-1.184,1.264-1.776,2.288-1.776
			c1.248,0,2.128,0.912,2.128,2.288c0,1.152-0.72,1.936-2.112,2.272l0.608,1.232c1.696-0.432,2.656-1.696,2.656-3.504
			c0-2.208-1.408-3.664-3.504-3.664C39.344,175.578,38.304,176.346,37.648,177.834 M35.12,188.298l4.208-1.824v3.648L35.12,188.298z
			 M32.112,188.298L44,193.482v-1.472l-3.504-1.488v-4.464L44,184.57v-1.472L32.112,188.298z M37.648,195.898l-0.72,1.632
			c-0.464,1.04-1.024,1.536-1.84,1.536c-0.976,0-1.664-0.72-1.664-1.744c0-0.816,0.448-1.44,1.312-1.936l-0.72-1.12
			c-1.136,0.56-1.728,1.584-1.728,2.96c0,1.904,1.216,3.216,2.816,3.216c1.392,0,2.384-0.736,3.024-2.256l0.592-1.392
			c0.512-1.184,1.264-1.776,2.288-1.776c1.248,0,2.128,0.912,2.128,2.288c0,1.152-0.72,1.936-2.112,2.272l0.608,1.232
			c1.696-0.432,2.656-1.696,2.656-3.504c0-2.208-1.408-3.664-3.504-3.664C39.344,193.643,38.304,194.41,37.648,195.898
			 M35.12,206.362l4.208-1.824v3.648L35.12,206.362z M32.112,206.362L44,211.546v-1.472l-3.504-1.488v-4.464L44,202.634v-1.472
			L32.112,206.362z M40.448,218.331c1.648,0,2.608,0.896,2.608,2.336c0,1.52-0.976,2.384-2.704,2.384
			c-1.632,0-2.576-0.864-2.576-2.336C37.776,219.338,38.784,218.331,40.448,218.331 M36.848,217.114v1.248h1.328
			c-1.04,0.528-1.584,1.44-1.584,2.624c0,2,1.424,3.36,3.808,3.36c2.32,0,3.824-1.376,3.824-3.424c0-1.104-0.56-2.032-1.584-2.592
			h1.2c0.656,0,1.184,0.032,1.632,0.304c0.624,0.368,0.944,1.072,0.944,2.048c0,1.376-0.624,2.128-1.68,2.128H44.64v1.376
			c1.792-0.048,2.848-1.296,2.848-3.488c0-1.264-0.368-2.224-1.072-2.88c-0.72-0.672-1.52-0.704-2.544-0.704H36.848z M44,232.634
			v-1.216h-3.696c-0.784,0-1.376,0-1.888-0.416c-0.496-0.4-0.768-1.024-0.768-1.744c0-1.28,0.704-1.904,2.144-1.904H44v-1.216
			h-4.864c-1.616,0-2.544,1.024-2.544,2.688c0,1.12,0.432,1.984,1.36,2.592h-1.104v1.216H44z M33.408,236.65
			c0.512,0,0.896-0.4,0.896-0.896s-0.384-0.896-0.88-0.896c-0.496,0-0.912,0.4-0.912,0.896S32.912,236.65,33.408,236.65 M44,235.146
			h-7.152v1.216H44V235.146z M44.448,241.178l-7.6-3.52v1.376l4.992,2.16l-4.992,2.144v1.376L44.448,241.178z M39.616,246.603v4.352
			c-1.216-0.128-1.968-1.008-1.968-2.176C37.648,247.482,38.352,246.683,39.616,246.603 M40.608,245.291h-0.24
			c-2.368,0-3.792,1.344-3.792,3.44c0,2.08,1.568,3.568,3.824,3.568c2.336,0,3.904-1.472,3.904-3.648
			c0-1.472-0.656-2.592-1.952-3.312l-0.624,0.928c1.04,0.592,1.552,1.36,1.552,2.32c0,1.376-1.008,2.368-2.56,2.368h-0.112V245.291z
			 M33.408,255.69c0.512,0,0.896-0.4,0.896-0.896s-0.384-0.896-0.88-0.896c-0.496,0-0.912,0.4-0.912,0.896
			S32.912,255.69,33.408,255.69 M44,254.187h-7.152v1.216H44V254.187z M44,264.297v-1.216h-3.696c-0.784,0-1.376,0-1.888-0.416
			c-0.496-0.4-0.768-1.024-0.768-1.744c0-1.28,0.704-1.904,2.144-1.904H44v-1.216h-4.864c-1.616,0-2.544,1.024-2.544,2.688
			c0,1.12,0.432,1.984,1.36,2.608h-6.064v1.2H44z M42.304,265.914c0.544,0.752,0.816,1.44,0.816,2.208
			c0,1.488-1.152,2.56-2.592,2.56c-1.696,0-2.752-1.088-2.752-2.656c0-0.704,0.224-1.376,0.624-1.984h-1.312
			c-0.32,0.656-0.496,1.424-0.496,2.224c0,2.144,1.568,3.728,3.904,3.728c2.256,0,3.808-1.456,3.808-3.68
			c0-0.928-0.192-1.744-0.576-2.4H42.304z M35.12,277.577l4.208-1.824v3.648L35.12,277.577z M32.112,277.577L44,282.762v-1.473
			l-3.504-1.488v-4.463L44,273.85v-1.472L32.112,277.577z M42.8,293.146c1.008-0.56,1.504-1.488,1.504-2.815
			c0-1.585-0.944-2.609-2.272-2.609c-1.168,0-1.68,0.688-2.128,2.08c-0.384,1.185-0.48,1.841-1.232,1.841
			c-0.624,0-1.072-0.496-1.072-1.216c0-0.752,0.368-1.344,1.024-1.633l-0.608-0.992c-0.912,0.385-1.424,1.312-1.424,2.545
			c0,1.52,0.912,2.527,2.16,2.527c1.408,0,1.712-1.056,2.32-2.815c0.256-0.753,0.544-1.12,1.088-1.12
			c0.624,0,1.072,0.527,1.072,1.344s-0.368,1.424-1.136,1.824L42.8,293.146z M37.856,296.266H44v-1.217h-6.144v-1.344h-1.008v1.344
			h-2.88v1.217h2.88v1.312h1.008V296.266z M44,305.289v-1.216h-3.696c-0.784,0-1.376,0-1.888-0.416
			c-0.496-0.399-0.768-1.024-0.768-1.743c0-1.281,0.704-1.904,2.144-1.904H44v-1.217h-4.864c-1.616,0-2.544,1.024-2.544,2.688
			c0,1.12,0.432,1.983,1.36,2.592h-1.104v1.216H44z M39.616,308.361v4.352c-1.216-0.127-1.968-1.008-1.968-2.176
			C37.648,309.241,38.352,308.441,39.616,308.361 M40.608,307.049h-0.24c-2.368,0-3.792,1.345-3.792,3.44
			c0,2.08,1.568,3.568,3.824,3.568c2.336,0,3.904-1.472,3.904-3.648c0-1.472-0.656-2.592-1.952-3.312l-0.624,0.928
			c1.04,0.592,1.552,1.359,1.552,2.32c0,1.375-1.008,2.367-2.56,2.367h-0.112V307.049z M33.408,317.449
			c0.512,0,0.896-0.4,0.896-0.896c0-0.495-0.384-0.896-0.88-0.896c-0.496,0-0.912,0.4-0.912,0.896
			C32.512,317.049,32.912,317.449,33.408,317.449 M44,315.945h-7.152v1.216H44V315.945z M37.856,321.096H44v-1.215h-6.144v-1.345
			h-1.008v1.345h-2.88v1.215h2.88v1.312h1.008V321.096z M40.496,324.84c1.648,0,2.592,0.896,2.592,2.336
			c0,1.521-0.976,2.385-2.704,2.385c-1.632,0-2.576-0.864-2.576-2.336C37.808,325.848,38.832,324.84,40.496,324.84 M36.848,323.656
			v1.217h1.344c-1.056,0.543-1.6,1.424-1.6,2.623c0,2,1.456,3.36,3.856,3.36c2.336,0,3.856-1.376,3.856-3.424
			c0-1.104-0.56-2.017-1.6-2.593H44v-1.184H36.848z M38.864,336.873v-1.041c0-1.184-0.032-2.111-0.576-2.88
			c-0.512-0.72-1.456-1.168-2.576-1.168s-2.064,0.448-2.576,1.168c-0.544,0.769-0.576,1.712-0.576,2.88v2.4H44v-1.359H38.864z
			 M37.632,336.873h-3.824v-0.656c0-1.984,0.32-2.961,1.984-2.961c1.584,0,1.84,0.992,1.84,2.961V336.873z"/>
		<g clip-path="url(#SVGID_4_)">
			<g>
				<defs>
					<rect id="SVGID_5_" x="65.592" y="133.168" width="34.656" height="13.984"/>
				</defs>
				<clipPath id="SVGID_6_">
					<use xlink:href="#SVGID_5_"  overflow="visible"/>
				</clipPath>
				<path clip-path="url(#SVGID_6_)" fill="#F9A25E" d="M87.296,146.024c2.4,0,3.952-2.128,3.952-5.936s-1.536-5.92-3.984-5.92
					c-2.384,0-3.951,2.144-3.951,5.92S84.88,146.024,87.296,146.024 M87.28,144.904c-1.584,0-2.561-1.728-2.561-4.832
					c0-3.088,0.977-4.8,2.561-4.8c1.664,0,2.56,1.648,2.56,4.832C89.84,143.272,88.944,144.904,87.28,144.904 M75.008,145.576
					l1.12,0.576l5.712-11.76h-7.248v1.184h5.296L75.008,145.576z"/>
			</g>
		</g>
		<g clip-path="url(#SVGID_4_)">
			<g>
				<defs>
					<rect id="SVGID_7_" x="65.08" y="93.168" width="35.168" height="13.856"/>
				</defs>
				<clipPath id="SVGID_8_">
					<use xlink:href="#SVGID_7_"  overflow="visible"/>
				</clipPath>
				<path clip-path="url(#SVGID_8_)" fill="#F9A25E" d="M87.296,106.024c2.4,0,3.952-2.128,3.952-5.936s-1.536-5.92-3.984-5.92
					c-2.384,0-3.951,2.144-3.951,5.92S84.88,106.024,87.296,106.024 M87.28,104.904c-1.584,0-2.561-1.728-2.561-4.832
					c0-3.088,0.977-4.8,2.561-4.8c1.664,0,2.56,1.648,2.56,4.832C89.84,103.272,88.944,104.904,87.28,104.904 M77.937,95.208
					c1.248,0,2.016,0.72,2.016,1.904c0,1.152-0.736,1.856-2.048,1.856c-1.28,0-2-0.72-2-1.856
					C75.904,95.944,76.672,95.208,77.937,95.208 M77.92,104.92c-1.536,0-2.399-0.88-2.399-2.304c0-1.44,0.896-2.352,2.399-2.352
					s2.4,0.896,2.4,2.352C80.32,104.041,79.456,104.92,77.92,104.92 M76.432,99.672c-1.504,0.416-2.352,1.536-2.352,3.04
					c0,1.984,1.424,3.312,3.856,3.312c2.447,0,3.84-1.296,3.84-3.344c0-1.472-0.849-2.576-2.353-3.008
					c1.232-0.368,1.937-1.296,1.937-2.528c0-1.776-1.296-2.976-3.424-2.976c-2.097,0-3.44,1.232-3.44,2.864
					C74.496,98.393,75.152,99.272,76.432,99.672"/>
			</g>
		</g>
		<g clip-path="url(#SVGID_4_)">
			<g>
				<defs>
					<rect id="SVGID_9_" x="65.096" y="53.168" width="35.152" height="14.176"/>
				</defs>
				<clipPath id="SVGID_10_">
					<use xlink:href="#SVGID_9_"  overflow="visible"/>
				</clipPath>
				<path clip-path="url(#SVGID_10_)" fill="#F9A25E" d="M87.296,66.024c2.4,0,3.952-2.128,3.952-5.936s-1.536-5.92-3.984-5.92
					c-2.384,0-3.951,2.144-3.951,5.92S84.88,66.024,87.296,66.024 M87.28,64.904c-1.584,0-2.561-1.728-2.561-4.832
					c0-3.088,0.977-4.8,2.561-4.8c1.664,0,2.56,1.648,2.56,4.832C89.84,63.272,88.944,64.904,87.28,64.904 M80.224,57.8
					c0,1.504-0.943,2.528-2.304,2.528c-1.52,0-2.416-0.976-2.416-2.528c0-1.52,0.944-2.512,2.353-2.512
					C79.296,55.289,80.224,56.249,80.224,57.8 M79.312,60.92l-3.696,4.816l1.184,0.608l2.608-3.68
					c1.264-1.792,2.208-3.104,2.208-4.752c0-2.24-1.408-3.744-3.504-3.744c-2.496,0-4.017,1.472-4.017,3.76
					c0,2.096,1.408,3.536,3.456,3.536C78.192,61.464,78.752,61.289,79.312,60.92"/>
			</g>
		</g>
		<g clip-path="url(#SVGID_4_)">
			<g>
				<defs>
					<rect id="SVGID_11_" x="56.872" y="13.168" width="43.376" height="13.856"/>
				</defs>
				<clipPath id="SVGID_12_">
					<use xlink:href="#SVGID_11_"  overflow="visible"/>
				</clipPath>
				<path clip-path="url(#SVGID_12_)" fill="#F9A25E" d="M87.296,26.024c2.4,0,3.952-2.128,3.952-5.936s-1.536-5.92-3.983-5.92
					c-2.385,0-3.952,2.144-3.952,5.92S84.88,26.024,87.296,26.024 M87.28,24.904c-1.584,0-2.561-1.728-2.561-4.832
					c0-3.088,0.977-4.8,2.561-4.8c1.664,0,2.56,1.648,2.56,4.832C89.84,23.272,88.944,24.904,87.28,24.904 M77.937,26.024
					c2.399,0,3.952-2.128,3.952-5.936s-1.536-5.92-3.984-5.92c-2.384,0-3.952,2.144-3.952,5.92S75.521,26.024,77.937,26.024
					 M77.92,24.904c-1.584,0-2.56-1.728-2.56-4.832c0-3.088,0.976-4.8,2.56-4.8c1.664,0,2.561,1.648,2.561,4.832
					C80.48,23.272,79.584,24.904,77.92,24.904 M68.208,25.72h1.328V14.393H66.64l-0.768,1.184h2.336V25.72z"/>
			</g>
		</g>
		<g clip-path="url(#SVGID_4_)">
			<g>
				<defs>
					<rect id="SVGID_13_" x="64.936" y="213.168" width="35.312" height="13.856"/>
				</defs>
				<clipPath id="SVGID_14_">
					<use xlink:href="#SVGID_13_"  overflow="visible"/>
				</clipPath>
				<path clip-path="url(#SVGID_14_)" fill="#F9A25E" d="M87.296,226.024c2.4,0,3.952-2.128,3.952-5.936s-1.536-5.92-3.984-5.92
					c-2.384,0-3.951,2.144-3.951,5.92S84.88,226.024,87.296,226.024 M87.28,224.904c-1.584,0-2.561-1.728-2.561-4.832
					c0-3.088,0.977-4.8,2.561-4.8c1.664,0,2.56,1.648,2.56,4.832C89.84,223.272,88.944,224.904,87.28,224.904 M74.864,220.008
					c0.704-0.544,1.536-0.816,2.432-0.816c1.76,0,2.849,1.12,2.849,2.752c0,1.776-1.104,2.896-2.736,2.896
					c-1.12,0-2-0.56-2.512-1.616l-0.96,1.12c0.783,1.152,1.888,1.68,3.439,1.68c2.624,0,4.208-1.632,4.208-4.208
					c0-2.288-1.392-3.728-3.632-3.728c-0.64,0-1.232,0.128-1.776,0.416l0.721-2.944h4.096v-1.168h-5.024l-1.359,5.568
					L74.864,220.008z"/>
			</g>
		</g>
		<g clip-path="url(#SVGID_4_)">
			<g>
				<defs>
					<rect id="SVGID_15_" x="65.128" y="172.832" width="35.12" height="14.192"/>
				</defs>
				<clipPath id="SVGID_16_">
					<use xlink:href="#SVGID_15_"  overflow="visible"/>
				</clipPath>
				<path clip-path="url(#SVGID_16_)" fill="#F9A25E" d="M87.296,186.024c2.4,0,3.952-2.128,3.952-5.936s-1.536-5.92-3.984-5.92
					c-2.384,0-3.951,2.144-3.951,5.92S84.88,186.024,87.296,186.024 M87.28,184.904c-1.584,0-2.561-1.728-2.561-4.832
					c0-3.088,0.977-4.8,2.561-4.8c1.664,0,2.56,1.648,2.56,4.832C89.84,183.272,88.944,184.904,87.28,184.904 M75.536,182.393
					c0-1.504,0.928-2.544,2.288-2.544c1.52,0,2.432,0.976,2.432,2.528c0,1.52-0.943,2.512-2.352,2.512
					C76.464,184.888,75.536,183.944,75.536,182.393 M76.448,179.256l3.696-4.8l-1.185-0.624l-2.607,3.68
					c-1.265,1.792-2.225,3.12-2.225,4.768c0,2.24,1.408,3.744,3.504,3.744c2.496,0,4.032-1.488,4.032-3.776
					c0-2.096-1.408-3.536-3.456-3.536C77.568,178.712,77.008,178.888,76.448,179.256"/>
			</g>
		</g>
		<g clip-path="url(#SVGID_4_)">
			<g>
				<defs>
					<rect id="SVGID_17_" x="65.08" y="293.168" width="35.168" height="13.855"/>
				</defs>
				<clipPath id="SVGID_18_">
					<use xlink:href="#SVGID_17_"  overflow="visible"/>
				</clipPath>
				<path clip-path="url(#SVGID_18_)" fill="#F9A25E" d="M87.296,306.024c2.4,0,3.952-2.128,3.952-5.937
					c0-3.808-1.536-5.92-3.984-5.92c-2.384,0-3.951,2.145-3.951,5.92C83.312,303.864,84.88,306.024,87.296,306.024 M87.28,304.904
					c-1.584,0-2.561-1.729-2.561-4.832c0-3.088,0.977-4.8,2.561-4.8c1.664,0,2.56,1.647,2.56,4.832
					C89.84,303.272,88.944,304.904,87.28,304.904 M74.08,302.824v0.208c0,1.808,1.344,2.992,3.472,2.992
					c2.433,0,3.841-1.28,3.841-3.328c0-1.552-0.816-2.592-2.177-2.815c1.28-0.336,2.032-1.312,2.032-2.672
					c0-1.856-1.296-3.041-3.424-3.041c-2.208,0-3.44,1.104-3.536,3.057h1.344c0.064-1.232,0.832-1.904,2.16-1.904
					c1.264,0,2.032,0.768,2.032,1.952c0,1.344-0.8,2.048-2.384,2.048c-0.128,0-0.24-0.016-0.368-0.016v1.119
					c0.144-0.016,0.271-0.016,0.399-0.016c1.648,0,2.496,0.768,2.496,2.24c0,1.393-0.848,2.208-2.368,2.208
					c-1.312,0-2.128-0.736-2.128-1.904v-0.128H74.08z"/>
			</g>
		</g>
		<g clip-path="url(#SVGID_4_)">
			<g>
				<defs>
					<rect id="SVGID_19_" x="64.552" y="253.168" width="35.696" height="13.856"/>
				</defs>
				<clipPath id="SVGID_20_">
					<use xlink:href="#SVGID_19_"  overflow="visible"/>
				</clipPath>
				<path clip-path="url(#SVGID_20_)" fill="#F9A25E" d="M87.296,266.024c2.4,0,3.952-2.128,3.952-5.936s-1.536-5.92-3.984-5.92
					c-2.384,0-3.951,2.144-3.951,5.92S84.88,266.024,87.296,266.024 M87.28,264.904c-1.584,0-2.561-1.728-2.561-4.832
					c0-3.088,0.977-4.8,2.561-4.8c1.664,0,2.56,1.648,2.56,4.832C89.84,263.272,88.944,264.904,87.28,264.904 M78.912,265.72h1.344
					v-2.464H81.6v-1.104h-1.344v-7.984H79.68l-6.128,9.088h5.36V265.72z M78.912,262.152h-3.344l3.344-5.024V262.152z"/>
			</g>
		</g>
		<g clip-path="url(#SVGID_4_)">
			<g>
				<defs>
					<rect id="SVGID_21_" x="66.232" y="373.168" width="34.016" height="13.855"/>
				</defs>
				<clipPath id="SVGID_22_">
					<use xlink:href="#SVGID_21_"  overflow="visible"/>
				</clipPath>
				<path clip-path="url(#SVGID_22_)" fill="#F9A25E" d="M87.296,386.024c2.4,0,3.952-2.128,3.952-5.937
					c0-3.808-1.536-5.92-3.984-5.92c-2.384,0-3.951,2.145-3.951,5.92C83.312,383.864,84.88,386.024,87.296,386.024 M87.28,384.904
					c-1.584,0-2.561-1.729-2.561-4.832c0-3.088,0.977-4.8,2.561-4.8c1.664,0,2.56,1.647,2.56,4.832
					C89.84,383.272,88.944,384.904,87.28,384.904 M77.568,385.721h1.328v-11.328H76l-0.768,1.184h2.336V385.721z"/>
			</g>
		</g>
		<g clip-path="url(#SVGID_4_)">
			<g>
				<defs>
					<rect id="SVGID_23_" x="65.096" y="333.168" width="35.152" height="13.855"/>
				</defs>
				<clipPath id="SVGID_24_">
					<use xlink:href="#SVGID_23_"  overflow="visible"/>
				</clipPath>
				<path clip-path="url(#SVGID_24_)" fill="#F9A25E" d="M87.296,346.024c2.4,0,3.952-2.128,3.952-5.937
					c0-3.808-1.536-5.92-3.984-5.92c-2.384,0-3.951,2.145-3.951,5.92C83.312,343.864,84.88,346.024,87.296,346.024 M87.28,344.904
					c-1.584,0-2.561-1.729-2.561-4.832c0-3.088,0.977-4.8,2.561-4.8c1.664,0,2.56,1.647,2.56,4.832
					C89.84,343.272,88.944,344.904,87.28,344.904 M80.992,344.424h-4.336l1.792-1.936c1.84-2,2.896-3.504,2.896-5.152
					c0-1.968-1.312-3.168-3.552-3.168c-2.256,0-3.584,1.264-3.584,3.424c0,0.097,0.016,0.209,0.016,0.305h1.28v-0.128
					c0-1.521,0.8-2.353,2.24-2.353c1.376,0,2.256,0.848,2.256,2c0,1.488-1.424,3.008-3.488,5.44l-2.416,2.864h6.896V344.424z"/>
			</g>
		</g>
	</g>
	<polyline clip-path="url(#SVGID_2_)" fill="none" stroke="#808285" stroke-width="2" points="114.454,419.5 120,376 129,351 
		141,350.661 171,332 213,326 228,315 241.902,291.748 258,301.748 284.723,296 299,304 313,304 371.121,301.748 457.121,296 
		543.121,294 629.121,311.748 715.121,295 801.121,301.748 	"/>
	
		<line clip-path="url(#SVGID_2_)" fill="none" stroke="#808285" stroke-width="2" stroke-dasharray="10.299,5.299" x1="116.646" y1="409.285" x2="119.364" y2="396.625"/>
	
		<line clip-path="url(#SVGID_2_)" fill="none" stroke="#808285" stroke-width="2" stroke-dasharray="10.01,5.01" x1="151.351" y1="370.199" x2="193.609" y2="331.1"/>
	
		<line clip-path="url(#SVGID_2_)" fill="none" stroke="#808285" stroke-width="2" stroke-dasharray="9.65,4.65" x1="233.632" y1="310.381" x2="240.75" y2="300.75"/>
	
		<line clip-path="url(#SVGID_2_)" fill="none" stroke="#808285" stroke-width="2" stroke-dasharray="9.294,4.294" x1="266.923" y1="301.173" x2="278.341" y2="300.438"/>
	
		<line clip-path="url(#SVGID_2_)" fill="none" stroke="#808285" stroke-width="2" stroke-dasharray="9.904,4.904" x1="290.406" y1="291.681" x2="297.031" y2="281.25"/>
	
		<line clip-path="url(#SVGID_2_)" fill="none" stroke="#808285" stroke-width="2" stroke-dasharray="9.515,4.515" x1="324.272" y1="290.361" x2="364.106" y2="290.361"/>
	
		<line clip-path="url(#SVGID_2_)" fill="none" stroke="#808285" stroke-width="2" stroke-dasharray="9.784,4.784" x1="380.642" y1="292.093" x2="449.955" y2="304.697"/>
	
		<line clip-path="url(#SVGID_2_)" fill="none" stroke="#808285" stroke-width="2" stroke-dasharray="9.736,4.736" x1="466.634" y1="304.673" x2="535.954" y2="295"/>
	
		<line clip-path="url(#SVGID_2_)" fill="none" stroke="#808285" stroke-width="2" stroke-dasharray="9.674,4.674" x1="552.623" y1="294.442" x2="621.955" y2="297.667"/>
	
		<line clip-path="url(#SVGID_2_)" fill="none" stroke="#808285" stroke-width="2" stroke-dasharray="9.72,4.72" x1="638.387" y1="300.433" x2="705.934" y2="318.167"/>
	
		<line clip-path="url(#SVGID_2_)" fill="none" stroke="#808285" stroke-width="2" stroke-dasharray="9.89,4.89" x1="722.722" y1="319.224" x2="793.956" y2="313.584"/>
	<path clip-path="url(#SVGID_2_)" fill="none" stroke="#808285" stroke-width="2" d="M796.395,313.391l4.93-0.391 M708.217,318.766
		l4.699,1.234l4.931-0.39 M624.289,297.775l4.832,0.225l4.701,1.234 M538.301,294.674l4.82-0.674l4.832,0.225 M452.309,305.125
		l4.812,0.875l4.821-0.673 M366.363,290.361h4.758l4.813,0.876 M310.658,285.598l4.342,4.764h4.758 M298.346,279.18L301,275
		l4.343,4.763 M280.483,300.299l4.638-0.299l2.655-4.18 M253.641,299.485l4.359,2.263l4.638-0.299 M242.133,298.881l2.868-3.881
		l4.358,2.264 M223.448,320.926L228,318l2.868-3.88 M209.033,326.666L214,327l4.552-2.926 M195.447,329.399l3.674-3.399l4.968,0.334
		 M139.504,377.346L144,377l3.674-3.398 M127.659,381.676L131,378l4.496-0.346 M119.92,394.035L121,389l3.341-3.675 M114.454,419.5
		l1.08-5.035"/>
	<polyline clip-path="url(#SVGID_2_)" fill="none" stroke="#F9A25E" stroke-width="2" points="114.454,419.5 119,332 128,302 
		144,276 169,255 201,247 214,226 228,207 241.902,225 258,226 285.121,212 298,225 316,207 371.121,210.05 456,208 541.639,192 
		629.121,207 715.121,200 801.121,225 	"/>
	
		<line clip-path="url(#SVGID_2_)" fill="none" stroke="#F9A25E" stroke-width="1.5" stroke-dasharray="9.578,4.578" x1="115.396" y1="410.182" x2="122.288" y2="342.043"/>
	
		<line clip-path="url(#SVGID_2_)" fill="none" stroke="#F9A25E" stroke-width="1.5" stroke-dasharray="9.231,4.231" x1="125.3" y1="326.457" x2="128.25" y2="315.5"/>
	
		<line clip-path="url(#SVGID_2_)" fill="none" stroke="#F9A25E" stroke-width="1.5" stroke-dasharray="11.462,6.462" x1="134.762" y1="297.775" x2="140.5" y2="284.25"/>
	
		<line clip-path="url(#SVGID_2_)" fill="none" stroke="#F9A25E" stroke-width="1.5" stroke-dasharray="10.822,5.822" x1="153.448" y1="269.926" x2="164.999" y2="262.5"/>
	
		<line clip-path="url(#SVGID_2_)" fill="none" stroke="#F9A25E" stroke-width="1.5" stroke-dasharray="9.58,4.58" x1="178.948" y1="251.714" x2="208.75" y2="224.75"/>
	
		<line clip-path="url(#SVGID_2_)" fill="none" stroke="#F9A25E" stroke-width="1.5" stroke-dasharray="9.569,4.569" x1="266.972" y1="222.354" x2="278.341" y2="219"/>
	
		<line clip-path="url(#SVGID_2_)" fill="none" stroke="#F9A25E" stroke-width="1.5" stroke-dasharray="8.148,3.148" x1="289.878" y1="211.566" x2="296.28" y2="204.25"/>
	
		<line clip-path="url(#SVGID_2_)" fill="none" stroke="#F9A25E" stroke-width="1.5" stroke-dasharray="9.873,4.873" x1="325.167" y1="203.508" x2="364.231" y2="188.625"/>
	
		<line clip-path="url(#SVGID_2_)" fill="none" stroke="#F9A25E" stroke-width="1.5" stroke-dasharray="9.801,4.801" x1="380.68" y1="184.339" x2="450.247" y2="172.25"/>
	
		<line clip-path="url(#SVGID_2_)" fill="none" stroke="#F9A25E" stroke-width="1.5" stroke-dasharray="9.557,4.557" x1="466.722" y1="171.993" x2="534.622" y2="179.25"/>
	
		<line clip-path="url(#SVGID_2_)" fill="none" stroke="#F9A25E" stroke-width="1.5" stroke-dasharray="10.13,5.13" x1="551.38" y1="183.006" x2="621.831" y2="204.75"/>
	
		<line clip-path="url(#SVGID_2_)" fill="none" stroke="#F9A25E" stroke-width="1.5" stroke-dasharray="9.748,4.748" x1="638.636" y1="205.562" x2="707.955" y2="195.083"/>
	
		<line clip-path="url(#SVGID_2_)" fill="none" stroke="#F9A25E" stroke-width="1.5" stroke-dasharray="9.891,4.891" x1="724.679" y1="196.329" x2="794.112" y2="213.25"/>
	<path clip-path="url(#SVGID_2_)" fill="none" stroke="#F9A25E" stroke-width="1.5" d="M796.488,213.829l4.805,1.171
		 M710.303,194.729l4.818-0.729l4.806,1.171 M624.282,205.506l4.839,1.494l4.819-0.729 M536.888,179.492l4.751,0.508l4.84,1.494
		 M452.611,171.839l4.828-0.839l4.752,0.508 M366.509,187.758l4.612-1.758l4.828-0.839 M310.854,204.749L316,207l4.613-1.758
		 M297.316,203.066L300,200l5.146,2.251 M280.532,218.354l4.589-1.354l2.684-3.066 M253.06,220.412L258,225l4.59-1.354
		 M237.92,215.282l3.982-5.232l4.941,4.588 M224.117,224.721L229,227l3.982-5.232 M210.448,223.214L214,220l4.883,2.279
		 M167.448,260.926L172,258l3.552-3.214 M141.762,281.276L144,276l4.552-2.926 M128.801,313.457L130,309l2.238-5.275
		 M122.519,339.764L123,335l1.2-4.457 M114.454,419.5l0.482-4.764"/>
	<polyline clip-path="url(#SVGID_2_)" fill="none" stroke="#006227" stroke-width="2" points="114.454,419.5 121,257 128,232 
		145,198 172,187 201,190.984 215,180 229,160 241.902,168 258,160 284.723,154 300,152.826 316,151.767 371.121,134 457.439,136 
		541.639,141 629.121,170.243 715.121,158 801.121,173 	"/>
	
		<line clip-path="url(#SVGID_2_)" fill="none" stroke="#006227" stroke-width="2" stroke-dasharray="9.892,4.892" x1="114.851" y1="409.67" x2="120.702" y2="264.387"/>
	
		<line clip-path="url(#SVGID_2_)" fill="none" stroke="#006227" stroke-width="2" stroke-dasharray="8.99,3.99" x1="123.288" y1="248.829" x2="126.25" y2="238.25"/>
	
		<line clip-path="url(#SVGID_2_)" fill="none" stroke="#006227" stroke-width="2" stroke-dasharray="8.836,3.836" x1="131.691" y1="224.618" x2="142.167" y2="203.667"/>
	
		<line clip-path="url(#SVGID_2_)" fill="none" stroke="#006227" stroke-width="2" stroke-dasharray="9.352,4.352" x1="150.929" y1="191.193" x2="167.5" y2="172.167"/>
	
		<line clip-path="url(#SVGID_2_)" fill="none" stroke="#006227" stroke-width="2" stroke-dasharray="9.795,4.795" x1="181.633" y1="168.077" x2="193.75" y2="169.433"/>
	
		<line clip-path="url(#SVGID_2_)" fill="none" stroke="#006227" stroke-width="2" stroke-dasharray="9.633,4.633" x1="266.85" y1="143.312" x2="278.042" y2="147.5"/>
	
		<line clip-path="url(#SVGID_2_)" fill="none" stroke="#006227" stroke-width="2" stroke-dasharray="8.521,3.521" x1="305.17" y1="144.816" x2="312" y2="152.5"/>
	
		<line clip-path="url(#SVGID_2_)" fill="none" stroke="#006227" stroke-width="2" stroke-dasharray="9.748,4.748" x1="325.147" y1="154.013" x2="364.231" y2="141.25"/>
	
		<line clip-path="url(#SVGID_2_)" fill="none" stroke="#006227" stroke-width="2" stroke-dasharray="9.732,4.732" x1="380.668" y1="138.005" x2="450.247" y2="130.75"/>
	
		<line clip-path="url(#SVGID_2_)" fill="none" stroke="#006227" stroke-width="2" stroke-dasharray="9.541,4.541" x1="466.719" y1="130.772" x2="534.622" y2="136.417"/>
	
		<line clip-path="url(#SVGID_2_)" fill="none" stroke="#006227" stroke-width="2" stroke-dasharray="9.978,4.978" x1="551.355" y1="139.222" x2="621.832" y2="155.333"/>
	
		<line clip-path="url(#SVGID_2_)" fill="none" stroke="#006227" stroke-width="2" stroke-dasharray="9.667,4.667" x1="638.621" y1="156.89" x2="707.954" y2="156.084"/>
	
		<line clip-path="url(#SVGID_2_)" fill="none" stroke="#006227" stroke-width="2" stroke-dasharray="9.736,4.736" x1="724.634" y1="157.327" x2="793.954" y2="167"/>
	<path clip-path="url(#SVGID_2_)" fill="none" stroke="#006227" stroke-width="2" d="M796.301,167.327l4.82,0.673 M710.288,156.056
		l4.833-0.056l4.821,0.673 M624.258,155.888l4.863,1.112l4.833-0.056 M536.885,136.605l4.754,0.395l4.864,1.112 M452.601,130.505
		l4.839-0.505l4.754,0.395 M366.488,140.513l4.633-1.513l4.841-0.505 M313.17,153.816L316,157l4.634-1.513 M295.166,142.48L300,139
		l2.83,3.184 M280.212,148.312l4.511,1.688l4.834-3.48 M252.782,141.621L258,140l4.512,1.688 M237.726,148.562l4.177-3.561
		l5.218-1.621 M224.25,156H229l4.177-3.561 M210.623,160.452L215,156h4.75 M196.133,169.699l4.867,0.544l4.377-4.452
		 M168.93,170.526L172,167l4.867,0.544 M143.024,201.951L145,198l3.071-3.526 M126.787,236.329L128,232l1.976-3.951
		 M120.801,261.942L121,257l1.213-4.329 M114.454,419.5l0.199-4.941"/>
	<line clip-path="url(#SVGID_2_)" fill="none" stroke="#F9A25E" stroke-width="3" x1="0" y1="420" x2="912" y2="420"/>
	<g clip-path="url(#SVGID_2_)">
		<defs>
			<rect id="SVGID_25_" x="-9" y="-1" width="930" height="570.252"/>
		</defs>
		<clipPath id="SVGID_26_">
			<use xlink:href="#SVGID_25_"  overflow="visible"/>
		</clipPath>
		<g clip-path="url(#SVGID_26_)">
			<g>
				<defs>
					<rect id="SVGID_27_" x="781.052" y="443.111" width="34.929" height="14.513"/>
				</defs>
				<clipPath id="SVGID_28_">
					<use xlink:href="#SVGID_27_"  overflow="visible"/>
				</clipPath>
				<path clip-path="url(#SVGID_28_)" fill="#F9A25E" d="M800.852,452.672c0-1.504,0.928-2.543,2.288-2.543
					c1.52,0,2.432,0.976,2.432,2.527c0,1.52-0.943,2.512-2.352,2.512C801.779,455.168,800.852,454.225,800.852,452.672
					 M801.764,449.536l3.696-4.8l-1.185-0.624l-2.607,3.681c-1.265,1.791-2.225,3.119-2.225,4.768c0,2.24,1.408,3.744,3.504,3.744
					c2.496,0,4.032-1.488,4.032-3.776c0-2.097-1.408-3.536-3.456-3.536C802.884,448.992,802.323,449.168,801.764,449.536
					 M796.18,448.08c0,1.504-0.944,2.528-2.304,2.528c-1.521,0-2.416-0.976-2.416-2.528c0-1.52,0.943-2.512,2.352-2.512
					C795.252,445.568,796.18,446.528,796.18,448.08 M795.268,451.2l-3.696,4.816l1.185,0.608l2.607-3.681
					c1.265-1.792,2.208-3.104,2.208-4.752c0-2.24-1.407-3.744-3.504-3.744c-2.496,0-4.016,1.472-4.016,3.761
					c0,2.096,1.408,3.535,3.456,3.535C794.147,451.744,794.707,451.568,795.268,451.2"/>
			</g>
		</g>
		<g clip-path="url(#SVGID_26_)">
			<g>
				<defs>
					<rect id="SVGID_29_" x="695.396" y="443.447" width="34.881" height="13.856"/>
				</defs>
				<clipPath id="SVGID_30_">
					<use xlink:href="#SVGID_29_"  overflow="visible"/>
				</clipPath>
				<path clip-path="url(#SVGID_30_)" fill="#F9A25E" d="M718.589,456h1.344v-2.464h1.344v-1.104h-1.344v-7.983h-0.576l-6.128,9.088
					h5.36V456z M718.589,452.432h-3.344l3.344-5.023V452.432z M708.253,445.488c1.248,0,2.016,0.721,2.016,1.904
					c0,1.152-0.735,1.855-2.048,1.855c-1.28,0-2-0.72-2-1.855C706.221,446.225,706.988,445.488,708.253,445.488 M708.236,455.2
					c-1.535,0-2.399-0.88-2.399-2.304c0-1.439,0.896-2.352,2.399-2.352s2.4,0.896,2.4,2.352
					C710.637,454.32,709.772,455.2,708.236,455.2 M706.749,449.952c-1.504,0.416-2.353,1.536-2.353,3.04
					c0,1.984,1.424,3.312,3.856,3.312c2.448,0,3.84-1.297,3.84-3.344c0-1.473-0.848-2.576-2.353-3.009
					c1.232-0.368,1.937-1.296,1.937-2.528c0-1.775-1.296-2.976-3.424-2.976c-2.097,0-3.44,1.231-3.44,2.864
					C704.812,448.672,705.469,449.553,706.749,449.952"/>
			</g>
		</g>
		<g clip-path="url(#SVGID_26_)">
			<g>
				<defs>
					<rect id="SVGID_31_" x="610.27" y="443.447" width="34.112" height="13.984"/>
				</defs>
				<clipPath id="SVGID_32_">
					<use xlink:href="#SVGID_31_"  overflow="visible"/>
				</clipPath>
				<path clip-path="url(#SVGID_32_)" fill="#F9A25E" d="M635.03,454.705h-4.336l1.792-1.937c1.84-2,2.896-3.505,2.896-5.152
					c0-1.968-1.312-3.168-3.552-3.168c-2.256,0-3.584,1.265-3.584,3.425c0,0.096,0.016,0.207,0.016,0.303h1.28v-0.127
					c0-1.521,0.8-2.353,2.24-2.353c1.376,0,2.256,0.849,2.256,2c0,1.488-1.424,3.009-3.488,5.44L628.134,456h6.896V454.705z
					 M619.686,455.856l1.12,0.575l5.712-11.76h-7.248v1.185h5.296L619.686,455.856z"/>
			</g>
		</g>
		<g clip-path="url(#SVGID_26_)">
			<g>
				<defs>
					<rect id="SVGID_33_" x="524.167" y="443.111" width="35.12" height="14.192"/>
				</defs>
				<clipPath id="SVGID_34_">
					<use xlink:href="#SVGID_33_"  overflow="visible"/>
				</clipPath>
				<path clip-path="url(#SVGID_34_)" fill="#F9A25E" d="M546.335,456.305c2.399,0,3.952-2.129,3.952-5.937s-1.536-5.92-3.984-5.92
					c-2.384,0-3.952,2.144-3.952,5.92S543.919,456.305,546.335,456.305 M546.318,455.185c-1.584,0-2.56-1.728-2.56-4.832
					c0-3.089,0.976-4.8,2.56-4.8c1.664,0,2.561,1.647,2.561,4.832C548.879,453.553,547.982,455.185,546.318,455.185
					 M534.575,452.672c0-1.504,0.928-2.543,2.288-2.543c1.52,0,2.432,0.976,2.432,2.527c0,1.52-0.944,2.512-2.352,2.512
					C535.503,455.168,534.575,454.225,534.575,452.672 M535.487,449.536l3.695-4.8l-1.184-0.624l-2.608,3.681
					c-1.264,1.791-2.224,3.119-2.224,4.768c0,2.24,1.408,3.744,3.504,3.744c2.496,0,4.032-1.488,4.032-3.776
					c0-2.097-1.408-3.536-3.456-3.536C536.606,448.992,536.047,449.168,535.487,449.536"/>
			</g>
		</g>
		<g clip-path="url(#SVGID_26_)">
			<g>
				<defs>
					<rect id="SVGID_35_" x="437.952" y="443.447" width="35.584" height="13.856"/>
				</defs>
				<clipPath id="SVGID_36_">
					<use xlink:href="#SVGID_35_"  overflow="visible"/>
				</clipPath>
				<path clip-path="url(#SVGID_36_)" fill="#F9A25E" d="M460.696,445.488c1.248,0,2.016,0.721,2.016,1.904
					c0,1.152-0.735,1.855-2.048,1.855c-1.28,0-2-0.72-2-1.855C458.664,446.225,459.432,445.488,460.696,445.488 M460.68,455.2
					c-1.535,0-2.399-0.88-2.399-2.304c0-1.439,0.896-2.352,2.399-2.352s2.4,0.896,2.4,2.352
					C463.08,454.32,462.216,455.2,460.68,455.2 M459.192,449.952c-1.504,0.416-2.353,1.536-2.353,3.04
					c0,1.984,1.424,3.312,3.856,3.312c2.448,0,3.84-1.297,3.84-3.344c0-1.473-0.848-2.576-2.353-3.009
					c1.232-0.368,1.937-1.296,1.937-2.528c0-1.775-1.296-2.976-3.424-2.976c-2.097,0-3.44,1.231-3.44,2.864
					C457.256,448.672,457.912,449.553,459.192,449.952 M452.312,456h1.344v-2.464H455v-1.104h-1.344v-7.983h-0.576l-6.128,9.088
					h5.36V456z M452.312,452.432h-3.345l3.345-5.023V452.432z"/>
			</g>
		</g>
		<g clip-path="url(#SVGID_26_)">
			<g>
				<defs>
					<rect id="SVGID_37_" x="352.841" y="443.111" width="34.944" height="14.192"/>
				</defs>
				<clipPath id="SVGID_38_">
					<use xlink:href="#SVGID_37_"  overflow="visible"/>
				</clipPath>
				<path clip-path="url(#SVGID_38_)" fill="#F9A25E" d="M372.657,452.672c0-1.504,0.928-2.543,2.288-2.543
					c1.52,0,2.432,0.976,2.432,2.527c0,1.52-0.943,2.512-2.352,2.512C373.585,455.168,372.657,454.225,372.657,452.672
					 M373.569,449.536l3.696-4.8l-1.185-0.624l-2.607,3.681c-1.265,1.791-2.225,3.119-2.225,4.768c0,2.24,1.408,3.744,3.504,3.744
					c2.496,0,4.032-1.488,4.032-3.776c0-2.097-1.408-3.536-3.456-3.536C374.689,448.992,374.129,449.168,373.569,449.536
					 M361.841,453.104v0.208c0,1.808,1.345,2.992,3.473,2.992c2.432,0,3.84-1.28,3.84-3.328c0-1.553-0.816-2.592-2.176-2.816
					c1.279-0.336,2.031-1.312,2.031-2.672c0-1.855-1.296-3.04-3.424-3.04c-2.208,0-3.439,1.104-3.536,3.056h1.345
					c0.063-1.231,0.832-1.903,2.159-1.903c1.265,0,2.032,0.768,2.032,1.952c0,1.344-0.8,2.048-2.384,2.048
					c-0.128,0-0.24-0.017-0.368-0.017v1.121c0.145-0.017,0.272-0.017,0.4-0.017c1.647,0,2.496,0.769,2.496,2.239
					c0,1.393-0.849,2.209-2.368,2.209c-1.312,0-2.128-0.736-2.128-1.904v-0.128H361.841z"/>
			</g>
		</g>
		<g clip-path="url(#SVGID_26_)">
			<g>
				<defs>
					<rect id="SVGID_39_" x="267.218" y="443.447" width="34.864" height="13.553"/>
				</defs>
				<clipPath id="SVGID_40_">
					<use xlink:href="#SVGID_39_"  overflow="visible"/>
				</clipPath>
				<path clip-path="url(#SVGID_40_)" fill="#F9A25E" d="M290.395,456h1.344v-2.464h1.344v-1.104h-1.344v-7.983h-0.576l-6.128,9.088
					h5.36V456z M290.395,452.432h-3.345l3.345-5.023V452.432z M283.114,454.705h-4.336l1.792-1.937c1.84-2,2.896-3.505,2.896-5.152
					c0-1.968-1.312-3.168-3.552-3.168c-2.256,0-3.584,1.265-3.584,3.425c0,0.096,0.017,0.207,0.017,0.303h1.279v-0.127
					c0-1.521,0.8-2.353,2.24-2.353c1.376,0,2.256,0.849,2.256,2c0,1.488-1.424,3.009-3.487,5.44L276.219,456h6.896V454.705z"/>
			</g>
		</g>
		<g clip-path="url(#SVGID_26_)">
			<g>
				<defs>
					<rect id="SVGID_41_" x="182.715" y="443.447" width="33.472" height="13.553"/>
				</defs>
				<clipPath id="SVGID_42_">
					<use xlink:href="#SVGID_41_"  overflow="visible"/>
				</clipPath>
				<path clip-path="url(#SVGID_42_)" fill="#F9A25E" d="M206.835,454.705h-4.336l1.792-1.937c1.841-2,2.896-3.505,2.896-5.152
					c0-1.968-1.312-3.168-3.552-3.168c-2.257,0-3.584,1.265-3.584,3.425c0,0.096,0.016,0.207,0.016,0.303h1.28v-0.127
					c0-1.521,0.8-2.353,2.24-2.353c1.376,0,2.256,0.849,2.256,2c0,1.488-1.425,3.009-3.488,5.44L199.939,456h6.896V454.705z
					 M194.052,456h1.327v-11.328h-2.896l-0.768,1.185h2.336V456z"/>
			</g>
		</g>
		<g clip-path="url(#SVGID_26_)">
			<g>
				<defs>
					<rect id="SVGID_43_" x="100.476" y="443.447" width="25.937" height="13.856"/>
				</defs>
				<clipPath id="SVGID_44_">
					<use xlink:href="#SVGID_43_"  overflow="visible"/>
				</clipPath>
				<path clip-path="url(#SVGID_44_)" fill="#F9A25E" d="M113.461,456.305c2.399,0,3.951-2.129,3.951-5.937s-1.535-5.92-3.983-5.92
					c-2.384,0-3.952,2.144-3.952,5.92S111.045,456.305,113.461,456.305 M113.444,455.185c-1.584,0-2.56-1.728-2.56-4.832
					c0-3.089,0.976-4.8,2.56-4.8c1.664,0,2.561,1.647,2.561,4.832C116.005,453.553,115.108,455.185,113.444,455.185"/>
			</g>
		</g>
		<path clip-path="url(#SVGID_26_)" fill="#F9A25E" d="M472.552,506.801c0.561,1.008,1.488,1.504,2.816,1.504
			c1.584,0,2.608-0.944,2.608-2.272c0-1.168-0.688-1.68-2.08-2.128c-1.185-0.384-1.84-0.479-1.84-1.232
			c0-0.623,0.495-1.071,1.216-1.071c0.752,0,1.344,0.368,1.632,1.023l0.992-0.607c-0.385-0.912-1.312-1.424-2.544-1.424
			c-1.521,0-2.528,0.911-2.528,2.159c0,1.408,1.056,1.713,2.816,2.32c0.752,0.256,1.119,0.544,1.119,1.088
			c0,0.624-0.527,1.072-1.344,1.072c-0.815,0-1.424-0.368-1.824-1.136L472.552,506.801z M465.512,508h1.217l0.016-3.775l3.68,3.775
			h1.712l-3.888-3.872l3.568-3.279h-1.632l-3.44,3.248l-0.016-8.208h-1.217V508z M462.424,503.616h-4.352
			c0.128-1.216,1.008-1.968,2.176-1.968C461.544,501.648,462.344,502.353,462.424,503.616 M463.736,504.608v-0.24
			c0-2.368-1.344-3.792-3.44-3.792c-2.08,0-3.567,1.568-3.567,3.824c0,2.336,1.472,3.904,3.647,3.904
			c1.473,0,2.592-0.656,3.312-1.952l-0.929-0.624c-0.592,1.04-1.359,1.552-2.319,1.552c-1.376,0-2.368-1.008-2.368-2.56v-0.112
			H463.736z M454.28,503.616h-4.353c0.129-1.216,1.009-1.968,2.177-1.968C453.4,501.648,454.2,502.353,454.28,503.616
			 M455.592,504.608v-0.24c0-2.368-1.344-3.792-3.439-3.792c-2.08,0-3.568,1.568-3.568,3.824c0,2.336,1.473,3.904,3.648,3.904
			c1.472,0,2.592-0.656,3.312-1.952l-0.928-0.624c-0.592,1.04-1.36,1.552-2.32,1.552c-1.376,0-2.368-1.008-2.368-2.56v-0.112
			H455.592z M433.32,496.561l4.432,11.888l2.977-8.848l2.991,8.848l4.433-11.888h-1.473l-2.911,8.416l-3.057-8.864l-3.023,8.864
			l-2.896-8.416H433.32z"/>
		<path clip-path="url(#SVGID_26_)" fill="#006227" d="M870.224,176.268c2.4,0,3.952-2.128,3.952-5.936s-1.536-5.92-3.983-5.92
			c-2.385,0-3.952,2.144-3.952,5.92S867.808,176.268,870.224,176.268 M870.208,175.147c-1.584,0-2.56-1.728-2.56-4.832
			c0-3.088,0.976-4.8,2.56-4.8c1.664,0,2.56,1.648,2.56,4.832C872.768,173.516,871.872,175.147,870.208,175.147 M863.92,174.667
			h-4.336l1.792-1.936c1.84-2,2.896-3.504,2.896-5.152c0-1.968-1.312-3.168-3.552-3.168c-2.256,0-3.584,1.264-3.584,3.424
			c0,0.096,0.017,0.208,0.017,0.304h1.279v-0.128c0-1.52,0.801-2.352,2.24-2.352c1.376,0,2.256,0.848,2.256,2
			c0,1.488-1.424,3.008-3.487,5.44l-2.416,2.864h6.896V174.667z M853.52,169.611l-1.632-0.72c-1.04-0.464-1.536-1.024-1.536-1.84
			c0-0.976,0.721-1.664,1.744-1.664c0.816,0,1.44,0.448,1.937,1.312l1.12-0.72c-0.561-1.136-1.584-1.728-2.96-1.728
			c-1.904,0-3.217,1.216-3.217,2.816c0,1.392,0.736,2.384,2.257,3.024l1.392,0.592c1.184,0.512,1.776,1.264,1.776,2.288
			c0,1.248-0.912,2.128-2.288,2.128c-1.152,0-1.937-0.72-2.272-2.112l-1.231,0.608c0.432,1.696,1.695,2.656,3.504,2.656
			c2.208,0,3.664-1.408,3.664-3.504C855.776,171.308,855.008,170.268,853.52,169.611 M843.056,167.083l1.824,4.208h-3.647
			L843.056,167.083z M843.056,164.075l-5.184,11.888h1.472l1.488-3.504h4.464l1.488,3.504h1.472L843.056,164.075z M835.456,169.611
			l-1.632-0.72c-1.04-0.464-1.536-1.024-1.536-1.84c0-0.976,0.72-1.664,1.744-1.664c0.815,0,1.439,0.448,1.936,1.312l1.12-0.72
			c-0.56-1.136-1.584-1.728-2.96-1.728c-1.904,0-3.216,1.216-3.216,2.816c0,1.392,0.736,2.384,2.256,3.024l1.392,0.592
			c1.185,0.512,1.776,1.264,1.776,2.288c0,1.248-0.912,2.128-2.288,2.128c-1.151,0-1.936-0.72-2.271-2.112l-1.232,0.608
			c0.432,1.696,1.696,2.656,3.504,2.656c2.208,0,3.664-1.408,3.664-3.504C837.712,171.308,836.944,170.268,835.456,169.611
			 M824.992,167.083l1.824,4.208h-3.648L824.992,167.083z M824.992,164.075l-5.185,11.888h1.473l1.487-3.504h4.465l1.487,3.504
			h1.473L824.992,164.075z"/>
		<path clip-path="url(#SVGID_26_)" fill="#F9A25E" d="M870.455,226.074c2.4,0,3.952-2.128,3.952-5.936
			c0-3.808-1.536-5.92-3.983-5.92c-2.385,0-3.952,2.144-3.952,5.92C866.472,223.915,868.039,226.074,870.455,226.074
			 M870.439,224.955c-1.584,0-2.56-1.728-2.56-4.832c0-3.088,0.976-4.8,2.56-4.8c1.664,0,2.561,1.648,2.561,4.832
			C873,223.322,872.104,224.955,870.439,224.955 M862.071,225.771h1.345v-2.464h1.344v-1.104h-1.344v-7.984h-0.576l-6.128,9.088
			h5.359V225.771z M862.071,222.202h-3.344l3.344-5.024V222.202z M853.752,219.418l-1.633-0.72c-1.04-0.464-1.535-1.024-1.535-1.84
			c0-0.976,0.72-1.664,1.743-1.664c0.816,0,1.44,0.448,1.937,1.312l1.12-0.72c-0.561-1.136-1.584-1.728-2.96-1.728
			c-1.904,0-3.217,1.216-3.217,2.816c0,1.392,0.736,2.384,2.257,3.024l1.392,0.592c1.184,0.512,1.776,1.264,1.776,2.288
			c0,1.248-0.912,2.128-2.288,2.128c-1.152,0-1.937-0.72-2.272-2.112l-1.231,0.608c0.432,1.696,1.695,2.656,3.504,2.656
			c2.208,0,3.664-1.408,3.664-3.504C856.008,221.114,855.239,220.074,853.752,219.418 M843.287,216.891l1.824,4.208h-3.647
			L843.287,216.891z M843.287,213.882l-5.184,11.888h1.472l1.488-3.504h4.464l1.488,3.504h1.472L843.287,213.882z M835.688,219.418
			l-1.632-0.72c-1.04-0.464-1.536-1.024-1.536-1.84c0-0.976,0.72-1.664,1.744-1.664c0.815,0,1.439,0.448,1.936,1.312l1.12-0.72
			c-0.56-1.136-1.584-1.728-2.96-1.728c-1.904,0-3.216,1.216-3.216,2.816c0,1.392,0.736,2.384,2.256,3.024l1.393,0.592
			c1.184,0.512,1.775,1.264,1.775,2.288c0,1.248-0.912,2.128-2.288,2.128c-1.151,0-1.936-0.72-2.271-2.112l-1.232,0.608
			c0.432,1.696,1.696,2.656,3.504,2.656c2.208,0,3.664-1.408,3.664-3.504C837.943,221.114,837.176,220.074,835.688,219.418
			 M825.224,216.891l1.824,4.208h-3.648L825.224,216.891z M825.224,213.882l-5.185,11.888h1.473l1.488-3.504h4.464l1.487,3.504
			h1.473L825.224,213.882z"/>
		<path clip-path="url(#SVGID_26_)" fill="#808285" d="M871.328,310.721h1.359v-5.457h0.16l4.177,5.457h1.728l-4.368-5.457h0.24
			c2.016,0,3.088-0.991,3.088-2.863c0-1.12-0.416-2.032-1.072-2.544c-0.704-0.544-1.536-0.576-2.624-0.576h-2.688V310.721z
			 M872.688,300.433h1.009c1.808,0,2.672,0.319,2.672,1.983c0,1.584-0.88,1.84-2.672,1.84h-1.009V300.433z M864.64,305.584h1.04
			c1.185,0,2.112-0.031,2.88-0.576c0.721-0.512,1.168-1.455,1.168-2.575s-0.447-2.064-1.168-2.576
			c-0.768-0.544-1.712-0.576-2.88-0.576h-2.399v11.44h1.359V305.584z M864.64,304.353v-3.824h0.656c1.984,0,2.96,0.32,2.96,1.983
			c0,1.584-0.992,1.841-2.96,1.841H864.64z M857.232,307.776h3.647v-1.231h-3.647V307.776z M853.52,304.368l-1.632-0.72
			c-1.04-0.464-1.536-1.023-1.536-1.84c0-0.977,0.721-1.664,1.744-1.664c0.816,0,1.44,0.447,1.937,1.312l1.12-0.721
			c-0.561-1.136-1.584-1.729-2.96-1.729c-1.904,0-3.217,1.217-3.217,2.816c0,1.393,0.736,2.385,2.257,3.024l1.392,0.592
			c1.184,0.512,1.776,1.265,1.776,2.288c0,1.248-0.912,2.128-2.288,2.128c-1.152,0-1.937-0.72-2.272-2.112l-1.231,0.608
			c0.432,1.696,1.695,2.655,3.504,2.655c2.208,0,3.664-1.407,3.664-3.504C855.776,306.064,855.008,305.024,853.52,304.368
			 M843.056,301.84l1.824,4.209h-3.647L843.056,301.84z M843.056,298.832l-5.184,11.889h1.472l1.488-3.504h4.464l1.488,3.504h1.472
			L843.056,298.832z M835.456,304.368l-1.632-0.72c-1.04-0.464-1.536-1.023-1.536-1.84c0-0.977,0.72-1.664,1.744-1.664
			c0.815,0,1.439,0.447,1.936,1.312l1.12-0.721c-0.56-1.136-1.584-1.729-2.96-1.729c-1.904,0-3.216,1.217-3.216,2.816
			c0,1.393,0.736,2.385,2.256,3.024l1.392,0.592c1.185,0.512,1.776,1.265,1.776,2.288c0,1.248-0.912,2.128-2.288,2.128
			c-1.151,0-1.936-0.72-2.271-2.112l-1.232,0.608c0.432,1.696,1.696,2.655,3.504,2.655c2.208,0,3.664-1.407,3.664-3.504
			C837.712,306.064,836.944,305.024,835.456,304.368 M824.992,301.84l1.824,4.209h-3.648L824.992,301.84z M824.992,298.832
			l-5.185,11.889h1.473l1.487-3.504h4.465l1.487,3.504h1.473L824.992,298.832z"/>
		<path clip-path="url(#SVGID_26_)" fill="#F9A25E" d="M757.653,28.792l0.832,0.432c1.231-2.288,1.855-4.864,1.855-7.728
			c0-2.96-0.576-5.504-1.855-7.76l-0.832,0.384c1.151,2.272,1.647,4.64,1.647,7.376C759.301,24.312,758.805,26.68,757.653,28.792
			 M752.037,25.72h1.328V14.393h-2.896l-0.768,1.184h2.336V25.72z M742.677,25.72h1.328V14.393h-2.896l-0.769,1.184h2.336V25.72z
			 M733.316,25.72h1.328V14.393h-2.896l-0.769,1.184h2.336V25.72z M727.045,21.992h-9.36v0.912h9.36V21.992z M727.045,19h-9.36
			v0.912h9.36V19z M708.117,25.72h1.216v-3.696c0-0.784,0-1.376,0.416-1.888c0.399-0.496,1.023-0.768,1.744-0.768
			c1.279,0,1.903,0.704,1.903,2.144v4.208h1.217v-4.864c0-1.616-1.024-2.544-2.688-2.544c-1.12,0-1.983,0.432-2.592,1.36v-1.104
			h-1.216V25.72z M706.326,28.792c-1.153-2.112-1.648-4.48-1.648-7.296c0-2.736,0.495-5.104,1.648-7.376l-0.833-0.384
			c-1.28,2.256-1.855,4.8-1.855,7.76c0,2.864,0.623,5.44,1.855,7.728L706.326,28.792z M683.062,14.28l4.433,11.888l2.976-8.848
			l2.992,8.848l4.432-11.888h-1.472l-2.912,8.416l-3.056-8.864l-3.024,8.864l-2.896-8.416H683.062z M681.605,24.424h-4.336
			l1.792-1.936c1.841-2,2.896-3.504,2.896-5.152c0-1.968-1.312-3.168-3.552-3.168c-2.256,0-3.584,1.264-3.584,3.424
			c0,0.096,0.016,0.208,0.016,0.304h1.28v-0.128c0-1.52,0.8-2.352,2.239-2.352c1.377,0,2.257,0.848,2.257,2
			c0,1.488-1.425,3.008-3.488,5.44l-2.416,2.864h6.896V24.424z M668.374,21.641h-1.68l2.336,2.528
			c-0.641,0.352-1.36,0.512-2.208,0.512c-0.977,0-1.872-0.288-2.608-0.816c-1.296-0.944-1.952-2.24-1.952-3.856
			c0-1.248,0.48-2.432,1.36-3.312s2.063-1.36,3.312-1.36c1.696,0,3.152,0.816,4.017,2.24c0.416,0.688,0.64,1.552,0.64,2.496
			c0,1.408-0.56,2.624-1.52,3.392L668.374,21.641z M673.189,26.824l-2.176-2.352c1.344-1.072,2.048-2.624,2.048-4.448
			c0-1.744-0.672-3.296-1.903-4.416c-1.152-1.04-2.592-1.584-4.225-1.584c-1.632,0-3.151,0.608-4.319,1.744
			c-1.152,1.136-1.792,2.64-1.792,4.24c0,1.984,0.848,3.664,2.447,4.848c0.992,0.736,2.177,1.12,3.473,1.12
			c1.264,0,2.336-0.256,3.248-0.784l1.52,1.632H673.189z M652.998,22.168c0,1.648-0.896,2.608-2.336,2.608
			c-1.521,0-2.384-0.976-2.384-2.704c0-1.632,0.863-2.576,2.336-2.576C651.99,19.497,652.998,20.504,652.998,22.168 M654.214,18.568
			h-1.248v1.328c-0.528-1.04-1.44-1.584-2.624-1.584c-2,0-3.36,1.424-3.36,3.808c0,2.32,1.376,3.824,3.425,3.824
			c1.104,0,2.031-0.56,2.592-1.584v1.2c0,0.656-0.032,1.184-0.304,1.632c-0.368,0.624-1.072,0.944-2.049,0.944
			c-1.376,0-2.128-0.624-2.128-1.68V26.36h-1.376c0.048,1.792,1.296,2.848,3.488,2.848c1.264,0,2.224-0.368,2.88-1.072
			c0.672-0.72,0.704-1.52,0.704-2.544V18.568z M643.99,25.72h1.216v-4.864c0-1.616-0.96-2.544-2.544-2.544
			c-1.088,0-1.92,0.464-2.544,1.456c-0.416-0.96-1.248-1.456-2.4-1.456c-1.072,0-1.888,0.448-2.464,1.36v-1.104h-1.216v7.152h1.216
			v-3.696c0-0.176-0.016-0.352-0.016-0.512c0-0.544,0.063-0.992,0.367-1.376c0.385-0.496,0.977-0.768,1.633-0.768
			c1.216,0,1.775,0.704,1.775,2.144v4.208h1.216v-3.696c0-0.16-0.016-0.304-0.016-0.448c0-0.592,0.08-1.04,0.384-1.44
			c0.384-0.496,0.96-0.768,1.616-0.768c1.216,0,1.776,0.704,1.776,2.144V25.72z M628.166,26.024c2.4,0,3.952-2.128,3.952-5.936
			s-1.536-5.92-3.984-5.92c-2.384,0-3.952,2.144-3.952,5.92S625.75,26.024,628.166,26.024 M628.15,24.904
			c-1.584,0-2.561-1.728-2.561-4.832c0-3.088,0.977-4.8,2.561-4.8c1.663,0,2.56,1.648,2.56,4.832
			C630.71,23.272,629.813,24.904,628.15,24.904 M618.806,26.024c2.4,0,3.952-2.128,3.952-5.936s-1.536-5.92-3.984-5.92
			c-2.384,0-3.951,2.144-3.951,5.92S616.39,26.024,618.806,26.024 M618.79,24.904c-1.584,0-2.561-1.728-2.561-4.832
			c0-3.088,0.977-4.8,2.561-4.8c1.664,0,2.56,1.648,2.56,4.832C621.35,23.272,620.454,24.904,618.79,24.904 M612.502,24.424h-4.336
			l1.792-1.936c1.84-2,2.896-3.504,2.896-5.152c0-1.968-1.312-3.168-3.552-3.168c-2.256,0-3.584,1.264-3.584,3.424
			c0,0.096,0.017,0.208,0.017,0.304h1.279v-0.128c0-1.52,0.8-2.352,2.24-2.352c1.376,0,2.256,0.848,2.256,2
			c0,1.488-1.424,3.008-3.488,5.44l-2.416,2.864h6.896V24.424z M597.766,22.216c0,1.648-0.896,2.592-2.336,2.592
			c-1.52,0-2.384-0.976-2.384-2.704c0-1.632,0.864-2.576,2.336-2.576C596.758,19.528,597.766,20.552,597.766,22.216 M598.95,18.568
			h-1.216v1.344c-0.545-1.056-1.425-1.6-2.625-1.6c-2,0-3.359,1.456-3.359,3.856c0,2.336,1.376,3.856,3.424,3.856
			c1.104,0,2.016-0.56,2.592-1.6v1.296h1.185V18.568z M588.279,15.128c0,0.512,0.399,0.896,0.896,0.896s0.896-0.384,0.896-0.88
			s-0.4-0.912-0.896-0.912S588.279,14.632,588.279,15.128 M588.566,25.72h1.217v-7.152h-1.217V25.72z M580.679,25.72h6.225v-1.072
			h-4.064l4.096-6.08h-6v1.072h3.841L580.679,25.72z M578.15,25.72h1.217v-4.864c0-1.616-0.96-2.544-2.544-2.544
			c-1.089,0-1.92,0.464-2.544,1.456c-0.416-0.96-1.248-1.456-2.4-1.456c-1.072,0-1.888,0.448-2.464,1.36v-1.104h-1.216v7.152h1.216
			v-3.696c0-0.176-0.017-0.352-0.017-0.512c0-0.544,0.064-0.992,0.368-1.376c0.384-0.496,0.977-0.768,1.632-0.768
			c1.217,0,1.776,0.704,1.776,2.144v4.208h1.216v-3.696c0-0.16-0.016-0.304-0.016-0.448c0-0.592,0.08-1.04,0.384-1.44
			c0.384-0.496,0.96-0.768,1.616-0.768c1.216,0,1.775,0.704,1.775,2.144V25.72z M564.183,15.128c0,0.512,0.4,0.896,0.896,0.896
			s0.896-0.384,0.896-0.88s-0.399-0.912-0.896-0.912S564.183,14.632,564.183,15.128 M564.471,25.72h1.216v-7.152h-1.216V25.72z
			 M562.295,17.017V15.24c-1.184-0.816-2.4-1.232-3.76-1.232c-1.681,0-3.088,0.56-4.256,1.68c-1.2,1.168-1.792,2.592-1.792,4.368
			c0,2.032,0.911,3.76,2.575,4.912c0.992,0.688,2.16,1.056,3.376,1.056c1.393,0,2.721-0.432,3.856-1.248v-1.808
			c-1.04,1.216-2.304,1.808-3.744,1.808c-1.552,0-2.944-0.736-3.855-2.032c-0.528-0.752-0.784-1.648-0.784-2.704
			c0-1.344,0.432-2.464,1.312-3.376c0.849-0.88,2.064-1.392,3.265-1.392C559.975,15.272,561.191,15.816,562.295,17.017"/>
		<path clip-path="url(#SVGID_26_)" fill="#808285" d="M757.653,68.792l0.832,0.432c1.231-2.288,1.855-4.864,1.855-7.728
			c0-2.96-0.576-5.504-1.855-7.76l-0.832,0.384c1.151,2.272,1.647,4.64,1.647,7.376C759.301,64.312,758.805,66.68,757.653,68.792
			 M749.477,65.576l1.12,0.576l5.712-11.76h-7.248v1.184h5.296L749.477,65.576z M743.045,66.024c2.4,0,3.952-2.128,3.952-5.936
			s-1.536-5.92-3.984-5.92c-2.384,0-3.952,2.144-3.952,5.92S740.629,66.024,743.045,66.024 M743.029,64.904
			c-1.584,0-2.561-1.728-2.561-4.832c0-3.088,0.977-4.8,2.561-4.8c1.664,0,2.56,1.648,2.56,4.832
			C745.589,63.272,744.693,64.904,743.029,64.904 M733.316,65.72h1.328V54.393h-2.896l-0.769,1.184h2.336V65.72z M727.045,61.992
			h-9.36v0.912h9.36V61.992z M727.045,59h-9.36v0.912h9.36V59z M708.117,65.72h1.216v-3.696c0-0.784,0-1.376,0.416-1.888
			c0.399-0.496,1.023-0.768,1.744-0.768c1.279,0,1.903,0.704,1.903,2.144v4.208h1.217v-4.864c0-1.616-1.024-2.544-2.688-2.544
			c-1.12,0-1.983,0.432-2.592,1.36v-1.104h-1.216V65.72z M706.326,68.792c-1.153-2.112-1.648-4.48-1.648-7.296
			c0-2.736,0.495-5.104,1.648-7.376l-0.833-0.384c-1.28,2.256-1.855,4.8-1.855,7.76c0,2.864,0.623,5.44,1.855,7.728L706.326,68.792z
			 M683.062,54.28l4.433,11.888l2.976-8.848l2.992,8.848l4.432-11.888h-1.472l-2.912,8.416l-3.056-8.864l-3.024,8.864l-2.896-8.416
			H683.062z M679.525,65.72h1.345v-2.464h1.344v-1.104h-1.344v-7.984h-0.576l-6.128,9.088h5.359V65.72z M679.525,62.152h-3.344
			l3.344-5.024V62.152z M668.374,61.641h-1.68l2.336,2.528c-0.641,0.352-1.36,0.512-2.208,0.512c-0.977,0-1.872-0.288-2.608-0.816
			c-1.296-0.944-1.952-2.24-1.952-3.856c0-1.248,0.48-2.432,1.36-3.312s2.063-1.36,3.312-1.36c1.696,0,3.152,0.816,4.017,2.24
			c0.416,0.688,0.64,1.552,0.64,2.496c0,1.408-0.56,2.624-1.52,3.392L668.374,61.641z M673.189,66.824l-2.176-2.352
			c1.344-1.072,2.048-2.624,2.048-4.448c0-1.744-0.672-3.296-1.903-4.416c-1.152-1.04-2.592-1.584-4.225-1.584
			c-1.632,0-3.151,0.608-4.319,1.744c-1.152,1.136-1.792,2.64-1.792,4.24c0,1.984,0.848,3.664,2.447,4.848
			c0.992,0.736,2.177,1.12,3.473,1.12c1.264,0,2.336-0.256,3.248-0.784l1.52,1.632H673.189z M652.998,62.168
			c0,1.648-0.896,2.608-2.336,2.608c-1.521,0-2.384-0.976-2.384-2.704c0-1.632,0.863-2.576,2.336-2.576
			C651.99,59.497,652.998,60.504,652.998,62.168 M654.214,58.568h-1.248v1.328c-0.528-1.04-1.44-1.584-2.624-1.584
			c-2,0-3.36,1.424-3.36,3.808c0,2.32,1.376,3.824,3.425,3.824c1.104,0,2.031-0.56,2.592-1.584v1.2c0,0.656-0.032,1.184-0.304,1.632
			c-0.368,0.624-1.072,0.944-2.049,0.944c-1.376,0-2.128-0.624-2.128-1.68V66.36h-1.376c0.048,1.792,1.296,2.848,3.488,2.848
			c1.264,0,2.224-0.368,2.88-1.072c0.672-0.72,0.704-1.52,0.704-2.544V58.568z M643.99,65.72h1.216v-4.864
			c0-1.616-0.96-2.544-2.544-2.544c-1.088,0-1.92,0.464-2.544,1.456c-0.416-0.96-1.248-1.456-2.4-1.456
			c-1.072,0-1.888,0.448-2.464,1.36v-1.104h-1.216v7.152h1.216v-3.696c0-0.176-0.016-0.352-0.016-0.512
			c0-0.544,0.063-0.992,0.367-1.376c0.385-0.496,0.977-0.768,1.633-0.768c1.216,0,1.775,0.704,1.775,2.144v4.208h1.216v-3.696
			c0-0.16-0.016-0.304-0.016-0.448c0-0.592,0.08-1.04,0.384-1.44c0.384-0.496,0.96-0.768,1.616-0.768
			c1.216,0,1.776,0.704,1.776,2.144V65.72z M628.166,66.024c2.4,0,3.952-2.128,3.952-5.936s-1.536-5.92-3.984-5.92
			c-2.384,0-3.952,2.144-3.952,5.92S625.75,66.024,628.166,66.024 M628.15,64.904c-1.584,0-2.561-1.728-2.561-4.832
			c0-3.088,0.977-4.8,2.561-4.8c1.663,0,2.56,1.648,2.56,4.832C630.71,63.272,629.813,64.904,628.15,64.904 M618.806,66.024
			c2.4,0,3.952-2.128,3.952-5.936s-1.536-5.92-3.984-5.92c-2.384,0-3.951,2.144-3.951,5.92S616.39,66.024,618.806,66.024
			 M618.79,64.904c-1.584,0-2.561-1.728-2.561-4.832c0-3.088,0.977-4.8,2.561-4.8c1.664,0,2.56,1.648,2.56,4.832
			C621.35,63.272,620.454,64.904,618.79,64.904 M610.422,65.72h1.344v-2.464h1.344v-1.104h-1.344v-7.984h-0.576l-6.128,9.088h5.36
			V65.72z M610.422,62.152h-3.344l3.344-5.024V62.152z M597.766,62.216c0,1.648-0.896,2.592-2.336,2.592
			c-1.52,0-2.384-0.976-2.384-2.704c0-1.632,0.864-2.576,2.336-2.576C596.758,59.528,597.766,60.552,597.766,62.216 M598.95,58.568
			h-1.216v1.344c-0.545-1.056-1.425-1.6-2.625-1.6c-2,0-3.359,1.456-3.359,3.856c0,2.336,1.376,3.856,3.424,3.856
			c1.104,0,2.016-0.56,2.592-1.6v1.296h1.185V58.568z M588.279,55.128c0,0.512,0.399,0.896,0.896,0.896s0.896-0.384,0.896-0.88
			s-0.4-0.912-0.896-0.912S588.279,54.632,588.279,55.128 M588.566,65.72h1.217v-7.152h-1.217V65.72z M580.679,65.72h6.225v-1.072
			h-4.064l4.096-6.08h-6v1.072h3.841L580.679,65.72z M578.15,65.72h1.217v-4.864c0-1.616-0.96-2.544-2.544-2.544
			c-1.089,0-1.92,0.464-2.544,1.456c-0.416-0.96-1.248-1.456-2.4-1.456c-1.072,0-1.888,0.448-2.464,1.36v-1.104h-1.216v7.152h1.216
			v-3.696c0-0.176-0.017-0.352-0.017-0.512c0-0.544,0.064-0.992,0.368-1.376c0.384-0.496,0.977-0.768,1.632-0.768
			c1.217,0,1.776,0.704,1.776,2.144v4.208h1.216v-3.696c0-0.16-0.016-0.304-0.016-0.448c0-0.592,0.08-1.04,0.384-1.44
			c0.384-0.496,0.96-0.768,1.616-0.768c1.216,0,1.775,0.704,1.775,2.144V65.72z M564.183,55.128c0,0.512,0.4,0.896,0.896,0.896
			s0.896-0.384,0.896-0.88s-0.399-0.912-0.896-0.912S564.183,54.632,564.183,55.128 M564.471,65.72h1.216v-7.152h-1.216V65.72z
			 M562.295,57.017V55.24c-1.184-0.816-2.4-1.232-3.76-1.232c-1.681,0-3.088,0.56-4.256,1.68c-1.2,1.168-1.792,2.592-1.792,4.368
			c0,2.032,0.911,3.76,2.575,4.912c0.992,0.688,2.16,1.056,3.376,1.056c1.393,0,2.721-0.432,3.856-1.248v-1.808
			c-1.04,1.216-2.304,1.808-3.744,1.808c-1.552,0-2.944-0.736-3.855-2.032c-0.528-0.752-0.784-1.648-0.784-2.704
			c0-1.344,0.432-2.464,1.312-3.376c0.849-0.88,2.064-1.392,3.265-1.392C559.975,55.272,561.191,55.816,562.295,57.017"/>
	</g>
	<line clip-path="url(#SVGID_2_)" fill="none" stroke="#006227" stroke-width="2" x1="492.447" y1="14" x2="537.447" y2="14"/>
	<path clip-path="url(#SVGID_2_)" fill="#006227" d="M537.447,54.5h-9v-2h9V54.5z M519.447,54.5h-9v-2h9V54.5z M501.447,54.5h-9v-2
		h9V54.5z"/>
	<line clip-path="url(#SVGID_2_)" fill="none" stroke="#808285" stroke-width="2" x1="492.447" y1="27" x2="537.447" y2="27"/>
	<path clip-path="url(#SVGID_2_)" fill="#808285" d="M537.447,67.5h-9v-2h9V67.5z M519.447,67.5h-9v-2h9V67.5z M501.447,67.5h-9v-2
		h9V67.5z"/>
	<line clip-path="url(#SVGID_2_)" fill="none" stroke="#F9A25E" stroke-width="2" x1="492.447" y1="20.5" x2="537.447" y2="20.5"/>
	<path clip-path="url(#SVGID_2_)" fill="#F9A25E" d="M537.447,61h-9v-2h9V61z M519.447,61h-9v-2h9V61z M501.447,61h-9v-2h9V61z"/>
	<g clip-path="url(#SVGID_2_)">
		<defs>
			<rect id="SVGID_45_" x="-9" y="-1" width="930" height="570.252"/>
		</defs>
		<clipPath id="SVGID_46_">
			<use xlink:href="#SVGID_45_"  overflow="visible"/>
		</clipPath>
		<path clip-path="url(#SVGID_46_)" fill="#808285" d="M495.136,561.002h0.726v-6.19h-1.582l-0.419,0.646h1.275V561.002z
			 M489.735,565.278c0,0.479,0.374,0.854,0.869,0.854c0.493,0,0.884-0.375,0.884-0.854c0-0.48-0.391-0.869-0.884-0.869
			C490.124,564.409,489.735,564.798,489.735,565.278 M484.98,565.997h1.258v-2.311h1.26v-1.032h-1.26v-7.485h-0.539l-5.744,8.518
			h5.025V565.997z M484.98,562.654h-3.136l3.136-4.711V562.654z M474.945,565.997h1.243v-10.618h-2.714l-0.72,1.108h2.19V565.997z
			 M466.514,566.282c2.251,0,3.704-1.993,3.704-5.564s-1.438-5.549-3.733-5.549c-2.236,0-3.704,2.008-3.704,5.549
			S464.248,566.282,466.514,566.282 M466.499,565.234c-1.486,0-2.401-1.62-2.401-4.531c0-2.896,0.915-4.501,2.401-4.501
			c1.56,0,2.401,1.545,2.401,4.531C468.9,563.704,468.059,565.234,466.499,565.234 M460.604,564.784h-4.065l1.681-1.816
			c1.726-1.875,2.714-3.286,2.714-4.829c0-1.847-1.228-2.97-3.328-2.97c-2.116,0-3.359,1.183-3.359,3.21
			c0,0.089,0.015,0.194,0.015,0.283h1.198v-0.119c0-1.425,0.75-2.206,2.101-2.206c1.29,0,2.116,0.796,2.116,1.877
			c0,1.394-1.336,2.819-3.271,5.099l-2.264,2.685h6.464V564.784z M446.625,565.997h1.138v-11.354h-1.138V565.997z M443.235,562.713
			c0,1.545-0.84,2.431-2.191,2.431c-1.425,0-2.236-0.916-2.236-2.535c0-1.531,0.812-2.416,2.191-2.416
			C442.29,560.192,443.235,561.152,443.235,562.713 M444.343,559.294h-1.138v1.258c-0.51-0.99-1.335-1.498-2.461-1.498
			c-1.876,0-3.149,1.363-3.149,3.614c0,2.191,1.288,3.614,3.209,3.614c1.036,0,1.892-0.524,2.432-1.498v1.213h1.107V559.294z
			 M430.125,560.237v5.76h1.139v-5.76h1.26v-0.943h-1.26v-2.7h-1.139v2.7h-1.229v0.943H430.125z M427.066,561.889h-4.082
			c0.12-1.141,0.944-1.847,2.041-1.847C426.24,560.042,426.99,560.703,427.066,561.889 M428.294,562.817v-0.226
			c0-2.22-1.259-3.553-3.224-3.553c-1.951,0-3.344,1.468-3.344,3.583c0,2.19,1.378,3.66,3.419,3.66c1.38,0,2.43-0.614,3.104-1.829
			l-0.869-0.585c-0.555,0.976-1.274,1.456-2.175,1.456c-1.291,0-2.221-0.946-2.221-2.402v-0.104H428.294z M412.786,565.997h1.138
			v-3.27c0-1.756,0.601-2.626,1.815-2.626c0.21,0,0.45,0.045,0.705,0.136l0.39-1.033c-0.255-0.09-0.51-0.135-0.78-0.135
			c-1.02,0-1.649,0.479-2.25,1.617v-1.394h-1.018V565.997z M409.891,561.889h-4.082c0.12-1.141,0.945-1.847,2.041-1.847
			C409.065,560.042,409.816,560.703,409.891,561.889 M411.119,562.817v-0.226c0-2.22-1.258-3.553-3.224-3.553
			c-1.951,0-3.345,1.468-3.345,3.583c0,2.19,1.378,3.66,3.419,3.66c1.38,0,2.431-0.614,3.104-1.829l-0.869-0.585
			c-0.554,0.976-1.275,1.456-2.175,1.456c-1.291,0-2.222-0.946-2.222-2.402v-0.104H411.119z M397.739,562.668
			c0-1.591,0.87-2.506,2.251-2.506c1.335,0,2.176,0.96,2.176,2.641c0,1.486-0.826,2.356-2.161,2.356
			C398.654,565.159,397.739,564.183,397.739,562.668 M396.631,569.252h1.139v-4.468c0.51,0.989,1.335,1.498,2.445,1.498
			c1.876,0,3.164-1.349,3.164-3.614c0-2.206-1.288-3.614-3.209-3.614c-1.035,0-1.921,0.524-2.446,1.498v-1.259h-1.093V569.252z
			 M393.751,561.889h-4.082c0.12-1.141,0.945-1.847,2.041-1.847C392.926,560.042,393.676,560.703,393.751,561.889 M394.979,562.817
			v-0.226c0-2.22-1.259-3.553-3.225-3.553c-1.951,0-3.344,1.468-3.344,3.583c0,2.19,1.378,3.66,3.419,3.66
			c1.381,0,2.43-0.614,3.104-1.829l-0.868-0.585c-0.555,0.976-1.275,1.456-2.176,1.456c-1.291,0-2.221-0.946-2.221-2.402v-0.104
			H394.979z M385.231,556.068c0,0.479,0.375,0.839,0.839,0.839s0.839-0.36,0.839-0.824c0-0.465-0.375-0.854-0.839-0.854
			S385.231,555.603,385.231,556.068 M385.501,565.997h1.138v-6.703h-1.138V565.997z M381.826,560.043l-1.531-0.675
			c-0.975-0.436-1.44-0.96-1.44-1.727c0-0.915,0.676-1.56,1.636-1.56c0.766,0,1.351,0.42,1.815,1.229l1.05-0.675
			c-0.524-1.063-1.484-1.618-2.775-1.618c-1.786,0-3.014,1.139-3.014,2.639c0,1.306,0.688,2.235,2.113,2.836l1.306,0.555
			c1.11,0.48,1.666,1.186,1.666,2.146c0,1.171-0.855,1.995-2.146,1.995c-1.08,0-1.814-0.675-2.13-1.98l-1.154,0.571
			c0.405,1.59,1.588,2.487,3.284,2.487c2.071,0,3.435-1.317,3.435-3.283C383.939,561.633,383.22,560.658,381.826,560.043
			 M370.141,565.997h1.139v-4.561c0-1.515-0.898-2.383-2.383-2.383c-1.021,0-1.802,0.435-2.387,1.363
			c-0.39-0.899-1.169-1.363-2.249-1.363c-1.006,0-1.771,0.419-2.312,1.273v-1.034h-1.138v6.704h1.138v-3.464
			c0-0.165-0.016-0.33-0.016-0.48c0-0.511,0.061-0.931,0.347-1.291c0.359-0.465,0.915-0.72,1.53-0.72
			c1.141,0,1.666,0.66,1.666,2.011v3.944h1.138v-3.464c0-0.15-0.016-0.285-0.016-0.42c0-0.557,0.075-0.977,0.361-1.352
			c0.36-0.465,0.9-0.72,1.515-0.72c1.142,0,1.666,0.66,1.666,2.011V565.997z M353.025,562.668c0-1.426,1.08-2.536,2.431-2.536
			c1.335,0,2.416,1.11,2.416,2.536c0,1.425-1.081,2.536-2.416,2.536C354.12,565.204,353.025,564.093,353.025,562.668
			 M351.812,562.668c0,0.975,0.358,1.846,1.062,2.551c0.69,0.689,1.59,1.063,2.581,1.063c0.975,0,1.875-0.39,2.58-1.078
			c0.688-0.675,1.063-1.562,1.063-2.536s-0.375-1.876-1.063-2.551c-0.705-0.689-1.59-1.063-2.58-1.063
			c-0.991,0-1.891,0.359-2.581,1.048C352.171,560.792,351.812,561.693,351.812,562.668 M347.177,565.997h1.139v-3.27
			c0-1.756,0.6-2.626,1.814-2.626c0.21,0,0.45,0.045,0.705,0.136l0.39-1.033c-0.255-0.09-0.51-0.135-0.779-0.135
			c-1.021,0-1.65,0.479-2.25,1.617v-1.394h-1.019V565.997z M343.202,565.997h1.138v-5.76h1.785v-0.943h-1.785v-1.786
			c0-1.291,0.03-1.906,0.885-1.906c0.301,0,0.601,0.075,0.9,0.24v-1.183c-0.314-0.105-0.645-0.15-0.99-0.15
			c-1.604,0-1.933,0.838-1.933,2.85v1.936h-1.29v0.943h1.29V565.997z M335.177,562.683c0,1.592-0.87,2.491-2.251,2.491
			c-1.336,0-2.176-0.96-2.176-2.641c0-1.486,0.825-2.341,2.161-2.341C334.262,560.192,335.177,561.167,335.177,562.683
			 M336.285,554.644h-1.138v5.908c-0.511-0.989-1.336-1.498-2.446-1.498c-1.876,0-3.164,1.363-3.164,3.614
			c0,2.191,1.288,3.614,3.209,3.614c1.035,0,1.906-0.539,2.431-1.498v1.213h1.108V554.644z M327.167,561.889h-4.082
			c0.12-1.141,0.946-1.847,2.041-1.847C326.342,560.042,327.092,560.703,327.167,561.889 M328.396,562.817v-0.226
			c0-2.22-1.259-3.553-3.225-3.553c-1.951,0-3.344,1.468-3.344,3.583c0,2.19,1.378,3.66,3.419,3.66c1.381,0,2.43-0.614,3.104-1.829
			l-0.867-0.585c-0.556,0.976-1.275,1.456-2.177,1.456c-1.29,0-2.221-0.946-2.221-2.402v-0.104H328.396z M318.782,560.237v5.76
			h1.138v-5.76h1.26v-0.943h-1.26v-2.7h-1.138v2.7h-1.23v0.943H318.782z M311.206,562.668c0-1.591,0.87-2.506,2.25-2.506
			c1.336,0,2.176,0.96,2.176,2.641c0,1.486-0.825,2.356-2.161,2.356C312.121,565.159,311.206,564.183,311.206,562.668
			 M310.097,569.252h1.14v-4.468c0.51,0.989,1.335,1.498,2.445,1.498c1.875,0,3.164-1.349,3.164-3.614
			c0-2.206-1.289-3.614-3.209-3.614c-1.035,0-1.921,0.524-2.445,1.498v-1.259h-1.095V569.252z M306.769,562.713
			c0,1.545-0.842,2.431-2.191,2.431c-1.426,0-2.236-0.916-2.236-2.535c0-1.531,0.811-2.416,2.191-2.416
			C305.822,560.192,306.769,561.152,306.769,562.713 M307.876,559.294h-1.138v1.258c-0.511-0.99-1.336-1.498-2.461-1.498
			c-1.876,0-3.149,1.363-3.149,3.614c0,2.191,1.288,3.614,3.209,3.614c1.035,0,1.891-0.524,2.432-1.498v1.213h1.107V559.294z
			 M298.263,562.683c0,1.592-0.87,2.491-2.251,2.491c-1.336,0-2.176-0.96-2.176-2.641c0-1.486,0.825-2.341,2.161-2.341
			C297.347,560.192,298.263,561.167,298.263,562.683 M299.371,554.644h-1.138v5.908c-0.511-0.989-1.336-1.498-2.446-1.498
			c-1.876,0-3.164,1.363-3.164,3.614c0,2.191,1.288,3.614,3.209,3.614c1.035,0,1.906-0.539,2.431-1.498v1.213h1.108V554.644z
			 M287.342,557.673l1.709,3.946h-3.419L287.342,557.673z M287.342,554.854l-4.858,11.144h1.38l1.394-3.285h4.185l1.395,3.285h1.38
			L287.342,554.854z M275.298,565.278c0,0.479,0.374,0.854,0.869,0.854c0.494,0,0.884-0.375,0.884-0.854
			c0-0.48-0.39-0.869-0.884-0.869C275.688,564.409,275.298,564.798,275.298,565.278 M269.342,557.673l1.71,3.946h-3.42
			L269.342,557.673z M269.342,554.854l-4.858,11.144h1.38l1.394-3.285h4.185l1.395,3.285h1.38L269.342,554.854z M259.098,564.874
			c0.524,0.944,1.394,1.408,2.64,1.408c1.485,0,2.443-0.883,2.443-2.129c0-1.096-0.644-1.575-1.948-1.995
			c-1.111-0.36-1.727-0.45-1.727-1.156c0-0.585,0.465-1.005,1.142-1.005c0.705,0,1.261,0.345,1.53,0.96l0.929-0.57
			c-0.359-0.854-1.229-1.333-2.385-1.333c-1.426,0-2.368,0.854-2.368,2.023c0,1.321,0.987,1.605,2.639,2.176
			c0.706,0.24,1.051,0.51,1.051,1.021c0,0.585-0.496,1.005-1.261,1.005c-0.767,0-1.336-0.346-1.71-1.066L259.098,564.874z
			 M253.651,561.182h0.976c1.11,0,1.981-0.029,2.701-0.539c0.674-0.479,1.093-1.364,1.093-2.415s-0.419-1.936-1.093-2.415
			c-0.72-0.509-1.606-0.538-2.701-0.538h-2.249v10.723h1.273V561.182z M253.651,560.029v-3.587h0.614c1.861,0,2.777,0.3,2.777,1.86
			c0,1.486-0.931,1.727-2.777,1.727H253.651z M245.028,561.889h-4.082c0.12-1.141,0.946-1.847,2.041-1.847
			C244.203,560.042,244.953,560.703,245.028,561.889 M246.256,562.817v-0.226c0-2.22-1.258-3.553-3.224-3.553
			c-1.951,0-3.344,1.468-3.344,3.583c0,2.19,1.378,3.66,3.419,3.66c1.381,0,2.43-0.614,3.104-1.829l-0.868-0.585
			c-0.555,0.976-1.274,1.456-2.176,1.456c-1.29,0-2.221-0.946-2.221-2.402v-0.104H246.256z M235.817,566.417l3.299-7.123h-1.289
			l-2.025,4.679l-2.009-4.679h-1.29L235.817,566.417z M229.848,556.068c0,0.479,0.375,0.839,0.84,0.839s0.84-0.36,0.84-0.824
			c0-0.465-0.375-0.854-0.84-0.854S229.848,555.603,229.848,556.068 M230.118,565.997h1.138v-6.703h-1.138V565.997z
			 M226.429,560.237v5.76h1.139v-5.76h1.26v-0.943h-1.26v-2.7h-1.139v2.7h-1.229v0.943H226.429z M224.732,564.409
			c-0.705,0.51-1.351,0.765-2.07,0.765c-1.395,0-2.4-1.081-2.4-2.431c0-1.591,1.021-2.581,2.49-2.581c0.66,0,1.29,0.21,1.86,0.585
			v-1.229c-0.615-0.299-1.335-0.464-2.085-0.464c-2.01,0-3.493,1.468-3.493,3.659c0,2.116,1.363,3.569,3.448,3.569
			c0.87,0,1.635-0.181,2.25-0.539V564.409z M216.259,562.713c0,1.545-0.84,2.431-2.19,2.431c-1.426,0-2.236-0.916-2.236-2.535
			c0-1.531,0.811-2.416,2.191-2.416C215.314,560.192,216.259,561.152,216.259,562.713 M217.367,559.294h-1.138v1.258
			c-0.511-0.99-1.336-1.498-2.461-1.498c-1.876,0-3.149,1.363-3.149,3.614c0,2.191,1.288,3.614,3.209,3.614
			c1.035,0,1.891-0.524,2.431-1.498v1.213h1.108V559.294z M203.404,562.683c0,1.592-0.87,2.491-2.251,2.491
			c-1.335,0-2.176-0.96-2.176-2.641c0-1.486,0.825-2.341,2.16-2.341C202.489,560.192,203.404,561.167,203.404,562.683
			 M204.512,554.644h-1.138v5.908c-0.51-0.989-1.335-1.498-2.446-1.498c-1.876,0-3.164,1.363-3.164,3.614
			c0,2.191,1.288,3.614,3.209,3.614c1.036,0,1.906-0.539,2.432-1.498v1.213h1.107V554.644z M189.994,565.997h1.138v-3.464
			c0-0.735,0-1.291,0.392-1.771c0.375-0.465,0.96-0.72,1.635-0.72c1.201,0,1.786,0.66,1.786,2.011v3.944h1.138v-4.561
			c0-1.515-0.958-2.383-2.518-2.383c-1.052,0-1.861,0.404-2.433,1.273v-1.034h-1.138V565.997z M186.664,562.713
			c0,1.545-0.84,2.431-2.19,2.431c-1.426,0-2.235-0.916-2.235-2.535c0-1.531,0.81-2.416,2.19-2.416
			C185.719,560.192,186.664,561.152,186.664,562.713 M187.773,559.294h-1.14v1.258c-0.51-0.99-1.335-1.498-2.461-1.498
			c-1.875,0-3.148,1.363-3.148,3.614c0,2.191,1.289,3.614,3.209,3.614c1.036,0,1.891-0.524,2.431-1.498v1.213h1.109V559.294z
			 M173.569,560.043l-1.531-0.675c-0.975-0.436-1.44-0.96-1.44-1.727c0-0.915,0.676-1.56,1.637-1.56c0.765,0,1.35,0.42,1.814,1.229
			l1.05-0.675c-0.524-1.063-1.484-1.618-2.774-1.618c-1.786,0-3.014,1.139-3.014,2.639c0,1.306,0.688,2.235,2.112,2.836l1.307,0.555
			c1.109,0.48,1.666,1.186,1.666,2.146c0,1.171-0.856,1.995-2.146,1.995c-1.081,0-1.815-0.675-2.131-1.98l-1.153,0.571
			c0.405,1.59,1.588,2.487,3.284,2.487c2.071,0,3.435-1.317,3.435-3.283C175.684,561.633,174.964,560.658,173.569,560.043
			 M163.759,557.673l1.709,3.946h-3.419L163.759,557.673z M163.759,554.854l-4.858,11.144h1.379l1.395-3.285h4.185l1.395,3.285h1.38
			L163.759,554.854z M153.021,561.889h-4.082c0.119-1.141,0.944-1.847,2.041-1.847C152.194,560.042,152.945,560.703,153.021,561.889
			 M154.248,562.817v-0.226c0-2.22-1.258-3.553-3.224-3.553c-1.951,0-3.345,1.468-3.345,3.583c0,2.19,1.378,3.66,3.419,3.66
			c1.382,0,2.431-0.614,3.104-1.829l-0.869-0.585c-0.554,0.976-1.274,1.456-2.175,1.456c-1.291,0-2.221-0.946-2.221-2.402v-0.104
			H154.248z M143.81,566.417l3.299-7.123h-1.29l-2.024,4.679l-2.009-4.679h-1.29L143.81,566.417z M137.84,556.068
			c0,0.479,0.375,0.839,0.839,0.839c0.465,0,0.84-0.36,0.84-0.824c0-0.465-0.375-0.854-0.84-0.854
			C138.215,555.229,137.84,555.603,137.84,556.068 M138.11,565.997h1.138v-6.703h-1.138V565.997z M134.42,560.237v5.76h1.138v-5.76
			h1.261v-0.943h-1.261v-2.7h-1.138v2.7h-1.229v0.943H134.42z M132.724,564.409c-0.704,0.51-1.35,0.765-2.069,0.765
			c-1.396,0-2.4-1.081-2.4-2.431c0-1.591,1.021-2.581,2.49-2.581c0.66,0,1.29,0.21,1.86,0.585v-1.229
			c-0.615-0.299-1.335-0.464-2.085-0.464c-2.011,0-3.494,1.468-3.494,3.659c0,2.116,1.363,3.569,3.448,3.569
			c0.87,0,1.636-0.181,2.25-0.539V564.409z M124.251,562.713c0,1.545-0.841,2.431-2.19,2.431c-1.427,0-2.236-0.916-2.236-2.535
			c0-1.531,0.81-2.416,2.19-2.416C123.305,560.192,124.251,561.152,124.251,562.713 M125.359,559.294h-1.139v1.258
			c-0.511-0.99-1.336-1.498-2.461-1.498c-1.876,0-3.148,1.363-3.148,3.614c0,2.191,1.288,3.614,3.209,3.614
			c1.035,0,1.89-0.524,2.431-1.498v1.213h1.108V559.294z M110.136,568.129l0.839,0.328l1.8-3.885l-1.244-0.434L110.136,568.129z
			 M104.63,557.673l1.709,3.946h-3.419L104.63,557.673z M104.63,554.854l-4.858,11.144h1.379l1.395-3.285h4.185l1.395,3.285h1.38
			L104.63,554.854z M93.291,565.997h1.273v-5.115h0.149l3.916,5.115h1.619l-4.094-5.115h0.225c1.891,0,2.895-0.928,2.895-2.684
			c0-1.052-0.39-1.906-1.004-2.386c-0.659-0.509-1.44-0.538-2.46-0.538h-2.52V565.997z M94.564,556.352h0.945
			c1.695,0,2.506,0.301,2.506,1.861c0,1.486-0.825,1.726-2.506,1.726h-0.945V556.352z"/>
		<path clip-path="url(#SVGID_46_)" fill="#808285" d="M792.865,543.889h-4.082c0.12-1.141,0.944-1.847,2.041-1.847
			C792.039,542.042,792.79,542.703,792.865,543.889 M794.093,544.817v-0.226c0-2.22-1.258-3.553-3.224-3.553
			c-1.951,0-3.344,1.468-3.344,3.583c0,2.19,1.378,3.66,3.419,3.66c1.381,0,2.43-0.614,3.104-1.829l-0.869-0.585
			c-0.554,0.976-1.274,1.456-2.175,1.456c-1.291,0-2.221-0.946-2.221-2.402v-0.104H794.093z M783.654,548.417l3.299-7.123h-1.29
			l-2.024,4.679l-2.009-4.679h-1.29L783.654,548.417z M777.685,538.068c0,0.479,0.375,0.839,0.839,0.839
			c0.465,0,0.84-0.36,0.84-0.824c0-0.465-0.375-0.854-0.84-0.854C778.06,537.229,777.685,537.603,777.685,538.068 M777.955,547.997
			h1.138v-6.703h-1.138V547.997z M774.265,542.237v5.76h1.139v-5.76h1.261v-0.943h-1.261v-2.7h-1.139v2.7h-1.229v0.943H774.265z
			 M772.569,546.409c-0.705,0.51-1.351,0.765-2.07,0.765c-1.396,0-2.4-1.081-2.4-2.431c0-1.591,1.021-2.581,2.49-2.581
			c0.66,0,1.29,0.21,1.86,0.585v-1.229c-0.615-0.299-1.335-0.464-2.085-0.464c-2.011,0-3.494,1.468-3.494,3.659
			c0,2.116,1.364,3.569,3.449,3.569c0.869,0,1.635-0.181,2.25-0.539V546.409z M764.096,544.713c0,1.545-0.841,2.431-2.19,2.431
			c-1.427,0-2.236-0.916-2.236-2.535c0-1.531,0.81-2.416,2.191-2.416C763.15,542.192,764.096,543.152,764.096,544.713
			 M765.204,541.294h-1.138v1.258c-0.512-0.99-1.337-1.498-2.462-1.498c-1.876,0-3.148,1.363-3.148,3.614
			c0,2.191,1.288,3.614,3.209,3.614c1.035,0,1.89-0.523,2.431-1.498v1.213h1.108V541.294z M751.736,543.889h-4.082
			c0.119-1.141,0.944-1.847,2.041-1.847C750.91,542.042,751.661,542.703,751.736,543.889 M752.964,544.817v-0.226
			c0-2.22-1.258-3.553-3.224-3.553c-1.951,0-3.345,1.468-3.345,3.583c0,2.19,1.378,3.66,3.419,3.66c1.382,0,2.431-0.614,3.104-1.829
			l-0.869-0.585c-0.554,0.976-1.274,1.456-2.175,1.456c-1.291,0-2.221-0.946-2.221-2.402v-0.104H752.964z M741.806,547.997h1.139
			v-3.27c0-1.756,0.6-2.626,1.814-2.626c0.21,0,0.45,0.045,0.705,0.136l0.39-1.033c-0.255-0.09-0.51-0.135-0.779-0.135
			c-1.021,0-1.65,0.479-2.25,1.617v-1.394h-1.019V547.997z M738.911,543.889h-4.082c0.12-1.141,0.946-1.847,2.041-1.847
			C738.086,542.042,738.836,542.703,738.911,543.889 M740.139,544.817v-0.226c0-2.22-1.258-3.553-3.224-3.553
			c-1.951,0-3.344,1.468-3.344,3.583c0,2.19,1.378,3.66,3.419,3.66c1.381,0,2.43-0.614,3.104-1.829l-0.868-0.585
			c-0.555,0.976-1.274,1.456-2.176,1.456c-1.29,0-2.221-0.946-2.221-2.402v-0.104H740.139z M729.7,548.417l3.299-7.123h-1.289
			l-2.025,4.679l-2.009-4.679h-1.29L729.7,548.417z M724.616,543.889h-4.082c0.12-1.141,0.945-1.847,2.041-1.847
			C723.791,542.042,724.541,542.703,724.616,543.889 M725.844,544.817v-0.226c0-2.22-1.258-3.553-3.224-3.553
			c-1.951,0-3.345,1.468-3.345,3.583c0,2.19,1.379,3.66,3.42,3.66c1.381,0,2.43-0.614,3.104-1.829l-0.868-0.585
			c-0.555,0.976-1.274,1.456-2.176,1.456c-1.29,0-2.221-0.946-2.221-2.402v-0.104H725.844z M713.126,546.874
			c0.524,0.944,1.393,1.408,2.639,1.408c1.486,0,2.444-0.883,2.444-2.129c0-1.096-0.643-1.575-1.948-1.995
			c-1.11-0.36-1.727-0.45-1.727-1.156c0-0.585,0.466-1.005,1.141-1.005c0.706,0,1.261,0.345,1.531,0.96l0.929-0.57
			c-0.359-0.854-1.229-1.333-2.385-1.333c-1.425,0-2.369,0.854-2.369,2.023c0,1.321,0.989,1.605,2.64,2.176
			c0.705,0.24,1.051,0.51,1.051,1.021c0,0.585-0.495,1.005-1.262,1.005c-0.765,0-1.335-0.346-1.71-1.065L713.126,546.874z
			 M701.695,544.668c0-1.426,1.08-2.536,2.431-2.536c1.335,0,2.415,1.11,2.415,2.536c0,1.425-1.08,2.536-2.415,2.536
			C702.79,547.204,701.695,546.093,701.695,544.668 M700.481,544.668c0,0.975,0.359,1.846,1.063,2.551
			c0.69,0.689,1.59,1.063,2.581,1.063c0.975,0,1.875-0.39,2.58-1.078c0.688-0.675,1.063-1.562,1.063-2.536s-0.375-1.876-1.063-2.551
			c-0.705-0.689-1.59-1.063-2.58-1.063c-0.991,0-1.891,0.359-2.581,1.048C700.841,542.792,700.481,543.693,700.481,544.668
			 M697.392,542.237v5.76h1.139v-5.76h1.26v-0.943h-1.26v-2.7h-1.139v2.7h-1.229v0.943H697.392z M689.981,543.889H685.9
			c0.119-1.141,0.944-1.847,2.041-1.847C689.156,542.042,689.907,542.703,689.981,543.889 M691.21,544.817v-0.226
			c0-2.22-1.258-3.553-3.224-3.553c-1.951,0-3.345,1.468-3.345,3.583c0,2.19,1.378,3.66,3.419,3.66c1.381,0,2.431-0.614,3.104-1.829
			l-0.869-0.585c-0.554,0.976-1.275,1.456-2.175,1.456c-1.291,0-2.221-0.946-2.221-2.402v-0.104H691.21z M681.597,542.237v5.76
			h1.139v-5.76h1.26v-0.943h-1.26v-2.7h-1.139v2.7h-1.229v0.943H681.597z M678.087,544.713c0,1.545-0.84,2.431-2.191,2.431
			c-1.425,0-2.235-0.916-2.235-2.535c0-1.531,0.811-2.416,2.19-2.416C677.142,542.192,678.087,543.152,678.087,544.713
			 M679.195,541.294h-1.139v1.258c-0.51-0.99-1.335-1.498-2.461-1.498c-1.876,0-3.148,1.363-3.148,3.614
			c0,2.191,1.288,3.614,3.209,3.614c1.035,0,1.891-0.523,2.431-1.498v1.213h1.108V541.294z M667.782,547.997h1.138v-3.27
			c0-1.756,0.6-2.626,1.815-2.626c0.21,0,0.449,0.045,0.704,0.136l0.391-1.033c-0.255-0.09-0.51-0.135-0.78-0.135
			c-1.02,0-1.649,0.479-2.249,1.617v-1.394h-1.019V547.997z M664.887,543.889h-4.081c0.12-1.141,0.945-1.847,2.04-1.847
			C664.062,542.042,664.812,542.703,664.887,543.889 M666.116,544.817v-0.226c0-2.22-1.26-3.553-3.226-3.553
			c-1.949,0-3.344,1.468-3.344,3.583c0,2.19,1.379,3.66,3.42,3.66c1.38,0,2.43-0.614,3.104-1.829l-0.869-0.585
			c-0.556,0.976-1.275,1.456-2.175,1.456c-1.291,0-2.222-0.946-2.222-2.402v-0.104H666.116z M656.758,544.683
			c0,1.592-0.871,2.491-2.251,2.491c-1.336,0-2.176-0.96-2.176-2.641c0-1.486,0.825-2.341,2.161-2.341
			C655.842,542.192,656.758,543.167,656.758,544.683 M657.866,536.644h-1.139v5.908c-0.511-0.989-1.336-1.498-2.445-1.498
			c-1.876,0-3.164,1.363-3.164,3.614c0,2.191,1.288,3.614,3.209,3.614c1.035,0,1.904-0.539,2.431-1.498v1.213h1.108V536.644z
			 M643.841,544.668c0-1.426,1.08-2.536,2.431-2.536c1.335,0,2.416,1.11,2.416,2.536c0,1.425-1.081,2.536-2.416,2.536
			C644.936,547.204,643.841,546.093,643.841,544.668 M642.628,544.668c0,0.975,0.359,1.846,1.063,2.551
			c0.689,0.689,1.59,1.063,2.58,1.063c0.976,0,1.876-0.39,2.581-1.078c0.688-0.675,1.063-1.562,1.063-2.536
			s-0.375-1.876-1.063-2.551c-0.705-0.689-1.591-1.063-2.581-1.063s-1.891,0.359-2.58,1.048
			C642.987,542.792,642.628,543.693,642.628,544.668 M639.853,547.997h1.139v-4.561c0-1.515-0.898-2.383-2.385-2.383
			c-1.02,0-1.801,0.435-2.386,1.363c-0.389-0.899-1.168-1.363-2.249-1.363c-1.005,0-1.771,0.419-2.311,1.273v-1.034h-1.139v6.704
			h1.139v-3.464c0-0.165-0.016-0.33-0.016-0.48c0-0.511,0.061-0.931,0.346-1.291c0.359-0.465,0.916-0.72,1.53-0.72
			c1.142,0,1.666,0.66,1.666,2.011v3.944h1.139v-3.464c0-0.15-0.016-0.285-0.016-0.42c0-0.557,0.075-0.977,0.36-1.352
			c0.36-0.465,0.901-0.72,1.516-0.72c1.142,0,1.666,0.66,1.666,2.011V547.997z M617.893,547.997h1.139v-3.464
			c0-0.735,0-1.291,0.39-1.771c0.376-0.465,0.961-0.72,1.636-0.72c1.201,0,1.786,0.66,1.786,2.011v3.944h1.138v-4.561
			c0-1.515-0.958-2.383-2.519-2.383c-1.05,0-1.861,0.404-2.446,1.273v-5.684h-1.123V547.997z M614.263,542.237v5.76h1.138v-5.76
			h1.261v-0.943H615.4v-2.7h-1.138v2.7h-1.229v0.943H614.263z M610.318,538.068c0,0.479,0.375,0.839,0.84,0.839
			c0.464,0,0.839-0.36,0.839-0.824c0-0.465-0.375-0.854-0.839-0.854C610.693,537.229,610.318,537.603,610.318,538.068
			 M610.588,547.997h1.138v-6.703h-1.138V547.997z M604.333,541.054h-0.18l-2.04,4.814l-1.785-4.574h-1.274l2.984,7.123l2.205-5.146
			l2.204,5.146l2.984-7.123h-1.29l-1.8,4.574L604.333,541.054z M589.139,546.874c0.524,0.944,1.394,1.408,2.64,1.408
			c1.484,0,2.443-0.883,2.443-2.129c0-1.096-0.644-1.575-1.949-1.995c-1.11-0.36-1.726-0.45-1.726-1.156
			c0-0.585,0.465-1.005,1.141-1.005c0.705,0,1.262,0.345,1.53,0.96l0.929-0.57c-0.358-0.854-1.228-1.333-2.384-1.333
			c-1.426,0-2.369,0.854-2.369,2.023c0,1.321,0.988,1.605,2.64,2.176c0.705,0.24,1.051,0.51,1.051,1.021
			c0,0.585-0.496,1.005-1.261,1.005c-0.767,0-1.336-0.346-1.71-1.065L589.139,546.874z M586.214,542.237v5.76h1.138v-5.76h1.261
			v-0.943h-1.261v-2.7h-1.138v2.7h-1.229v0.943H586.214z M582.539,547.997h1.138v-11.354h-1.138V547.997z M575.396,541.294h-1.138
			v4.004c0,1.966,1.063,2.984,3.014,2.984c2.012,0,3.06-1.048,3.06-3.074v-3.914h-1.138v3.299c0,1.771-0.421,2.596-1.892,2.596
			s-1.906-0.824-1.906-2.596V541.294z M570.974,544.683c0,1.592-0.87,2.491-2.251,2.491c-1.335,0-2.176-0.96-2.176-2.641
			c0-1.486,0.826-2.341,2.161-2.341C570.059,542.192,570.974,543.167,570.974,544.683 M572.082,536.644h-1.138v5.908
			c-0.511-0.989-1.335-1.498-2.446-1.498c-1.876,0-3.164,1.363-3.164,3.614c0,2.191,1.288,3.614,3.209,3.614
			c1.036,0,1.906-0.539,2.431-1.498v1.213h1.108V536.644z M562.514,544.713c0,1.545-0.84,2.431-2.189,2.431
			c-1.427,0-2.236-0.916-2.236-2.535c0-1.531,0.81-2.416,2.19-2.416C561.569,542.192,562.514,543.152,562.514,544.713
			 M563.623,541.294h-1.139v1.258c-0.511-0.99-1.336-1.498-2.462-1.498c-1.875,0-3.148,1.363-3.148,3.614
			c0,2.191,1.289,3.614,3.209,3.614c1.036,0,1.891-0.523,2.431-1.498v1.213h1.109V541.294z M549.075,547.997h1.138v-5.76h1.785
			v-0.943h-1.785v-1.786c0-1.291,0.03-1.906,0.885-1.906c0.3,0,0.601,0.075,0.9,0.24v-1.183c-0.315-0.105-0.646-0.15-0.99-0.15
			c-1.604,0-1.933,0.838-1.933,2.85v1.936h-1.29v0.943h1.29V547.997z M540.988,544.668c0-1.426,1.08-2.536,2.431-2.536
			c1.335,0,2.416,1.11,2.416,2.536c0,1.425-1.081,2.536-2.416,2.536C542.083,547.204,540.988,546.093,540.988,544.668
			 M539.775,544.668c0,0.975,0.358,1.846,1.062,2.551c0.69,0.689,1.591,1.063,2.581,1.063c0.975,0,1.876-0.39,2.581-1.078
			c0.688-0.675,1.062-1.562,1.062-2.536s-0.374-1.876-1.062-2.551c-0.705-0.689-1.591-1.063-2.581-1.063s-1.891,0.359-2.581,1.048
			C540.134,542.792,539.775,543.693,539.775,544.668 M532.335,542.237v5.76h1.138v-5.76h1.26v-0.943h-1.26v-2.7h-1.138v2.7h-1.23
			v0.943H532.335z M523.875,547.997h1.138v-3.464c0-0.735,0-1.291,0.392-1.771c0.375-0.465,0.96-0.72,1.635-0.72
			c1.201,0,1.786,0.66,1.786,2.011v3.944h1.138v-4.561c0-1.515-0.958-2.383-2.518-2.383c-1.052,0-1.861,0.404-2.433,1.273v-1.034
			h-1.138V547.997z M520.995,543.889h-4.081c0.12-1.141,0.945-1.847,2.04-1.847C520.17,542.042,520.92,542.703,520.995,543.889
			 M522.224,544.817v-0.226c0-2.22-1.259-3.553-3.225-3.553c-1.95,0-3.344,1.468-3.344,3.583c0,2.19,1.379,3.66,3.419,3.66
			c1.381,0,2.431-0.614,3.104-1.829l-0.869-0.585c-0.555,0.976-1.274,1.456-2.175,1.456c-1.291,0-2.221-0.946-2.221-2.402v-0.104
			H522.224z M512.925,547.997h1.139v-4.561c0-1.515-0.898-2.383-2.384-2.383c-1.021,0-1.801,0.435-2.386,1.363
			c-0.39-0.899-1.169-1.363-2.249-1.363c-1.006,0-1.771,0.419-2.311,1.273v-1.034h-1.139v6.704h1.139v-3.464
			c0-0.165-0.016-0.33-0.016-0.48c0-0.511,0.061-0.931,0.345-1.291c0.36-0.465,0.915-0.72,1.531-0.72c1.14,0,1.665,0.66,1.665,2.011
			v3.944h1.139v-3.464c0-0.15-0.015-0.285-0.015-0.42c0-0.557,0.075-0.977,0.36-1.352c0.359-0.465,0.899-0.72,1.516-0.72
			c1.141,0,1.665,0.66,1.665,2.011V547.997z M499.966,542.237v5.76h1.138v-5.76h1.261v-0.943h-1.261v-2.7h-1.138v2.7h-1.229v0.943
			H499.966z M496.456,544.713c0,1.545-0.84,2.431-2.191,2.431c-1.426,0-2.235-0.916-2.235-2.535c0-1.531,0.81-2.416,2.19-2.416
			C495.51,542.192,496.456,543.152,496.456,544.713 M497.563,541.294h-1.138v1.258c-0.51-0.99-1.336-1.498-2.461-1.498
			c-1.876,0-3.149,1.363-3.149,3.614c0,2.191,1.288,3.614,3.21,3.614c1.034,0,1.891-0.523,2.431-1.498v1.213h1.107V541.294z
			 M488.446,543.889h-4.082c0.12-1.141,0.945-1.847,2.041-1.847C487.621,542.042,488.371,542.703,488.446,543.889 M489.674,544.817
			v-0.226c0-2.22-1.258-3.553-3.224-3.553c-1.951,0-3.345,1.468-3.345,3.583c0,2.19,1.379,3.66,3.42,3.66
			c1.381,0,2.43-0.614,3.104-1.829l-0.868-0.585c-0.555,0.976-1.274,1.456-2.176,1.456c-1.29,0-2.221-0.946-2.221-2.402v-0.104
			H489.674z M478.516,547.997h1.139v-3.27c0-1.756,0.6-2.626,1.814-2.626c0.21,0,0.45,0.045,0.705,0.136l0.39-1.033
			c-0.255-0.09-0.51-0.135-0.779-0.135c-1.021,0-1.65,0.479-2.25,1.617v-1.394h-1.019V547.997z M474.871,542.237v5.76h1.138v-5.76
			h1.26v-0.943h-1.26v-2.7h-1.138v2.7h-1.23v0.943H474.871z M467.461,543.889h-4.081c0.12-1.141,0.945-1.847,2.04-1.847
			C466.636,542.042,467.386,542.703,467.461,543.889 M468.689,544.817v-0.226c0-2.22-1.259-3.553-3.225-3.553
			c-1.95,0-3.344,1.468-3.344,3.583c0,2.19,1.379,3.66,3.42,3.66c1.38,0,2.43-0.614,3.104-1.829l-0.868-0.585
			c-0.556,0.976-1.275,1.456-2.176,1.456c-1.291,0-2.221-0.946-2.221-2.402v-0.104H468.689z M454.427,547.997h1.138v-3.464
			c0-0.735,0-1.291,0.391-1.771c0.375-0.465,0.96-0.72,1.636-0.72c1.2,0,1.786,0.66,1.786,2.011v3.944h1.138v-4.561
			c0-1.515-0.959-2.383-2.519-2.383c-1.051,0-1.861,0.404-2.446,1.273v-5.684h-1.123V547.997z M450.797,542.237v5.76h1.138v-5.76
			h1.261v-0.943h-1.261v-2.7h-1.138v2.7h-1.23v0.943H450.797z M441.092,547.997h1.138v-3.27c0-1.756,0.601-2.626,1.815-2.626
			c0.21,0,0.45,0.045,0.705,0.136l0.39-1.033c-0.255-0.09-0.51-0.135-0.779-0.135c-1.021,0-1.65,0.479-2.25,1.617v-1.394h-1.019
			V547.997z M433.29,544.668c0-1.426,1.081-2.536,2.431-2.536c1.336,0,2.416,1.11,2.416,2.536c0,1.425-1.08,2.536-2.416,2.536
			C434.386,547.204,433.29,546.093,433.29,544.668 M432.077,544.668c0,0.975,0.358,1.846,1.062,2.551
			c0.69,0.689,1.591,1.063,2.581,1.063c0.976,0,1.876-0.39,2.581-1.078c0.689-0.675,1.063-1.562,1.063-2.536
			s-0.374-1.876-1.063-2.551c-0.705-0.689-1.591-1.063-2.581-1.063s-1.891,0.359-2.581,1.048
			C432.436,542.792,432.077,543.693,432.077,544.668 M428.657,547.997h1.138v-5.76h1.785v-0.943h-1.785v-1.786
			c0-1.291,0.03-1.906,0.885-1.906c0.3,0,0.601,0.075,0.9,0.24v-1.183c-0.315-0.105-0.646-0.15-0.99-0.15
			c-1.603,0-1.933,0.838-1.933,2.85v1.936h-1.29v0.943h1.29V547.997z M420.632,544.683c0,1.592-0.87,2.491-2.251,2.491
			c-1.335,0-2.176-0.96-2.176-2.641c0-1.486,0.826-2.341,2.161-2.341C419.717,542.192,420.632,543.167,420.632,544.683
			 M421.74,536.644h-1.139v5.908c-0.51-0.989-1.335-1.498-2.445-1.498c-1.875,0-3.164,1.363-3.164,3.614
			c0,2.191,1.289,3.614,3.209,3.614c1.036,0,1.905-0.539,2.431-1.498v1.213h1.108V536.644z M412.622,543.889h-4.081
			c0.12-1.141,0.945-1.847,2.041-1.847C411.797,542.042,412.547,542.703,412.622,543.889 M413.851,544.817v-0.226
			c0-2.22-1.259-3.553-3.224-3.553c-1.951,0-3.345,1.468-3.345,3.583c0,2.19,1.379,3.66,3.42,3.66c1.38,0,2.43-0.614,3.104-1.829
			l-0.869-0.585c-0.555,0.976-1.274,1.456-2.175,1.456c-1.291,0-2.221-0.946-2.221-2.402v-0.104H413.851z M404.238,542.237v5.76
			h1.138v-5.76h1.26v-0.943h-1.26v-2.7h-1.138v2.7h-1.23v0.943H404.238z M400.728,544.713c0,1.545-0.84,2.431-2.19,2.431
			c-1.426,0-2.236-0.916-2.236-2.535c0-1.531,0.811-2.416,2.191-2.416C399.783,542.192,400.728,543.152,400.728,544.713
			 M401.836,541.294h-1.138v1.258c-0.511-0.99-1.336-1.498-2.461-1.498c-1.876,0-3.149,1.363-3.149,3.614
			c0,2.191,1.288,3.614,3.209,3.614c1.035,0,1.891-0.523,2.431-1.498v1.213h1.108V541.294z M394.081,546.409
			c-0.705,0.51-1.351,0.765-2.07,0.765c-1.395,0-2.399-1.081-2.399-2.431c0-1.591,1.02-2.581,2.489-2.581
			c0.66,0,1.29,0.21,1.86,0.585v-1.229c-0.615-0.299-1.335-0.464-2.085-0.464c-2.01,0-3.493,1.468-3.493,3.659
			c0,2.116,1.363,3.569,3.448,3.569c0.87,0,1.635-0.181,2.25-0.539V546.409z M385.173,538.068c0,0.479,0.375,0.839,0.839,0.839
			s0.839-0.36,0.839-0.824c0-0.465-0.375-0.854-0.839-0.854S385.173,537.603,385.173,538.068 M385.443,547.997h1.138v-6.703h-1.138
			V547.997z M382.008,544.683c0,1.592-0.87,2.491-2.251,2.491c-1.335,0-2.176-0.96-2.176-2.641c0-1.486,0.826-2.341,2.161-2.341
			C381.093,542.192,382.008,543.167,382.008,544.683 M383.116,536.644h-1.139v5.908c-0.51-0.989-1.335-1.498-2.445-1.498
			c-1.876,0-3.164,1.363-3.164,3.614c0,2.191,1.288,3.614,3.209,3.614c1.036,0,1.905-0.539,2.431-1.498v1.213h1.108V536.644z
			 M368.598,547.997h1.14v-3.464c0-0.735,0-1.291,0.39-1.771c0.375-0.465,0.96-0.72,1.636-0.72c1.2,0,1.785,0.66,1.785,2.011v3.944
			h1.139v-4.561c0-1.515-0.959-2.383-2.519-2.383c-1.051,0-1.861,0.404-2.431,1.273v-1.034h-1.14V547.997z M364.834,538.068
			c0,0.479,0.374,0.839,0.839,0.839c0.464,0,0.839-0.36,0.839-0.824c0-0.465-0.375-0.854-0.839-0.854
			C365.208,537.229,364.834,537.603,364.834,538.068 M365.104,547.997h1.139v-6.703h-1.139V547.997z M353.959,546.874
			c0.523,0.944,1.393,1.408,2.639,1.408c1.485,0,2.444-0.883,2.444-2.129c0-1.096-0.645-1.575-1.949-1.995
			c-1.111-0.36-1.726-0.45-1.726-1.156c0-0.585,0.465-1.005,1.141-1.005c0.705,0,1.261,0.345,1.53,0.96l0.929-0.57
			c-0.359-0.854-1.228-1.333-2.384-1.333c-1.426,0-2.369,0.854-2.369,2.023c0,1.321,0.988,1.605,2.639,2.176
			c0.705,0.24,1.052,0.51,1.052,1.021c0,0.585-0.496,1.005-1.262,1.005s-1.336-0.346-1.71-1.065L353.959,546.874z M350.898,538.068
			c0,0.479,0.375,0.839,0.84,0.839c0.464,0,0.839-0.36,0.839-0.824c0-0.465-0.375-0.854-0.839-0.854
			C351.273,537.229,350.898,537.603,350.898,538.068 M351.169,547.997h1.138v-6.703h-1.138V547.997z M341.959,538.455
			c0.674,0,0.989,0.175,0.989,0.639c0,0.455-0.308,0.604-0.973,0.604h-0.63v-1.243H341.959z M342.072,538.062h-1.328v3.586h0.602
			v-1.559h0.761l0.754,1.559h0.672l-0.804-1.646c0.524-0.087,0.838-0.454,0.838-0.953
			C343.566,538.377,343.07,538.062,342.072,538.062 M344.758,539.925c0,0.743-0.289,1.416-0.805,1.924
			c-0.543,0.533-1.233,0.813-1.978,0.813c-0.717,0-1.406-0.28-1.932-0.813s-0.814-1.216-0.814-1.941
			c0-0.734,0.289-1.436,0.831-1.977c0.509-0.516,1.181-0.788,1.925-0.788c0.761,0,1.442,0.28,1.976,0.814
			C344.478,538.472,344.758,539.173,344.758,539.925 M341.985,536.768c-0.849,0-1.609,0.314-2.187,0.901
			c-0.613,0.612-0.944,1.407-0.944,2.238s0.323,1.608,0.917,2.204c0.604,0.604,1.383,0.935,2.214,0.935
			c0.822,0,1.608-0.331,2.229-0.935c0.595-0.577,0.909-1.348,0.909-2.204c0-0.839-0.314-1.626-0.9-2.212
			C343.62,537.091,342.843,536.768,341.985,536.768 M336.188,544.713c0,1.545-0.84,2.431-2.19,2.431
			c-1.425,0-2.236-0.916-2.236-2.535c0-1.531,0.812-2.416,2.191-2.416C335.243,542.192,336.188,543.152,336.188,544.713
			 M337.296,541.294h-1.138v1.258c-0.511-0.99-1.335-1.498-2.461-1.498c-1.876,0-3.149,1.363-3.149,3.614
			c0,2.191,1.288,3.614,3.209,3.614c1.036,0,1.891-0.523,2.431-1.498v1.213h1.108V541.294z M327.293,538.068
			c0,0.479,0.375,0.839,0.84,0.839c0.464,0,0.839-0.36,0.839-0.824c0-0.465-0.375-0.854-0.839-0.854
			C327.668,537.229,327.293,537.603,327.293,538.068 M327.562,547.997h1.139v-6.703h-1.139V547.997z M320.168,547.997h5.834v-1.003
			h-3.809l3.839-5.7h-5.624v1.003h3.599L320.168,547.997z M317.799,547.997h1.138v-4.561c0-1.515-0.898-2.383-2.384-2.383
			c-1.021,0-1.801,0.435-2.386,1.363c-0.389-0.899-1.168-1.363-2.249-1.363c-1.006,0-1.771,0.419-2.312,1.273v-1.034h-1.138v6.704
			h1.138v-3.464c0-0.165-0.015-0.33-0.015-0.48c0-0.511,0.061-0.931,0.345-1.291c0.36-0.465,0.915-0.72,1.531-0.72
			c1.14,0,1.666,0.66,1.666,2.011v3.944h1.138v-3.464c0-0.15-0.015-0.285-0.015-0.42c0-0.557,0.075-0.977,0.36-1.352
			c0.359-0.465,0.899-0.72,1.516-0.72c1.14,0,1.666,0.66,1.666,2.011V547.997z M304.704,538.068c0,0.479,0.375,0.839,0.839,0.839
			s0.839-0.36,0.839-0.824c0-0.465-0.375-0.854-0.839-0.854S304.704,537.603,304.704,538.068 M304.974,547.997h1.139v-6.703h-1.139
			V547.997z M302.932,539.837v-1.665c-1.109-0.764-2.25-1.153-3.524-1.153c-1.575,0-2.896,0.524-3.99,1.573
			c-1.124,1.095-1.678,2.432-1.678,4.096c0,1.905,0.854,3.526,2.413,4.606c0.93,0.644,2.024,0.988,3.164,0.988
			c1.306,0,2.551-0.404,3.615-1.168v-1.695c-0.975,1.14-2.16,1.695-3.51,1.695c-1.455,0-2.76-0.69-3.615-1.906
			c-0.495-0.705-0.734-1.545-0.734-2.535c0-1.26,0.404-2.311,1.229-3.166c0.795-0.825,1.936-1.305,3.061-1.305
			C300.757,538.202,301.896,538.712,302.932,539.837 M290.416,539.321l-0.411,1.164h-1.12l0.403-1.164H290.416z M290.197,536.786
			h-0.621l-0.717,2.011h-1.47l-0.183,0.524h1.46l-0.411,1.164h-1.364l-0.184,0.523h1.364l-0.708,1.993h0.611l0.718-1.993h1.128
			l-0.718,1.993h0.621l0.708-1.993h1.416l0.185-0.523h-1.408l0.403-1.164h1.328l0.184-0.524h-1.312l0.699-2.011h-0.612l-0.717,2.011
			h-1.109L290.197,536.786z M278.897,547.278c0,0.479,0.374,0.854,0.869,0.854c0.494,0,0.884-0.375,0.884-0.854
			c0-0.48-0.39-0.869-0.884-0.869C279.287,546.409,278.897,546.798,278.897,547.278 M271.113,547.997h5.652v-1.184h-4.38v-4.111
			h4.38v-1.184h-4.38v-3.076h4.38v-1.168h-5.652V547.997z M264.348,547.997h5.323v-1.213h-4.05v-9.51h-1.273V547.997z
			 M256.606,547.084c-1.185,0-2.25-0.45-3.105-1.305c-0.84-0.856-1.29-1.921-1.29-3.121s0.45-2.296,1.29-3.151
			c0.826-0.84,1.921-1.29,3.105-1.29c1.186,0,2.267,0.45,3.106,1.29s1.29,1.951,1.29,3.151s-0.45,2.279-1.29,3.121
			C258.857,546.634,257.777,547.084,256.606,547.084 M262.336,542.658c0-1.53-0.569-2.926-1.663-3.991
			c-1.08-1.049-2.551-1.633-4.066-1.633c-1.515,0-2.971,0.584-4.051,1.633c-1.094,1.065-1.678,2.461-1.678,3.991
			c0,1.529,0.584,2.911,1.678,3.976c1.08,1.049,2.536,1.648,4.051,1.648c1.5,0,2.972-0.584,4.066-1.648
			C261.752,545.584,262.336,544.188,262.336,542.658 M241.728,547.997h1.139v-3.27c0-1.756,0.6-2.626,1.814-2.626
			c0.21,0,0.45,0.045,0.705,0.136l0.391-1.033c-0.256-0.09-0.511-0.135-0.78-0.135c-1.021,0-1.65,0.479-2.25,1.617v-1.394h-1.019
			V547.997z M233.926,544.668c0-1.426,1.081-2.536,2.431-2.536c1.337,0,2.416,1.11,2.416,2.536c0,1.425-1.079,2.536-2.416,2.536
			C235.021,547.204,233.926,546.093,233.926,544.668 M232.713,544.668c0,0.975,0.36,1.846,1.064,2.551
			c0.689,0.689,1.59,1.063,2.579,1.063c0.977,0,1.876-0.39,2.581-1.078c0.689-0.675,1.063-1.562,1.063-2.536
			s-0.374-1.876-1.063-2.551c-0.705-0.689-1.59-1.063-2.581-1.063c-0.989,0-1.89,0.359-2.579,1.048
			C233.073,542.792,232.713,543.693,232.713,544.668 M229.294,547.997h1.138v-5.76h1.785v-0.943h-1.785v-1.786
			c0-1.291,0.03-1.906,0.885-1.906c0.301,0,0.601,0.075,0.9,0.24v-1.183c-0.314-0.105-0.645-0.15-0.99-0.15
			c-1.604,0-1.933,0.838-1.933,2.85v1.936h-1.29v0.943h1.29V547.997z M221.269,544.683c0,1.592-0.871,2.491-2.251,2.491
			c-1.336,0-2.176-0.96-2.176-2.641c0-1.486,0.825-2.341,2.161-2.341C220.353,542.192,221.269,543.167,221.269,544.683
			 M222.377,536.644h-1.138v5.908c-0.512-0.989-1.336-1.498-2.446-1.498c-1.876,0-3.164,1.363-3.164,3.614
			c0,2.191,1.288,3.614,3.209,3.614c1.035,0,1.905-0.539,2.431-1.498v1.213h1.108V536.644z M213.259,543.889h-4.082
			c0.12-1.141,0.945-1.847,2.041-1.847C212.433,542.042,213.184,542.703,213.259,543.889 M214.487,544.817v-0.226
			c0-2.22-1.259-3.553-3.225-3.553c-1.951,0-3.344,1.468-3.344,3.583c0,2.19,1.378,3.66,3.419,3.66c1.381,0,2.43-0.614,3.104-1.829
			l-0.868-0.585c-0.555,0.976-1.275,1.456-2.176,1.456c-1.291,0-2.221-0.946-2.221-2.402v-0.104H214.487z M204.874,542.237v5.76
			h1.138v-5.76h1.26v-0.943h-1.26v-2.7h-1.138v2.7h-1.23v0.943H204.874z M199.519,547.997h1.139v-3.27
			c0-1.756,0.6-2.626,1.814-2.626c0.21,0,0.45,0.045,0.705,0.136l0.39-1.033c-0.255-0.09-0.51-0.135-0.779-0.135
			c-1.021,0-1.65,0.479-2.25,1.617v-1.394h-1.019V547.997z M191.717,544.668c0-1.426,1.081-2.536,2.431-2.536
			c1.337,0,2.416,1.11,2.416,2.536c0,1.425-1.079,2.536-2.416,2.536C192.812,547.204,191.717,546.093,191.717,544.668
			 M190.504,544.668c0,0.975,0.36,1.846,1.064,2.551c0.689,0.689,1.59,1.063,2.579,1.063c0.977,0,1.876-0.39,2.581-1.078
			c0.689-0.675,1.063-1.562,1.063-2.536s-0.374-1.876-1.063-2.551c-0.705-0.689-1.59-1.063-2.581-1.063
			c-0.989,0-1.89,0.359-2.579,1.048C190.864,542.792,190.504,543.693,190.504,544.668 M183.647,544.668
			c0-1.591,0.87-2.506,2.25-2.506c1.337,0,2.177,0.96,2.177,2.641c0,1.486-0.825,2.356-2.161,2.356
			C184.562,547.159,183.647,546.184,183.647,544.668 M182.539,551.252h1.139v-4.468c0.51,0.989,1.335,1.498,2.446,1.498
			c1.875,0,3.164-1.349,3.164-3.614c0-2.206-1.289-3.614-3.209-3.614c-1.036,0-1.921,0.524-2.446,1.498v-1.259h-1.094V551.252z
			 M179.66,543.889h-4.082c0.12-1.141,0.944-1.847,2.041-1.847C178.834,542.042,179.584,542.703,179.66,543.889 M180.888,544.817
			v-0.226c0-2.22-1.259-3.553-3.224-3.553c-1.951,0-3.344,1.468-3.344,3.583c0,2.19,1.378,3.66,3.419,3.66
			c1.38,0,2.43-0.614,3.104-1.829l-0.869-0.585c-0.555,0.976-1.274,1.456-2.175,1.456c-1.291,0-2.221-0.946-2.221-2.402v-0.104
			H180.888z M169.729,547.997h1.139v-3.27c0-1.756,0.6-2.626,1.814-2.626c0.21,0,0.45,0.045,0.705,0.136l0.391-1.033
			c-0.256-0.09-0.511-0.135-0.78-0.135c-1.021,0-1.65,0.479-2.25,1.617v-1.394h-1.019V547.997z M161.735,542.237v5.76h1.138v-5.76
			h1.26v-0.943h-1.26v-2.7h-1.138v2.7h-1.23v0.943H161.735z M153.768,544.668c0-1.426,1.081-2.536,2.432-2.536
			c1.336,0,2.416,1.11,2.416,2.536c0,1.425-1.08,2.536-2.416,2.536C154.864,547.204,153.768,546.093,153.768,544.668
			 M152.555,544.668c0,0.975,0.359,1.846,1.063,2.551c0.689,0.689,1.591,1.063,2.581,1.063c0.975,0,1.876-0.39,2.581-1.078
			c0.688-0.675,1.062-1.562,1.062-2.536s-0.374-1.876-1.062-2.551c-0.705-0.689-1.592-1.063-2.581-1.063
			c-0.99,0-1.892,0.359-2.581,1.048C152.914,542.792,152.555,543.693,152.555,544.668 M144.814,547.997h1.139v-3.464
			c0-0.735,0-1.291,0.39-1.771c0.376-0.465,0.961-0.72,1.636-0.72c1.201,0,1.786,0.66,1.786,2.011v3.944h1.139v-4.561
			c0-1.515-0.958-2.383-2.52-2.383c-1.05,0-1.86,0.404-2.431,1.273v-1.034h-1.139V547.997z M137.585,543.889h-4.082
			c0.12-1.141,0.946-1.847,2.041-1.847C136.76,542.042,137.51,542.703,137.585,543.889 M138.812,544.817v-0.226
			c0-2.22-1.258-3.553-3.224-3.553c-1.951,0-3.344,1.468-3.344,3.583c0,2.19,1.378,3.66,3.419,3.66c1.381,0,2.43-0.614,3.104-1.829
			l-0.868-0.585c-0.555,0.976-1.274,1.456-2.176,1.456c-1.29,0-2.221-0.946-2.221-2.402v-0.104H138.812z M125.748,541.294h-1.138
			v4.004c0,1.966,1.063,2.984,3.014,2.984c2.011,0,3.059-1.048,3.059-3.074v-3.914h-1.138v3.299c0,1.771-0.42,2.596-1.891,2.596
			s-1.906-0.824-1.906-2.596V541.294z M121.205,547.997h1.138v-11.354h-1.138V547.997z M117.815,544.713
			c0,1.545-0.841,2.431-2.19,2.431c-1.426,0-2.236-0.916-2.236-2.535c0-1.531,0.811-2.416,2.191-2.416
			C116.87,542.192,117.815,543.152,117.815,544.713 M118.924,541.294h-1.138v1.258c-0.512-0.99-1.336-1.498-2.461-1.498
			c-1.876,0-3.149,1.363-3.149,3.614c0,2.191,1.288,3.614,3.209,3.614c1.035,0,1.89-0.523,2.431-1.498v1.213h1.108V541.294z
			 M108.229,548.417l3.3-7.123h-1.29l-2.024,4.679l-2.01-4.679h-1.289L108.229,548.417z M94.279,544.668
			c0-1.591,0.869-2.506,2.251-2.506c1.336,0,2.176,0.96,2.176,2.641c0,1.486-0.825,2.356-2.161,2.356
			C95.194,547.159,94.279,546.184,94.279,544.668 M93.171,551.252h1.138v-4.468c0.511,0.989,1.336,1.498,2.446,1.498
			c1.876,0,3.164-1.349,3.164-3.614c0-2.206-1.288-3.614-3.209-3.614c-1.035,0-1.921,0.524-2.446,1.498v-1.259h-1.093V551.252z"/>
	</g>
</g>
</svg>
