<?xml version="1.0" encoding="utf-8"?>
<!-- Generator: Adobe Illustrator 15.1.0, SVG Export Plug-In . SVG Version: 6.00 Build 0)  -->
<!DOCTYPE svg PUBLIC "-//W3C//DTD SVG 1.1//EN" "http://www.w3.org/Graphics/SVG/1.1/DTD/svg11.dtd">
<svg version="1.1" id="art" xmlns="http://www.w3.org/2000/svg" xmlns:xlink="http://www.w3.org/1999/xlink" x="0px" y="0px"
	 width="912px" height="342px" viewBox="0 0 912 342" enable-background="new 0 0 912 342" xml:space="preserve">
<rect y="320" fill="#F3E3D5" width="912" height="20"/>
<rect fill="#F3E3D5" width="912" height="40"/>
<rect y="80" fill="#F3E3D5" width="912" height="40"/>
<rect y="160" fill="#F3E3D5" width="912" height="40"/>
<rect y="240" fill="#F3E3D5" width="912" height="40"/>
<g>
	<defs>
		<rect id="SVGID_1_" x="-9" y="-1" width="930" height="342.5"/>
	</defs>
	<clipPath id="SVGID_2_">
		<use xlink:href="#SVGID_1_"  overflow="visible"/>
	</clipPath>
	<line clip-path="url(#SVGID_2_)" fill="none" stroke="#6D6E71" stroke-dasharray="4,4" x1="798" y1="0" x2="798" y2="340"/>
	<line clip-path="url(#SVGID_2_)" fill="none" stroke="#6D6E71" stroke-dasharray="4,4" x1="171" y1="0" x2="171" y2="340"/>
	
		<line clip-path="url(#SVGID_2_)" fill="none" stroke="#6D6E71" stroke-dasharray="4,4" x1="456.052" y1="0" x2="456.052" y2="340"/>
	<polyline clip-path="url(#SVGID_2_)" fill="none" stroke="#808285" stroke-width="2" points="114,340.281 171.393,295.2 
		227.904,283.2 341.926,291.2 456.052,280 569.971,279.2 683.997,276.801 797.515,271.2 	"/>
	<polyline clip-path="url(#SVGID_2_)" fill="none" stroke="#F9A25E" stroke-width="2" points="113.179,340 142.5,240 171,232.8 
		228,209.6 342,196 456.052,192 570,175.2 684,159.2 798,152.8 	"/>
	<line clip-path="url(#SVGID_2_)" fill="none" stroke="#F9A25E" stroke-width="3" x1="0" y1="340" x2="912" y2="340"/>
</g>
</svg>
