<?xml version="1.0" encoding="utf-8"?>
<!-- Generator: Adobe Illustrator 15.1.0, SVG Export Plug-In . SVG Version: 6.00 Build 0)  -->
<!DOCTYPE svg PUBLIC "-//W3C//DTD SVG 1.1//EN" "http://www.w3.org/Graphics/SVG/1.1/DTD/svg11.dtd">
<svg version="1.1" id="art" xmlns="http://www.w3.org/2000/svg" xmlns:xlink="http://www.w3.org/1999/xlink" x="0px" y="0px"
	 width="912px" height="543px" viewBox="0 0 912 543" enable-background="new 0 0 912 543" xml:space="preserve">
<g>
	<g>
		<g>
			<defs>
				<rect id="SVGID_1_" width="912" height="394.65"/>
			</defs>
			<clipPath id="SVGID_2_">
				<use xlink:href="#SVGID_1_"  overflow="visible"/>
			</clipPath>
			<line clip-path="url(#SVGID_2_)" fill="none" stroke="#F8A15E" stroke-width="3" x1="0" y1="392.05" x2="912" y2="392.05"/>
		</g>
	</g>
	<g>
		<g>
			<defs>
				<rect id="SVGID_3_" width="912" height="394.65"/>
			</defs>
			<clipPath id="SVGID_4_">
				<use xlink:href="#SVGID_3_"  overflow="visible"/>
			</clipPath>
			<path clip-path="url(#SVGID_4_)" fill="#F8A15E" d="M142.5,40c11.046,0,20-8.954,20-20s-8.954-20-20-20s-20,8.954-20,20
				S131.454,40,142.5,40"/>
		</g>
	</g>
	<g>
		<g>
			<defs>
				<rect id="SVGID_5_" width="912" height="394.65"/>
			</defs>
			<clipPath id="SVGID_6_">
				<use xlink:href="#SVGID_5_"  overflow="visible"/>
			</clipPath>
			<path clip-path="url(#SVGID_6_)" fill="#F8A15E" d="M140.991,45.903c0,0,1.531,2.58,3.062,0l4.911-8.273
				c0,0,1.531-2.58-1.469-2.58h-9.946c0,0-3,0-1.468,2.58L140.991,45.903z"/>
		</g>
	</g>
</g>
<polygon fill="#FFFFFF" points="143.536,27.447 143.536,14.275 142.593,14.275 140.206,16.329 140.206,17.458 142.593,15.348 
	142.593,27.447 "/>
<g>
	<g>
		<g>
			<defs>
				<rect id="SVGID_7_" width="912" height="394.65"/>
			</defs>
			<clipPath id="SVGID_8_">
				<use xlink:href="#SVGID_7_"  overflow="visible"/>
			</clipPath>
			<path clip-path="url(#SVGID_8_)" fill="#F8A15E" d="M142.5,278.039c2.199,0,3.982-1.782,3.982-3.98
				c0-2.199-1.783-3.981-3.982-3.981s-3.982,1.782-3.982,3.981C138.518,276.257,140.301,278.039,142.5,278.039"/>
		</g>
	</g>
	<g>
		<g>
			<defs>
				<rect id="SVGID_9_" width="912" height="394.65"/>
			</defs>
			<clipPath id="SVGID_10_">
				<use xlink:href="#SVGID_9_"  overflow="visible"/>
			</clipPath>
			<path clip-path="url(#SVGID_10_)" fill="#808184" d="M142.5,346.6c2.199,0,3.982-1.781,3.982-3.98s-1.783-3.98-3.982-3.98
				s-3.982,1.781-3.982,3.98S140.301,346.6,142.5,346.6"/>
		</g>
	</g>
	<g>
		<g>
			<defs>
				<rect id="SVGID_11_" width="912" height="394.65"/>
			</defs>
			<clipPath id="SVGID_12_">
				<use xlink:href="#SVGID_11_"  overflow="visible"/>
			</clipPath>
			<path clip-path="url(#SVGID_12_)" fill="#FFFFFF" d="M167.5,259.55v-34c0-3-3-3-3-3h-44c-3,0-3,3-3,3v34c0,3,3,3,3,3h16.943
				l3.504,5.902c1.531,2.58,3.062,0,3.062,0l3.503-5.902H164.5C167.5,262.55,167.5,259.55,167.5,259.55"/>
		</g>
	</g>
	<g>
		<g>
			<defs>
				<rect id="SVGID_13_" width="912" height="394.65"/>
			</defs>
			<clipPath id="SVGID_14_">
				<use xlink:href="#SVGID_13_"  overflow="visible"/>
			</clipPath>
			<path clip-path="url(#SVGID_14_)" fill="none" stroke="#D0D2D3" d="M167.5,259.55v-34c0-3-3-3-3-3h-44c-3,0-3,3-3,3v34
				c0,3,3,3,3,3h16.943l3.504,5.902c1.531,2.58,3.062,0,3.062,0l3.503-5.902H164.5C167.5,262.55,167.5,259.55,167.5,259.55z"/>
		</g>
	</g>
	<g>
		<g>
			<defs>
				<rect id="SVGID_15_" width="912" height="394.65"/>
			</defs>
			<clipPath id="SVGID_16_">
				<use xlink:href="#SVGID_15_"  overflow="visible"/>
			</clipPath>
			<path clip-path="url(#SVGID_16_)" fill="#F8A15E" d="M157.56,246.373c-0.54,0-0.853-0.54-0.853-1.561
				c0-1.044,0.301-1.572,0.877-1.572c0.541,0,0.853,0.54,0.853,1.56C158.437,245.857,158.137,246.373,157.56,246.373
				 M155.665,244.799c0,1.43,0.707,2.269,1.907,2.269c1.2,0,1.919-0.839,1.919-2.269c0-1.451-0.707-2.255-1.907-2.255
				S155.665,243.372,155.665,244.799 M150.649,240.432c0,1.44,0.719,2.257,1.919,2.257c1.2,0,1.907-0.828,1.907-2.257
				c0-1.453-0.707-2.255-1.907-2.255C151.368,238.177,150.649,239.004,150.649,240.432 M152.556,242.004
				c-0.54,0-0.853-0.54-0.853-1.561c0-1.044,0.301-1.584,0.877-1.584c0.541,0,0.841,0.552,0.841,1.572
				C153.421,241.489,153.133,242.004,152.556,242.004 M152.977,247.068l5.004-8.891h-0.805l-5.004,8.891H152.977z M146.292,246.839
				h1.271v-8.495h-2.507l-0.54,1.103h1.776V246.839z M140.604,246.192c0,0.42,0.336,0.756,0.767,0.756
				c0.432,0,0.768-0.336,0.768-0.756c0-0.432-0.336-0.779-0.768-0.779C140.941,245.413,140.604,245.76,140.604,246.192
				 M132.925,244.547c0.048,1.55,1.14,2.521,2.784,2.521c1.86,0,2.963-0.995,2.963-2.484c0-1.26-0.587-2.027-1.667-2.22
				c0.936-0.145,1.475-0.863,1.475-1.908c0-1.392-0.971-2.279-2.555-2.279c-1.644,0-2.568,0.815-2.652,2.267h1.26
				c0.024-0.732,0.516-1.152,1.356-1.152c0.78,0,1.284,0.468,1.284,1.2c0,0.841-0.528,1.261-1.536,1.261
				c-0.084,0-0.168-0.012-0.252-0.012v1.127c0.096,0,0.18-0.012,0.264-0.012c1.152,0,1.74,0.516,1.74,1.548
				c0,0.973-0.588,1.513-1.632,1.513c-0.924,0-1.5-0.516-1.5-1.297v-0.072L132.925,244.547L132.925,244.547z M131.184,245.725
				h-3.262l1.091-1.261c1.308-1.501,2.159-2.568,2.159-3.913c0-1.463-1.019-2.375-2.674-2.375c-1.752,0-2.856,0.995-2.856,2.531
				h1.343c0.061-0.804,0.613-1.332,1.392-1.332c0.888,0,1.416,0.528,1.416,1.368c0,0.624-0.395,1.344-1.151,2.256l-3.204,3.84h5.746
				V245.725L131.184,245.725z"/>
		</g>
	</g>
	<g>
		<g>
			<defs>
				<rect id="SVGID_17_" width="912" height="394.65"/>
			</defs>
			<clipPath id="SVGID_18_">
				<use xlink:href="#SVGID_17_"  overflow="visible"/>
			</clipPath>
			<path clip-path="url(#SVGID_18_)" fill="#FFFFFF" d="M167.5,391.15v-34c0,0,0-3-3-3h-16.988l-3.503-5.903c0,0-1.531-2.58-3.062,0
				l-3.504,5.903H120.5c0,0-3,0-3,3v34c0,0,0,3,3,3h44C164.5,394.15,167.5,394.15,167.5,391.15"/>
		</g>
	</g>
	<g>
		<g>
			<defs>
				<rect id="SVGID_19_" width="912" height="394.65"/>
			</defs>
			<clipPath id="SVGID_20_">
				<use xlink:href="#SVGID_19_"  overflow="visible"/>
			</clipPath>
			<path clip-path="url(#SVGID_20_)" fill="none" stroke="#D0D2D3" d="M167.5,391.15v-34c0,0,0-3-3-3h-16.988l-3.503-5.903
				c0,0-1.531-2.58-3.062,0l-3.504,5.903H120.5c0,0-3,0-3,3v34c0,0,0,3,3,3h44C164.5,394.15,167.5,394.15,167.5,391.15z"/>
		</g>
	</g>
	<g>
		<g>
			<defs>
				<rect id="SVGID_21_" width="912" height="394.65"/>
			</defs>
			<clipPath id="SVGID_22_">
				<use xlink:href="#SVGID_21_"  overflow="visible"/>
			</clipPath>
			<path clip-path="url(#SVGID_22_)" fill="#F8A15E" d="M153.966,377.973c-0.541,0-0.853-0.541-0.853-1.562
				c0-1.044,0.3-1.572,0.877-1.572c0.54,0,0.853,0.54,0.853,1.562C154.843,377.457,154.542,377.973,153.966,377.973 M152.071,376.4
				c0,1.429,0.707,2.268,1.907,2.268s1.919-0.839,1.919-2.268c0-1.452-0.707-2.256-1.907-2.256
				C152.79,374.145,152.071,374.971,152.071,376.4 M147.055,372.032c0,1.438,0.719,2.257,1.919,2.257c1.2,0,1.907-0.828,1.907-2.257
				c0-1.452-0.707-2.255-1.907-2.255C147.774,369.777,147.055,370.604,147.055,372.032 M148.962,373.605
				c-0.541,0-0.853-0.541-0.853-1.562c0-1.044,0.3-1.584,0.877-1.584c0.54,0,0.841,0.552,0.841,1.572
				C149.827,373.088,149.538,373.605,148.962,373.605 M149.382,378.667l5.004-8.892h-0.804l-5.004,8.892H149.382z M146.237,374.312
				c0-2.953-1.126-4.535-3.071-4.535c-1.92,0-3.095,1.604-3.095,4.438c0,2.857,1.163,4.452,3.083,4.452
				C145.051,378.667,146.237,377.073,146.237,374.312 M143.13,377.468c-1.056,0-1.669-1.128-1.669-3.239
				c0-2.16,0.589-3.266,1.717-3.266c1.081,0,1.669,1.116,1.669,3.24C144.847,376.376,144.271,377.468,143.13,377.468
				 M137.011,377.792c0,0.42,0.336,0.756,0.767,0.756c0.432,0,0.767-0.336,0.767-0.756c0-0.431-0.335-0.778-0.767-0.778
				C137.347,377.012,137.011,377.361,137.011,377.792 M130.123,378.26l1.128,0.504l4.319-8.818h-5.915v1.104h3.971L130.123,378.26z"
				/>
		</g>
	</g>
</g>
</svg>
