<?xml version="1.0" encoding="utf-8"?>
<!-- Generator: Adobe Illustrator 15.1.0, SVG Export Plug-In . SVG Version: 6.00 Build 0)  -->
<!DOCTYPE svg PUBLIC "-//W3C//DTD SVG 1.1//EN" "http://www.w3.org/Graphics/SVG/1.1/DTD/svg11.dtd">
<svg version="1.1" id="art" xmlns="http://www.w3.org/2000/svg" xmlns:xlink="http://www.w3.org/1999/xlink" x="0px" y="0px"
	 width="400px" height="311px" viewBox="-35 0 400 311" enable-background="new -35 0 400 311" xml:space="preserve">
<rect x="-0.119" y="43.128" fill="#FDEBDE" width="141.531" height="250.144"/>
<rect x="141.412" y="43.128" fill="#CBDFD3" width="188.708" height="250.144"/>
<path fill="#F8A15E" d="M96.064,70.138c0,1.108-0.633,1.786-1.457,1.786c-0.905,0-1.438-0.621-1.438-1.741
	c0-1.108,0.555-1.763,1.459-1.763C95.521,68.42,96.064,69.042,96.064,70.138 M97.229,72.444v-4.905h-1.197v0.858
	c-0.282-0.667-0.904-1.039-1.764-1.039c-1.379,0-2.351,1.107-2.351,2.791c0,1.787,0.927,2.836,2.384,2.836
	c0.735,0,1.301-0.293,1.73-0.891l-0.012,0.688c-0.01,0.977-0.351,1.459-1.446,1.459c-0.701,0-1.086-0.246-1.12-0.684h-1.287
	c0.012,0.978,0.903,1.666,2.385,1.666C96.573,75.223,97.229,74.388,97.229,72.444 M83.723,72.771v-2.384
	c0-0.645,0-1.086,0.203-1.425c0.226-0.373,0.633-0.599,1.108-0.599c0.825,0,1.04,0.531,1.04,1.718v2.69h1.208v-2.384
	c0-1.346,0.271-2.024,1.312-2.024c0.905,0,1.019,0.565,1.019,1.718v2.69h1.196v-3.594c0-0.441-0.022-0.803-0.192-1.085
	c-0.282-0.474-0.802-0.745-1.502-0.745c-0.813,0-1.402,0.327-1.945,1.038c-0.282-0.699-0.813-1.038-1.627-1.038
	c-0.836,0-1.413,0.327-1.888,1.05v-0.858h-1.129v5.232H83.723z M81.303,68.883c0-2.781-1.061-4.271-2.893-4.271
	c-1.809,0-2.915,1.513-2.915,4.181c0,2.691,1.095,4.192,2.903,4.192C80.186,72.985,81.303,71.484,81.303,68.883 M78.377,71.857
	c-0.994,0-1.572-1.063-1.572-3.053c0-2.035,0.555-3.075,1.617-3.075c1.018,0,1.571,1.052,1.571,3.053
	C79.993,70.828,79.451,71.857,78.377,71.857 M74.59,68.883c0-2.781-1.062-4.271-2.893-4.271c-1.809,0-2.915,1.513-2.915,4.181
	c0,2.691,1.095,4.192,2.903,4.192C73.473,72.985,74.59,71.484,74.59,68.883 M71.663,71.857c-0.995,0-1.571-1.063-1.571-3.053
	c0-2.035,0.553-3.075,1.616-3.075c1.019,0,1.572,1.052,1.572,3.053C73.28,70.828,72.737,71.857,71.663,71.857 M67.209,71.721h-3.072
	l1.028-1.187c1.231-1.413,2.033-2.419,2.033-3.685c0-1.379-0.96-2.237-2.519-2.237c-1.65,0-2.69,0.937-2.69,2.384h1.267
	c0.057-0.758,0.575-1.255,1.311-1.255c0.836,0,1.334,0.497,1.334,1.288c0,0.588-0.373,1.267-1.086,2.126l-3.018,3.616h5.412V71.721z
	 M54.439,72.771l0.949-1.367c0.067-0.102,0.215-0.328,0.418-0.723c0.09,0.248,0.237,0.474,0.406,0.712l0.973,1.378h1.311
	l-1.966-2.803l1.694-2.429h-1.311l-0.723,1.073c-0.147,0.215-0.26,0.418-0.373,0.644c-0.113-0.249-0.238-0.452-0.362-0.633
	l-0.733-1.084H53.4l1.695,2.418l-1.979,2.814H54.439z M48.889,71.721h-3.072l1.029-1.187c1.23-1.413,2.032-2.419,2.032-3.685
	c0-1.379-0.96-2.237-2.519-2.237c-1.65,0-2.69,0.937-2.69,2.384h1.267c0.056-0.758,0.576-1.255,1.311-1.255
	c0.836,0,1.333,0.497,1.333,1.288c0,0.588-0.373,1.267-1.085,2.126l-3.018,3.616h5.412V71.721z"/>
<path fill="#006227" d="M297.125,70.138c0,1.108-0.633,1.787-1.458,1.787c-0.905,0-1.438-0.622-1.438-1.741
	c0-1.108,0.557-1.764,1.459-1.764C296.582,68.42,297.125,69.042,297.125,70.138 M298.288,72.444v-4.905h-1.197v0.858
	c-0.282-0.667-0.903-1.038-1.764-1.038c-1.379,0-2.351,1.106-2.351,2.791c0,1.786,0.926,2.836,2.385,2.836
	c0.733,0,1.301-0.294,1.729-0.892l-0.011,0.689c-0.013,0.977-0.353,1.459-1.447,1.459c-0.7,0-1.086-0.247-1.12-0.684h-1.287
	c0.013,0.977,0.903,1.666,2.385,1.666C297.633,75.224,298.288,74.388,298.288,72.444 M284.782,72.771v-2.384
	c0-0.645,0-1.085,0.202-1.425c0.227-0.373,0.635-0.599,1.108-0.599c0.825,0,1.04,0.532,1.04,1.719v2.689h1.208v-2.384
	c0-1.346,0.271-2.024,1.312-2.024c0.903,0,1.018,0.565,1.018,1.719v2.689h1.196v-3.594c0-0.441-0.021-0.803-0.192-1.085
	c-0.282-0.474-0.801-0.745-1.502-0.745c-0.813,0-1.401,0.328-1.944,1.039c-0.281-0.7-0.812-1.039-1.627-1.039
	c-0.836,0-1.414,0.328-1.889,1.05v-0.858h-1.129v5.232H284.782z M282.363,68.884c0-2.781-1.062-4.272-2.895-4.272
	c-1.808,0-2.915,1.513-2.915,4.181c0,2.691,1.095,4.193,2.904,4.193C281.245,72.986,282.363,71.484,282.363,68.884 M279.438,71.857
	c-0.996,0-1.571-1.063-1.571-3.052c0-2.035,0.554-3.075,1.616-3.075c1.018,0,1.57,1.051,1.57,3.052
	C281.053,70.828,280.511,71.857,279.438,71.857 M275.648,68.884c0-2.781-1.062-4.272-2.893-4.272c-1.809,0-2.915,1.513-2.915,4.181
	c0,2.691,1.095,4.193,2.904,4.193C274.532,72.986,275.648,71.484,275.648,68.884 M272.723,71.857c-0.994,0-1.572-1.063-1.572-3.052
	c0-2.035,0.556-3.075,1.617-3.075c1.02,0,1.572,1.051,1.572,3.052C274.34,70.828,273.797,71.857,272.723,71.857 M268.27,71.721
	h-3.071l1.026-1.187c1.232-1.413,2.033-2.419,2.033-3.685c0-1.379-0.96-2.237-2.519-2.237c-1.65,0-2.69,0.937-2.69,2.384h1.266
	c0.059-0.758,0.576-1.255,1.312-1.255c0.836,0,1.334,0.497,1.334,1.289c0,0.588-0.373,1.266-1.085,2.125l-3.019,3.616h5.412V71.721
	L268.27,71.721z M255.499,72.771l0.949-1.367c0.067-0.101,0.215-0.327,0.418-0.723c0.091,0.249,0.237,0.475,0.405,0.712l0.974,1.378
	h1.312l-1.967-2.802l1.694-2.43h-1.312l-0.723,1.073c-0.146,0.215-0.26,0.418-0.373,0.644c-0.113-0.248-0.238-0.452-0.361-0.633
	l-0.733-1.084h-1.322l1.695,2.418l-1.979,2.814H255.499z M249.949,71.721h-3.073l1.029-1.187c1.229-1.413,2.032-2.419,2.032-3.685
	c0-1.379-0.961-2.237-2.52-2.237c-1.65,0-2.689,0.937-2.689,2.384h1.267c0.056-0.758,0.576-1.255,1.312-1.255
	c0.836,0,1.332,0.497,1.332,1.289c0,0.588-0.373,1.266-1.084,2.125l-3.018,3.616h5.412V71.721z M238.975,68.384v-0.845h-1.195v5.232
	h1.195v-2.289c0-1.41,0.271-2.075,1.119-2.075c0.271,0,0.508,0.056,0.734,0.214l0.43-1.014c-0.316-0.158-0.644-0.237-0.984-0.237
	C239.643,67.37,239.234,67.697,238.975,68.384 M235.357,70.172c0,0.984-0.733,1.741-1.615,1.741c-0.895,0-1.616-0.757-1.616-1.741
	c0-0.984,0.724-1.741,1.616-1.741S235.357,69.188,235.357,70.172 M230.861,70.161c0,0.769,0.294,1.458,0.847,2.001
	c0.542,0.53,1.267,0.824,2.022,0.824c0.779,0,1.492-0.294,2.058-0.836c0.542-0.519,0.836-1.209,0.836-1.989
	c0-0.758-0.306-1.447-0.847-1.978c-0.555-0.542-1.268-0.824-2.047-0.824c-0.758,0-1.48,0.282-2.022,0.812
	C231.155,68.702,230.861,69.403,230.861,70.161 M225.244,70.138c0,1.108-0.633,1.787-1.459,1.787c-0.904,0-1.438-0.622-1.438-1.741
	c0-1.108,0.555-1.764,1.459-1.764C224.701,68.42,225.244,69.042,225.244,70.138 M226.407,72.444v-4.905h-1.197v0.858
	c-0.282-0.667-0.903-1.038-1.765-1.038c-1.379,0-2.351,1.106-2.351,2.791c0,1.786,0.927,2.836,2.384,2.836
	c0.735,0,1.303-0.294,1.73-0.892l-0.011,0.689c-0.013,0.977-0.353,1.459-1.447,1.459c-0.702,0-1.086-0.247-1.12-0.684h-1.287
	c0.012,0.977,0.903,1.666,2.385,1.666C225.752,75.224,226.407,74.388,226.407,72.444 M212.9,72.771v-2.384
	c0-0.645,0-1.085,0.203-1.425c0.227-0.373,0.633-0.599,1.107-0.599c0.826,0,1.041,0.532,1.041,1.719v2.689h1.208v-2.384
	c0-1.346,0.271-2.024,1.312-2.024c0.904,0,1.02,0.565,1.02,1.719v2.689h1.195v-3.594c0-0.441-0.021-0.803-0.191-1.085
	c-0.281-0.474-0.801-0.745-1.502-0.745c-0.814,0-1.402,0.328-1.945,1.039c-0.281-0.7-0.812-1.039-1.627-1.039
	c-0.836,0-1.412,0.328-1.888,1.05v-0.858h-1.129v5.232H212.9z M210.48,68.884c0-2.781-1.061-4.272-2.893-4.272
	c-1.808,0-2.915,1.513-2.915,4.181c0,2.691,1.095,4.193,2.904,4.193C209.364,72.986,210.48,71.484,210.48,68.884 M207.555,71.857
	c-0.994,0-1.57-1.063-1.57-3.052c0-2.035,0.555-3.075,1.617-3.075c1.018,0,1.57,1.051,1.57,3.052
	C209.172,70.828,208.63,71.857,207.555,71.857 M203.77,68.884c0-2.781-1.062-4.272-2.894-4.272c-1.81,0-2.915,1.513-2.915,4.181
	c0,2.691,1.096,4.193,2.904,4.193C202.65,72.986,203.77,71.484,203.77,68.884 M200.842,71.857c-0.994,0-1.572-1.063-1.572-3.052
	c0-2.035,0.556-3.075,1.617-3.075c1.02,0,1.572,1.051,1.572,3.052C202.459,70.828,201.916,71.857,200.842,71.857 M196.389,71.721
	h-3.072l1.027-1.187c1.231-1.413,2.033-2.419,2.033-3.685c0-1.379-0.96-2.237-2.52-2.237c-1.649,0-2.689,0.937-2.689,2.384h1.266
	c0.058-0.758,0.576-1.255,1.312-1.255c0.836,0,1.334,0.497,1.334,1.289c0,0.588-0.373,1.266-1.085,2.125l-3.019,3.616h5.412V71.721z
	 M183.618,72.771l0.948-1.367c0.067-0.101,0.216-0.327,0.418-0.723c0.092,0.249,0.238,0.475,0.406,0.712l0.974,1.378h1.311
	l-1.966-2.802l1.693-2.43h-1.311l-0.723,1.073c-0.146,0.215-0.262,0.418-0.373,0.644c-0.113-0.248-0.238-0.452-0.362-0.633
	l-0.733-1.084h-1.321l1.694,2.418l-1.979,2.814H183.618z M175.402,72.771h1.195V64.77h-2.359l-0.51,1.039h1.674V72.771z"/>
<rect x="-9.119" y="-1" fill="none" width="348.238" height="311.671"/>
<rect x="-9.119" y="-1" fill="none" width="348.238" height="311.671"/>
<line fill="none" stroke="#FFFFFF" stroke-width="0.869" x1="94.23" y1="168.521" x2="94.23" y2="287.369"/>
<line fill="none" stroke="#FFFFFF" stroke-width="0.869" x1="117.824" y1="168.521" x2="117.824" y2="287.369"/>
<line fill="none" stroke="#FFFFFF" stroke-width="0.869" x1="47.057" y1="168.521" x2="47.057" y2="287.369"/>
<line fill="none" stroke="#FFFFFF" stroke-width="0.869" x1="23.457" y1="168.521" x2="23.457" y2="287.369"/>
<line fill="none" stroke="#FFFFFF" stroke-width="0.869" x1="70.65" y1="168.521" x2="70.65" y2="287.369"/>
<line fill="none" stroke="#FFFFFF" stroke-width="0.869" x1="141.41" y1="173.757" x2="141.41" y2="287.369"/>
<line fill="none" stroke="#FFFFFF" stroke-width="0.869" x1="282.938" y1="121.079" x2="282.938" y2="287.369"/>
<line fill="none" stroke="#FFFFFF" stroke-width="0.869" x1="188.584" y1="121.079" x2="188.584" y2="287.369"/>
<line fill="none" stroke="#FFFFFF" stroke-width="0.869" x1="235.764" y1="121.079" x2="235.764" y2="287.369"/>
<line fill="none" stroke="#FFFFFF" stroke-width="0.869" x1="306.53" y1="121.079" x2="306.53" y2="287.369"/>
<line fill="none" stroke="#FFFFFF" stroke-width="0.869" x1="212.178" y1="121.079" x2="212.178" y2="287.369"/>
<line fill="none" stroke="#FFFFFF" stroke-width="0.869" x1="259.355" y1="121.079" x2="259.355" y2="287.369"/>
<line fill="none" stroke="#FFFFFF" stroke-width="0.869" x1="165.004" y1="121.079" x2="165.004" y2="287.369"/>
<g>
	<g>
		<defs>
			<rect id="SVGID_1_" x="-9.119" y="-1" width="348.238" height="311.671"/>
		</defs>
		<clipPath id="SVGID_2_">
			<use xlink:href="#SVGID_1_"  overflow="visible"/>
		</clipPath>
		<path clip-path="url(#SVGID_2_)" fill="#006227" d="M287.45,174.418l3.772-7.684h-1.299l-1.288,2.787
			c-0.146,0.326-0.294,0.643-0.372,0.946c-0.046-0.327-0.125-0.677-0.25-1.026l-0.959-2.707h-1.322l1.922,4.771l-1.437,2.911
			L287.45,174.418L287.45,174.418z M283.755,171.966h1.197v-8.554h-1.197V171.966z M277.979,171.966h1.196v-2.7l2.353,2.7h1.548
			l-2.601-2.927l2.373-2.307h-1.479l-2.193,2.172v-5.493h-1.195v8.555H277.979z M276.848,169.523v-0.226
			c0-1.741-0.992-2.746-2.678-2.746c-1.628,0-2.746,1.188-2.746,2.813c0,1.708,1.073,2.812,2.746,2.812
			c1.176,0,2.034-0.508,2.621-1.558l-1.004-0.565c-0.385,0.725-0.871,1.029-1.641,1.029c-0.869,0-1.424-0.577-1.48-1.562h4.182
			V169.523z M275.605,168.723h-2.86c0.192-0.779,0.667-1.152,1.448-1.152C275.018,167.568,275.516,167.965,275.605,168.723
			 M270.677,169.523v-0.226c0-1.741-0.993-2.746-2.678-2.746c-1.628,0-2.746,1.188-2.746,2.813c0,1.708,1.073,2.812,2.746,2.812
			c1.176,0,2.034-0.508,2.621-1.558l-1.004-0.565c-0.386,0.725-0.871,1.029-1.642,1.029c-0.869,0-1.424-0.577-1.479-1.562h4.182
			V169.523z M269.436,168.723h-2.86c0.19-0.779,0.667-1.152,1.448-1.152C268.848,167.568,269.345,167.965,269.436,168.723
			 M254.279,163.886l3.119,8.396l1.808-4.589c0.147-0.373,0.271-0.758,0.384-1.152c0.104,0.35,0.237,0.734,0.396,1.13l1.842,4.611
			l3.13-8.396h-1.312l-1.515,4.112c-0.17,0.464-0.305,0.871-0.396,1.255c-0.137-0.475-0.282-0.904-0.43-1.289l-1.707-4.396
			l-1.627,4.316c-0.046,0.137-0.203,0.577-0.44,1.357c-0.124-0.43-0.271-0.85-0.429-1.278l-1.526-4.079L254.279,163.886
			L254.279,163.886z M248.357,166.507c-0.034,0.464-0.034,0.735-0.034,0.804v2.104H246.3L248.357,166.507z M248.323,171.966h1.196
			v-1.639h0.982v-0.914h-0.982v-5.606h-0.373l-4.701,6.521h3.878V171.966z M238.975,167.579v-0.845h-1.195v5.23h1.195v-2.289
			c0-1.41,0.271-2.074,1.118-2.074c0.272,0,0.509,0.057,0.735,0.215l0.43-1.016c-0.316-0.158-0.645-0.236-0.982-0.236
			C239.641,166.564,239.234,166.891,238.975,167.579 M235.359,169.367c0,0.982-0.735,1.74-1.617,1.74
			c-0.895,0-1.617-0.758-1.617-1.74c0-0.984,0.725-1.741,1.617-1.741S235.359,168.383,235.359,169.367 M230.861,169.355
			c0,0.769,0.293,1.459,0.847,2c0.542,0.53,1.265,0.824,2.022,0.824c0.779,0,1.492-0.294,2.058-0.836
			c0.542-0.52,0.836-1.209,0.836-1.988c0-0.758-0.306-1.447-0.847-1.979c-0.555-0.542-1.268-0.824-2.047-0.824
			c-0.758,0-1.48,0.282-2.022,0.813C231.154,167.896,230.861,168.598,230.861,169.355 M223.639,174.418l3.773-7.684h-1.299
			l-1.288,2.787c-0.147,0.326-0.294,0.643-0.373,0.946c-0.045-0.327-0.124-0.677-0.249-1.026l-0.96-2.707h-1.322l1.921,4.771
			l-1.435,2.911L223.639,174.418L223.639,174.418z M219.943,171.966h1.195v-8.554h-1.195V171.966z M214.168,171.966h1.196v-2.7
			l2.351,2.7h1.549l-2.6-2.927l2.374-2.307h-1.481l-2.191,2.172v-5.493h-1.196L214.168,171.966L214.168,171.966z M213.036,169.523
			v-0.226c0-1.741-0.993-2.746-2.679-2.746c-1.627,0-2.746,1.188-2.746,2.813c0,1.708,1.072,2.812,2.746,2.812
			c1.177,0,2.035-0.508,2.623-1.558l-1.006-0.565c-0.385,0.725-0.869,1.029-1.64,1.029c-0.871,0-1.425-0.577-1.481-1.562h4.183
			V169.523z M211.794,168.723h-2.86c0.192-0.779,0.668-1.152,1.447-1.152C211.206,167.568,211.704,167.965,211.794,168.723
			 M206.865,169.523v-0.226c0-1.741-0.993-2.746-2.678-2.746c-1.629,0-2.746,1.188-2.746,2.813c0,1.708,1.072,2.812,2.746,2.812
			c1.176,0,2.033-0.508,2.621-1.558l-1.006-0.565c-0.384,0.725-0.871,1.029-1.639,1.029c-0.871,0-1.425-0.577-1.482-1.562h4.184
			V169.523z M205.623,168.723h-2.861c0.193-0.779,0.668-1.152,1.448-1.152C205.035,167.568,205.533,167.965,205.623,168.723
			 M190.467,163.886l3.119,8.396l1.809-4.589c0.146-0.373,0.271-0.758,0.385-1.152c0.102,0.35,0.236,0.734,0.396,1.13l1.843,4.611
			l3.131-8.396h-1.312l-1.514,4.112c-0.17,0.464-0.307,0.871-0.396,1.255c-0.135-0.475-0.281-0.904-0.429-1.289l-1.706-4.396
			l-1.628,4.316c-0.045,0.137-0.203,0.577-0.44,1.357c-0.125-0.43-0.271-0.85-0.43-1.278l-1.525-4.079L190.467,163.886
			L190.467,163.886z M186.137,170.916h-3.072l1.028-1.188c1.231-1.412,2.033-2.42,2.033-3.686c0-1.379-0.96-2.236-2.519-2.236
			c-1.65,0-2.69,0.938-2.69,2.385h1.267c0.057-0.76,0.575-1.256,1.312-1.256c0.836,0,1.333,0.496,1.333,1.287
			c0,0.588-0.373,1.269-1.085,2.127l-3.019,3.615h5.412V170.916z"/>
	</g>
	<g>
		<defs>
			<rect id="SVGID_3_" x="-9.119" y="-1" width="348.238" height="311.671"/>
		</defs>
		<clipPath id="SVGID_4_">
			<use xlink:href="#SVGID_3_"  overflow="visible"/>
		</clipPath>
		<path clip-path="url(#SVGID_4_)" fill="none" stroke="#80AF92" stroke-width="9.858" d="M330.119,215.641H145.723
			c0,0-4.312,0-4.312-4.312v-23.59"/>
	</g>
</g>
<rect x="141.412" fill="#006227" width="188.708" height="43.128"/>
<rect x="-0.119" fill="#F8A15E" width="141.531" height="43.128"/>
<polygon fill="#FBD0AD" points="130.955,183.604 141.412,194.059 151.867,183.604 "/>
<line fill="none" stroke="#006227" stroke-width="0.869" x1="282.938" y1="288.959" x2="282.938" y2="293.271"/>
<line fill="none" stroke="#006227" stroke-width="0.869" x1="188.584" y1="288.959" x2="188.584" y2="293.271"/>
<line fill="none" stroke="#006227" stroke-width="0.869" x1="141.412" y1="288.959" x2="141.412" y2="293.271"/>
<line fill="none" stroke="#F8A15E" stroke-width="0.869" x1="94.23" y1="288.959" x2="94.23" y2="293.271"/>
<line fill="none" stroke="#006227" stroke-width="0.869" x1="235.764" y1="288.959" x2="235.764" y2="293.271"/>
<line fill="none" stroke="#F8A15E" stroke-width="0.869" x1="47.057" y1="288.959" x2="47.057" y2="293.271"/>
<line fill="none" stroke="#F8A15E" stroke-width="1.739" x1="23.457" y1="284.646" x2="23.457" y2="293.271"/>
<line fill="none" stroke="#006227" stroke-width="1.739" x1="306.53" y1="284.646" x2="306.53" y2="293.271"/>
<line fill="none" stroke="#006227" stroke-width="1.739" x1="212.178" y1="284.646" x2="212.178" y2="293.271"/>
<line fill="none" stroke="#F8A15E" stroke-width="1.739" x1="117.824" y1="284.646" x2="117.824" y2="293.271"/>
<line fill="none" stroke="#006227" stroke-width="1.739" x1="259.355" y1="284.646" x2="259.355" y2="293.271"/>
<line fill="none" stroke="#006227" stroke-width="1.739" x1="165.004" y1="284.646" x2="165.004" y2="293.271"/>
<line fill="none" stroke="#F8A15E" stroke-width="1.739" x1="70.65" y1="284.646" x2="70.65" y2="293.271"/>
<g>
	<g>
		<defs>
			<rect id="SVGID_5_" x="-9.119" y="-1" width="348.238" height="311.671"/>
		</defs>
		<clipPath id="SVGID_6_">
			<use xlink:href="#SVGID_5_"  overflow="visible"/>
		</clipPath>
		<path clip-path="url(#SVGID_6_)" fill="none" stroke="#80AF92" stroke-width="9.858" d="M141.41,148.622v-23.551
			c0,0,0-4.312,4.312-4.312h184.396"/>
	</g>
	<g>
		<defs>
			<rect id="SVGID_7_" x="-9.119" y="-1" width="348.238" height="311.671"/>
		</defs>
		<clipPath id="SVGID_8_">
			<use xlink:href="#SVGID_7_"  overflow="visible"/>
		</clipPath>
		<path clip-path="url(#SVGID_8_)" fill="none" stroke="#FBD0AD" stroke-width="9.858" d="M141.372,148.622v9.789
			c0,0,0,9.789-17.251,9.789H23.023"/>
	</g>
	<g>
		<defs>
			<rect id="SVGID_9_" x="-9.119" y="-1" width="348.238" height="311.671"/>
		</defs>
		<clipPath id="SVGID_10_">
			<use xlink:href="#SVGID_9_"  overflow="visible"/>
		</clipPath>
		<path clip-path="url(#SVGID_10_)" fill="none" stroke="#FBD0AD" stroke-width="9.858" d="M141.372,187.738v-9.789
			c0,0,0-9.788-17.251-9.788H23.023"/>
	</g>
</g>
<polygon fill="#FBD0AD" points="130.955,153.721 141.412,143.265 151.867,153.721 "/>
<g>
	<g>
		<defs>
			<rect id="SVGID_11_" x="-9.119" y="-1" width="348.238" height="311.671"/>
		</defs>
		<clipPath id="SVGID_12_">
			<use xlink:href="#SVGID_11_"  overflow="visible"/>
		</clipPath>
		<path clip-path="url(#SVGID_12_)" fill="#FFFFFF" d="M23.469,176.607c4.637,0,8.408-3.771,8.408-8.407
			c0-4.638-3.771-8.408-8.408-8.408c-4.635,0-8.408,3.771-8.408,8.408C15.061,172.836,18.834,176.607,23.469,176.607"/>
	</g>
</g>
<g>
	<g>
		<defs>
			<path id="SVGID_13_" d="M14.843,168.2c0,4.764,3.862,8.626,8.626,8.626c2.75,0,5.198-1.286,6.778-3.291v-10.67
				c-1.58-2.004-4.028-3.29-6.778-3.29C18.705,159.575,14.843,163.436,14.843,168.2"/>
		</defs>
		<clipPath id="SVGID_14_">
			<use xlink:href="#SVGID_13_"  overflow="visible"/>
		</clipPath>
		<path clip-path="url(#SVGID_14_)" fill="#F8A15D" d="M19.5,171.536c0,0,0.068,0.041,0.109-0.029l0.172-0.298l0.531,0.307
			c0,0,0.149,0.086,0.269-0.121c0,0,3.157-5.457,3.167-5.484l0.755,0.436c0,0,0.069,0.039,0.108-0.029l0.125-0.219
			c0,0,0.041-0.067-0.028-0.107l-1.252-0.725l0.754-1.304l0.642,0.37c0,0,0.068,0.04,0.109-0.029l0.1-0.173
			c0,0,0.039-0.069-0.029-0.108l-1.984-1.146c0,0-0.068-0.04-0.109,0.028l-0.1,0.174c0,0-0.039,0.068,0.03,0.107l0.642,0.371
			l-0.753,1.305l-1.253-0.723c0,0-0.068-0.041-0.109,0.028l-0.125,0.218c0,0-0.039,0.069,0.029,0.109l0.754,0.436
			c-0.011,0.014-3.167,5.485-3.167,5.485s-0.12,0.208,0.087,0.328l0.473,0.272l-0.172,0.299c0,0-0.039,0.067,0.029,0.107
			l0.021,0.012l-1.153,1.996l0.177,0.103L19.5,171.536z"/>
	</g>
</g>
<g>
	<g>
		<defs>
			<rect id="SVGID_15_" x="-9.119" y="-1" width="348.238" height="311.671"/>
		</defs>
		<clipPath id="SVGID_16_">
			<use xlink:href="#SVGID_15_"  overflow="visible"/>
		</clipPath>
		<path clip-path="url(#SVGID_16_)" fill="none" stroke="#F8A15E" stroke-width="0.435" d="M23.469,176.607
			c4.637,0,8.408-3.771,8.408-8.407c0-4.638-3.771-8.408-8.408-8.408c-4.635,0-8.408,3.771-8.408,8.408
			C15.061,172.836,18.834,176.607,23.469,176.607z"/>
	</g>
</g>
<g>
	<g>
		<defs>
			<rect id="SVGID_17_" x="18.171" y="159.575" width="16.636" height="17.251"/>
		</defs>
		<clipPath id="SVGID_18_">
			<use xlink:href="#SVGID_17_"  overflow="visible"/>
		</clipPath>
		<path clip-path="url(#SVGID_18_)" fill="#F8A15D" d="M24.059,171.536c0,0,0.069,0.041,0.109-0.029l0.172-0.298l0.532,0.307
			c0,0,0.149,0.086,0.269-0.121c0,0,3.158-5.457,3.166-5.484l0.756,0.436c0,0,0.068,0.039,0.109-0.029l0.125-0.219
			c0,0,0.04-0.067-0.029-0.107l-1.252-0.725l0.754-1.304l0.641,0.37c0,0,0.068,0.04,0.109-0.029l0.1-0.173
			c0,0,0.04-0.069-0.029-0.108l-1.984-1.146c0,0-0.068-0.04-0.108,0.028l-0.101,0.174c0,0-0.038,0.068,0.031,0.107l0.642,0.371
			l-0.753,1.305l-1.254-0.723c0,0-0.068-0.041-0.108,0.028l-0.125,0.218c0,0-0.04,0.069,0.029,0.109l0.754,0.436
			c-0.011,0.014-3.167,5.485-3.167,5.485s-0.12,0.208,0.087,0.328l0.474,0.272l-0.173,0.299c0,0-0.04,0.067,0.029,0.107l0.021,0.012
			l-1.152,1.996l0.176,0.103L24.059,171.536z"/>
	</g>
</g>
<g>
	<g>
		<defs>
			<rect id="SVGID_19_" x="-9.119" y="-1" width="348.238" height="311.671"/>
		</defs>
		<clipPath id="SVGID_20_">
			<use xlink:href="#SVGID_19_"  overflow="visible"/>
		</clipPath>
		<path clip-path="url(#SVGID_20_)" fill="#FFFFFF" d="M70.646,176.607c4.636,0,8.408-3.771,8.408-8.407
			c0-4.638-3.772-8.408-8.408-8.408c-4.637,0-8.408,3.771-8.408,8.408C62.238,172.836,66.01,176.607,70.646,176.607"/>
	</g>
</g>
<g>
	<g>
		<defs>
			<path id="SVGID_21_" d="M62.021,168.2c0,4.764,3.86,8.626,8.625,8.626c2.748,0,5.197-1.286,6.776-3.29v-10.672
				c-1.579-2.003-4.028-3.289-6.776-3.289C65.882,159.575,62.021,163.436,62.021,168.2"/>
		</defs>
		<clipPath id="SVGID_22_">
			<use xlink:href="#SVGID_21_"  overflow="visible"/>
		</clipPath>
		<path clip-path="url(#SVGID_22_)" fill="#F8A15D" d="M66.677,171.536c0,0,0.069,0.041,0.108-0.029l0.173-0.298l0.532,0.307
			c0,0,0.148,0.086,0.268-0.121c0,0,3.158-5.457,3.167-5.484l0.755,0.436c0,0,0.069,0.039,0.109-0.029l0.125-0.219
			c0,0,0.041-0.067-0.029-0.107l-1.252-0.725l0.754-1.304l0.641,0.37c0,0,0.069,0.04,0.11-0.029l0.099-0.173
			c0,0,0.041-0.069-0.028-0.108l-1.984-1.146c0,0-0.069-0.04-0.108,0.028l-0.101,0.174c0,0-0.038,0.068,0.03,0.107l0.643,0.371
			l-0.754,1.305l-1.253-0.723c0,0-0.069-0.041-0.108,0.028l-0.125,0.218c0,0-0.041,0.069,0.029,0.109l0.754,0.436
			c-0.012,0.014-3.168,5.485-3.168,5.485s-0.119,0.208,0.088,0.328l0.473,0.272l-0.172,0.299c0,0-0.041,0.067,0.029,0.107
			l0.021,0.012l-1.153,1.996l0.176,0.103L66.677,171.536z"/>
	</g>
</g>
<g>
	<g>
		<defs>
			<rect id="SVGID_23_" x="-9.119" y="-1" width="348.238" height="311.671"/>
		</defs>
		<clipPath id="SVGID_24_">
			<use xlink:href="#SVGID_23_"  overflow="visible"/>
		</clipPath>
		<path clip-path="url(#SVGID_24_)" fill="none" stroke="#F8A15E" stroke-width="0.435" d="M70.646,176.607
			c4.636,0,8.408-3.771,8.408-8.407c0-4.638-3.772-8.408-8.408-8.408c-4.637,0-8.408,3.771-8.408,8.408
			C62.238,172.836,66.01,176.607,70.646,176.607z"/>
	</g>
</g>
<g>
	<g>
		<defs>
			<rect id="SVGID_25_" x="65.348" y="159.575" width="16.635" height="17.251"/>
		</defs>
		<clipPath id="SVGID_26_">
			<use xlink:href="#SVGID_25_"  overflow="visible"/>
		</clipPath>
		<path clip-path="url(#SVGID_26_)" fill="#F8A15D" d="M71.236,171.536c0,0,0.068,0.041,0.109-0.029l0.172-0.298l0.531,0.307
			c0,0,0.149,0.086,0.268-0.121c0,0,3.158-5.457,3.168-5.484l0.755,0.436c0,0,0.069,0.039,0.108-0.029l0.125-0.219
			c0,0,0.041-0.067-0.029-0.107l-1.252-0.725l0.755-1.304l0.641,0.37c0,0,0.069,0.04,0.11-0.029l0.099-0.173
			c0,0,0.04-0.069-0.028-0.108l-1.984-1.146c0,0-0.069-0.04-0.109,0.028l-0.1,0.174c0,0-0.039,0.068,0.029,0.107l0.643,0.371
			l-0.753,1.305l-1.253-0.723c0,0-0.069-0.041-0.109,0.028l-0.125,0.218c0,0-0.04,0.069,0.029,0.109l0.754,0.436
			c-0.012,0.014-3.167,5.485-3.167,5.485s-0.12,0.208,0.087,0.328l0.473,0.272l-0.172,0.299c0,0-0.039,0.067,0.029,0.107
			l0.021,0.012l-1.153,1.996l0.176,0.103L71.236,171.536z"/>
	</g>
</g>
<g>
	<g>
		<defs>
			<rect id="SVGID_27_" x="-9.119" y="-1" width="348.238" height="311.671"/>
		</defs>
		<clipPath id="SVGID_28_">
			<use xlink:href="#SVGID_27_"  overflow="visible"/>
		</clipPath>
		<path clip-path="url(#SVGID_28_)" fill="#FFFFFF" d="M117.823,176.607c4.636,0,8.407-3.771,8.407-8.407
			c0-4.638-3.771-8.408-8.407-8.408c-4.636,0-8.408,3.771-8.408,8.408C109.415,172.836,113.188,176.607,117.823,176.607"/>
	</g>
</g>
<g>
	<g>
		<defs>
			<path id="SVGID_29_" d="M109.197,168.2c0,4.764,3.863,8.626,8.625,8.626c2.75,0,5.199-1.286,6.777-3.29v-10.672
				c-1.578-2.003-4.027-3.289-6.777-3.289C113.061,159.575,109.197,163.436,109.197,168.2"/>
		</defs>
		<clipPath id="SVGID_30_">
			<use xlink:href="#SVGID_29_"  overflow="visible"/>
		</clipPath>
		<path clip-path="url(#SVGID_30_)" fill="#F8A15D" d="M113.854,171.536c0,0,0.069,0.041,0.109-0.029l0.172-0.298l0.532,0.307
			c0,0,0.149,0.086,0.268-0.121c0,0,3.158-5.457,3.167-5.484l0.756,0.436c0,0,0.068,0.039,0.108-0.029l0.125-0.219
			c0,0,0.041-0.067-0.029-0.107l-1.252-0.725l0.755-1.304l0.641,0.37c0,0,0.068,0.04,0.109-0.029l0.1-0.173
			c0,0,0.039-0.069-0.029-0.108l-1.984-1.146c0,0-0.068-0.04-0.108,0.028l-0.101,0.174c0,0-0.039,0.068,0.03,0.107l0.642,0.371
			l-0.752,1.305l-1.254-0.723c0,0-0.068-0.041-0.109,0.028l-0.125,0.218c0,0-0.039,0.069,0.029,0.109l0.754,0.436
			c-0.01,0.014-3.166,5.485-3.166,5.485s-0.121,0.208,0.086,0.328l0.474,0.272l-0.172,0.299c0,0-0.04,0.067,0.028,0.107l0.021,0.012
			l-1.152,1.996l0.176,0.103L113.854,171.536z"/>
	</g>
</g>
<g>
	<g>
		<defs>
			<rect id="SVGID_31_" x="-9.119" y="-1" width="348.238" height="311.671"/>
		</defs>
		<clipPath id="SVGID_32_">
			<use xlink:href="#SVGID_31_"  overflow="visible"/>
		</clipPath>
		<path clip-path="url(#SVGID_32_)" fill="none" stroke="#F8A15E" stroke-width="0.435" d="M117.823,176.607
			c4.636,0,8.407-3.771,8.407-8.407c0-4.638-3.771-8.408-8.407-8.408c-4.636,0-8.408,3.771-8.408,8.408
			C109.415,172.836,113.188,176.607,117.823,176.607z"/>
	</g>
</g>
<g>
	<g>
		<defs>
			<rect id="SVGID_33_" x="112.525" y="159.575" width="16.635" height="17.251"/>
		</defs>
		<clipPath id="SVGID_34_">
			<use xlink:href="#SVGID_33_"  overflow="visible"/>
		</clipPath>
		<path clip-path="url(#SVGID_34_)" fill="#F8A15D" d="M118.413,171.536c0,0,0.069,0.041,0.108-0.029l0.172-0.298l0.533,0.307
			c0,0,0.148,0.086,0.268-0.121c0,0,3.158-5.457,3.167-5.484l0.755,0.436c0,0,0.068,0.039,0.109-0.029l0.125-0.219
			c0,0,0.041-0.067-0.029-0.107l-1.252-0.725l0.754-1.304l0.641,0.37c0,0,0.069,0.04,0.11-0.029l0.099-0.173
			c0,0,0.041-0.069-0.029-0.108l-1.983-1.146c0,0-0.069-0.04-0.108,0.028l-0.101,0.174c0,0-0.039,0.068,0.03,0.107l0.642,0.371
			l-0.753,1.305l-1.253-0.723c0,0-0.069-0.041-0.108,0.028l-0.125,0.218c0,0-0.041,0.069,0.028,0.109l0.754,0.436
			c-0.011,0.014-3.167,5.485-3.167,5.485s-0.12,0.208,0.087,0.328l0.474,0.272l-0.172,0.299c0,0-0.041,0.067,0.028,0.107
			l0.021,0.012l-1.152,1.996l0.176,0.103L118.413,171.536z"/>
	</g>
</g>
<g>
	<g>
		<defs>
			<rect id="SVGID_35_" x="-9.119" y="-1" width="348.238" height="311.671"/>
		</defs>
		<clipPath id="SVGID_36_">
			<use xlink:href="#SVGID_35_"  overflow="visible"/>
		</clipPath>
		<path clip-path="url(#SVGID_36_)" fill="#FFFFFF" d="M212.177,224.049c4.636,0,8.408-3.771,8.408-8.408s-3.772-8.406-8.408-8.406
			s-8.407,3.771-8.407,8.406C203.77,220.277,207.541,224.049,212.177,224.049"/>
	</g>
</g>
<g>
	<g>
		<defs>
			<path id="SVGID_37_" d="M203.551,215.641c0,4.766,3.862,8.627,8.626,8.627c2.749,0,5.198-1.287,6.778-3.291v-10.672
				c-1.58-2.004-4.029-3.289-6.778-3.289C207.413,207.016,203.551,210.877,203.551,215.641"/>
		</defs>
		<clipPath id="SVGID_38_">
			<use xlink:href="#SVGID_37_"  overflow="visible"/>
		</clipPath>
		<path clip-path="url(#SVGID_38_)" fill="#006327" d="M208.208,218.979c0,0,0.067,0.041,0.108-0.028l0.172-0.298l0.531,0.307
			c0,0,0.149,0.086,0.269-0.122c0,0,3.157-5.457,3.167-5.485l0.756,0.437c0,0,0.068,0.04,0.107-0.029l0.125-0.218
			c0,0,0.041-0.068-0.027-0.109l-1.253-0.723l0.755-1.305l0.641,0.369c0,0,0.069,0.041,0.11-0.027l0.099-0.173
			c0,0,0.041-0.069-0.028-0.109l-1.983-1.146c0,0-0.068-0.039-0.109,0.029l-0.1,0.172c0,0-0.039,0.069,0.029,0.109l0.643,0.37
			l-0.753,1.306l-1.253-0.724c0,0-0.068-0.04-0.109,0.028l-0.125,0.219c0,0-0.039,0.068,0.029,0.107l0.754,0.437
			c-0.011,0.013-3.167,5.485-3.167,5.485s-0.12,0.207,0.087,0.328l0.474,0.272l-0.173,0.298c0,0-0.039,0.069,0.029,0.109
			l0.021,0.012l-1.152,1.995l0.176,0.103L208.208,218.979z"/>
	</g>
</g>
<g>
	<g>
		<defs>
			<rect id="SVGID_39_" x="-9.119" y="-1" width="348.238" height="311.671"/>
		</defs>
		<clipPath id="SVGID_40_">
			<use xlink:href="#SVGID_39_"  overflow="visible"/>
		</clipPath>
		<path clip-path="url(#SVGID_40_)" fill="none" stroke="#006227" stroke-width="0.435" d="M212.177,224.049
			c4.636,0,8.408-3.771,8.408-8.408s-3.772-8.406-8.408-8.406s-8.407,3.771-8.407,8.406
			C203.77,220.277,207.541,224.049,212.177,224.049z"/>
	</g>
</g>
<g>
	<g>
		<defs>
			<rect id="SVGID_41_" x="206.878" y="207.016" width="16.636" height="17.252"/>
		</defs>
		<clipPath id="SVGID_42_">
			<use xlink:href="#SVGID_41_"  overflow="visible"/>
		</clipPath>
		<path clip-path="url(#SVGID_42_)" fill="#006327" d="M212.768,218.979c0,0,0.068,0.041,0.108-0.028l0.172-0.298l0.532,0.307
			c0,0,0.148,0.086,0.268-0.122c0,0,3.158-5.457,3.168-5.485l0.754,0.437c0,0,0.069,0.04,0.109-0.029l0.125-0.218
			c0,0,0.041-0.068-0.029-0.109l-1.252-0.723l0.754-1.305l0.643,0.369c0,0,0.068,0.041,0.109-0.027l0.1-0.173
			c0,0,0.04-0.069-0.029-0.109l-1.984-1.146c0,0-0.067-0.039-0.107,0.029l-0.102,0.172c0,0-0.039,0.069,0.03,0.109l0.642,0.37
			l-0.752,1.306l-1.254-0.724c0,0-0.067-0.04-0.107,0.028l-0.125,0.219c0,0-0.04,0.068,0.027,0.107l0.754,0.437
			c-0.01,0.013-3.166,5.485-3.166,5.485s-0.119,0.207,0.088,0.328l0.473,0.272l-0.172,0.298c0,0-0.04,0.069,0.027,0.109l0.021,0.012
			l-1.152,1.995l0.176,0.103L212.768,218.979z"/>
	</g>
</g>
<g>
	<g>
		<defs>
			<rect id="SVGID_43_" x="-9.119" y="-1" width="348.238" height="311.671"/>
		</defs>
		<clipPath id="SVGID_44_">
			<use xlink:href="#SVGID_43_"  overflow="visible"/>
		</clipPath>
		<path clip-path="url(#SVGID_44_)" fill="#FFFFFF" d="M306.53,224.049c4.637,0,8.407-3.771,8.407-8.408s-3.771-8.406-8.407-8.406
			c-4.636,0-8.407,3.771-8.407,8.406C298.123,220.277,301.895,224.049,306.53,224.049"/>
	</g>
</g>
<g>
	<g>
		<defs>
			<path id="SVGID_45_" d="M297.905,215.641c0,4.766,3.86,8.627,8.626,8.627c2.748,0,5.195-1.287,6.775-3.291v-10.672
				c-1.58-2.004-4.027-3.289-6.775-3.289C301.768,207.016,297.905,210.877,297.905,215.641"/>
		</defs>
		<clipPath id="SVGID_46_">
			<use xlink:href="#SVGID_45_"  overflow="visible"/>
		</clipPath>
		<path clip-path="url(#SVGID_46_)" fill="#006327" d="M302.562,218.979c0,0,0.067,0.041,0.107-0.028l0.173-0.298l0.531,0.307
			c0,0,0.149,0.086,0.269-0.122c0,0,3.158-5.457,3.168-5.485l0.754,0.437c0,0,0.069,0.04,0.109-0.029l0.125-0.218
			c0,0,0.041-0.068-0.029-0.109l-1.252-0.723l0.754-1.305l0.642,0.369c0,0,0.069,0.041,0.11-0.027l0.099-0.173
			c0,0,0.04-0.069-0.028-0.109l-1.984-1.146c0,0-0.068-0.039-0.108,0.029l-0.101,0.172c0,0-0.039,0.069,0.031,0.109l0.642,0.37
			l-0.753,1.306l-1.254-0.724c0,0-0.068-0.04-0.108,0.028l-0.125,0.219c0,0-0.04,0.068,0.028,0.107l0.755,0.437
			c-0.011,0.013-3.167,5.485-3.167,5.485s-0.12,0.207,0.087,0.328l0.474,0.272l-0.173,0.298c0,0-0.04,0.069,0.029,0.109l0.021,0.012
			l-1.152,1.995l0.176,0.103L302.562,218.979z"/>
	</g>
</g>
<path fill="none" stroke="#006227" stroke-width="0.435" d="M306.53,224.049c4.637,0,8.407-3.771,8.407-8.408
	s-3.771-8.406-8.407-8.406c-4.636,0-8.407,3.771-8.407,8.406C298.123,220.277,301.895,224.049,306.53,224.049z"/>
<g>
	<g>
		<defs>
			<rect id="SVGID_47_" x="301.232" y="207.016" width="16.636" height="17.252"/>
		</defs>
		<clipPath id="SVGID_48_">
			<use xlink:href="#SVGID_47_"  overflow="visible"/>
		</clipPath>
		<path clip-path="url(#SVGID_48_)" fill="#006327" d="M307.12,218.979c0,0,0.069,0.041,0.108-0.028l0.172-0.298l0.533,0.307
			c0,0,0.147,0.086,0.268-0.122c0,0,3.158-5.457,3.167-5.485l0.755,0.437c0,0,0.068,0.04,0.109-0.029l0.125-0.218
			c0,0,0.041-0.068-0.029-0.109l-1.252-0.723l0.754-1.305l0.643,0.369c0,0,0.068,0.041,0.109-0.027l0.1-0.173
			c0,0,0.039-0.069-0.029-0.109l-1.983-1.146c0,0-0.069-0.039-0.108,0.029l-0.101,0.172c0,0-0.039,0.069,0.029,0.109l0.643,0.37
			l-0.753,1.306l-1.253-0.724c0,0-0.069-0.04-0.108,0.028l-0.125,0.219c0,0-0.041,0.068,0.028,0.107l0.754,0.437
			c-0.012,0.013-3.167,5.485-3.167,5.485s-0.119,0.207,0.087,0.328l0.474,0.272l-0.172,0.298c0,0-0.041,0.069,0.028,0.109
			l0.021,0.012l-1.151,1.995l0.176,0.103L307.12,218.979z"/>
	</g>
</g>
<path fill="#FFFFFF" d="M212.177,129.167c4.636,0,8.408-3.772,8.408-8.408c0-4.637-3.772-8.409-8.408-8.409
	s-8.407,3.772-8.407,8.409C203.77,125.395,207.541,129.167,212.177,129.167"/>
<g>
	<g>
		<defs>
			<path id="SVGID_49_" d="M203.551,120.759c0,4.764,3.862,8.626,8.626,8.626c4.765,0,8.626-3.862,8.626-8.626
				c0-4.763-3.861-8.625-8.626-8.625C207.413,112.134,203.551,115.996,203.551,120.759"/>
		</defs>
		<clipPath id="SVGID_50_">
			<use xlink:href="#SVGID_49_"  overflow="visible"/>
		</clipPath>
		<path clip-path="url(#SVGID_50_)" fill="#006327" d="M210.057,124.096c0,0,0.068,0.041,0.108-0.029l0.172-0.298l0.532,0.307
			c0,0,0.148,0.086,0.268-0.122c0,0,3.158-5.457,3.168-5.485l0.754,0.435c0,0,0.069,0.04,0.109-0.029l0.125-0.218
			c0,0,0.041-0.069-0.029-0.109l-1.252-0.723l0.754-1.304l0.643,0.37c0,0,0.068,0.04,0.109-0.029l0.1-0.173
			c0,0,0.04-0.069-0.029-0.109l-1.984-1.145c0,0-0.067-0.04-0.107,0.029l-0.102,0.173c0,0-0.039,0.069,0.03,0.109l0.642,0.37
			l-0.752,1.305l-1.254-0.723c0,0-0.067-0.04-0.107,0.029l-0.125,0.218c0,0-0.04,0.069,0.027,0.109l0.754,0.435
			c-0.01,0.013-3.166,5.486-3.166,5.486s-0.119,0.208,0.088,0.328l0.473,0.273l-0.172,0.298c0,0-0.04,0.069,0.027,0.109l0.021,0.012
			l-1.152,1.995l0.176,0.102L210.057,124.096z"/>
	</g>
</g>
<path fill="none" stroke="#006227" stroke-width="0.435" d="M212.177,129.167c4.636,0,8.408-3.772,8.408-8.408
	c0-4.637-3.772-8.409-8.408-8.409s-8.407,3.772-8.407,8.409C203.77,125.395,207.541,129.167,212.177,129.167z"/>
<path fill="#FFFFFF" d="M259.354,129.167c4.638,0,8.408-3.772,8.408-8.408c0-4.637-3.771-8.409-8.408-8.409
	c-4.636,0-8.408,3.772-8.408,8.409C250.945,125.395,254.718,129.167,259.354,129.167"/>
<g>
	<g>
		<defs>
			<path id="SVGID_51_" d="M250.729,120.759c0,4.764,3.861,8.626,8.625,8.626c4.765,0,8.625-3.862,8.625-8.626
				c0-4.763-3.86-8.625-8.625-8.625C254.59,112.134,250.729,115.996,250.729,120.759"/>
		</defs>
		<clipPath id="SVGID_52_">
			<use xlink:href="#SVGID_51_"  overflow="visible"/>
		</clipPath>
		<path clip-path="url(#SVGID_52_)" fill="#006327" d="M257.232,124.096c0,0,0.068,0.041,0.108-0.029l0.173-0.298l0.531,0.307
			c0,0,0.148,0.086,0.268-0.122c0,0,3.158-5.457,3.168-5.485l0.754,0.435c0,0,0.07,0.04,0.109-0.029l0.125-0.218
			c0,0,0.041-0.069-0.029-0.109l-1.252-0.723l0.754-1.304l0.643,0.37c0,0,0.068,0.04,0.109-0.029l0.1-0.173
			c0,0,0.04-0.069-0.029-0.109l-1.983-1.145c0,0-0.068-0.04-0.108,0.029l-0.101,0.173c0,0-0.039,0.069,0.03,0.109l0.643,0.37
			l-0.753,1.305l-1.254-0.723c0,0-0.068-0.04-0.108,0.029l-0.125,0.218c0,0-0.04,0.069,0.028,0.109l0.755,0.435
			c-0.012,0.013-3.167,5.486-3.167,5.486s-0.12,0.208,0.087,0.328l0.473,0.273l-0.172,0.298c0,0-0.04,0.069,0.029,0.109l0.021,0.012
			l-1.153,1.995l0.177,0.102L257.232,124.096z"/>
	</g>
</g>
<path fill="none" stroke="#006227" stroke-width="0.435" d="M259.354,129.167c4.638,0,8.408-3.772,8.408-8.408
	c0-4.637-3.771-8.409-8.408-8.409c-4.636,0-8.408,3.772-8.408,8.409C250.945,125.395,254.718,129.167,259.354,129.167z"/>
<path fill="#FFFFFF" d="M306.53,129.167c4.637,0,8.407-3.772,8.407-8.408c0-4.637-3.771-8.409-8.407-8.409
	c-4.636,0-8.407,3.772-8.407,8.409C298.123,125.395,301.895,129.167,306.53,129.167"/>
<g>
	<g>
		<defs>
			<path id="SVGID_53_" d="M297.905,120.759c0,4.764,3.86,8.626,8.626,8.626c4.763,0,8.625-3.862,8.625-8.626
				c0-4.763-3.862-8.625-8.625-8.625C301.768,112.134,297.905,115.996,297.905,120.759"/>
		</defs>
		<clipPath id="SVGID_54_">
			<use xlink:href="#SVGID_53_"  overflow="visible"/>
		</clipPath>
		<path clip-path="url(#SVGID_54_)" fill="#006327" d="M304.41,124.096c0,0,0.068,0.041,0.107-0.029l0.172-0.298l0.533,0.307
			c0,0,0.148,0.086,0.268-0.122c0,0,3.158-5.457,3.167-5.485l0.756,0.435c0,0,0.067,0.04,0.108-0.029l0.125-0.218
			c0,0,0.041-0.069-0.029-0.109l-1.252-0.723l0.755-1.304l0.641,0.37c0,0,0.069,0.04,0.11-0.029l0.099-0.173
			c0,0,0.04-0.069-0.028-0.109l-1.983-1.145c0,0-0.069-0.04-0.108,0.029l-0.101,0.173c0,0-0.039,0.069,0.028,0.109l0.644,0.37
			l-0.753,1.305l-1.253-0.723c0,0-0.069-0.04-0.108,0.029l-0.125,0.218c0,0-0.041,0.069,0.028,0.109l0.754,0.435
			c-0.012,0.013-3.167,5.486-3.167,5.486s-0.12,0.208,0.087,0.328l0.474,0.273l-0.172,0.298c0,0-0.041,0.069,0.028,0.109
			l0.021,0.012l-1.151,1.995l0.176,0.102L304.41,124.096z"/>
	</g>
</g>
<path fill="none" stroke="#006227" stroke-width="0.435" d="M306.53,129.167c4.637,0,8.407-3.772,8.407-8.408
	c0-4.637-3.771-8.409-8.407-8.409c-4.636,0-8.407,3.772-8.407,8.409C298.123,125.395,301.895,129.167,306.53,129.167z"/>
<path fill="#FFFFFF" d="M165,129.167c4.636,0,8.408-3.772,8.408-8.408c0-4.637-3.772-8.409-8.408-8.409s-8.408,3.772-8.408,8.409
	C156.592,125.395,160.364,129.167,165,129.167"/>
<g>
	<g>
		<defs>
			<path id="SVGID_55_" d="M156.375,120.759c0,4.764,3.862,8.626,8.625,8.626c4.764,0,8.626-3.862,8.626-8.626
				c0-4.763-3.862-8.625-8.626-8.625C160.237,112.134,156.375,115.996,156.375,120.759"/>
		</defs>
		<clipPath id="SVGID_56_">
			<use xlink:href="#SVGID_55_"  overflow="visible"/>
		</clipPath>
		<path clip-path="url(#SVGID_56_)" fill="#006327" d="M162.879,124.096c0,0,0.069,0.041,0.109-0.029l0.172-0.298l0.532,0.307
			c0,0,0.148,0.086,0.268-0.122c0,0,3.158-5.457,3.167-5.485l0.755,0.435c0,0,0.069,0.04,0.109-0.029l0.125-0.218
			c0,0,0.041-0.069-0.029-0.109l-1.252-0.723l0.754-1.304l0.642,0.37c0,0,0.068,0.04,0.109-0.029l0.1-0.173
			c0,0,0.039-0.069-0.028-0.109l-1.984-1.145c0,0-0.067-0.04-0.108,0.029l-0.101,0.173c0,0-0.038,0.069,0.03,0.109l0.643,0.37
			l-0.754,1.305l-1.253-0.723c0,0-0.069-0.04-0.108,0.029l-0.125,0.218c0,0-0.04,0.069,0.028,0.109l0.754,0.435
			c-0.011,0.013-3.167,5.486-3.167,5.486s-0.12,0.208,0.087,0.328l0.474,0.273l-0.172,0.298c0,0-0.04,0.069,0.028,0.109l0.021,0.012
			l-1.153,1.995l0.176,0.102L162.879,124.096z"/>
	</g>
</g>
<path fill="none" stroke="#006227" stroke-width="0.435" d="M165,129.167c4.636,0,8.408-3.772,8.408-8.408
	c0-4.637-3.772-8.409-8.408-8.409s-8.408,3.772-8.408,8.409C156.592,125.395,160.364,129.167,165,129.167z"/>
<line fill="none" stroke="#F8A15E" stroke-width="2" x1="-0.119" y1="293.271" x2="330.119" y2="293.271"/>
<path fill="#FFFFFF" d="M279.111,22.787v-0.209c0-1.607-0.916-2.534-2.471-2.534c-1.504,0-2.535,1.094-2.535,2.597
	c0,1.576,0.99,2.597,2.535,2.597c1.086,0,1.877-0.469,2.42-1.438l-0.928-0.523c-0.355,0.669-0.804,0.951-1.514,0.951
	c-0.805,0-1.314-0.533-1.367-1.441H279.111z M277.967,22.047h-2.642c0.179-0.721,0.616-1.065,1.337-1.065
	C277.424,20.982,277.883,21.347,277.967,22.047 M269.568,24.165c0.354,0.73,0.97,1.073,1.908,1.073c1.263,0,1.971-0.604,1.971-1.543
	c0-0.699-0.396-1.096-1.239-1.429c-0.752-0.303-1.274-0.376-1.274-0.846c0-0.334,0.271-0.553,0.7-0.553
	c0.386,0,0.688,0.198,0.804,0.501l0.781-0.543c-0.24-0.5-0.781-0.791-1.544-0.791c-1.147,0-1.846,0.614-1.846,1.449
	c0,0.699,0.469,1.075,1.387,1.461c0.668,0.282,1.148,0.323,1.148,0.824c0,0.387-0.293,0.637-0.794,0.637
	c-0.586,0-0.949-0.261-1.086-0.741L269.568,24.165z M267.889,22.641c0,0.908-0.679,1.608-1.492,1.608
	c-0.824,0-1.492-0.7-1.492-1.608c0-0.908,0.668-1.607,1.492-1.607S267.889,21.733,267.889,22.641 M263.736,22.631
	c0,0.71,0.271,1.346,0.781,1.847c0.5,0.489,1.168,0.76,1.867,0.76c0.721,0,1.379-0.271,1.898-0.771
	c0.5-0.479,0.771-1.116,0.771-1.836c0-0.7-0.281-1.336-0.783-1.826c-0.51-0.5-1.168-0.761-1.888-0.761
	c-0.698,0-1.366,0.261-1.868,0.75C264.008,21.284,263.736,21.931,263.736,22.631 M257.777,23.946v-5.28h0.877
	c0.896,0,1.586,0.031,2.14,0.49c0.563,0.479,0.847,1.2,0.847,2.15c0,0.949-0.283,1.669-0.847,2.15
	c-0.532,0.448-1.169,0.49-1.993,0.49H257.777z M256.568,25.04h1.961c1.21,0,2.19-0.031,3.058-0.698
	c0.854-0.657,1.313-1.69,1.313-3.026c0-1.335-0.459-2.379-1.313-3.036c-0.907-0.698-1.981-0.698-3.381-0.698h-1.638V25.04z
	 M252.384,22.787v-0.209c0-1.607-0.917-2.534-2.471-2.534c-1.504,0-2.535,1.094-2.535,2.597c0,1.576,0.989,2.597,2.535,2.597
	c1.085,0,1.878-0.469,2.419-1.438l-0.928-0.523c-0.354,0.669-0.803,0.951-1.514,0.951c-0.804,0-1.314-0.533-1.367-1.441H252.384z
	 M251.236,22.047h-2.641c0.178-0.721,0.616-1.065,1.336-1.065C250.693,20.982,251.154,21.347,251.236,22.047 M246.709,21.587v-1.241
	c-0.376-0.208-0.793-0.302-1.283-0.302c-1.596,0-2.68,1.042-2.68,2.597c0,1.534,1.052,2.597,2.564,2.597
	c0.531,0,0.99-0.114,1.397-0.343v-1.273c-0.323,0.407-0.741,0.606-1.272,0.606c-0.961,0-1.545-0.606-1.545-1.618
	c0-0.971,0.596-1.597,1.492-1.597C245.916,21.013,246.375,21.222,246.709,21.587 M237.068,25.04h1.105v-2.201
	c0-0.605,0.021-1.022,0.219-1.315c0.23-0.344,0.647-0.542,1.17-0.542c0.918,0,1.055,0.501,1.055,1.576v2.482h1.115v-2.931
	c0-0.585,0-1.023-0.24-1.388c-0.28-0.448-0.792-0.677-1.512-0.677c-0.847,0-1.42,0.281-1.869,0.959v-0.792h-1.043V25.04z
	 M235.648,25.04v-4.829h-1.104v0.792c-0.262-0.615-0.835-0.959-1.629-0.959c-1.273,0-2.169,1.021-2.169,2.576
	c0,1.649,0.854,2.618,2.2,2.618c0.679,0,1.199-0.271,1.598-0.823v0.625H235.648z M234.576,22.61c0,1.023-0.584,1.649-1.346,1.649
	c-0.836,0-1.326-0.574-1.326-1.607c0-1.023,0.512-1.629,1.347-1.629C234.075,21.023,234.576,21.598,234.576,22.61 M225.072,25.04
	h1.104v-2.201c0-0.605,0.021-1.022,0.221-1.315c0.229-0.344,0.646-0.542,1.168-0.542c0.918,0,1.056,0.501,1.056,1.576v2.482h1.114
	v-2.931c0-0.585,0-1.023-0.239-1.388c-0.281-0.448-0.792-0.677-1.513-0.677c-0.846,0-1.42,0.281-1.868,0.959v-0.792h-1.042V25.04z
	 M224.027,22.787v-0.209c0-1.607-0.918-2.534-2.473-2.534c-1.503,0-2.533,1.094-2.533,2.597c0,1.576,0.989,2.597,2.533,2.597
	c1.086,0,1.879-0.469,2.42-1.438l-0.927-0.523c-0.354,0.669-0.804,0.951-1.515,0.951c-0.803,0-1.314-0.533-1.366-1.441H224.027z
	 M222.882,22.047h-2.642c0.178-0.721,0.615-1.065,1.336-1.065C222.339,20.982,222.798,21.347,222.882,22.047 M216.58,25.04h1.104
	v-3.86h0.846v-0.969h-0.846v-1.826h-1.104v1.826h-0.846v0.969h0.846V25.04z M210.289,25.04h1.104v-2.201
	c0-0.605,0.021-1.022,0.219-1.315c0.23-0.344,0.647-0.542,1.17-0.542c0.919,0,1.056,0.501,1.056,1.576v2.482h1.114v-2.931
	c0-0.585,0-1.023-0.239-1.388c-0.28-0.448-0.792-0.677-1.513-0.677c-0.846,0-1.42,0.281-1.868,0.959v-0.792h-1.042V25.04z
	 M207.564,18.124c0,0.375,0.313,0.698,0.699,0.698c0.385,0,0.688-0.302,0.688-0.698s-0.304-0.688-0.688-0.688
	S207.564,17.749,207.564,18.124 M207.713,25.04h1.104v-4.829h-1.104V25.04z M206.239,25.04v-4.829h-1.104v0.792
	c-0.261-0.615-0.835-0.959-1.629-0.959c-1.273,0-2.169,1.021-2.169,2.576c0,1.649,0.854,2.618,2.201,2.618
	c0.678,0,1.198-0.271,1.597-0.823v0.625H206.239z M205.167,22.61c0,1.023-0.584,1.649-1.347,1.649c-0.836,0-1.325-0.574-1.325-1.607
	c0-1.023,0.511-1.629,1.346-1.629C204.666,21.023,205.167,21.598,205.167,22.61 M198.969,21.358l0.824,3.682h1.127l-1.806-7.75
	l-2.148,4.684c-0.114,0.261-0.28,0.594-0.428,1.012c-0.208-0.543-0.345-0.877-0.406-1.012l-2.2-4.684l-1.764,7.75h1.115l0.804-3.672
	c0.072-0.333,0.125-0.678,0.136-1.033c0.094,0.334,0.219,0.647,0.365,0.95l1.95,4.058l1.95-3.975
	c0.167-0.344,0.281-0.678,0.345-1.033C198.905,20.888,198.938,21.222,198.969,21.358"/>
<path fill="#FFFFFF" d="M102.371,22.787v-0.208c0-1.607-0.916-2.534-2.472-2.534c-1.503,0-2.534,1.094-2.534,2.597
	c0,1.576,0.99,2.597,2.534,2.597c1.086,0,1.878-0.469,2.42-1.439l-0.928-0.522c-0.354,0.669-0.804,0.951-1.513,0.951
	c-0.803,0-1.315-0.533-1.367-1.442H102.371z M101.226,22.047h-2.642c0.178-0.721,0.617-1.065,1.336-1.065
	C100.683,20.982,101.142,21.348,101.226,22.047 M92.826,24.166c0.355,0.729,0.971,1.073,1.909,1.073
	c1.263,0,1.972-0.604,1.972-1.543c0-0.699-0.396-1.096-1.24-1.43c-0.752-0.302-1.274-0.375-1.274-0.845
	c0-0.334,0.271-0.553,0.699-0.553c0.387,0,0.69,0.198,0.804,0.501l0.782-0.543c-0.24-0.5-0.782-0.791-1.544-0.791
	c-1.148,0-1.846,0.614-1.846,1.449c0,0.699,0.469,1.075,1.387,1.461c0.668,0.282,1.148,0.323,1.148,0.824
	c0,0.386-0.293,0.637-0.793,0.637c-0.586,0-0.951-0.261-1.086-0.741L92.826,24.166z M91.147,22.642c0,0.908-0.679,1.607-1.493,1.607
	c-0.824,0-1.492-0.699-1.492-1.607c0-0.908,0.668-1.607,1.492-1.607C90.479,21.034,91.147,21.733,91.147,22.642 M86.994,22.631
	c0,0.709,0.271,1.346,0.782,1.847c0.5,0.489,1.168,0.76,1.868,0.76c0.72,0,1.377-0.271,1.898-0.771
	c0.5-0.48,0.771-1.116,0.771-1.836c0-0.7-0.282-1.336-0.782-1.826c-0.511-0.501-1.168-0.761-1.888-0.761
	c-0.7,0-1.368,0.26-1.868,0.75C87.266,21.284,86.994,21.932,86.994,22.631 M81.037,23.946v-5.28h0.877
	c0.896,0,1.586,0.031,2.139,0.49c0.564,0.479,0.845,1.2,0.845,2.15c0,0.949-0.28,1.669-0.845,2.149
	c-0.532,0.449-1.17,0.491-1.993,0.491H81.037z M79.828,25.041h1.959c1.211,0,2.192-0.031,3.059-0.698
	c0.855-0.657,1.314-1.69,1.314-3.026s-0.459-2.379-1.314-3.036c-0.908-0.698-1.983-0.698-3.381-0.698h-1.637V25.041z M74.194,22.61
	c0,1.023-0.585,1.649-1.347,1.649c-0.835,0-1.326-0.574-1.326-1.607c0-1.023,0.512-1.628,1.348-1.628
	C73.693,21.024,74.194,21.599,74.194,22.61 M75.268,24.738v-4.527h-1.105v0.792c-0.261-0.616-0.834-0.959-1.627-0.959
	c-1.273,0-2.17,1.021-2.17,2.576c0,1.649,0.854,2.618,2.2,2.618c0.679,0,1.201-0.271,1.597-0.823l-0.01,0.636
	c-0.011,0.901-0.324,1.347-1.336,1.347c-0.646,0-1.002-0.228-1.034-0.632h-1.188c0.011,0.902,0.834,1.538,2.201,1.538
	C74.662,27.304,75.268,26.533,75.268,24.738 M64.689,25.041h1.105V22.84c0-0.605,0.021-1.022,0.219-1.315
	c0.23-0.344,0.646-0.542,1.169-0.542c0.919,0,1.054,0.501,1.054,1.576v2.482h1.115V22.11c0-0.585,0-1.023-0.239-1.388
	c-0.282-0.448-0.792-0.677-1.512-0.677c-0.847,0-1.42,0.281-1.869,0.958v-0.791h-1.042V25.041z M61.967,18.125
	c0,0.375,0.312,0.698,0.699,0.698c0.385,0,0.688-0.302,0.688-0.698s-0.303-0.688-0.688-0.688
	C62.279,17.437,61.967,17.749,61.967,18.125 M62.112,25.041h1.104v-4.829h-1.104V25.041z M59.567,22.61
	c0,1.023-0.573,1.649-1.347,1.649c-0.836,0-1.325-0.574-1.325-1.607c0-1.023,0.511-1.629,1.346-1.629
	C59.066,21.023,59.567,21.598,59.567,22.61 M59.537,17.145v3.858c-0.262-0.614-0.836-0.958-1.63-0.958
	c-1.272,0-2.169,1.021-2.169,2.576c0,1.649,0.855,2.618,2.201,2.618c0.678,0,1.2-0.271,1.598-0.823v0.625h1.104v-7.896H59.537z
	 M54.674,25.041v-4.829h-1.105v0.791c-0.261-0.614-0.835-0.958-1.628-0.958c-1.272,0-2.169,1.021-2.169,2.576
	c0,1.649,0.854,2.618,2.2,2.618c0.679,0,1.2-0.271,1.597-0.823v0.625H54.674z M53.6,22.61c0,1.023-0.584,1.649-1.346,1.649
	c-0.836,0-1.326-0.574-1.326-1.607c0-1.023,0.512-1.629,1.347-1.629C53.099,21.023,53.6,21.598,53.6,22.61 M47.894,22.642
	c0,0.908-0.679,1.607-1.493,1.607c-0.824,0-1.492-0.699-1.492-1.607c0-0.908,0.668-1.607,1.492-1.607
	C47.226,21.034,47.894,21.733,47.894,22.642 M43.74,22.631c0,0.709,0.271,1.346,0.782,1.847c0.5,0.489,1.168,0.76,1.868,0.76
	c0.72,0,1.377-0.271,1.898-0.771c0.5-0.48,0.771-1.116,0.771-1.836c0-0.7-0.282-1.336-0.782-1.826
	c-0.511-0.501-1.168-0.761-1.888-0.761c-0.7,0-1.368,0.26-1.868,0.75C44.012,21.284,43.74,21.932,43.74,22.631 M39.391,25.041h3.921
	v-1.084H40.6v-6.374h-1.209V25.041z"/>
<g>
	<path fill="#F9A25E" d="M148.382,301.535l2.307,6.7l2.407-7.058l2.433,7.058l2.318-6.7h1.172L155.49,311l-2.382-7.044l-2.37,7.044
		l-3.528-9.465H148.382z"/>
	<path fill="#F9A25E" d="M160.441,307.942v0.09c0,1.234,0.789,2.037,1.885,2.037c0.765,0,1.376-0.407,1.847-1.234l0.739,0.496
		c-0.572,1.031-1.465,1.554-2.637,1.554c-1.732,0-2.904-1.248-2.904-3.106c0-1.798,1.185-3.046,2.841-3.046
		c1.669,0,2.738,1.136,2.738,3.02v0.191L160.441,307.942L160.441,307.942z M162.174,305.586c-0.93,0-1.631,0.599-1.732,1.567h3.464
		C163.842,306.146,163.205,305.586,162.174,305.586z"/>
	<path fill="#F9A25E" d="M166.936,307.942v0.09c0,1.234,0.789,2.037,1.885,2.037c0.766,0,1.377-0.407,1.848-1.234l0.739,0.496
		c-0.572,1.031-1.466,1.554-2.638,1.554c-1.731,0-2.903-1.248-2.903-3.106c0-1.798,1.185-3.046,2.841-3.046
		c1.669,0,2.738,1.136,2.738,3.02v0.191L166.936,307.942L166.936,307.942z M168.668,305.586c-0.93,0-1.631,0.599-1.732,1.567h3.465
		C170.336,306.146,169.699,305.586,168.668,305.586z"/>
	<path fill="#F9A25E" d="M172.868,301h0.969l0.013,6.535l2.738-2.586h1.301l-2.842,2.61l3.096,3.083h-1.363l-2.93-3.007
		l-0.013,3.007h-0.969V301z"/>
	<path fill="#F9A25E" d="M179.299,309.128c0.318,0.61,0.803,0.903,1.452,0.903s1.069-0.356,1.069-0.854
		c0-0.434-0.293-0.663-0.893-0.865c-1.4-0.484-2.24-0.728-2.24-1.849c0-0.993,0.803-1.72,2.013-1.72c0.981,0,1.72,0.408,2.024,1.134
		l-0.789,0.484c-0.229-0.522-0.701-0.815-1.3-0.815c-0.573,0-0.968,0.355-0.968,0.854c0,0.599,0.521,0.676,1.465,0.979
		c1.108,0.357,1.656,0.766,1.656,1.694c0,1.058-0.814,1.809-2.077,1.809c-1.058,0-1.796-0.395-2.242-1.195L179.299,309.128z"/>
</g>
</svg>
