<?xml version="1.0" encoding="utf-8"?>
<!-- Generator: Adobe Illustrator 15.1.0, SVG Export Plug-In . SVG Version: 6.00 Build 0)  -->
<!DOCTYPE svg PUBLIC "-//W3C//DTD SVG 1.1//EN" "http://www.w3.org/Graphics/SVG/1.1/DTD/svg11.dtd">
<svg version="1.1" id="art" xmlns="http://www.w3.org/2000/svg" xmlns:xlink="http://www.w3.org/1999/xlink" x="0px" y="0px"
	 width="912px" height="417px" viewBox="0 0 912 417" enable-background="new 0 0 912 417" xml:space="preserve">
<g>
	<defs>
		<rect id="SVGID_1_" y="-1" width="912" height="417.448"/>
	</defs>
	<clipPath id="SVGID_2_">
		<use xlink:href="#SVGID_1_"  overflow="visible"/>
	</clipPath>
	<g clip-path="url(#SVGID_2_)">
		<defs>
			<rect id="SVGID_3_" y="-1" width="912" height="417.448"/>
		</defs>
		<clipPath id="SVGID_4_">
			<use xlink:href="#SVGID_3_"  overflow="visible"/>
		</clipPath>
		<g clip-path="url(#SVGID_4_)">
			<g>
				<defs>
					<rect id="SVGID_5_" x="109" y="39" width="303" height="290"/>
				</defs>
				<clipPath id="SVGID_6_">
					<use xlink:href="#SVGID_5_"  overflow="visible"/>
				</clipPath>
				<rect x="118" y="40" clip-path="url(#SVGID_6_)" fill="#FDEBDE" width="285" height="288"/>
			</g>
		</g>
	</g>
	<rect x="405" y="40" clip-path="url(#SVGID_2_)" fill="#CBDFD3" width="389" height="288"/>
	<rect x="405" clip-path="url(#SVGID_2_)" fill="#006227" width="389" height="40"/>
	<rect x="118" clip-path="url(#SVGID_2_)" fill="#F8A15E" width="285" height="40"/>
	
		<line clip-path="url(#SVGID_2_)" fill="none" stroke="#FFFFFF" stroke-width="0.869" x1="144" y1="183.249" x2="144" y2="322.098"/>
	
		<line clip-path="url(#SVGID_2_)" fill="none" stroke="#FFFFFF" stroke-width="0.869" x1="196" y1="183.249" x2="196" y2="322.098"/>
	
		<line clip-path="url(#SVGID_2_)" fill="none" stroke="#FFFFFF" stroke-width="0.869" x1="248" y1="183.249" x2="248" y2="322.098"/>
	
		<line clip-path="url(#SVGID_2_)" fill="none" stroke="#FFFFFF" stroke-width="0.869" x1="300" y1="183.249" x2="300" y2="322.098"/>
	
		<line clip-path="url(#SVGID_2_)" fill="none" stroke="#FFFFFF" stroke-width="0.869" x1="352" y1="183.249" x2="352" y2="322.098"/>
	
		<line clip-path="url(#SVGID_2_)" fill="none" stroke="#FFFFFF" stroke-width="0.869" x1="248" y1="183.249" x2="248" y2="322.098"/>
	
		<line clip-path="url(#SVGID_2_)" fill="none" stroke="#FFFFFF" stroke-width="0.869" x1="352" y1="183.249" x2="352" y2="322.098"/>
	
		<line clip-path="url(#SVGID_2_)" fill="none" stroke="#FFFFFF" stroke-width="0.869" x1="404" y1="183.249" x2="404" y2="322.098"/>
	
		<line clip-path="url(#SVGID_2_)" fill="none" stroke="#FFFFFF" stroke-width="0.869" x1="456" y1="135.429" x2="456" y2="322.098"/>
	
		<line clip-path="url(#SVGID_2_)" fill="none" stroke="#FFFFFF" stroke-width="0.869" x1="508" y1="135.429" x2="508" y2="322.098"/>
	
		<line clip-path="url(#SVGID_2_)" fill="none" stroke="#FFFFFF" stroke-width="0.869" x1="560" y1="135.429" x2="560" y2="322.098"/>
	
		<line clip-path="url(#SVGID_2_)" fill="none" stroke="#FFFFFF" stroke-width="0.869" x1="612" y1="135.429" x2="612" y2="322.098"/>
	
		<line clip-path="url(#SVGID_2_)" fill="none" stroke="#FFFFFF" stroke-width="0.869" x1="664" y1="135.429" x2="664" y2="322.098"/>
	
		<line clip-path="url(#SVGID_2_)" fill="none" stroke="#FFFFFF" stroke-width="0.869" x1="716" y1="135.429" x2="716" y2="322.098"/>
	
		<line clip-path="url(#SVGID_2_)" fill="none" stroke="#FFFFFF" stroke-width="0.869" x1="768" y1="135.429" x2="768" y2="322.098"/>
	
		<line clip-path="url(#SVGID_2_)" fill="none" stroke="#F8A15E" stroke-width="1.739" x1="144" y1="319.375" x2="144" y2="328.001"/>
	
		<line clip-path="url(#SVGID_2_)" fill="none" stroke="#F8A15E" stroke-width="1.739" x1="248" y1="319.375" x2="248" y2="328.001"/>
	
		<line clip-path="url(#SVGID_2_)" fill="none" stroke="#F8A15E" stroke-width="1.739" x1="352" y1="319.375" x2="352" y2="328.001"/>
	
		<line clip-path="url(#SVGID_2_)" fill="none" stroke="#006227" stroke-width="1.739" x1="456" y1="319.375" x2="456" y2="328.001"/>
	
		<line clip-path="url(#SVGID_2_)" fill="none" stroke="#006227" stroke-width="1.739" x1="560" y1="319.375" x2="560" y2="328.001"/>
	
		<line clip-path="url(#SVGID_2_)" fill="none" stroke="#006227" stroke-width="1.739" x1="664" y1="319.375" x2="664" y2="328.001"/>
	
		<line clip-path="url(#SVGID_2_)" fill="none" stroke="#006227" stroke-width="1.739" x1="768" y1="319.375" x2="768" y2="328.001"/>
	
		<line clip-path="url(#SVGID_2_)" fill="none" stroke="#006227" stroke-width="0.869" x1="404" y1="323.688" x2="404" y2="328.001"/>
	
		<line clip-path="url(#SVGID_2_)" fill="none" stroke="#006227" stroke-width="0.869" x1="508" y1="323.688" x2="508" y2="328.001"/>
	
		<line clip-path="url(#SVGID_2_)" fill="none" stroke="#006227" stroke-width="0.869" x1="612" y1="323.688" x2="612" y2="328.001"/>
	
		<line clip-path="url(#SVGID_2_)" fill="none" stroke="#006227" stroke-width="0.869" x1="716" y1="323.688" x2="716" y2="328.001"/>
	
		<line clip-path="url(#SVGID_2_)" fill="none" stroke="#F8A15E" stroke-width="0.869" x1="196" y1="323.688" x2="196" y2="328.001"/>
	
		<line clip-path="url(#SVGID_2_)" fill="none" stroke="#F8A15E" stroke-width="0.869" x1="300" y1="323.688" x2="300" y2="328.001"/>
	<g clip-path="url(#SVGID_2_)">
		<defs>
			<rect id="SVGID_7_" y="-1" width="912" height="417.448"/>
		</defs>
		<clipPath id="SVGID_8_">
			<use xlink:href="#SVGID_7_"  overflow="visible"/>
		</clipPath>
		<path clip-path="url(#SVGID_8_)" fill="none" stroke="#80AF92" stroke-width="10" d="M794,231.44H408.312c0,0-4.312,0-4.312-4.312
			v-23.59"/>
	</g>
	<polygon clip-path="url(#SVGID_2_)" fill="#F9B47E" points="393.544,199.403 404,209.858 414.456,199.403 	"/>
	<g clip-path="url(#SVGID_2_)">
		<defs>
			<rect id="SVGID_9_" y="-1" width="912" height="417.448"/>
		</defs>
		<clipPath id="SVGID_10_">
			<use xlink:href="#SVGID_9_"  overflow="visible"/>
		</clipPath>
		<path clip-path="url(#SVGID_10_)" fill="none" stroke="#80AF92" stroke-width="10" d="M404,164.423v-23.551
			c0,0,0-4.312,4.312-4.312H794"/>
		<path clip-path="url(#SVGID_10_)" fill="none" stroke="#F9B47E" stroke-width="10" d="M404,164.423v9.789
			c0,0,0,9.789-17.251,9.789H144"/>
		<path clip-path="url(#SVGID_10_)" fill="none" stroke="#F9B47E" stroke-width="10" d="M404,203.538v-9.789
			c0,0,0-9.787-17.251-9.787H144"/>
	</g>
	<polygon clip-path="url(#SVGID_2_)" fill="#F9B47E" points="393.544,169.521 404,159.065 414.456,169.521 	"/>
	<g clip-path="url(#SVGID_2_)">
		<defs>
			<rect id="SVGID_11_" y="-1" width="912" height="417.448"/>
		</defs>
		<clipPath id="SVGID_12_">
			<use xlink:href="#SVGID_11_"  overflow="visible"/>
		</clipPath>
		<path clip-path="url(#SVGID_12_)" fill="#FFFFFF" d="M144,199.37c8.475,0,15.37-6.895,15.37-15.37
			c0-8.474-6.895-15.369-15.37-15.369s-15.37,6.896-15.37,15.369C128.63,192.476,135.525,199.37,144,199.37"/>
	</g>
	<g clip-path="url(#SVGID_2_)">
		<defs>
			<path id="SVGID_13_" d="M139.49,168.905c-6.501,1.939-11.24,7.964-11.24,15.095c0,7.132,4.74,13.157,11.243,15.095h9.014
				c2.884-0.858,5.422-2.523,7.353-4.731v-20.728c-1.93-2.207-4.467-3.871-7.35-4.73H139.49z"/>
		</defs>
		<clipPath id="SVGID_14_">
			<use xlink:href="#SVGID_13_"  overflow="visible"/>
		</clipPath>
		<path clip-path="url(#SVGID_14_)" fill="#F8A15D" d="M137.054,189.839c0,0,0.121,0.07,0.191-0.051l0.301-0.522l0.931,0.538
			c0,0,0.26,0.15,0.469-0.213c0,0,5.527-9.551,5.542-9.6l1.32,0.762c0,0,0.122,0.069,0.192-0.051l0.219-0.382
			c0,0,0.071-0.12-0.051-0.19l-2.191-1.266l1.319-2.281l1.123,0.647c0,0,0.119,0.069,0.191-0.052l0.174-0.303
			c0,0,0.07-0.121-0.051-0.19l-3.472-2.003c0,0-0.12-0.071-0.19,0.049l-0.175,0.305c0,0-0.069,0.119,0.052,0.189l1.123,0.648
			l-1.318,2.283l-2.191-1.265c0,0-0.122-0.07-0.191,0.051l-0.22,0.381c0,0-0.07,0.121,0.051,0.191l1.32,0.761
			c-0.02,0.023-5.543,9.6-5.543,9.6s-0.21,0.364,0.152,0.576l0.828,0.477l-0.3,0.521c0,0-0.071,0.121,0.05,0.192l0.036,0.02
			l-2.017,3.492l0.309,0.18L137.054,189.839z"/>
	</g>
	<g clip-path="url(#SVGID_2_)">
		<defs>
			<rect id="SVGID_15_" y="-1" width="912" height="417.448"/>
		</defs>
		<clipPath id="SVGID_16_">
			<use xlink:href="#SVGID_15_"  overflow="visible"/>
		</clipPath>
		<path clip-path="url(#SVGID_16_)" fill="none" stroke="#F8A15E" stroke-width="0.761" d="M144,199.37
			c8.475,0,15.37-6.895,15.37-15.37c0-8.474-6.895-15.369-15.37-15.369s-15.37,6.896-15.37,15.369
			C128.63,192.476,135.525,199.37,144,199.37z"/>
	</g>
	<g clip-path="url(#SVGID_2_)">
		<defs>
			<rect id="SVGID_17_" x="134.727" y="168.904" width="24.368" height="30.19"/>
		</defs>
		<clipPath id="SVGID_18_">
			<use xlink:href="#SVGID_17_"  overflow="visible"/>
		</clipPath>
		<path clip-path="url(#SVGID_18_)" fill="#F8A15D" d="M145.032,189.839c0,0,0.121,0.07,0.191-0.051l0.301-0.522l0.931,0.538
			c0,0,0.26,0.15,0.469-0.213c0,0,5.527-9.551,5.542-9.6l1.32,0.762c0,0,0.122,0.069,0.192-0.051l0.219-0.382
			c0,0,0.071-0.12-0.051-0.19l-2.191-1.266l1.319-2.281l1.123,0.647c0,0,0.119,0.069,0.191-0.052l0.174-0.303
			c0,0,0.07-0.121-0.051-0.19l-3.472-2.003c0,0-0.12-0.071-0.19,0.049l-0.175,0.305c0,0-0.069,0.119,0.052,0.189l1.123,0.648
			l-1.318,2.283l-2.191-1.265c0,0-0.122-0.07-0.191,0.051l-0.22,0.381c0,0-0.07,0.121,0.051,0.191l1.32,0.761
			c-0.02,0.023-5.543,9.6-5.543,9.6s-0.21,0.364,0.152,0.576l0.828,0.477l-0.3,0.521c0,0-0.071,0.121,0.05,0.192l0.036,0.02
			l-2.017,3.492l0.309,0.18L145.032,189.839z"/>
	</g>
	<g clip-path="url(#SVGID_2_)">
		<defs>
			<rect id="SVGID_19_" y="-1" width="912" height="417.448"/>
		</defs>
		<clipPath id="SVGID_20_">
			<use xlink:href="#SVGID_19_"  overflow="visible"/>
		</clipPath>
		<path clip-path="url(#SVGID_20_)" fill="#FFFFFF" d="M248,199.37c8.475,0,15.37-6.895,15.37-15.37
			c0-8.474-6.896-15.369-15.37-15.369s-15.37,6.896-15.37,15.369C232.63,192.476,239.525,199.37,248,199.37"/>
	</g>
	<g clip-path="url(#SVGID_2_)">
		<defs>
			<path id="SVGID_21_" d="M243.49,168.905c-6.5,1.939-11.241,7.964-11.241,15.095c0,7.132,4.742,13.157,11.244,15.095h9.014
				c2.884-0.859,5.422-2.522,7.354-4.731v-20.726c-1.932-2.209-4.469-3.873-7.353-4.732H243.49z"/>
		</defs>
		<clipPath id="SVGID_22_">
			<use xlink:href="#SVGID_21_"  overflow="visible"/>
		</clipPath>
		<path clip-path="url(#SVGID_22_)" fill="#F8A15D" d="M241.054,189.839c0,0,0.121,0.07,0.19-0.051l0.302-0.522l0.931,0.538
			c0,0,0.26,0.15,0.469-0.213c0,0,5.527-9.551,5.542-9.6l1.32,0.762c0,0,0.122,0.069,0.192-0.051l0.219-0.382
			c0,0,0.071-0.12-0.051-0.19l-2.191-1.266l1.319-2.281l1.123,0.647c0,0,0.118,0.069,0.19-0.052l0.174-0.303
			c0,0,0.07-0.121-0.051-0.19l-3.472-2.003c0,0-0.12-0.071-0.19,0.049l-0.175,0.305c0,0-0.069,0.119,0.052,0.189l1.123,0.648
			l-1.317,2.283l-2.191-1.265c0,0-0.122-0.07-0.191,0.051l-0.22,0.381c0,0-0.069,0.121,0.051,0.191l1.32,0.761
			c-0.02,0.023-5.543,9.6-5.543,9.6s-0.21,0.364,0.152,0.576l0.828,0.477l-0.301,0.521c0,0-0.07,0.121,0.051,0.192l0.035,0.02
			l-2.017,3.492l0.309,0.18L241.054,189.839z"/>
	</g>
	<g clip-path="url(#SVGID_2_)">
		<defs>
			<rect id="SVGID_23_" y="-1" width="912" height="417.448"/>
		</defs>
		<clipPath id="SVGID_24_">
			<use xlink:href="#SVGID_23_"  overflow="visible"/>
		</clipPath>
		<path clip-path="url(#SVGID_24_)" fill="none" stroke="#F8A15E" stroke-width="0.761" d="M248,199.37
			c8.475,0,15.37-6.895,15.37-15.37c0-8.474-6.896-15.369-15.37-15.369s-15.37,6.896-15.37,15.369
			C232.63,192.476,239.525,199.37,248,199.37z"/>
	</g>
	<g clip-path="url(#SVGID_2_)">
		<defs>
			<rect id="SVGID_25_" x="238.728" y="168.904" width="24.367" height="30.19"/>
		</defs>
		<clipPath id="SVGID_26_">
			<use xlink:href="#SVGID_25_"  overflow="visible"/>
		</clipPath>
		<path clip-path="url(#SVGID_26_)" fill="#F8A15D" d="M249.032,189.839c0,0,0.121,0.07,0.191-0.051l0.301-0.522l0.931,0.538
			c0,0,0.26,0.15,0.469-0.213c0,0,5.527-9.551,5.542-9.6l1.32,0.762c0,0,0.122,0.069,0.192-0.051l0.219-0.382
			c0,0,0.071-0.12-0.051-0.19l-2.191-1.266l1.319-2.281l1.123,0.647c0,0,0.119,0.069,0.19-0.052l0.175-0.303
			c0,0,0.069-0.121-0.052-0.19l-3.472-2.003c0,0-0.12-0.071-0.19,0.049l-0.175,0.305c0,0-0.068,0.119,0.053,0.189l1.122,0.648
			l-1.317,2.283l-2.191-1.265c0,0-0.122-0.07-0.19,0.051l-0.221,0.381c0,0-0.069,0.121,0.052,0.191l1.319,0.761
			c-0.02,0.023-5.543,9.6-5.543,9.6s-0.21,0.364,0.152,0.576l0.828,0.477l-0.3,0.521c0,0-0.071,0.121,0.05,0.192l0.036,0.02
			l-2.018,3.492l0.31,0.18L249.032,189.839z"/>
	</g>
	<g clip-path="url(#SVGID_2_)">
		<defs>
			<rect id="SVGID_27_" y="-1" width="912" height="417.448"/>
		</defs>
		<clipPath id="SVGID_28_">
			<use xlink:href="#SVGID_27_"  overflow="visible"/>
		</clipPath>
		<path clip-path="url(#SVGID_28_)" fill="#FFFFFF" d="M352,199.37c8.475,0,15.37-6.895,15.37-15.37
			c0-8.474-6.896-15.369-15.37-15.369s-15.37,6.896-15.37,15.369C336.63,192.476,343.525,199.37,352,199.37"/>
	</g>
	<g clip-path="url(#SVGID_2_)">
		<defs>
			<path id="SVGID_29_" d="M347.49,168.905c-6.501,1.939-11.24,7.964-11.24,15.095c0,7.132,4.741,13.157,11.243,15.095h9.014
				c2.884-0.858,5.422-2.523,7.354-4.731v-20.728c-1.931-2.207-4.469-3.871-7.351-4.73H347.49z"/>
		</defs>
		<clipPath id="SVGID_30_">
			<use xlink:href="#SVGID_29_"  overflow="visible"/>
		</clipPath>
		<path clip-path="url(#SVGID_30_)" fill="#F8A15D" d="M345.054,189.839c0,0,0.121,0.07,0.19-0.051l0.302-0.522l0.931,0.538
			c0,0,0.26,0.15,0.469-0.213c0,0,5.527-9.551,5.542-9.6l1.32,0.762c0,0,0.122,0.069,0.192-0.051l0.219-0.382
			c0,0,0.071-0.12-0.051-0.19l-2.191-1.266l1.319-2.281l1.123,0.647c0,0,0.118,0.069,0.19-0.052l0.174-0.303
			c0,0,0.07-0.121-0.051-0.19l-3.472-2.003c0,0-0.12-0.071-0.19,0.049l-0.175,0.305c0,0-0.069,0.119,0.052,0.189l1.123,0.648
			l-1.317,2.283l-2.191-1.265c0,0-0.122-0.07-0.191,0.051l-0.22,0.381c0,0-0.07,0.121,0.051,0.191l1.32,0.761
			c-0.02,0.023-5.543,9.6-5.543,9.6s-0.21,0.364,0.152,0.576l0.828,0.477l-0.301,0.521c0,0-0.07,0.121,0.051,0.192l0.035,0.02
			l-2.017,3.492l0.309,0.18L345.054,189.839z"/>
	</g>
	<g clip-path="url(#SVGID_2_)">
		<defs>
			<rect id="SVGID_31_" y="-1" width="912" height="417.448"/>
		</defs>
		<clipPath id="SVGID_32_">
			<use xlink:href="#SVGID_31_"  overflow="visible"/>
		</clipPath>
		<path clip-path="url(#SVGID_32_)" fill="none" stroke="#F8A15E" stroke-width="0.761" d="M352,199.37
			c8.475,0,15.37-6.895,15.37-15.37c0-8.474-6.896-15.369-15.37-15.369s-15.37,6.896-15.37,15.369
			C336.63,192.476,343.525,199.37,352,199.37z"/>
	</g>
	<g clip-path="url(#SVGID_2_)">
		<defs>
			<rect id="SVGID_33_" x="342.727" y="168.904" width="24.367" height="30.19"/>
		</defs>
		<clipPath id="SVGID_34_">
			<use xlink:href="#SVGID_33_"  overflow="visible"/>
		</clipPath>
		<path clip-path="url(#SVGID_34_)" fill="#F8A15D" d="M353.032,189.839c0,0,0.121,0.07,0.191-0.051l0.301-0.522l0.931,0.538
			c0,0,0.26,0.15,0.469-0.213c0,0,5.527-9.551,5.542-9.6l1.32,0.762c0,0,0.122,0.069,0.192-0.051l0.219-0.382
			c0,0,0.071-0.12-0.051-0.19l-2.191-1.266l1.319-2.281l1.123,0.647c0,0,0.119,0.069,0.19-0.052l0.175-0.303
			c0,0,0.069-0.121-0.052-0.19l-3.472-2.003c0,0-0.12-0.071-0.19,0.049l-0.175,0.305c0,0-0.068,0.119,0.052,0.189l1.123,0.648
			l-1.317,2.283l-2.191-1.265c0,0-0.122-0.07-0.19,0.051l-0.221,0.381c0,0-0.069,0.121,0.052,0.191l1.319,0.761
			c-0.02,0.023-5.543,9.6-5.543,9.6s-0.21,0.364,0.152,0.576l0.828,0.477l-0.3,0.521c0,0-0.071,0.121,0.05,0.192l0.036,0.02
			l-2.018,3.492l0.31,0.18L353.032,189.839z"/>
	</g>
	<g clip-path="url(#SVGID_2_)">
		<defs>
			<rect id="SVGID_35_" y="-1" width="912" height="417.448"/>
		</defs>
		<clipPath id="SVGID_36_">
			<use xlink:href="#SVGID_35_"  overflow="visible"/>
		</clipPath>
		<path clip-path="url(#SVGID_36_)" fill="#FFFFFF" d="M768.374,246.811c8.476,0,15.37-6.896,15.37-15.37
			c0-8.474-6.895-15.369-15.37-15.369c-8.475,0-15.37,6.896-15.37,15.369C753.004,239.915,759.899,246.811,768.374,246.811"/>
	</g>
	<g clip-path="url(#SVGID_2_)">
		<defs>
			<path id="SVGID_37_" d="M763.864,216.347c-6.501,1.939-11.24,7.963-11.24,15.095s4.739,13.155,11.24,15.095h9.02
				c2.883-0.859,5.42-2.523,7.351-4.73v-20.728c-1.931-2.208-4.468-3.871-7.351-4.731H763.864z"/>
		</defs>
		<clipPath id="SVGID_38_">
			<use xlink:href="#SVGID_37_"  overflow="visible"/>
		</clipPath>
		<path clip-path="url(#SVGID_38_)" fill="#006327" d="M761.428,237.281c0,0,0.121,0.071,0.191-0.052l0.301-0.521l0.931,0.538
			c0,0,0.261,0.149,0.47-0.213c0,0,5.526-9.552,5.542-9.599l1.319,0.76c0,0,0.122,0.07,0.192-0.051l0.219-0.381
			c0,0,0.071-0.119-0.051-0.19l-2.191-1.265l1.319-2.283l1.123,0.648c0,0,0.119,0.07,0.191-0.052l0.174-0.302
			c0,0,0.069-0.121-0.051-0.191l-3.473-2.003c0,0-0.121-0.071-0.189,0.049l-0.176,0.304c0,0-0.068,0.121,0.053,0.19l1.123,0.647
			l-1.318,2.285l-2.191-1.266c0,0-0.121-0.07-0.19,0.051l-0.22,0.381c0,0-0.07,0.121,0.051,0.191l1.319,0.762
			c-0.02,0.022-5.543,9.6-5.543,9.6s-0.21,0.363,0.152,0.574l0.828,0.478l-0.3,0.521c0,0-0.071,0.121,0.05,0.192l0.036,0.021
			l-2.018,3.492l0.31,0.178L761.428,237.281z"/>
	</g>
	<g clip-path="url(#SVGID_2_)">
		<defs>
			<rect id="SVGID_39_" y="-1" width="912" height="417.448"/>
		</defs>
		<clipPath id="SVGID_40_">
			<use xlink:href="#SVGID_39_"  overflow="visible"/>
		</clipPath>
		<path clip-path="url(#SVGID_40_)" fill="none" stroke="#006227" stroke-width="0.761" d="M768.374,246.811
			c8.476,0,15.37-6.896,15.37-15.37c0-8.474-6.895-15.369-15.37-15.369c-8.475,0-15.37,6.896-15.37,15.369
			C753.004,239.915,759.899,246.811,768.374,246.811z"/>
	</g>
	<g clip-path="url(#SVGID_2_)">
		<defs>
			<rect id="SVGID_41_" x="758.023" y="216.347" width="25.445" height="30.189"/>
		</defs>
		<clipPath id="SVGID_42_">
			<use xlink:href="#SVGID_41_"  overflow="visible"/>
		</clipPath>
		<path clip-path="url(#SVGID_42_)" fill="#006327" d="M769.406,237.281c0,0,0.121,0.071,0.191-0.052l0.301-0.521l0.932,0.538
			c0,0,0.26,0.149,0.469-0.213c0,0,5.526-9.552,5.542-9.599l1.319,0.76c0,0,0.122,0.07,0.192-0.051l0.219-0.381
			c0,0,0.071-0.119-0.051-0.19l-2.19-1.265l1.318-2.283l1.123,0.648c0,0,0.119,0.07,0.191-0.052l0.174-0.302
			c0,0,0.07-0.121-0.051-0.191l-3.473-2.003c0,0-0.121-0.071-0.189,0.049l-0.175,0.304c0,0-0.069,0.121,0.052,0.19l1.123,0.647
			l-1.318,2.285l-2.19-1.266c0,0-0.122-0.07-0.191,0.051l-0.22,0.381c0,0-0.07,0.121,0.051,0.191l1.32,0.762
			c-0.021,0.022-5.543,9.6-5.543,9.6s-0.21,0.363,0.151,0.574l0.828,0.478l-0.3,0.521c0,0-0.071,0.121,0.05,0.192l0.036,0.021
			l-2.017,3.492l0.309,0.178L769.406,237.281z"/>
	</g>
	<g clip-path="url(#SVGID_2_)">
		<defs>
			<rect id="SVGID_43_" y="-1" width="912" height="417.448"/>
		</defs>
		<clipPath id="SVGID_44_">
			<use xlink:href="#SVGID_43_"  overflow="visible"/>
		</clipPath>
		<path clip-path="url(#SVGID_44_)" fill="#FFFFFF" d="M559.626,246.811c8.475,0,15.37-6.896,15.37-15.37
			c0-8.474-6.896-15.369-15.37-15.369c-8.476,0-15.37,6.896-15.37,15.369C544.256,239.915,551.15,246.811,559.626,246.811"/>
	</g>
	<g clip-path="url(#SVGID_2_)">
		<defs>
			<path id="SVGID_45_" d="M555.115,216.347c-6.5,1.939-11.24,7.963-11.24,15.095s4.74,13.155,11.24,15.095h9.02
				c2.883-0.859,5.42-2.523,7.352-4.73v-20.728c-1.932-2.208-4.469-3.871-7.352-4.731H555.115z"/>
		</defs>
		<clipPath id="SVGID_46_">
			<use xlink:href="#SVGID_45_"  overflow="visible"/>
		</clipPath>
		<path clip-path="url(#SVGID_46_)" fill="#006327" d="M552.68,237.281c0,0,0.12,0.071,0.19-0.052l0.301-0.521l0.932,0.538
			c0,0,0.26,0.149,0.469-0.213c0,0,5.526-9.552,5.542-9.599l1.32,0.76c0,0,0.121,0.07,0.191-0.051l0.219-0.381
			c0,0,0.071-0.119-0.051-0.19l-2.19-1.265l1.318-2.283l1.123,0.648c0,0,0.119,0.07,0.191-0.052l0.174-0.302
			c0,0,0.07-0.121-0.051-0.191l-3.473-2.003c0,0-0.12-0.071-0.189,0.049l-0.175,0.304c0,0-0.069,0.121,0.052,0.19l1.123,0.647
			l-1.318,2.285l-2.19-1.266c0,0-0.122-0.07-0.191,0.051l-0.22,0.381c0,0-0.07,0.121,0.051,0.191l1.32,0.762
			c-0.021,0.022-5.543,9.6-5.543,9.6s-0.21,0.363,0.151,0.574l0.828,0.478l-0.3,0.521c0,0-0.071,0.121,0.05,0.192l0.036,0.021
			l-2.017,3.492l0.309,0.178L552.68,237.281z"/>
	</g>
	<g clip-path="url(#SVGID_2_)">
		<defs>
			<rect id="SVGID_47_" y="-1" width="912" height="417.448"/>
		</defs>
		<clipPath id="SVGID_48_">
			<use xlink:href="#SVGID_47_"  overflow="visible"/>
		</clipPath>
		<path clip-path="url(#SVGID_48_)" fill="none" stroke="#006227" stroke-width="0.761" d="M559.626,246.811
			c8.475,0,15.37-6.896,15.37-15.37c0-8.474-6.896-15.369-15.37-15.369c-8.476,0-15.37,6.896-15.37,15.369
			C544.256,239.915,551.15,246.811,559.626,246.811z"/>
	</g>
	<g clip-path="url(#SVGID_2_)">
		<defs>
			<rect id="SVGID_49_" x="549.274" y="216.347" width="25.445" height="30.189"/>
		</defs>
		<clipPath id="SVGID_50_">
			<use xlink:href="#SVGID_49_"  overflow="visible"/>
		</clipPath>
		<path clip-path="url(#SVGID_50_)" fill="#006327" d="M560.658,237.281c0,0,0.121,0.071,0.19-0.052l0.301-0.521l0.932,0.538
			c0,0,0.26,0.149,0.469-0.213c0,0,5.527-9.552,5.542-9.599l1.32,0.76c0,0,0.122,0.07,0.191-0.051l0.22-0.381
			c0,0,0.07-0.119-0.052-0.19l-2.19-1.265l1.318-2.283l1.123,0.648c0,0,0.119,0.07,0.191-0.052l0.174-0.302
			c0,0,0.07-0.121-0.051-0.191l-3.472-2.003c0,0-0.121-0.071-0.19,0.049l-0.175,0.304c0,0-0.069,0.121,0.052,0.19l1.123,0.647
			l-1.318,2.285l-2.19-1.266c0,0-0.122-0.07-0.191,0.051l-0.22,0.381c0,0-0.07,0.121,0.051,0.191l1.32,0.762
			c-0.021,0.022-5.543,9.6-5.543,9.6s-0.21,0.363,0.151,0.574l0.828,0.478l-0.3,0.521c0,0-0.071,0.121,0.05,0.192l0.036,0.021
			l-2.017,3.492l0.309,0.178L560.658,237.281z"/>
	</g>
	<g clip-path="url(#SVGID_2_)">
		<defs>
			<rect id="SVGID_51_" y="-1" width="912" height="417.448"/>
		</defs>
		<clipPath id="SVGID_52_">
			<use xlink:href="#SVGID_51_"  overflow="visible"/>
		</clipPath>
		<path clip-path="url(#SVGID_52_)" fill="#FFFFFF" d="M768,151.929c8.475,0,15.37-6.895,15.37-15.369S776.475,121.19,768,121.19
			s-15.37,6.895-15.37,15.369S759.525,151.929,768,151.929"/>
	</g>
	<g clip-path="url(#SVGID_2_)">
		<defs>
			<path id="SVGID_53_" d="M763.49,121.464c-5.073,1.514-9.072,5.514-10.585,10.586v9.02c1.513,5.072,5.512,9.072,10.585,10.585
				h9.02c5.072-1.513,9.072-5.513,10.584-10.585v-9.02c-1.512-5.072-5.512-9.072-10.584-10.586H763.49z"/>
		</defs>
		<clipPath id="SVGID_54_">
			<use xlink:href="#SVGID_53_"  overflow="visible"/>
		</clipPath>
		<path clip-path="url(#SVGID_54_)" fill="#006327" d="M764.288,142.399c0,0,0.121,0.07,0.191-0.051l0.301-0.522l0.931,0.538
			c0,0,0.26,0.15,0.469-0.213c0,0,5.527-9.551,5.543-9.6l1.319,0.762c0,0,0.122,0.07,0.192-0.051l0.219-0.381
			c0,0,0.071-0.121-0.051-0.191l-2.191-1.266l1.319-2.281l1.123,0.647c0,0,0.119,0.07,0.19-0.052l0.175-0.303
			c0,0,0.069-0.12-0.052-0.19l-3.472-2.003c0,0-0.121-0.07-0.19,0.049l-0.175,0.305c0,0-0.068,0.119,0.053,0.189l1.122,0.648
			l-1.317,2.283l-2.191-1.265c0,0-0.122-0.069-0.19,0.051l-0.221,0.382c0,0-0.069,0.121,0.052,0.19l1.319,0.761
			c-0.02,0.023-5.543,9.6-5.543,9.6s-0.21,0.365,0.152,0.576l0.828,0.477l-0.3,0.521c0,0-0.071,0.121,0.05,0.191l0.036,0.02
			l-2.018,3.492l0.31,0.18L764.288,142.399z"/>
	</g>
	<g clip-path="url(#SVGID_2_)">
		<defs>
			<rect id="SVGID_55_" y="-1" width="912" height="417.448"/>
		</defs>
		<clipPath id="SVGID_56_">
			<use xlink:href="#SVGID_55_"  overflow="visible"/>
		</clipPath>
		<path clip-path="url(#SVGID_56_)" fill="none" stroke="#006227" stroke-width="0.761" d="M768,151.929
			c8.475,0,15.37-6.895,15.37-15.369S776.475,121.19,768,121.19s-15.37,6.895-15.37,15.369S759.525,151.929,768,151.929z"/>
		<path clip-path="url(#SVGID_56_)" fill="#FFFFFF" d="M664,151.929c8.475,0,15.37-6.895,15.37-15.369S672.475,121.19,664,121.19
			s-15.37,6.895-15.37,15.369S655.525,151.929,664,151.929"/>
	</g>
	<g clip-path="url(#SVGID_2_)">
		<defs>
			<path id="SVGID_57_" d="M659.49,121.464c-5.072,1.514-9.072,5.514-10.585,10.586v9.02c1.513,5.072,5.513,9.072,10.585,10.585
				h9.02c5.072-1.513,9.072-5.513,10.585-10.585v-9.02c-1.513-5.072-5.513-9.072-10.585-10.586H659.49z"/>
		</defs>
		<clipPath id="SVGID_58_">
			<use xlink:href="#SVGID_57_"  overflow="visible"/>
		</clipPath>
		<path clip-path="url(#SVGID_58_)" fill="#006327" d="M660.288,142.399c0,0,0.121,0.07,0.191-0.051l0.301-0.522l0.931,0.538
			c0,0,0.26,0.15,0.469-0.213c0,0,5.527-9.551,5.543-9.6l1.319,0.762c0,0,0.122,0.07,0.192-0.051l0.219-0.381
			c0,0,0.071-0.121-0.051-0.191l-2.191-1.266l1.319-2.281l1.123,0.647c0,0,0.119,0.07,0.19-0.052l0.175-0.303
			c0,0,0.069-0.12-0.052-0.19l-3.472-2.003c0,0-0.121-0.07-0.19,0.049l-0.175,0.305c0,0-0.068,0.119,0.053,0.189l1.122,0.648
			l-1.317,2.283l-2.191-1.265c0,0-0.122-0.069-0.19,0.051l-0.221,0.382c0,0-0.069,0.121,0.052,0.19l1.319,0.761
			c-0.02,0.023-5.543,9.6-5.543,9.6s-0.21,0.365,0.152,0.576l0.828,0.477l-0.3,0.521c0,0-0.071,0.121,0.05,0.191l0.036,0.02
			l-2.018,3.492l0.31,0.18L660.288,142.399z"/>
	</g>
	<g clip-path="url(#SVGID_2_)">
		<defs>
			<rect id="SVGID_59_" y="-1" width="912" height="417.448"/>
		</defs>
		<clipPath id="SVGID_60_">
			<use xlink:href="#SVGID_59_"  overflow="visible"/>
		</clipPath>
		<path clip-path="url(#SVGID_60_)" fill="none" stroke="#006227" stroke-width="0.761" d="M664,151.929
			c8.475,0,15.37-6.895,15.37-15.369S672.475,121.19,664,121.19s-15.37,6.895-15.37,15.369S655.525,151.929,664,151.929z"/>
		<path clip-path="url(#SVGID_60_)" fill="#FFFFFF" d="M560,151.929c8.475,0,15.37-6.895,15.37-15.369S568.475,121.19,560,121.19
			s-15.37,6.895-15.37,15.369S551.525,151.929,560,151.929"/>
	</g>
	<g clip-path="url(#SVGID_2_)">
		<defs>
			<path id="SVGID_61_" d="M555.49,121.464c-5.073,1.514-9.072,5.514-10.585,10.586v9.02c1.513,5.072,5.512,9.072,10.585,10.585
				h9.02c5.072-1.513,9.072-5.513,10.585-10.585v-9.02c-1.513-5.072-5.513-9.072-10.585-10.586H555.49z"/>
		</defs>
		<clipPath id="SVGID_62_">
			<use xlink:href="#SVGID_61_"  overflow="visible"/>
		</clipPath>
		<path clip-path="url(#SVGID_62_)" fill="#006327" d="M556.288,142.399c0,0,0.121,0.07,0.191-0.051l0.301-0.522l0.931,0.538
			c0,0,0.26,0.15,0.469-0.213c0,0,5.527-9.551,5.543-9.6l1.319,0.762c0,0,0.122,0.07,0.192-0.051l0.219-0.381
			c0,0,0.071-0.121-0.051-0.191l-2.191-1.266l1.319-2.281l1.123,0.647c0,0,0.119,0.07,0.19-0.052l0.175-0.303
			c0,0,0.069-0.12-0.052-0.19l-3.472-2.003c0,0-0.121-0.07-0.19,0.049l-0.175,0.305c0,0-0.068,0.119,0.053,0.189l1.122,0.648
			l-1.317,2.283l-2.191-1.265c0,0-0.122-0.069-0.19,0.051l-0.221,0.382c0,0-0.069,0.121,0.052,0.19l1.319,0.761
			c-0.02,0.023-5.543,9.6-5.543,9.6s-0.21,0.365,0.152,0.576l0.828,0.477l-0.3,0.521c0,0-0.071,0.121,0.05,0.191l0.036,0.02
			l-2.018,3.492l0.31,0.18L556.288,142.399z"/>
	</g>
	<g clip-path="url(#SVGID_2_)">
		<defs>
			<rect id="SVGID_63_" y="-1" width="912" height="417.448"/>
		</defs>
		<clipPath id="SVGID_64_">
			<use xlink:href="#SVGID_63_"  overflow="visible"/>
		</clipPath>
		<path clip-path="url(#SVGID_64_)" fill="none" stroke="#006227" stroke-width="0.761" d="M560,151.929
			c8.475,0,15.37-6.895,15.37-15.369S568.475,121.19,560,121.19s-15.37,6.895-15.37,15.369S551.525,151.929,560,151.929z"/>
		<path clip-path="url(#SVGID_64_)" fill="#FFFFFF" d="M456,151.929c8.475,0,15.37-6.895,15.37-15.369S464.475,121.19,456,121.19
			s-15.37,6.895-15.37,15.369S447.525,151.929,456,151.929"/>
	</g>
	<g clip-path="url(#SVGID_2_)">
		<defs>
			<path id="SVGID_65_" d="M451.49,121.464c-5.072,1.514-9.072,5.514-10.585,10.586v9.02c1.513,5.072,5.513,9.072,10.585,10.585
				h9.02c5.073-1.513,9.072-5.513,10.585-10.585v-9.02c-1.513-5.072-5.512-9.072-10.585-10.586H451.49z"/>
		</defs>
		<clipPath id="SVGID_66_">
			<use xlink:href="#SVGID_65_"  overflow="visible"/>
		</clipPath>
		<path clip-path="url(#SVGID_66_)" fill="#006327" d="M452.288,142.399c0,0,0.121,0.07,0.191-0.051l0.301-0.522l0.931,0.538
			c0,0,0.26,0.15,0.47-0.213c0,0,5.526-9.551,5.542-9.6l1.319,0.762c0,0,0.122,0.07,0.192-0.051l0.219-0.381
			c0,0,0.071-0.121-0.051-0.191l-2.191-1.266l1.319-2.281l1.123,0.647c0,0,0.119,0.07,0.19-0.052l0.175-0.303
			c0,0,0.069-0.12-0.052-0.19l-3.472-2.003c0,0-0.12-0.07-0.189,0.049l-0.176,0.305c0,0-0.068,0.119,0.053,0.189l1.123,0.648
			l-1.318,2.283l-2.191-1.265c0,0-0.122-0.069-0.19,0.051l-0.221,0.382c0,0-0.069,0.121,0.052,0.19l1.319,0.761
			c-0.02,0.023-5.543,9.6-5.543,9.6s-0.21,0.365,0.152,0.576l0.828,0.477l-0.3,0.521c0,0-0.071,0.121,0.05,0.191l0.036,0.02
			l-2.018,3.492l0.31,0.18L452.288,142.399z"/>
	</g>
	<g clip-path="url(#SVGID_2_)">
		<defs>
			<rect id="SVGID_67_" y="-1" width="912" height="417.448"/>
		</defs>
		<clipPath id="SVGID_68_">
			<use xlink:href="#SVGID_67_"  overflow="visible"/>
		</clipPath>
		<path clip-path="url(#SVGID_68_)" fill="none" stroke="#006227" stroke-width="0.761" d="M456,151.929
			c8.475,0,15.37-6.895,15.37-15.369S464.475,121.19,456,121.19s-15.37,6.895-15.37,15.369S447.525,151.929,456,151.929z"/>
		<line clip-path="url(#SVGID_68_)" fill="none" stroke="#F8A15E" stroke-width="3" x1="0" y1="328" x2="912" y2="328"/>
		<path clip-path="url(#SVGID_68_)" fill="#F8A15E" d="M472.552,414.8c0.561,1.009,1.488,1.505,2.816,1.505
			c1.584,0,2.608-0.944,2.608-2.272c0-1.168-0.688-1.68-2.08-2.128c-1.185-0.384-1.84-0.48-1.84-1.232
			c0-0.624,0.495-1.071,1.216-1.071c0.752,0,1.344,0.367,1.632,1.023l0.992-0.607c-0.385-0.912-1.312-1.425-2.544-1.425
			c-1.521,0-2.528,0.912-2.528,2.16c0,1.408,1.056,1.712,2.816,2.32c0.752,0.256,1.119,0.544,1.119,1.088
			c0,0.624-0.527,1.072-1.344,1.072c-0.815,0-1.424-0.368-1.824-1.136L472.552,414.8z M465.512,416h1.217l0.016-3.775l3.68,3.775
			h1.712l-3.888-3.872l3.568-3.279h-1.632l-3.44,3.248l-0.016-8.208h-1.217V416z M462.424,411.616h-4.352
			c0.128-1.216,1.008-1.968,2.176-1.968C461.544,409.648,462.344,410.353,462.424,411.616 M463.736,412.608v-0.24
			c0-2.368-1.344-3.792-3.44-3.792c-2.08,0-3.567,1.568-3.567,3.824c0,2.336,1.472,3.904,3.647,3.904
			c1.473,0,2.592-0.656,3.312-1.952l-0.929-0.624c-0.592,1.04-1.359,1.552-2.319,1.552c-1.376,0-2.368-1.008-2.368-2.56v-0.112
			H463.736z M454.28,411.616h-4.353c0.129-1.216,1.009-1.968,2.177-1.968C453.4,409.648,454.2,410.353,454.28,411.616
			 M455.592,412.608v-0.24c0-2.368-1.344-3.792-3.439-3.792c-2.08,0-3.568,1.568-3.568,3.824c0,2.336,1.473,3.904,3.648,3.904
			c1.472,0,2.592-0.656,3.312-1.952l-0.928-0.624c-0.592,1.04-1.36,1.552-2.32,1.552c-1.376,0-2.368-1.008-2.368-2.56v-0.112
			H455.592z M433.32,404.561l4.432,11.888l2.977-8.848l2.991,8.848l4.433-11.888h-1.473l-2.911,8.416l-3.057-8.864l-3.023,8.864
			l-2.896-8.416H433.32z"/>
		<path clip-path="url(#SVGID_68_)" fill="#F8A15E" d="M775.752,362.704h-4.336l1.792-1.936c1.84-2,2.896-3.504,2.896-5.152
			c0-1.968-1.312-3.168-3.553-3.168c-2.256,0-3.584,1.264-3.584,3.424c0,0.096,0.017,0.208,0.017,0.304h1.279v-0.128
			c0-1.52,0.801-2.352,2.24-2.352c1.376,0,2.256,0.848,2.256,2c0,1.488-1.424,3.008-3.487,5.44L768.856,364h6.896V362.704z
			 M762.968,364h1.328v-11.328H761.4l-0.769,1.185h2.336V364z"/>
		<path clip-path="url(#SVGID_68_)" fill="#F8A15E" d="M668.696,364.305c2.399,0,3.952-2.129,3.952-5.937s-1.536-5.92-3.984-5.92
			c-2.384,0-3.952,2.144-3.952,5.92S666.28,364.305,668.696,364.305 M668.68,363.185c-1.584,0-2.56-1.729-2.56-4.832
			c0-3.088,0.976-4.801,2.56-4.801c1.664,0,2.561,1.648,2.561,4.832C671.24,361.552,670.344,363.185,668.68,363.185 M658.968,364
			h1.328v-11.328H657.4l-0.769,1.185h2.336V364z"/>
		<path clip-path="url(#SVGID_68_)" fill="#F8A15E" d="M560.016,353.488c1.248,0,2.017,0.72,2.017,1.904
			c0,1.151-0.736,1.855-2.048,1.855c-1.28,0-2-0.72-2-1.855C557.984,354.225,558.752,353.488,560.016,353.488 M560,363.2
			c-1.536,0-2.4-0.88-2.4-2.304c0-1.44,0.896-2.353,2.4-2.353s2.4,0.896,2.4,2.353C562.4,362.32,561.536,363.2,560,363.2
			 M558.512,357.952c-1.504,0.416-2.352,1.536-2.352,3.04c0,1.984,1.424,3.312,3.855,3.312c2.448,0,3.841-1.297,3.841-3.345
			c0-1.472-0.849-2.576-2.353-3.008c1.232-0.368,1.937-1.296,1.937-2.528c0-1.775-1.297-2.976-3.425-2.976
			c-2.096,0-3.439,1.232-3.439,2.864C556.576,356.672,557.232,357.552,558.512,357.952"/>
		<path clip-path="url(#SVGID_68_)" fill="#F8A15E" d="M453.616,360.672c0-1.504,0.928-2.544,2.288-2.544
			c1.52,0,2.432,0.977,2.432,2.528c0,1.52-0.944,2.512-2.352,2.512C454.544,363.168,453.616,362.225,453.616,360.672
			 M454.528,357.536l3.695-4.8l-1.184-0.624l-2.608,3.68c-1.264,1.792-2.224,3.12-2.224,4.769c0,2.239,1.408,3.744,3.504,3.744
			c2.496,0,4.032-1.488,4.032-3.776c0-2.096-1.408-3.536-3.456-3.536C455.648,356.992,455.088,357.168,454.528,357.536"/>
	</g>
	<path clip-path="url(#SVGID_2_)" fill="#F8A15E" d="M352.992,364h1.344v-2.464h1.344v-1.104h-1.344v-7.984h-0.576l-6.128,9.088
		h5.36V364z M352.992,360.433h-3.344l3.344-5.024V360.433z"/>
	<g clip-path="url(#SVGID_2_)">
		<defs>
			<rect id="SVGID_69_" y="-1" width="912" height="417.448"/>
		</defs>
		<clipPath id="SVGID_70_">
			<use xlink:href="#SVGID_69_"  overflow="visible"/>
		</clipPath>
		<path clip-path="url(#SVGID_70_)" fill="#F8A15E" d="M251.072,362.704h-4.336l1.792-1.936c1.84-2,2.896-3.504,2.896-5.152
			c0-1.968-1.312-3.168-3.552-3.168c-2.256,0-3.584,1.264-3.584,3.424c0,0.096,0.016,0.208,0.016,0.304h1.28v-0.128
			c0-1.52,0.8-2.352,2.24-2.352c1.376,0,2.256,0.848,2.256,2c0,1.488-1.424,3.008-3.488,5.44L244.176,364h6.896V362.704z"/>
		<path clip-path="url(#SVGID_70_)" fill="#F8A15E" d="M144.016,364.305c2.4,0,3.952-2.129,3.952-5.937s-1.536-5.92-3.984-5.92
			c-2.384,0-3.952,2.144-3.952,5.92S141.6,364.305,144.016,364.305 M144,363.185c-1.584,0-2.56-1.729-2.56-4.832
			c0-3.088,0.976-4.801,2.56-4.801c1.664,0,2.56,1.648,2.56,4.832C146.56,361.552,145.664,363.185,144,363.185"/>
		<path clip-path="url(#SVGID_70_)" fill="#FFFFFF" d="M645.932,21.003h-3.265c0.096-0.913,0.756-1.478,1.632-1.478
			C645.271,19.525,645.872,20.055,645.932,21.003 M646.915,21.746v-0.18c0-1.776-1.007-2.842-2.58-2.842
			c-1.561,0-2.675,1.174-2.675,2.866c0,1.753,1.103,2.928,2.734,2.928c1.105,0,1.944-0.491,2.484-1.463l-0.695-0.468
			c-0.443,0.78-1.02,1.165-1.74,1.165c-1.032,0-1.776-0.757-1.776-1.922v-0.084H646.915z M636.74,23.391
			c0.42,0.756,1.114,1.127,2.11,1.127c1.189,0,1.956-0.707,1.956-1.703c0-0.876-0.516-1.26-1.559-1.596
			c-0.889-0.288-1.381-0.36-1.381-0.925c0-0.468,0.372-0.804,0.912-0.804c0.564,0,1.009,0.276,1.225,0.768l0.743-0.456
			c-0.288-0.683-0.983-1.067-1.908-1.067c-1.14,0-1.896,0.683-1.896,1.619c0,1.057,0.791,1.285,2.112,1.741
			c0.564,0.192,0.84,0.408,0.84,0.816c0,0.468-0.396,0.805-1.009,0.805c-0.612,0-1.068-0.277-1.368-0.853L636.74,23.391z
			 M631.075,21.626c0-1.141,0.863-2.029,1.944-2.029c1.068,0,1.933,0.888,1.933,2.029c0,1.14-0.864,2.029-1.933,2.029
			S631.075,22.767,631.075,21.626 M630.104,21.626c0,0.78,0.288,1.476,0.852,2.041c0.552,0.551,1.271,0.85,2.064,0.85
			c0.78,0,1.5-0.311,2.064-0.862c0.551-0.541,0.851-1.249,0.851-2.029c0-0.781-0.3-1.501-0.851-2.041
			c-0.564-0.551-1.272-0.851-2.064-0.851c-0.793,0-1.513,0.288-2.064,0.839C630.392,20.125,630.104,20.845,630.104,21.626
			 M623.011,23.332v-6.674h0.66c1.477,0,2.497,0.024,3.205,0.624c0.708,0.588,1.08,1.5,1.08,2.713c0,1.212-0.384,2.148-1.08,2.724
			c-0.72,0.601-1.74,0.613-3.205,0.613H623.011z M621.992,24.29h2.015c1.393,0,2.521-0.036,3.517-0.803
			c0.984-0.756,1.499-1.944,1.499-3.48c0-1.537-0.515-2.737-1.499-3.493c-1.044-0.802-2.279-0.802-3.889-0.802h-1.643V24.29z
			 M616.113,21.003h-3.267c0.097-0.913,0.756-1.478,1.633-1.478C615.452,19.525,616.052,20.055,616.113,21.003 M617.095,21.746
			v-0.18c0-1.776-1.007-2.842-2.579-2.842c-1.561,0-2.675,1.174-2.675,2.866c0,1.753,1.103,2.928,2.735,2.928
			c1.104,0,1.943-0.491,2.482-1.463l-0.694-0.468c-0.444,0.78-1.021,1.165-1.74,1.165c-1.033,0-1.777-0.757-1.777-1.922v-0.084
			H617.095z M611.095,23.019c-0.563,0.408-1.08,0.612-1.656,0.612c-1.115,0-1.92-0.864-1.92-1.944c0-1.273,0.816-2.065,1.992-2.065
			c0.528,0,1.032,0.168,1.488,0.468v-0.983c-0.492-0.24-1.068-0.372-1.668-0.372c-1.608,0-2.794,1.175-2.794,2.928
			c0,1.692,1.09,2.855,2.758,2.855c0.696,0,1.308-0.144,1.8-0.431V23.019z M600.356,24.29h0.91v-2.771c0-0.589,0-1.033,0.312-1.417
			c0.301-0.372,0.769-0.576,1.309-0.576c0.961,0,1.429,0.528,1.429,1.609v3.155h0.91v-3.648c0-1.212-0.766-1.907-2.015-1.907
			c-0.84,0-1.488,0.324-1.945,1.019v-0.827h-0.91V24.29z M597.693,21.663c0,1.236-0.673,1.944-1.754,1.944
			c-1.14,0-1.789-0.732-1.789-2.028c0-1.225,0.649-1.933,1.754-1.933C596.937,19.646,597.693,20.414,597.693,21.663 M598.579,18.927
			h-0.91v1.006c-0.408-0.792-1.069-1.199-1.969-1.199c-1.501,0-2.52,1.091-2.52,2.892c0,1.752,1.03,2.891,2.567,2.891
			c0.828,0,1.513-0.419,1.945-1.199v0.971h0.886V18.927z M586.965,24.29h0.911v-2.771c0-0.589,0-1.033,0.312-1.417
			c0.301-0.372,0.769-0.576,1.309-0.576c0.961,0,1.429,0.528,1.429,1.609v3.155h0.911v-3.648c0-1.212-0.768-1.907-2.016-1.907
			c-0.841,0-1.488,0.324-1.944,1.019v-0.827h-0.911V24.29z M584.661,21.003h-3.266c0.097-0.913,0.757-1.478,1.632-1.478
			C584.001,19.525,584.601,20.055,584.661,21.003 M585.644,21.746v-0.18c0-1.776-1.007-2.842-2.58-2.842
			c-1.56,0-2.675,1.174-2.675,2.866c0,1.753,1.104,2.928,2.735,2.928c1.104,0,1.944-0.491,2.483-1.463l-0.694-0.468
			c-0.444,0.78-1.021,1.165-1.741,1.165c-1.032,0-1.776-0.757-1.776-1.922v-0.084H585.644z M577.953,19.682v4.608h0.911v-4.608
			h1.008v-0.754h-1.008v-2.16h-0.911v2.16h-0.984v0.754H577.953z M571.185,24.29h0.911v-2.771c0-0.589,0-1.033,0.312-1.417
			c0.3-0.372,0.768-0.576,1.309-0.576c0.96,0,1.428,0.528,1.428,1.609v3.155h0.911v-3.648c0-1.212-0.767-1.907-2.015-1.907
			c-0.841,0-1.489,0.324-1.945,1.019v-0.827h-0.911V24.29z M568.174,16.347c0,0.383,0.299,0.671,0.671,0.671
			c0.371,0,0.671-0.288,0.671-0.659c0-0.372-0.3-0.684-0.671-0.684C568.473,15.674,568.174,15.975,568.174,16.347 M568.39,24.29
			h0.911v-5.362h-0.911V24.29z M565.678,21.663c0,1.236-0.673,1.944-1.753,1.944c-1.141,0-1.789-0.732-1.789-2.028
			c0-1.225,0.648-1.933,1.753-1.933C564.921,19.646,565.678,20.414,565.678,21.663 M566.563,18.927h-0.909v1.006
			c-0.408-0.792-1.069-1.199-1.97-1.199c-1.501,0-2.519,1.091-2.519,2.892c0,1.752,1.03,2.891,2.566,2.891
			c0.828,0,1.514-0.419,1.945-1.199v0.971h0.886V18.927z M555.669,24.625l2.652-6.168l1.091,5.832h0.996l-1.739-8.914l-3,7.091
			l-3-7.091l-1.739,8.914h0.996l1.079-5.832L555.669,24.625z"/>
		<path clip-path="url(#SVGID_70_)" fill="#FFFFFF" d="M295.519,21.003h-3.267c0.097-0.913,0.758-1.478,1.634-1.478
			C294.858,19.525,295.458,20.055,295.519,21.003 M296.5,21.746v-0.18c0-1.776-1.006-2.842-2.578-2.842
			c-1.562,0-2.676,1.174-2.676,2.866c0,1.753,1.103,2.928,2.735,2.928c1.104,0,1.944-0.491,2.483-1.463l-0.695-0.468
			c-0.443,0.78-1.02,1.165-1.74,1.165c-1.032,0-1.777-0.757-1.777-1.922v-0.084H296.5z M286.326,23.391
			c0.42,0.756,1.114,1.127,2.111,1.127c1.188,0,1.955-0.707,1.955-1.703c0-0.876-0.516-1.26-1.56-1.596
			c-0.888-0.288-1.381-0.36-1.381-0.925c0-0.468,0.373-0.804,0.913-0.804c0.564,0,1.009,0.276,1.226,0.768l0.741-0.456
			c-0.287-0.683-0.981-1.067-1.906-1.067c-1.141,0-1.896,0.683-1.896,1.619c0,1.057,0.791,1.285,2.111,1.741
			c0.564,0.192,0.841,0.408,0.841,0.816c0,0.468-0.396,0.805-1.009,0.805s-1.069-0.277-1.368-0.853L286.326,23.391z M280.661,21.626
			c0-1.141,0.864-2.029,1.944-2.029c1.069,0,1.933,0.888,1.933,2.029c0,1.14-0.863,2.029-1.933,2.029
			C281.537,23.655,280.661,22.767,280.661,21.626 M279.69,21.626c0,0.78,0.288,1.476,0.851,2.041c0.553,0.551,1.272,0.85,2.064,0.85
			c0.781,0,1.501-0.311,2.064-0.862c0.552-0.541,0.852-1.249,0.852-2.029c0-0.781-0.3-1.501-0.852-2.041
			c-0.563-0.551-1.271-0.851-2.064-0.851c-0.792,0-1.512,0.288-2.064,0.839C279.979,20.125,279.69,20.846,279.69,21.626
			 M272.598,23.332v-6.674h0.66c1.476,0,2.496,0.024,3.205,0.624c0.707,0.588,1.079,1.5,1.079,2.713
			c0,1.212-0.384,2.148-1.079,2.724c-0.721,0.601-1.741,0.613-3.205,0.613H272.598z M271.578,24.29h2.016
			c1.392,0,2.521-0.036,3.517-0.803c0.983-0.756,1.499-1.944,1.499-3.48c0-1.537-0.516-2.737-1.499-3.493
			c-1.044-0.802-2.281-0.802-3.889-0.802h-1.644V24.29z M265.314,21.626c0,1.236-0.672,1.957-1.753,1.957
			c-1.14,0-1.788-0.733-1.788-2.029c0-1.225,0.648-1.933,1.752-1.933C264.559,19.622,265.314,20.377,265.314,21.626 M266.226,18.927
			h-0.936v0.994c-0.396-0.78-1.08-1.187-1.969-1.187c-1.5,0-2.519,1.067-2.519,2.856c0,1.74,1.03,2.867,2.566,2.867
			c0.829,0,1.525-0.419,1.945-1.187v0.899c0,0.491-0.024,0.884-0.229,1.218c-0.275,0.465-0.804,0.704-1.536,0.704
			c-1.032,0-1.597-0.466-1.597-1.252v-0.072h-1.03c0.035,1.335,0.971,2.126,2.614,2.126c0.949,0,1.669-0.275,2.161-0.802
			c0.503-0.537,0.527-1.133,0.527-1.898V18.927z M254.586,24.29h0.911v-2.771c0-0.589,0-1.033,0.312-1.417
			c0.3-0.372,0.768-0.576,1.309-0.576c0.96,0,1.429,0.528,1.429,1.609v3.155h0.91v-3.648c0-1.212-0.767-1.907-2.015-1.907
			c-0.841,0-1.489,0.324-1.945,1.019v-0.827h-0.911V24.29z M251.574,16.347c0,0.383,0.3,0.671,0.672,0.671
			c0.371,0,0.671-0.288,0.671-0.659c0-0.372-0.3-0.684-0.671-0.684C251.874,15.674,251.574,15.975,251.574,16.347 M251.79,24.29
			h0.91v-5.362h-0.91V24.29z M249.043,21.639c0,1.272-0.696,1.992-1.801,1.992c-1.068,0-1.741-0.768-1.741-2.112
			c0-1.189,0.66-1.873,1.729-1.873C248.311,19.646,249.043,20.425,249.043,21.639 M249.93,15.208h-0.91v4.726
			c-0.409-0.791-1.069-1.199-1.957-1.199c-1.501,0-2.531,1.091-2.531,2.892c0,1.752,1.03,2.891,2.567,2.891
			c0.828,0,1.523-0.431,1.944-1.199v0.971h0.887V15.208z M242.275,21.663c0,1.236-0.673,1.944-1.753,1.944
			c-1.14,0-1.789-0.732-1.789-2.028c0-1.225,0.649-1.933,1.753-1.933C241.519,19.646,242.275,20.414,242.275,21.663 M243.161,18.927
			h-0.91v1.006c-0.407-0.792-1.068-1.199-1.969-1.199c-1.501,0-2.519,1.091-2.519,2.892c0,1.752,1.029,2.891,2.566,2.891
			c0.828,0,1.514-0.419,1.945-1.199v0.971h0.886V18.927z M231.941,21.626c0-1.141,0.865-2.029,1.945-2.029
			c1.068,0,1.933,0.888,1.933,2.029c0,1.14-0.864,2.029-1.933,2.029S231.941,22.767,231.941,21.626 M230.972,21.626
			c0,0.78,0.287,1.476,0.851,2.041c0.552,0.551,1.272,0.85,2.064,0.85c0.779,0,1.501-0.311,2.064-0.862
			c0.551-0.541,0.851-1.249,0.851-2.029c0-0.781-0.3-1.501-0.851-2.041c-0.563-0.551-1.272-0.851-2.064-0.851
			s-1.513,0.288-2.064,0.839C231.259,20.125,230.972,20.846,230.972,21.626 M226.088,24.29h4.258v-0.97h-3.239v-7.608h-1.019V24.29z
			"/>
		<path clip-path="url(#SVGID_70_)" fill="#F8A15E" d="M288.228,89.773c0,1.177-0.672,1.897-1.548,1.897
			c-0.961,0-1.524-0.66-1.524-1.849c0-1.176,0.588-1.872,1.549-1.872C287.652,87.95,288.228,88.609,288.228,89.773 M289.463,92.222
			v-5.207h-1.271v0.911c-0.3-0.708-0.96-1.103-1.871-1.103c-1.466,0-2.496,1.175-2.496,2.963c0,1.897,0.982,3.011,2.531,3.011
			c0.78,0,1.381-0.311,1.836-0.946l-0.012,0.731c-0.012,1.037-0.372,1.549-1.536,1.549c-0.745,0-1.152-0.262-1.188-0.726h-1.367
			c0.012,1.038,0.959,1.769,2.532,1.769C288.768,95.173,289.463,94.287,289.463,92.222 M275.062,92.569v-2.532
			c0-0.684,0-1.152,0.217-1.512c0.239-0.396,0.673-0.636,1.177-0.636c0.876,0,1.104,0.564,1.104,1.824v2.856h1.283v-2.532
			c0-1.428,0.288-2.148,1.394-2.148c0.96,0,1.079,0.6,1.079,1.824v2.856h1.271v-3.816c0-0.468-0.024-0.852-0.204-1.152
			c-0.299-0.503-0.851-0.791-1.595-0.791c-0.864,0-1.489,0.348-2.065,1.103c-0.3-0.743-0.862-1.103-1.727-1.103
			c-0.889,0-1.501,0.348-2.005,1.115v-0.911h-1.199v5.555H275.062z M272.435,88.441c0-2.952-1.127-4.535-3.07-4.535
			c-1.921,0-3.096,1.607-3.096,4.439c0,2.857,1.162,4.451,3.083,4.451C271.248,92.796,272.435,91.203,272.435,88.441
			 M269.328,91.599c-1.058,0-1.669-1.128-1.669-3.241c0-2.16,0.588-3.265,1.717-3.265c1.08,0,1.669,1.117,1.669,3.241
			C271.045,90.506,270.468,91.599,269.328,91.599 M265.247,88.441c0-2.952-1.127-4.535-3.071-4.535
			c-1.921,0-3.095,1.607-3.095,4.439c0,2.857,1.162,4.451,3.083,4.451C264.061,92.796,265.247,91.203,265.247,88.441 M262.14,91.599
			c-1.056,0-1.669-1.128-1.669-3.241c0-2.16,0.589-3.265,1.717-3.265c1.08,0,1.669,1.117,1.669,3.241
			C263.856,90.506,263.28,91.599,262.14,91.599 M257.351,91.455h-3.262l1.092-1.26c1.308-1.501,2.158-2.569,2.158-3.913
			c0-1.464-1.019-2.375-2.674-2.375c-1.752,0-2.856,0.995-2.856,2.531h1.345c0.06-0.804,0.611-1.332,1.392-1.332
			c0.888,0,1.416,0.528,1.416,1.368c0,0.624-0.396,1.344-1.152,2.256l-3.204,3.84h5.746V91.455z M243.673,92.569l1.008-1.451
			c0.072-0.108,0.229-0.348,0.443-0.769c0.096,0.264,0.252,0.505,0.432,0.757l1.032,1.463h1.392l-2.088-2.976l1.8-2.579H246.3
			l-0.768,1.139c-0.156,0.228-0.276,0.444-0.396,0.684c-0.12-0.264-0.251-0.48-0.383-0.672l-0.78-1.151h-1.403l1.8,2.567
			l-2.101,2.988H243.673z M237.66,91.455h-3.264l1.093-1.26c1.308-1.501,2.158-2.569,2.158-3.913c0-1.464-1.019-2.375-2.675-2.375
			c-1.752,0-2.855,0.995-2.855,2.531h1.344c0.06-0.804,0.612-1.332,1.392-1.332c0.889,0,1.416,0.528,1.416,1.368
			c0,0.624-0.395,1.344-1.151,2.256l-3.204,3.84h5.747V91.455z"/>
		<path clip-path="url(#SVGID_70_)" fill="#006227" d="M663.242,89.906c0,1.236-0.672,1.956-1.753,1.956
			c-1.14,0-1.788-0.732-1.788-2.028c0-1.225,0.648-1.933,1.752-1.933C662.486,87.901,663.242,88.657,663.242,89.906 M664.153,87.207
			h-0.936v0.994c-0.396-0.78-1.079-1.187-1.969-1.187c-1.5,0-2.519,1.067-2.519,2.856c0,1.74,1.03,2.867,2.566,2.867
			c0.829,0,1.525-0.419,1.945-1.188v0.899c0,0.491-0.024,0.884-0.229,1.218c-0.275,0.465-0.804,0.704-1.536,0.704
			c-1.032,0-1.597-0.466-1.597-1.252v-0.072h-1.03c0.035,1.335,0.971,2.126,2.614,2.126c0.949,0,1.669-0.275,2.16-0.802
			c0.504-0.537,0.528-1.133,0.528-1.898V87.207z M656.486,92.569h0.911v-3.648c0-1.212-0.72-1.907-1.907-1.907
			c-0.817,0-1.441,0.348-1.909,1.091c-0.312-0.719-0.935-1.091-1.799-1.091c-0.805,0-1.417,0.336-1.849,1.019v-0.827h-0.911v5.363
			h0.911v-2.771c0-0.132-0.013-0.264-0.013-0.384c0-0.409,0.048-0.745,0.276-1.033c0.288-0.372,0.732-0.576,1.224-0.576
			c0.913,0,1.333,0.528,1.333,1.609v3.155h0.911v-2.771c0-0.12-0.012-0.228-0.012-0.336c0-0.445,0.06-0.781,0.288-1.081
			c0.288-0.372,0.72-0.576,1.212-0.576c0.913,0,1.333,0.528,1.333,1.609V92.569z M644.617,92.797c1.801,0,2.964-1.595,2.964-4.451
			c0-2.857-1.151-4.44-2.988-4.44c-1.788,0-2.963,1.607-2.963,4.44C641.63,91.178,642.805,92.797,644.617,92.797 M644.606,91.958
			c-1.189,0-1.921-1.296-1.921-3.624c0-2.317,0.731-3.601,1.921-3.601c1.248,0,1.92,1.236,1.92,3.625
			C646.526,90.734,645.854,91.958,644.606,91.958 M637.599,92.797c1.8,0,2.963-1.595,2.963-4.451c0-2.857-1.151-4.44-2.987-4.44
			c-1.789,0-2.964,1.607-2.964,4.44C634.61,91.178,635.785,92.797,637.599,92.797 M637.586,91.958c-1.188,0-1.921-1.296-1.921-3.624
			c0-2.317,0.732-3.601,1.921-3.601c1.248,0,1.92,1.236,1.92,3.625C639.506,90.734,638.834,91.958,637.586,91.958 M632.869,91.598
			h-3.252l1.345-1.452c1.38-1.5,2.171-2.629,2.171-3.864c0-1.477-0.982-2.376-2.663-2.376c-1.692,0-2.688,0.947-2.688,2.568
			c0,0.072,0.012,0.155,0.012,0.227h0.959v-0.095c0-1.14,0.601-1.765,1.682-1.765c1.031,0,1.691,0.637,1.691,1.501
			c0,1.115-1.067,2.256-2.617,4.08l-1.811,2.147h5.171V91.598z M618.41,92.569h1.14l1.452-2.075l1.463,2.075h1.141l-2.076-2.771
			l2.016-2.591h-1.14l-1.403,1.919l-1.392-1.919h-1.141l2.005,2.591L618.41,92.569z M613.753,91.598h-3.252l1.345-1.452
			c1.381-1.5,2.172-2.629,2.172-3.864c0-1.477-0.983-2.376-2.663-2.376c-1.693,0-2.688,0.947-2.688,2.568
			c0,0.072,0.012,0.155,0.012,0.227h0.959v-0.095c0-1.14,0.601-1.765,1.682-1.765c1.032,0,1.691,0.637,1.691,1.501
			c0,1.115-1.067,2.256-2.616,4.08l-1.812,2.147h5.171V91.598z M601.227,92.569h0.91v-2.615c0-1.405,0.48-2.101,1.452-2.101
			c0.168,0,0.36,0.036,0.564,0.108l0.312-0.827c-0.204-0.072-0.407-0.108-0.624-0.108c-0.815,0-1.319,0.384-1.8,1.295v-1.115h-0.814
			V92.569z M594.985,89.906c0-1.141,0.864-2.029,1.944-2.029c1.068,0,1.934,0.888,1.934,2.029c0,1.14-0.865,2.029-1.934,2.029
			S594.985,91.046,594.985,89.906 M594.016,89.906c0,0.78,0.286,1.476,0.85,2.04c0.552,0.552,1.273,0.851,2.064,0.851
			c0.78,0,1.5-0.311,2.064-0.862c0.552-0.541,0.851-1.249,0.851-2.029c0-0.781-0.299-1.501-0.851-2.041
			c-0.564-0.551-1.271-0.851-2.064-0.851c-0.791,0-1.513,0.288-2.064,0.839C594.302,88.405,594.016,89.125,594.016,89.906
			 M588.279,89.906c0,1.236-0.673,1.956-1.753,1.956c-1.142,0-1.789-0.732-1.789-2.028c0-1.225,0.647-1.933,1.753-1.933
			C587.522,87.901,588.279,88.657,588.279,89.906 M589.189,87.207h-0.935v0.994c-0.396-0.78-1.081-1.187-1.969-1.187
			c-1.501,0-2.519,1.067-2.519,2.856c0,1.74,1.029,2.867,2.566,2.867c0.828,0,1.524-0.419,1.945-1.188v0.899
			c0,0.491-0.024,0.884-0.229,1.218c-0.276,0.465-0.805,0.704-1.537,0.704c-1.032,0-1.597-0.466-1.597-1.252v-0.072h-1.03
			c0.035,1.335,0.971,2.126,2.615,2.126c0.948,0,1.669-0.275,2.16-0.802c0.503-0.537,0.527-1.133,0.527-1.898V87.207z
			 M581.523,92.569h0.91v-3.648c0-1.212-0.72-1.907-1.907-1.907c-0.816,0-1.441,0.348-1.909,1.091
			c-0.311-0.719-0.934-1.091-1.799-1.091c-0.805,0-1.416,0.336-1.85,1.019v-0.827h-0.909v5.363h0.909v-2.771
			c0-0.132-0.012-0.264-0.012-0.384c0-0.409,0.048-0.745,0.276-1.033c0.289-0.372,0.732-0.576,1.225-0.576
			c0.913,0,1.333,0.528,1.333,1.609v3.155h0.91v-2.771c0-0.12-0.012-0.228-0.012-0.336c0-0.445,0.06-0.781,0.288-1.081
			c0.289-0.372,0.721-0.576,1.213-0.576c0.913,0,1.333,0.528,1.333,1.609V92.569z M569.654,92.797c1.801,0,2.963-1.595,2.963-4.451
			c0-2.857-1.15-4.44-2.987-4.44c-1.789,0-2.963,1.607-2.963,4.44C566.667,91.178,567.841,92.797,569.654,92.797 M569.643,91.958
			c-1.188,0-1.922-1.296-1.922-3.624c0-2.317,0.733-3.601,1.922-3.601c1.249,0,1.921,1.236,1.921,3.625
			C571.563,90.734,570.892,91.958,569.643,91.958 M562.634,92.797c1.802,0,2.964-1.595,2.964-4.451c0-2.857-1.15-4.44-2.987-4.44
			c-1.789,0-2.963,1.607-2.963,4.44C559.647,91.178,560.821,92.797,562.634,92.797 M562.622,91.958
			c-1.188,0-1.921-1.296-1.921-3.624c0-2.317,0.733-3.601,1.921-3.601c1.249,0,1.921,1.236,1.921,3.625
			C564.543,90.734,563.871,91.958,562.622,91.958 M557.906,91.598h-3.252l1.344-1.452c1.381-1.5,2.171-2.629,2.171-3.864
			c0-1.477-0.981-2.376-2.663-2.376c-1.692,0-2.687,0.947-2.687,2.568c0,0.072,0.012,0.155,0.012,0.227h0.958v-0.095
			c0-1.14,0.602-1.765,1.681-1.765c1.033,0,1.693,0.637,1.693,1.501c0,1.115-1.069,2.256-2.617,4.08l-1.811,2.147h5.171V91.598z
			 M543.447,92.569h1.14l1.451-2.075l1.464,2.075h1.14l-2.075-2.771l2.015-2.591h-1.139l-1.404,1.919l-1.391-1.919h-1.141
			l2.003,2.591L543.447,92.569z M536.224,92.569h0.994v-8.495h-2.171l-0.576,0.887h1.753V92.569z"/>
		<path clip-path="url(#SVGID_70_)" fill="#006227" d="M650.942,190.894h1.031l3.599-7.967h-1.008l-1.655,3.846l-1.56-3.846h-1.056
			l2.1,4.828L650.942,190.894z M648.362,188.289h0.911v-9.082h-0.911V188.289z M642.471,188.289h0.91l0.012-2.831l2.76,2.831h1.284
			l-2.916-2.903l2.676-2.459h-1.224l-2.58,2.436l-0.012-6.155h-0.91V188.289z M640.154,185.003h-3.265
			c0.096-0.913,0.756-1.479,1.632-1.479C639.494,183.524,640.095,184.054,640.154,185.003 M641.137,185.745v-0.18
			c0-1.775-1.006-2.842-2.579-2.842c-1.561,0-2.675,1.174-2.675,2.866c0,1.753,1.103,2.927,2.734,2.927
			c1.105,0,1.944-0.49,2.484-1.463l-0.695-0.468c-0.443,0.781-1.02,1.165-1.741,1.165c-1.031,0-1.775-0.757-1.775-1.921v-0.085
			H641.137z M634.047,185.003h-3.266c0.096-0.913,0.756-1.479,1.632-1.479C633.387,183.524,633.986,184.054,634.047,185.003
			 M635.029,185.745v-0.18c0-1.775-1.007-2.842-2.58-2.842c-1.56,0-2.675,1.174-2.675,2.866c0,1.753,1.103,2.927,2.735,2.927
			c1.104,0,1.943-0.49,2.483-1.463l-0.694-0.468c-0.444,0.781-1.021,1.165-1.741,1.165c-1.032,0-1.776-0.757-1.776-1.921v-0.085
			H635.029z M618.326,179.711l3.324,8.914l2.231-6.635l2.243,6.635l3.324-8.914h-1.104l-2.185,6.312l-2.292-6.647l-2.267,6.647
			l-2.172-6.312H618.326z M612.194,188.289h1.007v-1.849h1.008v-0.825h-1.008v-5.988h-0.432l-4.595,6.813h4.02V188.289z
			 M612.194,185.615h-2.508l2.508-3.769V185.615z M601.227,188.289h0.911v-2.615c0-1.403,0.479-2.101,1.452-2.101
			c0.168,0,0.359,0.035,0.563,0.109l0.312-0.828c-0.204-0.071-0.408-0.107-0.624-0.107c-0.816,0-1.32,0.383-1.801,1.295v-1.115
			h-0.814V188.289z M594.985,185.626c0-1.141,0.864-2.027,1.945-2.027c1.067,0,1.932,0.887,1.932,2.027s-0.864,2.029-1.932,2.029
			C595.861,187.655,594.985,186.767,594.985,185.626 M594.015,185.626c0,0.781,0.288,1.477,0.851,2.041
			c0.552,0.551,1.272,0.85,2.065,0.85c0.779,0,1.5-0.311,2.063-0.861c0.551-0.54,0.852-1.248,0.852-2.029
			c0-0.779-0.301-1.5-0.852-2.04c-0.563-0.552-1.271-0.851-2.063-0.851c-0.793,0-1.514,0.287-2.065,0.839
			C594.303,184.126,594.015,184.847,594.015,185.626 M585.53,190.894h1.032l3.599-7.967h-1.008l-1.655,3.846l-1.56-3.846h-1.055
			l2.099,4.828L585.53,190.894z M582.951,188.289h0.91v-9.082h-0.91V188.289z M577.06,188.289h0.91l0.012-2.831l2.76,2.831h1.284
			l-2.916-2.903l2.676-2.459h-1.224l-2.58,2.436l-0.012-6.155h-0.91V188.289z M574.743,185.003h-3.266
			c0.096-0.913,0.757-1.479,1.633-1.479C574.083,183.524,574.684,184.054,574.743,185.003 M575.726,185.745v-0.18
			c0-1.775-1.006-2.842-2.579-2.842c-1.562,0-2.675,1.174-2.675,2.866c0,1.753,1.102,2.927,2.734,2.927
			c1.105,0,1.944-0.49,2.483-1.463l-0.695-0.468c-0.442,0.781-1.019,1.165-1.74,1.165c-1.031,0-1.776-0.757-1.776-1.921v-0.085
			H575.726z M568.636,185.003h-3.267c0.098-0.913,0.757-1.479,1.633-1.479C567.976,183.524,568.575,184.054,568.636,185.003
			 M569.618,185.745v-0.18c0-1.775-1.007-2.842-2.58-2.842c-1.561,0-2.675,1.174-2.675,2.866c0,1.753,1.104,2.927,2.735,2.927
			c1.104,0,1.943-0.49,2.483-1.463l-0.694-0.468c-0.444,0.781-1.021,1.165-1.741,1.165c-1.032,0-1.777-0.757-1.777-1.921v-0.085
			H569.618z M552.915,179.711l3.324,8.914l2.231-6.635l2.244,6.635l3.323-8.914h-1.104l-2.185,6.312l-2.292-6.647l-2.267,6.647
			l-2.172-6.312H552.915z M548.343,187.319h-3.252l1.345-1.452c1.38-1.501,2.171-2.629,2.171-3.864c0-1.477-0.983-2.376-2.664-2.376
			c-1.692,0-2.687,0.947-2.687,2.567c0,0.072,0.012,0.156,0.012,0.227h0.959v-0.095c0-1.14,0.6-1.765,1.68-1.765
			c1.033,0,1.693,0.637,1.693,1.502c0,1.115-1.068,2.254-2.617,4.08l-1.811,2.146h5.171V187.319z"/>
	</g>
</g>
</svg>
