<?xml version="1.0" encoding="utf-8"?>
<!-- Generator: Adobe Illustrator 15.1.0, SVG Export Plug-In . SVG Version: 6.00 Build 0)  -->
<!DOCTYPE svg PUBLIC "-//W3C//DTD SVG 1.1//EN" "http://www.w3.org/Graphics/SVG/1.1/DTD/svg11.dtd">
<svg version="1.1" id="Layer_1" xmlns="http://www.w3.org/2000/svg" xmlns:xlink="http://www.w3.org/1999/xlink" x="0px" y="0px"
	 width="152.633px" height="63.271px" viewBox="0 0 152.633 63.271" enable-background="new 0 0 152.633 63.271"
	 xml:space="preserve">
<g>
	<defs>
		<rect id="SVGID_1_" y="0" width="161.635" height="63.27"/>
	</defs>
	<clipPath id="SVGID_2_">
		<use xlink:href="#SVGID_1_"  overflow="visible"/>
	</clipPath>
	<path clip-path="url(#SVGID_2_)" fill="none" stroke="#F9A25E" d="M58.096,11.635c0,0-4.961,0-4.961,4.961v30.078
		c0,0,0,4.961,4.961,4.961h89.079c0,0,4.96,0,4.96-4.961V16.595c0,0,0-4.961-4.96-4.961H58.096z"/>
</g>
<polygon fill="#F9A25E" points="34.125,0 31.635,1.581 29.146,0 26.934,1.951 24.228,0.778 22.347,3.052 19.491,2.317 17.991,4.856 
	15.054,4.577 13.969,7.321 11.025,7.505 10.384,10.384 7.505,11.025 7.321,13.969 4.579,15.053 4.857,17.99 2.317,19.49 
	3.052,22.347 0.779,24.226 1.953,26.932 0,29.145 1.583,31.635 0,34.123 1.953,36.337 0.779,39.043 3.052,40.922 2.317,43.778 
	4.857,45.278 4.579,48.216 7.321,49.3 7.505,52.243 10.384,52.885 11.025,55.764 13.969,55.948 15.054,58.691 17.991,58.412 
	19.491,60.951 22.347,60.217 24.228,62.491 26.934,61.317 29.146,63.269 31.635,61.687 34.125,63.269 36.336,61.317 39.043,62.491 
	40.922,60.217 43.778,60.951 45.279,58.412 48.215,58.691 49.3,55.948 52.245,55.764 52.885,52.885 55.766,52.243 55.948,49.3 
	58.691,48.216 58.413,45.278 60.953,43.778 60.217,40.922 62.491,39.043 61.317,36.337 63.271,34.123 61.688,31.635 63.271,29.145 
	61.317,26.932 62.491,24.226 60.217,22.347 60.953,19.49 58.413,17.99 58.691,15.053 55.948,13.969 55.766,11.025 52.885,10.384 
	52.245,7.505 49.3,7.321 48.215,4.577 45.279,4.856 43.778,2.317 40.922,3.052 39.043,0.778 36.336,1.951 "/>
<g>
	<defs>
		<rect id="SVGID_3_" y="0" width="161.635" height="63.27"/>
	</defs>
	<clipPath id="SVGID_4_">
		<use xlink:href="#SVGID_3_"  overflow="visible"/>
	</clipPath>
	<path clip-path="url(#SVGID_4_)" fill="#FFFFFF" d="M56.881,29.711H55.66l0.148-1.186h1.214L56.881,29.711z M57.847,27.799
		l0.219-1.754l-0.722-0.096l-0.231,1.85h-1.218l0.219-1.754l-0.723-0.096l-0.227,1.85H54.12v0.727h0.954l-0.149,1.186H53.88v0.709
		h0.941l-0.235,1.895l0.734,0.095l0.248-1.973h1.226l-0.235,1.878l0.726,0.095l0.244-1.973h1.007v-0.726H57.62l0.149-1.186h1.003
		v-0.727H57.847z M47.494,31.725c0.401-0.453,0.901-0.68,1.498-0.68c0.633,0,1.148,0.224,1.545,0.672
		c0.396,0.459,0.594,1.04,0.594,1.746c0,0.705-0.198,1.287-0.594,1.745c-0.397,0.442-0.917,0.664-1.56,0.664
		c-0.603,0-1.102-0.229-1.499-0.688c-0.386-0.453-0.579-1.04-0.579-1.761C46.898,32.751,47.097,32.183,47.494,31.725 M51.022,30.559
		c-0.695-0.721-1.48-1.081-2.355-1.081c-1.015,0-1.859,0.375-2.534,1.127c-0.674,0.752-1.011,1.692-1.011,2.819
		c0,1.147,0.337,2.105,1.011,2.873c0.68,0.752,1.54,1.128,2.58,1.128c0.824,0,1.594-0.335,2.309-1.004v0.788h1.746v-7.523h-1.746
		V30.559z M41.767,27.37c0.221,0.221,0.489,0.331,0.803,0.331s0.579-0.11,0.795-0.331c0.222-0.222,0.333-0.489,0.333-0.804
		c0-0.313-0.111-0.579-0.333-0.796c-0.221-0.221-0.489-0.332-0.803-0.332c-0.309,0-0.574,0.111-0.795,0.332
		c-0.222,0.222-0.332,0.484-0.332,0.788C41.435,26.878,41.544,27.148,41.767,27.37 M41.696,37.21h1.738v-7.523h-1.738V37.21z
		 M33.182,37.21h1.738v-3.639c0-0.927,0.121-1.581,0.363-1.962c0.247-0.376,0.674-0.563,1.282-0.563
		c0.474,0,0.817,0.136,1.031,0.405c0.214,0.271,0.32,0.707,0.32,1.31v4.449h1.738v-4.611c0-1.051-0.216-1.815-0.649-2.294
		c-0.509-0.551-1.189-0.826-2.039-0.826c-0.746,0-1.428,0.278-2.046,0.834v-6.147h-1.738V37.21z M29.123,35.193
		c-0.391,0.453-0.888,0.68-1.49,0.68c-0.639,0-1.154-0.225-1.545-0.672c-0.397-0.459-0.595-1.039-0.595-1.745
		c0-0.722,0.198-1.304,0.595-1.745c0.396-0.443,0.914-0.665,1.552-0.665c0.603,0,1.102,0.229,1.499,0.688
		c0.391,0.453,0.587,1.04,0.587,1.762C29.726,34.174,29.524,34.74,29.123,35.193 M25.593,36.367
		c0.695,0.705,1.483,1.059,2.363,1.059c1.02,0,1.864-0.373,2.533-1.12c0.675-0.752,1.012-1.691,1.012-2.819
		c0-1.152-0.34-2.108-1.019-2.864c-0.67-0.763-1.522-1.144-2.557-1.144c-0.87,0-1.648,0.342-2.332,1.027v-0.819h-1.738v11.616h1.738
		V36.367z M16.545,31.711c0.411-0.443,0.95-0.665,1.614-0.665c0.674,0,1.217,0.222,1.629,0.665c0.407,0.437,0.611,1.021,0.611,1.753
		c0,0.73-0.204,1.314-0.611,1.753c-0.406,0.438-0.95,0.656-1.629,0.656c-0.675,0-1.218-0.222-1.63-0.664
		c-0.402-0.438-0.602-1.032-0.602-1.784C15.928,32.724,16.133,32.152,16.545,31.711 M15.293,36.266
		c0.762,0.773,1.707,1.159,2.835,1.159c1.138,0,2.098-0.379,2.881-1.135c0.777-0.763,1.166-1.707,1.166-2.835
		c0-1.117-0.386-2.06-1.159-2.827c-0.782-0.768-1.735-1.15-2.857-1.15c-1.118,0-2.065,0.381-2.842,1.144
		c-0.778,0.762-1.167,1.686-1.167,2.771C14.15,34.548,14.532,35.505,15.293,36.266 M9.296,25.052c-1.019,0-1.872,0.304-2.556,0.911
		c-0.685,0.602-1.028,1.35-1.028,2.246c0,1.327,0.816,2.336,2.449,3.024l1.15,0.479c0.299,0.129,0.557,0.264,0.773,0.405
		s0.392,0.294,0.529,0.455c0.136,0.162,0.237,0.341,0.301,0.533c0.064,0.193,0.097,0.405,0.097,0.636
		c0,0.577-0.186,1.054-0.556,1.429c-0.371,0.376-0.837,0.562-1.398,0.562c-0.711,0-1.252-0.257-1.622-0.771
		c-0.206-0.269-0.351-0.752-0.433-1.452L5.18,33.912c0.165,1.111,0.58,1.976,1.244,2.591c0.674,0.614,1.529,0.923,2.564,0.923
		c1.092,0,2.005-0.361,2.742-1.082c0.731-0.716,1.097-1.623,1.097-2.721c0-0.819-0.224-1.512-0.672-2.075
		c-0.448-0.564-1.156-1.042-2.124-1.435l-1.19-0.486c-0.865-0.355-1.297-0.824-1.297-1.406c0-0.423,0.165-0.773,0.494-1.051
		c0.33-0.284,0.744-0.427,1.244-0.427c0.406,0,0.738,0.083,0.996,0.248c0.247,0.145,0.507,0.453,0.78,0.927l1.46-0.865
		C11.745,25.719,10.671,25.052,9.296,25.052"/>
	<path clip-path="url(#SVGID_4_)" fill="#F9A25E" d="M108.998,33.503l1.351-3.015c0.147-0.353,0.315-0.833,0.481-1.499
		c0.185,0.666,0.352,1.146,0.5,1.499l1.35,3.015H108.998z M114.937,38.701h2.276l-6.401-13.745l-6.401,13.745h2.258l1.535-3.403
		h5.235L114.937,38.701z M97.361,37.147c0.629,1.296,1.721,1.905,3.387,1.905c2.238,0,3.496-1.072,3.496-2.737
		c0-1.239-0.703-1.943-2.201-2.534c-1.332-0.537-2.258-0.666-2.258-1.499c0-0.592,0.481-0.981,1.24-0.981
		c0.684,0,1.221,0.353,1.424,0.889l1.388-0.962c-0.425-0.889-1.388-1.405-2.738-1.405c-2.035,0-3.274,1.091-3.274,2.571
		c0,1.238,0.832,1.904,2.461,2.59c1.184,0.499,2.035,0.574,2.035,1.462c0,0.684-0.519,1.128-1.406,1.128
		c-1.036,0-1.684-0.462-1.924-1.313L97.361,37.147z M90.998,31.005v-3.681h0.556c1.998,0,2.978,0.333,2.978,1.924
		c0,1.535-0.998,1.757-2.978,1.757H90.998z M90.869,32.762h1.24c1.35,0,2.422-0.036,3.311-0.666
		c0.814-0.592,1.332-1.701,1.332-2.979c0-1.276-0.518-2.367-1.332-2.96c-0.889-0.647-1.961-0.684-3.311-0.684h-3.257v13.227h2.017
		V32.762z"/>
</g>
</svg>
