<?xml version="1.0" encoding="utf-8"?>
<!-- Generator: Adobe Illustrator 16.0.0, SVG Export Plug-In . SVG Version: 6.00 Build 0)  -->
<!DOCTYPE svg PUBLIC "-//W3C//DTD SVG 1.1//EN" "http://www.w3.org/Graphics/SVG/1.1/DTD/svg11.dtd">
<svg version="1.1" id="Layer_1" xmlns="http://www.w3.org/2000/svg" xmlns:xlink="http://www.w3.org/1999/xlink" x="0px" y="0px"
	 width="56px" height="41.222px" viewBox="0 0 56 41.222" enable-background="new 0 0 56 41.222" xml:space="preserve">
<g>
	<path fill="#046333" d="M7.16,25.659c-0.68-0.769-1.509-1.182-2.525-1.182c-1.658,0-2.938,1.463-2.938,3.077
		c0,1.802,1.262,3.116,3.052,3.116c0.98,0,1.769-0.451,2.411-1.163l0,2.158c-0.773,0.413-1.544,0.581-2.43,0.581
		c-2.601,0-4.729-1.989-4.731-4.616c0-2.722,2.109-4.729,4.822-4.729c0.792,0,1.658,0.188,2.338,0.582V25.659z M11.848,31.946
		h-1.694l-0.001-8.782h1.695L11.848,31.946z M16.691,24.27h0.036c0.491-0.769,1.375-1.369,2.337-1.369
		c1.149,0,1.978,0.582,2.542,1.557c0.548-0.937,1.601-1.557,2.712-1.557c2.317,0,2.921,1.803,2.921,3.791l0,5.254h-1.695v-4.973
		c0-1.127-0.152-2.571-1.64-2.571c-1.81,0-1.941,1.878-1.94,3.229l0,4.315H20.27v-4.654c0-1.146-0.056-2.89-1.62-2.89
		c-1.808,0-1.958,1.857-1.958,3.229l0,4.315h-1.695l0-8.782h1.695V24.27z M37.806,30.369v1.577h-9.021l5.97-7.207h-4.955v-1.575
		h8.25l-5.97,7.205H37.806z M42.028,31.946h-1.696v-8.782h1.695L42.028,31.946z M53.23,31.946h-1.695v-1.369h-0.038
		c-0.676,0.994-1.733,1.67-2.995,1.67c-2.695,0-4.221-2.232-4.221-4.748c0-2.401,1.602-4.598,4.162-4.598
		c1.301,0,2.356,0.676,3.053,1.727h0.037v-1.464h1.695L53.23,31.946z M51.628,27.554c0-1.708-1.034-3.152-2.865-3.152
		c-1.75,0-2.786,1.521-2.786,3.152c0,1.653,1,3.191,2.789,3.191C50.613,30.746,51.628,29.282,51.628,27.554"/>
	<g>
		<defs>
			<path id="SVGID_1_" d="M14.061,11.83c-1.437,4.15,0.71,7.515,4.796,7.515c4.084,0,8.559-3.364,9.996-7.515
				c1.437-4.149-0.709-7.514-4.795-7.514C19.974,4.315,15.498,7.68,14.061,11.83"/>
		</defs>
		<clipPath id="SVGID_2_">
			<use xlink:href="#SVGID_1_"  overflow="visible"/>
		</clipPath>
		
			<linearGradient id="SVGID_3_" gradientUnits="userSpaceOnUse" x1="-41.8071" y1="67.2563" x2="-41.4045" y2="67.2563" gradientTransform="matrix(-14.186 38.9757 -38.9757 -14.186 2052.624 2587.5491)">
			<stop  offset="0" style="stop-color:#E1E8DF"/>
			<stop  offset="0.6011" style="stop-color:#FDCAA0"/>
			<stop  offset="0.6866" style="stop-color:#FCBE8B"/>
			<stop  offset="0.8155" style="stop-color:#FAAF73"/>
			<stop  offset="0.9246" style="stop-color:#F9A564"/>
			<stop  offset="1" style="stop-color:#F9A25E"/>
		</linearGradient>
		<polygon clip-path="url(#SVGID_2_)" fill="url(#SVGID_3_)" points="14.69,-1.339 7.777,17.586 28.223,25.001 35.137,6.076 		"/>
	</g>
	<g>
		<defs>
			<path id="SVGID_4_" d="M35.671,0.055c-2.117,0.27-4.238,1.378-6.058,2.936c-3.654,3.128-5.881,7.44-8.081,11.263l0.354,0.037
				c1.704-2.7,4.664-8.957,9.749-11.773c2.491-1.381,5.315-1.705,7.081-0.549c0.794,0.52,1.305,1.336,1.539,2.278
				c0.107,0.443,0.13,0.925,0.096,1.42c-0.016,0.203-0.106,0.626-0.199,0.882l0.093,0.054c0.651-1.75,0.767-3.436-0.008-4.761
				C39.526,0.632,38.158,0,36.528,0C36.249,0,35.962,0.018,35.671,0.055"/>
		</defs>
		<clipPath id="SVGID_5_">
			<use xlink:href="#SVGID_4_"  overflow="visible"/>
		</clipPath>
		
			<linearGradient id="SVGID_6_" gradientUnits="userSpaceOnUse" x1="-42.4141" y1="67.9937" x2="-42.0103" y2="67.9937" gradientTransform="matrix(46.3988 -24.8974 24.8974 46.3988 295.8653 -4197.9966)">
			<stop  offset="0" style="stop-color:#FDC899"/>
			<stop  offset="0.2978" style="stop-color:#FDC899"/>
			<stop  offset="0.4148" style="stop-color:#F6C596"/>
			<stop  offset="0.5103" style="stop-color:#E9BD90"/>
			<stop  offset="0.5982" style="stop-color:#D6B386"/>
			<stop  offset="0.6815" style="stop-color:#BEA779"/>
			<stop  offset="0.7617" style="stop-color:#A0986A"/>
			<stop  offset="0.8394" style="stop-color:#7D8758"/>
			<stop  offset="0.9153" style="stop-color:#567645"/>
			<stop  offset="0.9877" style="stop-color:#1C6535"/>
			<stop  offset="1" style="stop-color:#046333"/>
		</linearGradient>
		<polygon clip-path="url(#SVGID_5_)" fill="url(#SVGID_6_)" points="25.887,22.375 46.987,11.095 36.655,-8.085 15.556,3.194 		"/>
	</g>
	<g>
		<defs>
			<path id="SVGID_7_" d="M40.094,6.686c-1.019,1.934-3.087,3.332-5.074,4.147c-2.658,1.092-4.991,0.56-6.95-0.278
				c-0.98-0.421-1.899-0.926-2.848-1.388c-0.914-0.448-1.871-0.925-3.003-1.022c-2.062-0.178-4.533,1.165-5.935,3.142
				c-0.267,0.375-0.182,0.888-0.443,1.255c0.961-1.355,2.336-2.358,3.86-2.864c1.635-0.542,2.93-0.193,4.14,0.314
				c2.64,1.109,4.954,2.997,8.419,2.684c2.794-0.251,6.268-2.329,7.582-5.114c0.15-0.322,0.285-0.641,0.404-0.959l-0.093-0.054
				C40.132,6.604,40.111,6.65,40.094,6.686"/>
		</defs>
		<clipPath id="SVGID_8_">
			<use xlink:href="#SVGID_7_"  overflow="visible"/>
		</clipPath>
		
			<linearGradient id="SVGID_9_" gradientUnits="userSpaceOnUse" x1="-42.1343" y1="67.9653" x2="-41.731" y2="67.9653" gradientTransform="matrix(60.4844 0 0 60.4844 2564.3228 -4100.9956)">
			<stop  offset="0" style="stop-color:#FBB87F"/>
			<stop  offset="0.1517" style="stop-color:#FBB87F"/>
			<stop  offset="0.279" style="stop-color:#D8A872"/>
			<stop  offset="0.5551" style="stop-color:#928B56"/>
			<stop  offset="0.9563" style="stop-color:#236635"/>
			<stop  offset="1" style="stop-color:#046333"/>
		</linearGradient>
		<rect x="15.839" y="6.548" clip-path="url(#SVGID_8_)" fill="url(#SVGID_9_)" width="24.405" height="6.44"/>
	</g>
	<path fill="#F9A25E" d="M3.707,35.455c-0.149-0.16-0.344-0.322-0.58-0.322c-0.784,0-0.859,1.383-0.859,1.942
		c0,0.482,0.104,1.912,0.823,1.912c0.281,0,0.459-0.218,0.598-0.436h0.018v0.769c-0.175,0.149-0.457,0.245-0.69,0.245
		c-1.101,0-1.373-1.572-1.373-2.406c0-0.918,0.187-2.604,1.401-2.604c0.224,0,0.467,0.067,0.662,0.189V35.455z"/>
	<path fill="#F9A25E" d="M4.899,37.188v0.142c0,0.483,0.084,1.657,0.747,1.657c0.534,0,0.607-0.756,0.607-1.145H6.88
		c-0.011,0.739-0.291,1.723-1.179,1.723c-1.262,0-1.43-1.515-1.43-2.49c0-0.872,0.187-2.521,1.346-2.521
		c1.121,0,1.299,1.487,1.299,2.34v0.294H4.899z M6.301,36.667l-0.01-0.087c-0.019-0.462-0.038-1.447-0.672-1.447
		c-0.58,0-0.71,1.098-0.71,1.534H6.301z"/>
	<path fill="#F9A25E" d="M8.257,35.275h0.019c0.13-0.342,0.392-0.729,0.795-0.721v0.721l-0.122-0.01
		c-0.626,0-0.691,0.614-0.691,1.394v2.831H7.65V34.63h0.607V35.275z"/>
	<polygon fill="#F9A25E" points="11.324,35.199 10.53,35.199 10.53,39.49 9.922,39.49 9.922,35.199 9.409,35.199 9.409,34.63 
		9.922,34.63 9.922,33.305 10.53,33.305 10.53,34.63 11.324,34.63 	"/>
	<path fill="#F9A25E" d="M14.271,37.056c0,0.917-0.113,2.509-1.374,2.509c-1.262,0-1.374-1.592-1.374-2.509
		c0-0.909,0.112-2.502,1.374-2.502C14.158,34.554,14.271,36.147,14.271,37.056 M12.149,37.056c0,0.473,0.019,1.931,0.748,1.931
		c0.727,0,0.747-1.458,0.747-1.931c0-0.465-0.02-1.924-0.747-1.924C12.168,35.132,12.149,36.591,12.149,37.056"/>
	<rect x="15.011" y="33.257" fill="#F9A25E" width="0.608" height="6.232"/>
	<path fill="#F9A25E" d="M16.799,34.132c-0.213,0-0.389-0.178-0.389-0.396c0-0.209,0.175-0.386,0.389-0.386
		c0.208,0,0.382,0.177,0.382,0.386C17.181,33.955,17.007,34.132,16.799,34.132 M17.099,39.49h-0.606V34.63h0.606V39.49z"/>
	<polygon fill="#F9A25E" points="20.187,39.49 17.691,39.49 19.588,35.199 17.954,35.199 17.954,34.63 20.505,34.63 18.562,38.92 
		20.187,38.92 	"/>
	<path fill="#F9A25E" d="M21.667,34.63v3.049c0,0.663,0.036,1.308,0.635,1.308c0.617,0,0.646-0.645,0.653-1.308V34.63h0.607v3.57
		c0,0.815-0.392,1.364-1.25,1.364c-0.852,0-1.253-0.539-1.253-1.364v-3.57H21.667z"/>
	<path fill="#F9A25E" d="M25.006,35.038h0.018c0.216-0.285,0.543-0.482,0.908-0.482c0.392,0,0.729,0.207,0.886,0.577
		c0.253-0.359,0.552-0.577,0.991-0.577c0.896,0,0.971,0.721,0.971,1.439v3.495h-0.607v-3.477c0-0.465-0.046-0.956-0.541-0.956
		c-0.722,0-0.738,0.824-0.738,1.438v2.994h-0.608v-3.468c0-0.453-0.027-0.965-0.522-0.965c-0.74,0-0.758,0.927-0.758,1.544v2.889
		h-0.608V34.63h0.608V35.038z"/>
	<path fill="#F9A25E" d="M32.074,39.49h-0.607v-0.378h-0.021c-0.176,0.273-0.447,0.453-0.793,0.453
		c-0.766,0-1.139-0.436-1.139-2.557c0-1.09,0.038-2.454,1.195-2.454c0.336,0,0.552,0.144,0.736,0.408h0.021V34.63h0.607V39.49z
		 M30.85,35.057c-0.673,0-0.709,1.079-0.709,1.903c0,2.008,0.326,2.102,0.682,2.102c0.588,0,0.7-0.558,0.7-2.083
		C31.522,35.928,31.446,35.057,30.85,35.057"/>
	<path fill="#F9A25E" d="M32.947,33.257h0.606v1.705h0.02c0.177-0.275,0.401-0.407,0.748-0.407c1.111,0,1.186,1.354,1.186,2.453
		c0,1.23-0.094,2.557-1.141,2.557c-0.346,0-0.616-0.181-0.793-0.453h-0.02v0.378h-0.606V33.257z M34.882,36.96
		c0-1.107-0.104-1.903-0.711-1.903c-0.738,0-0.674,1.431-0.674,1.865c0,0.598-0.075,2.14,0.701,2.14
		C34.693,39.062,34.882,38.626,34.882,36.96"/>
	<path fill="#F9A25E" d="M38.325,34.962h0.019c0.187-0.265,0.4-0.408,0.745-0.408c1.115,0,1.188,1.468,1.188,2.454
		c0,1.1-0.029,2.557-1.14,2.557c-0.345,0-0.618-0.181-0.794-0.453h-0.019v2.032h-0.609V34.63h0.609V34.962z M39.651,37.008
		c0-0.749-0.009-1.953-0.709-1.953c-0.646,0-0.674,1.007-0.674,1.867c0,0.938,0.038,2.14,0.701,2.14
		C39.53,39.062,39.651,38.504,39.651,37.008"/>
	<path fill="#F9A25E" d="M41.495,37.188v0.142c0,0.483,0.086,1.657,0.748,1.657c0.533,0,0.609-0.756,0.609-1.145h0.625
		c-0.012,0.739-0.29,1.723-1.18,1.723c-1.26,0-1.428-1.515-1.428-2.49c0-0.872,0.187-2.521,1.346-2.521
		c1.121,0,1.299,1.487,1.299,2.34v0.294H41.495z M42.896,36.667l-0.008-0.087c-0.019-0.462-0.036-1.447-0.673-1.447
		c-0.58,0-0.71,1.098-0.71,1.534H42.896z"/>
	<path fill="#F9A25E" d="M46.714,39.469c0,0.909-0.037,1.753-1.252,1.753c-0.842,0-1.235-0.513-1.235-1.347v-0.181h0.601v0.088
		c0,0.454,0.121,0.861,0.644,0.861c0.683,0,0.626-0.607,0.626-1.127v-0.369c-0.205,0.236-0.459,0.342-0.776,0.342
		c-1.195,0-1.214-1.677-1.214-2.54c0-0.813,0.095-2.396,1.205-2.396c0.326,0,0.597,0.153,0.776,0.408h0.02V34.63h0.606V39.469z
		 M45.489,38.987c0.647,0,0.673-0.957,0.673-2.017c0-0.891-0.055-1.913-0.719-1.913c-0.44,0-0.711,0.304-0.711,2.084
		C44.732,37.671,44.724,38.987,45.489,38.987"/>
	<path fill="#F9A25E" d="M50.193,37.056c0,0.917-0.112,2.509-1.373,2.509c-1.262,0-1.375-1.592-1.375-2.509
		c0-0.909,0.113-2.502,1.375-2.502C50.081,34.554,50.193,36.147,50.193,37.056 M48.073,37.056c0,0.473,0.017,1.931,0.747,1.931
		c0.729,0,0.746-1.458,0.746-1.931c0-0.465-0.017-1.924-0.746-1.924C48.09,35.132,48.073,36.591,48.073,37.056"/>
	<rect x="50.936" y="33.257" fill="#F9A25E" width="0.607" height="6.232"/>
	<path fill="#F9A25E" d="M0.952,33.109c-0.648,1.076-0.976,2.232-0.947,3.347c-0.029,1.126,0.299,2.282,0.947,3.346l0.021,0.035
		l0.471-0.201l-0.027-0.046c-0.608-0.998-0.914-2.082-0.885-3.134c-0.029-1.037,0.285-2.15,0.885-3.136l0.027-0.045l-0.471-0.201
		L0.952,33.109z"/>
	<path fill="#F9A25E" d="M52.67,33.088l-0.435,0.187l0.027,0.045c0.601,0.985,0.916,2.099,0.888,3.133
		c0.028,1.056-0.28,2.139-0.888,3.137l-0.027,0.046l0.473,0.201l0.021-0.035c0.646-1.063,0.975-2.22,0.944-3.349
		c0.03-1.111-0.298-2.268-0.944-3.344l-0.021-0.035L52.67,33.088z"/>
	<path fill="#046333" d="M54.139,23.989c0-0.515,0.412-0.924,0.93-0.924c0.521,0,0.932,0.409,0.932,0.924
		c0,0.517-0.41,0.926-0.932,0.926C54.551,24.915,54.139,24.505,54.139,23.989 M54.289,23.989c0,0.437,0.355,0.774,0.779,0.774
		c0.427,0,0.779-0.338,0.779-0.774c0-0.438-0.353-0.772-0.779-0.772C54.645,23.216,54.289,23.551,54.289,23.989 M55.495,24.516
		h-0.173l-0.266-0.479h-0.194v0.479H54.71v-1.039h0.439c0.189,0,0.359,0.056,0.359,0.275c0,0.204-0.14,0.279-0.277,0.285
		L55.495,24.516z M54.862,23.627v0.26h0.161c0.14,0,0.334,0.023,0.334-0.119c0-0.131-0.109-0.141-0.235-0.141H54.862z"/>
</g>
</svg>
