<?xml version="1.0" encoding="utf-8"?>
<!-- Generator: Adobe Illustrator 15.1.0, SVG Export Plug-In . SVG Version: 6.00 Build 0)  -->
<!DOCTYPE svg PUBLIC "-//W3C//DTD SVG 1.1//EN" "http://www.w3.org/Graphics/SVG/1.1/DTD/svg11.dtd">
<svg version="1.1" id="Layer_1" xmlns="http://www.w3.org/2000/svg" xmlns:xlink="http://www.w3.org/1999/xlink" x="0px" y="0px"
	 width="151.633px" height="63.271px" viewBox="0 0 151.633 63.271" enable-background="new 0 0 151.633 63.271"
	 xml:space="preserve">
<g>
	<defs>
		<rect id="SVGID_1_" y="0" width="160.635" height="63.27"/>
	</defs>
	<clipPath id="SVGID_2_">
		<use xlink:href="#SVGID_1_"  overflow="visible"/>
	</clipPath>
	<path clip-path="url(#SVGID_2_)" fill="none" stroke="#F9A25E" d="M57.096,11.635c0,0-4.961,0-4.961,4.961v30.078
		c0,0,0,4.961,4.961,4.961h89.079c0,0,4.96,0,4.96-4.961V16.595c0,0,0-4.961-4.96-4.961H57.096z"/>
</g>
<polygon fill="#F9A25E" points="34.125,0 31.635,1.581 29.146,0 26.934,1.951 24.228,0.778 22.347,3.052 19.491,2.317 17.991,4.856 
	15.054,4.577 13.969,7.321 11.025,7.505 10.384,10.384 7.505,11.025 7.321,13.969 4.579,15.053 4.857,17.99 2.317,19.49 
	3.052,22.347 0.779,24.226 1.953,26.932 0,29.145 1.583,31.635 0,34.123 1.953,36.337 0.779,39.043 3.052,40.922 2.317,43.778 
	4.857,45.278 4.579,48.216 7.321,49.3 7.505,52.243 10.384,52.885 11.025,55.764 13.969,55.948 15.054,58.691 17.991,58.412 
	19.491,60.951 22.347,60.217 24.228,62.491 26.934,61.317 29.146,63.269 31.635,61.687 34.125,63.269 36.336,61.317 39.043,62.491 
	40.922,60.217 43.778,60.951 45.279,58.412 48.215,58.691 49.3,55.948 52.245,55.764 52.885,52.885 55.766,52.243 55.948,49.3 
	58.691,48.216 58.413,45.278 60.953,43.778 60.217,40.922 62.491,39.043 61.317,36.337 63.271,34.123 61.688,31.635 63.271,29.145 
	61.317,26.932 62.491,24.226 60.217,22.347 60.953,19.49 58.413,17.99 58.691,15.053 55.948,13.969 55.766,11.025 52.885,10.384 
	52.245,7.505 49.3,7.321 48.215,4.577 45.279,4.856 43.778,2.317 40.922,3.052 39.043,0.778 36.336,1.951 "/>
<g>
	<defs>
		<rect id="SVGID_3_" y="0" width="160.635" height="63.27"/>
	</defs>
	<clipPath id="SVGID_4_">
		<use xlink:href="#SVGID_3_"  overflow="visible"/>
	</clipPath>
	<path clip-path="url(#SVGID_4_)" fill="#FFFFFF" d="M45.351,29.71H44.13l0.148-1.185h1.214L45.351,29.71z M46.317,27.799
		l0.219-1.754l-0.722-0.095l-0.231,1.849h-1.218l0.219-1.754l-0.723-0.095l-0.227,1.849H42.59v0.727h0.954l-0.149,1.185h-1.044v0.71
		h0.941l-0.236,1.895l0.735,0.095l0.248-1.973h1.226l-0.236,1.878l0.727,0.095L46,30.436h1.008V29.71H46.09l0.149-1.185h1.003
		v-0.727H46.317z M34.759,37.209h1.745v-3.625c0-0.936,0.119-1.592,0.356-1.967c0.242-0.381,0.651-0.571,1.228-0.571
		c0.53,0,0.895,0.145,1.096,0.433c0.206,0.283,0.309,0.794,0.309,1.535v4.195h1.746v-4.61c0-1.061-0.211-1.825-0.634-2.294
		c-0.489-0.552-1.171-0.826-2.046-0.826c-0.762,0-1.447,0.301-2.055,0.903v-0.695h-1.745V37.209z M27.742,32.436
		c0.057-0.216,0.139-0.409,0.247-0.579s0.238-0.316,0.39-0.438s0.321-0.213,0.506-0.277s0.384-0.097,0.595-0.097
		c0.927,0,1.511,0.463,1.753,1.391H27.742z M33.025,33.448c0-1.241-0.32-2.212-0.958-2.912c-0.644-0.705-1.519-1.058-2.626-1.058
		c-1.097,0-1.977,0.362-2.641,1.089c-0.659,0.736-0.989,1.699-0.989,2.888c0,1.2,0.34,2.163,1.02,2.889
		c0.679,0.722,1.58,1.081,2.703,1.081c0.391,0,0.754-0.041,1.089-0.123c0.334-0.083,0.646-0.213,0.934-0.39
		c0.289-0.178,0.559-0.404,0.811-0.68s0.492-0.606,0.719-0.992l-1.468-0.819c-0.355,0.557-0.672,0.938-0.95,1.144
		c-0.283,0.206-0.641,0.309-1.073,0.309c-0.557,0-1.012-0.18-1.367-0.541c-0.356-0.365-0.557-0.856-0.603-1.475h5.391L33.025,33.448
		z M19.104,31.911h0.912c0.968,0,1.639,0.172,2.015,0.518c0.387,0.35,0.58,0.782,0.58,1.298c0,0.529-0.201,0.968-0.603,1.312
		c-0.381,0.319-0.978,0.479-1.792,0.479h-1.112V31.911z M19.104,26.937h0.634c0.607,0,1.07,0.145,1.39,0.436
		c0.319,0.291,0.479,0.717,0.479,1.278c0,0.577-0.156,1.014-0.468,1.31c-0.311,0.296-0.802,0.444-1.471,0.444h-0.564V26.937z
		 M20.03,37.209c0.813,0,1.491-0.075,2.031-0.224c0.495-0.154,0.94-0.43,1.336-0.826c0.659-0.644,0.989-1.432,0.989-2.364
		c0-0.71-0.185-1.333-0.556-1.869c-0.366-0.539-0.865-0.919-1.498-1.135c0.653-0.592,0.98-1.315,0.98-2.17
		c0-0.469-0.1-0.932-0.301-1.391c-0.196-0.453-0.461-0.831-0.795-1.135c-0.33-0.294-0.734-0.503-1.213-0.627
		c-0.474-0.122-1.109-0.185-1.908-0.185h-1.791v11.925H20.03z"/>
	<path clip-path="url(#SVGID_4_)" fill="#F9A25E" d="M102.846,36.056c0.444,1.924,1.924,2.997,4.182,2.997
		c2.738,0,4.385-1.628,4.385-4.089c0-1.905-1.092-2.85-3.424-3.922c-1.479-0.685-2.516-1.073-2.516-2.35
		c0-0.999,0.723-1.665,1.887-1.665c0.834,0,1.443,0.389,1.961,1.202l1.685-0.869c-0.5-1.388-1.851-2.183-3.812-2.183
		c-2.404,0-3.978,1.498-3.978,3.626c0,1.998,1.295,2.886,3.646,4.033c1.369,0.666,2.349,0.979,2.349,2.274
		c0,1.185-0.795,1.961-2.09,1.961c-1.351,0-2.239-0.629-2.554-1.812L102.846,36.056z M94.337,33.504l1.351-3.017
		c0.147-0.351,0.314-0.832,0.48-1.498c0.186,0.666,0.352,1.147,0.5,1.498l1.35,3.017H94.337z M100.275,38.701h2.274l-6.401-13.744
		l-6.4,13.744h2.257l1.536-3.403h5.234L100.275,38.701z"/>
</g>
</svg>
