<?xml version="1.0" encoding="utf-8"?>
<!-- Generator: Adobe Illustrator 15.1.0, SVG Export Plug-In . SVG Version: 6.00 Build 0)  -->
<!DOCTYPE svg PUBLIC "-//W3C//DTD SVG 1.1//EN" "http://www.w3.org/Graphics/SVG/1.1/DTD/svg11.dtd">
<svg version="1.1" id="Layer_1" xmlns="http://www.w3.org/2000/svg" xmlns:xlink="http://www.w3.org/1999/xlink" x="0px" y="0px"
	 width="150.775px" height="63.27px" viewBox="0 0 150.775 63.27" enable-background="new 0 0 150.775 63.27" xml:space="preserve">
<g>
	<defs>
		<rect id="SVGID_1_" x="0" y="0" width="159.776" height="63.27"/>
	</defs>
	<clipPath id="SVGID_2_">
		<use xlink:href="#SVGID_1_"  overflow="visible"/>
	</clipPath>
	<path clip-path="url(#SVGID_2_)" fill="none" stroke="#F9A25E" d="M56.236,12.023c0,0-4.961,0-4.961,4.961v30.078
		c0,0,0,4.961,4.961,4.961h89.079c0,0,4.96,0,4.96-4.961V16.984c0,0,0-4.961-4.96-4.961H56.236z"/>
</g>
<polygon fill="#F9A25E" points="34.124,0 31.635,1.581 29.145,0 26.933,1.951 24.227,0.779 22.347,3.053 19.491,2.318 17.991,4.857 
	15.054,4.577 13.969,7.322 11.025,7.505 10.384,10.384 7.505,11.026 7.321,13.97 4.578,15.054 4.857,17.99 2.317,19.49 
	3.052,22.348 0.779,24.227 1.952,26.933 0,29.146 1.582,31.635 0,34.123 1.952,36.337 0.779,39.043 3.052,40.922 2.317,43.779 
	4.857,45.279 4.578,48.216 7.321,49.3 7.505,52.243 10.384,52.886 11.025,55.765 13.969,55.948 15.054,58.692 17.991,58.412 
	19.491,60.951 22.347,60.217 24.227,62.491 26.933,61.318 29.145,63.27 31.635,61.688 34.124,63.27 36.336,61.318 39.043,62.491 
	40.922,60.217 43.778,60.951 45.279,58.412 48.215,58.692 49.3,55.948 52.244,55.765 52.885,52.886 55.765,52.243 55.948,49.3 
	58.691,48.216 58.412,45.279 60.952,43.779 60.217,40.922 62.491,39.043 61.317,36.337 63.27,34.123 61.688,31.635 63.27,29.146 
	61.317,26.933 62.491,24.227 60.217,22.348 60.952,19.49 58.412,17.99 58.691,15.054 55.948,13.97 55.765,11.026 52.885,10.384 
	52.244,7.505 49.3,7.322 48.215,4.577 45.279,4.857 43.778,2.318 40.922,3.053 39.043,0.779 36.336,1.951 "/>
<g>
	<defs>
		<rect id="SVGID_3_" x="0" y="0" width="159.776" height="63.27"/>
	</defs>
	<clipPath id="SVGID_4_">
		<use xlink:href="#SVGID_3_"  overflow="visible"/>
	</clipPath>
	<path clip-path="url(#SVGID_4_)" fill="#FFFFFF" d="M48.928,29.71h-1.222l0.148-1.185h1.214L48.928,29.71z M49.894,27.8
		l0.218-1.756l-0.722-0.095L49.159,27.8h-1.218l0.219-1.756l-0.722-0.095L47.211,27.8h-1.045v0.726h0.954l-0.149,1.185h-1.044v0.71
		h0.941l-0.235,1.895l0.734,0.095l0.248-1.973h1.226l-0.235,1.878l0.726,0.095l0.244-1.973h1.007V29.71h-0.917l0.149-1.185h1.003
		V27.8H49.894z M38.335,37.209h1.745v-3.625c0-0.936,0.119-1.592,0.356-1.968c0.242-0.38,0.651-0.57,1.228-0.57
		c0.53,0,0.896,0.145,1.096,0.433c0.206,0.283,0.309,0.794,0.309,1.535v4.195h1.746v-4.61c0-1.062-0.211-1.825-0.633-2.294
		c-0.49-0.552-1.172-0.826-2.047-0.826c-0.762,0-1.447,0.301-2.055,0.902v-0.694h-1.745V37.209z M31.318,32.437
		c0.057-0.216,0.139-0.409,0.247-0.579c0.108-0.17,0.238-0.316,0.39-0.438c0.152-0.12,0.321-0.213,0.506-0.277
		c0.186-0.064,0.384-0.097,0.595-0.097c0.927,0,1.511,0.464,1.753,1.391H31.318z M36.601,33.448c0-1.241-0.319-2.212-0.958-2.912
		c-0.643-0.705-1.519-1.058-2.626-1.058c-1.096,0-1.977,0.363-2.641,1.089c-0.659,0.736-0.989,1.699-0.989,2.888
		c0,1.2,0.34,2.163,1.02,2.89c0.679,0.721,1.58,1.081,2.703,1.081c0.391,0,0.754-0.041,1.089-0.123
		c0.335-0.083,0.646-0.214,0.934-0.391c0.289-0.178,0.559-0.404,0.811-0.68c0.253-0.275,0.492-0.606,0.719-0.993l-1.468-0.818
		c-0.355,0.557-0.672,0.938-0.95,1.144c-0.283,0.206-0.641,0.309-1.073,0.309c-0.556,0-1.012-0.18-1.367-0.541
		c-0.356-0.364-0.556-0.856-0.603-1.475h5.391L36.601,33.448z M25.962,37.209H27.7V24.164h-1.738V37.209z M22.181,37.209h1.738
		V24.164h-1.738V37.209z M20.308,25.284h-6.58v11.925h6.58v-1.691h-4.781v-3.985h4.642v-1.69h-4.642v-2.866h4.781V25.284z"/>
	<path clip-path="url(#SVGID_4_)" fill="#F9A25E" d="M103.551,33.892l1.35-3.017c0.148-0.351,0.314-0.832,0.48-1.498
		c0.186,0.666,0.353,1.147,0.5,1.498l1.351,3.017H103.551z M109.488,39.089h2.275l-6.4-13.745l-6.4,13.745h2.256l1.535-3.403h5.236
		L109.488,39.089z M92.728,31.504v-3.793h0.388c1.925,0,2.83,0.353,2.83,1.98c0,1.591-0.942,1.812-2.83,1.812H92.728z
		 M92.597,33.169h0.24l4.403,5.92h2.425l-4.552-6.012c1.998-0.241,3.034-1.442,3.034-3.571c0-1.238-0.48-2.274-1.277-2.903
		c-0.814-0.63-1.867-0.74-3.293-0.74h-2.997v13.227h2.017V33.169z"/>
</g>
</svg>
