<?xml version="1.0" encoding="utf-8"?>
<!-- Generator: Adobe Illustrator 15.1.0, SVG Export Plug-In . SVG Version: 6.00 Build 0)  -->
<!DOCTYPE svg PUBLIC "-//W3C//DTD SVG 1.1//EN" "http://www.w3.org/Graphics/SVG/1.1/DTD/svg11.dtd">
<svg version="1.1" id="Layer_1" xmlns="http://www.w3.org/2000/svg" xmlns:xlink="http://www.w3.org/1999/xlink" x="0px" y="0px"
	 width="462px" height="20px" viewBox="0 0 462 20" enable-background="new 0 0 462 20" xml:space="preserve">
<g>
	<g>
		<path fill="#231F20" d="M437.006,3.639c0-0.818,0.598-1.446,1.353-1.446c0.745,0,1.348,0.628,1.348,1.446
			c0,0.815-0.603,1.445-1.348,1.445C437.604,5.084,437.006,4.454,437.006,3.639 M436.715,3.639c0,0.964,0.747,1.689,1.644,1.689
			c0.89,0,1.639-0.726,1.639-1.689c0-0.969-0.749-1.693-1.639-1.693C437.462,1.945,436.715,2.67,436.715,3.639 M437.731,4.625h0.29
			V3.776h0.312l0.523,0.849h0.312l-0.552-0.875c0.285-0.031,0.506-0.182,0.506-0.54c0-0.375-0.213-0.562-0.67-0.562h-0.721V4.625z
			 M438.021,2.892h0.382c0.199,0,0.43,0.031,0.43,0.304c0,0.317-0.254,0.334-0.516,0.334h-0.296V2.892z"/>
		<path fill="#231F20" d="M331.025,8.915l0.027,0.781c0,4.513-0.877,10.117-6.602,10.117c-5.385,0-7.131-4.733-7.131-9.366
			c0-4.532,1.725-9.559,7.082-9.559c2.963,0,5.171,1.871,6.236,4.515l-4.78,1.771c-0.05-0.729-0.531-1.869-1.407-1.869
			c-2.28,0-2.087,4.197-2.087,5.578c0.072,1.311-0.024,4.516,1.894,4.516c1.312,0,1.725-1.553,1.699-2.622h-1.82V8.915H331.025z"/>
		<path fill="#231F20" d="M331.025,8.915l0.027,0.781c0,4.513-0.877,10.117-6.602,10.117c-5.385,0-7.131-4.733-7.131-9.366
			c0-4.532,1.725-9.559,7.082-9.559c2.963,0,5.171,1.871,6.236,4.515l-4.78,1.771c-0.05-0.729-0.531-1.869-1.407-1.869
			c-2.28,0-2.087,4.197-2.087,5.578c0.072,1.311-0.024,4.516,1.894,4.516c1.312,0,1.725-1.553,1.699-2.622h-1.82V8.915H331.025z"/>
		<path fill="#231F20" d="M339.143,0.893c5.023,0,6.989,4.996,6.989,9.458c0,4.461-1.966,9.462-6.989,9.462
			c-5.021,0-6.987-5.001-6.987-9.462C332.155,5.889,334.122,0.893,339.143,0.893 M339.143,15.201c1.868,0,1.939-3.712,1.939-4.851
			c0-1.14-0.071-4.852-1.939-4.852c-1.869,0-1.94,3.712-1.94,4.852C337.202,11.489,337.273,15.201,339.143,15.201"/>
		<path fill="#231F20" d="M339.143,0.893c5.023,0,6.989,4.996,6.989,9.458c0,4.461-1.966,9.462-6.989,9.462
			c-5.021,0-6.987-5.001-6.987-9.462C332.155,5.889,334.122,0.893,339.143,0.893z M339.143,15.201c1.868,0,1.939-3.712,1.939-4.851
			c0-1.14-0.071-4.852-1.939-4.852c-1.869,0-1.94,3.712-1.94,4.852C337.202,11.489,337.273,15.201,339.143,15.201z"/>
		<path fill="#231F20" d="M354.191,0.893c5.021,0,6.99,4.996,6.99,9.458c0,4.461-1.969,9.462-6.99,9.462
			c-5.02,0-6.983-5.001-6.983-9.462C347.208,5.889,349.172,0.893,354.191,0.893 M354.191,15.201c1.874,0,1.942-3.712,1.942-4.851
			c0-1.14-0.068-4.852-1.942-4.852c-1.865,0-1.94,3.712-1.94,4.852C352.251,11.489,352.326,15.201,354.191,15.201"/>
		<path fill="#231F20" d="M354.191,0.893c5.021,0,6.99,4.996,6.99,9.458c0,4.461-1.969,9.462-6.99,9.462
			c-5.02,0-6.983-5.001-6.983-9.462C347.208,5.889,349.172,0.893,354.191,0.893z M354.191,15.201c1.874,0,1.942-3.712,1.942-4.851
			c0-1.14-0.068-4.852-1.942-4.852c-1.865,0-1.94,3.712-1.94,4.852C352.251,11.489,352.326,15.201,354.191,15.201z"/>
		<path fill="#231F20" d="M362.435,1.203h3.976c5.63,0,8.664,3.544,8.664,9.077c0,8.441-5.314,9.216-8.322,9.216h-4.317V1.203z
			 M367.382,15.08c2.256-0.021,2.645-2.835,2.645-4.561c0-1.984-0.389-4.752-2.645-4.752V15.08z"/>
		<path fill="#231F20" d="M362.435,1.203h3.976c5.63,0,8.664,3.544,8.664,9.077c0,8.441-5.314,9.216-8.322,9.216h-4.317V1.203z
			 M367.382,15.08c2.256-0.021,2.645-2.835,2.645-4.561c0-1.984-0.389-4.752-2.645-4.752V15.08z"/>
		<path fill="#231F20" d="M392.382,8.915l0.028,0.781c0,4.513-0.88,10.117-6.604,10.117c-5.386,0-7.131-4.733-7.131-9.366
			c0-4.532,1.725-9.559,7.082-9.559c2.964,0,5.17,1.871,6.236,4.515l-4.78,1.771c-0.049-0.729-0.53-1.869-1.407-1.869
			c-2.282,0-2.087,4.197-2.087,5.578c0.073,1.311-0.021,4.516,1.896,4.516c1.311,0,1.722-1.553,1.695-2.622h-1.819V8.915H392.382z"
			/>
		<path fill="#231F20" d="M392.382,8.915l0.028,0.781c0,4.513-0.88,10.117-6.604,10.117c-5.386,0-7.131-4.733-7.131-9.366
			c0-4.532,1.725-9.559,7.082-9.559c2.964,0,5.17,1.871,6.236,4.515l-4.78,1.771c-0.049-0.729-0.53-1.869-1.407-1.869
			c-2.282,0-2.087,4.197-2.087,5.578c0.073,1.311-0.021,4.516,1.896,4.516c1.311,0,1.722-1.553,1.695-2.622h-1.819V8.915H392.382z"
			/>
		<path fill="#231F20" d="M401.436,19.496l-2.743-7.615l-0.044,0.044c0.023,0.898,0.071,1.799,0.071,2.696v4.875h-4.947V1.203h4.776
			c4.297,0,7.398,1.265,7.398,6.092c0,2.012-0.875,3.811-2.839,4.586l3.687,7.615H401.436z M399.038,9.671
			c1.307,0,2.012-1.136,2.012-2.326c0-1.605-0.967-2.281-2.33-2.207v4.511L399.038,9.671z"/>
		<path fill="#231F20" d="M401.436,19.496l-2.743-7.615l-0.044,0.044c0.023,0.898,0.071,1.799,0.071,2.696v4.875h-4.947V1.203h4.776
			c4.297,0,7.398,1.265,7.398,6.092c0,2.012-0.875,3.811-2.839,4.586l3.687,7.615H401.436z M399.038,9.671
			c1.307,0,2.012-1.136,2.012-2.326c0-1.605-0.967-2.281-2.33-2.207v4.511L399.038,9.671z"/>
		<rect x="408.121" y="1.203" fill="#231F20" width="4.946" height="18.293"/>
		<rect x="408.121" y="1.203" fill="#231F20" width="4.946" height="18.293"/>
		<path fill="#231F20" d="M428.751,9.532c0.557,0.604,1.505,1.333,2.382,1.333c0.412,0,0.92-0.191,0.92-0.656
			c0-0.463-0.413-0.729-1.239-1.018c-1.865-0.651-3.346-1.625-3.346-3.808c0-2.648,2.158-4.32,5.141-4.32
			c1.29,0,2.789,0.412,3.907,1.046l-1.625,3.467c-0.557-0.513-1.188-1.139-1.99-1.139c-0.339,0-0.696,0.216-0.696,0.626
			c0,0.658,0.914,0.998,1.426,1.19c1.722,0.656,3.104,1.577,3.104,3.662c0,2.891-2.476,4.493-5.118,4.493
			c-1.75,0-3.103-0.515-4.612-1.339L428.751,9.532z"/>
		<path fill="#231F20" d="M414.694,19.496V1.205h4.513c4.318,0,7.643,1.403,7.643,6.211c0,4.754-2.916,6.211-7.203,6.088v5.992
			H414.694z M420.004,5.138l-0.357,0.02v4.224c1.354,0.071,2.203-0.677,2.203-2.038C421.85,6.177,421.219,5.138,420.004,5.138"/>
		<path fill="#231F20" d="M414.694,19.496V1.205h4.513c4.318,0,7.643,1.403,7.643,6.211c0,4.754-2.916,6.211-7.203,6.088v5.992
			H414.694z M420.004,5.138l-0.357,0.02v4.224c1.354,0.071,2.203-0.677,2.203-2.038C421.85,6.177,421.219,5.138,420.004,5.138z"/>
		<rect x="426.685" y="15.556" fill="#231F20" width="8.991" height="3.739"/>
		<rect x="426.685" y="15.556" fill="#231F20" width="8.991" height="3.739"/>
	</g>
	<g>
		<path fill="#EC2427" d="M277.317,18.656c16.194,0,29.322-4.183,29.322-9.329C306.64,4.171,293.512,0,277.317,0
			c-16.189,0-29.326,4.171-29.326,9.327C247.991,14.474,261.128,18.656,277.317,18.656"/>
		<path fill="#FFFFFF" d="M259.426,9.388c0-3.411,2.635-5.45,5.875-5.45c3.239,0,5.876,2.039,5.876,5.45
			c0,3.339-2.648,5.507-5.876,5.507C262.074,14.895,259.426,12.727,259.426,9.388 M267.289,9.332c0-1.218-0.817-2.043-1.988-2.043
			c-1.17,0-1.985,0.825-1.985,2.043c0,1.125,0.759,2.073,1.985,2.073C266.525,11.405,267.289,10.457,267.289,9.332"/>
		<path fill="none" stroke="#ED3327" stroke-width="0.195" d="M259.426,9.388c0-3.411,2.635-5.45,5.875-5.45
			c3.239,0,5.876,2.039,5.876,5.45c0,3.339-2.648,5.507-5.876,5.507C262.074,14.895,259.426,12.727,259.426,9.388z M267.289,9.332
			c0-1.218-0.817-2.043-1.988-2.043c-1.17,0-1.985,0.825-1.985,2.043c0,1.125,0.759,2.073,1.985,2.073
			C266.525,11.405,267.289,10.457,267.289,9.332z"/>
		<path fill="#FFFFFF" d="M295.265,9.459c0,3.41-2.634,5.45-5.875,5.45c-3.238,0-5.878-2.04-5.878-5.45
			c0-3.341,2.65-5.509,5.878-5.509C292.616,3.95,295.265,6.118,295.265,9.459 M287.402,9.511c0,1.209,0.819,2.044,1.987,2.044
			c1.167,0,1.986-0.835,1.986-2.044c0-1.125-0.762-2.069-1.986-2.069C288.163,7.441,287.402,8.386,287.402,9.511"/>
		<path fill="none" stroke="#ED3327" stroke-width="0.195" d="M295.265,9.459c0,3.41-2.634,5.45-5.875,5.45
			c-3.238,0-5.878-2.04-5.878-5.45c0-3.341,2.65-5.509,5.878-5.509C292.616,3.95,295.265,6.118,295.265,9.459z M287.402,9.511
			c0,1.209,0.819,2.044,1.987,2.044c1.167,0,1.986-0.835,1.986-2.044c0-1.125-0.762-2.069-1.986-2.069
			C288.163,7.441,287.402,8.386,287.402,9.511z"/>
		<polygon fill="#FFFFFF" points="282.321,6.275 280.448,4.4 277.371,7.479 274.243,4.35 272.373,6.222 275.501,9.353 
			272.391,12.46 274.262,14.329 277.374,11.224 280.432,14.285 282.306,12.408 279.244,9.353 		"/>
	</g>
	<g>
		<path fill="#231F20" d="M5.968,4.853C5.425,4.38,4.753,3.981,4.009,3.981c-0.835,0-1.36,0.509-1.36,1.344
			c0,2.249,4.117,2.375,4.117,6.075c0,2.433-1.396,4.263-3.937,4.263c-0.759,0-1.704-0.233-2.321-0.689v-2.578
			c0.634,0.438,1.253,0.728,2.05,0.728c0.87,0,1.558-0.581,1.558-1.486c0-1.055-0.833-1.451-1.595-1.994C0.962,8.59,0,7.574,0,5.582
			c0-2.161,1.253-4.031,3.573-4.031c0.872,0,1.65,0.234,2.395,0.672V4.853z"/>
		<polygon fill="#231F20" points="10.212,6.286 11.173,9.986 11.482,11.51 11.518,11.51 12.717,6.286 15.29,6.286 11.354,19.965 
			8.832,19.965 10.302,15.266 7.636,6.286 		"/>
		<path fill="#231F20" d="M18.755,6.286v1.105h0.036c0.472-0.799,1.089-1.359,2.086-1.451v2.486
			c-0.125-0.019-0.253-0.037-0.398-0.037c-1.705,0-1.724,1.124-1.724,2.486v4.57h-2.557v-9.16H18.755z"/>
		<path fill="#231F20" d="M21.545,3.546c0-0.924,0.745-1.613,1.669-1.613c0.891,0,1.579,0.781,1.579,1.651s-0.743,1.612-1.632,1.612
			C22.272,5.196,21.545,4.454,21.545,3.546 M24.449,15.446h-2.557v-9.16h2.557V15.446z"/>
		<path fill="#231F20" d="M28.259,7.7h0.036c0.346-0.87,1.125-1.596,2.123-1.596c1.885,0,1.723,2.104,1.723,3.428v5.914h-2.557
			V10.42c0-0.471,0.181-1.738-0.636-1.738c-0.58,0-0.689,0.598-0.689,1.052v5.713h-2.557v-9.16h2.557V7.7z"/>
		<path fill="#231F20" d="M35.585,16.663c0.036,0.58,0.199,1.306,0.926,1.306c1.142,0,0.98-1.724,0.98-2.503v-1.164h-0.038
			c-0.344,0.674-0.761,1.324-1.651,1.324c-0.943,0-1.577-0.742-1.978-1.523c-0.454-0.905-0.598-2.085-0.598-3.1
			c0-1.597,0.289-4.9,2.467-4.9c0.854,0,1.469,0.562,1.759,1.289h0.038V6.286h2.557v9.959c0,2.683-1.199,3.755-3.429,3.755
			c-2.176,0-3.174-1.254-3.302-3.337H35.585z M37.617,10.82c0-0.507-0.036-2.447-0.907-2.447c-0.872,0-0.926,1.92-0.926,2.447
			c0,0.581,0.038,2.467,0.962,2.467C37.562,13.287,37.617,11.31,37.617,10.82"/>
		<path fill="#231F20" d="M47.665,11.547H43.62c0.019,0.67-0.018,2.118,0.963,2.118c0.653,0,0.815-0.507,0.815-1.047h2.178
			c-0.217,1.684-1.034,3.008-2.904,3.008c-2.593,0-3.519-2.3-3.519-4.572c0-2.191,0.799-4.951,3.463-4.951
			c1.688,0,3.25,1.507,3.103,4.392L47.665,11.547z M45.507,9.75c0-0.6-0.126-1.686-0.924-1.686c-0.78,0-0.944,1.052-0.944,1.634
			v0.27h1.869V9.75z"/>
		<path fill="#231F20" d="M57.315,14.413h-0.038c-0.345,0.688-0.869,1.213-1.686,1.213c-2.068,0-2.486-3.3-2.486-4.771
			c0-1.578,0.309-4.753,2.451-4.753c0.853,0,1.431,0.562,1.722,1.31h0.038V0.81h2.557v14.634h-2.557V14.413z M57.495,10.82
			c0-0.507-0.055-2.447-0.924-2.447c-0.854,0-0.908,1.92-0.908,2.447c0,0.581,0.038,2.467,0.942,2.467
			C57.422,13.287,57.495,11.31,57.495,10.82"/>
		<path fill="#231F20" d="M67.471,11.547h-4.045c0.018,0.67-0.018,2.118,0.963,2.118c0.651,0,0.815-0.507,0.815-1.047h2.177
			c-0.217,1.684-1.034,3.008-2.903,3.008c-2.593,0-3.519-2.3-3.519-4.572c0-2.191,0.797-4.951,3.463-4.951
			c1.688,0,3.248,1.507,3.103,4.392L67.471,11.547z M65.312,9.75c0-0.6-0.125-1.686-0.924-1.686c-0.78,0-0.945,1.052-0.945,1.634
			v0.27h1.869V9.75z"/>
		<path fill="#231F20" d="M73.238,8.752c-0.362-0.327-0.707-0.598-1.233-0.598c-0.454,0-0.689,0.271-0.689,0.671
			c0.036,1.069,2.921,0.853,2.921,3.593c0,1.813-1.052,3.21-2.938,3.21c-0.98,0-1.996-0.417-2.758-1.053l1.125-1.815
			c0.38,0.328,0.763,0.601,1.271,0.601c0.399,0,0.744-0.29,0.744-0.763c0.036-1.213-2.921-0.905-2.921-3.81
			c0-1.74,1.451-2.684,3.065-2.684c0.926,0,1.705,0.234,2.45,0.778L73.238,8.752z"/>
		<path fill="#231F20" d="M75.088,3.546c0-0.924,0.743-1.613,1.667-1.613c0.89,0,1.579,0.781,1.579,1.651s-0.743,1.612-1.631,1.612
			C75.812,5.196,75.088,4.454,75.088,3.546 M77.989,15.446h-2.557v-9.16h2.557V15.446z"/>
		<path fill="#231F20" d="M81.436,16.663c0.036,0.58,0.201,1.306,0.925,1.306c1.142,0,0.98-1.724,0.98-2.503v-1.164h-0.036
			c-0.346,0.674-0.762,1.324-1.65,1.324c-0.944,0-1.578-0.742-1.977-1.523c-0.454-0.905-0.6-2.085-0.6-3.1
			c0-1.597,0.29-4.9,2.467-4.9c0.854,0,1.469,0.562,1.76,1.289h0.036V6.286h2.558v9.959c0,2.683-1.195,3.755-3.427,3.755
			c-2.178,0-3.174-1.254-3.302-3.337H81.436z M83.468,10.82c0-0.507-0.036-2.447-0.908-2.447c-0.871,0-0.923,1.92-0.923,2.447
			c0,0.581,0.036,2.467,0.961,2.467C83.413,13.287,83.468,11.31,83.468,10.82"/>
		<path fill="#231F20" d="M89.725,7.7h0.036c0.346-0.87,1.125-1.596,2.122-1.596c1.886,0,1.724,2.104,1.724,3.428v5.914h-2.557
			V10.42c0-0.471,0.181-1.738-0.636-1.738c-0.58,0-0.689,0.598-0.689,1.052v5.713h-2.557v-9.16h2.557V7.7z"/>
		<path fill="#231F20" d="M101.206,11.547h-4.043c0.017,0.67-0.02,2.118,0.961,2.118c0.651,0,0.815-0.507,0.815-1.047h2.178
			c-0.219,1.684-1.034,3.008-2.903,3.008c-2.594,0-3.519-2.3-3.519-4.572c0-2.191,0.797-4.951,3.464-4.951
			c1.688,0,3.248,1.507,3.103,4.392L101.206,11.547z M99.047,9.75c0-0.6-0.126-1.686-0.924-1.686c-0.781,0-0.944,1.052-0.944,1.634
			v0.27h1.869V9.75z"/>
		<path fill="#231F20" d="M106.411,14.413h-0.038c-0.344,0.688-0.869,1.213-1.686,1.213c-2.067,0-2.485-3.3-2.485-4.771
			c0-1.578,0.309-4.753,2.449-4.753c0.853,0,1.433,0.562,1.722,1.31h0.038V0.81h2.558v14.634h-2.558V14.413z M106.592,10.82
			c0-0.507-0.054-2.447-0.924-2.447c-0.854,0-0.907,1.92-0.907,2.447c0,0.581,0.036,2.467,0.941,2.467
			C106.519,13.287,106.592,11.31,106.592,10.82"/>
		<path fill="#231F20" d="M114.3,3.546c0-0.924,0.742-1.613,1.668-1.613c0.889,0,1.579,0.781,1.579,1.651s-0.745,1.612-1.631,1.612
			C115.026,5.196,114.3,4.454,114.3,3.546 M117.203,15.446h-2.558v-9.16h2.558V15.446z"/>
		<path fill="#231F20" d="M121.012,7.7h0.036c0.344-0.87,1.125-1.596,2.123-1.596c1.885,0,1.724,2.104,1.724,3.428v5.914h-2.558
			V10.42c0-0.471,0.181-1.738-0.636-1.738c-0.579,0-0.688,0.598-0.688,1.052v5.713h-2.558v-9.16h2.558V7.7z"/>
		<path fill="#231F20" d="M133.145,7.412h0.038c0.29-0.748,0.867-1.31,1.705-1.31c2.158,0,2.448,3.175,2.448,4.753
			c0,1.471-0.38,4.771-2.467,4.771c-0.833,0-1.361-0.524-1.686-1.213h-0.038v5.549h-2.557V6.286h2.557V7.412z M134.778,10.82
			c0-0.527-0.073-2.447-0.907-2.447c-0.872,0-0.908,1.94-0.908,2.447c0,0.489,0.055,2.467,0.888,2.467
			C134.759,13.287,134.778,11.401,134.778,10.82"/>
		<path fill="#231F20" d="M142.487,14.413h-0.038c-0.343,0.688-0.872,1.213-1.686,1.213c-2.069,0-2.486-3.3-2.486-4.771
			c0-1.578,0.309-4.753,2.45-4.753c0.85,0,1.432,0.562,1.722,1.31h0.038V6.286h2.558v9.157h-2.558V14.413z M142.667,10.82
			c0-0.507-0.054-2.447-0.923-2.447c-0.854,0-0.91,1.92-0.91,2.447c0,0.581,0.038,2.467,0.945,2.467
			C142.593,13.287,142.667,11.31,142.667,10.82"/>
		<path fill="#231F20" d="M148.852,6.286v1.105h0.035c0.472-0.799,1.089-1.359,2.088-1.451v2.486
			c-0.127-0.019-0.253-0.037-0.399-0.037c-1.705,0-1.724,1.124-1.724,2.486v4.57h-2.558v-9.16H148.852z"/>
		<polygon fill="#231F20" points="155.363,3.746 155.363,6.286 156.415,6.286 156.415,8.39 155.363,8.39 155.363,15.446 
			152.806,15.446 152.806,8.39 151.915,8.39 151.915,6.286 152.806,6.286 152.806,3.746 		"/>
		<path fill="#231F20" d="M160.151,7.7h0.036c0.344-0.87,1.124-1.596,2.122-1.596c1.887,0,1.723,2.104,1.723,3.428v5.914h-2.557
			V10.42c0-0.471,0.18-1.738-0.636-1.738c-0.579,0-0.688,0.598-0.688,1.052v5.713h-2.557v-9.16h2.557V7.7z"/>
		<path fill="#231F20" d="M171.632,11.547h-4.044c0.02,0.67-0.018,2.118,0.962,2.118c0.652,0,0.817-0.507,0.817-1.047h2.175
			c-0.217,1.684-1.031,3.008-2.903,3.008c-2.593,0-3.519-2.3-3.519-4.572c0-2.191,0.801-4.951,3.466-4.951
			c1.686,0,3.248,1.507,3.102,4.392L171.632,11.547z M169.473,9.75c0-0.6-0.125-1.686-0.923-1.686c-0.779,0-0.942,1.052-0.942,1.634
			v0.27h1.865V9.75z"/>
		<path fill="#231F20" d="M175.349,6.286v1.105h0.037c0.472-0.799,1.089-1.359,2.088-1.451v2.486
			c-0.127-0.019-0.253-0.037-0.4-0.037c-1.705,0-1.725,1.124-1.725,2.486v4.57h-2.556v-9.16H175.349z"/>
		<path fill="#231F20" d="M183.113,8.752c-0.362-0.327-0.709-0.598-1.235-0.598c-0.453,0-0.688,0.271-0.688,0.671
			c0.036,1.069,2.918,0.853,2.918,3.593c0,1.813-1.049,3.21-2.935,3.21c-0.98,0-1.997-0.417-2.756-1.053l1.12-1.815
			c0.38,0.328,0.764,0.601,1.27,0.601c0.402,0,0.747-0.29,0.747-0.763c0.035-1.213-2.922-0.905-2.922-3.81
			c0-1.74,1.452-2.684,3.066-2.684c0.926,0,1.704,0.234,2.45,0.778L183.113,8.752z"/>
		<path fill="#231F20" d="M187.883,0.808V7.7h0.036c0.347-0.87,1.125-1.596,2.122-1.596c1.884,0,1.723,2.104,1.723,3.428v5.916
			h-2.557V10.42c0-0.471,0.181-1.739-0.636-1.739c-0.579,0-0.688,0.599-0.688,1.053v5.715h-2.557V0.808H187.883z"/>
		<path fill="#231F20" d="M192.652,3.546c0-0.924,0.742-1.613,1.668-1.613c0.889,0,1.579,0.781,1.579,1.651
			s-0.742,1.612-1.634,1.612C193.378,5.196,192.652,4.454,192.652,3.546 M195.554,15.446h-2.557v-9.16h2.557V15.446z"/>
		<path fill="#231F20" d="M199.363,7.412h0.038c0.289-0.748,0.867-1.31,1.703-1.31c2.158,0,2.45,3.175,2.45,4.753
			c0,1.471-0.38,4.771-2.467,4.771c-0.832,0-1.359-0.524-1.685-1.213h-0.038v5.549h-2.557V6.286h2.557V7.412z M200.998,10.82
			c0-0.527-0.076-2.447-0.908-2.447c-0.871,0-0.907,1.94-0.907,2.447c0,0.489,0.055,2.467,0.89,2.467
			C200.976,13.287,200.998,11.401,200.998,10.82"/>
		<polygon fill="#231F20" points="211.226,6.286 212.46,11.657 212.495,11.657 213.692,6.286 215.888,6.286 217.049,11.657 
			217.082,11.657 217.265,10.676 218.354,6.286 220.786,6.286 218.246,15.446 216.139,15.446 215.306,12.346 214.762,9.694 
			214.727,9.694 214.201,12.614 213.474,15.446 211.334,15.446 208.739,6.286 		"/>
		<path fill="#231F20" d="M221.327,3.546c0-0.924,0.742-1.613,1.669-1.613c0.888,0,1.578,0.781,1.578,1.651
			s-0.743,1.612-1.633,1.612C222.051,5.196,221.327,4.454,221.327,3.546 M224.23,15.446h-2.56v-9.16h2.56V15.446z"/>
		<polygon fill="#231F20" points="228.836,3.746 228.836,6.286 229.89,6.286 229.89,8.39 228.836,8.39 228.836,15.446 
			226.278,15.446 226.278,8.39 225.39,8.39 225.39,6.286 226.278,6.286 226.278,3.746 		"/>
		<path fill="#231F20" d="M233.624,0.808V7.7h0.035c0.347-0.87,1.126-1.596,2.122-1.596c1.887,0,1.724,2.104,1.724,3.428v5.916
			h-2.557V10.42c0-0.471,0.181-1.739-0.636-1.739c-0.58,0-0.688,0.599-0.688,1.053v5.715h-2.558V0.808H233.624z"/>
	</g>
</g>
</svg>
