<?xml version="1.0" encoding="utf-8"?>
<!-- Generator: Adobe Illustrator 16.0.0, SVG Export Plug-In . SVG Version: 6.00 Build 0)  -->
<!DOCTYPE svg PUBLIC "-//W3C//DTD SVG 1.1//EN" "http://www.w3.org/Graphics/SVG/1.1/DTD/svg11.dtd">
<svg version="1.1" id="Layer_1" xmlns="http://www.w3.org/2000/svg" xmlns:xlink="http://www.w3.org/1999/xlink" x="0px" y="0px"
	 width="48px" height="48px" viewBox="0 0 48 48" enable-background="new 0 0 48 48" xml:space="preserve">
<g>
	<g>
		<path fill="#0255A3" d="M27.736,0C38.157,1.61,46.391,9.842,48,20.263V0H27.736z M20.262,0H0v20.263
			C1.61,9.842,9.842,1.61,20.262,0z M0,27.736V48h20.262C9.842,46.389,1.61,38.156,0,27.736z M27.738,48H48V27.736
			C46.391,38.156,38.157,46.391,27.738,48z M35.272,25.286h-4.114v-2.572h4.114v-3.429h-7.543v9.428h7.543V25.286z M36.302,13.971
			v14.743h9.257v-9.428h-5.829v-5.314H36.302z M42.387,22.714v2.572h-2.657v-2.572H42.387z M24.154,19.286V0h-0.309l0.001,19.286
			H23.16v6h-2.486v-6h-3.171v9.428h6.343V48h0.308V28.714h2.435l-0.001-9.428H24.154z"/>
	</g>
</g>
</svg>
