<?xml version="1.0" encoding="utf-8"?>
<!-- Generator: Adobe Illustrator 15.1.0, SVG Export Plug-In . SVG Version: 6.00 Build 0)  -->
<!DOCTYPE svg PUBLIC "-//W3C//DTD SVG 1.1//EN" "http://www.w3.org/Graphics/SVG/1.1/DTD/svg11.dtd">
<svg version="1.1" id="Layer_1" xmlns="http://www.w3.org/2000/svg" xmlns:xlink="http://www.w3.org/1999/xlink" x="0px" y="0px"
	 width="330px" height="127.867px" viewBox="0 0 330 127.867" enable-background="new 0 0 330 127.867" xml:space="preserve">
<g>
	<defs>
		<rect id="SVGID_1_" x="-1" y="-0.5" width="331" height="125.124"/>
	</defs>
	<clipPath id="SVGID_2_">
		<use xlink:href="#SVGID_1_"  overflow="visible"/>
	</clipPath>
	<rect x="2.993" y="-0.056" clip-path="url(#SVGID_2_)" fill="#F9A25E" width="323.014" height="17.748"/>
	<rect x="2.993" y="70.935" clip-path="url(#SVGID_2_)" fill="#F3E3D5" width="323.014" height="17.748"/>
	<rect x="2.993" y="35.439" clip-path="url(#SVGID_2_)" fill="#F3E3D5" width="323.014" height="17.748"/>
	<rect x="2.993" y="106.431" clip-path="url(#SVGID_2_)" fill="#F3E3D5" width="323.014" height="17.748"/>
	<g clip-path="url(#SVGID_2_)">
		<defs>
			<rect id="SVGID_3_" x="-1" y="-0.5" width="331" height="125.124"/>
		</defs>
		<clipPath id="SVGID_4_">
			<use xlink:href="#SVGID_3_"  overflow="visible"/>
		</clipPath>
		<g opacity="0.3" clip-path="url(#SVGID_4_)">
			<g>
				<defs>
					<rect id="SVGID_5_" x="2.55" y="13.477" width="323.9" height="8.43"/>
				</defs>
				<clipPath id="SVGID_6_">
					<use xlink:href="#SVGID_5_"  overflow="visible"/>
				</clipPath>
				<line clip-path="url(#SVGID_6_)" fill="none" stroke="#808285" x1="326.007" y1="17.692" x2="2.993" y2="17.692"/>
			</g>
		</g>
		<g opacity="0.3" clip-path="url(#SVGID_4_)">
			<g>
				<defs>
					<rect id="SVGID_7_" x="2.55" y="31.225" width="323.9" height="8.43"/>
				</defs>
				<clipPath id="SVGID_8_">
					<use xlink:href="#SVGID_7_"  overflow="visible"/>
				</clipPath>
				<line clip-path="url(#SVGID_8_)" fill="none" stroke="#808285" x1="326.007" y1="35.439" x2="2.993" y2="35.439"/>
			</g>
		</g>
		<g opacity="0.3" clip-path="url(#SVGID_4_)">
			<g>
				<defs>
					<rect id="SVGID_9_" x="2.55" y="48.973" width="323.9" height="8.43"/>
				</defs>
				<clipPath id="SVGID_10_">
					<use xlink:href="#SVGID_9_"  overflow="visible"/>
				</clipPath>
				<line clip-path="url(#SVGID_10_)" fill="none" stroke="#808285" x1="326.007" y1="53.188" x2="2.993" y2="53.188"/>
			</g>
		</g>
		<g opacity="0.3" clip-path="url(#SVGID_4_)">
			<g>
				<defs>
					<rect id="SVGID_11_" x="2.55" y="66.72" width="323.9" height="8.431"/>
				</defs>
				<clipPath id="SVGID_12_">
					<use xlink:href="#SVGID_11_"  overflow="visible"/>
				</clipPath>
				<line clip-path="url(#SVGID_12_)" fill="none" stroke="#808285" x1="326.007" y1="70.935" x2="2.993" y2="70.935"/>
			</g>
		</g>
		<g opacity="0.3" clip-path="url(#SVGID_4_)">
			<g>
				<defs>
					<rect id="SVGID_13_" x="2.55" y="84.468" width="323.9" height="8.431"/>
				</defs>
				<clipPath id="SVGID_14_">
					<use xlink:href="#SVGID_13_"  overflow="visible"/>
				</clipPath>
				<line clip-path="url(#SVGID_14_)" fill="none" stroke="#808285" x1="326.007" y1="88.683" x2="2.993" y2="88.683"/>
			</g>
		</g>
		<g opacity="0.3" clip-path="url(#SVGID_4_)">
			<g>
				<defs>
					<rect id="SVGID_15_" x="2.55" y="102.216" width="323.9" height="8.431"/>
				</defs>
				<clipPath id="SVGID_16_">
					<use xlink:href="#SVGID_15_"  overflow="visible"/>
				</clipPath>
				<line clip-path="url(#SVGID_16_)" fill="none" stroke="#808285" x1="326.007" y1="106.431" x2="2.993" y2="106.431"/>
			</g>
		</g>
		<g opacity="0.3" clip-path="url(#SVGID_4_)">
			<g>
				<defs>
					<rect id="SVGID_17_" x="2.55" y="119.964" width="323.9" height="8.43"/>
				</defs>
				<clipPath id="SVGID_18_">
					<use xlink:href="#SVGID_17_"  overflow="visible"/>
				</clipPath>
				<line clip-path="url(#SVGID_18_)" fill="none" stroke="#808285" x1="326.007" y1="124.179" x2="2.993" y2="124.179"/>
			</g>
		</g>
		<g opacity="0.3" clip-path="url(#SVGID_4_)">
			<g>
				<defs>
					<rect id="SVGID_19_" x="188.682" y="-0.5" width="8.431" height="125.124"/>
				</defs>
				<clipPath id="SVGID_20_">
					<use xlink:href="#SVGID_19_"  overflow="visible"/>
				</clipPath>
				<line clip-path="url(#SVGID_20_)" fill="none" stroke="#808285" x1="192.896" y1="-0.056" x2="192.896" y2="124.179"/>
			</g>
		</g>
		<path clip-path="url(#SVGID_4_)" fill="#FFFFFF" d="M89.991,11.673h0.847V9.988c0-0.463,0.016-0.783,0.168-1.006
			c0.175-0.264,0.495-0.415,0.894-0.415c0.703,0,0.807,0.383,0.807,1.206v1.901h0.854V9.429c0-0.447,0-0.783-0.184-1.062
			c-0.215-0.343-0.607-0.519-1.158-0.519c-0.646,0-1.085,0.216-1.429,0.735V7.975h-0.799V11.673z M88.242,9.836
			c0,0.695-0.519,1.23-1.142,1.23c-0.631,0-1.142-0.535-1.142-1.23s0.511-1.23,1.142-1.23S88.242,9.141,88.242,9.836 M85.063,9.828
			c0,0.543,0.208,1.03,0.599,1.414c0.383,0.375,0.895,0.583,1.43,0.583c0.551,0,1.054-0.208,1.454-0.591
			c0.383-0.367,0.591-0.854,0.591-1.405c0-0.535-0.216-1.022-0.6-1.398c-0.391-0.383-0.894-0.583-1.445-0.583
			c-0.535,0-1.046,0.2-1.43,0.575C85.271,8.798,85.063,9.293,85.063,9.828 M83.21,6.378c0,0.287,0.24,0.535,0.535,0.535
			c0.296,0,0.527-0.232,0.527-0.535c0-0.304-0.231-0.527-0.527-0.527C83.45,5.851,83.21,6.09,83.21,6.378 M83.322,11.673h0.847
			V7.975h-0.847V11.673z M81.102,11.673h0.847V8.718h0.647V7.975h-0.647V6.578h-0.847v1.397h-0.647v0.743h0.647V11.673z
			 M80.08,9.029v-0.95c-0.288-0.16-0.607-0.232-0.982-0.232c-1.222,0-2.052,0.799-2.052,1.989c0,1.174,0.806,1.989,1.964,1.989
			c0.407,0,0.759-0.088,1.07-0.264v-0.975c-0.248,0.312-0.567,0.464-0.975,0.464c-0.735,0-1.182-0.464-1.182-1.238
			c0-0.743,0.456-1.222,1.143-1.222C79.473,8.59,79.824,8.75,80.08,9.029 M76.19,11.673V7.975h-0.847v0.607
			c-0.199-0.471-0.639-0.735-1.246-0.735c-0.975,0-1.662,0.783-1.662,1.973c0,1.262,0.655,2.005,1.685,2.005
			c0.519,0,0.919-0.208,1.222-0.631v0.479H76.19z M75.368,9.812c0,0.783-0.447,1.262-1.031,1.262c-0.639,0-1.014-0.439-1.014-1.23
			c0-0.783,0.391-1.246,1.03-1.246C74.984,8.598,75.368,9.038,75.368,9.812 M71.87,9.948v-0.16c0-1.23-0.703-1.941-1.894-1.941
			c-1.15,0-1.94,0.839-1.94,1.989c0,1.206,0.759,1.989,1.94,1.989c0.831,0,1.438-0.359,1.853-1.102l-0.71-0.399
			c-0.272,0.511-0.615,0.727-1.158,0.727c-0.615,0-1.006-0.408-1.046-1.103H71.87z M70.991,9.381h-2.021
			c0.136-0.551,0.471-0.814,1.022-0.814C70.576,8.566,70.927,8.846,70.991,9.381 M64.874,8.398V6.761h0.167
			c0.831,0,1.222,0.152,1.222,0.854c0,0.687-0.408,0.783-1.222,0.783H64.874z M64.817,9.117h0.104l1.901,2.556h1.046l-1.964-2.596
			c0.863-0.104,1.31-0.623,1.31-1.542c0-0.535-0.208-0.982-0.551-1.253c-0.352-0.272-0.807-0.32-1.422-0.32h-1.294v5.71h0.871V9.117
			z M59.555,9.812c0,0.783-0.447,1.262-1.03,1.262c-0.639,0-1.015-0.439-1.015-1.23c0-0.783,0.391-1.246,1.03-1.246
			C59.171,8.598,59.555,9.038,59.555,9.812 M60.377,11.441V7.975h-0.847v0.607c-0.2-0.471-0.639-0.735-1.246-0.735
			c-0.975,0-1.662,0.783-1.662,1.973c0,1.262,0.655,2.005,1.686,2.005c0.519,0,0.918-0.208,1.222-0.631l-0.008,0.487
			c-0.008,0.695-0.248,1.038-1.022,1.038c-0.495,0-0.767-0.176-0.791-0.487h-0.911c0.008,0.695,0.639,1.182,1.686,1.182
			C59.914,13.414,60.377,12.823,60.377,11.441 M53.062,7.975h-0.846v1.829c0,1.39,0.503,2.021,1.797,2.021
			c1.27,0,1.781-0.639,1.781-2.021V7.975h-0.847v2.084c0,0.695-0.255,1.006-0.942,1.006c-0.687,0-0.942-0.312-0.942-1.006V7.975z
			 M50.187,8.566V7.967H49.34v3.706h0.847v-1.621c0-0.999,0.192-1.47,0.791-1.47c0.192,0,0.359,0.04,0.519,0.152L51.8,8.015
			c-0.224-0.112-0.455-0.168-0.695-0.168C50.658,7.847,50.37,8.079,50.187,8.566 M44.468,10.834V6.793h0.671
			c0.687,0,1.214,0.024,1.637,0.375c0.431,0.367,0.646,0.918,0.646,1.646c0,0.727-0.215,1.278-0.646,1.645
			c-0.408,0.343-0.895,0.375-1.526,0.375H44.468z M43.542,11.673h1.501c0.927,0,1.677-0.024,2.34-0.535
			c0.655-0.503,1.006-1.294,1.006-2.316c0-1.022-0.352-1.821-1.006-2.324c-0.695-0.535-1.518-0.535-2.588-0.535h-1.253V11.673z
			 M40.259,9.948v-0.16c0-1.23-0.703-1.941-1.893-1.941c-1.15,0-1.94,0.839-1.94,1.989c0,1.206,0.759,1.989,1.94,1.989
			c0.831,0,1.438-0.359,1.853-1.102l-0.711-0.399c-0.271,0.511-0.615,0.727-1.158,0.727c-0.615,0-1.006-0.408-1.046-1.103H40.259z
			 M39.38,9.381H37.36c0.136-0.551,0.472-0.814,1.022-0.814C38.965,8.566,39.317,8.846,39.38,9.381 M32.912,11.002
			c0.271,0.559,0.743,0.823,1.461,0.823c0.966,0,1.509-0.463,1.509-1.182c0-0.535-0.303-0.838-0.95-1.094
			c-0.575-0.231-0.974-0.288-0.974-0.647c0-0.255,0.208-0.423,0.535-0.423c0.295,0,0.527,0.152,0.615,0.384l0.599-0.416
			c-0.184-0.383-0.599-0.607-1.182-0.607c-0.878,0-1.414,0.471-1.414,1.11c0,0.535,0.359,0.823,1.062,1.118
			c0.511,0.216,0.878,0.248,0.878,0.631c0,0.295-0.224,0.487-0.607,0.487c-0.447,0-0.727-0.199-0.831-0.567L32.912,11.002z
			 M31.282,8.566V7.967h-0.847v3.706h0.847v-1.621c0-0.999,0.192-1.47,0.791-1.47c0.192,0,0.36,0.04,0.52,0.152l0.303-0.719
			c-0.224-0.112-0.455-0.168-0.695-0.168C31.753,7.847,31.466,8.079,31.282,8.566 M29.597,9.948v-0.16
			c0-1.23-0.703-1.941-1.893-1.941c-1.15,0-1.94,0.839-1.94,1.989c0,1.206,0.758,1.989,1.94,1.989c0.831,0,1.438-0.359,1.853-1.102
			l-0.711-0.399c-0.271,0.511-0.615,0.727-1.158,0.727c-0.615,0-1.006-0.408-1.046-1.103H29.597z M28.719,9.381h-2.021
			c0.136-0.551,0.471-0.814,1.022-0.814C28.303,8.566,28.655,8.846,28.719,9.381 M23.607,11.896l1.941-3.921H24.63l-0.807,1.861
			c-0.096,0.224-0.168,0.447-0.216,0.671c-0.087-0.343-0.16-0.567-0.208-0.671l-0.807-1.861h-0.926L23.607,11.896z M20.357,9.812
			c0,0.783-0.439,1.262-1.03,1.262c-0.639,0-1.014-0.439-1.014-1.23c0-0.783,0.392-1.246,1.03-1.246
			C19.974,8.598,20.357,9.038,20.357,9.812 M20.333,5.627v2.955c-0.2-0.471-0.639-0.735-1.246-0.735
			c-0.975,0-1.662,0.783-1.662,1.973c0,1.262,0.655,2.005,1.686,2.005c0.519,0,0.918-0.208,1.222-0.631v0.479h0.847V5.627H20.333z
			 M13.728,9.429l0.583-1.302c0.064-0.152,0.136-0.359,0.208-0.647c0.08,0.288,0.151,0.495,0.215,0.647l0.583,1.302H13.728z
			 M16.292,11.673h0.982l-2.764-5.934l-2.763,5.934h0.974l0.663-1.469h2.26L16.292,11.673z"/>
		<path clip-path="url(#SVGID_4_)" fill="#808285" d="M95.331,28.571c0.248,0.447,0.66,0.667,1.249,0.667
			c0.703,0,1.157-0.418,1.157-1.008c0-0.518-0.305-0.746-0.923-0.944c-0.525-0.17-0.816-0.213-0.816-0.546
			c0-0.277,0.22-0.476,0.54-0.476c0.333,0,0.596,0.164,0.724,0.455l0.44-0.27c-0.17-0.404-0.583-0.631-1.129-0.631
			c-0.675,0-1.122,0.404-1.122,0.958c0,0.625,0.469,0.759,1.25,1.029c0.333,0.113,0.497,0.241,0.497,0.482
			c0,0.277-0.235,0.476-0.597,0.476s-0.632-0.164-0.809-0.504L95.331,28.571z M91.746,29.104h0.54v-1.64
			c0-0.348,0-0.611,0.185-0.838c0.177-0.22,0.454-0.341,0.774-0.341c0.568,0,0.845,0.312,0.845,0.952v1.867h0.54v-2.158
			c0-0.717-0.454-1.128-1.193-1.128c-0.497,0-0.88,0.191-1.15,0.603v-0.49h-0.54V29.104z M88.061,27.528c0-0.675,0.511-1.2,1.15-1.2
			c0.632,0,1.143,0.525,1.143,1.2c0,0.674-0.511,1.2-1.143,1.2C88.579,28.728,88.061,28.202,88.061,27.528 M87.486,27.528
			c0,0.461,0.17,0.873,0.504,1.207c0.327,0.327,0.752,0.504,1.221,0.504c0.461,0,0.887-0.185,1.221-0.511
			c0.326-0.32,0.504-0.738,0.504-1.2c0-0.462-0.178-0.888-0.504-1.207c-0.334-0.327-0.753-0.504-1.221-0.504
			c-0.469,0-0.895,0.17-1.221,0.497C87.656,26.64,87.486,27.066,87.486,27.528 M85.96,24.404c0,0.228,0.177,0.397,0.397,0.397
			s0.397-0.17,0.397-0.39s-0.177-0.405-0.397-0.405S85.96,24.184,85.96,24.404 M86.088,29.104h0.54V25.93h-0.54V29.104z
			 M84.341,26.377v2.726h0.539v-2.726h0.597V25.93H84.88v-1.278h-0.539v1.278h-0.582v0.447H84.341z M83.54,28.351
			c-0.333,0.241-0.639,0.362-0.979,0.362c-0.661,0-1.136-0.511-1.136-1.15c0-0.752,0.482-1.221,1.179-1.221
			c0.312,0,0.61,0.099,0.88,0.277v-0.583c-0.292-0.142-0.632-0.22-0.987-0.22c-0.951,0-1.654,0.695-1.654,1.732
			c0,1.001,0.646,1.689,1.633,1.689c0.412,0,0.774-0.085,1.065-0.255V28.351z M79.741,27.158h-1.931
			c0.057-0.539,0.447-0.873,0.965-0.873C79.351,26.285,79.706,26.598,79.741,27.158 M80.324,27.599v-0.106
			c0-1.051-0.596-1.683-1.527-1.683c-0.923,0-1.583,0.696-1.583,1.697c0,1.037,0.653,1.732,1.618,1.732
			c0.653,0,1.15-0.291,1.47-0.866l-0.412-0.277c-0.262,0.461-0.603,0.688-1.029,0.688c-0.611,0-1.051-0.447-1.051-1.136v-0.05
			H80.324z M75.617,29.104h0.54v-2.726h0.845V25.93h-0.845v-0.845c0-0.61,0.014-0.902,0.419-0.902c0.142,0,0.284,0.036,0.426,0.114
			v-0.561c-0.149-0.05-0.305-0.071-0.468-0.071c-0.76,0-0.916,0.397-0.916,1.349v0.916h-0.61v0.447h0.61V29.104z M71.556,29.104
			h0.54v-1.64c0-0.348,0-0.611,0.185-0.838c0.177-0.22,0.454-0.341,0.774-0.341c0.567,0,0.844,0.312,0.844,0.952v1.867h0.54v-2.158
			c0-0.717-0.455-1.128-1.193-1.128c-0.497,0-0.88,0.191-1.15,0.603v-0.49h-0.54V29.104z M69.774,24.404
			c0,0.228,0.178,0.397,0.398,0.397s0.397-0.17,0.397-0.39s-0.177-0.405-0.397-0.405S69.774,24.184,69.774,24.404 M69.902,29.104
			h0.54V25.93h-0.54V29.104z M66.161,29.104h0.54v-5.374h-0.54V29.104z M64.557,27.549c0,0.731-0.398,1.15-1.037,1.15
			c-0.674,0-1.058-0.433-1.058-1.2c0-0.724,0.383-1.143,1.037-1.143C64.109,26.356,64.557,26.811,64.557,27.549 M65.082,25.93h-0.54
			v0.597c-0.242-0.469-0.632-0.71-1.165-0.71c-0.887,0-1.49,0.646-1.49,1.711c0,1.036,0.61,1.71,1.519,1.71
			c0.49,0,0.894-0.248,1.15-0.71v0.575h0.525V25.93z M59.679,29.104h0.54v-1.547c0-0.831,0.284-1.243,0.859-1.243
			c0.099,0,0.213,0.021,0.333,0.064l0.185-0.49c-0.121-0.042-0.241-0.064-0.369-0.064c-0.482,0-0.781,0.227-1.065,0.767V25.93
			h-0.483V29.104z M57.89,24.404c0,0.228,0.178,0.397,0.398,0.397s0.397-0.17,0.397-0.39s-0.177-0.405-0.397-0.405
			S57.89,24.184,57.89,24.404 M58.018,29.104h0.54V25.93h-0.54V29.104z M55.881,29.302l1.562-3.372h-0.611l-0.958,2.215
			l-0.951-2.215h-0.61L55.881,29.302z M51.182,27.535c0,0.752-0.412,1.178-1.065,1.178c-0.631,0-1.029-0.454-1.029-1.249
			c0-0.703,0.391-1.108,1.022-1.108C50.749,26.356,51.182,26.818,51.182,27.535 M51.707,23.729h-0.54v2.797
			c-0.241-0.469-0.632-0.71-1.157-0.71c-0.887,0-1.498,0.646-1.498,1.711c0,1.036,0.611,1.71,1.52,1.71
			c0.49,0,0.901-0.255,1.15-0.71v0.575h0.525V23.729z M44.835,29.104h0.54v-1.64c0-0.348,0-0.611,0.185-0.838
			c0.178-0.22,0.455-0.341,0.774-0.341c0.568,0,0.845,0.312,0.845,0.952v1.867h0.54v-2.158c0-0.717-0.454-1.128-1.193-1.128
			c-0.497,0-0.88,0.191-1.15,0.603v-0.49h-0.54V29.104z M43.259,27.549c0,0.731-0.397,1.15-1.036,1.15
			c-0.674,0-1.058-0.433-1.058-1.2c0-0.724,0.384-1.143,1.037-1.143C42.812,26.356,43.259,26.811,43.259,27.549 M43.785,25.93
			h-0.539v0.597c-0.242-0.469-0.632-0.71-1.165-0.71c-0.887,0-1.491,0.646-1.491,1.711c0,1.036,0.61,1.71,1.519,1.71
			c0.49,0,0.895-0.248,1.15-0.71v0.575h0.525V25.93z M37.119,29.104h0.54v-5.374h-0.54V29.104z M35.514,27.549
			c0,0.731-0.397,1.15-1.036,1.15c-0.675,0-1.058-0.433-1.058-1.2c0-0.724,0.383-1.143,1.037-1.143
			C35.067,26.356,35.514,26.811,35.514,27.549 M36.04,25.93H35.5v0.597c-0.241-0.469-0.632-0.71-1.164-0.71
			c-0.888,0-1.491,0.646-1.491,1.711c0,1.036,0.611,1.71,1.52,1.71c0.49,0,0.895-0.248,1.15-0.71v0.575h0.525V25.93z M31.305,24.404
			c0,0.228,0.177,0.397,0.397,0.397s0.397-0.17,0.397-0.39s-0.177-0.405-0.397-0.405S31.305,24.184,31.305,24.404 M31.432,29.104
			h0.54V25.93h-0.54V29.104z M28.955,29.104h0.54v-1.547c0-0.831,0.284-1.243,0.859-1.243c0.1,0,0.213,0.021,0.334,0.064l0.185-0.49
			c-0.121-0.042-0.242-0.064-0.369-0.064c-0.483,0-0.781,0.227-1.065,0.767V25.93h-0.483V29.104z M27.584,27.158h-1.931
			c0.057-0.539,0.447-0.873,0.966-0.873C27.194,26.285,27.549,26.598,27.584,27.158 M28.167,27.599v-0.106
			c0-1.051-0.596-1.683-1.526-1.683c-0.923,0-1.583,0.696-1.583,1.697c0,1.037,0.653,1.732,1.619,1.732
			c0.653,0,1.15-0.291,1.47-0.866l-0.412-0.277c-0.263,0.461-0.604,0.688-1.029,0.688c-0.61,0-1.051-0.447-1.051-1.136v-0.05H28.167
			z M23.616,26.377v2.726h0.54v-2.726h0.597V25.93h-0.597v-1.278h-0.54v1.278h-0.582v0.447H23.616z M22.814,28.351
			c-0.333,0.241-0.639,0.362-0.979,0.362c-0.66,0-1.136-0.511-1.136-1.15c0-0.752,0.483-1.221,1.178-1.221
			c0.312,0,0.611,0.099,0.88,0.277v-0.583c-0.291-0.142-0.632-0.22-0.987-0.22c-0.951,0-1.654,0.695-1.654,1.732
			c0,1.001,0.646,1.689,1.633,1.689c0.412,0,0.774-0.085,1.064-0.255V28.351z M18.803,27.549c0,0.731-0.397,1.15-1.037,1.15
			c-0.674,0-1.058-0.433-1.058-1.2c0-0.724,0.383-1.143,1.037-1.143C18.356,26.356,18.803,26.811,18.803,27.549 M19.329,25.93h-0.54
			v0.597c-0.241-0.469-0.632-0.71-1.164-0.71c-0.888,0-1.491,0.646-1.491,1.711c0,1.036,0.611,1.71,1.52,1.71
			c0.49,0,0.895-0.248,1.15-0.71v0.575h0.525V25.93z M12.478,29.104h1.058c0.724,0,1.221-0.021,1.59-0.383
			c0.255-0.255,0.419-0.639,0.419-1.058c0-0.682-0.376-1.157-0.973-1.25c0.482-0.142,0.752-0.511,0.752-1.051
			c0-0.454-0.192-0.845-0.511-1.079s-0.724-0.255-1.278-0.255h-1.058V29.104z M13.081,26.726h0.632c0.312,0,0.561,0.007,0.773,0.135
			c0.277,0.156,0.419,0.433,0.419,0.802c0,0.319-0.128,0.596-0.333,0.745c-0.22,0.156-0.554,0.17-1.037,0.17h-0.455V26.726z
			 M13.081,24.553h0.455c0.802,0,1.171,0.149,1.171,0.88c0,0.617-0.355,0.816-1.171,0.816h-0.461L13.081,24.553z"/>
		<path clip-path="url(#SVGID_4_)" fill="#808285" d="M54.276,60.493l-0.194,0.551h-0.529l0.19-0.551H54.276z M54.173,59.293h-0.294
			l-0.339,0.952h-0.695l-0.087,0.248h0.691l-0.195,0.551h-0.645l-0.087,0.248h0.646l-0.335,0.943h0.29l0.339-0.943h0.534
			l-0.339,0.943h0.293l0.336-0.943h0.67l0.086-0.248h-0.666l0.19-0.551h0.629l0.086-0.248h-0.621l0.331-0.952h-0.289l-0.34,0.952
			h-0.525L54.173,59.293z M49.677,64.068c0.249,0.446,0.66,0.666,1.25,0.666c0.703,0,1.157-0.418,1.157-1.007
			c0-0.519-0.305-0.746-0.923-0.944c-0.525-0.17-0.817-0.213-0.817-0.546c0-0.277,0.22-0.476,0.54-0.476
			c0.333,0,0.596,0.164,0.724,0.455l0.44-0.27c-0.17-0.404-0.582-0.632-1.129-0.632c-0.674,0-1.122,0.405-1.122,0.958
			c0,0.625,0.469,0.76,1.25,1.029c0.334,0.114,0.497,0.242,0.497,0.483c0,0.277-0.234,0.476-0.596,0.476
			c-0.362,0-0.632-0.164-0.81-0.504L49.677,64.068z M48.648,62.654h-1.931c0.057-0.54,0.447-0.873,0.965-0.873
			C48.257,61.781,48.612,62.094,48.648,62.654 M49.23,63.095v-0.106c0-1.051-0.597-1.683-1.526-1.683
			c-0.923,0-1.583,0.696-1.583,1.697c0,1.036,0.653,1.731,1.619,1.731c0.653,0,1.149-0.291,1.469-0.866l-0.412-0.276
			c-0.263,0.46-0.604,0.689-1.03,0.689c-0.61,0-1.05-0.448-1.05-1.137v-0.049H49.23z M44.616,59.9c0,0.227,0.177,0.397,0.397,0.397
			s0.397-0.17,0.397-0.39c0-0.22-0.177-0.405-0.397-0.405S44.616,59.68,44.616,59.9 M44.743,64.599h0.54v-3.173h-0.54V64.599z
			 M43.998,63.847c-0.334,0.241-0.639,0.361-0.98,0.361c-0.66,0-1.136-0.51-1.136-1.149c0-0.752,0.482-1.221,1.179-1.221
			c0.312,0,0.61,0.1,0.88,0.277v-0.582c-0.291-0.142-0.632-0.22-0.987-0.22c-0.951,0-1.654,0.696-1.654,1.732
			c0,1.001,0.646,1.689,1.633,1.689c0.412,0,0.773-0.084,1.065-0.255V63.847z M37.644,64.599h0.54v-1.64c0-0.348,0-0.61,0.185-0.837
			c0.177-0.22,0.454-0.341,0.774-0.341c0.568,0,0.845,0.312,0.845,0.951v1.867h0.54v-2.158c0-0.717-0.455-1.129-1.193-1.129
			c-0.497,0-0.88,0.192-1.15,0.604v-0.49h-0.54V64.599z M36.068,63.045c0,0.731-0.397,1.15-1.036,1.15
			c-0.675,0-1.058-0.433-1.058-1.2c0-0.724,0.383-1.143,1.037-1.143C35.621,61.852,36.068,62.307,36.068,63.045 M36.593,61.426
			h-0.54v0.596c-0.241-0.468-0.632-0.71-1.164-0.71c-0.887,0-1.491,0.646-1.491,1.711c0,1.037,0.611,1.71,1.52,1.71
			c0.49,0,0.895-0.248,1.15-0.709v0.574h0.525V61.426z M29.721,64.599h0.54v-1.64c0-0.348,0-0.61,0.185-0.837
			c0.178-0.22,0.455-0.341,0.774-0.341c0.568,0,0.845,0.312,0.845,0.951v1.867h0.54v-2.158c0-0.717-0.454-1.129-1.193-1.129
			c-0.497,0-0.88,0.192-1.15,0.604v-0.49h-0.54V64.599z M28.131,63.023c0,0.731-0.397,1.158-1.036,1.158
			c-0.675,0-1.058-0.434-1.058-1.2c0-0.724,0.383-1.143,1.036-1.143C27.684,61.838,28.131,62.285,28.131,63.023 M28.671,61.426
			h-0.554v0.589c-0.234-0.461-0.639-0.703-1.164-0.703c-0.887,0-1.491,0.632-1.491,1.69c0,1.029,0.61,1.696,1.519,1.696
			c0.49,0,0.902-0.248,1.15-0.703v0.533c0,0.291-0.014,0.525-0.135,0.725c-0.163,0.276-0.476,0.418-0.909,0.418
			c-0.61,0-0.944-0.276-0.944-0.745v-0.043h-0.61c0.021,0.796,0.575,1.265,1.548,1.265c0.561,0,0.987-0.164,1.278-0.477
			c0.298-0.319,0.312-0.674,0.312-1.129V61.426z M23.922,59.9c0,0.227,0.177,0.397,0.397,0.397s0.397-0.17,0.397-0.39
			c0-0.22-0.177-0.405-0.397-0.405S23.922,59.68,23.922,59.9 M24.049,64.599h0.54v-3.173h-0.54V64.599z M22.367,64.599h0.539v-5.374
			h-0.539V64.599z M20.763,63.045c0,0.731-0.398,1.15-1.037,1.15c-0.674,0-1.058-0.433-1.058-1.2c0-0.724,0.383-1.143,1.037-1.143
			C20.315,61.852,20.763,62.307,20.763,63.045 M21.288,61.426h-0.54v0.596c-0.241-0.468-0.632-0.71-1.165-0.71
			c-0.887,0-1.491,0.646-1.491,1.711c0,1.037,0.611,1.71,1.519,1.71c0.49,0,0.895-0.248,1.15-0.709v0.574h0.525V61.426z
			 M14.842,64.798l1.569-3.649l0.646,3.45h0.589l-1.029-5.274l-1.775,4.196l-1.775-4.196l-1.029,5.274h0.589l0.639-3.45
			L14.842,64.798z"/>
		<path clip-path="url(#SVGID_4_)" fill="#808285" d="M182.912,48.215l0.369,0.191c0.547-1.015,0.823-2.158,0.823-3.429
			c0-1.313-0.255-2.442-0.823-3.443l-0.369,0.17c0.512,1.008,0.731,2.059,0.731,3.273C183.644,46.227,183.424,47.278,182.912,48.215
			 M182.472,46.099c-0.333,0.241-0.639,0.362-0.979,0.362c-0.66,0-1.136-0.511-1.136-1.15c0-0.752,0.482-1.221,1.179-1.221
			c0.312,0,0.61,0.1,0.88,0.277v-0.583c-0.291-0.142-0.632-0.22-0.986-0.22c-0.951,0-1.654,0.695-1.654,1.732
			c0,1.001,0.646,1.689,1.633,1.689c0.412,0,0.773-0.085,1.064-0.255V46.099z M178.255,42.152c0,0.228,0.178,0.397,0.397,0.397
			c0.221,0,0.397-0.17,0.397-0.39s-0.177-0.405-0.397-0.405C178.433,41.754,178.255,41.932,178.255,42.152 M178.383,46.852h0.54
			v-3.173h-0.54V46.852z M176.637,44.125v2.726h0.539v-2.726h0.597v-0.447h-0.597V42.4h-0.539v1.278h-0.582v0.447H176.637z
			 M173.363,46.319c0.249,0.447,0.661,0.667,1.25,0.667c0.703,0,1.157-0.418,1.157-1.008c0-0.519-0.306-0.746-0.923-0.944
			c-0.525-0.17-0.816-0.213-0.816-0.546c0-0.277,0.22-0.476,0.539-0.476c0.334,0,0.597,0.164,0.725,0.455l0.44-0.27
			c-0.171-0.404-0.583-0.631-1.129-0.631c-0.675,0-1.122,0.404-1.122,0.958c0,0.625,0.469,0.76,1.25,1.029
			c0.333,0.114,0.496,0.242,0.496,0.483c0,0.277-0.233,0.476-0.596,0.476s-0.632-0.163-0.81-0.504L173.363,46.319z M171.915,42.152
			c0,0.228,0.178,0.397,0.398,0.397c0.22,0,0.397-0.17,0.397-0.39s-0.178-0.405-0.397-0.405
			C172.093,41.754,171.915,41.932,171.915,42.152 M172.043,46.852h0.54v-3.173h-0.54V46.852z M168.097,46.852h0.539v-1.64
			c0-0.348,0-0.611,0.185-0.838c0.178-0.22,0.454-0.341,0.774-0.341c0.567,0,0.845,0.312,0.845,0.952v1.867h0.539v-2.158
			c0-0.717-0.454-1.128-1.192-1.128c-0.497,0-0.881,0.191-1.15,0.603v-0.49h-0.539V46.852z M164.746,43.678h-0.54v1.896
			c0,0.93,0.504,1.413,1.427,1.413c0.952,0,1.449-0.497,1.449-1.455v-1.853h-0.54v1.562c0,0.837-0.198,1.228-0.895,1.228
			c-0.696,0-0.902-0.391-0.902-1.228V43.678z M162.531,44.125v2.726h0.54v-2.726h0.597v-0.447h-0.597V42.4h-0.54v1.278h-0.582v0.447
			H162.531z M159.996,46.852h0.54v-1.547c0-0.831,0.284-1.243,0.859-1.243c0.099,0,0.213,0.021,0.333,0.064l0.185-0.49
			c-0.12-0.042-0.241-0.064-0.369-0.064c-0.482,0-0.781,0.227-1.065,0.767v-0.66h-0.483V46.852z M156.305,45.275
			c0-0.674,0.511-1.2,1.15-1.2c0.632,0,1.143,0.525,1.143,1.2c0,0.675-0.511,1.2-1.143,1.2S156.305,45.95,156.305,45.275
			 M155.73,45.275c0,0.462,0.17,0.874,0.504,1.207c0.327,0.327,0.752,0.504,1.221,0.504c0.461,0,0.887-0.185,1.221-0.511
			c0.327-0.32,0.504-0.738,0.504-1.2c0-0.461-0.177-0.887-0.504-1.207c-0.333-0.327-0.752-0.504-1.221-0.504
			c-0.469,0-0.895,0.17-1.221,0.497C155.9,44.388,155.73,44.814,155.73,45.275 M152.485,45.275c0-0.752,0.412-1.186,1.065-1.186
			c0.632,0,1.029,0.455,1.029,1.25c0,0.703-0.391,1.115-1.022,1.115C152.919,46.454,152.485,45.993,152.485,45.275 M151.96,48.399
			h0.539v-2.123c0.242,0.469,0.632,0.71,1.157,0.71c0.887,0,1.498-0.639,1.498-1.711c0-1.043-0.611-1.71-1.52-1.71
			c-0.489,0-0.909,0.248-1.157,0.71v-0.597h-0.518V48.399z M148.46,45.275c0-0.752,0.412-1.186,1.065-1.186
			c0.632,0,1.03,0.455,1.03,1.25c0,0.703-0.391,1.115-1.022,1.115C148.894,46.454,148.46,45.993,148.46,45.275 M147.935,48.399h0.54
			v-2.123c0.241,0.469,0.631,0.71,1.157,0.71c0.887,0,1.498-0.639,1.498-1.711c0-1.043-0.611-1.71-1.52-1.71
			c-0.49,0-0.909,0.248-1.157,0.71v-0.597h-0.518V48.399z M144.251,45.275c0-0.674,0.511-1.2,1.15-1.2
			c0.632,0,1.143,0.525,1.143,1.2c0,0.675-0.511,1.2-1.143,1.2S144.251,45.95,144.251,45.275 M143.676,45.275
			c0,0.462,0.17,0.874,0.504,1.207c0.327,0.327,0.752,0.504,1.221,0.504c0.461,0,0.888-0.185,1.221-0.511
			c0.327-0.32,0.504-0.738,0.504-1.2c0-0.461-0.177-0.887-0.504-1.207c-0.333-0.327-0.753-0.504-1.221-0.504
			s-0.894,0.17-1.221,0.497C143.846,44.388,143.676,44.814,143.676,45.275 M139.892,46.511c0,0.227,0.178,0.405,0.412,0.405
			c0.234,0,0.419-0.178,0.419-0.405s-0.185-0.412-0.419-0.412C140.077,46.099,139.892,46.284,139.892,46.511 M138.16,46.852h0.54
			v-5.374h-0.54V46.852z M137.415,46.099c-0.334,0.241-0.639,0.362-0.98,0.362c-0.66,0-1.136-0.511-1.136-1.15
			c0-0.752,0.483-1.221,1.178-1.221c0.312,0,0.611,0.1,0.88,0.277v-0.583c-0.291-0.142-0.631-0.22-0.987-0.22
			c-0.951,0-1.654,0.695-1.654,1.732c0,1.001,0.646,1.689,1.632,1.689c0.412,0,0.774-0.085,1.065-0.255V46.099z M131.061,46.852
			h0.54v-1.64c0-0.348,0-0.611,0.185-0.838c0.177-0.22,0.455-0.341,0.774-0.341c0.568,0,0.845,0.312,0.845,0.952v1.867h0.54v-2.158
			c0-0.717-0.454-1.128-1.192-1.128c-0.497,0-0.88,0.191-1.15,0.603v-0.49h-0.54V46.852z M129.279,42.152
			c0,0.228,0.177,0.397,0.397,0.397c0.22,0,0.397-0.17,0.397-0.39s-0.178-0.405-0.397-0.405
			C129.456,41.754,129.279,41.932,129.279,42.152 M129.407,46.852h0.539v-3.173h-0.539V46.852z M128.583,48.215
			c-0.511-0.937-0.731-1.988-0.731-3.237c0-1.214,0.22-2.265,0.731-3.273l-0.369-0.17c-0.568,1.001-0.823,2.13-0.823,3.443
			c0,1.271,0.277,2.414,0.823,3.429L128.583,48.215z M122.123,46.319c0.249,0.447,0.66,0.667,1.25,0.667
			c0.703,0,1.157-0.418,1.157-1.008c0-0.519-0.306-0.746-0.923-0.944c-0.525-0.17-0.816-0.213-0.816-0.546
			c0-0.277,0.22-0.476,0.54-0.476c0.333,0,0.596,0.164,0.724,0.455l0.44-0.27c-0.17-0.404-0.582-0.631-1.128-0.631
			c-0.674,0-1.122,0.404-1.122,0.958c0,0.625,0.469,0.76,1.25,1.029c0.334,0.114,0.497,0.242,0.497,0.483
			c0,0.277-0.234,0.476-0.596,0.476c-0.362,0-0.632-0.163-0.809-0.504L122.123,46.319z M118.538,46.852h0.54v-1.64
			c0-0.348,0-0.611,0.185-0.838c0.178-0.22,0.455-0.341,0.774-0.341c0.568,0,0.845,0.312,0.845,0.952v1.867h0.54v-2.158
			c0-0.717-0.455-1.128-1.193-1.128c-0.497,0-0.88,0.191-1.15,0.603v-0.49h-0.54V46.852z M114.854,45.275
			c0-0.674,0.511-1.2,1.15-1.2c0.631,0,1.143,0.525,1.143,1.2c0,0.675-0.512,1.2-1.143,1.2
			C115.372,46.476,114.854,45.95,114.854,45.275 M114.278,45.275c0,0.462,0.171,0.874,0.504,1.207
			c0.326,0.327,0.752,0.504,1.221,0.504c0.461,0,0.887-0.185,1.221-0.511c0.326-0.32,0.504-0.738,0.504-1.2
			c0-0.461-0.178-0.887-0.504-1.207c-0.333-0.327-0.752-0.504-1.221-0.504c-0.469,0-0.895,0.17-1.221,0.497
			C114.449,44.388,114.278,44.814,114.278,45.275 M112.752,42.152c0,0.228,0.177,0.397,0.397,0.397c0.22,0,0.398-0.17,0.398-0.39
			s-0.178-0.405-0.398-0.405C112.93,41.754,112.752,41.932,112.752,42.152 M112.88,46.852h0.54v-3.173h-0.54V46.852z
			 M111.133,44.125v2.726h0.54v-2.726h0.596v-0.447h-0.596V42.4h-0.54v1.278h-0.582v0.447H111.133z M110.332,46.099
			c-0.334,0.241-0.639,0.362-0.98,0.362c-0.66,0-1.136-0.511-1.136-1.15c0-0.752,0.483-1.221,1.178-1.221
			c0.312,0,0.611,0.1,0.88,0.277v-0.583c-0.291-0.142-0.631-0.22-0.986-0.22c-0.952,0-1.654,0.695-1.654,1.732
			c0,1.001,0.646,1.689,1.632,1.689c0.412,0,0.774-0.085,1.065-0.255V46.099z M106.534,44.906h-1.932
			c0.057-0.539,0.447-0.873,0.966-0.873C106.143,44.033,106.498,44.346,106.534,44.906 M107.115,45.347V45.24
			c0-1.051-0.596-1.683-1.526-1.683c-0.922,0-1.583,0.696-1.583,1.697c0,1.037,0.653,1.732,1.619,1.732
			c0.653,0,1.15-0.291,1.47-0.866l-0.412-0.276c-0.263,0.461-0.604,0.688-1.03,0.688c-0.61,0-1.051-0.447-1.051-1.136v-0.05H107.115
			z M102.409,46.852h0.54v-2.726h0.845v-0.447h-0.845v-0.845c0-0.61,0.014-0.902,0.418-0.902c0.142,0,0.284,0.036,0.426,0.114
			v-0.561c-0.149-0.05-0.305-0.071-0.469-0.071c-0.759,0-0.916,0.397-0.916,1.349v0.916h-0.61v0.447h0.61V46.852z M98.349,46.852
			h0.539v-1.64c0-0.348,0-0.611,0.185-0.838c0.178-0.22,0.455-0.341,0.774-0.341c0.568,0,0.845,0.312,0.845,0.952v1.867h0.54v-2.158
			c0-0.717-0.455-1.128-1.193-1.128c-0.497,0-0.88,0.191-1.15,0.603v-0.49h-0.539V46.852z M96.566,42.152
			c0,0.228,0.178,0.397,0.397,0.397c0.22,0,0.397-0.17,0.397-0.39s-0.177-0.405-0.397-0.405
			C96.744,41.754,96.566,41.932,96.566,42.152 M96.694,46.852h0.54v-3.173h-0.54V46.852z M92.953,46.852h0.54v-5.374h-0.54V46.852z
			 M91.349,45.297c0,0.731-0.397,1.15-1.037,1.15c-0.674,0-1.058-0.433-1.058-1.2c0-0.724,0.383-1.143,1.037-1.143
			C90.901,44.104,91.349,44.559,91.349,45.297 M91.874,43.678h-0.54v0.597c-0.241-0.469-0.631-0.71-1.164-0.71
			c-0.887,0-1.491,0.646-1.491,1.71c0,1.037,0.611,1.711,1.52,1.711c0.489,0,0.894-0.249,1.15-0.71v0.575h0.525V43.678z
			 M87.331,45.275c0,0.731-0.398,1.157-1.037,1.157c-0.675,0-1.058-0.433-1.058-1.2c0-0.724,0.383-1.143,1.037-1.143
			C86.883,44.09,87.331,44.537,87.331,45.275 M87.87,43.678h-0.554v0.589c-0.235-0.461-0.639-0.703-1.165-0.703
			c-0.887,0-1.491,0.631-1.491,1.689c0,1.029,0.61,1.697,1.52,1.697c0.489,0,0.901-0.249,1.15-0.703v0.533
			c0,0.291-0.014,0.525-0.135,0.724c-0.164,0.277-0.476,0.419-0.909,0.419c-0.61,0-0.944-0.277-0.944-0.746v-0.042h-0.61
			c0.021,0.795,0.575,1.264,1.548,1.264c0.561,0,0.986-0.164,1.278-0.476c0.298-0.32,0.312-0.674,0.312-1.129V43.678z
			 M80.984,46.852h0.54v-1.64c0-0.348,0-0.611,0.185-0.838c0.177-0.22,0.454-0.341,0.774-0.341c0.567,0,0.844,0.312,0.844,0.952
			v1.867h0.54v-2.158c0-0.717-0.454-1.128-1.192-1.128c-0.497,0-0.88,0.191-1.15,0.603v-0.49h-0.54V46.852z M77.633,43.678h-0.54
			v1.896c0,0.93,0.504,1.413,1.427,1.413c0.952,0,1.449-0.497,1.449-1.455v-1.853h-0.54v1.562c0,0.837-0.198,1.228-0.894,1.228
			c-0.696,0-0.902-0.391-0.902-1.228V43.678z M75.262,46.852h0.54v-2.726h0.845v-0.447h-0.845v-0.845
			c0-0.61,0.014-0.902,0.419-0.902c0.142,0,0.284,0.036,0.426,0.114v-0.561c-0.149-0.05-0.305-0.071-0.468-0.071
			c-0.76,0-0.916,0.397-0.916,1.349v0.916h-0.61v0.447h0.61V46.852z M70.868,47.86l0.398,0.156l0.852-1.839l-0.589-0.206
			L70.868,47.86z M67.815,46.319c0.249,0.447,0.661,0.667,1.25,0.667c0.703,0,1.157-0.418,1.157-1.008
			c0-0.519-0.305-0.746-0.923-0.944c-0.525-0.17-0.816-0.213-0.816-0.546c0-0.277,0.22-0.476,0.54-0.476
			c0.333,0,0.596,0.164,0.724,0.455l0.44-0.27c-0.17-0.404-0.582-0.631-1.129-0.631c-0.674,0-1.121,0.404-1.121,0.958
			c0,0.625,0.468,0.76,1.249,1.029c0.333,0.114,0.497,0.242,0.497,0.483c0,0.277-0.234,0.476-0.596,0.476s-0.632-0.163-0.81-0.504
			L67.815,46.319z M66.367,42.152c0,0.228,0.177,0.397,0.397,0.397c0.22,0,0.398-0.17,0.398-0.39s-0.178-0.405-0.398-0.405
			C66.544,41.754,66.367,41.932,66.367,42.152 M66.495,46.852h0.54v-3.173h-0.54V46.852z M63.279,46.319
			c0.249,0.447,0.66,0.667,1.249,0.667c0.703,0,1.158-0.418,1.158-1.008c0-0.519-0.305-0.746-0.923-0.944
			c-0.525-0.17-0.816-0.213-0.816-0.546c0-0.277,0.22-0.476,0.539-0.476c0.334,0,0.597,0.164,0.724,0.455l0.44-0.27
			c-0.17-0.404-0.582-0.631-1.129-0.631c-0.674,0-1.122,0.404-1.122,0.958c0,0.625,0.469,0.76,1.25,1.029
			c0.333,0.114,0.497,0.242,0.497,0.483c0,0.277-0.234,0.476-0.596,0.476c-0.362,0-0.632-0.163-0.81-0.504L63.279,46.319z
			 M59.928,45.275c0-0.674,0.511-1.2,1.15-1.2c0.632,0,1.143,0.525,1.143,1.2c0,0.675-0.511,1.2-1.143,1.2
			S59.928,45.95,59.928,45.275 M59.353,45.275c0,0.462,0.17,0.874,0.504,1.207c0.326,0.327,0.752,0.504,1.221,0.504
			c0.461,0,0.887-0.185,1.221-0.511c0.327-0.32,0.504-0.738,0.504-1.2c0-0.461-0.177-0.887-0.504-1.207
			c-0.334-0.327-0.753-0.504-1.221-0.504c-0.469,0-0.895,0.17-1.221,0.497C59.523,44.388,59.353,44.814,59.353,45.275
			 M57.955,46.852h0.539v-5.374h-0.539V46.852z M54.576,43.678h-0.54v1.896c0,0.93,0.504,1.413,1.427,1.413
			c0.952,0,1.448-0.497,1.448-1.455v-1.853h-0.54v1.562c0,0.837-0.198,1.228-0.895,1.228c-0.696,0-0.901-0.391-0.901-1.228V43.678z
			 M53.362,46.099c-0.334,0.241-0.639,0.362-0.98,0.362c-0.66,0-1.136-0.511-1.136-1.15c0-0.752,0.483-1.221,1.179-1.221
			c0.312,0,0.61,0.1,0.88,0.277v-0.583c-0.291-0.142-0.632-0.22-0.987-0.22c-0.951,0-1.654,0.695-1.654,1.732
			c0,1.001,0.646,1.689,1.633,1.689c0.412,0,0.773-0.085,1.065-0.255V46.099z M48.478,46.852h0.54v-1.547
			c0-0.831,0.284-1.243,0.859-1.243c0.1,0,0.213,0.021,0.333,0.064l0.185-0.49c-0.121-0.042-0.241-0.064-0.369-0.064
			c-0.482,0-0.781,0.227-1.065,0.767v-0.66h-0.482V46.852z M47.107,44.906h-1.931c0.057-0.539,0.447-0.873,0.965-0.873
			C46.717,44.033,47.072,44.346,47.107,44.906 M47.689,45.347V45.24c0-1.051-0.596-1.683-1.526-1.683
			c-0.923,0-1.583,0.696-1.583,1.697c0,1.037,0.653,1.732,1.619,1.732c0.653,0,1.15-0.291,1.469-0.866l-0.412-0.276
			c-0.263,0.461-0.604,0.688-1.029,0.688c-0.611,0-1.051-0.447-1.051-1.136v-0.05H47.689z M41.35,45.283
			c0-0.717,0.44-1.179,1.079-1.179c0.632,0,1.022,0.405,1.022,1.108c0,0.795-0.405,1.249-1.037,1.249
			C41.762,46.461,41.35,46.035,41.35,45.283 M40.832,41.478v5.374h0.518v-0.575c0.249,0.455,0.667,0.71,1.157,0.71
			c0.909,0,1.52-0.674,1.52-1.711c0-1.064-0.611-1.71-1.498-1.71c-0.525,0-0.916,0.241-1.157,0.71v-2.797H40.832z M37.481,43.678
			h-0.54v1.896c0,0.93,0.504,1.413,1.427,1.413c0.951,0,1.448-0.497,1.448-1.455v-1.853h-0.54v1.562
			c0,0.837-0.199,1.228-0.895,1.228s-0.901-0.391-0.901-1.228V43.678z M35.266,44.125v2.726h0.54v-2.726h0.596v-0.447h-0.596V42.4
			h-0.54v1.278h-0.582v0.447H35.266z M30.928,47.86l0.397,0.156l0.852-1.839l-0.589-0.206L30.928,47.86z M27.875,46.319
			c0.249,0.447,0.66,0.667,1.25,0.667c0.703,0,1.157-0.418,1.157-1.008c0-0.519-0.305-0.746-0.923-0.944
			c-0.525-0.17-0.816-0.213-0.816-0.546c0-0.277,0.22-0.476,0.54-0.476c0.333,0,0.596,0.164,0.724,0.455l0.44-0.27
			c-0.17-0.404-0.582-0.631-1.129-0.631c-0.674,0-1.122,0.404-1.122,0.958c0,0.625,0.469,0.76,1.25,1.029
			c0.333,0.114,0.497,0.242,0.497,0.483c0,0.277-0.234,0.476-0.596,0.476c-0.362,0-0.632-0.163-0.81-0.504L27.875,46.319z
			 M26.428,42.152c0,0.228,0.177,0.397,0.397,0.397s0.397-0.17,0.397-0.39s-0.177-0.405-0.397-0.405S26.428,41.932,26.428,42.152
			 M26.556,46.852h0.54v-3.173h-0.54V46.852z M23.339,46.319c0.249,0.447,0.661,0.667,1.25,0.667c0.703,0,1.157-0.418,1.157-1.008
			c0-0.519-0.305-0.746-0.923-0.944c-0.525-0.17-0.816-0.213-0.816-0.546c0-0.277,0.22-0.476,0.54-0.476
			c0.334,0,0.596,0.164,0.724,0.455l0.44-0.27c-0.17-0.404-0.582-0.631-1.129-0.631c-0.674,0-1.122,0.404-1.122,0.958
			c0,0.625,0.468,0.76,1.249,1.029c0.334,0.114,0.497,0.242,0.497,0.483c0,0.277-0.234,0.476-0.596,0.476s-0.632-0.163-0.809-0.504
			L23.339,46.319z M20.173,45.275c0-0.752,0.412-1.186,1.065-1.186c0.632,0,1.029,0.455,1.029,1.25c0,0.703-0.391,1.115-1.022,1.115
			C20.606,46.454,20.173,45.993,20.173,45.275 M19.648,48.399h0.54v-2.123c0.241,0.469,0.632,0.71,1.157,0.71
			c0.887,0,1.498-0.639,1.498-1.711c0-1.043-0.611-1.71-1.52-1.71c-0.49,0-0.908,0.248-1.157,0.71v-0.597h-0.519V48.399z
			 M18.285,44.906h-1.931c0.057-0.539,0.447-0.873,0.965-0.873C17.895,44.033,18.25,44.346,18.285,44.906 M18.867,45.347V45.24
			c0-1.051-0.596-1.683-1.526-1.683c-0.923,0-1.583,0.696-1.583,1.697c0,1.037,0.653,1.732,1.619,1.732
			c0.653,0,1.15-0.291,1.469-0.866l-0.412-0.276c-0.263,0.461-0.604,0.688-1.029,0.688c-0.611,0-1.051-0.447-1.051-1.136v-0.05
			H18.867z M14.324,44.033L13.6,43.714c-0.461-0.206-0.682-0.455-0.682-0.816c0-0.433,0.319-0.738,0.774-0.738
			c0.362,0,0.639,0.199,0.859,0.582l0.497-0.319c-0.249-0.504-0.703-0.767-1.313-0.767c-0.845,0-1.427,0.54-1.427,1.25
			c0,0.617,0.326,1.058,1.001,1.341l0.618,0.263c0.525,0.228,0.788,0.561,0.788,1.015c0,0.554-0.404,0.944-1.015,0.944
			c-0.511,0-0.859-0.319-1.008-0.937l-0.547,0.27c0.192,0.752,0.752,1.179,1.555,1.179c0.98,0,1.626-0.625,1.626-1.555
			C15.325,44.786,14.984,44.324,14.324,44.033"/>
		<path clip-path="url(#SVGID_4_)" fill="#808285" d="M143.797,99.563c0.249,0.448,0.66,0.667,1.25,0.667
			c0.703,0,1.157-0.418,1.157-1.008c0-0.518-0.305-0.745-0.923-0.943c-0.525-0.171-0.816-0.214-0.816-0.547
			c0-0.277,0.22-0.477,0.539-0.477c0.334,0,0.597,0.164,0.725,0.455l0.44-0.27c-0.17-0.404-0.582-0.633-1.129-0.633
			c-0.674,0-1.121,0.405-1.121,0.959c0,0.625,0.468,0.76,1.249,1.029c0.333,0.113,0.497,0.241,0.497,0.482
			c0,0.277-0.234,0.477-0.596,0.477c-0.362,0-0.632-0.164-0.81-0.504L143.797,99.563z M141.682,100.095h0.54v-1.547
			c0-0.831,0.284-1.242,0.858-1.242c0.1,0,0.213,0.021,0.334,0.063l0.185-0.49c-0.121-0.042-0.242-0.063-0.369-0.063
			c-0.483,0-0.781,0.227-1.065,0.767v-0.66h-0.482V100.095z M140.312,98.15h-1.931c0.057-0.539,0.447-0.873,0.965-0.873
			C139.92,97.277,140.276,97.589,140.312,98.15 M140.894,98.591v-0.107c0-1.051-0.596-1.682-1.526-1.682
			c-0.923,0-1.583,0.695-1.583,1.696c0,1.036,0.653,1.731,1.618,1.731c0.653,0,1.15-0.291,1.47-0.865l-0.412-0.277
			c-0.263,0.462-0.604,0.689-1.029,0.689c-0.611,0-1.051-0.447-1.051-1.137v-0.049H140.894z M136.463,98.527
			c0,0.752-0.412,1.178-1.065,1.178c-0.631,0-1.029-0.453-1.029-1.248c0-0.703,0.391-1.108,1.022-1.108
			C136.03,97.348,136.463,97.81,136.463,98.527 M136.989,94.721h-0.54v2.798c-0.241-0.469-0.631-0.711-1.157-0.711
			c-0.887,0-1.498,0.646-1.498,1.711c0,1.037,0.611,1.711,1.52,1.711c0.49,0,0.901-0.255,1.15-0.709v0.574h0.525V94.721z
			 M131.586,100.095h0.54v-1.547c0-0.831,0.284-1.242,0.859-1.242c0.1,0,0.213,0.021,0.333,0.063l0.185-0.49
			c-0.121-0.042-0.241-0.063-0.369-0.063c-0.482,0-0.781,0.227-1.064,0.767v-0.66h-0.483V100.095z M127.895,98.519
			c0-0.674,0.512-1.199,1.15-1.199c0.632,0,1.143,0.525,1.143,1.199c0,0.676-0.511,1.2-1.143,1.2S127.895,99.195,127.895,98.519
			 M127.32,98.519c0,0.462,0.17,0.873,0.504,1.207c0.327,0.327,0.752,0.504,1.221,0.504c0.461,0,0.887-0.184,1.221-0.511
			c0.327-0.319,0.504-0.738,0.504-1.2c0-0.461-0.178-0.887-0.504-1.206c-0.333-0.327-0.752-0.505-1.221-0.505
			s-0.895,0.171-1.221,0.498C127.49,97.632,127.32,98.058,127.32,98.519 M124.388,99.563c0.249,0.448,0.66,0.667,1.25,0.667
			c0.703,0,1.157-0.418,1.157-1.008c0-0.518-0.305-0.745-0.922-0.943c-0.525-0.171-0.817-0.214-0.817-0.547
			c0-0.277,0.22-0.477,0.54-0.477c0.333,0,0.596,0.164,0.724,0.455l0.44-0.27c-0.171-0.404-0.583-0.633-1.129-0.633
			c-0.675,0-1.122,0.405-1.122,0.959c0,0.625,0.469,0.76,1.25,1.029c0.333,0.113,0.497,0.241,0.497,0.482
			c0,0.277-0.234,0.477-0.596,0.477c-0.362,0-0.632-0.164-0.81-0.504L124.388,99.563z M122.94,95.396
			c0,0.228,0.177,0.397,0.397,0.397c0.22,0,0.397-0.17,0.397-0.39c0-0.221-0.178-0.405-0.397-0.405
			C123.117,94.999,122.94,95.175,122.94,95.396 M123.067,100.095h0.54v-3.173h-0.54V100.095z M121.442,98.527
			c0,0.752-0.412,1.178-1.065,1.178c-0.632,0-1.029-0.453-1.029-1.248c0-0.703,0.39-1.108,1.022-1.108
			C121.009,97.348,121.442,97.81,121.442,98.527 M121.967,94.721h-0.54v2.798c-0.241-0.469-0.632-0.711-1.157-0.711
			c-0.888,0-1.498,0.646-1.498,1.711c0,1.037,0.61,1.711,1.519,1.711c0.49,0,0.901-0.255,1.15-0.709v0.574h0.525V94.721z
			 M115.386,100.095h0.54v-2.158c0-0.717-0.426-1.129-1.129-1.129c-0.483,0-0.852,0.207-1.129,0.646
			c-0.185-0.426-0.554-0.646-1.065-0.646c-0.476,0-0.837,0.199-1.093,0.604v-0.489h-0.54v3.173h0.54v-1.639
			c0-0.079-0.007-0.157-0.007-0.229c0-0.241,0.029-0.439,0.164-0.61c0.17-0.22,0.433-0.341,0.724-0.341
			c0.54,0,0.788,0.312,0.788,0.951v1.867h0.54v-1.639c0-0.072-0.007-0.136-0.007-0.199c0-0.263,0.036-0.462,0.17-0.64
			c0.17-0.22,0.426-0.341,0.717-0.341c0.54,0,0.788,0.312,0.788,0.951V100.095z M109.608,98.15h-1.931
			c0.057-0.539,0.447-0.873,0.966-0.873C109.217,97.277,109.572,97.589,109.608,98.15 M110.189,98.591v-0.107
			c0-1.051-0.596-1.682-1.526-1.682c-0.923,0-1.583,0.695-1.583,1.696c0,1.036,0.653,1.731,1.619,1.731
			c0.653,0,1.15-0.291,1.469-0.865l-0.412-0.277c-0.263,0.462-0.604,0.689-1.029,0.689c-0.611,0-1.051-0.447-1.051-1.137v-0.049
			H110.189z M105.639,97.37v2.726h0.54V97.37h0.597v-0.447h-0.597v-1.278h-0.54v1.278h-0.582v0.447H105.639z M102.366,99.563
			c0.249,0.448,0.661,0.667,1.25,0.667c0.703,0,1.157-0.418,1.157-1.008c0-0.518-0.305-0.745-0.923-0.943
			c-0.525-0.171-0.816-0.214-0.816-0.547c0-0.277,0.22-0.477,0.54-0.477c0.333,0,0.597,0.164,0.725,0.455l0.439-0.27
			c-0.17-0.404-0.582-0.633-1.128-0.633c-0.674,0-1.122,0.405-1.122,0.959c0,0.625,0.468,0.76,1.249,1.029
			c0.334,0.113,0.497,0.241,0.497,0.482c0,0.277-0.234,0.477-0.596,0.477c-0.362,0-0.632-0.164-0.809-0.504L102.366,99.563z
			 M99.484,101.643h0.61l2.129-4.721h-0.596l-0.979,2.278l-0.923-2.278h-0.625l1.242,2.86L99.484,101.643z M96.425,99.563
			c0.248,0.448,0.66,0.667,1.249,0.667c0.703,0,1.157-0.418,1.157-1.008c0-0.518-0.305-0.745-0.923-0.943
			c-0.525-0.171-0.816-0.214-0.816-0.547c0-0.277,0.22-0.477,0.54-0.477c0.333,0,0.596,0.164,0.724,0.455l0.44-0.27
			c-0.17-0.404-0.582-0.633-1.128-0.633c-0.675,0-1.122,0.405-1.122,0.959c0,0.625,0.469,0.76,1.25,1.029
			c0.333,0.113,0.497,0.241,0.497,0.482c0,0.277-0.234,0.477-0.597,0.477c-0.362,0-0.631-0.164-0.809-0.504L96.425,99.563z
			 M93.983,99.343c-0.333,0.241-0.639,0.361-0.979,0.361c-0.661,0-1.136-0.51-1.136-1.149c0-0.753,0.482-1.222,1.179-1.222
			c0.312,0,0.61,0.1,0.88,0.277v-0.582c-0.292-0.143-0.632-0.221-0.987-0.221c-0.951,0-1.654,0.696-1.654,1.732
			c0,1.001,0.646,1.689,1.633,1.689c0.412,0,0.774-0.084,1.065-0.255V99.343z M89.766,95.396c0,0.228,0.177,0.397,0.397,0.397
			c0.22,0,0.397-0.17,0.397-0.39c0-0.221-0.178-0.405-0.397-0.405C89.943,94.999,89.766,95.175,89.766,95.396 M89.894,100.095h0.54
			v-3.173h-0.54V100.095z M88.147,97.37v2.726h0.539V97.37h0.596v-0.447h-0.596v-1.278h-0.539v1.278h-0.582v0.447H88.147z
			 M86.486,98.541c0,0.731-0.397,1.15-1.036,1.15c-0.674,0-1.058-0.434-1.058-1.199c0-0.725,0.384-1.144,1.037-1.144
			C86.039,97.348,86.486,97.802,86.486,98.541 M87.012,96.922h-0.54v0.597c-0.241-0.469-0.632-0.711-1.164-0.711
			c-0.888,0-1.491,0.646-1.491,1.711c0,1.037,0.61,1.711,1.519,1.711c0.49,0,0.895-0.248,1.15-0.709v0.574h0.526V96.922z
			 M80.14,100.095h0.539v-1.639c0-0.349,0-0.611,0.185-0.839c0.178-0.22,0.455-0.341,0.774-0.341c0.568,0,0.845,0.312,0.845,0.951
			v1.867h0.54v-2.158c0-0.717-0.455-1.129-1.193-1.129c-0.497,0-0.88,0.192-1.157,0.604v-2.69H80.14V100.095z M76.64,98.519
			c0-0.752,0.412-1.186,1.064-1.186c0.631,0,1.03,0.455,1.03,1.25c0,0.703-0.391,1.115-1.023,1.115
			C77.073,99.699,76.64,99.237,76.64,98.519 M76.114,101.643h0.539v-2.122c0.242,0.469,0.633,0.709,1.158,0.709
			c0.887,0,1.498-0.639,1.498-1.711c0-1.043-0.61-1.711-1.519-1.711c-0.49,0-0.909,0.249-1.157,0.711v-0.597h-0.519V101.643z
			 M74.545,100.095h0.54v-2.158c0-0.717-0.426-1.129-1.129-1.129c-0.482,0-0.852,0.207-1.128,0.646
			c-0.185-0.426-0.554-0.646-1.065-0.646c-0.476,0-0.838,0.199-1.093,0.604v-0.489h-0.54v3.173h0.54v-1.639
			c0-0.079-0.007-0.157-0.007-0.229c0-0.241,0.029-0.439,0.164-0.61c0.17-0.22,0.433-0.341,0.724-0.341
			c0.54,0,0.788,0.312,0.788,0.951v1.867h0.54v-1.639c0-0.072-0.007-0.136-0.007-0.199c0-0.263,0.035-0.462,0.17-0.64
			c0.17-0.22,0.426-0.341,0.717-0.341c0.54,0,0.788,0.312,0.788,0.951V100.095z M66.914,101.643h0.611l2.129-4.721h-0.597
			l-0.979,2.278l-0.922-2.278h-0.625l1.242,2.86L66.914,101.643z M65.388,100.095h0.54v-5.374h-0.54V100.095z M61.703,98.527
			c0,0.752-0.412,1.178-1.065,1.178c-0.632,0-1.029-0.453-1.029-1.248c0-0.703,0.39-1.108,1.022-1.108
			C61.27,97.348,61.703,97.81,61.703,98.527 M62.229,94.721h-0.54v2.798c-0.241-0.469-0.632-0.711-1.157-0.711
			c-0.887,0-1.498,0.646-1.498,1.711c0,1.037,0.611,1.711,1.519,1.711c0.49,0,0.902-0.255,1.15-0.709v0.574h0.525V94.721z
			 M55.356,100.095h0.54v-1.639c0-0.349,0-0.611,0.185-0.839c0.177-0.22,0.454-0.341,0.773-0.341c0.568,0,0.845,0.312,0.845,0.951
			v1.867h0.54v-2.158c0-0.717-0.454-1.129-1.192-1.129c-0.497,0-0.88,0.192-1.15,0.604v-0.489h-0.54V100.095z M53.781,98.541
			c0,0.731-0.397,1.15-1.036,1.15c-0.675,0-1.058-0.434-1.058-1.199c0-0.725,0.383-1.144,1.037-1.144
			C53.333,97.348,53.781,97.802,53.781,98.541 M54.306,96.922h-0.54v0.597c-0.241-0.469-0.632-0.711-1.164-0.711
			c-0.887,0-1.491,0.646-1.491,1.711c0,1.037,0.61,1.711,1.519,1.711c0.49,0,0.895-0.248,1.15-0.709v0.574h0.525V96.922z
			 M47.697,98.527c0,0.752-0.412,1.178-1.065,1.178c-0.631,0-1.029-0.453-1.029-1.248c0-0.703,0.391-1.108,1.022-1.108
			C47.264,97.348,47.697,97.81,47.697,98.527 M48.222,94.721h-0.54v2.798c-0.241-0.469-0.632-0.711-1.157-0.711
			c-0.887,0-1.498,0.646-1.498,1.711c0,1.037,0.611,1.711,1.52,1.711c0.49,0,0.901-0.255,1.15-0.709v0.574h0.525V94.721z
			 M41.584,98.519c0-0.674,0.511-1.199,1.15-1.199c0.632,0,1.143,0.525,1.143,1.199c0,0.676-0.511,1.2-1.143,1.2
			C42.103,99.719,41.584,99.195,41.584,98.519 M41.01,98.519c0,0.462,0.17,0.873,0.504,1.207c0.326,0.327,0.752,0.504,1.221,0.504
			c0.461,0,0.888-0.184,1.221-0.511c0.327-0.319,0.504-0.738,0.504-1.2c0-0.461-0.178-0.887-0.504-1.206
			c-0.333-0.327-0.752-0.505-1.221-0.505c-0.468,0-0.895,0.171-1.221,0.498C41.18,97.632,41.01,98.058,41.01,98.519 M37.581,98.519
			c0-0.674,0.511-1.199,1.15-1.199c0.632,0,1.143,0.525,1.143,1.199c0,0.676-0.511,1.2-1.143,1.2S37.581,99.195,37.581,98.519
			 M37.005,98.519c0,0.462,0.17,0.873,0.504,1.207c0.326,0.327,0.752,0.504,1.221,0.504c0.461,0,0.888-0.184,1.221-0.511
			c0.327-0.319,0.504-0.738,0.504-1.2c0-0.461-0.178-0.887-0.504-1.206c-0.333-0.327-0.752-0.505-1.221-0.505
			c-0.468,0-0.895,0.171-1.221,0.498C37.176,97.632,37.005,98.058,37.005,98.519 M35.607,100.095h0.54v-5.374h-0.54V100.095z
			 M32.072,98.527c0-0.717,0.44-1.179,1.079-1.179c0.632,0,1.022,0.405,1.022,1.108c0,0.795-0.405,1.248-1.037,1.248
			C32.484,99.705,32.072,99.279,32.072,98.527 M31.554,94.721v5.374h0.519v-0.574c0.249,0.454,0.667,0.709,1.157,0.709
			c0.909,0,1.52-0.674,1.52-1.711c0-1.064-0.611-1.711-1.498-1.711c-0.525,0-0.916,0.242-1.157,0.711v-2.798H31.554z
			 M27.904,100.095h0.54v-1.547c0-0.831,0.284-1.242,0.859-1.242c0.1,0,0.213,0.021,0.334,0.063l0.185-0.49
			c-0.121-0.042-0.242-0.063-0.369-0.063c-0.483,0-0.781,0.227-1.065,0.767v-0.66h-0.483V100.095z M26.534,98.15h-1.931
			c0.057-0.539,0.447-0.873,0.965-0.873C26.144,97.277,26.499,97.589,26.534,98.15 M27.116,98.591v-0.107
			c0-1.051-0.596-1.682-1.526-1.682c-0.923,0-1.583,0.695-1.583,1.696c0,1.036,0.653,1.731,1.619,1.731
			c0.653,0,1.15-0.291,1.47-0.865l-0.412-0.277c-0.263,0.462-0.604,0.689-1.03,0.689c-0.61,0-1.05-0.447-1.05-1.137v-0.049H27.116z
			 M20.365,100.095h0.54v-1.639c0-0.349,0-0.611,0.185-0.839c0.177-0.22,0.454-0.341,0.773-0.341c0.568,0,0.845,0.312,0.845,0.951
			v1.867h0.539v-2.158c0-0.717-0.454-1.129-1.192-1.129c-0.497,0-0.88,0.192-1.157,0.604v-2.69h-0.533V100.095z M18.647,97.37v2.726
			h0.54V97.37h0.596v-0.447h-0.596v-1.278h-0.54v1.278h-0.582v0.447H18.647z M14.956,99.663c-0.561,0-1.065-0.214-1.47-0.618
			c-0.397-0.404-0.61-0.908-0.61-1.477c0-0.567,0.213-1.086,0.61-1.49c0.391-0.398,0.909-0.611,1.47-0.611
			c0.561,0,1.072,0.213,1.469,0.611c0.398,0.396,0.611,0.923,0.611,1.49c0,0.568-0.213,1.08-0.611,1.477
			C16.021,99.449,15.509,99.663,14.956,99.663 M17.667,97.568c0-0.725-0.27-1.384-0.788-1.889c-0.511-0.496-1.207-0.773-1.924-0.773
			s-1.406,0.277-1.917,0.773c-0.518,0.505-0.795,1.164-0.795,1.889s0.277,1.377,0.795,1.881c0.511,0.498,1.2,0.781,1.917,0.781
			c0.71,0,1.405-0.276,1.924-0.781C17.391,98.953,17.667,98.292,17.667,97.568"/>
		<path clip-path="url(#SVGID_4_)" fill="#808285" d="M86.67,117.311c0.249,0.447,0.661,0.667,1.25,0.667
			c0.703,0,1.157-0.418,1.157-1.008c0-0.518-0.305-0.745-0.923-0.943c-0.525-0.171-0.816-0.214-0.816-0.547
			c0-0.277,0.22-0.477,0.54-0.477c0.333,0,0.597,0.164,0.724,0.455l0.44-0.27c-0.17-0.405-0.582-0.633-1.129-0.633
			c-0.674,0-1.121,0.404-1.121,0.959c0,0.625,0.468,0.76,1.249,1.029c0.334,0.113,0.497,0.241,0.497,0.482
			c0,0.277-0.234,0.477-0.596,0.477c-0.362,0-0.632-0.164-0.81-0.504L86.67,117.311z M84.555,117.843h0.54v-1.547
			c0-0.831,0.284-1.243,0.859-1.243c0.1,0,0.213,0.022,0.333,0.064l0.185-0.49c-0.121-0.042-0.241-0.063-0.369-0.063
			c-0.483,0-0.781,0.227-1.064,0.766v-0.659h-0.483V117.843z M83.185,115.898h-1.931c0.057-0.539,0.447-0.873,0.965-0.873
			C82.794,115.025,83.149,115.337,83.185,115.898 M83.767,116.338v-0.106c0-1.051-0.596-1.683-1.526-1.683
			c-0.923,0-1.583,0.696-1.583,1.696c0,1.037,0.653,1.732,1.618,1.732c0.654,0,1.15-0.291,1.47-0.865l-0.412-0.277
			c-0.263,0.461-0.604,0.688-1.029,0.688c-0.61,0-1.051-0.446-1.051-1.136v-0.05H83.767z M79.337,116.275
			c0,0.752-0.412,1.178-1.064,1.178c-0.632,0-1.03-0.453-1.03-1.248c0-0.703,0.391-1.108,1.023-1.108
			C78.904,115.096,79.337,115.558,79.337,116.275 M79.862,112.47h-0.539v2.797c-0.242-0.469-0.632-0.711-1.158-0.711
			c-0.887,0-1.498,0.646-1.498,1.711c0,1.037,0.61,1.711,1.519,1.711c0.49,0,0.902-0.255,1.15-0.709v0.574h0.525V112.47z
			 M74.46,117.843H75v-1.547c0-0.831,0.284-1.243,0.859-1.243c0.1,0,0.213,0.022,0.333,0.064l0.185-0.49
			c-0.12-0.042-0.241-0.063-0.369-0.063c-0.482,0-0.781,0.227-1.064,0.766v-0.659H74.46V117.843z M70.769,116.267
			c0-0.674,0.511-1.199,1.15-1.199c0.632,0,1.143,0.525,1.143,1.199c0,0.676-0.511,1.2-1.143,1.2S70.769,116.943,70.769,116.267
			 M70.193,116.267c0,0.462,0.17,0.873,0.504,1.207c0.327,0.326,0.753,0.504,1.221,0.504c0.461,0,0.887-0.184,1.221-0.511
			c0.327-0.319,0.504-0.738,0.504-1.2c0-0.461-0.178-0.887-0.504-1.206c-0.334-0.327-0.752-0.505-1.221-0.505
			c-0.468,0-0.895,0.171-1.221,0.497C70.364,115.38,70.193,115.806,70.193,116.267 M67.261,117.311
			c0.249,0.447,0.661,0.667,1.25,0.667c0.703,0,1.157-0.418,1.157-1.008c0-0.518-0.305-0.745-0.923-0.943
			c-0.525-0.171-0.816-0.214-0.816-0.547c0-0.277,0.22-0.477,0.54-0.477c0.334,0,0.596,0.164,0.724,0.455l0.44-0.27
			c-0.171-0.405-0.583-0.633-1.129-0.633c-0.674,0-1.122,0.404-1.122,0.959c0,0.625,0.468,0.76,1.249,1.029
			c0.333,0.113,0.497,0.241,0.497,0.482c0,0.277-0.234,0.477-0.596,0.477s-0.632-0.164-0.81-0.504L67.261,117.311z M65.813,113.144
			c0,0.227,0.178,0.397,0.397,0.397c0.22,0,0.398-0.171,0.398-0.391s-0.178-0.404-0.398-0.404
			C65.991,112.747,65.813,112.923,65.813,113.144 M65.941,117.843h0.54v-3.173h-0.54V117.843z M64.315,116.275
			c0,0.752-0.412,1.178-1.065,1.178c-0.631,0-1.029-0.453-1.029-1.248c0-0.703,0.39-1.108,1.022-1.108
			C63.882,115.096,64.315,115.558,64.315,116.275 M64.84,112.47h-0.54v2.797c-0.241-0.469-0.631-0.711-1.157-0.711
			c-0.887,0-1.498,0.646-1.498,1.711c0,1.037,0.611,1.711,1.52,1.711c0.489,0,0.901-0.255,1.15-0.709v0.574h0.525V112.47z
			 M58.26,117.843h0.54v-2.158c0-0.717-0.426-1.129-1.129-1.129c-0.483,0-0.852,0.207-1.129,0.646
			c-0.184-0.426-0.553-0.646-1.065-0.646c-0.476,0-0.837,0.199-1.093,0.604v-0.489h-0.54v3.173h0.54v-1.639
			c0-0.079-0.007-0.157-0.007-0.229c0-0.241,0.028-0.439,0.163-0.61c0.17-0.22,0.433-0.341,0.724-0.341
			c0.54,0,0.788,0.312,0.788,0.951v1.867h0.54v-1.639c0-0.072-0.007-0.136-0.007-0.199c0-0.264,0.035-0.462,0.17-0.64
			c0.17-0.22,0.426-0.341,0.717-0.341c0.54,0,0.788,0.312,0.788,0.951V117.843z M52.481,115.898H50.55
			c0.057-0.539,0.447-0.873,0.965-0.873C52.091,115.025,52.446,115.337,52.481,115.898 M53.063,116.338v-0.106
			c0-1.051-0.596-1.683-1.526-1.683c-0.923,0-1.583,0.696-1.583,1.696c0,1.037,0.653,1.732,1.619,1.732
			c0.653,0,1.15-0.291,1.469-0.865l-0.412-0.277c-0.263,0.461-0.603,0.688-1.029,0.688c-0.611,0-1.051-0.446-1.051-1.136v-0.05
			H53.063z M48.513,115.118v2.726h0.54v-2.726h0.596v-0.447h-0.596v-1.278h-0.54v1.278h-0.582v0.447H48.513z M45.24,117.311
			c0.249,0.447,0.66,0.667,1.25,0.667c0.703,0,1.157-0.418,1.157-1.008c0-0.518-0.305-0.745-0.923-0.943
			c-0.525-0.171-0.816-0.214-0.816-0.547c0-0.277,0.22-0.477,0.54-0.477c0.333,0,0.596,0.164,0.724,0.455l0.44-0.27
			c-0.17-0.405-0.582-0.633-1.129-0.633c-0.674,0-1.122,0.404-1.122,0.959c0,0.625,0.469,0.76,1.25,1.029
			c0.333,0.113,0.497,0.241,0.497,0.482c0,0.277-0.234,0.477-0.597,0.477c-0.362,0-0.632-0.164-0.809-0.504L45.24,117.311z
			 M42.358,119.391h0.611l2.129-4.721h-0.596l-0.98,2.278l-0.923-2.278h-0.625l1.242,2.86L42.358,119.391z M39.298,117.311
			c0.248,0.447,0.66,0.667,1.25,0.667c0.703,0,1.157-0.418,1.157-1.008c0-0.518-0.305-0.745-0.923-0.943
			c-0.525-0.171-0.816-0.214-0.816-0.547c0-0.277,0.22-0.477,0.54-0.477c0.334,0,0.597,0.164,0.724,0.455l0.44-0.27
			c-0.17-0.405-0.583-0.633-1.129-0.633c-0.674,0-1.122,0.404-1.122,0.959c0,0.625,0.468,0.76,1.25,1.029
			c0.333,0.113,0.497,0.241,0.497,0.482c0,0.277-0.234,0.477-0.596,0.477c-0.362,0-0.632-0.164-0.81-0.504L39.298,117.311z
			 M36.21,115.898h-1.931c0.057-0.539,0.447-0.873,0.965-0.873C35.819,115.025,36.175,115.337,36.21,115.898 M36.792,116.338v-0.106
			c0-1.051-0.596-1.683-1.526-1.683c-0.923,0-1.583,0.696-1.583,1.696c0,1.037,0.653,1.732,1.619,1.732
			c0.653,0,1.15-0.291,1.47-0.865l-0.412-0.277c-0.263,0.461-0.604,0.688-1.03,0.688c-0.61,0-1.05-0.446-1.05-1.136v-0.05H36.792z
			 M30.041,117.843h0.539v-1.639c0-0.349,0-0.611,0.185-0.839c0.178-0.22,0.455-0.341,0.774-0.341c0.568,0,0.846,0.312,0.846,0.951
			v1.867h0.539v-2.158c0-0.717-0.454-1.129-1.192-1.129c-0.498,0-0.881,0.192-1.151,0.604v-0.489h-0.539V117.843z M26.69,114.67
			h-0.54v1.896c0,0.93,0.504,1.412,1.427,1.412c0.951,0,1.448-0.496,1.448-1.455v-1.853h-0.54v1.562
			c0,0.838-0.199,1.229-0.895,1.229c-0.695,0-0.901-0.391-0.901-1.229V114.67z M24.625,117.843h0.54v-2.158
			c0-0.717-0.426-1.129-1.129-1.129c-0.482,0-0.852,0.207-1.129,0.646c-0.185-0.426-0.554-0.646-1.064-0.646
			c-0.476,0-0.838,0.199-1.093,0.604v-0.489h-0.54v3.173h0.54v-1.639c0-0.079-0.007-0.157-0.007-0.229
			c0-0.241,0.028-0.439,0.164-0.61c0.17-0.22,0.433-0.341,0.724-0.341c0.539,0,0.788,0.312,0.788,0.951v1.867h0.54v-1.639
			c0-0.072-0.007-0.136-0.007-0.199c0-0.264,0.036-0.462,0.17-0.64c0.17-0.22,0.426-0.341,0.717-0.341
			c0.54,0,0.788,0.312,0.788,0.951V117.843z M18.64,117.843h0.54v-2.158c0-0.717-0.426-1.129-1.129-1.129
			c-0.483,0-0.852,0.207-1.129,0.646c-0.185-0.426-0.554-0.646-1.065-0.646c-0.476,0-0.837,0.199-1.093,0.604v-0.489h-0.54v3.173
			h0.54v-1.639c0-0.079-0.007-0.157-0.007-0.229c0-0.241,0.028-0.439,0.163-0.61c0.17-0.22,0.433-0.341,0.724-0.341
			c0.54,0,0.788,0.312,0.788,0.951v1.867h0.54v-1.639c0-0.072-0.007-0.136-0.007-0.199c0-0.264,0.036-0.462,0.17-0.64
			c0.17-0.22,0.426-0.341,0.717-0.341c0.54,0,0.788,0.312,0.788,0.951V117.843z M12.485,117.843h0.604v-5.076h-0.604V117.843z"/>
		<path clip-path="url(#SVGID_4_)" fill="#808285" d="M119.12,80.792c0,0.731-0.397,1.15-1.037,1.15
			c-0.674,0-1.058-0.434-1.058-1.199c0-0.725,0.383-1.144,1.037-1.144C118.673,79.6,119.12,80.054,119.12,80.792 M119.646,79.174
			h-0.54v0.597c-0.241-0.469-0.632-0.71-1.164-0.71c-0.887,0-1.491,0.646-1.491,1.71c0,1.037,0.611,1.711,1.52,1.711
			c0.49,0,0.895-0.248,1.15-0.709v0.575h0.525V79.174z M114.911,77.648c0,0.228,0.177,0.397,0.397,0.397
			c0.22,0,0.398-0.17,0.398-0.39c0-0.221-0.178-0.405-0.398-0.405C115.088,77.25,114.911,77.427,114.911,77.648 M115.038,82.348
			h0.54v-3.174h-0.54V82.348z M111.091,82.348h0.54v-1.641c0-0.348,0-0.61,0.185-0.837c0.178-0.221,0.455-0.342,0.774-0.342
			c0.568,0,0.845,0.312,0.845,0.951v1.868h0.54v-2.159c0-0.717-0.455-1.128-1.193-1.128c-0.497,0-0.88,0.191-1.15,0.603v-0.489
			h-0.54V82.348z M109.728,80.402h-1.931c0.057-0.539,0.447-0.873,0.965-0.873C109.337,79.529,109.692,79.841,109.728,80.402
			 M110.31,80.843v-0.107c0-1.051-0.596-1.682-1.526-1.682c-0.923,0-1.583,0.695-1.583,1.696c0,1.036,0.653,1.731,1.619,1.731
			c0.653,0,1.15-0.291,1.47-0.865l-0.412-0.277c-0.263,0.462-0.604,0.689-1.029,0.689c-0.61,0-1.051-0.447-1.051-1.137v-0.049
			H110.31z M105.901,80.792c0,0.731-0.397,1.15-1.037,1.15c-0.674,0-1.058-0.434-1.058-1.199c0-0.725,0.383-1.144,1.037-1.144
			C105.454,79.6,105.901,80.054,105.901,80.792 M106.427,79.174h-0.54v0.597c-0.241-0.469-0.632-0.71-1.164-0.71
			c-0.887,0-1.491,0.646-1.491,1.71c0,1.037,0.61,1.711,1.519,1.711c0.49,0,0.895-0.248,1.15-0.709v0.575h0.525V79.174z
			 M99.974,80.771c0-0.752,0.412-1.186,1.065-1.186c0.632,0,1.029,0.455,1.029,1.25c0,0.703-0.39,1.115-1.022,1.115
			C100.407,81.951,99.974,81.489,99.974,80.771 M99.448,83.895h0.54v-2.122c0.242,0.469,0.632,0.709,1.157,0.709
			c0.887,0,1.498-0.639,1.498-1.711c0-1.043-0.611-1.71-1.52-1.71c-0.49,0-0.908,0.248-1.157,0.71v-0.597h-0.518V83.895z
			 M95.764,80.771c0-0.674,0.511-1.199,1.15-1.199c0.632,0,1.143,0.525,1.143,1.199c0,0.675-0.511,1.2-1.143,1.2
			S95.764,81.446,95.764,80.771 M95.189,80.771c0,0.462,0.17,0.874,0.504,1.207c0.327,0.327,0.752,0.504,1.221,0.504
			c0.461,0,0.888-0.184,1.221-0.511c0.327-0.319,0.504-0.738,0.504-1.2c0-0.461-0.178-0.887-0.504-1.206
			c-0.333-0.327-0.752-0.504-1.221-0.504c-0.468,0-0.894,0.17-1.221,0.497C95.359,79.884,95.189,80.31,95.189,80.771 M91.988,82.348
			h0.539l0.007-1.677l1.633,1.677h0.76l-1.726-1.719l1.583-1.455h-0.724l-1.526,1.441l-0.007-3.643h-0.539V82.348z M88.629,79.174
			h-0.54v1.896c0,0.93,0.504,1.412,1.427,1.412c0.951,0,1.448-0.496,1.448-1.455v-1.853h-0.539v1.562
			c0,0.838-0.199,1.229-0.895,1.229s-0.902-0.391-0.902-1.229V79.174z M86.77,80.402h-1.931c0.057-0.539,0.447-0.873,0.966-0.873
			C86.379,79.529,86.734,79.841,86.77,80.402 M87.352,80.843v-0.107c0-1.051-0.596-1.682-1.526-1.682
			c-0.922,0-1.583,0.695-1.583,1.696c0,1.036,0.653,1.731,1.619,1.731c0.653,0,1.15-0.291,1.47-0.865l-0.412-0.277
			c-0.263,0.462-0.604,0.689-1.03,0.689c-0.61,0-1.051-0.447-1.051-1.137v-0.049H87.352z M82.865,82.348h0.54v-5.375h-0.54V82.348z
			 M78.584,83.356l0.397,0.155l0.852-1.838l-0.589-0.206L78.584,83.356z M75.532,81.815c0.248,0.447,0.66,0.667,1.249,0.667
			c0.703,0,1.158-0.418,1.158-1.008c0-0.518-0.306-0.745-0.923-0.943c-0.525-0.171-0.816-0.213-0.816-0.547
			c0-0.277,0.22-0.476,0.539-0.476c0.334,0,0.596,0.163,0.724,0.454l0.44-0.27c-0.17-0.404-0.583-0.632-1.129-0.632
			c-0.675,0-1.122,0.405-1.122,0.958c0,0.625,0.468,0.76,1.25,1.029c0.333,0.113,0.497,0.242,0.497,0.482
			c0,0.277-0.234,0.477-0.597,0.477c-0.362,0-0.632-0.164-0.809-0.504L75.532,81.815z M73.416,82.348h0.54V80.8
			c0-0.831,0.284-1.242,0.859-1.242c0.1,0,0.213,0.021,0.334,0.063l0.185-0.489c-0.121-0.043-0.242-0.064-0.369-0.064
			c-0.483,0-0.781,0.227-1.065,0.768v-0.661h-0.482V82.348z M72.046,80.402h-1.931c0.057-0.539,0.447-0.873,0.965-0.873
			C71.655,79.529,72.01,79.841,72.046,80.402 M72.628,80.843v-0.107c0-1.051-0.596-1.682-1.526-1.682
			c-0.923,0-1.583,0.695-1.583,1.696c0,1.036,0.653,1.731,1.619,1.731c0.653,0,1.15-0.291,1.469-0.865l-0.412-0.277
			c-0.263,0.462-0.603,0.689-1.029,0.689c-0.611,0-1.05-0.447-1.05-1.137v-0.049H72.628z M68.198,80.779
			c0,0.752-0.412,1.178-1.065,1.178c-0.631,0-1.029-0.453-1.029-1.249c0-0.703,0.39-1.107,1.022-1.107
			C67.765,79.6,68.198,80.062,68.198,80.779 M68.723,76.973h-0.54v2.798c-0.241-0.469-0.631-0.71-1.157-0.71
			c-0.887,0-1.498,0.646-1.498,1.71c0,1.037,0.611,1.711,1.52,1.711c0.489,0,0.901-0.255,1.15-0.709v0.575h0.525V76.973z
			 M63.321,82.348h0.54V80.8c0-0.831,0.284-1.242,0.859-1.242c0.099,0,0.212,0.021,0.333,0.063l0.185-0.489
			c-0.121-0.043-0.241-0.064-0.369-0.064c-0.483,0-0.781,0.227-1.065,0.768v-0.661h-0.483V82.348z M59.63,80.771
			c0-0.674,0.511-1.199,1.15-1.199c0.632,0,1.143,0.525,1.143,1.199c0,0.675-0.511,1.2-1.143,1.2
			C60.148,81.971,59.63,81.446,59.63,80.771 M59.055,80.771c0,0.462,0.17,0.874,0.504,1.207c0.326,0.327,0.752,0.504,1.221,0.504
			c0.462,0,0.888-0.184,1.221-0.511c0.326-0.319,0.504-0.738,0.504-1.2c0-0.461-0.178-0.887-0.504-1.206
			c-0.333-0.327-0.752-0.504-1.221-0.504s-0.895,0.17-1.221,0.497C59.225,79.884,59.055,80.31,59.055,80.771 M56.123,81.815
			c0.248,0.447,0.66,0.667,1.249,0.667c0.703,0,1.157-0.418,1.157-1.008c0-0.518-0.305-0.745-0.923-0.943
			c-0.525-0.171-0.816-0.213-0.816-0.547c0-0.277,0.22-0.476,0.54-0.476c0.333,0,0.596,0.163,0.724,0.454l0.44-0.27
			c-0.17-0.404-0.582-0.632-1.129-0.632c-0.674,0-1.122,0.405-1.122,0.958c0,0.625,0.469,0.76,1.25,1.029
			c0.333,0.113,0.497,0.242,0.497,0.482c0,0.277-0.234,0.477-0.596,0.477s-0.632-0.164-0.809-0.504L56.123,81.815z M54.674,77.648
			c0,0.228,0.178,0.397,0.398,0.397s0.397-0.17,0.397-0.39c0-0.221-0.177-0.405-0.397-0.405S54.674,77.427,54.674,77.648
			 M54.802,82.348h0.54v-3.174h-0.54V82.348z M53.177,80.779c0,0.752-0.412,1.178-1.065,1.178c-0.632,0-1.029-0.453-1.029-1.249
			c0-0.703,0.391-1.107,1.022-1.107C52.744,79.6,53.177,80.062,53.177,80.779 M53.702,76.973h-0.54v2.798
			c-0.241-0.469-0.631-0.71-1.157-0.71c-0.888,0-1.498,0.646-1.498,1.71c0,1.037,0.61,1.711,1.519,1.711
			c0.49,0,0.902-0.255,1.15-0.709v0.575h0.525V76.973z M47.973,81.595c-0.334,0.241-0.639,0.361-0.98,0.361
			c-0.66,0-1.136-0.511-1.136-1.149c0-0.753,0.482-1.222,1.179-1.222c0.312,0,0.61,0.1,0.88,0.277v-0.582
			c-0.291-0.143-0.632-0.22-0.987-0.22c-0.951,0-1.654,0.695-1.654,1.731c0,1.002,0.646,1.689,1.633,1.689
			c0.412,0,0.773-0.084,1.065-0.255V81.595z M43.756,77.648c0,0.228,0.178,0.397,0.398,0.397c0.22,0,0.397-0.17,0.397-0.39
			c0-0.221-0.178-0.405-0.397-0.405C43.934,77.25,43.756,77.427,43.756,77.648 M43.884,82.348h0.54v-3.174h-0.54V82.348z
			 M42.202,82.348h0.54v-5.375h-0.54V82.348z M40.392,77.648c0,0.228,0.177,0.397,0.397,0.397s0.397-0.17,0.397-0.39
			c0-0.221-0.177-0.405-0.397-0.405S40.392,77.427,40.392,77.648 M40.52,82.348h0.539v-3.174H40.52V82.348z M36.572,82.348h0.54
			v-1.641c0-0.348,0-0.61,0.185-0.837c0.177-0.221,0.454-0.342,0.773-0.342c0.568,0,0.845,0.312,0.845,0.951v1.868h0.54v-2.159
			c0-0.717-0.454-1.128-1.192-1.128c-0.497,0-0.88,0.191-1.157,0.603v-2.69h-0.532V82.348z M33.072,80.771
			c0-0.752,0.412-1.186,1.065-1.186c0.632,0,1.029,0.455,1.029,1.25c0,0.703-0.391,1.115-1.022,1.115
			C33.505,81.951,33.072,81.489,33.072,80.771 M32.547,83.895h0.54v-2.122c0.241,0.469,0.632,0.709,1.157,0.709
			c0.887,0,1.498-0.639,1.498-1.711c0-1.043-0.611-1.71-1.52-1.71c-0.49,0-0.909,0.248-1.157,0.71v-0.597h-0.518V83.895z
			 M28.862,80.771c0-0.674,0.511-1.199,1.15-1.199c0.632,0,1.143,0.525,1.143,1.199c0,0.675-0.511,1.2-1.143,1.2
			C29.381,81.971,28.862,81.446,28.862,80.771 M28.287,80.771c0,0.462,0.17,0.874,0.504,1.207c0.326,0.327,0.752,0.504,1.221,0.504
			c0.461,0,0.888-0.184,1.221-0.511c0.327-0.319,0.504-0.738,0.504-1.2c0-0.461-0.178-0.887-0.504-1.206
			c-0.333-0.327-0.752-0.504-1.221-0.504c-0.468,0-0.895,0.17-1.221,0.497C28.458,79.884,28.287,80.31,28.287,80.771 M24.624,82.348
			h0.54v-1.641c0-0.348,0-0.61,0.185-0.837c0.178-0.221,0.455-0.342,0.774-0.342c0.568,0,0.845,0.312,0.845,0.951v1.868h0.54v-2.159
			c0-0.717-0.454-1.128-1.192-1.128c-0.497,0-0.88,0.191-1.15,0.603v-0.489h-0.54V82.348z M22.843,77.648
			c0,0.228,0.177,0.397,0.397,0.397s0.397-0.17,0.397-0.39c0-0.221-0.177-0.405-0.397-0.405S22.843,77.427,22.843,77.648
			 M22.97,82.348h0.54v-3.174h-0.54V82.348z M19.754,81.815c0.249,0.447,0.661,0.667,1.25,0.667c0.703,0,1.157-0.418,1.157-1.008
			c0-0.518-0.305-0.745-0.923-0.943c-0.525-0.171-0.816-0.213-0.816-0.547c0-0.277,0.22-0.476,0.54-0.476
			c0.333,0,0.596,0.163,0.724,0.454l0.44-0.27c-0.17-0.404-0.582-0.632-1.128-0.632c-0.675,0-1.122,0.405-1.122,0.958
			c0,0.625,0.469,0.76,1.25,1.029c0.334,0.113,0.497,0.242,0.497,0.482c0,0.277-0.234,0.477-0.596,0.477
			c-0.362,0-0.632-0.164-0.81-0.504L19.754,81.815z M16.404,80.771c0-0.674,0.511-1.199,1.15-1.199c0.632,0,1.143,0.525,1.143,1.199
			c0,0.675-0.511,1.2-1.143,1.2S16.404,81.446,16.404,80.771 M15.829,80.771c0,0.462,0.17,0.874,0.504,1.207
			c0.327,0.327,0.752,0.504,1.221,0.504c0.461,0,0.887-0.184,1.221-0.511c0.327-0.319,0.504-0.738,0.504-1.2
			c0-0.461-0.177-0.887-0.504-1.206c-0.334-0.327-0.752-0.504-1.221-0.504s-0.895,0.17-1.221,0.497
			C15.999,79.884,15.829,80.31,15.829,80.771 M12.478,82.348h2.676v-0.562h-2.073v-1.945h2.073v-0.561h-2.073v-1.455h2.073v-0.555
			h-2.676V82.348z"/>
		<path clip-path="url(#SVGID_4_)" fill="#FFFFFF" d="M279.909,13.414l2.668-5.439h-0.918l-0.911,1.973
			c-0.104,0.231-0.208,0.456-0.264,0.671c-0.032-0.231-0.088-0.479-0.176-0.727l-0.679-1.917h-0.935l1.358,3.378l-1.015,2.061
			H279.909z M278.448,9.029v-0.95c-0.288-0.16-0.607-0.232-0.982-0.232c-1.222,0-2.053,0.799-2.053,1.989
			c0,1.174,0.807,1.989,1.965,1.989c0.407,0,0.759-0.088,1.07-0.264v-0.975c-0.248,0.312-0.567,0.464-0.975,0.464
			c-0.735,0-1.182-0.464-1.182-1.238c0-0.743,0.455-1.222,1.142-1.222C277.841,8.59,278.192,8.75,278.448,9.029 M271.029,11.673
			h0.846V9.988c0-0.463,0.016-0.783,0.168-1.006c0.176-0.264,0.495-0.415,0.895-0.415c0.703,0,0.807,0.383,0.807,1.206v1.901h0.854
			V9.429c0-0.447,0-0.783-0.184-1.062c-0.216-0.343-0.607-0.519-1.158-0.519c-0.647,0-1.087,0.216-1.43,0.735V7.975h-0.798V11.673z
			 M270.189,9.948v-0.16c0-1.23-0.702-1.941-1.892-1.941c-1.15,0-1.941,0.839-1.941,1.989c0,1.206,0.759,1.989,1.941,1.989
			c0.83,0,1.437-0.359,1.853-1.102l-0.711-0.399c-0.271,0.511-0.615,0.727-1.158,0.727c-0.614,0-1.006-0.408-1.047-1.103H270.189z
			 M269.312,9.381h-2.021c0.136-0.551,0.471-0.814,1.022-0.814C268.896,8.566,269.247,8.846,269.312,9.381 M262.795,7.975h-0.847
			v1.829c0,1.39,0.503,2.021,1.797,2.021c1.27,0,1.781-0.639,1.781-2.021V7.975h-0.847v2.084c0,0.695-0.256,1.006-0.942,1.006
			s-0.942-0.312-0.942-1.006V7.975z M260.023,9.812c0,0.791-0.432,1.262-1.03,1.262c-0.639,0-1.015-0.439-1.015-1.23
			c0-0.783,0.392-1.246,1.03-1.246C259.641,8.598,260.023,9.038,260.023,9.812 M260.846,13.414V7.975h-0.847v0.607
			c-0.199-0.471-0.639-0.735-1.245-0.735c-0.975,0-1.661,0.783-1.661,1.973c0,1.262,0.654,2.005,1.685,2.005
			c0.52,0,0.919-0.208,1.222-0.631v2.22H260.846z M256.525,9.948v-0.16c0-1.23-0.703-1.941-1.893-1.941
			c-1.15,0-1.941,0.839-1.941,1.989c0,1.206,0.759,1.989,1.941,1.989c0.83,0,1.438-0.359,1.853-1.102l-0.711-0.399
			c-0.271,0.511-0.615,0.727-1.158,0.727c-0.614,0-1.006-0.408-1.046-1.103H256.525z M255.646,9.381h-2.021
			c0.136-0.551,0.472-0.814,1.022-0.814C255.231,8.566,255.583,8.846,255.646,9.381 M250.91,8.566V7.967h-0.846v3.706h0.846v-1.621
			c0-0.999,0.192-1.47,0.791-1.47c0.192,0,0.359,0.04,0.52,0.152l0.304-0.719c-0.224-0.112-0.456-0.168-0.695-0.168
			C251.382,7.847,251.094,8.079,250.91,8.566 M245.983,11.673h0.926V8.989h2.261V8.175h-2.261V6.753h2.261V5.962h-3.187V11.673z"/>
	</g>
</g>
</svg>
