<?xml version="1.0" encoding="utf-8"?>
<!-- Generator: Adobe Illustrator 15.1.0, SVG Export Plug-In . SVG Version: 6.00 Build 0)  -->
<!DOCTYPE svg PUBLIC "-//W3C//DTD SVG 1.1//EN" "http://www.w3.org/Graphics/SVG/1.1/DTD/svg11.dtd">
<svg version="1.1" id="Layer_1" xmlns="http://www.w3.org/2000/svg" xmlns:xlink="http://www.w3.org/1999/xlink" x="0px" y="0px"
	 width="330px" height="170px" viewBox="0 0 330 170" enable-background="new 0 0 330 170" xml:space="preserve">
<g>
	<defs>
		<rect id="SVGID_1_" x="-0.5" y="-0.5" width="331" height="169.493"/>
	</defs>
	<clipPath id="SVGID_2_">
		<use xlink:href="#SVGID_1_"  overflow="visible"/>
	</clipPath>
	<rect x="3.493" y="-0.056" clip-path="url(#SVGID_2_)" fill="#F9A25E" width="323.014" height="79.866"/>
	<rect x="3.493" y="79.81" clip-path="url(#SVGID_2_)" fill="#F3E3D5" width="323.014" height="17.748"/>
	<rect x="3.493" y="115.306" clip-path="url(#SVGID_2_)" fill="#F3E3D5" width="323.014" height="17.748"/>
	<rect x="3.493" y="150.802" clip-path="url(#SVGID_2_)" fill="#F3E3D5" width="323.014" height="17.748"/>
	<g clip-path="url(#SVGID_2_)">
		<defs>
			<rect id="SVGID_3_" x="-0.5" y="-0.5" width="331" height="169.493"/>
		</defs>
		<clipPath id="SVGID_4_">
			<use xlink:href="#SVGID_3_"  overflow="visible"/>
		</clipPath>
		<g opacity="0.3" clip-path="url(#SVGID_4_)">
			<g>
				<defs>
					<rect id="SVGID_5_" x="3.05" y="75.595" width="323.9" height="8.431"/>
				</defs>
				<clipPath id="SVGID_6_">
					<use xlink:href="#SVGID_5_"  overflow="visible"/>
				</clipPath>
				<line clip-path="url(#SVGID_6_)" fill="none" stroke="#808285" x1="326.507" y1="79.81" x2="3.493" y2="79.81"/>
			</g>
		</g>
		<g opacity="0.3" clip-path="url(#SVGID_4_)">
			<g>
				<defs>
					<rect id="SVGID_7_" x="3.05" y="93.342" width="323.9" height="8.432"/>
				</defs>
				<clipPath id="SVGID_8_">
					<use xlink:href="#SVGID_7_"  overflow="visible"/>
				</clipPath>
				<line clip-path="url(#SVGID_8_)" fill="none" stroke="#808285" x1="326.507" y1="97.558" x2="3.493" y2="97.558"/>
			</g>
		</g>
		<g opacity="0.3" clip-path="url(#SVGID_4_)">
			<g>
				<defs>
					<rect id="SVGID_9_" x="3.05" y="111.09" width="323.9" height="8.432"/>
				</defs>
				<clipPath id="SVGID_10_">
					<use xlink:href="#SVGID_9_"  overflow="visible"/>
				</clipPath>
				<line clip-path="url(#SVGID_10_)" fill="none" stroke="#808285" x1="326.507" y1="115.306" x2="3.493" y2="115.306"/>
			</g>
		</g>
		<g opacity="0.3" clip-path="url(#SVGID_4_)">
			<g>
				<defs>
					<rect id="SVGID_11_" x="3.05" y="128.838" width="323.9" height="8.431"/>
				</defs>
				<clipPath id="SVGID_12_">
					<use xlink:href="#SVGID_11_"  overflow="visible"/>
				</clipPath>
				<line clip-path="url(#SVGID_12_)" fill="none" stroke="#808285" x1="326.507" y1="133.054" x2="3.493" y2="133.054"/>
			</g>
		</g>
		<g opacity="0.3" clip-path="url(#SVGID_4_)">
			<g>
				<defs>
					<rect id="SVGID_13_" x="3.05" y="146.586" width="323.9" height="8.431"/>
				</defs>
				<clipPath id="SVGID_14_">
					<use xlink:href="#SVGID_13_"  overflow="visible"/>
				</clipPath>
				<line clip-path="url(#SVGID_14_)" fill="none" stroke="#808285" x1="326.507" y1="150.802" x2="3.493" y2="150.802"/>
			</g>
		</g>
		<g opacity="0.3" clip-path="url(#SVGID_4_)">
			<g>
				<defs>
					<rect id="SVGID_15_" x="3.05" y="164.334" width="323.9" height="8.431"/>
				</defs>
				<clipPath id="SVGID_16_">
					<use xlink:href="#SVGID_15_"  overflow="visible"/>
				</clipPath>
				<line clip-path="url(#SVGID_16_)" fill="none" stroke="#808285" x1="326.507" y1="168.55" x2="3.493" y2="168.55"/>
			</g>
		</g>
		<g opacity="0.3" clip-path="url(#SVGID_4_)">
			<g>
				<defs>
					<rect id="SVGID_17_" x="189.182" y="-0.5" width="8.431" height="169.493"/>
				</defs>
				<clipPath id="SVGID_18_">
					<use xlink:href="#SVGID_17_"  overflow="visible"/>
				</clipPath>
				<line clip-path="url(#SVGID_18_)" fill="none" stroke="#808285" x1="193.396" y1="-0.056" x2="193.396" y2="168.55"/>
			</g>
		</g>
		<path clip-path="url(#SVGID_4_)" fill="#FFFFFF" d="M45.995,62.284c0,0.228,0.178,0.405,0.412,0.405
			c0.235,0,0.419-0.178,0.419-0.405s-0.185-0.411-0.419-0.411C46.18,61.873,45.995,62.057,45.995,62.284 M41.999,62.625h0.54v-1.64
			c0-0.349,0-0.61,0.185-0.838c0.177-0.22,0.454-0.341,0.774-0.341c0.568,0,0.845,0.312,0.845,0.951v1.867h0.54v-2.158
			c0-0.717-0.455-1.129-1.193-1.129c-0.497,0-0.88,0.191-1.15,0.604v-0.49h-0.54V62.625z M38.314,61.049
			c0-0.674,0.511-1.199,1.15-1.199c0.632,0,1.143,0.525,1.143,1.199c0,0.675-0.511,1.2-1.143,1.2S38.314,61.724,38.314,61.049
			 M37.739,61.049c0,0.462,0.17,0.873,0.504,1.207c0.327,0.326,0.753,0.504,1.221,0.504c0.461,0,0.887-0.184,1.221-0.511
			c0.327-0.319,0.504-0.738,0.504-1.2c0-0.461-0.177-0.887-0.504-1.207c-0.334-0.326-0.752-0.504-1.221-0.504
			c-0.468,0-0.895,0.171-1.221,0.497C37.91,60.162,37.739,60.588,37.739,61.049 M36.213,57.926c0,0.227,0.178,0.397,0.398,0.397
			c0.22,0,0.397-0.171,0.397-0.391s-0.178-0.405-0.397-0.405C36.391,57.528,36.213,57.705,36.213,57.926 M36.341,62.625h0.54v-3.174
			h-0.54V62.625z M34.595,59.899v2.727h0.539v-2.727h0.596v-0.447h-0.596v-1.277h-0.539v1.277h-0.583v0.447H34.595z M32.933,61.071
			c0,0.731-0.397,1.15-1.036,1.15c-0.675,0-1.058-0.434-1.058-1.2c0-0.724,0.383-1.143,1.037-1.143
			C32.486,59.878,32.933,60.332,32.933,61.071 M33.458,59.451h-0.54v0.598c-0.241-0.469-0.632-0.711-1.164-0.711
			c-0.888,0-1.491,0.646-1.491,1.711c0,1.037,0.611,1.711,1.52,1.711c0.49,0,0.895-0.248,1.15-0.709v0.574h0.525V59.451z
			 M28.851,62.625h0.54v-5.374h-0.54V62.625z M25.472,59.451h-0.54v1.896c0,0.93,0.504,1.412,1.427,1.412
			c0.951,0,1.448-0.496,1.448-1.455v-1.854h-0.54v1.562c0,0.838-0.199,1.229-0.895,1.229s-0.901-0.391-0.901-1.229V59.451z
			 M21.476,61.049c0-0.752,0.412-1.186,1.065-1.186c0.632,0,1.029,0.455,1.029,1.25c0,0.703-0.39,1.114-1.022,1.114
			C21.909,62.228,21.476,61.766,21.476,61.049 M20.95,64.173h0.54v-2.122c0.241,0.468,0.632,0.709,1.157,0.709
			c0.887,0,1.498-0.639,1.498-1.711c0-1.043-0.611-1.711-1.52-1.711c-0.49,0-0.909,0.248-1.157,0.711v-0.598H20.95V64.173z
			 M17.266,61.049c0-0.674,0.511-1.199,1.15-1.199c0.632,0,1.143,0.525,1.143,1.199c0,0.675-0.511,1.2-1.143,1.2
			C17.784,62.249,17.266,61.724,17.266,61.049 M16.691,61.049c0,0.462,0.17,0.873,0.504,1.207c0.327,0.326,0.752,0.504,1.221,0.504
			c0.462,0,0.888-0.184,1.221-0.511c0.327-0.319,0.504-0.738,0.504-1.2c0-0.461-0.178-0.887-0.504-1.207
			c-0.333-0.326-0.752-0.504-1.221-0.504c-0.468,0-0.894,0.171-1.221,0.497C16.861,60.162,16.691,60.588,16.691,61.049
			 M13.446,61.049c0-0.752,0.412-1.186,1.065-1.186c0.632,0,1.029,0.455,1.029,1.25c0,0.703-0.39,1.114-1.022,1.114
			C13.879,62.228,13.446,61.766,13.446,61.049 M12.921,64.173h0.54v-2.122c0.241,0.468,0.632,0.709,1.157,0.709
			c0.887,0,1.498-0.639,1.498-1.711c0-1.043-0.611-1.711-1.52-1.711c-0.49,0-0.908,0.248-1.157,0.711v-0.598h-0.519V64.173z"/>
		<path clip-path="url(#SVGID_4_)" fill="#FFFFFF" d="M178.116,55.469l0.369,0.192c0.547-1.016,0.823-2.159,0.823-3.429
			c0-1.313-0.255-2.442-0.823-3.443l-0.369,0.171c0.511,1.008,0.731,2.059,0.731,3.272
			C178.848,53.482,178.627,54.532,178.116,55.469 M174.787,54.106h2.676v-0.561h-2.072V51.6h2.072V51.04h-2.072v-1.456h2.072v-0.554
			h-2.676V54.106z M171.585,54.106h2.521v-0.575h-1.917v-4.501h-0.604V54.106z M167.922,53.673c-0.561,0-1.065-0.213-1.469-0.617
			c-0.398-0.405-0.611-0.909-0.611-1.477s0.213-1.086,0.611-1.491c0.39-0.397,0.908-0.61,1.469-0.61s1.072,0.213,1.47,0.61
			s0.61,0.923,0.61,1.491s-0.213,1.079-0.61,1.477C168.986,53.46,168.476,53.673,167.922,53.673 M170.634,51.579
			c0-0.724-0.271-1.384-0.788-1.888c-0.512-0.497-1.207-0.774-1.924-0.774s-1.406,0.277-1.917,0.774
			c-0.518,0.504-0.795,1.165-0.795,1.888c0,0.724,0.277,1.377,0.795,1.881c0.511,0.497,1.2,0.781,1.917,0.781
			c0.709,0,1.405-0.277,1.924-0.781C170.357,52.964,170.634,52.303,170.634,51.579 M162.122,49.875h-0.412v1.91h-1.874v0.405h1.874
			v1.917h0.412V52.19h1.867v-0.405h-1.867V49.875z M156.89,54.106h0.604v-4.501h1.434v-0.575h-3.471v0.575h1.434V54.106z
			 M155.009,50.244v-0.788c-0.525-0.362-1.065-0.546-1.668-0.546c-0.745,0-1.37,0.249-1.888,0.745
			c-0.533,0.519-0.795,1.15-0.795,1.938c0,0.901,0.405,1.668,1.143,2.179c0.44,0.305,0.958,0.469,1.498,0.469
			c0.618,0,1.207-0.192,1.711-0.554v-0.803c-0.461,0.54-1.022,0.803-1.661,0.803c-0.689,0-1.306-0.327-1.711-0.902
			c-0.234-0.333-0.348-0.731-0.348-1.2c0-0.596,0.192-1.093,0.583-1.498c0.376-0.391,0.916-0.618,1.448-0.618
			C153.979,49.47,154.519,49.712,155.009,50.244 M147.128,54.106h0.604v-2.42h0.071l1.853,2.42h0.767l-1.938-2.42h0.106
			c0.895,0,1.371-0.44,1.371-1.271c0-0.497-0.185-0.902-0.476-1.129c-0.312-0.241-0.682-0.255-1.165-0.255h-1.193V54.106z
			 M147.732,49.542h0.447c0.803,0,1.186,0.142,1.186,0.88c0,0.703-0.39,0.816-1.186,0.816h-0.447V49.542z M146.277,55.469
			c-0.511-0.937-0.731-1.987-0.731-3.237c0-1.214,0.22-2.265,0.731-3.272l-0.37-0.171c-0.567,1.001-0.823,2.13-0.823,3.443
			c0,1.271,0.277,2.414,0.823,3.429L146.277,55.469z M139.816,53.574c0.249,0.447,0.661,0.667,1.25,0.667
			c0.703,0,1.157-0.419,1.157-1.008c0-0.518-0.306-0.746-0.923-0.944c-0.525-0.17-0.816-0.213-0.816-0.546
			c0-0.277,0.22-0.476,0.54-0.476c0.333,0,0.596,0.163,0.724,0.454l0.44-0.27c-0.17-0.405-0.582-0.632-1.129-0.632
			c-0.674,0-1.122,0.405-1.122,0.958c0,0.625,0.469,0.759,1.25,1.029c0.334,0.113,0.497,0.241,0.497,0.482
			c0,0.277-0.234,0.476-0.596,0.476c-0.362,0-0.632-0.163-0.81-0.504L139.816,53.574z M138.787,52.161h-1.931
			c0.057-0.54,0.447-0.874,0.965-0.874C138.396,51.288,138.751,51.6,138.787,52.161 M139.37,52.601v-0.106
			c0-1.051-0.597-1.683-1.527-1.683c-0.923,0-1.583,0.696-1.583,1.697c0,1.037,0.653,1.732,1.619,1.732
			c0.653,0,1.15-0.292,1.469-0.866l-0.412-0.277c-0.263,0.461-0.603,0.688-1.029,0.688c-0.611,0-1.05-0.447-1.05-1.136v-0.05H139.37
			z M134.755,49.406c0,0.228,0.178,0.398,0.397,0.398s0.397-0.17,0.397-0.391s-0.178-0.405-0.397-0.405
			S134.755,49.187,134.755,49.406 M134.883,54.106h0.539v-3.173h-0.539V54.106z M133.257,52.537c0,0.752-0.412,1.179-1.065,1.179
			c-0.632,0-1.029-0.455-1.029-1.25c0-0.703,0.391-1.107,1.022-1.107C132.824,51.359,133.257,51.821,133.257,52.537 M133.782,48.732
			h-0.54v2.797c-0.242-0.469-0.632-0.71-1.157-0.71c-0.887,0-1.498,0.646-1.498,1.711c0,1.036,0.61,1.711,1.519,1.711
			c0.49,0,0.902-0.256,1.15-0.71v0.575h0.525V48.732z M127.478,50.933h-0.54v1.896c0,0.93,0.504,1.413,1.427,1.413
			c0.952,0,1.449-0.497,1.449-1.456v-1.853h-0.54v1.562c0,0.838-0.199,1.228-0.895,1.228c-0.695,0-0.901-0.39-0.901-1.228V50.933z
			 M125.264,51.38v2.726h0.54V51.38h0.596v-0.447h-0.596v-1.278h-0.54v1.278h-0.583v0.447H125.264z M121.991,53.574
			c0.248,0.447,0.66,0.667,1.249,0.667c0.703,0,1.157-0.419,1.157-1.008c0-0.518-0.305-0.746-0.923-0.944
			c-0.525-0.17-0.816-0.213-0.816-0.546c0-0.277,0.22-0.476,0.54-0.476c0.333,0,0.596,0.163,0.724,0.454l0.44-0.27
			c-0.17-0.405-0.582-0.632-1.128-0.632c-0.675,0-1.122,0.405-1.122,0.958c0,0.625,0.469,0.759,1.25,1.029
			c0.333,0.113,0.497,0.241,0.497,0.482c0,0.277-0.234,0.476-0.597,0.476c-0.362,0-0.631-0.163-0.809-0.504L121.991,53.574z
			 M118.612,54.106h0.54v-5.374h-0.54V54.106z M116.929,54.106h0.54v-5.374h-0.54V54.106z M115.325,52.552
			c0,0.731-0.398,1.15-1.037,1.15c-0.674,0-1.058-0.433-1.058-1.2c0-0.724,0.383-1.143,1.037-1.143
			C114.877,51.359,115.325,51.813,115.325,52.552 M115.85,50.933h-0.539v0.597c-0.242-0.469-0.632-0.71-1.165-0.71
			c-0.887,0-1.49,0.646-1.49,1.711c0,1.036,0.61,1.711,1.519,1.711c0.49,0,0.894-0.249,1.15-0.71v0.575h0.525V50.933z
			 M109.241,52.537c0,0.752-0.412,1.179-1.065,1.179c-0.632,0-1.029-0.455-1.029-1.25c0-0.703,0.391-1.107,1.022-1.107
			C108.808,51.359,109.241,51.821,109.241,52.537 M109.766,48.732h-0.54v2.797c-0.242-0.469-0.632-0.71-1.157-0.71
			c-0.887,0-1.498,0.646-1.498,1.711c0,1.036,0.61,1.711,1.519,1.711c0.49,0,0.902-0.256,1.15-0.71v0.575h0.525V48.732z
			 M102.895,54.106h0.54v-1.64c0-0.348,0-0.611,0.185-0.838c0.177-0.22,0.454-0.341,0.774-0.341c0.567,0,0.844,0.312,0.844,0.951
			v1.867h0.54v-2.158c0-0.717-0.455-1.128-1.193-1.128c-0.497,0-0.88,0.191-1.15,0.604v-0.49h-0.54V54.106z M101.318,52.552
			c0,0.731-0.397,1.15-1.037,1.15c-0.674,0-1.058-0.433-1.058-1.2c0-0.724,0.383-1.143,1.037-1.143
			C100.871,51.359,101.318,51.813,101.318,52.552 M101.844,50.933h-0.54v0.597c-0.241-0.469-0.632-0.71-1.164-0.71
			c-0.887,0-1.491,0.646-1.491,1.711c0,1.036,0.611,1.711,1.52,1.711c0.49,0,0.895-0.249,1.15-0.71v0.575h0.525V50.933z
			 M94.546,55.469l0.369,0.192c0.547-1.016,0.824-2.159,0.824-3.429c0-1.313-0.256-2.442-0.824-3.443l-0.369,0.171
			c0.511,1.008,0.731,2.059,0.731,3.272C95.277,53.482,95.057,54.532,94.546,55.469 M92.203,54.106h0.604v-4.501h1.434v-0.575
			h-3.472v0.575h1.434V54.106z M90.322,50.244v-0.788c-0.525-0.362-1.065-0.546-1.668-0.546c-0.745,0-1.37,0.249-1.888,0.745
			c-0.533,0.519-0.795,1.15-0.795,1.938c0,0.901,0.405,1.668,1.143,2.179c0.44,0.305,0.958,0.469,1.498,0.469
			c0.618,0,1.207-0.192,1.711-0.554v-0.803c-0.461,0.54-1.022,0.803-1.661,0.803c-0.688,0-1.306-0.327-1.711-0.902
			c-0.234-0.333-0.348-0.731-0.348-1.2c0-0.596,0.192-1.093,0.583-1.498c0.376-0.391,0.916-0.618,1.448-0.618
			C89.292,49.47,89.832,49.712,90.322,50.244 M82.441,54.106h0.604v-2.42h0.071l1.853,2.42h0.767l-1.938-2.42h0.106
			c0.895,0,1.371-0.44,1.371-1.271c0-0.497-0.185-0.902-0.476-1.129c-0.312-0.241-0.682-0.255-1.165-0.255h-1.193V54.106z
			 M83.045,49.542h0.447c0.803,0,1.186,0.142,1.186,0.88c0,0.703-0.39,0.816-1.186,0.816h-0.447V49.542z M81.59,55.469
			c-0.511-0.937-0.731-1.987-0.731-3.237c0-1.214,0.22-2.265,0.731-3.272l-0.369-0.171c-0.567,1.001-0.823,2.13-0.823,3.443
			c0,1.271,0.277,2.414,0.823,3.429L81.59,55.469z M74.398,54.106h0.54v-1.64c0-0.348,0-0.611,0.184-0.838
			c0.178-0.22,0.455-0.341,0.774-0.341c0.568,0,0.845,0.312,0.845,0.951v1.867h0.54v-2.158c0-0.717-0.454-1.128-1.192-1.128
			c-0.497,0-0.88,0.191-1.15,0.604v-0.49h-0.54V54.106z M70.714,52.531c0-0.675,0.511-1.2,1.15-1.2c0.632,0,1.143,0.525,1.143,1.2
			c0,0.674-0.511,1.2-1.143,1.2S70.714,53.205,70.714,52.531 M70.139,52.531c0,0.461,0.17,0.873,0.504,1.207
			c0.327,0.327,0.753,0.504,1.221,0.504c0.461,0,0.887-0.185,1.221-0.511c0.327-0.32,0.504-0.738,0.504-1.2
			s-0.178-0.888-0.504-1.207c-0.334-0.327-0.752-0.504-1.221-0.504c-0.468,0-0.895,0.17-1.221,0.497
			C70.31,51.643,70.139,52.069,70.139,52.531 M68.613,49.406c0,0.228,0.178,0.398,0.398,0.398c0.22,0,0.397-0.17,0.397-0.391
			s-0.177-0.405-0.397-0.405C68.791,49.009,68.613,49.187,68.613,49.406 M68.741,54.106h0.539v-3.173h-0.539V54.106z M66.994,51.38
			v2.726h0.54V51.38h0.596v-0.447h-0.596v-1.278h-0.54v1.278h-0.582v0.447H66.994z M65.333,52.552c0,0.731-0.398,1.15-1.037,1.15
			c-0.674,0-1.058-0.433-1.058-1.2c0-0.724,0.383-1.143,1.037-1.143C64.886,51.359,65.333,51.813,65.333,52.552 M65.859,50.933
			h-0.54v0.597c-0.242-0.469-0.632-0.71-1.165-0.71c-0.887,0-1.49,0.646-1.49,1.711c0,1.036,0.61,1.711,1.519,1.711
			c0.49,0,0.894-0.249,1.15-0.71v0.575h0.525V50.933z M61.251,54.106h0.54v-5.374h-0.54V54.106z M57.872,50.933h-0.54v1.896
			c0,0.93,0.504,1.413,1.427,1.413c0.952,0,1.449-0.497,1.449-1.456v-1.853h-0.54v1.562c0,0.838-0.199,1.228-0.895,1.228
			s-0.902-0.39-0.902-1.228V50.933z M53.875,52.531c0-0.752,0.412-1.186,1.065-1.186c0.632,0,1.029,0.454,1.029,1.25
			c0,0.703-0.39,1.114-1.022,1.114C54.309,53.709,53.875,53.247,53.875,52.531 M53.35,55.655h0.54v-2.123
			c0.241,0.468,0.632,0.71,1.157,0.71c0.888,0,1.498-0.639,1.498-1.711c0-1.044-0.61-1.711-1.52-1.711
			c-0.49,0-0.909,0.249-1.157,0.71v-0.597H53.35V55.655z M49.666,52.531c0-0.675,0.511-1.2,1.15-1.2c0.632,0,1.143,0.525,1.143,1.2
			c0,0.674-0.511,1.2-1.143,1.2C50.184,53.73,49.666,53.205,49.666,52.531 M49.091,52.531c0,0.461,0.17,0.873,0.504,1.207
			c0.327,0.327,0.752,0.504,1.221,0.504c0.461,0,0.888-0.185,1.221-0.511c0.327-0.32,0.504-0.738,0.504-1.2
			s-0.177-0.888-0.504-1.207c-0.333-0.327-0.752-0.504-1.221-0.504c-0.468,0-0.894,0.17-1.221,0.497
			C49.261,51.643,49.091,52.069,49.091,52.531 M45.846,52.531c0-0.752,0.412-1.186,1.065-1.186c0.632,0,1.029,0.454,1.029,1.25
			c0,0.703-0.391,1.114-1.022,1.114C46.279,53.709,45.846,53.247,45.846,52.531 M45.321,55.655h0.54v-2.123
			c0.241,0.468,0.632,0.71,1.157,0.71c0.888,0,1.498-0.639,1.498-1.711c0-1.044-0.61-1.711-1.52-1.711
			c-0.49,0-0.909,0.249-1.157,0.71v-0.597h-0.518V55.655z M41.665,52.537c0,0.752-0.412,1.179-1.065,1.179
			c-0.631,0-1.029-0.455-1.029-1.25c0-0.703,0.391-1.107,1.022-1.107C41.232,51.359,41.665,51.821,41.665,52.537 M42.19,48.732
			h-0.54v2.797c-0.241-0.469-0.631-0.71-1.157-0.71c-0.888,0-1.498,0.646-1.498,1.711c0,1.036,0.61,1.711,1.519,1.711
			c0.49,0,0.902-0.256,1.15-0.71v0.575h0.525V48.732z M37.874,52.161h-1.931c0.057-0.54,0.447-0.874,0.965-0.874
			C37.484,51.288,37.839,51.6,37.874,52.161 M38.457,52.601v-0.106c0-1.051-0.597-1.683-1.526-1.683
			c-0.923,0-1.583,0.696-1.583,1.697c0,1.037,0.653,1.732,1.618,1.732c0.653,0,1.15-0.292,1.47-0.866l-0.412-0.277
			c-0.263,0.461-0.604,0.688-1.029,0.688c-0.611,0-1.051-0.447-1.051-1.136v-0.05H38.457z M33.97,54.106h0.54v-5.374h-0.54V54.106z
			 M32.287,54.106h0.54v-5.374h-0.54V54.106z M28.574,52.531c0-0.675,0.511-1.2,1.15-1.2c0.632,0,1.143,0.525,1.143,1.2
			c0,0.674-0.511,1.2-1.143,1.2C29.092,53.73,28.574,53.205,28.574,52.531 M27.999,52.531c0,0.461,0.171,0.873,0.504,1.207
			c0.327,0.327,0.752,0.504,1.221,0.504c0.461,0,0.887-0.185,1.221-0.511c0.327-0.32,0.504-0.738,0.504-1.2
			s-0.177-0.888-0.504-1.207c-0.333-0.327-0.752-0.504-1.221-0.504c-0.469,0-0.895,0.17-1.221,0.497
			C28.17,51.643,27.999,52.069,27.999,52.531 M25.806,54.106h0.54v-1.547c0-0.831,0.284-1.242,0.859-1.242
			c0.1,0,0.213,0.021,0.333,0.063l0.185-0.49c-0.121-0.042-0.241-0.064-0.369-0.064c-0.482,0-0.781,0.227-1.064,0.767v-0.661h-0.483
			V54.106z M24.081,51.38v2.726h0.54V51.38h0.596v-0.447H24.62v-1.278h-0.54v1.278h-0.582v0.447H24.081z M20.077,54.106h0.54v-1.64
			c0-0.348,0-0.611,0.185-0.838c0.177-0.22,0.454-0.341,0.773-0.341c0.568,0,0.845,0.312,0.845,0.951v1.867h0.54v-2.158
			c0-0.717-0.455-1.128-1.193-1.128c-0.497,0-0.88,0.191-1.15,0.604v-0.49h-0.54V54.106z M16.393,52.531c0-0.675,0.511-1.2,1.15-1.2
			c0.632,0,1.143,0.525,1.143,1.2c0,0.674-0.511,1.2-1.143,1.2C16.911,53.73,16.393,53.205,16.393,52.531 M15.817,52.531
			c0,0.461,0.17,0.873,0.504,1.207c0.326,0.327,0.752,0.504,1.221,0.504c0.461,0,0.888-0.185,1.221-0.511
			c0.327-0.32,0.504-0.738,0.504-1.2s-0.177-0.888-0.504-1.207c-0.333-0.327-0.752-0.504-1.221-0.504
			c-0.468,0-0.895,0.17-1.221,0.497C15.988,51.643,15.817,52.069,15.817,52.531 M15.356,53.354
			c-0.333,0.241-0.639,0.362-0.979,0.362c-0.66,0-1.136-0.511-1.136-1.15c0-0.752,0.483-1.221,1.179-1.221
			c0.312,0,0.61,0.099,0.88,0.277V51.04c-0.291-0.142-0.632-0.22-0.987-0.22c-0.951,0-1.654,0.696-1.654,1.732
			c0,1.001,0.646,1.69,1.633,1.69c0.412,0,0.774-0.085,1.065-0.256V53.354z"/>
		<path clip-path="url(#SVGID_4_)" fill="#FFFFFF" d="M176.424,44.281h1.619v-0.547h-1.619V44.281z M172.804,44.011
			c0-0.675,0.511-1.2,1.149-1.2c0.633,0,1.144,0.525,1.144,1.2c0,0.674-0.511,1.2-1.144,1.2
			C173.322,45.211,172.804,44.686,172.804,44.011 M172.229,44.011c0,0.461,0.17,0.873,0.504,1.207
			c0.327,0.327,0.753,0.504,1.221,0.504c0.462,0,0.889-0.185,1.222-0.511c0.327-0.32,0.505-0.738,0.505-1.2
			c0-0.462-0.178-0.888-0.505-1.207c-0.333-0.327-0.753-0.504-1.222-0.504c-0.468,0-0.894,0.17-1.221,0.497
			C172.398,43.124,172.229,43.55,172.229,44.011 M168.978,44.018c0-0.717,0.44-1.178,1.079-1.178c0.633,0,1.022,0.404,1.022,1.107
			c0,0.795-0.405,1.25-1.036,1.25C169.389,45.197,168.978,44.771,168.978,44.018 M168.459,40.213v5.374h0.519v-0.575
			c0.249,0.454,0.667,0.709,1.157,0.709c0.908,0,1.52-0.674,1.52-1.71c0-1.065-0.611-1.711-1.498-1.711
			c-0.525,0-0.916,0.241-1.157,0.71v-2.797H168.459z M167.096,43.642h-1.93c0.057-0.539,0.448-0.873,0.965-0.873
			C166.706,42.769,167.061,43.081,167.096,43.642 M167.679,44.082v-0.106c0-1.051-0.597-1.683-1.526-1.683
			c-0.923,0-1.583,0.696-1.583,1.697c0,1.037,0.653,1.732,1.618,1.732c0.654,0,1.15-0.291,1.47-0.866l-0.412-0.277
			c-0.263,0.461-0.603,0.688-1.028,0.688c-0.611,0-1.051-0.447-1.051-1.136v-0.05H167.679z M164.129,44.835
			c-0.333,0.241-0.639,0.362-0.979,0.362c-0.66,0-1.136-0.511-1.136-1.15c0-0.752,0.483-1.221,1.179-1.221
			c0.312,0,0.61,0.099,0.88,0.277V42.52c-0.291-0.142-0.632-0.22-0.987-0.22c-0.951,0-1.654,0.695-1.654,1.732
			c0,1.001,0.646,1.689,1.633,1.689c0.412,0,0.774-0.085,1.065-0.255V44.835z M160.118,44.032c0,0.731-0.398,1.15-1.037,1.15
			c-0.675,0-1.058-0.433-1.058-1.2c0-0.724,0.383-1.143,1.037-1.143C159.671,42.84,160.118,43.294,160.118,44.032 M160.643,42.414
			h-0.54v0.597c-0.241-0.469-0.631-0.71-1.164-0.71c-0.887,0-1.491,0.646-1.491,1.711c0,1.036,0.611,1.71,1.519,1.71
			c0.49,0,0.895-0.248,1.15-0.709v0.575h0.525V42.414z M156.036,45.587h0.54v-5.374h-0.54V45.587z M152.507,44.011
			c0-0.752,0.412-1.186,1.065-1.186c0.631,0,1.029,0.454,1.029,1.249c0,0.703-0.391,1.115-1.022,1.115
			C152.941,45.19,152.507,44.728,152.507,44.011 M151.982,47.135h0.54v-2.123c0.241,0.468,0.631,0.709,1.157,0.709
			c0.887,0,1.498-0.639,1.498-1.71c0-1.044-0.611-1.711-1.52-1.711c-0.49,0-0.909,0.249-1.157,0.71v-0.597h-0.518V47.135z
			 M148.561,43.642h-1.931c0.057-0.539,0.447-0.873,0.966-0.873C148.17,42.769,148.525,43.081,148.561,43.642 M149.143,44.082
			v-0.106c0-1.051-0.596-1.683-1.526-1.683c-0.923,0-1.583,0.696-1.583,1.697c0,1.037,0.653,1.732,1.619,1.732
			c0.653,0,1.15-0.291,1.469-0.866l-0.412-0.277c-0.263,0.461-0.604,0.688-1.029,0.688c-0.611,0-1.051-0.447-1.051-1.136v-0.05
			H149.143z M142.392,45.587h0.54v-1.64c0-0.348,0-0.611,0.185-0.838c0.178-0.22,0.455-0.341,0.774-0.341
			c0.568,0,0.845,0.312,0.845,0.952v1.867h0.54v-2.158c0-0.717-0.455-1.128-1.193-1.128c-0.497,0-0.88,0.191-1.157,0.604v-2.691
			h-0.533V45.587z M140.674,42.861v2.726h0.539v-2.726h0.597v-0.447h-0.597v-1.278h-0.539v1.278h-0.582v0.447H140.674z
			 M134.611,45.587h0.54v-1.64c0-0.348,0-0.611,0.185-0.838c0.178-0.22,0.455-0.341,0.774-0.341c0.568,0,0.845,0.312,0.845,0.952
			v1.867h0.54v-2.158c0-0.717-0.454-1.128-1.192-1.128c-0.497,0-0.88,0.191-1.15,0.604v-0.49h-0.54V45.587z M132.829,40.887
			c0,0.228,0.177,0.397,0.397,0.397s0.398-0.17,0.398-0.39s-0.178-0.405-0.398-0.405S132.829,40.668,132.829,40.887 M132.957,45.587
			h0.54v-3.173h-0.54V45.587z M128.583,46.95l0.369,0.191c0.547-1.015,0.824-2.158,0.824-3.429c0-1.313-0.255-2.442-0.824-3.443
			l-0.369,0.17c0.512,1.008,0.731,2.059,0.731,3.273C129.315,44.963,129.095,46.013,128.583,46.95 M125.673,45.055
			c0.248,0.447,0.66,0.667,1.249,0.667c0.703,0,1.157-0.418,1.157-1.008c0-0.518-0.305-0.745-0.923-0.944
			c-0.525-0.17-0.816-0.213-0.816-0.546c0-0.277,0.22-0.476,0.54-0.476c0.333,0,0.596,0.163,0.724,0.454l0.44-0.27
			c-0.17-0.405-0.582-0.632-1.129-0.632c-0.674,0-1.122,0.404-1.122,0.958c0,0.625,0.469,0.759,1.25,1.029
			c0.333,0.114,0.497,0.241,0.497,0.482c0,0.277-0.235,0.476-0.597,0.476s-0.632-0.164-0.809-0.504L125.673,45.055z M124.644,43.642
			h-1.931c0.057-0.539,0.447-0.873,0.965-0.873C124.254,42.769,124.608,43.081,124.644,43.642 M125.227,44.082v-0.106
			c0-1.051-0.597-1.683-1.526-1.683c-0.923,0-1.583,0.696-1.583,1.697c0,1.037,0.653,1.732,1.619,1.732
			c0.653,0,1.15-0.291,1.469-0.866l-0.412-0.277c-0.262,0.461-0.603,0.688-1.029,0.688c-0.61,0-1.05-0.447-1.05-1.136v-0.05H125.227
			z M119.206,45.055c0.249,0.447,0.661,0.667,1.25,0.667c0.703,0,1.157-0.418,1.157-1.008c0-0.518-0.305-0.745-0.923-0.944
			c-0.525-0.17-0.816-0.213-0.816-0.546c0-0.277,0.22-0.476,0.54-0.476c0.333,0,0.597,0.163,0.724,0.454l0.44-0.27
			c-0.17-0.405-0.582-0.632-1.129-0.632c-0.674,0-1.122,0.404-1.122,0.958c0,0.625,0.469,0.759,1.25,1.029
			c0.334,0.114,0.497,0.241,0.497,0.482c0,0.277-0.234,0.476-0.596,0.476c-0.362,0-0.632-0.164-0.81-0.504L119.206,45.055z
			 M115.855,44.011c0-0.675,0.511-1.2,1.15-1.2c0.632,0,1.143,0.525,1.143,1.2c0,0.674-0.511,1.2-1.143,1.2
			S115.855,44.686,115.855,44.011 M115.28,44.011c0,0.461,0.17,0.873,0.504,1.207c0.327,0.327,0.753,0.504,1.221,0.504
			c0.461,0,0.888-0.185,1.221-0.511c0.327-0.32,0.504-0.738,0.504-1.2c0-0.462-0.177-0.888-0.504-1.207
			c-0.333-0.327-0.753-0.504-1.221-0.504s-0.894,0.17-1.221,0.497C115.451,43.124,115.28,43.55,115.28,44.011 M113.938,44.018
			c0,0.752-0.412,1.179-1.065,1.179c-0.632,0-1.029-0.455-1.029-1.25c0-0.703,0.391-1.107,1.022-1.107
			C113.506,42.84,113.938,43.302,113.938,44.018 M114.464,40.213h-0.54v2.797c-0.241-0.469-0.632-0.71-1.157-0.71
			c-0.888,0-1.498,0.646-1.498,1.711c0,1.036,0.61,1.71,1.519,1.71c0.49,0,0.902-0.255,1.15-0.709v0.575h0.525V40.213z
			 M107.798,45.587h0.54v-5.374h-0.54V45.587z M106.115,45.587h0.54v-5.374h-0.54V45.587z M104.511,44.032
			c0,0.731-0.397,1.15-1.037,1.15c-0.674,0-1.058-0.433-1.058-1.2c0-0.724,0.384-1.143,1.037-1.143
			C104.064,42.84,104.511,43.294,104.511,44.032 M105.037,42.414h-0.54v0.597c-0.242-0.469-0.632-0.71-1.165-0.71
			c-0.887,0-1.49,0.646-1.49,1.711c0,1.036,0.61,1.71,1.519,1.71c0.49,0,0.894-0.248,1.15-0.709v0.575h0.525V42.414z M101.289,46.95
			c-0.512-0.937-0.731-1.988-0.731-3.237c0-1.214,0.22-2.265,0.731-3.273l-0.37-0.17c-0.568,1.001-0.823,2.129-0.823,3.443
			c0,1.271,0.277,2.414,0.823,3.429L101.289,46.95z M94.828,45.055c0.249,0.447,0.661,0.667,1.25,0.667
			c0.703,0,1.157-0.418,1.157-1.008c0-0.518-0.306-0.745-0.923-0.944c-0.526-0.17-0.817-0.213-0.817-0.546
			c0-0.277,0.22-0.476,0.54-0.476c0.333,0,0.596,0.163,0.724,0.454l0.44-0.27c-0.17-0.405-0.582-0.632-1.129-0.632
			c-0.674,0-1.122,0.404-1.122,0.958c0,0.625,0.468,0.759,1.249,1.029c0.334,0.114,0.497,0.241,0.497,0.482
			c0,0.277-0.234,0.476-0.596,0.476c-0.362,0-0.632-0.164-0.809-0.504L94.828,45.055z M93.443,42.861v2.726h0.54v-2.726h0.596
			v-0.447h-0.596v-1.278h-0.54v1.278h-0.582v0.447H93.443z M89.44,45.587h0.539v-1.64c0-0.348,0-0.611,0.185-0.838
			c0.178-0.22,0.455-0.341,0.774-0.341c0.568,0,0.845,0.312,0.845,0.952v1.867h0.54v-2.158c0-0.717-0.455-1.128-1.193-1.128
			c-0.497,0-0.88,0.191-1.15,0.604v-0.49H89.44V45.587z M88.077,43.642h-1.931c0.057-0.539,0.447-0.873,0.965-0.873
			C87.686,42.769,88.041,43.081,88.077,43.642 M88.659,44.082v-0.106c0-1.051-0.597-1.683-1.527-1.683
			c-0.923,0-1.583,0.696-1.583,1.697c0,1.037,0.653,1.732,1.619,1.732c0.653,0,1.15-0.291,1.47-0.866l-0.412-0.277
			c-0.263,0.461-0.603,0.688-1.029,0.688c-0.611,0-1.051-0.447-1.051-1.136v-0.05H88.659z M84.044,40.887
			c0,0.228,0.178,0.397,0.397,0.397s0.397-0.17,0.397-0.39s-0.178-0.405-0.397-0.405S84.044,40.668,84.044,40.887 M84.172,45.587
			h0.54v-3.173h-0.54V45.587z M82.426,42.861v2.726h0.54v-2.726h0.596v-0.447h-0.596v-1.278h-0.54v1.278h-0.582v0.447H82.426z
			 M80.765,44.032c0,0.731-0.398,1.15-1.037,1.15c-0.674,0-1.058-0.433-1.058-1.2c0-0.724,0.384-1.143,1.037-1.143
			C80.317,42.84,80.765,43.294,80.765,44.032 M81.29,42.414h-0.539v0.597c-0.242-0.469-0.632-0.71-1.165-0.71
			c-0.887,0-1.491,0.646-1.491,1.711c0,1.036,0.61,1.71,1.519,1.71c0.49,0,0.895-0.248,1.15-0.709v0.575h0.525V42.414z
			 M74.837,44.011c0-0.752,0.412-1.186,1.065-1.186c0.631,0,1.029,0.454,1.029,1.249c0,0.703-0.39,1.115-1.022,1.115
			C75.27,45.19,74.837,44.728,74.837,44.011 M74.312,47.135h0.54v-2.123c0.241,0.468,0.631,0.709,1.157,0.709
			c0.887,0,1.498-0.639,1.498-1.71c0-1.044-0.611-1.711-1.519-1.711c-0.49,0-0.909,0.249-1.157,0.71v-0.597h-0.518V47.135z
			 M70.656,44.018c0,0.752-0.412,1.179-1.065,1.179c-0.632,0-1.029-0.455-1.029-1.25c0-0.703,0.391-1.107,1.022-1.107
			C70.223,42.84,70.656,43.302,70.656,44.018 M71.181,40.213h-0.539v2.797c-0.242-0.469-0.632-0.71-1.158-0.71
			c-0.887,0-1.498,0.646-1.498,1.711c0,1.036,0.61,1.71,1.52,1.71c0.49,0,0.901-0.255,1.15-0.709v0.575h0.525V40.213z
			 M66.865,43.642h-1.931c0.057-0.539,0.448-0.873,0.966-0.873C66.475,42.769,66.829,43.081,66.865,43.642 M67.447,44.082v-0.106
			c0-1.051-0.596-1.683-1.526-1.683c-0.923,0-1.583,0.696-1.583,1.697c0,1.037,0.653,1.732,1.619,1.732
			c0.653,0,1.15-0.291,1.469-0.866l-0.412-0.277c-0.262,0.461-0.604,0.688-1.029,0.688c-0.61,0-1.051-0.447-1.051-1.136v-0.05
			H67.447z M62.896,42.861v2.726h0.54v-2.726h0.597v-0.447h-0.597v-1.278h-0.54v1.278h-0.582v0.447H62.896z M61.235,44.032
			c0,0.731-0.397,1.15-1.037,1.15c-0.674,0-1.058-0.433-1.058-1.2c0-0.724,0.384-1.143,1.037-1.143
			C60.788,42.84,61.235,43.294,61.235,44.032 M61.761,42.414h-0.539v0.597c-0.242-0.469-0.632-0.71-1.165-0.71
			c-0.887,0-1.491,0.646-1.491,1.711c0,1.036,0.61,1.71,1.519,1.71c0.49,0,0.894-0.248,1.15-0.709v0.575h0.525V42.414z
			 M57.444,43.642h-1.931c0.057-0.539,0.447-0.873,0.965-0.873C57.054,42.769,57.409,43.081,57.444,43.642 M58.027,44.082v-0.106
			c0-1.051-0.597-1.683-1.526-1.683c-0.923,0-1.583,0.696-1.583,1.697c0,1.037,0.653,1.732,1.619,1.732
			c0.653,0,1.15-0.291,1.47-0.866l-0.412-0.277c-0.262,0.461-0.603,0.688-1.029,0.688c-0.61,0-1.051-0.447-1.051-1.136v-0.05H58.027
			z M52.745,45.587h0.54V44.04c0-0.831,0.284-1.243,0.859-1.243c0.099,0,0.213,0.021,0.333,0.064l0.185-0.49
			c-0.121-0.042-0.241-0.064-0.369-0.064c-0.483,0-0.781,0.228-1.065,0.767v-0.661h-0.483V45.587z M51.02,42.861v2.726h0.54v-2.726
			h0.596v-0.447H51.56v-1.278h-0.54v1.278h-0.582v0.447H51.02z M48.308,44.281h1.619v-0.547h-1.619V44.281z M46.113,41.046
			c0.344,0,0.513,0.091,0.513,0.307c0,0.261-0.153,0.327-0.513,0.327h-0.339v-0.633H46.113z M46.159,40.889h-0.617v1.709h0.231
			v-0.762h0.43l0.369,0.762h0.265l-0.385-0.795c0.253-0.029,0.41-0.207,0.41-0.443C46.862,41.03,46.631,40.889,46.159,40.889
			 M47.446,41.766c0,0.365-0.137,0.688-0.385,0.932c-0.261,0.256-0.6,0.397-0.948,0.397c-0.352,0-0.683-0.141-0.936-0.393
			c-0.252-0.252-0.393-0.584-0.393-0.936c0-0.351,0.141-0.687,0.397-0.947c0.244-0.249,0.571-0.386,0.931-0.386
			s0.691,0.137,0.948,0.394C47.309,41.075,47.446,41.406,47.446,41.766 M46.113,40.289c-0.401,0-0.761,0.148-1.035,0.426
			c-0.286,0.29-0.438,0.662-0.438,1.051c0,0.394,0.153,0.758,0.435,1.04c0.281,0.282,0.646,0.438,1.039,0.438
			c0.389,0,0.761-0.157,1.051-0.443c0.278-0.273,0.426-0.629,0.426-1.035c0-0.397-0.148-0.765-0.426-1.042
			C46.883,40.442,46.515,40.289,46.113,40.289 M43.369,44.032c0,0.731-0.397,1.15-1.037,1.15c-0.674,0-1.058-0.433-1.058-1.2
			c0-0.724,0.383-1.143,1.036-1.143C42.922,42.84,43.369,43.294,43.369,44.032 M43.895,42.414h-0.54v0.597
			c-0.242-0.469-0.632-0.71-1.165-0.71c-0.887,0-1.491,0.646-1.491,1.711c0,1.036,0.61,1.71,1.519,1.71
			c0.49,0,0.895-0.248,1.15-0.709v0.575h0.525V42.414z M39.159,40.887c0,0.228,0.178,0.397,0.397,0.397
			c0.22,0,0.397-0.17,0.397-0.39s-0.177-0.405-0.397-0.405C39.337,40.49,39.159,40.668,39.159,40.887 M39.287,45.587h0.54v-3.173
			h-0.54V45.587z M35.787,45.587h2.762v-0.476h-1.803l1.817-2.698h-2.662v0.476h1.704L35.787,45.587z M34.666,45.587h0.54v-2.158
			c0-0.717-0.426-1.128-1.129-1.128c-0.483,0-0.852,0.206-1.129,0.646c-0.185-0.426-0.554-0.646-1.065-0.646
			c-0.476,0-0.837,0.199-1.093,0.604v-0.49H30.25v3.173h0.539v-1.64c0-0.078-0.007-0.156-0.007-0.227
			c0-0.242,0.028-0.44,0.163-0.611c0.17-0.22,0.433-0.341,0.724-0.341c0.54,0,0.788,0.312,0.788,0.952v1.867h0.54v-1.64
			c0-0.071-0.007-0.135-0.007-0.199c0-0.263,0.035-0.461,0.17-0.639c0.171-0.22,0.426-0.341,0.717-0.341
			c0.54,0,0.788,0.312,0.788,0.952V45.587z M28.468,40.887c0,0.228,0.178,0.397,0.397,0.397c0.22,0,0.398-0.17,0.398-0.39
			s-0.178-0.405-0.398-0.405C28.646,40.49,28.468,40.668,28.468,40.887 M28.596,45.587h0.54v-3.173h-0.54V45.587z M27.63,41.725
			v-0.788c-0.525-0.362-1.064-0.546-1.668-0.546c-0.746,0-1.37,0.248-1.889,0.745c-0.532,0.519-0.795,1.15-0.795,1.938
			c0,0.901,0.405,1.668,1.143,2.179c0.44,0.305,0.958,0.468,1.498,0.468c0.618,0,1.207-0.191,1.71-0.554v-0.802
			c-0.461,0.54-1.022,0.802-1.661,0.802c-0.688,0-1.306-0.326-1.711-0.901c-0.234-0.333-0.348-0.731-0.348-1.2
			c0-0.596,0.191-1.093,0.582-1.498c0.376-0.39,0.916-0.618,1.448-0.618C26.601,40.951,27.14,41.193,27.63,41.725 M18.948,45.587
			h0.54V44.04c0-0.831,0.284-1.243,0.859-1.243c0.1,0,0.213,0.021,0.333,0.064l0.185-0.49c-0.121-0.042-0.241-0.064-0.369-0.064
			c-0.482,0-0.781,0.228-1.064,0.767v-0.661h-0.483V45.587z M15.257,44.011c0-0.675,0.511-1.2,1.15-1.2
			c0.632,0,1.143,0.525,1.143,1.2c0,0.674-0.511,1.2-1.143,1.2S15.257,44.686,15.257,44.011 M14.682,44.011
			c0,0.461,0.17,0.873,0.504,1.207c0.327,0.327,0.752,0.504,1.221,0.504c0.461,0,0.887-0.185,1.221-0.511
			c0.326-0.32,0.504-0.738,0.504-1.2c0-0.462-0.178-0.888-0.504-1.207c-0.334-0.327-0.752-0.504-1.221-0.504
			s-0.895,0.17-1.221,0.497C14.852,43.124,14.682,43.55,14.682,44.011 M13.063,45.587h0.54v-2.726h0.845v-0.447h-0.845v-0.845
			c0-0.61,0.014-0.901,0.419-0.901c0.142,0,0.284,0.035,0.426,0.113V40.22c-0.149-0.05-0.305-0.071-0.469-0.071
			c-0.759,0-0.916,0.397-0.916,1.349v0.916h-0.61v0.447h0.61V45.587z"/>
		<path clip-path="url(#SVGID_4_)" fill="#FFFFFF" d="M168.676,35.499c0,0.752-0.412,1.179-1.065,1.179
			c-0.632,0-1.03-0.455-1.03-1.25c0-0.703,0.392-1.107,1.023-1.107C168.242,34.321,168.676,34.782,168.676,35.499 M169.2,31.694
			h-0.539v2.797c-0.241-0.468-0.632-0.709-1.157-0.709c-0.888,0-1.498,0.646-1.498,1.711c0,1.036,0.61,1.711,1.52,1.711
			c0.49,0,0.901-0.256,1.15-0.71v0.575h0.524V31.694z M164.884,35.123h-1.931c0.057-0.54,0.447-0.874,0.965-0.874
			C164.494,34.25,164.849,34.562,164.884,35.123 M165.466,35.563v-0.106c0-1.051-0.596-1.683-1.526-1.683
			c-0.923,0-1.583,0.696-1.583,1.697c0,1.037,0.653,1.732,1.619,1.732c0.653,0,1.15-0.292,1.469-0.866l-0.412-0.277
			c-0.262,0.461-0.604,0.688-1.029,0.688c-0.61,0-1.051-0.447-1.051-1.136v-0.05H165.466z M160.916,34.342v2.726h0.54v-2.726h0.597
			v-0.447h-0.597v-1.278h-0.54v1.278h-0.582v0.447H160.916z M158.381,37.068h0.54v-1.547c0-0.831,0.284-1.243,0.859-1.243
			c0.099,0,0.212,0.021,0.333,0.064l0.185-0.49c-0.121-0.042-0.241-0.064-0.369-0.064c-0.483,0-0.781,0.228-1.065,0.767v-0.66
			h-0.483V37.068z M154.689,35.492c0-0.674,0.511-1.2,1.15-1.2c0.632,0,1.143,0.525,1.143,1.2s-0.511,1.2-1.143,1.2
			S154.689,36.167,154.689,35.492 M154.115,35.492c0,0.461,0.17,0.873,0.504,1.207c0.327,0.327,0.752,0.504,1.221,0.504
			c0.461,0,0.888-0.185,1.221-0.511c0.326-0.319,0.504-0.738,0.504-1.2s-0.178-0.888-0.504-1.207
			c-0.333-0.327-0.752-0.504-1.221-0.504s-0.895,0.17-1.221,0.497C154.285,34.605,154.115,35.031,154.115,35.492 M150.871,35.492
			c0-0.753,0.412-1.186,1.064-1.186c0.632,0,1.03,0.455,1.03,1.25c0,0.703-0.391,1.114-1.022,1.114
			C151.303,36.671,150.871,36.209,150.871,35.492 M150.345,38.616h0.54v-2.123c0.242,0.468,0.632,0.71,1.157,0.71
			c0.888,0,1.498-0.639,1.498-1.711c0-1.043-0.61-1.711-1.519-1.711c-0.49,0-0.909,0.249-1.157,0.709v-0.596h-0.519V38.616z
			 M148.982,35.123h-1.931c0.057-0.54,0.447-0.874,0.965-0.874C148.592,34.25,148.947,34.562,148.982,35.123 M149.564,35.563v-0.106
			c0-1.051-0.596-1.683-1.526-1.683c-0.922,0-1.583,0.696-1.583,1.697c0,1.037,0.653,1.732,1.619,1.732
			c0.653,0,1.15-0.292,1.47-0.866l-0.412-0.277c-0.263,0.461-0.604,0.688-1.03,0.688c-0.61,0-1.051-0.447-1.051-1.136v-0.05H149.564
			z M144.283,37.068h0.54v-1.547c0-0.831,0.284-1.243,0.859-1.243c0.099,0,0.213,0.021,0.334,0.064l0.185-0.49
			c-0.121-0.042-0.242-0.064-0.369-0.064c-0.483,0-0.781,0.228-1.065,0.767v-0.66h-0.482V37.068z M139.029,36.536
			c0.249,0.447,0.66,0.667,1.25,0.667c0.703,0,1.157-0.419,1.157-1.008c0-0.518-0.305-0.746-0.923-0.944
			c-0.525-0.171-0.816-0.213-0.816-0.547c0-0.277,0.22-0.476,0.539-0.476c0.334,0,0.597,0.163,0.725,0.454l0.44-0.27
			c-0.17-0.405-0.582-0.632-1.129-0.632c-0.674,0-1.121,0.404-1.121,0.958c0,0.625,0.468,0.76,1.249,1.03
			c0.333,0.113,0.497,0.241,0.497,0.482c0,0.277-0.234,0.476-0.596,0.476s-0.632-0.163-0.81-0.504L139.029,36.536z M137.645,34.342
			v2.726h0.54v-2.726h0.596v-0.447h-0.596v-1.278h-0.54v1.278h-0.582v0.447H137.645z M133.641,37.068h0.54v-1.64
			c0-0.348,0-0.61,0.185-0.838c0.178-0.22,0.455-0.341,0.774-0.341c0.568,0,0.844,0.312,0.844,0.952v1.867h0.54V34.91
			c0-0.717-0.455-1.129-1.193-1.129c-0.497,0-0.88,0.191-1.15,0.604v-0.49h-0.54V37.068z M132.278,35.123h-1.931
			c0.057-0.54,0.447-0.874,0.965-0.874C131.888,34.25,132.243,34.562,132.278,35.123 M132.86,35.563v-0.106
			c0-1.051-0.597-1.683-1.526-1.683c-0.923,0-1.583,0.696-1.583,1.697c0,1.037,0.653,1.732,1.619,1.732
			c0.653,0,1.15-0.292,1.47-0.866l-0.412-0.277c-0.263,0.461-0.604,0.688-1.03,0.688c-0.61,0-1.05-0.447-1.05-1.136v-0.05H132.86z
			 M127.919,37.267l1.562-3.373h-0.61l-0.958,2.215l-0.952-2.215h-0.61L127.919,37.267z M125.513,35.123h-1.931
			c0.057-0.54,0.447-0.874,0.965-0.874C125.122,34.25,125.477,34.562,125.513,35.123 M126.095,35.563v-0.106
			c0-1.051-0.597-1.683-1.526-1.683c-0.923,0-1.583,0.696-1.583,1.697c0,1.037,0.654,1.732,1.619,1.732
			c0.653,0,1.15-0.292,1.469-0.866l-0.412-0.277c-0.263,0.461-0.603,0.688-1.03,0.688c-0.61,0-1.05-0.447-1.05-1.136v-0.05H126.095z
			 M119.84,35.123h-1.931c0.057-0.54,0.447-0.874,0.965-0.874C119.45,34.25,119.805,34.562,119.84,35.123 M120.423,35.563v-0.106
			c0-1.051-0.596-1.683-1.526-1.683c-0.923,0-1.583,0.696-1.583,1.697c0,1.037,0.653,1.732,1.619,1.732
			c0.653,0,1.15-0.292,1.47-0.866l-0.412-0.277c-0.263,0.461-0.604,0.688-1.029,0.688c-0.61,0-1.051-0.447-1.051-1.136v-0.05
			H120.423z M114.403,36.536c0.249,0.447,0.66,0.667,1.25,0.667c0.703,0,1.157-0.419,1.157-1.008c0-0.518-0.305-0.746-0.923-0.944
			c-0.525-0.171-0.816-0.213-0.816-0.547c0-0.277,0.22-0.476,0.54-0.476c0.333,0,0.597,0.163,0.725,0.454l0.439-0.27
			c-0.17-0.405-0.582-0.632-1.128-0.632c-0.674,0-1.122,0.404-1.122,0.958c0,0.625,0.468,0.76,1.25,1.03
			c0.333,0.113,0.497,0.241,0.497,0.482c0,0.277-0.234,0.476-0.596,0.476c-0.362,0-0.631-0.163-0.809-0.504L114.403,36.536z
			 M112.287,37.068h0.54v-1.547c0-0.831,0.284-1.243,0.859-1.243c0.1,0,0.213,0.021,0.333,0.064l0.185-0.49
			c-0.12-0.042-0.241-0.064-0.369-0.064c-0.482,0-0.781,0.228-1.064,0.767v-0.66h-0.483V37.068z M110.917,35.123h-1.931
			c0.057-0.54,0.447-0.874,0.965-0.874C110.526,34.25,110.882,34.562,110.917,35.123 M111.499,35.563v-0.106
			c0-1.051-0.596-1.683-1.526-1.683c-0.923,0-1.583,0.696-1.583,1.697c0,1.037,0.653,1.732,1.619,1.732
			c0.653,0,1.15-0.292,1.47-0.866l-0.412-0.277c-0.263,0.461-0.604,0.688-1.03,0.688c-0.61,0-1.051-0.447-1.051-1.136v-0.05H111.499
			z M106.558,37.267l1.562-3.373h-0.61l-0.958,2.215l-0.951-2.215h-0.61L106.558,37.267z M103.917,35.499
			c0,0.752-0.412,1.179-1.065,1.179c-0.632,0-1.029-0.455-1.029-1.25c0-0.703,0.39-1.107,1.022-1.107
			C103.484,34.321,103.917,34.782,103.917,35.499 M104.442,31.694h-0.54v2.797c-0.241-0.468-0.632-0.709-1.157-0.709
			c-0.888,0-1.498,0.646-1.498,1.711c0,1.036,0.61,1.711,1.519,1.711c0.49,0,0.902-0.256,1.15-0.71v0.575h0.525V31.694z
			 M99.913,35.513c0,0.731-0.397,1.15-1.037,1.15c-0.674,0-1.058-0.433-1.058-1.199c0-0.725,0.383-1.143,1.037-1.143
			C99.466,34.321,99.913,34.775,99.913,35.513 M100.438,33.895h-0.539v0.596c-0.242-0.468-0.632-0.709-1.165-0.709
			c-0.887,0-1.491,0.646-1.491,1.711c0,1.036,0.61,1.711,1.519,1.711c0.49,0,0.895-0.249,1.15-0.71v0.575h0.525V33.895z
			 M92.239,36.536c0.249,0.447,0.661,0.667,1.25,0.667c0.703,0,1.157-0.419,1.157-1.008c0-0.518-0.305-0.746-0.922-0.944
			c-0.526-0.171-0.817-0.213-0.817-0.547c0-0.277,0.22-0.476,0.54-0.476c0.333,0,0.596,0.163,0.724,0.454l0.44-0.27
			c-0.171-0.405-0.583-0.632-1.129-0.632c-0.674,0-1.121,0.404-1.121,0.958c0,0.625,0.468,0.76,1.249,1.03
			c0.333,0.113,0.497,0.241,0.497,0.482c0,0.277-0.234,0.476-0.596,0.476s-0.632-0.163-0.81-0.504L92.239,36.536z M89.222,33.895
			h-0.54v1.896c0,0.93,0.504,1.413,1.427,1.413c0.951,0,1.448-0.497,1.448-1.456v-1.853h-0.539v1.562
			c0,0.837-0.199,1.228-0.895,1.228c-0.696,0-0.902-0.391-0.902-1.228V33.895z M85.041,35.492c0-0.674,0.511-1.2,1.15-1.2
			c0.632,0,1.143,0.525,1.143,1.2s-0.511,1.2-1.143,1.2S85.041,36.167,85.041,35.492 M84.466,35.492c0,0.461,0.17,0.873,0.504,1.207
			c0.327,0.327,0.753,0.504,1.221,0.504c0.461,0,0.887-0.185,1.221-0.511c0.327-0.319,0.504-0.738,0.504-1.2
			s-0.177-0.888-0.504-1.207c-0.334-0.327-0.753-0.504-1.221-0.504s-0.895,0.17-1.221,0.497
			C84.636,34.605,84.466,35.031,84.466,35.492 M82.939,32.369c0,0.227,0.178,0.397,0.397,0.397c0.22,0,0.397-0.17,0.397-0.391
			s-0.177-0.405-0.397-0.405C83.117,31.971,82.939,32.149,82.939,32.369 M83.067,37.068h0.539v-3.173h-0.539V37.068z M80.589,37.068
			h0.54v-1.547c0-0.831,0.284-1.243,0.859-1.243c0.099,0,0.213,0.021,0.333,0.064l0.185-0.49c-0.121-0.042-0.241-0.064-0.369-0.064
			c-0.482,0-0.781,0.228-1.065,0.767v-0.66h-0.483V37.068z M79.22,35.123h-1.931c0.057-0.54,0.447-0.874,0.965-0.874
			C78.829,34.25,79.184,34.562,79.22,35.123 M79.802,35.563v-0.106c0-1.051-0.597-1.683-1.526-1.683
			c-0.923,0-1.583,0.696-1.583,1.697c0,1.037,0.654,1.732,1.619,1.732c0.653,0,1.15-0.292,1.469-0.866l-0.412-0.277
			c-0.263,0.461-0.603,0.688-1.03,0.688c-0.61,0-1.05-0.447-1.05-1.136v-0.05H79.802z M73.782,36.536
			c0.248,0.447,0.66,0.667,1.25,0.667c0.703,0,1.157-0.419,1.157-1.008c0-0.518-0.305-0.746-0.923-0.944
			c-0.525-0.171-0.816-0.213-0.816-0.547c0-0.277,0.22-0.476,0.54-0.476c0.333,0,0.596,0.163,0.724,0.454l0.44-0.27
			c-0.17-0.405-0.582-0.632-1.129-0.632c-0.674,0-1.122,0.404-1.122,0.958c0,0.625,0.469,0.76,1.25,1.03
			c0.333,0.113,0.497,0.241,0.497,0.482c0,0.277-0.234,0.476-0.596,0.476s-0.632-0.163-0.809-0.504L73.782,36.536z M70.459,35.499
			c0,0.752-0.412,1.179-1.064,1.179c-0.632,0-1.03-0.455-1.03-1.25c0-0.703,0.391-1.107,1.022-1.107
			C70.026,34.321,70.459,34.782,70.459,35.499 M70.985,31.694h-0.54v2.797c-0.241-0.468-0.632-0.709-1.157-0.709
			c-0.887,0-1.498,0.646-1.498,1.711c0,1.036,0.61,1.711,1.519,1.711c0.49,0,0.902-0.256,1.15-0.71v0.575h0.526V31.694z
			 M64.112,37.068h0.54v-1.64c0-0.348,0-0.61,0.185-0.838c0.178-0.22,0.455-0.341,0.774-0.341c0.568,0,0.845,0.312,0.845,0.952
			v1.867h0.539V34.91c0-0.717-0.455-1.129-1.193-1.129c-0.497,0-0.88,0.191-1.15,0.604v-0.49h-0.54V37.068z M62.537,35.513
			c0,0.731-0.398,1.15-1.037,1.15c-0.675,0-1.058-0.433-1.058-1.199c0-0.725,0.383-1.143,1.037-1.143
			C62.089,34.321,62.537,34.775,62.537,35.513 M63.062,33.895h-0.54v0.596c-0.241-0.468-0.631-0.709-1.164-0.709
			c-0.887,0-1.491,0.646-1.491,1.711c0,1.036,0.611,1.711,1.52,1.711c0.49,0,0.895-0.249,1.15-0.71v0.575h0.525V33.895z
			 M54.863,36.536c0.249,0.447,0.66,0.667,1.249,0.667c0.703,0,1.158-0.419,1.158-1.008c0-0.518-0.306-0.746-0.923-0.944
			c-0.525-0.171-0.816-0.213-0.816-0.547c0-0.277,0.22-0.476,0.539-0.476c0.334,0,0.597,0.163,0.724,0.454l0.44-0.27
			c-0.17-0.405-0.583-0.632-1.129-0.632c-0.674,0-1.122,0.404-1.122,0.958c0,0.625,0.468,0.76,1.25,1.03
			c0.333,0.113,0.497,0.241,0.497,0.482c0,0.277-0.234,0.476-0.597,0.476c-0.362,0-0.632-0.163-0.809-0.504L54.863,36.536z
			 M53.478,34.342v2.726h0.54v-2.726h0.596v-0.447h-0.596v-1.278h-0.54v1.278h-0.582v0.447H53.478z M49.474,37.068h0.54v-1.64
			c0-0.348,0-0.61,0.185-0.838c0.177-0.22,0.454-0.341,0.773-0.341c0.568,0,0.845,0.312,0.845,0.952v1.867h0.539V34.91
			c0-0.717-0.454-1.129-1.192-1.129c-0.497,0-0.88,0.191-1.15,0.604v-0.49h-0.54V37.068z M48.111,35.123H46.18
			c0.057-0.54,0.447-0.874,0.965-0.874C47.721,34.25,48.076,34.562,48.111,35.123 M48.693,35.563v-0.106
			c0-1.051-0.596-1.683-1.526-1.683c-0.923,0-1.583,0.696-1.583,1.697c0,1.037,0.653,1.732,1.619,1.732
			c0.653,0,1.15-0.292,1.47-0.866L48.26,36.06c-0.262,0.461-0.603,0.688-1.029,0.688c-0.61,0-1.051-0.447-1.051-1.136v-0.05H48.693z
			 M43.752,37.267l1.562-3.373h-0.61l-0.958,2.215l-0.951-2.215h-0.61L43.752,37.267z M41.346,35.123h-1.931
			c0.057-0.54,0.447-0.874,0.966-0.874C40.956,34.25,41.31,34.562,41.346,35.123 M41.928,35.563v-0.106
			c0-1.051-0.596-1.683-1.526-1.683c-0.923,0-1.583,0.696-1.583,1.697c0,1.037,0.653,1.732,1.619,1.732
			c0.653,0,1.15-0.292,1.47-0.866l-0.412-0.277c-0.262,0.461-0.603,0.688-1.029,0.688c-0.61,0-1.051-0.447-1.051-1.136v-0.05H41.928
			z M35.673,35.123h-1.931c0.057-0.54,0.447-0.874,0.965-0.874C35.284,34.25,35.639,34.562,35.673,35.123 M36.256,35.563v-0.106
			c0-1.051-0.597-1.683-1.526-1.683c-0.923,0-1.583,0.696-1.583,1.697c0,1.037,0.653,1.732,1.619,1.732
			c0.653,0,1.15-0.292,1.469-0.866l-0.412-0.277c-0.263,0.461-0.603,0.688-1.03,0.688c-0.61,0-1.05-0.447-1.05-1.136v-0.05H36.256z
			 M30.236,36.536c0.249,0.447,0.66,0.667,1.25,0.667c0.703,0,1.157-0.419,1.157-1.008c0-0.518-0.305-0.746-0.923-0.944
			c-0.525-0.171-0.816-0.213-0.816-0.547c0-0.277,0.22-0.476,0.54-0.476c0.333,0,0.596,0.163,0.724,0.454l0.44-0.27
			c-0.171-0.405-0.583-0.632-1.129-0.632c-0.674,0-1.122,0.404-1.122,0.958c0,0.625,0.469,0.76,1.25,1.03
			c0.333,0.113,0.497,0.241,0.497,0.482c0,0.277-0.234,0.476-0.596,0.476c-0.362,0-0.632-0.163-0.81-0.504L30.236,36.536z
			 M28.121,37.068h0.54v-1.547c0-0.831,0.284-1.243,0.859-1.243c0.099,0,0.213,0.021,0.333,0.064l0.185-0.49
			c-0.121-0.042-0.241-0.064-0.369-0.064c-0.483,0-0.781,0.228-1.065,0.767v-0.66h-0.482V37.068z M26.75,35.123h-1.931
			c0.057-0.54,0.447-0.874,0.965-0.874C26.36,34.25,26.715,34.562,26.75,35.123 M27.333,35.563v-0.106
			c0-1.051-0.597-1.683-1.526-1.683c-0.923,0-1.583,0.696-1.583,1.697c0,1.037,0.653,1.732,1.619,1.732
			c0.653,0,1.15-0.292,1.469-0.866l-0.412-0.277c-0.263,0.461-0.604,0.688-1.029,0.688c-0.611,0-1.051-0.447-1.051-1.136v-0.05
			H27.333z M22.391,37.267l1.562-3.373h-0.61l-0.958,2.215l-0.951-2.215h-0.611L22.391,37.267z M19.75,35.499
			c0,0.752-0.412,1.179-1.065,1.179c-0.632,0-1.029-0.455-1.029-1.25c0-0.703,0.39-1.107,1.022-1.107
			C19.317,34.321,19.75,34.782,19.75,35.499 M20.276,31.694h-0.54v2.797c-0.241-0.468-0.632-0.709-1.157-0.709
			c-0.887,0-1.498,0.646-1.498,1.711c0,1.036,0.611,1.711,1.519,1.711c0.49,0,0.902-0.256,1.15-0.71v0.575h0.525V31.694z
			 M14.583,33.128l0.809,1.867h-1.619L14.583,33.128z M14.583,31.794l-2.3,5.274h0.653l0.661-1.555h1.98l0.66,1.555h0.653
			L14.583,31.794z"/>
		<path clip-path="url(#SVGID_4_)" fill="#FFFFFF" d="M62.922,18.294c0.271,0.56,0.743,0.823,1.461,0.823
			c0.966,0,1.509-0.463,1.509-1.182c0-0.535-0.303-0.838-0.95-1.094c-0.575-0.232-0.975-0.288-0.975-0.647
			c0-0.256,0.208-0.423,0.535-0.423c0.295,0,0.527,0.152,0.615,0.383l0.599-0.415c-0.184-0.384-0.599-0.607-1.182-0.607
			c-0.879,0-1.414,0.471-1.414,1.11c0,0.535,0.36,0.823,1.062,1.118c0.511,0.215,0.878,0.248,0.878,0.631
			c0,0.295-0.224,0.487-0.607,0.487c-0.447,0-0.727-0.2-0.83-0.567L62.922,18.294z M61.164,18.966h0.847V16.01h0.647v-0.743h-0.647
			V13.87h-0.847v1.398h-0.646v0.743h0.646V18.966z M56.309,18.966h0.847v-1.685c0-0.464,0.016-0.783,0.168-1.006
			c0.175-0.264,0.495-0.416,0.894-0.416c0.703,0,0.807,0.383,0.807,1.206v1.901h0.854v-2.245c0-0.447,0-0.783-0.184-1.062
			c-0.216-0.343-0.607-0.519-1.158-0.519c-0.647,0-1.086,0.215-1.429,0.734v-0.606h-0.799V18.966z M55.47,17.24v-0.16
			c0-1.229-0.703-1.94-1.893-1.94c-1.15,0-1.941,0.838-1.941,1.988c0,1.207,0.759,1.989,1.941,1.989
			c0.831,0,1.438-0.359,1.853-1.102l-0.711-0.399c-0.271,0.511-0.615,0.727-1.158,0.727c-0.615,0-1.006-0.408-1.046-1.103H55.47z
			 M54.592,16.673h-2.021c0.136-0.551,0.471-0.814,1.022-0.814C54.177,15.859,54.528,16.138,54.592,16.673 M49.48,19.189
			l1.941-3.921h-0.918l-0.807,1.86c-0.096,0.224-0.168,0.447-0.216,0.671c-0.088-0.344-0.16-0.567-0.208-0.671l-0.807-1.86H47.54
			L49.48,19.189z M44.042,18.966h3.187v-0.831h-2.26V16.29h2.26v-0.814h-2.26v-1.43h2.26v-0.791h-3.187V18.966z M40.759,17.24v-0.16
			c0-1.229-0.703-1.94-1.893-1.94c-1.15,0-1.94,0.838-1.94,1.988c0,1.207,0.759,1.989,1.94,1.989c0.831,0,1.438-0.359,1.853-1.102
			l-0.711-0.399c-0.271,0.511-0.615,0.727-1.158,0.727c-0.615,0-1.006-0.408-1.046-1.103H40.759z M39.88,16.673H37.86
			c0.136-0.551,0.472-0.814,1.022-0.814C39.465,15.859,39.817,16.138,39.88,16.673 M33.412,18.294
			c0.271,0.56,0.743,0.823,1.461,0.823c0.966,0,1.509-0.463,1.509-1.182c0-0.535-0.303-0.838-0.95-1.094
			c-0.575-0.232-0.974-0.288-0.974-0.647c0-0.256,0.208-0.423,0.535-0.423c0.295,0,0.527,0.152,0.615,0.383l0.599-0.415
			c-0.184-0.384-0.599-0.607-1.182-0.607c-0.878,0-1.414,0.471-1.414,1.11c0,0.535,0.359,0.823,1.062,1.118
			c0.511,0.215,0.878,0.248,0.878,0.631c0,0.295-0.224,0.487-0.607,0.487c-0.447,0-0.727-0.2-0.831-0.567L33.412,18.294z
			 M31.782,15.859V15.26h-0.847v3.706h0.847v-1.622c0-0.999,0.192-1.47,0.791-1.47c0.192,0,0.36,0.04,0.52,0.152l0.303-0.719
			c-0.224-0.112-0.455-0.167-0.695-0.167C32.253,15.14,31.966,15.371,31.782,15.859 M30.097,17.24v-0.16
			c0-1.229-0.703-1.94-1.893-1.94c-1.15,0-1.94,0.838-1.94,1.988c0,1.207,0.758,1.989,1.94,1.989c0.831,0,1.438-0.359,1.853-1.102
			l-0.711-0.399c-0.271,0.511-0.615,0.727-1.158,0.727c-0.615,0-1.006-0.408-1.046-1.103H30.097z M29.219,16.673h-2.021
			c0.136-0.551,0.471-0.814,1.022-0.814C28.803,15.859,29.155,16.138,29.219,16.673 M24.107,19.189l1.941-3.921H25.13l-0.807,1.86
			c-0.096,0.224-0.168,0.447-0.216,0.671c-0.087-0.344-0.16-0.567-0.208-0.671l-0.807-1.86h-0.926L24.107,19.189z M20.857,17.104
			c0,0.783-0.439,1.262-1.03,1.262c-0.639,0-1.014-0.439-1.014-1.23c0-0.783,0.392-1.246,1.03-1.246
			C20.474,15.89,20.857,16.33,20.857,17.104 M20.833,12.92v2.955c-0.2-0.471-0.639-0.734-1.246-0.734
			c-0.975,0-1.662,0.783-1.662,1.973c0,1.262,0.655,2.004,1.686,2.004c0.519,0,0.918-0.208,1.222-0.631v0.479h0.847V12.92H20.833z
			 M14.228,16.721l0.583-1.302c0.064-0.151,0.136-0.359,0.208-0.647c0.08,0.288,0.151,0.496,0.215,0.647l0.583,1.302H14.228z
			 M16.792,18.966h0.982l-2.764-5.934l-2.763,5.934h0.974l0.663-1.47h2.26L16.792,18.966z"/>
		<path clip-path="url(#SVGID_4_)" fill="#808285" d="M62.508,90.69c0.249,0.447,0.661,0.667,1.25,0.667
			c0.703,0,1.157-0.419,1.157-1.009c0-0.518-0.305-0.744-0.923-0.943c-0.525-0.17-0.816-0.213-0.816-0.547
			c0-0.277,0.22-0.476,0.54-0.476c0.333,0,0.597,0.163,0.724,0.454l0.44-0.27c-0.17-0.404-0.582-0.631-1.129-0.631
			c-0.674,0-1.121,0.404-1.121,0.958c0,0.624,0.468,0.759,1.249,1.028c0.334,0.114,0.497,0.242,0.497,0.483
			c0,0.276-0.234,0.476-0.596,0.476c-0.362,0-0.632-0.163-0.81-0.504L62.508,90.69z M58.923,91.222h0.54v-1.64
			c0-0.348,0-0.611,0.185-0.838c0.178-0.22,0.455-0.341,0.774-0.341c0.568,0,0.845,0.312,0.845,0.951v1.867h0.54v-2.159
			c0-0.716-0.454-1.127-1.192-1.127c-0.497,0-0.88,0.191-1.15,0.603v-0.489h-0.54V91.222z M55.238,89.646
			c0-0.675,0.512-1.2,1.15-1.2c0.631,0,1.143,0.525,1.143,1.2s-0.512,1.2-1.143,1.2C55.757,90.846,55.238,90.321,55.238,89.646
			 M54.664,89.646c0,0.462,0.17,0.874,0.504,1.207c0.327,0.327,0.752,0.504,1.221,0.504c0.461,0,0.887-0.185,1.221-0.511
			c0.327-0.32,0.504-0.738,0.504-1.2s-0.177-0.888-0.504-1.206c-0.333-0.327-0.752-0.504-1.221-0.504
			c-0.469,0-0.895,0.17-1.221,0.496C54.834,88.758,54.664,89.184,54.664,89.646 M53.137,86.522c0,0.229,0.177,0.398,0.397,0.398
			s0.397-0.17,0.397-0.391s-0.177-0.404-0.397-0.404S53.137,86.302,53.137,86.522 M53.265,91.222h0.54v-3.173h-0.54V91.222z
			 M51.519,88.496v2.726h0.54v-2.726h0.596v-0.447h-0.596V86.77h-0.54v1.279h-0.583v0.447H51.519z M50.717,90.469
			c-0.333,0.242-0.639,0.362-0.979,0.362c-0.661,0-1.136-0.511-1.136-1.149c0-0.754,0.483-1.222,1.179-1.222
			c0.312,0,0.61,0.1,0.88,0.276v-0.582c-0.292-0.142-0.632-0.219-0.987-0.219c-0.952,0-1.654,0.695-1.654,1.731
			c0,1.001,0.646,1.689,1.633,1.689c0.412,0,0.774-0.085,1.065-0.255V90.469z M46.918,89.277h-1.931
			c0.057-0.54,0.447-0.873,0.965-0.873C46.528,88.404,46.883,88.716,46.918,89.277 M47.501,89.717V89.61
			c0-1.05-0.597-1.682-1.526-1.682c-0.923,0-1.583,0.695-1.583,1.697c0,1.035,0.653,1.731,1.619,1.731
			c0.653,0,1.15-0.291,1.469-0.866l-0.412-0.277c-0.263,0.463-0.604,0.689-1.029,0.689c-0.611,0-1.051-0.447-1.051-1.137v-0.049
			H47.501z M42.794,91.222h0.54v-2.726h0.845v-0.447h-0.845v-0.846c0-0.61,0.014-0.901,0.419-0.901c0.142,0,0.284,0.036,0.426,0.114
			v-0.562c-0.149-0.05-0.305-0.071-0.468-0.071c-0.76,0-0.916,0.397-0.916,1.35v0.916h-0.61v0.447h0.61V91.222z M38.733,91.222h0.54
			v-1.64c0-0.348,0-0.611,0.185-0.838c0.177-0.22,0.454-0.341,0.773-0.341c0.568,0,0.845,0.312,0.845,0.951v1.867h0.54v-2.159
			c0-0.716-0.455-1.127-1.193-1.127c-0.497,0-0.88,0.191-1.15,0.603v-0.489h-0.54V91.222z M36.952,86.522
			c0,0.229,0.177,0.398,0.397,0.398c0.22,0,0.397-0.17,0.397-0.391s-0.178-0.404-0.397-0.404
			C37.129,86.125,36.952,86.302,36.952,86.522 M37.079,91.222h0.54v-3.173h-0.54V91.222z M31.805,90.69
			c0.249,0.447,0.66,0.667,1.249,0.667c0.703,0,1.157-0.419,1.157-1.009c0-0.518-0.305-0.744-0.923-0.943
			c-0.525-0.17-0.816-0.213-0.816-0.547c0-0.277,0.22-0.476,0.54-0.476c0.333,0,0.597,0.163,0.724,0.454l0.44-0.27
			c-0.17-0.404-0.582-0.631-1.128-0.631c-0.674,0-1.122,0.404-1.122,0.958c0,0.624,0.468,0.759,1.25,1.028
			c0.333,0.114,0.497,0.242,0.497,0.483c0,0.276-0.234,0.476-0.596,0.476c-0.362,0-0.632-0.163-0.809-0.504L31.805,90.69z
			 M28.787,88.049h-0.54v1.895c0,0.93,0.504,1.413,1.427,1.413c0.951,0,1.448-0.497,1.448-1.455v-1.853h-0.54v1.561
			c0,0.839-0.199,1.229-0.895,1.229s-0.902-0.39-0.902-1.229V88.049z M24.606,89.646c0-0.675,0.511-1.2,1.15-1.2
			c0.632,0,1.143,0.525,1.143,1.2s-0.511,1.2-1.143,1.2S24.606,90.321,24.606,89.646 M24.031,89.646c0,0.462,0.17,0.874,0.504,1.207
			c0.327,0.327,0.753,0.504,1.221,0.504c0.461,0,0.887-0.185,1.221-0.511c0.327-0.32,0.504-0.738,0.504-1.2
			s-0.177-0.888-0.504-1.206c-0.334-0.327-0.752-0.504-1.221-0.504c-0.468,0-0.895,0.17-1.221,0.496
			C24.202,88.758,24.031,89.184,24.031,89.646 M22.505,86.522c0,0.229,0.178,0.398,0.397,0.398c0.22,0,0.398-0.17,0.398-0.391
			s-0.178-0.404-0.398-0.404C22.683,86.125,22.505,86.302,22.505,86.522 M22.633,91.222h0.54v-3.173h-0.54V91.222z M20.155,91.222
			h0.54v-1.548c0-0.83,0.284-1.242,0.859-1.242c0.1,0,0.213,0.021,0.333,0.064l0.185-0.49c-0.121-0.043-0.241-0.064-0.369-0.064
			c-0.482,0-0.781,0.228-1.065,0.768v-0.66h-0.483V91.222z M18.785,89.277h-1.931c0.057-0.54,0.447-0.873,0.965-0.873
			C18.395,88.404,18.75,88.716,18.785,89.277 M19.367,89.717V89.61c0-1.05-0.596-1.682-1.526-1.682
			c-0.923,0-1.583,0.695-1.583,1.697c0,1.035,0.653,1.731,1.619,1.731c0.653,0,1.15-0.291,1.469-0.866l-0.412-0.277
			c-0.263,0.463-0.604,0.689-1.029,0.689c-0.611,0-1.051-0.447-1.051-1.137v-0.049H19.367z M14.824,88.404L14.1,88.084
			c-0.461-0.206-0.682-0.455-0.682-0.816c0-0.434,0.319-0.738,0.774-0.738c0.362,0,0.639,0.198,0.859,0.582l0.497-0.319
			c-0.249-0.505-0.703-0.767-1.313-0.767c-0.845,0-1.427,0.539-1.427,1.249c0,0.618,0.326,1.058,1.001,1.342l0.618,0.263
			c0.525,0.227,0.788,0.561,0.788,1.016c0,0.554-0.404,0.943-1.015,0.943c-0.511,0-0.859-0.318-1.008-0.937l-0.547,0.27
			c0.192,0.753,0.752,1.179,1.555,1.179c0.98,0,1.626-0.625,1.626-1.555C15.825,89.156,15.484,88.694,14.824,88.404"/>
		<path clip-path="url(#SVGID_4_)" fill="#808285" d="M47.316,126.186c0.249,0.447,0.66,0.666,1.249,0.666
			c0.703,0,1.157-0.418,1.157-1.008c0-0.518-0.305-0.744-0.923-0.943c-0.525-0.17-0.816-0.213-0.816-0.547
			c0-0.277,0.22-0.476,0.54-0.476c0.333,0,0.597,0.163,0.724,0.454l0.44-0.27c-0.17-0.404-0.582-0.632-1.128-0.632
			c-0.674,0-1.122,0.405-1.122,0.958c0,0.625,0.469,0.76,1.25,1.029c0.333,0.113,0.497,0.242,0.497,0.482
			c0,0.277-0.234,0.477-0.596,0.477s-0.632-0.164-0.809-0.504L47.316,126.186z M45.868,122.018c0,0.228,0.177,0.397,0.397,0.397
			c0.22,0,0.397-0.17,0.397-0.39c0-0.221-0.178-0.404-0.397-0.404C46.045,121.621,45.868,121.798,45.868,122.018 M45.996,126.718
			h0.54v-3.173h-0.54V126.718z M42.78,126.186c0.249,0.447,0.66,0.666,1.25,0.666c0.703,0,1.157-0.418,1.157-1.008
			c0-0.518-0.306-0.744-0.923-0.943c-0.525-0.17-0.816-0.213-0.816-0.547c0-0.277,0.22-0.476,0.54-0.476
			c0.333,0,0.596,0.163,0.724,0.454l0.44-0.27c-0.17-0.404-0.582-0.632-1.129-0.632c-0.674,0-1.122,0.405-1.122,0.958
			c0,0.625,0.469,0.76,1.25,1.029c0.333,0.113,0.497,0.242,0.497,0.482c0,0.277-0.234,0.477-0.596,0.477
			c-0.362,0-0.632-0.164-0.81-0.504L42.78,126.186z M39.429,125.142c0-0.675,0.511-1.2,1.15-1.2c0.632,0,1.143,0.525,1.143,1.2
			s-0.511,1.2-1.143,1.2S39.429,125.817,39.429,125.142 M38.854,125.142c0,0.462,0.17,0.874,0.504,1.207
			c0.327,0.326,0.752,0.503,1.221,0.503c0.461,0,0.887-0.184,1.221-0.51c0.326-0.32,0.504-0.738,0.504-1.2s-0.178-0.888-0.504-1.207
			c-0.334-0.327-0.752-0.504-1.221-0.504s-0.895,0.17-1.221,0.497C39.024,124.254,38.854,124.68,38.854,125.142 M37.456,126.718
			h0.539v-5.374h-0.539V126.718z M34.076,123.545h-0.54v1.895c0,0.93,0.504,1.412,1.427,1.412c0.952,0,1.448-0.496,1.448-1.455
			v-1.852h-0.539v1.561c0,0.838-0.199,1.229-0.895,1.229c-0.695,0-0.901-0.391-0.901-1.229V123.545z M32.862,125.965
			c-0.334,0.242-0.639,0.362-0.98,0.362c-0.66,0-1.136-0.511-1.136-1.149c0-0.754,0.483-1.222,1.179-1.222
			c0.312,0,0.61,0.1,0.88,0.276v-0.582c-0.291-0.142-0.632-0.22-0.987-0.22c-0.951,0-1.654,0.696-1.654,1.731
			c0,1.002,0.646,1.689,1.633,1.689c0.412,0,0.774-0.084,1.065-0.254V125.965z M27.978,126.718h0.54v-1.548
			c0-0.831,0.284-1.242,0.859-1.242c0.1,0,0.212,0.021,0.333,0.064l0.185-0.49c-0.121-0.043-0.242-0.064-0.369-0.064
			c-0.482,0-0.781,0.228-1.065,0.768v-0.66h-0.483V126.718z M26.608,124.773h-1.931c0.057-0.54,0.447-0.873,0.965-0.873
			C26.218,123.9,26.573,124.212,26.608,124.773 M27.19,125.213v-0.107c0-1.05-0.596-1.682-1.526-1.682
			c-0.923,0-1.583,0.695-1.583,1.696c0,1.036,0.653,1.731,1.619,1.731c0.653,0,1.15-0.29,1.469-0.865l-0.412-0.277
			c-0.263,0.462-0.604,0.689-1.029,0.689c-0.611,0-1.051-0.447-1.051-1.137v-0.049H27.19z M20.851,125.149
			c0-0.717,0.44-1.179,1.079-1.179c0.632,0,1.022,0.405,1.022,1.108c0,0.795-0.405,1.249-1.037,1.249
			C21.263,126.327,20.851,125.901,20.851,125.149 M20.333,121.344v5.374h0.519v-0.575c0.249,0.455,0.667,0.709,1.157,0.709
			c0.909,0,1.52-0.674,1.52-1.71c0-1.065-0.611-1.711-1.498-1.711c-0.525,0-0.916,0.241-1.157,0.71v-2.797H20.333z M16.982,123.545
			h-0.54v1.895c0,0.93,0.504,1.412,1.427,1.412c0.951,0,1.448-0.496,1.448-1.455v-1.852h-0.54v1.561
			c0,0.838-0.199,1.229-0.895,1.229s-0.901-0.391-0.901-1.229V123.545z M13.865,126.718h0.604v-4.501h1.434v-0.576h-3.472v0.576
			h1.434V126.718z"/>
		<path clip-path="url(#SVGID_4_)" fill="#808285" d="M53.742,107.504h0.248v-2.459h0.729v-0.231H53.99v-1.167h-0.248v1.167h-0.729
			v0.231h0.729V107.504z M50.177,108.438c0.249,0.447,0.66,0.666,1.25,0.666c0.703,0,1.157-0.418,1.157-1.008
			c0-0.518-0.305-0.744-0.923-0.943c-0.525-0.17-0.817-0.213-0.817-0.547c0-0.277,0.22-0.476,0.54-0.476
			c0.333,0,0.596,0.163,0.724,0.454l0.44-0.27c-0.17-0.404-0.582-0.631-1.129-0.631c-0.674,0-1.122,0.404-1.122,0.957
			c0,0.625,0.469,0.76,1.25,1.029c0.334,0.114,0.497,0.242,0.497,0.483c0,0.276-0.234,0.476-0.596,0.476
			c-0.362,0-0.632-0.164-0.81-0.504L50.177,108.438z M49.148,107.025h-1.931c0.057-0.54,0.447-0.873,0.965-0.873
			C48.757,106.152,49.112,106.464,49.148,107.025 M49.73,107.465v-0.107c0-1.05-0.597-1.682-1.526-1.682
			c-0.923,0-1.583,0.695-1.583,1.697c0,1.035,0.653,1.73,1.619,1.73c0.653,0,1.149-0.29,1.469-0.865l-0.412-0.277
			c-0.263,0.462-0.604,0.689-1.03,0.689c-0.61,0-1.05-0.447-1.05-1.137v-0.049H49.73z M45.116,104.27
			c0,0.229,0.177,0.397,0.397,0.397s0.397-0.169,0.397-0.39s-0.177-0.404-0.397-0.404S45.116,104.05,45.116,104.27 M45.243,108.97
			h0.54v-3.173h-0.54V108.97z M44.498,108.217c-0.334,0.242-0.639,0.362-0.98,0.362c-0.66,0-1.136-0.511-1.136-1.149
			c0-0.754,0.482-1.222,1.179-1.222c0.312,0,0.61,0.1,0.88,0.276v-0.582c-0.291-0.142-0.632-0.219-0.987-0.219
			c-0.951,0-1.654,0.695-1.654,1.73c0,1.002,0.646,1.689,1.633,1.689c0.412,0,0.773-0.084,1.065-0.254V108.217z M38.144,108.97h0.54
			v-1.64c0-0.348,0-0.611,0.185-0.838c0.177-0.221,0.454-0.341,0.774-0.341c0.568,0,0.845,0.312,0.845,0.951v1.867h0.54v-2.159
			c0-0.716-0.455-1.127-1.193-1.127c-0.497,0-0.88,0.191-1.15,0.603v-0.489h-0.54V108.97z M36.568,107.414
			c0,0.732-0.397,1.151-1.036,1.151c-0.675,0-1.058-0.434-1.058-1.2c0-0.725,0.383-1.144,1.037-1.144
			C36.121,106.222,36.568,106.676,36.568,107.414 M37.093,105.797h-0.54v0.596c-0.241-0.469-0.632-0.709-1.164-0.709
			c-0.887,0-1.491,0.645-1.491,1.71c0,1.036,0.611,1.71,1.52,1.71c0.49,0,0.895-0.248,1.15-0.709v0.575h0.525V105.797z
			 M30.221,108.97h0.54v-1.64c0-0.348,0-0.611,0.185-0.838c0.178-0.221,0.455-0.341,0.774-0.341c0.568,0,0.845,0.312,0.845,0.951
			v1.867h0.54v-2.159c0-0.716-0.454-1.127-1.193-1.127c-0.497,0-0.88,0.191-1.15,0.603v-0.489h-0.54V108.97z M28.631,107.394
			c0,0.731-0.397,1.157-1.036,1.157c-0.675,0-1.058-0.434-1.058-1.199c0-0.725,0.383-1.144,1.036-1.144
			C28.184,106.208,28.631,106.656,28.631,107.394 M29.171,105.797h-0.554v0.589c-0.234-0.462-0.639-0.702-1.164-0.702
			c-0.887,0-1.491,0.631-1.491,1.689c0,1.028,0.61,1.695,1.519,1.695c0.49,0,0.902-0.248,1.15-0.703v0.533
			c0,0.291-0.014,0.525-0.135,0.725c-0.163,0.277-0.476,0.419-0.909,0.419c-0.61,0-0.944-0.277-0.944-0.745v-0.043h-0.61
			c0.021,0.795,0.575,1.264,1.548,1.264c0.561,0,0.987-0.164,1.278-0.476c0.298-0.319,0.312-0.675,0.312-1.13V105.797z
			 M24.422,104.27c0,0.229,0.177,0.397,0.397,0.397s0.397-0.169,0.397-0.39s-0.177-0.404-0.397-0.404S24.422,104.05,24.422,104.27
			 M24.549,108.97h0.54v-3.173h-0.54V108.97z M22.867,108.97h0.539v-5.374h-0.539V108.97z M21.263,107.414
			c0,0.732-0.398,1.151-1.037,1.151c-0.674,0-1.058-0.434-1.058-1.2c0-0.725,0.383-1.144,1.037-1.144
			C20.815,106.222,21.263,106.676,21.263,107.414 M21.788,105.797h-0.54v0.596c-0.241-0.469-0.632-0.709-1.165-0.709
			c-0.887,0-1.491,0.645-1.491,1.71c0,1.036,0.611,1.71,1.519,1.71c0.49,0,0.895-0.248,1.15-0.709v0.575h0.525V105.797z
			 M15.342,109.168l1.569-3.648l0.646,3.45h0.589l-1.029-5.274l-1.775,4.195l-1.775-4.195l-1.029,5.274h0.589l0.639-3.45
			L15.342,109.168z"/>
		<path clip-path="url(#SVGID_4_)" fill="#808285" d="M33.423,158.107l-0.194,0.552h-0.53l0.19-0.552H33.423z M33.319,156.906
			h-0.294l-0.339,0.953h-0.695l-0.086,0.247h0.691l-0.194,0.552h-0.646l-0.086,0.248h0.646l-0.335,0.943h0.289l0.339-0.943h0.534
			l-0.339,0.943h0.294l0.335-0.943h0.67l0.087-0.248h-0.667l0.19-0.552h0.629l0.087-0.247h-0.621l0.331-0.953h-0.29l-0.339,0.953
			h-0.525L33.319,156.906z M28.404,162.213h2.676v-0.561h-2.073v-1.945h2.073v-0.561h-2.073v-1.455h2.073v-0.554h-2.676V162.213z
			 M27.411,158.352v-0.788c-0.525-0.362-1.065-0.546-1.668-0.546c-0.746,0-1.37,0.248-1.888,0.745
			c-0.533,0.519-0.795,1.149-0.795,1.938c0,0.901,0.405,1.669,1.143,2.18c0.44,0.306,0.958,0.469,1.498,0.469
			c0.618,0,1.207-0.192,1.711-0.554v-0.803c-0.462,0.539-1.022,0.803-1.661,0.803c-0.689,0-1.307-0.326-1.711-0.902
			c-0.234-0.333-0.348-0.73-0.348-1.199c0-0.596,0.192-1.094,0.582-1.498c0.376-0.391,0.916-0.617,1.449-0.617
			C26.381,157.578,26.92,157.82,27.411,158.352 M20.496,158.274l0.81,1.867h-1.619L20.496,158.274z M20.496,156.94l-2.3,5.273h0.653
			l0.661-1.555h1.98l0.66,1.555h0.653L20.496,156.94z M15.342,162.412l1.569-3.648l0.646,3.449h0.589l-1.029-5.273l-1.775,4.195
			l-1.775-4.195l-1.029,5.273h0.589l0.639-3.449L15.342,162.412z"/>
		<path clip-path="url(#SVGID_4_)" fill="#808285" d="M155.79,145.828l0.37,0.191c0.546-1.015,0.823-2.157,0.823-3.428
			c0-1.313-0.256-2.442-0.823-3.443l-0.37,0.17c0.511,1.009,0.731,2.059,0.731,3.273
			C156.521,143.841,156.301,144.892,155.79,145.828 M152.879,143.934c0.249,0.447,0.66,0.667,1.25,0.667
			c0.703,0,1.157-0.419,1.157-1.009c0-0.518-0.305-0.744-0.923-0.943c-0.525-0.17-0.817-0.213-0.817-0.547
			c0-0.277,0.22-0.476,0.54-0.476c0.333,0,0.596,0.163,0.724,0.454l0.44-0.27c-0.171-0.404-0.583-0.633-1.129-0.633
			c-0.675,0-1.122,0.405-1.122,0.959c0,0.625,0.469,0.76,1.25,1.029c0.334,0.113,0.497,0.242,0.497,0.482
			c0,0.277-0.234,0.477-0.596,0.477s-0.632-0.164-0.81-0.504L152.879,143.934z M151.431,139.766c0,0.228,0.178,0.397,0.398,0.397
			c0.22,0,0.397-0.17,0.397-0.39c0-0.221-0.178-0.404-0.397-0.404C151.608,139.369,151.431,139.546,151.431,139.766
			 M151.559,144.465h0.54v-3.172h-0.54V144.465z M148.343,143.934c0.248,0.447,0.66,0.667,1.25,0.667
			c0.703,0,1.157-0.419,1.157-1.009c0-0.518-0.305-0.744-0.923-0.943c-0.525-0.17-0.816-0.213-0.816-0.547
			c0-0.277,0.22-0.476,0.54-0.476c0.333,0,0.597,0.163,0.724,0.454l0.44-0.27c-0.17-0.404-0.582-0.633-1.129-0.633
			c-0.674,0-1.122,0.405-1.122,0.959c0,0.625,0.469,0.76,1.25,1.029c0.333,0.113,0.497,0.242,0.497,0.482
			c0,0.277-0.235,0.477-0.597,0.477s-0.631-0.164-0.809-0.504L148.343,143.934z M144.992,142.89c0-0.675,0.511-1.2,1.15-1.2
			c0.632,0,1.143,0.525,1.143,1.2s-0.511,1.2-1.143,1.2S144.992,143.565,144.992,142.89 M144.417,142.89
			c0,0.462,0.171,0.873,0.504,1.206c0.327,0.327,0.752,0.505,1.221,0.505c0.462,0,0.887-0.185,1.221-0.511
			c0.327-0.32,0.503-0.738,0.503-1.2s-0.177-0.888-0.503-1.207c-0.334-0.327-0.753-0.505-1.221-0.505
			c-0.469,0-0.894,0.172-1.221,0.498C144.588,142.002,144.417,142.428,144.417,142.89 M143.019,144.465h0.54v-5.373h-0.54V144.465z
			 M139.639,141.293H139.1v1.895c0,0.93,0.504,1.413,1.427,1.413c0.952,0,1.448-0.497,1.448-1.456v-1.852h-0.54v1.561
			c0,0.838-0.199,1.229-0.895,1.229s-0.902-0.391-0.902-1.229V141.293z M138.426,143.713c-0.334,0.242-0.639,0.362-0.98,0.362
			c-0.66,0-1.136-0.511-1.136-1.149c0-0.754,0.482-1.222,1.178-1.222c0.312,0,0.611,0.099,0.88,0.276v-0.582
			c-0.291-0.142-0.632-0.221-0.987-0.221c-0.951,0-1.654,0.697-1.654,1.732c0,1.002,0.646,1.69,1.633,1.69
			c0.412,0,0.773-0.085,1.065-0.255V143.713z M133.541,144.465h0.54v-1.547c0-0.83,0.284-1.242,0.859-1.242
			c0.099,0,0.213,0.021,0.333,0.064l0.185-0.49c-0.121-0.043-0.241-0.064-0.369-0.064c-0.483,0-0.781,0.227-1.065,0.767v-0.659
			h-0.483V144.465z M132.171,142.521h-1.931c0.057-0.54,0.447-0.873,0.965-0.873C131.781,141.648,132.135,141.959,132.171,142.521
			 M132.753,142.961v-0.107c0-1.051-0.597-1.682-1.526-1.682c-0.923,0-1.583,0.695-1.583,1.696c0,1.036,0.653,1.732,1.618,1.732
			c0.653,0,1.15-0.291,1.47-0.866l-0.412-0.277c-0.262,0.462-0.603,0.689-1.029,0.689c-0.61,0-1.051-0.447-1.051-1.137v-0.049
			H132.753z M126.414,142.897c0-0.717,0.44-1.178,1.079-1.178c0.632,0,1.022,0.404,1.022,1.107c0,0.795-0.405,1.249-1.037,1.249
			C126.825,144.075,126.414,143.649,126.414,142.897 M125.896,139.092v5.373h0.518v-0.574c0.249,0.455,0.667,0.71,1.157,0.71
			c0.909,0,1.52-0.675,1.52-1.711c0-1.065-0.611-1.712-1.498-1.712c-0.525,0-0.916,0.242-1.157,0.711v-2.797H125.896z
			 M122.545,141.293h-0.54v1.895c0,0.93,0.504,1.413,1.427,1.413c0.951,0,1.448-0.497,1.448-1.456v-1.852h-0.54v1.561
			c0,0.838-0.199,1.229-0.895,1.229s-0.901-0.391-0.901-1.229V141.293z M120.33,141.74v2.725h0.54v-2.725h0.596v-0.447h-0.596
			v-1.279h-0.54v1.279h-0.582v0.447H120.33z M116.596,142.89c0,0.731-0.398,1.157-1.037,1.157c-0.675,0-1.058-0.434-1.058-1.199
			c0-0.725,0.383-1.144,1.037-1.144C116.148,141.704,116.596,142.152,116.596,142.89 M117.135,141.293h-0.554v0.589
			c-0.234-0.462-0.639-0.704-1.164-0.704c-0.887,0-1.491,0.633-1.491,1.69c0,1.03,0.611,1.696,1.52,1.696
			c0.489,0,0.901-0.248,1.15-0.702v0.532c0,0.291-0.015,0.525-0.135,0.725c-0.163,0.276-0.476,0.418-0.909,0.418
			c-0.61,0-0.944-0.276-0.944-0.745v-0.042h-0.61c0.021,0.795,0.575,1.264,1.548,1.264c0.561,0,0.986-0.164,1.278-0.477
			c0.298-0.318,0.312-0.674,0.312-1.129V141.293z M110.249,144.465h0.54v-1.639c0-0.348,0-0.611,0.185-0.838
			c0.177-0.221,0.454-0.341,0.774-0.341c0.567,0,0.844,0.312,0.844,0.95v1.867h0.54v-2.157c0-0.718-0.454-1.13-1.192-1.13
			c-0.497,0-0.88,0.193-1.15,0.604v-0.489h-0.54V144.465z M108.467,139.766c0,0.228,0.178,0.397,0.398,0.397
			c0.22,0,0.397-0.17,0.397-0.39c0-0.221-0.177-0.404-0.397-0.404C108.645,139.369,108.467,139.546,108.467,139.766
			 M108.595,144.465h0.54v-3.172h-0.54V144.465z M106.969,142.897c0,0.752-0.412,1.179-1.065,1.179
			c-0.632,0-1.029-0.454-1.029-1.249c0-0.703,0.391-1.107,1.022-1.107C106.537,141.719,106.969,142.18,106.969,142.897
			 M107.495,139.092h-0.54v2.797c-0.241-0.469-0.632-0.711-1.157-0.711c-0.888,0-1.498,0.646-1.498,1.712
			c0,1.036,0.61,1.711,1.519,1.711c0.49,0,0.902-0.255,1.15-0.71v0.574h0.526V139.092z M101.19,141.293h-0.54v1.895
			c0,0.93,0.504,1.413,1.427,1.413c0.952,0,1.449-0.497,1.449-1.456v-1.852h-0.54v1.561c0,0.838-0.199,1.229-0.895,1.229
			s-0.902-0.391-0.902-1.229V141.293z M99.04,144.465h0.54v-5.373h-0.54V144.465z M98.294,143.713
			c-0.334,0.242-0.639,0.362-0.98,0.362c-0.66,0-1.136-0.511-1.136-1.149c0-0.754,0.483-1.222,1.179-1.222
			c0.312,0,0.611,0.099,0.88,0.276v-0.582c-0.291-0.142-0.631-0.221-0.987-0.221c-0.951,0-1.654,0.697-1.654,1.732
			c0,1.002,0.646,1.69,1.632,1.69c0.412,0,0.774-0.085,1.065-0.255V143.713z M92.267,144.465h0.674l0.859-1.228l0.866,1.228h0.674
			l-1.228-1.639l1.192-1.533h-0.674l-0.831,1.135l-0.824-1.135h-0.674l1.186,1.533L92.267,144.465z M91.458,142.521h-1.931
			c0.057-0.54,0.447-0.873,0.965-0.873C91.067,141.648,91.422,141.959,91.458,142.521 M92.04,142.961v-0.107
			c0-1.051-0.597-1.682-1.526-1.682c-0.923,0-1.583,0.695-1.583,1.696c0,1.036,0.653,1.732,1.619,1.732
			c0.653,0,1.15-0.291,1.47-0.866l-0.412-0.277c-0.262,0.462-0.604,0.689-1.029,0.689c-0.61,0-1.05-0.447-1.05-1.137v-0.049H92.04z
			 M88.413,145.828c-0.511-0.937-0.731-1.987-0.731-3.236c0-1.215,0.22-2.265,0.731-3.273l-0.369-0.17
			c-0.568,1.001-0.824,2.13-0.824,3.443c0,1.271,0.277,2.413,0.824,3.428L88.413,145.828z M81.952,143.934
			c0.249,0.447,0.661,0.667,1.25,0.667c0.703,0,1.157-0.419,1.157-1.009c0-0.518-0.305-0.744-0.923-0.943
			c-0.525-0.17-0.816-0.213-0.816-0.547c0-0.277,0.22-0.476,0.54-0.476c0.333,0,0.596,0.163,0.724,0.454l0.44-0.27
			c-0.17-0.404-0.582-0.633-1.128-0.633c-0.674,0-1.122,0.405-1.122,0.959c0,0.625,0.469,0.76,1.25,1.029
			c0.334,0.113,0.497,0.242,0.497,0.482c0,0.277-0.234,0.477-0.596,0.477c-0.362,0-0.632-0.164-0.81-0.504L81.952,143.934z
			 M78.367,144.465h0.54v-1.639c0-0.348,0-0.611,0.185-0.838c0.178-0.221,0.455-0.341,0.774-0.341c0.568,0,0.845,0.312,0.845,0.95
			v1.867h0.54v-2.157c0-0.718-0.455-1.13-1.193-1.13c-0.497,0-0.88,0.193-1.15,0.604v-0.489h-0.54V144.465z M74.683,142.89
			c0-0.675,0.511-1.2,1.15-1.2c0.631,0,1.143,0.525,1.143,1.2s-0.512,1.2-1.143,1.2C75.201,144.09,74.683,143.565,74.683,142.89
			 M74.108,142.89c0,0.462,0.17,0.873,0.504,1.206c0.327,0.327,0.752,0.505,1.221,0.505c0.461,0,0.887-0.185,1.221-0.511
			c0.327-0.32,0.504-0.738,0.504-1.2s-0.177-0.888-0.504-1.207c-0.333-0.327-0.752-0.505-1.221-0.505
			c-0.469,0-0.895,0.172-1.221,0.498C74.278,142.002,74.108,142.428,74.108,142.89 M72.582,139.766c0,0.228,0.177,0.397,0.397,0.397
			c0.22,0,0.397-0.17,0.397-0.39c0-0.221-0.178-0.404-0.397-0.404C72.759,139.369,72.582,139.546,72.582,139.766 M72.709,144.465
			h0.54v-3.172h-0.54V144.465z M70.962,141.74v2.725h0.54v-2.725h0.596v-0.447h-0.596v-1.279h-0.54v1.279H70.38v0.447H70.962z
			 M70.161,143.713c-0.334,0.242-0.639,0.362-0.98,0.362c-0.66,0-1.136-0.511-1.136-1.149c0-0.754,0.483-1.222,1.178-1.222
			c0.312,0,0.61,0.099,0.88,0.276v-0.582c-0.291-0.142-0.632-0.221-0.986-0.221c-0.952,0-1.654,0.697-1.654,1.732
			c0,1.002,0.646,1.69,1.632,1.69c0.412,0,0.774-0.085,1.065-0.255V143.713z M66.363,142.521h-1.932
			c0.057-0.54,0.447-0.873,0.965-0.873C65.973,141.648,66.328,141.959,66.363,142.521 M66.945,142.961v-0.107
			c0-1.051-0.596-1.682-1.526-1.682c-0.923,0-1.583,0.695-1.583,1.696c0,1.036,0.653,1.732,1.619,1.732
			c0.653,0,1.15-0.291,1.469-0.866l-0.412-0.277c-0.263,0.462-0.604,0.689-1.03,0.689c-0.61,0-1.051-0.447-1.051-1.137v-0.049
			H66.945z M62.238,144.465h0.54v-2.725h0.845v-0.447h-0.845v-0.846c0-0.61,0.014-0.901,0.418-0.901
			c0.142,0,0.285,0.035,0.426,0.114v-0.562c-0.149-0.05-0.305-0.071-0.469-0.071c-0.759,0-0.916,0.397-0.916,1.35v0.916h-0.61v0.447
			h0.61V144.465z M58.178,144.465h0.539v-1.639c0-0.348,0-0.611,0.185-0.838c0.178-0.221,0.455-0.341,0.774-0.341
			c0.568,0,0.845,0.312,0.845,0.95v1.867h0.54v-2.157c0-0.718-0.455-1.13-1.193-1.13c-0.497,0-0.88,0.193-1.15,0.604v-0.489h-0.539
			V144.465z M56.438,144.465h0.603v-5.076h-0.603V144.465z M53.599,143.713c-0.334,0.242-0.639,0.362-0.98,0.362
			c-0.66,0-1.136-0.511-1.136-1.149c0-0.754,0.483-1.222,1.179-1.222c0.312,0,0.61,0.099,0.88,0.276v-0.582
			c-0.291-0.142-0.631-0.221-0.986-0.221c-0.952,0-1.654,0.697-1.654,1.732c0,1.002,0.646,1.69,1.633,1.69
			c0.412,0,0.774-0.085,1.065-0.255V143.713z M49.382,139.766c0,0.228,0.178,0.397,0.398,0.397c0.22,0,0.397-0.17,0.397-0.39
			c0-0.221-0.178-0.404-0.397-0.404C49.56,139.369,49.382,139.546,49.382,139.766 M49.51,144.465h0.54v-3.172h-0.54V144.465z
			 M47.763,141.74v2.725h0.54v-2.725h0.596v-0.447h-0.596v-1.279h-0.54v1.279h-0.582v0.447H47.763z M44.491,143.934
			c0.249,0.447,0.66,0.667,1.25,0.667c0.703,0,1.157-0.419,1.157-1.009c0-0.518-0.306-0.744-0.923-0.943
			c-0.525-0.17-0.816-0.213-0.816-0.547c0-0.277,0.22-0.476,0.54-0.476c0.333,0,0.596,0.163,0.724,0.454l0.44-0.27
			c-0.17-0.404-0.582-0.633-1.128-0.633c-0.675,0-1.122,0.405-1.122,0.959c0,0.625,0.469,0.76,1.25,1.029
			c0.333,0.113,0.497,0.242,0.497,0.482c0,0.277-0.234,0.477-0.596,0.477c-0.362,0-0.632-0.164-0.81-0.504L44.491,143.934z
			 M43.042,139.766c0,0.228,0.178,0.397,0.397,0.397c0.22,0,0.397-0.17,0.397-0.39c0-0.221-0.177-0.404-0.397-0.404
			C43.22,139.369,43.042,139.546,43.042,139.766 M43.17,144.465h0.54v-3.172h-0.54V144.465z M39.223,144.465h0.54v-1.639
			c0-0.348,0-0.611,0.185-0.838c0.177-0.221,0.455-0.341,0.774-0.341c0.568,0,0.845,0.312,0.845,0.95v1.867h0.54v-2.157
			c0-0.718-0.455-1.13-1.193-1.13c-0.497,0-0.88,0.193-1.15,0.604v-0.489h-0.54V144.465z M35.873,141.293h-0.54v1.895
			c0,0.93,0.504,1.413,1.427,1.413c0.951,0,1.448-0.497,1.448-1.456v-1.852h-0.54v1.561c0,0.838-0.199,1.229-0.895,1.229
			s-0.901-0.391-0.901-1.229V141.293z M33.657,141.74v2.725h0.54v-2.725h0.596v-0.447h-0.596v-1.279h-0.54v1.279h-0.582v0.447
			H33.657z M31.123,144.465h0.54v-1.547c0-0.83,0.284-1.242,0.859-1.242c0.099,0,0.213,0.021,0.333,0.064l0.185-0.49
			c-0.121-0.043-0.241-0.064-0.369-0.064c-0.482,0-0.781,0.227-1.065,0.767v-0.659h-0.482V144.465z M27.432,142.89
			c0-0.675,0.511-1.2,1.15-1.2c0.631,0,1.143,0.525,1.143,1.2s-0.512,1.2-1.143,1.2C27.95,144.09,27.432,143.565,27.432,142.89
			 M26.856,142.89c0,0.462,0.171,0.873,0.504,1.206c0.327,0.327,0.752,0.505,1.221,0.505c0.461,0,0.887-0.185,1.221-0.511
			c0.327-0.32,0.504-0.738,0.504-1.2s-0.178-0.888-0.504-1.207c-0.333-0.327-0.752-0.505-1.221-0.505
			c-0.469,0-0.895,0.172-1.221,0.498C27.027,142.002,26.856,142.428,26.856,142.89 M23.612,142.89c0-0.753,0.412-1.186,1.065-1.186
			c0.632,0,1.029,0.454,1.029,1.249c0,0.703-0.39,1.115-1.022,1.115C24.045,144.069,23.612,143.607,23.612,142.89 M23.087,146.014
			h0.54v-2.123c0.242,0.469,0.632,0.71,1.157,0.71c0.887,0,1.498-0.64,1.498-1.711c0-1.044-0.611-1.712-1.519-1.712
			c-0.49,0-0.909,0.25-1.157,0.711v-0.596h-0.519V146.014z M19.587,142.89c0-0.753,0.412-1.186,1.064-1.186
			c0.632,0,1.03,0.454,1.03,1.249c0,0.703-0.391,1.115-1.022,1.115C20.02,144.069,19.587,143.607,19.587,142.89 M19.062,146.014
			h0.54v-2.123c0.241,0.469,0.632,0.71,1.157,0.71c0.887,0,1.498-0.64,1.498-1.711c0-1.044-0.61-1.712-1.519-1.712
			c-0.49,0-0.909,0.25-1.157,0.711v-0.596h-0.518V146.014z M15.456,144.033c-0.561,0-1.065-0.214-1.47-0.619
			c-0.397-0.404-0.61-0.908-0.61-1.476s0.213-1.087,0.61-1.491c0.391-0.397,0.909-0.61,1.47-0.61c0.561,0,1.072,0.213,1.469,0.61
			c0.398,0.397,0.611,0.924,0.611,1.491s-0.213,1.079-0.611,1.476C16.521,143.82,16.009,144.033,15.456,144.033 M18.167,141.939
			c0-0.725-0.27-1.384-0.788-1.889c-0.511-0.497-1.207-0.774-1.924-0.774s-1.406,0.277-1.917,0.774
			c-0.518,0.505-0.795,1.164-0.795,1.889c0,0.724,0.277,1.377,0.795,1.881c0.511,0.497,1.2,0.781,1.917,0.781
			c0.71,0,1.405-0.276,1.924-0.781C17.891,143.323,18.167,142.662,18.167,141.939"/>
		<path clip-path="url(#SVGID_4_)" fill="#FFFFFF" d="M259.718,27.878c0.271,0.559,0.742,0.823,1.461,0.823
			c0.967,0,1.51-0.463,1.51-1.182c0-0.535-0.304-0.838-0.95-1.094c-0.575-0.232-0.975-0.288-0.975-0.647
			c0-0.256,0.208-0.423,0.535-0.423c0.296,0,0.527,0.151,0.615,0.383l0.599-0.415c-0.184-0.384-0.599-0.607-1.182-0.607
			c-0.879,0-1.414,0.471-1.414,1.11c0,0.535,0.359,0.823,1.062,1.118c0.511,0.215,0.878,0.248,0.878,0.631
			c0,0.295-0.224,0.487-0.606,0.487c-0.447,0-0.727-0.2-0.831-0.567L259.718,27.878z M259.302,26.824v-0.16
			c0-1.229-0.702-1.94-1.893-1.94c-1.15,0-1.94,0.838-1.94,1.988c0,1.206,0.759,1.989,1.94,1.989c0.831,0,1.438-0.359,1.854-1.102
			l-0.711-0.399c-0.271,0.511-0.615,0.727-1.158,0.727c-0.615,0-1.007-0.407-1.047-1.102H259.302z M258.424,26.257h-2.021
			c0.136-0.551,0.471-0.815,1.021-0.815C258.009,25.442,258.359,25.722,258.424,26.257 M251.954,27.878
			c0.271,0.559,0.743,0.823,1.462,0.823c0.967,0,1.51-0.463,1.51-1.182c0-0.535-0.304-0.838-0.95-1.094
			c-0.575-0.232-0.975-0.288-0.975-0.647c0-0.256,0.207-0.423,0.535-0.423c0.295,0,0.526,0.151,0.614,0.383l0.6-0.415
			c-0.184-0.384-0.6-0.607-1.182-0.607c-0.879,0-1.414,0.471-1.414,1.11c0,0.535,0.359,0.823,1.062,1.118
			c0.511,0.215,0.878,0.248,0.878,0.631c0,0.295-0.224,0.487-0.607,0.487c-0.446,0-0.727-0.2-0.83-0.567L251.954,27.878z
			 M250.629,26.712c0,0.695-0.52,1.23-1.143,1.23c-0.631,0-1.142-0.535-1.142-1.23c0-0.694,0.511-1.229,1.142-1.229
			S250.629,26.018,250.629,26.712 M247.45,26.704c0,0.543,0.208,1.03,0.599,1.414c0.384,0.375,0.895,0.583,1.43,0.583
			c0.551,0,1.054-0.208,1.454-0.591c0.383-0.368,0.591-0.854,0.591-1.406c0-0.535-0.216-1.022-0.599-1.397
			c-0.393-0.384-0.896-0.583-1.446-0.583c-0.535,0-1.046,0.199-1.43,0.575C247.658,25.674,247.45,26.169,247.45,26.704
			 M242.85,27.711V23.67h0.671c0.687,0,1.214,0.024,1.638,0.375c0.431,0.368,0.646,0.918,0.646,1.646
			c0,0.727-0.216,1.278-0.646,1.645c-0.407,0.343-0.895,0.375-1.525,0.375H242.85z M241.924,28.55h1.501
			c0.927,0,1.678-0.024,2.34-0.535c0.655-0.503,1.007-1.294,1.007-2.316c0-1.022-0.352-1.821-1.007-2.324
			c-0.694-0.535-1.518-0.535-2.587-0.535h-1.254V28.55z M238.354,28.55v-3.698h-0.847v0.606c-0.199-0.471-0.639-0.734-1.245-0.734
			c-0.975,0-1.661,0.782-1.661,1.973c0,1.262,0.654,2.004,1.685,2.004c0.52,0,0.918-0.208,1.222-0.631v0.479H238.354z
			 M237.531,26.688c0,0.783-0.447,1.262-1.03,1.262c-0.639,0-1.015-0.439-1.015-1.23c0-0.783,0.392-1.246,1.03-1.246
			C237.148,25.474,237.531,25.914,237.531,26.688 M232.747,23.254c0,0.288,0.239,0.535,0.535,0.535c0.295,0,0.527-0.231,0.527-0.535
			s-0.232-0.527-0.527-0.527C232.986,22.727,232.747,22.967,232.747,23.254 M232.859,28.55h0.846v-3.698h-0.846V28.55z
			 M232.116,28.55v-0.743h-2.013l2.013-2.955h-3.227v0.743h1.853l-2.06,2.955H232.116z M223.172,28.55v-1.686
			c0-0.455,0-0.767,0.143-1.006c0.16-0.263,0.447-0.423,0.783-0.423c0.583,0,0.734,0.375,0.734,1.214v1.901h0.855v-1.686
			c0-0.95,0.191-1.429,0.926-1.429c0.639,0,0.719,0.399,0.719,1.214v1.901h0.847v-2.54c0-0.312-0.016-0.567-0.136-0.767
			c-0.199-0.335-0.567-0.527-1.062-0.527c-0.576,0-0.991,0.232-1.374,0.735c-0.2-0.495-0.575-0.735-1.15-0.735
			c-0.591,0-0.998,0.232-1.334,0.743v-0.606h-0.798v3.698H223.172z M220.2,23.254c0,0.288,0.239,0.535,0.535,0.535
			s0.527-0.231,0.527-0.535s-0.231-0.527-0.527-0.527S220.2,22.967,220.2,23.254 M220.312,28.55h0.847v-3.698h-0.847V28.55z
			 M219.233,24.228l0.048-0.934c-0.559-0.392-1.158-0.591-1.845-0.591c-0.854,0-1.597,0.296-2.164,0.855
			c-0.566,0.559-0.87,1.31-0.87,2.148c0,0.831,0.304,1.598,0.862,2.148c0.559,0.551,1.31,0.847,2.188,0.847
			c0.687,0,1.27-0.176,1.772-0.535V27.12c-0.559,0.479-1.166,0.719-1.845,0.719c-1.143,0-2.013-0.871-2.013-2.125
			c0-1.27,0.854-2.156,2.108-2.156C218.123,23.558,218.707,23.781,219.233,24.228 M210.193,28.55h0.847v-6.046h-0.847V28.55z
			 M208.142,28.55h0.846v-6.046h-0.846V28.55z M204.132,26.305l0.583-1.302c0.063-0.151,0.136-0.359,0.207-0.647
			c0.08,0.288,0.152,0.496,0.216,0.647l0.583,1.302H204.132z M206.695,28.55h0.982l-2.764-5.934l-2.763,5.934h0.974l0.663-1.47h2.26
			L206.695,28.55z"/>
		<path clip-path="url(#SVGID_4_)" fill="#FFFFFF" d="M308.06,17.999l-0.759,2.172l0.503,0.2l1.015-2.092L308.06,17.999z
			 M303.651,18.294c0.271,0.56,0.743,0.823,1.462,0.823c0.966,0,1.509-0.463,1.509-1.182c0-0.535-0.304-0.838-0.95-1.094
			c-0.575-0.232-0.975-0.288-0.975-0.647c0-0.256,0.208-0.423,0.535-0.423c0.296,0,0.527,0.152,0.615,0.383l0.599-0.415
			c-0.184-0.384-0.599-0.607-1.182-0.607c-0.879,0-1.413,0.471-1.413,1.11c0,0.535,0.358,0.823,1.062,1.118
			c0.512,0.215,0.878,0.248,0.878,0.631c0,0.295-0.223,0.487-0.606,0.487c-0.447,0-0.727-0.2-0.83-0.567L303.651,18.294z
			 M302.022,15.859V15.26h-0.847v3.706h0.847v-1.622c0-0.999,0.191-1.47,0.79-1.47c0.192,0,0.359,0.04,0.52,0.152l0.304-0.719
			c-0.224-0.112-0.456-0.167-0.695-0.167C302.493,15.14,302.206,15.371,302.022,15.859 M300.05,18.966v-3.698h-0.847v0.606
			c-0.2-0.471-0.639-0.734-1.246-0.734c-0.975,0-1.661,0.783-1.661,1.973c0,1.262,0.654,2.004,1.685,2.004
			c0.52,0,0.919-0.208,1.223-0.631v0.479H300.05z M299.227,17.104c0,0.783-0.447,1.262-1.03,1.262c-0.639,0-1.014-0.439-1.014-1.23
			c0-0.783,0.391-1.246,1.03-1.246C298.844,15.89,299.227,16.33,299.227,17.104 M295.729,17.24v-0.16c0-1.229-0.703-1.94-1.893-1.94
			c-1.15,0-1.94,0.838-1.94,1.988c0,1.207,0.759,1.989,1.94,1.989c0.83,0,1.438-0.359,1.853-1.102l-0.71-0.399
			c-0.272,0.511-0.616,0.727-1.159,0.727c-0.614,0-1.006-0.408-1.046-1.103H295.729z M294.851,16.673h-2.021
			c0.136-0.551,0.472-0.814,1.022-0.814C294.435,15.859,294.786,16.138,294.851,16.673 M289.084,20.706l2.667-5.438h-0.918
			l-0.911,1.972c-0.104,0.232-0.207,0.456-0.263,0.671c-0.032-0.232-0.088-0.479-0.177-0.727l-0.678-1.917h-0.935l1.357,3.378
			l-1.015,2.061H289.084z M285.242,17.52h2.085v-0.783h-2.085V17.52z M283.069,18.966h0.847V16.01h0.647v-0.743h-0.647V13.87h-0.847
			v1.398h-0.646v0.743h0.646V18.966z M278.214,18.966h0.847v-1.685c0-0.464,0.016-0.783,0.168-1.006
			c0.176-0.264,0.495-0.416,0.895-0.416c0.702,0,0.807,0.383,0.807,1.206v1.901h0.854v-2.245c0-0.447,0-0.783-0.184-1.062
			c-0.216-0.343-0.607-0.519-1.158-0.519c-0.647,0-1.086,0.215-1.43,0.734v-0.606h-0.799V18.966z M277.375,17.24v-0.16
			c0-1.229-0.703-1.94-1.893-1.94c-1.149,0-1.94,0.838-1.94,1.988c0,1.207,0.759,1.989,1.94,1.989c0.831,0,1.438-0.359,1.853-1.102
			l-0.71-0.399c-0.271,0.511-0.615,0.727-1.158,0.727c-0.615,0-1.007-0.408-1.046-1.103H277.375z M276.497,16.673h-2.021
			c0.136-0.551,0.471-0.814,1.022-0.814C276.081,15.859,276.433,16.138,276.497,16.673 M271.689,13.67
			c0,0.288,0.239,0.535,0.535,0.535s0.526-0.231,0.526-0.535c0-0.303-0.23-0.527-0.526-0.527S271.689,13.383,271.689,13.67
			 M271.801,18.966h0.847v-3.698h-0.847V18.966z M269.581,18.966h0.847V16.01h0.646v-0.743h-0.646V13.87h-0.847v1.398h-0.647v0.743
			h0.647V18.966z M268.255,18.966v-3.698h-0.847v0.606c-0.199-0.471-0.639-0.734-1.245-0.734c-0.975,0-1.662,0.783-1.662,1.973
			c0,1.262,0.655,2.004,1.686,2.004c0.52,0,0.919-0.208,1.222-0.631v0.479H268.255z M267.433,17.104c0,0.783-0.447,1.262-1.03,1.262
			c-0.64,0-1.015-0.439-1.015-1.23c0-0.783,0.392-1.246,1.03-1.246C267.049,15.89,267.433,16.33,267.433,17.104 M261.562,15.643
			v-1.589h0.239c0.863,0,1.286,0.144,1.286,0.831c0,0.663-0.432,0.759-1.286,0.759H261.562z M261.507,16.402h0.535
			c0.583,0,1.046-0.016,1.429-0.288c0.352-0.255,0.575-0.734,0.575-1.286s-0.224-1.022-0.575-1.278
			c-0.383-0.28-0.846-0.295-1.429-0.295h-1.406v5.71h0.871V16.402z M257.289,16.218c0-1.965-0.75-3.019-2.044-3.019
			c-1.278,0-2.061,1.07-2.061,2.955c0,1.901,0.774,2.963,2.053,2.963C256.499,19.117,257.289,18.055,257.289,16.218 M255.221,18.319
			c-0.702,0-1.109-0.751-1.109-2.157c0-1.438,0.391-2.172,1.142-2.172c0.719,0,1.11,0.743,1.11,2.156
			C256.363,17.592,255.979,18.319,255.221,18.319 M252.506,16.218c0-1.965-0.75-3.019-2.044-3.019c-1.278,0-2.062,1.07-2.062,2.955
			c0,1.901,0.775,2.963,2.053,2.963C251.716,19.117,252.506,18.055,252.506,16.218 M250.438,18.319c-0.703,0-1.11-0.751-1.11-2.157
			c0-1.438,0.392-2.172,1.143-2.172c0.719,0,1.109,0.743,1.109,2.156C251.579,17.592,251.196,18.319,250.438,18.319 M245.366,18.966
			h0.847v-5.655h-1.669l-0.36,0.735h1.183V18.966z M242.635,13.127l-2.796,6.581h0.663l2.796-6.581H242.635z M239.584,17.24v-0.16
			c0-1.229-0.703-1.94-1.893-1.94c-1.15,0-1.941,0.838-1.941,1.988c0,1.207,0.759,1.989,1.941,1.989c0.83,0,1.438-0.359,1.853-1.102
			l-0.711-0.399c-0.271,0.511-0.615,0.727-1.158,0.727c-0.615,0-1.006-0.408-1.046-1.103H239.584z M238.705,16.673h-2.021
			c0.136-0.551,0.472-0.814,1.022-0.814C238.29,15.859,238.642,16.138,238.705,16.673 M233.842,18.966h0.846V16.01h0.647v-0.743
			h-0.647V13.87h-0.846v1.398h-0.647v0.743h0.647V18.966z M232.516,18.966v-3.698h-0.847v0.606c-0.2-0.471-0.639-0.734-1.246-0.734
			c-0.975,0-1.661,0.783-1.661,1.973c0,1.262,0.655,2.004,1.686,2.004c0.519,0,0.918-0.208,1.222-0.631v0.479H232.516z
			 M231.692,17.104c0,0.783-0.447,1.262-1.029,1.262c-0.64,0-1.015-0.439-1.015-1.23c0-0.783,0.392-1.246,1.03-1.246
			C231.31,15.89,231.692,16.33,231.692,17.104 M225.6,15.691v-1.638h0.167c0.831,0,1.223,0.152,1.223,0.854
			c0,0.687-0.407,0.783-1.223,0.783H225.6z M225.543,16.409h0.104l1.901,2.556h1.046l-1.964-2.596
			c0.862-0.104,1.31-0.623,1.31-1.542c0-0.535-0.208-0.982-0.551-1.254c-0.352-0.271-0.807-0.319-1.422-0.319h-1.294v5.71h0.87
			V16.409z M220.049,18.966h0.847V16.01h0.646v-0.743h-0.646V13.87h-0.847v1.398h-0.646v0.743h0.646V18.966z M215.193,18.966h0.847
			v-1.685c0-0.464,0.016-0.783,0.167-1.006c0.176-0.264,0.496-0.416,0.895-0.416c0.703,0,0.807,0.383,0.807,1.206v1.901h0.854
			v-2.245c0-0.447,0-0.783-0.184-1.062c-0.216-0.343-0.606-0.519-1.157-0.519c-0.647,0-1.087,0.215-1.431,0.734v-0.606h-0.798
			V18.966z M214.354,17.24v-0.16c0-1.229-0.702-1.94-1.893-1.94c-1.15,0-1.941,0.838-1.941,1.988c0,1.207,0.759,1.989,1.941,1.989
			c0.83,0,1.438-0.359,1.853-1.102l-0.711-0.399c-0.271,0.511-0.614,0.727-1.158,0.727c-0.614,0-1.006-0.408-1.046-1.103H214.354z
			 M213.476,16.673h-2.021c0.136-0.551,0.472-0.814,1.022-0.814C213.061,15.859,213.412,16.138,213.476,16.673 M208.364,19.189
			l1.941-3.921h-0.919l-0.807,1.86c-0.096,0.224-0.168,0.447-0.216,0.671c-0.088-0.344-0.159-0.567-0.208-0.671l-0.806-1.86h-0.927
			L208.364,19.189z M202.926,18.966h3.187v-0.831h-2.26V16.29h2.26v-0.814h-2.26v-1.43h2.26v-0.791h-3.187V18.966z"/>
	</g>
</g>
</svg>
