<?xml version="1.0" encoding="utf-8"?>
<!-- Generator: Adobe Illustrator 15.1.0, SVG Export Plug-In . SVG Version: 6.00 Build 0)  -->
<!DOCTYPE svg PUBLIC "-//W3C//DTD SVG 1.1//EN" "http://www.w3.org/Graphics/SVG/1.1/DTD/svg11.dtd">
<svg version="1.1" id="Layer_1" xmlns="http://www.w3.org/2000/svg" xmlns:xlink="http://www.w3.org/1999/xlink" x="0px" y="0px"
	 width="1200px" height="250px" viewBox="190 165.807 1200 250" enable-background="new 190 165.807 1200 250" xml:space="preserve"
	>
<g>
	<g>
		<path fill="#006327" d="M374,415.807c44.182,0,80-35.816,80-80c0-44.183-35.818-80-80-80s-80,35.817-80,80
			C293.999,379.989,329.817,415.807,374,415.807"/>
		<path fill="#FFFFFF" d="M429.386,347.755c-3.759-6.453-11.176-19.987-12.332-25.021c-0.495-2.143-1.058-4.25-1.674-6.26
			c-0.139-0.454-0.28-1.359-0.445-2.412c-1.493-9.565-5.453-34.975-50.116-31.324c-25.256,2.613-29.881,23.486-31.622,31.343
			c-0.22,0.997-0.41,1.857-0.575,2.393c-0.619,2.011-1.181,4.118-1.676,6.261c-1.156,5.034-8.572,18.567-12.335,25.024
			c-0.755,1.297-0.813,2.874-0.157,4.214c5.756,11.785,17.489,21.097,32.204,25.56c0.416,0.122,0.846,0.187,1.278,0.187
			c0.198,0,0.387-0.035,0.57-0.083c5.854,6.899,13.205,11.598,21.473,11.598c8.271,0,15.625-4.705,21.481-11.609
			c0.194,0.054,0.396,0.094,0.608,0.094c0.433,0,0.863-0.064,1.293-0.191c14.701-4.458,26.432-13.77,32.189-25.552
			C430.205,350.632,430.146,349.055,429.386,347.755 M334.079,332.858h3.688v19.426h-3.688c-2.033,0-3.687-1.523-3.687-3.397
			v-12.629C330.392,334.384,332.046,332.858,334.079,332.858 M322.469,350c0.4-0.687,1.88-3.243,3.709-6.57v5.456
			c0,4.018,3.545,7.283,7.901,7.283h5.794c0.379,0,0.729-0.098,1.037-0.261c1.731,5.589,4.264,11.172,7.452,16.121
			C336.538,367.604,327.209,359.726,322.469,350 M373.977,384.771c-8.979,0-16.835-6.908-22.426-16.016
			c4.046,2.303,9.463,3.882,16.745,3.882c0.133,0,0.261-0.017,0.388-0.042c0.752,0.77,1.804,1.234,2.964,1.178l1.114-0.051
			c2.155-0.103,3.819-1.933,3.715-4.088c-0.103-2.155-1.933-3.818-4.087-3.718l-1.115,0.054c-1.538,0.074-2.811,1.031-3.383,2.354
			c-13.469-0.124-19.341-6.227-21.893-11.28c-0.79-2.229-1.452-4.474-1.964-6.688c-0.018-0.168-0.054-0.334-0.107-0.487
			c-0.775-3.483-1.197-6.872-1.197-9.966v-6.577c10.113-0.905,17.634-7.913,20.742-16.118c6.421,9.003,22.825,15.703,41.75,16.198
			v6.497C405.223,357.549,391.805,384.771,373.977,384.771 M399.576,372.054c6.351-9.855,10.109-22.204,10.109-32.147v-8.7
			c0-1.231-1.004-2.229-2.231-2.229c-24.269,0-42.403-10.607-42.403-20.088c0-1.232-1.004-2.231-2.233-2.231
			c-1.231,0-2.231,0.999-2.231,2.231c0,9.7-8.074,20.088-20.086,20.088c-0.104,0-0.202,0.014-0.302,0.029
			c-0.106-0.016-0.212-0.029-0.326-0.029h-5.794c-0.223,0-0.438,0.012-0.656,0.029c0.879-2.051,1.556-3.883,1.874-5.272
			c0.469-2.036,1.004-4.039,1.593-5.949c0.217-0.704,0.416-1.603,0.667-2.739c1.838-8.304,5.667-25.587,27.676-27.864
			c40.475-3.311,43.851,18.328,45.292,27.567c0.198,1.272,0.355,2.276,0.588,3.036c0.585,1.909,1.123,3.913,1.594,5.949
			c1.564,6.826,11.677,24.298,12.832,26.282C420.785,359.745,411.429,367.633,399.576,372.054"/>
		<path fill="none" d="M293.999,335.807c0,44.183,35.818,80,80,80s80-35.816,80-80c0-44.183-35.818-80-80-80
			S293.999,291.624,293.999,335.807"/>
	</g>
	<g>
		<path fill="#006327" d="M581.999,415.807c44.182,0,80-35.816,80-80c0-44.183-35.819-80-80-80c-44.183,0-80,35.817-80,80
			C501.999,379.989,537.816,415.807,581.999,415.807"/>
		<path fill="#FFFFFF" d="M637.39,353.133c-3.017-5.156-11.113-19.696-12.334-25.022c-0.496-2.141-1.058-4.245-1.677-6.26
			c-1.68-5.455-3.831-10.462-6.398-14.884c-0.62-1.066-1.986-1.428-3.05-0.808c-1.068,0.618-1.428,1.984-0.812,3.051
			c2.399,4.128,4.415,8.823,5.995,13.952c0.586,1.913,1.122,3.915,1.589,5.949c1.625,7.074,12.378,25.495,12.834,26.282
			c-4.754,9.731-14.108,17.617-25.959,22.039c6.35-9.854,10.108-22.205,10.108-32.149v-8.7c0-1.229-1.005-2.23-2.232-2.23
			c-24.268,0-42.402-10.604-42.402-20.084c0-1.232-1.006-2.232-2.234-2.232c-1.229,0-2.231,1-2.231,2.232
			c0,9.696-8.075,20.084-20.086,20.084c-1.233,0-2.233,1.001-2.233,2.23v8.7c0,9.938,3.751,22.274,10.094,32.126
			c-11.823-4.427-21.152-12.306-25.896-22.019c0.455-0.783,11.209-19.208,12.83-26.275c0.469-2.037,1.005-4.039,1.592-5.95
			c1.579-5.134,3.597-9.828,5.993-13.954c0.62-1.066,0.26-2.434-0.808-3.051c-1.066-0.62-2.433-0.256-3.05,0.808
			c-2.57,4.419-4.722,9.431-6.401,14.885c-0.621,2.016-1.181,4.12-1.676,6.263c-1.221,5.319-9.316,19.864-12.336,25.024
			c-0.755,1.295-0.814,2.871-0.157,4.214c5.757,11.784,17.489,21.099,32.201,25.558c0.417,0.122,0.848,0.185,1.282,0.185
			c0.196,0,0.383-0.032,0.565-0.083c5.855,6.9,13.208,11.6,21.474,11.6c8.271,0,15.626-4.704,21.481-11.609
			c0.194,0.055,0.396,0.092,0.606,0.092c0.432,0,0.862-0.062,1.296-0.19c14.698-4.453,26.429-13.768,32.185-25.549
			C638.204,356.013,638.148,354.435,637.39,353.133 M581.977,390.146c-17.827,0-31.245-27.22-31.245-44.864v-6.574
			c10.111-0.907,17.632-7.914,20.741-16.118c6.423,9.003,22.825,15.703,41.75,16.195v6.497
			C613.223,362.926,599.807,390.146,581.977,390.146"/>
		<path fill="#FFFFFF" d="M553.265,310.041c0.16,1.055,1.019,1.818,2.034,1.901c0.06,0.022,0.115,0.055,0.176,0.055
			c0.075,0,0.149-0.014,0.219-0.043c0,0,0.038-0.018,0.057-0.023c0.015-0.002,0.032-0.002,0.047-0.002
			c0.355-0.055,0.674-0.189,0.949-0.377c0.232-0.087,0.5-0.183,0.806-0.286c3.407-1.17,12.607-3.894,24.466-3.894
			c8.448,0,16.691,1.361,24.49,4.051c0.479,0.166,0.967,0.344,1.454,0.521c0.053,0.019,0.104,0.026,0.157,0.026
			c0.07,0,0.139-0.013,0.207-0.037c0.048,0.001,0.095,0.004,0.139,0.004c1.102,0,2.057-0.783,2.212-1.895l3.122-21.828
			c0.226-1.551-0.533-3.102-1.905-3.86c-0.2-0.111-13.504-7.347-31.097-7.347c-8.868,0-18.818,1.835-28.737,7.347
			c-1.374,0.758-2.132,2.31-1.908,3.848L553.265,310.041z M580.798,280.957c15.637,0,27.823,6.141,29.079,6.797l-2.817,19.681
			c-7.999-2.664-16.417-4.016-25.041-4.016c-11.813,0-21.155,2.586-25.148,3.905l-2.791-19.572
			C562.234,283.241,571.223,280.957,580.798,280.957"/>
		<path fill="#FFFFFF" d="M574.653,294.653h4.394v4.397c0,0.807,0.656,1.462,1.464,1.462h2.93c0.808,0,1.464-0.656,1.464-1.462
			v-4.397h4.394c0.81,0,1.467-0.655,1.467-1.464v-2.931c0-0.808-0.658-1.462-1.467-1.462h-4.394v-4.396
			c0-0.808-0.656-1.466-1.464-1.466h-2.93c-0.808,0-1.464,0.657-1.464,1.466v4.396h-4.394c-0.812,0-1.467,0.654-1.467,1.462v2.931
			C573.187,293.999,573.842,294.653,574.653,294.653"/>
		<path fill="none" d="M501.999,335.807c0,44.183,35.819,80,80,80c44.184,0,80-35.816,80-80c0-44.183-35.816-80-80-80
			C537.818,255.807,501.999,291.624,501.999,335.807"/>
	</g>
	<g>
		<path fill="#006327" d="M790,415.807c44.181,0,80-35.816,80-80c0-44.183-35.817-80-80-80c-44.183,0-80,35.817-80,80
			C710,379.989,745.817,415.807,790,415.807"/>
		<path fill="#FFFFFF" d="M831.191,356.264c-0.764-0.78-17.91-10.66-18.045-10.727c-0.854-0.41-1.728-0.619-2.592-0.619
			c-1.392,0-2.783,0.71-4.392,2.235c-0.678,0.644-1.778,2.037-3.381,4.088c-0.943,1.208-2.016,2.58-2.416,2.986
			c-0.582,0.595-0.942,0.83-1.097,0.915c-0.076-0.016-0.185-0.045-0.327-0.098c-0.047-0.019-5.059-2.423-16.168-12.187
			c-10.556-9.272-11.634-15.024-11.743-15.927c0.078-0.146,0.31-0.507,0.926-1.114c1-0.982,2.104-1.923,3.279-2.799
			c1.361-1.016,2.64-2.15,3.797-3.371c1.524-1.603,2.235-2.999,2.235-4.387c0-0.87-0.208-1.742-0.619-2.592
			c-0.064-0.134-10.304-17.252-11.084-18.028c-0.716-0.716-1.806-1.082-3.237-1.082c-1.579,0-3.392,0.426-4.612,1.088
			c-13.596,7.343-14.117,17.729-13.952,20.74c0.126,2.251,1.783,22.521,21.511,41.236c20.965,19.889,36.551,21.434,40.826,21.434
			l0.455-0.005c5.119,0,16.038-2.957,20.709-14.156C831.635,363.008,833.359,358.488,831.191,356.264 M827.097,362.154
			c-4.693,11.251-16.428,11.381-16.543,11.381c-0.014,0-0.135,0.001-0.147,0.001l-0.307,0.003c-3.853,0-17.968-1.456-37.719-20.194
			c-18.462-17.513-19.995-36.142-20.109-38.207c-0.163-2.997,0.637-10.606,11.589-16.519c0.496-0.269,1.554-0.547,2.467-0.547
			c0.06,0,0.113,0.001,0.158,0.002c1.794,2.806,9.717,15.863,10.095,16.557c0.113,0.232,0.171,0.445,0.179,0.537
			c-0.001,0.004-0.114,0.432-1.003,1.369c-0.981,1.035-2.066,1.997-3.223,2.859c-1.339,0.998-2.598,2.075-3.742,3.199
			c-1.562,1.533-2.29,2.872-2.286,4.309c0.077,1.87,1.267,8.789,13.286,19.348c10.453,9.183,16.296,12.548,17.528,13.01
			c0.767,0.281,1.439,0.417,2.052,0.417c1.343,0,2.682-0.727,4.218-2.289c0.538-0.547,1.398-1.638,2.751-3.369
			c1.031-1.322,2.446-3.131,2.932-3.595c0.887-0.841,1.316-0.987,1.29-0.992c0.178,0.001,0.385,0.06,0.577,0.151
			c1.001,0.529,13.82,8.043,16.606,9.759C827.743,359.942,827.533,361.106,827.097,362.154"/>
		<path fill="none" d="M710,335.807c0,44.183,35.817,80,80,80c44.184,0,80-35.816,80-80c0-44.183-35.816-80-80-80
			C745.817,255.807,710,291.624,710,335.807"/>
	</g>
	<path fill="#FFFFFF" d="M1021.947,379.002l11.854-0.104l0.134-18.264l-0.134,18.263l-11.937,0.104
		C1021.891,379.001,1021.92,379.001,1021.947,379.002"/>
	<g>
		<path fill="#006327" d="M998.001,415.807c44.181,0,80-35.816,80-80c0-44.183-35.818-80-80-80c-44.183,0-80,35.817-80,80
			C918.001,379.989,953.818,415.807,998.001,415.807"/>
		<path fill="#FFFFFF" d="M1013.925,331.419h-41.399c-1.219,0-2.209,0.99-2.209,2.208c0,1.22,0.99,2.206,2.209,2.206h41.399
			c1.221,0,2.207-0.986,2.207-2.206C1016.132,332.409,1015.146,331.419,1013.925,331.419"/>
		<path fill="#FFFFFF" d="M1013.925,317.179h-41.399c-1.219,0-2.209,0.991-2.209,2.208c0,1.22,0.99,2.208,2.209,2.208h41.399
			c1.221,0,2.207-0.988,2.207-2.208C1016.132,318.169,1015.146,317.179,1013.925,317.179"/>
		<path fill="#FFFFFF" d="M1033.804,292.301v-0.003h-0.873v85.725h-72.731l-0.28-0.274c0.418-0.243,0.891-0.396,1.403-0.396h70.941
			v-92.991h-70.941c-3.934,0-7.134,3.203-7.134,7.14v88.908h0.024c0.159,3.799,3.274,6.846,7.108,6.846h0.847l79.643-0.017v-94.936
			H1033.804z M1020.609,378.896c0.006,0,0.01-0.003,0.016-0.003c0.004,0,0.008,0.003,0.014,0.003h13.166V354.57
			c0.001-0.132-0.005-0.264,0-0.396v-61.169l0.624,0.63l0.944,0.952v86.094h-72.514l-1.158-1.157l-0.625-0.627H1020.609
			L1020.609,378.896z M958.563,291.5c0-1.523,1.235-2.765,2.764-2.765h66.564v84.243h-69.327L958.563,291.5L958.563,291.5z
			 M961.322,382.877c-1.523,0-2.759-1.233-2.759-2.759c0-0.696,0.26-1.321,0.684-1.806l4.569,4.564H961.322z M1037.441,382.865
			l-72.389,0.012l-0.901-0.9l-0.739-0.74h72.511v-86.092l0.959,0.967l0.56,0.562V382.865L1037.441,382.865z"/>
		<path fill="none" d="M918.001,335.807c0,44.183,35.815,80,80,80c44.183,0,80-35.816,80-80c0-44.183-35.817-80-80-80
			C953.816,255.807,918.001,291.624,918.001,335.807"/>
	</g>
	<g>
		<path fill="#006327" d="M1206.002,415.807c44.18,0,79.999-35.816,79.999-80c0-44.183-35.818-80-79.999-80
			c-44.184,0-80.002,35.817-80.002,80C1126.001,379.989,1161.818,415.807,1206.002,415.807"/>
		<path fill="#FFFFFF" d="M1173.829,373.637c-1.561,0-3.134-0.301-4.605-0.877c-0.473,0.028-1.007-0.138-1.429-0.464l-1.646-1.258
			c-0.025-0.02-0.051-0.037-0.066-0.05c-0.612-0.471-6.006-4.621-18.354-14.039c-2.71-2.059-3.802-5.098-2.85-7.923
			c0.934-2.77,3.733-4.63,6.966-4.63c0.535,0,1.076,0.05,1.608,0.146c3.947,0.748,8.879,1.69,13.907,2.652l4.481,0.858l8.328-3.885
			c-6.995-5.324-14.869-11.321-20.773-15.822l-3.102-2.363c-0.63-0.481-0.961-1.253-0.876-2.039
			c0.085-0.786,0.572-1.469,1.288-1.803l11.522-5.375c0.502-0.235,1.079-0.279,1.612-0.115l0.861,0.264
			c14.209,4.305,29.648,8.952,41.252,12.435l23.63-11.018c6.381-2.978,12.494-4.551,17.673-4.551c6.336,0,11.25,2.424,13.145,6.482
			c1.457,3.123,1.392,6.357-0.184,9.105c-1.305,2.278-3.54,4.131-6.832,5.667l-80.249,37.418
			C1177.458,373.237,1175.673,373.637,1173.829,373.637 M1169.785,368.135c0.175,0.036,0.35,0.093,0.52,0.174
			c2.184,1.053,4.747,1.073,6.925,0.055l80.251-37.417c2.418-1.13,3.996-2.381,4.82-3.822c0.851-1.479,0.854-3.143,0.01-4.952
			c-1.115-2.387-4.584-3.875-9.051-3.875c-4.525,0-9.978,1.429-15.764,4.129l-24.411,11.379c-0.501,0.238-1.071,0.274-1.602,0.117
			c-11.693-3.511-27.533-8.273-42.095-12.688l-0.036-0.011l-7.351,3.43l0.133,0.101c6.758,5.156,16.095,12.262,23.744,18.087
			c0.629,0.479,0.961,1.251,0.875,2.036c-0.082,0.787-0.574,1.47-1.288,1.805l-12.379,5.771c-0.427,0.201-0.91,0.262-1.376,0.17
			l-5.196-0.992c-5.026-0.96-9.956-1.903-13.892-2.647c-1.533-0.287-3.088,0.367-3.464,1.484c-0.461,1.361,0.758,2.475,1.306,2.889
			c12.358,9.427,17.757,13.579,18.37,14.051L1169.785,368.135z"/>
		<path fill="none" d="M1126.001,335.807c0,44.183,35.817,80,80.002,80c44.181,0,79.999-35.816,79.999-80
			c0-44.183-35.816-80-79.999-80C1161.818,255.807,1126.001,291.624,1126.001,335.807"/>
	</g>
</g>
</svg>
