<?xml version="1.0" encoding="utf-8"?>
<!-- Generator: Adobe Illustrator 15.1.0, SVG Export Plug-In . SVG Version: 6.00 Build 0)  -->
<!DOCTYPE svg PUBLIC "-//W3C//DTD SVG 1.1//EN" "http://www.w3.org/Graphics/SVG/1.1/DTD/svg11.dtd">
<svg version="1.1" id="Layer_1" xmlns="http://www.w3.org/2000/svg" xmlns:xlink="http://www.w3.org/1999/xlink" x="0px" y="0px"
	 width="900px" height="650px" viewBox="178.61 93.314 900 650" enable-background="new 178.61 93.314 900 650"
	 xml:space="preserve">
<rect x="243.179" y="175.232" fill="#FFE8D6" width="385.43" height="529.971"/>
<rect x="628.608" y="175.232" fill="#BED2BF" width="385.434" height="529.971"/>
<text transform="matrix(1 0 0 1 818.751 184.5059)" fill="#FFFFFF" font-family="'FuturaBT-Medium'" font-size="12.1403"> </text>
<line fill="none" stroke="#FFFFFF" stroke-width="0.5" stroke-dasharray="4.002,4.002" x1="1014.042" y1="271.592" x2="243.18" y2="271.592"/>
<line fill="none" stroke="#FFFFFF" stroke-width="0.5" stroke-dasharray="4.002,4.002" x1="1014.042" y1="367.951" x2="243.18" y2="367.951"/>
<line fill="none" stroke="#FFFFFF" stroke-width="0.5" stroke-dasharray="4.002,4.002" x1="1014.042" y1="464.309" x2="243.18" y2="464.309"/>
<line fill="none" stroke="#FFFFFF" stroke-width="0.5" stroke-dasharray="4.002,4.002" x1="1014.042" y1="592.785" x2="243.18" y2="592.785"/>
<line fill="none" stroke="#006327" x1="676.789" y1="211.369" x2="676.789" y2="705.203"/>
<line fill="none" stroke="#006327" stroke-width="3" x1="676.789" y1="689.145" x2="676.789" y2="705.203"/>
<line fill="none" stroke="#006327" x1="773.146" y1="211.369" x2="773.146" y2="705.203"/>
<line fill="none" stroke="#006327" stroke-width="3" x1="773.146" y1="689.145" x2="773.146" y2="705.203"/>
<line fill="none" stroke="#006327" x1="869.506" y1="315.756" x2="869.506" y2="705.203"/>
<line fill="none" stroke="#006327" stroke-width="3" x1="869.506" y1="689.145" x2="869.506" y2="705.203"/>
<line fill="none" stroke="#006327" x1="965.863" y1="211.369" x2="965.863" y2="705.203"/>
<line fill="none" stroke="#006327" stroke-width="3" x1="965.863" y1="689.145" x2="965.863" y2="705.203"/>
<line fill="none" stroke="#F8A15D" x1="291.357" y1="211.369" x2="291.357" y2="705.203"/>
<line fill="none" stroke="#F8A15D" stroke-width="3" x1="291.357" y1="689.145" x2="291.357" y2="705.203"/>
<line fill="none" stroke="#F8A15D" x1="387.716" y1="315.756" x2="387.716" y2="705.203"/>
<line fill="none" stroke="#F8A15D" stroke-width="3" x1="387.716" y1="689.145" x2="387.716" y2="705.203"/>
<line fill="none" stroke="#F8A15D" x1="484.073" y1="211.369" x2="484.073" y2="705.203"/>
<line fill="none" stroke="#F8A15D" stroke-width="3" x1="484.073" y1="689.145" x2="484.073" y2="705.203"/>
<line fill="none" stroke="#F8A15D" x1="580.431" y1="211.369" x2="580.431" y2="705.203"/>
<line fill="none" stroke="#F8A15D" stroke-width="3" x1="580.431" y1="689.145" x2="580.431" y2="705.203"/>
<g>
	<defs>
		<rect id="SVGID_1_" x="228.61" y="93.314" width="800" height="644.414"/>
	</defs>
	<clipPath id="SVGID_2_">
		<use xlink:href="#SVGID_1_"  overflow="visible"/>
	</clipPath>
	<path clip-path="url(#SVGID_2_)" fill="#FFFFFF" d="M291.357,245.547c12.204,0,22.133-9.93,22.133-22.133
		c0-12.205-9.93-22.133-22.133-22.133s-22.132,9.928-22.132,22.133C269.225,235.617,279.154,245.547,291.357,245.547"/>
</g>
<g>
	<defs>
		<path id="SVGID_3_" d="M268.416,223.412c0,12.672,10.271,22.945,22.943,22.945c12.669,0,22.941-10.273,22.941-22.945
			c0-12.67-10.272-22.941-22.941-22.941C278.687,200.471,268.416,210.742,268.416,223.412"/>
	</defs>
	<clipPath id="SVGID_4_">
		<use xlink:href="#SVGID_3_"  overflow="visible"/>
	</clipPath>
	<path clip-path="url(#SVGID_4_)" fill="#F8A15D" d="M307.241,226.834c-1.078-1.85-3.205-5.73-3.537-7.176
		c-0.141-0.613-0.303-1.219-0.479-1.795c-0.041-0.129-0.082-0.391-0.128-0.691c-0.428-2.742-1.563-10.031-14.373-8.984
		c-7.242,0.75-8.569,6.736-9.068,8.988c-0.063,0.287-0.119,0.533-0.166,0.688c-0.178,0.576-0.338,1.182-0.48,1.795
		c-0.332,1.445-2.459,5.326-3.537,7.178c-0.217,0.371-0.233,0.824-0.045,1.207c1.649,3.381,5.014,6.051,9.234,7.33
		c0.12,0.035,0.243,0.053,0.367,0.053c0.057,0,0.111-0.01,0.162-0.021c1.681,1.977,3.788,3.326,6.16,3.326
		c2.371,0,4.48-1.35,6.159-3.33c0.057,0.016,0.114,0.025,0.175,0.025c0.124,0,0.248-0.018,0.371-0.053
		c4.217-1.279,7.58-3.949,9.231-7.328C307.476,227.66,307.459,227.207,307.241,226.834 M279.909,222.562h1.058v5.572h-1.058
		c-0.583,0-1.057-0.439-1.057-0.979v-3.619C278.852,223,279.326,222.562,279.909,222.562 M276.58,227.479
		c0.115-0.197,0.539-0.93,1.063-1.885v1.562c0,1.154,1.017,2.09,2.266,2.09h1.663c0.108,0,0.208-0.027,0.295-0.074
		c0.497,1.604,1.225,3.205,2.137,4.625C280.615,232.527,277.939,230.268,276.58,227.479 M291.352,237.449
		c-2.576,0-4.829-1.98-6.433-4.594c1.16,0.662,2.714,1.113,4.802,1.113c0.04,0,0.077-0.004,0.112-0.012
		c0.215,0.223,0.518,0.355,0.85,0.338l0.319-0.014c0.619-0.029,1.096-0.555,1.067-1.172s-0.556-1.096-1.172-1.066l-0.32,0.014
		c-0.44,0.023-0.806,0.297-0.97,0.676c-3.863-0.033-5.548-1.785-6.279-3.234c-0.227-0.639-0.417-1.283-0.563-1.918
		c-0.005-0.049-0.016-0.096-0.031-0.139c-0.221-0.998-0.343-1.971-0.343-2.859v-1.887c2.899-0.26,5.057-2.268,5.948-4.621
		c1.843,2.582,6.546,4.506,11.972,4.646v1.861C300.311,229.643,296.463,237.449,291.352,237.449 M298.692,233.803
		c1.821-2.826,2.899-6.367,2.899-9.221v-2.494c0-0.354-0.288-0.639-0.639-0.639c-6.96,0-12.161-3.041-12.161-5.762
		c0-0.354-0.289-0.639-0.639-0.639c-0.355,0-0.641,0.285-0.641,0.639c0,2.783-2.315,5.762-5.76,5.762
		c-0.031,0-0.059,0.004-0.087,0.008c-0.029-0.006-0.06-0.008-0.092-0.008h-1.663c-0.062,0-0.125,0.002-0.187,0.008
		c0.252-0.588,0.445-1.115,0.537-1.512c0.134-0.584,0.288-1.158,0.456-1.707c0.062-0.203,0.119-0.459,0.191-0.783
		c0.528-2.383,1.625-7.34,7.936-7.992c11.608-0.949,12.576,5.256,12.989,7.904c0.058,0.367,0.102,0.654,0.17,0.871
		c0.168,0.549,0.322,1.123,0.457,1.707c0.448,1.959,3.349,6.969,3.679,7.537C304.774,230.273,302.092,232.535,298.692,233.803"/>
</g>
<g>
	<defs>
		<rect id="SVGID_5_" x="228.61" y="93.314" width="800" height="644.414"/>
	</defs>
	<clipPath id="SVGID_6_">
		<use xlink:href="#SVGID_5_"  overflow="visible"/>
	</clipPath>
	<path clip-path="url(#SVGID_6_)" fill="none" stroke="#F8A15D" d="M291.357,245.547c12.204,0,22.133-9.93,22.133-22.133
		c0-12.205-9.93-22.133-22.133-22.133s-22.132,9.928-22.132,22.133C269.225,235.617,279.154,245.547,291.357,245.547z"/>
	<path clip-path="url(#SVGID_6_)" fill="#FFFFFF" d="M484.073,245.547c12.204,0,22.132-9.93,22.132-22.133
		c0-12.205-9.929-22.133-22.132-22.133s-22.132,9.928-22.132,22.133C461.941,235.617,471.87,245.547,484.073,245.547"/>
</g>
<g>
	<defs>
		<path id="SVGID_7_" d="M461.13,223.412c0,12.672,10.272,22.945,22.943,22.945c12.671,0,22.942-10.273,22.942-22.945
			c0-12.67-10.271-22.941-22.942-22.941C471.402,200.471,461.13,210.742,461.13,223.412"/>
	</defs>
	<clipPath id="SVGID_8_">
		<use xlink:href="#SVGID_7_"  overflow="visible"/>
	</clipPath>
	<path clip-path="url(#SVGID_8_)" fill="#F8A15D" d="M499.957,226.834c-1.078-1.85-3.205-5.73-3.537-7.176
		c-0.141-0.613-0.303-1.219-0.479-1.795c-0.041-0.129-0.082-0.391-0.128-0.691c-0.428-2.742-1.563-10.031-14.373-8.984
		c-7.242,0.75-8.569,6.736-9.068,8.988c-0.063,0.287-0.119,0.533-0.166,0.688c-0.178,0.576-0.338,1.182-0.48,1.795
		c-0.332,1.445-2.459,5.326-3.537,7.178c-0.217,0.371-0.233,0.824-0.045,1.207c1.649,3.381,5.014,6.051,9.234,7.33
		c0.12,0.035,0.243,0.053,0.367,0.053c0.057,0,0.111-0.01,0.162-0.021c1.681,1.977,3.788,3.326,6.16,3.326
		c2.371,0,4.48-1.35,6.159-3.33c0.057,0.016,0.114,0.025,0.175,0.025c0.124,0,0.248-0.018,0.371-0.053
		c4.217-1.279,7.58-3.949,9.231-7.328C500.191,227.66,500.175,227.207,499.957,226.834 M472.625,222.562h1.058v5.572h-1.058
		c-0.583,0-1.057-0.439-1.057-0.979v-3.619C471.568,223,472.042,222.562,472.625,222.562 M469.295,227.479
		c0.115-0.197,0.539-0.93,1.063-1.885v1.562c0,1.154,1.017,2.09,2.266,2.09h1.663c0.108,0,0.208-0.027,0.295-0.074
		c0.497,1.604,1.225,3.205,2.137,4.625C473.331,232.527,470.655,230.268,469.295,227.479 M484.068,237.449
		c-2.576,0-4.829-1.98-6.433-4.594c1.16,0.662,2.714,1.113,4.802,1.113c0.04,0,0.077-0.004,0.112-0.012
		c0.215,0.223,0.518,0.355,0.85,0.338l0.319-0.014c0.619-0.029,1.096-0.555,1.067-1.172s-0.556-1.096-1.172-1.066l-0.32,0.014
		c-0.44,0.023-0.806,0.297-0.97,0.676c-3.863-0.033-5.548-1.785-6.279-3.234c-0.227-0.639-0.417-1.283-0.563-1.918
		c-0.005-0.049-0.016-0.096-0.031-0.139c-0.221-0.998-0.343-1.971-0.343-2.859v-1.887c2.899-0.26,5.057-2.268,5.948-4.621
		c1.843,2.582,6.546,4.506,11.972,4.646v1.861C493.027,229.643,489.179,237.449,484.068,237.449 M491.408,233.803
		c1.821-2.826,2.899-6.367,2.899-9.221v-2.494c0-0.354-0.288-0.639-0.639-0.639c-6.96,0-12.161-3.041-12.161-5.762
		c0-0.354-0.289-0.639-0.641-0.639c-0.353,0-0.639,0.285-0.639,0.639c0,2.783-2.315,5.762-5.76,5.762
		c-0.031,0-0.059,0.004-0.087,0.008c-0.029-0.006-0.06-0.008-0.092-0.008h-1.663c-0.062,0-0.125,0.002-0.188,0.008
		c0.252-0.588,0.445-1.115,0.538-1.512c0.134-0.584,0.288-1.158,0.456-1.707c0.062-0.203,0.119-0.459,0.191-0.783
		c0.528-2.383,1.625-7.34,7.936-7.992c11.608-0.949,12.576,5.256,12.989,7.904c0.058,0.367,0.103,0.654,0.17,0.871
		c0.167,0.549,0.322,1.123,0.456,1.707c0.448,1.959,3.349,6.969,3.679,7.537C497.49,230.273,494.808,232.535,491.408,233.803"/>
</g>
<g>
	<defs>
		<rect id="SVGID_9_" x="228.61" y="93.314" width="800" height="644.414"/>
	</defs>
	<clipPath id="SVGID_10_">
		<use xlink:href="#SVGID_9_"  overflow="visible"/>
	</clipPath>
	<path clip-path="url(#SVGID_10_)" fill="none" stroke="#F8A15D" d="M484.073,245.547c12.204,0,22.132-9.93,22.132-22.133
		c0-12.205-9.929-22.133-22.132-22.133s-22.132,9.928-22.132,22.133C461.941,235.617,471.87,245.547,484.073,245.547z"/>
	<path clip-path="url(#SVGID_10_)" fill="#FFFFFF" d="M580.431,245.547c12.203,0,22.134-9.93,22.134-22.133
		c0-12.205-9.931-22.133-22.134-22.133c-12.203,0-22.132,9.928-22.132,22.133C558.298,235.617,568.228,245.547,580.431,245.547"/>
</g>
<g>
	<defs>
		<path id="SVGID_11_" d="M557.488,223.412c0,12.672,10.272,22.945,22.942,22.945c12.671,0,22.942-10.273,22.942-22.945
			c0-12.67-10.271-22.941-22.942-22.941C567.761,200.471,557.488,210.742,557.488,223.412"/>
	</defs>
	<clipPath id="SVGID_12_">
		<use xlink:href="#SVGID_11_"  overflow="visible"/>
	</clipPath>
	<path clip-path="url(#SVGID_12_)" fill="#F8A15D" d="M596.313,226.834c-1.078-1.85-3.204-5.73-3.536-7.176
		c-0.141-0.613-0.302-1.219-0.479-1.795c-0.041-0.129-0.081-0.391-0.128-0.691c-0.427-2.742-1.563-10.031-14.373-8.984
		c-7.242,0.75-8.569,6.736-9.068,8.988c-0.063,0.287-0.118,0.533-0.165,0.688c-0.178,0.576-0.338,1.182-0.481,1.795
		c-0.332,1.445-2.458,5.326-3.537,7.178c-0.217,0.371-0.233,0.824-0.045,1.207c1.65,3.381,5.015,6.051,9.235,7.33
		c0.12,0.035,0.243,0.053,0.368,0.053c0.056,0,0.11-0.01,0.161-0.021c1.681,1.977,3.789,3.326,6.16,3.326s4.481-1.35,6.16-3.33
		c0.055,0.016,0.112,0.025,0.174,0.025c0.125,0,0.247-0.018,0.37-0.053c4.217-1.279,7.582-3.949,9.231-7.328
		C596.549,227.66,596.533,227.207,596.313,226.834 M568.983,222.562h1.057v5.572h-1.057c-0.583,0-1.058-0.439-1.058-0.979v-3.619
		C567.925,223,568.399,222.562,568.983,222.562 M565.653,227.479c0.115-0.197,0.539-0.93,1.064-1.885v1.562
		c0,1.154,1.017,2.09,2.266,2.09h1.662c0.108,0,0.208-0.027,0.296-0.074c0.497,1.604,1.224,3.205,2.136,4.625
		C569.688,232.527,567.012,230.268,565.653,227.479 M580.425,237.449c-2.575,0-4.829-1.98-6.433-4.594
		c1.161,0.662,2.715,1.113,4.803,1.113c0.039,0,0.076-0.004,0.111-0.012c0.215,0.223,0.518,0.355,0.85,0.338l0.319-0.014
		c0.618-0.029,1.095-0.555,1.066-1.172s-0.555-1.096-1.171-1.066l-0.321,0.014c-0.44,0.023-0.806,0.297-0.97,0.676
		c-3.862-0.033-5.547-1.785-6.279-3.234c-0.227-0.639-0.416-1.283-0.563-1.918c-0.005-0.049-0.016-0.096-0.031-0.139
		c-0.221-0.998-0.343-1.971-0.343-2.859v-1.887c2.899-0.26,5.057-2.268,5.949-4.621c1.842,2.582,6.545,4.506,11.972,4.646v1.861
		C589.385,229.643,585.538,237.449,580.425,237.449 M587.767,233.803c1.821-2.826,2.899-6.367,2.899-9.221v-2.494
		c0-0.354-0.29-0.639-0.64-0.639c-6.96,0-12.161-3.041-12.161-5.762c0-0.354-0.288-0.639-0.641-0.639
		c-0.353,0-0.64,0.285-0.64,0.639c0,2.783-2.314,5.762-5.76,5.762c-0.031,0-0.058,0.004-0.087,0.008
		c-0.029-0.006-0.06-0.008-0.092-0.008h-1.662c-0.063,0-0.126,0.002-0.188,0.008c0.253-0.588,0.445-1.115,0.537-1.512
		c0.135-0.584,0.289-1.158,0.457-1.707c0.061-0.203,0.118-0.459,0.19-0.783c0.528-2.383,1.625-7.34,7.937-7.992
		c11.608-0.949,12.577,5.256,12.988,7.904c0.06,0.367,0.103,0.654,0.17,0.871c0.168,0.549,0.323,1.123,0.456,1.707
		c0.449,1.959,3.351,6.969,3.68,7.537C593.848,230.273,591.167,232.535,587.767,233.803"/>
</g>
<g>
	<defs>
		<rect id="SVGID_13_" x="228.61" y="93.314" width="800" height="644.414"/>
	</defs>
	<clipPath id="SVGID_14_">
		<use xlink:href="#SVGID_13_"  overflow="visible"/>
	</clipPath>
	<path clip-path="url(#SVGID_14_)" fill="none" stroke="#F8A15D" d="M580.431,245.547c12.203,0,22.134-9.93,22.134-22.133
		c0-12.205-9.931-22.133-22.134-22.133c-12.203,0-22.132,9.928-22.132,22.133C558.298,235.617,568.228,245.547,580.431,245.547z"/>
	<path clip-path="url(#SVGID_14_)" fill="#FFFFFF" d="M291.357,534.621c12.204,0,22.133-9.93,22.133-22.133
		c0-12.205-9.93-22.135-22.133-22.135s-22.132,9.93-22.132,22.135C269.225,524.691,279.154,534.621,291.357,534.621"/>
</g>
<g>
	<defs>
		<path id="SVGID_15_" d="M268.416,512.486c0,12.67,10.271,22.943,22.943,22.943c12.669,0,22.941-10.273,22.941-22.943
			c0-12.668-10.272-22.941-22.941-22.941C278.687,489.545,268.416,499.818,268.416,512.486"/>
	</defs>
	<clipPath id="SVGID_16_">
		<use xlink:href="#SVGID_15_"  overflow="visible"/>
	</clipPath>
	<path clip-path="url(#SVGID_16_)" fill="#F8A15D" d="M295.924,511.223h-11.873c-0.348,0-0.633,0.283-0.633,0.633
		s0.285,0.633,0.633,0.633h11.873c0.35,0,0.633-0.283,0.633-0.633S296.274,511.223,295.924,511.223"/>
	<path clip-path="url(#SVGID_16_)" fill="#F8A15D" d="M295.924,507.139h-11.873c-0.348,0-0.633,0.283-0.633,0.635
		c0,0.35,0.285,0.631,0.633,0.631h11.873c0.35,0,0.633-0.281,0.633-0.631C296.558,507.422,296.274,507.139,295.924,507.139"/>
	<path clip-path="url(#SVGID_16_)" fill="#F8A15D" d="M298.225,524.869l3.399-0.029l0.039-5.238l-0.039,5.236l-3.423,0.031
		C298.209,524.869,298.217,524.869,298.225,524.869"/>
	<path clip-path="url(#SVGID_16_)" fill="#F8A15D" d="M301.626,500.004L301.626,500.004h-0.251v24.584h-20.858l-0.08-0.078
		c0.12-0.07,0.256-0.115,0.403-0.115h20.345v-26.666H280.84c-1.129,0-2.047,0.918-2.047,2.045v25.498h0.008
		c0.045,1.092,0.939,1.963,2.039,1.963h0.242l22.84-0.004v-27.227H301.626z M297.842,524.838c0.001,0,0.003,0,0.005,0
		c0.001,0,0.001,0,0.003,0h3.776v-6.975c0-0.039-0.001-0.078,0-0.113v-17.543l0.178,0.18l0.27,0.273v24.691H281.28l-0.333-0.332
		l-0.179-0.182H297.842z M280.049,499.773c0-0.436,0.353-0.789,0.791-0.789h19.089v24.158h-19.88V499.773z M280.84,525.98
		c-0.438,0-0.793-0.354-0.793-0.793c0-0.199,0.076-0.377,0.198-0.516l1.31,1.309H280.84z M302.669,525.977l-20.761,0.004
		l-0.257-0.258l-0.213-0.213h20.796V500.82l0.275,0.277l0.161,0.16V525.977z"/>
</g>
<g>
	<defs>
		<rect id="SVGID_17_" x="228.61" y="93.314" width="800" height="644.414"/>
	</defs>
	<clipPath id="SVGID_18_">
		<use xlink:href="#SVGID_17_"  overflow="visible"/>
	</clipPath>
	<path clip-path="url(#SVGID_18_)" fill="none" stroke="#F8A15D" d="M291.357,534.621c12.204,0,22.133-9.93,22.133-22.133
		c0-12.205-9.93-22.135-22.133-22.135s-22.132,9.93-22.132,22.135C269.225,524.691,279.154,534.621,291.357,534.621z"/>
	<path clip-path="url(#SVGID_18_)" fill="#FFFFFF" d="M387.716,534.621c12.203,0,22.132-9.93,22.132-22.133
		c0-12.205-9.93-22.135-22.132-22.135c-12.204,0-22.133,9.93-22.133,22.135C365.583,524.691,375.512,534.621,387.716,534.621"/>
</g>
<g>
	<defs>
		<path id="SVGID_19_" d="M364.773,512.486c0,12.67,10.271,22.943,22.943,22.943c12.67,0,22.941-10.273,22.941-22.943
			c0-12.668-10.271-22.941-22.941-22.941C375.045,489.545,364.773,499.818,364.773,512.486"/>
	</defs>
	<clipPath id="SVGID_20_">
		<use xlink:href="#SVGID_19_"  overflow="visible"/>
	</clipPath>
	<path clip-path="url(#SVGID_20_)" fill="#F8A15D" d="M387.716,498.256c-7.855,0-14.226,6.367-14.226,14.227
		c0,7.854,6.37,14.223,14.226,14.223s14.226-6.369,14.226-14.223C401.941,504.623,395.571,498.256,387.716,498.256 M387.716,525.41
		c-7.129,0-12.931-5.799-12.931-12.928c0-7.131,5.801-12.932,12.931-12.932c7.128,0,12.93,5.801,12.93,12.932
		C400.646,519.611,394.844,525.41,387.716,525.41"/>
	<path clip-path="url(#SVGID_20_)" fill="#F8A15D" d="M387.716,508.826c-0.75,0-1.35,0.6-1.35,1.35v10.061
		c0,0.748,0.601,1.35,1.35,1.35c0.749,0,1.35-0.602,1.35-1.35v-10.061C389.066,509.426,388.465,508.826,387.716,508.826"/>
	<path clip-path="url(#SVGID_20_)" fill="#F8A15D" d="M387.716,503.377c-0.9,0-1.651,0.75-1.651,1.65s0.751,1.65,1.651,1.65
		c0.93,0,1.651-0.75,1.651-1.65S388.646,503.377,387.716,503.377"/>
</g>
<g>
	<defs>
		<rect id="SVGID_21_" x="228.61" y="93.314" width="800" height="644.414"/>
	</defs>
	<clipPath id="SVGID_22_">
		<use xlink:href="#SVGID_21_"  overflow="visible"/>
	</clipPath>
	<path clip-path="url(#SVGID_22_)" fill="none" stroke="#F8A15D" d="M387.716,534.621c12.203,0,22.132-9.93,22.132-22.133
		c0-12.205-9.93-22.135-22.132-22.135c-12.204,0-22.133,9.93-22.133,22.135C365.583,524.691,375.512,534.621,387.716,534.621z"/>
	<path clip-path="url(#SVGID_22_)" fill="#FFFFFF" d="M484.073,534.621c12.204,0,22.132-9.93,22.132-22.133
		c0-12.205-9.929-22.135-22.132-22.135s-22.132,9.93-22.132,22.135C461.941,524.691,471.87,534.621,484.073,534.621"/>
</g>
<g>
	<defs>
		<path id="SVGID_23_" d="M461.13,512.486c0,12.67,10.272,22.943,22.943,22.943c12.671,0,22.942-10.273,22.942-22.943
			c0-12.668-10.271-22.941-22.942-22.941C471.402,489.545,461.13,499.818,461.13,512.486"/>
	</defs>
	<clipPath id="SVGID_24_">
		<use xlink:href="#SVGID_23_"  overflow="visible"/>
	</clipPath>
	<path clip-path="url(#SVGID_24_)" fill="#F8A15D" d="M477.752,510.656c2.411,0,4.373-1.955,4.373-4.357
		c0-2.404-1.962-4.357-4.373-4.357c-2.408,0-4.368,1.953-4.368,4.357C473.384,508.701,475.344,510.656,477.752,510.656
		 M477.752,503.236c1.697,0,3.078,1.371,3.078,3.062c0,1.688-1.38,3.062-3.078,3.062c-1.694,0-3.074-1.375-3.074-3.062
		C474.679,504.607,476.058,503.236,477.752,503.236"/>
	<path clip-path="url(#SVGID_24_)" fill="#F8A15D" d="M489.12,511.834c-2.168,0-4.245,0.75-5.918,2.115
		c-1.496-1.365-3.408-2.115-5.448-2.115c-4.463,0-8.092,3.619-8.092,8.068c0,1.721,1.403,3.119,3.129,3.119h7.491
		c0.64,1.041,1.786,1.693,3.025,1.693h11.627c1.958,0,3.553-1.59,3.553-3.543C498.487,516.023,494.284,511.834,489.12,511.834
		 M472.791,521.727c-1.012,0-1.834-0.818-1.834-1.824c0-3.734,3.048-6.771,6.797-6.771c1.68,0,3.255,0.6,4.5,1.703
		c-0.036,0.037-0.069,0.08-0.105,0.119c-0.047,0.051-0.096,0.102-0.141,0.156c-0.057,0.066-0.112,0.133-0.166,0.201
		c-0.043,0.051-0.087,0.104-0.128,0.156c-0.057,0.07-0.11,0.143-0.165,0.219c-0.036,0.049-0.074,0.098-0.11,0.148
		c-0.062,0.088-0.122,0.178-0.179,0.268c-0.025,0.037-0.051,0.074-0.075,0.111c-0.081,0.127-0.158,0.256-0.232,0.387
		c-0.021,0.039-0.041,0.078-0.062,0.115c-0.052,0.096-0.104,0.189-0.153,0.287c-0.028,0.051-0.05,0.105-0.076,0.158
		c-0.041,0.084-0.081,0.166-0.119,0.25c-0.025,0.059-0.05,0.117-0.074,0.176c-0.034,0.08-0.068,0.162-0.099,0.244
		c-0.023,0.061-0.045,0.123-0.068,0.184c-0.029,0.082-0.058,0.162-0.083,0.246c-0.021,0.062-0.041,0.127-0.06,0.189
		c-0.026,0.08-0.048,0.162-0.071,0.246c-0.018,0.064-0.036,0.129-0.052,0.191c-0.021,0.084-0.04,0.17-0.059,0.256
		c-0.014,0.062-0.028,0.127-0.042,0.191c-0.017,0.086-0.032,0.174-0.048,0.262c-0.01,0.061-0.021,0.125-0.031,0.189
		c-0.013,0.094-0.025,0.186-0.036,0.277c-0.006,0.059-0.014,0.119-0.021,0.18c-0.009,0.102-0.016,0.205-0.023,0.309
		c-0.003,0.051-0.009,0.102-0.011,0.154c-0.008,0.154-0.011,0.311-0.011,0.467c0,0.113,0.006,0.225,0.018,0.34
		c0.003,0.031,0.006,0.064,0.011,0.096c0.004,0.039,0.008,0.08,0.014,0.119H472.791z M494.934,523.42h-11.627
		c-0.88,0-1.687-0.516-2.053-1.314c-0.138-0.299-0.206-0.611-0.206-0.934c0-0.562,0.057-1.113,0.168-1.648
		c0.333-1.602,1.158-3.066,2.399-4.221l0.003-0.002c1.503-1.4,3.457-2.17,5.5-2.17c4.45,0,8.072,3.605,8.072,8.041
		C497.192,522.41,496.179,523.42,494.934,523.42"/>
	<path clip-path="url(#SVGID_24_)" fill="#F8A15D" d="M489.119,510.232c2.763,0,5.01-2.238,5.01-4.992
		c0-2.752-2.247-4.992-5.01-4.992c-2.759,0-5.005,2.24-5.005,4.992C484.114,507.994,486.36,510.232,489.119,510.232
		 M489.119,501.543c2.048,0,3.716,1.66,3.716,3.697s-1.668,3.697-3.716,3.697c-2.045,0-3.71-1.66-3.71-3.697
		S487.074,501.543,489.119,501.543"/>
</g>
<g>
	<defs>
		<rect id="SVGID_25_" x="228.61" y="93.314" width="800" height="644.414"/>
	</defs>
	<clipPath id="SVGID_26_">
		<use xlink:href="#SVGID_25_"  overflow="visible"/>
	</clipPath>
	<path clip-path="url(#SVGID_26_)" fill="none" stroke="#F8A15D" d="M484.073,534.621c12.204,0,22.132-9.93,22.132-22.133
		c0-12.205-9.929-22.135-22.132-22.135s-22.132,9.93-22.132,22.135C461.941,524.691,471.87,534.621,484.073,534.621z"/>
	<path clip-path="url(#SVGID_26_)" fill="#FFFFFF" d="M580.431,534.621c12.203,0,22.134-9.93,22.134-22.133
		c0-12.205-9.931-22.135-22.134-22.135c-12.203,0-22.132,9.93-22.132,22.135C558.298,524.691,568.228,534.621,580.431,534.621"/>
</g>
<g>
	<defs>
		<path id="SVGID_27_" d="M557.488,512.486c0,12.67,10.272,22.943,22.942,22.943c12.671,0,22.942-10.273,22.942-22.943
			c0-12.668-10.271-22.941-22.942-22.941C567.761,489.545,557.488,499.818,557.488,512.486"/>
	</defs>
	<clipPath id="SVGID_28_">
		<use xlink:href="#SVGID_27_"  overflow="visible"/>
	</clipPath>
	<path clip-path="url(#SVGID_28_)" fill="#F8A15D" d="M574.111,510.656c2.41,0,4.372-1.955,4.372-4.357
		c0-2.404-1.962-4.357-4.372-4.357c-2.409,0-4.369,1.953-4.369,4.357C569.742,508.701,571.702,510.656,574.111,510.656
		 M574.111,503.236c1.696,0,3.077,1.371,3.077,3.062c0,1.688-1.381,3.062-3.077,3.062c-1.695,0-3.075-1.375-3.075-3.062
		C571.036,504.607,572.416,503.236,574.111,503.236"/>
	<path clip-path="url(#SVGID_28_)" fill="#F8A15D" d="M585.478,511.834c-2.167,0-4.245,0.75-5.918,2.115
		c-1.496-1.365-3.407-2.115-5.449-2.115c-4.462,0-8.092,3.619-8.092,8.068c0,1.721,1.404,3.119,3.129,3.119h7.491
		c0.64,1.041,1.786,1.693,3.026,1.693h11.626c1.958,0,3.554-1.59,3.554-3.543C594.845,516.023,590.642,511.834,585.478,511.834
		 M569.148,521.727c-1.012,0-1.834-0.818-1.834-1.824c0-3.734,3.049-6.771,6.797-6.771c1.68,0,3.255,0.6,4.5,1.703
		c-0.035,0.037-0.069,0.08-0.105,0.119c-0.046,0.051-0.096,0.102-0.141,0.156c-0.057,0.066-0.111,0.133-0.165,0.201
		c-0.043,0.051-0.087,0.104-0.128,0.156c-0.056,0.07-0.11,0.143-0.164,0.219c-0.037,0.049-0.075,0.098-0.111,0.148
		c-0.062,0.088-0.121,0.178-0.179,0.268c-0.024,0.037-0.051,0.074-0.074,0.111c-0.082,0.127-0.159,0.256-0.233,0.387
		c-0.021,0.039-0.041,0.078-0.062,0.115c-0.052,0.096-0.104,0.189-0.152,0.287c-0.028,0.051-0.051,0.105-0.077,0.158
		c-0.041,0.084-0.081,0.166-0.118,0.25c-0.026,0.059-0.051,0.117-0.074,0.176c-0.034,0.08-0.068,0.162-0.099,0.244
		c-0.024,0.061-0.046,0.123-0.068,0.184c-0.029,0.082-0.059,0.162-0.084,0.246c-0.021,0.062-0.041,0.127-0.06,0.189
		c-0.025,0.08-0.048,0.162-0.071,0.246c-0.017,0.064-0.036,0.129-0.051,0.191c-0.021,0.084-0.041,0.17-0.06,0.256
		c-0.014,0.062-0.028,0.127-0.041,0.191c-0.018,0.086-0.032,0.174-0.049,0.262c-0.01,0.061-0.021,0.125-0.031,0.189
		c-0.013,0.094-0.024,0.186-0.036,0.277c-0.006,0.059-0.014,0.119-0.021,0.18c-0.01,0.102-0.017,0.205-0.024,0.309
		c-0.003,0.051-0.008,0.102-0.01,0.154c-0.009,0.154-0.012,0.311-0.012,0.467c0,0.113,0.006,0.225,0.018,0.34
		c0.003,0.031,0.006,0.064,0.011,0.096c0.005,0.039,0.008,0.08,0.015,0.119H569.148z M591.292,523.42h-11.626
		c-0.881,0-1.687-0.516-2.053-1.314c-0.138-0.299-0.206-0.611-0.206-0.934c0-0.562,0.056-1.113,0.168-1.648
		c0.333-1.602,1.157-3.066,2.399-4.221l0.003-0.002c1.504-1.4,3.457-2.17,5.5-2.17c4.45,0,8.073,3.605,8.073,8.041
		C593.55,522.41,592.536,523.42,591.292,523.42"/>
	<path clip-path="url(#SVGID_28_)" fill="#F8A15D" d="M585.478,510.232c2.763,0,5.009-2.238,5.009-4.992
		c0-2.752-2.246-4.992-5.009-4.992c-2.76,0-5.006,2.24-5.006,4.992C580.472,507.994,582.717,510.232,585.478,510.232
		 M585.478,501.543c2.047,0,3.715,1.66,3.715,3.697s-1.668,3.697-3.715,3.697c-2.047,0-3.71-1.66-3.71-3.697
		S583.43,501.543,585.478,501.543"/>
</g>
<g>
	<defs>
		<rect id="SVGID_29_" x="228.61" y="93.314" width="800" height="644.414"/>
	</defs>
	<clipPath id="SVGID_30_">
		<use xlink:href="#SVGID_29_"  overflow="visible"/>
	</clipPath>
	<path clip-path="url(#SVGID_30_)" fill="none" stroke="#F8A15D" d="M580.431,534.621c12.203,0,22.134-9.93,22.134-22.133
		c0-12.205-9.931-22.135-22.134-22.135c-12.203,0-22.132,9.93-22.132,22.135C558.298,524.691,568.228,534.621,580.431,534.621z"/>
	<path clip-path="url(#SVGID_30_)" fill="#FFFFFF" d="M387.716,341.904c12.203,0,22.132-9.93,22.132-22.133
		c0-12.205-9.93-22.133-22.132-22.133c-12.204,0-22.133,9.928-22.133,22.133C365.583,331.975,375.512,341.904,387.716,341.904"/>
</g>
<g>
	<defs>
		<path id="SVGID_31_" d="M364.773,319.77c0,12.674,10.271,22.943,22.943,22.943c12.67,0,22.941-10.27,22.941-22.943
			c0-12.67-10.271-22.941-22.941-22.941C375.045,296.828,364.773,307.1,364.773,319.77"/>
	</defs>
	<clipPath id="SVGID_32_">
		<use xlink:href="#SVGID_31_"  overflow="visible"/>
	</clipPath>
	<path clip-path="url(#SVGID_32_)" fill="#F8A15D" d="M403.6,324.734c-0.864-1.479-3.187-5.648-3.537-7.174
		c-0.143-0.615-0.303-1.219-0.481-1.797c-0.481-1.564-1.099-3-1.835-4.27c-0.176-0.307-0.568-0.408-0.874-0.232
		c-0.306,0.18-0.41,0.57-0.233,0.877c0.688,1.184,1.266,2.529,1.719,4.002c0.168,0.547,0.322,1.121,0.457,1.705
		c0.465,2.029,3.549,7.312,3.681,7.537c-1.363,2.791-4.047,5.053-7.446,6.318c1.821-2.824,2.901-6.367,2.901-9.217v-2.496
		c0-0.354-0.291-0.641-0.641-0.641c-6.961,0-12.16-3.041-12.16-5.758c0-0.355-0.289-0.643-0.641-0.643
		c-0.353,0-0.639,0.287-0.639,0.643c0,2.779-2.316,5.758-5.761,5.758c-0.353,0-0.639,0.287-0.639,0.641v2.496
		c0,2.848,1.074,6.389,2.894,9.211c-3.391-1.268-6.067-3.527-7.426-6.314c0.131-0.223,3.214-5.508,3.679-7.535
		c0.134-0.584,0.289-1.158,0.457-1.705c0.453-1.473,1.031-2.818,1.719-4.002c0.178-0.307,0.074-0.697-0.231-0.877
		c-0.306-0.176-0.698-0.072-0.876,0.232c-0.736,1.268-1.353,2.705-1.836,4.27c-0.176,0.578-0.338,1.182-0.48,1.797
		c-0.35,1.523-2.671,5.695-3.537,7.174c-0.216,0.373-0.233,0.824-0.045,1.211c1.651,3.379,5.017,6.051,9.235,7.33
		c0.119,0.033,0.243,0.051,0.367,0.051c0.057,0,0.11-0.01,0.164-0.023c1.678,1.979,3.786,3.328,6.157,3.328
		c2.372,0,4.481-1.35,6.161-3.33c0.055,0.016,0.113,0.025,0.173,0.025c0.125,0,0.247-0.018,0.372-0.053
		c4.215-1.277,7.579-3.949,9.23-7.328C403.834,325.561,403.818,325.107,403.6,324.734 M387.708,335.35
		c-5.111,0-8.959-7.805-8.959-12.865v-1.887c2.899-0.26,5.055-2.27,5.947-4.623c1.842,2.582,6.546,4.504,11.974,4.645v1.865
		C396.67,327.545,392.822,335.35,387.708,335.35"/>
	<path clip-path="url(#SVGID_32_)" fill="#F8A15D" d="M379.475,312.377c0.047,0.303,0.292,0.521,0.585,0.545
		c0.016,0.006,0.032,0.016,0.05,0.016c0.021,0,0.042-0.004,0.062-0.012c0.001-0.002,0.011-0.006,0.017-0.006
		c0.004-0.002,0.009-0.002,0.014-0.002c0.102-0.016,0.193-0.055,0.272-0.107c0.066-0.025,0.144-0.053,0.231-0.082
		c0.976-0.338,3.616-1.117,7.016-1.117c2.423,0,4.786,0.391,7.023,1.16c0.137,0.049,0.276,0.1,0.418,0.15
		c0.014,0.006,0.028,0.006,0.045,0.006c0.02,0,0.039-0.002,0.059-0.008c0.014,0,0.027,0,0.04,0c0.315,0,0.589-0.225,0.635-0.543
		l0.895-6.26c0.064-0.445-0.152-0.891-0.547-1.107c-0.057-0.033-3.872-2.107-8.917-2.107c-2.543,0-5.396,0.525-8.241,2.107
		c-0.393,0.217-0.612,0.662-0.547,1.104L379.475,312.377z M387.371,304.035c4.484,0,7.978,1.762,8.339,1.949l-0.808,5.645
		c-2.294-0.764-4.709-1.15-7.182-1.15c-3.389,0-6.067,0.74-7.212,1.119l-0.801-5.613
		C382.047,304.691,384.625,304.035,387.371,304.035"/>
	<path clip-path="url(#SVGID_32_)" fill="#F8A15D" d="M385.608,307.963h1.261v1.262c0,0.232,0.188,0.42,0.42,0.42h0.84
		c0.232,0,0.419-0.188,0.419-0.42v-1.262h1.262c0.231,0,0.42-0.186,0.42-0.418v-0.842c0-0.232-0.189-0.42-0.42-0.42h-1.262v-1.26
		c0-0.232-0.187-0.42-0.419-0.42h-0.84c-0.231,0-0.42,0.188-0.42,0.42v1.26h-1.261c-0.233,0-0.42,0.188-0.42,0.42v0.842
		C385.188,307.777,385.375,307.963,385.608,307.963"/>
</g>
<g>
	<defs>
		<rect id="SVGID_33_" x="228.61" y="93.314" width="800" height="644.414"/>
	</defs>
	<clipPath id="SVGID_34_">
		<use xlink:href="#SVGID_33_"  overflow="visible"/>
	</clipPath>
	<path clip-path="url(#SVGID_34_)" fill="none" stroke="#F8A15D" d="M387.716,341.904c12.203,0,22.132-9.93,22.132-22.133
		c0-12.205-9.93-22.133-22.132-22.133c-12.204,0-22.133,9.928-22.133,22.133C365.583,331.975,375.512,341.904,387.716,341.904z"/>
	<path clip-path="url(#SVGID_34_)" fill="#FFFFFF" d="M484.073,341.904c12.204,0,22.132-9.93,22.132-22.133
		c0-12.205-9.929-22.133-22.132-22.133s-22.132,9.928-22.132,22.133C461.941,331.975,471.87,341.904,484.073,341.904"/>
</g>
<g>
	<defs>
		<path id="SVGID_35_" d="M461.13,319.77c0,12.674,10.272,22.943,22.943,22.943c12.671,0,22.942-10.27,22.942-22.943
			c0-12.67-10.271-22.941-22.942-22.941C471.402,296.828,461.13,307.1,461.13,319.77"/>
	</defs>
	<clipPath id="SVGID_36_">
		<use xlink:href="#SVGID_35_"  overflow="visible"/>
	</clipPath>
	<path clip-path="url(#SVGID_36_)" fill="#F8A15D" d="M499.958,324.734c-0.865-1.479-3.188-5.648-3.537-7.174
		c-0.143-0.615-0.303-1.219-0.481-1.797c-0.48-1.564-1.099-3-1.836-4.27c-0.176-0.307-0.57-0.408-0.874-0.232
		c-0.306,0.18-0.41,0.57-0.232,0.877c0.688,1.184,1.265,2.529,1.718,4.002c0.169,0.547,0.322,1.121,0.457,1.705
		c0.466,2.029,3.549,7.312,3.681,7.537c-1.363,2.791-4.047,5.053-7.446,6.318c1.821-2.824,2.899-6.367,2.899-9.217v-2.496
		c0-0.354-0.288-0.641-0.64-0.641c-6.96,0-12.159-3.041-12.159-5.758c0-0.355-0.29-0.643-0.641-0.643
		c-0.354,0-0.639,0.287-0.639,0.643c0,2.779-2.317,5.758-5.761,5.758c-0.353,0-0.64,0.287-0.64,0.641v2.496
		c0,2.848,1.075,6.389,2.895,9.211c-3.392-1.268-6.067-3.527-7.426-6.314c0.131-0.223,3.214-5.508,3.679-7.535
		c0.135-0.584,0.288-1.158,0.456-1.705c0.454-1.473,1.032-2.818,1.719-4.002c0.179-0.307,0.074-0.697-0.231-0.877
		c-0.306-0.176-0.697-0.072-0.876,0.232c-0.736,1.268-1.353,2.705-1.835,4.27c-0.176,0.578-0.338,1.182-0.48,1.797
		c-0.35,1.523-2.671,5.695-3.537,7.174c-0.217,0.373-0.233,0.824-0.045,1.211c1.651,3.379,5.016,6.051,9.234,7.33
		c0.12,0.033,0.243,0.051,0.368,0.051c0.057,0,0.11-0.01,0.164-0.023c1.679,1.979,3.786,3.328,6.158,3.328
		c2.371,0,4.481-1.35,6.16-3.33c0.056,0.016,0.114,0.025,0.174,0.025c0.124,0,0.247-0.018,0.372-0.053
		c4.215-1.277,7.578-3.949,9.229-7.328C500.192,325.561,500.176,325.107,499.958,324.734 M484.067,335.35
		c-5.112,0-8.96-7.805-8.96-12.865v-1.887c2.899-0.26,5.056-2.27,5.947-4.623c1.842,2.582,6.546,4.504,11.973,4.645v1.865
		C493.027,327.545,489.18,335.35,484.067,335.35"/>
	<path clip-path="url(#SVGID_36_)" fill="#F8A15D" d="M475.833,312.377c0.047,0.303,0.292,0.521,0.584,0.545
		c0.017,0.006,0.032,0.016,0.05,0.016c0.021,0,0.042-0.004,0.062-0.012c0.001-0.002,0.011-0.006,0.016-0.006
		c0.005-0.002,0.009-0.002,0.014-0.002c0.103-0.016,0.193-0.055,0.273-0.107c0.066-0.025,0.144-0.053,0.23-0.082
		c0.976-0.338,3.617-1.117,7.016-1.117c2.423,0,4.787,0.391,7.024,1.16c0.138,0.049,0.277,0.1,0.417,0.15
		c0.015,0.006,0.029,0.006,0.045,0.006c0.02,0,0.04-0.002,0.059-0.008c0.015,0,0.028,0,0.04,0c0.316,0,0.59-0.225,0.635-0.543
		l0.896-6.26c0.065-0.445-0.154-0.891-0.547-1.107c-0.057-0.033-3.872-2.107-8.918-2.107c-2.542,0-5.396,0.525-8.24,2.107
		c-0.394,0.217-0.612,0.662-0.548,1.104L475.833,312.377z M483.729,304.035c4.484,0,7.979,1.762,8.339,1.949l-0.808,5.645
		c-2.293-0.764-4.708-1.15-7.182-1.15c-3.388,0-6.066,0.74-7.211,1.119l-0.801-5.613
		C478.405,304.691,480.983,304.035,483.729,304.035"/>
	<path clip-path="url(#SVGID_36_)" fill="#F8A15D" d="M481.966,307.963h1.261v1.262c0,0.232,0.188,0.42,0.419,0.42h0.84
		c0.231,0,0.419-0.188,0.419-0.42v-1.262h1.261c0.231,0,0.42-0.186,0.42-0.418v-0.842c0-0.232-0.189-0.42-0.42-0.42h-1.261v-1.26
		c0-0.232-0.188-0.42-0.419-0.42h-0.84c-0.231,0-0.419,0.188-0.419,0.42v1.26h-1.261c-0.233,0-0.42,0.188-0.42,0.42v0.842
		C481.546,307.777,481.733,307.963,481.966,307.963"/>
</g>
<g>
	<defs>
		<rect id="SVGID_37_" x="228.61" y="93.314" width="800" height="644.414"/>
	</defs>
	<clipPath id="SVGID_38_">
		<use xlink:href="#SVGID_37_"  overflow="visible"/>
	</clipPath>
	<path clip-path="url(#SVGID_38_)" fill="none" stroke="#F8A15D" d="M484.073,341.904c12.204,0,22.132-9.93,22.132-22.133
		c0-12.205-9.929-22.133-22.132-22.133s-22.132,9.928-22.132,22.133C461.941,331.975,471.87,341.904,484.073,341.904z"/>
	<path clip-path="url(#SVGID_38_)" fill="#FFFFFF" d="M580.431,341.904c12.203,0,22.134-9.93,22.134-22.133
		c0-12.205-9.931-22.133-22.134-22.133c-12.203,0-22.132,9.928-22.132,22.133C558.298,331.975,568.228,341.904,580.431,341.904"/>
</g>
<g>
	<defs>
		<path id="SVGID_39_" d="M557.488,319.77c0,12.674,10.272,22.943,22.942,22.943c12.671,0,22.942-10.27,22.942-22.943
			c0-12.67-10.271-22.941-22.942-22.941C567.761,296.828,557.488,307.1,557.488,319.77"/>
	</defs>
	<clipPath id="SVGID_40_">
		<use xlink:href="#SVGID_39_"  overflow="visible"/>
	</clipPath>
	<path clip-path="url(#SVGID_40_)" fill="#F8A15D" d="M596.315,324.734c-0.865-1.479-3.187-5.648-3.537-7.174
		c-0.142-0.615-0.303-1.219-0.48-1.797c-0.48-1.564-1.1-3-1.837-4.27c-0.175-0.307-0.569-0.408-0.873-0.232
		c-0.307,0.18-0.411,0.57-0.234,0.877c0.688,1.184,1.266,2.529,1.72,4.002c0.168,0.547,0.323,1.121,0.456,1.705
		c0.466,2.029,3.55,7.312,3.682,7.537c-1.364,2.791-4.047,5.053-7.447,6.318c1.821-2.824,2.899-6.367,2.899-9.217v-2.496
		c0-0.354-0.288-0.641-0.639-0.641c-6.96,0-12.16-3.041-12.16-5.758c0-0.355-0.289-0.643-0.641-0.643
		c-0.353,0-0.639,0.287-0.639,0.643c0,2.779-2.316,5.758-5.761,5.758c-0.353,0-0.639,0.287-0.639,0.641v2.496
		c0,2.848,1.074,6.389,2.894,9.211c-3.391-1.268-6.066-3.527-7.426-6.314c0.131-0.223,3.214-5.508,3.679-7.535
		c0.134-0.584,0.289-1.158,0.457-1.705c0.453-1.473,1.031-2.818,1.719-4.002c0.178-0.307,0.074-0.697-0.231-0.877
		c-0.306-0.176-0.698-0.072-0.876,0.232c-0.736,1.268-1.353,2.705-1.835,4.27c-0.177,0.578-0.338,1.182-0.481,1.797
		c-0.35,1.523-2.671,5.695-3.537,7.174c-0.216,0.373-0.232,0.824-0.045,1.211c1.651,3.379,5.017,6.051,9.235,7.33
		c0.119,0.033,0.243,0.051,0.367,0.051c0.056,0,0.11-0.01,0.164-0.023c1.678,1.979,3.786,3.328,6.157,3.328
		c2.372,0,4.481-1.35,6.161-3.33c0.055,0.016,0.114,0.025,0.174,0.025c0.124,0,0.247-0.018,0.372-0.053
		c4.216-1.277,7.58-3.949,9.23-7.328C596.551,325.561,596.535,325.107,596.315,324.734 M580.424,335.35
		c-5.111,0-8.959-7.805-8.959-12.865v-1.887c2.899-0.26,5.055-2.27,5.947-4.623c1.843,2.582,6.546,4.504,11.975,4.645v1.865
		C589.387,327.545,585.539,335.35,580.424,335.35"/>
	<path clip-path="url(#SVGID_40_)" fill="#F8A15D" d="M572.19,312.377c0.047,0.303,0.292,0.521,0.584,0.545
		c0.016,0.006,0.033,0.016,0.05,0.016c0.021,0,0.043-0.004,0.062-0.012c0.001-0.002,0.011-0.006,0.017-0.006
		c0.004-0.002,0.009-0.002,0.014-0.002c0.102-0.016,0.193-0.055,0.272-0.107c0.066-0.025,0.144-0.053,0.231-0.082
		c0.976-0.338,3.616-1.117,7.016-1.117c2.423,0,4.786,0.391,7.023,1.16c0.137,0.049,0.276,0.1,0.418,0.15
		c0.013,0.006,0.029,0.006,0.044,0.006c0.019,0,0.038-0.002,0.059-0.008c0.014,0,0.027,0,0.04,0c0.316,0,0.589-0.225,0.635-0.543
		l0.895-6.26c0.065-0.445-0.153-0.891-0.547-1.107c-0.057-0.033-3.873-2.107-8.917-2.107c-2.543,0-5.396,0.525-8.241,2.107
		c-0.393,0.217-0.612,0.662-0.547,1.104L572.19,312.377z M580.087,304.035c4.485,0,7.978,1.762,8.339,1.949l-0.807,5.645
		c-2.295-0.764-4.71-1.15-7.183-1.15c-3.388,0-6.067,0.74-7.212,1.119l-0.801-5.613
		C574.763,304.691,577.341,304.035,580.087,304.035"/>
	<path clip-path="url(#SVGID_40_)" fill="#F8A15D" d="M578.324,307.963h1.261v1.262c0,0.232,0.188,0.42,0.42,0.42h0.84
		c0.232,0,0.419-0.188,0.419-0.42v-1.262h1.261c0.231,0,0.421-0.186,0.421-0.418v-0.842c0-0.232-0.19-0.42-0.421-0.42h-1.261v-1.26
		c0-0.232-0.187-0.42-0.419-0.42h-0.84c-0.231,0-0.42,0.188-0.42,0.42v1.26h-1.261c-0.233,0-0.421,0.188-0.421,0.42v0.842
		C577.903,307.777,578.091,307.963,578.324,307.963"/>
</g>
<g>
	<defs>
		<rect id="SVGID_41_" x="228.61" y="93.314" width="800" height="644.414"/>
	</defs>
	<clipPath id="SVGID_42_">
		<use xlink:href="#SVGID_41_"  overflow="visible"/>
	</clipPath>
	<path clip-path="url(#SVGID_42_)" fill="none" stroke="#F8A15D" d="M580.431,341.904c12.203,0,22.134-9.93,22.134-22.133
		c0-12.205-9.931-22.133-22.134-22.133c-12.203,0-22.132,9.928-22.132,22.133C558.298,331.975,568.228,341.904,580.431,341.904z"/>
	<path clip-path="url(#SVGID_42_)" fill="#FFFFFF" d="M387.716,438.264c12.203,0,22.132-9.932,22.132-22.135
		c0-12.205-9.93-22.133-22.132-22.133c-12.204,0-22.133,9.928-22.133,22.133C365.583,428.332,375.512,438.264,387.716,438.264"/>
	<path clip-path="url(#SVGID_42_)" fill="none" stroke="#F8A15D" d="M387.716,438.264c12.203,0,22.132-9.932,22.132-22.135
		c0-12.205-9.93-22.133-22.132-22.133c-12.204,0-22.133,9.928-22.133,22.133C365.583,428.332,375.512,438.264,387.716,438.264z"/>
</g>
<g>
	<defs>
		<rect id="SVGID_43_" x="374.113" y="403.48" width="27.204" height="25.295"/>
	</defs>
	<clipPath id="SVGID_44_">
		<use xlink:href="#SVGID_43_"  overflow="visible"/>
	</clipPath>
	<path clip-path="url(#SVGID_44_)" fill="#F8A15D" d="M377.265,424.045c0,0,0.164,0.094,0.257-0.07l0.41-0.707l1.261,0.729
		c0,0,0.353,0.203,0.635-0.289c0,0,7.488-12.938,7.509-13.004l1.789,1.031c0,0,0.165,0.094,0.258-0.07l0.298-0.514
		c0,0,0.096-0.164-0.07-0.262l-2.969-1.713l1.787-3.092l1.521,0.879c0,0,0.162,0.094,0.259-0.072l0.235-0.408
		c0,0,0.096-0.162-0.068-0.258l-4.705-2.715c0,0-0.164-0.096-0.258,0.068l-0.236,0.41c0,0-0.094,0.164,0.071,0.258l1.521,0.879
		l-1.786,3.094l-2.969-1.715c0,0-0.165-0.094-0.259,0.07l-0.298,0.514c0,0-0.096,0.166,0.069,0.262l1.787,1.031
		c-0.025,0.031-7.507,13.004-7.507,13.004s-0.287,0.494,0.205,0.779l1.12,0.645l-0.406,0.707c0,0-0.096,0.164,0.07,0.262
		l0.048,0.027l-2.734,4.73l0.42,0.242L377.265,424.045z"/>
	<path clip-path="url(#SVGID_44_)" fill="#F8A15D" d="M388.108,424.045c0,0,0.164,0.094,0.258-0.07l0.41-0.707l1.261,0.729
		c0,0,0.353,0.203,0.634-0.289c0,0,7.488-12.938,7.51-13.004l1.789,1.031c0,0,0.165,0.094,0.259-0.07l0.298-0.514
		c0,0,0.095-0.164-0.069-0.262l-2.969-1.713l1.787-3.092l1.521,0.879c0,0,0.161,0.094,0.258-0.072l0.235-0.408
		c0,0,0.096-0.162-0.068-0.258l-4.703-2.715c0,0-0.164-0.096-0.26,0.068l-0.236,0.41c0,0-0.094,0.164,0.071,0.258l1.521,0.879
		l-1.785,3.094l-2.969-1.715c0,0-0.166-0.094-0.259,0.07l-0.298,0.514c0,0-0.096,0.166,0.07,0.262l1.787,1.031
		c-0.026,0.031-7.508,13.004-7.508,13.004s-0.286,0.494,0.206,0.779l1.121,0.645l-0.406,0.707c0,0-0.095,0.164,0.07,0.262
		l0.048,0.027l-2.734,4.73l0.418,0.242L388.108,424.045z"/>
</g>
<g>
	<defs>
		<rect id="SVGID_45_" x="228.61" y="93.314" width="800" height="644.414"/>
	</defs>
	<clipPath id="SVGID_46_">
		<use xlink:href="#SVGID_45_"  overflow="visible"/>
	</clipPath>
	<path clip-path="url(#SVGID_46_)" fill="#FFFFFF" d="M484.073,438.264c12.204,0,22.132-9.932,22.132-22.135
		c0-12.205-9.929-22.133-22.132-22.133s-22.132,9.928-22.132,22.133C461.941,428.332,471.87,438.264,484.073,438.264"/>
	<path clip-path="url(#SVGID_46_)" fill="none" stroke="#F8A15D" d="M484.073,438.264c12.204,0,22.132-9.932,22.132-22.135
		c0-12.205-9.929-22.133-22.132-22.133s-22.132,9.928-22.132,22.133C461.941,428.332,471.87,438.264,484.073,438.264z"/>
</g>
<g>
	<defs>
		<rect id="SVGID_47_" x="470.472" y="403.48" width="27.204" height="25.295"/>
	</defs>
	<clipPath id="SVGID_48_">
		<use xlink:href="#SVGID_47_"  overflow="visible"/>
	</clipPath>
	<path clip-path="url(#SVGID_48_)" fill="#F8A15D" d="M473.622,424.045c0,0,0.164,0.094,0.258-0.07l0.409-0.707l1.261,0.729
		c0,0,0.354,0.203,0.635-0.289c0,0,7.488-12.938,7.509-13.004l1.789,1.031c0,0,0.165,0.094,0.259-0.07l0.297-0.514
		c0,0,0.096-0.164-0.07-0.262l-2.968-1.713l1.787-3.092l1.521,0.879c0,0,0.162,0.094,0.259-0.072l0.235-0.408
		c0,0,0.096-0.162-0.068-0.258l-4.704-2.715c0,0-0.164-0.096-0.259,0.068l-0.236,0.41c0,0-0.094,0.164,0.071,0.258l1.521,0.879
		l-1.786,3.094l-2.969-1.715c0,0-0.165-0.094-0.259,0.07l-0.297,0.514c0,0-0.096,0.166,0.069,0.262l1.787,1.031
		c-0.026,0.031-7.508,13.004-7.508,13.004s-0.286,0.494,0.206,0.779l1.12,0.645l-0.406,0.707c0,0-0.096,0.164,0.07,0.262
		l0.049,0.027l-2.734,4.73l0.419,0.242L473.622,424.045z"/>
	<path clip-path="url(#SVGID_48_)" fill="#F8A15D" d="M484.467,424.045c0,0,0.164,0.094,0.258-0.07l0.409-0.707l1.261,0.729
		c0,0,0.354,0.203,0.635-0.289c0,0,7.488-12.938,7.509-13.004l1.789,1.031c0,0,0.165,0.094,0.258-0.07l0.298-0.514
		c0,0,0.096-0.164-0.069-0.262l-2.969-1.713l1.787-3.092l1.521,0.879c0,0,0.162,0.094,0.259-0.072l0.234-0.408
		c0,0,0.096-0.162-0.068-0.258l-4.704-2.715c0,0-0.164-0.096-0.259,0.068l-0.236,0.41c0,0-0.094,0.164,0.071,0.258l1.521,0.879
		l-1.786,3.094l-2.968-1.715c0,0-0.166-0.094-0.259,0.07l-0.298,0.514c0,0-0.095,0.166,0.07,0.262l1.787,1.031
		c-0.025,0.031-7.507,13.004-7.507,13.004s-0.287,0.494,0.206,0.779l1.12,0.645l-0.406,0.707c0,0-0.096,0.164,0.069,0.262
		l0.049,0.027l-2.734,4.73l0.419,0.242L484.467,424.045z"/>
</g>
<g>
	<defs>
		<rect id="SVGID_49_" x="228.61" y="93.314" width="800" height="644.414"/>
	</defs>
	<clipPath id="SVGID_50_">
		<use xlink:href="#SVGID_49_"  overflow="visible"/>
	</clipPath>
	<path clip-path="url(#SVGID_50_)" fill="#FFFFFF" d="M580.431,438.264c12.203,0,22.134-9.932,22.134-22.135
		c0-12.205-9.931-22.133-22.134-22.133c-12.203,0-22.132,9.928-22.132,22.133C558.298,428.332,568.228,438.264,580.431,438.264"/>
	<path clip-path="url(#SVGID_50_)" fill="none" stroke="#F8A15D" d="M580.431,438.264c12.203,0,22.134-9.932,22.134-22.135
		c0-12.205-9.931-22.133-22.134-22.133c-12.203,0-22.132,9.928-22.132,22.133C558.298,428.332,568.228,438.264,580.431,438.264z"/>
</g>
<g>
	<defs>
		<rect id="SVGID_51_" x="566.828" y="403.48" width="27.206" height="25.295"/>
	</defs>
	<clipPath id="SVGID_52_">
		<use xlink:href="#SVGID_51_"  overflow="visible"/>
	</clipPath>
	<path clip-path="url(#SVGID_52_)" fill="#F8A15D" d="M569.98,424.045c0,0,0.164,0.094,0.257-0.07l0.409-0.707l1.262,0.729
		c0,0,0.353,0.203,0.635-0.289c0,0,7.488-12.938,7.508-13.004l1.789,1.031c0,0,0.166,0.094,0.259-0.07l0.298-0.514
		c0,0,0.096-0.164-0.07-0.262l-2.969-1.713l1.787-3.092l1.521,0.879c0,0,0.162,0.094,0.259-0.072l0.235-0.408
		c0,0,0.095-0.162-0.068-0.258l-4.705-2.715c0,0-0.164-0.096-0.259,0.068l-0.236,0.41c0,0-0.093,0.164,0.072,0.258l1.521,0.879
		l-1.786,3.094l-2.969-1.715c0,0-0.165-0.094-0.259,0.07l-0.298,0.514c0,0-0.096,0.166,0.069,0.262l1.787,1.031
		c-0.026,0.031-7.507,13.004-7.507,13.004s-0.287,0.494,0.205,0.779l1.12,0.645l-0.406,0.707c0,0-0.096,0.164,0.07,0.262
		l0.048,0.027l-2.734,4.73l0.42,0.242L569.98,424.045z"/>
	<path clip-path="url(#SVGID_52_)" fill="#F8A15D" d="M580.825,424.045c0,0,0.163,0.094,0.257-0.07l0.41-0.707l1.261,0.729
		c0,0,0.353,0.203,0.633-0.289c0,0,7.49-12.938,7.51-13.004l1.788,1.031c0,0,0.166,0.094,0.259-0.07l0.299-0.514
		c0,0,0.096-0.164-0.069-0.262l-2.969-1.713l1.788-3.092l1.521,0.879c0,0,0.161,0.094,0.259-0.072l0.234-0.408
		c0,0,0.095-0.162-0.068-0.258l-4.703-2.715c0,0-0.165-0.096-0.259,0.068l-0.237,0.41c0,0-0.095,0.164,0.071,0.258l1.522,0.879
		l-1.786,3.094l-2.969-1.715c0,0-0.165-0.094-0.259,0.07l-0.297,0.514c0,0-0.095,0.166,0.069,0.262l1.787,1.031
		c-0.025,0.031-7.507,13.004-7.507,13.004s-0.286,0.494,0.206,0.779l1.121,0.645l-0.406,0.707c0,0-0.095,0.164,0.07,0.262
		l0.048,0.027l-2.734,4.73l0.418,0.242L580.825,424.045z"/>
</g>
<g>
	<defs>
		<rect id="SVGID_53_" x="228.61" y="93.314" width="800" height="644.414"/>
	</defs>
	<clipPath id="SVGID_54_">
		<use xlink:href="#SVGID_53_"  overflow="visible"/>
	</clipPath>
	<path clip-path="url(#SVGID_54_)" fill="#FFFFFF" d="M676.789,245.547c12.203,0,22.133-9.93,22.133-22.133
		c0-12.205-9.93-22.133-22.133-22.133s-22.133,9.928-22.133,22.133C654.656,235.617,664.586,245.547,676.789,245.547"/>
</g>
<g>
	<defs>
		<path id="SVGID_55_" d="M653.848,223.412c0,12.672,10.27,22.945,22.941,22.945c12.67,0,22.941-10.273,22.941-22.945
			c0-12.67-10.271-22.941-22.941-22.941C664.117,200.471,653.848,210.742,653.848,223.412"/>
	</defs>
	<clipPath id="SVGID_56_">
		<use xlink:href="#SVGID_55_"  overflow="visible"/>
	</clipPath>
	<path clip-path="url(#SVGID_56_)" fill="#006327" d="M692.673,226.836c-1.078-1.85-3.206-5.732-3.536-7.176
		c-0.143-0.613-0.304-1.219-0.48-1.795c-0.041-0.129-0.081-0.391-0.127-0.691c-0.428-2.744-1.564-10.031-14.374-8.982
		c-7.241,0.748-8.569,6.734-9.067,8.988c-0.062,0.285-0.118,0.533-0.166,0.686c-0.177,0.576-0.338,1.182-0.48,1.795
		c-0.332,1.443-2.458,5.326-3.536,7.178c-0.217,0.373-0.232,0.824-0.046,1.207c1.65,3.381,5.015,6.053,9.235,7.332
		c0.12,0.033,0.243,0.053,0.366,0.053c0.058,0,0.111-0.012,0.163-0.023c1.681,1.979,3.787,3.326,6.159,3.326s4.481-1.35,6.16-3.33
		c0.057,0.014,0.112,0.027,0.174,0.027c0.125,0,0.248-0.02,0.37-0.055c4.217-1.277,7.581-3.949,9.231-7.328
		C692.906,227.662,692.891,227.211,692.673,226.836 M665.34,222.564h1.058v5.57h-1.058c-0.582,0-1.057-0.436-1.057-0.975v-3.621
		C664.283,223.002,664.758,222.564,665.34,222.564 M662.011,227.48c0.115-0.195,0.539-0.93,1.063-1.883v1.562
		c0,1.152,1.017,2.09,2.266,2.09h1.663c0.108,0,0.208-0.029,0.297-0.074c0.496,1.604,1.224,3.203,2.136,4.623
		C666.046,232.529,663.37,230.27,662.011,227.48 M676.783,237.453c-2.575,0-4.83-1.982-6.433-4.596
		c1.16,0.662,2.714,1.115,4.803,1.115c0.038,0,0.075-0.006,0.11-0.012c0.217,0.219,0.519,0.354,0.851,0.338l0.319-0.014
		c0.618-0.031,1.096-0.557,1.066-1.176c-0.029-0.615-0.555-1.094-1.171-1.064l-0.322,0.016c-0.439,0.021-0.807,0.295-0.968,0.676
		c-3.863-0.035-5.549-1.787-6.28-3.234c-0.226-0.641-0.416-1.283-0.562-1.92c-0.005-0.047-0.018-0.094-0.03-0.139
		c-0.223-1-0.345-1.971-0.345-2.857v-1.887c2.899-0.26,5.059-2.27,5.95-4.623c1.842,2.582,6.544,4.504,11.971,4.645v1.865
		C685.742,229.645,681.895,237.453,676.783,237.453 M684.124,233.805c1.821-2.826,2.899-6.367,2.899-9.219v-2.496
		c0-0.352-0.29-0.639-0.641-0.639c-6.959,0-12.161-3.043-12.161-5.762c0-0.352-0.287-0.639-0.64-0.639
		c-0.354,0-0.641,0.287-0.641,0.639c0,2.783-2.314,5.762-5.759,5.762c-0.031,0-0.059,0.004-0.089,0.008
		c-0.028-0.006-0.06-0.008-0.091-0.008h-1.663c-0.063,0-0.127,0.002-0.187,0.008c0.253-0.588,0.445-1.113,0.537-1.512
		c0.133-0.584,0.288-1.156,0.455-1.705c0.063-0.203,0.119-0.461,0.193-0.787c0.526-2.379,1.625-7.336,7.936-7.99
		c11.607-0.949,12.576,5.258,12.987,7.906c0.06,0.365,0.103,0.654,0.171,0.871c0.167,0.549,0.322,1.121,0.457,1.705
		c0.447,1.959,3.35,6.969,3.678,7.539C690.205,230.273,687.524,232.537,684.124,233.805"/>
</g>
<g>
	<defs>
		<rect id="SVGID_57_" x="228.61" y="93.314" width="800" height="644.414"/>
	</defs>
	<clipPath id="SVGID_58_">
		<use xlink:href="#SVGID_57_"  overflow="visible"/>
	</clipPath>
	<path clip-path="url(#SVGID_58_)" fill="none" stroke="#006327" d="M676.789,245.547c12.203,0,22.133-9.93,22.133-22.133
		c0-12.205-9.93-22.133-22.133-22.133s-22.133,9.928-22.133,22.133C654.656,235.617,664.586,245.547,676.789,245.547z"/>
	<path clip-path="url(#SVGID_58_)" fill="#FFFFFF" d="M773.146,245.547c12.204,0,22.133-9.93,22.133-22.133
		c0-12.205-9.929-22.133-22.133-22.133c-12.203,0-22.132,9.928-22.132,22.133C751.015,235.617,760.943,245.547,773.146,245.547"/>
</g>
<g>
	<defs>
		<path id="SVGID_59_" d="M750.205,223.412c0,12.672,10.271,22.945,22.939,22.945c12.672,0,22.943-10.273,22.943-22.945
			c0-12.67-10.271-22.941-22.943-22.941C760.477,200.471,750.205,210.742,750.205,223.412"/>
	</defs>
	<clipPath id="SVGID_60_">
		<use xlink:href="#SVGID_59_"  overflow="visible"/>
	</clipPath>
	<path clip-path="url(#SVGID_60_)" fill="#006327" d="M789.03,226.836c-1.078-1.85-3.204-5.732-3.536-7.176
		c-0.143-0.613-0.304-1.219-0.48-1.795c-0.04-0.129-0.079-0.391-0.127-0.691c-0.428-2.744-1.564-10.031-14.372-8.982
		c-7.243,0.748-8.571,6.734-9.069,8.988c-0.062,0.285-0.118,0.533-0.166,0.686c-0.177,0.576-0.338,1.182-0.48,1.795
		c-0.332,1.443-2.458,5.326-3.536,7.178c-0.216,0.373-0.232,0.824-0.046,1.207c1.65,3.381,5.015,6.053,9.235,7.332
		c0.12,0.033,0.243,0.053,0.366,0.053c0.058,0,0.111-0.012,0.163-0.023c1.681,1.979,3.789,3.326,6.16,3.326s4.48-1.35,6.159-3.33
		c0.057,0.014,0.113,0.027,0.174,0.027c0.125,0,0.248-0.02,0.371-0.055c4.216-1.277,7.58-3.949,9.23-7.328
		C789.266,227.662,789.248,227.211,789.03,226.836 M761.698,222.564h1.058v5.57h-1.058c-0.583,0-1.057-0.436-1.057-0.975v-3.621
		C760.642,223.002,761.115,222.564,761.698,222.564 M758.368,227.48c0.115-0.195,0.54-0.93,1.063-1.883v1.562
		c0,1.152,1.017,2.09,2.267,2.09h1.662c0.108,0,0.208-0.029,0.297-0.074c0.496,1.604,1.224,3.203,2.137,4.623
		C762.403,232.529,759.728,230.27,758.368,227.48 M773.142,237.453c-2.576,0-4.829-1.982-6.434-4.596
		c1.16,0.662,2.716,1.115,4.803,1.115c0.039,0,0.075-0.006,0.112-0.012c0.215,0.219,0.517,0.354,0.849,0.338l0.319-0.014
		c0.619-0.031,1.097-0.557,1.067-1.176c-0.03-0.615-0.556-1.094-1.172-1.064l-0.321,0.016c-0.44,0.021-0.806,0.295-0.969,0.676
		c-3.863-0.035-5.548-1.787-6.278-3.234c-0.228-0.641-0.418-1.283-0.564-1.92c-0.005-0.047-0.016-0.094-0.03-0.139
		c-0.222-1-0.345-1.971-0.345-2.857v-1.887c2.899-0.26,5.059-2.27,5.95-4.623c1.842,2.582,6.546,4.504,11.973,4.645v1.865
		C782.102,229.645,778.253,237.453,773.142,237.453 M780.483,233.805c1.82-2.826,2.897-6.367,2.897-9.219v-2.496
		c0-0.352-0.288-0.639-0.639-0.639c-6.96,0-12.161-3.043-12.161-5.762c0-0.352-0.289-0.639-0.641-0.639
		c-0.355,0-0.64,0.287-0.64,0.639c0,2.783-2.316,5.762-5.761,5.762c-0.031,0-0.059,0.004-0.087,0.008
		c-0.03-0.006-0.06-0.008-0.093-0.008h-1.662c-0.062,0-0.126,0.002-0.188,0.008c0.253-0.588,0.445-1.113,0.537-1.512
		c0.135-0.584,0.288-1.156,0.455-1.705c0.063-0.203,0.12-0.461,0.193-0.787c0.527-2.379,1.625-7.336,7.936-7.99
		c11.609-0.949,12.576,5.258,12.989,7.906c0.059,0.365,0.103,0.654,0.169,0.871c0.169,0.549,0.322,1.121,0.457,1.705
		c0.448,1.959,3.35,6.969,3.678,7.539C786.562,230.273,783.882,232.537,780.483,233.805"/>
</g>
<g>
	<defs>
		<rect id="SVGID_61_" x="228.61" y="93.314" width="800" height="644.414"/>
	</defs>
	<clipPath id="SVGID_62_">
		<use xlink:href="#SVGID_61_"  overflow="visible"/>
	</clipPath>
	<path clip-path="url(#SVGID_62_)" fill="none" stroke="#006327" d="M773.146,245.547c12.204,0,22.133-9.93,22.133-22.133
		c0-12.205-9.929-22.133-22.133-22.133c-12.203,0-22.132,9.928-22.132,22.133C751.015,235.617,760.943,245.547,773.146,245.547z"/>
	<path clip-path="url(#SVGID_62_)" fill="#FFFFFF" d="M965.863,245.547c12.203,0,22.132-9.93,22.132-22.133
		c0-12.205-9.929-22.133-22.132-22.133c-12.204,0-22.134,9.928-22.134,22.133C943.729,235.617,953.659,245.547,965.863,245.547"/>
</g>
<g>
	<defs>
		<path id="SVGID_63_" d="M942.922,223.412c0,12.672,10.27,22.945,22.941,22.945c12.67,0,22.941-10.273,22.941-22.945
			c0-12.67-10.271-22.941-22.941-22.941C953.191,200.471,942.922,210.742,942.922,223.412"/>
	</defs>
	<clipPath id="SVGID_64_">
		<use xlink:href="#SVGID_63_"  overflow="visible"/>
	</clipPath>
	<path clip-path="url(#SVGID_64_)" fill="#006327" d="M981.747,226.836c-1.078-1.85-3.206-5.732-3.538-7.176
		c-0.141-0.613-0.304-1.219-0.479-1.795c-0.04-0.129-0.081-0.391-0.129-0.691c-0.427-2.744-1.562-10.031-14.372-8.982
		c-7.243,0.748-8.569,6.734-9.067,8.988c-0.063,0.285-0.118,0.533-0.166,0.686c-0.179,0.576-0.338,1.182-0.48,1.795
		c-0.332,1.443-2.458,5.326-3.536,7.178c-0.218,0.373-0.233,0.824-0.046,1.207c1.648,3.381,5.015,6.053,9.235,7.332
		c0.118,0.033,0.241,0.053,0.366,0.053c0.057,0,0.111-0.012,0.163-0.023c1.679,1.979,3.787,3.326,6.158,3.326
		c2.372,0,4.48-1.35,6.159-3.33c0.057,0.014,0.113,0.027,0.176,0.027c0.124,0,0.248-0.02,0.371-0.055
		c4.216-1.277,7.58-3.949,9.23-7.328C981.98,227.662,981.965,227.211,981.747,226.836 M954.415,222.564h1.057v5.57h-1.057
		c-0.585,0-1.059-0.436-1.059-0.975v-3.621C953.356,223.002,953.83,222.564,954.415,222.564 M951.085,227.48
		c0.115-0.195,0.539-0.93,1.063-1.883v1.562c0,1.152,1.017,2.09,2.267,2.09h1.661c0.109,0,0.209-0.029,0.296-0.074
		c0.496,1.604,1.224,3.203,2.138,4.623C955.12,232.529,952.444,230.27,951.085,227.48 M965.856,237.453
		c-2.574,0-4.827-1.982-6.434-4.596c1.162,0.662,2.716,1.115,4.805,1.115c0.039,0,0.075-0.006,0.111-0.012
		c0.216,0.219,0.518,0.354,0.85,0.338l0.319-0.014c0.618-0.031,1.095-0.557,1.066-1.176c-0.029-0.615-0.556-1.094-1.173-1.064
		l-0.319,0.016c-0.44,0.021-0.806,0.295-0.971,0.676c-3.861-0.035-5.547-1.787-6.278-3.234c-0.228-0.641-0.416-1.283-0.562-1.92
		c-0.007-0.047-0.017-0.094-0.032-0.139c-0.221-1-0.343-1.971-0.343-2.857v-1.887c2.899-0.26,5.057-2.27,5.948-4.623
		c1.844,2.582,6.548,4.504,11.973,4.645v1.865C974.816,229.645,970.969,237.453,965.856,237.453 M973.198,233.805
		c1.82-2.826,2.898-6.367,2.898-9.219v-2.496c0-0.352-0.287-0.639-0.639-0.639c-6.961,0-12.162-3.043-12.162-5.762
		c0-0.352-0.287-0.639-0.639-0.639c-0.355,0-0.642,0.287-0.642,0.639c0,2.783-2.314,5.762-5.761,5.762
		c-0.029,0-0.057,0.004-0.085,0.008c-0.03-0.006-0.061-0.008-0.094-0.008h-1.661c-0.063,0-0.126,0.002-0.189,0.008
		c0.253-0.588,0.445-1.113,0.537-1.512c0.137-0.584,0.29-1.156,0.457-1.705c0.062-0.203,0.119-0.461,0.191-0.787
		c0.528-2.379,1.625-7.336,7.938-7.99c11.607-0.949,12.574,5.258,12.988,7.906c0.058,0.365,0.102,0.654,0.17,0.871
		c0.169,0.549,0.32,1.121,0.456,1.705c0.449,1.959,3.349,6.969,3.679,7.539C979.279,230.273,976.597,232.537,973.198,233.805"/>
</g>
<g>
	<defs>
		<rect id="SVGID_65_" x="228.61" y="93.314" width="800" height="644.414"/>
	</defs>
	<clipPath id="SVGID_66_">
		<use xlink:href="#SVGID_65_"  overflow="visible"/>
	</clipPath>
	<path clip-path="url(#SVGID_66_)" fill="none" stroke="#006327" d="M965.863,245.547c12.203,0,22.132-9.93,22.132-22.133
		c0-12.205-9.929-22.133-22.132-22.133c-12.204,0-22.134,9.928-22.134,22.133C943.729,235.617,953.659,245.547,965.863,245.547z"/>
	<path clip-path="url(#SVGID_66_)" fill="#FFFFFF" d="M869.506,341.904c12.203,0,22.131-9.93,22.131-22.133
		c0-12.205-9.928-22.133-22.131-22.133c-12.204,0-22.134,9.928-22.134,22.133C847.372,331.975,857.302,341.904,869.506,341.904"/>
</g>
<g>
	<defs>
		<path id="SVGID_67_" d="M846.562,319.77c0,12.674,10.271,22.943,22.943,22.943c12.67,0,22.94-10.27,22.94-22.943
			c0-12.67-10.271-22.941-22.94-22.941C856.834,296.828,846.562,307.1,846.562,319.77"/>
	</defs>
	<clipPath id="SVGID_68_">
		<use xlink:href="#SVGID_67_"  overflow="visible"/>
	</clipPath>
	<path clip-path="url(#SVGID_68_)" fill="#006327" d="M885.39,324.736c-0.865-1.477-3.188-5.648-3.538-7.174
		c-0.143-0.615-0.302-1.219-0.48-1.797c-0.48-1.562-1.099-3-1.835-4.268c-0.176-0.307-0.571-0.412-0.875-0.232
		c-0.307,0.178-0.409,0.57-0.233,0.875c0.689,1.186,1.268,2.531,1.72,4.002c0.168,0.549,0.322,1.121,0.457,1.707
		c0.466,2.027,3.549,7.309,3.682,7.533c-1.364,2.793-4.047,5.055-7.447,6.322c1.821-2.826,2.9-6.367,2.9-9.219v-2.496
		c0-0.354-0.29-0.639-0.642-0.639c-6.958,0-12.159-3.041-12.159-5.76c0-0.355-0.289-0.641-0.642-0.641
		c-0.352,0-0.639,0.285-0.639,0.641c0,2.781-2.316,5.76-5.761,5.76c-0.354,0-0.639,0.285-0.639,0.639v2.496
		c0,2.85,1.075,6.387,2.894,9.213c-3.392-1.27-6.067-3.529-7.427-6.316c0.131-0.225,3.215-5.508,3.68-7.533
		c0.133-0.586,0.288-1.158,0.455-1.707c0.454-1.473,1.032-2.816,1.721-4.002c0.177-0.305,0.074-0.697-0.231-0.875
		c-0.307-0.18-0.698-0.072-0.876,0.232c-0.736,1.266-1.353,2.705-1.836,4.268c-0.178,0.578-0.339,1.182-0.481,1.797
		c-0.349,1.525-2.671,5.697-3.536,7.176c-0.216,0.371-0.232,0.824-0.046,1.209c1.65,3.381,5.018,6.051,9.235,7.328
		c0.12,0.035,0.243,0.053,0.367,0.053c0.057,0,0.11-0.008,0.164-0.021c1.679,1.977,3.786,3.326,6.157,3.326
		c2.372,0,4.481-1.35,6.16-3.33c0.057,0.016,0.113,0.025,0.174,0.025c0.125,0,0.248-0.018,0.373-0.053
		c4.214-1.277,7.578-3.947,9.229-7.326C885.623,325.564,885.607,325.109,885.39,324.736 M869.498,335.352
		c-5.111,0-8.958-7.807-8.958-12.865v-1.885c2.898-0.262,5.055-2.27,5.946-4.623c1.842,2.58,6.545,4.502,11.973,4.643v1.865
		C878.459,327.545,874.611,335.352,869.498,335.352"/>
	<path clip-path="url(#SVGID_68_)" fill="#006327" d="M861.264,312.381c0.047,0.301,0.291,0.521,0.585,0.545
		c0.016,0.004,0.031,0.016,0.051,0.016c0.021,0,0.041-0.006,0.06-0.014c0.003,0,0.013-0.004,0.018-0.006s0.01-0.002,0.014-0.002
		c0.102-0.014,0.193-0.053,0.272-0.109c0.066-0.023,0.146-0.051,0.23-0.08c0.978-0.336,3.617-1.117,7.016-1.117
		c2.425,0,4.787,0.391,7.025,1.162c0.137,0.047,0.276,0.098,0.417,0.15c0.015,0.004,0.028,0.006,0.044,0.006
		c0.021,0,0.04-0.004,0.061-0.01c0.014,0,0.026,0.002,0.039,0.002c0.316,0,0.59-0.225,0.634-0.543l0.896-6.262
		c0.065-0.445-0.153-0.889-0.549-1.105c-0.055-0.033-3.869-2.109-8.915-2.109c-2.544,0-5.396,0.527-8.242,2.109
		c-0.396,0.217-0.611,0.66-0.547,1.104L861.264,312.381z M869.161,304.037c4.483,0,7.979,1.762,8.339,1.949l-0.809,5.646
		c-2.293-0.766-4.707-1.152-7.183-1.152c-3.386,0-6.067,0.742-7.21,1.119l-0.802-5.613
		C863.837,304.693,866.415,304.037,869.161,304.037"/>
	<path clip-path="url(#SVGID_68_)" fill="#006327" d="M867.396,307.967h1.262v1.262c0,0.23,0.188,0.418,0.421,0.418h0.839
		c0.232,0,0.419-0.188,0.419-0.418v-1.262h1.262c0.23,0,0.421-0.189,0.421-0.42v-0.842c0-0.23-0.19-0.42-0.421-0.42h-1.262v-1.26
		c0-0.232-0.187-0.42-0.419-0.42h-0.839c-0.232,0-0.421,0.188-0.421,0.42v1.26h-1.262c-0.231,0-0.42,0.189-0.42,0.42v0.842
		C866.977,307.777,867.165,307.967,867.396,307.967"/>
</g>
<g>
	<defs>
		<rect id="SVGID_69_" x="228.61" y="93.314" width="800" height="644.414"/>
	</defs>
	<clipPath id="SVGID_70_">
		<use xlink:href="#SVGID_69_"  overflow="visible"/>
	</clipPath>
	<path clip-path="url(#SVGID_70_)" fill="none" stroke="#006327" d="M869.506,341.904c12.203,0,22.131-9.93,22.131-22.133
		c0-12.205-9.928-22.133-22.131-22.133c-12.204,0-22.134,9.928-22.134,22.133C847.372,331.975,857.302,341.904,869.506,341.904z"/>
</g>
<rect x="628.608" y="94.935" fill="#006327" width="385.434" height="80.3"/>
<g>
	<defs>
		<rect id="SVGID_71_" x="228.61" y="93.314" width="800" height="644.414"/>
	</defs>
	<clipPath id="SVGID_72_">
		<use xlink:href="#SVGID_71_"  overflow="visible"/>
	</clipPath>
	<path clip-path="url(#SVGID_72_)" fill="#FFFFFF" d="M856.948,137.91c0-1.885,0.933-2.955,2.469-2.955
		c1.554,0,2.507,1.127,2.507,3.033c0,1.922-0.895,2.992-2.448,2.992C858.017,140.98,856.948,139.834,856.948,137.91 M854.95,146.65
		h2.058v-5.381c0.737,1.029,1.708,1.533,2.972,1.533c2.508,0,4.098-1.805,4.098-4.873c0-2.896-1.648-4.799-4.019-4.799
		c-1.479,0-2.566,0.641-3.051,1.785v-1.475h-2.058V146.65z M840.81,128.547v8.645c0,3.748,1.862,5.611,5.689,5.611
		c3.829,0,5.71-1.863,5.71-5.611v-8.645h-2.25v8.432c0,2.504-1.168,3.768-3.46,3.768s-3.459-1.264-3.459-3.768v-8.432H840.81z
		 M829.251,142.979l4.68-9.537h-2.176l-1.98,4.352c-0.232,0.506-0.407,1.107-0.523,1.807c-0.021-0.582-0.175-1.088-0.428-1.631
		l-2.232-4.857h-0.176l-2.195,4.857c-0.253,0.543-0.445,1.049-0.465,1.631c-0.136-0.912-0.312-1.514-0.449-1.826l-2.019-4.332
		h-2.193l4.661,9.537l2.136-4.758c0.117-0.271,0.33-0.855,0.621-1.711c0.194,0.662,0.427,1.244,0.661,1.789L829.251,142.979z
		 M816.49,137.969c0,1.689-1.264,2.992-2.779,2.992c-1.533,0-2.779-1.303-2.779-2.992c0-1.691,1.246-2.994,2.779-2.994
		C815.246,134.975,816.49,136.277,816.49,137.969 M808.76,137.949c0,1.32,0.503,2.506,1.454,3.438
		c0.933,0.912,2.177,1.416,3.478,1.416c1.341,0,2.566-0.504,3.535-1.436c0.933-0.895,1.437-2.078,1.437-3.418
		c0-1.303-0.523-2.488-1.456-3.402c-0.949-0.93-2.175-1.416-3.516-1.416c-1.301,0-2.545,0.486-3.478,1.396
		C809.263,135.441,808.76,136.646,808.76,137.949 M804.621,142.434h2.059V127.73h-2.059V142.434z M799.728,142.434h2.058V127.73
		h-2.058V142.434z M795.474,137.969c0,1.689-1.264,2.992-2.779,2.992c-1.535,0-2.78-1.303-2.78-2.992
		c0-1.691,1.245-2.994,2.78-2.994S795.474,136.277,795.474,137.969 M787.742,137.949c0,1.32,0.506,2.506,1.456,3.438
		c0.931,0.912,2.175,1.416,3.476,1.416c1.344,0,2.567-0.504,3.536-1.436c0.933-0.895,1.436-2.078,1.436-3.418
		c0-1.303-0.523-2.488-1.456-3.402c-0.948-0.93-2.172-1.416-3.516-1.416c-1.301,0-2.545,0.486-3.476,1.396
		C788.248,135.441,787.742,136.646,787.742,137.949 M778.573,142.434h2.253v-6.527h5.496v-1.979h-5.496v-3.459h5.496v-1.922h-7.749
		V142.434z"/>
</g>
<rect x="243.179" y="94.935" fill="#F8A15D" width="385.43" height="80.3"/>
<g>
	<defs>
		<rect id="SVGID_73_" x="228.61" y="93.314" width="800" height="644.414"/>
	</defs>
	<clipPath id="SVGID_74_">
		<use xlink:href="#SVGID_73_"  overflow="visible"/>
	</clipPath>
	<path clip-path="url(#SVGID_74_)" fill="#FFFFFF" d="M530.569,137.91c0,1.904-1.088,3.07-2.508,3.07
		c-1.554,0-2.467-1.07-2.467-2.992c0-1.906,0.952-3.033,2.505-3.033C529.637,134.955,530.569,136.025,530.569,137.91
		 M532.568,141.873v-8.432h-2.058v1.475c-0.485-1.145-1.554-1.785-3.032-1.785c-2.37,0-4.039,1.902-4.039,4.799
		c0,3.068,1.591,4.873,4.098,4.873c1.262,0,2.235-0.504,2.973-1.533l-0.02,1.184c-0.019,1.682-0.602,2.508-2.487,2.508
		c-1.205,0-1.865-0.422-1.923-1.176h-2.213c0.02,1.682,1.552,2.865,4.097,2.865C531.442,146.65,532.568,145.213,532.568,141.873
		 M512.874,142.434h2.057v-4.096c0-1.129,0.039-1.906,0.408-2.449c0.428-0.643,1.205-1.012,2.176-1.012
		c1.71,0,1.963,0.934,1.963,2.936v4.621h2.076v-5.457c0-1.088,0-1.904-0.447-2.584c-0.524-0.834-1.475-1.262-2.814-1.262
		c-1.575,0-2.644,0.523-3.479,1.785v-1.475h-1.94V142.434z M507.804,129.557c0,0.699,0.583,1.299,1.299,1.299
		c0.719,0,1.282-0.562,1.282-1.299c0-0.738-0.563-1.281-1.282-1.281C508.386,128.275,507.804,128.857,507.804,129.557
		 M508.076,142.434h2.058v-8.992h-2.058V142.434z M496.751,142.434h2.058v-4.096c0-1.129,0.039-1.906,0.408-2.449
		c0.428-0.643,1.205-1.012,2.177-1.012c1.709,0,1.962,0.934,1.962,2.936v4.621h2.076v-5.457c0-1.088,0-1.904-0.446-2.584
		c-0.525-0.834-1.475-1.262-2.814-1.262c-1.575,0-2.644,0.523-3.479,1.785v-1.475h-1.94V142.434z M491.681,129.557
		c0,0.699,0.583,1.299,1.302,1.299c0.717,0,1.28-0.562,1.28-1.299c0-0.738-0.563-1.281-1.28-1.281
		C492.264,128.275,491.681,128.857,491.681,129.557 M491.954,142.434h2.057v-8.992h-2.057V142.434z M489.212,142.434v-8.992h-2.058
		v1.475c-0.485-1.145-1.554-1.785-3.032-1.785c-2.37,0-4.038,1.902-4.038,4.799c0,3.068,1.591,4.873,4.097,4.873
		c1.265,0,2.235-0.504,2.973-1.533v1.164H489.212z M487.213,137.91c0,1.904-1.087,3.07-2.505,3.07c-1.556,0-2.469-1.07-2.469-2.992
		c0-1.906,0.953-3.033,2.508-3.033C486.281,134.955,487.213,136.025,487.213,137.91 M475.849,134.895v-1.453h-2.058v8.992h2.058
		V138.5c0-2.422,0.466-3.566,1.923-3.566c0.466,0,0.874,0.096,1.262,0.367l0.738-1.742c-0.544-0.273-1.106-0.406-1.69-0.406
		C476.995,133.152,476.295,133.713,475.849,134.895 M468.759,130.469h3.671v-1.922h-9.612v1.922h3.69v11.965h2.25V130.469z
		 M456.482,138.238v-0.389c0-2.992-1.707-4.719-4.603-4.719c-2.799,0-4.718,2.037-4.718,4.836c0,2.934,1.844,4.836,4.718,4.836
		c2.022,0,3.497-0.871,4.505-2.678l-1.726-0.973c-0.661,1.244-1.498,1.77-2.818,1.77c-1.496,0-2.449-0.992-2.546-2.684H456.482z
		 M454.349,136.861h-4.917c0.33-1.342,1.147-1.984,2.487-1.984C453.339,134.877,454.193,135.559,454.349,136.861 M438.712,140.805
		c0.66,1.359,1.804,1.998,3.553,1.998c2.351,0,3.669-1.125,3.669-2.873c0-1.301-0.736-2.039-2.308-2.66
		c-1.4-0.564-2.374-0.701-2.374-1.576c0-0.621,0.506-1.029,1.303-1.029c0.72,0,1.284,0.369,1.497,0.932l1.455-1.01
		c-0.447-0.932-1.455-1.475-2.875-1.475c-2.137,0-3.437,1.145-3.437,2.699c0,1.303,0.873,2.002,2.582,2.721
		c1.243,0.523,2.138,0.604,2.138,1.535c0,0.719-0.544,1.186-1.479,1.186c-1.089,0-1.767-0.486-2.02-1.379L438.712,140.805z
		 M435.585,137.969c0,1.689-1.263,2.992-2.779,2.992c-1.535,0-2.78-1.303-2.78-2.992c0-1.691,1.245-2.994,2.78-2.994
		C434.341,134.975,435.585,136.277,435.585,137.969 M427.854,137.949c0,1.32,0.505,2.506,1.455,3.438
		c0.931,0.912,2.175,1.416,3.477,1.416c1.342,0,2.565-0.504,3.535-1.436c0.933-0.895,1.436-2.078,1.436-3.418
		c0-1.303-0.522-2.488-1.455-3.402c-0.95-0.93-2.174-1.416-3.516-1.416c-1.302,0-2.546,0.486-3.477,1.396
		C428.359,135.441,427.854,136.646,427.854,137.949 M416.761,140.396v-9.83h1.631c1.671,0,2.953,0.057,3.984,0.912
		c1.049,0.893,1.573,2.234,1.573,4.002c0,1.77-0.524,3.109-1.573,4.002c-0.992,0.836-2.177,0.914-3.712,0.914H416.761z
		 M414.509,142.434h3.65c2.253,0,4.081-0.057,5.693-1.299c1.591-1.225,2.446-3.146,2.446-5.635s-0.855-4.43-2.446-5.652
		c-1.69-1.301-3.692-1.301-6.295-1.301h-3.048V142.434z M404.02,137.91c0,1.904-1.088,3.07-2.506,3.07
		c-1.555,0-2.468-1.07-2.468-2.992c0-1.906,0.952-3.033,2.507-3.033C403.087,134.955,404.02,136.025,404.02,137.91 M406.019,141.873
		v-8.432h-2.057v1.475c-0.485-1.145-1.554-1.785-3.032-1.785c-2.37,0-4.038,1.902-4.038,4.799c0,3.068,1.591,4.873,4.096,4.873
		c1.265,0,2.235-0.504,2.974-1.533l-0.019,1.184c-0.02,1.682-0.602,2.508-2.486,2.508c-1.207,0-1.866-0.422-1.925-1.176h-2.213
		c0.02,1.682,1.552,2.865,4.099,2.865C404.894,146.65,406.019,145.213,406.019,141.873 M386.324,142.434h2.058v-4.096
		c0-1.129,0.039-1.906,0.408-2.449c0.428-0.643,1.205-1.012,2.178-1.012c1.709,0,1.961,0.934,1.961,2.936v4.621h2.077v-5.457
		c0-1.088,0-1.904-0.447-2.584c-0.522-0.834-1.474-1.262-2.814-1.262c-1.575,0-2.643,0.523-3.479,1.785v-1.475h-1.941V142.434z
		 M381.254,129.557c0,0.699,0.583,1.299,1.302,1.299c0.717,0,1.28-0.562,1.28-1.299c0-0.738-0.563-1.281-1.28-1.281
		C381.837,128.275,381.254,128.857,381.254,129.557 M381.526,142.434h2.057v-8.992h-2.057V142.434z M376.789,137.91
		c0,1.904-1.07,3.07-2.508,3.07c-1.555,0-2.468-1.07-2.468-2.992c0-1.906,0.952-3.033,2.507-3.033
		C375.854,134.955,376.789,136.025,376.789,137.91 M376.73,127.73v7.186c-0.488-1.145-1.556-1.785-3.032-1.785
		c-2.371,0-4.039,1.902-4.039,4.799c0,3.068,1.591,4.873,4.098,4.873c1.262,0,2.233-0.504,2.974-1.533v1.164h2.056V127.73H376.73z
		 M367.675,142.434v-8.992h-2.056v1.475c-0.485-1.145-1.556-1.785-3.032-1.785c-2.37,0-4.038,1.902-4.038,4.799
		c0,3.068,1.591,4.873,4.097,4.873c1.263,0,2.235-0.504,2.974-1.533v1.164H367.675z M365.677,137.91c0,1.904-1.089,3.07-2.507,3.07
		c-1.554,0-2.468-1.07-2.468-2.992c0-1.906,0.953-3.033,2.507-3.033C364.745,134.955,365.677,136.025,365.677,137.91
		 M355.052,137.969c0,1.689-1.264,2.992-2.779,2.992c-1.535,0-2.78-1.303-2.78-2.992c0-1.691,1.245-2.994,2.78-2.994
		C353.809,134.975,355.052,136.277,355.052,137.969 M347.321,137.949c0,1.32,0.504,2.506,1.455,3.438
		c0.931,0.912,2.175,1.416,3.477,1.416c1.341,0,2.566-0.504,3.536-1.436c0.932-0.895,1.435-2.078,1.435-3.418
		c0-1.303-0.522-2.488-1.455-3.402c-0.95-0.93-2.175-1.416-3.516-1.416c-1.302,0-2.546,0.486-3.477,1.396
		C347.825,135.441,347.321,136.646,347.321,137.949 M339.222,142.434h7.3v-2.018h-5.05v-11.869h-2.25V142.434z"/>
	<path clip-path="url(#SVGID_74_)" fill="#F9A25E" d="M496.808,576.807l1.926-4.623l1.898,4.623l2.379-6.215h-0.867l-1.554,4.289
		l-1.872-4.607l-1.871,4.607l-1.554-4.289h-0.866L496.808,576.807z M492.805,572.889h-3.704c0.097-1.049,0.882-1.725,1.845-1.725
		C492.047,571.164,492.735,571.785,492.805,572.889 M493.779,573.588v-0.207c0-1.857-1.112-3.012-2.723-3.012
		c-1.693,0-2.902,1.277-2.902,3.26c0,1.871,1.182,3.178,2.93,3.178c1.28,0,2.132-0.549,2.737-1.76l-0.756-0.414
		c-0.454,0.951-1.087,1.434-1.981,1.434c-1.185,0-2.011-0.922-2.039-2.479H493.779z M485.485,568.264
		c0,0.344,0.26,0.631,0.631,0.631s0.646-0.287,0.646-0.631c0-0.373-0.303-0.631-0.646-0.631
		C485.788,567.633,485.485,567.891,485.485,568.264 M485.705,576.545h0.824v-5.953h-0.824V576.545z M479.004,570.592l2.737,6.215
		l2.737-6.215h-0.921l-1.816,4.51l-1.829-4.51H479.004z M477.339,572.889h-3.702c0.095-1.049,0.881-1.725,1.844-1.725
		C476.582,571.164,477.271,571.785,477.339,572.889 M478.313,573.588v-0.207c0-1.857-1.112-3.012-2.723-3.012
		c-1.693,0-2.902,1.277-2.902,3.26c0,1.871,1.182,3.178,2.93,3.178c1.28,0,2.133-0.549,2.737-1.76l-0.755-0.414
		c-0.453,0.951-1.086,1.434-1.981,1.434c-1.183,0-2.01-0.922-2.038-2.479H478.313z M467.086,567.492h0.896
		c1.57,0,2.245,0.455,2.245,1.873c0,1.402-0.717,1.76-2.245,1.76h-0.896V567.492z M472.165,576.545l-3.536-4.691
		c1.583,0,2.558-0.92,2.558-2.461c0-1.803-1.058-2.682-3.191-2.682h-1.801v9.834h0.892v-4.691h0.538l3.455,4.691H472.165z"/>
	<path clip-path="url(#SVGID_74_)" fill="#F9A25E" d="M501.321,560.359h0.823v-3.109c0-1.541,0.536-2.326,1.844-2.326
		c1.06,0,1.542,0.578,1.542,1.762v3.674h0.824v-4.045c0-1.377-0.824-2.131-2.146-2.131c-0.908,0-1.61,0.369-2.064,1.141v-5.379
		h-0.823V560.359z M498.225,555.104v5.256h0.823v-5.256h1.183v-0.701h-1.183v-2.449h-0.823v2.449h-1.1v0.701H498.225z
		 M495.569,557.416c0,1.568-0.729,2.436-1.898,2.436c-1.198,0-2.106-0.896-2.106-2.504c0-1.557,0.798-2.41,2.023-2.41
		C494.827,554.938,495.569,555.875,495.569,557.416 M490.741,563.344h0.823v-4.086c0.44,0.895,1.184,1.361,2.147,1.361
		c1.611,0,2.752-1.18,2.752-3.219c0-1.939-1.114-3.217-2.792-3.217c-0.922,0-1.693,0.492-2.106,1.332v-1.113h-0.823V563.344z
		 M488.182,556.701h-3.704c0.097-1.049,0.88-1.723,1.845-1.723C487.424,554.979,488.112,555.6,488.182,556.701 M489.156,557.4
		v-0.207c0-1.857-1.112-3.01-2.723-3.01c-1.693,0-2.902,1.277-2.902,3.258c0,1.873,1.182,3.178,2.93,3.178
		c1.28,0,2.132-0.549,2.737-1.76l-0.756-0.412c-0.454,0.949-1.087,1.432-1.981,1.432c-1.185,0-2.011-0.924-2.038-2.479H489.156z
		 M477.146,557.441c0-1.584,0.811-2.504,2.023-2.504c1.211,0,1.996,0.867,1.996,2.355c0,1.648-0.812,2.559-2.011,2.559
		C477.874,559.852,477.146,558.998,477.146,557.441 M481.165,560.359h0.825v-10.414h-0.825v5.543
		c-0.427-0.865-1.17-1.305-2.175-1.305c-1.596,0-2.765,1.305-2.765,3.232c0,1.924,1.141,3.203,2.847,3.203
		c0.965,0,1.693-0.467,2.093-1.346V560.359z M471.919,557.828h2.928v-0.865h-2.928V557.828z M465.067,560.359h0.824v-3.109
		c0-1.541,0.537-2.326,1.844-2.326c1.06,0,1.543,0.578,1.543,1.762v3.674h0.823v-4.045c0-1.377-0.823-2.131-2.145-2.131
		c-0.91,0-1.61,0.369-2.107,1.141v-0.922h-0.782V560.359z M461.984,560.359h0.893v-9.836h-0.893V560.359z"/>
	<path clip-path="url(#SVGID_74_)" fill="#F9A25E" d="M413.872,576.545h0.824v-3.109c0-1.541,0.536-2.324,1.844-2.324
		c1.06,0,1.543,0.576,1.543,1.762v3.672h0.824V572.5c0-1.377-0.824-2.131-2.147-2.131c-0.907,0-1.61,0.371-2.105,1.143v-0.922
		h-0.782V576.545z M409.069,576.039c-1.293,0-2.34-1.074-2.34-2.451c0-1.389,1.033-2.449,2.34-2.449
		c1.294,0,2.339,1.061,2.339,2.449C411.408,574.979,410.349,576.039,409.069,576.039 M409.042,576.807c1.789,0,3.26-1.43,3.26-3.232
		c0-1.789-1.444-3.205-3.26-3.205c-1.776,0-3.205,1.416-3.205,3.205C405.837,575.391,407.293,576.807,409.042,576.807
		 M403.153,568.264c0,0.344,0.262,0.631,0.633,0.631c0.371,0,0.646-0.287,0.646-0.631c0-0.371-0.303-0.631-0.646-0.631
		C403.456,567.633,403.153,567.893,403.153,568.264 M403.373,576.545h0.824v-5.955h-0.824V576.545z M400.21,571.289v5.256h0.824
		v-5.256h1.182v-0.699h-1.182v-2.449h-0.824v2.449h-1.101v0.699H400.21z M393.108,573.629c0-1.582,0.811-2.504,2.023-2.504
		c1.211,0,2.009,0.867,2.009,2.354c0,1.65-0.826,2.561-2.023,2.561C393.837,576.039,393.108,575.186,393.108,573.629
		 M397.128,576.545h0.824v-5.955h-0.824v1.086c-0.413-0.867-1.17-1.307-2.175-1.307c-1.597,0-2.765,1.307-2.765,3.232
		s1.141,3.205,2.847,3.205c0.963,0,1.708-0.467,2.093-1.348V576.545z M389.628,571.289v5.256h0.824v-5.256h1.183v-0.699h-1.183
		v-2.449h-0.824v2.449h-1.101v0.699H389.628z M382.418,576.545h0.825v-3.109c0-1.541,0.537-2.324,1.845-2.324
		c1.061,0,1.541,0.576,1.541,1.762v3.672h0.824V572.5c0-1.377-0.824-2.131-2.145-2.131c-0.908,0-1.611,0.371-2.106,1.143v-0.922
		h-0.784V576.545z M379.859,572.889h-3.702c0.096-1.047,0.881-1.723,1.844-1.723C379.104,571.166,379.792,571.785,379.859,572.889
		 M380.835,573.586v-0.205c0-1.857-1.114-3.012-2.725-3.012c-1.693,0-2.902,1.279-2.902,3.258c0,1.873,1.182,3.18,2.93,3.18
		c1.28,0,2.133-0.549,2.737-1.76l-0.754-0.414c-0.454,0.951-1.087,1.432-1.983,1.432c-1.183,0-2.008-0.92-2.036-2.479H380.835z
		 M372.54,568.264c0,0.344,0.262,0.631,0.633,0.631c0.371,0,0.646-0.287,0.646-0.631c0-0.371-0.303-0.631-0.646-0.631
		C372.842,567.633,372.54,567.893,372.54,568.264 M372.76,576.545h0.823v-5.955h-0.823V576.545z M369.319,571.785v-1.195h-0.823
		v5.955h0.823v-2.928c0-1.475,0.882-2.436,1.803-2.436c0.165,0,0.358,0.025,0.565,0.094l0.261-0.781
		c-0.235-0.084-0.468-0.125-0.703-0.125C370.406,570.369,369.911,570.795,369.319,571.785 M361.505,576.01
		c-2.408,0-4.308-1.939-4.308-4.361c0-2.449,1.926-4.377,4.308-4.377c2.394,0,4.322,1.941,4.322,4.377
		C365.827,574.07,363.913,576.01,361.505,576.01 M366.774,571.648c0-1.391-0.536-2.697-1.539-3.676
		c-0.991-0.975-2.284-1.484-3.73-1.484c-1.445,0-2.725,0.51-3.715,1.484c-1.005,0.979-1.54,2.271-1.54,3.676
		c0,1.375,0.548,2.668,1.54,3.646c0.99,0.977,2.284,1.512,3.715,1.512c1.418,0,2.725-0.535,3.73-1.512
		C366.225,574.332,366.774,573.039,366.774,571.648"/>
	<path clip-path="url(#SVGID_74_)" fill="#F9A25E" d="M411.505,556.701h-3.702c0.095-1.049,0.881-1.723,1.843-1.723
		C410.748,554.979,411.437,555.598,411.505,556.701 M412.481,557.4v-0.207c0-1.857-1.114-3.01-2.724-3.01
		c-1.694,0-2.902,1.275-2.902,3.258c0,1.873,1.182,3.178,2.929,3.178c1.28,0,2.134-0.549,2.738-1.76l-0.756-0.414
		c-0.453,0.953-1.086,1.434-1.981,1.434c-1.183,0-2.008-0.922-2.036-2.479H412.481z M405.862,555.488l0.015-0.908
		c-0.483-0.248-1.143-0.396-1.859-0.396c-1.938,0-3.273,1.346-3.273,3.273c0,1.842,1.279,3.189,3.109,3.189
		c0.797,0,1.513-0.162,2.118-0.494l-0.013-0.908c-0.62,0.443-1.293,0.676-1.954,0.676c-1.446,0-2.422-1.061-2.422-2.408
		c0-1.555,0.921-2.602,2.422-2.602C404.667,554.91,405.299,555.104,405.862,555.488 M397.855,555.598v-1.193h-0.825v5.955h0.825
		v-2.932c0-1.471,0.88-2.436,1.803-2.436c0.165,0,0.358,0.027,0.563,0.098l0.262-0.783c-0.234-0.082-0.468-0.123-0.702-0.123
		C398.942,554.184,398.447,554.607,397.855,555.598 M390.742,554.404h-0.824v3.396c0,1.871,0.892,2.818,2.53,2.818
		c1.653,0,2.518-0.947,2.518-2.818v-3.396h-0.824v2.971c0,1.664-0.386,2.477-1.707,2.477c-1.322,0-1.693-0.812-1.693-2.477V554.404z
		 M385.115,559.852c-1.293,0-2.341-1.074-2.341-2.451c0-1.391,1.033-2.447,2.341-2.447c1.293,0,2.339,1.057,2.339,2.447
		C387.454,558.793,386.396,559.852,385.115,559.852 M385.088,560.619c1.789,0,3.26-1.43,3.26-3.23c0-1.791-1.444-3.205-3.26-3.205
		c-1.776,0-3.205,1.414-3.205,3.205C381.883,559.205,383.339,560.619,385.088,560.619 M376.585,559.299
		c0.303,0.812,1.058,1.32,2.091,1.32c1.362,0,2.159-0.74,2.159-1.801c0-1.115-0.591-1.5-1.664-1.857
		c-0.936-0.316-1.418-0.551-1.418-1.145c0-0.494,0.413-0.879,0.99-0.879c0.635,0,1.087,0.303,1.28,0.867l0.756-0.428
		c-0.315-0.783-1.017-1.209-1.981-1.209c-1.156,0-1.925,0.729-1.925,1.732c0,0.758,0.466,1.238,1.43,1.639
		c0.95,0.4,1.681,0.51,1.681,1.336c0,0.576-0.428,0.977-1.143,0.977s-1.198-0.332-1.473-1.006L376.585,559.299z M374.701,556.701
		h-3.702c0.095-1.049,0.88-1.723,1.844-1.723C373.943,554.979,374.632,555.598,374.701,556.701 M375.675,557.4v-0.207
		c0-1.857-1.112-3.01-2.723-3.01c-1.693,0-2.902,1.275-2.902,3.258c0,1.873,1.182,3.178,2.93,3.178c1.28,0,2.133-0.549,2.737-1.76
		l-0.755-0.414c-0.454,0.953-1.086,1.434-1.981,1.434c-1.183,0-2.009-0.922-2.036-2.479H375.675z M364.449,551.305h0.894
		c1.57,0,2.245,0.455,2.245,1.873c0,1.402-0.717,1.76-2.245,1.76h-0.894V551.305z M369.526,560.359l-3.536-4.693
		c1.583,0,2.558-0.92,2.558-2.461c0-1.803-1.058-2.682-3.191-2.682h-1.801v9.836h0.893v-4.693h0.536l3.454,4.693H369.526z"/>
	<path clip-path="url(#SVGID_74_)" fill="#F9A25E" d="M308.295,570.592l2.147,5.904l-1.046,3.035h0.853l3.081-8.939h-0.881
		l-1.568,4.654l-1.705-4.654H308.295z M305.734,571.785v-1.193h-0.823v5.953h0.823v-2.93c0-1.473,0.881-2.436,1.803-2.436
		c0.165,0,0.358,0.027,0.563,0.098l0.262-0.785c-0.234-0.082-0.468-0.123-0.703-0.123
		C306.822,570.369,306.327,570.795,305.734,571.785 M302.352,572.889h-3.702c0.096-1.049,0.881-1.725,1.844-1.725
		C301.594,571.164,302.284,571.785,302.352,572.889 M303.328,573.588v-0.207c0-1.857-1.114-3.012-2.725-3.012
		c-1.693,0-2.902,1.277-2.902,3.26c0,1.871,1.182,3.178,2.93,3.178c1.281,0,2.133-0.549,2.737-1.76l-0.756-0.414
		c-0.453,0.951-1.086,1.434-1.981,1.434c-1.183,0-2.009-0.922-2.037-2.479H303.328z M291.579,570.592l2.737,6.215l2.738-6.215
		h-0.923l-1.815,4.51l-1.829-4.51H291.579z M289.294,568.264c0,0.344,0.261,0.631,0.632,0.631s0.646-0.287,0.646-0.631
		c0-0.373-0.303-0.631-0.646-0.631C289.597,567.633,289.294,567.891,289.294,568.264 M289.515,576.545h0.824v-5.953h-0.824V576.545z
		 M287.325,566.131h-0.824v10.414h0.824V566.131z M283.859,572.889h-3.701c0.095-1.049,0.88-1.725,1.843-1.725
		C283.104,571.164,283.791,571.785,283.859,572.889 M284.835,573.588v-0.207c0-1.857-1.113-3.012-2.724-3.012
		c-1.693,0-2.902,1.277-2.902,3.26c0,1.871,1.182,3.178,2.93,3.178c1.28,0,2.134-0.549,2.737-1.76l-0.754-0.414
		c-0.455,0.951-1.087,1.434-1.983,1.434c-1.184,0-2.009-0.922-2.036-2.479H284.835z M271.282,575.775v-8.324h1.061
		c1.651,0,2.781,0.025,3.689,1.031c0.646,0.717,1.004,1.789,1.004,3.139c0,1.664-0.55,2.918-1.486,3.59
		c-0.743,0.539-1.706,0.564-2.944,0.564H271.282z M270.39,576.545h1.939c1.582,0,2.862-0.041,3.99-0.906
		c1.06-0.812,1.664-2.215,1.664-4.004c0-1.969-0.741-3.496-2.022-4.279c-1.045-0.645-2.354-0.645-4.045-0.645h-1.526V576.545z"/>
	<path clip-path="url(#SVGID_74_)" fill="#F9A25E" d="M323.554,555.104v5.256h0.824v-5.256h1.183v-0.699h-1.183v-2.451h-0.824v2.451
		h-1.101v0.699H323.554z M320.196,552.076c0,0.344,0.262,0.631,0.633,0.631c0.371,0,0.646-0.287,0.646-0.631
		c0-0.373-0.303-0.631-0.646-0.631C320.499,551.445,320.196,551.703,320.196,552.076 M320.417,560.359h0.823v-5.955h-0.823V560.359z
		 M312.713,560.359h0.893v-4.994l4.54,4.994h1.294l-4.885-5.131l4.665-4.705h-1.171l-4.442,4.605v-4.605h-0.893V560.359z
		 M306.204,556.701h-3.702c0.096-1.049,0.88-1.723,1.844-1.723C305.447,554.979,306.136,555.598,306.204,556.701 M307.18,557.4
		v-0.207c0-1.857-1.114-3.01-2.725-3.01c-1.693,0-2.902,1.275-2.902,3.258c0,1.873,1.182,3.178,2.93,3.178
		c1.28,0,2.133-0.549,2.737-1.76l-0.756-0.414c-0.454,0.953-1.086,1.434-1.981,1.434c-1.183,0-2.008-0.922-2.036-2.479H307.18z
		 M300.562,555.488l0.014-0.908c-0.482-0.248-1.143-0.396-1.858-0.396c-1.939,0-3.273,1.346-3.273,3.273
		c0,1.842,1.279,3.189,3.108,3.189c0.798,0,1.514-0.162,2.119-0.494l-0.013-0.908c-0.621,0.443-1.294,0.676-1.954,0.676
		c-1.446,0-2.422-1.061-2.422-2.408c0-1.555,0.921-2.602,2.422-2.602C299.365,554.91,299.998,555.104,300.562,555.488
		 M292.553,555.598v-1.193h-0.824v5.955h0.824v-2.932c0-1.471,0.88-2.436,1.804-2.436c0.165,0,0.357,0.027,0.563,0.098l0.262-0.783
		c-0.235-0.082-0.468-0.123-0.703-0.123C293.642,554.184,293.146,554.607,292.553,555.598 M285.44,554.404h-0.823v3.396
		c0,1.871,0.892,2.818,2.53,2.818c1.653,0,2.518-0.947,2.518-2.818v-3.396h-0.825v2.971c0,1.664-0.385,2.477-1.706,2.477
		c-1.323,0-1.694-0.812-1.694-2.477V554.404z M279.814,559.852c-1.293,0-2.341-1.074-2.341-2.451c0-1.391,1.033-2.447,2.341-2.447
		c1.293,0,2.339,1.057,2.339,2.447C282.153,558.793,281.095,559.852,279.814,559.852 M279.787,560.619
		c1.789,0,3.259-1.43,3.259-3.23c0-1.791-1.443-3.205-3.259-3.205c-1.776,0-3.205,1.414-3.205,3.205
		C276.582,559.205,278.039,560.619,279.787,560.619 M271.284,559.299c0.303,0.812,1.058,1.32,2.091,1.32
		c1.363,0,2.159-0.74,2.159-1.801c0-1.115-0.591-1.5-1.665-1.857c-0.935-0.316-1.418-0.551-1.418-1.145
		c0-0.494,0.414-0.879,0.991-0.879c0.634,0,1.087,0.303,1.28,0.867l0.756-0.428c-0.315-0.783-1.017-1.209-1.981-1.209
		c-1.156,0-1.925,0.729-1.925,1.732c0,0.758,0.466,1.238,1.43,1.639c0.95,0.4,1.68,0.51,1.68,1.336c0,0.576-0.427,0.977-1.142,0.977
		c-0.716,0-1.198-0.332-1.473-1.006L271.284,559.299z M269.4,556.701h-3.702c0.095-1.049,0.88-1.723,1.844-1.723
		C268.642,554.979,269.332,555.598,269.4,556.701 M270.375,557.4v-0.207c0-1.857-1.112-3.01-2.723-3.01
		c-1.693,0-2.902,1.275-2.902,3.258c0,1.873,1.182,3.178,2.93,3.178c1.28,0,2.133-0.549,2.737-1.76l-0.756-0.414
		c-0.453,0.953-1.086,1.434-1.98,1.434c-1.183,0-2.009-0.922-2.039-2.479H270.375z M259.147,551.305h0.895
		c1.571,0,2.246,0.455,2.246,1.873c0,1.402-0.717,1.76-2.246,1.76h-0.895V551.305z M264.224,560.359l-3.535-4.693
		c1.583,0,2.558-0.92,2.558-2.461c0-1.803-1.057-2.682-3.19-2.682h-1.802v9.836h0.893v-4.693h0.538l3.454,4.693H264.224z"/>
	<path clip-path="url(#SVGID_74_)" fill="#006227" d="M980.087,734.291c0-1.369,0.846-2.316,2.084-2.316
		c1.386,0,2.216,0.889,2.216,2.303c0,1.385-0.86,2.289-2.144,2.289C980.933,736.566,980.087,735.705,980.087,734.291
		 M980.919,731.436l3.366-4.371l-1.078-0.564l-2.377,3.35c-1.151,1.629-2.023,2.838-2.023,4.34c0,2.041,1.28,3.408,3.189,3.408
		c2.273,0,3.671-1.354,3.671-3.438c0-1.908-1.28-3.219-3.146-3.219C981.938,730.941,981.428,731.104,980.919,731.436
		 M976.606,736.145h-3.949l1.632-1.766c1.679-1.822,2.638-3.191,2.638-4.689c0-1.795-1.193-2.885-3.234-2.885
		c-2.053,0-3.261,1.148-3.261,3.117c0,0.088,0.013,0.188,0.013,0.275h1.165v-0.115c0-1.385,0.729-2.143,2.039-2.143
		c1.255,0,2.057,0.771,2.057,1.822c0,1.354-1.296,2.738-3.178,4.953l-2.198,2.607h6.277V736.145z M959.476,737.322h1.104
		l0.016-3.439l3.352,3.439h1.559l-3.541-3.525l3.249-2.984h-1.486l-3.132,2.953l-0.016-7.471h-1.104V737.322z M945.066,726.908
		l4.036,10.82l2.708-8.055l2.725,8.055l4.034-10.82h-1.339l-2.65,7.66l-2.784-8.068l-2.752,8.068l-2.637-7.66H945.066z"/>
	<path clip-path="url(#SVGID_74_)" fill="#006227" d="M894.772,734.291c0-1.369,0.846-2.316,2.084-2.316
		c1.385,0,2.216,0.889,2.216,2.303c0,1.385-0.859,2.289-2.144,2.289C895.618,736.566,894.772,735.705,894.772,734.291
		 M895.604,731.436l3.367-4.371l-1.082-0.564l-2.374,3.35c-1.15,1.629-2.023,2.838-2.023,4.34c0,2.041,1.28,3.408,3.19,3.408
		c2.272,0,3.67-1.354,3.67-3.438c0-1.908-1.28-3.219-3.146-3.219C896.622,730.941,896.113,731.104,895.604,731.436 M888.175,737.322
		h1.207v-10.314h-2.635l-0.698,1.076h2.126V737.322z M880.018,734.641h3.32v-1.119h-3.32V734.641z M877.656,736.145h-3.949
		l1.632-1.766c1.677-1.822,2.637-3.191,2.637-4.689c0-1.795-1.192-2.885-3.234-2.885c-2.054,0-3.261,1.148-3.261,3.117
		c0,0.088,0.014,0.188,0.014,0.275h1.164v-0.115c0-1.385,0.729-2.143,2.039-2.143c1.255,0,2.057,0.771,2.057,1.822
		c0,1.354-1.297,2.738-3.178,4.953l-2.199,2.607h6.279V736.145z M866.09,737.322h1.207v-10.314h-2.635l-0.698,1.076h2.126V737.322z
		 M852.074,737.322h1.105l0.016-3.439l3.352,3.439h1.559l-3.541-3.525l3.248-2.984h-1.485l-3.132,2.953l-0.016-7.471h-1.105V737.322
		z M837.666,726.908l4.037,10.82l2.706-8.055l2.726,8.055l4.035-10.82h-1.34l-2.651,7.66l-2.782-8.068l-2.754,8.068l-2.637-7.66
		H837.666z"/>
</g>
<path fill="#006227" d="M789.225,737.322h1.208v-10.314h-2.637l-0.699,1.076h2.128V737.322z M780.773,737.322h1.208v-10.314h-2.635
	l-0.699,1.076h2.126V737.322z M766.759,737.322h1.106l0.015-3.439l3.351,3.439h1.559l-3.539-3.525l3.247-2.984h-1.486l-3.131,2.953
	l-0.015-7.471h-1.106V737.322z M752.352,726.908l4.036,10.82l2.707-8.055l2.726,8.055l4.034-10.82h-1.341l-2.65,7.66l-2.782-8.068
	l-2.752,8.068l-2.637-7.66H752.352z"/>
<g>
	<defs>
		<rect id="SVGID_75_" x="228.61" y="93.314" width="800" height="644.414"/>
	</defs>
	<clipPath id="SVGID_76_">
		<use xlink:href="#SVGID_75_"  overflow="visible"/>
	</clipPath>
	<path clip-path="url(#SVGID_76_)" fill="#006227" d="M686.791,734.291c0-1.369,0.844-2.316,2.081-2.316
		c1.387,0,2.217,0.889,2.217,2.303c0,1.385-0.858,2.289-2.142,2.289C687.635,736.566,686.791,735.705,686.791,734.291
		 M687.619,731.436l3.367-4.371l-1.078-0.564l-2.375,3.35c-1.15,1.629-2.023,2.838-2.023,4.34c0,2.041,1.281,3.408,3.188,3.408
		c2.276,0,3.672-1.354,3.672-3.438c0-1.908-1.28-3.219-3.147-3.219C688.64,730.941,688.13,731.104,687.619,731.436 M674.627,737.322
		h1.104l0.016-3.439l3.352,3.439h1.559l-3.541-3.525l3.249-2.984h-1.486l-3.132,2.953l-0.016-7.471h-1.104V737.322z
		 M660.218,726.908l4.036,10.82l2.708-8.055l2.725,8.055l4.034-10.82h-1.341l-2.649,7.66l-2.783-8.068l-2.752,8.068l-2.637-7.66
		H660.218z"/>
</g>
<path fill="#F9A25E" d="M593.508,737.322h1.222v-2.244h1.224v-1.004h-1.224v-7.27h-0.524l-5.577,8.273h4.88V737.322z
	 M593.508,734.074h-3.046l3.046-4.576V734.074z M578.269,737.322h1.105l0.015-3.439l3.35,3.439h1.559l-3.54-3.525l3.249-2.984
	h-1.486l-3.132,2.953l-0.015-7.471h-1.105V737.322z M563.86,726.908l4.036,10.82l2.708-8.055l2.724,8.055l4.036-10.82h-1.341
	l-2.651,7.66l-2.782-8.068l-2.752,8.068l-2.637-7.66H563.86z"/>
<g>
	<defs>
		<rect id="SVGID_77_" x="228.61" y="93.314" width="800" height="644.414"/>
	</defs>
	<clipPath id="SVGID_78_">
		<use xlink:href="#SVGID_77_"  overflow="visible"/>
	</clipPath>
	<path clip-path="url(#SVGID_78_)" fill="#F9A25E" d="M499.042,736.145h-3.948l1.631-1.766c1.677-1.822,2.637-3.191,2.637-4.689
		c0-1.795-1.193-2.885-3.234-2.885c-2.054,0-3.262,1.148-3.262,3.117c0,0.088,0.014,0.188,0.014,0.275h1.165v-0.115
		c0-1.385,0.729-2.143,2.039-2.143c1.255,0,2.056,0.771,2.056,1.822c0,1.354-1.296,2.738-3.177,4.953l-2.198,2.607h6.277V736.145z
		 M481.911,737.322h1.106l0.014-3.439l3.351,3.439h1.559l-3.54-3.525l3.249-2.984h-1.486l-3.132,2.953l-0.014-7.471h-1.106V737.322z
		 M467.503,726.908l4.036,10.82l2.708-8.055l2.724,8.055l4.035-10.82h-1.34l-2.652,7.66l-2.783-8.068l-2.751,8.068l-2.637-7.66
		H467.503z"/>
	<path clip-path="url(#SVGID_78_)" fill="#F9A25E" d="M399.901,737.598c2.187,0,3.599-1.936,3.599-5.404
		c0-3.467-1.397-5.389-3.628-5.389c-2.17,0-3.597,1.951-3.597,5.389C396.275,735.633,397.702,737.598,399.901,737.598
		 M399.887,736.58c-1.442,0-2.331-1.572-2.331-4.4c0-2.812,0.888-4.371,2.331-4.371c1.517,0,2.333,1.5,2.333,4.398
		C402.219,735.094,401.404,736.58,399.887,736.58 M385.553,737.322h1.106l0.014-3.439l3.35,3.439h1.56l-3.54-3.525l3.249-2.984
		h-1.486l-3.132,2.953l-0.014-7.471h-1.106V737.322z M371.146,726.908l4.035,10.82l2.708-8.055l2.724,8.055l4.036-10.82h-1.341
		l-2.651,7.66l-2.783-8.068l-2.751,8.068l-2.638-7.66H371.146z"/>
	<path clip-path="url(#SVGID_78_)" fill="#F9A25E" d="M320.494,731.727v5.596h1.106v-5.596h1.224v-0.916H321.6v-2.621h-1.106v2.621
		H319.3v0.916H320.494z M312.351,737.322h1.105v-3.367c0-0.713,0-1.252,0.379-1.717c0.365-0.453,0.933-0.701,1.589-0.701
		c1.165,0,1.735,0.643,1.735,1.953v3.832h1.104v-4.43c0-1.473-0.931-2.314-2.446-2.314c-1.02,0-1.806,0.393-2.361,1.236v-1.004
		h-1.105V737.322z M309.628,733.332h-3.966c0.117-1.109,0.919-1.795,1.983-1.795C308.825,731.537,309.555,732.18,309.628,733.332
		 M310.819,734.232v-0.219c0-2.156-1.221-3.449-3.131-3.449c-1.896,0-3.247,1.426-3.247,3.479c0,2.129,1.337,3.555,3.32,3.555
		c1.34,0,2.36-0.596,3.015-1.775l-0.844-0.57c-0.537,0.949-1.238,1.414-2.112,1.414c-1.253,0-2.158-0.916-2.158-2.33v-0.104H310.819
		z M301.863,737.322h1.105v-4.43c0-1.473-0.874-2.314-2.316-2.314c-0.991,0-1.748,0.422-2.316,1.324
		c-0.379-0.873-1.135-1.324-2.186-1.324c-0.976,0-1.719,0.408-2.243,1.236v-1.004h-1.105v6.512h1.105v-3.367
		c0-0.158-0.015-0.32-0.015-0.465c0-0.496,0.059-0.902,0.335-1.252c0.35-0.453,0.889-0.701,1.486-0.701
		c1.107,0,1.619,0.643,1.619,1.953v3.832h1.105v-3.367c0-0.145-0.014-0.275-0.014-0.406c0-0.539,0.073-0.947,0.35-1.311
		c0.349-0.453,0.874-0.701,1.472-0.701c1.106,0,1.619,0.643,1.619,1.953V737.322z M289.479,737.322h1.106v-11.029h-1.106V737.322z
		 M281.932,734.088c0-1.385,1.049-2.463,2.36-2.463c1.298,0,2.347,1.078,2.347,2.463s-1.049,2.463-2.347,2.463
		C282.995,736.551,281.932,735.473,281.932,734.088 M280.754,734.088c0,0.947,0.349,1.793,1.032,2.479
		c0.67,0.668,1.544,1.031,2.506,1.031c0.949,0,1.823-0.379,2.507-1.047c0.668-0.654,1.033-1.516,1.033-2.463
		s-0.365-1.822-1.033-2.479c-0.685-0.668-1.544-1.031-2.507-1.031c-0.962,0-1.836,0.35-2.506,1.018
		C281.103,732.266,280.754,733.141,280.754,734.088 M276.324,737.322h1.106v-3.176c0-1.705,0.583-2.551,1.762-2.551
		c0.204,0,0.438,0.045,0.686,0.131l0.378-1.004c-0.247-0.086-0.496-0.131-0.758-0.131c-0.99,0-1.602,0.467-2.185,1.572v-1.354h-0.99
		V737.322z M268.341,737.322h1.105v-3.367c0-0.713,0-1.252,0.379-1.717c0.364-0.453,0.932-0.701,1.588-0.701
		c1.167,0,1.735,0.643,1.735,1.953v3.832h1.106v-4.43c0-1.473-0.931-2.314-2.446-2.314c-1.021,0-1.808,0.393-2.362,1.236v-1.004
		h-1.105V737.322z M261.013,737.322h5.491v-1.15h-4.254v-3.992h4.254v-1.15h-4.254v-2.988h4.254v-1.133h-5.491V737.322z"/>
	<path clip-path="url(#SVGID_78_)" fill="#F9A25E" d="M593.165,576.807l1.927-4.623l1.898,4.623l2.38-6.215h-0.869l-1.552,4.289
		l-1.872-4.607l-1.872,4.607l-1.554-4.289h-0.866L593.165,576.807z M589.162,572.889h-3.704c0.096-1.049,0.882-1.725,1.845-1.725
		C588.405,571.164,589.093,571.785,589.162,572.889 M590.136,573.588v-0.207c0-1.857-1.111-3.012-2.722-3.012
		c-1.693,0-2.902,1.277-2.902,3.26c0,1.871,1.182,3.178,2.931,3.178c1.28,0,2.131-0.549,2.736-1.76l-0.756-0.414
		c-0.454,0.951-1.086,1.434-1.98,1.434c-1.186,0-2.011-0.922-2.039-2.479H590.136z M581.842,568.264
		c0,0.344,0.261,0.631,0.632,0.631s0.646-0.287,0.646-0.631c0-0.373-0.304-0.631-0.646-0.631
		C582.145,567.633,581.842,567.891,581.842,568.264 M582.063,576.545h0.824v-5.953h-0.824V576.545z M575.361,570.592l2.737,6.215
		l2.737-6.215h-0.921l-1.816,4.51l-1.829-4.51H575.361z M573.697,572.889h-3.702c0.096-1.049,0.881-1.725,1.843-1.725
		C572.939,571.164,573.629,571.785,573.697,572.889 M574.671,573.588v-0.207c0-1.857-1.112-3.012-2.722-3.012
		c-1.693,0-2.902,1.277-2.902,3.26c0,1.871,1.182,3.178,2.929,3.178c1.28,0,2.134-0.549,2.738-1.76l-0.756-0.414
		c-0.453,0.951-1.086,1.434-1.981,1.434c-1.183,0-2.01-0.922-2.038-2.479H574.671z M563.445,567.492h0.895
		c1.57,0,2.246,0.455,2.246,1.873c0,1.402-0.718,1.76-2.246,1.76h-0.895V567.492z M568.522,576.545l-3.535-4.691
		c1.583,0,2.558-0.92,2.558-2.461c0-1.803-1.057-2.682-3.191-2.682h-1.801v9.834h0.893v-4.691h0.537l3.455,4.691H568.522z"/>
	<path clip-path="url(#SVGID_78_)" fill="#F9A25E" d="M597.678,560.359h0.824v-3.109c0-1.541,0.538-2.326,1.846-2.326
		c1.06,0,1.54,0.578,1.54,1.762v3.674h0.825v-4.045c0-1.377-0.825-2.131-2.146-2.131c-0.909,0-1.611,0.369-2.066,1.141v-5.379
		h-0.824V560.359z M594.583,555.104v5.256h0.824v-5.256h1.184v-0.701h-1.184v-2.449h-0.824v2.449h-1.1v0.701H594.583z
		 M591.929,557.416c0,1.568-0.73,2.436-1.9,2.436c-1.198,0-2.105-0.896-2.105-2.504c0-1.557,0.797-2.41,2.023-2.41
		C591.183,554.938,591.929,555.875,591.929,557.416 M587.098,563.344h0.825v-4.086c0.439,0.895,1.183,1.361,2.146,1.361
		c1.611,0,2.751-1.18,2.751-3.219c0-1.939-1.113-3.217-2.792-3.217c-0.923,0-1.694,0.492-2.105,1.332v-1.113h-0.825V563.344z
		 M584.539,556.701h-3.702c0.096-1.049,0.881-1.723,1.843-1.723C583.781,554.979,584.471,555.6,584.539,556.701 M585.514,557.4
		v-0.207c0-1.857-1.113-3.01-2.723-3.01c-1.694,0-2.902,1.277-2.902,3.258c0,1.873,1.182,3.178,2.929,3.178
		c1.28,0,2.133-0.549,2.737-1.76l-0.755-0.412c-0.452,0.949-1.086,1.432-1.981,1.432c-1.183,0-2.008-0.924-2.036-2.479H585.514z
		 M573.502,557.441c0-1.584,0.812-2.504,2.023-2.504c1.213,0,1.996,0.867,1.996,2.355c0,1.648-0.811,2.559-2.008,2.559
		C574.232,559.852,573.502,558.998,573.502,557.441 M577.521,560.359h0.824v-10.414h-0.824v5.543
		c-0.425-0.865-1.168-1.305-2.174-1.305c-1.598,0-2.765,1.305-2.765,3.232c0,1.924,1.14,3.203,2.847,3.203
		c0.963,0,1.694-0.467,2.091-1.346V560.359z M568.275,557.828h2.929v-0.865h-2.929V557.828z M561.424,560.359h0.823v-3.109
		c0-1.541,0.538-2.326,1.846-2.326c1.061,0,1.543,0.578,1.543,1.762v3.674h0.822v-4.045c0-1.377-0.822-2.131-2.144-2.131
		c-0.908,0-1.611,0.369-2.106,1.141v-0.922h-0.783V560.359z M558.343,560.359h0.892v-9.836h-0.892V560.359z"/>
</g>
</svg>
