<?xml version="1.0" encoding="utf-8"?>
<!-- Generator: Adobe Illustrator 15.1.0, SVG Export Plug-In . SVG Version: 6.00 Build 0)  -->
<!DOCTYPE svg PUBLIC "-//W3C//DTD SVG 1.1//EN" "http://www.w3.org/Graphics/SVG/1.1/DTD/svg11.dtd">
<svg version="1.1" id="art" xmlns="http://www.w3.org/2000/svg" xmlns:xlink="http://www.w3.org/1999/xlink" x="0px" y="0px"
	 width="912px" height="488px" viewBox="0 0 912 488" enable-background="new 0 0 912 488" xml:space="preserve">
<g>
	<defs>
		<rect id="SVGID_1_" x="-9" y="-1" width="930" height="487.979"/>
	</defs>
	<clipPath id="SVGID_2_">
		<use xlink:href="#SVGID_1_"  overflow="visible"/>
	</clipPath>
	<rect y="320" clip-path="url(#SVGID_2_)" fill="#F3E3D5" width="912" height="20"/>
	<rect clip-path="url(#SVGID_2_)" fill="#F3E3D5" width="912" height="40"/>
	<rect y="80" clip-path="url(#SVGID_2_)" fill="#F3E3D5" width="912" height="40"/>
	<rect y="160" clip-path="url(#SVGID_2_)" fill="#F3E3D5" width="912" height="40"/>
	<rect y="240" clip-path="url(#SVGID_2_)" fill="#F3E3D5" width="912" height="40"/>
	<g clip-path="url(#SVGID_2_)">
		<defs>
			<rect id="SVGID_3_" x="-9" y="-1" width="930" height="487.979"/>
		</defs>
		<clipPath id="SVGID_4_">
			<use xlink:href="#SVGID_3_"  overflow="visible"/>
		</clipPath>
		<g clip-path="url(#SVGID_4_)">
			<g>
				<defs>
					<rect id="SVGID_5_" x="102.75" y="-1" width="18.5" height="342"/>
				</defs>
				<clipPath id="SVGID_6_">
					<use xlink:href="#SVGID_5_"  overflow="visible"/>
				</clipPath>
				<line clip-path="url(#SVGID_6_)" fill="none" stroke="#E8E9EA" stroke-width="0.5" x1="112" y1="0" x2="112" y2="340"/>
			</g>
		</g>
		<g clip-path="url(#SVGID_4_)">
			<g>
				<defs>
					<rect id="SVGID_7_" x="790.75" y="-1" width="18.5" height="342"/>
				</defs>
				<clipPath id="SVGID_8_">
					<use xlink:href="#SVGID_7_"  overflow="visible"/>
				</clipPath>
				<line clip-path="url(#SVGID_8_)" fill="none" stroke="#E8E9EA" stroke-width="0.5" x1="800" y1="0" x2="800" y2="340"/>
			</g>
		</g>
		<g clip-path="url(#SVGID_4_)">
			<g>
				<defs>
					<rect id="SVGID_9_" x="65.592" y="53.168" width="34.656" height="13.984"/>
				</defs>
				<clipPath id="SVGID_10_">
					<use xlink:href="#SVGID_9_"  overflow="visible"/>
				</clipPath>
				<path clip-path="url(#SVGID_10_)" fill="#F9A25E" d="M87.296,66.024c2.4,0,3.952-2.128,3.952-5.936s-1.536-5.92-3.984-5.92
					c-2.384,0-3.951,2.144-3.951,5.92S84.88,66.024,87.296,66.024 M87.28,64.904c-1.584,0-2.561-1.728-2.561-4.832
					c0-3.088,0.977-4.8,2.561-4.8c1.664,0,2.56,1.648,2.56,4.832C89.84,63.272,88.944,64.904,87.28,64.904 M75.008,65.576
					l1.12,0.576l5.712-11.76h-7.248v1.184h5.296L75.008,65.576z"/>
			</g>
		</g>
		<g clip-path="url(#SVGID_4_)">
			<g>
				<defs>
					<rect id="SVGID_11_" x="64.936" y="133.168" width="35.312" height="13.856"/>
				</defs>
				<clipPath id="SVGID_12_">
					<use xlink:href="#SVGID_11_"  overflow="visible"/>
				</clipPath>
				<path clip-path="url(#SVGID_12_)" fill="#F9A25E" d="M87.296,146.024c2.4,0,3.952-2.128,3.952-5.936s-1.536-5.92-3.984-5.92
					c-2.384,0-3.951,2.144-3.951,5.92S84.88,146.024,87.296,146.024 M87.28,144.904c-1.584,0-2.561-1.728-2.561-4.832
					c0-3.088,0.977-4.8,2.561-4.8c1.664,0,2.56,1.648,2.56,4.832C89.84,143.272,88.944,144.904,87.28,144.904 M74.864,140.008
					c0.704-0.544,1.536-0.816,2.432-0.816c1.76,0,2.849,1.12,2.849,2.752c0,1.776-1.104,2.896-2.736,2.896
					c-1.12,0-2-0.56-2.512-1.616l-0.96,1.12c0.783,1.152,1.888,1.68,3.439,1.68c2.624,0,4.208-1.632,4.208-4.208
					c0-2.288-1.392-3.728-3.632-3.728c-0.64,0-1.232,0.128-1.776,0.416l0.721-2.944h4.096v-1.168h-5.024l-1.359,5.568
					L74.864,140.008z"/>
			</g>
		</g>
		<g clip-path="url(#SVGID_4_)">
			<g>
				<defs>
					<rect id="SVGID_13_" x="65.08" y="213.168" width="35.168" height="13.856"/>
				</defs>
				<clipPath id="SVGID_14_">
					<use xlink:href="#SVGID_13_"  overflow="visible"/>
				</clipPath>
				<path clip-path="url(#SVGID_14_)" fill="#F9A25E" d="M87.296,226.024c2.4,0,3.952-2.128,3.952-5.936s-1.536-5.92-3.984-5.92
					c-2.384,0-3.951,2.144-3.951,5.92S84.88,226.024,87.296,226.024 M87.28,224.904c-1.584,0-2.561-1.728-2.561-4.832
					c0-3.088,0.977-4.8,2.561-4.8c1.664,0,2.56,1.648,2.56,4.832C89.84,223.272,88.944,224.904,87.28,224.904 M74.08,222.824v0.208
					c0,1.808,1.344,2.992,3.472,2.992c2.433,0,3.841-1.28,3.841-3.328c0-1.552-0.816-2.592-2.177-2.816
					c1.28-0.336,2.032-1.312,2.032-2.672c0-1.856-1.296-3.04-3.424-3.04c-2.208,0-3.44,1.104-3.536,3.056h1.344
					c0.064-1.232,0.832-1.904,2.16-1.904c1.264,0,2.032,0.768,2.032,1.952c0,1.344-0.8,2.048-2.384,2.048
					c-0.128,0-0.24-0.016-0.368-0.016v1.12c0.144-0.016,0.271-0.016,0.399-0.016c1.648,0,2.496,0.768,2.496,2.24
					c0,1.392-0.848,2.208-2.368,2.208c-1.312,0-2.128-0.736-2.128-1.904v-0.128H74.08z"/>
			</g>
		</g>
		<g clip-path="url(#SVGID_4_)">
			<g>
				<defs>
					<rect id="SVGID_15_" x="66.232" y="293.168" width="34.016" height="13.855"/>
				</defs>
				<clipPath id="SVGID_16_">
					<use xlink:href="#SVGID_15_"  overflow="visible"/>
				</clipPath>
				<path clip-path="url(#SVGID_16_)" fill="#F9A25E" d="M87.296,306.023c2.4,0,3.952-2.127,3.952-5.936s-1.536-5.92-3.984-5.92
					c-2.384,0-3.951,2.145-3.951,5.92S84.88,306.023,87.296,306.023 M87.28,304.904c-1.584,0-2.561-1.729-2.561-4.832
					c0-3.088,0.977-4.801,2.561-4.801c1.664,0,2.56,1.648,2.56,4.832C89.84,303.271,88.944,304.904,87.28,304.904 M77.568,305.721
					h1.328v-11.328H76l-0.768,1.184h2.336V305.721z"/>
			</g>
		</g>
		<g clip-path="url(#SVGID_4_)">
			<g>
				<defs>
					<rect id="SVGID_17_" x="65.08" y="13.168" width="35.168" height="13.856"/>
				</defs>
				<clipPath id="SVGID_18_">
					<use xlink:href="#SVGID_17_"  overflow="visible"/>
				</clipPath>
				<path clip-path="url(#SVGID_18_)" fill="#F9A25E" d="M87.296,26.024c2.4,0,3.952-2.128,3.952-5.936s-1.536-5.92-3.984-5.92
					c-2.384,0-3.951,2.144-3.951,5.92S84.88,26.024,87.296,26.024 M87.28,24.904c-1.584,0-2.561-1.728-2.561-4.832
					c0-3.088,0.977-4.8,2.561-4.8c1.664,0,2.56,1.648,2.56,4.832C89.84,23.272,88.944,24.904,87.28,24.904 M77.937,15.208
					c1.248,0,2.016,0.72,2.016,1.904c0,1.152-0.736,1.856-2.048,1.856c-1.28,0-2-0.72-2-1.856
					C75.904,15.944,76.672,15.208,77.937,15.208 M77.92,24.92c-1.536,0-2.399-0.88-2.399-2.304c0-1.44,0.896-2.352,2.399-2.352
					s2.4,0.896,2.4,2.352C80.32,24.04,79.456,24.92,77.92,24.92 M76.432,19.672c-1.504,0.416-2.352,1.536-2.352,3.04
					c0,1.984,1.424,3.312,3.856,3.312c2.447,0,3.84-1.296,3.84-3.344c0-1.472-0.849-2.576-2.353-3.008
					c1.232-0.368,1.937-1.296,1.937-2.528c0-1.776-1.296-2.976-3.424-2.976c-2.097,0-3.44,1.232-3.44,2.864
					C74.496,18.392,75.152,19.272,76.432,19.672"/>
			</g>
		</g>
		<g clip-path="url(#SVGID_4_)">
			<g>
				<defs>
					<rect id="SVGID_19_" x="65.128" y="92.832" width="35.12" height="14.192"/>
				</defs>
				<clipPath id="SVGID_20_">
					<use xlink:href="#SVGID_19_"  overflow="visible"/>
				</clipPath>
				<path clip-path="url(#SVGID_20_)" fill="#F9A25E" d="M87.296,106.024c2.4,0,3.952-2.128,3.952-5.936s-1.536-5.92-3.984-5.92
					c-2.384,0-3.951,2.144-3.951,5.92S84.88,106.024,87.296,106.024 M87.28,104.904c-1.584,0-2.561-1.728-2.561-4.832
					c0-3.088,0.977-4.8,2.561-4.8c1.664,0,2.56,1.648,2.56,4.832C89.84,103.272,88.944,104.904,87.28,104.904 M75.536,102.392
					c0-1.504,0.928-2.544,2.288-2.544c1.52,0,2.432,0.976,2.432,2.528c0,1.52-0.943,2.512-2.352,2.512
					C76.464,104.888,75.536,103.944,75.536,102.392 M76.448,99.256l3.696-4.8l-1.185-0.624l-2.607,3.68
					c-1.265,1.792-2.225,3.12-2.225,4.768c0,2.24,1.408,3.744,3.504,3.744c2.496,0,4.032-1.488,4.032-3.776
					c0-2.096-1.408-3.536-3.456-3.536C77.568,98.712,77.008,98.888,76.448,99.256"/>
			</g>
		</g>
		<g clip-path="url(#SVGID_4_)">
			<g>
				<defs>
					<rect id="SVGID_21_" x="64.552" y="173.168" width="35.696" height="13.856"/>
				</defs>
				<clipPath id="SVGID_22_">
					<use xlink:href="#SVGID_21_"  overflow="visible"/>
				</clipPath>
				<path clip-path="url(#SVGID_22_)" fill="#F9A25E" d="M87.296,186.024c2.4,0,3.952-2.128,3.952-5.936s-1.536-5.92-3.984-5.92
					c-2.384,0-3.951,2.144-3.951,5.92S84.88,186.024,87.296,186.024 M87.28,184.904c-1.584,0-2.561-1.728-2.561-4.832
					c0-3.088,0.977-4.8,2.561-4.8c1.664,0,2.56,1.648,2.56,4.832C89.84,183.272,88.944,184.904,87.28,184.904 M78.912,185.72h1.344
					v-2.464H81.6v-1.104h-1.344v-7.984H79.68l-6.128,9.088h5.36V185.72z M78.912,182.152h-3.344l3.344-5.024V182.152z"/>
			</g>
		</g>
		<g clip-path="url(#SVGID_4_)">
			<g>
				<defs>
					<rect id="SVGID_23_" x="65.096" y="253.168" width="35.152" height="13.855"/>
				</defs>
				<clipPath id="SVGID_24_">
					<use xlink:href="#SVGID_23_"  overflow="visible"/>
				</clipPath>
				<path clip-path="url(#SVGID_24_)" fill="#F9A25E" d="M87.296,266.023c2.4,0,3.952-2.127,3.952-5.936s-1.536-5.92-3.984-5.92
					c-2.384,0-3.951,2.145-3.951,5.92S84.88,266.023,87.296,266.023 M87.28,264.904c-1.584,0-2.561-1.729-2.561-4.832
					c0-3.088,0.977-4.801,2.561-4.801c1.664,0,2.56,1.648,2.56,4.832C89.84,263.271,88.944,264.904,87.28,264.904 M80.992,264.424
					h-4.336l1.792-1.936c1.84-2,2.896-3.504,2.896-5.152c0-1.969-1.312-3.168-3.552-3.168c-2.256,0-3.584,1.264-3.584,3.424
					c0,0.096,0.016,0.207,0.016,0.305h1.28v-0.129c0-1.52,0.8-2.352,2.24-2.352c1.376,0,2.256,0.848,2.256,2
					c0,1.488-1.424,3.008-3.488,5.439l-2.416,2.865h6.896V264.424z"/>
			</g>
		</g>
		<path clip-path="url(#SVGID_4_)" fill="#F9A25E" d="M47.072,95.043l0.432-0.832c-2.288-1.232-4.864-1.856-7.728-1.856
			c-2.96,0-5.504,0.576-7.76,1.856l0.384,0.832c2.272-1.152,4.64-1.648,7.376-1.648C42.592,93.395,44.96,93.891,47.072,95.043
			 M41.344,95.971c-1.888,0-2.96,0.88-2.96,2.336c0,1.456,1.072,2.352,2.96,2.352c1.888,0,2.96-0.896,2.96-2.352
			C44.304,96.851,43.232,95.971,41.344,95.971 M43.504,98.307c0,0.752-0.752,1.2-2.16,1.2c-1.408,0-2.16-0.448-2.16-1.2
			c0-0.784,0.72-1.2,2.16-1.2C42.752,97.107,43.504,97.555,43.504,98.307 M37.568,104.627c0,0.752-0.752,1.2-2.16,1.2
			c-1.408,0-2.176-0.448-2.176-1.2c0-0.784,0.736-1.2,2.176-1.2C36.816,103.427,37.568,103.875,37.568,104.627 M35.408,102.275
			c-1.888,0-2.96,0.896-2.96,2.352s1.072,2.352,2.96,2.352c1.888,0,2.944-0.896,2.944-2.352S37.296,102.275,35.408,102.275
			 M44.304,105.299v-0.976l-11.856-6.56v0.96L44.304,105.299z M47.072,107.971c-2.112,1.152-4.48,1.648-7.296,1.648
			c-2.736,0-5.104-0.496-7.376-1.648l-0.384,0.832c2.256,1.28,4.8,1.856,7.76,1.856c2.864,0,5.44-0.624,7.728-1.856L47.072,107.971z
			 M42.8,122.531c1.008-0.56,1.504-1.488,1.504-2.816c0-1.584-0.944-2.608-2.272-2.608c-1.168,0-1.68,0.688-2.128,2.08
			c-0.384,1.184-0.48,1.84-1.232,1.84c-0.624,0-1.072-0.496-1.072-1.216c0-0.752,0.368-1.344,1.024-1.632l-0.608-0.992
			c-0.912,0.384-1.424,1.312-1.424,2.544c0,1.52,0.912,2.528,2.16,2.528c1.408,0,1.712-1.056,2.32-2.816
			c0.256-0.752,0.544-1.12,1.088-1.12c0.624,0,1.072,0.528,1.072,1.344s-0.368,1.424-1.136,1.824L42.8,122.531z M44,127.299v-1.216
			h-3.488c-1.872,0-2.8-0.64-2.8-1.936c0-0.224,0.048-0.48,0.144-0.752l-1.104-0.416c-0.096,0.272-0.144,0.544-0.144,0.832
			c0,1.088,0.512,1.76,1.728,2.4h-1.488v1.088H44z M39.616,130.386v4.353c-1.216-0.129-1.968-1.008-1.968-2.177
			C37.648,131.266,38.352,130.466,39.616,130.386 M40.608,129.075h-0.24c-2.368,0-3.792,1.344-3.792,3.44
			c0,2.08,1.568,3.568,3.824,3.568c2.336,0,3.904-1.473,3.904-3.649c0-1.471-0.656-2.591-1.952-3.312l-0.624,0.928
			c1.04,0.593,1.552,1.361,1.552,2.321c0,1.376-1.008,2.368-2.56,2.368h-0.112V129.075z M40.464,139.058
			c1.696,0,2.656,0.928,2.656,2.4c0,1.424-1.024,2.32-2.816,2.32c-1.584,0-2.496-0.88-2.496-2.304
			C37.808,140.034,38.848,139.058,40.464,139.058 M31.888,137.874v1.216h6.304c-1.056,0.544-1.6,1.424-1.6,2.608
			c0,2,1.456,3.376,3.856,3.376c2.336,0,3.856-1.376,3.856-3.424c0-1.104-0.576-2.032-1.6-2.592H44v-1.184H31.888z M44,153.362
			v-1.216h-3.696c-0.784,0-1.376,0-1.888-0.416c-0.496-0.4-0.768-1.024-0.768-1.744c0-1.28,0.704-1.904,2.144-1.904H44v-1.216
			h-4.864c-1.616,0-2.544,1.024-2.544,2.688c0,1.12,0.432,1.984,1.36,2.592h-1.104v1.216H44z M40.448,161.666
			c-1.52,0-2.704-1.152-2.704-2.592c0-1.424,1.184-2.576,2.704-2.576c1.52,0,2.704,1.152,2.704,2.576
			C43.152,160.498,41.968,161.666,40.448,161.666 M40.448,162.962c1.04,0,1.968-0.384,2.72-1.136
			c0.736-0.736,1.136-1.696,1.136-2.752c0-1.04-0.416-2-1.152-2.752c-0.72-0.736-1.664-1.136-2.704-1.136c-1.04,0-2,0.4-2.72,1.136
			c-0.736,0.752-1.136,1.696-1.136,2.752c0,1.056,0.384,2.016,1.12,2.752C38.448,162.578,39.408,162.962,40.448,162.962
			 M40.448,170.274c-1.696,0-2.672-0.928-2.672-2.4c0-1.424,1.024-2.32,2.816-2.32c1.584,0,2.512,0.88,2.512,2.304
			C43.104,169.298,42.064,170.274,40.448,170.274 M47.488,171.458v-1.216h-4.784c1.056-0.544,1.6-1.424,1.6-2.608
			c0-2-1.44-3.376-3.856-3.376c-2.352,0-3.856,1.376-3.856,3.424c0,1.104,0.56,2.048,1.6,2.608h-1.344v1.168H47.488z M42.8,178.642
			c1.008-0.56,1.504-1.488,1.504-2.816c0-1.584-0.944-2.608-2.272-2.608c-1.168,0-1.68,0.688-2.128,2.08
			c-0.384,1.184-0.48,1.84-1.232,1.84c-0.624,0-1.072-0.496-1.072-1.216c0-0.752,0.368-1.344,1.024-1.632l-0.608-0.992
			c-0.912,0.384-1.424,1.312-1.424,2.544c0,1.52,0.912,2.528,2.16,2.528c1.408,0,1.712-1.056,2.32-2.816
			c0.256-0.752,0.544-1.12,1.088-1.12c0.624,0,1.072,0.528,1.072,1.344s-0.368,1.424-1.136,1.824L42.8,178.642z M39.616,180.962
			v4.352c-1.216-0.128-1.968-1.008-1.968-2.176C37.648,181.842,38.352,181.042,39.616,180.962 M40.608,179.65h-0.24
			c-2.368,0-3.792,1.344-3.792,3.44c0,2.08,1.568,3.568,3.824,3.568c2.336,0,3.904-1.472,3.904-3.648
			c0-1.472-0.656-2.592-1.952-3.312l-0.624,0.928c1.04,0.592,1.552,1.36,1.552,2.32c0,1.376-1.008,2.368-2.56,2.368h-0.112V179.65z
			 M44,194.385v-1.359h-5.456v-0.161L44,188.69v-1.729l-5.456,4.368v-0.24c0-2.016-0.992-3.088-2.864-3.088
			c-1.12,0-2.032,0.416-2.544,1.072c-0.544,0.704-0.576,1.536-0.576,2.624v2.688H44z M33.712,193.026v-1.008
			c0-1.809,0.32-2.673,1.984-2.673c1.584,0,1.84,0.88,1.84,2.673v1.008H33.712z M44.304,205.025c0-2.4-2.128-3.952-5.936-3.952
			c-3.808,0-5.92,1.536-5.92,3.984c0,2.384,2.144,3.952,5.92,3.952C42.144,209.009,44.304,207.441,44.304,205.025 M43.184,205.041
			c0,1.584-1.728,2.56-4.832,2.56c-3.088,0-4.8-0.976-4.8-2.56c0-1.664,1.648-2.56,4.832-2.56
			C41.552,202.481,43.184,203.377,43.184,205.041 M42.704,211.329v4.336l-1.936-1.792c-2-1.84-3.504-2.896-5.152-2.896
			c-1.968,0-3.168,1.312-3.168,3.552c0,2.256,1.264,3.584,3.424,3.584c0.096,0,0.208-0.016,0.304-0.016v-1.28h-0.128
			c-1.52,0-2.352-0.8-2.352-2.24c0-1.376,0.848-2.256,2-2.256c1.488,0,3.008,1.424,5.44,3.488L44,218.225v-6.896H42.704z
			 M44,226.225v-1.36h-5.456v-0.16L44,220.529v-1.728l-5.456,4.368v-0.24c0-2.016-0.992-3.088-2.864-3.088
			c-1.12,0-2.032,0.416-2.544,1.072c-0.544,0.704-0.576,1.536-0.576,2.624v2.688H44z M33.712,224.865v-1.008
			c0-1.808,0.32-2.672,1.984-2.672c1.584,0,1.84,0.88,1.84,2.672v1.008H33.712z M35.296,228.465H33.52
			c-0.816,1.184-1.232,2.399-1.232,3.76c0,1.68,0.56,3.088,1.68,4.256c1.168,1.2,2.592,1.792,4.368,1.792
			c2.032,0,3.76-0.912,4.912-2.576c0.688-0.991,1.056-2.159,1.056-3.376c0-1.393-0.432-2.72-1.248-3.855h-1.808
			c1.216,1.039,1.808,2.304,1.808,3.744c0,1.551-0.736,2.943-2.032,3.855c-0.752,0.527-1.648,0.784-2.704,0.784
			c-1.344,0-2.464-0.433-3.376-1.312c-0.88-0.849-1.392-2.064-1.392-3.265C33.552,230.785,34.096,229.569,35.296,228.465
			 M35.12,244.049l4.208-1.824v3.648L35.12,244.049z M32.112,244.049L44,249.232v-1.473l-3.504-1.486v-4.464L44,240.321v-1.472
			L32.112,244.049z"/>
	</g>
	<rect x="163.368" y="169.9" clip-path="url(#SVGID_2_)" fill="#FCD1AE" width="113.536" height="170.1"/>
	<rect x="507.368" y="147.881" clip-path="url(#SVGID_2_)" fill="#FCD1AE" width="113.536" height="192.119"/>
	<rect x="291.096" y="241.247" clip-path="url(#SVGID_2_)" fill="#D1D3D4" width="113.536" height="98.753"/>
	<rect x="635.096" y="250.225" clip-path="url(#SVGID_2_)" fill="#D1D3D4" width="113.536" height="89.775"/>
	<line clip-path="url(#SVGID_2_)" fill="none" stroke="#F9A25E" stroke-width="3" x1="0" y1="340" x2="912" y2="340"/>
	<g clip-path="url(#SVGID_2_)">
		<defs>
			<rect id="SVGID_25_" x="-9" y="-1" width="930" height="487.979"/>
		</defs>
		<clipPath id="SVGID_26_">
			<use xlink:href="#SVGID_25_"  overflow="visible"/>
		</clipPath>
		<path clip-path="url(#SVGID_26_)" fill="#F9A25E" d="M709.982,428h1.216v-3.488c0-1.871,0.64-2.799,1.937-2.799
			c0.224,0,0.479,0.047,0.752,0.143l0.416-1.104c-0.272-0.096-0.544-0.145-0.832-0.145c-1.088,0-1.761,0.512-2.4,1.729v-1.488
			h-1.088V428z M701.662,424.447c0-1.52,1.152-2.703,2.592-2.703c1.425,0,2.576,1.184,2.576,2.703c0,1.521-1.151,2.705-2.576,2.705
			C702.83,427.152,701.662,425.969,701.662,424.447 M700.366,424.447c0,1.041,0.384,1.969,1.136,2.721
			c0.736,0.736,1.696,1.137,2.752,1.137c1.04,0,2-0.416,2.752-1.152c0.736-0.721,1.137-1.664,1.137-2.705c0-1.039-0.4-2-1.137-2.719
			c-0.752-0.736-1.695-1.137-2.752-1.137c-1.056,0-2.016,0.385-2.752,1.121C700.75,422.447,700.366,423.408,700.366,424.447
			 M697.071,421.855V428h1.216v-6.145h1.344v-1.008h-1.344v-2.879h-1.216v2.879h-1.312v1.008H697.071z M692.863,417.408
			c0,0.512,0.4,0.896,0.896,0.896s0.896-0.385,0.896-0.881s-0.399-0.912-0.896-0.912S692.863,416.912,692.863,417.408 M693.151,428
			h1.216v-7.152h-1.216V428z M685.184,424.465c0-1.617,0.992-2.656,2.432-2.656c1.424,0,2.304,0.912,2.304,2.496
			c0,1.791-0.911,2.814-2.336,2.814C686.111,427.119,685.184,426.16,685.184,424.465 M684.016,415.889V428h1.168v-1.297
			c0.56,1.025,1.504,1.602,2.607,1.602c2.049,0,3.424-1.521,3.424-3.857c0-2.398-1.375-3.855-3.375-3.855
			c-1.185,0-2.064,0.545-2.608,1.6v-6.303H684.016z M679.999,417.408c0,0.512,0.4,0.896,0.896,0.896s0.896-0.385,0.896-0.881
			s-0.399-0.912-0.896-0.912S679.999,416.912,679.999,417.408 M680.287,428h1.216v-7.152h-1.216V428z M671.392,428h1.216v-3.695
			c0-0.785,0-1.377,0.416-1.889c0.4-0.496,1.023-0.768,1.744-0.768c1.279,0,1.903,0.703,1.903,2.145V428h1.217v-4.863
			c0-1.617-1.024-2.545-2.688-2.545c-1.12,0-1.984,0.432-2.607,1.359v-6.062h-1.2V428z M662.56,428h1.216v-3.695
			c0-0.785,0-1.377,0.416-1.889c0.4-0.496,1.023-0.768,1.744-0.768c1.279,0,1.904,0.703,1.904,2.145V428h1.216v-4.863
			c0-1.617-1.024-2.545-2.688-2.545c-1.12,0-1.983,0.432-2.592,1.359v-1.104h-1.216V428z M658.641,428H660v-11.439h-1.359V428z
			 M645.952,428h1.36v-5.648h4.672v-1.264h-4.672v-3.279h4.672v-1.248h-6.032V428z M633.633,428h1.359v-8.592l8.304,9.039v-11.887
			h-1.359v8.688l-8.304-9.137V428z M627.601,428h1.359v-10.145h3.232v-1.295h-7.824v1.295h3.232V428z M615.312,428h1.216v-3.488
			c0-1.871,0.64-2.799,1.937-2.799c0.224,0,0.479,0.047,0.752,0.143l0.416-1.104c-0.272-0.096-0.545-0.145-0.832-0.145
			c-1.089,0-1.761,0.512-2.4,1.729v-1.488h-1.088V428z M606.992,424.447c0-1.52,1.152-2.703,2.592-2.703
			c1.425,0,2.576,1.184,2.576,2.703c0,1.521-1.151,2.705-2.576,2.705C608.16,427.152,606.992,425.969,606.992,424.447
			 M605.696,424.447c0,1.041,0.384,1.969,1.136,2.721c0.736,0.736,1.696,1.137,2.752,1.137c1.04,0,2-0.416,2.752-1.152
			c0.736-0.721,1.137-1.664,1.137-2.705c0-1.039-0.4-2-1.137-2.719c-0.752-0.736-1.695-1.137-2.752-1.137
			c-1.056,0-2.016,0.385-2.752,1.121C606.08,422.447,605.696,423.408,605.696,424.447 M602.258,417.408
			c0,0.512,0.399,0.896,0.896,0.896c0.495,0,0.896-0.385,0.896-0.881s-0.401-0.912-0.896-0.912
			C602.657,416.512,602.258,416.912,602.258,417.408 M602.544,428h1.217v-7.152h-1.217V428z M596.961,428h1.217v-3.488
			c0-1.871,0.64-2.799,1.936-2.799c0.224,0,0.48,0.047,0.752,0.143l0.416-1.104c-0.271-0.096-0.544-0.145-0.832-0.145
			c-1.088,0-1.76,0.512-2.399,1.729v-1.488h-1.089V428z M590.386,422.863h1.04c1.184,0,2.111-0.031,2.88-0.576
			c0.72-0.512,1.168-1.455,1.168-2.574c0-1.121-0.448-2.064-1.168-2.576c-0.769-0.545-1.712-0.576-2.88-0.576h-2.4V428h1.36V422.863
			z M590.386,421.633v-3.824h0.655c1.984,0,2.96,0.32,2.96,1.984c0,1.584-0.991,1.84-2.96,1.84H590.386z M575.953,424.447
			c0-1.52,1.152-2.703,2.592-2.703c1.425,0,2.576,1.184,2.576,2.703c0,1.521-1.151,2.705-2.576,2.705
			C577.121,427.152,575.953,425.969,575.953,424.447 M574.657,424.447c0,1.041,0.384,1.969,1.136,2.721
			c0.736,0.736,1.696,1.137,2.752,1.137c1.04,0,2-0.416,2.752-1.152c0.736-0.721,1.137-1.664,1.137-2.705c0-1.039-0.4-2-1.137-2.719
			c-0.752-0.736-1.695-1.137-2.752-1.137c-1.056,0-2.016,0.385-2.752,1.121C575.041,422.447,574.657,423.408,574.657,424.447
			 M563.041,428h1.36v-8.592l8.304,9.039v-11.887h-1.359v8.688l-8.305-9.137V428z"/>
		<path clip-path="url(#SVGID_26_)" fill="#F9A25E" d="M332.991,428h1.216v-3.488c0-1.871,0.641-2.799,1.937-2.799
			c0.224,0,0.479,0.047,0.752,0.143l0.416-1.104c-0.272-0.096-0.544-0.145-0.832-0.145c-1.088,0-1.761,0.512-2.4,1.729v-1.488
			h-1.088V428z M324.671,424.447c0-1.52,1.152-2.703,2.593-2.703c1.424,0,2.575,1.184,2.575,2.703c0,1.521-1.151,2.705-2.575,2.705
			C325.839,427.152,324.671,425.969,324.671,424.447 M323.375,424.447c0,1.041,0.384,1.969,1.136,2.721
			c0.736,0.736,1.696,1.137,2.753,1.137c1.039,0,2-0.416,2.752-1.152c0.735-0.721,1.136-1.664,1.136-2.705
			c0-1.039-0.4-2-1.136-2.719c-0.752-0.736-1.696-1.137-2.752-1.137c-1.057,0-2.017,0.385-2.753,1.121
			C323.759,422.447,323.375,423.408,323.375,424.447 M320.079,421.855V428h1.216v-6.145h1.345v-1.008h-1.345v-2.879h-1.216v2.879
			h-1.312v1.008H320.079z M315.871,417.408c0,0.512,0.4,0.896,0.896,0.896s0.896-0.385,0.896-0.881s-0.399-0.912-0.896-0.912
			S315.871,416.912,315.871,417.408 M316.159,428h1.216v-7.152h-1.216V428z M308.191,424.465c0-1.617,0.992-2.656,2.432-2.656
			c1.424,0,2.304,0.912,2.304,2.496c0,1.791-0.911,2.814-2.336,2.814C309.119,427.119,308.191,426.16,308.191,424.465
			 M307.023,415.889V428h1.168v-1.297c0.56,1.025,1.504,1.602,2.607,1.602c2.049,0,3.425-1.521,3.425-3.857
			c0-2.398-1.376-3.855-3.376-3.855c-1.185,0-2.064,0.545-2.608,1.6v-6.303H307.023z M303.007,417.408
			c0,0.512,0.4,0.896,0.896,0.896s0.896-0.385,0.896-0.881s-0.399-0.912-0.896-0.912S303.007,416.912,303.007,417.408 M303.295,428
			h1.216v-7.152h-1.216V428z M294.4,428h1.216v-3.695c0-0.785,0-1.377,0.416-1.889c0.4-0.496,1.024-0.768,1.744-0.768
			c1.28,0,1.904,0.703,1.904,2.145V428h1.216v-4.863c0-1.617-1.024-2.545-2.688-2.545c-1.12,0-1.983,0.432-2.607,1.359v-6.062h-1.2
			V428z M285.568,428h1.216v-3.695c0-0.785,0-1.377,0.416-1.889c0.4-0.496,1.024-0.768,1.744-0.768c1.28,0,1.904,0.703,1.904,2.145
			V428h1.216v-4.863c0-1.617-1.024-2.545-2.688-2.545c-1.12,0-1.983,0.432-2.592,1.359v-1.104h-1.216V428z M281.648,428h1.359
			v-11.439h-1.359V428z M268.96,428h1.36v-5.648h4.672v-1.264h-4.672v-3.279h4.672v-1.248h-6.032V428z M256.641,428H258v-8.592
			l8.305,9.039v-11.887h-1.36v8.688l-8.304-9.137V428z M250.608,428h1.359v-10.145h3.232v-1.295h-7.824v1.295h3.232V428z
			 M238.32,428h1.216v-3.488c0-1.871,0.64-2.799,1.937-2.799c0.224,0,0.479,0.047,0.752,0.143l0.416-1.104
			c-0.272-0.096-0.545-0.145-0.832-0.145c-1.089,0-1.761,0.512-2.4,1.729v-1.488h-1.088V428z M230.001,424.447
			c0-1.52,1.152-2.703,2.592-2.703c1.425,0,2.576,1.184,2.576,2.703c0,1.521-1.151,2.705-2.576,2.705
			C231.169,427.152,230.001,425.969,230.001,424.447 M228.705,424.447c0,1.041,0.384,1.969,1.136,2.721
			c0.736,0.736,1.696,1.137,2.752,1.137c1.04,0,2-0.416,2.752-1.152c0.736-0.721,1.137-1.664,1.137-2.705c0-1.039-0.4-2-1.137-2.719
			c-0.752-0.736-1.695-1.137-2.752-1.137c-1.056,0-2.016,0.385-2.752,1.121C229.089,422.447,228.705,423.408,228.705,424.447
			 M225.266,417.408c0,0.512,0.399,0.896,0.896,0.896s0.896-0.385,0.896-0.881s-0.4-0.912-0.896-0.912
			S225.266,416.912,225.266,417.408 M225.553,428h1.217v-7.152h-1.217V428z M219.969,428h1.217v-3.488
			c0-1.871,0.64-2.799,1.936-2.799c0.224,0,0.48,0.047,0.752,0.143l0.416-1.104c-0.271-0.096-0.544-0.145-0.832-0.145
			c-1.088,0-1.76,0.512-2.399,1.729v-1.488h-1.089V428z M213.394,422.863h1.04c1.184,0,2.111-0.031,2.88-0.576
			c0.72-0.512,1.168-1.455,1.168-2.574c0-1.121-0.448-2.064-1.168-2.576c-0.769-0.545-1.712-0.576-2.88-0.576h-2.4V428h1.36V422.863
			z M213.394,421.633v-3.824h0.655c1.984,0,2.96,0.32,2.96,1.984c0,1.584-0.991,1.84-2.96,1.84H213.394z"/>
		<g clip-path="url(#SVGID_26_)">
			<g>
				<defs>
					<rect id="SVGID_27_" x="188.334" y="245.932" width="61.604" height="18.477"/>
				</defs>
				<clipPath id="SVGID_28_">
					<use xlink:href="#SVGID_27_"  overflow="visible"/>
				</clipPath>
				<path clip-path="url(#SVGID_28_)" fill="#F9A25E" d="M240.937,260.77h-5.984l2.002-2.311c2.398-2.75,3.96-4.709,3.96-7.172
					c0-2.684-1.869-4.355-4.905-4.355c-3.212,0-5.236,1.824-5.236,4.641h2.464c0.11-1.473,1.122-2.441,2.552-2.441
					c1.628,0,2.597,0.969,2.597,2.508c0,1.145-0.727,2.465-2.112,4.137l-5.874,7.039h10.538V260.77z M225.317,261.627
					c0,0.77,0.616,1.387,1.408,1.387c0.791,0,1.407-0.617,1.407-1.387c0-0.793-0.616-1.43-1.407-1.43
					C225.934,260.197,225.317,260.834,225.317,261.627 M212.689,262.484l2.068,0.924l7.92-16.17h-10.847v2.025h7.282
					L212.689,262.484z M204.945,252.189c-0.065,0.9-0.065,1.43-0.065,1.561v4.092h-3.938L204.945,252.189z M204.88,262.814h2.332
					v-3.189h1.913v-1.783h-1.913v-10.91h-0.727l-9.151,12.693h7.546V262.814z"/>
			</g>
		</g>
		<g clip-path="url(#SVGID_26_)">
			<g>
				<defs>
					<rect id="SVGID_29_" x="532.884" y="234.922" width="61.845" height="18.302"/>
				</defs>
				<clipPath id="SVGID_30_">
					<use xlink:href="#SVGID_29_"  overflow="visible"/>
				</clipPath>
				<path clip-path="url(#SVGID_30_)" fill="#F9A25E" d="M576.467,248.043l-1.694,1.871c1.166,1.584,2.75,2.309,4.906,2.309
					c3.74,0,6.05-2.309,6.05-5.785c0-3.08-2.068-5.192-5.06-5.192c-0.814,0-1.606,0.177-2.442,0.528l0.924-3.477h5.896v-2.068
					h-7.437l-1.958,7.986l0.639,0.133c0.857-0.881,2.002-1.342,3.321-1.342c2.2,0,3.674,1.451,3.674,3.52
					c0,2.178-1.43,3.607-3.497,3.607C578.402,250.133,577.215,249.408,576.467,248.043 M569.317,250.617
					c0,0.77,0.615,1.387,1.408,1.387c0.792,0,1.407-0.617,1.407-1.387c0-0.791-0.615-1.43-1.407-1.43
					C569.933,249.188,569.317,249.826,569.317,250.617 M555.237,247.604c0.088,2.838,2.09,4.619,5.104,4.619
					c3.41,0,5.434-1.824,5.434-4.553c0-2.311-1.078-3.719-3.058-4.07c1.716-0.264,2.706-1.583,2.706-3.498
					c0-2.553-1.782-4.18-4.687-4.18c-3.014,0-4.708,1.495-4.861,4.157h2.31c0.044-1.342,0.946-2.112,2.486-2.112
					c1.43,0,2.354,0.858,2.354,2.2c0,1.54-0.968,2.31-2.815,2.31c-0.154,0-0.309-0.021-0.462-0.021v2.068
					c0.176,0,0.329-0.021,0.483-0.021c2.112,0,3.19,0.945,3.19,2.838c0,1.781-1.078,2.771-2.992,2.771
					c-1.694,0-2.75-0.945-2.75-2.375v-0.133H555.237z M543.577,248.043l-1.693,1.871c1.166,1.584,2.75,2.309,4.905,2.309
					c3.74,0,6.051-2.309,6.051-5.785c0-3.08-2.068-5.192-5.061-5.192c-0.813,0-1.605,0.177-2.441,0.528l0.924-3.477h5.896v-2.068
					h-7.436l-1.958,7.986l0.638,0.133c0.858-0.881,2.002-1.342,3.322-1.342c2.2,0,3.674,1.451,3.674,3.52
					c0,2.178-1.43,3.607-3.498,3.607C545.514,250.133,544.325,249.408,543.577,248.043"/>
			</g>
		</g>
		<g clip-path="url(#SVGID_26_)">
			<g>
				<defs>
					<rect id="SVGID_31_" x="316.238" y="281.605" width="62.219" height="18.477"/>
				</defs>
				<clipPath id="SVGID_32_">
					<use xlink:href="#SVGID_31_"  overflow="visible"/>
				</clipPath>
				<path clip-path="url(#SVGID_32_)" fill="#808285" d="M360.194,294.727l-1.694,1.869c1.166,1.584,2.75,2.311,4.906,2.311
					c3.74,0,6.05-2.311,6.05-5.785c0-3.08-2.067-5.193-5.06-5.193c-0.814,0-1.606,0.176-2.442,0.529l0.925-3.477h5.896v-2.068
					h-7.436l-1.958,7.986l0.638,0.133c0.858-0.881,2.002-1.344,3.322-1.344c2.199,0,3.674,1.453,3.674,3.521
					c0,2.178-1.43,3.607-3.498,3.607C362.131,296.816,360.942,296.09,360.194,294.727 M353.046,297.301
					c0,0.77,0.614,1.385,1.406,1.385s1.408-0.615,1.408-1.385c0-0.793-0.616-1.43-1.408-1.43S353.046,296.508,353.046,297.301
					 M340.418,298.158l2.067,0.924l7.92-16.17H339.56v2.023h7.282L340.418,298.158z M335.775,296.443h-5.984l2.003-2.311
					c2.397-2.75,3.96-4.709,3.96-7.172c0-2.684-1.87-4.357-4.906-4.357c-3.212,0-5.236,1.826-5.236,4.643h2.464
					c0.11-1.473,1.122-2.441,2.553-2.441c1.628,0,2.596,0.969,2.596,2.508c0,1.145-0.727,2.465-2.112,4.137l-5.874,7.039h10.538
					V296.443z"/>
			</g>
		</g>
		<g clip-path="url(#SVGID_26_)">
			<g>
				<defs>
					<rect id="SVGID_33_" x="660.238" y="286.092" width="62.725" height="18.303"/>
				</defs>
				<clipPath id="SVGID_34_">
					<use xlink:href="#SVGID_33_"  overflow="visible"/>
				</clipPath>
				<path clip-path="url(#SVGID_34_)" fill="#808285" d="M713.963,295.41c0-5.412-2.068-8.316-5.633-8.316
					c-3.52,0-5.676,2.947-5.676,8.139c0,5.236,2.134,8.162,5.654,8.162C711.784,303.395,713.963,300.469,713.963,295.41
					 M708.265,301.195c-1.937,0-3.059-2.068-3.059-5.939c0-3.961,1.078-5.984,3.146-5.984c1.979,0,3.058,2.045,3.058,5.939
					C711.41,299.193,710.354,301.195,708.265,301.195 M697.046,301.789c0,0.77,0.614,1.387,1.406,1.387
					c0.793,0,1.409-0.617,1.409-1.387c0-0.791-0.616-1.43-1.409-1.43C697.66,300.359,697.046,300.998,697.046,301.789
					 M684.483,299.215l-1.694,1.871c1.166,1.584,2.75,2.309,4.906,2.309c3.74,0,6.05-2.309,6.05-5.785
					c0-3.08-2.067-5.191-5.06-5.191c-0.814,0-1.606,0.176-2.442,0.527l0.925-3.477h5.896V287.4h-7.436l-1.958,7.986l0.638,0.133
					c0.857-0.881,2.002-1.342,3.322-1.342c2.199,0,3.674,1.451,3.674,3.52c0,2.178-1.431,3.607-3.498,3.607
					C686.42,301.305,685.231,300.58,684.483,299.215 M679.775,300.932h-5.984l2.002-2.311c2.398-2.75,3.961-4.707,3.961-7.172
					c0-2.684-1.87-4.355-4.906-4.355c-3.212,0-5.236,1.826-5.236,4.641h2.464c0.11-1.473,1.122-2.441,2.553-2.441
					c1.628,0,2.596,0.969,2.596,2.508c0,1.145-0.727,2.465-2.112,4.137l-5.874,7.039h10.538V300.932z"/>
			</g>
		</g>
		<line clip-path="url(#SVGID_26_)" fill="none" stroke="#6D6E71" stroke-dasharray="4,4" x1="456" y1="0" x2="456" y2="340"/>
		<path clip-path="url(#SVGID_26_)" fill="#808285" d="M240.552,364.074c2.4,0,3.952-2.129,3.952-5.936
			c0-3.809-1.536-5.92-3.983-5.92c-2.385,0-3.952,2.143-3.952,5.92C236.568,361.914,238.136,364.074,240.552,364.074
			 M240.536,362.953c-1.584,0-2.56-1.727-2.56-4.832c0-3.088,0.976-4.799,2.56-4.799c1.664,0,2.561,1.648,2.561,4.832
			C243.097,361.322,242.2,362.953,240.536,362.953 M234.248,362.475h-4.336l1.792-1.938c1.84-2,2.896-3.504,2.896-5.15
			c0-1.969-1.312-3.168-3.553-3.168c-2.256,0-3.584,1.264-3.584,3.424c0,0.096,0.017,0.207,0.017,0.303h1.279v-0.127
			c0-1.521,0.801-2.354,2.24-2.354c1.376,0,2.256,0.85,2.256,2c0,1.488-1.424,3.01-3.487,5.441l-2.416,2.863h6.896V362.475z
			 M217.977,360.873v0.209c0,1.809,1.344,2.992,3.472,2.992c2.432,0,3.84-1.281,3.84-3.328c0-1.553-0.815-2.592-2.176-2.816
			c1.28-0.336,2.032-1.312,2.032-2.672c0-1.855-1.296-3.039-3.425-3.039c-2.208,0-3.439,1.104-3.535,3.055h1.344
			c0.063-1.232,0.832-1.904,2.16-1.904c1.264,0,2.031,0.77,2.031,1.953c0,1.344-0.8,2.047-2.384,2.047
			c-0.128,0-0.239-0.016-0.368-0.016v1.121c0.145-0.018,0.272-0.018,0.4-0.018c1.648,0,2.496,0.77,2.496,2.24
			c0,1.393-0.848,2.209-2.368,2.209c-1.312,0-2.128-0.736-2.128-1.904v-0.129H217.977z M215.192,360.041h-9.36v0.912h9.36V360.041z
			 M215.192,357.049h-9.36v0.912h9.36V357.049z M196.265,363.77h1.216v-3.695c0-0.785,0-1.377,0.416-1.889
			c0.399-0.496,1.023-0.768,1.744-0.768c1.279,0,1.903,0.703,1.903,2.145v4.207h1.216v-4.863c0-1.617-1.023-2.545-2.688-2.545
			c-1.12,0-1.984,0.432-2.592,1.361v-1.105h-1.216V363.77z"/>
		<path clip-path="url(#SVGID_26_)" fill="#808285" d="M584.185,363.77h1.328v-11.328h-2.896l-0.768,1.184h2.336V363.77z
			 M571.336,360.873v0.209c0,1.809,1.345,2.992,3.473,2.992c2.432,0,3.84-1.281,3.84-3.328c0-1.553-0.816-2.592-2.176-2.816
			c1.279-0.336,2.031-1.312,2.031-2.672c0-1.855-1.296-3.039-3.424-3.039c-2.208,0-3.439,1.104-3.536,3.055h1.345
			c0.063-1.232,0.832-1.904,2.159-1.904c1.265,0,2.032,0.77,2.032,1.953c0,1.344-0.8,2.047-2.384,2.047
			c-0.128,0-0.24-0.016-0.368-0.016v1.121c0.145-0.018,0.272-0.018,0.4-0.018c1.647,0,2.496,0.77,2.496,2.24
			c0,1.393-0.849,2.209-2.368,2.209c-1.312,0-2.128-0.736-2.128-1.904v-0.129H571.336z M562.76,358.059
			c0.704-0.545,1.536-0.816,2.433-0.816c1.76,0,2.848,1.119,2.848,2.752c0,1.775-1.104,2.896-2.735,2.896
			c-1.12,0-2-0.561-2.513-1.617l-0.96,1.121c0.784,1.15,1.889,1.68,3.44,1.68c2.624,0,4.208-1.633,4.208-4.209
			c0-2.287-1.393-3.727-3.632-3.727c-0.641,0-1.232,0.127-1.776,0.416l0.72-2.945h4.097v-1.168h-5.024l-1.36,5.568L562.76,358.059z
			 M559.192,360.041h-9.36v0.912h9.36V360.041z M559.192,357.049h-9.36v0.912h9.36V357.049z M540.265,363.77h1.216v-3.695
			c0-0.785,0-1.377,0.416-1.889c0.399-0.496,1.023-0.768,1.744-0.768c1.279,0,1.903,0.703,1.903,2.145v4.207h1.216v-4.863
			c0-1.617-1.023-2.545-2.688-2.545c-1.12,0-1.984,0.432-2.592,1.361v-1.105h-1.216V363.77z"/>
		<path clip-path="url(#SVGID_26_)" fill="#808285" d="M363.601,364.074c2.399,0,3.951-2.129,3.951-5.936
			c0-3.809-1.535-5.92-3.983-5.92c-2.384,0-3.952,2.143-3.952,5.92C359.616,361.914,361.185,364.074,363.601,364.074
			 M363.584,362.953c-1.584,0-2.56-1.727-2.56-4.832c0-3.088,0.976-4.799,2.56-4.799c1.664,0,2.561,1.648,2.561,4.832
			C366.145,361.322,365.248,362.953,363.584,362.953 M354.24,353.258c1.248,0,2.016,0.721,2.016,1.904
			c0,1.152-0.735,1.855-2.048,1.855c-1.28,0-2-0.721-2-1.855C352.208,353.994,352.977,353.258,354.24,353.258 M354.225,362.971
			c-1.536,0-2.4-0.881-2.4-2.305c0-1.439,0.896-2.352,2.4-2.352c1.504,0,2.399,0.895,2.399,2.352
			C356.624,362.09,355.76,362.971,354.225,362.971 M352.736,357.723c-1.504,0.416-2.353,1.535-2.353,3.039
			c0,1.984,1.425,3.312,3.856,3.312c2.448,0,3.84-1.297,3.84-3.344c0-1.473-0.848-2.576-2.352-3.008
			c1.231-0.369,1.936-1.297,1.936-2.529c0-1.775-1.296-2.975-3.424-2.975c-2.096,0-3.44,1.23-3.44,2.863
			C350.8,356.441,351.456,357.322,352.736,357.723 M347.601,360.041h-9.36v0.912h9.36V360.041z M347.601,357.049h-9.36v0.912h9.36
			V357.049z M328.672,363.77h1.217v-3.695c0-0.785,0-1.377,0.416-1.889c0.399-0.496,1.023-0.768,1.743-0.768
			c1.28,0,1.904,0.703,1.904,2.145v4.207h1.216v-4.863c0-1.617-1.023-2.545-2.688-2.545c-1.12,0-1.984,0.432-2.592,1.361v-1.105
			h-1.217V363.77z"/>
		<path clip-path="url(#SVGID_26_)" fill="#808285" d="M715.336,362.475H711l1.792-1.938c1.84-2,2.896-3.504,2.896-5.15
			c0-1.969-1.312-3.168-3.553-3.168c-2.256,0-3.584,1.264-3.584,3.424c0,0.096,0.017,0.207,0.017,0.303h1.279v-0.127
			c0-1.521,0.801-2.354,2.24-2.354c1.376,0,2.256,0.85,2.256,2c0,1.488-1.424,3.01-3.487,5.441l-2.416,2.863h6.896V362.475z
			 M699.064,360.873v0.209c0,1.809,1.344,2.992,3.472,2.992c2.432,0,3.84-1.281,3.84-3.328c0-1.553-0.815-2.592-2.176-2.816
			c1.28-0.336,2.032-1.312,2.032-2.672c0-1.855-1.296-3.039-3.424-3.039c-2.208,0-3.44,1.104-3.536,3.055h1.344
			c0.063-1.232,0.832-1.904,2.16-1.904c1.264,0,2.032,0.77,2.032,1.953c0,1.344-0.801,2.047-2.385,2.047
			c-0.128,0-0.239-0.016-0.367-0.016v1.121c0.144-0.018,0.271-0.018,0.399-0.018c1.648,0,2.496,0.77,2.496,2.24
			c0,1.393-0.848,2.209-2.368,2.209c-1.312,0-2.128-0.736-2.128-1.904v-0.129H699.064z M693.192,363.77h1.328v-11.328h-2.896
			l-0.768,1.184h2.336V363.77z M686.92,360.041h-9.359v0.912h9.359V360.041z M686.92,357.049h-9.359v0.912h9.359V357.049z
			 M667.992,363.77h1.216v-3.695c0-0.785,0-1.377,0.416-1.889c0.4-0.496,1.024-0.768,1.744-0.768c1.28,0,1.904,0.703,1.904,2.145
			v4.207h1.216v-4.863c0-1.617-1.024-2.545-2.688-2.545c-1.12,0-1.983,0.432-2.592,1.361v-1.105h-1.216V363.77z"/>
		<path clip-path="url(#SVGID_26_)" fill="#F9A25E" d="M609.034,28.792l0.832,0.432c1.232-2.288,1.856-4.864,1.856-7.728
			c0-2.96-0.576-5.504-1.856-7.76l-0.832,0.384c1.152,2.272,1.648,4.64,1.648,7.376C610.683,24.312,610.187,26.68,609.034,28.792
			 M603.418,25.72h1.328V14.392h-2.896l-0.769,1.184h2.336V25.72z M591.354,20.008c0.704-0.544,1.536-0.816,2.432-0.816
			c1.76,0,2.849,1.12,2.849,2.752c0,1.776-1.104,2.896-2.736,2.896c-1.12,0-2-0.56-2.512-1.616l-0.961,1.12
			c0.784,1.152,1.889,1.68,3.44,1.68c2.624,0,4.208-1.632,4.208-4.208c0-2.288-1.392-3.728-3.632-3.728
			c-0.64,0-1.232,0.128-1.776,0.416l0.721-2.944h4.096v-1.168h-5.024l-1.359,5.568L591.354,20.008z M585.066,15.208
			c1.248,0,2.016,0.72,2.016,1.904c0,1.152-0.735,1.856-2.048,1.856c-1.28,0-2-0.72-2-1.856
			C583.034,15.944,583.803,15.208,585.066,15.208 M585.051,24.92c-1.536,0-2.4-0.88-2.4-2.304c0-1.44,0.896-2.352,2.4-2.352
			c1.504,0,2.399,0.896,2.399,2.352C587.45,24.04,586.586,24.92,585.051,24.92 M583.562,19.672c-1.504,0.416-2.353,1.536-2.353,3.04
			c0,1.984,1.425,3.312,3.856,3.312c2.448,0,3.84-1.296,3.84-3.344c0-1.472-0.848-2.576-2.352-3.008
			c1.231-0.368,1.936-1.296,1.936-2.528c0-1.776-1.296-2.976-3.424-2.976c-2.096,0-3.44,1.232-3.44,2.864
			C581.626,18.392,582.282,19.272,583.562,19.672 M578.426,21.992h-9.359v0.912h9.359V21.992z M578.426,19h-9.359v0.912h9.359V19z
			 M559.498,25.72h1.216v-3.696c0-0.784,0-1.376,0.416-1.888c0.4-0.496,1.024-0.768,1.744-0.768c1.28,0,1.904,0.704,1.904,2.144
			v4.208h1.216v-4.864c0-1.616-1.023-2.544-2.688-2.544c-1.12,0-1.984,0.432-2.593,1.36v-1.104h-1.216V25.72z M557.706,28.792
			c-1.151-2.112-1.647-4.48-1.647-7.296c0-2.736,0.496-5.104,1.647-7.376l-0.832-0.384c-1.279,2.256-1.855,4.8-1.855,7.76
			c0,2.864,0.624,5.44,1.855,7.728L557.706,28.792z M546.778,22.216c0,1.648-0.896,2.592-2.336,2.592
			c-1.521,0-2.384-0.976-2.384-2.704c0-1.632,0.863-2.576,2.336-2.576C545.771,19.528,546.778,20.552,546.778,22.216
			 M547.962,18.568h-1.216v1.344c-0.544-1.056-1.424-1.6-2.624-1.6c-2,0-3.359,1.456-3.359,3.856c0,2.336,1.376,3.856,3.424,3.856
			c1.104,0,2.016-0.56,2.592-1.6v1.296h1.184V18.568z M537.291,15.128c0,0.512,0.4,0.896,0.896,0.896s0.896-0.384,0.896-0.88
			s-0.399-0.912-0.896-0.912S537.291,14.632,537.291,15.128 M537.579,25.72h1.216v-7.152h-1.216V25.72z M529.691,25.72h6.224v-1.072
			h-4.063l4.096-6.08h-6v1.072h3.84L529.691,25.72z M527.163,25.72h1.216v-4.864c0-1.616-0.96-2.544-2.544-2.544
			c-1.088,0-1.92,0.464-2.544,1.456c-0.416-0.96-1.248-1.456-2.399-1.456c-1.072,0-1.889,0.448-2.464,1.36v-1.104h-1.217v7.152
			h1.217v-3.696c0-0.176-0.017-0.352-0.017-0.512c0-0.544,0.064-0.992,0.368-1.376c0.384-0.496,0.976-0.768,1.632-0.768
			c1.216,0,1.776,0.704,1.776,2.144v4.208h1.216v-3.696c0-0.16-0.016-0.304-0.016-0.448c0-0.592,0.079-1.04,0.384-1.44
			c0.384-0.496,0.96-0.768,1.616-0.768c1.216,0,1.775,0.704,1.775,2.144V25.72z M513.195,15.128c0,0.512,0.4,0.896,0.896,0.896
			c0.495,0,0.896-0.384,0.896-0.88s-0.4-0.912-0.896-0.912C513.596,14.232,513.195,14.632,513.195,15.128 M513.483,25.72h1.216
			v-7.152h-1.216V25.72z M511.308,17.016V15.24c-1.185-0.816-2.4-1.232-3.761-1.232c-1.68,0-3.088,0.56-4.256,1.68
			c-1.199,1.168-1.792,2.592-1.792,4.368c0,2.032,0.912,3.76,2.576,4.912c0.992,0.688,2.16,1.056,3.376,1.056
			c1.393,0,2.72-0.432,3.856-1.248v-1.808c-1.04,1.216-2.305,1.808-3.744,1.808c-1.552,0-2.944-0.736-3.856-2.032
			c-0.527-0.752-0.784-1.648-0.784-2.704c0-1.344,0.433-2.464,1.312-3.376c0.848-0.88,2.063-1.392,3.264-1.392
			C508.987,15.272,510.203,15.816,511.308,17.016"/>
	</g>
	<rect x="474.459" y="14" clip-path="url(#SVGID_2_)" fill="#F9A25E" width="12" height="12"/>
	<g clip-path="url(#SVGID_2_)">
		<defs>
			<rect id="SVGID_35_" x="-9" y="-1" width="930" height="487.979"/>
		</defs>
		<clipPath id="SVGID_36_">
			<use xlink:href="#SVGID_35_"  overflow="visible"/>
		</clipPath>
		<path clip-path="url(#SVGID_36_)" fill="#808285" d="M777.807,28.792l0.832,0.432c1.231-2.288,1.855-4.864,1.855-7.728
			c0-2.96-0.575-5.504-1.855-7.76l-0.832,0.384c1.152,2.272,1.647,4.64,1.647,7.376C779.454,24.312,778.959,26.68,777.807,28.792
			 M775.614,24.424h-4.336l1.792-1.936c1.84-2,2.896-3.504,2.896-5.152c0-1.968-1.312-3.168-3.553-3.168
			c-2.256,0-3.584,1.264-3.584,3.424c0,0.096,0.017,0.208,0.017,0.304h1.28v-0.128c0-1.52,0.8-2.352,2.239-2.352
			c1.376,0,2.257,0.848,2.257,2c0,1.488-1.425,3.008-3.488,5.44l-2.416,2.864h6.896V24.424z M762.83,25.72h1.328V14.392h-2.896
			l-0.769,1.184h2.336V25.72z M756.895,24.424h-4.336l1.792-1.936c1.84-2,2.896-3.504,2.896-5.152c0-1.968-1.312-3.168-3.552-3.168
			c-2.256,0-3.584,1.264-3.584,3.424c0,0.096,0.017,0.208,0.017,0.304h1.279v-0.128c0-1.52,0.801-2.352,2.24-2.352
			c1.376,0,2.256,0.848,2.256,2c0,1.488-1.424,3.008-3.488,5.44l-2.416,2.864h6.896V24.424z M747.199,21.992h-9.359v0.912h9.359
			V21.992z M747.199,19h-9.359v0.912h9.359V19z M728.271,25.72h1.216v-3.696c0-0.784,0-1.376,0.416-1.888
			c0.4-0.496,1.024-0.768,1.744-0.768c1.28,0,1.904,0.704,1.904,2.144v4.208h1.216v-4.864c0-1.616-1.024-2.544-2.688-2.544
			c-1.119,0-1.983,0.432-2.592,1.36v-1.104h-1.216V25.72z M726.479,28.792c-1.152-2.112-1.647-4.48-1.647-7.296
			c0-2.736,0.495-5.104,1.647-7.376l-0.832-0.384c-1.28,2.256-1.855,4.8-1.855,7.76c0,2.864,0.624,5.44,1.855,7.728L726.479,28.792z
			 M710.8,22.168c0-1.52,1.151-2.704,2.592-2.704c1.424,0,2.576,1.184,2.576,2.704s-1.152,2.704-2.576,2.704
			S710.8,23.688,710.8,22.168 M709.504,22.168c0,1.04,0.384,1.968,1.136,2.72c0.736,0.736,1.696,1.136,2.752,1.136
			c1.04,0,2-0.416,2.752-1.152c0.736-0.72,1.136-1.664,1.136-2.704s-0.399-2-1.136-2.72c-0.752-0.736-1.696-1.136-2.752-1.136
			s-2.016,0.384-2.752,1.12C709.888,20.168,709.504,21.128,709.504,22.168 M702.176,22.184c0-1.616,0.992-2.656,2.432-2.656
			c1.424,0,2.304,0.912,2.304,2.496c0,1.792-0.911,2.816-2.336,2.816C703.104,24.84,702.176,23.88,702.176,22.184 M701.008,13.608
			V25.72h1.168v-1.296c0.56,1.024,1.504,1.6,2.607,1.6c2.049,0,3.425-1.52,3.425-3.856c0-2.4-1.376-3.856-3.376-3.856
			c-1.185,0-2.064,0.544-2.608,1.6v-6.304H701.008z M697.936,21.336h-4.352c0.128-1.216,1.008-1.968,2.176-1.968
			C697.056,19.368,697.855,20.072,697.936,21.336 M699.248,22.328v-0.24c0-2.368-1.345-3.792-3.44-3.792
			c-2.08,0-3.568,1.568-3.568,3.824c0,2.336,1.473,3.904,3.648,3.904c1.472,0,2.592-0.656,3.312-1.952l-0.928-0.624
			c-0.592,1.04-1.36,1.552-2.32,1.552c-1.376,0-2.367-1.008-2.367-2.56v-0.112H699.248z M691.248,24.024
			c-0.752,0.544-1.439,0.816-2.207,0.816c-1.489,0-2.561-1.152-2.561-2.592c0-1.696,1.087-2.752,2.655-2.752
			c0.705,0,1.377,0.224,1.983,0.624v-1.312c-0.655-0.32-1.424-0.496-2.224-0.496c-2.144,0-3.727,1.568-3.727,3.904
			c0,2.256,1.456,3.808,3.68,3.808c0.927,0,1.744-0.192,2.399-0.576V24.024z M682.209,22.216c0,1.648-0.896,2.592-2.336,2.592
			c-1.521,0-2.385-0.976-2.385-2.704c0-1.632,0.864-2.576,2.336-2.576C681.2,19.528,682.209,20.552,682.209,22.216 M683.393,18.568
			h-1.216v1.344c-0.544-1.056-1.424-1.6-2.624-1.6c-2,0-3.36,1.456-3.36,3.856c0,2.336,1.376,3.856,3.424,3.856
			c1.104,0,2.017-0.56,2.593-1.6v1.296h1.184V18.568z M673.009,25.72h1.216V13.608h-1.216V25.72z M666.385,20.584h1.04
			c1.184,0,2.111-0.032,2.88-0.576c0.72-0.512,1.168-1.456,1.168-2.576s-0.448-2.064-1.168-2.576
			c-0.769-0.544-1.712-0.576-2.88-0.576h-2.4v11.44h1.36V20.584z M666.385,19.352v-3.824h0.656c1.983,0,2.96,0.32,2.96,1.984
			c0,1.584-0.992,1.84-2.96,1.84H666.385z"/>
	</g>
	<rect x="637.457" y="14" clip-path="url(#SVGID_2_)" fill="#D1D3D4" width="12" height="12"/>
	<g clip-path="url(#SVGID_2_)">
		<defs>
			<rect id="SVGID_37_" x="-9" y="-1" width="930" height="487.979"/>
		</defs>
		<clipPath id="SVGID_38_">
			<use xlink:href="#SVGID_37_"  overflow="visible"/>
		</clipPath>
		<path clip-path="url(#SVGID_38_)" fill="#808285" d="M655.417,105.72h1.328V94.392h-2.896l-0.769,1.184h2.336V105.72z
			 M646.426,106.024c2.4,0,3.952-2.128,3.952-5.936s-1.536-5.92-3.983-5.92c-2.385,0-3.952,2.144-3.952,5.92
			S644.01,106.024,646.426,106.024 M646.41,104.904c-1.584,0-2.56-1.728-2.56-4.832c0-3.088,0.976-4.8,2.56-4.8
			c1.664,0,2.561,1.648,2.561,4.832C648.971,103.272,648.074,104.904,646.41,104.904 M637.066,106.024
			c2.399,0,3.952-2.128,3.952-5.936s-1.536-5.92-3.984-5.92c-2.384,0-3.952,2.144-3.952,5.92S634.65,106.024,637.066,106.024
			 M637.051,104.904c-1.585,0-2.561-1.728-2.561-4.832c0-3.088,0.976-4.8,2.561-4.8c1.663,0,2.56,1.648,2.56,4.832
			C639.61,103.272,638.714,104.904,637.051,104.904 M629.114,104.952c0,0.512,0.4,0.912,0.928,0.912c0.528,0,0.944-0.4,0.944-0.912
			c0-0.512-0.416-0.928-0.944-0.928C629.53,104.024,629.114,104.44,629.114,104.952 M623.066,106.024
			c2.399,0,3.952-2.128,3.952-5.936s-1.536-5.92-3.984-5.92c-2.384,0-3.952,2.144-3.952,5.92S620.65,106.024,623.066,106.024
			 M623.051,104.904c-1.585,0-2.561-1.728-2.561-4.832c0-3.088,0.976-4.8,2.561-4.8c1.663,0,2.56,1.648,2.56,4.832
			C625.61,103.272,624.714,104.904,623.051,104.904 M616.347,97.768v-0.992l-9.2,3.776v0.8l9.2,3.776v-1.008l-7.809-3.168
			L616.347,97.768z M598.442,102.168c0-1.696,0.928-2.672,2.399-2.672c1.425,0,2.32,1.024,2.32,2.816
			c0,1.584-0.88,2.512-2.304,2.512C599.418,104.824,598.442,103.784,598.442,102.168 M597.258,109.208h1.217v-4.784
			c0.544,1.056,1.424,1.6,2.607,1.6c2,0,3.376-1.44,3.376-3.856c0-2.352-1.376-3.856-3.424-3.856c-1.104,0-2.048,0.56-2.608,1.6
			v-1.344h-1.168V109.208z"/>
		<path clip-path="url(#SVGID_38_)" fill="#808285" d="M314.842,104.424h-4.336l1.792-1.936c1.841-2,2.896-3.504,2.896-5.152
			c0-1.968-1.312-3.168-3.552-3.168c-2.257,0-3.584,1.264-3.584,3.424c0,0.096,0.016,0.208,0.016,0.304h1.28v-0.128
			c0-1.52,0.8-2.352,2.239-2.352c1.376,0,2.257,0.848,2.257,2c0,1.488-1.425,3.008-3.488,5.44l-2.416,2.864h6.896V104.424z
			 M302.426,106.024c2.4,0,3.952-2.128,3.952-5.936s-1.536-5.92-3.983-5.92c-2.385,0-3.952,2.144-3.952,5.92
			S300.01,106.024,302.426,106.024 M302.41,104.904c-1.584,0-2.56-1.728-2.56-4.832c0-3.088,0.976-4.8,2.56-4.8
			c1.664,0,2.56,1.648,2.56,4.832C304.97,103.272,304.074,104.904,302.41,104.904 M293.066,106.024c2.399,0,3.952-2.128,3.952-5.936
			s-1.536-5.92-3.984-5.92c-2.384,0-3.952,2.144-3.952,5.92S290.65,106.024,293.066,106.024 M293.05,104.904
			c-1.584,0-2.56-1.728-2.56-4.832c0-3.088,0.976-4.8,2.56-4.8c1.664,0,2.561,1.648,2.561,4.832
			C295.61,103.272,294.714,104.904,293.05,104.904 M285.114,104.952c0,0.512,0.4,0.912,0.928,0.912c0.528,0,0.944-0.4,0.944-0.912
			c0-0.512-0.416-0.928-0.944-0.928C285.53,104.024,285.114,104.44,285.114,104.952 M279.066,106.024
			c2.399,0,3.952-2.128,3.952-5.936s-1.536-5.92-3.984-5.92c-2.384,0-3.952,2.144-3.952,5.92S276.65,106.024,279.066,106.024
			 M279.05,104.904c-1.584,0-2.56-1.728-2.56-4.832c0-3.088,0.976-4.8,2.56-4.8c1.664,0,2.561,1.648,2.561,4.832
			C281.61,103.272,280.714,104.904,279.05,104.904 M272.426,101.992h-9.359v0.912h9.359V101.992z M272.426,99h-9.359v0.912h9.359V99
			z M254.442,102.168c0-1.696,0.928-2.672,2.399-2.672c1.425,0,2.32,1.024,2.32,2.816c0,1.584-0.88,2.512-2.304,2.512
			C255.418,104.824,254.442,103.784,254.442,102.168 M253.258,109.208h1.217v-4.784c0.544,1.056,1.424,1.6,2.607,1.6
			c2,0,3.376-1.44,3.376-3.856c0-2.352-1.376-3.856-3.424-3.856c-1.104,0-2.048,0.56-2.608,1.6v-1.344h-1.168V109.208z"/>
		<path clip-path="url(#SVGID_38_)" fill="#808285" d="M342.394,478.73h0.726v-6.191h-1.582l-0.42,0.646h1.276V478.73z
			 M336.992,483.006c0,0.479,0.375,0.854,0.869,0.854s0.884-0.375,0.884-0.854c0-0.48-0.39-0.869-0.884-0.869
			C337.382,482.137,336.992,482.525,336.992,483.006 M334.186,482.512h-4.064l1.68-1.816c1.727-1.875,2.714-3.287,2.714-4.83
			c0-1.846-1.228-2.969-3.329-2.969c-2.115,0-3.358,1.182-3.358,3.209c0,0.09,0.015,0.195,0.015,0.283h1.198v-0.119
			c0-1.424,0.75-2.205,2.101-2.205c1.291,0,2.116,0.795,2.116,1.877c0,1.393-1.336,2.818-3.271,5.1l-2.265,2.684h6.464V482.512z
			 M322.202,483.725h1.243v-10.619h-2.713l-0.721,1.109h2.19V483.725z M313.771,484.01c2.25,0,3.703-1.994,3.703-5.564
			c0-3.572-1.438-5.549-3.733-5.549c-2.236,0-3.704,2.008-3.704,5.549S311.505,484.01,313.771,484.01 M313.756,482.961
			c-1.484,0-2.4-1.619-2.4-4.531c0-2.896,0.916-4.5,2.4-4.5c1.562,0,2.401,1.545,2.401,4.529
			C316.157,481.432,315.317,482.961,313.756,482.961 M307.861,482.512h-4.065l1.681-1.816c1.726-1.875,2.714-3.287,2.714-4.83
			c0-1.846-1.229-2.969-3.329-2.969c-2.116,0-3.359,1.182-3.359,3.209c0,0.09,0.015,0.195,0.015,0.283h1.198v-0.119
			c0-1.424,0.751-2.205,2.102-2.205c1.291,0,2.115,0.795,2.115,1.877c0,1.393-1.335,2.818-3.271,5.1l-2.265,2.684h6.465V482.512z
			 M293.882,483.725h1.138v-11.354h-1.138V483.725z M290.493,480.439c0,1.547-0.841,2.432-2.191,2.432
			c-1.426,0-2.235-0.916-2.235-2.537c0-1.529,0.81-2.416,2.19-2.416C289.547,477.918,290.493,478.881,290.493,480.439
			 M291.601,477.021h-1.138v1.258c-0.511-0.99-1.336-1.498-2.461-1.498c-1.876,0-3.149,1.363-3.149,3.613
			c0,2.191,1.288,3.615,3.209,3.615c1.035,0,1.891-0.523,2.432-1.498v1.213h1.107V477.021z M277.383,477.965v5.76h1.139v-5.76h1.26
			v-0.943h-1.26v-2.701h-1.139v2.701h-1.229v0.943H277.383z M274.323,479.615h-4.082c0.12-1.141,0.944-1.846,2.041-1.846
			C273.498,477.77,274.248,478.43,274.323,479.615 M275.551,480.543v-0.223c0-2.221-1.258-3.555-3.224-3.555
			c-1.951,0-3.344,1.469-3.344,3.584c0,2.191,1.378,3.66,3.419,3.66c1.381,0,2.43-0.615,3.104-1.83l-0.869-0.584
			c-0.554,0.975-1.274,1.455-2.175,1.455c-1.291,0-2.221-0.945-2.221-2.402v-0.105H275.551z M257.837,484.145l3.315-7.709
			l1.363,7.289h1.245l-2.175-11.145l-3.749,8.865l-3.749-8.865l-2.175,11.145h1.245l1.35-7.289L257.837,484.145z M244.743,477.965
			v5.76h1.138v-5.76h1.26v-0.943h-1.26v-2.701h-1.138v2.701h-1.23v0.943H244.743z M240.933,477.965v5.76h1.139v-5.76h1.261v-0.943
			h-1.261v-2.701h-1.139v2.701h-1.229v0.943H240.933z M237.424,480.439c0,1.547-0.841,2.432-2.19,2.432
			c-1.427,0-2.236-0.916-2.236-2.537c0-1.529,0.81-2.416,2.19-2.416C236.478,477.918,237.424,478.881,237.424,480.439
			 M238.532,477.021h-1.139v1.258c-0.511-0.99-1.336-1.498-2.461-1.498c-1.876,0-3.148,1.363-3.148,3.613
			c0,2.191,1.288,3.615,3.209,3.615c1.035,0,1.89-0.523,2.431-1.498v1.213h1.108V477.021z M228.799,483.725h1.138v-11.354h-1.138
			V483.725z M221.327,480.41c0-1.516,0.93-2.492,2.281-2.492c1.336,0,2.16,0.855,2.16,2.342c0,1.682-0.854,2.641-2.19,2.641
			C222.197,482.9,221.327,482,221.327,480.41 M220.234,472.371v11.354h1.093v-1.213c0.524,0.959,1.411,1.498,2.446,1.498
			c1.921,0,3.209-1.424,3.209-3.615c0-2.25-1.288-3.613-3.164-3.613c-1.11,0-1.937,0.508-2.446,1.498v-5.908H220.234z
			 M211.954,483.725h1.138v-3.465c0-0.734,0-1.289,0.391-1.771c0.376-0.465,0.961-0.719,1.636-0.719c1.201,0,1.786,0.66,1.786,2.01
			v3.945h1.138v-4.561c0-1.516-0.958-2.383-2.519-2.383c-1.051,0-1.861,0.404-2.432,1.273v-1.033h-1.138V483.725z M208.189,473.795
			c0,0.48,0.375,0.84,0.839,0.84s0.839-0.359,0.839-0.824s-0.375-0.855-0.839-0.855S208.189,473.33,208.189,473.795
			 M208.459,483.725h1.138v-6.703h-1.138V483.725z M205.519,479.615h-4.082c0.12-1.141,0.946-1.846,2.041-1.846
			C204.694,477.77,205.444,478.43,205.519,479.615 M206.747,480.543v-0.223c0-2.221-1.258-3.555-3.224-3.555
			c-1.951,0-3.345,1.469-3.345,3.584c0,2.191,1.378,3.66,3.419,3.66c1.381,0,2.432-0.615,3.104-1.83l-0.868-0.584
			c-0.555,0.975-1.275,1.455-2.176,1.455c-1.29,0-2.222-0.945-2.222-2.402v-0.105H206.747z M185.869,473l4.155,11.145l2.789-8.295
			l2.805,8.295L199.773,473h-1.381l-2.729,7.891l-2.865-8.311l-2.834,8.311L187.249,473H185.869z M179.48,483.725h1.138v-4.561
			c0-1.516-0.899-2.383-2.384-2.383c-1.021,0-1.802,0.434-2.387,1.363c-0.39-0.9-1.169-1.363-2.249-1.363
			c-1.006,0-1.771,0.418-2.311,1.273v-1.033h-1.138v6.703h1.138v-3.465c0-0.164-0.015-0.33-0.015-0.48c0-0.51,0.06-0.93,0.345-1.291
			c0.359-0.465,0.915-0.719,1.531-0.719c1.14,0,1.666,0.66,1.666,2.01v3.945h1.138v-3.465c0-0.15-0.015-0.285-0.015-0.42
			c0-0.555,0.074-0.977,0.359-1.352c0.36-0.465,0.9-0.719,1.517-0.719c1.14,0,1.666,0.66,1.666,2.01V483.725z M162.363,480.395
			c0-1.424,1.08-2.535,2.431-2.535c1.335,0,2.416,1.111,2.416,2.535c0,1.426-1.081,2.537-2.416,2.537
			C163.458,482.932,162.363,481.82,162.363,480.395 M161.15,480.395c0,0.975,0.358,1.846,1.062,2.551
			c0.69,0.689,1.59,1.064,2.581,1.064c0.975,0,1.876-0.391,2.581-1.078c0.688-0.676,1.063-1.562,1.063-2.537
			s-0.375-1.875-1.063-2.551c-0.705-0.689-1.591-1.062-2.581-1.062c-0.991,0-1.891,0.359-2.581,1.047
			C161.509,478.52,161.15,479.42,161.15,480.395 M156.515,483.725h1.139v-3.27c0-1.756,0.6-2.627,1.814-2.627
			c0.21,0,0.45,0.045,0.705,0.137l0.39-1.033c-0.255-0.09-0.51-0.135-0.779-0.135c-1.021,0-1.65,0.479-2.25,1.617v-1.393h-1.019
			V483.725z M152.54,483.725h1.138v-5.76h1.785v-0.943h-1.785v-1.787c0-1.291,0.03-1.906,0.885-1.906c0.301,0,0.601,0.076,0.9,0.24
			v-1.182c-0.314-0.105-0.645-0.15-0.99-0.15c-1.604,0-1.933,0.838-1.933,2.848v1.938h-1.29v0.943h1.29V483.725z M144.515,480.41
			c0,1.59-0.87,2.49-2.251,2.49c-1.335,0-2.176-0.959-2.176-2.641c0-1.486,0.826-2.342,2.161-2.342
			C143.6,477.918,144.515,478.895,144.515,480.41 M145.623,472.371h-1.138v5.908c-0.511-0.99-1.335-1.498-2.446-1.498
			c-1.876,0-3.164,1.363-3.164,3.613c0,2.191,1.288,3.615,3.209,3.615c1.036,0,1.906-0.539,2.431-1.498v1.213h1.108V472.371z
			 M136.505,479.615h-4.082c0.12-1.141,0.946-1.846,2.041-1.846C135.68,477.77,136.43,478.43,136.505,479.615 M137.733,480.543
			v-0.223c0-2.221-1.259-3.555-3.225-3.555c-1.951,0-3.344,1.469-3.344,3.584c0,2.191,1.378,3.66,3.419,3.66
			c1.381,0,2.43-0.615,3.104-1.83l-0.867-0.584c-0.556,0.975-1.275,1.455-2.177,1.455c-1.29,0-2.221-0.945-2.221-2.402v-0.105
			H137.733z M128.12,477.965v5.76h1.139v-5.76h1.26v-0.943h-1.26v-2.701h-1.139v2.701h-1.23v0.943H128.12z M120.544,480.395
			c0-1.59,0.87-2.506,2.251-2.506c1.335,0,2.176,0.961,2.176,2.641c0,1.486-0.826,2.357-2.161,2.357
			C121.459,482.887,120.544,481.91,120.544,480.395 M119.436,486.979h1.139v-4.467c0.51,0.988,1.335,1.498,2.445,1.498
			c1.877,0,3.164-1.35,3.164-3.615c0-2.205-1.287-3.613-3.209-3.613c-1.035,0-1.921,0.523-2.445,1.498v-1.258h-1.094V486.979z
			 M116.106,480.439c0,1.547-0.842,2.432-2.191,2.432c-1.426,0-2.236-0.916-2.236-2.537c0-1.529,0.811-2.416,2.191-2.416
			C115.16,477.918,116.106,478.881,116.106,480.439 M117.214,477.021h-1.138v1.258c-0.51-0.99-1.336-1.498-2.461-1.498
			c-1.876,0-3.149,1.363-3.149,3.613c0,2.191,1.288,3.615,3.209,3.615c1.035,0,1.892-0.523,2.432-1.498v1.213h1.107V477.021z
			 M107.601,480.41c0,1.59-0.869,2.49-2.251,2.49c-1.336,0-2.176-0.959-2.176-2.641c0-1.486,0.825-2.342,2.161-2.342
			C106.686,477.918,107.601,478.895,107.601,480.41 M108.709,472.371h-1.138v5.908c-0.511-0.99-1.336-1.498-2.446-1.498
			c-1.876,0-3.164,1.363-3.164,3.613c0,2.191,1.288,3.615,3.209,3.615c1.035,0,1.906-0.539,2.431-1.498v1.213h1.108V472.371z
			 M96.68,475.4l1.71,3.945h-3.42L96.68,475.4z M96.68,472.58l-4.858,11.145h1.38l1.394-3.285h4.186l1.394,3.285h1.38L96.68,472.58z
			"/>
	</g>
</g>
</svg>
