<?xml version="1.0" encoding="utf-8"?>
<!-- Generator: Adobe Illustrator 15.1.0, SVG Export Plug-In . SVG Version: 6.00 Build 0)  -->
<!DOCTYPE svg PUBLIC "-//W3C//DTD SVG 1.1//EN" "http://www.w3.org/Graphics/SVG/1.1/DTD/svg11.dtd">
<svg version="1.1" id="art" xmlns="http://www.w3.org/2000/svg" xmlns:xlink="http://www.w3.org/1999/xlink" x="0px" y="0px"
	 width="912px" height="483px" viewBox="0 0 912 483" enable-background="new 0 0 912 483" xml:space="preserve">
<g>
	<defs>
		<rect id="SVGID_1_" x="-9" y="-1" width="930" height="480.252"/>
	</defs>
	<clipPath id="SVGID_2_">
		<use xlink:href="#SVGID_1_"  overflow="visible"/>
	</clipPath>
	<rect y="320" clip-path="url(#SVGID_2_)" fill="#F3E3D5" width="912" height="20"/>
	<rect clip-path="url(#SVGID_2_)" fill="#F3E3D5" width="912" height="40"/>
	<rect y="80" clip-path="url(#SVGID_2_)" fill="#F3E3D5" width="912" height="40"/>
	<rect y="160" clip-path="url(#SVGID_2_)" fill="#F3E3D5" width="912" height="40"/>
	<rect y="240" clip-path="url(#SVGID_2_)" fill="#F3E3D5" width="912" height="40"/>
	<line clip-path="url(#SVGID_2_)" fill="none" stroke="#D1D3D4" stroke-width="0.5" x1="112.25" y1="0" x2="112.25" y2="340"/>
	<line clip-path="url(#SVGID_2_)" fill="none" stroke="#D1D3D4" stroke-width="0.5" x1="800" y1="0" x2="800" y2="340"/>
	<line clip-path="url(#SVGID_2_)" fill="none" stroke="#6D6E71" stroke-dasharray="4,4" x1="456" y1="80" x2="456" y2="340"/>
	
		<line clip-path="url(#SVGID_2_)" fill="none" stroke="#6D6E71" stroke-dasharray="4,4" x1="628.125" y1="80" x2="628.125" y2="340"/>
	
		<line clip-path="url(#SVGID_2_)" fill="none" stroke="#6D6E71" stroke-dasharray="4,4" x1="284.375" y1="80" x2="284.375" y2="340"/>
	<g clip-path="url(#SVGID_2_)">
		<defs>
			<rect id="SVGID_3_" x="-9" y="-1" width="930" height="480.252"/>
		</defs>
		<clipPath id="SVGID_4_">
			<use xlink:href="#SVGID_3_"  overflow="visible"/>
		</clipPath>
		<g clip-path="url(#SVGID_4_)">
			<g>
				<defs>
					<rect id="SVGID_5_" x="65.592" y="53.168" width="34.656" height="13.984"/>
				</defs>
				<clipPath id="SVGID_6_">
					<use xlink:href="#SVGID_5_"  overflow="visible"/>
				</clipPath>
				<path clip-path="url(#SVGID_6_)" fill="#F9A25E" d="M87.296,66.024c2.4,0,3.952-2.128,3.952-5.936s-1.536-5.92-3.984-5.92
					c-2.384,0-3.951,2.144-3.951,5.92S84.88,66.024,87.296,66.024 M87.28,64.904c-1.584,0-2.561-1.728-2.561-4.832
					c0-3.088,0.977-4.8,2.561-4.8c1.664,0,2.56,1.648,2.56,4.832C89.84,63.272,88.944,64.904,87.28,64.904 M75.008,65.576
					l1.12,0.576l5.712-11.76h-7.248v1.184h5.296L75.008,65.576z"/>
			</g>
		</g>
		<g clip-path="url(#SVGID_4_)">
			<g>
				<defs>
					<rect id="SVGID_7_" x="64.936" y="133.168" width="35.312" height="13.856"/>
				</defs>
				<clipPath id="SVGID_8_">
					<use xlink:href="#SVGID_7_"  overflow="visible"/>
				</clipPath>
				<path clip-path="url(#SVGID_8_)" fill="#F9A25E" d="M87.296,146.024c2.4,0,3.952-2.128,3.952-5.936s-1.536-5.92-3.984-5.92
					c-2.384,0-3.951,2.144-3.951,5.92S84.88,146.024,87.296,146.024 M87.28,144.904c-1.584,0-2.561-1.728-2.561-4.832
					c0-3.088,0.977-4.8,2.561-4.8c1.664,0,2.56,1.648,2.56,4.832C89.84,143.272,88.944,144.904,87.28,144.904 M74.864,140.008
					c0.704-0.544,1.536-0.816,2.432-0.816c1.76,0,2.849,1.12,2.849,2.752c0,1.776-1.104,2.896-2.736,2.896
					c-1.12,0-2-0.56-2.512-1.616l-0.96,1.12c0.783,1.152,1.888,1.68,3.439,1.68c2.624,0,4.208-1.632,4.208-4.208
					c0-2.288-1.392-3.728-3.632-3.728c-0.64,0-1.232,0.128-1.776,0.416l0.721-2.944h4.096v-1.168h-5.024l-1.359,5.568
					L74.864,140.008z"/>
			</g>
		</g>
		<g clip-path="url(#SVGID_4_)">
			<g>
				<defs>
					<rect id="SVGID_9_" x="65.08" y="213.168" width="35.168" height="13.856"/>
				</defs>
				<clipPath id="SVGID_10_">
					<use xlink:href="#SVGID_9_"  overflow="visible"/>
				</clipPath>
				<path clip-path="url(#SVGID_10_)" fill="#F9A25E" d="M87.296,226.024c2.4,0,3.952-2.128,3.952-5.936s-1.536-5.92-3.984-5.92
					c-2.384,0-3.951,2.144-3.951,5.92S84.88,226.024,87.296,226.024 M87.28,224.904c-1.584,0-2.561-1.728-2.561-4.832
					c0-3.088,0.977-4.8,2.561-4.8c1.664,0,2.56,1.648,2.56,4.832C89.84,223.272,88.944,224.904,87.28,224.904 M74.08,222.824v0.208
					c0,1.808,1.344,2.992,3.472,2.992c2.433,0,3.841-1.28,3.841-3.328c0-1.552-0.816-2.592-2.177-2.816
					c1.28-0.336,2.032-1.312,2.032-2.672c0-1.856-1.296-3.04-3.424-3.04c-2.208,0-3.44,1.104-3.536,3.056h1.344
					c0.064-1.232,0.832-1.904,2.16-1.904c1.264,0,2.032,0.768,2.032,1.952c0,1.344-0.8,2.048-2.384,2.048
					c-0.128,0-0.24-0.016-0.368-0.016v1.12c0.144-0.016,0.271-0.016,0.399-0.016c1.648,0,2.496,0.768,2.496,2.24
					c0,1.392-0.848,2.208-2.368,2.208c-1.312,0-2.128-0.736-2.128-1.904v-0.128H74.08z"/>
			</g>
		</g>
		<g clip-path="url(#SVGID_4_)">
			<g>
				<defs>
					<rect id="SVGID_11_" x="66.232" y="293.168" width="34.016" height="13.855"/>
				</defs>
				<clipPath id="SVGID_12_">
					<use xlink:href="#SVGID_11_"  overflow="visible"/>
				</clipPath>
				<path clip-path="url(#SVGID_12_)" fill="#F9A25E" d="M87.296,306.024c2.4,0,3.952-2.128,3.952-5.937
					c0-3.808-1.536-5.92-3.984-5.92c-2.384,0-3.951,2.145-3.951,5.92C83.312,303.864,84.88,306.024,87.296,306.024 M87.28,304.904
					c-1.584,0-2.561-1.729-2.561-4.832c0-3.088,0.977-4.8,2.561-4.8c1.664,0,2.56,1.647,2.56,4.832
					C89.84,303.272,88.944,304.904,87.28,304.904 M77.568,305.721h1.328v-11.328H76l-0.768,1.184h2.336V305.721z"/>
			</g>
		</g>
		<g clip-path="url(#SVGID_4_)">
			<g>
				<defs>
					<rect id="SVGID_13_" x="65.08" y="13.168" width="35.168" height="13.856"/>
				</defs>
				<clipPath id="SVGID_14_">
					<use xlink:href="#SVGID_13_"  overflow="visible"/>
				</clipPath>
				<path clip-path="url(#SVGID_14_)" fill="#F9A25E" d="M87.296,26.024c2.4,0,3.952-2.128,3.952-5.936s-1.536-5.92-3.984-5.92
					c-2.384,0-3.951,2.144-3.951,5.92S84.88,26.024,87.296,26.024 M87.28,24.904c-1.584,0-2.561-1.728-2.561-4.832
					c0-3.088,0.977-4.8,2.561-4.8c1.664,0,2.56,1.648,2.56,4.832C89.84,23.272,88.944,24.904,87.28,24.904 M77.937,15.208
					c1.248,0,2.016,0.72,2.016,1.904c0,1.152-0.736,1.856-2.048,1.856c-1.28,0-2-0.72-2-1.856
					C75.904,15.944,76.672,15.208,77.937,15.208 M77.92,24.92c-1.536,0-2.399-0.88-2.399-2.304c0-1.44,0.896-2.352,2.399-2.352
					s2.4,0.896,2.4,2.352C80.32,24.041,79.456,24.92,77.92,24.92 M76.432,19.672c-1.504,0.416-2.352,1.536-2.352,3.04
					c0,1.984,1.424,3.312,3.856,3.312c2.447,0,3.84-1.296,3.84-3.344c0-1.472-0.849-2.576-2.353-3.008
					c1.232-0.368,1.937-1.296,1.937-2.528c0-1.776-1.296-2.976-3.424-2.976c-2.097,0-3.44,1.232-3.44,2.864
					C74.496,18.393,75.152,19.272,76.432,19.672"/>
			</g>
		</g>
		<g clip-path="url(#SVGID_4_)">
			<g>
				<defs>
					<rect id="SVGID_15_" x="65.128" y="92.832" width="35.12" height="14.192"/>
				</defs>
				<clipPath id="SVGID_16_">
					<use xlink:href="#SVGID_15_"  overflow="visible"/>
				</clipPath>
				<path clip-path="url(#SVGID_16_)" fill="#F9A25E" d="M87.296,106.024c2.4,0,3.952-2.128,3.952-5.936s-1.536-5.92-3.984-5.92
					c-2.384,0-3.951,2.144-3.951,5.92S84.88,106.024,87.296,106.024 M87.28,104.904c-1.584,0-2.561-1.728-2.561-4.832
					c0-3.088,0.977-4.8,2.561-4.8c1.664,0,2.56,1.648,2.56,4.832C89.84,103.272,88.944,104.904,87.28,104.904 M75.536,102.393
					c0-1.504,0.928-2.544,2.288-2.544c1.52,0,2.432,0.976,2.432,2.528c0,1.52-0.943,2.512-2.352,2.512
					C76.464,104.888,75.536,103.944,75.536,102.393 M76.448,99.256l3.696-4.8l-1.185-0.624l-2.607,3.68
					c-1.265,1.792-2.225,3.12-2.225,4.768c0,2.24,1.408,3.744,3.504,3.744c2.496,0,4.032-1.488,4.032-3.776
					c0-2.096-1.408-3.536-3.456-3.536C77.568,98.712,77.008,98.888,76.448,99.256"/>
			</g>
		</g>
		<g clip-path="url(#SVGID_4_)">
			<g>
				<defs>
					<rect id="SVGID_17_" x="64.552" y="173.168" width="35.696" height="13.856"/>
				</defs>
				<clipPath id="SVGID_18_">
					<use xlink:href="#SVGID_17_"  overflow="visible"/>
				</clipPath>
				<path clip-path="url(#SVGID_18_)" fill="#F9A25E" d="M87.296,186.024c2.4,0,3.952-2.128,3.952-5.936s-1.536-5.92-3.984-5.92
					c-2.384,0-3.951,2.144-3.951,5.92S84.88,186.024,87.296,186.024 M87.28,184.904c-1.584,0-2.561-1.728-2.561-4.832
					c0-3.088,0.977-4.8,2.561-4.8c1.664,0,2.56,1.648,2.56,4.832C89.84,183.272,88.944,184.904,87.28,184.904 M78.912,185.72h1.344
					v-2.464H81.6v-1.104h-1.344v-7.984H79.68l-6.128,9.088h5.36V185.72z M78.912,182.152h-3.344l3.344-5.024V182.152z"/>
			</g>
		</g>
		<g clip-path="url(#SVGID_4_)">
			<g>
				<defs>
					<rect id="SVGID_19_" x="65.096" y="253.168" width="35.152" height="13.855"/>
				</defs>
				<clipPath id="SVGID_20_">
					<use xlink:href="#SVGID_19_"  overflow="visible"/>
				</clipPath>
				<path clip-path="url(#SVGID_20_)" fill="#F9A25E" d="M87.296,266.024c2.4,0,3.952-2.128,3.952-5.937
					c0-3.808-1.536-5.92-3.984-5.92c-2.384,0-3.951,2.145-3.951,5.92C83.312,263.864,84.88,266.024,87.296,266.024 M87.28,264.904
					c-1.584,0-2.561-1.729-2.561-4.832c0-3.088,0.977-4.8,2.561-4.8c1.664,0,2.56,1.647,2.56,4.832
					C89.84,263.272,88.944,264.904,87.28,264.904 M80.992,264.424h-4.336l1.792-1.936c1.84-2,2.896-3.504,2.896-5.152
					c0-1.968-1.312-3.168-3.552-3.168c-2.256,0-3.584,1.264-3.584,3.424c0,0.097,0.016,0.209,0.016,0.305h1.28v-0.128
					c0-1.521,0.8-2.353,2.24-2.353c1.376,0,2.256,0.848,2.256,2c0,1.488-1.424,3.008-3.488,5.44l-2.416,2.864h6.896V264.424z"/>
			</g>
		</g>
		<path clip-path="url(#SVGID_4_)" fill="#F9A25E" d="M47.072,95.043l0.432-0.832c-2.288-1.232-4.864-1.856-7.728-1.856
			c-2.96,0-5.504,0.576-7.76,1.856l0.384,0.832c2.272-1.152,4.64-1.648,7.376-1.648C42.592,93.396,44.96,93.892,47.072,95.043
			 M41.344,95.971c-1.888,0-2.96,0.88-2.96,2.336c0,1.456,1.072,2.352,2.96,2.352c1.888,0,2.96-0.896,2.96-2.352
			C44.304,96.852,43.232,95.971,41.344,95.971 M43.504,98.307c0,0.752-0.752,1.2-2.16,1.2c-1.408,0-2.16-0.448-2.16-1.2
			c0-0.784,0.72-1.2,2.16-1.2C42.752,97.107,43.504,97.555,43.504,98.307 M37.568,104.627c0,0.752-0.752,1.2-2.16,1.2
			c-1.408,0-2.176-0.448-2.176-1.2c0-0.784,0.736-1.2,2.176-1.2C36.816,103.427,37.568,103.875,37.568,104.627 M35.408,102.275
			c-1.888,0-2.96,0.896-2.96,2.352s1.072,2.352,2.96,2.352c1.888,0,2.944-0.896,2.944-2.352S37.296,102.275,35.408,102.275
			 M44.304,105.299v-0.976l-11.856-6.56v0.96L44.304,105.299z M47.072,107.971c-2.112,1.152-4.48,1.648-7.296,1.648
			c-2.736,0-5.104-0.496-7.376-1.648l-0.384,0.832c2.256,1.28,4.8,1.856,7.76,1.856c2.864,0,5.44-0.624,7.728-1.856L47.072,107.971z
			 M42.8,122.531c1.008-0.56,1.504-1.488,1.504-2.816c0-1.584-0.944-2.608-2.272-2.608c-1.168,0-1.68,0.688-2.128,2.08
			c-0.384,1.184-0.48,1.84-1.232,1.84c-0.624,0-1.072-0.496-1.072-1.216c0-0.752,0.368-1.344,1.024-1.632l-0.608-0.992
			c-0.912,0.384-1.424,1.312-1.424,2.544c0,1.52,0.912,2.528,2.16,2.528c1.408,0,1.712-1.056,2.32-2.816
			c0.256-0.752,0.544-1.12,1.088-1.12c0.624,0,1.072,0.528,1.072,1.344s-0.368,1.424-1.136,1.824L42.8,122.531z M44,127.299v-1.216
			h-3.488c-1.872,0-2.8-0.64-2.8-1.936c0-0.224,0.048-0.48,0.144-0.752l-1.104-0.416c-0.096,0.272-0.144,0.544-0.144,0.832
			c0,1.088,0.512,1.76,1.728,2.4h-1.488v1.088H44z M39.616,130.386v4.353c-1.216-0.129-1.968-1.008-1.968-2.177
			C37.648,131.267,38.352,130.466,39.616,130.386 M40.608,129.075h-0.24c-2.368,0-3.792,1.344-3.792,3.44
			c0,2.08,1.568,3.568,3.824,3.568c2.336,0,3.904-1.473,3.904-3.649c0-1.471-0.656-2.591-1.952-3.312l-0.624,0.928
			c1.04,0.593,1.552,1.361,1.552,2.321c0,1.376-1.008,2.368-2.56,2.368h-0.112V129.075z M40.464,139.059
			c1.696,0,2.656,0.928,2.656,2.4c0,1.424-1.024,2.32-2.816,2.32c-1.584,0-2.496-0.88-2.496-2.304
			C37.808,140.034,38.848,139.059,40.464,139.059 M31.888,137.875v1.216h6.304c-1.056,0.544-1.6,1.424-1.6,2.608
			c0,2,1.456,3.376,3.856,3.376c2.336,0,3.856-1.376,3.856-3.424c0-1.104-0.576-2.032-1.6-2.592H44v-1.184H31.888z M44,153.362
			v-1.216h-3.696c-0.784,0-1.376,0-1.888-0.416c-0.496-0.4-0.768-1.024-0.768-1.744c0-1.28,0.704-1.904,2.144-1.904H44v-1.216
			h-4.864c-1.616,0-2.544,1.024-2.544,2.688c0,1.12,0.432,1.984,1.36,2.592h-1.104v1.216H44z M40.448,161.667
			c-1.52,0-2.704-1.152-2.704-2.592c0-1.424,1.184-2.576,2.704-2.576c1.52,0,2.704,1.152,2.704,2.576
			C43.152,160.499,41.968,161.667,40.448,161.667 M40.448,162.962c1.04,0,1.968-0.384,2.72-1.136
			c0.736-0.736,1.136-1.696,1.136-2.752c0-1.04-0.416-2-1.152-2.752c-0.72-0.736-1.664-1.136-2.704-1.136c-1.04,0-2,0.4-2.72,1.136
			c-0.736,0.752-1.136,1.696-1.136,2.752c0,1.056,0.384,2.016,1.12,2.752C38.448,162.578,39.408,162.962,40.448,162.962
			 M40.448,170.274c-1.696,0-2.672-0.928-2.672-2.4c0-1.424,1.024-2.32,2.816-2.32c1.584,0,2.512,0.88,2.512,2.304
			C43.104,169.298,42.064,170.274,40.448,170.274 M47.488,171.458v-1.216h-4.784c1.056-0.544,1.6-1.424,1.6-2.608
			c0-2-1.44-3.376-3.856-3.376c-2.352,0-3.856,1.376-3.856,3.424c0,1.104,0.56,2.048,1.6,2.608h-1.344v1.168H47.488z M42.8,178.643
			c1.008-0.56,1.504-1.488,1.504-2.816c0-1.584-0.944-2.608-2.272-2.608c-1.168,0-1.68,0.688-2.128,2.08
			c-0.384,1.184-0.48,1.84-1.232,1.84c-0.624,0-1.072-0.496-1.072-1.216c0-0.752,0.368-1.344,1.024-1.632l-0.608-0.992
			c-0.912,0.384-1.424,1.312-1.424,2.544c0,1.52,0.912,2.528,2.16,2.528c1.408,0,1.712-1.056,2.32-2.816
			c0.256-0.752,0.544-1.12,1.088-1.12c0.624,0,1.072,0.528,1.072,1.344s-0.368,1.424-1.136,1.824L42.8,178.643z M39.616,180.962
			v4.352c-1.216-0.128-1.968-1.008-1.968-2.176C37.648,181.842,38.352,181.042,39.616,180.962 M40.608,179.65h-0.24
			c-2.368,0-3.792,1.344-3.792,3.44c0,2.08,1.568,3.568,3.824,3.568c2.336,0,3.904-1.472,3.904-3.648
			c0-1.472-0.656-2.592-1.952-3.312l-0.624,0.928c1.04,0.592,1.552,1.36,1.552,2.32c0,1.376-1.008,2.368-2.56,2.368h-0.112V179.65z
			 M44,194.385v-1.359h-5.456v-0.161L44,188.69v-1.729l-5.456,4.368v-0.24c0-2.016-0.992-3.088-2.864-3.088
			c-1.12,0-2.032,0.416-2.544,1.072c-0.544,0.704-0.576,1.536-0.576,2.624v2.688H44z M33.712,193.026v-1.008
			c0-1.809,0.32-2.673,1.984-2.673c1.584,0,1.84,0.88,1.84,2.673v1.008H33.712z M44.304,205.025c0-2.4-2.128-3.952-5.936-3.952
			c-3.808,0-5.92,1.536-5.92,3.984c0,2.384,2.144,3.952,5.92,3.952C42.144,209.009,44.304,207.441,44.304,205.025 M43.184,205.042
			c0,1.584-1.728,2.56-4.832,2.56c-3.088,0-4.8-0.976-4.8-2.56c0-1.664,1.648-2.56,4.832-2.56
			C41.552,202.481,43.184,203.377,43.184,205.042 M42.704,211.329v4.336l-1.936-1.792c-2-1.84-3.504-2.896-5.152-2.896
			c-1.968,0-3.168,1.312-3.168,3.552c0,2.256,1.264,3.584,3.424,3.584c0.096,0,0.208-0.016,0.304-0.016v-1.28h-0.128
			c-1.52,0-2.352-0.8-2.352-2.24c0-1.376,0.848-2.256,2-2.256c1.488,0,3.008,1.424,5.44,3.488L44,218.226v-6.896H42.704z
			 M44,226.226v-1.36h-5.456v-0.16L44,220.529v-1.728l-5.456,4.368v-0.24c0-2.016-0.992-3.088-2.864-3.088
			c-1.12,0-2.032,0.416-2.544,1.072c-0.544,0.704-0.576,1.536-0.576,2.624v2.688H44z M33.712,224.865v-1.008
			c0-1.808,0.32-2.672,1.984-2.672c1.584,0,1.84,0.88,1.84,2.672v1.008H33.712z M35.296,228.465H33.52
			c-0.816,1.184-1.232,2.4-1.232,3.76c0,1.68,0.56,3.088,1.68,4.256c1.168,1.2,2.592,1.792,4.368,1.792
			c2.032,0,3.76-0.912,4.912-2.576c0.688-0.992,1.056-2.16,1.056-3.376c0-1.392-0.432-2.72-1.248-3.856h-1.808
			c1.216,1.04,1.808,2.304,1.808,3.744c0,1.552-0.736,2.944-2.032,3.856c-0.752,0.528-1.648,0.784-2.704,0.784
			c-1.344,0-2.464-0.432-3.376-1.312c-0.88-0.848-1.392-2.064-1.392-3.264C33.552,230.785,34.096,229.569,35.296,228.465
			 M35.12,244.049l4.208-1.823v3.647L35.12,244.049z M32.112,244.049L44,249.233v-1.472l-3.504-1.488v-4.464L44,240.321v-1.472
			L32.112,244.049z"/>
	</g>
	<rect x="121.826" y="130.4" clip-path="url(#SVGID_2_)" fill="#FCD1AE" width="71" height="209.6"/>
	<rect x="293.826" y="117.2" clip-path="url(#SVGID_2_)" fill="#FCD1AE" width="71" height="222.8"/>
	<rect x="465.763" y="113.6" clip-path="url(#SVGID_2_)" fill="#FCD1AE" width="71" height="226.4"/>
	<rect x="637.701" y="159.2" clip-path="url(#SVGID_2_)" fill="#FCD1AE" width="71" height="180.8"/>
	<rect x="203.112" y="231.6" clip-path="url(#SVGID_2_)" fill="#D1D3D4" width="71" height="108.4"/>
	<rect x="374.987" y="286.8" clip-path="url(#SVGID_2_)" fill="#D1D3D4" width="71" height="53.2"/>
	<rect x="546.924" y="216.8" clip-path="url(#SVGID_2_)" fill="#D1D3D4" width="71" height="123.2"/>
	<rect x="718.862" y="190" clip-path="url(#SVGID_2_)" fill="#D1D3D4" width="71" height="150"/>
	<line clip-path="url(#SVGID_2_)" fill="none" stroke="#F9A25E" stroke-width="3" x1="0" y1="340" x2="912" y2="340"/>
	<g clip-path="url(#SVGID_2_)">
		<defs>
			<rect id="SVGID_21_" x="-9" y="-1" width="930" height="480.252"/>
		</defs>
		<clipPath id="SVGID_22_">
			<use xlink:href="#SVGID_21_"  overflow="visible"/>
		</clipPath>
		<g clip-path="url(#SVGID_22_)">
			<g>
				<defs>
					<rect id="SVGID_23_" x="126.073" y="226.181" width="62.132" height="18.301"/>
				</defs>
				<clipPath id="SVGID_24_">
					<use xlink:href="#SVGID_23_"  overflow="visible"/>
				</clipPath>
				<path clip-path="url(#SVGID_24_)" fill="#F9A25E" d="M175.024,232.439c-0.066,0.902-0.066,1.43-0.066,1.562v4.092h-3.938
					L175.024,232.439z M174.958,243.065h2.332v-3.19h1.914v-1.782h-1.914v-10.912h-0.726l-9.152,12.694h7.546V243.065z
					 M162.507,241.877c0,0.771,0.615,1.387,1.407,1.387s1.408-0.616,1.408-1.387c0-0.791-0.616-1.43-1.408-1.43
					S162.507,241.086,162.507,241.877 M158.415,241.02h-5.983l2.002-2.31c2.397-2.75,3.96-4.708,3.96-7.172
					c0-2.684-1.87-4.356-4.906-4.356c-3.212,0-5.236,1.826-5.236,4.642h2.464c0.11-1.474,1.122-2.442,2.553-2.442
					c1.628,0,2.596,0.968,2.596,2.508c0,1.144-0.726,2.464-2.112,4.136l-5.874,7.04h10.538V241.02z M136.768,239.303l-1.694,1.871
					c1.166,1.584,2.75,2.31,4.906,2.31c3.74,0,6.05-2.31,6.05-5.786c0-3.08-2.068-5.192-5.06-5.192
					c-0.814,0-1.606,0.176-2.442,0.528l0.924-3.476h5.896v-2.068h-7.437l-1.958,7.986l0.638,0.132
					c0.858-0.88,2.003-1.342,3.322-1.342c2.2,0,3.674,1.452,3.674,3.52c0,2.178-1.43,3.608-3.498,3.608
					C138.703,241.394,137.516,240.668,136.768,239.303"/>
			</g>
		</g>
		<g clip-path="url(#SVGID_22_)">
			<g>
				<defs>
					<rect id="SVGID_25_" x="298.073" y="219.889" width="62.506" height="18.17"/>
				</defs>
				<clipPath id="SVGID_26_">
					<use xlink:href="#SVGID_25_"  overflow="visible"/>
				</clipPath>
				<path clip-path="url(#SVGID_26_)" fill="#F9A25E" d="M341.59,236.135l2.068,0.924l7.92-16.17h-10.846v2.024h7.282
					L341.59,236.135z M334.507,235.277c0,0.77,0.615,1.386,1.407,1.386s1.408-0.616,1.408-1.386c0-0.792-0.616-1.43-1.408-1.43
					S334.507,234.485,334.507,235.277 M321.945,232.703l-1.694,1.87c1.166,1.584,2.75,2.31,4.906,2.31c3.74,0,6.05-2.31,6.05-5.786
					c0-3.08-2.067-5.192-5.06-5.192c-0.814,0-1.606,0.176-2.442,0.528l0.924-3.476h5.896v-2.068h-7.437l-1.958,7.986l0.639,0.132
					c0.857-0.88,2.002-1.342,3.321-1.342c2.2,0,3.675,1.452,3.675,3.52c0,2.178-1.431,3.608-3.498,3.608
					C323.881,234.793,322.693,234.067,321.945,232.703 M308.768,232.703l-1.694,1.87c1.166,1.584,2.75,2.31,4.906,2.31
					c3.74,0,6.05-2.31,6.05-5.786c0-3.08-2.068-5.192-5.06-5.192c-0.814,0-1.606,0.176-2.442,0.528l0.924-3.476h5.896v-2.068h-7.437
					l-1.958,7.986l0.638,0.132c0.858-0.88,2.003-1.342,3.322-1.342c2.2,0,3.674,1.452,3.674,3.52c0,2.178-1.43,3.608-3.498,3.608
					C310.703,234.793,309.516,234.067,308.768,232.703"/>
			</g>
		</g>
		<g clip-path="url(#SVGID_22_)">
			<g>
				<defs>
					<rect id="SVGID_27_" x="470.011" y="217.187" width="62.021" height="18.896"/>
				</defs>
				<clipPath id="SVGID_28_">
					<use xlink:href="#SVGID_27_"  overflow="visible"/>
				</clipPath>
				<path clip-path="url(#SVGID_28_)" fill="#F9A25E" d="M514.716,229.847c0-1.87,1.166-3.146,2.838-3.146
					c1.892,0,2.992,1.188,2.992,3.146c0,1.914-1.122,3.124-3.014,3.124C515.903,232.971,514.716,231.761,514.716,229.847
					 M516.146,225.117l4.555-5.94l-1.958-0.99l-2.75,3.894c-2.112,2.97-3.719,5.104-3.719,7.744c0,3.124,2.046,5.258,5.192,5.258
					c3.344,0,5.566-2.156,5.566-5.39c0-3.014-2.068-5.082-4.841-5.082C517.51,224.611,516.828,224.787,516.146,225.117
					 M506.444,233.478c0,0.77,0.615,1.386,1.408,1.386c0.792,0,1.407-0.616,1.407-1.386c0-0.792-0.615-1.43-1.407-1.43
					C507.06,232.047,506.444,232.686,506.444,233.478 M495.005,229.847c0-1.87,1.166-3.146,2.838-3.146
					c1.892,0,2.992,1.188,2.992,3.146c0,1.914-1.122,3.124-3.015,3.124C496.192,232.971,495.005,231.761,495.005,229.847
					 M496.435,225.117l4.555-5.94l-1.958-0.99l-2.75,3.894c-2.112,2.97-3.719,5.104-3.719,7.744c0,3.124,2.046,5.258,5.192,5.258
					c3.344,0,5.565-2.156,5.565-5.39c0-3.014-2.067-5.082-4.84-5.082C497.799,224.611,497.117,224.787,496.435,225.117
					 M480.705,230.903l-1.694,1.87c1.166,1.584,2.75,2.31,4.906,2.31c3.74,0,6.05-2.31,6.05-5.786c0-3.08-2.068-5.192-5.06-5.192
					c-0.814,0-1.606,0.176-2.442,0.528l0.924-3.476h5.896v-2.068h-7.437l-1.958,7.986l0.638,0.132
					c0.858-0.88,2.003-1.342,3.322-1.342c2.2,0,3.674,1.452,3.674,3.52c0,2.178-1.43,3.608-3.498,3.608
					C482.641,232.993,481.453,232.268,480.705,230.903"/>
			</g>
		</g>
		<g clip-path="url(#SVGID_22_)">
			<g>
				<defs>
					<rect id="SVGID_29_" x="641.398" y="240.581" width="61.604" height="18.302"/>
				</defs>
				<clipPath id="SVGID_30_">
					<use xlink:href="#SVGID_29_"  overflow="visible"/>
				</clipPath>
				<path clip-path="url(#SVGID_30_)" fill="#F9A25E" d="M694.001,255.42h-5.983l2.002-2.311c2.397-2.75,3.96-4.708,3.96-7.172
					c0-2.684-1.87-4.355-4.906-4.355c-3.212,0-5.236,1.825-5.236,4.641h2.464c0.11-1.473,1.122-2.441,2.553-2.441
					c1.628,0,2.596,0.969,2.596,2.508c0,1.145-0.726,2.465-2.112,4.137l-5.874,7.039h10.538V255.42z M678.382,256.277
					c0,0.77,0.615,1.387,1.408,1.387c0.792,0,1.407-0.617,1.407-1.387c0-0.792-0.615-1.43-1.407-1.43
					C678.997,254.848,678.382,255.485,678.382,256.277 M665.82,253.703l-1.694,1.87c1.166,1.584,2.75,2.31,4.906,2.31
					c3.74,0,6.05-2.31,6.05-5.785c0-3.08-2.067-5.192-5.06-5.192c-0.814,0-1.606,0.177-2.442,0.528l0.924-3.477h5.896v-2.068h-7.437
					l-1.958,7.986l0.639,0.133c0.857-0.881,2.002-1.342,3.321-1.342c2.2,0,3.675,1.451,3.675,3.52c0,2.178-1.431,3.607-3.498,3.607
					C667.756,255.793,666.568,255.067,665.82,253.703 M658.01,246.84c-0.065,0.901-0.065,1.43-0.065,1.562v4.092h-3.938
					L658.01,246.84z M657.944,257.465h2.332v-3.189h1.914v-1.782h-1.914v-10.911h-0.727l-9.151,12.693h7.546V257.465z"/>
			</g>
		</g>
		<g clip-path="url(#SVGID_22_)">
			<g>
				<defs>
					<rect id="SVGID_31_" x="206.985" y="276.781" width="58.566" height="18.478"/>
				</defs>
				<clipPath id="SVGID_32_">
					<use xlink:href="#SVGID_31_"  overflow="visible"/>
				</clipPath>
				<path clip-path="url(#SVGID_32_)" fill="#808285" d="M254.22,293.666h2.332V278.09h-4.598l-0.99,2.023h3.256V293.666z
					 M243.793,292.478c0,0.771,0.616,1.386,1.408,1.386s1.408-0.615,1.408-1.386c0-0.792-0.616-1.431-1.408-1.431
					S243.793,291.686,243.793,292.478 M231.165,293.336l2.068,0.924l7.92-16.17h-10.846v2.023h7.281L231.165,293.336z
					 M226.523,291.619h-5.984l2.002-2.31c2.398-2.75,3.96-4.708,3.96-7.173c0-2.684-1.87-4.355-4.906-4.355
					c-3.212,0-5.235,1.826-5.235,4.643h2.464c0.11-1.475,1.122-2.442,2.552-2.442c1.628,0,2.596,0.968,2.596,2.508
					c0,1.144-0.726,2.464-2.111,4.136l-5.874,7.041h10.538V291.619z"/>
			</g>
		</g>
		<g clip-path="url(#SVGID_22_)">
			<g>
				<defs>
					<rect id="SVGID_33_" x="380.95" y="304.381" width="59.887" height="18.303"/>
				</defs>
				<clipPath id="SVGID_34_">
					<use xlink:href="#SVGID_33_"  overflow="visible"/>
				</clipPath>
				<path clip-path="url(#SVGID_34_)" fill="#808285" d="M421.299,317.063c0.088,2.838,2.091,4.62,5.104,4.62
					c3.41,0,5.434-1.826,5.434-4.555c0-2.31-1.078-3.718-3.058-4.069c1.716-0.265,2.706-1.584,2.706-3.498
					c0-2.552-1.782-4.181-4.687-4.181c-3.014,0-4.708,1.496-4.861,4.158h2.31c0.044-1.342,0.946-2.111,2.486-2.111
					c1.43,0,2.354,0.857,2.354,2.199c0,1.541-0.968,2.311-2.815,2.311c-0.154,0-0.309-0.021-0.462-0.021v2.067
					c0.176,0,0.33-0.022,0.483-0.022c2.112,0,3.19,0.946,3.19,2.838c0,1.783-1.078,2.772-2.992,2.772
					c-1.694,0-2.75-0.946-2.75-2.376v-0.132H421.299z M415.668,320.077c0,0.771,0.616,1.386,1.408,1.386
					c0.791,0,1.407-0.615,1.407-1.386c0-0.792-0.616-1.43-1.407-1.43C416.284,318.647,415.668,319.285,415.668,320.077
					 M401.588,317.063c0.088,2.838,2.09,4.62,5.104,4.62c3.41,0,5.434-1.826,5.434-4.555c0-2.31-1.078-3.718-3.058-4.069
					c1.716-0.265,2.706-1.584,2.706-3.498c0-2.552-1.782-4.181-4.687-4.181c-3.014,0-4.708,1.496-4.861,4.158h2.31
					c0.044-1.342,0.946-2.111,2.486-2.111c1.43,0,2.354,0.857,2.354,2.199c0,1.541-0.968,2.311-2.815,2.311
					c-0.154,0-0.309-0.021-0.462-0.021v2.067c0.176,0,0.329-0.022,0.483-0.022c2.112,0,3.19,0.946,3.19,2.838
					c0,1.783-1.078,2.772-2.992,2.772c-1.694,0-2.75-0.946-2.75-2.376v-0.132H401.588z M393.206,321.266h2.332v-15.576h-4.598
					l-0.99,2.023h3.256V321.266z"/>
			</g>
		</g>
		<g clip-path="url(#SVGID_22_)">
			<g>
				<defs>
					<rect id="SVGID_35_" x="551.348" y="269.381" width="61.911" height="18.303"/>
				</defs>
				<clipPath id="SVGID_36_">
					<use xlink:href="#SVGID_35_"  overflow="visible"/>
				</clipPath>
				<path clip-path="url(#SVGID_36_)" fill="#808285" d="M596.251,277.949c-1.782,0.572-2.794,2.09-2.794,4.137
					c0,2.771,1.958,4.598,5.39,4.598c3.454,0,5.412-1.805,5.412-4.643c0-1.979-1.056-3.52-2.794-4.092
					c1.474-0.572,2.266-1.693,2.266-3.256c0-2.574-1.848-4.312-4.884-4.312c-2.992,0-4.862,1.738-4.862,4.203
					C593.984,276.233,594.711,277.289,596.251,277.949 M598.891,272.449c1.474,0,2.332,0.836,2.332,2.178
					c0,1.299-0.836,2.112-2.376,2.112c-1.496,0-2.354-0.813-2.354-2.112C596.492,273.307,597.395,272.449,598.891,272.449
					 M598.847,284.594c-1.87,0-2.926-1.057-2.926-2.729c0-1.693,1.1-2.75,2.926-2.75c1.848,0,2.948,1.034,2.948,2.75
					C601.795,283.537,600.717,284.594,598.847,284.594 M587.605,285.077c0,0.771,0.615,1.386,1.408,1.386
					c0.792,0,1.407-0.615,1.407-1.386c0-0.792-0.615-1.43-1.407-1.43C588.221,283.647,587.605,284.285,587.605,285.077
					 M584.812,278.697c0-5.412-2.067-8.316-5.632-8.316c-3.52,0-5.676,2.949-5.676,8.141c0,5.236,2.134,8.162,5.654,8.162
					C582.634,286.684,584.812,283.758,584.812,278.697 M579.113,284.483c-1.936,0-3.058-2.067-3.058-5.94
					c0-3.959,1.078-5.983,3.146-5.983c1.98,0,3.059,2.046,3.059,5.94C582.26,282.481,581.204,284.483,579.113,284.483
					 M560.348,282.063c0.088,2.838,2.09,4.62,5.104,4.62c3.41,0,5.435-1.826,5.435-4.555c0-2.31-1.078-3.718-3.058-4.069
					c1.716-0.265,2.705-1.584,2.705-3.498c0-2.552-1.781-4.181-4.686-4.181c-3.014,0-4.708,1.496-4.862,4.158h2.311
					c0.044-1.342,0.946-2.111,2.485-2.111c1.431,0,2.354,0.857,2.354,2.199c0,1.541-0.968,2.311-2.816,2.311
					c-0.153,0-0.308-0.021-0.462-0.021v2.067c0.176,0,0.33-0.022,0.484-0.022c2.112,0,3.189,0.946,3.189,2.838
					c0,1.783-1.077,2.772-2.991,2.772c-1.694,0-2.75-0.946-2.75-2.376v-0.132H560.348z"/>
			</g>
		</g>
		<g clip-path="url(#SVGID_22_)">
			<g>
				<defs>
					<rect id="SVGID_37_" x="723.285" y="255.98" width="61.669" height="18.479"/>
				</defs>
				<clipPath id="SVGID_38_">
					<use xlink:href="#SVGID_37_"  overflow="visible"/>
				</clipPath>
				<path clip-path="url(#SVGID_38_)" fill="#808285" d="M766.692,269.104l-1.694,1.869c1.166,1.585,2.75,2.311,4.906,2.311
					c3.74,0,6.05-2.311,6.05-5.785c0-3.08-2.068-5.193-5.06-5.193c-0.814,0-1.606,0.177-2.442,0.529l0.924-3.477h5.896v-2.068
					h-7.437l-1.958,7.986l0.639,0.132c0.857-0.88,2.002-1.342,3.321-1.342c2.2,0,3.674,1.452,3.674,3.521
					c0,2.178-1.43,3.607-3.498,3.607C768.628,271.193,767.44,270.467,766.692,269.104 M759.543,271.678
					c0,0.77,0.615,1.386,1.408,1.386c0.792,0,1.407-0.616,1.407-1.386c0-0.793-0.615-1.43-1.407-1.43
					C760.158,270.248,759.543,270.885,759.543,271.678 M746.915,272.535l2.068,0.924l7.92-16.17h-10.846v2.024h7.281
					L746.915,272.535z M732.285,268.664c0.088,2.838,2.09,4.619,5.104,4.619c3.41,0,5.435-1.826,5.435-4.554
					c0-2.31-1.078-3.718-3.058-4.07c1.716-0.264,2.705-1.584,2.705-3.498c0-2.552-1.781-4.18-4.686-4.18
					c-3.014,0-4.708,1.496-4.862,4.157h2.311c0.044-1.342,0.946-2.111,2.485-2.111c1.431,0,2.354,0.857,2.354,2.2
					c0,1.54-0.968,2.31-2.816,2.31c-0.153,0-0.308-0.021-0.462-0.021v2.068c0.176,0,0.33-0.022,0.484-0.022
					c2.112,0,3.189,0.946,3.189,2.838c0,1.782-1.077,2.772-2.991,2.772c-1.694,0-2.75-0.946-2.75-2.377v-0.131H732.285z"/>
			</g>
		</g>
		<path clip-path="url(#SVGID_22_)" fill="#808285" d="M177.374,387.44h1.328v-11.328h-2.896l-0.768,1.185h2.336V387.44z
			 M164.526,384.545v0.207c0,1.809,1.344,2.992,3.472,2.992c2.432,0,3.84-1.279,3.84-3.328c0-1.552-0.815-2.592-2.176-2.815
			c1.28-0.337,2.032-1.312,2.032-2.673c0-1.855-1.296-3.039-3.425-3.039c-2.208,0-3.439,1.104-3.535,3.056h1.344
			c0.063-1.231,0.832-1.903,2.16-1.903c1.264,0,2.031,0.768,2.031,1.951c0,1.344-0.8,2.049-2.384,2.049
			c-0.128,0-0.239-0.017-0.368-0.017v1.12c0.145-0.016,0.272-0.016,0.4-0.016c1.648,0,2.496,0.768,2.496,2.239
			c0,1.392-0.848,2.208-2.368,2.208c-1.312,0-2.128-0.736-2.128-1.904v-0.127H164.526z M155.95,381.729
			c0.704-0.544,1.536-0.816,2.432-0.816c1.76,0,2.849,1.12,2.849,2.752c0,1.776-1.104,2.896-2.736,2.896
			c-1.12,0-2-0.561-2.512-1.616l-0.96,1.12c0.783,1.152,1.888,1.68,3.439,1.68c2.624,0,4.208-1.632,4.208-4.208
			c0-2.288-1.392-3.728-3.632-3.728c-0.64,0-1.232,0.128-1.776,0.416l0.721-2.944h4.096v-1.168h-5.024l-1.359,5.567L155.95,381.729z
			 M152.382,383.713h-9.359v0.912h9.359V383.713z M152.382,380.721h-9.359v0.912h9.359V380.721z M133.454,387.44h1.216v-3.696
			c0-0.783,0-1.376,0.416-1.888c0.4-0.496,1.024-0.769,1.744-0.769c1.28,0,1.904,0.705,1.904,2.145v4.208h1.216v-4.864
			c0-1.615-1.024-2.544-2.688-2.544c-1.12,0-1.983,0.433-2.592,1.36v-1.104h-1.216V387.44z"/>
		<path clip-path="url(#SVGID_22_)" fill="#F9A25E" d="M185.221,362.34h1.163l2.004-3.695l2.111,3.695h1.199l-2.734-4.464
			l2.435-4.115h-1.164l-1.774,3.263l-1.836-3.263H185.4l2.459,4.019L185.221,362.34z M181.801,362.34h1.018v-7.607h2.424v-0.972
			h-5.865v0.972h2.424V362.34z M174.3,362.676l2.651-6.168l1.092,5.832h0.996l-1.739-8.915l-3,7.093l-3-7.093l-1.739,8.915h0.996
			l1.079-5.832L174.3,362.676z M164.687,355.189h-0.694v3.228h-3.168v0.683h3.168v3.24h0.694v-3.24h3.156v-0.683h-3.156V355.189z
			 M157.608,359.713c0,1.236-0.672,1.943-1.753,1.943c-1.14,0-1.788-0.731-1.788-2.028c0-1.224,0.648-1.933,1.752-1.933
			C156.853,357.695,157.608,358.464,157.608,359.713 M158.495,356.977h-0.91v1.008c-0.408-0.793-1.068-1.199-1.97-1.199
			c-1.5,0-2.519,1.091-2.519,2.892c0,1.752,1.031,2.892,2.567,2.892c0.828,0,1.513-0.42,1.944-1.199v0.971h0.887V356.977z
			 M150.492,354.396c0,0.383,0.301,0.672,0.672,0.672s0.672-0.289,0.672-0.66s-0.301-0.684-0.672-0.684
			S150.492,354.025,150.492,354.396 M150.709,362.34h0.909v-5.363h-0.909V362.34z M144.793,362.34h4.667v-0.803h-3.048l3.071-4.561
			h-4.499v0.803h2.879L144.793,362.34z M142.896,362.34h0.911v-3.648c0-1.211-0.719-1.906-1.907-1.906
			c-0.816,0-1.44,0.348-1.909,1.091c-0.312-0.72-0.935-1.091-1.799-1.091c-0.805,0-1.417,0.336-1.849,1.019v-0.827h-0.911v5.363
			h0.911v-2.771c0-0.133-0.012-0.265-0.012-0.385c0-0.408,0.048-0.744,0.275-1.031c0.288-0.373,0.732-0.576,1.226-0.576
			c0.911,0,1.332,0.527,1.332,1.607v3.156h0.91v-2.771c0-0.121-0.012-0.229-0.012-0.336c0-0.444,0.061-0.781,0.288-1.08
			c0.288-0.373,0.72-0.576,1.213-0.576c0.912,0,1.332,0.527,1.332,1.607V362.34z M132.421,354.396c0,0.383,0.3,0.672,0.672,0.672
			c0.371,0,0.671-0.289,0.671-0.66s-0.3-0.684-0.671-0.684C132.721,353.725,132.421,354.025,132.421,354.396 M132.637,362.34h0.911
			v-5.363h-0.911V362.34z M131.004,355.812v-1.332c-0.889-0.611-1.801-0.924-2.82-0.924c-1.26,0-2.316,0.42-3.192,1.26
			c-0.898,0.875-1.342,1.943-1.342,3.275c0,1.525,0.684,2.821,1.931,3.686c0.743,0.515,1.619,0.791,2.531,0.791
			c1.044,0,2.04-0.324,2.893-0.936v-1.355c-0.78,0.912-1.729,1.355-2.809,1.355c-1.164,0-2.208-0.552-2.892-1.523
			c-0.396-0.564-0.588-1.236-0.588-2.029c0-1.008,0.324-1.848,0.983-2.532c0.637-0.66,1.549-1.044,2.448-1.044
			C129.264,354.504,130.176,354.912,131.004,355.812"/>
		<path clip-path="url(#SVGID_22_)" fill="#808285" d="M347.225,379.521c0,1.504-0.943,2.528-2.304,2.528
			c-1.52,0-2.416-0.977-2.416-2.528c0-1.521,0.944-2.513,2.353-2.513C346.297,377.008,347.225,377.969,347.225,379.521
			 M346.312,382.641l-3.695,4.816l1.184,0.607l2.608-3.68c1.264-1.793,2.208-3.104,2.208-4.752c0-2.24-1.408-3.744-3.504-3.744
			c-2.496,0-4.017,1.472-4.017,3.76c0,2.096,1.408,3.536,3.456,3.536C345.193,383.185,345.753,383.008,346.312,382.641
			 M332.649,387.297l1.119,0.576l5.713-11.761h-7.248v1.185h5.296L332.649,387.297z M328.937,383.713h-9.359v0.912h9.359V383.713z
			 M328.937,380.721h-9.359v0.912h9.359V380.721z M310.009,387.44h1.216v-3.696c0-0.783,0-1.376,0.416-1.888
			c0.4-0.496,1.024-0.769,1.744-0.769c1.28,0,1.904,0.705,1.904,2.145v4.208h1.216v-4.864c0-1.615-1.023-2.544-2.688-2.544
			c-1.12,0-1.984,0.433-2.593,1.36v-1.104h-1.216V387.44z"/>
		<path clip-path="url(#SVGID_22_)" fill="#F9A25E" d="M357.413,362.34h1.019v-4.236h3.504v-0.947h-3.504v-2.461h3.504v-0.935
			h-4.522V362.34z M351.222,362.34h4.521v-0.947h-3.504v-3.289h3.504v-0.947h-3.504v-2.461h3.504v-0.935h-4.521V362.34z
			 M345.81,362.34h4.258v-0.971h-3.24v-7.608h-1.018V362.34z M340.191,355.189h-0.694v3.228h-3.168v0.683h3.168v3.24h0.694v-3.24
			h3.156v-0.683h-3.156V355.189z M331.145,355.68l1.368,3.157h-2.736L331.145,355.68z M331.145,353.425l-3.887,8.915h1.104
			l1.116-2.628h3.347l1.116,2.628h1.104L331.145,353.425z M325.397,362.34h1.019v-8.579h-1.019V362.34z M317.562,362.34h6.359
			v-0.971h-4.583l4.774-7.608h-5.639v0.935h3.911L317.562,362.34z M312.653,362.676l2.651-6.168l1.092,5.832h0.996l-1.74-8.915
			l-2.999,7.093l-3-7.093l-1.74,8.915h0.996l1.08-5.832L312.653,362.676z M305.621,362.34h1.019v-8.579h-1.019V362.34z
			 M303.929,355.812v-1.332c-0.889-0.611-1.8-0.924-2.82-0.924c-1.26,0-2.315,0.42-3.192,1.26c-0.898,0.875-1.343,1.943-1.343,3.275
			c0,1.525,0.685,2.821,1.932,3.686c0.743,0.515,1.619,0.791,2.531,0.791c1.044,0,2.04-0.324,2.893-0.936v-1.355
			c-0.78,0.912-1.729,1.355-2.809,1.355c-1.164,0-2.208-0.552-2.892-1.523c-0.396-0.564-0.588-1.236-0.588-2.029
			c0-1.008,0.324-1.848,0.983-2.532c0.637-0.66,1.549-1.044,2.448-1.044C302.188,354.504,303.101,354.912,303.929,355.812"/>
		<path clip-path="url(#SVGID_22_)" fill="#808285" d="M513.019,384.545v0.207c0,1.809,1.344,2.992,3.472,2.992
			c2.433,0,3.84-1.279,3.84-3.328c0-1.552-0.815-2.592-2.176-2.815c1.28-0.337,2.032-1.312,2.032-2.673
			c0-1.855-1.296-3.039-3.424-3.039c-2.208,0-3.44,1.104-3.536,3.056h1.344c0.064-1.231,0.832-1.903,2.16-1.903
			c1.264,0,2.032,0.768,2.032,1.951c0,1.344-0.8,2.049-2.384,2.049c-0.129,0-0.24-0.017-0.368-0.017v1.12
			c0.144-0.016,0.271-0.016,0.399-0.016c1.648,0,2.496,0.768,2.496,2.239c0,1.392-0.848,2.208-2.368,2.208
			c-1.312,0-2.128-0.736-2.128-1.904v-0.127H513.019z M504.442,381.729c0.704-0.544,1.536-0.816,2.432-0.816
			c1.761,0,2.849,1.12,2.849,2.752c0,1.776-1.104,2.896-2.736,2.896c-1.12,0-2-0.561-2.512-1.616l-0.96,1.12
			c0.784,1.152,1.888,1.68,3.439,1.68c2.624,0,4.208-1.632,4.208-4.208c0-2.288-1.392-3.728-3.632-3.728
			c-0.64,0-1.231,0.128-1.775,0.416l0.72-2.944h4.096v-1.168h-5.023l-1.36,5.567L504.442,381.729z M500.874,383.713h-9.359v0.912
			h9.359V383.713z M500.874,380.721h-9.359v0.912h9.359V380.721z M481.946,387.44h1.216v-3.696c0-0.783,0-1.376,0.416-1.888
			c0.4-0.496,1.024-0.769,1.744-0.769c1.28,0,1.904,0.705,1.904,2.145v4.208h1.216v-4.864c0-1.615-1.023-2.544-2.688-2.544
			c-1.12,0-1.984,0.433-2.593,1.36v-1.104h-1.216V387.44z"/>
		<path clip-path="url(#SVGID_22_)" fill="#F9A25E" d="M528.211,362.34h6.358v-0.971h-4.583l4.774-7.608h-5.638v0.935h3.911
			L528.211,362.34z M526.314,357.576l-1.225-0.541c-0.781-0.348-1.153-0.768-1.153-1.379c0-0.732,0.541-1.248,1.31-1.248
			c0.612,0,1.08,0.336,1.453,0.984l0.839-0.541c-0.419-0.852-1.188-1.295-2.22-1.295c-1.43,0-2.411,0.911-2.411,2.111
			c0,1.044,0.551,1.788,1.69,2.268l1.044,0.445c0.89,0.384,1.333,0.948,1.333,1.716c0,0.937-0.685,1.597-1.717,1.597
			c-0.864,0-1.453-0.541-1.704-1.584l-0.923,0.455c0.324,1.272,1.271,1.991,2.627,1.991c1.657,0,2.747-1.055,2.747-2.627
			C528.005,358.849,527.43,358.068,526.314,357.576 M520.207,357.576l-1.225-0.541c-0.78-0.348-1.153-0.768-1.153-1.379
			c0-0.732,0.541-1.248,1.309-1.248c0.612,0,1.081,0.336,1.453,0.984l0.839-0.541c-0.419-0.852-1.187-1.295-2.22-1.295
			c-1.429,0-2.411,0.911-2.411,2.111c0,1.044,0.551,1.788,1.691,2.268l1.044,0.445c0.889,0.384,1.333,0.948,1.333,1.716
			c0,0.937-0.685,1.597-1.717,1.597c-0.864,0-1.452-0.541-1.704-1.584l-0.923,0.455c0.323,1.272,1.27,1.991,2.627,1.991
			c1.656,0,2.746-1.055,2.746-2.627C521.896,358.849,521.322,358.068,520.207,357.576 M511.469,355.189h-0.693v3.228h-3.168v0.683
			h3.168v3.24h0.693v-3.24h3.156v-0.683h-3.156V355.189z M502.422,355.68l1.368,3.157h-2.736L502.422,355.68z M502.422,353.425
			l-3.887,8.915h1.104l1.116-2.628h3.347l1.116,2.628h1.104L502.422,353.425z M496.675,362.34h1.02v-8.579h-1.02V362.34z
			 M488.839,362.34h6.359v-0.971h-4.583l4.774-7.608h-5.639v0.935h3.911L488.839,362.34z M483.931,362.676l2.651-6.168l1.092,5.832
			h0.996l-1.74-8.915l-2.999,7.093l-3-7.093l-1.739,8.915h0.995l1.08-5.832L483.931,362.676z M476.899,362.34h1.018v-8.579h-1.018
			V362.34z M475.206,355.812v-1.332c-0.888-0.611-1.8-0.924-2.82-0.924c-1.26,0-2.315,0.42-3.191,1.26
			c-0.899,0.875-1.344,1.943-1.344,3.275c0,1.525,0.685,2.821,1.932,3.686c0.744,0.515,1.62,0.791,2.532,0.791
			c1.044,0,2.039-0.324,2.892-0.936v-1.355c-0.78,0.912-1.729,1.355-2.808,1.355c-1.164,0-2.208-0.552-2.893-1.523
			c-0.396-0.564-0.588-1.236-0.588-2.029c0-1.008,0.324-1.848,0.984-2.532c0.636-0.66,1.548-1.044,2.447-1.044
			C473.466,354.504,474.378,354.912,475.206,355.812"/>
		<path clip-path="url(#SVGID_22_)" fill="#808285" d="M685.081,384.545v0.207c0,1.809,1.344,2.992,3.472,2.992
			c2.433,0,3.84-1.279,3.84-3.328c0-1.552-0.815-2.592-2.176-2.815c1.28-0.337,2.032-1.312,2.032-2.673
			c0-1.855-1.296-3.039-3.424-3.039c-2.208,0-3.44,1.104-3.536,3.056h1.344c0.064-1.231,0.832-1.903,2.16-1.903
			c1.264,0,2.032,0.768,2.032,1.951c0,1.344-0.8,2.049-2.384,2.049c-0.129,0-0.24-0.017-0.368-0.017v1.12
			c0.144-0.016,0.271-0.016,0.399-0.016c1.648,0,2.496,0.768,2.496,2.239c0,1.392-0.848,2.208-2.368,2.208
			c-1.312,0-2.128-0.736-2.128-1.904v-0.127H685.081z M681.865,379.521c0,1.504-0.944,2.528-2.305,2.528
			c-1.52,0-2.416-0.977-2.416-2.528c0-1.521,0.944-2.513,2.353-2.513C680.937,377.008,681.865,377.969,681.865,379.521
			 M680.953,382.641l-3.696,4.816l1.185,0.607l2.607-3.68c1.264-1.793,2.208-3.104,2.208-4.752c0-2.24-1.408-3.744-3.504-3.744
			c-2.496,0-4.016,1.472-4.016,3.76c0,2.096,1.407,3.536,3.456,3.536C679.833,383.185,680.393,383.008,680.953,382.641
			 M672.937,383.713h-9.359v0.912h9.359V383.713z M672.937,380.721h-9.359v0.912h9.359V380.721z M654.009,387.44h1.216v-3.696
			c0-0.783,0-1.376,0.416-1.888c0.4-0.496,1.024-0.769,1.744-0.769c1.28,0,1.904,0.705,1.904,2.145v4.208h1.216v-4.864
			c0-1.615-1.024-2.544-2.688-2.544c-1.12,0-1.984,0.433-2.593,1.36v-1.104h-1.216V387.44z"/>
		<path clip-path="url(#SVGID_22_)" fill="#F9A25E" d="M707.322,359.281h-1.26l1.752,1.896c-0.48,0.265-1.02,0.384-1.656,0.384
			c-0.731,0-1.404-0.216-1.957-0.611c-0.972-0.709-1.464-1.68-1.464-2.894c0-0.937,0.36-1.823,1.021-2.483s1.549-1.021,2.484-1.021
			c1.272,0,2.364,0.612,3.013,1.681c0.312,0.516,0.48,1.164,0.48,1.871c0,1.057-0.42,1.969-1.141,2.545L707.322,359.281z
			 M710.934,363.168l-1.631-1.764c1.008-0.803,1.535-1.967,1.535-3.336c0-1.309-0.504-2.473-1.427-3.312
			c-0.864-0.779-1.944-1.188-3.169-1.188c-1.224,0-2.365,0.457-3.24,1.308c-0.863,0.853-1.343,1.979-1.343,3.18
			c0,1.489,0.636,2.749,1.834,3.638c0.744,0.551,1.634,0.838,2.605,0.838c0.948,0,1.752-0.191,2.436-0.586l1.142,1.223H710.934z
			 M700.373,355.812v-1.332c-0.888-0.611-1.8-0.924-2.819-0.924c-1.261,0-2.316,0.42-3.192,1.26
			c-0.898,0.875-1.342,1.943-1.342,3.275c0,1.525,0.683,2.821,1.93,3.686c0.744,0.515,1.62,0.791,2.532,0.791
			c1.044,0,2.04-0.324,2.892-0.936v-1.355c-0.779,0.912-1.728,1.355-2.808,1.355c-1.164,0-2.208-0.552-2.892-1.523
			c-0.396-0.564-0.588-1.236-0.588-2.029c0-1.008,0.323-1.848,0.983-2.532c0.636-0.66,1.548-1.044,2.448-1.044
			C698.634,354.504,699.546,354.912,700.373,355.812 M684.812,362.34h1.018v-4.309h4.562v4.309h1.018v-8.579h-1.018v3.3h-4.562v-3.3
			h-1.018V362.34z M679.193,355.189h-0.694v3.228h-3.168v0.683h3.168v3.24h0.694v-3.24h3.156v-0.683h-3.156V355.189z
			 M670.146,355.68l1.368,3.157h-2.736L670.146,355.68z M670.146,353.425l-3.887,8.915h1.104l1.116-2.628h3.347l1.116,2.628h1.104
			L670.146,353.425z M664.399,362.34h1.019v-8.579h-1.019V362.34z M656.563,362.34h6.359v-0.971h-4.583l4.774-7.608h-5.639v0.935
			h3.911L656.563,362.34z M651.654,362.676l2.652-6.168l1.092,5.832h0.996l-1.74-8.915l-3,7.093l-2.999-7.093l-1.74,8.915h0.996
			l1.08-5.832L651.654,362.676z M644.623,362.34h1.019v-8.579h-1.019V362.34z M642.931,355.812v-1.332
			c-0.888-0.611-1.8-0.924-2.82-0.924c-1.26,0-2.315,0.42-3.192,1.26c-0.898,0.875-1.343,1.943-1.343,3.275
			c0,1.525,0.684,2.821,1.932,3.686c0.743,0.515,1.62,0.791,2.531,0.791c1.044,0,2.04-0.324,2.893-0.936v-1.355
			c-0.78,0.912-1.729,1.355-2.809,1.355c-1.164,0-2.208-0.552-2.892-1.523c-0.396-0.564-0.588-1.236-0.588-2.029
			c0-1.008,0.324-1.848,0.984-2.532c0.636-0.66,1.548-1.044,2.447-1.044C641.19,354.504,642.103,354.912,642.931,355.812"/>
		<path clip-path="url(#SVGID_22_)" fill="#808285" d="M259.028,387.744c2.399,0,3.951-2.128,3.951-5.936
			c0-3.809-1.535-5.92-3.983-5.92c-2.384,0-3.952,2.144-3.952,5.92C255.044,385.584,256.612,387.744,259.028,387.744
			 M259.012,386.625c-1.584,0-2.56-1.729-2.56-4.832c0-3.088,0.976-4.801,2.56-4.801c1.664,0,2.561,1.648,2.561,4.832
			C261.572,384.992,260.676,386.625,259.012,386.625 M250.644,387.44h1.345v-2.464h1.344v-1.104h-1.344v-7.984h-0.576l-6.128,9.088
			h5.359V387.44z M250.644,383.873H247.3l3.344-5.025V383.873z M239.939,387.44h1.328v-11.328h-2.896l-0.769,1.185h2.336V387.44z
			 M233.668,383.713h-9.36v0.912h9.36V383.713z M233.668,380.721h-9.36v0.912h9.36V380.721z M214.74,387.44h1.216v-3.696
			c0-0.783,0-1.376,0.416-1.888c0.399-0.496,1.023-0.769,1.744-0.769c1.279,0,1.903,0.705,1.903,2.145v4.208h1.217v-4.864
			c0-1.615-1.024-2.544-2.688-2.544c-1.12,0-1.984,0.433-2.592,1.36v-1.104h-1.216V387.44z"/>
	</g>
	<path clip-path="url(#SVGID_2_)" fill="#F9A25E" d="M243.377,362.34h1.163l2.004-3.695l2.111,3.695h1.199l-2.734-4.463l2.435-4.116
		h-1.164l-1.774,3.264l-1.836-3.264h-1.224l2.459,4.021L243.377,362.34z M239.957,362.34h1.018v-7.608h2.424v-0.971h-5.865v0.971
		h2.424V362.34z M232.456,362.676l2.651-6.168l1.092,5.832h0.996l-1.739-8.916l-3,7.093l-3-7.093l-1.739,8.916h0.996l1.079-5.832
		L232.456,362.676z"/>
	<g clip-path="url(#SVGID_2_)">
		<defs>
			<rect id="SVGID_39_" x="-9" y="-1" width="930" height="480.252"/>
		</defs>
		<clipPath id="SVGID_40_">
			<use xlink:href="#SVGID_39_"  overflow="visible"/>
		</clipPath>
		<path clip-path="url(#SVGID_40_)" fill="#808285" d="M423.15,381.729c0.704-0.544,1.536-0.816,2.433-0.816
			c1.76,0,2.848,1.12,2.848,2.752c0,1.776-1.104,2.896-2.735,2.896c-1.12,0-2-0.561-2.513-1.616l-0.96,1.12
			c0.784,1.152,1.889,1.68,3.44,1.68c2.624,0,4.208-1.632,4.208-4.208c0-2.288-1.393-3.728-3.632-3.728
			c-0.641,0-1.232,0.128-1.776,0.416l0.72-2.944h4.097v-1.168h-5.024l-1.36,5.567L423.15,381.729z M416.495,387.44h1.328v-11.328
			h-2.896l-0.768,1.185h2.336V387.44z M410.223,383.713h-9.359v0.912h9.359V383.713z M410.223,380.721h-9.359v0.912h9.359V380.721z
			 M391.295,387.44h1.216v-3.696c0-0.783,0-1.376,0.416-1.888c0.4-0.496,1.024-0.769,1.744-0.769c1.28,0,1.904,0.705,1.904,2.145
			v4.208h1.216v-4.864c0-1.615-1.024-2.544-2.688-2.544c-1.12,0-1.983,0.433-2.592,1.36v-1.104h-1.216V387.44z"/>
	</g>
	<path clip-path="url(#SVGID_2_)" fill="#F9A25E" d="M414.279,362.34h1.019v-4.236h3.504v-0.945h-3.504v-2.463h3.504v-0.935h-4.522
		V362.34z M408.088,362.34h4.521v-0.947h-3.504v-3.289h3.504v-0.945h-3.504v-2.463h3.504v-0.935h-4.521V362.34z M402.676,362.34
		h4.259v-0.971h-3.241v-7.608h-1.018V362.34z"/>
	<g clip-path="url(#SVGID_2_)">
		<defs>
			<rect id="SVGID_41_" x="-9" y="-1" width="930" height="480.252"/>
		</defs>
		<clipPath id="SVGID_42_">
			<use xlink:href="#SVGID_41_"  overflow="visible"/>
		</clipPath>
		<path clip-path="url(#SVGID_42_)" fill="#808285" d="M594.305,384.545v0.207c0,1.809,1.344,2.992,3.472,2.992
			c2.432,0,3.84-1.279,3.84-3.328c0-1.552-0.815-2.592-2.176-2.815c1.28-0.337,2.032-1.312,2.032-2.673
			c0-1.855-1.296-3.039-3.424-3.039c-2.208,0-3.44,1.104-3.536,3.056h1.344c0.063-1.231,0.832-1.903,2.16-1.903
			c1.264,0,2.032,0.768,2.032,1.951c0,1.344-0.801,2.049-2.385,2.049c-0.128,0-0.239-0.017-0.367-0.017v1.12
			c0.144-0.016,0.271-0.016,0.399-0.016c1.648,0,2.496,0.768,2.496,2.239c0,1.392-0.848,2.208-2.368,2.208
			c-1.312,0-2.128-0.736-2.128-1.904v-0.127H594.305z M588.433,387.44h1.328v-11.328h-2.896l-0.768,1.185h2.336V387.44z
			 M582.16,383.713h-9.359v0.912h9.359V383.713z M582.16,380.721h-9.359v0.912h9.359V380.721z M563.232,387.44h1.216v-3.696
			c0-0.783,0-1.376,0.416-1.888c0.4-0.496,1.024-0.769,1.744-0.769c1.28,0,1.904,0.705,1.904,2.145v4.208h1.216v-4.864
			c0-1.615-1.024-2.544-2.688-2.544c-1.12,0-1.983,0.433-2.592,1.36v-1.104h-1.216V387.44z"/>
		<path clip-path="url(#SVGID_42_)" fill="#F9A25E" d="M585.077,362.34h6.358v-0.971h-4.583l4.775-7.607h-5.64v0.934h3.911
			L585.077,362.34z M583.181,357.576l-1.225-0.54c-0.78-0.348-1.152-0.769-1.152-1.38c0-0.732,0.54-1.249,1.308-1.249
			c0.613,0,1.081,0.336,1.453,0.985l0.84-0.541c-0.42-0.852-1.188-1.295-2.221-1.295c-1.428,0-2.411,0.91-2.411,2.111
			c0,1.045,0.552,1.788,1.691,2.268l1.045,0.445c0.888,0.383,1.332,0.947,1.332,1.717c0,0.936-0.684,1.596-1.717,1.596
			c-0.864,0-1.452-0.54-1.704-1.584l-0.923,0.456c0.323,1.272,1.271,1.989,2.627,1.989c1.657,0,2.748-1.053,2.748-2.627
			C584.872,358.848,584.297,358.068,583.181,357.576 M577.073,357.576l-1.226-0.54c-0.78-0.348-1.152-0.769-1.152-1.38
			c0-0.732,0.54-1.249,1.309-1.249c0.613,0,1.081,0.336,1.453,0.985l0.84-0.541c-0.42-0.852-1.188-1.295-2.221-1.295
			c-1.429,0-2.411,0.91-2.411,2.111c0,1.045,0.551,1.788,1.69,2.268l1.045,0.445c0.889,0.383,1.332,0.947,1.332,1.717
			c0,0.936-0.684,1.596-1.717,1.596c-0.864,0-1.452-0.54-1.704-1.584l-0.923,0.456c0.324,1.272,1.271,1.989,2.627,1.989
			c1.657,0,2.748-1.053,2.748-2.627C578.764,358.848,578.188,358.068,577.073,357.576"/>
		<path clip-path="url(#SVGID_42_)" fill="#808285" d="M767.823,384.112c0-1.504,0.928-2.544,2.288-2.544
			c1.52,0,2.432,0.977,2.432,2.527c0,1.521-0.944,2.513-2.352,2.513C768.751,386.608,767.823,385.664,767.823,384.112
			 M768.734,380.977l3.696-4.801l-1.184-0.623l-2.608,3.68c-1.264,1.792-2.224,3.12-2.224,4.768c0,2.24,1.408,3.744,3.504,3.744
			c2.496,0,4.032-1.488,4.032-3.775c0-2.096-1.408-3.537-3.456-3.537C769.854,380.432,769.295,380.608,768.734,380.977
			 M760.495,387.44h1.328v-11.328h-2.896l-0.768,1.185h2.336V387.44z M754.223,383.713h-9.359v0.912h9.359V383.713z
			 M754.223,380.721h-9.359v0.912h9.359V380.721z M735.295,387.44h1.216v-3.696c0-0.783,0-1.376,0.416-1.888
			c0.4-0.496,1.024-0.769,1.744-0.769c1.28,0,1.904,0.705,1.904,2.145v4.208h1.216v-4.864c0-1.615-1.024-2.544-2.688-2.544
			c-1.12,0-1.983,0.433-2.592,1.36v-1.104h-1.216V387.44z"/>
		<path clip-path="url(#SVGID_42_)" fill="#F9A25E" d="M764.188,359.281h-1.26l1.752,1.896c-0.48,0.264-1.021,0.384-1.656,0.384
			c-0.731,0-1.403-0.216-1.956-0.611c-0.973-0.709-1.465-1.681-1.465-2.893c0-0.936,0.36-1.825,1.021-2.484
			c0.66-0.66,1.549-1.021,2.484-1.021c1.272,0,2.364,0.612,3.013,1.68c0.312,0.517,0.48,1.165,0.48,1.873
			c0,1.056-0.42,1.968-1.141,2.544L764.188,359.281z M767.8,363.168l-1.63-1.764c1.007-0.804,1.533-1.968,1.533-3.336
			c0-1.309-0.503-2.473-1.426-3.312c-0.865-0.779-1.944-1.188-3.169-1.188c-1.224,0-2.365,0.456-3.241,1.307
			c-0.862,0.853-1.342,1.98-1.342,3.182c0,1.488,0.635,2.748,1.834,3.636c0.745,0.552,1.633,0.839,2.605,0.839
			c0.947,0,1.752-0.191,2.436-0.587l1.142,1.224H767.8z M757.239,355.812v-1.332c-0.888-0.61-1.8-0.923-2.819-0.923
			c-1.261,0-2.316,0.42-3.192,1.259c-0.899,0.876-1.342,1.944-1.342,3.277c0,1.524,0.683,2.819,1.93,3.684
			c0.744,0.515,1.62,0.791,2.532,0.791c1.044,0,2.04-0.323,2.892-0.934v-1.357c-0.779,0.912-1.728,1.357-2.808,1.357
			c-1.164,0-2.208-0.554-2.892-1.525c-0.396-0.563-0.589-1.235-0.589-2.028c0-1.008,0.324-1.849,0.984-2.533
			c0.636-0.659,1.548-1.043,2.448-1.043C755.5,354.504,756.411,354.912,757.239,355.812 M741.678,362.34h1.018v-4.309h4.562v4.309
			h1.019v-8.579h-1.019v3.3h-4.562v-3.3h-1.018V362.34z"/>
		<path clip-path="url(#SVGID_42_)" fill="#F9A25E" d="M623.412,28.792l0.832,0.432c1.232-2.288,1.856-4.864,1.856-7.728
			c0-2.96-0.576-5.504-1.856-7.76l-0.832,0.384c1.152,2.272,1.648,4.64,1.648,7.376C625.061,24.312,624.564,26.68,623.412,28.792
			 M618.885,28.792l0.832,0.432c1.231-2.288,1.855-4.864,1.855-7.728c0-2.96-0.576-5.504-1.855-7.76l-0.832,0.384
			c1.151,2.272,1.647,4.64,1.647,7.376C620.532,24.312,620.036,26.68,618.885,28.792 M612.324,24.521
			c0.561,1.008,1.488,1.504,2.816,1.504c1.584,0,2.608-0.944,2.608-2.272c0-1.168-0.688-1.68-2.08-2.128
			c-1.185-0.384-1.841-0.48-1.841-1.232c0-0.624,0.496-1.072,1.217-1.072c0.752,0,1.344,0.368,1.632,1.024l0.992-0.608
			c-0.385-0.912-1.312-1.424-2.544-1.424c-1.521,0-2.528,0.912-2.528,2.16c0,1.408,1.056,1.712,2.815,2.32
			c0.752,0.256,1.12,0.544,1.12,1.088c0,0.624-0.527,1.072-1.344,1.072c-0.815,0-1.424-0.368-1.824-1.136L612.324,24.521z
			 M611.284,28.792c-1.151-2.112-1.647-4.48-1.647-7.296c0-2.736,0.496-5.104,1.647-7.376l-0.832-0.384
			c-1.279,2.256-1.855,4.8-1.855,7.76c0,2.864,0.624,5.44,1.855,7.728L611.284,28.792z M598.517,24.44v-8.896h0.88
			c1.968,0,3.328,0.032,4.272,0.832c0.943,0.784,1.439,2,1.439,3.616c0,1.616-0.512,2.864-1.439,3.632
			c-0.96,0.8-2.32,0.816-4.272,0.816H598.517z M597.156,25.72h2.688c1.855,0,3.36-0.048,4.688-1.072c1.312-1.008,2-2.592,2-4.64
			s-0.688-3.648-2-4.656c-1.392-1.072-3.04-1.072-5.184-1.072h-2.192V25.72z M588.678,25.72h1.359v-5.456h0.16l4.177,5.456h1.728
			l-4.368-5.456h0.24c2.016,0,3.088-0.992,3.088-2.864c0-1.12-0.416-2.032-1.072-2.544c-0.704-0.544-1.536-0.576-2.624-0.576h-2.688
			V25.72z M590.037,15.433h1.009c1.808,0,2.672,0.32,2.672,1.984c0,1.584-0.88,1.84-2.672,1.84h-1.009V15.433z M582.374,16.84
			l1.823,4.208h-3.647L582.374,16.84z M582.374,13.833l-5.185,11.888h1.472l1.488-3.504h4.464l1.488,3.504h1.472L582.374,13.833z
			 M570.758,26.168l3.536-8.224l1.456,7.776h1.327l-2.319-11.888l-4,9.456l-4-9.456l-2.32,11.888h1.328l1.439-7.776L570.758,26.168z
			 M555.27,24.44v-8.896h0.88c1.968,0,3.328,0.032,4.272,0.832c0.943,0.784,1.439,2,1.439,3.616c0,1.616-0.512,2.864-1.439,3.632
			c-0.96,0.8-2.32,0.816-4.272,0.816H555.27z M553.909,25.72h2.688c1.855,0,3.36-0.048,4.688-1.072c1.312-1.008,2-2.592,2-4.64
			s-0.688-3.648-2-4.656c-1.392-1.072-3.04-1.072-5.184-1.072h-2.192V25.72z M550.63,24.488h-9.36V25.4h9.36V24.488z
			 M546.422,16.504h-0.929v2.688h-4.224v0.912h4.224v2.688h0.929v-2.688h4.208v-0.912h-4.208V16.504z M538.741,28.792
			c-1.151-2.112-1.647-4.48-1.647-7.296c0-2.736,0.496-5.104,1.647-7.376l-0.832-0.384c-1.279,2.256-1.855,4.8-1.855,7.76
			c0,2.864,0.624,5.44,1.855,7.728L538.741,28.792z M515.478,14.28l4.432,11.888l2.977-8.848l2.992,8.848l4.432-11.888h-1.472
			l-2.912,8.416l-3.057-8.864l-3.023,8.864l-2.896-8.416H515.478z M514.021,24.424h-4.336l1.792-1.936
			c1.84-2,2.896-3.504,2.896-5.152c0-1.968-1.312-3.168-3.553-3.168c-2.256,0-3.584,1.264-3.584,3.424
			c0,0.096,0.017,0.208,0.017,0.304h1.279v-0.128c0-1.52,0.801-2.352,2.24-2.352c1.376,0,2.256,0.848,2.256,2
			c0,1.488-1.424,3.008-3.487,5.44l-2.416,2.864h6.896V24.424z M500.79,21.641h-1.681l2.336,2.528
			c-0.64,0.352-1.359,0.512-2.208,0.512c-0.976,0-1.872-0.288-2.607-0.816c-1.296-0.944-1.952-2.24-1.952-3.856
			c0-1.248,0.479-2.432,1.359-3.312c0.881-0.88,2.064-1.36,3.312-1.36c1.696,0,3.152,0.816,4.016,2.24
			c0.416,0.688,0.641,1.552,0.641,2.496c0,1.408-0.561,2.624-1.521,3.392L500.79,21.641z M505.605,26.824l-2.176-2.352
			c1.344-1.072,2.048-2.624,2.048-4.448c0-1.744-0.672-3.296-1.904-4.416c-1.151-1.04-2.592-1.584-4.224-1.584
			s-3.152,0.608-4.32,1.744c-1.151,1.136-1.792,2.64-1.792,4.24c0,1.984,0.849,3.664,2.448,4.848c0.992,0.736,2.176,1.12,3.472,1.12
			c1.265,0,2.336-0.256,3.248-0.784l1.521,1.632H505.605z M485.414,22.168c0,1.648-0.896,2.608-2.337,2.608
			c-1.52,0-2.384-0.976-2.384-2.704c0-1.632,0.864-2.576,2.336-2.576C484.405,19.497,485.414,20.504,485.414,22.168 M486.63,18.568
			h-1.248v1.328c-0.528-1.04-1.44-1.584-2.624-1.584c-2,0-3.36,1.424-3.36,3.808c0,2.32,1.376,3.824,3.424,3.824
			c1.104,0,2.032-0.56,2.593-1.584v1.2c0,0.656-0.032,1.184-0.305,1.632c-0.368,0.624-1.072,0.944-2.048,0.944
			c-1.376,0-2.128-0.624-2.128-1.68V26.36h-1.376c0.048,1.792,1.296,2.848,3.488,2.848c1.264,0,2.224-0.368,2.88-1.072
			c0.672-0.72,0.704-1.52,0.704-2.544V18.568z M476.405,25.72h1.216v-4.864c0-1.616-0.96-2.544-2.544-2.544
			c-1.088,0-1.92,0.464-2.544,1.456c-0.416-0.96-1.248-1.456-2.399-1.456c-1.072,0-1.889,0.448-2.464,1.36v-1.104h-1.217v7.152
			h1.217v-3.696c0-0.176-0.017-0.352-0.017-0.512c0-0.544,0.064-0.992,0.368-1.376c0.384-0.496,0.977-0.768,1.632-0.768
			c1.216,0,1.776,0.704,1.776,2.144v4.208h1.216v-3.696c0-0.16-0.016-0.304-0.016-0.448c0-0.592,0.08-1.04,0.384-1.44
			c0.384-0.496,0.96-0.768,1.616-0.768c1.216,0,1.775,0.704,1.775,2.144V25.72z M460.582,26.024c2.399,0,3.951-2.128,3.951-5.936
			s-1.535-5.92-3.983-5.92c-2.384,0-3.952,2.144-3.952,5.92S458.166,26.024,460.582,26.024 M460.565,24.904
			c-1.584,0-2.56-1.728-2.56-4.832c0-3.088,0.976-4.8,2.56-4.8c1.664,0,2.561,1.648,2.561,4.832
			C463.126,23.272,462.229,24.904,460.565,24.904 M451.222,26.024c2.399,0,3.952-2.128,3.952-5.936s-1.535-5.92-3.983-5.92
			c-2.384,0-3.952,2.144-3.952,5.92S448.807,26.024,451.222,26.024 M451.206,24.904c-1.585,0-2.561-1.728-2.561-4.832
			c0-3.088,0.976-4.8,2.561-4.8c1.663,0,2.56,1.648,2.56,4.832C453.766,23.272,452.869,24.904,451.206,24.904 M444.919,24.424
			h-4.336l1.792-1.936c1.84-2,2.896-3.504,2.896-5.152c0-1.968-1.312-3.168-3.552-3.168c-2.256,0-3.584,1.264-3.584,3.424
			c0,0.096,0.016,0.208,0.016,0.304h1.28v-0.128c0-1.52,0.8-2.352,2.24-2.352c1.376,0,2.256,0.848,2.256,2
			c0,1.488-1.424,3.008-3.488,5.44l-2.416,2.864h6.896V24.424z M428.215,25.72h1.216v-3.488c0-1.872,0.64-2.8,1.936-2.8
			c0.225,0,0.48,0.048,0.752,0.144l0.416-1.104c-0.271-0.096-0.544-0.144-0.832-0.144c-1.088,0-1.76,0.512-2.399,1.728v-1.488
			h-1.088V25.72z M425.127,21.336h-4.353c0.128-1.216,1.008-1.968,2.176-1.968C424.246,19.368,425.047,20.072,425.127,21.336
			 M426.438,22.328v-0.24c0-2.368-1.344-3.792-3.439-3.792c-2.08,0-3.568,1.568-3.568,3.824c0,2.336,1.472,3.904,3.647,3.904
			c1.473,0,2.593-0.656,3.312-1.952l-0.928-0.624c-0.592,1.04-1.36,1.552-2.32,1.552c-1.376,0-2.368-1.008-2.368-2.56v-0.112
			H426.438z M416.183,19.576v6.144h1.216v-6.144h1.344v-1.008h-1.344v-2.88h-1.216v2.88h-1.312v1.008H416.183z M411.767,25.72h1.216
			v-6.144h1.904v-1.008h-1.904v-1.904c0-1.376,0.032-2.032,0.944-2.032c0.319,0,0.64,0.08,0.96,0.256v-1.264
			c-0.336-0.112-0.688-0.16-1.056-0.16c-1.713,0-2.064,0.896-2.064,3.04v2.064h-1.376v1.008h1.376V25.72z M407.895,22.216
			c0,1.648-0.896,2.592-2.336,2.592c-1.52,0-2.384-0.976-2.384-2.704c0-1.632,0.864-2.576,2.336-2.576
			C406.887,19.528,407.895,20.552,407.895,22.216 M409.078,18.568h-1.216v1.344c-0.544-1.056-1.424-1.6-2.624-1.6
			c-2,0-3.359,1.456-3.359,3.856c0,2.336,1.376,3.856,3.424,3.856c1.104,0,2.016-0.56,2.592-1.6v1.296h1.184V18.568z
			 M399.352,21.336H395c0.128-1.216,1.008-1.968,2.175-1.968C398.472,19.368,399.271,20.072,399.352,21.336 M400.664,22.328v-0.24
			c0-2.368-1.345-3.792-3.44-3.792c-2.08,0-3.568,1.568-3.568,3.824c0,2.336,1.473,3.904,3.648,3.904
			c1.472,0,2.592-0.656,3.311-1.952l-0.927-0.624c-0.592,1.04-1.36,1.552-2.32,1.552c-1.376,0-2.367-1.008-2.367-2.56v-0.112
			H400.664z M388.76,25.72h1.216v-3.488c0-1.872,0.64-2.8,1.936-2.8c0.225,0,0.48,0.048,0.753,0.144l0.416-1.104
			c-0.272-0.096-0.545-0.144-0.832-0.144c-1.089,0-1.761,0.512-2.4,1.728v-1.488h-1.088V25.72z M385.672,21.336h-4.353
			c0.128-1.216,1.008-1.968,2.177-1.968C384.792,19.368,385.592,20.072,385.672,21.336 M386.983,22.328v-0.24
			c0-2.368-1.344-3.792-3.439-3.792c-2.08,0-3.568,1.568-3.568,3.824c0,2.336,1.472,3.904,3.648,3.904
			c1.472,0,2.592-0.656,3.312-1.952l-0.928-0.624c-0.592,1.04-1.36,1.552-2.32,1.552c-1.376,0-2.368-1.008-2.368-2.56v-0.112
			H386.983z M371.768,25.72h1.216v-3.696c0-0.784,0-1.376,0.416-1.888c0.4-0.496,1.024-0.768,1.744-0.768
			c1.28,0,1.904,0.704,1.904,2.144v4.208h1.216v-4.864c0-1.616-1.024-2.544-2.688-2.544c-1.119,0-1.983,0.432-2.607,1.36v-6.064
			h-1.2V25.72z M367.896,19.576v6.144h1.216v-6.144h1.345v-1.008h-1.345v-2.88h-1.216v2.88h-1.312v1.008H367.896z M359.016,19.688
			c0,0.512,0.4,0.928,0.928,0.928c0.528,0,0.928-0.416,0.928-0.928c0-0.512-0.415-0.928-0.928-0.928
			C359.432,18.76,359.016,19.176,359.016,19.688 M357.815,27.992l0.88,0.352l1.937-4.144l-1.328-0.464L357.815,27.992z
			 M353.144,25.72h1.344v-2.464h1.345v-1.104h-1.345v-7.984h-0.576l-6.128,9.088h5.36V25.72z M353.144,22.152H349.8l3.344-5.024
			V22.152z M339.096,27.992l0.896,0.352l1.92-4.144l-1.327-0.464L339.096,27.992z M336.584,24.424h-4.336l1.792-1.936
			c1.84-2,2.896-3.504,2.896-5.152c0-1.968-1.312-3.168-3.552-3.168c-2.256,0-3.584,1.264-3.584,3.424
			c0,0.096,0.016,0.208,0.016,0.304h1.28v-0.128c0-1.52,0.8-2.352,2.24-2.352c1.376,0,2.256,0.848,2.256,2
			c0,1.488-1.424,3.008-3.488,5.44l-2.416,2.864h6.896V24.424z M320.456,27.992l0.896,0.352l1.921-4.144l-1.328-0.464
			L320.456,27.992z M314.889,26.024c2.4,0,3.952-2.128,3.952-5.936s-1.536-5.92-3.984-5.92c-2.384,0-3.952,2.144-3.952,5.92
			S312.473,26.024,314.889,26.024 M314.873,24.904c-1.584,0-2.561-1.728-2.561-4.832c0-3.088,0.977-4.8,2.561-4.8
			c1.663,0,2.56,1.648,2.56,4.832C317.433,23.272,316.536,24.904,314.873,24.904 M298.969,25.72h1.216l0.016-3.776l3.681,3.776
			h1.712l-3.888-3.872l3.567-3.28h-1.632l-3.44,3.248l-0.016-8.208h-1.216V25.72z M283.064,14.28l4.432,11.888l2.977-8.848
			l2.992,8.848l4.432-11.888h-1.472l-2.912,8.416l-3.056-8.864l-3.024,8.864l-2.896-8.416H283.064z M276.2,22.168
			c0,1.648-0.896,2.608-2.336,2.608c-1.52,0-2.384-0.976-2.384-2.704c0-1.632,0.864-2.576,2.336-2.576
			C275.192,19.497,276.2,20.504,276.2,22.168 M277.417,18.568h-1.248v1.328c-0.528-1.04-1.44-1.584-2.624-1.584
			c-2,0-3.36,1.424-3.36,3.808c0,2.32,1.376,3.824,3.424,3.824c1.104,0,2.032-0.56,2.592-1.584v1.2c0,0.656-0.031,1.184-0.304,1.632
			c-0.368,0.624-1.072,0.944-2.048,0.944c-1.376,0-2.128-0.624-2.128-1.68V26.36h-1.376c0.048,1.792,1.296,2.848,3.488,2.848
			c1.264,0,2.224-0.368,2.88-1.072c0.672-0.72,0.704-1.52,0.704-2.544V18.568z M267.192,25.72h1.216v-4.864
			c0-1.616-0.96-2.544-2.544-2.544c-1.088,0-1.92,0.464-2.544,1.456c-0.416-0.96-1.248-1.456-2.399-1.456
			c-1.072,0-1.889,0.448-2.464,1.36v-1.104h-1.217v7.152h1.217v-3.696c0-0.176-0.017-0.352-0.017-0.512
			c0-0.544,0.064-0.992,0.368-1.376c0.384-0.496,0.976-0.768,1.632-0.768c1.216,0,1.776,0.704,1.776,2.144v4.208h1.216v-3.696
			c0-0.16-0.016-0.304-0.016-0.448c0-0.592,0.079-1.04,0.384-1.44c0.384-0.496,0.96-0.768,1.616-0.768
			c1.216,0,1.775,0.704,1.775,2.144V25.72z M251.368,26.024c2.4,0,3.952-2.128,3.952-5.936s-1.536-5.92-3.983-5.92
			c-2.385,0-3.952,2.144-3.952,5.92S248.952,26.024,251.368,26.024 M251.353,24.904c-1.584,0-2.56-1.728-2.56-4.832
			c0-3.088,0.976-4.8,2.56-4.8c1.664,0,2.56,1.648,2.56,4.832C253.912,23.272,253.017,24.904,251.353,24.904 M242.009,26.024
			c2.399,0,3.952-2.128,3.952-5.936s-1.536-5.92-3.984-5.92c-2.384,0-3.952,2.144-3.952,5.92S239.593,26.024,242.009,26.024
			 M241.992,24.904c-1.584,0-2.56-1.728-2.56-4.832c0-3.088,0.976-4.8,2.56-4.8c1.664,0,2.561,1.648,2.561,4.832
			C244.553,23.272,243.656,24.904,241.992,24.904 M233.625,25.72h1.344v-2.464h1.344v-1.104h-1.344v-7.984h-0.576l-6.128,9.088h5.36
			V25.72z M233.625,22.152h-3.345l3.345-5.024V22.152z M220.969,22.216c0,1.648-0.896,2.592-2.336,2.592
			c-1.521,0-2.384-0.976-2.384-2.704c0-1.632,0.863-2.576,2.336-2.576C219.961,19.528,220.969,20.552,220.969,22.216
			 M222.152,18.568h-1.216v1.344c-0.544-1.056-1.424-1.6-2.624-1.6c-2,0-3.36,1.456-3.36,3.856c0,2.336,1.376,3.856,3.425,3.856
			c1.104,0,2.016-0.56,2.592-1.6v1.296h1.184V18.568z M211.481,15.128c0,0.512,0.4,0.896,0.896,0.896s0.896-0.384,0.896-0.88
			s-0.399-0.912-0.896-0.912S211.481,14.632,211.481,15.128 M211.77,25.72h1.216v-7.152h-1.216V25.72z M203.882,25.72h6.224v-1.072
			h-4.063l4.096-6.08h-6v1.072h3.84L203.882,25.72z M201.354,25.72h1.216v-4.864c0-1.616-0.96-2.544-2.544-2.544
			c-1.088,0-1.92,0.464-2.544,1.456c-0.416-0.96-1.248-1.456-2.399-1.456c-1.072,0-1.889,0.448-2.465,1.36v-1.104h-1.216v7.152
			h1.216v-3.696c0-0.176-0.016-0.352-0.016-0.512c0-0.544,0.064-0.992,0.368-1.376c0.384-0.496,0.976-0.768,1.632-0.768
			c1.216,0,1.776,0.704,1.776,2.144v4.208h1.216v-3.696c0-0.16-0.017-0.304-0.017-0.448c0-0.592,0.08-1.04,0.385-1.44
			c0.384-0.496,0.96-0.768,1.615-0.768c1.217,0,1.776,0.704,1.776,2.144V25.72z M187.386,15.128c0,0.512,0.399,0.896,0.896,0.896
			s0.896-0.384,0.896-0.88s-0.4-0.912-0.896-0.912S187.386,14.632,187.386,15.128 M187.674,25.72h1.216v-7.152h-1.216V25.72z
			 M185.498,17.017V15.24c-1.185-0.816-2.4-1.232-3.761-1.232c-1.68,0-3.088,0.56-4.256,1.68c-1.2,1.168-1.792,2.592-1.792,4.368
			c0,2.032,0.912,3.76,2.576,4.912c0.992,0.688,2.16,1.056,3.376,1.056c1.392,0,2.72-0.432,3.856-1.248v-1.808
			c-1.04,1.216-2.305,1.808-3.744,1.808c-1.553,0-2.944-0.736-3.856-2.032c-0.528-0.752-0.784-1.648-0.784-2.704
			c0-1.344,0.433-2.464,1.312-3.376c0.848-0.88,2.063-1.392,3.264-1.392C183.178,15.272,184.394,15.816,185.498,17.017"/>
		<path clip-path="url(#SVGID_42_)" fill="#808285" d="M330.487,68.792l0.832,0.432c1.232-2.288,1.856-4.864,1.856-7.728
			c0-2.96-0.576-5.504-1.856-7.76l-0.832,0.384c1.152,2.272,1.648,4.64,1.648,7.376C332.136,64.312,331.64,66.68,330.487,68.792
			 M325.96,68.792l0.832,0.432c1.231-2.288,1.855-4.864,1.855-7.728c0-2.96-0.576-5.504-1.855-7.76l-0.832,0.384
			c1.151,2.272,1.647,4.64,1.647,7.376C327.607,64.312,327.111,66.68,325.96,68.792 M319.399,64.521
			c0.561,1.008,1.488,1.504,2.816,1.504c1.584,0,2.607-0.944,2.607-2.272c0-1.168-0.688-1.68-2.08-2.128
			c-1.184-0.384-1.84-0.48-1.84-1.232c0-0.624,0.496-1.072,1.216-1.072c0.753,0,1.345,0.368,1.633,1.024l0.991-0.608
			c-0.384-0.912-1.312-1.424-2.544-1.424c-1.52,0-2.527,0.912-2.527,2.16c0,1.408,1.056,1.712,2.815,2.32
			c0.752,0.256,1.12,0.544,1.12,1.088c0,0.624-0.527,1.072-1.344,1.072s-1.424-0.368-1.824-1.136L319.399,64.521z M318.359,68.792
			c-1.151-2.112-1.647-4.48-1.647-7.296c0-2.736,0.496-5.104,1.647-7.376l-0.832-0.384c-1.279,2.256-1.855,4.8-1.855,7.76
			c0,2.864,0.624,5.44,1.855,7.728L318.359,68.792z M311.768,59.368l-1.632-0.72c-1.04-0.464-1.536-1.024-1.536-1.84
			c0-0.976,0.72-1.664,1.744-1.664c0.815,0,1.439,0.448,1.936,1.312l1.12-0.72c-0.56-1.136-1.584-1.728-2.96-1.728
			c-1.904,0-3.216,1.216-3.216,2.816c0,1.392,0.736,2.384,2.256,3.024l1.393,0.592c1.184,0.512,1.775,1.264,1.775,2.288
			c0,1.248-0.912,2.128-2.288,2.128c-1.151,0-1.936-0.72-2.271-2.112l-1.232,0.608c0.432,1.696,1.696,2.656,3.504,2.656
			c2.208,0,3.664-1.408,3.664-3.504C314.023,61.064,313.256,60.024,311.768,59.368 M297.447,64.44v-8.896h0.88
			c1.969,0,3.328,0.032,4.272,0.832c0.944,0.784,1.44,2,1.44,3.616c0,1.616-0.513,2.864-1.44,3.632
			c-0.96,0.8-2.32,0.816-4.272,0.816H297.447z M296.088,65.72h2.688c1.856,0,3.36-0.048,4.688-1.072c1.312-1.008,2-2.592,2-4.64
			s-0.688-3.648-2-4.656c-1.393-1.072-3.04-1.072-5.185-1.072h-2.191V65.72z M287.607,65.72h1.36v-5.456h0.16l4.176,5.456h1.728
			l-4.367-5.456h0.239c2.017,0,3.088-0.992,3.088-2.864c0-1.12-0.416-2.032-1.071-2.544c-0.704-0.544-1.536-0.576-2.624-0.576
			h-2.688V65.72z M288.968,55.433h1.008c1.808,0,2.672,0.32,2.672,1.984c0,1.584-0.88,1.84-2.672,1.84h-1.008V55.433z
			 M281.304,56.84l1.824,4.208h-3.648L281.304,56.84z M281.304,53.833l-5.185,11.888h1.473l1.488-3.504h4.464l1.487,3.504h1.473
			L281.304,53.833z M269.688,66.168l3.536-8.224l1.456,7.776h1.328l-2.32-11.888l-4,9.456l-4-9.456l-2.32,11.888h1.328l1.44-7.776
			L269.688,66.168z M254.2,64.44v-8.896h0.881c1.968,0,3.327,0.032,4.271,0.832c0.944,0.784,1.44,2,1.44,3.616
			c0,1.616-0.513,2.864-1.44,3.632c-0.96,0.8-2.32,0.816-4.271,0.816H254.2z M252.841,65.72h2.688c1.856,0,3.36-0.048,4.688-1.072
			c1.312-1.008,2-2.592,2-4.64s-0.688-3.648-2-4.656c-1.393-1.072-3.04-1.072-5.185-1.072h-2.191V65.72z M249.561,64.488h-9.36V65.4
			h9.36V64.488z M245.353,56.504h-0.928v2.688H240.2v0.912h4.225v2.688h0.928v-2.688h4.208v-0.912h-4.208V56.504z M237.673,68.792
			c-1.152-2.112-1.648-4.48-1.648-7.296c0-2.736,0.496-5.104,1.648-7.376l-0.832-0.384c-1.28,2.256-1.856,4.8-1.856,7.76
			c0,2.864,0.624,5.44,1.856,7.728L237.673,68.792z M221.992,62.168c0-1.52,1.152-2.704,2.593-2.704
			c1.424,0,2.575,1.184,2.575,2.704s-1.151,2.704-2.575,2.704C223.16,64.873,221.992,63.688,221.992,62.168 M220.696,62.168
			c0,1.04,0.385,1.968,1.137,2.72c0.735,0.736,1.695,1.136,2.752,1.136c1.04,0,2-0.416,2.752-1.152
			c0.735-0.72,1.136-1.664,1.136-2.704s-0.4-2-1.136-2.72c-0.752-0.736-1.696-1.136-2.752-1.136c-1.057,0-2.017,0.384-2.752,1.12
			C221.081,60.168,220.696,61.128,220.696,62.168 M213.368,62.185c0-1.616,0.992-2.656,2.433-2.656c1.424,0,2.304,0.912,2.304,2.496
			c0,1.792-0.912,2.816-2.336,2.816C214.297,64.84,213.368,63.88,213.368,62.185 M212.2,53.608V65.72h1.168v-1.296
			c0.561,1.024,1.505,1.6,2.608,1.6c2.048,0,3.424-1.52,3.424-3.856c0-2.4-1.376-3.856-3.376-3.856c-1.184,0-2.063,0.544-2.607,1.6
			v-6.304H212.2z M209.129,61.336h-4.353c0.128-1.216,1.008-1.968,2.176-1.968C208.249,59.368,209.049,60.072,209.129,61.336
			 M210.44,62.328v-0.24c0-2.368-1.344-3.792-3.439-3.792c-2.08,0-3.568,1.568-3.568,3.824c0,2.336,1.472,3.904,3.648,3.904
			c1.472,0,2.592-0.656,3.312-1.952l-0.928-0.624c-0.592,1.04-1.36,1.552-2.32,1.552c-1.376,0-2.368-1.008-2.368-2.56v-0.112H210.44
			z M202.441,64.024c-0.752,0.544-1.439,0.816-2.208,0.816c-1.487,0-2.56-1.152-2.56-2.592c0-1.696,1.088-2.752,2.656-2.752
			c0.703,0,1.376,0.224,1.983,0.624v-1.312c-0.656-0.32-1.424-0.496-2.224-0.496c-2.145,0-3.729,1.568-3.729,3.904
			c0,2.256,1.456,3.808,3.681,3.808c0.928,0,1.743-0.192,2.399-0.576V64.024z M193.401,62.216c0,1.648-0.896,2.592-2.336,2.592
			c-1.52,0-2.384-0.976-2.384-2.704c0-1.632,0.864-2.576,2.336-2.576C192.394,59.528,193.401,60.552,193.401,62.216 M194.586,58.568
			h-1.217v1.344c-0.544-1.056-1.424-1.6-2.623-1.6c-2,0-3.36,1.456-3.36,3.856c0,2.336,1.376,3.856,3.424,3.856
			c1.104,0,2.016-0.56,2.592-1.6v1.296h1.185V58.568z M184.201,65.72h1.217V53.608h-1.217V65.72z M177.577,60.584h1.04
			c1.185,0,2.112-0.032,2.881-0.576c0.72-0.512,1.168-1.456,1.168-2.576c0-1.12-0.448-2.064-1.168-2.576
			c-0.769-0.544-1.713-0.576-2.881-0.576h-2.399v11.44h1.359V60.584z M177.577,59.353v-3.824h0.656c1.984,0,2.96,0.32,2.96,1.984
			c0,1.584-0.992,1.84-2.96,1.84H177.577z"/>
	</g>
	<rect x="148.65" y="14" clip-path="url(#SVGID_2_)" fill="#F9A25E" width="12" height="12"/>
	<rect x="148.65" y="54" clip-path="url(#SVGID_2_)" fill="#D1D3D4" width="12" height="12"/>
	<g clip-path="url(#SVGID_2_)">
		<defs>
			<rect id="SVGID_43_" x="-9" y="-1" width="930" height="480.252"/>
		</defs>
		<clipPath id="SVGID_44_">
			<use xlink:href="#SVGID_43_"  overflow="visible"/>
		</clipPath>
		<path clip-path="url(#SVGID_44_)" fill="#808285" d="M342.394,471.003h0.726v-6.191h-1.582l-0.42,0.646h1.276V471.003z
			 M336.992,475.278c0,0.479,0.375,0.854,0.869,0.854s0.884-0.374,0.884-0.854s-0.39-0.869-0.884-0.869
			C337.382,474.409,336.992,474.799,336.992,475.278 M334.186,474.784h-4.064l1.68-1.816c1.727-1.875,2.714-3.286,2.714-4.829
			c0-1.847-1.228-2.97-3.329-2.97c-2.115,0-3.358,1.183-3.358,3.21c0,0.089,0.015,0.194,0.015,0.283h1.198v-0.119
			c0-1.425,0.75-2.206,2.101-2.206c1.291,0,2.116,0.796,2.116,1.877c0,1.393-1.336,2.819-3.271,5.1l-2.265,2.684h6.464V474.784z
			 M322.202,475.997h1.243v-10.618h-2.713l-0.721,1.108h2.19V475.997z M313.771,476.282c2.25,0,3.703-1.993,3.703-5.564
			s-1.438-5.549-3.733-5.549c-2.236,0-3.704,2.008-3.704,5.549S311.505,476.282,313.771,476.282 M313.756,475.233
			c-1.484,0-2.4-1.619-2.4-4.53c0-2.896,0.916-4.501,2.4-4.501c1.562,0,2.401,1.545,2.401,4.53
			C316.157,473.704,315.317,475.233,313.756,475.233 M307.861,474.784h-4.065l1.681-1.816c1.726-1.875,2.714-3.286,2.714-4.829
			c0-1.847-1.229-2.97-3.329-2.97c-2.116,0-3.359,1.183-3.359,3.21c0,0.089,0.015,0.194,0.015,0.283h1.198v-0.119
			c0-1.425,0.751-2.206,2.102-2.206c1.291,0,2.115,0.796,2.115,1.877c0,1.393-1.335,2.819-3.271,5.1l-2.265,2.684h6.465V474.784z
			 M293.882,475.997h1.138v-11.354h-1.138V475.997z M290.493,472.713c0,1.546-0.841,2.431-2.191,2.431
			c-1.426,0-2.235-0.915-2.235-2.536c0-1.529,0.81-2.416,2.19-2.416C289.547,470.191,290.493,471.153,290.493,472.713
			 M291.601,469.294h-1.138v1.258c-0.511-0.99-1.336-1.498-2.461-1.498c-1.876,0-3.149,1.363-3.149,3.614
			c0,2.19,1.288,3.614,3.209,3.614c1.035,0,1.891-0.523,2.432-1.498v1.213h1.107V469.294z M277.383,470.237v5.76h1.139v-5.76h1.26
			v-0.943h-1.26v-2.7h-1.139v2.7h-1.229v0.943H277.383z M274.323,471.889h-4.082c0.12-1.141,0.944-1.847,2.041-1.847
			C273.498,470.042,274.248,470.703,274.323,471.889 M275.551,472.816v-0.224c0-2.221-1.258-3.554-3.224-3.554
			c-1.951,0-3.344,1.469-3.344,3.584c0,2.19,1.378,3.659,3.419,3.659c1.381,0,2.43-0.614,3.104-1.829l-0.869-0.585
			c-0.554,0.976-1.274,1.456-2.175,1.456c-1.291,0-2.221-0.946-2.221-2.402v-0.105H275.551z M257.837,476.417l3.315-7.709
			l1.363,7.289h1.245l-2.175-11.144l-3.749,8.865l-3.749-8.865l-2.175,11.144h1.245l1.35-7.289L257.837,476.417z M244.743,470.237
			v5.76h1.138v-5.76h1.26v-0.943h-1.26v-2.7h-1.138v2.7h-1.23v0.943H244.743z M240.933,470.237v5.76h1.139v-5.76h1.261v-0.943
			h-1.261v-2.7h-1.139v2.7h-1.229v0.943H240.933z M237.424,472.713c0,1.546-0.841,2.431-2.19,2.431
			c-1.427,0-2.236-0.915-2.236-2.536c0-1.529,0.81-2.416,2.19-2.416C236.478,470.191,237.424,471.153,237.424,472.713
			 M238.532,469.294h-1.139v1.258c-0.511-0.99-1.336-1.498-2.461-1.498c-1.876,0-3.148,1.363-3.148,3.614
			c0,2.19,1.288,3.614,3.209,3.614c1.035,0,1.89-0.523,2.431-1.498v1.213h1.108V469.294z M228.799,475.997h1.138v-11.354h-1.138
			V475.997z M221.327,472.683c0-1.516,0.93-2.491,2.281-2.491c1.336,0,2.16,0.855,2.16,2.342c0,1.68-0.854,2.641-2.19,2.641
			C222.197,475.174,221.327,474.273,221.327,472.683 M220.234,464.644v11.354h1.093v-1.213c0.524,0.96,1.411,1.498,2.446,1.498
			c1.921,0,3.209-1.424,3.209-3.614c0-2.251-1.288-3.614-3.164-3.614c-1.11,0-1.937,0.509-2.446,1.498v-5.908H220.234z
			 M211.954,475.997h1.138v-3.464c0-0.735,0-1.29,0.391-1.771c0.376-0.465,0.961-0.72,1.636-0.72c1.201,0,1.786,0.66,1.786,2.011
			v3.944h1.138v-4.56c0-1.516-0.958-2.384-2.519-2.384c-1.051,0-1.861,0.404-2.432,1.273v-1.033h-1.138V475.997z M208.189,466.067
			c0,0.48,0.375,0.84,0.839,0.84s0.839-0.359,0.839-0.824c0-0.464-0.375-0.854-0.839-0.854S208.189,465.604,208.189,466.067
			 M208.459,475.997h1.138v-6.703h-1.138V475.997z M205.519,471.889h-4.082c0.12-1.141,0.946-1.847,2.041-1.847
			C204.694,470.042,205.444,470.703,205.519,471.889 M206.747,472.816v-0.224c0-2.221-1.258-3.554-3.224-3.554
			c-1.951,0-3.345,1.469-3.345,3.584c0,2.19,1.378,3.659,3.419,3.659c1.381,0,2.432-0.614,3.104-1.829l-0.868-0.585
			c-0.555,0.976-1.275,1.456-2.176,1.456c-1.29,0-2.222-0.946-2.222-2.402v-0.105H206.747z M185.869,465.273l4.155,11.144
			l2.789-8.294l2.805,8.294l4.155-11.144h-1.381l-2.729,7.89l-2.865-8.31l-2.834,8.31l-2.715-7.89H185.869z M179.48,475.997h1.138
			v-4.56c0-1.516-0.899-2.384-2.384-2.384c-1.021,0-1.802,0.435-2.387,1.363c-0.39-0.899-1.169-1.363-2.249-1.363
			c-1.006,0-1.771,0.419-2.311,1.273v-1.033h-1.138v6.703h1.138v-3.464c0-0.165-0.015-0.33-0.015-0.48
			c0-0.51,0.06-0.931,0.345-1.291c0.359-0.465,0.915-0.72,1.531-0.72c1.14,0,1.666,0.66,1.666,2.011v3.944h1.138v-3.464
			c0-0.15-0.015-0.285-0.015-0.42c0-0.556,0.074-0.977,0.359-1.352c0.36-0.465,0.9-0.72,1.517-0.72c1.14,0,1.666,0.66,1.666,2.011
			V475.997z M162.363,472.668c0-1.425,1.08-2.536,2.431-2.536c1.335,0,2.416,1.111,2.416,2.536c0,1.426-1.081,2.536-2.416,2.536
			C163.458,475.204,162.363,474.094,162.363,472.668 M161.15,472.668c0,0.975,0.358,1.846,1.062,2.551
			c0.69,0.689,1.59,1.063,2.581,1.063c0.975,0,1.876-0.39,2.581-1.078c0.688-0.675,1.063-1.562,1.063-2.536
			c0-0.976-0.375-1.876-1.063-2.551c-0.705-0.689-1.591-1.063-2.581-1.063c-0.991,0-1.891,0.359-2.581,1.048
			C161.509,470.792,161.15,471.692,161.15,472.668 M156.515,475.997h1.139v-3.27c0-1.756,0.6-2.626,1.814-2.626
			c0.21,0,0.45,0.045,0.705,0.136l0.39-1.033c-0.255-0.09-0.51-0.135-0.779-0.135c-1.021,0-1.65,0.479-2.25,1.617v-1.393h-1.019
			V475.997z M152.54,475.997h1.138v-5.76h1.785v-0.943h-1.785v-1.786c0-1.291,0.03-1.906,0.885-1.906c0.301,0,0.601,0.075,0.9,0.24
			v-1.183c-0.314-0.105-0.645-0.15-0.99-0.15c-1.604,0-1.933,0.839-1.933,2.849v1.937h-1.29v0.943h1.29V475.997z M144.515,472.683
			c0,1.591-0.87,2.491-2.251,2.491c-1.335,0-2.176-0.96-2.176-2.641c0-1.486,0.826-2.342,2.161-2.342
			C143.6,470.191,144.515,471.167,144.515,472.683 M145.623,464.644h-1.138v5.908c-0.511-0.989-1.335-1.498-2.446-1.498
			c-1.876,0-3.164,1.363-3.164,3.614c0,2.19,1.288,3.614,3.209,3.614c1.036,0,1.906-0.539,2.431-1.498v1.214h1.108V464.644z
			 M136.505,471.889h-4.082c0.12-1.141,0.946-1.847,2.041-1.847C135.68,470.042,136.43,470.703,136.505,471.889 M137.733,472.816
			v-0.224c0-2.221-1.259-3.554-3.225-3.554c-1.951,0-3.344,1.469-3.344,3.584c0,2.19,1.378,3.659,3.419,3.659
			c1.381,0,2.43-0.614,3.104-1.829l-0.867-0.585c-0.556,0.976-1.275,1.456-2.177,1.456c-1.29,0-2.221-0.946-2.221-2.402v-0.105
			H137.733z M128.12,470.237v5.76h1.139v-5.76h1.26v-0.943h-1.26v-2.7h-1.139v2.7h-1.23v0.943H128.12z M120.544,472.668
			c0-1.591,0.87-2.506,2.251-2.506c1.335,0,2.176,0.96,2.176,2.641c0,1.486-0.826,2.356-2.161,2.356
			C121.459,475.159,120.544,474.184,120.544,472.668 M119.436,479.252h1.139v-4.468c0.51,0.988,1.335,1.498,2.445,1.498
			c1.877,0,3.164-1.349,3.164-3.614c0-2.206-1.287-3.614-3.209-3.614c-1.035,0-1.921,0.524-2.445,1.498v-1.258h-1.094V479.252z
			 M116.106,472.713c0,1.546-0.842,2.431-2.191,2.431c-1.426,0-2.236-0.915-2.236-2.536c0-1.529,0.811-2.416,2.191-2.416
			C115.16,470.191,116.106,471.153,116.106,472.713 M117.214,469.294h-1.138v1.258c-0.51-0.99-1.336-1.498-2.461-1.498
			c-1.876,0-3.149,1.363-3.149,3.614c0,2.19,1.288,3.614,3.209,3.614c1.035,0,1.892-0.523,2.432-1.498v1.213h1.107V469.294z
			 M107.601,472.683c0,1.591-0.869,2.491-2.251,2.491c-1.336,0-2.176-0.96-2.176-2.641c0-1.486,0.825-2.342,2.161-2.342
			C106.686,470.191,107.601,471.167,107.601,472.683 M108.709,464.644h-1.138v5.908c-0.511-0.989-1.336-1.498-2.446-1.498
			c-1.876,0-3.164,1.363-3.164,3.614c0,2.19,1.288,3.614,3.209,3.614c1.035,0,1.906-0.539,2.431-1.498v1.214h1.108V464.644z
			 M96.68,467.673l1.71,3.946h-3.42L96.68,467.673z M96.68,464.854l-4.858,11.144h1.38l1.394-3.285h4.186l1.394,3.285h1.38
			L96.68,464.854z"/>
		<path clip-path="url(#SVGID_44_)" fill="#808285" d="M712.135,457.278c0,0.479,0.374,0.854,0.869,0.854
			c0.494,0,0.884-0.374,0.884-0.854s-0.39-0.869-0.884-0.869C712.524,456.409,712.135,456.799,712.135,457.278 M702.563,456.799
			v-8.342h0.824c1.847,0,3.121,0.03,4.007,0.78c0.886,0.734,1.351,1.876,1.351,3.391s-0.48,2.686-1.351,3.406
			c-0.9,0.75-2.176,0.765-4.007,0.765H702.563z M701.29,457.997h2.519c1.74,0,3.15-0.045,4.396-1.003
			c1.229-0.945,1.873-2.431,1.873-4.352c0-1.92-0.645-3.421-1.873-4.366c-1.306-1.003-2.851-1.003-4.862-1.003h-2.053V457.997z
			 M693.34,457.997h1.273v-5.115h0.149l3.916,5.115h1.619l-4.094-5.115h0.225c1.892,0,2.895-0.928,2.895-2.684
			c0-1.051-0.39-1.906-1.003-2.386c-0.66-0.509-1.441-0.539-2.461-0.539h-2.52V457.997z M694.613,448.352h0.945
			c1.695,0,2.507,0.3,2.507,1.861c0,1.486-0.826,1.726-2.507,1.726h-0.945V448.352z M687.429,449.673l1.71,3.946h-3.42
			L687.429,449.673z M687.429,446.854l-4.858,11.144h1.38l1.394-3.285h4.185l1.395,3.285h1.38L687.429,446.854z M676.539,458.417
			l3.315-7.709l1.363,7.289h1.245l-2.174-11.144l-3.75,8.865l-3.749-8.865l-2.175,11.144h1.245l1.35-7.289L676.539,458.417z
			 M662.018,456.799v-8.342h0.825c1.847,0,3.121,0.03,4.007,0.78c0.886,0.734,1.351,1.876,1.351,3.391s-0.48,2.686-1.351,3.406
			c-0.9,0.75-2.176,0.765-4.007,0.765H662.018z M660.745,457.997h2.519c1.74,0,3.151-0.045,4.396-1.003
			c1.229-0.945,1.873-2.431,1.873-4.352c0-1.92-0.645-3.421-1.873-4.366c-1.305-1.003-2.852-1.003-4.862-1.003h-2.053V457.997z
			 M650.425,457.997h1.243v-10.618h-2.713l-0.72,1.108h2.189V457.997z M644.468,453.153l-8.623-3.539v0.93l7.319,2.984l-7.319,2.969
			v0.944l8.623-3.538V453.153z M627.355,454.683c0,1.591-0.87,2.491-2.251,2.491c-1.335,0-2.176-0.96-2.176-2.641
			c0-1.486,0.825-2.342,2.16-2.342C626.44,452.191,627.355,453.167,627.355,454.683 M628.464,446.644h-1.139v5.908
			c-0.51-0.989-1.335-1.498-2.446-1.498c-1.875,0-3.164,1.363-3.164,3.614c0,2.19,1.289,3.614,3.209,3.614
			c1.036,0,1.906-0.539,2.432-1.498v1.214h1.108V446.644z M619.346,453.889h-4.082c0.12-1.141,0.945-1.847,2.041-1.847
			C618.521,452.042,619.271,452.703,619.346,453.889 M620.574,454.816v-0.224c0-2.221-1.259-3.554-3.225-3.554
			c-1.95,0-3.345,1.469-3.345,3.584c0,2.19,1.379,3.659,3.42,3.659c1.38,0,2.431-0.614,3.104-1.829l-0.869-0.585
			c-0.555,0.976-1.275,1.456-2.175,1.456c-1.291,0-2.222-0.946-2.222-2.402v-0.105H620.574z M610.135,458.417l3.299-7.123h-1.289
			l-2.024,4.679l-2.01-4.679h-1.289L610.135,458.417z M604.166,448.067c0,0.48,0.375,0.84,0.839,0.84s0.839-0.359,0.839-0.824
			c0-0.464-0.375-0.854-0.839-0.854S604.166,447.604,604.166,448.067 M604.437,457.997h1.138v-6.703h-1.138V457.997z
			 M601.496,453.889h-4.082c0.12-1.141,0.946-1.847,2.041-1.847C600.671,452.042,601.421,452.703,601.496,453.889 M602.724,454.816
			v-0.224c0-2.221-1.258-3.554-3.224-3.554c-1.951,0-3.344,1.469-3.344,3.584c0,2.19,1.378,3.659,3.419,3.659
			c1.381,0,2.43-0.614,3.104-1.829l-0.868-0.585c-0.555,0.976-1.274,1.456-2.176,1.456c-1.29,0-2.221-0.946-2.221-2.402v-0.105
			H602.724z M595.224,456.409c-0.704,0.51-1.35,0.765-2.069,0.765c-1.396,0-2.4-1.08-2.4-2.431c0-1.592,1.021-2.581,2.49-2.581
			c0.66,0,1.29,0.21,1.86,0.585v-1.229c-0.615-0.299-1.335-0.464-2.085-0.464c-2.011,0-3.493,1.468-3.493,3.659
			c0,2.116,1.362,3.569,3.447,3.569c0.87,0,1.636-0.181,2.25-0.539V456.409z M587.201,453.889h-4.082
			c0.12-1.141,0.946-1.847,2.041-1.847C586.376,452.042,587.126,452.703,587.201,453.889 M588.429,454.816v-0.224
			c0-2.221-1.258-3.554-3.224-3.554c-1.951,0-3.344,1.469-3.344,3.584c0,2.19,1.378,3.659,3.419,3.659
			c1.381,0,2.43-0.614,3.104-1.829l-0.868-0.585c-0.555,0.976-1.274,1.456-2.176,1.456c-1.29,0-2.221-0.946-2.221-2.402v-0.105
			H588.429z M577.271,457.997h1.138v-3.27c0-1.756,0.6-2.626,1.814-2.626c0.21,0,0.45,0.045,0.705,0.136l0.391-1.033
			c-0.255-0.09-0.511-0.135-0.78-0.135c-1.02,0-1.65,0.479-2.249,1.617v-1.393h-1.019V457.997z M570.026,453.889h-4.081
			c0.12-1.141,0.944-1.847,2.04-1.847C569.201,452.042,569.951,452.703,570.026,453.889 M571.255,454.816v-0.224
			c0-2.221-1.259-3.554-3.225-3.554c-1.95,0-3.344,1.469-3.344,3.584c0,2.19,1.379,3.659,3.42,3.659c1.38,0,2.43-0.614,3.104-1.829
			l-0.869-0.585c-0.555,0.976-1.274,1.456-2.175,1.456c-1.291,0-2.221-0.946-2.221-2.402v-0.105H571.255z M560.816,458.417
			l3.299-7.123h-1.29l-2.024,4.679l-2.01-4.679h-1.289L560.816,458.417z M555.282,454.713c0,1.546-0.841,2.431-2.191,2.431
			c-1.426,0-2.235-0.915-2.235-2.536c0-1.529,0.81-2.416,2.19-2.416C554.336,452.191,555.282,453.153,555.282,454.713
			 M556.39,451.294h-1.138v1.258c-0.51-0.99-1.336-1.498-2.461-1.498c-1.876,0-3.148,1.363-3.148,3.614
			c0,2.19,1.287,3.614,3.209,3.614c1.034,0,1.891-0.523,2.431-1.498v1.213h1.107V451.294z M541.872,457.997h1.138v-3.464
			c0-0.735,0-1.29,0.391-1.771c0.375-0.465,0.961-0.72,1.636-0.72c1.201,0,1.786,0.66,1.786,2.011v3.944h1.138v-4.56
			c0-1.516-0.958-2.384-2.519-2.384c-1.051,0-1.861,0.404-2.446,1.273v-5.684h-1.123V457.997z M530.727,461.252h1.291l4.497-9.958
			h-1.259l-2.069,4.807l-1.949-4.807h-1.32l2.624,6.035L530.727,461.252z M527.667,454.713c0,1.546-0.84,2.431-2.19,2.431
			c-1.426,0-2.236-0.915-2.236-2.536c0-1.529,0.811-2.416,2.19-2.416C526.722,452.191,527.667,453.153,527.667,454.713
			 M528.775,451.294h-1.139v1.258c-0.51-0.99-1.335-1.498-2.461-1.498c-1.876,0-3.148,1.363-3.148,3.614
			c0,2.19,1.288,3.614,3.209,3.614c1.036,0,1.891-0.523,2.431-1.498v1.213h1.108V451.294z M519.222,457.997h1.14v-4.56
			c0-1.516-0.899-2.384-2.385-2.384c-1.021,0-1.801,0.435-2.386,1.363c-0.39-0.899-1.169-1.363-2.249-1.363
			c-1.006,0-1.771,0.419-2.311,1.273v-1.033h-1.139v6.703h1.139v-3.464c0-0.165-0.016-0.33-0.016-0.48
			c0-0.51,0.061-0.931,0.346-1.291c0.359-0.465,0.915-0.72,1.531-0.72c1.14,0,1.664,0.66,1.664,2.011v3.944h1.14v-3.464
			c0-0.15-0.016-0.285-0.016-0.42c0-0.556,0.075-0.977,0.36-1.352c0.36-0.465,0.9-0.72,1.516-0.72c1.141,0,1.665,0.66,1.665,2.011
			V457.997z M498.808,456.874c0.524,0.943,1.394,1.408,2.64,1.408c1.484,0,2.443-0.884,2.443-2.128c0-1.097-0.644-1.576-1.948-1.996
			c-1.111-0.36-1.727-0.45-1.727-1.155c0-0.586,0.465-1.006,1.141-1.006c0.706,0,1.261,0.345,1.53,0.96l0.93-0.57
			c-0.36-0.854-1.229-1.333-2.385-1.333c-1.426,0-2.368,0.854-2.368,2.024c0,1.319,0.987,1.604,2.639,2.175
			c0.705,0.24,1.051,0.51,1.051,1.021c0,0.585-0.496,1.006-1.261,1.006c-0.766,0-1.336-0.346-1.711-1.065L498.808,456.874z
			 M495.883,452.237v5.76h1.139v-5.76h1.26v-0.943h-1.26v-2.7h-1.139v2.7h-1.229v0.943H495.883z M487.423,457.997h1.139v-3.464
			c0-0.735,0-1.29,0.39-1.771c0.375-0.465,0.961-0.72,1.636-0.72c1.201,0,1.786,0.66,1.786,2.011v3.944h1.138v-4.56
			c0-1.516-0.958-2.384-2.519-2.384c-1.05,0-1.861,0.404-2.431,1.273v-1.033h-1.139V457.997z M484.543,453.889h-4.082
			c0.12-1.141,0.946-1.847,2.041-1.847C483.718,452.042,484.468,452.703,484.543,453.889 M485.771,454.816v-0.224
			c0-2.221-1.259-3.554-3.225-3.554c-1.951,0-3.344,1.469-3.344,3.584c0,2.19,1.378,3.659,3.419,3.659
			c1.381,0,2.43-0.614,3.104-1.829l-0.869-0.585c-0.555,0.976-1.274,1.456-2.176,1.456c-1.291,0-2.221-0.946-2.221-2.402v-0.105
			H485.771z M476.023,448.067c0,0.48,0.375,0.84,0.839,0.84s0.839-0.359,0.839-0.824c0-0.464-0.375-0.854-0.839-0.854
			S476.023,447.604,476.023,448.067 M476.293,457.997h1.138v-6.703h-1.138V457.997z M472.604,452.237v5.76h1.138v-5.76h1.26v-0.943
			h-1.26v-2.7h-1.138v2.7h-1.23v0.943H472.604z M469.093,454.713c0,1.546-0.84,2.431-2.189,2.431c-1.426,0-2.236-0.915-2.236-2.536
			c0-1.529,0.811-2.416,2.191-2.416C468.148,452.191,469.093,453.153,469.093,454.713 M470.202,451.294h-1.138v1.258
			c-0.512-0.99-1.336-1.498-2.462-1.498c-1.875,0-3.148,1.363-3.148,3.614c0,2.19,1.288,3.614,3.208,3.614
			c1.036,0,1.891-0.523,2.431-1.498v1.213h1.109V451.294z M457.812,453.182h0.975c1.111,0,1.981-0.03,2.701-0.539
			c0.674-0.479,1.094-1.363,1.094-2.415c0-1.05-0.42-1.936-1.094-2.415c-0.72-0.509-1.605-0.539-2.701-0.539h-2.248v10.724h1.273
			V453.182z M457.812,452.029v-3.588h0.614c1.861,0,2.777,0.301,2.777,1.861c0,1.486-0.931,1.727-2.777,1.727H457.812z
			 M447.884,457.278c0,0.479,0.374,0.854,0.869,0.854c0.494,0,0.884-0.374,0.884-0.854s-0.39-0.869-0.884-0.869
			C448.273,456.409,447.884,456.799,447.884,457.278 M442.889,460.879l0.78,0.403c1.154-2.144,1.738-4.56,1.738-7.244
			c0-2.775-0.539-5.161-1.738-7.274l-0.78,0.358c1.08,2.13,1.545,4.351,1.545,6.916
			C444.434,456.678,443.969,458.898,442.889,460.879 M436.739,456.874c0.523,0.943,1.393,1.408,2.639,1.408
			c1.485,0,2.444-0.884,2.444-2.128c0-1.097-0.645-1.576-1.949-1.996c-1.111-0.36-1.726-0.45-1.726-1.155
			c0-0.586,0.465-1.006,1.141-1.006c0.705,0,1.261,0.345,1.531,0.96l0.928-0.57c-0.359-0.854-1.228-1.333-2.384-1.333
			c-1.426,0-2.369,0.854-2.369,2.024c0,1.319,0.988,1.604,2.639,2.175c0.706,0.24,1.051,0.51,1.051,1.021
			c0,0.585-0.495,1.006-1.261,1.006s-1.336-0.346-1.71-1.065L436.739,456.874z M433.679,448.067c0,0.48,0.375,0.84,0.84,0.84
			c0.464,0,0.839-0.359,0.839-0.824c0-0.464-0.375-0.854-0.839-0.854C434.054,447.229,433.679,447.604,433.679,448.067
			 M433.949,457.997h1.138v-6.703h-1.138V457.997z M427.154,456.874c0.524,0.943,1.393,1.408,2.639,1.408
			c1.486,0,2.444-0.884,2.444-2.128c0-1.097-0.645-1.576-1.949-1.996c-1.11-0.36-1.726-0.45-1.726-1.155
			c0-0.586,0.465-1.006,1.141-1.006c0.705,0,1.261,0.345,1.531,0.96l0.928-0.57c-0.359-0.854-1.229-1.333-2.384-1.333
			c-1.426,0-2.369,0.854-2.369,2.024c0,1.319,0.988,1.604,2.639,2.175c0.706,0.24,1.051,0.51,1.051,1.021
			c0,0.585-0.494,1.006-1.261,1.006c-0.766,0-1.336-0.346-1.71-1.065L427.154,456.874z M421.064,461.252h1.29l4.498-9.958h-1.26
			l-2.069,4.807l-1.949-4.807h-1.32l2.624,6.035L421.064,461.252z M417.839,457.997h1.139v-11.354h-1.139V457.997z M414.45,454.713
			c0,1.546-0.841,2.431-2.191,2.431c-1.426,0-2.235-0.915-2.235-2.536c0-1.529,0.81-2.416,2.19-2.416
			C413.504,452.191,414.45,453.153,414.45,454.713 M415.558,451.294h-1.138v1.258c-0.511-0.99-1.336-1.498-2.462-1.498
			c-1.875,0-3.147,1.363-3.147,3.614c0,2.19,1.287,3.614,3.209,3.614c1.034,0,1.89-0.523,2.431-1.498v1.213h1.107V451.294z
			 M401.04,457.997h1.138v-3.464c0-0.735,0-1.29,0.391-1.771c0.375-0.465,0.96-0.72,1.636-0.72c1.2,0,1.786,0.66,1.786,2.011v3.944
			h1.138v-4.56c0-1.516-0.959-2.384-2.519-2.384c-1.052,0-1.861,0.404-2.432,1.273v-1.033h-1.138V457.997z M397.71,454.713
			c0,1.546-0.84,2.431-2.19,2.431c-1.427,0-2.236-0.915-2.236-2.536c0-1.529,0.81-2.416,2.19-2.416
			C396.765,452.191,397.71,453.153,397.71,454.713 M398.818,451.294h-1.139v1.258c-0.51-0.99-1.336-1.498-2.461-1.498
			c-1.876,0-3.148,1.363-3.148,3.614c0,2.19,1.288,3.614,3.209,3.614c1.035,0,1.891-0.523,2.431-1.498v1.213h1.108V451.294z
			 M384.735,457.997h1.138v-11.354h-1.138V457.997z M381.345,454.713c0,1.546-0.84,2.431-2.19,2.431
			c-1.425,0-2.236-0.915-2.236-2.536c0-1.529,0.812-2.416,2.191-2.416C380.4,452.191,381.345,453.153,381.345,454.713
			 M382.453,451.294h-1.138v1.258c-0.511-0.99-1.335-1.498-2.461-1.498c-1.876,0-3.149,1.363-3.149,3.614
			c0,2.19,1.288,3.614,3.209,3.614c1.036,0,1.891-0.523,2.431-1.498v1.213h1.108V451.294z M374.699,456.409
			c-0.705,0.51-1.351,0.765-2.07,0.765c-1.395,0-2.399-1.08-2.399-2.431c0-1.592,1.02-2.581,2.489-2.581
			c0.66,0,1.29,0.21,1.86,0.585v-1.229c-0.615-0.299-1.335-0.464-2.085-0.464c-2.01,0-3.494,1.468-3.494,3.659
			c0,2.116,1.364,3.569,3.449,3.569c0.87,0,1.635-0.181,2.25-0.539V456.409z M365.791,448.067c0,0.48,0.374,0.84,0.839,0.84
			c0.464,0,0.839-0.359,0.839-0.824c0-0.464-0.375-0.854-0.839-0.854C366.165,447.229,365.791,447.604,365.791,448.067
			 M366.062,457.997h1.138v-6.703h-1.138V457.997z M362.371,452.237v5.76h1.138v-5.76h1.261v-0.943h-1.261v-2.7h-1.138v2.7h-1.23
			v0.943H362.371z M355.456,456.874c0.524,0.943,1.393,1.408,2.639,1.408c1.486,0,2.444-0.884,2.444-2.128
			c0-1.097-0.644-1.576-1.949-1.996c-1.11-0.36-1.726-0.45-1.726-1.155c0-0.586,0.465-1.006,1.141-1.006
			c0.705,0,1.261,0.345,1.531,0.96l0.928-0.57c-0.358-0.854-1.228-1.333-2.384-1.333c-1.426,0-2.369,0.854-2.369,2.024
			c0,1.319,0.988,1.604,2.639,2.175c0.706,0.24,1.052,0.51,1.052,1.021c0,0.585-0.496,1.006-1.262,1.006s-1.336-0.346-1.71-1.065
			L355.456,456.874z M352.396,448.067c0,0.48,0.375,0.84,0.839,0.84s0.839-0.359,0.839-0.824c0-0.464-0.375-0.854-0.839-0.854
			S352.396,447.604,352.396,448.067 M352.666,457.997h1.138v-6.703h-1.138V457.997z M348.977,452.237v5.76h1.138v-5.76h1.26v-0.943
			h-1.26v-2.7h-1.138v2.7h-1.23v0.943H348.977z M345.466,454.713c0,1.546-0.84,2.431-2.189,2.431c-1.427,0-2.236-0.915-2.236-2.536
			c0-1.529,0.81-2.416,2.191-2.416C344.521,452.191,345.466,453.153,345.466,454.713 M346.575,451.294h-1.139v1.258
			c-0.511-0.99-1.335-1.498-2.462-1.498c-1.875,0-3.148,1.363-3.148,3.614c0,2.19,1.289,3.614,3.209,3.614
			c1.036,0,1.891-0.523,2.431-1.498v1.213h1.109V451.294z M336.707,452.237v5.76h1.138v-5.76h1.261v-0.943h-1.261v-2.7h-1.138v2.7
			h-1.229v0.943H336.707z M329.792,456.874c0.524,0.943,1.394,1.408,2.639,1.408c1.485,0,2.444-0.884,2.444-2.128
			c0-1.097-0.644-1.576-1.949-1.996c-1.11-0.36-1.726-0.45-1.726-1.155c0-0.586,0.465-1.006,1.141-1.006
			c0.705,0,1.262,0.345,1.53,0.96l0.929-0.57c-0.359-0.854-1.228-1.333-2.384-1.333c-1.426,0-2.369,0.854-2.369,2.024
			c0,1.319,0.988,1.604,2.64,2.175c0.704,0.24,1.051,0.51,1.051,1.021c0,0.585-0.496,1.006-1.261,1.006
			c-0.767,0-1.337-0.346-1.712-1.065L329.792,456.874z M318.36,454.668c0-1.425,1.08-2.536,2.431-2.536
			c1.335,0,2.416,1.111,2.416,2.536c0,1.426-1.081,2.536-2.416,2.536C319.455,457.204,318.36,456.094,318.36,454.668
			 M317.147,454.668c0,0.975,0.358,1.846,1.062,2.551c0.69,0.689,1.591,1.063,2.581,1.063c0.975,0,1.876-0.39,2.581-1.078
			c0.689-0.675,1.063-1.562,1.063-2.536c0-0.976-0.374-1.876-1.063-2.551c-0.705-0.689-1.591-1.063-2.581-1.063
			s-1.891,0.359-2.581,1.048C317.506,452.792,317.147,453.692,317.147,454.668 M309.407,457.997h1.138v-3.464
			c0-0.735,0-1.29,0.391-1.771c0.376-0.465,0.961-0.72,1.636-0.72c1.201,0,1.786,0.66,1.786,2.011v3.944h1.138v-4.56
			c0-1.516-0.958-2.384-2.519-2.384c-1.051,0-1.861,0.404-2.432,1.273v-1.033h-1.138V457.997z M307.725,460.879
			c-1.079-1.98-1.545-4.201-1.545-6.841c0-2.565,0.466-4.786,1.545-6.916l-0.779-0.358c-1.199,2.113-1.738,4.499-1.738,7.274
			c0,2.685,0.584,5.101,1.738,7.244L307.725,460.879z M292.532,457.997h1.138v-3.464c0-0.735,0-1.29,0.392-1.771
			c0.375-0.465,0.96-0.72,1.635-0.72c1.201,0,1.786,0.66,1.786,2.011v3.944h1.138v-4.56c0-1.516-0.958-2.384-2.518-2.384
			c-1.052,0-1.861,0.404-2.433,1.273v-1.033h-1.138V457.997z M286.337,451.054h-0.18l-2.04,4.814l-1.785-4.574h-1.275l2.985,7.123
			l2.205-5.145l2.204,5.145l2.985-7.123h-1.29l-1.801,4.574L286.337,451.054z M274.441,454.668c0-1.425,1.08-2.536,2.431-2.536
			c1.335,0,2.416,1.111,2.416,2.536c0,1.426-1.081,2.536-2.416,2.536C275.536,457.204,274.441,456.094,274.441,454.668
			 M273.229,454.668c0,0.975,0.358,1.846,1.062,2.551c0.69,0.689,1.59,1.063,2.581,1.063c0.975,0,1.875-0.39,2.58-1.078
			c0.688-0.675,1.063-1.562,1.063-2.536c0-0.976-0.375-1.876-1.063-2.551c-0.705-0.689-1.59-1.063-2.58-1.063
			c-0.991,0-1.891,0.359-2.581,1.048C273.587,452.792,273.229,453.692,273.229,454.668 M265.488,457.997h1.138v-3.464
			c0-0.735,0-1.29,0.39-1.771c0.375-0.465,0.962-0.72,1.637-0.72c1.201,0,1.786,0.66,1.786,2.011v3.944h1.138v-4.56
			c0-1.516-0.958-2.384-2.52-2.384c-1.05,0-1.86,0.404-2.431,1.273v-1.033h-1.138V457.997z M258.184,457.997h1.138l0.015-3.539
			l3.45,3.539h1.604l-3.645-3.629l3.345-3.074h-1.529l-3.226,3.044l-0.015-7.694h-1.138V457.997z M249.888,457.997h1.139v-3.464
			c0-0.735,0-1.29,0.39-1.771c0.375-0.465,0.961-0.72,1.636-0.72c1.201,0,1.786,0.66,1.786,2.011v3.944h1.139v-4.56
			c0-1.516-0.958-2.384-2.52-2.384c-1.05,0-1.861,0.404-2.431,1.273v-1.033h-1.139V457.997z M242.806,451.294h-1.138v4.004
			c0,1.966,1.063,2.984,3.014,2.984c2.012,0,3.06-1.049,3.06-3.074v-3.914h-1.138v3.299c0,1.771-0.42,2.596-1.892,2.596
			c-1.471,0-1.906-0.824-1.906-2.596V451.294z M234.451,454.504h-8.773v0.853h8.773V454.504z M234.451,451.699h-8.773v0.853h8.773
			V451.699z M213.242,454.668c0-1.591,0.87-2.506,2.25-2.506c1.336,0,2.176,0.96,2.176,2.641c0,1.486-0.825,2.356-2.161,2.356
			C214.157,457.159,213.242,456.184,213.242,454.668 M212.133,461.252h1.139v-4.468c0.511,0.988,1.336,1.498,2.446,1.498
			c1.875,0,3.163-1.349,3.163-3.614c0-2.206-1.288-3.614-3.208-3.614c-1.036,0-1.921,0.524-2.445,1.498v-1.258h-1.095V461.252z
			 M203.988,452.343c0,0.48,0.375,0.869,0.869,0.869c0.495,0,0.87-0.389,0.87-0.869c0-0.479-0.391-0.869-0.87-0.869
			S203.988,451.864,203.988,452.343 M202.864,460.129l0.824,0.328l1.813-3.885l-1.244-0.434L202.864,460.129z M196.339,456.874
			c0.524,0.943,1.394,1.408,2.64,1.408c1.484,0,2.443-0.884,2.443-2.128c0-1.097-0.644-1.576-1.949-1.996
			c-1.11-0.36-1.726-0.45-1.726-1.155c0-0.586,0.465-1.006,1.141-1.006c0.705,0,1.262,0.345,1.53,0.96l0.929-0.57
			c-0.359-0.854-1.228-1.333-2.384-1.333c-1.426,0-2.369,0.854-2.369,2.024c0,1.319,0.988,1.604,2.64,2.175
			c0.705,0.24,1.051,0.51,1.051,1.021c0,0.585-0.496,1.006-1.261,1.006c-0.767,0-1.336-0.346-1.711-1.065L196.339,456.874z
			 M193.279,448.067c0,0.48,0.375,0.84,0.839,0.84s0.839-0.359,0.839-0.824c0-0.464-0.375-0.854-0.839-0.854
			S193.279,447.604,193.279,448.067 M193.549,457.997h1.139v-6.703h-1.139V457.997z M186.754,456.874
			c0.524,0.943,1.394,1.408,2.64,1.408c1.485,0,2.443-0.884,2.443-2.128c0-1.097-0.644-1.576-1.949-1.996
			c-1.11-0.36-1.726-0.45-1.726-1.155c0-0.586,0.465-1.006,1.141-1.006c0.705,0,1.262,0.345,1.531,0.96l0.928-0.57
			c-0.358-0.854-1.228-1.333-2.384-1.333c-1.426,0-2.369,0.854-2.369,2.024c0,1.319,0.988,1.604,2.64,2.175
			c0.706,0.24,1.051,0.51,1.051,1.021c0,0.585-0.496,1.006-1.261,1.006c-0.767,0-1.336-0.346-1.71-1.065L186.754,456.874z
			 M180.664,461.252h1.289l4.499-9.958h-1.26l-2.069,4.807l-1.949-4.807h-1.319l2.624,6.035L180.664,461.252z M177.439,457.997
			h1.138v-11.354h-1.138V457.997z M174.049,454.713c0,1.546-0.84,2.431-2.189,2.431c-1.426,0-2.236-0.915-2.236-2.536
			c0-1.529,0.811-2.416,2.19-2.416C173.104,452.191,174.049,453.153,174.049,454.713 M175.158,451.294h-1.139v1.258
			c-0.511-0.99-1.335-1.498-2.461-1.498c-1.875,0-3.149,1.363-3.149,3.614c0,2.19,1.289,3.614,3.209,3.614
			c1.036,0,1.891-0.523,2.431-1.498v1.213h1.109V451.294z M160.64,457.997h1.139v-3.464c0-0.735,0-1.29,0.39-1.771
			c0.375-0.465,0.96-0.72,1.636-0.72c1.2,0,1.786,0.66,1.786,2.011v3.944h1.139v-4.56c0-1.516-0.959-2.384-2.52-2.384
			c-1.051,0-1.861,0.404-2.431,1.273v-1.033h-1.139V457.997z M157.311,454.713c0,1.546-0.842,2.431-2.191,2.431
			c-1.426,0-2.236-0.915-2.236-2.536c0-1.529,0.811-2.416,2.191-2.416C156.364,452.191,157.311,453.153,157.311,454.713
			 M158.418,451.294h-1.138v1.258c-0.51-0.99-1.336-1.498-2.461-1.498c-1.876,0-3.149,1.363-3.149,3.614
			c0,2.19,1.288,3.614,3.209,3.614c1.035,0,1.892-0.523,2.432-1.498v1.213h1.107V451.294z M146.313,456.409
			c-0.705,0.51-1.351,0.765-2.07,0.765c-1.396,0-2.4-1.08-2.4-2.431c0-1.592,1.021-2.581,2.49-2.581c0.66,0,1.29,0.21,1.86,0.585
			v-1.229c-0.615-0.299-1.335-0.464-2.085-0.464c-2.011,0-3.493,1.468-3.493,3.659c0,2.116,1.363,3.569,3.448,3.569
			c0.869,0,1.635-0.181,2.25-0.539V456.409z M133.383,454.668c0-1.425,1.081-2.536,2.432-2.536c1.336,0,2.416,1.111,2.416,2.536
			c0,1.426-1.08,2.536-2.416,2.536C134.479,457.204,133.383,456.094,133.383,454.668 M132.17,454.668
			c0,0.975,0.36,1.846,1.064,2.551c0.689,0.689,1.59,1.063,2.58,1.063c0.976,0,1.876-0.39,2.581-1.078
			c0.688-0.675,1.062-1.562,1.062-2.536c0-0.976-0.374-1.876-1.062-2.551c-0.705-0.689-1.591-1.063-2.581-1.063
			s-1.891,0.359-2.58,1.048C132.53,452.792,132.17,453.692,132.17,454.668 M124.43,457.997h1.139v-3.464c0-0.735,0-1.29,0.391-1.771
			c0.375-0.465,0.96-0.72,1.635-0.72c1.201,0,1.786,0.66,1.786,2.011v3.944h1.139v-4.56c0-1.516-0.958-2.384-2.519-2.384
			c-1.051,0-1.861,0.404-2.447,1.273v-5.684h-1.123V457.997z M118.88,455.237h3.418v-1.153h-3.418V455.237z M115.386,452.237v5.76
			h1.139v-5.76h1.26v-0.943h-1.26v-2.7h-1.139v2.7h-1.229v0.943H115.386z M108.471,456.874c0.524,0.943,1.394,1.408,2.64,1.408
			c1.484,0,2.443-0.884,2.443-2.128c0-1.097-0.644-1.576-1.948-1.996c-1.111-0.36-1.727-0.45-1.727-1.155
			c0-0.586,0.465-1.006,1.142-1.006c0.704,0,1.26,0.345,1.529,0.96l0.93-0.57c-0.36-0.854-1.229-1.333-2.385-1.333
			c-1.426,0-2.368,0.854-2.368,2.024c0,1.319,0.987,1.604,2.639,2.175c0.705,0.24,1.051,0.51,1.051,1.021
			c0,0.585-0.496,1.006-1.261,1.006c-0.767,0-1.336-0.346-1.711-1.065L108.471,456.874z M101.389,454.668
			c0-1.425,1.08-2.536,2.432-2.536c1.335,0,2.416,1.111,2.416,2.536c0,1.426-1.081,2.536-2.416,2.536
			C102.484,457.204,101.389,456.094,101.389,454.668 M100.176,454.668c0,0.975,0.359,1.846,1.063,2.551
			c0.689,0.689,1.59,1.063,2.581,1.063c0.975,0,1.876-0.39,2.581-1.078c0.688-0.675,1.062-1.562,1.062-2.536
			c0-0.976-0.375-1.876-1.062-2.551c-0.705-0.689-1.591-1.063-2.581-1.063c-0.991,0-1.892,0.359-2.581,1.048
			C100.535,452.792,100.176,453.692,100.176,454.668 M94.564,453.182h0.976c1.11,0,1.981-0.03,2.7-0.539
			c0.675-0.479,1.094-1.363,1.094-2.415c0-1.05-0.419-1.936-1.094-2.415c-0.719-0.509-1.605-0.539-2.7-0.539h-2.249v10.724h1.273
			V453.182z M94.564,452.029v-3.588h0.614c1.861,0,2.777,0.301,2.777,1.861c0,1.486-0.931,1.727-2.777,1.727H94.564z"/>
	</g>
</g>
</svg>
