<?xml version="1.0" encoding="utf-8"?>
<!-- Generator: Adobe Illustrator 15.1.0, SVG Export Plug-In . SVG Version: 6.00 Build 0)  -->
<!DOCTYPE svg PUBLIC "-//W3C//DTD SVG 1.1//EN" "http://www.w3.org/Graphics/SVG/1.1/DTD/svg11.dtd">
<svg version="1.1" id="art" xmlns="http://www.w3.org/2000/svg" xmlns:xlink="http://www.w3.org/1999/xlink" x="0px" y="0px"
	 width="912px" height="342px" viewBox="0 0 912 342" enable-background="new 0 0 912 342" xml:space="preserve">
<rect y="320" fill="#F3E3D5" width="912" height="20"/>
<rect fill="#F3E3D5" width="912" height="40"/>
<rect y="80" fill="#F3E3D5" width="912" height="40"/>
<rect y="160" fill="#F3E3D5" width="912" height="40"/>
<rect y="240" fill="#F3E3D5" width="912" height="40"/>
<g>
	<defs>
		<rect id="SVGID_1_" x="-9" y="-1" width="930" height="342.5"/>
	</defs>
	<clipPath id="SVGID_2_">
		<use xlink:href="#SVGID_1_"  overflow="visible"/>
	</clipPath>
	<line clip-path="url(#SVGID_2_)" fill="none" stroke="#6D6E71" stroke-dasharray="4,4" x1="456" y1="80" x2="456" y2="340"/>
	
		<line clip-path="url(#SVGID_2_)" fill="none" stroke="#6D6E71" stroke-dasharray="4,4" x1="628.125" y1="80" x2="628.125" y2="340"/>
	
		<line clip-path="url(#SVGID_2_)" fill="none" stroke="#6D6E71" stroke-dasharray="4,4" x1="284.375" y1="80" x2="284.375" y2="340"/>
</g>
<rect x="121.826" y="130.4" fill="#FCD1AE" width="71" height="209.6"/>
<rect x="293.826" y="117.2" fill="#FCD1AE" width="71" height="222.8"/>
<rect x="465.763" y="113.6" fill="#FCD1AE" width="71" height="226.4"/>
<rect x="637.701" y="159.2" fill="#FCD1AE" width="71" height="180.8"/>
<rect x="203.112" y="231.6" fill="#D1D3D4" width="71" height="108.4"/>
<rect x="374.987" y="286.8" fill="#D1D3D4" width="71" height="53.2"/>
<rect x="546.924" y="216.8" fill="#D1D3D4" width="71" height="123.2"/>
<rect x="718.862" y="190" fill="#D1D3D4" width="71" height="150"/>
<g>
	<defs>
		<rect id="SVGID_3_" x="-9" y="-1" width="930" height="342.5"/>
	</defs>
	<clipPath id="SVGID_4_">
		<use xlink:href="#SVGID_3_"  overflow="visible"/>
	</clipPath>
	<line clip-path="url(#SVGID_4_)" fill="none" stroke="#F9A25E" stroke-width="3" x1="0" y1="340" x2="912" y2="340"/>
</g>
</svg>
