<?xml version="1.0" encoding="utf-8"?>
<!-- Generator: Adobe Illustrator 15.1.0, SVG Export Plug-In . SVG Version: 6.00 Build 0)  -->
<!DOCTYPE svg PUBLIC "-//W3C//DTD SVG 1.1//EN" "http://www.w3.org/Graphics/SVG/1.1/DTD/svg11.dtd">
<svg version="1.1" id="art" xmlns="http://www.w3.org/2000/svg" xmlns:xlink="http://www.w3.org/1999/xlink" x="0px" y="0px"
	 width="912px" height="313px" viewBox="0 0 912 313" enable-background="new 0 0 912 313" xml:space="preserve">
<g>
	<defs>
		<rect id="SVGID_1_" x="181.859" width="548.281" height="313"/>
	</defs>
	<clipPath id="SVGID_2_">
		<use xlink:href="#SVGID_1_"  overflow="visible"/>
	</clipPath>
	<rect x="188.694" y="23.292" clip-path="url(#SVGID_2_)" fill="#C0C1C2" width="65.308" height="30.375"/>
	<rect x="188.694" y="53.667" clip-path="url(#SVGID_2_)" fill="#E2E2E3" width="65.307" height="258.194"/>
	<rect x="323.106" y="23.292" clip-path="url(#SVGID_2_)" fill="#F9A25E" width="131.375" height="30.375"/>
	<rect x="255.521" y="23.292" clip-path="url(#SVGID_2_)" fill="#F9A25E" width="66.067" height="30.375"/>
	<rect x="456.794" y="23.292" clip-path="url(#SVGID_2_)" fill="#006227" width="266.512" height="30.375"/>
	<rect x="456.76" y="53.667" clip-path="url(#SVGID_2_)" fill="#CCE0D4" width="266.546" height="258.194"/>
	<rect x="323.106" y="53.667" clip-path="url(#SVGID_2_)" fill="#FBDAC1" width="131.375" height="258.194"/>
	<g clip-path="url(#SVGID_2_)">
		<text transform="matrix(1 0 0 1 526.0117 195.2715)"><tspan x="0" y="0" fill="#F9A25E" font-family="'FuturaBT-Medium'" font-size="12.1503">C</tspan><tspan x="8.675" y="0" fill="#F9A25E" font-family="'FuturaBT-Medium'" font-size="12.1503">i</tspan><tspan x="11.798" y="0" fill="#F9A25E" font-family="'FuturaBT-Medium'" font-size="12.1503">mzia </tspan><tspan x="41.565" y="0" fill="#F9A25E" font-family="'FuturaBT-Medium'" font-size="12.1503">+/</tspan><tspan x="56.826" y="0" fill="#F9A25E" font-family="'FuturaBT-Medium'" font-size="12.1503">- DMA</tspan><tspan x="92.692" y="0" fill="#F9A25E" font-family="'FuturaBT-Medium'" font-size="12.1503">R</tspan><tspan x="99.437" y="0" fill="#F9A25E" font-family="'FuturaBT-Medium'" font-size="12.1503">DS</tspan><tspan x="115.001" y="0" fill="#F9A25E" font-family="'FuturaBT-Medium'" font-size="12.1503">(s</tspan><tspan x="123.736" y="0" fill="#F9A25E" font-family="'FuturaBT-Medium'" font-size="12.1503">)</tspan></text>
	</g>
	<rect x="255.521" y="53.667" clip-path="url(#SVGID_2_)" fill="#FBDAC1" width="66.067" height="258.194"/>
	<g clip-path="url(#SVGID_2_)">
		<defs>
			<rect id="SVGID_3_" x="181.859" width="548.281" height="313"/>
		</defs>
		<clipPath id="SVGID_4_">
			<use xlink:href="#SVGID_3_"  overflow="visible"/>
		</clipPath>
		<g opacity="0.3" clip-path="url(#SVGID_4_)">
			<g>
				<defs>
					<rect id="SVGID_5_" x="448.786" y="22.533" width="14.428" height="290.087"/>
				</defs>
				<clipPath id="SVGID_6_">
					<use xlink:href="#SVGID_5_"  overflow="visible"/>
				</clipPath>
				
					<line clip-path="url(#SVGID_6_)" fill="none" stroke="#6D6E71" stroke-dasharray="4,4" x1="456" y1="23.292" x2="456" y2="311.861"/>
			</g>
		</g>
		<path clip-path="url(#SVGID_4_)" fill="none" stroke="#A8A8AA" stroke-width="5" d="M455.241,228.328h5.381
			c0,0,3.767,0,3.767-3.767v-38.76c0,0,0-3.037,3.038-3.037h5.958"/>
		<path clip-path="url(#SVGID_4_)" fill="none" stroke="#A8A8AA" stroke-width="5" d="M255.52,228.328h-4.622
			c0,0-3.767,0-3.767-3.767v-38.76c0,0,0-3.037-3.038-3.037h-5.958"/>
		<path clip-path="url(#SVGID_4_)" fill="none" stroke="#A8A8AA" stroke-width="5" d="M455.241,137.201h5.381
			c0,0,3.767,0,3.767,3.768v38.758c0,0,0,3.038,3.038,3.038h5.28"/>
		<path clip-path="url(#SVGID_4_)" fill="none" stroke="#A8A8AA" stroke-width="5" d="M255.52,137.201h-4.622
			c0,0-3.767,0-3.767,3.768v38.029c0,0,0,3.768-3.767,3.768H230.46"/>
		<path clip-path="url(#SVGID_4_)" fill="#FFFFFF" d="M475.744,152.389c0,0-3.037,0-3.037,3.038v54.676c0,0,0,3.037,3.037,3.037
			h227.817c0,0,3.038,0,3.038-3.037v-54.676c0,0,0-3.038-3.038-3.038H475.744z"/>
	</g>
	<polygon clip-path="url(#SVGID_2_)" fill="#A7A8AA" points="472.707,186.819 476.762,182.765 472.707,178.709 	"/>
	<g clip-path="url(#SVGID_2_)">
		<defs>
			<rect id="SVGID_7_" x="181.859" width="548.281" height="313"/>
		</defs>
		<clipPath id="SVGID_8_">
			<use xlink:href="#SVGID_7_"  overflow="visible"/>
		</clipPath>
		<path clip-path="url(#SVGID_8_)" fill="#FFFFFF" d="M200.223,152.389c0,0-3.038,0-3.038,3.038v54.676c0,0,0,3.037,3.038,3.037
			h35.691c0,0,3.038,0,3.038-3.037v-54.676c0,0,0-3.038-3.038-3.038H200.223z"/>
		
			<line clip-path="url(#SVGID_8_)" fill="none" stroke="#F9A25E" stroke-width="3" x1="188.694" y1="311.861" x2="723.306" y2="311.861"/>
		<path clip-path="url(#SVGID_8_)" fill="#F9A25E" d="M245.205,6.5c0,1.251-0.681,1.98-1.774,1.98c-1.154,0-1.811-0.741-1.811-2.054
			c0-1.239,0.656-1.956,1.774-1.956C244.439,4.471,245.205,5.237,245.205,6.5 M246.128,3.767h-0.948v1.008
			c-0.401-0.79-1.094-1.203-1.993-1.203c-1.519,0-2.552,1.081-2.552,2.892c0,1.762,1.045,2.904,2.6,2.904
			c0.838,0,1.543-0.425,1.969-1.203v0.911c0,0.498-0.024,0.899-0.231,1.239c-0.28,0.474-0.814,0.717-1.555,0.717
			c-1.045,0-1.616-0.474-1.616-1.276V9.684h-1.045c0.036,1.361,0.984,2.163,2.648,2.163c0.96,0,1.689-0.28,2.187-0.814
			c0.51-0.546,0.535-1.154,0.535-1.932V3.767z M234.342,9.198h0.923V6.391c0-0.596,0-1.045,0.315-1.434
			c0.304-0.376,0.778-0.583,1.325-0.583c0.972,0,1.446,0.535,1.446,1.628v3.196h0.923V5.504c0-1.227-0.778-1.932-2.042-1.932
			c-0.851,0-1.506,0.328-1.968,1.033V3.767h-0.923V9.198z M231.292,1.154c0,0.389,0.304,0.68,0.68,0.68
			c0.377,0,0.681-0.292,0.681-0.668s-0.304-0.692-0.681-0.692C231.596,0.474,231.292,0.777,231.292,1.154 M231.511,9.198h0.923
			V3.767h-0.923V9.198z M224.755,9.198h0.924V6.391c0-0.596,0-1.045,0.316-1.434c0.304-0.376,0.777-0.583,1.324-0.583
			c0.972,0,1.446,0.535,1.446,1.628v3.196h0.923V5.504c0-1.227-0.777-1.932-2.041-1.932c-0.851,0-1.507,0.328-1.968,1.033V3.767
			h-0.924V9.198z M222.423,5.869h-3.305c0.097-0.924,0.765-1.495,1.652-1.495C221.755,4.374,222.363,4.909,222.423,5.869
			 M223.42,6.622V6.439c0-1.798-1.021-2.879-2.612-2.879c-1.58,0-2.71,1.19-2.71,2.904c0,1.774,1.118,2.965,2.771,2.965
			c1.118,0,1.968-0.499,2.515-1.482l-0.705-0.474c-0.45,0.79-1.033,1.179-1.762,1.179c-1.045,0-1.798-0.766-1.798-1.944V6.622
			H223.42z M216.239,5.869h-3.305c0.097-0.924,0.765-1.495,1.652-1.495C215.571,4.374,216.178,4.909,216.239,5.869 M217.235,6.622
			V6.439c0-1.798-1.021-2.879-2.612-2.879c-1.58,0-2.71,1.19-2.71,2.904c0,1.774,1.118,2.965,2.771,2.965
			c1.117,0,1.968-0.499,2.515-1.482l-0.705-0.474c-0.449,0.79-1.033,1.179-1.762,1.179c-1.045,0-1.798-0.766-1.798-1.944V6.622
			H217.235z M208.195,9.198h0.924V6.549c0-1.421,0.486-2.126,1.47-2.126c0.17,0,0.364,0.037,0.571,0.109l0.316-0.838
			c-0.207-0.073-0.413-0.109-0.632-0.109c-0.826,0-1.336,0.389-1.822,1.312v-1.13h-0.827V9.198z M206.956,7.91
			c-0.571,0.413-1.093,0.62-1.677,0.62c-1.13,0-1.944-0.875-1.944-1.968c0-1.288,0.826-2.09,2.017-2.09
			c0.535,0,1.045,0.17,1.506,0.474V3.949c-0.498-0.243-1.081-0.376-1.689-0.376c-1.628,0-2.831,1.19-2.831,2.964
			c0,1.713,1.106,2.892,2.795,2.892c0.705,0,1.324-0.146,1.822-0.438V7.91z M199.86,4.374l-1.239-0.547
			c-0.79-0.353-1.166-0.777-1.166-1.397c0-0.741,0.546-1.263,1.324-1.263c0.62,0,1.094,0.34,1.47,0.996l0.851-0.547
			c-0.425-0.863-1.203-1.312-2.248-1.312c-1.446,0-2.442,0.923-2.442,2.138c0,1.057,0.559,1.811,1.713,2.296l1.057,0.45
			c0.899,0.389,1.349,0.96,1.349,1.738c0,0.947-0.693,1.616-1.738,1.616c-0.875,0-1.47-0.547-1.725-1.604l-0.936,0.462
			c0.328,1.288,1.288,2.017,2.661,2.017c1.677,0,2.783-1.069,2.783-2.661C201.574,5.662,200.99,4.872,199.86,4.374"/>
		<path clip-path="url(#SVGID_8_)" fill="#F9A25E" d="M428.032,6.512c0,1.288-0.705,2.017-1.822,2.017
			c-1.082,0-1.762-0.777-1.762-2.138c0-1.203,0.668-1.896,1.75-1.896C427.291,4.496,428.032,5.285,428.032,6.512 M428.931,0h-0.923
			v4.787c-0.413-0.802-1.081-1.215-1.981-1.215c-1.519,0-2.563,1.105-2.563,2.928c0,1.774,1.045,2.928,2.6,2.928
			c0.838,0,1.543-0.438,1.968-1.215v0.984h0.899V0z M421.543,5.869h-3.305c0.097-0.924,0.765-1.495,1.652-1.495
			C420.875,4.374,421.483,4.909,421.543,5.869 M422.54,6.622V6.439c0-1.798-1.021-2.879-2.613-2.879c-1.58,0-2.709,1.19-2.709,2.904
			c0,1.774,1.118,2.965,2.77,2.965c1.118,0,1.968-0.499,2.516-1.482l-0.705-0.474c-0.45,0.79-1.033,1.179-1.762,1.179
			c-1.045,0-1.798-0.766-1.798-1.944V6.622H422.54z M414.861,9.198h0.923V0h-0.923V9.198z M411.981,9.198h0.923V0h-0.923V9.198z
			 M405.626,6.5c0-1.154,0.875-2.054,1.969-2.054c1.082,0,1.956,0.899,1.956,2.054s-0.874,2.053-1.956,2.053
			S405.626,7.655,405.626,6.5 M404.643,6.5c0,0.79,0.291,1.494,0.863,2.065c0.558,0.559,1.287,0.863,2.089,0.863
			c0.79,0,1.519-0.316,2.09-0.875c0.559-0.547,0.863-1.264,0.863-2.053c0-0.79-0.304-1.519-0.863-2.066
			c-0.571-0.559-1.288-0.862-2.09-0.862c-0.802,0-1.531,0.292-2.089,0.85C404.934,4.981,404.643,5.71,404.643,6.5 M400.889,9.198
			h0.923V6.549c0-1.421,0.486-2.126,1.47-2.126c0.17,0,0.365,0.037,0.571,0.109l0.316-0.838c-0.206-0.073-0.413-0.109-0.632-0.109
			c-0.826,0-1.336,0.389-1.822,1.312v-1.13h-0.826V9.198z M397.936,4.532v4.666h0.924V4.532h1.021V3.767h-1.021V1.58h-0.924v2.187
			h-0.996v0.765H397.936z M391.084,9.198h0.923V6.391c0-0.596,0-1.045,0.316-1.434c0.304-0.376,0.778-0.583,1.324-0.583
			c0.972,0,1.445,0.535,1.445,1.628v3.196h0.924V5.504c0-1.227-0.778-1.932-2.042-1.932c-0.851,0-1.506,0.328-1.968,1.033V3.767
			h-0.923V9.198z M384.777,6.5c0-1.154,0.875-2.054,1.969-2.054c1.082,0,1.956,0.899,1.956,2.054s-0.874,2.053-1.956,2.053
			C385.664,8.554,384.777,7.655,384.777,6.5 M383.793,6.5c0,0.79,0.292,1.494,0.863,2.065c0.559,0.559,1.288,0.863,2.09,0.863
			c0.79,0,1.519-0.316,2.09-0.875c0.559-0.547,0.863-1.264,0.863-2.053c0-0.79-0.304-1.519-0.863-2.066
			c-0.571-0.559-1.288-0.862-2.09-0.862c-0.802,0-1.531,0.292-2.09,0.85C384.085,4.981,383.793,5.71,383.793,6.5 M383.003,7.91
			c-0.571,0.413-1.093,0.62-1.677,0.62c-1.129,0-1.944-0.875-1.944-1.968c0-1.288,0.826-2.09,2.017-2.09
			c0.535,0,1.045,0.17,1.506,0.474V3.949c-0.498-0.243-1.081-0.376-1.688-0.376c-1.628,0-2.832,1.19-2.832,2.964
			c0,1.713,1.106,2.892,2.795,2.892c0.705,0,1.325-0.146,1.822-0.438V7.91z M374.341,6.962h2.77V6.026h-2.77V6.962z M368.145,6.5
			c0-1.154,0.874-2.054,1.968-2.054c1.081,0,1.956,0.899,1.956,2.054s-0.875,2.053-1.956,2.053
			C369.032,8.554,368.145,7.655,368.145,6.5 M367.161,6.5c0,0.79,0.292,1.494,0.863,2.065c0.558,0.559,1.288,0.863,2.09,0.863
			c0.789,0,1.519-0.316,2.09-0.875c0.558-0.547,0.862-1.264,0.862-2.053c0-0.79-0.304-1.519-0.862-2.066
			c-0.571-0.559-1.289-0.862-2.09-0.862c-0.802,0-1.532,0.292-2.09,0.85C367.452,4.981,367.161,5.71,367.161,6.5 M361.596,6.512
			c0-1.227,0.753-2.017,1.847-2.017c1.081,0,1.75,0.692,1.75,1.896c0,1.361-0.692,2.138-1.774,2.138
			C362.3,8.529,361.596,7.8,361.596,6.512 M360.709,0v9.198h0.887V8.213c0.425,0.778,1.142,1.215,1.98,1.215
			c1.556,0,2.601-1.154,2.601-2.928c0-1.823-1.045-2.928-2.564-2.928c-0.899,0-1.567,0.413-1.98,1.215V0H360.709z M358.376,5.869
			h-3.305c0.097-0.924,0.765-1.495,1.652-1.495C357.708,4.374,358.315,4.909,358.376,5.869 M359.373,6.622V6.439
			c0-1.798-1.021-2.879-2.613-2.879c-1.58,0-2.709,1.19-2.709,2.904c0,1.774,1.118,2.965,2.771,2.965
			c1.118,0,1.968-0.499,2.515-1.482l-0.705-0.474c-0.449,0.79-1.033,1.179-1.762,1.179c-1.045,0-1.798-0.766-1.798-1.944V6.622
			H359.373z M353.297,7.91c-0.572,0.413-1.094,0.62-1.677,0.62c-1.13,0-1.944-0.875-1.944-1.968c0-1.288,0.826-2.09,2.017-2.09
			c0.535,0,1.045,0.17,1.506,0.474V3.949c-0.498-0.243-1.082-0.376-1.689-0.376c-1.627,0-2.831,1.19-2.831,2.964
			c0,1.713,1.106,2.892,2.794,2.892c0.705,0,1.324-0.146,1.823-0.438V7.91z M346.433,6.537c0,1.251-0.681,1.968-1.774,1.968
			c-1.155,0-1.811-0.741-1.811-2.053c0-1.239,0.656-1.956,1.774-1.956C345.667,4.496,346.433,5.273,346.433,6.537 M347.331,3.767
			h-0.923v1.021c-0.413-0.802-1.082-1.215-1.993-1.215c-1.519,0-2.552,1.105-2.552,2.928c0,1.774,1.045,2.928,2.6,2.928
			c0.839,0,1.532-0.425,1.969-1.215v0.984h0.898V3.767z M339.446,9.198h0.923V0h-0.923V9.198z M334.416,5.297h0.79
			c0.899,0,1.603-0.024,2.187-0.438c0.546-0.389,0.887-1.105,0.887-1.956c0-0.85-0.34-1.567-0.887-1.956
			c-0.584-0.413-1.3-0.438-2.187-0.438h-1.823v8.688h1.033V5.297z M334.416,4.362V1.458h0.499c1.506,0,2.248,0.243,2.248,1.506
			c0,1.203-0.753,1.397-2.248,1.397H334.416z M323.846,9.198h0.923l0.011-2.868l2.796,2.868h1.3l-2.953-2.94l2.71-2.491h-1.239
			l-2.613,2.466L324.769,0h-0.923V9.198z M321.501,5.869h-3.306c0.098-0.924,0.766-1.495,1.652-1.495
			C320.833,4.374,321.44,4.909,321.501,5.869 M322.497,6.622V6.439c0-1.798-1.021-2.879-2.612-2.879c-1.58,0-2.709,1.19-2.709,2.904
			c0,1.774,1.118,2.965,2.77,2.965c1.119,0,1.969-0.499,2.516-1.482l-0.705-0.474c-0.45,0.79-1.033,1.179-1.762,1.179
			c-1.045,0-1.799-0.766-1.799-1.944V6.622H322.497z M315.316,5.869h-3.305c0.097-0.924,0.766-1.495,1.652-1.495
			C314.648,4.374,315.255,4.909,315.316,5.869 M316.312,6.622V6.439c0-1.798-1.021-2.879-2.612-2.879c-1.58,0-2.71,1.19-2.71,2.904
			c0,1.774,1.118,2.965,2.771,2.965c1.118,0,1.968-0.499,2.516-1.482l-0.705-0.474c-0.45,0.79-1.033,1.179-1.762,1.179
			c-1.045,0-1.798-0.766-1.798-1.944V6.622H316.312z M299.399,0.51l3.366,9.028l2.26-6.719l2.272,6.719l3.366-9.028h-1.118
			l-2.211,6.391l-2.32-6.731l-2.297,6.731l-2.2-6.391H299.399z M295.937,6.962h2.77V6.026h-2.77V6.962z M293.908,8.213h-3.293
			l1.361-1.47c1.397-1.519,2.199-2.661,2.199-3.912c0-1.495-0.996-2.406-2.697-2.406c-1.713,0-2.722,0.959-2.722,2.6
			c0,0.073,0.012,0.158,0.012,0.231h0.972V3.159c0-1.154,0.607-1.786,1.701-1.786c1.045,0,1.713,0.644,1.713,1.519
			c0,1.13-1.082,2.284-2.649,4.131l-1.835,2.175h5.237V8.213z M284.199,9.198h1.009V0.595h-2.2l-0.583,0.899h1.773V9.198z"/>
		<path clip-path="url(#SVGID_8_)" fill="#F9A25E" d="M640.174,9.198h0.924V6.391c0-0.596,0-1.045,0.315-1.434
			c0.304-0.376,0.778-0.583,1.325-0.583c0.972,0,1.445,0.535,1.445,1.628v3.196h0.924V5.504c0-1.227-0.778-1.932-2.042-1.932
			c-0.851,0-1.506,0.328-1.968,1.033V3.767h-0.924V9.198z M633.868,6.5c0-1.154,0.874-2.054,1.968-2.054
			c1.082,0,1.957,0.899,1.957,2.054s-0.875,2.053-1.957,2.053C634.755,8.554,633.868,7.655,633.868,6.5 M632.884,6.5
			c0,0.79,0.292,1.494,0.863,2.065c0.558,0.559,1.287,0.863,2.089,0.863c0.79,0,1.52-0.316,2.09-0.875
			c0.56-0.547,0.863-1.264,0.863-2.053c0-0.79-0.304-1.519-0.863-2.066c-0.57-0.559-1.287-0.862-2.09-0.862
			c-0.802,0-1.531,0.292-2.089,0.85C633.176,4.981,632.884,5.71,632.884,6.5 M630.271,1.154c0,0.389,0.304,0.68,0.68,0.68
			c0.377,0,0.682-0.292,0.682-0.668s-0.305-0.692-0.682-0.692C630.575,0.474,630.271,0.777,630.271,1.154 M630.49,9.198h0.924V3.767
			h-0.924V9.198z M624.986,8.287c0.425,0.765,1.13,1.142,2.138,1.142c1.203,0,1.981-0.717,1.981-1.726
			c0-0.887-0.523-1.276-1.58-1.616c-0.898-0.292-1.397-0.364-1.397-0.936c0-0.474,0.377-0.814,0.924-0.814
			c0.571,0,1.021,0.28,1.239,0.778l0.753-0.462c-0.291-0.692-0.996-1.081-1.932-1.081c-1.153,0-1.92,0.692-1.92,1.64
			c0,1.069,0.803,1.3,2.139,1.762c0.571,0.194,0.851,0.413,0.851,0.826c0,0.474-0.401,0.814-1.021,0.814
			c-0.62,0-1.082-0.279-1.385-0.862L624.986,8.287z M618.851,9.198h0.923V6.391c0-0.596,0-1.045,0.316-1.434
			c0.304-0.376,0.777-0.583,1.324-0.583c0.973,0,1.446,0.535,1.446,1.628v3.196h0.923V5.504c0-1.227-0.777-1.932-2.041-1.932
			c-0.852,0-1.507,0.328-1.969,1.033V3.767h-0.923V9.198z M616.518,5.869h-3.305c0.097-0.924,0.766-1.495,1.652-1.495
			C615.849,4.374,616.456,4.909,616.518,5.869 M617.514,6.622V6.439c0-1.798-1.021-2.879-2.612-2.879c-1.58,0-2.71,1.19-2.71,2.904
			c0,1.774,1.118,2.965,2.771,2.965c1.118,0,1.969-0.499,2.516-1.482l-0.705-0.474c-0.449,0.79-1.032,1.179-1.762,1.179
			c-1.045,0-1.798-0.766-1.798-1.944V6.622H617.514z M609.727,4.532v4.666h0.923V4.532h1.021V3.767h-1.021V1.58h-0.923v2.187h-0.998
			v0.765H609.727z M603.432,9.198h1.154l1.471-2.102l1.482,2.102h1.154l-2.103-2.807l2.042-2.625h-1.155l-1.421,1.944l-1.409-1.944
			h-1.154l2.029,2.625L603.432,9.198z M598.208,9.198h4.58v-0.96h-3.548V4.909h3.548v-0.96h-3.548V1.458h3.548V0.51h-4.58V9.198z
			 M591.756,9.198h0.924V0h-0.924V9.198z M589.374,5.869h-3.305c0.098-0.924,0.766-1.495,1.652-1.495
			C588.706,4.374,589.313,4.909,589.374,5.869 M590.371,6.622V6.439c0-1.798-1.021-2.879-2.613-2.879
			c-1.579,0-2.709,1.19-2.709,2.904c0,1.774,1.118,2.965,2.771,2.965c1.118,0,1.968-0.499,2.515-1.482l-0.705-0.474
			c-0.449,0.79-1.032,1.179-1.761,1.179c-1.045,0-1.799-0.766-1.799-1.944V6.622H590.371z M579.521,6.512
			c0-1.227,0.754-2.017,1.847-2.017c1.082,0,1.75,0.692,1.75,1.896c0,1.361-0.692,2.138-1.773,2.138
			C580.225,8.529,579.521,7.8,579.521,6.512 M578.634,0v9.198h0.887V8.213c0.425,0.778,1.142,1.215,1.98,1.215
			c1.556,0,2.601-1.154,2.601-2.928c0-1.823-1.045-2.928-2.563-2.928c-0.899,0-1.568,0.413-1.981,1.215V0H578.634z M575.937,6.537
			c0,1.251-0.681,1.968-1.774,1.968c-1.154,0-1.811-0.741-1.811-2.053c0-1.239,0.656-1.956,1.773-1.956
			C575.171,4.496,575.937,5.273,575.937,6.537 M576.835,3.767h-0.923v1.021c-0.413-0.802-1.081-1.215-1.993-1.215
			c-1.519,0-2.552,1.105-2.552,2.928c0,1.774,1.045,2.928,2.601,2.928c0.839,0,1.531-0.425,1.969-1.215v0.984h0.898V3.767z
			 M568.95,9.198h0.923V0h-0.923V9.198z M564.405,6.962h2.771V6.026h-2.771V6.962z M557.809,9.198h0.924V6.391
			c0-0.596,0-1.045,0.315-1.434c0.305-0.376,0.778-0.583,1.325-0.583c0.972,0,1.445,0.535,1.445,1.628v3.196h0.924V5.504
			c0-1.227-0.778-1.932-2.042-1.932c-0.851,0-1.506,0.328-1.968,1.033V3.767h-0.924V9.198z M555.476,5.869h-3.304
			c0.097-0.924,0.765-1.495,1.651-1.495C554.808,4.374,555.415,4.909,555.476,5.869 M556.473,6.622V6.439
			c0-1.798-1.021-2.879-2.612-2.879c-1.58,0-2.71,1.19-2.71,2.904c0,1.774,1.118,2.965,2.771,2.965c1.117,0,1.968-0.499,2.515-1.482
			l-0.705-0.474c-0.449,0.79-1.032,1.179-1.762,1.179c-1.045,0-1.797-0.766-1.797-1.944V6.622H556.473z M545.634,6.5
			c0-1.288,0.705-2.029,1.823-2.029c1.081,0,1.762,0.778,1.762,2.139c0,1.203-0.669,1.907-1.75,1.907
			C546.375,8.517,545.634,7.728,545.634,6.5 M544.735,11.847h0.923V8.213c0.414,0.802,1.082,1.215,1.98,1.215
			c1.519,0,2.563-1.094,2.563-2.928c0-1.786-1.045-2.928-2.6-2.928c-0.838,0-1.556,0.425-1.98,1.215V3.767h-0.887V11.847z
			 M538.563,8.457c-0.961,0-1.823-0.365-2.516-1.057c-0.681-0.692-1.045-1.555-1.045-2.527s0.364-1.859,1.045-2.552
			c0.668-0.68,1.555-1.045,2.516-1.045c0.959,0,1.834,0.365,2.515,1.045c0.68,0.681,1.045,1.58,1.045,2.552
			s-0.365,1.847-1.045,2.527C540.385,8.092,539.51,8.457,538.563,8.457 M543.204,4.872c0-1.239-0.461-2.369-1.349-3.232
			c-0.875-0.85-2.065-1.324-3.292-1.324c-1.228,0-2.407,0.474-3.281,1.324c-0.887,0.863-1.36,1.993-1.36,3.232
			s0.474,2.357,1.36,3.22c0.874,0.851,2.054,1.337,3.281,1.337c1.214,0,2.405-0.474,3.292-1.337
			C542.73,7.242,543.204,6.111,543.204,4.872"/>
		<path clip-path="url(#SVGID_8_)" fill="#FFFFFF" d="M225.244,47.052h0.755v-6.45h-1.647l-0.438,0.673h1.331V47.052z
			 M220.825,43.618c0,0.292,0.228,0.528,0.528,0.528s0.527-0.236,0.527-0.528c0-0.291-0.236-0.528-0.527-0.528
			C221.062,43.09,220.825,43.327,220.825,43.618 M220.825,46.606c0,0.292,0.228,0.528,0.528,0.528s0.527-0.236,0.527-0.528
			c0-0.291-0.236-0.519-0.527-0.519C221.062,46.088,220.825,46.316,220.825,46.606 M217.817,47.052h0.765V45.65h0.765v-0.628h-0.765
			v-4.547h-0.328l-3.489,5.175h3.053V47.052z M217.817,45.022h-1.905l1.905-2.862V45.022z"/>
		<path clip-path="url(#SVGID_8_)" fill="#FFFFFF" d="M242.012,33.926h-2.48c0.073-0.693,0.574-1.123,1.24-1.123
			C241.51,32.804,241.966,33.205,242.012,33.926 M242.757,34.489v-0.136c0-1.349-0.764-2.159-1.958-2.159
			c-1.186,0-2.031,0.892-2.031,2.177c0,1.331,0.837,2.223,2.077,2.223c0.838,0,1.476-0.373,1.886-1.111l-0.528-0.355
			c-0.337,0.592-0.774,0.884-1.321,0.884c-0.784,0-1.35-0.575-1.35-1.459v-0.064H242.757z M235.031,35.738
			c0.318,0.575,0.846,0.856,1.603,0.856c0.902,0,1.485-0.537,1.485-1.293c0-0.665-0.391-0.957-1.184-1.212
			c-0.675-0.219-1.049-0.273-1.049-0.703c0-0.355,0.282-0.61,0.693-0.61c0.428,0,0.766,0.209,0.93,0.583l0.564-0.346
			c-0.218-0.519-0.746-0.81-1.448-0.81c-0.867,0-1.439,0.518-1.439,1.229c0,0.803,0.6,0.976,1.604,1.322
			c0.428,0.146,0.638,0.31,0.638,0.62c0,0.355-0.301,0.611-0.766,0.611c-0.465,0-0.812-0.21-1.039-0.647L235.031,35.738z
			 M233.172,30.389c0,0.291,0.228,0.51,0.509,0.51s0.51-0.219,0.51-0.5c0-0.282-0.228-0.519-0.51-0.519
			S233.172,30.107,233.172,30.389 M233.336,36.421h0.692V32.35h-0.692V36.421z M231.286,36.421h0.69v-2.771
			c0-0.92-0.545-1.448-1.448-1.448c-0.62,0-1.093,0.264-1.45,0.828c-0.236-0.546-0.709-0.828-1.366-0.828
			c-0.611,0-1.075,0.255-1.404,0.774v-0.628h-0.691v4.073h0.691v-2.104c0-0.1-0.009-0.2-0.009-0.292
			c0-0.311,0.037-0.566,0.209-0.785c0.22-0.282,0.557-0.437,0.93-0.437c0.693,0,1.013,0.401,1.013,1.222v2.396h0.69v-2.104
			c0-0.091-0.009-0.173-0.009-0.255c0-0.338,0.046-0.593,0.219-0.821c0.219-0.282,0.547-0.437,0.921-0.437
			c0.693,0,1.012,0.401,1.012,1.222V36.421z M220.887,34.399c0-0.866,0.657-1.541,1.477-1.541c0.812,0,1.468,0.674,1.468,1.541
			c0,0.866-0.656,1.541-1.468,1.541C221.553,35.94,220.887,35.265,220.887,34.399 M220.15,34.399c0,0.592,0.219,1.121,0.646,1.55
			c0.419,0.418,0.966,0.646,1.567,0.646c0.593,0,1.14-0.236,1.568-0.654c0.418-0.411,0.646-0.949,0.646-1.541
			c0-0.593-0.228-1.14-0.646-1.55c-0.428-0.418-0.966-0.646-1.568-0.646c-0.602,0-1.148,0.219-1.567,0.637
			C220.369,33.259,220.15,33.806,220.15,34.399 M218.428,34.408c0,0.966-0.528,1.513-1.367,1.513c-0.812,0-1.322-0.583-1.322-1.604
			c0-0.903,0.501-1.422,1.312-1.422C217.872,32.895,218.428,33.487,218.428,34.408 M219.102,29.524h-0.692v3.589
			c-0.31-0.601-0.811-0.91-1.486-0.91c-1.139,0-1.922,0.828-1.922,2.196c0,1.331,0.783,2.195,1.95,2.195
			c0.629,0,1.158-0.327,1.477-0.91v0.737h0.674V29.524z M210.281,36.421h0.692v-2.104c0-0.447,0-0.784,0.237-1.076
			c0.228-0.282,0.583-0.437,0.993-0.437c0.73,0,1.085,0.401,1.085,1.222v2.396h0.692v-2.771c0-0.92-0.583-1.448-1.53-1.448
			c-0.638,0-1.13,0.246-1.477,0.774v-0.628h-0.692V36.421z M208.258,34.426c0,0.939-0.51,1.477-1.33,1.477
			c-0.867,0-1.359-0.556-1.359-1.541c0-0.93,0.492-1.468,1.332-1.468C207.684,32.895,208.258,33.478,208.258,34.426 M208.932,32.35
			h-0.692v0.764c-0.31-0.602-0.811-0.91-1.494-0.91c-1.14,0-1.914,0.828-1.914,2.196c0,1.331,0.783,2.195,1.95,2.195
			c0.629,0,1.148-0.318,1.476-0.91v0.737h0.674V32.35z M200.386,36.421h0.772v-3.107h0.091l2.379,3.107h0.983l-2.487-3.107h0.136
			c1.148,0,1.758-0.564,1.758-1.63c0-0.639-0.237-1.158-0.61-1.449c-0.401-0.31-0.875-0.327-1.495-0.327h-1.53V36.421z
			 M201.158,30.562h0.575c1.03,0,1.523,0.182,1.523,1.13c0,0.902-0.502,1.049-1.523,1.049h-0.575V30.562z"/>
		<path clip-path="url(#SVGID_8_)" fill="#FFFFFF" d="M406.915,35.223l2.524,6.77l1.694-5.039l1.704,5.039l2.524-6.77h-0.838
			l-1.658,4.793l-1.74-5.048l-1.722,5.048l-1.648-4.793H406.915z M406.085,41h-2.47l1.021-1.103c1.048-1.14,1.648-1.997,1.648-2.934
			c0-1.122-0.745-1.804-2.022-1.804c-1.285,0-2.04,0.718-2.04,1.95c0,0.054,0.009,0.118,0.009,0.172h0.727v-0.073
			c0-0.866,0.456-1.34,1.276-1.34c0.784,0,1.286,0.484,1.286,1.141c0,0.847-0.812,1.712-1.987,3.098l-1.375,1.629h3.927V41z
			 M398.549,39.414h-0.958l1.331,1.44c-0.365,0.2-0.775,0.292-1.258,0.292c-0.556,0-1.066-0.164-1.485-0.465
			c-0.739-0.538-1.112-1.276-1.112-2.197c0-0.711,0.273-1.385,0.775-1.886c0.501-0.501,1.176-0.775,1.887-0.775
			c0.966,0,1.796,0.465,2.288,1.276c0.238,0.392,0.365,0.884,0.365,1.421c0,0.802-0.32,1.496-0.866,1.933L398.549,39.414z
			 M401.291,42.365l-1.238-1.338c0.765-0.61,1.165-1.495,1.165-2.534c0-0.993-0.382-1.877-1.083-2.515
			c-0.656-0.593-1.477-0.902-2.406-0.902c-0.93,0-1.795,0.346-2.461,0.993c-0.655,0.647-1.019,1.503-1.019,2.415
			c0,1.13,0.482,2.087,1.394,2.762c0.565,0.418,1.239,0.637,1.977,0.637c0.72,0,1.331-0.146,1.851-0.447l0.866,0.929H401.291z
			 M389.792,39.714c0,0.939-0.51,1.486-1.331,1.486c-0.866,0-1.359-0.556-1.359-1.541c0-0.93,0.493-1.467,1.332-1.467
			C389.218,38.192,389.792,38.767,389.792,39.714 M390.483,37.665h-0.71v0.755c-0.3-0.592-0.821-0.901-1.495-0.901
			c-1.14,0-1.913,0.81-1.913,2.168c0,1.322,0.782,2.177,1.949,2.177c0.628,0,1.158-0.318,1.477-0.9v0.683
			c0,0.372-0.019,0.671-0.173,0.925c-0.209,0.353-0.611,0.534-1.167,0.534c-0.784,0-1.213-0.353-1.213-0.951V42.1h-0.782
			c0.027,1.014,0.736,1.614,1.985,1.614c0.721,0,1.267-0.208,1.64-0.609c0.382-0.408,0.401-0.86,0.401-1.44V37.665z M384.662,41.736
			h0.691v-2.77c0-0.92-0.546-1.448-1.449-1.448c-0.62,0-1.094,0.264-1.449,0.829c-0.237-0.547-0.71-0.829-1.367-0.829
			c-0.61,0-1.076,0.254-1.405,0.774v-0.628h-0.69v4.071h0.69v-2.104c0-0.1-0.008-0.2-0.008-0.292c0-0.31,0.036-0.565,0.21-0.784
			c0.219-0.282,0.556-0.438,0.929-0.438c0.693,0,1.012,0.401,1.012,1.222v2.396h0.691v-2.104c0-0.091-0.008-0.173-0.008-0.255
			c0-0.337,0.045-0.592,0.219-0.82c0.219-0.282,0.546-0.438,0.92-0.438c0.693,0,1.012,0.401,1.012,1.222V41.736z M375.648,41.91
			c1.367,0,2.25-1.21,2.25-3.38c0-2.169-0.874-3.371-2.269-3.371c-1.358,0-2.25,1.22-2.25,3.371
			C373.38,40.681,374.272,41.91,375.648,41.91 M375.64,41.273c-0.903,0-1.458-0.984-1.458-2.753c0-1.759,0.555-2.734,1.458-2.734
			c0.948,0,1.458,0.939,1.458,2.752C377.098,40.344,376.588,41.273,375.64,41.273 M370.317,41.91c1.368,0,2.251-1.21,2.251-3.38
			c0-2.169-0.874-3.371-2.269-3.371c-1.358,0-2.25,1.22-2.25,3.371C368.049,40.681,368.941,41.91,370.317,41.91 M370.308,41.273
			c-0.902,0-1.458-0.984-1.458-2.753c0-1.759,0.556-2.734,1.458-2.734c0.949,0,1.458,0.939,1.458,2.752
			C371.767,40.344,371.257,41.273,370.308,41.273 M366.727,41h-2.47l1.021-1.103c1.048-1.14,1.648-1.997,1.648-2.934
			c0-1.122-0.746-1.804-2.023-1.804c-1.285,0-2.041,0.718-2.041,1.95c0,0.054,0.009,0.118,0.009,0.172h0.728v-0.073
			c0-0.866,0.456-1.34,1.276-1.34c0.784,0,1.285,0.484,1.285,1.141c0,0.847-0.811,1.712-1.987,3.098l-1.375,1.629h3.927V41z"/>
		<path clip-path="url(#SVGID_8_)" fill="#FFFFFF" d="M307.055,35.223l2.523,6.769l1.695-5.039l1.704,5.039l2.523-6.769h-0.838
			l-1.658,4.793l-1.741-5.048l-1.722,5.048l-1.649-4.793H307.055z M306.225,41h-2.469l1.021-1.103
			c1.048-1.14,1.648-1.997,1.648-2.934c0-1.122-0.746-1.804-2.021-1.804c-1.286,0-2.041,0.718-2.041,1.95
			c0,0.054,0.009,0.118,0.009,0.172h0.728v-0.073c0-0.866,0.456-1.34,1.277-1.34c0.783,0,1.285,0.483,1.285,1.14
			c0,0.847-0.811,1.713-1.986,3.099l-1.376,1.629h3.927V41z M298.688,39.414h-0.957l1.331,1.44c-0.365,0.2-0.775,0.292-1.258,0.292
			c-0.556,0-1.066-0.164-1.485-0.465c-0.739-0.538-1.112-1.276-1.112-2.197c0-0.711,0.273-1.385,0.774-1.887
			c0.502-0.501,1.177-0.774,1.888-0.774c0.966,0,1.795,0.465,2.288,1.276c0.237,0.392,0.365,0.884,0.365,1.421
			c0,0.802-0.319,1.495-0.866,1.933L298.688,39.414z M301.431,42.366l-1.238-1.339c0.765-0.61,1.164-1.495,1.164-2.534
			c0-0.993-0.382-1.877-1.083-2.515c-0.657-0.592-1.477-0.901-2.406-0.901s-1.796,0.346-2.461,0.993
			c-0.655,0.647-1.019,1.503-1.019,2.415c0,1.13,0.482,2.087,1.393,2.762c0.566,0.418,1.24,0.637,1.979,0.637
			c0.72,0,1.331-0.146,1.85-0.446l0.866,0.93H301.431z M289.932,39.714c0,0.939-0.511,1.486-1.332,1.486
			c-0.865,0-1.358-0.556-1.358-1.541c0-0.93,0.493-1.467,1.331-1.467C289.357,38.192,289.932,38.767,289.932,39.714 M290.623,37.665
			h-0.709v0.755c-0.301-0.592-0.821-0.901-1.496-0.901c-1.14,0-1.913,0.81-1.913,2.168c0,1.322,0.782,2.177,1.95,2.177
			c0.628,0,1.158-0.318,1.477-0.901v0.683c0,0.372-0.018,0.671-0.173,0.925c-0.21,0.353-0.612,0.534-1.167,0.534
			c-0.784,0-1.212-0.353-1.212-0.951V42.1h-0.782c0.027,1.014,0.736,1.615,1.986,1.615c0.719,0,1.268-0.209,1.64-0.61
			c0.383-0.408,0.4-0.86,0.4-1.44V37.665z M284.802,41.736h0.691v-2.77c0-0.92-0.545-1.448-1.448-1.448
			c-0.619,0-1.093,0.263-1.449,0.829c-0.236-0.547-0.709-0.829-1.367-0.829c-0.61,0-1.075,0.254-1.404,0.774v-0.628h-0.691v4.071
			h0.691v-2.104c0-0.1-0.009-0.2-0.009-0.292c0-0.31,0.036-0.565,0.21-0.784c0.219-0.283,0.556-0.438,0.93-0.438
			c0.693,0,1.012,0.401,1.012,1.222v2.396h0.69v-2.104c0-0.091-0.009-0.173-0.009-0.255c0-0.337,0.046-0.592,0.22-0.82
			c0.219-0.283,0.546-0.438,0.92-0.438c0.694,0,1.013,0.401,1.013,1.222V41.736z M275.788,41.91c1.368,0,2.25-1.21,2.25-3.38
			c0-2.169-0.873-3.371-2.268-3.371c-1.358,0-2.25,1.22-2.25,3.371C273.52,40.681,274.412,41.91,275.788,41.91 M275.779,41.273
			c-0.902,0-1.458-0.984-1.458-2.753c0-1.759,0.556-2.734,1.458-2.734c0.949,0,1.459,0.938,1.459,2.752
			C277.238,40.344,276.728,41.273,275.779,41.273 M270.458,41.91c1.368,0,2.25-1.21,2.25-3.38c0-2.169-0.873-3.371-2.269-3.371
			c-1.357,0-2.25,1.22-2.25,3.371C268.189,40.681,269.082,41.91,270.458,41.91 M270.448,41.273c-0.902,0-1.458-0.984-1.458-2.753
			c0-1.759,0.557-2.734,1.458-2.734c0.949,0,1.459,0.938,1.459,2.752C271.907,40.344,271.397,41.273,270.448,41.273 M265.683,41.736
			h0.765v-1.402h0.766v-0.628h-0.766v-4.547h-0.328l-3.489,5.175h3.053V41.736z M265.683,39.706h-1.905l1.905-2.862V39.706z"/>
		<path clip-path="url(#SVGID_8_)" fill="#FFFFFF" d="M608.171,35.223l2.524,6.77l1.694-5.039l1.704,5.039l2.523-6.77h-0.838
			l-1.658,4.793l-1.74-5.048l-1.723,5.048l-1.648-4.793H608.171z M607.342,41h-2.47l1.021-1.103c1.048-1.14,1.648-1.997,1.648-2.934
			c0-1.122-0.745-1.804-2.022-1.804c-1.285,0-2.04,0.718-2.04,1.95c0,0.054,0.009,0.118,0.009,0.172h0.728v-0.073
			c0-0.866,0.457-1.34,1.276-1.34c0.784,0,1.286,0.484,1.286,1.141c0,0.847-0.812,1.712-1.987,3.098l-1.375,1.629h3.927V41z
			 M599.806,39.414h-0.957l1.331,1.44c-0.365,0.2-0.775,0.292-1.258,0.292c-0.557,0-1.066-0.164-1.486-0.465
			c-0.739-0.538-1.112-1.276-1.112-2.197c0-0.711,0.273-1.385,0.775-1.886c0.501-0.501,1.176-0.775,1.887-0.775
			c0.966,0,1.796,0.465,2.288,1.276c0.237,0.392,0.364,0.884,0.364,1.421c0,0.802-0.318,1.496-0.866,1.933L599.806,39.414z
			 M602.547,42.365l-1.237-1.338c0.765-0.61,1.165-1.495,1.165-2.534c0-0.993-0.382-1.877-1.083-2.515
			c-0.656-0.593-1.478-0.902-2.406-0.902c-0.93,0-1.796,0.346-2.462,0.993c-0.655,0.647-1.019,1.503-1.019,2.415
			c0,1.13,0.482,2.087,1.394,2.762c0.565,0.418,1.239,0.637,1.977,0.637c0.721,0,1.331-0.146,1.852-0.447l0.865,0.929H602.547z
			 M591.049,39.714c0,0.939-0.511,1.486-1.331,1.486c-0.866,0-1.358-0.556-1.358-1.541c0-0.93,0.492-1.467,1.331-1.467
			C590.475,38.192,591.049,38.767,591.049,39.714 M591.74,37.665h-0.71v0.755c-0.301-0.592-0.821-0.901-1.495-0.901
			c-1.14,0-1.913,0.81-1.913,2.168c0,1.322,0.782,2.177,1.949,2.177c0.629,0,1.158-0.318,1.478-0.9v0.683
			c0,0.372-0.019,0.671-0.174,0.925c-0.209,0.353-0.611,0.534-1.166,0.534c-0.784,0-1.214-0.353-1.214-0.951V42.1h-0.781
			c0.026,1.014,0.736,1.614,1.985,1.614c0.721,0,1.268-0.208,1.641-0.609c0.382-0.408,0.4-0.86,0.4-1.44V37.665z M585.918,41.736
			h0.691v-2.77c0-0.92-0.546-1.448-1.448-1.448c-0.62,0-1.094,0.264-1.449,0.829c-0.236-0.547-0.71-0.829-1.366-0.829
			c-0.61,0-1.076,0.254-1.404,0.774v-0.628h-0.691v4.071h0.691v-2.104c0-0.1-0.009-0.2-0.009-0.292c0-0.31,0.035-0.565,0.21-0.784
			c0.219-0.282,0.556-0.438,0.929-0.438c0.693,0,1.013,0.401,1.013,1.222v2.396h0.691v-2.104c0-0.091-0.009-0.173-0.009-0.255
			c0-0.337,0.046-0.592,0.219-0.82c0.219-0.282,0.547-0.438,0.921-0.438c0.693,0,1.012,0.401,1.012,1.222V41.736z M576.905,41.91
			c1.367,0,2.251-1.21,2.251-3.38c0-2.169-0.875-3.371-2.27-3.371c-1.358,0-2.25,1.22-2.25,3.371
			C574.637,40.681,575.528,41.91,576.905,41.91 M576.896,41.273c-0.903,0-1.458-0.984-1.458-2.753c0-1.759,0.555-2.734,1.458-2.734
			c0.948,0,1.458,0.939,1.458,2.752C578.354,40.344,577.845,41.273,576.896,41.273 M571.574,41.91c1.367,0,2.251-1.21,2.251-3.38
			c0-2.169-0.874-3.371-2.27-3.371c-1.357,0-2.25,1.22-2.25,3.371C569.306,40.681,570.198,41.91,571.574,41.91 M571.564,41.273
			c-0.901,0-1.458-0.984-1.458-2.753c0-1.759,0.557-2.734,1.458-2.734c0.949,0,1.459,0.939,1.459,2.752
			C573.023,40.344,572.514,41.273,571.564,41.273 M567.983,41h-2.47l1.021-1.103c1.048-1.14,1.648-1.997,1.648-2.934
			c0-1.122-0.746-1.804-2.022-1.804c-1.285,0-2.04,0.718-2.04,1.95c0,0.054,0.009,0.118,0.009,0.172h0.728v-0.073
			c0-0.866,0.456-1.34,1.276-1.34c0.784,0,1.285,0.484,1.285,1.141c0,0.847-0.811,1.712-1.987,3.098l-1.375,1.629h3.927V41z"/>
		<path clip-path="url(#SVGID_8_)" fill="#FFFFFF" d="M258.558,197.952c0,0-3.038,0-3.038,3.037v54.677c0,0,0,3.037,3.038,3.037
			h193.646c0,0,3.038,0,3.038-3.037v-54.677c0,0,0-3.037-3.038-3.037H258.558z"/>
		<path clip-path="url(#SVGID_8_)" fill="#FFFFFF" d="M258.558,106.825c0,0-3.038,0-3.038,3.038v54.676c0,0,0,3.037,3.038,3.037
			h193.646c0,0,3.038,0,3.038-3.037v-54.676c0,0,0-3.038-3.038-3.038H258.558z"/>
		<g clip-path="url(#SVGID_8_)">
			<g>
				<defs>
					<rect id="SVGID_9_" x="248.686" y="197.192" width="80.496" height="62.271"/>
				</defs>
				<clipPath id="SVGID_10_">
					<use xlink:href="#SVGID_9_"  overflow="visible"/>
				</clipPath>
				<path clip-path="url(#SVGID_10_)" fill="#ECECED" d="M322.347,258.703v-60.751h-63.789c0,0-3.038,0-3.038,3.037v54.677
					c0,0,0,3.037,3.038,3.037H322.347z"/>
			</g>
		</g>
		<g clip-path="url(#SVGID_8_)">
			<g>
				<defs>
					<rect id="SVGID_11_" x="248.686" y="106.066" width="80.496" height="62.27"/>
				</defs>
				<clipPath id="SVGID_12_">
					<use xlink:href="#SVGID_11_"  overflow="visible"/>
				</clipPath>
				<path clip-path="url(#SVGID_12_)" fill="#ECECED" d="M322.347,167.576v-60.751h-63.789c0,0-3.038,0-3.038,3.038v54.676
					c0,0,0,3.037,3.038,3.037H322.347z"/>
			</g>
		</g>
	</g>
	<polygon clip-path="url(#SVGID_2_)" fill="#A7A8AA" points="255.52,141.256 259.576,137.201 255.52,133.146 	"/>
	<polygon clip-path="url(#SVGID_2_)" fill="#A7A8AA" points="255.52,232.383 259.576,228.328 255.52,224.272 	"/>
	<g clip-path="url(#SVGID_2_)">
		<defs>
			<rect id="SVGID_13_" x="181.859" width="548.281" height="313"/>
		</defs>
		<clipPath id="SVGID_14_">
			<use xlink:href="#SVGID_13_"  overflow="visible"/>
		</clipPath>
		<path clip-path="url(#SVGID_14_)" fill="#808285" d="M297.874,234.558h-2.48c0.073-0.693,0.575-1.123,1.24-1.123
			C297.372,233.435,297.829,233.836,297.874,234.558 M298.62,235.121v-0.137c0-1.349-0.764-2.158-1.958-2.158
			c-1.186,0-2.031,0.892-2.031,2.176c0,1.331,0.836,2.224,2.077,2.224c0.838,0,1.477-0.372,1.886-1.111l-0.528-0.354
			c-0.336,0.592-0.774,0.885-1.322,0.885c-0.783,0-1.349-0.575-1.349-1.46v-0.063H298.62z M290.894,236.37
			c0.318,0.573,0.846,0.855,1.603,0.855c0.902,0,1.484-0.537,1.484-1.294c0-0.664-0.391-0.956-1.184-1.211
			c-0.675-0.219-1.048-0.274-1.048-0.703c0-0.354,0.282-0.609,0.692-0.609c0.429,0,0.767,0.209,0.931,0.582l0.563-0.346
			c-0.218-0.519-0.746-0.81-1.448-0.81c-0.866,0-1.439,0.518-1.439,1.229c0,0.803,0.6,0.976,1.604,1.323
			c0.429,0.145,0.639,0.309,0.639,0.619c0,0.354-0.301,0.61-0.766,0.61c-0.465,0-0.812-0.21-1.039-0.647L290.894,236.37z
			 M286.591,235.03c0-0.866,0.657-1.541,1.477-1.541c0.812,0,1.469,0.675,1.469,1.541s-0.656,1.541-1.469,1.541
			C287.257,236.571,286.591,235.896,286.591,235.03 M285.854,235.03c0,0.593,0.218,1.121,0.646,1.549
			c0.419,0.419,0.966,0.646,1.567,0.646c0.593,0,1.14-0.236,1.569-0.654c0.418-0.411,0.645-0.948,0.645-1.541
			s-0.227-1.14-0.645-1.55c-0.429-0.418-0.967-0.646-1.569-0.646c-0.601,0-1.148,0.219-1.567,0.637
			C286.072,233.891,285.854,234.438,285.854,235.03 M280.468,236.325v-5.068h0.501c1.121,0,1.896,0.019,2.434,0.475
			c0.538,0.446,0.82,1.139,0.82,2.06s-0.292,1.631-0.82,2.068c-0.548,0.455-1.322,0.466-2.434,0.466H280.468z M279.694,237.053h1.53
			c1.057,0,1.914-0.027,2.67-0.61c0.747-0.574,1.139-1.476,1.139-2.643c0-1.166-0.392-2.078-1.139-2.652
			c-0.792-0.609-1.731-0.609-2.953-0.609h-1.247V237.053z"/>
		<path clip-path="url(#SVGID_14_)" fill="#808285" d="M303.532,224.095c0,0.938-0.51,1.486-1.332,1.486
			c-0.865,0-1.358-0.557-1.358-1.541c0-0.93,0.493-1.467,1.331-1.467C302.958,222.573,303.532,223.147,303.532,224.095
			 M304.224,222.045h-0.71v0.755c-0.301-0.592-0.82-0.901-1.496-0.901c-1.139,0-1.913,0.812-1.913,2.17
			c0,1.321,0.783,2.177,1.949,2.177c0.63,0,1.158-0.318,1.478-0.901v0.683c0,0.372-0.018,0.672-0.173,0.925
			c-0.21,0.354-0.611,0.534-1.167,0.534c-0.784,0-1.211-0.353-1.211-0.951v-0.054h-0.783c0.027,1.014,0.737,1.614,1.986,1.614
			c0.72,0,1.267-0.209,1.64-0.609c0.382-0.408,0.401-0.86,0.401-1.44V222.045z M295.386,226.118h0.692v-2.104
			c0-0.448,0-0.785,0.236-1.076c0.228-0.283,0.583-0.438,0.994-0.438c0.73,0,1.085,0.4,1.085,1.221v2.397h0.692v-2.771
			c0-0.922-0.583-1.449-1.53-1.449c-0.639,0-1.13,0.247-1.477,0.774v-0.628h-0.692V226.118z M293.098,220.086
			c0,0.29,0.229,0.51,0.511,0.51c0.281,0,0.509-0.22,0.509-0.501c0-0.282-0.229-0.52-0.509-0.52
			C293.326,219.575,293.098,219.803,293.098,220.086 M293.263,226.118h0.691v-4.073h-0.691V226.118z M291.176,224.104
			c0,0.967-0.529,1.513-1.368,1.513c-0.812,0-1.322-0.583-1.322-1.603c0-0.903,0.501-1.423,1.313-1.423
			C290.619,222.591,291.176,223.183,291.176,224.104 M291.849,219.22h-0.691v3.59c-0.311-0.601-0.812-0.911-1.486-0.911
			c-1.14,0-1.922,0.829-1.922,2.196c0,1.33,0.782,2.196,1.95,2.196c0.629,0,1.157-0.327,1.477-0.911v0.738h0.673V219.22z
			 M286.036,224.123c0,0.938-0.511,1.476-1.331,1.476c-0.865,0-1.358-0.556-1.358-1.539c0-0.931,0.493-1.469,1.331-1.469
			C285.461,222.591,286.036,223.174,286.036,224.123 M286.709,222.045h-0.69v0.765c-0.31-0.602-0.812-0.911-1.496-0.911
			c-1.14,0-1.913,0.829-1.913,2.196c0,1.33,0.782,2.196,1.95,2.196c0.628,0,1.148-0.318,1.476-0.911v0.738h0.673V222.045z
			 M278.189,224.095c0-0.866,0.657-1.541,1.477-1.541c0.812,0,1.468,0.675,1.468,1.541s-0.656,1.54-1.468,1.54
			C278.854,225.635,278.189,224.961,278.189,224.095 M277.452,224.095c0,0.593,0.218,1.121,0.646,1.55
			c0.42,0.418,0.966,0.646,1.568,0.646c0.593,0,1.14-0.237,1.568-0.656c0.419-0.41,0.646-0.947,0.646-1.54s-0.227-1.139-0.646-1.55
			c-0.428-0.418-0.966-0.646-1.568-0.646s-1.148,0.22-1.568,0.638C277.67,222.956,277.452,223.502,277.452,224.095 M273.743,226.118
			h3.234v-0.738h-2.46v-5.777h-0.773V226.118z"/>
		<path clip-path="url(#SVGID_14_)" fill="#808285" d="M297.874,143.429h-2.48c0.073-0.692,0.575-1.122,1.24-1.122
			C297.372,142.308,297.829,142.709,297.874,143.429 M298.62,143.994v-0.136c0-1.349-0.764-2.16-1.958-2.16
			c-1.186,0-2.031,0.893-2.031,2.177c0,1.332,0.836,2.224,2.077,2.224c0.838,0,1.477-0.373,1.886-1.111l-0.528-0.355
			c-0.336,0.592-0.774,0.884-1.322,0.884c-0.783,0-1.349-0.574-1.349-1.458v-0.064H298.62z M290.894,145.243
			c0.318,0.574,0.846,0.856,1.603,0.856c0.902,0,1.484-0.537,1.484-1.293c0-0.665-0.391-0.957-1.184-1.212
			c-0.675-0.218-1.048-0.274-1.048-0.702c0-0.355,0.282-0.61,0.692-0.61c0.429,0,0.767,0.209,0.931,0.583l0.563-0.346
			c-0.218-0.519-0.746-0.812-1.448-0.812c-0.866,0-1.439,0.519-1.439,1.229c0,0.803,0.6,0.976,1.604,1.323
			c0.429,0.146,0.639,0.309,0.639,0.619c0,0.355-0.301,0.61-0.766,0.61c-0.465,0-0.812-0.209-1.039-0.646L290.894,145.243z
			 M286.591,143.903c0-0.866,0.657-1.541,1.477-1.541c0.812,0,1.469,0.675,1.469,1.541s-0.656,1.54-1.469,1.54
			C287.257,145.443,286.591,144.77,286.591,143.903 M285.854,143.903c0,0.592,0.218,1.121,0.646,1.549
			c0.419,0.419,0.966,0.646,1.567,0.646c0.593,0,1.14-0.236,1.569-0.655c0.418-0.41,0.645-0.948,0.645-1.54
			c0-0.593-0.227-1.14-0.645-1.55c-0.429-0.418-0.967-0.647-1.569-0.647c-0.601,0-1.148,0.22-1.567,0.638
			C286.072,142.764,285.854,143.31,285.854,143.903 M280.468,145.197v-5.067h0.501c1.121,0,1.896,0.018,2.434,0.474
			c0.538,0.446,0.82,1.139,0.82,2.06c0,0.92-0.292,1.631-0.82,2.068c-0.548,0.456-1.322,0.465-2.434,0.465H280.468z
			 M279.694,145.926h1.53c1.057,0,1.914-0.028,2.67-0.61c0.747-0.575,1.139-1.477,1.139-2.642c0-1.167-0.392-2.08-1.139-2.653
			c-0.792-0.61-1.731-0.61-2.953-0.61h-1.247V145.926z"/>
		<path clip-path="url(#SVGID_14_)" fill="#808285" d="M303.532,132.968c0,0.939-0.51,1.486-1.332,1.486
			c-0.865,0-1.358-0.557-1.358-1.541c0-0.93,0.493-1.467,1.331-1.467C302.958,131.446,303.532,132.02,303.532,132.968
			 M304.224,130.918h-0.71v0.755c-0.301-0.592-0.82-0.901-1.496-0.901c-1.139,0-1.913,0.811-1.913,2.169
			c0,1.322,0.783,2.177,1.949,2.177c0.63,0,1.158-0.319,1.478-0.901v0.682c0,0.373-0.018,0.672-0.173,0.925
			c-0.21,0.353-0.611,0.534-1.167,0.534c-0.784,0-1.211-0.353-1.211-0.951v-0.054h-0.783c0.027,1.014,0.737,1.614,1.986,1.614
			c0.72,0,1.267-0.209,1.64-0.609c0.382-0.408,0.401-0.86,0.401-1.441V130.918z M295.386,134.991h0.692v-2.104
			c0-0.448,0-0.785,0.236-1.076c0.228-0.283,0.583-0.438,0.994-0.438c0.73,0,1.085,0.401,1.085,1.221v2.397h0.692v-2.771
			c0-0.921-0.583-1.448-1.53-1.448c-0.639,0-1.13,0.246-1.477,0.773v-0.627h-0.692V134.991z M293.098,128.958
			c0,0.291,0.229,0.51,0.511,0.51c0.281,0,0.509-0.219,0.509-0.5c0-0.283-0.229-0.52-0.509-0.52
			C293.326,128.448,293.098,128.676,293.098,128.958 M293.263,134.991h0.691v-4.073h-0.691V134.991z M291.176,132.977
			c0,0.966-0.529,1.515-1.368,1.515c-0.812,0-1.322-0.584-1.322-1.605c0-0.903,0.501-1.422,1.313-1.422
			C290.619,131.464,291.176,132.056,291.176,132.977 M291.849,128.092h-0.691v3.59c-0.311-0.601-0.812-0.911-1.486-0.911
			c-1.14,0-1.922,0.828-1.922,2.196c0,1.331,0.782,2.196,1.95,2.196c0.629,0,1.157-0.327,1.477-0.911v0.738h0.673V128.092z
			 M286.036,132.996c0,0.938-0.511,1.476-1.331,1.476c-0.865,0-1.358-0.556-1.358-1.54c0-0.931,0.493-1.468,1.331-1.468
			C285.461,131.464,286.036,132.047,286.036,132.996 M286.709,130.918h-0.69v0.765c-0.31-0.602-0.812-0.911-1.496-0.911
			c-1.14,0-1.913,0.828-1.913,2.196c0,1.331,0.782,2.196,1.95,2.196c0.628,0,1.148-0.318,1.476-0.911v0.738h0.673V130.918z
			 M278.189,132.968c0-0.866,0.657-1.541,1.477-1.541c0.812,0,1.468,0.674,1.468,1.541s-0.656,1.54-1.468,1.54
			C278.854,134.508,278.189,133.834,278.189,132.968 M277.452,132.968c0,0.592,0.218,1.121,0.646,1.55
			c0.42,0.418,0.966,0.646,1.568,0.646c0.593,0,1.14-0.236,1.568-0.656c0.419-0.41,0.646-0.948,0.646-1.54
			c0-0.593-0.227-1.139-0.646-1.55c-0.428-0.418-0.966-0.646-1.568-0.646s-1.148,0.219-1.568,0.637
			C277.67,131.829,277.452,132.375,277.452,132.968 M273.743,134.991h3.234v-0.738h-2.46v-5.778h-0.773V134.991z"/>
	</g>
</g>
</svg>
