<?xml version="1.0" encoding="utf-8"?>
<!-- Generator: Adobe Illustrator 15.1.0, SVG Export Plug-In . SVG Version: 6.00 Build 0)  -->
<!DOCTYPE svg PUBLIC "-//W3C//DTD SVG 1.1//EN" "http://www.w3.org/Graphics/SVG/1.1/DTD/svg11.dtd">
<svg version="1.1" id="Layer_1" xmlns="http://www.w3.org/2000/svg" xmlns:xlink="http://www.w3.org/1999/xlink" x="0px" y="0px"
	 width="1050px" height="300px" viewBox="0 0 1050 300" enable-background="new 0 0 1050 300" xml:space="preserve">
<g>
	<defs>
		<rect id="SVGID_1_" x="152" y="-1" width="746" height="252"/>
	</defs>
	<clipPath id="SVGID_2_">
		<use xlink:href="#SVGID_1_"  overflow="visible"/>
	</clipPath>
	<rect x="161" y="220" clip-path="url(#SVGID_2_)" fill="#F3E3D5" width="728" height="30"/>
	<rect x="161" y="160" clip-path="url(#SVGID_2_)" fill="#F3E3D5" width="728" height="30"/>
	<rect x="161" y="100" clip-path="url(#SVGID_2_)" fill="#F3E3D5" width="728" height="30"/>
	<rect x="161" y="40" clip-path="url(#SVGID_2_)" fill="#F3E3D5" width="728" height="30"/>
	<rect x="509" clip-path="url(#SVGID_2_)" fill="#F9A25E" width="380" height="40"/>
	<g clip-path="url(#SVGID_2_)">
		<defs>
			<rect id="SVGID_3_" x="152" y="-1" width="746" height="252"/>
		</defs>
		<clipPath id="SVGID_4_">
			<use xlink:href="#SVGID_3_"  overflow="visible"/>
		</clipPath>
		<g opacity="0.3" clip-path="url(#SVGID_4_)">
			<g>
				<defs>
					<rect id="SVGID_5_" x="160" y="30.5" width="730" height="19"/>
				</defs>
				<clipPath id="SVGID_6_">
					<use xlink:href="#SVGID_5_"  overflow="visible"/>
				</clipPath>
				<line clip-path="url(#SVGID_6_)" fill="none" stroke="#808285" x1="889" y1="40" x2="161" y2="40"/>
			</g>
		</g>
		<g opacity="0.3" clip-path="url(#SVGID_4_)">
			<g>
				<defs>
					<rect id="SVGID_7_" x="160" y="60.5" width="730" height="19"/>
				</defs>
				<clipPath id="SVGID_8_">
					<use xlink:href="#SVGID_7_"  overflow="visible"/>
				</clipPath>
				<line clip-path="url(#SVGID_8_)" fill="none" stroke="#808285" x1="889" y1="70" x2="161" y2="70"/>
			</g>
		</g>
		<g opacity="0.3" clip-path="url(#SVGID_4_)">
			<g>
				<defs>
					<rect id="SVGID_9_" x="160" y="90.5" width="730" height="19"/>
				</defs>
				<clipPath id="SVGID_10_">
					<use xlink:href="#SVGID_9_"  overflow="visible"/>
				</clipPath>
				<line clip-path="url(#SVGID_10_)" fill="none" stroke="#808285" x1="889" y1="100" x2="161" y2="100"/>
			</g>
		</g>
		<g opacity="0.3" clip-path="url(#SVGID_4_)">
			<g>
				<defs>
					<rect id="SVGID_11_" x="160" y="120.5" width="730" height="19"/>
				</defs>
				<clipPath id="SVGID_12_">
					<use xlink:href="#SVGID_11_"  overflow="visible"/>
				</clipPath>
				<line clip-path="url(#SVGID_12_)" fill="none" stroke="#808285" x1="889" y1="130" x2="161" y2="130"/>
			</g>
		</g>
		<g opacity="0.3" clip-path="url(#SVGID_4_)">
			<g>
				<defs>
					<rect id="SVGID_13_" x="160" y="150.5" width="730" height="19"/>
				</defs>
				<clipPath id="SVGID_14_">
					<use xlink:href="#SVGID_13_"  overflow="visible"/>
				</clipPath>
				<line clip-path="url(#SVGID_14_)" fill="none" stroke="#808285" x1="889" y1="160" x2="161" y2="160"/>
			</g>
		</g>
		<g opacity="0.3" clip-path="url(#SVGID_4_)">
			<g>
				<defs>
					<rect id="SVGID_15_" x="160" y="180.5" width="730" height="19"/>
				</defs>
				<clipPath id="SVGID_16_">
					<use xlink:href="#SVGID_15_"  overflow="visible"/>
				</clipPath>
				<line clip-path="url(#SVGID_16_)" fill="none" stroke="#808285" x1="889" y1="190" x2="161" y2="190"/>
			</g>
		</g>
		<g opacity="0.3" clip-path="url(#SVGID_4_)">
			<g>
				<defs>
					<rect id="SVGID_17_" x="160" y="210.5" width="730" height="19"/>
				</defs>
				<clipPath id="SVGID_18_">
					<use xlink:href="#SVGID_17_"  overflow="visible"/>
				</clipPath>
				<line clip-path="url(#SVGID_18_)" fill="none" stroke="#808285" x1="889" y1="220" x2="161" y2="220"/>
			</g>
		</g>
		<g opacity="0.3" clip-path="url(#SVGID_4_)">
			<g>
				<defs>
					<rect id="SVGID_19_" x="160" y="240.5" width="730" height="19"/>
				</defs>
				<clipPath id="SVGID_20_">
					<use xlink:href="#SVGID_19_"  overflow="visible"/>
				</clipPath>
				<line clip-path="url(#SVGID_20_)" fill="none" stroke="#808285" x1="889" y1="250" x2="161" y2="250"/>
			</g>
		</g>
		<g opacity="0.3" clip-path="url(#SVGID_4_)">
			<g>
				<defs>
					<rect id="SVGID_21_" x="499.5" y="-1" width="19" height="252.5"/>
				</defs>
				<clipPath id="SVGID_22_">
					<use xlink:href="#SVGID_21_"  overflow="visible"/>
				</clipPath>
				<line clip-path="url(#SVGID_22_)" fill="none" stroke="#808285" x1="509" y1="0" x2="509" y2="250.5"/>
			</g>
		</g>
		<g opacity="0.3" clip-path="url(#SVGID_4_)">
			<g>
				<defs>
					<rect id="SVGID_23_" x="689.5" y="-1" width="19" height="252.5"/>
				</defs>
				<clipPath id="SVGID_24_">
					<use xlink:href="#SVGID_23_"  overflow="visible"/>
				</clipPath>
				<line clip-path="url(#SVGID_24_)" fill="none" stroke="#808285" x1="699" y1="0" x2="699" y2="250.5"/>
			</g>
		</g>
		<path clip-path="url(#SVGID_4_)" fill="#808285" d="M347.462,213.792l0.832,0.432c1.232-2.288,1.856-4.863,1.856-7.728
			c0-2.96-0.576-5.504-1.856-7.76l-0.832,0.384c1.152,2.271,1.648,4.64,1.648,7.376C349.11,209.312,348.614,211.68,347.462,213.792
			 M338.054,209.44v-8.896h0.88c1.969,0,3.328,0.032,4.272,0.832c0.944,0.784,1.44,2,1.44,3.616s-0.513,2.864-1.44,3.632
			c-0.96,0.8-2.32,0.816-4.272,0.816H338.054z M336.694,210.72h2.688c1.856,0,3.36-0.048,4.688-1.071c1.312-1.009,2-2.593,2-4.641
			s-0.688-3.647-2-4.656c-1.393-1.071-3.04-1.071-5.185-1.071h-2.191V210.72z M332.71,204.368l-1.632-0.72
			c-1.04-0.465-1.536-1.024-1.536-1.841c0-0.976,0.72-1.664,1.744-1.664c0.815,0,1.439,0.448,1.936,1.312l1.12-0.72
			c-0.56-1.137-1.584-1.729-2.96-1.729c-1.904,0-3.216,1.216-3.216,2.816c0,1.392,0.736,2.384,2.256,3.023l1.393,0.593
			c1.184,0.512,1.775,1.264,1.775,2.287c0,1.248-0.912,2.129-2.288,2.129c-1.151,0-1.936-0.721-2.271-2.112l-1.232,0.607
			c0.433,1.696,1.696,2.656,3.504,2.656c2.208,0,3.664-1.408,3.664-3.504C334.966,206.064,334.198,205.024,332.71,204.368
			 M326.63,213.792c-1.152-2.112-1.647-4.48-1.647-7.296c0-2.736,0.495-5.104,1.647-7.376l-0.832-0.384
			c-1.28,2.256-1.855,4.8-1.855,7.76c0,2.864,0.624,5.439,1.855,7.728L326.63,213.792z M310.423,210.72h1.216v-3.695
			c0-0.784,0-1.376,0.416-1.889c0.4-0.496,1.024-0.768,1.744-0.768c1.28,0,1.904,0.704,1.904,2.144v4.208h1.216v-4.863
			c0-1.616-1.024-2.545-2.688-2.545c-1.12,0-1.984,0.433-2.593,1.36v-1.104h-1.216V210.72z M306.871,207.216
			c0,1.648-0.896,2.592-2.336,2.592c-1.521,0-2.384-0.976-2.384-2.704c0-1.632,0.863-2.575,2.336-2.575
			C305.863,204.528,306.871,205.552,306.871,207.216 M308.055,203.568h-1.216v1.344c-0.544-1.056-1.424-1.601-2.624-1.601
			c-2,0-3.359,1.456-3.359,3.856c0,2.336,1.376,3.856,3.424,3.856c1.104,0,2.016-0.561,2.592-1.601v1.296h1.184V203.568z
			 M298.327,206.336h-4.353c0.128-1.216,1.009-1.968,2.177-1.968C297.447,204.368,298.247,205.072,298.327,206.336 M299.639,207.328
			v-0.24c0-2.368-1.344-3.792-3.439-3.792c-2.08,0-3.568,1.568-3.568,3.824c0,2.336,1.472,3.904,3.648,3.904
			c1.472,0,2.592-0.656,3.312-1.952l-0.928-0.624c-0.592,1.04-1.36,1.552-2.32,1.552c-1.376,0-2.368-1.008-2.368-2.56v-0.112
			H299.639z M289.719,210.72h1.216v-4.863c0-1.616-0.96-2.545-2.544-2.545c-1.088,0-1.92,0.465-2.544,1.456
			c-0.416-0.96-1.248-1.456-2.399-1.456c-1.072,0-1.889,0.448-2.464,1.36v-1.104h-1.217v7.151h1.217v-3.695
			c0-0.177-0.017-0.353-0.017-0.513c0-0.544,0.064-0.992,0.368-1.376c0.384-0.496,0.976-0.768,1.632-0.768
			c1.216,0,1.776,0.704,1.776,2.144v4.208h1.216v-3.695c0-0.16-0.016-0.305-0.016-0.448c0-0.592,0.08-1.04,0.384-1.44
			c0.384-0.496,0.96-0.768,1.616-0.768c1.216,0,1.775,0.704,1.775,2.144V210.72z M270.183,212.992l0.896,0.352l1.92-4.144
			l-1.328-0.464L270.183,212.992z M262.135,210.72h1.36v-5.456h0.16l4.176,5.456h1.728l-4.368-5.456h0.24
			c2.016,0,3.088-0.991,3.088-2.863c0-1.12-0.416-2.032-1.072-2.544c-0.704-0.545-1.536-0.576-2.624-0.576h-2.688V210.72z
			 M263.495,200.432h1.008c1.808,0,2.672,0.32,2.672,1.984c0,1.584-0.88,1.84-2.672,1.84h-1.008V200.432z M258.151,204.368
			l-1.632-0.72c-1.04-0.465-1.536-1.024-1.536-1.841c0-0.976,0.72-1.664,1.744-1.664c0.816,0,1.44,0.448,1.936,1.312l1.12-0.72
			c-0.56-1.137-1.584-1.729-2.96-1.729c-1.904,0-3.216,1.216-3.216,2.816c0,1.392,0.736,2.384,2.256,3.023l1.392,0.593
			c1.184,0.512,1.776,1.264,1.776,2.287c0,1.248-0.912,2.129-2.288,2.129c-1.152,0-1.936-0.721-2.272-2.112l-1.232,0.607
			c0.432,1.696,1.696,2.656,3.504,2.656c2.208,0,3.664-1.408,3.664-3.504C260.407,206.064,259.639,205.024,258.151,204.368
			 M245.736,210.72h6.032v-1.264h-4.672v-4.384h4.672v-1.265h-4.672v-3.279h4.672v-1.248h-6.032V210.72z M235.048,207.776h3.648
			v-1.232h-3.648V207.776z M224.68,200.208c1.248,0,2.016,0.72,2.016,1.904c0,1.151-0.736,1.855-2.048,1.855c-1.28,0-2-0.72-2-1.855
			C222.648,200.944,223.416,200.208,224.68,200.208 M224.664,209.92c-1.536,0-2.4-0.88-2.4-2.304c0-1.44,0.896-2.353,2.4-2.353
			s2.4,0.896,2.4,2.353C227.064,209.04,226.2,209.92,224.664,209.92 M223.176,204.672c-1.504,0.416-2.352,1.536-2.352,3.04
			c0,1.984,1.424,3.312,3.856,3.312c2.448,0,3.84-1.297,3.84-3.345c0-1.472-0.848-2.576-2.352-3.008
			c1.232-0.368,1.936-1.296,1.936-2.528c0-1.775-1.296-2.976-3.424-2.976c-2.096,0-3.44,1.232-3.44,2.864
			C221.24,203.392,221.896,204.272,223.176,204.672 M218.376,209.424h-4.336l1.792-1.936c1.84-2,2.896-3.504,2.896-5.152
			c0-1.968-1.312-3.168-3.552-3.168c-2.256,0-3.584,1.264-3.584,3.424c0,0.097,0.016,0.208,0.016,0.305h1.28v-0.129
			c0-1.52,0.8-2.352,2.24-2.352c1.376,0,2.256,0.848,2.256,2c0,1.488-1.424,3.008-3.488,5.44l-2.416,2.863h6.896V209.424z
			 M207.976,204.368l-1.632-0.72c-1.04-0.465-1.536-1.024-1.536-1.841c0-0.976,0.72-1.664,1.744-1.664
			c0.816,0,1.44,0.448,1.936,1.312l1.12-0.72c-0.56-1.137-1.584-1.729-2.96-1.729c-1.904,0-3.216,1.216-3.216,2.816
			c0,1.392,0.736,2.384,2.256,3.023l1.392,0.593c1.184,0.512,1.776,1.264,1.776,2.287c0,1.248-0.912,2.129-2.288,2.129
			c-1.152,0-1.936-0.721-2.272-2.112l-1.232,0.607c0.432,1.696,1.696,2.656,3.504,2.656c2.208,0,3.664-1.408,3.664-3.504
			C210.232,206.064,209.464,205.024,207.976,204.368 M197.512,201.84l1.824,4.208h-3.648L197.512,201.84z M197.512,198.832
			l-5.184,11.888h1.472l1.488-3.504h4.464l1.488,3.504h1.472L197.512,198.832z M183.736,209.44v-8.896h0.88
			c1.968,0,3.328,0.032,4.272,0.832c0.944,0.784,1.44,2,1.44,3.616s-0.512,2.864-1.44,3.632c-0.96,0.8-2.32,0.816-4.272,0.816
			H183.736z M182.376,210.72h2.688c1.856,0,3.36-0.048,4.688-1.071c1.312-1.009,2-2.593,2-4.641s-0.688-3.647-2-4.656
			c-1.392-1.071-3.04-1.071-5.184-1.071h-2.192V210.72z"/>
		<path clip-path="url(#SVGID_4_)" fill="#808285" d="M350.63,183.792l0.832,0.433c1.232-2.289,1.856-4.865,1.856-7.729
			c0-2.96-0.576-5.504-1.856-7.76l-0.832,0.384c1.152,2.272,1.648,4.64,1.648,7.376C352.278,179.312,351.782,181.68,350.63,183.792
			 M341.222,179.439v-8.896h0.88c1.969,0,3.328,0.032,4.272,0.832c0.944,0.784,1.44,2,1.44,3.616c0,1.615-0.513,2.863-1.44,3.632
			c-0.96,0.8-2.32,0.815-4.272,0.815H341.222z M339.862,180.721h2.688c1.856,0,3.36-0.049,4.688-1.072c1.312-1.008,2-2.592,2-4.641
			c0-2.048-0.688-3.648-2-4.656c-1.393-1.072-3.04-1.072-5.185-1.072h-2.191V180.721z M335.878,174.368l-1.632-0.72
			c-1.04-0.465-1.536-1.024-1.536-1.84c0-0.977,0.72-1.664,1.744-1.664c0.815,0,1.439,0.447,1.936,1.312l1.12-0.72
			c-0.56-1.137-1.584-1.729-2.96-1.729c-1.903,0-3.216,1.217-3.216,2.816c0,1.392,0.736,2.384,2.256,3.023l1.393,0.592
			c1.184,0.513,1.775,1.265,1.775,2.289c0,1.248-0.912,2.127-2.288,2.127c-1.151,0-1.936-0.719-2.271-2.111l-1.232,0.607
			c0.433,1.696,1.696,2.656,3.504,2.656c2.208,0,3.664-1.408,3.664-3.504C338.134,176.064,337.366,175.023,335.878,174.368
			 M329.798,183.792c-1.151-2.112-1.647-4.479-1.647-7.296c0-2.736,0.496-5.104,1.647-7.376l-0.832-0.384
			c-1.28,2.256-1.855,4.8-1.855,7.76c0,2.863,0.624,5.439,1.855,7.729L329.798,183.792z M313.591,180.721h1.216v-3.697
			c0-0.783,0-1.375,0.416-1.887c0.4-0.496,1.024-0.769,1.744-0.769c1.28,0,1.904,0.704,1.904,2.144v4.209h1.216v-4.865
			c0-1.615-1.024-2.543-2.688-2.543c-1.12,0-1.984,0.432-2.593,1.359v-1.104h-1.216V180.721z M310.039,177.216
			c0,1.647-0.896,2.593-2.336,2.593c-1.521,0-2.384-0.977-2.384-2.705c0-1.631,0.863-2.576,2.336-2.576
			C309.031,174.527,310.039,175.552,310.039,177.216 M311.223,173.568h-1.216v1.344c-0.544-1.057-1.424-1.6-2.624-1.6
			c-2,0-3.359,1.455-3.359,3.855c0,2.336,1.376,3.855,3.424,3.855c1.104,0,2.016-0.56,2.592-1.6v1.297h1.184V173.568z
			 M301.495,176.336h-4.353c0.129-1.216,1.009-1.968,2.177-1.968C300.615,174.368,301.415,175.072,301.495,176.336 M302.807,177.328
			v-0.24c0-2.367-1.344-3.792-3.439-3.792c-2.08,0-3.568,1.567-3.568,3.824c0,2.336,1.473,3.903,3.648,3.903
			c1.472,0,2.592-0.655,3.312-1.951l-0.928-0.624c-0.592,1.04-1.36,1.552-2.32,1.552c-1.376,0-2.368-1.008-2.368-2.561v-0.111
			H302.807z M292.887,180.721h1.216v-4.865c0-1.615-0.96-2.543-2.544-2.543c-1.088,0-1.92,0.463-2.544,1.455
			c-0.416-0.959-1.248-1.455-2.399-1.455c-1.072,0-1.889,0.447-2.464,1.359v-1.104h-1.217v7.152h1.217v-3.697
			c0-0.176-0.017-0.352-0.017-0.512c0-0.544,0.064-0.992,0.368-1.375c0.384-0.496,0.976-0.769,1.632-0.769
			c1.216,0,1.776,0.704,1.776,2.144v4.209h1.216v-3.697c0-0.16-0.016-0.303-0.016-0.447c0-0.592,0.08-1.04,0.384-1.439
			c0.384-0.496,0.96-0.769,1.616-0.769c1.216,0,1.775,0.704,1.775,2.144V180.721z M273.351,182.992l0.896,0.352l1.92-4.144
			l-1.328-0.464L273.351,182.992z M267.095,175.584h1.04c1.184,0,2.112-0.032,2.88-0.576c0.72-0.512,1.168-1.456,1.168-2.576
			c0-1.119-0.448-2.063-1.168-2.576c-0.768-0.543-1.712-0.576-2.88-0.576h-2.4v11.441h1.36V175.584z M267.095,174.352v-3.824h0.656
			c1.984,0,2.96,0.32,2.96,1.984c0,1.584-0.992,1.84-2.96,1.84H267.095z M257.255,180.721h1.36v-5.457h0.16l4.176,5.457h1.728
			l-4.368-5.457h0.24c2.016,0,3.088-0.992,3.088-2.863c0-1.121-0.416-2.032-1.072-2.545c-0.704-0.543-1.536-0.576-2.624-0.576
			h-2.688V180.721z M258.615,170.432h1.008c1.808,0,2.672,0.32,2.672,1.984c0,1.584-0.88,1.84-2.672,1.84h-1.008V170.432z
			 M255.016,172.016v-1.775c-1.184-0.816-2.4-1.232-3.76-1.232c-1.68,0-3.088,0.561-4.256,1.68c-1.2,1.168-1.792,2.592-1.792,4.369
			c0,2.031,0.912,3.76,2.576,4.911c0.992,0.688,2.16,1.056,3.376,1.056c1.392,0,2.72-0.432,3.856-1.248v-1.808
			c-1.04,1.216-2.304,1.808-3.744,1.808c-1.552,0-2.944-0.735-3.856-2.031c-0.528-0.752-0.784-1.648-0.784-2.704
			c0-1.345,0.432-2.464,1.312-3.376c0.848-0.88,2.064-1.393,3.264-1.393C252.696,170.271,253.912,170.816,255.016,172.016
			 M235.048,177.775h3.648v-1.231h-3.648V177.775z M224.68,170.208c1.248,0,2.016,0.72,2.016,1.903c0,1.152-0.736,1.856-2.048,1.856
			c-1.28,0-2-0.72-2-1.856C222.648,170.943,223.416,170.208,224.68,170.208 M224.664,179.92c-1.536,0-2.4-0.88-2.4-2.304
			c0-1.44,0.896-2.353,2.4-2.353s2.4,0.896,2.4,2.353C227.064,179.04,226.2,179.92,224.664,179.92 M223.176,174.672
			c-1.504,0.416-2.352,1.536-2.352,3.04c0,1.983,1.424,3.312,3.856,3.312c2.448,0,3.84-1.295,3.84-3.344
			c0-1.472-0.848-2.576-2.352-3.008c1.232-0.367,1.936-1.296,1.936-2.527c0-1.776-1.296-2.977-3.424-2.977
			c-2.096,0-3.44,1.232-3.44,2.864C221.24,173.393,221.896,174.271,223.176,174.672 M218.376,179.424h-4.336l1.792-1.936
			c1.84-2,2.896-3.504,2.896-5.152c0-1.968-1.312-3.168-3.552-3.168c-2.256,0-3.584,1.264-3.584,3.424
			c0,0.096,0.016,0.208,0.016,0.305h1.28v-0.129c0-1.52,0.8-2.352,2.24-2.352c1.376,0,2.256,0.848,2.256,2
			c0,1.488-1.424,3.008-3.488,5.439l-2.416,2.865h6.896V179.424z M207.976,174.368l-1.632-0.72c-1.04-0.465-1.536-1.024-1.536-1.84
			c0-0.977,0.72-1.664,1.744-1.664c0.816,0,1.44,0.447,1.936,1.312l1.12-0.72c-0.56-1.137-1.584-1.729-2.96-1.729
			c-1.904,0-3.216,1.217-3.216,2.816c0,1.392,0.736,2.384,2.256,3.023l1.392,0.592c1.184,0.513,1.776,1.265,1.776,2.289
			c0,1.248-0.912,2.127-2.288,2.127c-1.152,0-1.936-0.719-2.272-2.111l-1.232,0.607c0.432,1.696,1.696,2.656,3.504,2.656
			c2.208,0,3.664-1.408,3.664-3.504C210.232,176.064,209.464,175.023,207.976,174.368 M197.512,171.84l1.824,4.208h-3.648
			L197.512,171.84z M197.512,168.832l-5.184,11.889h1.472l1.488-3.505h4.464l1.488,3.505h1.472L197.512,168.832z M183.736,179.439
			v-8.896h0.88c1.968,0,3.328,0.032,4.272,0.832c0.944,0.784,1.44,2,1.44,3.616c0,1.615-0.512,2.863-1.44,3.632
			c-0.96,0.8-2.32,0.815-4.272,0.815H183.736z M182.376,180.721h2.688c1.856,0,3.36-0.049,4.688-1.072c1.312-1.008,2-2.592,2-4.641
			c0-2.048-0.688-3.648-2-4.656c-1.392-1.072-3.04-1.072-5.184-1.072h-2.192V180.721z"/>
		<path clip-path="url(#SVGID_4_)" fill="#808285" d="M349.109,153.792l0.832,0.433c1.231-2.289,1.855-4.865,1.855-7.729
			c0-2.96-0.576-5.504-1.855-7.76l-0.832,0.384c1.151,2.272,1.647,4.64,1.647,7.376C350.757,149.312,350.261,151.68,349.109,153.792
			 M348.182,148.064c0-1.889-0.88-2.961-2.336-2.961s-2.352,1.072-2.352,2.961c0,1.888,0.896,2.959,2.352,2.959
			S348.182,149.952,348.182,148.064 M345.846,150.225c-0.752,0-1.199-0.752-1.199-2.16s0.447-2.16,1.199-2.16
			c0.784,0,1.2,0.72,1.2,2.16C347.046,149.473,346.598,150.225,345.846,150.225 M339.526,144.288c-0.752,0-1.2-0.752-1.2-2.16
			c0-1.407,0.448-2.176,1.2-2.176c0.783,0,1.199,0.735,1.199,2.176C340.726,143.536,340.278,144.288,339.526,144.288
			 M341.878,142.128c0-1.888-0.896-2.96-2.352-2.96s-2.353,1.072-2.353,2.96s0.896,2.944,2.353,2.944
			S341.878,144.016,341.878,142.128 M338.854,151.023h0.977l6.56-11.855h-0.96L338.854,151.023z M336.182,153.792
			c-1.151-2.112-1.647-4.479-1.647-7.296c0-2.736,0.496-5.104,1.647-7.376l-0.832-0.384c-1.279,2.256-1.855,4.8-1.855,7.76
			c0,2.863,0.624,5.439,1.855,7.729L336.182,153.792z M319.974,150.721h1.217v-3.697c0-0.783,0-1.375,0.416-1.887
			c0.399-0.496,1.023-0.769,1.743-0.769c1.28,0,1.904,0.704,1.904,2.144v4.209h1.216v-4.865c0-1.615-1.023-2.543-2.688-2.543
			c-1.12,0-1.984,0.432-2.592,1.359v-1.104h-1.217V150.721z M310.39,152.992l0.896,0.352l1.92-4.144l-1.328-0.464L310.39,152.992z
			 M303.51,149.52c0.561,1.008,1.488,1.504,2.816,1.504c1.584,0,2.607-0.943,2.607-2.271c0-1.168-0.688-1.68-2.08-2.128
			c-1.184-0.384-1.84-0.479-1.84-1.231c0-0.625,0.496-1.072,1.217-1.072c0.752,0,1.344,0.367,1.632,1.023l0.991-0.607
			c-0.384-0.912-1.312-1.424-2.544-1.424c-1.52,0-2.527,0.912-2.527,2.16c0,1.407,1.056,1.711,2.815,2.319
			c0.752,0.256,1.12,0.544,1.12,1.088c0,0.624-0.527,1.072-1.344,1.072s-1.424-0.368-1.824-1.136L303.51,149.52z M298.742,150.721
			h1.216v-3.488c0-1.873,0.64-2.801,1.936-2.801c0.225,0,0.48,0.049,0.753,0.145l0.415-1.104c-0.271-0.097-0.544-0.145-0.831-0.145
			c-1.089,0-1.761,0.512-2.4,1.729v-1.488h-1.088V150.721z M295.174,147.216c0,1.647-0.896,2.593-2.336,2.593
			c-1.52,0-2.384-0.977-2.384-2.705c0-1.631,0.864-2.576,2.336-2.576C294.166,144.527,295.174,145.552,295.174,147.216
			 M296.358,143.568h-1.217v1.344c-0.544-1.057-1.424-1.6-2.624-1.6c-2,0-3.359,1.455-3.359,3.855c0,2.336,1.376,3.855,3.424,3.855
			c1.104,0,2.016-0.56,2.592-1.6v1.297h1.185V143.568z M286.63,146.336h-4.352c0.128-1.216,1.008-1.968,2.176-1.968
			C285.75,144.368,286.55,145.072,286.63,146.336 M287.942,147.328v-0.24c0-2.367-1.345-3.792-3.44-3.792
			c-2.08,0-3.568,1.567-3.568,3.824c0,2.336,1.473,3.903,3.648,3.903c1.472,0,2.592-0.655,3.312-1.951l-0.928-0.624
			c-0.592,1.04-1.359,1.552-2.319,1.552c-1.377,0-2.368-1.008-2.368-2.561v-0.111H287.942z M274.311,154.208h1.376l4.8-10.64h-1.345
			l-2.208,5.136l-2.08-5.136h-1.408l2.8,6.447L274.311,154.208z M267.143,149.424h-4.336l1.792-1.936
			c1.84-2,2.896-3.504,2.896-5.152c0-1.968-1.312-3.168-3.552-3.168c-2.256,0-3.584,1.264-3.584,3.424
			c0,0.096,0.016,0.208,0.016,0.305h1.28v-0.129c0-1.52,0.8-2.352,2.24-2.352c1.376,0,2.256,0.848,2.256,2
			c0,1.488-1.424,3.008-3.488,5.439l-2.416,2.865h6.896V149.424z M257.367,142.768v-0.992l-9.2,3.776v0.8l9.2,3.776v-1.008
			l-7.808-3.168L257.367,142.768z M233.879,150.721h1.216v-3.697c0-0.783,0-1.375,0.416-1.887c0.4-0.496,1.024-0.769,1.744-0.769
			c1.28,0,1.904,0.704,1.904,2.144v4.209h1.216v-4.865c0-1.615-1.024-2.543-2.688-2.543c-1.12,0-1.984,0.432-2.592,1.359v-1.104
			h-1.216V150.721z M225.575,147.168c0-1.52,1.152-2.704,2.592-2.704c1.424,0,2.576,1.185,2.576,2.704s-1.152,2.704-2.576,2.704
			S225.575,148.688,225.575,147.168 M224.279,147.168c0,1.04,0.384,1.969,1.136,2.721c0.736,0.735,1.696,1.135,2.752,1.135
			c1.04,0,2-0.416,2.752-1.151c0.736-0.72,1.136-1.664,1.136-2.704s-0.4-2-1.136-2.72c-0.752-0.736-1.696-1.136-2.752-1.136
			s-2.016,0.383-2.752,1.119C224.663,145.168,224.279,146.128,224.279,147.168 M220.839,140.128c0,0.513,0.4,0.896,0.896,0.896
			s0.896-0.383,0.896-0.879s-0.4-0.912-0.896-0.912S220.839,139.632,220.839,140.128 M221.127,150.721h1.216v-7.152h-1.216V150.721z
			 M217.192,144.576v6.145h1.216v-6.145h1.344v-1.008h-1.344v-2.881h-1.216v2.881h-1.312v1.008H217.192z M213.448,147.216
			c0,1.647-0.896,2.593-2.336,2.593c-1.52,0-2.384-0.977-2.384-2.705c0-1.631,0.864-2.576,2.336-2.576
			C212.44,144.527,213.448,145.552,213.448,147.216 M214.632,143.568h-1.216v1.344c-0.544-1.057-1.424-1.6-2.624-1.6
			c-2,0-3.36,1.455-3.36,3.855c0,2.336,1.376,3.855,3.424,3.855c1.104,0,2.016-0.56,2.592-1.6v1.297h1.184V143.568z
			 M202.456,150.721h1.216v-3.488c0-1.873,0.64-2.801,1.936-2.801c0.224,0,0.48,0.049,0.752,0.145l0.416-1.104
			c-0.272-0.097-0.544-0.145-0.832-0.145c-1.088,0-1.76,0.512-2.4,1.729v-1.488h-1.088V150.721z M194.888,143.568h-1.216v4.271
			c0,2.096,1.136,3.184,3.216,3.184c2.144,0,3.264-1.119,3.264-3.279v-4.176h-1.216v3.52c0,1.889-0.448,2.768-2.016,2.768
			s-2.032-0.879-2.032-2.768V143.568z M183.736,149.439v-8.896h0.88c1.968,0,3.328,0.032,4.272,0.832c0.944,0.784,1.44,2,1.44,3.616
			c0,1.615-0.512,2.863-1.44,3.632c-0.96,0.8-2.32,0.815-4.272,0.815H183.736z M182.376,150.721h2.688
			c1.856,0,3.36-0.049,4.688-1.072c1.312-1.008,2-2.592,2-4.641c0-2.048-0.688-3.648-2-4.656c-1.392-1.072-3.04-1.072-5.184-1.072
			h-2.192V150.721z"/>
		<path clip-path="url(#SVGID_4_)" fill="#808285" d="M370.373,113.33c0-0.942,0.578-1.549,1.418-1.549
			c0.831,0,1.344,0.532,1.344,1.456c0,1.045-0.532,1.642-1.361,1.642C370.914,114.879,370.373,114.32,370.373,113.33
			 M369.693,108.331v7.06h0.68v-0.754c0.326,0.597,0.877,0.932,1.521,0.932c1.194,0,1.996-0.886,1.996-2.248
			c0-1.4-0.802-2.247-1.968-2.247c-0.69,0-1.204,0.316-1.521,0.931v-3.674H369.693z M365.061,123.792l0.832,0.432
			c1.232-2.288,1.856-4.864,1.856-7.728c0-2.96-0.576-5.504-1.856-7.76l-0.832,0.384c1.152,2.272,1.648,4.64,1.648,7.376
			C366.709,119.312,366.213,121.68,365.061,123.792 M355.653,119.44v-8.896h0.88c1.968,0,3.328,0.032,4.271,0.832
			c0.944,0.784,1.44,2,1.44,3.616c0,1.616-0.512,2.864-1.44,3.632c-0.96,0.8-2.319,0.816-4.271,0.816H355.653z M354.293,120.72
			h2.688c1.855,0,3.359-0.048,4.688-1.072c1.312-1.008,2-2.592,2-4.64c0-2.048-0.688-3.648-2-4.656
			c-1.392-1.072-3.04-1.072-5.184-1.072h-2.192V120.72z M350.309,114.368l-1.632-0.72c-1.04-0.464-1.536-1.024-1.536-1.84
			c0-0.976,0.721-1.664,1.744-1.664c0.816,0,1.44,0.448,1.937,1.312l1.12-0.72c-0.561-1.136-1.584-1.728-2.96-1.728
			c-1.904,0-3.217,1.216-3.217,2.816c0,1.392,0.736,2.384,2.257,3.024l1.392,0.592c1.184,0.512,1.776,1.264,1.776,2.288
			c0,1.248-0.912,2.128-2.288,2.128c-1.152,0-1.937-0.72-2.272-2.112l-1.231,0.608c0.432,1.696,1.695,2.656,3.504,2.656
			c2.208,0,3.664-1.408,3.664-3.504C352.565,116.064,351.797,115.024,350.309,114.368 M344.229,123.792
			c-1.151-2.112-1.647-4.48-1.647-7.296c0-2.736,0.496-5.104,1.647-7.376l-0.831-0.384c-1.28,2.256-1.856,4.8-1.856,7.76
			c0,2.864,0.624,5.44,1.856,7.728L344.229,123.792z M328.022,120.72h1.216v-3.696c0-0.784,0-1.376,0.416-1.888
			c0.399-0.496,1.023-0.768,1.744-0.768c1.279,0,1.903,0.704,1.903,2.144v4.208h1.216v-4.864c0-1.616-1.023-2.544-2.688-2.544
			c-1.12,0-1.984,0.432-2.592,1.36v-1.104h-1.216V120.72z M324.47,117.216c0,1.648-0.896,2.592-2.336,2.592
			c-1.52,0-2.384-0.976-2.384-2.704c0-1.632,0.864-2.576,2.336-2.576C323.462,114.528,324.47,115.552,324.47,117.216
			 M325.654,113.568h-1.217v1.344c-0.544-1.056-1.424-1.6-2.623-1.6c-2,0-3.36,1.456-3.36,3.856c0,2.336,1.376,3.856,3.424,3.856
			c1.104,0,2.016-0.56,2.592-1.6v1.296h1.185V113.568z M315.926,116.336h-4.352c0.128-1.216,1.008-1.968,2.176-1.968
			C315.046,114.368,315.846,115.072,315.926,116.336 M317.238,117.328v-0.24c0-2.368-1.345-3.792-3.44-3.792
			c-2.08,0-3.567,1.568-3.567,3.824c0,2.336,1.472,3.904,3.647,3.904c1.472,0,2.592-0.656,3.312-1.952l-0.929-0.624
			c-0.592,1.04-1.359,1.552-2.319,1.552c-1.376,0-2.368-1.008-2.368-2.56v-0.112H317.238z M307.318,120.72h1.216v-4.864
			c0-1.616-0.96-2.544-2.544-2.544c-1.088,0-1.92,0.464-2.544,1.456c-0.416-0.96-1.248-1.456-2.4-1.456
			c-1.072,0-1.888,0.448-2.464,1.36v-1.104h-1.216v7.152h1.216v-3.696c0-0.176-0.016-0.352-0.016-0.512
			c0-0.544,0.063-0.992,0.367-1.376c0.385-0.496,0.977-0.768,1.633-0.768c1.216,0,1.775,0.704,1.775,2.144v4.208h1.216v-3.696
			c0-0.16-0.016-0.304-0.016-0.448c0-0.592,0.08-1.04,0.384-1.44c0.384-0.496,0.96-0.768,1.616-0.768
			c1.216,0,1.776,0.704,1.776,2.144V120.72z M287.782,122.992l0.896,0.352l1.92-4.144l-1.328-0.464L287.782,122.992z
			 M280.902,119.52c0.56,1.008,1.487,1.504,2.815,1.504c1.584,0,2.608-0.944,2.608-2.272c0-1.168-0.688-1.68-2.08-2.128
			c-1.185-0.384-1.84-0.48-1.84-1.232c0-0.624,0.496-1.072,1.216-1.072c0.752,0,1.344,0.368,1.632,1.024l0.992-0.608
			c-0.384-0.912-1.312-1.424-2.544-1.424c-1.521,0-2.528,0.912-2.528,2.16c0,1.408,1.057,1.712,2.816,2.32
			c0.752,0.256,1.12,0.544,1.12,1.088c0,0.624-0.528,1.072-1.345,1.072c-0.815,0-1.424-0.368-1.823-1.136L280.902,119.52z
			 M276.134,120.72h1.216v-3.488c0-1.872,0.641-2.8,1.937-2.8c0.224,0,0.479,0.048,0.752,0.144l0.416-1.104
			c-0.272-0.096-0.544-0.144-0.832-0.144c-1.088,0-1.76,0.512-2.4,1.728v-1.488h-1.088V120.72z M272.566,117.216
			c0,1.648-0.896,2.592-2.336,2.592c-1.52,0-2.384-0.976-2.384-2.704c0-1.632,0.864-2.576,2.336-2.576
			C271.558,114.528,272.566,115.552,272.566,117.216 M273.75,113.568h-1.216v1.344c-0.544-1.056-1.424-1.6-2.624-1.6
			c-2,0-3.36,1.456-3.36,3.856c0,2.336,1.376,3.856,3.424,3.856c1.104,0,2.016-0.56,2.592-1.6v1.296h1.184V113.568z
			 M264.023,116.336h-4.352c0.128-1.216,1.008-1.968,2.176-1.968C263.143,114.368,263.943,115.072,264.023,116.336 M265.335,117.328
			v-0.24c0-2.368-1.344-3.792-3.44-3.792c-2.08,0-3.568,1.568-3.568,3.824c0,2.336,1.472,3.904,3.648,3.904
			c1.472,0,2.592-0.656,3.312-1.952l-0.928-0.624c-0.592,1.04-1.36,1.552-2.32,1.552c-1.376,0-2.368-1.008-2.368-2.56v-0.112
			H265.335z M251.703,124.208h1.376l4.8-10.64h-1.344l-2.208,5.136l-2.08-5.136h-1.408l2.8,6.448L251.703,124.208z M242.407,122.992
			l0.896,0.352l1.92-4.144l-1.328-0.464L242.407,122.992z M233.879,120.72h1.216v-3.696c0-0.784,0-1.376,0.416-1.888
			c0.4-0.496,1.024-0.768,1.744-0.768c1.28,0,1.904,0.704,1.904,2.144v4.208h1.216v-4.864c0-1.616-1.024-2.544-2.688-2.544
			c-1.12,0-1.984,0.432-2.592,1.36v-1.104h-1.216V120.72z M225.575,117.168c0-1.52,1.152-2.704,2.592-2.704
			c1.424,0,2.576,1.184,2.576,2.704s-1.152,2.704-2.576,2.704S225.575,118.688,225.575,117.168 M224.279,117.168
			c0,1.04,0.384,1.968,1.136,2.72c0.736,0.736,1.696,1.136,2.752,1.136c1.04,0,2-0.416,2.752-1.152
			c0.736-0.72,1.136-1.664,1.136-2.704s-0.4-2-1.136-2.72c-0.752-0.736-1.696-1.136-2.752-1.136s-2.016,0.384-2.752,1.12
			C224.663,115.168,224.279,116.128,224.279,117.168 M220.839,110.128c0,0.512,0.4,0.896,0.896,0.896s0.896-0.384,0.896-0.88
			s-0.4-0.912-0.896-0.912S220.839,109.632,220.839,110.128 M221.127,120.72h1.216v-7.152h-1.216V120.72z M217.192,114.576v6.144
			h1.216v-6.144h1.344v-1.008h-1.344v-2.88h-1.216v2.88h-1.312v1.008H217.192z M213.448,117.216c0,1.648-0.896,2.592-2.336,2.592
			c-1.52,0-2.384-0.976-2.384-2.704c0-1.632,0.864-2.576,2.336-2.576C212.44,114.528,213.448,115.552,213.448,117.216
			 M214.632,113.568h-1.216v1.344c-0.544-1.056-1.424-1.6-2.624-1.6c-2,0-3.36,1.456-3.36,3.856c0,2.336,1.376,3.856,3.424,3.856
			c1.104,0,2.016-0.56,2.592-1.6v1.296h1.184V113.568z M202.456,120.72h1.216v-3.488c0-1.872,0.64-2.8,1.936-2.8
			c0.224,0,0.48,0.048,0.752,0.144l0.416-1.104c-0.272-0.096-0.544-0.144-0.832-0.144c-1.088,0-1.76,0.512-2.4,1.728v-1.488h-1.088
			V120.72z M194.888,113.568h-1.216v4.272c0,2.096,1.136,3.184,3.216,3.184c2.144,0,3.264-1.12,3.264-3.28v-4.176h-1.216v3.52
			c0,1.888-0.448,2.768-2.016,2.768s-2.032-0.88-2.032-2.768V113.568z M183.736,119.44v-8.896h0.88c1.968,0,3.328,0.032,4.272,0.832
			c0.944,0.784,1.44,2,1.44,3.616c0,1.616-0.512,2.864-1.44,3.632c-0.96,0.8-2.32,0.816-4.272,0.816H183.736z M182.376,120.72h2.688
			c1.856,0,3.36-0.048,4.688-1.072c1.312-1.008,2-2.592,2-4.64c0-2.048-0.688-3.648-2-4.656c-1.392-1.072-3.04-1.072-5.184-1.072
			h-2.192V120.72z"/>
		<path clip-path="url(#SVGID_4_)" fill="#808285" d="M306.998,93.792l0.832,0.432c1.231-2.288,1.855-4.864,1.855-7.728
			c0-2.96-0.575-5.504-1.855-7.76l-0.832,0.384c1.152,2.272,1.648,4.64,1.648,7.376C308.646,89.312,308.15,91.68,306.998,93.792
			 M304.55,86.336h-4.352c0.128-1.216,1.008-1.968,2.176-1.968C303.67,84.368,304.47,85.072,304.55,86.336 M305.862,87.328v-0.24
			c0-2.368-1.345-3.792-3.44-3.792c-2.08,0-3.568,1.568-3.568,3.824c0,2.336,1.473,3.904,3.648,3.904
			c1.472,0,2.592-0.656,3.312-1.952l-0.929-0.624c-0.592,1.04-1.359,1.552-2.319,1.552c-1.376,0-2.368-1.008-2.368-2.56v-0.112
			H305.862z M295.75,90.72h1.216V78.608h-1.216V90.72z M292.135,87.216c0,1.648-0.896,2.592-2.336,2.592
			c-1.52,0-2.384-0.976-2.384-2.704c0-1.632,0.864-2.576,2.336-2.576C291.127,84.528,292.135,85.552,292.135,87.216 M293.319,83.568
			h-1.217v1.344c-0.544-1.056-1.424-1.6-2.624-1.6c-2,0-3.359,1.456-3.359,3.856c0,2.336,1.376,3.856,3.424,3.856
			c1.104,0,2.016-0.56,2.592-1.6v1.296h1.185V83.568z M283.127,90.72h1.216v-4.864c0-1.616-0.96-2.544-2.544-2.544
			c-1.088,0-1.92,0.464-2.544,1.456c-0.416-0.96-1.248-1.456-2.4-1.456c-1.072,0-1.888,0.448-2.464,1.36v-1.104h-1.216v7.152h1.216
			v-3.696c0-0.176-0.016-0.352-0.016-0.512c0-0.544,0.064-0.992,0.368-1.376c0.384-0.496,0.976-0.768,1.632-0.768
			c1.216,0,1.776,0.704,1.776,2.144v4.208h1.216v-3.696c0-0.16-0.017-0.304-0.017-0.448c0-0.592,0.08-1.04,0.385-1.44
			c0.384-0.496,0.96-0.768,1.615-0.768c1.217,0,1.776,0.704,1.776,2.144V90.72z M270.103,86.336h-4.352
			c0.128-1.216,1.008-1.968,2.176-1.968C269.223,84.368,270.023,85.072,270.103,86.336 M271.415,87.328v-0.24
			c0-2.368-1.344-3.792-3.44-3.792c-2.08,0-3.568,1.568-3.568,3.824c0,2.336,1.472,3.904,3.648,3.904
			c1.472,0,2.592-0.656,3.312-1.952l-0.928-0.624c-0.592,1.04-1.36,1.552-2.32,1.552c-1.376,0-2.368-1.008-2.368-2.56v-0.112
			H271.415z M260.807,90.72h1.216v-6.144h1.904v-1.008h-1.904v-1.904c0-1.376,0.032-2.032,0.944-2.032c0.32,0,0.64,0.08,0.96,0.256
			v-1.264c-0.336-0.112-0.688-0.16-1.056-0.16c-1.712,0-2.064,0.896-2.064,3.04v2.064h-1.376v1.008h1.376V90.72z M254.295,88.064
			c0-1.888-0.88-2.96-2.336-2.96s-2.352,1.072-2.352,2.96s0.896,2.96,2.352,2.96S254.295,89.952,254.295,88.064 M251.959,90.224
			c-0.752,0-1.2-0.752-1.2-2.16c0-1.408,0.448-2.16,1.2-2.16c0.784,0,1.2,0.72,1.2,2.16
			C253.159,89.472,252.711,90.224,251.959,90.224 M245.639,84.288c-0.752,0-1.2-0.752-1.2-2.16c0-1.408,0.448-2.176,1.2-2.176
			c0.784,0,1.2,0.736,1.2,2.176C246.839,83.536,246.391,84.288,245.639,84.288 M247.991,82.128c0-1.888-0.896-2.96-2.352-2.96
			s-2.352,1.072-2.352,2.96c0,1.888,0.896,2.944,2.352,2.944S247.991,84.016,247.991,82.128 M244.967,91.024h0.976l6.56-11.856
			h-0.96L244.967,91.024z M242.295,93.792c-1.152-2.112-1.648-4.48-1.648-7.296c0-2.736,0.496-5.104,1.648-7.376l-0.832-0.384
			c-1.28,2.256-1.856,4.8-1.856,7.76c0,2.864,0.624,5.44,1.856,7.728L242.295,93.792z M229.399,90.72h1.216v-3.488
			c0-1.872,0.64-2.8,1.936-2.8c0.224,0,0.48,0.048,0.752,0.144l0.416-1.104c-0.272-0.096-0.544-0.144-0.832-0.144
			c-1.088,0-1.76,0.512-2.4,1.728v-1.488h-1.088V90.72z M226.312,86.336h-4.352c0.128-1.216,1.008-1.968,2.176-1.968
			C225.432,84.368,226.232,85.072,226.312,86.336 M227.624,87.328v-0.24c0-2.368-1.344-3.792-3.44-3.792
			c-2.08,0-3.568,1.568-3.568,3.824c0,2.336,1.472,3.904,3.648,3.904c1.472,0,2.592-0.656,3.312-1.952l-0.928-0.624
			c-0.592,1.04-1.36,1.552-2.32,1.552c-1.376,0-2.368-1.008-2.368-2.56v-0.112H227.624z M217.64,87.184
			c0,1.696-0.928,2.656-2.4,2.656c-1.424,0-2.32-1.024-2.32-2.816c0-1.584,0.88-2.496,2.304-2.496
			C216.664,84.528,217.64,85.568,217.64,87.184 M218.824,78.608h-1.216v6.304c-0.544-1.056-1.424-1.6-2.608-1.6
			c-2,0-3.376,1.456-3.376,3.856c0,2.336,1.376,3.856,3.424,3.856c1.104,0,2.032-0.576,2.592-1.6v1.296h1.184V78.608z
			 M203.336,90.72h1.216v-3.696c0-0.784,0-1.376,0.416-1.888c0.4-0.496,1.024-0.768,1.744-0.768c1.28,0,1.904,0.704,1.904,2.144
			v4.208h1.216v-4.864c0-1.616-1.024-2.544-2.688-2.544c-1.12,0-1.984,0.432-2.592,1.36v-1.104h-1.216V90.72z M200.264,86.336
			h-4.352c0.128-1.216,1.008-1.968,2.176-1.968C199.384,84.368,200.184,85.072,200.264,86.336 M201.576,87.328v-0.24
			c0-2.368-1.344-3.792-3.44-3.792c-2.08,0-3.568,1.568-3.568,3.824c0,2.336,1.472,3.904,3.648,3.904
			c1.472,0,2.592-0.656,3.312-1.952l-0.928-0.624c-0.592,1.04-1.36,1.552-2.32,1.552c-1.376,0-2.368-1.008-2.368-2.56v-0.112
			H201.576z M188.664,84.816v1.216h3.264c-0.16,2.24-1.856,3.76-4.128,3.76c-2.608,0-4.48-1.936-4.48-4.672
			c0-2.896,1.824-4.864,4.48-4.864c1.616,0,2.848,0.688,3.68,2.08l1.136-0.912c-1.072-1.616-2.688-2.4-4.864-2.4
			c-1.648,0-3.024,0.496-4.064,1.488c-1.232,1.168-1.84,2.704-1.84,4.608c0,2.32,1.072,4.208,2.944,5.232
			c0.768,0.416,1.744,0.672,2.88,0.672c3.488,0,5.712-2.176,5.712-5.824v-0.384H188.664z"/>
		<path clip-path="url(#SVGID_4_)" fill="#808285" d="M331.718,63.792l0.832,0.432c1.232-2.288,1.856-4.864,1.856-7.728
			c0-2.96-0.576-5.504-1.856-7.76l-0.832,0.384c1.152,2.272,1.648,4.64,1.648,7.376C333.366,59.312,332.87,61.68,331.718,63.792
			 M322.31,59.44v-8.896h0.881c1.968,0,3.327,0.032,4.271,0.832c0.944,0.784,1.44,2,1.44,3.616c0,1.616-0.513,2.864-1.44,3.632
			c-0.96,0.8-2.32,0.816-4.271,0.816H322.31z M320.95,60.72h2.688c1.856,0,3.36-0.048,4.688-1.072c1.312-1.008,2-2.592,2-4.64
			c0-2.048-0.688-3.648-2-4.656c-1.393-1.072-3.04-1.072-5.185-1.072h-2.191V60.72z M316.966,54.368l-1.632-0.72
			c-1.04-0.464-1.536-1.024-1.536-1.84c0-0.976,0.72-1.664,1.744-1.664c0.816,0,1.44,0.448,1.936,1.312l1.12-0.72
			c-0.56-1.136-1.584-1.728-2.96-1.728c-1.903,0-3.216,1.216-3.216,2.816c0,1.392,0.736,2.384,2.256,3.024l1.393,0.592
			c1.184,0.512,1.775,1.264,1.775,2.288c0,1.248-0.912,2.128-2.288,2.128c-1.151,0-1.936-0.72-2.271-2.112l-1.232,0.608
			c0.433,1.696,1.696,2.656,3.504,2.656c2.208,0,3.664-1.408,3.664-3.504C319.222,56.064,318.454,55.024,316.966,54.368
			 M310.886,63.792c-1.151-2.112-1.647-4.48-1.647-7.296c0-2.736,0.496-5.104,1.647-7.376l-0.832-0.384
			c-1.279,2.256-1.855,4.8-1.855,7.76c0,2.864,0.624,5.44,1.855,7.728L310.886,63.792z M294.679,60.72h1.216v-3.696
			c0-0.784,0-1.376,0.416-1.888c0.4-0.496,1.024-0.768,1.744-0.768c1.28,0,1.904,0.704,1.904,2.144v4.208h1.216v-4.864
			c0-1.616-1.023-2.544-2.688-2.544c-1.12,0-1.984,0.432-2.593,1.36v-1.104h-1.216V60.72z M291.127,57.216
			c0,1.648-0.896,2.592-2.336,2.592c-1.52,0-2.384-0.976-2.384-2.704c0-1.632,0.864-2.576,2.336-2.576
			C290.119,54.528,291.127,55.552,291.127,57.216 M292.311,53.568h-1.216v1.344c-0.544-1.056-1.424-1.6-2.624-1.6
			c-2,0-3.359,1.456-3.359,3.856c0,2.336,1.376,3.856,3.424,3.856c1.104,0,2.016-0.56,2.592-1.6v1.296h1.184V53.568z
			 M282.583,56.336h-4.352c0.128-1.216,1.008-1.968,2.176-1.968C281.703,54.368,282.503,55.072,282.583,56.336 M283.895,57.328
			v-0.24c0-2.368-1.344-3.792-3.439-3.792c-2.08,0-3.568,1.568-3.568,3.824c0,2.336,1.472,3.904,3.648,3.904
			c1.472,0,2.592-0.656,3.312-1.952l-0.928-0.624c-0.592,1.04-1.36,1.552-2.32,1.552c-1.376,0-2.367-1.008-2.367-2.56v-0.112
			H283.895z M273.975,60.72h1.216v-4.864c0-1.616-0.96-2.544-2.544-2.544c-1.088,0-1.92,0.464-2.544,1.456
			c-0.416-0.96-1.248-1.456-2.4-1.456c-1.072,0-1.888,0.448-2.464,1.36v-1.104h-1.216v7.152h1.216v-3.696
			c0-0.176-0.016-0.352-0.016-0.512c0-0.544,0.064-0.992,0.368-1.376c0.384-0.496,0.976-0.768,1.632-0.768
			c1.216,0,1.776,0.704,1.776,2.144v4.208h1.216v-3.696c0-0.16-0.016-0.304-0.016-0.448c0-0.592,0.08-1.04,0.384-1.44
			c0.384-0.496,0.96-0.768,1.616-0.768c1.216,0,1.776,0.704,1.776,2.144V60.72z M254.439,62.992l0.896,0.352l1.92-4.144
			l-1.328-0.464L254.439,62.992z M247.559,59.52c0.56,1.008,1.488,1.504,2.816,1.504c1.584,0,2.608-0.944,2.608-2.272
			c0-1.168-0.688-1.68-2.08-2.128c-1.184-0.384-1.84-0.48-1.84-1.232c0-0.624,0.496-1.072,1.216-1.072
			c0.752,0,1.344,0.368,1.632,1.024l0.992-0.608c-0.384-0.912-1.312-1.424-2.544-1.424c-1.52,0-2.528,0.912-2.528,2.16
			c0,1.408,1.056,1.712,2.816,2.32c0.752,0.256,1.12,0.544,1.12,1.088c0,0.624-0.528,1.072-1.344,1.072s-1.424-0.368-1.824-1.136
			L247.559,59.52z M242.791,60.72h1.216v-3.488c0-1.872,0.64-2.8,1.936-2.8c0.224,0,0.48,0.048,0.752,0.144l0.416-1.104
			c-0.272-0.096-0.544-0.144-0.832-0.144c-1.088,0-1.76,0.512-2.4,1.728v-1.488h-1.088V60.72z M239.223,57.216
			c0,1.648-0.896,2.592-2.336,2.592c-1.52,0-2.384-0.976-2.384-2.704c0-1.632,0.864-2.576,2.336-2.576
			C238.215,54.528,239.223,55.552,239.223,57.216 M240.407,53.568h-1.216v1.344c-0.544-1.056-1.424-1.6-2.624-1.6
			c-2,0-3.36,1.456-3.36,3.856c0,2.336,1.376,3.856,3.424,3.856c1.104,0,2.016-0.56,2.592-1.6v1.296h1.184V53.568z M230.68,56.336
			h-4.352c0.128-1.216,1.008-1.968,2.176-1.968C229.8,54.368,230.6,55.072,230.68,56.336 M231.992,57.328v-0.24
			c0-2.368-1.344-3.792-3.44-3.792c-2.08,0-3.568,1.568-3.568,3.824c0,2.336,1.472,3.904,3.648,3.904
			c1.472,0,2.592-0.656,3.312-1.952l-0.928-0.624c-0.592,1.04-1.36,1.552-2.32,1.552c-1.376,0-2.368-1.008-2.368-2.56v-0.112
			H231.992z M218.36,64.208h1.376l4.8-10.64h-1.344l-2.208,5.136l-2.08-5.136h-1.408l2.8,6.448L218.36,64.208z M209.064,62.992
			l0.896,0.352l1.92-4.144l-1.328-0.464L209.064,62.992z M206.296,56.336h-4.352c0.128-1.216,1.008-1.968,2.176-1.968
			C205.416,54.368,206.216,55.072,206.296,56.336 M207.608,57.328v-0.24c0-2.368-1.344-3.792-3.44-3.792
			c-2.08,0-3.568,1.568-3.568,3.824c0,2.336,1.472,3.904,3.648,3.904c1.472,0,2.592-0.656,3.312-1.952l-0.928-0.624
			c-0.592,1.04-1.36,1.552-2.32,1.552c-1.376,0-2.368-1.008-2.368-2.56v-0.112H207.608z M197.64,57.168
			c0,1.648-0.896,2.608-2.336,2.608c-1.52,0-2.384-0.976-2.384-2.704c0-1.632,0.864-2.576,2.336-2.576
			C196.632,54.496,197.64,55.504,197.64,57.168 M198.856,53.568h-1.248v1.328c-0.528-1.04-1.44-1.584-2.624-1.584
			c-2,0-3.36,1.424-3.36,3.808c0,2.32,1.376,3.824,3.424,3.824c1.104,0,2.032-0.56,2.592-1.584v1.2c0,0.656-0.032,1.184-0.304,1.632
			c-0.368,0.624-1.072,0.944-2.048,0.944c-1.376,0-2.128-0.624-2.128-1.68V61.36h-1.376c0.048,1.792,1.296,2.848,3.488,2.848
			c1.264,0,2.224-0.368,2.88-1.072c0.672-0.72,0.704-1.52,0.704-2.544V53.568z M185.992,51.84l1.824,4.208h-3.648L185.992,51.84z
			 M185.992,48.832l-5.184,11.888h1.472l1.488-3.504h4.464l1.488,3.504h1.472L185.992,48.832z"/>
		<path clip-path="url(#SVGID_4_)" fill="#808285" d="M315.814,243.792l0.832,0.432c1.231-2.288,1.855-4.863,1.855-7.728
			c0-2.96-0.576-5.504-1.855-7.76l-0.832,0.384c1.151,2.271,1.647,4.64,1.647,7.376C317.462,239.312,316.966,241.68,315.814,243.792
			 M306.406,239.44v-8.896h0.88c1.968,0,3.328,0.032,4.271,0.832c0.944,0.784,1.44,2,1.44,3.616s-0.512,2.864-1.44,3.632
			c-0.96,0.8-2.319,0.816-4.271,0.816H306.406z M305.046,240.72h2.688c1.855,0,3.359-0.048,4.688-1.071c1.312-1.009,2-2.593,2-4.641
			s-0.688-3.647-2-4.656c-1.392-1.071-3.04-1.071-5.184-1.071h-2.192V240.72z M301.062,234.368l-1.632-0.72
			c-1.04-0.465-1.536-1.024-1.536-1.841c0-0.976,0.721-1.664,1.744-1.664c0.816,0,1.44,0.448,1.937,1.312l1.12-0.72
			c-0.561-1.137-1.584-1.729-2.96-1.729c-1.904,0-3.217,1.216-3.217,2.816c0,1.392,0.736,2.384,2.257,3.023l1.392,0.593
			c1.184,0.512,1.776,1.264,1.776,2.287c0,1.248-0.912,2.129-2.288,2.129c-1.152,0-1.937-0.721-2.272-2.112l-1.231,0.607
			c0.432,1.696,1.695,2.656,3.504,2.656c2.208,0,3.664-1.408,3.664-3.504C303.318,236.064,302.55,235.024,301.062,234.368
			 M294.983,243.792c-1.152-2.112-1.648-4.48-1.648-7.296c0-2.736,0.496-5.104,1.648-7.376l-0.832-0.384
			c-1.28,2.256-1.856,4.8-1.856,7.76c0,2.864,0.624,5.439,1.856,7.728L294.983,243.792z M278.775,240.72h1.216v-3.695
			c0-0.784,0-1.376,0.416-1.889c0.399-0.496,1.023-0.768,1.744-0.768c1.279,0,1.903,0.704,1.903,2.144v4.208h1.217v-4.863
			c0-1.616-1.024-2.545-2.688-2.545c-1.12,0-1.984,0.433-2.592,1.36v-1.104h-1.216V240.72z M275.223,237.216
			c0,1.648-0.896,2.592-2.336,2.592c-1.52,0-2.384-0.976-2.384-2.704c0-1.632,0.864-2.575,2.336-2.575
			C274.215,234.528,275.223,235.552,275.223,237.216 M276.407,233.568h-1.216v1.344c-0.544-1.056-1.424-1.601-2.624-1.601
			c-2,0-3.36,1.456-3.36,3.856c0,2.336,1.376,3.856,3.424,3.856c1.104,0,2.016-0.561,2.592-1.601v1.296h1.184V233.568z
			 M266.679,236.336h-4.352c0.128-1.216,1.008-1.968,2.176-1.968C265.799,234.368,266.599,235.072,266.679,236.336 M267.991,237.328
			v-0.24c0-2.368-1.344-3.792-3.44-3.792c-2.08,0-3.568,1.568-3.568,3.824c0,2.336,1.472,3.904,3.648,3.904
			c1.472,0,2.592-0.656,3.312-1.952l-0.928-0.624c-0.592,1.04-1.36,1.552-2.32,1.552c-1.376,0-2.368-1.008-2.368-2.56v-0.112
			H267.991z M258.071,240.72h1.216v-4.863c0-1.616-0.96-2.545-2.544-2.545c-1.088,0-1.92,0.465-2.544,1.456
			c-0.416-0.96-1.248-1.456-2.4-1.456c-1.072,0-1.888,0.448-2.464,1.36v-1.104h-1.216v7.151h1.216v-3.695
			c0-0.177-0.016-0.353-0.016-0.513c0-0.544,0.064-0.992,0.368-1.376c0.384-0.496,0.976-0.768,1.632-0.768
			c1.216,0,1.776,0.704,1.776,2.144v4.208h1.216v-3.695c0-0.16-0.016-0.305-0.016-0.448c0-0.592,0.08-1.04,0.384-1.44
			c0.384-0.496,0.96-0.768,1.616-0.768c1.216,0,1.776,0.704,1.776,2.144V240.72z M238.535,242.992l0.896,0.352l1.92-4.144
			l-1.328-0.464L238.535,242.992z M234.919,240.72h1.36V229.28h-1.36V240.72z M224.744,239.44v-8.896h0.88
			c1.968,0,3.328,0.032,4.272,0.832c0.944,0.784,1.44,2,1.44,3.616s-0.512,2.864-1.44,3.632c-0.96,0.8-2.32,0.816-4.272,0.816
			H224.744z M223.384,240.72h2.688c1.856,0,3.36-0.048,4.688-1.071c1.312-1.009,2-2.593,2-4.641s-0.688-3.647-2-4.656
			c-1.392-1.071-3.04-1.071-5.184-1.071h-2.192V240.72z M217.336,237.776h3.648v-1.232h-3.648V237.776z M210.792,236.64h-1.68
			l2.336,2.528c-0.64,0.352-1.36,0.512-2.208,0.512c-0.976,0-1.872-0.288-2.608-0.815c-1.296-0.944-1.952-2.24-1.952-3.856
			c0-1.248,0.48-2.432,1.36-3.312s2.064-1.36,3.312-1.36c1.696,0,3.152,0.816,4.016,2.24c0.416,0.688,0.64,1.552,0.64,2.496
			c0,1.408-0.56,2.624-1.52,3.392L210.792,236.64z M215.608,241.824l-2.176-2.353c1.344-1.071,2.048-2.624,2.048-4.447
			c0-1.744-0.672-3.297-1.904-4.416c-1.152-1.04-2.592-1.584-4.224-1.584s-3.152,0.607-4.32,1.743
			c-1.152,1.137-1.792,2.641-1.792,4.24c0,1.984,0.848,3.664,2.448,4.849c0.992,0.735,2.176,1.119,3.472,1.119
			c1.264,0,2.336-0.256,3.248-0.783l1.52,1.632H215.608z M197.464,231.84l1.824,4.208h-3.648L197.464,231.84z M197.464,228.832
			l-5.184,11.888h1.472l1.488-3.504h4.464l1.488,3.504h1.472L197.464,228.832z M182.376,240.72h1.36v-5.744h6.08v5.744h1.36V229.28
			h-1.36v4.399h-6.08v-4.399h-1.36V240.72z"/>
		<path clip-path="url(#SVGID_4_)" fill="#FFFFFF" d="M820.792,26.435v-8.334h-1.907v1.368c-0.45-1.062-1.44-1.656-2.809-1.656
			c-2.195,0-3.744,1.764-3.744,4.446c0,2.844,1.477,4.518,3.799,4.518c1.17,0,2.069-0.468,2.754-1.422v1.08H820.792z
			 M818.938,22.241c0,1.764-1.008,2.844-2.322,2.844c-1.439,0-2.286-0.99-2.286-2.772c0-1.764,0.883-2.808,2.322-2.808
			C818.074,19.505,818.938,20.495,818.938,22.241 M808.156,14.501c0,0.648,0.54,1.206,1.206,1.206s1.188-0.522,1.188-1.206
			s-0.522-1.188-1.188-1.188S808.156,13.853,808.156,14.501 M808.408,26.435h1.908v-8.334h-1.908V26.435z M806.735,26.435v-1.674
			h-4.536l4.536-6.66h-7.271v1.674h4.176l-4.645,6.66H806.735z M786.575,26.435v-3.798c0-1.026,0-1.728,0.324-2.268
			c0.36-0.594,1.008-0.954,1.764-0.954c1.314,0,1.656,0.846,1.656,2.736v4.284h1.926v-3.798c0-2.142,0.433-3.222,2.088-3.222
			c1.44,0,1.62,0.9,1.62,2.736v4.284h1.908v-5.724c0-0.702-0.036-1.278-0.306-1.728c-0.45-0.756-1.278-1.188-2.395-1.188
			c-1.296,0-2.231,0.522-3.096,1.656c-0.45-1.116-1.296-1.656-2.592-1.656c-1.332,0-2.25,0.522-3.006,1.674v-1.368h-1.801v8.334
			H786.575z M779.88,14.501c0,0.648,0.54,1.206,1.206,1.206s1.188-0.522,1.188-1.206s-0.521-1.188-1.188-1.188
			S779.88,13.853,779.88,14.501 M780.132,26.435h1.907v-8.334h-1.907V26.435z M777.701,16.697l0.108-2.106
			c-1.26-0.882-2.61-1.332-4.158-1.332c-1.926,0-3.6,0.666-4.878,1.926c-1.278,1.26-1.962,2.952-1.962,4.842
			c0,1.872,0.684,3.6,1.944,4.842c1.26,1.242,2.951,1.908,4.932,1.908c1.548,0,2.862-0.396,3.996-1.206v-2.358
			c-1.26,1.08-2.628,1.62-4.158,1.62c-2.574,0-4.536-1.962-4.536-4.788c0-2.862,1.926-4.86,4.752-4.86
			C775.199,15.185,776.514,15.689,777.701,16.697"/>
		<path clip-path="url(#SVGID_4_)" fill="#FFFFFF" d="M633.016,22.295c0,1.566-1.17,2.772-2.574,2.772
			c-1.422,0-2.574-1.206-2.574-2.772s1.152-2.772,2.574-2.772S633.016,20.729,633.016,22.295 M625.852,22.277
			c0,1.224,0.468,2.322,1.35,3.186c0.864,0.846,2.017,1.314,3.223,1.314c1.241,0,2.376-0.468,3.275-1.332
			c0.864-0.828,1.332-1.926,1.332-3.168c0-1.206-0.486-2.304-1.35-3.15c-0.882-0.864-2.017-1.314-3.258-1.314
			c-1.206,0-2.358,0.45-3.223,1.296C626.319,19.955,625.852,21.071,625.852,22.277 M617.932,22.241c0-1.746,0.863-2.736,2.286-2.736
			c1.439,0,2.321,1.044,2.321,2.808c0,1.782-0.828,2.772-2.267,2.772C618.939,25.085,617.932,24.005,617.932,22.241 M617.985,12.809
			h-1.908v13.626h1.908v-1.08c0.684,0.954,1.584,1.422,2.754,1.422c2.322,0,3.798-1.674,3.798-4.518
			c0-2.682-1.529-4.446-3.726-4.446c-1.367,0-2.375,0.594-2.826,1.656V12.809z M614.188,22.547v-0.36
			c0-2.772-1.584-4.374-4.266-4.374c-2.593,0-4.373,1.89-4.373,4.482c0,2.718,1.709,4.482,4.373,4.482
			c1.871,0,3.239-0.81,4.176-2.484l-1.602-0.9c-0.611,1.152-1.387,1.638-2.61,1.638c-1.386,0-2.269-0.918-2.358-2.484H614.188z
			 M612.207,21.269h-4.554c0.306-1.242,1.062-1.836,2.304-1.836C611.272,19.433,612.063,20.063,612.207,21.269 M604.307,20.477
			v-2.142c-0.648-0.36-1.368-0.522-2.214-0.522c-2.755,0-4.626,1.8-4.626,4.482c0,2.646,1.817,4.482,4.428,4.482
			c0.918,0,1.71-0.198,2.412-0.594v-2.196c-0.559,0.702-1.278,1.044-2.196,1.044c-1.656,0-2.664-1.044-2.664-2.79
			c0-1.674,1.026-2.754,2.574-2.754C602.938,19.487,603.73,19.847,604.307,20.477 M595.54,26.435v-8.334h-1.907v1.368
			c-0.45-1.062-1.44-1.656-2.809-1.656c-2.196,0-3.744,1.764-3.744,4.446c0,2.844,1.477,4.518,3.798,4.518
			c1.171,0,2.07-0.468,2.755-1.422v1.08H595.54z M593.687,22.241c0,1.764-1.008,2.844-2.322,2.844c-1.439,0-2.286-0.99-2.286-2.772
			c0-1.764,0.882-2.808,2.322-2.808C592.822,19.505,593.687,20.495,593.687,22.241 M583.156,26.435h1.908V12.809h-1.908V26.435z
			 M575.83,18.947v-3.582h0.54c1.944,0,2.898,0.324,2.898,1.872c0,1.494-0.972,1.71-2.898,1.71H575.83z M575.704,20.657h1.206
			c1.314,0,2.358-0.036,3.223-0.648c0.792-0.576,1.296-1.656,1.296-2.898c0-1.242-0.504-2.304-1.296-2.88
			c-0.864-0.63-1.908-0.666-3.223-0.666h-3.168v12.87h1.962V20.657z"/>
	</g>
</g>
</svg>
