<?xml version="1.0" encoding="utf-8"?>
<!-- Generator: Adobe Illustrator 15.1.0, SVG Export Plug-In . SVG Version: 6.00 Build 0)  -->
<!DOCTYPE svg PUBLIC "-//W3C//DTD SVG 1.1//EN" "http://www.w3.org/Graphics/SVG/1.1/DTD/svg11.dtd">
<svg version="1.1" id="art" xmlns="http://www.w3.org/2000/svg" xmlns:xlink="http://www.w3.org/1999/xlink" x="0px" y="0px"
	 width="912px" height="557px" viewBox="0 0 912 557" enable-background="new 0 0 912 557" xml:space="preserve">
<g>
	<defs>
		<rect id="SVGID_1_" width="912" height="556.924"/>
	</defs>
	<clipPath id="SVGID_2_">
		<use xlink:href="#SVGID_1_"  overflow="visible"/>
	</clipPath>
	<g clip-path="url(#SVGID_2_)">
		<text transform="matrix(1 0 0 1 547.2246 256.7544)"><tspan x="0" y="0" fill="#F9A25E" font-family="'FuturaBT-Medium'" font-size="16">Ci</tspan><tspan x="15.552" y="0" fill="#F9A25E" font-family="'FuturaBT-Medium'" font-size="16">m</tspan><tspan x="29.472" y="0" fill="#F9A25E" font-family="'FuturaBT-Medium'" font-size="16">z</tspan><tspan x="36.592" y="0" fill="#F9A25E" font-family="'FuturaBT-Medium'" font-size="16">i</tspan><tspan x="40.703" y="0" fill="#F9A25E" font-family="'FuturaBT-Medium'" font-size="16">a </tspan><tspan x="54.719" y="0" fill="#F9A25E" font-family="'FuturaBT-Medium'" font-size="16">+/</tspan><tspan x="74.814" y="0" fill="#F9A25E" font-family="'FuturaBT-Medium'" font-size="16">- DMA</tspan><tspan x="122.046" y="0" fill="#F9A25E" font-family="'FuturaBT-Medium'" font-size="16">R</tspan><tspan x="130.926" y="0" fill="#F9A25E" font-family="'FuturaBT-Medium'" font-size="16">D</tspan><tspan x="142.702" y="0" fill="#F9A25E" font-family="'FuturaBT-Medium'" font-size="16">S</tspan><tspan x="151.406" y="0" fill="#F9A25E" font-family="'FuturaBT-Medium'" font-size="16">(</tspan><tspan x="156.189" y="0" fill="#F9A25E" font-family="'FuturaBT-Medium'" font-size="16">s</tspan><tspan x="162.926" y="0" fill="#F9A25E" font-family="'FuturaBT-Medium'" font-size="16">)</tspan></text>
	</g>
	<rect x="103.03" y="30.672" clip-path="url(#SVGID_2_)" fill="#C0C1C2" width="86" height="40"/>
	<rect x="103.03" y="70.672" clip-path="url(#SVGID_2_)" fill="#E2E2E3" width="85.999" height="340"/>
	<rect x="280.03" y="30.672" clip-path="url(#SVGID_2_)" fill="#F9A25E" width="173" height="40"/>
	<rect x="191.03" y="30.672" clip-path="url(#SVGID_2_)" fill="#F9A25E" width="87" height="40"/>
	<rect x="456.076" y="30.672" clip-path="url(#SVGID_2_)" fill="#006227" width="350.954" height="40"/>
	<rect x="456.03" y="70.672" clip-path="url(#SVGID_2_)" fill="#CCE0D4" width="351" height="340"/>
	<rect x="280.03" y="70.672" clip-path="url(#SVGID_2_)" fill="#FBDAC1" width="173" height="340"/>
	<rect x="191.03" y="70.672" clip-path="url(#SVGID_2_)" fill="#FBDAC1" width="87" height="340"/>
	<g clip-path="url(#SVGID_2_)">
		<defs>
			<rect id="SVGID_3_" width="912" height="556.924"/>
		</defs>
		<clipPath id="SVGID_4_">
			<use xlink:href="#SVGID_3_"  overflow="visible"/>
		</clipPath>
		<g opacity="0.3" clip-path="url(#SVGID_4_)">
			<g>
				<defs>
					<rect id="SVGID_5_" x="445.53" y="29.672" width="19" height="382"/>
				</defs>
				<clipPath id="SVGID_6_">
					<use xlink:href="#SVGID_5_"  overflow="visible"/>
				</clipPath>
				
					<line clip-path="url(#SVGID_6_)" fill="none" stroke="#6D6E71" stroke-dasharray="4,4" x1="455.03" y1="30.672" x2="455.03" y2="410.672"/>
			</g>
		</g>
		<path clip-path="url(#SVGID_4_)" fill="none" stroke="#A8A8AA" stroke-width="5" d="M454.03,300.672h7.086c0,0,4.961,0,4.961-4.96
			v-51.04c0,0,0-4,4-4h7.846"/>
		<path clip-path="url(#SVGID_4_)" fill="none" stroke="#A8A8AA" stroke-width="5" d="M191.03,300.672h-6.086
			c0,0-4.961,0-4.961-4.96v-51.04c0,0,0-4-4-4h-7.847"/>
		<path clip-path="url(#SVGID_4_)" fill="none" stroke="#A8A8AA" stroke-width="5" d="M454.03,180.672h7.086
			c0,0,4.961,0,4.961,4.961v51.039c0,0,0,4,4,4h6.953"/>
		<path clip-path="url(#SVGID_4_)" fill="none" stroke="#A8A8AA" stroke-width="5" d="M191.03,180.672h-6.086
			c0,0-4.961,0-4.961,4.961v50.078c0,0,0,4.961-4.96,4.961H158.03"/>
		<path clip-path="url(#SVGID_4_)" fill="#FFFFFF" d="M481.03,200.672c0,0-4,0-4,4v72c0,0,0,4,4,4h300c0,0,4,0,4-4v-72c0,0,0-4-4-4
			H481.03z"/>
	</g>
	<polygon clip-path="url(#SVGID_2_)" fill="#A7A8AA" points="477.029,246.012 482.37,240.672 477.029,235.332 	"/>
	<g clip-path="url(#SVGID_2_)">
		<defs>
			<rect id="SVGID_7_" width="912" height="556.924"/>
		</defs>
		<clipPath id="SVGID_8_">
			<use xlink:href="#SVGID_7_"  overflow="visible"/>
		</clipPath>
		<path clip-path="url(#SVGID_8_)" fill="#FFFFFF" d="M118.212,200.672c0,0-4,0-4,4v72c0,0,0,4,4,4h47c0,0,4,0,4-4v-72c0,0,0-4-4-4
			H118.212z"/>
		<line clip-path="url(#SVGID_8_)" fill="none" stroke="#F9A25E" stroke-width="3" x1="0" y1="410.672" x2="912" y2="410.672"/>
		<g clip-path="url(#SVGID_8_)">
			<g>
				<defs>
					<rect id="SVGID_9_" x="772.062" y="437.73" width="29.715" height="10.15"/>
				</defs>
				<clipPath id="SVGID_10_">
					<use xlink:href="#SVGID_9_"  overflow="visible"/>
				</clipPath>
				<path clip-path="url(#SVGID_10_)" fill="#F9A25E" d="M790.138,439.445c0.858,0,1.387,0.494,1.387,1.309
					c0,0.793-0.506,1.277-1.409,1.277c-0.88,0-1.375-0.495-1.375-1.277C788.74,439.951,789.269,439.445,790.138,439.445
					 M790.126,446.123c-1.056,0-1.649-0.605-1.649-1.585c0-0.99,0.615-1.617,1.649-1.617c1.035,0,1.651,0.616,1.651,1.617
					C791.777,445.518,791.184,446.123,790.126,446.123 M789.104,442.514c-1.034,0.286-1.616,1.057-1.616,2.09
					c0,1.365,0.978,2.277,2.65,2.277c1.684,0,2.64-0.891,2.64-2.299c0-1.012-0.583-1.771-1.616-2.068
					c0.847-0.252,1.33-0.89,1.33-1.738c0-1.221-0.89-2.045-2.354-2.045c-1.441,0-2.364,0.847-2.364,1.969
					C787.773,441.635,788.224,442.24,789.104,442.514 M785.804,445.781h-2.981l1.233-1.33c1.265-1.377,1.989-2.41,1.989-3.542
					c0-1.354-0.9-2.179-2.441-2.179c-1.551,0-2.463,0.869-2.463,2.354c0,0.065,0.011,0.142,0.011,0.208h0.879v-0.088
					c0-1.045,0.55-1.617,1.54-1.617c0.947,0,1.552,0.583,1.552,1.376c0,1.022-0.979,2.067-2.398,3.74l-1.66,1.968h4.74V445.781z"/>
			</g>
		</g>
		<g clip-path="url(#SVGID_8_)">
			<g>
				<defs>
					<rect id="SVGID_11_" x="441.935" y="437.73" width="28.637" height="9.941"/>
				</defs>
				<clipPath id="SVGID_12_">
					<use xlink:href="#SVGID_11_"  overflow="visible"/>
				</clipPath>
				<path clip-path="url(#SVGID_12_)" fill="#F9A25E" d="M461.329,445.781h-2.98l1.231-1.33c1.266-1.375,1.991-2.41,1.991-3.543
					c0-1.354-0.901-2.178-2.442-2.178c-1.551,0-2.463,0.868-2.463,2.354c0,0.066,0.011,0.143,0.011,0.209h0.88v-0.088
					c0-1.045,0.55-1.617,1.539-1.617c0.947,0,1.553,0.584,1.553,1.375c0,1.022-0.979,2.068-2.399,3.74l-1.66,1.969h4.74V445.781z
					 M452.541,446.672h0.912v-7.787h-1.99l-0.527,0.812h1.605V446.672z"/>
			</g>
		</g>
		<g clip-path="url(#SVGID_8_)">
			<g>
				<defs>
					<rect id="SVGID_13_" x="267.513" y="437.73" width="23.531" height="9.941"/>
				</defs>
				<clipPath id="SVGID_14_">
					<use xlink:href="#SVGID_13_"  overflow="visible"/>
				</clipPath>
				<path clip-path="url(#SVGID_14_)" fill="#F9A25E" d="M280.198,446.672h0.923v-1.693h0.924v-0.759h-0.924v-5.489h-0.396
					l-4.212,6.248h3.686V446.672z M280.198,444.22h-2.3l2.3-3.454V444.22z"/>
			</g>
		</g>
		<g clip-path="url(#SVGID_8_)">
			<g>
				<defs>
					<rect id="SVGID_15_" x="179.545" y="437.73" width="23.455" height="10.15"/>
				</defs>
				<clipPath id="SVGID_16_">
					<use xlink:href="#SVGID_15_"  overflow="visible"/>
				</clipPath>
				<path clip-path="url(#SVGID_16_)" fill="#F9A25E" d="M191.284,446.881c1.65,0,2.716-1.462,2.716-4.081
					c0-2.618-1.055-4.069-2.738-4.069c-1.64,0-2.716,1.474-2.716,4.069C188.546,445.396,189.622,446.881,191.284,446.881
					 M191.272,446.111c-1.089,0-1.761-1.188-1.761-3.322c0-2.123,0.672-3.301,1.761-3.301c1.145,0,1.762,1.134,1.762,3.322
					C193.034,444.99,192.417,446.111,191.272,446.111"/>
			</g>
		</g>
		<g clip-path="url(#SVGID_8_)">
			<g>
				<defs>
					<rect id="SVGID_17_" x="89.56" y="437.73" width="26.985" height="9.941"/>
				</defs>
				<clipPath id="SVGID_18_">
					<use xlink:href="#SVGID_17_"  overflow="visible"/>
				</clipPath>
				<path clip-path="url(#SVGID_18_)" fill="#F9A25E" d="M105.699,446.672h0.922v-1.693h0.924v-0.759h-0.924v-5.489h-0.396
					l-4.212,6.248h3.686V446.672z M105.699,444.22H103.4l2.299-3.455V444.22z M98.56,444.648h2.508v-0.847H98.56V444.648z"/>
			</g>
		</g>
		<path clip-path="url(#SVGID_8_)" fill="#F9A25E" d="M472.668,497.473c0.56,1.008,1.488,1.504,2.816,1.504
			c1.584,0,2.607-0.944,2.607-2.272c0-1.168-0.688-1.68-2.08-2.128c-1.184-0.384-1.84-0.479-1.84-1.232
			c0-0.623,0.496-1.071,1.216-1.071c0.752,0,1.345,0.368,1.632,1.023l0.992-0.607c-0.384-0.912-1.312-1.424-2.544-1.424
			c-1.52,0-2.527,0.911-2.527,2.159c0,1.408,1.056,1.713,2.815,2.32c0.752,0.256,1.12,0.544,1.12,1.088
			c0,0.624-0.528,1.072-1.344,1.072c-0.816,0-1.424-0.368-1.824-1.136L472.668,497.473z M465.628,498.672h1.216l0.017-3.775
			l3.68,3.775h1.712l-3.888-3.872l3.567-3.279H470.3l-3.439,3.248l-0.017-8.208h-1.216V498.672z M462.54,494.288h-4.353
			c0.129-1.216,1.009-1.968,2.177-1.968C461.66,492.32,462.46,493.024,462.54,494.288 M463.852,495.28v-0.24
			c0-2.368-1.344-3.792-3.439-3.792c-2.08,0-3.568,1.568-3.568,3.824c0,2.336,1.473,3.904,3.648,3.904
			c1.472,0,2.592-0.656,3.312-1.952l-0.928-0.624c-0.592,1.04-1.36,1.552-2.32,1.552c-1.376,0-2.368-1.008-2.368-2.56v-0.112
			H463.852z M454.396,494.288h-4.353c0.128-1.216,1.008-1.968,2.176-1.968C453.516,492.32,454.316,493.024,454.396,494.288
			 M455.708,495.28v-0.24c0-2.368-1.344-3.792-3.44-3.792c-2.08,0-3.567,1.568-3.567,3.824c0,2.336,1.472,3.904,3.647,3.904
			c1.473,0,2.593-0.656,3.312-1.952l-0.928-0.624c-0.593,1.04-1.36,1.552-2.32,1.552c-1.376,0-2.368-1.008-2.368-2.56v-0.112
			H455.708z M433.436,487.232l4.433,11.888l2.976-8.848l2.992,8.848l4.432-11.888h-1.472l-2.912,8.416l-3.056-8.864l-3.024,8.864
			l-2.896-8.416H433.436z"/>
		<path clip-path="url(#SVGID_8_)" fill="#F9A25E" d="M177.445,8.561c0,1.648-0.896,2.608-2.336,2.608
			c-1.52,0-2.384-0.976-2.384-2.704c0-1.632,0.864-2.576,2.336-2.576C176.438,5.888,177.445,6.896,177.445,8.561 M178.662,4.96
			h-1.248v1.328c-0.528-1.04-1.44-1.584-2.624-1.584c-2,0-3.36,1.424-3.36,3.808c0,2.32,1.376,3.824,3.424,3.824
			c1.104,0,2.032-0.56,2.592-1.584v1.2c0,0.656-0.031,1.184-0.304,1.632c-0.368,0.624-1.072,0.944-2.048,0.944
			c-1.376,0-2.128-0.624-2.128-1.68v-0.096h-1.376c0.048,1.792,1.296,2.848,3.488,2.848c1.264,0,2.224-0.368,2.88-1.072
			c0.672-0.72,0.704-1.52,0.704-2.544V4.96z M163.142,12.112h1.216V8.416c0-0.784,0-1.376,0.416-1.888
			c0.4-0.496,1.024-0.768,1.744-0.768c1.28,0,1.904,0.704,1.904,2.144v4.208h1.216V7.248c0-1.616-1.024-2.544-2.688-2.544
			c-1.119,0-1.983,0.432-2.592,1.36V4.96h-1.216V12.112z M159.126,1.521c0,0.512,0.399,0.896,0.896,0.896s0.896-0.384,0.896-0.88
			s-0.4-0.912-0.896-0.912S159.126,1.024,159.126,1.521 M159.414,12.112h1.216V4.96h-1.216V12.112z M150.518,12.112h1.216V8.416
			c0-0.784,0-1.376,0.416-1.888c0.4-0.496,1.024-0.768,1.744-0.768c1.28,0,1.904,0.704,1.904,2.144v4.208h1.216V7.248
			c0-1.616-1.024-2.544-2.688-2.544c-1.12,0-1.984,0.432-2.593,1.36V4.96h-1.216V12.112z M147.446,7.729h-4.352
			c0.128-1.216,1.008-1.968,2.176-1.968C146.566,5.76,147.367,6.464,147.446,7.729 M148.759,8.72V8.48
			c0-2.368-1.344-3.792-3.44-3.792c-2.08,0-3.567,1.568-3.567,3.824c0,2.336,1.472,3.904,3.647,3.904
			c1.473,0,2.592-0.656,3.312-1.952l-0.929-0.624c-0.592,1.04-1.359,1.552-2.319,1.552c-1.376,0-2.368-1.008-2.368-2.56V8.72
			H148.759z M139.303,7.729h-4.352c0.128-1.216,1.008-1.968,2.176-1.968C138.423,5.76,139.223,6.464,139.303,7.729 M140.614,8.72
			V8.48c0-2.368-1.344-3.792-3.439-3.792c-2.08,0-3.568,1.568-3.568,3.824c0,2.336,1.473,3.904,3.648,3.904
			c1.472,0,2.592-0.656,3.312-1.952l-0.928-0.624c-0.592,1.04-1.36,1.552-2.32,1.552c-1.376,0-2.367-1.008-2.367-2.56V8.72H140.614z
			 M128.711,12.112h1.216V8.624c0-1.872,0.64-2.8,1.936-2.8c0.225,0,0.48,0.048,0.752,0.144l0.416-1.104
			c-0.271-0.096-0.544-0.144-0.832-0.144c-1.088,0-1.76,0.512-2.399,1.728V4.96h-1.088V12.112z M127.079,10.416
			c-0.752,0.544-1.44,0.816-2.208,0.816c-1.488,0-2.561-1.152-2.561-2.592c0-1.696,1.088-2.752,2.656-2.752
			c0.704,0,1.376,0.224,1.984,0.624V5.2c-0.656-0.32-1.425-0.496-2.225-0.496c-2.144,0-3.728,1.568-3.728,3.904
			c0,2.256,1.456,3.808,3.68,3.808c0.928,0,1.744-0.192,2.4-0.576V10.416z M117.734,5.76l-1.632-0.72
			c-1.04-0.464-1.536-1.024-1.536-1.84c0-0.976,0.721-1.664,1.744-1.664c0.816,0,1.44,0.448,1.937,1.312l1.12-0.72
			c-0.561-1.136-1.585-1.728-2.961-1.728c-1.903,0-3.216,1.216-3.216,2.816c0,1.392,0.736,2.384,2.256,3.024l1.393,0.592
			c1.184,0.512,1.775,1.264,1.775,2.288c0,1.248-0.911,2.128-2.287,2.128c-1.152,0-1.937-0.72-2.272-2.112l-1.232,0.608
			c0.433,1.696,1.696,2.656,3.505,2.656c2.208,0,3.663-1.408,3.663-3.504C119.99,7.456,119.223,6.416,117.734,5.76"/>
		<path clip-path="url(#SVGID_8_)" fill="#F9A25E" d="M418.201,8.576c0,1.696-0.929,2.656-2.4,2.656c-1.424,0-2.32-1.024-2.32-2.816
			c0-1.584,0.88-2.496,2.305-2.496C417.225,5.92,418.201,6.96,418.201,8.576 M419.385,0h-1.216v6.304
			c-0.544-1.056-1.424-1.6-2.608-1.6c-2,0-3.376,1.456-3.376,3.856c0,2.336,1.376,3.855,3.424,3.855c1.104,0,2.032-0.576,2.593-1.6
			v1.296h1.184V0z M409.656,7.729h-4.352c0.128-1.216,1.008-1.968,2.176-1.968C408.776,5.76,409.577,6.464,409.656,7.729
			 M410.969,8.72V8.48c0-2.368-1.344-3.792-3.44-3.792c-2.08,0-3.567,1.568-3.567,3.824c0,2.336,1.472,3.904,3.647,3.904
			c1.473,0,2.593-0.656,3.312-1.952l-0.928-0.624c-0.593,1.04-1.36,1.552-2.32,1.552c-1.376,0-2.368-1.008-2.368-2.56V8.72H410.969z
			 M400.856,12.112h1.216V0h-1.216V12.112z M397.064,12.112h1.216V0h-1.216V12.112z M388.696,8.561c0-1.521,1.152-2.704,2.593-2.704
			c1.424,0,2.575,1.184,2.575,2.704c0,1.52-1.151,2.704-2.575,2.704C389.864,11.264,388.696,10.08,388.696,8.561 M387.4,8.561
			c0,1.04,0.385,1.968,1.137,2.72c0.735,0.736,1.695,1.136,2.752,1.136c1.04,0,2-0.416,2.752-1.152
			c0.735-0.72,1.136-1.664,1.136-2.704c0-1.04-0.4-2-1.136-2.72c-0.752-0.736-1.696-1.136-2.752-1.136
			c-1.057,0-2.017,0.384-2.752,1.12C387.785,6.561,387.4,7.521,387.4,8.561 M382.457,12.112h1.216V8.624c0-1.872,0.64-2.8,1.936-2.8
			c0.225,0,0.48,0.048,0.752,0.144l0.416-1.104c-0.271-0.096-0.544-0.144-0.832-0.144c-1.088,0-1.76,0.512-2.399,1.728V4.96h-1.088
			V12.112z M378.569,5.968v6.144h1.217V5.968h1.344V4.96h-1.344V2.08h-1.217v2.88h-1.312v1.008H378.569z M369.546,12.112h1.216
			V8.416c0-0.784,0-1.376,0.416-1.888c0.4-0.496,1.024-0.768,1.744-0.768c1.28,0,1.904,0.704,1.904,2.144v4.208h1.216V7.248
			c0-1.616-1.024-2.544-2.688-2.544c-1.12,0-1.983,0.432-2.592,1.36V4.96h-1.216V12.112z M361.242,8.561
			c0-1.521,1.151-2.704,2.592-2.704c1.424,0,2.576,1.184,2.576,2.704c0,1.52-1.152,2.704-2.576,2.704S361.242,10.08,361.242,8.561
			 M359.945,8.561c0,1.04,0.385,1.968,1.137,2.72c0.735,0.736,1.695,1.136,2.752,1.136c1.04,0,2-0.416,2.752-1.152
			c0.735-0.72,1.136-1.664,1.136-2.704c0-1.04-0.4-2-1.136-2.72c-0.752-0.736-1.696-1.136-2.752-1.136
			c-1.057,0-2.017,0.384-2.752,1.12C360.33,6.561,359.945,7.521,359.945,8.561 M358.905,10.416
			c-0.752,0.544-1.439,0.816-2.208,0.816c-1.487,0-2.56-1.152-2.56-2.592c0-1.696,1.088-2.752,2.656-2.752
			c0.704,0,1.376,0.224,1.983,0.624V5.2c-0.655-0.32-1.424-0.496-2.224-0.496c-2.144,0-3.728,1.568-3.728,3.904
			c0,2.256,1.455,3.808,3.68,3.808c0.928,0,1.744-0.192,2.399-0.576V10.416z M347.498,9.168h3.647V7.937h-3.647V9.168z
			 M339.339,8.561c0-1.521,1.151-2.704,2.592-2.704c1.424,0,2.575,1.184,2.575,2.704c0,1.52-1.151,2.704-2.575,2.704
			C340.506,11.264,339.339,10.08,339.339,8.561 M338.043,8.561c0,1.04,0.384,1.968,1.135,2.72c0.737,0.736,1.697,1.136,2.753,1.136
			c1.039,0,2-0.416,2.752-1.152c0.735-0.72,1.136-1.664,1.136-2.704c0-1.04-0.4-2-1.136-2.72c-0.752-0.736-1.696-1.136-2.752-1.136
			s-2.016,0.384-2.753,1.12C338.427,6.561,338.043,7.521,338.043,8.561 M330.715,8.576c0-1.616,0.992-2.656,2.432-2.656
			c1.424,0,2.305,0.912,2.305,2.496c0,1.792-0.912,2.816-2.337,2.816C331.643,11.232,330.715,10.272,330.715,8.576 M329.547,0
			v12.112h1.168v-1.296c0.56,1.024,1.504,1.6,2.607,1.6c2.049,0,3.425-1.52,3.425-3.855c0-2.4-1.376-3.856-3.376-3.856
			c-1.185,0-2.064,0.544-2.608,1.6V0H329.547z M326.475,7.729h-4.352c0.128-1.216,1.008-1.968,2.176-1.968
			C325.595,5.76,326.395,6.464,326.475,7.729 M327.787,8.72V8.48c0-2.368-1.345-3.792-3.44-3.792c-2.08,0-3.568,1.568-3.568,3.824
			c0,2.336,1.473,3.904,3.648,3.904c1.472,0,2.592-0.656,3.312-1.952l-0.928-0.624c-0.592,1.04-1.359,1.552-2.32,1.552
			c-1.376,0-2.367-1.008-2.367-2.56V8.72H327.787z M319.787,10.416c-0.752,0.544-1.44,0.816-2.208,0.816
			c-1.488,0-2.561-1.152-2.561-2.592c0-1.696,1.088-2.752,2.656-2.752c0.704,0,1.376,0.224,1.983,0.624V5.2
			c-0.655-0.32-1.424-0.496-2.224-0.496c-2.144,0-3.728,1.568-3.728,3.904c0,2.256,1.456,3.808,3.68,3.808
			c0.928,0,1.744-0.192,2.4-0.576V10.416z M310.747,8.608c0,1.648-0.896,2.592-2.336,2.592c-1.521,0-2.385-0.976-2.385-2.704
			c0-1.632,0.864-2.576,2.336-2.576C309.738,5.92,310.747,6.944,310.747,8.608 M311.931,4.96h-1.216v1.344
			c-0.544-1.056-1.424-1.6-2.624-1.6c-2,0-3.36,1.456-3.36,3.856c0,2.336,1.376,3.855,3.424,3.855c1.104,0,2.017-0.56,2.593-1.6
			v1.296h1.184V4.96z M301.547,12.112h1.216V0h-1.216V12.112z M294.923,6.976h1.04c1.184,0,2.111-0.032,2.88-0.576
			c0.72-0.512,1.168-1.456,1.168-2.576s-0.448-2.064-1.168-2.576c-0.769-0.544-1.712-0.576-2.88-0.576h-2.4v11.44h1.36V6.976z
			 M294.923,5.744V1.92h0.656c1.983,0,2.96,0.32,2.96,1.984c0,1.584-0.992,1.84-2.96,1.84H294.923z M281.004,12.112h1.216
			l0.015-3.776l3.681,3.776h1.713l-3.889-3.872l3.568-3.28h-1.632l-3.441,3.248L282.22,0h-1.216V12.112z M277.916,7.729h-4.353
			c0.128-1.216,1.008-1.968,2.176-1.968C277.036,5.76,277.836,6.464,277.916,7.729 M279.228,8.72V8.48
			c0-2.368-1.344-3.792-3.439-3.792c-2.08,0-3.568,1.568-3.568,3.824c0,2.336,1.472,3.904,3.647,3.904
			c1.473,0,2.593-0.656,3.312-1.952l-0.928-0.624c-0.592,1.04-1.36,1.552-2.32,1.552c-1.376,0-2.368-1.008-2.368-2.56V8.72H279.228z
			 M269.771,7.729h-4.352c0.128-1.216,1.008-1.968,2.176-1.968C268.892,5.76,269.691,6.464,269.771,7.729 M271.084,8.72V8.48
			c0-2.368-1.345-3.792-3.44-3.792c-2.08,0-3.567,1.568-3.567,3.824c0,2.336,1.472,3.904,3.647,3.904
			c1.472,0,2.592-0.656,3.312-1.952l-0.929-0.624c-0.592,1.04-1.359,1.552-2.319,1.552c-1.376,0-2.368-1.008-2.368-2.56V8.72
			H271.084z M248.812,0.672l4.433,11.888l2.976-8.848l2.992,8.848l4.432-11.888h-1.472l-2.912,8.416l-3.056-8.864l-3.024,8.864
			l-2.896-8.416H248.812z M244.252,9.168h3.647V7.937h-3.647V9.168z M241.58,10.816h-4.336l1.792-1.936
			c1.84-2,2.896-3.504,2.896-5.152c0-1.968-1.312-3.168-3.552-3.168c-2.256,0-3.584,1.264-3.584,3.424
			c0,0.096,0.016,0.208,0.016,0.304h1.28V4.16c0-1.52,0.8-2.352,2.24-2.352c1.376,0,2.256,0.848,2.256,2
			c0,1.488-1.424,3.008-3.488,5.44l-2.416,2.864h6.896V10.816z M228.796,12.112h1.328V0.784h-2.896l-0.768,1.184h2.336V12.112z"/>
		<path clip-path="url(#SVGID_8_)" fill="#F9A25E" d="M697.559,12.112h1.216V8.416c0-0.784,0-1.376,0.416-1.888
			c0.399-0.496,1.024-0.768,1.744-0.768c1.28,0,1.903,0.704,1.903,2.144v4.208h1.217V7.248c0-1.616-1.024-2.544-2.688-2.544
			c-1.12,0-1.983,0.432-2.592,1.36V4.96h-1.216V12.112z M689.254,8.56c0-1.52,1.152-2.704,2.593-2.704
			c1.424,0,2.575,1.184,2.575,2.704s-1.151,2.704-2.575,2.704C690.422,11.264,689.254,10.08,689.254,8.56 M687.958,8.56
			c0,1.04,0.385,1.968,1.137,2.72c0.735,0.736,1.695,1.136,2.752,1.136c1.04,0,2-0.416,2.752-1.152
			c0.735-0.72,1.136-1.664,1.136-2.704s-0.4-2-1.136-2.72c-0.752-0.736-1.696-1.136-2.752-1.136c-1.057,0-2.017,0.384-2.752,1.12
			C688.343,6.56,687.958,7.52,687.958,8.56 M684.519,1.52c0,0.512,0.399,0.896,0.896,0.896s0.896-0.384,0.896-0.88
			s-0.4-0.912-0.896-0.912S684.519,1.024,684.519,1.52 M684.807,12.112h1.216V4.96h-1.216V12.112z M677.559,10.912
			c0.56,1.008,1.487,1.504,2.815,1.504c1.584,0,2.608-0.944,2.608-2.272c0-1.168-0.688-1.68-2.08-2.128
			c-1.184-0.384-1.84-0.48-1.84-1.232c0-0.624,0.496-1.072,1.216-1.072c0.752,0,1.344,0.368,1.632,1.024l0.992-0.608
			c-0.384-0.912-1.312-1.424-2.544-1.424c-1.521,0-2.528,0.912-2.528,2.16c0,1.408,1.057,1.712,2.816,2.32
			c0.752,0.256,1.12,0.544,1.12,1.088c0,0.624-0.528,1.072-1.345,1.072c-0.815,0-1.424-0.368-1.823-1.136L677.559,10.912z
			 M669.479,12.112h1.216V8.416c0-0.784,0-1.376,0.416-1.888c0.4-0.496,1.024-0.768,1.744-0.768c1.28,0,1.904,0.704,1.904,2.144
			v4.208h1.216V7.248c0-1.616-1.024-2.544-2.688-2.544c-1.12,0-1.983,0.432-2.592,1.36V4.96h-1.216V12.112z M666.406,7.728h-4.352
			c0.128-1.216,1.008-1.968,2.176-1.968C665.526,5.76,666.326,6.464,666.406,7.728 M667.719,8.72V8.48
			c0-2.368-1.345-3.792-3.44-3.792c-2.08,0-3.568,1.568-3.568,3.824c0,2.336,1.473,3.904,3.648,3.904
			c1.472,0,2.592-0.656,3.312-1.952l-0.928-0.624c-0.592,1.04-1.359,1.552-2.32,1.552c-1.376,0-2.367-1.008-2.367-2.56V8.72H667.719
			z M657.463,5.968v6.144h1.217V5.968h1.344V4.96h-1.344V2.08h-1.217v2.88h-1.312v1.008H657.463z M649.176,12.112h1.52l1.936-2.768
			l1.952,2.768h1.521l-2.769-3.696l2.688-3.456h-1.521l-1.872,2.56l-1.855-2.56h-1.52l2.672,3.456L649.176,12.112z M642.295,12.112
			h6.032v-1.264h-4.672V6.464h4.672V5.2h-4.672V1.92h4.672V0.672h-6.032V12.112z M633.8,12.112h1.216V0H633.8V12.112z
			 M630.663,7.728h-4.352c0.128-1.216,1.008-1.968,2.176-1.968C629.783,5.76,630.583,6.464,630.663,7.728 M631.976,8.72V8.48
			c0-2.368-1.345-3.792-3.44-3.792c-2.08,0-3.567,1.568-3.567,3.824c0,2.336,1.472,3.904,3.647,3.904
			c1.472,0,2.592-0.656,3.312-1.952l-0.929-0.624c-0.592,1.04-1.359,1.552-2.319,1.552c-1.376,0-2.368-1.008-2.368-2.56V8.72
			H631.976z M617.688,8.576c0-1.616,0.992-2.656,2.432-2.656c1.424,0,2.305,0.912,2.305,2.496c0,1.792-0.912,2.816-2.337,2.816
			C618.615,11.232,617.688,10.272,617.688,8.576 M616.52,0v12.112h1.168v-1.296c0.56,1.024,1.504,1.6,2.607,1.6
			c2.049,0,3.425-1.52,3.425-3.856c0-2.4-1.376-3.856-3.376-3.856c-1.185,0-2.064,0.544-2.608,1.6V0H616.52z M612.968,8.608
			c0,1.648-0.896,2.592-2.337,2.592c-1.52,0-2.384-0.976-2.384-2.704c0-1.632,0.864-2.576,2.336-2.576
			C611.959,5.92,612.968,6.944,612.968,8.608 M614.151,4.96h-1.216v1.344c-0.544-1.056-1.424-1.6-2.624-1.6
			c-2,0-3.36,1.456-3.36,3.856c0,2.336,1.376,3.856,3.424,3.856c1.104,0,2.017-0.56,2.593-1.6v1.296h1.184V4.96z M603.769,12.112
			h1.216V0h-1.216V12.112z M597.784,9.168h3.648V7.936h-3.648V9.168z M589.097,12.112h1.216V8.416c0-0.784,0-1.376,0.416-1.888
			c0.399-0.496,1.023-0.768,1.744-0.768c1.279,0,1.903,0.704,1.903,2.144v4.208h1.217V7.248c0-1.616-1.024-2.544-2.688-2.544
			c-1.12,0-1.984,0.432-2.592,1.36V4.96h-1.216V12.112z M586.024,7.728h-4.353c0.129-1.216,1.009-1.968,2.177-1.968
			C585.145,5.76,585.944,6.464,586.024,7.728 M587.336,8.72V8.48c0-2.368-1.344-3.792-3.439-3.792c-2.08,0-3.568,1.568-3.568,3.824
			c0,2.336,1.473,3.904,3.648,3.904c1.472,0,2.592-0.656,3.312-1.952L586.36,9.84c-0.592,1.04-1.36,1.552-2.32,1.552
			c-1.376,0-2.368-1.008-2.368-2.56V8.72H587.336z M573.064,8.56c0-1.696,0.928-2.672,2.4-2.672c1.424,0,2.319,1.024,2.319,2.816
			c0,1.584-0.88,2.512-2.304,2.512C574.04,11.216,573.064,10.176,573.064,8.56 M571.881,15.6h1.216v-4.784
			c0.544,1.056,1.424,1.6,2.607,1.6c2,0,3.376-1.44,3.376-3.856c0-2.352-1.376-3.856-3.424-3.856c-1.104,0-2.048,0.56-2.607,1.6
			V4.96h-1.168V15.6z M563.752,11.136c-1.264,0-2.399-0.48-3.312-1.392c-0.896-0.912-1.376-2.048-1.376-3.328
			c0-1.28,0.479-2.448,1.376-3.36c0.88-0.896,2.048-1.376,3.312-1.376c1.265,0,2.416,0.48,3.312,1.376
			c0.896,0.896,1.376,2.08,1.376,3.36c0,1.28-0.48,2.432-1.376,3.328C566.152,10.656,565,11.136,563.752,11.136 M569.864,6.416
			c0-1.632-0.608-3.12-1.776-4.256c-1.151-1.12-2.72-1.744-4.336-1.744c-1.615,0-3.168,0.624-4.319,1.744
			c-1.168,1.136-1.792,2.624-1.792,4.256c0,1.632,0.624,3.104,1.792,4.24c1.151,1.12,2.704,1.76,4.319,1.76
			c1.601,0,3.168-0.624,4.336-1.76C569.24,9.536,569.864,8.048,569.864,6.416"/>
		<path clip-path="url(#SVGID_8_)" fill="#FFFFFF" d="M195.03,260.672c0,0-4,0-4,4v72c0,0,0,4,4,4h255c0,0,4,0,4-4v-72c0,0,0-4-4-4
			H195.03z"/>
		<path clip-path="url(#SVGID_8_)" fill="#FFFFFF" d="M195.03,140.672c0,0-4,0-4,4v72c0,0,0,4,4,4h255c0,0,4,0,4-4v-72c0,0,0-4-4-4
			H195.03z"/>
		<g clip-path="url(#SVGID_8_)">
			<g>
				<defs>
					<rect id="SVGID_19_" x="182.03" y="259.672" width="106" height="82"/>
				</defs>
				<clipPath id="SVGID_20_">
					<use xlink:href="#SVGID_19_"  overflow="visible"/>
				</clipPath>
				<path clip-path="url(#SVGID_20_)" fill="#ECECED" d="M279.03,340.672v-80h-84c0,0-4,0-4,4v72c0,0,0,4,4,4H279.03z"/>
			</g>
		</g>
		<path clip-path="url(#SVGID_8_)" fill="#808285" d="M454.5,108.172c2.761,0,5-2.239,5-5c0-2.761-2.239-5-5-5s-5,2.239-5,5
			C449.5,105.933,451.739,108.172,454.5,108.172"/>
		<path clip-path="url(#SVGID_8_)" fill="#808285" d="M660.289,106.491h-3.252l1.344-1.452c1.38-1.501,2.171-2.629,2.171-3.864
			c0-1.477-0.981-2.376-2.663-2.376c-1.692,0-2.687,0.947-2.687,2.568c0,0.071,0.012,0.155,0.012,0.226h0.958v-0.095
			c0-1.14,0.601-1.764,1.682-1.764c1.031,0,1.692,0.636,1.692,1.501c0,1.115-1.068,2.255-2.618,4.08l-1.81,2.147h5.171V106.491z
			 M650.702,107.462h0.994v-8.495h-2.17l-0.576,0.887h1.752V107.462z M639.038,107.462h0.91l0.012-2.832l2.761,2.832h1.283
			l-2.916-2.904l2.676-2.459h-1.224l-2.58,2.435l-0.012-6.155h-0.91V107.462z M636.723,104.175h-3.267
			c0.096-0.913,0.757-1.478,1.633-1.478C636.062,102.697,636.662,103.226,636.723,104.175 M637.704,104.917v-0.179
			c0-1.776-1.006-2.843-2.579-2.843c-1.561,0-2.675,1.175-2.675,2.867c0,1.753,1.102,2.928,2.735,2.928
			c1.104,0,1.943-0.492,2.482-1.464l-0.694-0.468c-0.443,0.781-1.021,1.165-1.74,1.165c-1.032,0-1.777-0.757-1.777-1.921v-0.085
			H637.704z M630.614,104.175h-3.266c0.096-0.913,0.757-1.478,1.633-1.478C629.954,102.697,630.555,103.226,630.614,104.175
			 M631.596,104.917v-0.179c0-1.776-1.006-2.843-2.578-2.843c-1.562,0-2.676,1.175-2.676,2.867c0,1.753,1.103,2.928,2.735,2.928
			c1.105,0,1.944-0.492,2.483-1.464l-0.694-0.468c-0.444,0.781-1.021,1.165-1.741,1.165c-1.032,0-1.776-0.757-1.776-1.921v-0.085
			H631.596z M614.895,98.883l3.323,8.915l2.231-6.636l2.244,6.636l3.323-8.915h-1.104l-2.184,6.312l-2.292-6.648l-2.268,6.648
			l-2.172-6.312H614.895z M609.53,102.854v4.608h0.911v-4.608h1.008v-0.755h-1.008v-2.16h-0.911v2.16h-0.984v0.755H609.53z
			 M606.723,104.834c0,1.237-0.673,1.945-1.752,1.945c-1.142,0-1.789-0.732-1.789-2.029c0-1.224,0.647-1.932,1.753-1.932
			C605.966,102.818,606.723,103.586,606.723,104.834 M607.609,102.099h-0.911v1.007c-0.408-0.792-1.068-1.199-1.969-1.199
			c-1.5,0-2.52,1.091-2.52,2.891c0,1.753,1.031,2.892,2.568,2.892c0.828,0,1.512-0.419,1.944-1.199v0.971h0.887V102.099z
			 M594.734,107.69c1.8,0,2.963-1.595,2.963-4.452c0-2.856-1.151-4.439-2.987-4.439c-1.789,0-2.964,1.607-2.964,4.439
			C591.746,106.071,592.921,107.69,594.734,107.69 M594.723,106.851c-1.189,0-1.922-1.296-1.922-3.625c0-2.316,0.732-3.6,1.922-3.6
			c1.247,0,1.92,1.236,1.92,3.624C596.643,105.627,595.97,106.851,594.723,106.851 M590.005,106.491h-3.252l1.346-1.452
			c1.38-1.501,2.171-2.629,2.171-3.864c0-1.477-0.983-2.376-2.663-2.376c-1.693,0-2.688,0.947-2.688,2.568
			c0,0.071,0.012,0.155,0.012,0.226h0.959v-0.095c0-1.14,0.601-1.764,1.682-1.764c1.032,0,1.691,0.636,1.691,1.501
			c0,1.115-1.067,2.255-2.616,4.08l-1.812,2.147h5.171V106.491z M578.835,107.462h1.019v-4.093h0.12l3.133,4.093h1.295l-3.275-4.093
			h0.181c1.512,0,2.314-0.742,2.314-2.147c0-0.84-0.311-1.524-0.803-1.908c-0.528-0.407-1.152-0.431-1.968-0.431h-2.016V107.462z
			 M579.854,99.746h0.757c1.355,0,2.005,0.24,2.005,1.488c0,1.189-0.661,1.381-2.005,1.381h-0.757V99.746z M577.153,100.934v-1.332
			c-0.888-0.611-1.8-0.923-2.82-0.923c-1.26,0-2.315,0.419-3.191,1.259c-0.899,0.876-1.343,1.944-1.343,3.276
			c0,1.525,0.684,2.821,1.931,3.685c0.744,0.515,1.62,0.791,2.531,0.791c1.044,0,2.04-0.324,2.893-0.935v-1.356
			c-0.78,0.912-1.729,1.356-2.809,1.356c-1.163,0-2.208-0.552-2.892-1.524c-0.396-0.564-0.588-1.237-0.588-2.029
			c0-1.008,0.324-1.848,0.984-2.532c0.636-0.66,1.548-1.044,2.447-1.044C575.413,99.626,576.325,100.034,577.153,100.934
			 M565.466,100.802l1.368,3.157h-2.735L565.466,100.802z M565.466,98.547l-3.887,8.915h1.104l1.114-2.628h3.349l1.114,2.628h1.104
			L565.466,98.547z M555.699,102.938c0,0.384,0.3,0.696,0.695,0.696s0.694-0.312,0.694-0.696c0-0.383-0.311-0.695-0.694-0.695
			S555.699,102.555,555.699,102.938 M555.699,106.874c0,0.384,0.3,0.696,0.695,0.696s0.694-0.312,0.694-0.696
			c0-0.383-0.311-0.683-0.694-0.683S555.699,106.491,555.699,106.874 M552.507,102.854v4.608h0.911v-4.608h1.008v-0.755h-1.008
			v-2.16h-0.911v2.16h-0.983v0.755H552.507z M545.739,107.462h0.911v-2.772c0-0.588,0-1.032,0.312-1.416
			c0.3-0.372,0.769-0.577,1.309-0.577c0.961,0,1.429,0.529,1.429,1.609v3.156h0.911v-3.648c0-1.212-0.768-1.907-2.016-1.907
			c-0.841,0-1.488,0.323-1.944,1.019v-0.827h-0.911V107.462z M542.728,99.518c0,0.384,0.3,0.672,0.672,0.672
			c0.371,0,0.671-0.288,0.671-0.66c0-0.371-0.3-0.683-0.671-0.683C543.027,98.847,542.728,99.147,542.728,99.518 M542.943,107.462
			h0.91V102.1h-0.91V107.462z M536.666,104.798c0-1.14,0.864-2.028,1.945-2.028c1.068,0,1.932,0.888,1.932,2.028
			c0,1.141-0.863,2.029-1.932,2.029C537.542,106.827,536.666,105.939,536.666,104.798 M535.695,104.798
			c0,0.781,0.288,1.477,0.851,2.041c0.553,0.551,1.272,0.851,2.065,0.851c0.78,0,1.5-0.312,2.063-0.863
			c0.552-0.54,0.852-1.248,0.852-2.029c0-0.78-0.3-1.5-0.852-2.04c-0.563-0.551-1.271-0.851-2.063-0.851
			c-0.793,0-1.513,0.288-2.065,0.839C535.983,103.298,535.695,104.018,535.695,104.798 M530.21,104.798
			c0-1.272,0.696-2.004,1.801-2.004c1.068,0,1.741,0.768,1.741,2.112c0,1.189-0.661,1.885-1.729,1.885
			C530.942,106.791,530.21,106.011,530.21,104.798 M529.324,110.066h0.91v-3.575c0.408,0.791,1.067,1.199,1.957,1.199
			c1.501,0,2.531-1.079,2.531-2.892c0-1.764-1.03-2.891-2.567-2.891c-0.828,0-1.537,0.419-1.957,1.199v-1.007h-0.874V110.066z
			 M526.624,104.81c0,1.273-0.697,1.993-1.801,1.993c-1.069,0-1.741-0.768-1.741-2.113c0-1.188,0.66-1.872,1.729-1.872
			C525.892,102.818,526.624,103.598,526.624,104.81 M527.51,98.379h-0.909v4.727c-0.408-0.792-1.069-1.199-1.957-1.199
			c-1.501,0-2.531,1.091-2.531,2.891c0,1.753,1.03,2.892,2.567,2.892c0.827,0,1.523-0.432,1.944-1.199v0.971h0.886V98.379z
			 M515.896,107.462h0.91v-2.772c0-0.588,0-1.032,0.312-1.416c0.301-0.372,0.769-0.577,1.309-0.577c0.962,0,1.43,0.529,1.43,1.609
			v3.156h0.91v-3.648c0-1.212-0.767-1.907-2.016-1.907c-0.84,0-1.487,0.323-1.944,1.019v-0.827h-0.91V107.462z M509.8,107.462h4.522
			v-0.947h-3.504v-3.289h3.504v-0.947h-3.504v-2.461h3.504v-0.935H509.8V107.462z M500.788,110.066h1.032l3.598-7.967h-1.007
			l-1.656,3.845l-1.559-3.845h-1.056l2.099,4.828L500.788,110.066z M496.864,107.462h0.911v-2.616c0-1.404,0.479-2.1,1.452-2.1
			c0.168,0,0.359,0.036,0.563,0.108l0.312-0.827c-0.204-0.072-0.408-0.108-0.624-0.108c-0.816,0-1.32,0.383-1.8,1.295v-1.115h-0.815
			V107.462z M494.188,104.834c0,1.237-0.672,1.945-1.753,1.945c-1.141,0-1.788-0.732-1.788-2.029c0-1.224,0.647-1.932,1.752-1.932
			C493.433,102.818,494.188,103.586,494.188,104.834 M495.075,102.099h-0.911v1.007c-0.408-0.792-1.068-1.199-1.969-1.199
			c-1.5,0-2.52,1.091-2.52,2.891c0,1.753,1.031,2.892,2.567,2.892c0.829,0,1.513-0.419,1.945-1.199v0.971h0.887V102.099z
			 M487.433,107.462h0.91v-3.648c0-1.212-0.719-1.907-1.906-1.907c-0.817,0-1.441,0.347-1.909,1.091
			c-0.312-0.72-0.936-1.091-1.799-1.091c-0.806,0-1.417,0.335-1.85,1.019v-0.827h-0.911v5.363h0.911v-2.772
			c0-0.132-0.012-0.264-0.012-0.384c0-0.408,0.048-0.744,0.276-1.032c0.288-0.372,0.731-0.577,1.225-0.577
			c0.912,0,1.332,0.529,1.332,1.609v3.156h0.911v-2.772c0-0.12-0.012-0.228-0.012-0.336c0-0.444,0.06-0.78,0.287-1.08
			c0.288-0.372,0.721-0.577,1.214-0.577c0.911,0,1.332,0.529,1.332,1.609V107.462z M476.956,99.518c0,0.384,0.3,0.672,0.672,0.672
			c0.371,0,0.671-0.288,0.671-0.66c0-0.371-0.3-0.683-0.671-0.683C477.256,98.847,476.956,99.147,476.956,99.518 M477.172,107.462
			h0.91V102.1h-0.91V107.462z M472.984,107.462h0.911v-2.616c0-1.404,0.479-2.1,1.452-2.1c0.168,0,0.359,0.036,0.563,0.108
			l0.312-0.827c-0.204-0.072-0.408-0.108-0.624-0.108c-0.816,0-1.32,0.383-1.801,1.295v-1.115h-0.814V107.462z M468.051,103.61h0.78
			c0.889,0,1.585-0.024,2.161-0.432c0.539-0.383,0.875-1.091,0.875-1.932c0-0.84-0.336-1.548-0.875-1.932
			c-0.576-0.407-1.284-0.431-2.161-0.431h-1.798v8.579h1.018V103.61z M468.051,102.687v-2.869h0.492c1.489,0,2.223,0.24,2.223,1.488
			c0,1.189-0.745,1.381-2.223,1.381H468.051z"/>
		<g clip-path="url(#SVGID_8_)">
			<g>
				<defs>
					<rect id="SVGID_21_" x="182.03" y="139.672" width="106" height="82"/>
				</defs>
				<clipPath id="SVGID_22_">
					<use xlink:href="#SVGID_21_"  overflow="visible"/>
				</clipPath>
				<path clip-path="url(#SVGID_22_)" fill="#ECECED" d="M279.03,220.672v-80h-84c0,0-4,0-4,4v72c0,0,0,4,4,4H279.03z"/>
			</g>
		</g>
	</g>
	<polygon clip-path="url(#SVGID_2_)" fill="#A7A8AA" points="191.03,186.012 196.37,180.672 191.03,175.332 	"/>
	<polygon clip-path="url(#SVGID_2_)" fill="#A7A8AA" points="191.03,306.012 196.37,300.672 191.03,295.332 	"/>
	<g clip-path="url(#SVGID_2_)">
		<defs>
			<rect id="SVGID_23_" width="912" height="556.924"/>
		</defs>
		<clipPath id="SVGID_24_">
			<use xlink:href="#SVGID_23_"  overflow="visible"/>
		</clipPath>
		<path clip-path="url(#SVGID_24_)" fill="#FFFFFF" d="M151.161,61.961h0.994v-8.494h-2.17l-0.576,0.886h1.752V61.961z
			 M145.341,57.438c0,0.384,0.301,0.695,0.695,0.695c0.396,0,0.695-0.311,0.695-0.695c0-0.383-0.312-0.695-0.695-0.695
			C145.653,56.743,145.341,57.055,145.341,57.438 M145.341,61.374c0,0.384,0.301,0.696,0.695,0.696c0.396,0,0.695-0.312,0.695-0.696
			c0-0.383-0.312-0.683-0.695-0.683C145.653,60.691,145.341,60.991,145.341,61.374 M141.381,61.961h1.008v-1.847h1.007v-0.827
			h-1.007v-5.988h-0.433l-4.595,6.815h4.02V61.961z M141.381,59.287h-2.508l2.508-3.769V59.287z"/>
		<path clip-path="url(#SVGID_24_)" fill="#FFFFFF" d="M173.241,44.676h-3.267c0.097-0.913,0.757-1.478,1.634-1.478
			C172.58,43.198,173.18,43.727,173.241,44.676 M174.223,45.417v-0.18c0-1.776-1.006-2.842-2.578-2.842
			c-1.562,0-2.676,1.174-2.676,2.866c0,1.753,1.103,2.928,2.735,2.928c1.104,0,1.944-0.491,2.483-1.463l-0.695-0.468
			c-0.444,0.78-1.021,1.165-1.74,1.165c-1.033,0-1.777-0.757-1.777-1.922v-0.084H174.223z M164.049,47.062
			c0.419,0.756,1.114,1.127,2.111,1.127c1.188,0,1.955-0.707,1.955-1.703c0-0.876-0.516-1.26-1.56-1.596
			c-0.889-0.288-1.381-0.361-1.381-0.925c0-0.468,0.372-0.804,0.913-0.804c0.564,0,1.008,0.276,1.225,0.768l0.742-0.456
			c-0.286-0.683-0.982-1.067-1.906-1.067c-1.142,0-1.896,0.683-1.896,1.619c0,1.057,0.79,1.285,2.111,1.741
			c0.563,0.192,0.841,0.408,0.841,0.816c0,0.468-0.397,0.805-1.009,0.805c-0.613,0-1.069-0.277-1.368-0.853L164.049,47.062z
			 M161.602,40.019c0,0.383,0.3,0.671,0.671,0.671s0.671-0.288,0.671-0.659c0-0.372-0.3-0.683-0.671-0.683
			S161.602,39.646,161.602,40.019 M161.817,47.961h0.911V42.6h-0.911V47.961z M159.117,47.961h0.91v-3.648
			c0-1.212-0.72-1.907-1.907-1.907c-0.816,0-1.441,0.348-1.909,1.091c-0.311-0.719-0.934-1.091-1.799-1.091
			c-0.804,0-1.416,0.336-1.849,1.019v-0.827h-0.91v5.363h0.91V45.19c0-0.132-0.013-0.264-0.013-0.384
			c0-0.409,0.048-0.745,0.276-1.033c0.289-0.372,0.733-0.576,1.225-0.576c0.913,0,1.333,0.528,1.333,1.609v3.155h0.91V45.19
			c0-0.12-0.012-0.228-0.012-0.336c0-0.445,0.06-0.781,0.288-1.081c0.289-0.372,0.721-0.576,1.213-0.576
			c0.913,0,1.333,0.528,1.333,1.609V47.961z M145.423,45.298c0-1.141,0.865-2.029,1.945-2.029c1.069,0,1.933,0.888,1.933,2.029
			c0,1.14-0.863,2.029-1.933,2.029C146.3,47.328,145.423,46.438,145.423,45.298 M144.453,45.298c0,0.78,0.288,1.476,0.851,2.041
			c0.553,0.551,1.272,0.85,2.064,0.85c0.78,0,1.501-0.311,2.064-0.862c0.552-0.541,0.851-1.249,0.851-2.029
			c0-0.781-0.299-1.501-0.851-2.041c-0.563-0.551-1.271-0.851-2.064-0.851c-0.792,0-1.512,0.288-2.064,0.839
			C144.741,43.797,144.453,44.518,144.453,45.298 M142.186,45.311c0,1.272-0.696,1.992-1.802,1.992
			c-1.067,0-1.739-0.768-1.739-2.112c0-1.189,0.659-1.873,1.728-1.873C141.453,43.317,142.186,44.098,142.186,45.311
			 M143.072,38.878h-0.911v4.727c-0.408-0.791-1.068-1.199-1.957-1.199c-1.5,0-2.531,1.091-2.531,2.892
			c0,1.752,1.031,2.891,2.567,2.891c0.829,0,1.524-0.431,1.945-1.199v0.971h0.887V38.878z M131.457,47.961h0.911V45.19
			c0-0.589,0-1.033,0.312-1.417c0.301-0.372,0.769-0.576,1.309-0.576c0.961,0,1.429,0.528,1.429,1.609v3.155h0.911v-3.648
			c0-1.212-0.767-1.907-2.015-1.907c-0.842,0-1.489,0.324-1.945,1.019v-0.827h-0.911V47.961z M128.793,45.334
			c0,1.236-0.672,1.944-1.752,1.944c-1.141,0-1.789-0.732-1.789-2.028c0-1.225,0.648-1.933,1.753-1.933
			C128.037,43.317,128.793,44.085,128.793,45.334 M129.68,42.6h-0.91v1.006c-0.408-0.792-1.068-1.199-1.969-1.199
			c-1.501,0-2.52,1.091-2.52,2.892c0,1.752,1.031,2.891,2.567,2.891c0.828,0,1.513-0.419,1.944-1.199v0.971h0.887V42.6z
			 M118.425,47.961h1.02V43.87h0.12l3.133,4.092h1.295l-3.275-4.092h0.181c1.512,0,2.314-0.743,2.314-2.147
			c0-0.841-0.312-1.525-0.803-1.908c-0.528-0.408-1.152-0.431-1.968-0.431h-2.017V47.961z M119.444,40.246h0.756
			c1.356,0,2.005,0.24,2.005,1.489c0,1.188-0.66,1.381-2.005,1.381h-0.756V40.246z"/>
		<path clip-path="url(#SVGID_24_)" fill="#FFFFFF" d="M390.393,46.383l3.323,8.914l2.231-6.635l2.244,6.635l3.323-8.914h-1.104
			l-2.184,6.312l-2.292-6.648l-2.268,6.648l-2.171-6.312H390.393z M389.3,53.991h-3.252l1.344-1.452
			c1.38-1.501,2.171-2.629,2.171-3.864c0-1.477-0.981-2.376-2.663-2.376c-1.692,0-2.687,0.946-2.687,2.568
			c0,0.071,0.012,0.155,0.012,0.227h0.958v-0.096c0-1.14,0.601-1.765,1.681-1.765c1.032,0,1.693,0.637,1.693,1.502
			c0,1.115-1.069,2.255-2.617,4.08l-1.811,2.146h5.171V53.991z M379.376,51.902h-1.261l1.753,1.897
			c-0.48,0.264-1.021,0.384-1.656,0.384c-0.732,0-1.404-0.216-1.956-0.612c-0.974-0.708-1.465-1.68-1.465-2.893
			c0-0.936,0.359-1.824,1.021-2.484c0.66-0.66,1.548-1.021,2.484-1.021c1.271,0,2.365,0.613,3.013,1.681
			c0.312,0.516,0.48,1.164,0.48,1.872c0,1.056-0.42,1.969-1.141,2.545L379.376,51.902z M382.986,55.789l-1.63-1.762
			c1.007-0.804,1.534-1.968,1.534-3.337c0-1.308-0.503-2.472-1.426-3.312c-0.864-0.78-1.945-1.187-3.169-1.187
			c-1.225,0-2.364,0.455-3.241,1.307c-0.863,0.852-1.342,1.98-1.342,3.18c0,1.489,0.635,2.749,1.835,3.637
			c0.744,0.551,1.632,0.839,2.604,0.839c0.948,0,1.752-0.192,2.438-0.588l1.14,1.223H382.986z M367.845,52.298
			c0,1.237-0.672,1.957-1.753,1.957c-1.14,0-1.789-0.732-1.789-2.029c0-1.224,0.649-1.932,1.753-1.932
			C367.089,50.294,367.845,51.05,367.845,52.298 M368.755,49.599h-0.935v0.995c-0.396-0.78-1.081-1.187-1.969-1.187
			c-1.501,0-2.519,1.067-2.519,2.855c0,1.741,1.029,2.867,2.566,2.867c0.828,0,1.525-0.419,1.945-1.186v0.899
			c0,0.49-0.024,0.884-0.228,1.218c-0.276,0.465-0.806,0.703-1.537,0.703c-1.032,0-1.598-0.465-1.598-1.252V55.44h-1.029
			c0.035,1.335,0.97,2.125,2.614,2.125c0.949,0,1.669-0.275,2.16-0.802c0.503-0.537,0.527-1.133,0.527-1.897V49.599z
			 M361.089,54.961h0.91v-3.647c0-1.212-0.719-1.907-1.907-1.907c-0.816,0-1.44,0.347-1.908,1.091
			c-0.312-0.72-0.935-1.091-1.8-1.091c-0.804,0-1.416,0.335-1.849,1.019v-0.827h-0.91v5.362h0.91V52.19
			c0-0.132-0.012-0.264-0.012-0.384c0-0.408,0.047-0.744,0.276-1.032c0.288-0.372,0.731-0.577,1.224-0.577
			c0.913,0,1.333,0.529,1.333,1.609v3.155h0.91V52.19c0-0.12-0.011-0.228-0.011-0.336c0-0.444,0.06-0.78,0.288-1.08
			c0.288-0.372,0.72-0.577,1.212-0.577c0.913,0,1.333,0.529,1.333,1.609V54.961z M349.22,55.189c1.801,0,2.964-1.594,2.964-4.451
			c0-2.856-1.151-4.439-2.988-4.439c-1.788,0-2.963,1.607-2.963,4.439C346.232,53.571,347.407,55.189,349.22,55.189 M349.208,54.351
			c-1.188,0-1.92-1.296-1.92-3.625c0-2.316,0.731-3.601,1.92-3.601c1.249,0,1.921,1.237,1.921,3.625
			C351.129,53.127,350.457,54.351,349.208,54.351 M342.199,55.189c1.802,0,2.965-1.594,2.965-4.451c0-2.856-1.151-4.439-2.988-4.439
			c-1.788,0-2.963,1.607-2.963,4.439C339.213,53.571,340.388,55.189,342.199,55.189 M342.188,54.351c-1.188,0-1.92-1.296-1.92-3.625
			c0-2.316,0.732-3.601,1.92-3.601c1.249,0,1.921,1.237,1.921,3.625C344.108,53.127,343.437,54.351,342.188,54.351 M337.472,53.991
			h-3.252l1.345-1.452c1.38-1.501,2.171-2.629,2.171-3.864c0-1.477-0.982-2.376-2.664-2.376c-1.691,0-2.687,0.946-2.687,2.568
			c0,0.071,0.012,0.155,0.012,0.227h0.959v-0.096c0-1.14,0.601-1.765,1.681-1.765c1.032,0,1.692,0.637,1.692,1.502
			c0,1.115-1.067,2.255-2.617,4.08l-1.811,2.146h5.171V53.991z"/>
		<path clip-path="url(#SVGID_24_)" fill="#FFFFFF" d="M258.893,46.383l3.323,8.914l2.232-6.635l2.244,6.635l3.322-8.914h-1.104
			l-2.184,6.312l-2.292-6.648l-2.268,6.648l-2.172-6.312H258.893z M257.8,53.991h-3.252l1.344-1.452
			c1.38-1.501,2.171-2.629,2.171-3.864c0-1.477-0.981-2.376-2.662-2.376c-1.693,0-2.688,0.946-2.688,2.568
			c0,0.071,0.012,0.155,0.012,0.227h0.958v-0.096c0-1.14,0.601-1.764,1.682-1.764c1.032,0,1.692,0.636,1.692,1.501
			c0,1.115-1.068,2.255-2.616,4.08l-1.812,2.146h5.171V53.991z M247.876,51.903h-1.26l1.752,1.896
			c-0.48,0.264-1.021,0.384-1.656,0.384c-0.731,0-1.404-0.216-1.956-0.612c-0.973-0.708-1.465-1.68-1.465-2.893
			c0-0.936,0.36-1.824,1.02-2.484c0.661-0.66,1.55-1.02,2.485-1.02c1.272,0,2.364,0.612,3.013,1.68
			c0.312,0.516,0.48,1.164,0.48,1.872c0,1.056-0.42,1.969-1.141,2.545L247.876,51.903z M251.487,55.79l-1.63-1.763
			c1.007-0.804,1.533-1.968,1.533-3.337c0-1.308-0.503-2.472-1.426-3.312c-0.865-0.78-1.945-1.187-3.169-1.187
			s-2.365,0.455-3.241,1.307c-0.862,0.852-1.342,1.98-1.342,3.18c0,1.489,0.635,2.749,1.834,3.637
			c0.745,0.551,1.633,0.839,2.605,0.839c0.947,0,1.752-0.192,2.436-0.588l1.141,1.224H251.487z M236.345,52.298
			c0,1.237-0.673,1.957-1.753,1.957c-1.14,0-1.789-0.732-1.789-2.029c0-1.224,0.649-1.932,1.753-1.932
			C235.588,50.294,236.345,51.05,236.345,52.298 M237.255,49.599h-0.934v0.995c-0.396-0.78-1.081-1.187-1.97-1.187
			c-1.501,0-2.519,1.067-2.519,2.855c0,1.741,1.03,2.867,2.567,2.867c0.827,0,1.524-0.419,1.944-1.186v0.899
			c0,0.49-0.023,0.884-0.228,1.218c-0.276,0.465-0.806,0.703-1.537,0.703c-1.032,0-1.597-0.465-1.597-1.252V55.44h-1.03
			c0.036,1.335,0.97,2.126,2.615,2.126c0.947,0,1.669-0.276,2.159-0.803c0.504-0.537,0.527-1.133,0.527-1.897V49.599z
			 M229.589,54.961h0.91v-3.647c0-1.212-0.718-1.907-1.907-1.907c-0.815,0-1.439,0.347-1.908,1.091
			c-0.312-0.72-0.935-1.091-1.8-1.091c-0.804,0-1.416,0.335-1.849,1.019v-0.827h-0.91v5.362h0.91V52.19
			c0-0.132-0.012-0.264-0.012-0.384c0-0.408,0.048-0.744,0.276-1.032c0.288-0.372,0.732-0.577,1.225-0.577
			c0.912,0,1.333,0.529,1.333,1.609v3.155h0.909V52.19c0-0.12-0.012-0.228-0.012-0.336c0-0.444,0.061-0.78,0.289-1.08
			c0.288-0.372,0.72-0.577,1.212-0.577c0.913,0,1.333,0.529,1.333,1.609V54.961z M217.72,55.189c1.801,0,2.963-1.594,2.963-4.451
			c0-2.856-1.149-4.439-2.986-4.439c-1.789,0-2.963,1.607-2.963,4.439C214.733,53.571,215.907,55.189,217.72,55.189 M217.708,54.351
			c-1.188,0-1.921-1.296-1.921-3.625c0-2.316,0.732-3.6,1.921-3.6c1.249,0,1.921,1.236,1.921,3.624
			C219.629,53.127,218.957,54.351,217.708,54.351 M210.7,55.189c1.801,0,2.963-1.594,2.963-4.451c0-2.856-1.15-4.439-2.987-4.439
			c-1.788,0-2.963,1.607-2.963,4.439C207.713,53.571,208.888,55.189,210.7,55.189 M210.688,54.351c-1.188,0-1.921-1.296-1.921-3.625
			c0-2.316,0.733-3.6,1.921-3.6c1.249,0,1.922,1.236,1.922,3.624C212.609,53.127,211.937,54.351,210.688,54.351 M204.413,54.961
			h1.007v-1.847h1.007v-0.827h-1.007v-5.988h-0.432l-4.596,6.815h4.021V54.961z M204.413,52.287h-2.508l2.508-3.769V52.287z"/>
		<path clip-path="url(#SVGID_24_)" fill="#FFFFFF" d="M655.416,46.383l3.323,8.914l2.231-6.635l2.244,6.635l3.323-8.914h-1.104
			l-2.184,6.312l-2.292-6.648l-2.268,6.648l-2.171-6.312H655.416z M654.323,53.991h-3.252l1.344-1.452
			c1.38-1.501,2.171-2.629,2.171-3.864c0-1.477-0.981-2.376-2.663-2.376c-1.692,0-2.687,0.946-2.687,2.568
			c0,0.071,0.012,0.155,0.012,0.227h0.958v-0.096c0-1.14,0.601-1.765,1.681-1.765c1.032,0,1.693,0.637,1.693,1.502
			c0,1.115-1.069,2.255-2.617,4.08l-1.811,2.146h5.171V53.991z M644.399,51.902h-1.261l1.753,1.897
			c-0.48,0.264-1.021,0.384-1.656,0.384c-0.732,0-1.404-0.216-1.956-0.612c-0.973-0.708-1.465-1.68-1.465-2.893
			c0-0.936,0.359-1.824,1.021-2.484c0.66-0.66,1.548-1.021,2.484-1.021c1.271,0,2.365,0.613,3.013,1.681
			c0.312,0.516,0.48,1.164,0.48,1.872c0,1.056-0.42,1.969-1.141,2.545L644.399,51.902z M648.01,55.789l-1.63-1.762
			c1.007-0.804,1.534-1.968,1.534-3.337c0-1.308-0.503-2.472-1.426-3.312c-0.864-0.78-1.945-1.187-3.169-1.187
			c-1.225,0-2.364,0.455-3.241,1.307c-0.863,0.852-1.342,1.98-1.342,3.18c0,1.489,0.635,2.749,1.835,3.637
			c0.744,0.551,1.632,0.839,2.604,0.839c0.948,0,1.752-0.192,2.438-0.588l1.14,1.223H648.01z M632.868,52.298
			c0,1.237-0.672,1.957-1.753,1.957c-1.14,0-1.789-0.732-1.789-2.029c0-1.224,0.649-1.932,1.753-1.932
			C632.112,50.294,632.868,51.05,632.868,52.298 M633.778,49.599h-0.935v0.995c-0.396-0.78-1.081-1.187-1.969-1.187
			c-1.501,0-2.519,1.067-2.519,2.855c0,1.741,1.029,2.867,2.566,2.867c0.828,0,1.525-0.419,1.945-1.186v0.899
			c0,0.49-0.024,0.884-0.228,1.218c-0.276,0.465-0.806,0.703-1.537,0.703c-1.032,0-1.598-0.465-1.598-1.252V55.44h-1.029
			c0.035,1.335,0.97,2.125,2.614,2.125c0.949,0,1.669-0.275,2.16-0.802c0.503-0.537,0.527-1.133,0.527-1.897V49.599z
			 M626.112,54.961h0.91v-3.647c0-1.212-0.719-1.907-1.907-1.907c-0.816,0-1.44,0.347-1.908,1.091
			c-0.312-0.72-0.935-1.091-1.8-1.091c-0.804,0-1.416,0.335-1.849,1.019v-0.827h-0.91v5.362h0.91V52.19
			c0-0.132-0.013-0.264-0.013-0.384c0-0.408,0.048-0.744,0.277-1.032c0.288-0.372,0.731-0.577,1.224-0.577
			c0.913,0,1.333,0.529,1.333,1.609v3.155h0.91V52.19c0-0.12-0.012-0.228-0.012-0.336c0-0.444,0.061-0.78,0.289-1.08
			c0.288-0.372,0.72-0.577,1.212-0.577c0.913,0,1.333,0.529,1.333,1.609V54.961z M614.243,55.189c1.801,0,2.963-1.594,2.963-4.451
			c0-2.856-1.149-4.439-2.987-4.439c-1.787,0-2.963,1.607-2.963,4.439C611.256,53.571,612.432,55.189,614.243,55.189
			 M614.231,54.351c-1.188,0-1.921-1.296-1.921-3.625c0-2.316,0.732-3.601,1.921-3.601c1.249,0,1.921,1.237,1.921,3.625
			C616.152,53.127,615.48,54.351,614.231,54.351 M607.223,55.189c1.802,0,2.965-1.594,2.965-4.451c0-2.856-1.151-4.439-2.988-4.439
			c-1.788,0-2.963,1.607-2.963,4.439C604.236,53.571,605.411,55.189,607.223,55.189 M607.211,54.351c-1.188,0-1.92-1.296-1.92-3.625
			c0-2.316,0.732-3.601,1.92-3.601c1.249,0,1.921,1.237,1.921,3.625C609.132,53.127,608.46,54.351,607.211,54.351 M602.495,53.991
			h-3.252l1.345-1.452c1.38-1.501,2.171-2.629,2.171-3.864c0-1.477-0.982-2.376-2.664-2.376c-1.691,0-2.687,0.946-2.687,2.568
			c0,0.071,0.012,0.155,0.012,0.227h0.959v-0.096c0-1.14,0.601-1.765,1.681-1.765c1.032,0,1.692,0.637,1.692,1.502
			c0,1.115-1.067,2.255-2.617,4.08l-1.811,2.146h5.171V53.991z"/>
		<path clip-path="url(#SVGID_24_)" fill="#006227" d="M691.45,247.566c0.923-1.713,1.39-3.632,1.39-5.766
			c0-2.217-0.442-4.124-1.39-5.813l-0.948,0.287c0.864,1.702,1.236,3.476,1.236,5.514c0,2.11-0.36,3.873-1.236,5.467L691.45,247.566
			z M685.426,243.955c0.408,0.839,1.115,1.235,2.195,1.235c1.452,0,2.268-0.695,2.268-1.775c0-0.804-0.455-1.261-1.427-1.645
			c-0.864-0.348-1.466-0.432-1.466-0.972c0-0.384,0.313-0.636,0.805-0.636c0.444,0,0.793,0.228,0.926,0.576l0.898-0.624
			c-0.275-0.575-0.898-0.911-1.775-0.911c-1.32,0-2.123,0.707-2.123,1.667c0,0.804,0.539,1.236,1.595,1.681
			c0.768,0.324,1.321,0.372,1.321,0.948c0,0.444-0.338,0.732-0.913,0.732c-0.673,0-1.093-0.3-1.248-0.852L685.426,243.955z
			 M683.984,247.566l0.96-0.311c-0.876-1.594-1.236-3.357-1.236-5.467c0-2.038,0.372-3.812,1.236-5.514l-0.96-0.287
			c-0.947,1.689-1.391,3.596-1.391,5.813C682.594,243.934,683.062,245.853,683.984,247.566 M675.574,243.247
			c0.288,1.248,1.247,1.943,2.711,1.943c1.777,0,2.843-1.055,2.843-2.651c0-1.236-0.707-1.849-2.219-2.545
			c-0.96-0.444-1.633-0.696-1.633-1.524c0-0.648,0.469-1.08,1.225-1.08c0.541,0,0.938,0.252,1.273,0.78l1.091-0.564
			c-0.324-0.899-1.199-1.415-2.472-1.415c-1.561,0-2.579,0.971-2.579,2.351c0,1.296,0.839,1.872,2.362,2.617
			c0.89,0.432,1.525,0.636,1.525,1.476c0,0.768-0.516,1.272-1.356,1.272c-0.877,0-1.452-0.408-1.656-1.176L675.574,243.247z
			 M668.637,243.703v-6.073h1.009c1.031,0,1.823,0.036,2.461,0.564c0.647,0.552,0.972,1.38,0.972,2.473
			c0,1.092-0.324,1.92-0.972,2.472c-0.613,0.516-1.345,0.564-2.293,0.564H668.637z M667.246,244.962h2.255
			c1.393,0,2.521-0.036,3.518-0.803c0.982-0.756,1.511-1.944,1.511-3.481c0-1.536-0.528-2.736-1.511-3.492
			c-1.044-0.803-2.281-0.803-3.89-0.803h-1.883V244.962z M661.978,240.043v-2.461h0.252c1.249,0,1.837,0.228,1.837,1.285
			c0,1.032-0.612,1.176-1.837,1.176H661.978z M661.894,241.122h0.155l2.856,3.84h1.572l-2.951-3.9
			c1.295-0.156,1.967-0.935,1.967-2.316c0-0.804-0.312-1.476-0.828-1.883c-0.526-0.408-1.211-0.48-2.136-0.48h-1.943v8.579h1.308
			V241.122z M654.515,241.591l0.875-1.956c0.096-0.228,0.203-0.54,0.312-0.973c0.12,0.433,0.229,0.745,0.324,0.973l0.876,1.956
			H654.515z M658.365,244.962h1.476l-4.151-8.915l-4.151,8.915h1.464l0.996-2.208h3.396L658.365,244.962z M649.401,240.727
			l0.948,4.235h1.296l-2.076-8.915l-2.472,5.388c-0.132,0.3-0.323,0.684-0.491,1.164c-0.24-0.624-0.396-1.008-0.468-1.164
			l-2.532-5.388l-2.028,8.915h1.284l0.924-4.224c0.084-0.384,0.144-0.78,0.156-1.188c0.107,0.384,0.252,0.744,0.42,1.092
			l2.244,4.668l2.243-4.572c0.191-0.396,0.323-0.78,0.396-1.188C649.329,240.186,649.365,240.57,649.401,240.727 M634.978,243.703
			v-6.073h1.008c1.033,0,1.825,0.036,2.461,0.564c0.647,0.552,0.972,1.38,0.972,2.473c0,1.092-0.324,1.92-0.972,2.472
			c-0.612,0.516-1.344,0.564-2.293,0.564H634.978z M633.586,244.962h2.255c1.394,0,2.521-0.036,3.518-0.803
			c0.983-0.756,1.511-1.944,1.511-3.481c0-1.536-0.527-2.736-1.511-3.492c-1.044-0.803-2.28-0.803-3.89-0.803h-1.883V244.962z
			 M625.104,242.79h3.13v-1.174h-3.13V242.79z M623.301,236.191l-4.197,9.887h0.995l4.198-9.887H623.301z M613.667,237.811v3.084
			h-3.012v0.971h3.012v3.096h0.994v-3.096h3.012v-0.971h-3.012v-3.084H613.667z M604.786,244.962v-5.555h-1.271v0.911
			c-0.301-0.707-0.961-1.103-1.873-1.103c-1.465,0-2.495,1.175-2.495,2.963c0,1.897,0.982,3.012,2.53,3.012
			c0.781,0,1.382-0.312,1.838-0.947v0.719H604.786z M603.551,242.166c0,1.177-0.672,1.897-1.549,1.897
			c-0.96,0-1.523-0.66-1.523-1.848c0-1.177,0.588-1.873,1.548-1.873C602.976,240.342,603.551,241.002,603.551,242.166
			 M596.363,237.006c0,0.432,0.36,0.804,0.803,0.804c0.444,0,0.792-0.348,0.792-0.804c0-0.455-0.348-0.791-0.792-0.791
			C596.724,236.215,596.363,236.575,596.363,237.006 M596.531,244.962h1.271v-5.555h-1.271V244.962z M595.414,244.962v-1.115h-3.022
			l3.022-4.44h-4.847v1.115h2.783l-3.096,4.44H595.414z M581.975,244.962v-2.532c0-0.684,0-1.152,0.216-1.512
			c0.239-0.396,0.672-0.636,1.177-0.636c0.876,0,1.104,0.564,1.104,1.824v2.856h1.283v-2.532c0-1.428,0.288-2.148,1.394-2.148
			c0.96,0,1.08,0.6,1.08,1.824v2.856h1.271v-3.816c0-0.468-0.023-0.852-0.204-1.152c-0.3-0.503-0.851-0.791-1.595-0.791
			c-0.865,0-1.489,0.348-2.065,1.103c-0.3-0.743-0.862-1.103-1.727-1.103c-0.889,0-1.501,0.348-2.005,1.115v-0.911h-1.199v5.555
			H581.975z M577.511,237.006c0,0.432,0.36,0.804,0.805,0.804c0.442,0,0.791-0.348,0.791-0.804c0-0.455-0.349-0.791-0.791-0.791
			C577.871,236.215,577.511,236.575,577.511,237.006 M577.68,244.962h1.271v-5.555h-1.271V244.962z M576.059,238.47l0.071-1.404
			c-0.84-0.587-1.739-0.887-2.771-0.887c-1.284,0-2.4,0.444-3.252,1.283c-0.852,0.84-1.307,1.968-1.307,3.228
			c0,1.249,0.455,2.401,1.294,3.229c0.841,0.827,1.969,1.271,3.288,1.271c1.032,0,1.908-0.264,2.664-0.803v-1.572
			c-0.84,0.72-1.752,1.08-2.771,1.08c-1.716,0-3.024-1.308-3.024-3.192c0-1.909,1.284-3.241,3.168-3.241
			C574.391,237.462,575.267,237.798,576.059,238.47"/>
		<path clip-path="url(#SVGID_24_)" fill="#808285" d="M149.363,249.99v0.156c0,1.356,1.008,2.243,2.604,2.243
			c1.824,0,2.878-0.959,2.878-2.495c0-1.165-0.61-1.945-1.63-2.112c0.959-0.252,1.523-0.984,1.523-2.004
			c0-1.393-0.972-2.28-2.567-2.28c-1.656,0-2.58,0.827-2.652,2.292h1.009c0.048-0.925,0.624-1.429,1.619-1.429
			c0.948,0,1.524,0.576,1.524,1.465c0,1.008-0.6,1.537-1.788,1.537c-0.096,0-0.18-0.013-0.276-0.013v0.839
			c0.108-0.012,0.204-0.012,0.301-0.012c1.235,0,1.872,0.576,1.872,1.681c0,1.044-0.637,1.656-1.776,1.656
			c-0.984,0-1.596-0.552-1.596-1.428v-0.096H149.363z M143.433,249.667c0-1.129,0.697-1.909,1.717-1.909
			c1.142,0,1.825,0.732,1.825,1.897c0,1.14-0.708,1.885-1.765,1.885C144.13,251.54,143.433,250.831,143.433,249.667
			 M144.118,247.314l2.772-3.601l-0.888-0.467l-1.957,2.76c-0.948,1.344-1.667,2.339-1.667,3.576c0,1.68,1.054,2.807,2.627,2.807
			c1.873,0,3.023-1.115,3.023-2.831c0-1.573-1.055-2.652-2.592-2.652C144.958,246.906,144.538,247.039,144.118,247.314
			 M138.214,252.39c1.801,0,2.963-1.595,2.963-4.451c0-2.857-1.149-4.44-2.987-4.44c-1.787,0-2.963,1.607-2.963,4.44
			C135.227,250.771,136.402,252.39,138.214,252.39 M138.202,251.55c-1.188,0-1.921-1.296-1.921-3.624
			c0-2.317,0.732-3.601,1.921-3.601c1.249,0,1.921,1.236,1.921,3.625C140.123,250.327,139.451,251.55,138.202,251.55
			 M130.919,252.162h0.995v-8.495h-2.171l-0.576,0.887h1.752V252.162z"/>
		<path clip-path="url(#SVGID_24_)" fill="#808285" d="M148.533,234.966h-7.019v0.683h7.019V234.966z M148.533,232.723h-7.019v0.682
			h7.019V232.723z M134.339,237.761h0.911v-2.771c0-0.589,0-1.033,0.312-1.417c0.301-0.372,0.769-0.576,1.309-0.576
			c0.961,0,1.429,0.528,1.429,1.609v3.155h0.91v-3.648c0-1.212-0.766-1.907-2.015-1.907c-0.841,0-1.488,0.324-1.944,1.019v-0.827
			h-0.911V237.761z"/>
		<path clip-path="url(#SVGID_24_)" fill="#F9A25E" d="M384.134,310.991h-3.252l1.344-1.452c1.381-1.5,2.172-2.629,2.172-3.865
			c0-1.477-0.982-2.375-2.663-2.375c-1.693,0-2.688,0.947-2.688,2.567c0,0.072,0.012,0.155,0.012,0.228h0.958v-0.096
			c0-1.14,0.601-1.765,1.682-1.765c1.032,0,1.692,0.638,1.692,1.501c0,1.115-1.068,2.256-2.616,4.08l-1.812,2.146h5.171V310.991z
			 M374.547,311.961h0.994v-8.494h-2.17l-0.576,0.887h1.752V311.961z M370.094,310.991h-3.252l1.344-1.452
			c1.381-1.5,2.172-2.629,2.172-3.865c0-1.477-0.982-2.375-2.663-2.375c-1.693,0-2.688,0.947-2.688,2.567
			c0,0.072,0.012,0.155,0.012,0.228h0.958v-0.096c0-1.14,0.602-1.765,1.682-1.765c1.033,0,1.692,0.638,1.692,1.501
			c0,1.115-1.068,2.256-2.616,4.08l-1.812,2.146h5.171V310.991z M362.821,309.168h-7.019v0.682h7.019V309.168z M362.821,306.924
			h-7.019v0.683h7.019V306.924z M348.627,311.961h0.91v-2.771c0-0.589,0-1.033,0.312-1.417c0.301-0.372,0.769-0.576,1.309-0.576
			c0.961,0,1.429,0.528,1.429,1.609v3.154h0.91v-3.647c0-1.212-0.766-1.907-2.015-1.907c-0.841,0-1.488,0.324-1.945,1.02v-0.827
			h-0.91V311.961z"/>
		<path clip-path="url(#SVGID_24_)" fill="#F9A25E" d="M429.368,300.565c0.923-1.713,1.39-3.631,1.39-5.765
			c0-2.219-0.442-4.125-1.39-5.813l-0.948,0.286c0.864,1.702,1.236,3.477,1.236,5.516c0,2.109-0.36,3.871-1.236,5.467
			L429.368,300.565z M423.344,296.955c0.408,0.84,1.115,1.234,2.195,1.234c1.452,0,2.268-0.695,2.268-1.775
			c0-0.804-0.455-1.26-1.427-1.644c-0.864-0.349-1.466-0.433-1.466-0.974c0-0.383,0.313-0.635,0.805-0.635
			c0.445,0,0.793,0.228,0.926,0.575l0.898-0.624c-0.275-0.574-0.898-0.91-1.775-0.91c-1.32,0-2.123,0.707-2.123,1.666
			c0,0.805,0.539,1.237,1.595,1.682c0.768,0.324,1.321,0.371,1.321,0.947c0,0.444-0.336,0.732-0.913,0.732
			c-0.673,0-1.092-0.3-1.248-0.852L423.344,296.955z M421.902,300.565l0.96-0.31c-0.876-1.596-1.236-3.357-1.236-5.467
			c0-2.039,0.372-3.813,1.236-5.516l-0.96-0.286c-0.947,1.688-1.391,3.595-1.391,5.813
			C420.512,296.935,420.979,298.853,421.902,300.565 M413.492,296.246c0.288,1.248,1.247,1.943,2.711,1.943
			c1.777,0,2.843-1.055,2.843-2.65c0-1.236-0.707-1.849-2.218-2.545c-0.961-0.445-1.634-0.697-1.634-1.525
			c0-0.647,0.469-1.079,1.225-1.079c0.541,0,0.938,0.252,1.273,0.78l1.091-0.564c-0.324-0.898-1.199-1.415-2.472-1.415
			c-1.561,0-2.579,0.972-2.579,2.351c0,1.297,0.839,1.873,2.363,2.617c0.889,0.432,1.524,0.637,1.524,1.477
			c0,0.768-0.516,1.271-1.356,1.271c-0.877,0-1.452-0.408-1.656-1.176L413.492,296.246z M406.556,296.703v-6.074h1.008
			c1.032,0,1.825,0.037,2.461,0.564c0.647,0.553,0.972,1.38,0.972,2.473c0,1.092-0.324,1.92-0.972,2.473
			c-0.612,0.516-1.345,0.564-2.293,0.564H406.556z M405.164,297.961h2.255c1.393,0,2.521-0.035,3.518-0.803
			c0.982-0.756,1.511-1.943,1.511-3.48c0-1.536-0.528-2.736-1.511-3.491c-1.044-0.804-2.281-0.804-3.89-0.804h-1.883V297.961z
			 M399.896,293.043v-2.461h0.252c1.249,0,1.837,0.228,1.837,1.284c0,1.032-0.612,1.177-1.837,1.177H399.896z M399.812,294.121
			h0.155l2.856,3.84h1.572l-2.951-3.899c1.295-0.156,1.967-0.935,1.967-2.315c0-0.805-0.312-1.477-0.827-1.884
			c-0.527-0.407-1.212-0.479-2.137-0.479h-1.943v8.578h1.308V294.121z M392.433,294.592l0.876-1.957
			c0.096-0.229,0.203-0.541,0.312-0.973c0.12,0.432,0.229,0.744,0.323,0.973l0.876,1.957H392.433z M396.283,297.961h1.476
			l-4.15-8.914l-4.152,8.914h1.464l0.996-2.207h3.396L396.283,297.961z M387.319,293.727l0.948,4.234h1.296l-2.076-8.914
			l-2.471,5.388c-0.133,0.3-0.324,0.685-0.492,1.164c-0.24-0.624-0.396-1.009-0.468-1.164l-2.532-5.388l-2.028,8.914h1.284
			l0.924-4.223c0.084-0.384,0.145-0.779,0.156-1.188c0.107,0.384,0.252,0.744,0.42,1.092l2.244,4.667l2.243-4.571
			c0.191-0.396,0.323-0.779,0.396-1.188C387.247,293.187,387.283,293.57,387.319,293.727 M372.896,296.703v-6.074h1.008
			c1.033,0,1.825,0.037,2.461,0.564c0.647,0.553,0.973,1.38,0.973,2.473c0,1.092-0.325,1.92-0.973,2.473
			c-0.612,0.516-1.344,0.564-2.293,0.564H372.896z M371.505,297.961h2.254c1.394,0,2.521-0.035,3.518-0.803
			c0.983-0.756,1.511-1.943,1.511-3.48c0-1.536-0.527-2.736-1.511-3.491c-1.044-0.804-2.28-0.804-3.89-0.804h-1.882V297.961z
			 M363.021,295.789h3.13v-1.174h-3.13V295.789z M361.219,289.19l-4.197,9.888h0.995l4.198-9.888H361.219z M351.585,290.812v3.083
			h-3.012v0.971h3.012v3.096h0.994v-3.096h3.012v-0.971h-3.012v-3.083H351.585z M341.77,295.203c0,1.043-0.78,1.848-1.718,1.848
			c-0.947,0-1.717-0.805-1.717-1.848c0-1.046,0.77-1.85,1.717-1.85C341.001,293.354,341.77,294.157,341.77,295.203 M336.993,295.19
			c0,0.815,0.312,1.548,0.899,2.124c0.575,0.562,1.344,0.875,2.147,0.875c0.829,0,1.585-0.312,2.185-0.887
			c0.575-0.553,0.887-1.284,0.887-2.112c0-0.806-0.323-1.537-0.899-2.101c-0.587-0.575-1.343-0.875-2.172-0.875
			c-0.804,0-1.572,0.3-2.147,0.863C337.306,293.642,336.993,294.385,336.993,295.19 M331.712,295.166
			c0-1.164,0.576-1.824,1.524-1.824c0.961,0,1.549,0.695,1.549,1.873c0,1.188-0.552,1.848-1.513,1.848
			C332.384,297.062,331.712,296.342,331.712,295.166 M331.748,288.879h-1.271v9.082h1.271v-0.719
			c0.456,0.637,1.057,0.947,1.837,0.947c1.548,0,2.531-1.115,2.531-3.012c0-1.788-1.019-2.963-2.483-2.963
			c-0.913,0-1.585,0.396-1.885,1.103V288.879z M329.216,295.369v-0.24c0-1.848-1.055-2.914-2.844-2.914
			c-1.728,0-2.915,1.259-2.915,2.986c0,1.813,1.139,2.988,2.915,2.988c1.249,0,2.16-0.539,2.784-1.654l-1.067-0.601
			c-0.407,0.769-0.924,1.093-1.74,1.093c-0.925,0-1.513-0.613-1.572-1.658H329.216z M327.897,294.519h-3.037
			c0.204-0.829,0.708-1.226,1.536-1.226C327.273,293.293,327.801,293.715,327.897,294.519 M322.628,293.989v-1.427
			c-0.432-0.24-0.912-0.348-1.476-0.348c-1.836,0-3.083,1.199-3.083,2.988c0,1.764,1.211,2.986,2.951,2.986
			c0.611,0,1.14-0.132,1.607-0.395v-1.465c-0.372,0.469-0.852,0.697-1.464,0.697c-1.104,0-1.775-0.697-1.775-1.861
			c0-1.117,0.684-1.836,1.716-1.836C321.716,293.33,322.244,293.569,322.628,293.989 M316.784,297.961v-5.555h-1.271v0.911
			c-0.301-0.707-0.961-1.103-1.873-1.103c-1.465,0-2.495,1.175-2.495,2.963c0,1.896,0.982,3.012,2.53,3.012
			c0.781,0,1.382-0.312,1.838-0.947v0.719H316.784z M315.549,295.166c0,1.176-0.672,1.896-1.548,1.896
			c-0.961,0-1.524-0.66-1.524-1.848c0-1.178,0.588-1.873,1.549-1.873C314.974,293.342,315.549,294.002,315.549,295.166
			 M308.529,297.961h1.271v-9.082h-1.271V297.961z M303.645,292.971v-2.389h0.359c1.297,0,1.935,0.215,1.935,1.248
			c0,0.996-0.649,1.141-1.935,1.141H303.645z M303.561,294.109h0.805c0.876,0,1.573-0.023,2.148-0.432
			c0.526-0.383,0.862-1.104,0.862-1.932s-0.336-1.537-0.862-1.92c-0.575-0.42-1.272-0.443-2.148-0.443h-2.111v8.578h1.307V294.109z"
			/>
		<path clip-path="url(#SVGID_24_)" fill="#F9A25E" d="M381.567,191.961h0.993v-8.495h-2.17l-0.575,0.887h1.752V191.961z
			 M372.519,187.677c0.528-0.408,1.152-0.612,1.824-0.612c1.32,0,2.136,0.84,2.136,2.065c0,1.332-0.827,2.172-2.052,2.172
			c-0.84,0-1.5-0.42-1.884-1.212l-0.72,0.84c0.588,0.864,1.416,1.259,2.58,1.259c1.968,0,3.153-1.223,3.153-3.155
			c0-1.717-1.042-2.796-2.722-2.796c-0.479,0-0.924,0.096-1.332,0.312l0.54-2.209h3.071v-0.875h-3.768l-1.02,4.175L372.519,187.677z
			 M367.802,184.078c0.937,0,1.514,0.54,1.514,1.429c0,0.864-0.554,1.392-1.537,1.392c-0.96,0-1.501-0.54-1.501-1.392
			C366.277,184.629,366.854,184.078,367.802,184.078 M367.79,191.363c-1.152,0-1.801-0.661-1.801-1.729
			c0-1.081,0.673-1.765,1.801-1.765c1.129,0,1.801,0.672,1.801,1.765C369.591,190.703,368.943,191.363,367.79,191.363
			 M366.674,187.426c-1.128,0.311-1.763,1.151-1.763,2.28c0,1.488,1.065,2.483,2.891,2.483c1.837,0,2.879-0.971,2.879-2.507
			c0-1.105-0.635-1.933-1.762-2.256c0.923-0.276,1.451-0.972,1.451-1.896c0-1.333-0.971-2.232-2.568-2.232
			c-1.573,0-2.58,0.923-2.58,2.148C365.222,186.466,365.714,187.126,366.674,187.426 M362.821,189.167h-7.019v0.682h7.019V189.167z
			 M362.821,186.923h-7.019v0.682h7.019V186.923z M348.627,191.961h0.91v-2.771c0-0.589,0-1.033,0.312-1.417
			c0.301-0.372,0.769-0.576,1.309-0.576c0.961,0,1.429,0.528,1.429,1.609v3.155h0.91v-3.648c0-1.212-0.766-1.907-2.015-1.907
			c-0.841,0-1.488,0.324-1.945,1.019v-0.827h-0.91V191.961z"/>
		<path clip-path="url(#SVGID_24_)" fill="#F9A25E" d="M426.95,180.566c0.923-1.713,1.39-3.632,1.39-5.766
			c0-2.217-0.442-4.124-1.39-5.813l-0.948,0.287c0.864,1.702,1.236,3.476,1.236,5.514c0,2.11-0.36,3.873-1.236,5.467L426.95,180.566
			z M420.926,176.955c0.408,0.839,1.115,1.235,2.195,1.235c1.452,0,2.268-0.695,2.268-1.775c0-0.804-0.455-1.261-1.427-1.645
			c-0.864-0.348-1.466-0.432-1.466-0.972c0-0.384,0.313-0.636,0.805-0.636c0.444,0,0.793,0.228,0.926,0.576l0.898-0.624
			c-0.275-0.575-0.898-0.911-1.775-0.911c-1.32,0-2.123,0.707-2.123,1.667c0,0.804,0.539,1.236,1.595,1.681
			c0.768,0.324,1.321,0.372,1.321,0.948c0,0.444-0.338,0.732-0.913,0.732c-0.673,0-1.093-0.3-1.248-0.852L420.926,176.955z
			 M419.484,180.566l0.96-0.311c-0.876-1.594-1.236-3.357-1.236-5.467c0-2.038,0.372-3.812,1.236-5.514l-0.96-0.287
			c-0.947,1.689-1.391,3.596-1.391,5.813C418.094,176.934,418.562,178.853,419.484,180.566 M411.074,176.247
			c0.288,1.248,1.247,1.943,2.711,1.943c1.777,0,2.843-1.055,2.843-2.651c0-1.236-0.707-1.849-2.219-2.545
			c-0.96-0.444-1.633-0.696-1.633-1.524c0-0.648,0.469-1.08,1.225-1.08c0.541,0,0.938,0.252,1.273,0.78l1.091-0.564
			c-0.324-0.899-1.199-1.415-2.472-1.415c-1.561,0-2.579,0.971-2.579,2.351c0,1.296,0.839,1.872,2.362,2.617
			c0.89,0.432,1.525,0.636,1.525,1.476c0,0.768-0.516,1.272-1.357,1.272c-0.876,0-1.451-0.408-1.655-1.176L411.074,176.247z
			 M404.137,176.703v-6.073h1.009c1.031,0,1.823,0.036,2.461,0.564c0.647,0.552,0.972,1.38,0.972,2.473
			c0,1.092-0.324,1.92-0.972,2.472c-0.612,0.516-1.346,0.564-2.293,0.564H404.137z M402.746,177.962h2.255
			c1.393,0,2.521-0.036,3.518-0.803c0.982-0.756,1.511-1.944,1.511-3.481c0-1.536-0.528-2.736-1.511-3.492
			c-1.044-0.803-2.281-0.803-3.89-0.803h-1.883V177.962z M397.478,173.043v-2.461h0.252c1.249,0,1.837,0.228,1.837,1.285
			c0,1.032-0.612,1.176-1.837,1.176H397.478z M397.394,174.122h0.155l2.856,3.84h1.572l-2.951-3.9
			c1.295-0.156,1.967-0.935,1.967-2.316c0-0.804-0.312-1.476-0.828-1.883c-0.526-0.408-1.211-0.48-2.136-0.48h-1.943v8.579h1.308
			V174.122z M390.015,174.591l0.876-1.956c0.096-0.228,0.202-0.54,0.311-0.973c0.12,0.433,0.229,0.745,0.324,0.973l0.876,1.956
			H390.015z M393.865,177.962h1.476l-4.151-8.915l-4.151,8.915h1.464l0.996-2.208h3.396L393.865,177.962z M384.901,173.727
			l0.948,4.235h1.296l-2.076-8.915l-2.472,5.388c-0.132,0.3-0.323,0.684-0.491,1.164c-0.24-0.624-0.396-1.008-0.468-1.164
			l-2.532-5.388l-2.028,8.915h1.284l0.924-4.224c0.084-0.384,0.144-0.78,0.156-1.188c0.107,0.384,0.252,0.744,0.42,1.092
			l2.244,4.668l2.243-4.572c0.191-0.396,0.323-0.78,0.396-1.188C384.829,173.186,384.865,173.57,384.901,173.727 M370.478,176.703
			v-6.073h1.008c1.033,0,1.825,0.036,2.461,0.564c0.647,0.552,0.972,1.38,0.972,2.473c0,1.092-0.324,1.92-0.972,2.472
			c-0.612,0.516-1.344,0.564-2.293,0.564H370.478z M369.086,177.962h2.255c1.394,0,2.521-0.036,3.518-0.803
			c0.982-0.756,1.511-1.944,1.511-3.481c0-1.536-0.528-2.736-1.511-3.492c-1.044-0.803-2.28-0.803-3.89-0.803h-1.883V177.962z
			 M360.604,175.79h3.13v-1.174h-3.13V175.79z M358.801,169.191l-4.197,9.887h0.995l4.198-9.887H358.801z M349.167,170.811v3.084
			h-3.012v0.971h3.012v3.096h0.994v-3.096h3.012v-0.971h-3.012v-3.084H349.167z M340.286,177.962v-5.555h-1.271v0.911
			c-0.301-0.707-0.961-1.103-1.873-1.103c-1.465,0-2.495,1.175-2.495,2.963c0,1.897,0.982,3.012,2.53,3.012
			c0.781,0,1.382-0.312,1.838-0.947v0.719H340.286z M339.051,175.166c0,1.177-0.672,1.897-1.549,1.897
			c-0.96,0-1.523-0.66-1.523-1.848c0-1.177,0.588-1.873,1.548-1.873C338.476,173.342,339.051,174.002,339.051,175.166
			 M331.863,170.006c0,0.432,0.36,0.804,0.803,0.804c0.444,0,0.792-0.348,0.792-0.804c0-0.455-0.348-0.791-0.792-0.791
			C332.224,169.215,331.863,169.575,331.863,170.006 M332.031,177.962h1.271v-5.555h-1.271V177.962z M330.914,177.962v-1.115h-3.022
			l3.022-4.44h-4.847v1.115h2.783l-3.096,4.44H330.914z M317.475,177.962v-2.532c0-0.684,0-1.152,0.216-1.512
			c0.239-0.396,0.672-0.636,1.177-0.636c0.876,0,1.104,0.564,1.104,1.824v2.856h1.283v-2.532c0-1.428,0.288-2.148,1.394-2.148
			c0.96,0,1.08,0.6,1.08,1.824v2.856h1.271v-3.816c0-0.468-0.023-0.852-0.204-1.152c-0.3-0.503-0.851-0.791-1.595-0.791
			c-0.865,0-1.489,0.348-2.065,1.103c-0.3-0.743-0.862-1.103-1.727-1.103c-0.889,0-1.501,0.348-2.005,1.115v-0.911h-1.199v5.555
			H317.475z M313.011,170.006c0,0.432,0.36,0.804,0.805,0.804c0.442,0,0.791-0.348,0.791-0.804c0-0.455-0.349-0.791-0.791-0.791
			C313.371,169.215,313.011,169.575,313.011,170.006 M313.179,177.962h1.271v-5.555h-1.271V177.962z M311.559,171.47l0.071-1.404
			c-0.84-0.587-1.739-0.887-2.771-0.887c-1.284,0-2.4,0.444-3.252,1.283c-0.852,0.84-1.308,1.968-1.308,3.228
			c0,1.249,0.456,2.401,1.295,3.229c0.841,0.827,1.969,1.271,3.288,1.271c1.032,0,1.908-0.264,2.664-0.803v-1.572
			c-0.84,0.72-1.752,1.08-2.771,1.08c-1.716,0-3.024-1.308-3.024-3.192c0-1.909,1.284-3.241,3.168-3.241
			C309.891,170.462,310.767,170.798,311.559,171.47"/>
		<path clip-path="url(#SVGID_24_)" fill="#808285" d="M246.803,308.875h-3.266c0.096-0.912,0.757-1.478,1.633-1.478
			C246.142,307.397,246.743,307.926,246.803,308.875 M247.785,309.617v-0.18c0-1.775-1.006-2.844-2.579-2.844
			c-1.562,0-2.675,1.176-2.675,2.867c0,1.754,1.102,2.929,2.734,2.929c1.104,0,1.944-0.491,2.483-1.464l-0.695-0.467
			c-0.442,0.779-1.02,1.164-1.739,1.164c-1.032,0-1.777-0.757-1.777-1.922v-0.084H247.785z M237.611,311.262
			c0.419,0.757,1.113,1.128,2.11,1.128c1.188,0,1.955-0.707,1.955-1.703c0-0.876-0.515-1.261-1.559-1.597
			c-0.888-0.287-1.381-0.36-1.381-0.924c0-0.469,0.372-0.805,0.913-0.805c0.563,0,1.009,0.275,1.225,0.768l0.742-0.455
			c-0.287-0.684-0.982-1.067-1.907-1.067c-1.141,0-1.895,0.683-1.895,1.619c0,1.057,0.79,1.284,2.11,1.741
			c0.565,0.191,0.841,0.408,0.841,0.815c0,0.468-0.396,0.804-1.009,0.804c-0.611,0-1.068-0.275-1.368-0.852L237.611,311.262z
			 M231.945,309.498c0-1.141,0.864-2.029,1.944-2.029c1.069,0,1.934,0.889,1.934,2.029s-0.864,2.028-1.934,2.028
			C232.822,311.526,231.945,310.639,231.945,309.498 M230.975,309.498c0,0.78,0.287,1.477,0.852,2.041
			c0.552,0.551,1.271,0.851,2.063,0.851c0.78,0,1.501-0.312,2.065-0.863c0.551-0.54,0.85-1.248,0.85-2.028
			c0-0.781-0.299-1.5-0.85-2.041c-0.564-0.551-1.273-0.851-2.065-0.851s-1.512,0.288-2.063,0.839
			C231.262,307.998,230.975,308.717,230.975,309.498 M223.882,311.203v-6.674h0.66c1.476,0,2.496,0.023,3.205,0.624
			c0.708,0.588,1.08,1.5,1.08,2.713c0,1.212-0.384,2.148-1.08,2.724c-0.721,0.601-1.741,0.613-3.205,0.613H223.882z
			 M222.863,312.162h2.015c1.392,0,2.521-0.037,3.517-0.804c0.983-0.756,1.499-1.944,1.499-3.479c0-1.537-0.516-2.737-1.499-3.494
			c-1.044-0.803-2.28-0.803-3.889-0.803h-1.643V312.162z"/>
		<path clip-path="url(#SVGID_24_)" fill="#808285" d="M254.254,295.099c0,1.235-0.672,1.956-1.753,1.956
			c-1.14,0-1.788-0.732-1.788-2.028c0-1.226,0.648-1.933,1.752-1.933C253.498,293.094,254.254,293.85,254.254,295.099
			 M255.165,292.398h-0.935v0.995c-0.396-0.78-1.08-1.187-1.97-1.187c-1.5,0-2.519,1.066-2.519,2.855
			c0,1.74,1.031,2.867,2.567,2.867c0.829,0,1.524-0.42,1.944-1.188v0.899c0,0.491-0.023,0.884-0.228,1.218
			c-0.276,0.465-0.804,0.703-1.537,0.703c-1.032,0-1.596-0.465-1.596-1.251v-0.072h-1.031c0.036,1.335,0.971,2.126,2.615,2.126
			c0.948,0,1.669-0.275,2.161-0.803c0.503-0.536,0.526-1.132,0.526-1.896V292.398z M243.526,297.762h0.911v-2.771
			c0-0.589,0-1.033,0.312-1.417c0.3-0.372,0.769-0.575,1.31-0.575c0.96,0,1.428,0.527,1.428,1.608v3.155h0.911v-3.648
			c0-1.212-0.768-1.906-2.016-1.906c-0.841,0-1.488,0.323-1.944,1.019v-0.827h-0.911V297.762z M240.515,289.818
			c0,0.383,0.3,0.671,0.672,0.671c0.371,0,0.671-0.288,0.671-0.659s-0.3-0.684-0.671-0.684
			C240.814,289.146,240.515,289.446,240.515,289.818 M240.73,297.762h0.911v-5.363h-0.911V297.762z M237.983,295.11
			c0,1.272-0.697,1.992-1.801,1.992c-1.069,0-1.741-0.769-1.741-2.112c0-1.189,0.66-1.873,1.729-1.873
			C237.25,293.117,237.983,293.897,237.983,295.11 M238.869,288.678h-0.91v4.728c-0.409-0.791-1.068-1.198-1.957-1.198
			c-1.501,0-2.53,1.09-2.53,2.892c0,1.752,1.029,2.891,2.566,2.891c0.828,0,1.524-0.431,1.945-1.198v0.971h0.886V288.678z
			 M231.215,295.135c0,1.236-0.673,1.943-1.753,1.943c-1.14,0-1.789-0.731-1.789-2.027c0-1.226,0.649-1.934,1.753-1.934
			C230.458,293.117,231.215,293.885,231.215,295.135 M232.102,292.398h-0.91v1.007c-0.408-0.792-1.069-1.198-1.969-1.198
			c-1.501,0-2.52,1.09-2.52,2.892c0,1.752,1.03,2.891,2.567,2.891c0.828,0,1.513-0.419,1.944-1.198v0.971h0.887V292.398z
			 M220.881,295.099c0-1.142,0.865-2.029,1.945-2.029c1.069,0,1.933,0.888,1.933,2.029c0,1.14-0.863,2.028-1.933,2.028
			C221.758,297.127,220.881,296.238,220.881,295.099 M219.911,295.099c0,0.78,0.287,1.476,0.851,2.04
			c0.553,0.551,1.272,0.851,2.064,0.851c0.78,0,1.501-0.312,2.065-0.862c0.551-0.541,0.85-1.248,0.85-2.028
			c0-0.781-0.299-1.501-0.85-2.041c-0.564-0.552-1.273-0.851-2.065-0.851s-1.512,0.287-2.064,0.838
			C220.198,293.598,219.911,294.317,219.911,295.099 M215.027,297.762h4.258v-0.971h-3.24v-7.608h-1.018V297.762z"/>
		<path clip-path="url(#SVGID_24_)" fill="#808285" d="M246.803,188.875h-3.266c0.096-0.913,0.757-1.478,1.633-1.478
			C246.142,187.397,246.743,187.926,246.803,188.875 M247.785,189.618v-0.18c0-1.776-1.006-2.842-2.579-2.842
			c-1.562,0-2.675,1.174-2.675,2.866c0,1.753,1.102,2.928,2.734,2.928c1.104,0,1.944-0.491,2.483-1.463l-0.695-0.468
			c-0.442,0.78-1.02,1.164-1.739,1.164c-1.032,0-1.777-0.756-1.777-1.921v-0.084H247.785z M237.611,191.263
			c0.419,0.756,1.113,1.127,2.11,1.127c1.188,0,1.955-0.707,1.955-1.703c0-0.876-0.515-1.26-1.559-1.596
			c-0.888-0.288-1.381-0.361-1.381-0.925c0-0.468,0.372-0.804,0.913-0.804c0.563,0,1.009,0.276,1.225,0.768l0.742-0.456
			c-0.287-0.683-0.982-1.067-1.907-1.067c-1.141,0-1.895,0.683-1.895,1.619c0,1.057,0.79,1.285,2.11,1.741
			c0.565,0.192,0.841,0.408,0.841,0.816c0,0.468-0.396,0.805-1.009,0.805c-0.611,0-1.068-0.277-1.368-0.853L237.611,191.263z
			 M231.945,189.499c0-1.141,0.864-2.029,1.944-2.029c1.069,0,1.934,0.888,1.934,2.029c0,1.14-0.864,2.028-1.934,2.028
			C232.822,191.526,231.945,190.639,231.945,189.499 M230.975,189.499c0,0.78,0.287,1.476,0.852,2.04
			c0.552,0.552,1.271,0.851,2.063,0.851c0.78,0,1.501-0.311,2.065-0.863c0.551-0.54,0.85-1.248,0.85-2.028
			c0-0.781-0.299-1.501-0.85-2.041c-0.564-0.551-1.273-0.851-2.065-0.851s-1.512,0.288-2.063,0.839
			C231.262,187.998,230.975,188.717,230.975,189.499 M223.882,191.204v-6.674h0.66c1.476,0,2.496,0.024,3.205,0.624
			c0.708,0.588,1.08,1.5,1.08,2.713c0,1.212-0.384,2.148-1.08,2.724c-0.721,0.6-1.741,0.613-3.205,0.613H223.882z M222.863,192.162
			h2.015c1.392,0,2.521-0.036,3.517-0.803c0.983-0.756,1.499-1.944,1.499-3.48c0-1.537-0.516-2.737-1.499-3.493
			c-1.044-0.803-2.28-0.803-3.889-0.803h-1.643V192.162z"/>
		<path clip-path="url(#SVGID_24_)" fill="#808285" d="M254.254,175.099c0,1.236-0.672,1.956-1.753,1.956
			c-1.14,0-1.788-0.732-1.788-2.028c0-1.225,0.648-1.933,1.752-1.933C253.498,173.093,254.254,173.85,254.254,175.099
			 M255.165,172.398h-0.935v0.995c-0.396-0.78-1.08-1.187-1.97-1.187c-1.5,0-2.519,1.067-2.519,2.856
			c0,1.74,1.031,2.867,2.567,2.867c0.829,0,1.524-0.419,1.944-1.188v0.899c0,0.491-0.023,0.884-0.228,1.218
			c-0.276,0.465-0.804,0.703-1.537,0.703c-1.032,0-1.596-0.465-1.596-1.251v-0.072h-1.031c0.036,1.335,0.971,2.126,2.615,2.126
			c0.948,0,1.669-0.276,2.161-0.803c0.503-0.536,0.526-1.132,0.526-1.897V172.398z M243.526,177.761h0.911v-2.771
			c0-0.589,0-1.033,0.312-1.417c0.3-0.372,0.769-0.576,1.31-0.576c0.96,0,1.428,0.528,1.428,1.609v3.155h0.911v-3.648
			c0-1.212-0.768-1.907-2.016-1.907c-0.841,0-1.488,0.324-1.944,1.019v-0.827h-0.911V177.761z M240.515,169.818
			c0,0.383,0.3,0.671,0.672,0.671c0.371,0,0.671-0.288,0.671-0.659c0-0.372-0.3-0.684-0.671-0.684
			C240.814,169.146,240.515,169.446,240.515,169.818 M240.73,177.761h0.911v-5.363h-0.911V177.761z M237.983,175.11
			c0,1.272-0.697,1.992-1.801,1.992c-1.069,0-1.741-0.768-1.741-2.112c0-1.189,0.66-1.873,1.729-1.873
			C237.25,173.117,237.983,173.897,237.983,175.11 M238.869,168.678h-0.91v4.727c-0.409-0.791-1.068-1.199-1.957-1.199
			c-1.501,0-2.53,1.091-2.53,2.892c0,1.752,1.029,2.891,2.566,2.891c0.828,0,1.524-0.431,1.945-1.199v0.971h0.886V168.678z
			 M231.215,175.134c0,1.236-0.673,1.944-1.753,1.944c-1.14,0-1.789-0.732-1.789-2.028c0-1.225,0.649-1.933,1.753-1.933
			C230.458,173.117,231.215,173.885,231.215,175.134 M232.102,172.398h-0.91v1.007c-0.408-0.792-1.069-1.199-1.969-1.199
			c-1.501,0-2.52,1.091-2.52,2.892c0,1.752,1.03,2.891,2.567,2.891c0.828,0,1.513-0.419,1.944-1.199v0.971h0.887V172.398z
			 M220.881,175.099c0-1.141,0.865-2.029,1.945-2.029c1.069,0,1.933,0.888,1.933,2.029c0,1.14-0.863,2.028-1.933,2.028
			C221.758,177.126,220.881,176.238,220.881,175.099 M219.911,175.099c0,0.78,0.287,1.476,0.851,2.04
			c0.553,0.551,1.272,0.851,2.064,0.851c0.78,0,1.501-0.311,2.065-0.863c0.551-0.54,0.85-1.248,0.85-2.028
			c0-0.781-0.299-1.501-0.85-2.041c-0.564-0.551-1.273-0.851-2.065-0.851s-1.512,0.288-2.064,0.839
			C220.198,173.598,219.911,174.317,219.911,175.099 M215.027,177.761h4.258v-0.971h-3.24v-7.608h-1.018V177.761z"/>
		<path clip-path="url(#SVGID_24_)" fill="#808285" d="M342.394,548.675h0.726v-6.191h-1.582l-0.42,0.646h1.276V548.675z
			 M336.992,552.95c0,0.479,0.375,0.854,0.869,0.854s0.884-0.374,0.884-0.854s-0.39-0.869-0.884-0.869
			C337.382,552.081,336.992,552.471,336.992,552.95 M334.186,552.456h-4.064l1.68-1.816c1.727-1.875,2.714-3.286,2.714-4.829
			c0-1.847-1.228-2.97-3.329-2.97c-2.115,0-3.358,1.183-3.358,3.21c0,0.089,0.015,0.194,0.015,0.283h1.198v-0.119
			c0-1.425,0.75-2.206,2.101-2.206c1.291,0,2.116,0.796,2.116,1.877c0,1.393-1.336,2.819-3.271,5.1l-2.265,2.684h6.464V552.456z
			 M322.202,553.669h1.243v-10.618h-2.713l-0.721,1.108h2.19V553.669z M313.771,553.954c2.25,0,3.703-1.993,3.703-5.564
			s-1.438-5.549-3.733-5.549c-2.236,0-3.704,2.008-3.704,5.549S311.505,553.954,313.771,553.954 M313.756,552.905
			c-1.484,0-2.4-1.619-2.4-4.53c0-2.896,0.916-4.501,2.4-4.501c1.562,0,2.401,1.545,2.401,4.53
			C316.157,551.376,315.317,552.905,313.756,552.905 M307.861,552.456h-4.065l1.681-1.816c1.726-1.875,2.714-3.286,2.714-4.829
			c0-1.847-1.229-2.97-3.329-2.97c-2.116,0-3.359,1.183-3.359,3.21c0,0.089,0.015,0.194,0.015,0.283h1.198v-0.119
			c0-1.425,0.751-2.206,2.102-2.206c1.291,0,2.115,0.796,2.115,1.877c0,1.393-1.335,2.819-3.271,5.1l-2.265,2.684h6.465V552.456z
			 M293.882,553.669h1.138v-11.354h-1.138V553.669z M290.493,550.385c0,1.546-0.841,2.431-2.191,2.431
			c-1.426,0-2.235-0.915-2.235-2.536c0-1.529,0.81-2.416,2.19-2.416C289.547,547.863,290.493,548.825,290.493,550.385
			 M291.601,546.966h-1.138v1.258c-0.511-0.99-1.336-1.498-2.461-1.498c-1.876,0-3.149,1.363-3.149,3.614
			c0,2.19,1.288,3.614,3.209,3.614c1.035,0,1.891-0.523,2.432-1.498v1.213h1.107V546.966z M277.383,547.909v5.76h1.139v-5.76h1.26
			v-0.943h-1.26v-2.7h-1.139v2.7h-1.229v0.943H277.383z M274.323,549.561h-4.082c0.12-1.141,0.944-1.847,2.041-1.847
			C273.498,547.714,274.248,548.375,274.323,549.561 M275.551,550.488v-0.224c0-2.221-1.258-3.554-3.224-3.554
			c-1.951,0-3.344,1.469-3.344,3.584c0,2.19,1.378,3.659,3.419,3.659c1.381,0,2.43-0.614,3.104-1.829l-0.869-0.585
			c-0.554,0.976-1.274,1.456-2.175,1.456c-1.291,0-2.221-0.946-2.221-2.402v-0.105H275.551z M257.837,554.089l3.315-7.709
			l1.363,7.289h1.245l-2.175-11.144l-3.749,8.865l-3.749-8.865l-2.175,11.144h1.245l1.35-7.289L257.837,554.089z M244.743,547.909
			v5.76h1.138v-5.76h1.26v-0.943h-1.26v-2.7h-1.138v2.7h-1.23v0.943H244.743z M240.933,547.909v5.76h1.139v-5.76h1.261v-0.943
			h-1.261v-2.7h-1.139v2.7h-1.229v0.943H240.933z M237.424,550.385c0,1.546-0.841,2.431-2.19,2.431
			c-1.427,0-2.236-0.915-2.236-2.536c0-1.529,0.81-2.416,2.19-2.416C236.478,547.863,237.424,548.825,237.424,550.385
			 M238.532,546.966h-1.139v1.258c-0.511-0.99-1.336-1.498-2.461-1.498c-1.876,0-3.148,1.363-3.148,3.614
			c0,2.19,1.288,3.614,3.209,3.614c1.035,0,1.89-0.523,2.431-1.498v1.213h1.108V546.966z M228.799,553.669h1.138v-11.354h-1.138
			V553.669z M221.327,550.354c0-1.516,0.93-2.491,2.281-2.491c1.336,0,2.16,0.855,2.16,2.342c0,1.68-0.854,2.641-2.19,2.641
			C222.197,552.846,221.327,551.945,221.327,550.354 M220.234,542.315v11.354h1.093v-1.213c0.524,0.96,1.411,1.498,2.446,1.498
			c1.921,0,3.209-1.424,3.209-3.614c0-2.251-1.288-3.614-3.164-3.614c-1.11,0-1.937,0.509-2.446,1.498v-5.908H220.234z
			 M211.954,553.669h1.138v-3.464c0-0.735,0-1.29,0.391-1.771c0.376-0.465,0.961-0.72,1.636-0.72c1.201,0,1.786,0.66,1.786,2.011
			v3.944h1.138v-4.56c0-1.516-0.958-2.384-2.519-2.384c-1.051,0-1.861,0.404-2.432,1.273v-1.033h-1.138V553.669z M208.189,543.739
			c0,0.48,0.375,0.84,0.839,0.84s0.839-0.359,0.839-0.824c0-0.464-0.375-0.854-0.839-0.854S208.189,543.275,208.189,543.739
			 M208.459,553.669h1.138v-6.703h-1.138V553.669z M205.519,549.561h-4.082c0.12-1.141,0.946-1.847,2.041-1.847
			C204.694,547.714,205.444,548.375,205.519,549.561 M206.747,550.488v-0.224c0-2.221-1.258-3.554-3.224-3.554
			c-1.951,0-3.345,1.469-3.345,3.584c0,2.19,1.378,3.659,3.419,3.659c1.381,0,2.432-0.614,3.104-1.829l-0.868-0.585
			c-0.555,0.976-1.275,1.456-2.176,1.456c-1.29,0-2.222-0.946-2.222-2.402v-0.105H206.747z M185.869,542.945l4.155,11.144
			l2.789-8.294l2.805,8.294l4.155-11.144h-1.381l-2.729,7.89l-2.865-8.31l-2.834,8.31l-2.715-7.89H185.869z M179.48,553.669h1.138
			v-4.56c0-1.516-0.899-2.384-2.384-2.384c-1.021,0-1.802,0.435-2.387,1.363c-0.39-0.899-1.169-1.363-2.249-1.363
			c-1.006,0-1.771,0.419-2.311,1.273v-1.033h-1.138v6.703h1.138v-3.464c0-0.165-0.015-0.33-0.015-0.48
			c0-0.51,0.06-0.931,0.345-1.291c0.359-0.465,0.915-0.72,1.531-0.72c1.14,0,1.666,0.66,1.666,2.011v3.944h1.138v-3.464
			c0-0.15-0.015-0.285-0.015-0.42c0-0.556,0.074-0.977,0.359-1.352c0.36-0.465,0.9-0.72,1.517-0.72c1.14,0,1.666,0.66,1.666,2.011
			V553.669z M162.363,550.34c0-1.425,1.08-2.536,2.431-2.536c1.335,0,2.416,1.111,2.416,2.536c0,1.426-1.081,2.536-2.416,2.536
			C163.458,552.876,162.363,551.766,162.363,550.34 M161.15,550.34c0,0.975,0.358,1.846,1.062,2.551
			c0.69,0.689,1.59,1.063,2.581,1.063c0.975,0,1.876-0.39,2.581-1.078c0.688-0.675,1.063-1.562,1.063-2.536
			c0-0.976-0.375-1.876-1.063-2.551c-0.705-0.689-1.591-1.063-2.581-1.063c-0.991,0-1.891,0.359-2.581,1.048
			C161.509,548.464,161.15,549.364,161.15,550.34 M156.515,553.669h1.139v-3.27c0-1.756,0.6-2.626,1.814-2.626
			c0.21,0,0.45,0.045,0.705,0.136l0.39-1.033c-0.255-0.09-0.51-0.135-0.779-0.135c-1.021,0-1.65,0.479-2.25,1.617v-1.393h-1.019
			V553.669z M152.54,553.669h1.138v-5.76h1.785v-0.943h-1.785v-1.786c0-1.291,0.03-1.906,0.885-1.906c0.301,0,0.601,0.075,0.9,0.24
			v-1.183c-0.314-0.105-0.645-0.15-0.99-0.15c-1.604,0-1.933,0.839-1.933,2.849v1.937h-1.29v0.943h1.29V553.669z M144.515,550.354
			c0,1.591-0.87,2.491-2.251,2.491c-1.335,0-2.176-0.96-2.176-2.641c0-1.486,0.826-2.342,2.161-2.342
			C143.6,547.863,144.515,548.839,144.515,550.354 M145.623,542.315h-1.138v5.908c-0.511-0.989-1.335-1.498-2.446-1.498
			c-1.876,0-3.164,1.363-3.164,3.614c0,2.19,1.288,3.614,3.209,3.614c1.036,0,1.906-0.539,2.431-1.498v1.214h1.108V542.315z
			 M136.505,549.561h-4.082c0.12-1.141,0.946-1.847,2.041-1.847C135.68,547.714,136.43,548.375,136.505,549.561 M137.733,550.488
			v-0.224c0-2.221-1.259-3.554-3.225-3.554c-1.951,0-3.344,1.469-3.344,3.584c0,2.19,1.378,3.659,3.419,3.659
			c1.381,0,2.43-0.614,3.104-1.829l-0.867-0.585c-0.556,0.976-1.275,1.456-2.177,1.456c-1.29,0-2.221-0.946-2.221-2.402v-0.105
			H137.733z M128.12,547.909v5.76h1.139v-5.76h1.26v-0.943h-1.26v-2.7h-1.139v2.7h-1.23v0.943H128.12z M120.544,550.34
			c0-1.591,0.87-2.506,2.251-2.506c1.335,0,2.176,0.96,2.176,2.641c0,1.486-0.826,2.356-2.161,2.356
			C121.459,552.831,120.544,551.855,120.544,550.34 M119.436,556.924h1.139v-4.468c0.51,0.988,1.335,1.498,2.445,1.498
			c1.877,0,3.164-1.349,3.164-3.614c0-2.206-1.287-3.614-3.209-3.614c-1.035,0-1.921,0.524-2.445,1.498v-1.258h-1.094V556.924z
			 M116.106,550.385c0,1.546-0.842,2.431-2.191,2.431c-1.426,0-2.236-0.915-2.236-2.536c0-1.529,0.811-2.416,2.191-2.416
			C115.16,547.863,116.106,548.825,116.106,550.385 M117.214,546.966h-1.138v1.258c-0.51-0.99-1.336-1.498-2.461-1.498
			c-1.876,0-3.149,1.363-3.149,3.614c0,2.19,1.288,3.614,3.209,3.614c1.035,0,1.892-0.523,2.432-1.498v1.213h1.107V546.966z
			 M107.601,550.354c0,1.591-0.869,2.491-2.251,2.491c-1.336,0-2.176-0.96-2.176-2.641c0-1.486,0.825-2.342,2.161-2.342
			C106.686,547.863,107.601,548.839,107.601,550.354 M108.709,542.315h-1.138v5.908c-0.511-0.989-1.336-1.498-2.446-1.498
			c-1.876,0-3.164,1.363-3.164,3.614c0,2.19,1.288,3.614,3.209,3.614c1.035,0,1.906-0.539,2.431-1.498v1.214h1.108V542.315z
			 M96.68,545.345l1.71,3.946h-3.42L96.68,545.345z M96.68,542.525l-4.858,11.144h1.38l1.394-3.285h4.186l1.394,3.285h1.38
			L96.68,542.525z"/>
	</g>
</g>
</svg>
