<?xml version="1.0" encoding="utf-8"?>
<!-- Generator: Adobe Illustrator 15.1.0, SVG Export Plug-In . SVG Version: 6.00 Build 0)  -->
<!DOCTYPE svg PUBLIC "-//W3C//DTD SVG 1.1//EN" "http://www.w3.org/Graphics/SVG/1.1/DTD/svg11.dtd">
<svg version="1.1" xmlns="http://www.w3.org/2000/svg" xmlns:xlink="http://www.w3.org/1999/xlink" x="0px" y="0px" width="310px"
	 height="150px" viewBox="0 0 310 150" enable-background="new 0 0 310 150" xml:space="preserve">
<g id="data">
	<polyline fill="none" stroke="#808285" stroke-width="1.5" points="31.658,128.717 41.991,112.49 52.499,109.744 72.971,109.744 
		93.624,104.643 114.278,105.035 134.954,105.427 155.603,104.643 176.252,105.82 196.893,104.729 217.552,104.248 238.2,104.248 
		279.5,104.248 	"/>
	<polyline fill="none" stroke="#F9A25E" stroke-width="1.5" points="31.5,128.717 41.829,103.109 52.335,93.301 72.805,79.961 
		93.456,64.659 114.107,63.874 134.758,59.166 155.409,58.773 176.062,55.635 196.713,54.764 217.364,47.395 238.015,47.395 
		279.5,47.395 	"/>
</g>
<g id="axis">
	<polygon fill="#F9A25E" points="279.5,129 30.5,129 30.5,0 32.5,0 32.5,127 279.5,127 	"/>
</g>
</svg>
