<?xml version="1.0" encoding="utf-8"?>
<!-- Generator: Adobe Illustrator 15.1.0, SVG Export Plug-In . SVG Version: 6.00 Build 0)  -->
<!DOCTYPE svg PUBLIC "-//W3C//DTD SVG 1.1//EN" "http://www.w3.org/Graphics/SVG/1.1/DTD/svg11.dtd">
<svg version="1.1" id="art" xmlns="http://www.w3.org/2000/svg" xmlns:xlink="http://www.w3.org/1999/xlink" x="0px" y="0px"
	 width="912px" height="299px" viewBox="0 0 912 299" enable-background="new 0 0 912 299" xml:space="preserve">
<polygon fill="#FAA35E" points="160.265,47.592 152.395,52.592 144.525,47.592 137.534,53.762 128.978,50.054 123.038,57.242 
	114.007,54.917 109.266,62.946 99.983,62.063 96.555,70.734 87.249,71.315 85.22,80.417 76.119,82.446 75.538,91.751 66.867,95.181 
	67.749,104.462 59.721,109.205 62.044,118.234 54.857,124.175 58.564,132.73 52.395,139.722 57.395,147.592 52.395,155.462 
	58.564,162.452 54.857,171.01 62.044,176.948 59.721,185.979 67.749,190.72 66.867,200.003 75.538,203.433 76.119,212.737 
	85.22,214.767 87.249,223.868 96.555,224.448 99.983,233.12 109.266,232.237 114.007,240.267 123.038,237.942 128.978,245.131 
	137.534,241.422 144.525,247.592 152.395,242.592 160.265,247.592 167.255,241.422 175.812,245.131 181.751,237.942 
	190.782,240.267 195.524,232.237 204.806,233.12 208.234,224.448 217.541,223.868 219.569,214.767 228.671,212.737 229.251,203.433 
	237.922,200.003 237.041,190.72 245.067,185.979 242.746,176.948 249.933,171.01 246.225,162.452 252.396,155.462 247.396,147.592 
	252.396,139.722 246.225,132.73 249.933,124.175 242.746,118.234 245.067,109.205 237.041,104.462 237.922,95.181 229.251,91.751 
	228.671,82.446 219.569,80.417 217.541,71.315 208.234,70.734 204.806,62.063 195.524,62.946 190.782,54.917 181.751,57.242 
	175.812,50.054 167.255,53.762 "/>
<polygon fill="#FAA35E" points="464.266,47.592 456.396,52.592 448.525,47.592 441.534,53.762 432.979,50.054 427.038,57.242 
	418.009,54.917 413.267,62.946 403.983,62.063 400.556,70.734 391.249,71.315 389.22,80.417 380.12,82.446 379.54,91.751 
	370.868,95.181 371.749,104.462 363.721,109.205 366.044,118.234 358.857,124.175 362.564,132.73 356.396,139.722 361.396,147.592 
	356.396,155.462 362.564,162.452 358.857,171.01 366.044,176.948 363.721,185.979 371.749,190.72 370.868,200.003 379.54,203.433 
	380.12,212.737 389.22,214.767 391.249,223.868 400.556,224.448 403.983,233.12 413.267,232.237 418.009,240.267 427.038,237.942 
	432.979,245.131 441.534,241.422 448.525,247.592 456.396,242.592 464.266,247.592 471.256,241.422 479.813,245.131 
	485.752,237.942 494.782,240.267 499.524,232.237 508.807,233.12 512.235,224.448 521.541,223.868 523.571,214.767 532.672,212.737 
	533.252,203.433 541.924,200.003 541.041,190.72 549.069,185.979 546.746,176.948 553.935,171.01 550.225,162.452 556.396,155.462 
	551.396,147.592 556.396,139.722 550.225,132.73 553.935,124.175 546.746,118.234 549.069,109.205 541.041,104.462 541.924,95.181 
	533.252,91.751 532.672,82.446 523.571,80.417 521.541,71.315 512.235,70.734 508.807,62.063 499.524,62.946 494.782,54.917 
	485.752,57.242 479.813,50.054 471.256,53.762 "/>
<polygon fill="#FAA35E" points="768.265,47.592 760.396,52.592 752.524,47.592 745.534,53.762 736.978,50.054 731.037,57.242 
	722.006,54.917 717.267,62.946 707.983,62.063 704.556,70.734 695.248,71.315 693.219,80.417 684.118,82.446 683.537,91.751 
	674.866,95.181 675.748,104.462 667.722,109.205 670.043,118.234 662.856,124.175 666.563,132.73 660.396,139.722 665.396,147.592 
	660.396,155.462 666.563,162.452 662.856,171.01 670.043,176.948 667.722,185.979 675.748,190.72 674.866,200.003 683.537,203.433 
	684.118,212.737 693.219,214.767 695.248,223.868 704.556,224.448 707.983,233.12 717.267,232.237 722.006,240.267 731.037,237.942 
	736.978,245.131 745.534,241.422 752.524,247.592 760.396,242.592 768.265,247.592 775.254,241.422 783.812,245.131 
	789.748,237.942 798.782,240.267 803.524,232.237 812.806,233.12 816.233,224.448 825.539,223.868 827.569,214.767 836.67,212.737 
	837.248,203.433 845.922,200.003 845.039,190.72 853.067,185.979 850.744,176.948 857.933,171.01 854.226,162.452 860.396,155.462 
	855.396,147.592 860.396,139.722 854.226,132.73 857.933,124.175 850.744,118.234 853.067,109.205 845.039,104.462 845.922,95.181 
	837.248,91.751 836.67,82.446 827.569,80.417 825.539,71.315 816.233,70.734 812.806,62.063 803.524,62.946 798.782,54.917 
	789.748,57.242 783.812,50.054 775.254,53.762 "/>
<g>
	<defs>
		<rect id="SVGID_1_" x="51.604" y="-0.5" width="808.791" height="298.579"/>
	</defs>
	<clipPath id="SVGID_2_">
		<use xlink:href="#SVGID_1_"  overflow="visible"/>
	</clipPath>
	<path clip-path="url(#SVGID_2_)" fill="#006227" d="M845.998,19.182h2.757v-5.486c0-1.508,0.053-2.548,0.545-3.276
		c0.572-0.858,1.612-1.352,2.913-1.352c2.287,0,2.625,1.248,2.625,3.926v6.188h2.782v-7.306c0-1.456,0-2.548-0.597-3.458
		c-0.703-1.118-1.977-1.69-3.771-1.69c-2.105,0-3.536,0.702-4.652,2.392V7.144h-2.602V19.182z M840.436,13.202
		c0,2.262-1.69,4.004-3.718,4.004c-2.055,0-3.719-1.742-3.719-4.004s1.664-4.004,3.719-4.004
		C838.771,9.198,840.436,10.939,840.436,13.202 M830.087,13.176c0,1.768,0.677,3.354,1.95,4.602
		c1.248,1.222,2.912,1.898,4.654,1.898c1.794,0,3.432-0.676,4.731-1.924c1.248-1.196,1.925-2.782,1.925-4.576
		c0-1.742-0.702-3.328-1.95-4.55c-1.274-1.248-2.912-1.898-4.706-1.898c-1.742,0-3.406,0.65-4.654,1.872
		C830.764,9.822,830.087,11.434,830.087,13.176 M824.186,1.943c0,0.936,0.779,1.742,1.742,1.742c0.962,0,1.716-0.754,1.716-1.742
		c0-0.988-0.754-1.716-1.716-1.716C824.965,0.228,824.186,1.008,824.186,1.943 M824.55,19.182h2.756V7.144h-2.756V19.182z
		 M817.451,19.182h2.756v-9.62h2.106V7.144h-2.106v-4.55h-2.756v4.55h-2.105v2.418h2.105V19.182z M814.253,10.576V7.481
		c-0.936-0.52-1.976-0.754-3.197-0.754c-3.979,0-6.683,2.6-6.683,6.474c0,3.822,2.626,6.474,6.396,6.474
		c1.326,0,2.47-0.286,3.483-0.858v-3.172c-0.806,1.014-1.846,1.508-3.172,1.508c-2.392,0-3.848-1.508-3.848-4.03
		c0-2.418,1.481-3.978,3.718-3.978C812.277,9.146,813.421,9.666,814.253,10.576 M790.229,19.182h2.756v-5.486
		c0-1.508,0.052-2.548,0.546-3.276c0.572-0.858,1.612-1.352,2.912-1.352c2.288,0,2.626,1.248,2.626,3.926v6.188h2.782v-7.306
		c0-1.456,0-2.548-0.599-3.458c-0.701-1.118-1.976-1.69-3.77-1.69c-2.106,0-3.536,0.702-4.654,2.392V7.144h-2.6V19.182z
		 M777.879,7.144h-2.756v5.954c0,4.524,1.639,6.578,5.851,6.578c4.134,0,5.798-2.08,5.798-6.578V7.144h-2.756v6.786
		c0,2.262-0.832,3.276-3.068,3.276s-3.068-1.014-3.068-3.276V7.144z M762.045,19.182h3.017v-8.736h7.357V7.793h-7.357V3.166h7.357
		V0.592h-10.374V19.182z M747.798,19.182h2.757V-0.5h-2.757V19.182z M744.132,19.182V7.144h-2.756V9.12
		c-0.649-1.534-2.08-2.392-4.056-2.392c-3.172,0-5.408,2.548-5.408,6.422c0,4.108,2.132,6.526,5.486,6.526
		c1.689,0,2.99-0.676,3.978-2.054v1.56H744.132z M741.454,13.124c0,2.548-1.456,4.108-3.354,4.108c-2.08,0-3.303-1.43-3.303-4.004
		c0-2.548,1.274-4.056,3.354-4.056C740.206,9.172,741.454,10.602,741.454,13.124 M730.248,10.576V7.481
		c-0.936-0.52-1.976-0.754-3.198-0.754c-3.978,0-6.682,2.6-6.682,6.474c0,3.822,2.626,6.474,6.396,6.474
		c1.325,0,2.47-0.286,3.483-0.858v-3.172c-0.806,1.014-1.846,1.508-3.172,1.508c-2.392,0-3.848-1.508-3.848-4.03
		c0-2.418,1.481-3.978,3.718-3.978C728.272,9.146,729.416,9.666,730.248,10.576 M714.468,1.943c0,0.936,0.779,1.742,1.741,1.742
		s1.716-0.754,1.716-1.742c0-0.988-0.754-1.716-1.716-1.716S714.468,1.008,714.468,1.943 M714.831,19.182h2.756V7.144h-2.756V19.182
		z M702.507,16.998c0.885,1.82,2.418,2.678,4.759,2.678c3.146,0,4.914-1.508,4.914-3.848c0-1.742-0.988-2.73-3.095-3.562
		c-1.872-0.754-3.172-0.936-3.172-2.106c0-0.832,0.676-1.378,1.742-1.378c0.962,0,1.716,0.494,2.002,1.248l1.95-1.352
		c-0.599-1.248-1.95-1.976-3.849-1.976c-2.859,0-4.602,1.534-4.602,3.614c0,1.742,1.17,2.678,3.458,3.64
		c1.664,0.702,2.86,0.806,2.86,2.054c0,0.962-0.729,1.586-1.977,1.586c-1.456,0-2.365-0.65-2.704-1.846L702.507,16.998z
		 M693.979,24.85l8.684-17.706h-2.99l-2.964,6.422c-0.338,0.754-0.676,1.482-0.857,2.184c-0.104-0.754-0.286-1.56-0.572-2.366
		l-2.21-6.24h-3.042l4.42,10.998l-3.302,6.708H693.979z M676.871,19.182h2.756v-5.486c0-1.508,0.053-2.548,0.546-3.276
		c0.572-0.858,1.612-1.352,2.912-1.352c2.288,0,2.626,1.248,2.626,3.926v6.188h2.782v-7.306c0-1.456,0-2.548-0.598-3.458
		c-0.702-1.118-1.977-1.69-3.771-1.69c-2.105,0-3.536,0.702-4.653,2.392V-0.5h-2.601V19.182z M666.549,8.366V3.191h0.78
		c2.809,0,4.187,0.468,4.187,2.704c0,2.158-1.404,2.47-4.187,2.47H666.549z M666.367,10.835h1.742c1.897,0,3.406-0.052,4.654-0.936
		c1.144-0.832,1.872-2.392,1.872-4.186c0-1.794-0.729-3.328-1.872-4.16c-1.248-0.91-2.757-0.962-4.654-0.962h-4.576v18.59h2.834
		V10.835z"/>
	<path clip-path="url(#SVGID_2_)" fill="#006227" d="M498.827,13.565v-0.52c0-4.004-2.288-6.318-6.162-6.318
		c-3.744,0-6.318,2.73-6.318,6.474c0,3.926,2.47,6.474,6.318,6.474c2.704,0,4.68-1.17,6.031-3.588l-2.313-1.3
		c-0.884,1.664-2.002,2.366-3.771,2.366c-2.002,0-3.275-1.326-3.405-3.588H498.827z M495.967,11.72h-6.578
		c0.442-1.794,1.534-2.652,3.328-2.652C494.614,9.067,495.759,9.978,495.967,11.72 M474.881,7.144h-2.756v5.954
		c0,4.524,1.638,6.578,5.85,6.578c4.134,0,5.798-2.08,5.798-6.578V7.144h-2.756v6.786c0,2.262-0.832,3.276-3.068,3.276
		c-2.235,0-3.067-1.014-3.067-3.276V7.144z M465.988,13.124c0,2.548-1.456,4.108-3.354,4.108c-2.08,0-3.302-1.43-3.302-4.004
		c0-2.548,1.273-4.056,3.354-4.056C464.74,9.172,465.988,10.602,465.988,13.124 M468.667,18.428V7.144h-2.756V9.12
		c-0.65-1.534-2.08-2.392-4.057-2.392c-3.172,0-5.408,2.548-5.408,6.422c0,4.108,2.133,6.526,5.486,6.526
		c1.69,0,2.99-0.676,3.979-2.054l-0.026,1.586c-0.026,2.262-0.806,3.38-3.328,3.38c-1.612,0-2.496-0.572-2.574-1.586h-2.964
		c0.026,2.262,2.08,3.848,5.486,3.848C467.159,24.85,468.667,22.926,468.667,18.428 M450.545,1.944c0,0.936,0.779,1.742,1.742,1.742
		c0.962,0,1.716-0.754,1.716-1.742c0-0.988-0.754-1.716-1.716-1.716C451.324,0.228,450.545,1.008,450.545,1.944 M450.909,19.182
		h2.756V7.144h-2.756V19.182z M443.811,19.182h2.756v-9.62h2.106V7.144h-2.106v-4.55h-2.756v4.55h-2.105v2.418h2.105V19.182z
		 M439.626,19.182V7.144h-2.756V9.12c-0.65-1.534-2.08-2.392-4.057-2.392c-3.172,0-5.408,2.548-5.408,6.422
		c0,4.108,2.133,6.526,5.486,6.526c1.69,0,2.99-0.676,3.979-2.054v1.56H439.626z M436.947,13.124c0,2.548-1.456,4.108-3.354,4.108
		c-2.08,0-3.302-1.43-3.302-4.004c0-2.548,1.273-4.056,3.354-4.056C435.699,9.172,436.947,10.602,436.947,13.124 M415.134,19.182
		h3.016v-8.736h7.358V7.793h-7.358V3.166h7.358V0.592h-10.374V19.182z"/>
	<path clip-path="url(#SVGID_2_)" fill="#006227" d="M164.146,19.182h2.756v-5.486c0-1.508,0.052-2.548,0.546-3.276
		c0.572-0.858,1.612-1.352,2.912-1.352c2.288,0,2.626,1.248,2.626,3.926v6.188h2.782v-7.306c0-1.456,0-2.548-0.598-3.458
		c-0.702-1.118-1.976-1.69-3.77-1.69c-2.106,0-3.536,0.702-4.654,2.392V7.144h-2.6V19.182z M157.361,1.943
		c0,0.936,0.78,1.742,1.742,1.742s1.716-0.754,1.716-1.742c0-0.988-0.754-1.716-1.716-1.716S157.361,1.008,157.361,1.943
		 M157.726,19.182h2.756V7.144h-2.756V19.182z M154.06,19.182V7.144h-2.756V9.12c-0.65-1.534-2.08-2.392-4.056-2.392
		c-3.172,0-5.408,2.548-5.408,6.422c0,4.108,2.132,6.526,5.486,6.526c1.69,0,2.99-0.676,3.978-2.054v1.56H154.06z M151.381,13.124
		c0,2.548-1.456,4.108-3.354,4.108c-2.08,0-3.302-1.43-3.302-4.004c0-2.548,1.274-4.056,3.354-4.056
		C150.133,9.172,151.381,10.602,151.381,13.124 M132.401,8.366V3.191h0.78c2.808,0,4.186,0.468,4.186,2.704
		c0,2.158-1.404,2.47-4.186,2.47H132.401z M132.219,10.835h1.742c1.898,0,3.406-0.052,4.654-0.936
		c1.144-0.832,1.872-2.392,1.872-4.186c0-1.794-0.728-3.328-1.872-4.16c-1.248-0.91-2.756-0.962-4.654-0.962h-4.576v18.59h2.834
		V10.835z"/>
	<path clip-path="url(#SVGID_2_)" fill="#FFFFFF" d="M819.668,141.676c-1.809,0-2.387-1.617-2.387-4.696
		c0-3.08,0.578-4.698,2.387-4.698c1.81,0,2.387,1.618,2.387,4.698C822.055,140.098,821.438,141.676,819.668,141.676
		 M826.752,136.979c0-4.582-2.733-7.585-7.084-7.585c-4.35,0-7.084,3.003-7.084,7.585c0,4.581,2.734,7.584,7.084,7.584
		C824.019,144.563,826.752,141.561,826.752,136.979 M838.803,155.036c-1.81,0-2.387-1.655-2.387-4.736
		c0-3.079,0.577-4.697,2.387-4.697s2.388,1.618,2.388,4.697C841.19,153.419,840.574,155.036,838.803,155.036 M845.848,150.3
		c0-4.581-2.694-7.584-7.045-7.584s-7.084,3.003-7.084,7.584c0,4.582,2.733,7.624,7.084,7.624S845.848,154.882,845.848,150.3
		 M819.052,157.924h3.428l16.632-28.529h-3.542L819.052,157.924z M794.902,135.291c-3.993,0-6.534-2.481-6.534-6.594
		c0-4.114,2.541-6.655,6.534-6.655c3.992,0,6.533,2.541,6.533,6.655C801.436,132.81,798.895,135.291,794.902,135.291
		 M795.446,142.188l-10.104,15.004h12.039l5.99-9.135c4.719-7.14,7.744-12.766,7.744-18.937c0-9.256-6.05-15.67-16.396-15.67
		c-10.285,0-16.516,6.534-16.516,15.791c0,8.107,5.626,13.612,12.705,13.612C792.421,142.853,793.934,142.611,795.446,142.188
		 M762.111,152.352c0,3.328,2.601,5.99,5.929,5.99c3.327,0,5.989-2.603,5.989-5.99c0-3.327-2.662-5.988-5.989-5.988
		C764.652,146.363,762.111,149.085,762.111,152.352 M756.787,157.191v-9.195h-13.25l7.805-8.591
		c3.751-4.175,5.868-7.683,5.868-12.221c0-7.926-5.868-13.734-15.911-13.734c-9.801,0-16.033,5.99-16.033,15.791v0.303h10.406
		v-0.545c0-4.477,2.118-6.897,5.748-6.897c3.146,0,5.203,2.117,5.203,5.143c0,1.996-1.15,4.235-3.449,6.957l-19.42,22.99H756.787z
		 M707.903,138.981h-10.588l7.926-12.101c0.665-1.028,1.814-2.722,2.964-5.384c-0.302,1.694-0.302,3.328-0.302,4.901V138.981z
		 M707.903,157.191h9.86v-9.68h4.78v-8.53h-4.78v-24.806h-13.431l-16.093,24.806v8.53h19.663V157.191z"/>
	<path clip-path="url(#SVGID_2_)" fill="#FFFFFF" d="M515.668,141.676c-1.81,0-2.387-1.617-2.387-4.696
		c0-3.08,0.577-4.698,2.387-4.698s2.387,1.618,2.387,4.698C518.055,140.098,517.438,141.676,515.668,141.676 M522.752,136.979
		c0-4.582-2.733-7.585-7.084-7.585s-7.084,3.003-7.084,7.585c0,4.581,2.733,7.584,7.084,7.584S522.752,141.561,522.752,136.979
		 M534.803,155.036c-1.81,0-2.387-1.655-2.387-4.736c0-3.079,0.577-4.697,2.387-4.697s2.387,1.618,2.387,4.697
		C537.189,153.419,536.574,155.036,534.803,155.036 M541.848,150.3c0-4.581-2.694-7.584-7.045-7.584s-7.084,3.003-7.084,7.584
		c0,4.582,2.733,7.624,7.084,7.624S541.848,154.882,541.848,150.3 M515.052,157.924h3.427l16.633-28.529h-3.542L515.052,157.924z
		 M505.845,157.191v-9.195h-13.249l7.804-8.591c3.752-4.175,5.869-7.683,5.869-12.221c0-7.926-5.869-13.734-15.912-13.734
		c-9.801,0-16.031,5.99-16.031,15.791v0.303h10.405v-0.545c0-4.477,2.117-6.897,5.747-6.897c3.146,0,5.203,2.117,5.203,5.143
		c0,1.996-1.148,4.235-3.448,6.957l-19.421,22.99H505.845z M458.111,152.352c0,3.328,2.601,5.99,5.929,5.99
		c3.327,0,5.989-2.603,5.989-5.99c0-3.327-2.662-5.988-5.989-5.988C460.651,146.363,458.111,149.085,458.111,152.352
		 M450.911,114.357h-23.534l-3.57,22.748l1.452,0.847c2.239-2.359,5.022-3.509,8.47-3.509c5.203,0,8.712,3.327,8.712,7.804
		c0,4.658-3.085,7.503-8.591,7.503c-4.113,0-7.925-1.997-9.981-5.144l-0.908-0.182l-0.786,10.467
		c3.206,2.117,7.925,3.449,13.31,3.449c11.192,0,17.727-6.111,17.727-15.549c0-9.014-5.444-14.642-14.217-14.642
		c-1.694,0-3.449,0.242-5.324,0.605l0.847-5.566h16.396V114.357z M414.914,114.357h-23.535l-3.569,22.748l1.452,0.847
		c2.238-2.359,5.021-3.509,8.47-3.509c5.203,0,8.713,3.327,8.713,7.804c0,4.658-3.087,7.503-8.592,7.503
		c-4.113,0-7.926-1.997-9.982-5.144l-0.907-0.182l-0.787,10.467c3.207,2.117,7.926,3.449,13.311,3.449
		c11.192,0,17.727-6.111,17.727-15.549c0-9.014-5.445-14.642-14.218-14.642c-1.694,0-3.448,0.242-5.324,0.605l0.847-5.566h16.396
		V114.357z"/>
	<path clip-path="url(#SVGID_2_)" fill="#FFFFFF" d="M211.063,141.676c-1.81,0-2.388-1.617-2.388-4.696
		c0-3.08,0.578-4.698,2.388-4.698s2.387,1.618,2.387,4.698C213.45,140.098,212.834,141.676,211.063,141.676 M218.147,136.979
		c0-4.582-2.733-7.585-7.084-7.585s-7.085,3.003-7.085,7.585c0,4.581,2.734,7.584,7.085,7.584S218.147,141.561,218.147,136.979
		 M230.198,155.036c-1.811,0-2.388-1.655-2.388-4.736c0-3.079,0.577-4.697,2.388-4.697c1.809,0,2.387,1.618,2.387,4.697
		C232.585,153.419,231.969,155.036,230.198,155.036 M237.243,150.3c0-4.581-2.695-7.584-7.045-7.584
		c-4.352,0-7.084,3.003-7.084,7.584c0,4.582,2.732,7.624,7.084,7.624C234.548,157.924,237.243,154.882,237.243,150.3
		 M210.447,157.924h3.427l16.632-28.529h-3.542L210.447,157.924z M172.805,157.191h12.221l18.815-40.777v-2.057h-33.033v9.68h18.271
		L172.805,157.191z M153.506,152.352c0,3.328,2.601,5.99,5.929,5.99c3.327,0,5.989-2.603,5.989-5.99
		c0-3.327-2.662-5.988-5.989-5.988C156.047,146.363,153.506,149.085,153.506,152.352 M133.238,135.291
		c-3.993,0-6.534-2.481-6.534-6.594c0-4.114,2.541-6.655,6.534-6.655c3.993,0,6.534,2.541,6.534,6.655
		C139.772,132.81,137.231,135.291,133.238,135.291 M133.783,142.188l-10.103,15.004h12.039l5.989-9.135
		c4.719-7.14,7.744-12.766,7.744-18.937c0-9.256-6.05-15.67-16.395-15.67c-10.285,0-16.517,6.534-16.517,15.791
		c0,8.107,5.627,13.612,12.705,13.612C130.758,142.853,132.27,142.611,133.783,142.188 M99.298,138.981H88.71l7.926-12.101
		c0.665-1.028,1.815-2.722,2.964-5.384c-0.302,1.694-0.302,3.328-0.302,4.901V138.981z M99.298,157.191h9.861v-9.68h4.78v-8.53
		h-4.78v-24.806H95.728l-16.093,24.806v8.53h19.663V157.191z"/>
	<path clip-path="url(#SVGID_2_)" fill="#808285" d="M858.294,289.262h0.772v-6.603h-1.687l-0.448,0.688h1.362V289.262z
		 M850.755,294.591h1.327v-11.328h-2.896l-0.768,1.185h2.336V294.591z M841.763,294.896c2.399,0,3.952-2.128,3.952-5.937
		c0-3.808-1.536-5.92-3.984-5.92c-2.384,0-3.952,2.144-3.952,5.92S839.347,294.896,841.763,294.896 M841.746,293.775
		c-1.584,0-2.56-1.729-2.56-4.832c0-3.088,0.976-4.8,2.56-4.8c1.664,0,2.561,1.647,2.561,4.832
		C844.307,292.144,843.41,293.775,841.746,293.775 M832.402,294.896c2.4,0,3.952-2.128,3.952-5.937c0-3.808-1.536-5.92-3.984-5.92
		c-2.384,0-3.951,2.144-3.951,5.92S829.986,294.896,832.402,294.896 M832.387,293.775c-1.584,0-2.561-1.729-2.561-4.832
		c0-3.088,0.977-4.8,2.561-4.8c1.664,0,2.56,1.647,2.56,4.832C834.946,292.144,834.051,293.775,832.387,293.775 M824.45,293.823
		c0,0.512,0.4,0.912,0.929,0.912c0.527,0,0.943-0.4,0.943-0.912s-0.416-0.928-0.943-0.928
		C824.866,292.896,824.45,293.312,824.45,293.823 M818.402,294.896c2.4,0,3.952-2.128,3.952-5.937c0-3.808-1.536-5.92-3.984-5.92
		c-2.384,0-3.951,2.144-3.951,5.92S815.986,294.896,818.402,294.896 M818.387,293.775c-1.584,0-2.561-1.729-2.561-4.832
		c0-3.088,0.977-4.8,2.561-4.8c1.664,0,2.56,1.647,2.56,4.832C820.946,292.144,820.051,293.775,818.387,293.775 M811.683,286.639
		v-0.991l-9.2,3.775v0.8l9.2,3.776v-1.008l-7.809-3.168L811.683,286.639z M793.778,291.039c0-1.696,0.928-2.672,2.4-2.672
		c1.424,0,2.319,1.023,2.319,2.815c0,1.585-0.88,2.513-2.304,2.513C794.755,293.695,793.778,292.655,793.778,291.039
		 M792.595,298.079h1.216v-4.784c0.544,1.057,1.424,1.601,2.608,1.601c2,0,3.376-1.44,3.376-3.856c0-2.352-1.376-3.856-3.425-3.856
		c-1.104,0-2.048,0.561-2.607,1.601v-1.344h-1.168V298.079z M783.011,296.863l0.896,0.352l1.92-4.144l-1.328-0.464L783.011,296.863z
		 M775.011,291.039c0-1.52,1.151-2.704,2.592-2.704c1.424,0,2.576,1.185,2.576,2.704c0,1.521-1.152,2.704-2.576,2.704
		S775.011,292.56,775.011,291.039 M773.715,291.039c0,1.04,0.384,1.968,1.136,2.72c0.736,0.736,1.696,1.137,2.752,1.137
		c1.04,0,2-0.416,2.752-1.152c0.736-0.72,1.136-1.664,1.136-2.704s-0.399-2-1.136-2.72c-0.752-0.736-1.696-1.137-2.752-1.137
		s-2.016,0.385-2.752,1.12C774.099,289.039,773.715,289.999,773.715,291.039 M766.388,291.055c0-1.615,0.992-2.655,2.432-2.655
		c1.424,0,2.304,0.912,2.304,2.496c0,1.792-0.913,2.815-2.336,2.815C767.314,293.711,766.388,292.751,766.388,291.055
		 M765.22,282.479v12.111h1.168v-1.296c0.56,1.024,1.504,1.601,2.607,1.601c2.049,0,3.425-1.521,3.425-3.856
		c0-2.4-1.376-3.856-3.376-3.856c-1.185,0-2.064,0.545-2.609,1.601v-6.304H765.22z M762.147,290.207h-4.352
		c0.128-1.216,1.008-1.968,2.176-1.968C761.268,288.239,762.067,288.943,762.147,290.207 M763.46,291.199v-0.24
		c0-2.368-1.345-3.792-3.44-3.792c-2.08,0-3.568,1.568-3.568,3.824c0,2.336,1.473,3.904,3.648,3.904
		c1.472,0,2.592-0.656,3.312-1.952l-0.928-0.624c-0.592,1.04-1.36,1.552-2.32,1.552c-1.376,0-2.367-1.008-2.367-2.56v-0.112H763.46z
		 M755.46,292.896c-0.753,0.544-1.44,0.815-2.209,0.815c-1.487,0-2.56-1.151-2.56-2.592c0-1.696,1.088-2.752,2.656-2.752
		c0.704,0,1.376,0.224,1.983,0.624v-1.312c-0.655-0.319-1.424-0.496-2.224-0.496c-2.144,0-3.728,1.568-3.728,3.904
		c0,2.256,1.455,3.809,3.68,3.809c0.928,0,1.744-0.192,2.4-0.576V292.896z M746.42,291.087c0,1.648-0.896,2.592-2.337,2.592
		c-1.52,0-2.384-0.976-2.384-2.703c0-1.633,0.864-2.576,2.336-2.576C745.411,288.399,746.42,289.423,746.42,291.087
		 M747.604,287.439h-1.216v1.344c-0.544-1.056-1.424-1.601-2.624-1.601c-2,0-3.36,1.456-3.36,3.856c0,2.336,1.376,3.856,3.424,3.856
		c1.104,0,2.017-0.561,2.593-1.601v1.296h1.184V287.439z M737.22,294.591h1.216v-12.111h-1.216V294.591z M729.268,291.039
		c0-1.696,0.928-2.672,2.399-2.672c1.425,0,2.32,1.023,2.32,2.815c0,1.585-0.88,2.513-2.304,2.513
		C730.243,293.695,729.268,292.655,729.268,291.039 M728.083,298.079h1.217v-4.784c0.544,1.057,1.424,1.601,2.607,1.601
		c2,0,3.376-1.44,3.376-3.856c0-2.352-1.376-3.856-3.424-3.856c-1.104,0-2.048,0.561-2.608,1.601v-1.344h-1.168V298.079z
		 M721.893,291.936c0-1.889-0.88-2.96-2.336-2.96s-2.353,1.071-2.353,2.96c0,1.888,0.896,2.96,2.353,2.96
		S721.893,293.823,721.893,291.936 M719.557,294.095c-0.752,0-1.2-0.752-1.2-2.159c0-1.408,0.448-2.16,1.2-2.16
		c0.784,0,1.2,0.72,1.2,2.16C720.757,293.343,720.309,294.095,719.557,294.095 M713.236,288.159c-0.752,0-1.2-0.752-1.2-2.16
		s0.448-2.176,1.2-2.176c0.784,0,1.2,0.736,1.2,2.176C714.437,287.407,713.988,288.159,713.236,288.159 M715.589,285.999
		c0-1.888-0.896-2.96-2.353-2.96s-2.352,1.072-2.352,2.96s0.896,2.944,2.352,2.944S715.589,287.887,715.589,285.999
		 M712.564,294.896h0.976l6.561-11.856h-0.96L712.564,294.896z M703.412,291.263c0-1.504,0.929-2.544,2.288-2.544
		c1.521,0,2.433,0.977,2.433,2.528c0,1.521-0.944,2.512-2.353,2.512C704.341,293.759,703.412,292.815,703.412,291.263
		 M704.324,288.127l3.696-4.8l-1.184-0.624l-2.608,3.68c-1.264,1.792-2.224,3.12-2.224,4.769c0,2.239,1.407,3.744,3.504,3.744
		c2.496,0,4.031-1.488,4.031-3.776c0-2.096-1.407-3.536-3.455-3.536C705.444,287.583,704.885,287.759,704.324,288.127
		 M697.86,293.823c0,0.512,0.4,0.912,0.928,0.912c0.528,0,0.944-0.4,0.944-0.912s-0.416-0.928-0.944-0.928
		C698.276,292.896,697.86,293.312,697.86,293.823 M692.788,294.591h1.345v-2.464h1.344v-1.104h-1.344v-7.984h-0.576l-6.128,9.088
		h5.359V294.591z M692.788,291.023h-3.344l3.344-5.024V291.023z M685.509,293.295h-4.336l1.792-1.936
		c1.84-2,2.896-3.504,2.896-5.152c0-1.968-1.312-3.168-3.552-3.168c-2.256,0-3.584,1.264-3.584,3.424
		c0,0.097,0.016,0.208,0.016,0.305h1.28v-0.129c0-1.52,0.8-2.352,2.24-2.352c1.376,0,2.256,0.848,2.256,2
		c0,1.488-1.424,3.008-3.488,5.44l-2.416,2.863h6.896V293.295z M667.141,293.391c0.56,1.009,1.488,1.505,2.815,1.505
		c1.584,0,2.608-0.944,2.608-2.272c0-1.168-0.688-1.68-2.08-2.128c-1.184-0.384-1.84-0.48-1.84-1.232
		c0-0.624,0.496-1.071,1.216-1.071c0.752,0,1.344,0.368,1.632,1.023l0.992-0.607c-0.384-0.912-1.312-1.425-2.544-1.425
		c-1.52,0-2.528,0.912-2.528,2.16c0,1.408,1.057,1.712,2.816,2.32c0.752,0.256,1.12,0.544,1.12,1.088
		c0,0.624-0.528,1.072-1.344,1.072c-0.816,0-1.425-0.368-1.824-1.136L667.141,293.391z M663.141,295.039l3.52-7.6h-1.376
		l-2.16,4.991l-2.144-4.991h-1.376L663.141,295.039z"/>
	<path clip-path="url(#SVGID_2_)" fill="#808285" d="M554.294,289.262h0.772v-6.603h-1.687l-0.448,0.688h1.362V289.262z
		 M546.755,294.591h1.327v-11.328h-2.896l-0.768,1.185h2.336V294.591z M537.763,294.896c2.399,0,3.952-2.128,3.952-5.937
		c0-3.808-1.536-5.92-3.984-5.92c-2.384,0-3.952,2.144-3.952,5.92S535.347,294.896,537.763,294.896 M537.746,293.775
		c-1.584,0-2.56-1.729-2.56-4.832c0-3.088,0.976-4.8,2.56-4.8c1.664,0,2.561,1.647,2.561,4.832
		C540.307,292.144,539.41,293.775,537.746,293.775 M528.402,294.896c2.4,0,3.952-2.128,3.952-5.937c0-3.808-1.536-5.92-3.984-5.92
		c-2.384,0-3.951,2.144-3.951,5.92S525.986,294.896,528.402,294.896 M528.387,293.775c-1.584,0-2.561-1.729-2.561-4.832
		c0-3.088,0.977-4.8,2.561-4.8c1.664,0,2.56,1.647,2.56,4.832C530.946,292.144,530.051,293.775,528.387,293.775 M520.45,293.823
		c0,0.512,0.4,0.912,0.929,0.912c0.527,0,0.943-0.4,0.943-0.912s-0.416-0.928-0.943-0.928
		C520.866,292.896,520.45,293.312,520.45,293.823 M514.402,294.896c2.4,0,3.952-2.128,3.952-5.937c0-3.808-1.536-5.92-3.984-5.92
		c-2.384,0-3.951,2.144-3.951,5.92S511.986,294.896,514.402,294.896 M514.387,293.775c-1.584,0-2.561-1.729-2.561-4.832
		c0-3.088,0.977-4.8,2.561-4.8c1.664,0,2.56,1.647,2.56,4.832C516.946,292.144,516.051,293.775,514.387,293.775 M507.683,286.639
		v-0.991l-9.2,3.775v0.8l9.2,3.776v-1.008l-7.809-3.168L507.683,286.639z M489.778,291.039c0-1.696,0.928-2.672,2.4-2.672
		c1.424,0,2.319,1.023,2.319,2.815c0,1.585-0.88,2.513-2.304,2.513C490.755,293.695,489.778,292.655,489.778,291.039
		 M488.595,298.079h1.216v-4.784c0.544,1.057,1.424,1.601,2.608,1.601c2,0,3.376-1.44,3.376-3.856c0-2.352-1.376-3.856-3.425-3.856
		c-1.104,0-2.048,0.561-2.607,1.601v-1.344h-1.168V298.079z M479.011,296.863l0.896,0.352l1.92-4.144l-1.328-0.464L479.011,296.863z
		 M471.011,291.039c0-1.52,1.151-2.704,2.592-2.704c1.424,0,2.576,1.185,2.576,2.704c0,1.521-1.152,2.704-2.576,2.704
		S471.011,292.56,471.011,291.039 M469.715,291.039c0,1.04,0.384,1.968,1.136,2.72c0.736,0.736,1.696,1.137,2.752,1.137
		c1.04,0,2-0.416,2.752-1.152c0.736-0.72,1.136-1.664,1.136-2.704s-0.399-2-1.136-2.72c-0.752-0.736-1.696-1.137-2.752-1.137
		s-2.016,0.385-2.752,1.12C470.099,289.039,469.715,289.999,469.715,291.039 M462.388,291.055c0-1.615,0.992-2.655,2.432-2.655
		c1.424,0,2.304,0.912,2.304,2.496c0,1.792-0.911,2.815-2.336,2.815C463.315,293.711,462.388,292.751,462.388,291.055
		 M461.22,282.479v12.111h1.168v-1.296c0.56,1.024,1.504,1.601,2.607,1.601c2.049,0,3.425-1.521,3.425-3.856
		c0-2.4-1.376-3.856-3.376-3.856c-1.185,0-2.064,0.545-2.608,1.601v-6.304H461.22z M458.147,290.207h-4.352
		c0.128-1.216,1.008-1.968,2.176-1.968C457.268,288.239,458.067,288.943,458.147,290.207 M459.46,291.199v-0.24
		c0-2.368-1.345-3.792-3.44-3.792c-2.08,0-3.568,1.568-3.568,3.824c0,2.336,1.473,3.904,3.648,3.904
		c1.472,0,2.592-0.656,3.312-1.952l-0.928-0.624c-0.592,1.04-1.36,1.552-2.32,1.552c-1.376,0-2.367-1.008-2.367-2.56v-0.112H459.46z
		 M451.46,292.896c-0.753,0.544-1.44,0.815-2.208,0.815c-1.488,0-2.561-1.151-2.561-2.592c0-1.696,1.088-2.752,2.656-2.752
		c0.704,0,1.376,0.224,1.983,0.624v-1.312c-0.655-0.319-1.424-0.496-2.224-0.496c-2.144,0-3.728,1.568-3.728,3.904
		c0,2.256,1.456,3.809,3.68,3.809c0.928,0,1.744-0.192,2.4-0.576V292.896z M442.42,291.087c0,1.648-0.896,2.592-2.337,2.592
		c-1.52,0-2.384-0.976-2.384-2.703c0-1.633,0.864-2.576,2.336-2.576C441.411,288.399,442.42,289.423,442.42,291.087
		 M443.604,287.439h-1.216v1.344c-0.544-1.056-1.424-1.601-2.624-1.601c-2,0-3.36,1.456-3.36,3.856c0,2.336,1.376,3.856,3.424,3.856
		c1.104,0,2.017-0.561,2.593-1.601v1.296h1.184V287.439z M433.22,294.591h1.216v-12.111h-1.216V294.591z M425.268,291.039
		c0-1.696,0.928-2.672,2.399-2.672c1.425,0,2.32,1.023,2.32,2.815c0,1.585-0.88,2.513-2.304,2.513
		C426.243,293.695,425.268,292.655,425.268,291.039 M424.083,298.079h1.217v-4.784c0.544,1.057,1.424,1.601,2.607,1.601
		c2,0,3.376-1.44,3.376-3.856c0-2.352-1.376-3.856-3.424-3.856c-1.104,0-2.048,0.561-2.607,1.601v-1.344h-1.169V298.079z
		 M417.893,291.936c0-1.889-0.88-2.96-2.336-2.96s-2.353,1.071-2.353,2.96c0,1.888,0.896,2.96,2.353,2.96
		S417.893,293.823,417.893,291.936 M415.557,294.095c-0.752,0-1.2-0.752-1.2-2.159c0-1.408,0.448-2.16,1.2-2.16
		c0.784,0,1.2,0.72,1.2,2.16C416.757,293.343,416.309,294.095,415.557,294.095 M409.236,288.159c-0.752,0-1.2-0.752-1.2-2.16
		s0.448-2.176,1.2-2.176c0.784,0,1.2,0.736,1.2,2.176C410.437,287.407,409.988,288.159,409.236,288.159 M411.589,285.999
		c0-1.888-0.896-2.96-2.353-2.96s-2.352,1.072-2.352,2.96s0.896,2.944,2.352,2.944S411.589,287.887,411.589,285.999
		 M408.564,294.896h0.976l6.561-11.856h-0.96L408.564,294.896z M398.885,294.447l1.12,0.576l5.712-11.761h-7.248v1.185h5.296
		L398.885,294.447z M393.86,293.823c0,0.512,0.4,0.912,0.928,0.912c0.528,0,0.944-0.4,0.944-0.912s-0.416-0.928-0.944-0.928
		C394.276,292.896,393.86,293.312,393.86,293.823 M387.812,294.896c2.4,0,3.952-2.128,3.952-5.937c0-3.808-1.536-5.92-3.984-5.92
		c-2.384,0-3.952,2.144-3.952,5.92S385.396,294.896,387.812,294.896 M387.797,293.775c-1.584,0-2.561-1.729-2.561-4.832
		c0-3.088,0.977-4.8,2.561-4.8c1.664,0,2.56,1.647,2.56,4.832C390.356,292.144,389.461,293.775,387.797,293.775 M379.429,294.591
		h1.344v-2.464h1.344v-1.104h-1.344v-7.984h-0.576l-6.128,9.088h5.36V294.591z M379.429,291.023h-3.344l3.344-5.024V291.023z
		 M363.141,293.391c0.56,1.009,1.488,1.505,2.815,1.505c1.584,0,2.608-0.944,2.608-2.272c0-1.168-0.688-1.68-2.08-2.128
		c-1.184-0.384-1.84-0.48-1.84-1.232c0-0.624,0.496-1.071,1.216-1.071c0.752,0,1.344,0.368,1.632,1.023l0.992-0.607
		c-0.384-0.912-1.312-1.425-2.544-1.425c-1.52,0-2.528,0.912-2.528,2.16c0,1.408,1.057,1.712,2.816,2.32
		c0.752,0.256,1.12,0.544,1.12,1.088c0,0.624-0.528,1.072-1.344,1.072c-0.816,0-1.425-0.368-1.824-1.136L363.141,293.391z
		 M359.141,295.039l3.52-7.6h-1.376l-2.16,4.991l-2.144-4.991h-1.376L359.141,295.039z"/>
	<path clip-path="url(#SVGID_2_)" fill="#808285" d="M250.294,289.262h0.772v-6.603h-1.687l-0.448,0.688h1.362V289.262z
		 M242.755,294.591h1.327v-11.328h-2.896l-0.768,1.185h2.336V294.591z M233.763,294.896c2.399,0,3.952-2.128,3.952-5.937
		c0-3.808-1.536-5.92-3.984-5.92c-2.384,0-3.952,2.144-3.952,5.92S231.347,294.896,233.763,294.896 M233.746,293.775
		c-1.584,0-2.56-1.729-2.56-4.832c0-3.088,0.976-4.8,2.56-4.8c1.664,0,2.561,1.647,2.561,4.832
		C236.307,292.144,235.41,293.775,233.746,293.775 M224.402,294.896c2.4,0,3.952-2.128,3.952-5.937c0-3.808-1.536-5.92-3.984-5.92
		c-2.384,0-3.951,2.144-3.951,5.92S221.986,294.896,224.402,294.896 M224.387,293.775c-1.584,0-2.561-1.729-2.561-4.832
		c0-3.088,0.977-4.8,2.561-4.8c1.664,0,2.56,1.647,2.56,4.832C226.946,292.144,226.051,293.775,224.387,293.775 M216.45,293.823
		c0,0.512,0.4,0.912,0.929,0.912c0.527,0,0.943-0.4,0.943-0.912s-0.416-0.928-0.943-0.928
		C216.866,292.896,216.45,293.312,216.45,293.823 M210.402,294.896c2.4,0,3.952-2.128,3.952-5.937c0-3.808-1.536-5.92-3.984-5.92
		c-2.384,0-3.951,2.144-3.951,5.92S207.986,294.896,210.402,294.896 M210.387,293.775c-1.584,0-2.561-1.729-2.561-4.832
		c0-3.088,0.977-4.8,2.561-4.8c1.664,0,2.56,1.647,2.56,4.832C212.946,292.144,212.051,293.775,210.387,293.775 M203.683,286.639
		v-0.991l-9.2,3.775v0.8l9.2,3.776v-1.008l-7.809-3.168L203.683,286.639z M185.778,291.039c0-1.696,0.928-2.672,2.4-2.672
		c1.424,0,2.319,1.023,2.319,2.815c0,1.585-0.88,2.513-2.304,2.513C186.755,293.695,185.778,292.655,185.778,291.039
		 M184.595,298.079h1.216v-4.784c0.544,1.057,1.424,1.601,2.608,1.601c2,0,3.376-1.44,3.376-3.856c0-2.352-1.376-3.856-3.425-3.856
		c-1.104,0-2.048,0.561-2.607,1.601v-1.344h-1.168V298.079z M175.01,296.863l0.896,0.352l1.92-4.144l-1.328-0.464L175.01,296.863z
		 M167.01,291.039c0-1.52,1.152-2.704,2.592-2.704c1.424,0,2.576,1.185,2.576,2.704c0,1.521-1.152,2.704-2.576,2.704
		S167.01,292.56,167.01,291.039 M165.714,291.039c0,1.04,0.384,1.968,1.136,2.72c0.736,0.736,1.696,1.137,2.752,1.137
		c1.04,0,2-0.416,2.752-1.152c0.736-0.72,1.136-1.664,1.136-2.704s-0.4-2-1.136-2.72c-0.752-0.736-1.696-1.137-2.752-1.137
		s-2.016,0.385-2.752,1.12C166.099,289.039,165.714,289.999,165.714,291.039 M158.388,291.055c0-1.615,0.992-2.655,2.432-2.655
		c1.424,0,2.304,0.912,2.304,2.496c0,1.792-0.912,2.815-2.336,2.815C159.315,293.711,158.388,292.751,158.388,291.055
		 M157.22,282.479v12.111h1.168v-1.296c0.56,1.024,1.504,1.601,2.608,1.601c2.048,0,3.424-1.521,3.424-3.856
		c0-2.4-1.376-3.856-3.376-3.856c-1.184,0-2.064,0.545-2.608,1.601v-6.304H157.22z M154.147,290.207h-4.352
		c0.128-1.216,1.008-1.968,2.176-1.968C153.268,288.239,154.067,288.943,154.147,290.207 M155.459,291.199v-0.24
		c0-2.368-1.344-3.792-3.44-3.792c-2.08,0-3.568,1.568-3.568,3.824c0,2.336,1.472,3.904,3.648,3.904
		c1.472,0,2.592-0.656,3.312-1.952l-0.928-0.624c-0.592,1.04-1.36,1.552-2.32,1.552c-1.376,0-2.368-1.008-2.368-2.56v-0.112H155.459
		z M147.459,292.896c-0.752,0.544-1.44,0.815-2.208,0.815c-1.488,0-2.56-1.151-2.56-2.592c0-1.696,1.088-2.752,2.656-2.752
		c0.704,0,1.376,0.224,1.984,0.624v-1.312c-0.656-0.319-1.424-0.496-2.224-0.496c-2.144,0-3.728,1.568-3.728,3.904
		c0,2.256,1.456,3.809,3.68,3.809c0.928,0,1.744-0.192,2.4-0.576V292.896z M138.419,291.087c0,1.648-0.896,2.592-2.336,2.592
		c-1.52,0-2.384-0.976-2.384-2.703c0-1.633,0.864-2.576,2.336-2.576C137.412,288.399,138.419,289.423,138.419,291.087
		 M139.604,287.439h-1.216v1.344c-0.544-1.056-1.424-1.601-2.624-1.601c-2,0-3.36,1.456-3.36,3.856c0,2.336,1.376,3.856,3.424,3.856
		c1.104,0,2.016-0.561,2.592-1.601v1.296h1.184V287.439z M129.22,294.591h1.216v-12.111h-1.216V294.591z M121.268,291.039
		c0-1.696,0.928-2.672,2.4-2.672c1.424,0,2.32,1.023,2.32,2.815c0,1.585-0.88,2.513-2.304,2.513
		C122.244,293.695,121.268,292.655,121.268,291.039 M120.083,298.079h1.216v-4.784c0.544,1.057,1.424,1.601,2.608,1.601
		c2,0,3.376-1.44,3.376-3.856c0-2.352-1.376-3.856-3.424-3.856c-1.104,0-2.048,0.561-2.608,1.601v-1.344h-1.168V298.079z
		 M113.893,291.936c0-1.889-0.88-2.96-2.336-2.96s-2.352,1.071-2.352,2.96c0,1.888,0.896,2.96,2.352,2.96
		S113.893,293.823,113.893,291.936 M111.557,294.095c-0.752,0-1.2-0.752-1.2-2.159c0-1.408,0.448-2.16,1.2-2.16
		c0.784,0,1.2,0.72,1.2,2.16C112.756,293.343,112.309,294.095,111.557,294.095 M105.236,288.159c-0.752,0-1.2-0.752-1.2-2.16
		s0.448-2.176,1.2-2.176c0.784,0,1.2,0.736,1.2,2.176C106.437,287.407,105.988,288.159,105.236,288.159 M107.588,285.999
		c0-1.888-0.896-2.96-2.352-2.96s-2.352,1.072-2.352,2.96s0.896,2.944,2.352,2.944S107.588,287.887,107.588,285.999
		 M104.564,294.896h0.976l6.56-11.856h-0.96L104.564,294.896z M100.869,293.295h-4.336l1.792-1.936c1.84-2,2.896-3.504,2.896-5.152
		c0-1.968-1.312-3.168-3.552-3.168c-2.256,0-3.584,1.264-3.584,3.424c0,0.097,0.016,0.208,0.016,0.305h1.28v-0.129
		c0-1.52,0.8-2.352,2.24-2.352c1.376,0,2.256,0.848,2.256,2c0,1.488-1.424,3.008-3.488,5.44l-2.416,2.863h6.896V293.295z
		 M89.86,293.823c0,0.512,0.4,0.912,0.928,0.912c0.528,0,0.944-0.4,0.944-0.912s-0.416-0.928-0.944-0.928
		C90.276,292.896,89.86,293.312,89.86,293.823 M86.101,286.671c0,1.504-0.944,2.528-2.304,2.528c-1.52,0-2.416-0.977-2.416-2.528
		c0-1.52,0.944-2.512,2.352-2.512C85.172,284.159,86.101,285.119,86.101,286.671 M85.188,289.791l-3.696,4.816l1.184,0.607
		l2.608-3.68c1.264-1.792,2.208-3.104,2.208-4.752c0-2.24-1.408-3.744-3.504-3.744c-2.496,0-4.016,1.472-4.016,3.76
		c0,2.097,1.408,3.536,3.456,3.536C84.068,290.335,84.628,290.159,85.188,289.791 M77.508,293.295h-4.336l1.792-1.936
		c1.84-2,2.896-3.504,2.896-5.152c0-1.968-1.312-3.168-3.552-3.168c-2.256,0-3.584,1.264-3.584,3.424
		c0,0.097,0.016,0.208,0.016,0.305h1.28v-0.129c0-1.52,0.8-2.352,2.24-2.352c1.376,0,2.256,0.848,2.256,2
		c0,1.488-1.424,3.008-3.488,5.44l-2.416,2.863h6.896V293.295z M59.141,293.391c0.56,1.009,1.488,1.505,2.816,1.505
		c1.584,0,2.608-0.944,2.608-2.272c0-1.168-0.688-1.68-2.08-2.128c-1.184-0.384-1.84-0.48-1.84-1.232
		c0-0.624,0.496-1.071,1.216-1.071c0.752,0,1.344,0.368,1.632,1.023l0.992-0.607c-0.384-0.912-1.312-1.425-2.544-1.425
		c-1.52,0-2.528,0.912-2.528,2.16c0,1.408,1.056,1.712,2.816,2.32c0.752,0.256,1.12,0.544,1.12,1.088
		c0,0.624-0.528,1.072-1.344,1.072s-1.424-0.368-1.824-1.136L59.141,293.391z M55.141,295.039l3.52-7.6h-1.376l-2.16,4.991
		l-2.144-4.991h-1.376L55.141,295.039z"/>
	<path clip-path="url(#SVGID_2_)" fill="#FFFFFF" d="M807.392,202.563c0.578,1.189,1.581,1.75,3.111,1.75
		c2.057,0,3.213-0.985,3.213-2.516c0-1.139-0.646-1.785-2.023-2.328c-1.224-0.494-2.074-0.613-2.074-1.377
		c0-0.545,0.442-0.902,1.14-0.902c0.629,0,1.122,0.324,1.309,0.816l1.275-0.884c-0.392-0.815-1.275-1.292-2.517-1.292
		c-1.87,0-3.009,1.003-3.009,2.363c0,1.139,0.765,1.751,2.261,2.38c1.088,0.459,1.87,0.526,1.87,1.343
		c0,0.629-0.476,1.037-1.292,1.037c-0.952,0-1.547-0.425-1.768-1.207L807.392,202.563z M803.736,203.991h1.802v-6.29h1.377v-1.581
		h-1.377v-2.975h-1.802v2.975h-1.377v1.581h1.377V203.991z M793.485,203.991h1.802v-3.587c0-0.986,0.034-1.666,0.357-2.142
		c0.374-0.562,1.054-0.885,1.904-0.885c1.496,0,1.717,0.816,1.717,2.567v4.046h1.819v-4.777c0-0.951,0-1.666-0.392-2.261
		c-0.459-0.731-1.292-1.104-2.465-1.104c-1.377,0-2.312,0.459-3.043,1.563v-1.292h-1.7V203.991z M791.785,200.319v-0.34
		c0-2.618-1.496-4.131-4.028-4.131c-2.448,0-4.131,1.785-4.131,4.232c0,2.566,1.614,4.232,4.131,4.232
		c1.768,0,3.06-0.764,3.943-2.346l-1.513-0.85c-0.578,1.088-1.309,1.547-2.465,1.547c-1.31,0-2.143-0.867-2.228-2.346H791.785z
		 M789.915,199.112h-4.301c0.289-1.174,1.003-1.734,2.176-1.734C789.031,197.378,789.779,197.974,789.915,199.112 M771.301,203.991
		v-3.587c0-0.97,0-1.632,0.306-2.142c0.34-0.562,0.952-0.901,1.666-0.901c1.241,0,1.564,0.799,1.564,2.584v4.046h1.818v-3.587
		c0-2.023,0.408-3.043,1.973-3.043c1.359,0,1.529,0.85,1.529,2.584v4.046h1.803v-5.406c0-0.663-0.034-1.207-0.289-1.632
		c-0.426-0.714-1.207-1.122-2.262-1.122c-1.224,0-2.107,0.493-2.924,1.564c-0.425-1.055-1.224-1.564-2.448-1.564
		c-1.258,0-2.125,0.493-2.839,1.581v-1.292h-1.7v7.871H771.301z M767.799,200.319v-0.34c0-2.618-1.496-4.131-4.029-4.131
		c-2.448,0-4.131,1.785-4.131,4.232c0,2.566,1.615,4.232,4.131,4.232c1.768,0,3.06-0.764,3.944-2.346l-1.514-0.85
		c-0.578,1.088-1.309,1.547-2.465,1.547c-1.309,0-2.142-0.867-2.227-2.346H767.799z M765.929,199.112h-4.301
		c0.289-1.174,1.003-1.734,2.176-1.734C765.045,197.378,765.792,197.974,765.929,199.112 M755.134,204.468l4.131-8.348h-1.955
		l-1.717,3.961c-0.204,0.477-0.357,0.952-0.459,1.428c-0.188-0.73-0.34-1.207-0.442-1.428l-1.717-3.961h-1.972L755.134,204.468z
		 M748.725,200.081c0,1.479-1.105,2.618-2.431,2.618c-1.344,0-2.432-1.14-2.432-2.618s1.088-2.618,2.432-2.618
		C747.637,197.463,748.725,198.603,748.725,200.081 M741.958,200.063c0,1.156,0.442,2.193,1.275,3.01
		c0.816,0.799,1.904,1.24,3.043,1.24c1.173,0,2.244-0.441,3.094-1.258c0.816-0.781,1.259-1.818,1.259-2.992
		c0-1.139-0.459-2.176-1.275-2.975c-0.833-0.816-1.904-1.24-3.077-1.24c-1.139,0-2.227,0.424-3.043,1.224
		C742.4,197.871,741.958,198.925,741.958,200.063 M738.253,197.378v-1.275h-1.803v7.889h1.803v-3.451
		c0-2.125,0.407-3.128,1.683-3.128c0.408,0,0.765,0.085,1.104,0.323l0.646-1.53c-0.476-0.237-0.969-0.356-1.479-0.356
		C739.256,195.849,738.644,196.341,738.253,197.378 M728.478,200.03c0-1.649,0.816-2.584,2.159-2.584
		c1.359,0,2.192,0.986,2.192,2.652c0,1.683-0.781,2.617-2.142,2.617C729.412,202.716,728.478,201.713,728.478,200.03
		 M726.727,207.697h1.802v-4.726c0.646,0.9,1.496,1.342,2.602,1.342c2.192,0,3.587-1.58,3.587-4.267c0-2.532-1.445-4.198-3.52-4.198
		c-1.292,0-2.244,0.561-2.669,1.563v-1.292h-1.802V207.697z M713.823,203.991v-3.587c0-0.97,0-1.632,0.307-2.142
		c0.34-0.562,0.951-0.901,1.666-0.901c1.24,0,1.563,0.799,1.563,2.584v4.046h1.819v-3.587c0-2.023,0.408-3.043,1.972-3.043
		c1.36,0,1.53,0.85,1.53,2.584v4.046h1.802v-5.406c0-0.663-0.034-1.207-0.289-1.632c-0.425-0.714-1.207-1.122-2.261-1.122
		c-1.225,0-2.108,0.493-2.924,1.564c-0.426-1.055-1.225-1.564-2.448-1.564c-1.258,0-2.125,0.493-2.839,1.581v-1.292h-1.7v7.871
		H713.823z M707.586,192.72c0,0.612,0.51,1.139,1.139,1.139s1.122-0.492,1.122-1.139c0-0.646-0.493-1.121-1.122-1.121
		S707.586,192.108,707.586,192.72 M707.823,203.991h1.803v-7.871h-1.803V203.991z"/>
	<path clip-path="url(#SVGID_2_)" fill="#FFFFFF" d="M832.312,183.03c0,1.666-0.935,2.687-2.193,2.687
		c-1.359,0-2.158-0.935-2.158-2.618c0-1.666,0.833-2.652,2.192-2.652C831.497,180.446,832.312,181.382,832.312,183.03
		 M832.262,174.122v6.291c-0.425-1.004-1.36-1.564-2.652-1.564c-2.074,0-3.536,1.666-3.536,4.199c0,2.686,1.395,4.267,3.587,4.267
		c1.105,0,1.955-0.442,2.602-1.343v1.02h1.802v-12.869H832.262z M824.951,183.319v-0.34c0-2.617-1.495-4.131-4.028-4.131
		c-2.448,0-4.131,1.785-4.131,4.232c0,2.567,1.614,4.233,4.131,4.233c1.768,0,3.06-0.765,3.943-2.346l-1.513-0.851
		c-0.578,1.088-1.309,1.547-2.465,1.547c-1.31,0-2.142-0.866-2.228-2.346H824.951z M823.082,182.112h-4.302
		c0.289-1.173,1.003-1.734,2.177-1.734C822.197,180.378,822.945,180.974,823.082,182.112 M812.813,186.991h1.802v-6.289h1.377
		v-1.582h-1.377v-2.975h-1.802v2.975h-1.377v1.582h1.377V186.991z M808.104,180.378v-1.274h-1.802v7.888h1.802v-3.451
		c0-2.125,0.408-3.127,1.684-3.127c0.407,0,0.765,0.084,1.104,0.322l0.646-1.529c-0.476-0.238-0.969-0.357-1.479-0.357
		C809.107,178.849,808.495,179.342,808.104,180.378 M802.665,183.081c0,1.479-1.105,2.619-2.432,2.619
		c-1.343,0-2.431-1.14-2.431-2.619c0-1.479,1.088-2.617,2.431-2.617S802.665,181.603,802.665,183.081 M795.898,183.064
		c0,1.156,0.442,2.193,1.275,3.009c0.815,0.799,1.903,1.241,3.043,1.241c1.173,0,2.244-0.442,3.094-1.258
		c0.816-0.782,1.258-1.819,1.258-2.992c0-1.139-0.459-2.176-1.274-2.975c-0.833-0.816-1.904-1.241-3.077-1.241
		c-1.14,0-2.228,0.425-3.043,1.225C796.341,180.872,795.898,181.926,795.898,183.064 M788.504,183.03
		c0-1.648,0.816-2.584,2.159-2.584c1.36,0,2.193,0.986,2.193,2.652c0,1.684-0.783,2.618-2.143,2.618
		C789.438,185.717,788.504,184.714,788.504,183.03 M786.753,190.698h1.802v-4.727c0.646,0.9,1.496,1.343,2.602,1.343
		c2.193,0,3.586-1.581,3.586-4.267c0-2.533-1.444-4.199-3.518-4.199c-1.292,0-2.245,0.561-2.67,1.564v-1.293h-1.802V190.698z
		 M785.053,183.319v-0.34c0-2.617-1.495-4.131-4.029-4.131c-2.448,0-4.13,1.785-4.13,4.232c0,2.567,1.614,4.233,4.13,4.233
		c1.769,0,3.061-0.765,3.945-2.346l-1.513-0.851c-0.578,1.088-1.311,1.547-2.467,1.547c-1.309,0-2.141-0.866-2.226-2.346H785.053z
		 M783.183,182.112h-4.3c0.289-1.173,1.003-1.734,2.175-1.734C782.3,180.378,783.047,180.974,783.183,182.112 M773.188,180.378
		v-1.274h-1.802v7.888h1.802v-3.451c0-2.125,0.408-3.127,1.683-3.127c0.408,0,0.766,0.084,1.105,0.322l0.646-1.529
		c-0.477-0.238-0.97-0.357-1.479-0.357C774.19,178.849,773.579,179.342,773.188,180.378 M758.448,185.563
		c0.578,1.189,1.581,1.751,3.111,1.751c2.057,0,3.213-0.985,3.213-2.516c0-1.14-0.646-1.785-2.022-2.329
		c-1.225-0.493-2.074-0.612-2.074-1.377c0-0.544,0.441-0.901,1.139-0.901c0.629,0,1.122,0.323,1.31,0.816l1.274-0.884
		c-0.391-0.816-1.274-1.293-2.516-1.293c-1.87,0-3.009,1.004-3.009,2.363c0,1.139,0.765,1.752,2.261,2.381
		c1.088,0.459,1.87,0.526,1.87,1.342c0,0.629-0.477,1.037-1.292,1.037c-0.952,0-1.547-0.424-1.769-1.207L758.448,185.563z
		 M754.794,186.991h1.802v-6.289h1.377v-1.582h-1.377v-2.975h-1.802v2.975h-1.377v1.582h1.377V186.991z M744.543,186.991h1.802
		v-3.586c0-0.986,0.034-1.666,0.356-2.143c0.374-0.561,1.055-0.885,1.904-0.885c1.496,0,1.717,0.816,1.717,2.568v4.045h1.819v-4.776
		c0-0.952,0-1.666-0.391-2.261c-0.459-0.731-1.292-1.105-2.466-1.105c-1.377,0-2.312,0.459-3.043,1.564v-1.293h-1.699V186.991z
		 M742.843,183.319v-0.34c0-2.617-1.496-4.131-4.029-4.131c-2.448,0-4.131,1.785-4.131,4.232c0,2.567,1.615,4.233,4.131,4.233
		c1.769,0,3.061-0.765,3.944-2.346l-1.514-0.851c-0.577,1.088-1.309,1.547-2.465,1.547c-1.309,0-2.142-0.866-2.227-2.346H742.843z
		 M740.973,182.112h-4.301c0.289-1.173,1.003-1.734,2.176-1.734C740.089,180.378,740.837,180.974,740.973,182.112 M730.823,175.721
		c0,0.612,0.511,1.139,1.14,1.139s1.122-0.493,1.122-1.139s-0.493-1.122-1.122-1.122S730.823,175.108,730.823,175.721
		 M731.062,186.991h1.802v-7.871h-1.802V186.991z M726.421,186.991h1.802v-6.289h1.377v-1.582h-1.377v-2.975h-1.802v2.975h-1.377
		v1.582h1.377V186.991z M723.684,186.991v-7.871h-1.801v1.293c-0.426-1.004-1.361-1.564-2.653-1.564
		c-2.073,0-3.536,1.666-3.536,4.199c0,2.686,1.396,4.267,3.588,4.267c1.104,0,1.954-0.442,2.602-1.343v1.02H723.684z
		 M721.933,183.03c0,1.666-0.951,2.687-2.193,2.687c-1.358,0-2.158-0.935-2.158-2.618c0-1.666,0.834-2.652,2.192-2.652
		C721.117,180.446,721.933,181.382,721.933,183.03 M708.3,183.03c0-1.648,0.815-2.584,2.159-2.584c1.359,0,2.192,0.986,2.192,2.652
		c0,1.684-0.782,2.618-2.142,2.618C709.234,185.717,708.3,184.714,708.3,183.03 M706.549,190.698h1.802v-4.727
		c0.646,0.9,1.496,1.343,2.601,1.343c2.193,0,3.587-1.581,3.587-4.267c0-2.533-1.444-4.199-3.519-4.199
		c-1.292,0-2.244,0.561-2.669,1.564v-1.293h-1.802V190.698z M696.808,186.991h1.802v-6.289h1.888v-1.582h-1.888v-1.869
		c0-1.207,0.307-1.752,1.207-1.752c0.307,0,0.595,0.086,0.884,0.256v-1.633c-0.441-0.119-0.85-0.17-1.224-0.17
		c-1.836,0-2.669,0.986-2.669,3.061v2.107h-1.377v1.582h1.377V186.991z M692.915,183.081c0,1.479-1.105,2.619-2.432,2.619
		c-1.343,0-2.431-1.14-2.431-2.619c0-1.479,1.088-2.617,2.431-2.617S692.915,181.603,692.915,183.081 M686.148,183.064
		c0,1.156,0.442,2.193,1.275,3.009c0.815,0.799,1.903,1.241,3.043,1.241c1.173,0,2.244-0.442,3.094-1.258
		c0.816-0.782,1.258-1.819,1.258-2.992c0-1.139-0.459-2.176-1.274-2.975c-0.833-0.816-1.904-1.241-3.077-1.241
		c-1.14,0-2.228,0.425-3.043,1.225C686.591,180.872,686.148,181.926,686.148,183.064"/>
	<path clip-path="url(#SVGID_2_)" fill="#FFFFFF" d="M503.392,202.563c0.578,1.189,1.581,1.75,3.111,1.75
		c2.057,0,3.213-0.985,3.213-2.516c0-1.139-0.646-1.785-2.023-2.328c-1.224-0.494-2.074-0.613-2.074-1.377
		c0-0.545,0.442-0.902,1.14-0.902c0.629,0,1.122,0.324,1.309,0.816l1.275-0.884c-0.392-0.815-1.275-1.292-2.517-1.292
		c-1.87,0-3.009,1.003-3.009,2.363c0,1.139,0.765,1.751,2.261,2.38c1.088,0.459,1.87,0.526,1.87,1.343
		c0,0.629-0.476,1.037-1.292,1.037c-0.952,0-1.547-0.425-1.768-1.207L503.392,202.563z M499.736,203.991h1.802v-6.29h1.377v-1.581
		h-1.377v-2.975h-1.802v2.975h-1.377v1.581h1.377V203.991z M489.485,203.991h1.802v-3.587c0-0.986,0.034-1.666,0.357-2.142
		c0.374-0.562,1.054-0.885,1.904-0.885c1.496,0,1.717,0.816,1.717,2.567v4.046h1.819v-4.777c0-0.951,0-1.666-0.392-2.261
		c-0.459-0.731-1.292-1.104-2.465-1.104c-1.377,0-2.312,0.459-3.043,1.563v-1.292h-1.7V203.991z M487.785,200.319v-0.34
		c0-2.618-1.496-4.131-4.028-4.131c-2.448,0-4.131,1.785-4.131,4.232c0,2.566,1.614,4.232,4.131,4.232
		c1.768,0,3.06-0.764,3.943-2.346l-1.513-0.85c-0.578,1.088-1.309,1.547-2.465,1.547c-1.31,0-2.143-0.867-2.228-2.346H487.785z
		 M485.915,199.112h-4.301c0.289-1.174,1.003-1.734,2.176-1.734C485.031,197.378,485.779,197.974,485.915,199.112 M467.301,203.991
		v-3.587c0-0.97,0-1.632,0.306-2.142c0.34-0.562,0.952-0.901,1.666-0.901c1.241,0,1.564,0.799,1.564,2.584v4.046h1.818v-3.587
		c0-2.023,0.408-3.043,1.973-3.043c1.359,0,1.529,0.85,1.529,2.584v4.046h1.803v-5.406c0-0.663-0.034-1.207-0.289-1.632
		c-0.426-0.714-1.207-1.122-2.262-1.122c-1.224,0-2.107,0.493-2.924,1.564c-0.425-1.055-1.224-1.564-2.448-1.564
		c-1.258,0-2.125,0.493-2.839,1.581v-1.292h-1.7v7.871H467.301z M463.799,200.319v-0.34c0-2.618-1.496-4.131-4.029-4.131
		c-2.448,0-4.131,1.785-4.131,4.232c0,2.566,1.615,4.232,4.131,4.232c1.768,0,3.06-0.764,3.944-2.346l-1.514-0.85
		c-0.578,1.088-1.309,1.547-2.465,1.547c-1.309,0-2.142-0.867-2.227-2.346H463.799z M461.929,199.112h-4.301
		c0.289-1.174,1.003-1.734,2.176-1.734C461.045,197.378,461.792,197.974,461.929,199.112 M451.134,204.468l4.131-8.348h-1.955
		l-1.717,3.961c-0.204,0.477-0.357,0.952-0.459,1.428c-0.188-0.73-0.34-1.207-0.442-1.428l-1.717-3.961h-1.972L451.134,204.468z
		 M444.725,200.081c0,1.479-1.105,2.618-2.431,2.618c-1.344,0-2.432-1.14-2.432-2.618s1.088-2.618,2.432-2.618
		C443.637,197.463,444.725,198.603,444.725,200.081 M437.958,200.063c0,1.156,0.442,2.193,1.275,3.01
		c0.816,0.799,1.904,1.24,3.043,1.24c1.173,0,2.244-0.441,3.094-1.258c0.816-0.781,1.259-1.818,1.259-2.992
		c0-1.139-0.459-2.176-1.275-2.975c-0.833-0.816-1.904-1.24-3.077-1.24c-1.139,0-2.227,0.424-3.043,1.224
		C438.4,197.871,437.958,198.925,437.958,200.063 M434.253,197.378v-1.275h-1.803v7.889h1.803v-3.451
		c0-2.125,0.407-3.128,1.683-3.128c0.408,0,0.765,0.085,1.104,0.323l0.646-1.53c-0.476-0.237-0.969-0.356-1.479-0.356
		C435.256,195.849,434.644,196.341,434.253,197.378 M424.478,200.03c0-1.649,0.816-2.584,2.159-2.584
		c1.359,0,2.192,0.986,2.192,2.652c0,1.683-0.781,2.617-2.142,2.617C425.412,202.716,424.478,201.713,424.478,200.03
		 M422.727,207.697h1.802v-4.726c0.646,0.9,1.496,1.342,2.602,1.342c2.192,0,3.587-1.58,3.587-4.267c0-2.532-1.445-4.198-3.52-4.198
		c-1.292,0-2.244,0.561-2.669,1.563v-1.292h-1.802V207.697z M409.823,203.991v-3.587c0-0.97,0-1.632,0.307-2.142
		c0.34-0.562,0.951-0.901,1.666-0.901c1.24,0,1.563,0.799,1.563,2.584v4.046h1.819v-3.587c0-2.023,0.408-3.043,1.972-3.043
		c1.36,0,1.53,0.85,1.53,2.584v4.046h1.802v-5.406c0-0.663-0.034-1.207-0.289-1.632c-0.425-0.714-1.207-1.122-2.261-1.122
		c-1.225,0-2.108,0.493-2.924,1.564c-0.426-1.055-1.225-1.564-2.448-1.564c-1.258,0-2.125,0.493-2.839,1.581v-1.292h-1.7v7.871
		H409.823z M403.585,192.72c0,0.612,0.511,1.139,1.14,1.139s1.122-0.492,1.122-1.139c0-0.646-0.493-1.121-1.122-1.121
		S403.585,192.108,403.585,192.72 M403.823,203.991h1.803v-7.871h-1.803V203.991z"/>
	<path clip-path="url(#SVGID_2_)" fill="#FFFFFF" d="M528.312,183.03c0,1.666-0.935,2.687-2.193,2.687
		c-1.359,0-2.158-0.935-2.158-2.618c0-1.666,0.833-2.652,2.192-2.652C527.497,180.446,528.312,181.382,528.312,183.03
		 M528.262,174.122v6.291c-0.425-1.004-1.36-1.564-2.652-1.564c-2.074,0-3.536,1.666-3.536,4.199c0,2.686,1.395,4.267,3.587,4.267
		c1.105,0,1.955-0.442,2.602-1.343v1.02h1.802v-12.869H528.262z M520.951,183.319v-0.34c0-2.617-1.495-4.131-4.028-4.131
		c-2.448,0-4.131,1.785-4.131,4.232c0,2.567,1.614,4.233,4.131,4.233c1.768,0,3.06-0.765,3.943-2.346l-1.513-0.851
		c-0.578,1.088-1.309,1.547-2.465,1.547c-1.31,0-2.142-0.866-2.228-2.346H520.951z M519.082,182.112h-4.302
		c0.289-1.173,1.003-1.734,2.177-1.734C518.197,180.378,518.945,180.974,519.082,182.112 M508.813,186.991h1.802v-6.289h1.377
		v-1.582h-1.377v-2.975h-1.802v2.975h-1.377v1.582h1.377V186.991z M504.104,180.378v-1.274h-1.802v7.888h1.802v-3.451
		c0-2.125,0.408-3.127,1.683-3.127c0.408,0,0.766,0.084,1.105,0.322l0.646-1.529c-0.476-0.238-0.969-0.357-1.479-0.357
		C505.107,178.849,504.495,179.342,504.104,180.378 M498.665,183.081c0,1.479-1.105,2.619-2.432,2.619
		c-1.343,0-2.431-1.14-2.431-2.619c0-1.479,1.088-2.617,2.431-2.617S498.665,181.603,498.665,183.081 M491.898,183.064
		c0,1.156,0.442,2.193,1.275,3.009c0.815,0.799,1.903,1.241,3.043,1.241c1.173,0,2.244-0.442,3.094-1.258
		c0.816-0.782,1.258-1.819,1.258-2.992c0-1.139-0.459-2.176-1.274-2.975c-0.833-0.816-1.904-1.241-3.077-1.241
		c-1.14,0-2.228,0.425-3.043,1.225C492.341,180.872,491.898,181.926,491.898,183.064 M484.504,183.03
		c0-1.648,0.815-2.584,2.158-2.584c1.36,0,2.193,0.986,2.193,2.652c0,1.684-0.781,2.618-2.142,2.618
		C485.438,185.717,484.504,184.714,484.504,183.03 M482.753,190.698h1.802v-4.727c0.646,0.9,1.496,1.343,2.601,1.343
		c2.194,0,3.587-1.581,3.587-4.267c0-2.533-1.443-4.199-3.518-4.199c-1.293,0-2.245,0.561-2.67,1.564v-1.293h-1.802V190.698z
		 M481.053,183.319v-0.34c0-2.617-1.495-4.131-4.029-4.131c-2.448,0-4.13,1.785-4.13,4.232c0,2.567,1.614,4.233,4.13,4.233
		c1.769,0,3.061-0.765,3.944-2.346l-1.514-0.851c-0.577,1.088-1.309,1.547-2.465,1.547c-1.308,0-2.142-0.866-2.226-2.346H481.053z
		 M479.183,182.112h-4.301c0.289-1.173,1.003-1.734,2.176-1.734C478.299,180.378,479.047,180.974,479.183,182.112 M469.188,180.378
		v-1.274h-1.802v7.888h1.802v-3.451c0-2.125,0.408-3.127,1.683-3.127c0.408,0,0.766,0.084,1.105,0.322l0.646-1.529
		c-0.477-0.238-0.97-0.357-1.479-0.357C470.19,178.849,469.578,179.342,469.188,180.378 M454.448,185.563
		c0.578,1.189,1.581,1.751,3.111,1.751c2.057,0,3.213-0.985,3.213-2.516c0-1.14-0.646-1.785-2.022-2.329
		c-1.225-0.493-2.074-0.612-2.074-1.377c0-0.544,0.441-0.901,1.139-0.901c0.629,0,1.122,0.323,1.31,0.816l1.274-0.884
		c-0.391-0.816-1.274-1.293-2.516-1.293c-1.87,0-3.009,1.004-3.009,2.363c0,1.139,0.765,1.752,2.261,2.381
		c1.088,0.459,1.87,0.526,1.87,1.342c0,0.629-0.477,1.037-1.292,1.037c-0.952,0-1.547-0.424-1.769-1.207L454.448,185.563z
		 M450.794,186.991h1.802v-6.289h1.377v-1.582h-1.377v-2.975h-1.802v2.975h-1.377v1.582h1.377V186.991z M440.543,186.991h1.802
		v-3.586c0-0.986,0.034-1.666,0.356-2.143c0.374-0.561,1.055-0.885,1.904-0.885c1.496,0,1.717,0.816,1.717,2.568v4.045h1.819v-4.776
		c0-0.952,0-1.666-0.391-2.261c-0.459-0.731-1.292-1.105-2.466-1.105c-1.377,0-2.312,0.459-3.043,1.564v-1.293h-1.699V186.991z
		 M438.843,183.319v-0.34c0-2.617-1.496-4.131-4.029-4.131c-2.448,0-4.131,1.785-4.131,4.232c0,2.567,1.615,4.233,4.131,4.233
		c1.769,0,3.061-0.765,3.944-2.346l-1.514-0.851c-0.577,1.088-1.309,1.547-2.465,1.547c-1.309,0-2.142-0.866-2.227-2.346H438.843z
		 M436.973,182.112h-4.301c0.289-1.173,1.003-1.734,2.176-1.734C436.089,180.378,436.837,180.974,436.973,182.112 M426.823,175.721
		c0,0.612,0.511,1.139,1.14,1.139s1.122-0.493,1.122-1.139s-0.493-1.122-1.122-1.122S426.823,175.108,426.823,175.721
		 M427.062,186.991h1.802v-7.871h-1.802V186.991z M422.421,186.991h1.802v-6.289h1.377v-1.582h-1.377v-2.975h-1.802v2.975h-1.377
		v1.582h1.377V186.991z M419.684,186.991v-7.871h-1.802v1.293c-0.424-1.004-1.359-1.564-2.652-1.564
		c-2.074,0-3.535,1.666-3.535,4.199c0,2.686,1.394,4.267,3.586,4.267c1.105,0,1.955-0.442,2.602-1.343v1.02H419.684z
		 M417.933,183.03c0,1.666-0.952,2.687-2.193,2.687c-1.359,0-2.158-0.935-2.158-2.618c0-1.666,0.834-2.652,2.192-2.652
		C417.116,180.446,417.933,181.382,417.933,183.03 M404.3,183.03c0-1.648,0.815-2.584,2.159-2.584c1.359,0,2.192,0.986,2.192,2.652
		c0,1.684-0.782,2.618-2.142,2.618C405.234,185.717,404.3,184.714,404.3,183.03 M402.549,190.698h1.802v-4.727
		c0.646,0.9,1.496,1.343,2.601,1.343c2.193,0,3.587-1.581,3.587-4.267c0-2.533-1.444-4.199-3.519-4.199
		c-1.292,0-2.244,0.561-2.669,1.564v-1.293h-1.802V190.698z M392.808,186.991h1.802v-6.289h1.888v-1.582h-1.888v-1.869
		c0-1.207,0.307-1.752,1.207-1.752c0.307,0,0.595,0.086,0.884,0.256v-1.633c-0.441-0.119-0.85-0.17-1.224-0.17
		c-1.836,0-2.669,0.986-2.669,3.061v2.107h-1.377v1.582h1.377V186.991z M388.915,183.081c0,1.479-1.105,2.619-2.432,2.619
		c-1.343,0-2.431-1.14-2.431-2.619c0-1.479,1.088-2.617,2.431-2.617S388.915,181.603,388.915,183.081 M382.148,183.064
		c0,1.156,0.442,2.193,1.275,3.009c0.815,0.799,1.903,1.241,3.043,1.241c1.173,0,2.244-0.442,3.094-1.258
		c0.816-0.782,1.258-1.819,1.258-2.992c0-1.139-0.459-2.176-1.274-2.975c-0.833-0.816-1.904-1.241-3.077-1.241
		c-1.14,0-2.228,0.425-3.043,1.225C382.591,180.872,382.148,181.926,382.148,183.064"/>
	<path clip-path="url(#SVGID_2_)" fill="#FFFFFF" d="M199.392,202.563c0.578,1.189,1.581,1.75,3.111,1.75
		c2.057,0,3.213-0.985,3.213-2.516c0-1.139-0.646-1.785-2.023-2.328c-1.224-0.494-2.074-0.613-2.074-1.377
		c0-0.545,0.442-0.902,1.14-0.902c0.629,0,1.122,0.324,1.309,0.816l1.275-0.884c-0.392-0.815-1.275-1.292-2.517-1.292
		c-1.87,0-3.009,1.003-3.009,2.363c0,1.139,0.765,1.751,2.261,2.38c1.088,0.459,1.87,0.526,1.87,1.343
		c0,0.629-0.476,1.037-1.292,1.037c-0.952,0-1.547-0.425-1.768-1.207L199.392,202.563z M195.736,203.991h1.802v-6.29h1.377v-1.581
		h-1.377v-2.975h-1.802v2.975h-1.377v1.581h1.377V203.991z M185.485,203.991h1.802v-3.587c0-0.986,0.034-1.666,0.357-2.142
		c0.374-0.562,1.054-0.885,1.904-0.885c1.496,0,1.717,0.816,1.717,2.567v4.046h1.819v-4.777c0-0.951,0-1.666-0.392-2.261
		c-0.459-0.731-1.292-1.104-2.465-1.104c-1.377,0-2.312,0.459-3.043,1.563v-1.292h-1.7V203.991z M183.785,200.319v-0.34
		c0-2.618-1.496-4.131-4.028-4.131c-2.448,0-4.131,1.785-4.131,4.232c0,2.566,1.615,4.232,4.131,4.232
		c1.768,0,3.06-0.764,3.943-2.346l-1.513-0.85c-0.578,1.088-1.309,1.547-2.465,1.547c-1.31,0-2.143-0.867-2.228-2.346H183.785z
		 M181.915,199.112h-4.301c0.289-1.174,1.003-1.734,2.176-1.734C181.031,197.378,181.779,197.974,181.915,199.112 M163.3,203.991
		v-3.587c0-0.97,0-1.632,0.306-2.142c0.34-0.562,0.952-0.901,1.666-0.901c1.241,0,1.564,0.799,1.564,2.584v4.046h1.819v-3.587
		c0-2.023,0.408-3.043,1.972-3.043c1.36,0,1.53,0.85,1.53,2.584v4.046h1.802v-5.406c0-0.663-0.034-1.207-0.289-1.632
		c-0.425-0.714-1.207-1.122-2.261-1.122c-1.224,0-2.108,0.493-2.924,1.564c-0.425-1.055-1.224-1.564-2.448-1.564
		c-1.258,0-2.125,0.493-2.839,1.581v-1.292h-1.7v7.871H163.3z M159.798,200.319v-0.34c0-2.618-1.496-4.131-4.029-4.131
		c-2.448,0-4.131,1.785-4.131,4.232c0,2.566,1.615,4.232,4.131,4.232c1.768,0,3.06-0.764,3.944-2.346l-1.513-0.85
		c-0.578,1.088-1.309,1.547-2.465,1.547c-1.309,0-2.142-0.867-2.227-2.346H159.798z M157.929,199.112h-4.301
		c0.289-1.174,1.003-1.734,2.176-1.734C157.044,197.378,157.792,197.974,157.929,199.112 M147.133,204.468l4.131-8.348h-1.955
		l-1.717,3.961c-0.204,0.477-0.357,0.952-0.459,1.428c-0.187-0.73-0.34-1.207-0.442-1.428l-1.717-3.961h-1.972L147.133,204.468z
		 M140.725,200.081c0,1.479-1.105,2.618-2.431,2.618c-1.343,0-2.431-1.14-2.431-2.618s1.088-2.618,2.431-2.618
		C139.637,197.463,140.725,198.603,140.725,200.081 M133.958,200.063c0,1.156,0.442,2.193,1.275,3.01
		c0.816,0.799,1.904,1.24,3.043,1.24c1.173,0,2.244-0.441,3.094-1.258c0.816-0.781,1.258-1.818,1.258-2.992
		c0-1.139-0.459-2.176-1.275-2.975c-0.833-0.816-1.904-1.24-3.077-1.24c-1.139,0-2.227,0.424-3.043,1.224
		C134.4,197.871,133.958,198.925,133.958,200.063 M130.252,197.378v-1.275h-1.802v7.889h1.802v-3.451
		c0-2.125,0.408-3.128,1.683-3.128c0.408,0,0.765,0.085,1.105,0.323l0.646-1.53c-0.476-0.237-0.969-0.356-1.479-0.356
		C131.255,195.849,130.644,196.341,130.252,197.378 M120.478,200.03c0-1.649,0.816-2.584,2.159-2.584
		c1.36,0,2.193,0.986,2.193,2.652c0,1.683-0.782,2.617-2.142,2.617C121.413,202.716,120.478,201.713,120.478,200.03
		 M118.727,207.697h1.802v-4.726c0.646,0.9,1.496,1.342,2.601,1.342c2.193,0,3.587-1.58,3.587-4.267
		c0-2.532-1.445-4.198-3.519-4.198c-1.292,0-2.244,0.561-2.669,1.563v-1.292h-1.802V207.697z M105.824,203.991v-3.587
		c0-0.97,0-1.632,0.306-2.142c0.34-0.562,0.952-0.901,1.666-0.901c1.241,0,1.564,0.799,1.564,2.584v4.046h1.819v-3.587
		c0-2.023,0.408-3.043,1.972-3.043c1.36,0,1.53,0.85,1.53,2.584v4.046h1.802v-5.406c0-0.663-0.034-1.207-0.289-1.632
		c-0.425-0.714-1.207-1.122-2.261-1.122c-1.224,0-2.108,0.493-2.924,1.564c-0.425-1.055-1.224-1.564-2.448-1.564
		c-1.258,0-2.125,0.493-2.839,1.581v-1.292h-1.7v7.871H105.824z M99.585,192.72c0,0.612,0.51,1.139,1.139,1.139
		s1.122-0.492,1.122-1.139c0-0.646-0.493-1.121-1.122-1.121S99.585,192.108,99.585,192.72 M99.824,203.991h1.802v-7.871h-1.802
		V203.991z"/>
	<path clip-path="url(#SVGID_2_)" fill="#FFFFFF" d="M224.312,183.03c0,1.666-0.935,2.687-2.193,2.687
		c-1.359,0-2.158-0.935-2.158-2.618c0-1.666,0.833-2.652,2.192-2.652C223.497,180.446,224.312,181.382,224.312,183.03
		 M224.262,174.122v6.291c-0.425-1.004-1.36-1.564-2.652-1.564c-2.074,0-3.536,1.666-3.536,4.199c0,2.686,1.395,4.267,3.587,4.267
		c1.105,0,1.955-0.442,2.602-1.343v1.02h1.802v-12.869H224.262z M216.951,183.319v-0.34c0-2.617-1.495-4.131-4.028-4.131
		c-2.448,0-4.131,1.785-4.131,4.232c0,2.567,1.614,4.233,4.131,4.233c1.768,0,3.06-0.765,3.943-2.346l-1.513-0.851
		c-0.578,1.088-1.309,1.547-2.465,1.547c-1.31,0-2.142-0.866-2.228-2.346H216.951z M215.082,182.112h-4.302
		c0.289-1.173,1.003-1.734,2.177-1.734C214.197,180.378,214.945,180.974,215.082,182.112 M204.813,186.991h1.802v-6.289h1.377
		v-1.582h-1.377v-2.975h-1.802v2.975h-1.377v1.582h1.377V186.991z M200.104,180.378v-1.274h-1.802v7.888h1.802v-3.451
		c0-2.125,0.408-3.127,1.683-3.127c0.408,0,0.766,0.084,1.105,0.322l0.646-1.529c-0.477-0.238-0.97-0.357-1.479-0.357
		C201.107,178.849,200.495,179.342,200.104,180.378 M194.665,183.081c0,1.479-1.105,2.619-2.432,2.619
		c-1.343,0-2.431-1.14-2.431-2.619c0-1.479,1.088-2.617,2.431-2.617S194.665,181.603,194.665,183.081 M187.898,183.064
		c0,1.156,0.442,2.193,1.275,3.009c0.815,0.799,1.903,1.241,3.043,1.241c1.173,0,2.244-0.442,3.094-1.258
		c0.816-0.782,1.258-1.819,1.258-2.992c0-1.139-0.459-2.176-1.274-2.975c-0.833-0.816-1.904-1.241-3.077-1.241
		c-1.14,0-2.228,0.425-3.043,1.225C188.341,180.872,187.898,181.926,187.898,183.064 M180.504,183.03
		c0-1.648,0.815-2.584,2.158-2.584c1.36,0,2.193,0.986,2.193,2.652c0,1.684-0.782,2.618-2.142,2.618
		C181.438,185.717,180.504,184.714,180.504,183.03 M178.753,190.698h1.802v-4.727c0.646,0.9,1.496,1.343,2.601,1.343
		c2.193,0,3.587-1.581,3.587-4.267c0-2.533-1.444-4.199-3.519-4.199c-1.292,0-2.244,0.561-2.669,1.564v-1.293h-1.802V190.698z
		 M177.053,183.319v-0.34c0-2.617-1.496-4.131-4.029-4.131c-2.448,0-4.131,1.785-4.131,4.232c0,2.567,1.615,4.233,4.131,4.233
		c1.768,0,3.06-0.765,3.944-2.346l-1.513-0.851c-0.578,1.088-1.309,1.547-2.465,1.547c-1.309,0-2.142-0.866-2.227-2.346H177.053z
		 M175.183,182.112h-4.301c0.289-1.173,1.003-1.734,2.176-1.734C174.299,180.378,175.046,180.974,175.183,182.112 M165.188,180.378
		v-1.274h-1.802v7.888h1.802v-3.451c0-2.125,0.408-3.127,1.683-3.127c0.408,0,0.765,0.084,1.105,0.322l0.646-1.529
		c-0.476-0.238-0.969-0.357-1.479-0.357C166.19,178.849,165.579,179.342,165.188,180.378 M150.449,185.563
		c0.578,1.189,1.581,1.751,3.111,1.751c2.057,0,3.213-0.985,3.213-2.516c0-1.14-0.646-1.785-2.023-2.329
		c-1.224-0.493-2.074-0.612-2.074-1.377c0-0.544,0.442-0.901,1.139-0.901c0.629,0,1.122,0.323,1.309,0.816l1.275-0.884
		c-0.391-0.816-1.275-1.293-2.516-1.293c-1.87,0-3.009,1.004-3.009,2.363c0,1.139,0.765,1.752,2.261,2.381
		c1.088,0.459,1.87,0.526,1.87,1.342c0,0.629-0.476,1.037-1.292,1.037c-0.952,0-1.547-0.424-1.768-1.207L150.449,185.563z
		 M146.793,186.991h1.802v-6.289h1.377v-1.582h-1.377v-2.975h-1.802v2.975h-1.377v1.582h1.377V186.991z M136.542,186.991h1.802
		v-3.586c0-0.986,0.034-1.666,0.357-2.143c0.374-0.561,1.054-0.885,1.904-0.885c1.496,0,1.717,0.816,1.717,2.568v4.045h1.819v-4.776
		c0-0.952,0-1.666-0.391-2.261c-0.459-0.731-1.292-1.105-2.465-1.105c-1.377,0-2.312,0.459-3.043,1.564v-1.293h-1.7V186.991z
		 M134.843,183.319v-0.34c0-2.617-1.496-4.131-4.029-4.131c-2.448,0-4.131,1.785-4.131,4.232c0,2.567,1.615,4.233,4.131,4.233
		c1.768,0,3.06-0.765,3.944-2.346l-1.513-0.851c-0.578,1.088-1.309,1.547-2.465,1.547c-1.309,0-2.142-0.866-2.227-2.346H134.843z
		 M132.973,182.112h-4.301c0.289-1.173,1.003-1.734,2.176-1.734C132.088,180.378,132.836,180.974,132.973,182.112 M122.824,175.721
		c0,0.612,0.51,1.139,1.139,1.139c0.629,0,1.122-0.493,1.122-1.139s-0.493-1.122-1.122-1.122
		C123.333,174.599,122.824,175.108,122.824,175.721 M123.062,186.991h1.802v-7.871h-1.802V186.991z M118.42,186.991h1.802v-6.289
		h1.377v-1.582h-1.377v-2.975h-1.802v2.975h-1.377v1.582h1.377V186.991z M115.684,186.991v-7.871h-1.802v1.293
		c-0.425-1.004-1.36-1.564-2.652-1.564c-2.074,0-3.536,1.666-3.536,4.199c0,2.686,1.394,4.267,3.587,4.267
		c1.105,0,1.955-0.442,2.601-1.343v1.02H115.684z M113.933,183.03c0,1.666-0.952,2.687-2.193,2.687c-1.36,0-2.159-0.935-2.159-2.618
		c0-1.666,0.833-2.652,2.193-2.652C113.117,180.446,113.933,181.382,113.933,183.03 M100.3,183.03c0-1.648,0.816-2.584,2.159-2.584
		c1.36,0,2.193,0.986,2.193,2.652c0,1.684-0.782,2.618-2.142,2.618C101.234,185.717,100.3,184.714,100.3,183.03 M98.549,190.698
		h1.802v-4.727c0.646,0.9,1.496,1.343,2.601,1.343c2.193,0,3.587-1.581,3.587-4.267c0-2.533-1.445-4.199-3.519-4.199
		c-1.292,0-2.244,0.561-2.669,1.564v-1.293h-1.802V190.698z M88.808,186.991h1.802v-6.289h1.887v-1.582h-1.887v-1.869
		c0-1.207,0.306-1.752,1.207-1.752c0.306,0,0.595,0.086,0.884,0.256v-1.633c-0.442-0.119-0.85-0.17-1.224-0.17
		c-1.836,0-2.669,0.986-2.669,3.061v2.107h-1.377v1.582h1.377V186.991z M84.915,183.081c0,1.479-1.105,2.619-2.431,2.619
		c-1.343,0-2.431-1.14-2.431-2.619c0-1.479,1.088-2.617,2.431-2.617C83.827,180.464,84.915,181.603,84.915,183.081 M78.148,183.064
		c0,1.156,0.442,2.193,1.275,3.009c0.816,0.799,1.904,1.241,3.043,1.241c1.173,0,2.244-0.442,3.094-1.258
		c0.816-0.782,1.258-1.819,1.258-2.992c0-1.139-0.459-2.176-1.275-2.975c-0.833-0.816-1.904-1.241-3.077-1.241
		c-1.139,0-2.227,0.425-3.043,1.225C78.591,180.872,78.148,181.926,78.148,183.064"/>
</g>
</svg>
