<?xml version="1.0" encoding="utf-8"?>
<!-- Generator: Adobe Illustrator 15.1.0, SVG Export Plug-In . SVG Version: 6.00 Build 0)  -->
<!DOCTYPE svg PUBLIC "-//W3C//DTD SVG 1.1//EN" "http://www.w3.org/Graphics/SVG/1.1/DTD/svg11.dtd">
<svg version="1.1" id="art" xmlns="http://www.w3.org/2000/svg" xmlns:xlink="http://www.w3.org/1999/xlink" x="0px" y="0px"
	 width="912px" height="541px" viewBox="0 0 912 541" enable-background="new 0 0 912 541" xml:space="preserve">
<g>
	<g>
		<g>
			<defs>
				<rect id="SVGID_1_" width="912" height="393.55"/>
			</defs>
			<clipPath id="SVGID_2_">
				<use xlink:href="#SVGID_1_"  overflow="visible"/>
			</clipPath>
			<line clip-path="url(#SVGID_2_)" fill="none" stroke="#F8A15E" stroke-width="3" x1="0" y1="392.05" x2="912" y2="392.05"/>
		</g>
	</g>
	<g>
		<g>
			<defs>
				<rect id="SVGID_3_" width="912" height="393.55"/>
			</defs>
			<clipPath id="SVGID_4_">
				<use xlink:href="#SVGID_3_"  overflow="visible"/>
			</clipPath>
			<path clip-path="url(#SVGID_4_)" fill="#F8A15E" d="M265.505,40c11.046,0,20-8.954,20-20s-8.954-20-20-20s-20,8.954-20,20
				S254.459,40,265.505,40"/>
		</g>
	</g>
	<g>
		<g>
			<defs>
				<rect id="SVGID_5_" width="912" height="393.55"/>
			</defs>
			<clipPath id="SVGID_6_">
				<use xlink:href="#SVGID_5_"  overflow="visible"/>
			</clipPath>
			<path clip-path="url(#SVGID_6_)" fill="#F8A15E" d="M263.996,45.903c0,0,1.531,2.58,3.062,0l4.91-8.273
				c0,0,1.531-2.58-1.469-2.58h-9.946c0,0-3,0-1.468,2.58L263.996,45.903z"/>
		</g>
	</g>
	<g>
		<g>
			<defs>
				<rect id="SVGID_7_" width="912" height="393.55"/>
			</defs>
			<clipPath id="SVGID_8_">
				<use xlink:href="#SVGID_7_"  overflow="visible"/>
			</clipPath>
			<path clip-path="url(#SVGID_8_)" fill="#FFFFFF" d="M273.209,27.447v-0.832h-5.846l4.938-6.457
				c0.666-0.87,0.907-1.554,0.907-2.534c0-2.091-1.369-3.46-3.478-3.46c-2.184,0-3.479,1.499-3.479,3.46h0.943
				c0-1.85,1.166-2.628,2.535-2.628c1.591,0,2.533,1.055,2.533,2.628c0,0.758-0.222,1.387-0.739,2.053l-5.291,6.938v0.832H273.209z
				 M261.369,27.447V14.275h-0.943l-2.387,2.054v1.128l2.387-2.109v12.099H261.369z"/>
		</g>
	</g>
	<g>
		<g>
			<defs>
				<rect id="SVGID_9_" width="912" height="393.55"/>
			</defs>
			<clipPath id="SVGID_10_">
				<use xlink:href="#SVGID_9_"  overflow="visible"/>
			</clipPath>
			<path clip-path="url(#SVGID_10_)" fill="#006227" d="M265.005,149.039c2.199,0,3.982-1.783,3.982-3.982
				c0-2.199-1.783-3.982-3.982-3.982c-2.199,0-3.981,1.783-3.981,3.982C261.024,147.256,262.806,149.039,265.005,149.039"/>
		</g>
	</g>
	<g>
		<g>
			<defs>
				<rect id="SVGID_11_" width="912" height="393.55"/>
			</defs>
			<clipPath id="SVGID_12_">
				<use xlink:href="#SVGID_11_"  overflow="visible"/>
			</clipPath>
			<path clip-path="url(#SVGID_12_)" fill="#006227" d="M266.005,319.594c2.199,0,3.982-1.781,3.982-3.98
				c0-2.198-1.783-3.981-3.982-3.981c-2.199,0-3.981,1.783-3.981,3.981C262.024,317.812,263.806,319.594,266.005,319.594"/>
		</g>
	</g>
	<g>
		<g>
			<defs>
				<rect id="SVGID_13_" width="912" height="393.55"/>
			</defs>
			<clipPath id="SVGID_14_">
				<use xlink:href="#SVGID_13_"  overflow="visible"/>
			</clipPath>
			<path clip-path="url(#SVGID_14_)" fill="#FFFFFF" d="M290.005,130.55v-34c0-3-3-3-3-3h-44c-3,0-3,3-3,3v34c0,3,3,3,3,3h16.943
				l3.504,5.903c1.531,2.58,3.062,0,3.062,0l3.504-5.903h16.987C290.005,133.55,290.005,130.55,290.005,130.55"/>
		</g>
	</g>
	<g>
		<g>
			<defs>
				<rect id="SVGID_15_" width="912" height="393.55"/>
			</defs>
			<clipPath id="SVGID_16_">
				<use xlink:href="#SVGID_15_"  overflow="visible"/>
			</clipPath>
			<path clip-path="url(#SVGID_16_)" fill="none" stroke="#D0D2D3" d="M290.005,130.55v-34c0-3-3-3-3-3h-44c-3,0-3,3-3,3v34
				c0,3,3,3,3,3h16.943l3.504,5.903c1.531,2.58,3.062,0,3.062,0l3.504-5.903h16.987C290.005,133.55,290.005,130.55,290.005,130.55z"
				/>
		</g>
	</g>
	<g>
		<g>
			<defs>
				<rect id="SVGID_17_" width="912" height="393.55"/>
			</defs>
			<clipPath id="SVGID_18_">
				<use xlink:href="#SVGID_17_"  overflow="visible"/>
			</clipPath>
			<path clip-path="url(#SVGID_18_)" fill="#FFFFFF" d="M291.005,301.105v-34c0-3-3-3-3-3h-44c-3,0-3,3-3,3v34c0,3,3,3,3,3h16.943
				l3.504,5.901c1.531,2.58,3.062,0,3.062,0l3.504-5.901h16.987C291.005,304.105,291.005,301.105,291.005,301.105"/>
		</g>
	</g>
	<g>
		<g>
			<defs>
				<rect id="SVGID_19_" width="912" height="393.55"/>
			</defs>
			<clipPath id="SVGID_20_">
				<use xlink:href="#SVGID_19_"  overflow="visible"/>
			</clipPath>
			<path clip-path="url(#SVGID_20_)" fill="none" stroke="#D0D2D3" d="M291.005,301.105v-34c0-3-3-3-3-3h-44c-3,0-3,3-3,3v34
				c0,3,3,3,3,3h16.943l3.504,5.901c1.531,2.58,3.062,0,3.062,0l3.504-5.901h16.987
				C291.005,304.105,291.005,301.105,291.005,301.105z"/>
		</g>
	</g>
	<g>
		<g>
			<defs>
				<rect id="SVGID_21_" width="912" height="393.55"/>
			</defs>
			<clipPath id="SVGID_22_">
				<use xlink:href="#SVGID_21_"  overflow="visible"/>
			</clipPath>
			<path clip-path="url(#SVGID_22_)" fill="#F8A15E" d="M280.065,117.081c-0.541,0-0.854-0.54-0.854-1.56
				c0-1.045,0.3-1.573,0.877-1.573c0.54,0,0.854,0.54,0.854,1.561C280.942,116.565,280.641,117.081,280.065,117.081 M278.17,115.509
				c0,1.428,0.707,2.267,1.907,2.267c1.2,0,1.919-0.839,1.919-2.267c0-1.453-0.707-2.256-1.907-2.256
				C278.889,113.253,278.17,114.08,278.17,115.509 M273.154,111.14c0,1.441,0.719,2.257,1.919,2.257c1.2,0,1.907-0.828,1.907-2.257
				c0-1.452-0.707-2.255-1.907-2.255C273.873,108.885,273.154,109.712,273.154,111.14 M275.061,112.713
				c-0.541,0-0.853-0.54-0.853-1.561c0-1.044,0.3-1.584,0.877-1.584c0.54,0,0.841,0.552,0.841,1.572
				C275.926,112.197,275.637,112.713,275.061,112.713 M275.481,117.776l5.004-8.891h-0.806l-5.004,8.891H275.481z M267.824,113.013
				c-0.972,0.311-1.522,1.139-1.522,2.256c0,1.512,1.067,2.507,2.939,2.507c1.884,0,2.951-0.983,2.951-2.531
				c0-1.081-0.575-1.921-1.522-2.232c0.803-0.312,1.235-0.924,1.235-1.776c0-1.405-1.007-2.352-2.664-2.352
				c-1.633,0-2.652,0.947-2.652,2.292C266.589,112.077,266.985,112.653,267.824,113.013 M269.265,110.012
				c0.805,0,1.273,0.456,1.273,1.189c0,0.708-0.457,1.152-1.297,1.152c-0.816,0-1.285-0.444-1.285-1.152
				C267.956,110.48,268.449,110.012,269.265,110.012 M269.241,116.637c-1.021,0-1.598-0.576-1.598-1.488
				c0-0.925,0.601-1.501,1.598-1.501c1.008,0,1.608,0.564,1.608,1.501C270.85,116.061,270.261,116.637,269.241,116.637
				 M263.11,116.901c0,0.419,0.336,0.755,0.767,0.755c0.432,0,0.767-0.336,0.767-0.755c0-0.432-0.335-0.78-0.767-0.78
				C263.446,116.121,263.11,116.469,263.11,116.901 M255.43,115.257c0.048,1.548,1.141,2.519,2.784,2.519
				c1.86,0,2.962-0.995,2.962-2.483c0-1.261-0.587-2.029-1.666-2.22c0.936-0.144,1.476-0.864,1.476-1.908
				c0-1.393-0.972-2.28-2.556-2.28c-1.644,0-2.567,0.815-2.651,2.268h1.26c0.023-0.733,0.516-1.153,1.355-1.153
				c0.78,0,1.284,0.468,1.284,1.201c0,0.84-0.527,1.26-1.536,1.26c-0.084,0-0.168-0.012-0.252-0.012v1.127
				c0.097,0,0.181-0.012,0.265-0.012c1.151,0,1.739,0.516,1.739,1.549c0,0.972-0.588,1.512-1.632,1.512
				c-0.924,0-1.5-0.516-1.5-1.296v-0.072H255.43z M249.681,114.921c0-1.021,0.637-1.717,1.548-1.717
				c1.033,0,1.634,0.648,1.634,1.717c0,1.044-0.612,1.704-1.646,1.704C250.329,116.625,249.681,115.965,249.681,114.921
				 M250.461,112.341l2.485-3.241l-1.068-0.539l-1.501,2.124c-1.152,1.62-2.027,2.783-2.027,4.224c0,1.704,1.115,2.867,2.831,2.867
				c1.825,0,3.036-1.175,3.036-2.939c0-1.645-1.127-2.772-2.639-2.772C251.205,112.065,250.833,112.161,250.461,112.341"/>
		</g>
	</g>
	<g>
		<g>
			<defs>
				<rect id="SVGID_23_" width="912" height="393.55"/>
			</defs>
			<clipPath id="SVGID_24_">
				<use xlink:href="#SVGID_23_"  overflow="visible"/>
			</clipPath>
			<path clip-path="url(#SVGID_24_)" fill="#F8A15E" d="M281.065,287.637c-0.541,0-0.854-0.539-0.854-1.561
				c0-1.045,0.3-1.572,0.877-1.572c0.54,0,0.853,0.54,0.853,1.561C281.941,287.121,281.641,287.637,281.065,287.637
				 M279.169,286.064c0,1.428,0.707,2.268,1.908,2.268c1.2,0,1.919-0.84,1.919-2.268c0-1.453-0.707-2.256-1.907-2.256
				C279.888,283.809,279.169,284.636,279.169,286.064 M274.153,281.695c0,1.441,0.719,2.257,1.92,2.257
				c1.2,0,1.907-0.827,1.907-2.257c0-1.452-0.707-2.256-1.907-2.256C274.872,279.439,274.153,280.268,274.153,281.695
				 M276.062,283.27c-0.541,0-0.854-0.541-0.854-1.561c0-1.045,0.3-1.585,0.877-1.585c0.54,0,0.84,0.552,0.84,1.571
				C276.925,282.753,276.637,283.27,276.062,283.27 M276.481,288.332l5.004-8.893h-0.806l-5.004,8.893H276.481z M272.628,286.988
				h-3.262l1.092-1.26c1.307-1.5,2.158-2.568,2.158-3.914c0-1.463-1.02-2.375-2.674-2.375c-1.752,0-2.856,0.996-2.856,2.531h1.344
				c0.061-0.805,0.612-1.332,1.393-1.332c0.888,0,1.416,0.527,1.416,1.367c0,0.625-0.396,1.346-1.152,2.258l-3.204,3.84h5.746
				L272.628,286.988L272.628,286.988z M264.11,287.457c0,0.419,0.335,0.755,0.767,0.755s0.768-0.336,0.768-0.755
				c0-0.434-0.336-0.779-0.768-0.779S264.11,287.023,264.11,287.457 M258.072,283.568c-0.971,0.312-1.522,1.14-1.522,2.256
				c0,1.513,1.067,2.508,2.939,2.508c1.885,0,2.951-0.982,2.951-2.531c0-1.08-0.575-1.921-1.522-2.232
				c0.803-0.312,1.235-0.924,1.235-1.773c0-1.404-1.007-2.354-2.664-2.354c-1.633,0-2.651,0.947-2.651,2.291
				C256.838,282.633,257.233,283.209,258.072,283.568 M259.513,280.566c0.806,0,1.273,0.457,1.273,1.188
				c0,0.708-0.457,1.151-1.297,1.151c-0.816,0-1.285-0.443-1.285-1.151C258.204,281.035,258.697,280.566,259.513,280.566
				 M259.489,287.191c-1.021,0-1.597-0.575-1.597-1.486c0-0.926,0.601-1.501,1.597-1.501c1.009,0,1.608,0.563,1.608,1.501
				C261.098,286.616,260.51,287.191,259.489,287.191 M251.858,288.104h1.27v-8.494h-2.506l-0.54,1.104h1.776V288.104
				L251.858,288.104z"/>
		</g>
	</g>
</g>
</svg>
