<?xml version="1.0" encoding="utf-8"?>
<!-- Generator: Adobe Illustrator 15.1.0, SVG Export Plug-In . SVG Version: 6.00 Build 0)  -->
<!DOCTYPE svg PUBLIC "-//W3C//DTD SVG 1.1//EN" "http://www.w3.org/Graphics/SVG/1.1/DTD/svg11.dtd">
<svg version="1.1" id="art" xmlns="http://www.w3.org/2000/svg" xmlns:xlink="http://www.w3.org/1999/xlink" x="0px" y="0px"
	 width="790px" height="160px" viewBox="0 0 790 160" enable-background="new 0 0 790 160" xml:space="preserve">
<g>
	<polygon fill="#FAA35E" points="169.297,0 163.001,4 156.704,0 151.111,4.937 144.267,1.97 139.515,7.721 132.29,5.862 
		128.497,12.284 121.069,11.579 118.329,18.515 110.883,18.979 109.261,26.261 101.979,27.884 101.515,35.329 94.578,38.072 
		95.284,45.498 88.86,49.291 90.72,56.516 84.97,61.267 87.936,68.112 83,73.705 87,80 83,86.297 87.936,91.889 84.97,98.734 
		90.72,103.486 88.86,110.711 95.284,114.504 94.578,121.93 101.515,124.674 101.979,132.117 109.261,133.74 110.883,141.021 
		118.329,141.485 121.069,148.424 128.497,147.717 132.29,154.141 139.515,152.281 144.267,158.031 151.111,155.064 156.704,160 
		163.001,156.001 169.297,160 174.889,155.064 181.733,158.031 186.484,152.281 193.71,154.141 197.504,147.717 204.93,148.424 
		207.671,141.485 215.116,141.021 216.739,133.74 224.021,132.117 224.484,124.674 231.422,121.93 230.717,114.504 237.138,110.711 
		235.28,103.486 241.03,98.734 238.063,91.889 243.001,86.297 238.999,80 243.001,73.705 238.063,68.112 241.03,61.267 
		235.28,56.516 237.138,49.291 230.717,45.498 231.422,38.072 224.484,35.329 224.021,27.884 216.739,26.261 215.116,18.979 
		207.671,18.515 204.93,11.579 197.504,12.284 193.71,5.862 186.484,7.721 181.733,1.97 174.889,4.937 	"/>
	<polygon fill="#FAA35E" points="401.297,0 395.001,4 388.704,0 383.111,4.937 376.267,1.97 371.514,7.721 364.292,5.862 
		360.498,12.284 353.069,11.579 350.329,18.515 342.883,18.979 341.261,26.261 333.98,27.884 333.516,35.329 326.579,38.072 
		327.283,45.498 320.86,49.291 322.72,56.516 316.97,61.267 319.935,68.112 315.001,73.705 319,80 315.001,86.297 319.935,91.889 
		316.97,98.734 322.72,103.486 320.86,110.711 327.283,114.504 326.579,121.93 333.516,124.674 333.98,132.117 341.261,133.74 
		342.883,141.021 350.329,141.485 353.069,148.424 360.498,147.717 364.292,154.141 371.514,152.281 376.267,158.031 
		383.111,155.064 388.704,160 395.001,156.001 401.297,160 406.89,155.064 413.734,158.031 418.485,152.281 425.71,154.141 
		429.503,147.717 436.93,148.424 439.672,141.485 447.117,141.021 448.74,133.74 456.021,132.117 456.485,124.674 463.424,121.93 
		462.718,114.504 469.139,110.711 467.28,103.486 473.03,98.734 470.063,91.889 475.001,86.297 471,80 475.001,73.705 
		470.063,68.112 473.03,61.267 467.28,56.516 469.139,49.291 462.718,45.498 463.424,38.072 456.485,35.329 456.021,27.884 
		448.74,26.261 447.117,18.979 439.672,18.515 436.93,11.579 429.503,12.284 425.71,5.862 418.485,7.721 413.734,1.97 406.89,4.937 
			"/>
	<polygon fill="#FAA35E" points="633.295,0 626.999,4 620.703,0 615.11,4.937 608.265,1.97 603.514,7.721 596.289,5.862 
		592.497,12.284 585.07,11.579 582.328,18.515 574.882,18.979 573.26,26.261 565.979,27.884 565.514,35.329 558.576,38.072 
		559.283,45.498 552.861,49.291 554.719,56.516 548.969,61.267 551.934,68.112 547,73.705 551,80 547,86.297 551.934,91.889 
		548.969,98.734 554.719,103.486 552.861,110.711 559.283,114.504 558.576,121.93 565.514,124.674 565.979,132.117 573.26,133.74 
		574.882,141.021 582.328,141.485 585.07,148.424 592.497,147.717 596.289,154.141 603.514,152.281 608.265,158.031 615.11,155.064 
		620.703,160 626.999,156.001 633.295,160 638.888,155.064 645.733,158.031 650.482,152.281 657.709,154.141 661.503,147.717 
		668.928,148.424 671.67,141.485 679.116,141.021 680.738,133.74 688.021,132.117 688.483,124.674 695.422,121.93 694.715,114.504 
		701.137,110.711 699.279,103.486 705.029,98.734 702.064,91.889 707,86.297 703,80 707,73.705 702.064,68.112 705.029,61.267 
		699.279,56.516 701.137,49.291 694.715,45.498 695.422,38.072 688.483,35.329 688.021,27.884 680.738,26.261 679.116,18.979 
		671.67,18.515 668.928,11.579 661.503,12.284 657.709,5.862 650.482,7.721 645.733,1.97 638.888,4.937 	"/>
	<g>
		<defs>
			<rect id="SVGID_1_" x="83" width="624" height="160"/>
		</defs>
		<clipPath id="SVGID_2_">
			<use xlink:href="#SVGID_1_"  overflow="visible"/>
		</clipPath>
		<path clip-path="url(#SVGID_2_)" fill="#FFFFFF" d="M660.552,100.58h2.544v-5.064c0-1.392,0.048-2.352,0.504-3.023
			c0.527-0.792,1.487-1.248,2.688-1.248c2.112,0,2.424,1.152,2.424,3.624v5.712h2.568v-6.744c0-1.344,0-2.352-0.552-3.191
			c-0.648-1.032-1.824-1.561-3.48-1.561c-1.943,0-3.264,0.648-4.296,2.208v-1.823h-2.399V100.58z M655.415,95.061
			c0,2.088-1.56,3.695-3.432,3.695c-1.896,0-3.432-1.607-3.432-3.695s1.535-3.696,3.432-3.696
			C653.879,91.364,655.415,92.973,655.415,95.061 M645.863,95.036c0,1.632,0.624,3.096,1.8,4.248
			c1.152,1.128,2.688,1.752,4.296,1.752c1.656,0,3.168-0.624,4.368-1.776c1.152-1.104,1.776-2.567,1.776-4.224
			c0-1.608-0.648-3.071-1.8-4.2c-1.177-1.152-2.688-1.752-4.345-1.752c-1.607,0-3.144,0.6-4.296,1.729
			C646.487,91.94,645.863,93.428,645.863,95.036 M640.415,84.668c0,0.864,0.721,1.608,1.608,1.608s1.584-0.696,1.584-1.608
			s-0.696-1.584-1.584-1.584S640.415,83.805,640.415,84.668 M640.751,100.58h2.544V89.469h-2.544V100.58z M634.2,100.58h2.544V91.7
			h1.944v-2.231h-1.944v-4.201H634.2v4.201h-1.944V91.7h1.944V100.58z M631.248,92.637V89.78c-0.863-0.479-1.823-0.696-2.951-0.696
			c-3.673,0-6.169,2.4-6.169,5.977c0,3.527,2.425,5.976,5.904,5.976c1.224,0,2.28-0.264,3.216-0.792v-2.928
			c-0.744,0.936-1.704,1.392-2.928,1.392c-2.208,0-3.552-1.392-3.552-3.72c0-2.232,1.368-3.672,3.432-3.672
			C629.425,91.316,630.48,91.797,631.248,92.637 M609.072,100.58h2.544v-5.064c0-1.392,0.048-2.352,0.504-3.023
			c0.528-0.792,1.488-1.248,2.688-1.248c2.111,0,2.424,1.152,2.424,3.624v5.712h2.568v-6.744c0-1.344,0-2.352-0.553-3.191
			c-0.647-1.032-1.823-1.561-3.479-1.561c-1.944,0-3.265,0.648-4.296,2.208v-1.823h-2.4V100.58z M597.672,89.469h-2.544v5.496
			c0,4.176,1.513,6.071,5.4,6.071c3.816,0,5.353-1.92,5.353-6.071v-5.496h-2.545v6.264c0,2.088-0.768,3.023-2.832,3.023
			c-2.063,0-2.832-0.936-2.832-3.023V89.469z M583.057,100.58h2.784v-8.064h6.792v-2.447h-6.792v-4.271h6.792V83.42h-9.576V100.58z"
			/>
		<path clip-path="url(#SVGID_2_)" fill="#FFFFFF" d="M664.668,76.58h2.544V58.412h-2.544V76.58z M661.283,76.58V65.468h-2.544
			v1.824c-0.6-1.416-1.92-2.208-3.743-2.208c-2.929,0-4.992,2.352-4.992,5.928c0,3.792,1.968,6.024,5.063,6.024
			c1.561,0,2.76-0.624,3.672-1.896v1.44H661.283z M658.812,70.988c0,2.352-1.344,3.792-3.096,3.792c-1.92,0-3.048-1.32-3.048-3.696
			c0-2.352,1.176-3.744,3.096-3.744C657.659,67.34,658.812,68.66,658.812,70.988 M648.468,68.636V65.78
			c-0.864-0.48-1.824-0.696-2.952-0.696c-3.672,0-6.168,2.4-6.168,5.976c0,3.528,2.424,5.976,5.904,5.976
			c1.224,0,2.279-0.264,3.216-0.792v-2.928c-0.744,0.936-1.704,1.392-2.928,1.392c-2.208,0-3.553-1.392-3.553-3.72
			c0-2.232,1.368-3.672,3.433-3.672C646.644,67.316,647.699,67.796,648.468,68.636 M633.9,60.668c0,0.864,0.721,1.608,1.608,1.608
			s1.584-0.696,1.584-1.608c0-0.912-0.696-1.584-1.584-1.584S633.9,59.804,633.9,60.668 M634.236,76.58h2.544V65.468h-2.544V76.58z
			 M622.86,74.564c0.816,1.68,2.232,2.472,4.393,2.472c2.903,0,4.536-1.392,4.536-3.552c0-1.608-0.912-2.52-2.856-3.288
			c-1.728-0.696-2.928-0.864-2.928-1.944c0-0.768,0.624-1.272,1.607-1.272c0.889,0,1.584,0.456,1.849,1.152l1.8-1.248
			c-0.552-1.152-1.8-1.824-3.552-1.824c-2.641,0-4.248,1.416-4.248,3.336c0,1.608,1.08,2.472,3.191,3.36
			c1.536,0.648,2.641,0.744,2.641,1.896c0,0.888-0.672,1.464-1.824,1.464c-1.344,0-2.185-0.6-2.496-1.704L622.86,74.564z
			 M614.988,81.812l8.017-16.344h-2.761l-2.735,5.928c-0.312,0.696-0.624,1.368-0.792,2.016c-0.096-0.696-0.265-1.44-0.528-2.184
			l-2.04-5.76h-2.808l4.08,10.152l-3.048,6.192H614.988z M599.196,76.58h2.544v-5.064c0-1.392,0.049-2.352,0.504-3.024
			c0.528-0.792,1.488-1.248,2.688-1.248c2.112,0,2.424,1.152,2.424,3.624v5.712h2.568v-6.744c0-1.344,0-2.352-0.552-3.192
			c-0.648-1.032-1.824-1.56-3.48-1.56c-1.944,0-3.264,0.648-4.296,2.208v-8.88h-2.4V76.58z M589.669,66.596V61.82h0.72
			c2.592,0,3.864,0.432,3.864,2.496c0,1.992-1.296,2.28-3.864,2.28H589.669z M589.501,68.876h1.607c1.752,0,3.145-0.048,4.296-0.864
			c1.057-0.768,1.729-2.208,1.729-3.864c0-1.656-0.672-3.072-1.729-3.84c-1.151-0.84-2.544-0.888-4.296-0.888h-4.224v17.16h2.616
			V68.876z"/>
		<path clip-path="url(#SVGID_2_)" fill="#FFFFFF" d="M434.168,83.396v-0.48c0-3.696-2.112-5.832-5.688-5.832
			c-3.456,0-5.832,2.52-5.832,5.977c0,3.623,2.28,5.976,5.832,5.976c2.496,0,4.32-1.08,5.568-3.312l-2.137-1.2
			c-0.815,1.536-1.848,2.184-3.479,2.184c-1.848,0-3.024-1.224-3.145-3.312H434.168z M431.527,81.692h-6.071
			c0.407-1.656,1.415-2.448,3.071-2.448C430.279,79.244,431.336,80.084,431.527,81.692 M412.063,77.468h-2.544v5.497
			c0,4.176,1.512,6.071,5.4,6.071c3.815,0,5.352-1.92,5.352-6.071v-5.497h-2.544v6.264c0,2.088-0.768,3.023-2.832,3.023
			c-2.063,0-2.832-0.936-2.832-3.023V77.468z M403.855,82.988c0,2.352-1.344,3.792-3.096,3.792c-1.92,0-3.048-1.32-3.048-3.696
			c0-2.352,1.176-3.744,3.096-3.744C402.703,79.34,403.855,80.66,403.855,82.988 M406.327,87.885V77.468h-2.544v1.824
			c-0.6-1.416-1.92-2.208-3.743-2.208c-2.929,0-4.992,2.352-4.992,5.928c0,3.793,1.968,6.024,5.063,6.024
			c1.561,0,2.76-0.624,3.672-1.896l-0.023,1.463c-0.024,2.089-0.744,3.121-3.072,3.121c-1.488,0-2.304-0.528-2.376-1.465h-2.736
			c0.024,2.088,1.92,3.553,5.064,3.553C404.936,93.812,406.327,92.036,406.327,87.885 M389.6,72.668c0,0.864,0.72,1.608,1.608,1.608
			c0.888,0,1.584-0.696,1.584-1.608c0-0.912-0.696-1.584-1.584-1.584C390.319,71.084,389.6,71.804,389.6,72.668 M389.936,88.58
			h2.544V77.468h-2.544V88.58z M383.385,88.58h2.544V79.7h1.944v-2.232h-1.944v-4.2h-2.544v4.2h-1.944V79.7h1.944V88.58z
			 M379.521,88.58V77.468h-2.544v1.824c-0.6-1.416-1.92-2.208-3.744-2.208c-2.928,0-4.992,2.352-4.992,5.928
			c0,3.793,1.969,6.024,5.064,6.024c1.56,0,2.76-0.624,3.672-1.896v1.439H379.521z M377.049,82.988c0,2.352-1.344,3.792-3.097,3.792
			c-1.92,0-3.048-1.32-3.048-3.696c0-2.352,1.177-3.744,3.097-3.744C375.896,79.34,377.049,80.66,377.049,82.988 M356.912,88.58
			h2.784v-8.064h6.792v-2.447h-6.792v-4.272h6.792V71.42h-9.576V88.58z"/>
		<path clip-path="url(#SVGID_2_)" fill="#FFFFFF" d="M173.848,88.58h2.544v-5.064c0-1.392,0.048-2.352,0.504-3.023
			c0.528-0.792,1.488-1.248,2.688-1.248c2.111,0,2.424,1.152,2.424,3.624v5.712h2.567v-6.744c0-1.344,0-2.352-0.552-3.192
			c-0.647-1.032-1.824-1.56-3.479-1.56c-1.944,0-3.265,0.648-4.297,2.208v-1.824h-2.399V88.58z M167.585,72.668
			c0,0.864,0.72,1.608,1.607,1.608s1.584-0.696,1.584-1.608c0-0.912-0.696-1.584-1.584-1.584S167.585,71.804,167.585,72.668
			 M167.921,88.58h2.544V77.468h-2.544V88.58z M164.536,88.58V77.468h-2.544v1.824c-0.6-1.416-1.92-2.208-3.743-2.208
			c-2.929,0-4.992,2.352-4.992,5.928c0,3.793,1.968,6.024,5.063,6.024c1.561,0,2.76-0.624,3.672-1.896v1.439H164.536z
			 M162.064,82.988c0,2.352-1.344,3.792-3.096,3.792c-1.92,0-3.048-1.32-3.048-3.696c0-2.352,1.176-3.744,3.096-3.744
			C160.912,79.34,162.064,80.66,162.064,82.988 M144.545,78.596V73.82h0.72c2.592,0,3.864,0.432,3.864,2.496
			c0,1.992-1.296,2.28-3.864,2.28H144.545z M144.377,80.876h1.607c1.752,0,3.145-0.048,4.296-0.864
			c1.057-0.768,1.729-2.208,1.729-3.863c0-1.656-0.672-3.072-1.729-3.84c-1.151-0.84-2.544-0.888-4.296-0.888h-4.224v17.16h2.616
			V80.876z"/>
	</g>
</g>
</svg>
