<?xml version="1.0" encoding="utf-8"?>
<!-- Generator: Adobe Illustrator 15.1.0, SVG Export Plug-In . SVG Version: 6.00 Build 0)  -->
<!DOCTYPE svg PUBLIC "-//W3C//DTD SVG 1.1//EN" "http://www.w3.org/Graphics/SVG/1.1/DTD/svg11.dtd">
<svg version="1.1" id="art" xmlns="http://www.w3.org/2000/svg" xmlns:xlink="http://www.w3.org/1999/xlink" x="0px" y="0px"
	 width="912px" height="381px" viewBox="0 0 912 381" enable-background="new 0 0 912 381" xml:space="preserve">
<polygon fill="#FAA35E" points="150.937,53.352 143.066,48.353 136.075,54.523 127.52,50.815 121.58,58.003 112.548,55.679 
	107.808,63.707 98.524,62.825 95.096,71.495 85.791,72.077 83.761,81.177 74.661,83.206 74.081,92.513 65.408,95.942 
	66.291,105.224 58.262,109.966 60.585,118.995 53.398,124.935 57.105,133.492 50.937,140.483 55.937,148.352 50.937,156.223 
	57.105,163.213 53.398,171.77 60.585,177.71 58.262,186.741 66.291,191.48 65.408,200.764 74.081,204.193 74.661,213.498 
	83.761,215.527 85.791,224.629 95.096,225.209 98.524,233.881 107.808,232.998 112.548,241.027 121.58,238.703 127.52,245.891 
	136.075,242.182 143.066,248.352 150.937,243.352 158.807,248.352 165.796,242.182 174.354,245.891 180.292,238.703 
	189.324,241.027 194.065,232.998 203.348,233.881 206.775,225.209 216.082,224.629 218.11,215.527 227.213,213.498 227.792,204.193 
	236.464,200.764 235.582,191.48 243.608,186.741 241.287,177.71 248.475,171.77 244.767,163.213 250.937,156.223 245.937,148.352 
	250.937,140.483 244.767,133.492 248.475,124.935 241.287,118.995 243.608,109.966 235.582,105.224 236.464,95.942 227.792,92.513 
	227.213,83.206 218.11,81.177 216.082,72.077 206.775,71.495 203.348,62.825 194.065,63.707 189.324,55.679 180.292,58.003 
	174.354,50.815 165.796,54.523 158.807,48.353 "/>
<polygon fill="#FAA35E" points="462.808,48.352 454.937,53.352 447.066,48.352 440.075,54.522 431.52,50.814 425.579,58.002 
	416.551,55.678 411.809,63.706 402.524,62.824 399.098,71.495 389.791,72.076 387.762,81.177 378.661,83.206 378.082,92.512 
	369.409,95.941 370.291,105.223 362.263,109.965 364.586,118.995 357.398,124.935 361.105,133.491 354.937,140.482 359.937,148.352 
	354.937,156.223 361.105,163.213 357.398,171.77 364.586,177.709 362.263,186.74 370.291,191.48 369.409,200.764 378.082,204.193 
	378.661,213.498 387.762,215.527 389.791,224.629 399.098,225.209 402.524,233.881 411.809,232.998 416.551,241.027 
	425.579,238.703 431.52,245.891 440.075,242.182 447.066,248.352 454.937,243.352 462.808,248.352 469.798,242.182 478.354,245.891 
	484.294,238.703 493.323,241.027 498.065,232.998 507.349,233.881 510.776,225.209 520.083,224.629 522.112,215.527 
	531.214,213.498 531.794,204.193 540.466,200.764 539.583,191.48 547.61,186.74 545.288,177.709 552.476,171.77 548.767,163.213 
	554.937,156.223 549.937,148.352 554.937,140.482 548.767,133.491 552.476,124.935 545.288,118.995 547.61,109.965 539.583,105.223 
	540.466,95.941 531.794,92.512 531.214,83.206 522.112,81.177 520.083,72.076 510.776,71.495 507.349,62.824 498.065,63.706 
	493.323,55.678 484.294,58.002 478.354,50.814 469.798,54.522 "/>
<polygon fill="#FAA35E" points="766.806,48.352 758.937,53.352 751.065,48.352 744.075,54.522 735.519,50.814 729.578,58.002 
	720.548,55.678 715.808,63.706 706.524,62.824 703.097,71.495 693.79,72.076 691.761,81.177 682.659,83.206 682.078,92.512 
	673.407,95.941 674.29,105.223 666.263,109.965 668.585,118.995 661.397,124.935 665.104,133.491 658.937,140.482 663.937,148.352 
	658.937,156.223 665.104,163.213 661.397,171.77 668.585,177.709 666.263,186.74 674.29,191.48 673.407,200.764 682.078,204.193 
	682.659,213.498 691.761,215.527 693.79,224.629 703.097,225.209 706.524,233.881 715.808,232.998 720.548,241.027 729.578,238.703 
	735.519,245.891 744.075,242.182 751.065,248.352 758.937,243.352 766.806,248.352 773.796,242.182 782.353,245.891 788.29,238.703 
	797.323,241.027 802.065,232.998 811.347,233.881 814.774,225.209 824.081,224.629 826.11,215.527 835.212,213.498 835.79,204.193 
	844.464,200.764 843.581,191.48 851.608,186.74 849.285,177.709 856.474,171.77 852.767,163.213 858.937,156.223 853.937,148.352 
	858.937,140.482 852.767,133.491 856.474,124.935 849.285,118.995 851.608,109.965 843.581,105.223 844.464,95.941 835.79,92.512 
	835.212,83.206 826.11,81.177 824.081,72.076 814.774,71.495 811.347,62.824 802.065,63.706 797.323,55.678 788.29,58.002 
	782.353,50.814 773.796,54.522 "/>
<g>
	<defs>
		<rect id="SVGID_1_" x="50.937" width="810.127" height="380.393"/>
	</defs>
	<clipPath id="SVGID_2_">
		<use xlink:href="#SVGID_1_"  overflow="visible"/>
	</clipPath>
	<path clip-path="url(#SVGID_2_)" fill="#006227" d="M856.201,19.942h2.757v-9.62h2.105V7.904h-2.105v-4.55h-2.757v4.55h-2.105
		v2.418h2.105V19.942z M840.523,19.942h2.756v-5.486c0-1.508,0.053-2.548,0.546-3.276c0.572-0.858,1.612-1.352,2.912-1.352
		c2.288,0,2.626,1.248,2.626,3.926v6.188h2.782v-7.306c0-1.456,0-2.548-0.598-3.458c-0.702-1.118-1.977-1.69-3.771-1.69
		c-2.105,0-3.536,0.702-4.653,2.392V7.904h-2.601V19.942z M837.924,14.326v-0.52c0-4.004-2.288-6.318-6.162-6.318
		c-3.744,0-6.318,2.73-6.318,6.474c0,3.926,2.471,6.474,6.318,6.474c2.704,0,4.68-1.17,6.032-3.588l-2.314-1.3
		c-0.884,1.664-2.002,2.366-3.77,2.366c-2.002,0-3.276-1.326-3.406-3.588H837.924z M835.063,12.48h-6.578
		c0.442-1.794,1.534-2.652,3.328-2.652C833.712,9.828,834.855,10.738,835.063,12.48 M806.594,19.942v-5.486
		c0-1.482,0-2.496,0.468-3.276c0.521-0.858,1.456-1.378,2.548-1.378c1.898,0,2.393,1.222,2.393,3.952v6.188h2.781v-5.486
		c0-3.094,0.624-4.654,3.017-4.654c2.08,0,2.34,1.3,2.34,3.952v6.188h2.756v-8.268c0-1.014-0.052-1.846-0.441-2.496
		c-0.65-1.092-1.847-1.716-3.459-1.716c-1.871,0-3.224,0.754-4.472,2.392c-0.649-1.612-1.872-2.392-3.744-2.392
		c-1.924,0-3.25,0.754-4.342,2.418V7.904h-2.6v12.038H806.594z M793.932,25.61l8.684-17.706h-2.989l-2.965,6.422
		c-0.338,0.754-0.676,1.482-0.857,2.184c-0.104-0.754-0.286-1.56-0.572-2.366l-2.21-6.24h-3.042l4.42,10.998l-3.302,6.708H793.932z
		 M786.288,13.962c0,2.262-1.69,4.004-3.719,4.004c-2.054,0-3.718-1.742-3.718-4.004c0-2.262,1.664-4.004,3.718-4.004
		C784.624,9.958,786.288,11.7,786.288,13.962 M775.939,13.936c0,1.768,0.676,3.354,1.95,4.602c1.248,1.222,2.912,1.898,4.654,1.898
		c1.794,0,3.432-0.676,4.731-1.924c1.248-1.196,1.924-2.782,1.924-4.576c0-1.742-0.701-3.328-1.949-4.55
		c-1.274-1.248-2.912-1.898-4.706-1.898c-1.742,0-3.406,0.65-4.654,1.872C776.615,10.583,775.939,12.194,775.939,13.936
		 M770.038,2.704c0,0.936,0.779,1.742,1.741,1.742s1.716-0.754,1.716-1.742c0-0.988-0.754-1.716-1.716-1.716
		S770.038,1.768,770.038,2.704 M770.401,25.61h2.756V7.904h-2.756V25.61z M755.245,19.942H758v-5.486
		c0-1.508,0.052-2.548,0.547-3.276c0.571-0.858,1.611-1.352,2.911-1.352c2.289,0,2.627,1.248,2.627,3.926v6.188h2.781v-7.306
		c0-1.456,0-2.548-0.599-3.458c-0.701-1.118-1.976-1.69-3.769-1.69c-2.106,0-3.536,0.702-4.655,2.392V7.904h-2.599V19.942z
		 M741.906,19.942h10.374v-2.704h-7.357v-6.006h7.357V8.58h-7.357V3.926h7.357V1.352h-10.374V19.942z M724.175,25.61l8.684-17.706
		h-2.99l-2.964,6.422c-0.338,0.754-0.676,1.482-0.857,2.184c-0.104-0.754-0.286-1.56-0.572-2.366l-2.21-6.24h-3.042l4.42,10.998
		l-3.302,6.708H724.175z M715.673,19.942h2.756V0.26h-2.756V19.942z M708.757,2.704c0,0.936,0.779,1.742,1.742,1.742
		c0.962,0,1.716-0.754,1.716-1.742c0-0.988-0.754-1.716-1.716-1.716C709.536,0.988,708.757,1.768,708.757,2.704 M709.12,19.942
		h2.757V7.904h-2.757V19.942z M689.257,19.942v-5.486c0-1.482,0-2.496,0.468-3.276c0.521-0.858,1.456-1.378,2.548-1.378
		c1.898,0,2.393,1.222,2.393,3.952v6.188h2.781v-5.486c0-3.094,0.624-4.654,3.017-4.654c2.08,0,2.34,1.3,2.34,3.952v6.188h2.756
		v-8.268c0-1.014-0.052-1.846-0.442-2.496c-0.649-1.092-1.846-1.716-3.458-1.716c-1.872,0-3.224,0.754-4.472,2.392
		c-0.65-1.612-1.872-2.392-3.744-2.392c-1.924,0-3.25,0.754-4.342,2.418V7.904h-2.6v12.038H689.257z M682.966,19.942V7.904h-2.756
		V9.88c-0.65-1.534-2.08-2.392-4.057-2.392c-3.172,0-5.408,2.548-5.408,6.422c0,4.108,2.133,6.526,5.486,6.526
		c1.69,0,2.99-0.676,3.979-2.054v1.56H682.966z M680.288,13.884c0,2.548-1.456,4.108-3.354,4.108c-2.08,0-3.302-1.43-3.302-4.004
		c0-2.548,1.273-4.056,3.354-4.056C679.04,9.932,680.288,11.362,680.288,13.884 M658.474,19.942h3.016v-8.736h7.358V8.554h-7.358
		V3.926h7.358V1.352h-10.374V19.942z"/>
	<path clip-path="url(#SVGID_2_)" fill="#006227" d="M538.032,19.942h2.756v-6.214l5.407,6.214h3.562l-5.98-6.734l5.46-5.304h-3.405
		l-5.044,4.992V0.26h-2.756V19.942z M531.479,9.828v-1.95h-2.756v12.064h2.756v-5.278c0-3.25,0.624-4.784,2.574-4.784
		c0.624,0,1.17,0.13,1.69,0.494l0.987-2.34c-0.728-0.364-1.481-0.546-2.262-0.546C533.014,7.488,532.078,8.242,531.479,9.828
		 M523.16,13.962c0,2.262-1.69,4.004-3.719,4.004c-2.054,0-3.718-1.742-3.718-4.004c0-2.262,1.664-4.004,3.718-4.004
		C521.496,9.958,523.16,11.7,523.16,13.962 M512.812,13.936c0,1.768,0.676,3.354,1.95,4.602c1.248,1.222,2.912,1.898,4.654,1.898
		c1.794,0,3.432-0.676,4.731-1.924c1.248-1.196,1.924-2.782,1.924-4.576c0-1.742-0.701-3.328-1.949-4.55
		c-1.274-1.248-2.912-1.898-4.706-1.898c-1.742,0-3.406,0.65-4.654,1.872C513.487,10.583,512.812,12.194,512.812,13.936
		 M487.565,1.352l7.177,19.318l4.159-10.556c0.338-0.858,0.624-1.742,0.885-2.652c0.233,0.806,0.546,1.69,0.909,2.6l4.238,10.608
		l7.202-19.318h-3.016l-3.484,9.464c-0.39,1.066-0.702,2.002-0.91,2.886c-0.312-1.092-0.649-2.08-0.988-2.964l-3.926-10.114
		l-3.744,9.932c-0.104,0.312-0.468,1.326-1.014,3.12c-0.286-0.988-0.624-1.95-0.988-2.938l-3.51-9.386H487.565z M479.35,14.326
		v-0.52c0-4.004-2.288-6.318-6.162-6.318c-3.744,0-6.317,2.73-6.317,6.474c0,3.926,2.47,6.474,6.317,6.474
		c2.704,0,4.681-1.17,6.032-3.588l-2.314-1.3c-0.884,1.664-2.002,2.366-3.77,2.366c-2.002,0-3.276-1.326-3.406-3.588H479.35z
		 M476.489,12.48h-6.577c0.441-1.794,1.533-2.652,3.327-2.652C475.138,9.828,476.281,10.738,476.489,12.48 M459.98,20.67
		l6.318-12.766h-2.99l-2.626,6.058c-0.312,0.728-0.546,1.456-0.702,2.184c-0.286-1.118-0.52-1.846-0.676-2.184l-2.626-6.058h-3.016
		L459.98,20.67z M448.957,2.704c0,0.936,0.779,1.742,1.741,1.742c0.963,0,1.717-0.754,1.717-1.742c0-0.988-0.754-1.716-1.717-1.716
		C449.736,0.988,448.957,1.768,448.957,2.704 M449.32,19.942h2.757V7.904h-2.757V19.942z M442.223,19.942h2.756v-9.62h2.106V7.904
		h-2.106v-4.55h-2.756v4.55h-2.105v2.418h2.105V19.942z M439.024,11.336V8.242c-0.936-0.52-1.976-0.754-3.197-0.754
		c-3.979,0-6.683,2.6-6.683,6.474c0,3.822,2.626,6.474,6.396,6.474c1.326,0,2.47-0.286,3.483-0.858v-3.172
		c-0.806,1.014-1.846,1.508-3.172,1.508c-2.392,0-3.848-1.508-3.848-4.03c0-2.418,1.481-3.978,3.718-3.978
		C437.049,9.906,438.192,10.426,439.024,11.336 M417.679,7.904h-2.756v5.954c0,4.524,1.638,6.578,5.85,6.578
		c4.134,0,5.798-2.08,5.798-6.578V7.904h-2.756v6.786c0,2.262-0.832,3.276-3.067,3.276c-2.236,0-3.068-1.014-3.068-3.276V7.904z
		 M408.788,13.884c0,2.548-1.431,4.108-3.354,4.108c-2.08,0-3.302-1.43-3.302-4.004c0-2.548,1.273-4.056,3.354-4.056
		C407.54,9.932,408.788,11.362,408.788,13.884 M408.71,0.26v9.62c-0.65-1.534-2.08-2.392-4.057-2.392
		c-3.172,0-5.407,2.548-5.407,6.422c0,4.108,2.132,6.526,5.485,6.526c1.69,0,2.99-0.676,3.979-2.054v1.56h2.756V0.26H408.71z
		 M394.565,13.962c0,2.262-1.689,4.004-3.718,4.004c-2.054,0-3.718-1.742-3.718-4.004c0-2.262,1.664-4.004,3.718-4.004
		S394.565,11.7,394.565,13.962 M384.218,13.936c0,1.768,0.676,3.354,1.95,4.602c1.248,1.222,2.912,1.898,4.653,1.898
		c1.795,0,3.433-0.676,4.732-1.924c1.248-1.196,1.924-2.782,1.924-4.576c0-1.742-0.702-3.328-1.95-4.55
		c-1.273-1.248-2.911-1.898-4.706-1.898c-1.741,0-3.405,0.65-4.653,1.872C384.894,10.583,384.218,12.194,384.218,13.936
		 M378.55,9.828v-1.95h-2.756v12.064h2.756v-5.278c0-3.25,0.624-4.784,2.574-4.784c0.624,0,1.17,0.13,1.689,0.494l0.988-2.34
		c-0.729-0.364-1.482-0.546-2.262-0.546C380.084,7.488,379.147,8.242,378.55,9.828 M365.472,9.126V3.952h0.78
		c2.808,0,4.186,0.468,4.186,2.704c0,2.158-1.403,2.47-4.186,2.47H365.472z M365.29,11.596h1.741c1.898,0,3.406-0.052,4.654-0.936
		c1.145-0.832,1.872-2.392,1.872-4.186s-0.728-3.328-1.872-4.16c-1.248-0.91-2.756-0.962-4.654-0.962h-4.575v18.59h2.834V11.596z"/>
	<path clip-path="url(#SVGID_2_)" fill="#006227" d="M227.714,14.326v-0.52c0-4.004-2.288-6.318-6.162-6.318
		c-3.744,0-6.318,2.73-6.318,6.474c0,3.926,2.47,6.474,6.318,6.474c2.704,0,4.68-1.17,6.031-3.588l-2.313-1.3
		c-0.884,1.664-2.002,2.366-3.771,2.366c-2.002,0-3.275-1.326-3.405-3.588H227.714z M224.854,12.48h-6.578
		c0.442-1.794,1.534-2.652,3.328-2.652C223.501,9.828,224.646,10.738,224.854,12.48 M208.812,19.942h2.756v-9.62h2.886V7.904h-2.886
		v-2.86c0-1.846,0.468-2.678,1.846-2.678c0.469,0,0.91,0.13,1.353,0.39V0.26c-0.676-0.182-1.3-0.26-1.872-0.26
		c-2.809,0-4.082,1.508-4.082,4.68v3.224h-2.106v2.418h2.106V19.942z M201.636,2.704c0,0.936,0.779,1.742,1.741,1.742
		c0.963,0,1.717-0.754,1.717-1.742c0-0.988-0.754-1.716-1.717-1.716C202.415,0.988,201.636,1.768,201.636,2.704 M201.999,19.942
		h2.757V7.904h-2.757V19.942z M190.145,19.942h9.776v-2.704h-6.761V1.352h-3.016V19.942z M179.771,11.336V8.242
		c-0.937-0.52-1.977-0.754-3.198-0.754c-3.978,0-6.682,2.6-6.682,6.474c0,3.822,2.626,6.474,6.396,6.474
		c1.326,0,2.471-0.286,3.484-0.858v-3.172c-0.806,1.014-1.846,1.508-3.172,1.508c-2.392,0-3.848-1.508-3.848-4.03
		c0-2.418,1.482-3.978,3.718-3.978C177.794,9.906,178.938,10.426,179.771,11.336 M163.988,2.704c0,0.936,0.78,1.742,1.742,1.742
		s1.716-0.754,1.716-1.742c0-0.988-0.754-1.716-1.716-1.716S163.988,1.768,163.988,2.704 M164.353,19.942h2.756V7.904h-2.756V19.942
		z M157.255,19.942h2.756v-9.62h2.106V7.904h-2.106v-4.55h-2.756v4.55h-2.106v2.418h2.106V19.942z M144.412,17.758
		c0.884,1.82,2.418,2.678,4.758,2.678c3.146,0,4.914-1.508,4.914-3.848c0-1.742-0.988-2.73-3.094-3.562
		c-1.872-0.754-3.172-0.936-3.172-2.106c0-0.832,0.676-1.378,1.742-1.378c0.962,0,1.716,0.494,2.002,1.248l1.95-1.352
		c-0.598-1.248-1.95-1.976-3.848-1.976c-2.86,0-4.602,1.534-4.602,3.614c0,1.742,1.17,2.678,3.458,3.64
		c1.664,0.702,2.86,0.806,2.86,2.054c0,0.962-0.728,1.586-1.976,1.586c-1.456,0-2.366-0.65-2.704-1.846L144.412,17.758z
		 M143.189,14.326v-0.52c0-4.004-2.288-6.318-6.162-6.318c-3.744,0-6.318,2.73-6.318,6.474c0,3.926,2.47,6.474,6.318,6.474
		c2.704,0,4.68-1.17,6.032-3.588l-2.314-1.3c-0.884,1.664-2.002,2.366-3.77,2.366c-2.002,0-3.276-1.326-3.406-3.588H143.189z
		 M140.33,12.48h-6.578c0.442-1.794,1.534-2.652,3.328-2.652C138.978,9.828,140.122,10.738,140.33,12.48 M111.859,19.942v-5.486
		c0-1.482,0-2.496,0.468-3.276c0.52-0.858,1.456-1.378,2.548-1.378c1.898,0,2.392,1.222,2.392,3.952v6.188h2.782v-5.486
		c0-3.094,0.624-4.654,3.016-4.654c2.08,0,2.34,1.3,2.34,3.952v6.188h2.756v-8.268c0-1.014-0.052-1.846-0.442-2.496
		c-0.65-1.092-1.846-1.716-3.458-1.716c-1.872,0-3.224,0.754-4.472,2.392c-0.65-1.612-1.872-2.392-3.744-2.392
		c-1.924,0-3.25,0.754-4.342,2.418V7.904h-2.6v12.038H111.859z M103.54,13.962c0,2.262-1.69,4.004-3.718,4.004
		c-2.054,0-3.718-1.742-3.718-4.004c0-2.262,1.664-4.004,3.718-4.004C101.875,9.958,103.54,11.7,103.54,13.962 M93.191,13.936
		c0,1.768,0.676,3.354,1.95,4.602c1.248,1.222,2.912,1.898,4.654,1.898c1.794,0,3.432-0.676,4.732-1.924
		c1.248-1.196,1.924-2.782,1.924-4.576c0-1.742-0.702-3.328-1.95-4.55c-1.274-1.248-2.912-1.898-4.706-1.898
		c-1.742,0-3.406,0.65-4.654,1.872C93.867,10.583,93.191,12.194,93.191,13.936 M78.345,17.212V4.056h2.184
		c2.236,0,3.952,0.078,5.33,1.222c1.404,1.196,2.106,2.99,2.106,5.356s-0.702,4.16-2.106,5.356
		c-1.326,1.118-2.912,1.222-4.966,1.222H78.345z M75.33,19.942h4.888c3.016,0,5.46-0.078,7.618-1.742
		c2.132-1.638,3.276-4.212,3.276-7.54c0-3.328-1.144-5.928-3.276-7.566c-2.262-1.742-4.94-1.742-8.424-1.742H75.33V19.942z"/>
	<path clip-path="url(#SVGID_2_)" fill="#FFFFFF" d="M764.937,157.952h15.15l23.324-50.55v-2.55h-40.949v12h22.649L764.937,157.952z
		 M755.562,157.952v-11.4h-16.425l9.675-10.65c4.65-5.175,7.275-9.525,7.275-15.15c0-9.825-7.275-17.025-19.726-17.025
		c-12.149,0-19.875,7.425-19.875,19.575v0.375h12.9v-0.675c0-5.55,2.625-8.55,7.125-8.55c3.899,0,6.45,2.625,6.45,6.375
		c0,2.475-1.426,5.25-4.275,8.625l-24.075,28.5H755.562z"/>
	<path clip-path="url(#SVGID_2_)" fill="#FFFFFF" d="M496.187,157.952v-11.4h-16.425l9.675-10.65
		c4.65-5.175,7.275-9.525,7.275-15.15c0-9.825-7.275-17.025-19.726-17.025c-12.149,0-19.875,7.425-19.875,19.575v0.375h12.9v-0.675
		c0-5.55,2.625-8.55,7.125-8.55c3.899,0,6.45,2.625,6.45,6.375c0,2.475-1.426,5.25-4.275,8.625l-24.075,28.5H496.187z
		 M435.587,135.377h-13.125l9.824-15c0.825-1.275,2.25-3.375,3.676-6.675c-0.375,2.1-0.375,4.125-0.375,6.075V135.377z
		 M435.587,157.952h12.225v-12h5.925v-10.575h-5.925v-30.75h-16.65l-19.949,30.75v10.575h24.375V157.952z"/>
	<path clip-path="url(#SVGID_2_)" fill="#FFFFFF" d="M192.187,157.952v-11.4h-16.425l9.675-10.65
		c4.65-5.175,7.275-9.525,7.275-15.15c0-9.825-7.275-17.025-19.726-17.025c-12.15,0-19.875,7.425-19.875,19.575v0.375h12.9v-0.675
		c0-5.55,2.625-8.55,7.125-8.55c3.899,0,6.45,2.625,6.45,6.375c0,2.475-1.426,5.25-4.275,8.625l-24.075,28.5H192.187z
		 M145.236,104.852h-29.175l-4.425,28.2l1.8,1.05c2.775-2.925,6.225-4.35,10.5-4.35c6.45,0,10.8,4.125,10.8,9.675
		c0,5.775-3.825,9.3-10.65,9.3c-5.1,0-9.825-2.475-12.375-6.375l-1.125-0.225l-0.975,12.975c3.975,2.625,9.825,4.275,16.5,4.275
		c13.875,0,21.975-7.575,21.975-19.275c0-11.175-6.75-18.15-17.625-18.15c-2.1,0-4.275,0.3-6.6,0.75l1.05-6.9h20.325V104.852z"/>
	<path clip-path="url(#SVGID_2_)" fill="#FFFFFF" d="M817.016,186.822c0.68,1.4,1.859,2.06,3.66,2.06c2.42,0,3.779-1.16,3.779-2.96
		c0-1.34-0.76-2.1-2.38-2.74c-1.439-0.58-2.439-0.72-2.439-1.62c0-0.64,0.52-1.06,1.34-1.06c0.74,0,1.32,0.38,1.54,0.96l1.5-1.04
		c-0.46-0.96-1.5-1.52-2.96-1.52c-2.2,0-3.54,1.18-3.54,2.78c0,1.34,0.899,2.06,2.66,2.8c1.279,0.54,2.199,0.62,2.199,1.58
		c0,0.74-0.56,1.22-1.52,1.22c-1.12,0-1.82-0.5-2.08-1.42L817.016,186.822z M810.455,192.861l6.681-13.619h-2.301l-2.279,4.94
		c-0.26,0.58-0.521,1.14-0.66,1.68c-0.08-0.58-0.22-1.2-0.44-1.82l-1.699-4.8h-2.341l3.4,8.46l-2.54,5.159H810.455z
		 M806.137,188.502v-9.26h-2.12v1.52c-0.5-1.18-1.601-1.84-3.12-1.84c-2.44,0-4.16,1.96-4.16,4.94c0,3.16,1.64,5.02,4.22,5.02
		c1.301,0,2.301-0.52,3.061-1.58v1.2H806.137z M804.076,183.842c0,1.96-1.12,3.16-2.58,3.16c-1.6,0-2.54-1.1-2.54-3.08
		c0-1.96,0.98-3.12,2.58-3.12C803.116,180.802,804.076,181.902,804.076,183.842 M792.637,183.842c0,1.96-1.101,3.16-2.58,3.16
		c-1.601,0-2.54-1.1-2.54-3.08c0-1.96,0.979-3.12,2.58-3.12C791.677,180.802,792.637,181.902,792.637,183.842 M792.576,173.362v7.4
		c-0.5-1.18-1.6-1.84-3.12-1.84c-2.439,0-4.16,1.96-4.16,4.94c0,3.16,1.641,5.02,4.221,5.02c1.3,0,2.3-0.52,3.06-1.58v1.2h2.12
		v-15.14H792.576z M775.196,188.502h2.12v-15.14h-2.12V188.502z M770.156,188.502h2.12v-15.14h-2.12V188.502z M760.557,179.242
		h-2.12v4.58c0,3.48,1.26,5.06,4.5,5.06c3.18,0,4.46-1.6,4.46-5.06v-4.58h-2.12v5.22c0,1.74-0.64,2.52-2.36,2.52
		c-1.72,0-2.359-0.78-2.359-2.52V179.242z M752.876,188.502h2.12v-7.4h2.221v-1.86h-2.221v-2.2c0-1.42,0.36-2.06,1.42-2.06
		c0.36,0,0.7,0.1,1.04,0.3v-1.92c-0.52-0.14-1-0.2-1.439-0.2c-2.16,0-3.141,1.16-3.141,3.6v2.48h-1.619v1.86h1.619V188.502z
		 M744.737,184.182v-0.4c0-3.08-1.76-4.86-4.74-4.86c-2.88,0-4.859,2.1-4.859,4.98c0,3.02,1.899,4.98,4.859,4.98
		c2.08,0,3.601-0.9,4.641-2.76l-1.78-1c-0.68,1.28-1.54,1.82-2.9,1.82c-1.54,0-2.52-1.02-2.62-2.76H744.737z M742.537,182.762h-5.06
		c0.34-1.38,1.18-2.04,2.56-2.04C741.497,180.722,742.378,181.422,742.537,182.762 M730.777,180.722v-1.5h-2.12v9.28h2.12v-4.06
		c0-2.5,0.48-3.68,1.98-3.68c0.479,0,0.899,0.1,1.3,0.38l0.76-1.8c-0.56-0.28-1.14-0.42-1.74-0.42
		C731.957,178.922,731.237,179.502,730.777,180.722 M724.378,183.902c0,1.74-1.301,3.08-2.86,3.08c-1.58,0-2.86-1.34-2.86-3.08
		c0-1.74,1.28-3.08,2.86-3.08S724.378,182.163,724.378,183.902 M716.417,183.882c0,1.36,0.521,2.58,1.5,3.54
		c0.961,0.94,2.24,1.46,3.58,1.46c1.381,0,2.641-0.52,3.641-1.48c0.96-0.92,1.479-2.14,1.479-3.52c0-1.34-0.54-2.56-1.5-3.5
		c-0.979-0.96-2.239-1.46-3.62-1.46c-1.34,0-2.619,0.5-3.58,1.44C716.938,181.302,716.417,182.542,716.417,183.882 M711.878,181.442
		l1.579,7.06h2.16l-3.46-14.86l-4.12,8.98c-0.22,0.5-0.54,1.14-0.819,1.94c-0.4-1.04-0.66-1.68-0.78-1.94l-4.22-8.98l-3.381,14.86
		h2.141l1.54-7.04c0.14-0.64,0.24-1.3,0.26-1.98c0.18,0.64,0.42,1.24,0.7,1.82l3.74,7.78l3.739-7.62c0.32-0.66,0.54-1.3,0.66-1.98
		C711.758,180.542,711.817,181.182,711.878,181.442"/>
	<path clip-path="url(#SVGID_2_)" fill="#FFFFFF" d="M513.016,186.822c0.68,1.4,1.859,2.06,3.66,2.06c2.42,0,3.779-1.16,3.779-2.96
		c0-1.34-0.76-2.1-2.38-2.74c-1.439-0.58-2.439-0.72-2.439-1.62c0-0.64,0.52-1.06,1.34-1.06c0.74,0,1.32,0.38,1.54,0.96l1.5-1.04
		c-0.46-0.96-1.5-1.52-2.96-1.52c-2.2,0-3.54,1.18-3.54,2.78c0,1.34,0.899,2.06,2.66,2.8c1.279,0.54,2.199,0.62,2.199,1.58
		c0,0.74-0.56,1.22-1.52,1.22c-1.12,0-1.82-0.5-2.08-1.42L513.016,186.822z M506.455,192.861l6.681-13.619h-2.301l-2.279,4.94
		c-0.26,0.58-0.521,1.14-0.66,1.68c-0.08-0.58-0.22-1.2-0.44-1.82l-1.699-4.8h-2.341l3.4,8.46l-2.54,5.159H506.455z
		 M502.137,188.502v-9.26h-2.12v1.52c-0.5-1.18-1.601-1.84-3.12-1.84c-2.44,0-4.16,1.96-4.16,4.94c0,3.16,1.64,5.02,4.22,5.02
		c1.301,0,2.301-0.52,3.061-1.58v1.2H502.137z M500.076,183.842c0,1.96-1.12,3.16-2.58,3.16c-1.6,0-2.54-1.1-2.54-3.08
		c0-1.96,0.98-3.12,2.58-3.12C499.116,180.802,500.076,181.902,500.076,183.842 M488.637,183.842c0,1.96-1.101,3.16-2.58,3.16
		c-1.601,0-2.54-1.1-2.54-3.08c0-1.96,0.979-3.12,2.58-3.12C487.677,180.802,488.637,181.902,488.637,183.842 M488.576,173.362v7.4
		c-0.5-1.18-1.6-1.84-3.12-1.84c-2.439,0-4.16,1.96-4.16,4.94c0,3.16,1.641,5.02,4.221,5.02c1.3,0,2.3-0.52,3.06-1.58v1.2h2.12
		v-15.14H488.576z M471.196,188.502h2.12v-15.14h-2.12V188.502z M466.156,188.502h2.12v-15.14h-2.12V188.502z M456.557,179.242
		h-2.12v4.58c0,3.48,1.26,5.06,4.5,5.06c3.18,0,4.46-1.6,4.46-5.06v-4.58h-2.12v5.22c0,1.74-0.64,2.52-2.36,2.52
		c-1.72,0-2.359-0.78-2.359-2.52V179.242z M448.876,188.502h2.12v-7.4h2.221v-1.86h-2.221v-2.2c0-1.42,0.36-2.06,1.42-2.06
		c0.36,0,0.7,0.1,1.04,0.3v-1.92c-0.52-0.14-1-0.2-1.439-0.2c-2.16,0-3.141,1.16-3.141,3.6v2.48h-1.619v1.86h1.619V188.502z
		 M440.737,184.182v-0.4c0-3.08-1.76-4.86-4.74-4.86c-2.88,0-4.859,2.1-4.859,4.98c0,3.02,1.899,4.98,4.859,4.98
		c2.08,0,3.601-0.9,4.641-2.76l-1.78-1c-0.68,1.28-1.54,1.82-2.9,1.82c-1.54,0-2.52-1.02-2.62-2.76H440.737z M438.537,182.762h-5.06
		c0.34-1.38,1.18-2.04,2.56-2.04C437.497,180.722,438.377,181.422,438.537,182.762 M426.777,180.722v-1.5h-2.12v9.28h2.12v-4.06
		c0-2.5,0.48-3.68,1.98-3.68c0.479,0,0.899,0.1,1.3,0.38l0.76-1.8c-0.56-0.28-1.14-0.42-1.74-0.42
		C427.957,178.922,427.237,179.502,426.777,180.722 M420.377,183.902c0,1.74-1.3,3.08-2.859,3.08c-1.58,0-2.86-1.34-2.86-3.08
		c0-1.74,1.28-3.08,2.86-3.08S420.377,182.163,420.377,183.902 M412.417,183.882c0,1.36,0.521,2.58,1.5,3.54
		c0.96,0.94,2.24,1.46,3.58,1.46c1.38,0,2.641-0.52,3.641-1.48c0.96-0.92,1.479-2.14,1.479-3.52c0-1.34-0.54-2.56-1.5-3.5
		c-0.979-0.96-2.24-1.46-3.62-1.46c-1.34,0-2.62,0.5-3.58,1.44C412.938,181.302,412.417,182.542,412.417,183.882 M407.877,181.442
		l1.58,7.06h2.16l-3.46-14.86l-4.12,8.98c-0.22,0.5-0.54,1.14-0.819,1.94c-0.4-1.04-0.66-1.68-0.78-1.94l-4.22-8.98l-3.381,14.86
		h2.141l1.54-7.04c0.14-0.64,0.24-1.3,0.26-1.98c0.18,0.64,0.42,1.24,0.7,1.82l3.74,7.78l3.739-7.62c0.32-0.66,0.54-1.3,0.66-1.98
		C407.758,180.542,407.817,181.182,407.877,181.442"/>
	<path clip-path="url(#SVGID_2_)" fill="#FFFFFF" d="M209.016,186.822c0.68,1.4,1.859,2.06,3.66,2.06c2.42,0,3.779-1.16,3.779-2.96
		c0-1.34-0.76-2.1-2.38-2.74c-1.439-0.58-2.439-0.72-2.439-1.62c0-0.64,0.52-1.06,1.34-1.06c0.74,0,1.32,0.38,1.54,0.96l1.5-1.04
		c-0.46-0.96-1.5-1.52-2.96-1.52c-2.2,0-3.54,1.18-3.54,2.78c0,1.34,0.899,2.06,2.66,2.8c1.279,0.54,2.199,0.62,2.199,1.58
		c0,0.74-0.56,1.22-1.52,1.22c-1.12,0-1.82-0.5-2.08-1.42L209.016,186.822z M202.455,192.861l6.681-13.619h-2.301l-2.279,4.94
		c-0.26,0.58-0.521,1.14-0.66,1.68c-0.08-0.58-0.22-1.2-0.44-1.82l-1.699-4.8h-2.341l3.4,8.46l-2.54,5.159H202.455z
		 M198.137,188.502v-9.26h-2.12v1.52c-0.5-1.18-1.601-1.84-3.12-1.84c-2.44,0-4.16,1.96-4.16,4.94c0,3.16,1.64,5.02,4.22,5.02
		c1.301,0,2.301-0.52,3.061-1.58v1.2H198.137z M196.076,183.842c0,1.96-1.12,3.16-2.58,3.16c-1.6,0-2.54-1.1-2.54-3.08
		c0-1.96,0.98-3.12,2.58-3.12C195.116,180.802,196.076,181.902,196.076,183.842 M184.637,183.842c0,1.96-1.101,3.16-2.58,3.16
		c-1.601,0-2.54-1.1-2.54-3.08c0-1.96,0.979-3.12,2.58-3.12C183.677,180.802,184.637,181.902,184.637,183.842 M184.576,173.362v7.4
		c-0.5-1.18-1.6-1.84-3.12-1.84c-2.439,0-4.159,1.96-4.159,4.94c0,3.16,1.64,5.02,4.22,5.02c1.3,0,2.3-0.52,3.06-1.58v1.2h2.12
		v-15.14H184.576z M167.196,188.502h2.12v-15.14h-2.12V188.502z M162.156,188.502h2.12v-15.14h-2.12V188.502z M152.557,179.242
		h-2.12v4.58c0,3.48,1.26,5.06,4.5,5.06c3.18,0,4.46-1.6,4.46-5.06v-4.58h-2.12v5.22c0,1.74-0.64,2.52-2.36,2.52
		c-1.72,0-2.36-0.78-2.36-2.52V179.242z M144.876,188.502h2.12v-7.4h2.22v-1.86h-2.22v-2.2c0-1.42,0.36-2.06,1.42-2.06
		c0.36,0,0.7,0.1,1.04,0.3v-1.92c-0.52-0.14-1-0.2-1.44-0.2c-2.16,0-3.14,1.16-3.14,3.6v2.48h-1.62v1.86h1.62V188.502z
		 M136.737,184.182v-0.4c0-3.08-1.76-4.86-4.74-4.86c-2.88,0-4.86,2.1-4.86,4.98c0,3.02,1.9,4.98,4.86,4.98
		c2.08,0,3.6-0.9,4.64-2.76l-1.78-1c-0.68,1.28-1.54,1.82-2.9,1.82c-1.54,0-2.52-1.02-2.62-2.76H136.737z M134.538,182.762h-5.06
		c0.34-1.38,1.18-2.04,2.56-2.04C133.498,180.722,134.377,181.422,134.538,182.762 M122.777,180.722v-1.5h-2.12v9.28h2.12v-4.06
		c0-2.5,0.48-3.68,1.98-3.68c0.48,0,0.9,0.1,1.3,0.38l0.76-1.8c-0.56-0.28-1.14-0.42-1.74-0.42
		C123.958,178.922,123.237,179.502,122.777,180.722 M116.377,183.902c0,1.74-1.3,3.08-2.86,3.08c-1.58,0-2.86-1.34-2.86-3.08
		c0-1.74,1.28-3.08,2.86-3.08S116.377,182.163,116.377,183.902 M108.417,183.882c0,1.36,0.52,2.58,1.5,3.54
		c0.96,0.94,2.24,1.46,3.58,1.46c1.38,0,2.64-0.52,3.64-1.48c0.96-0.92,1.48-2.14,1.48-3.52c0-1.34-0.54-2.56-1.5-3.5
		c-0.98-0.96-2.24-1.46-3.62-1.46c-1.34,0-2.62,0.5-3.58,1.44C108.938,181.302,108.417,182.542,108.417,183.882 M103.877,181.442
		l1.58,7.06h2.16l-3.46-14.86l-4.12,8.98c-0.22,0.5-0.54,1.14-0.82,1.94c-0.4-1.04-0.66-1.68-0.78-1.94l-4.22-8.98l-3.38,14.86h2.14
		l1.54-7.04c0.14-0.64,0.24-1.3,0.26-1.98c0.18,0.64,0.42,1.24,0.7,1.82l3.74,7.78l3.74-7.62c0.32-0.66,0.54-1.3,0.66-1.98
		C103.757,180.542,103.817,181.182,103.877,181.442"/>
	<path clip-path="url(#SVGID_2_)" fill="#F9A25E" d="M847.851,375.352h2.429l1.133-8.625h1.943l0.276-2.082h-1.941l0.508-4.047
		h-2.428l-0.532,4.047h-1.827l-0.277,2.082h1.851L847.851,375.352z M842.209,375.352h2.428l0.74-5.666
		c0.092-0.785,0.185-1.502,0.185-2.127c0-2.059-1.295-3.283-3.491-3.283c-1.457,0-2.706,0.531-3.908,1.596l1.062-8.025h-2.428
		l-2.312,17.506h2.428l0.671-5.273c0.346-2.658,1.456-3.953,3.491-3.953c1.295,0,1.989,0.74,1.989,2.15c0,0.277,0,0.578-0.047,0.902
		L842.209,375.352z M823.986,370.172c0-2.498,1.226-4.047,3.029-4.047c1.712,0,2.821,1.203,2.821,3.121
		c0,2.545-1.295,4.094-3.168,4.094C825.027,373.34,823.986,372.184,823.986,370.172 M831.456,375.213l1.41-10.568h-2.382
		l-0.208,1.389c-1.11-1.18-2.335-1.758-3.746-1.758c-2.938,0-5.064,2.451-5.064,6.197c0,3.168,1.665,4.971,4.394,4.971
		c1.318,0,2.404-0.484,3.33-1.455c-0.208,3.098-0.878,4.301-3.215,4.301c-1.78,0-2.706-0.672-2.891-2.197l-2.22,0.301
		c0.301,2.475,2.174,4,5.11,4C829.259,380.393,830.993,378.705,831.456,375.213 M817.442,360.898c0,0.832,0.625,1.457,1.457,1.457
		c0.809,0,1.434-0.625,1.434-1.457c0-0.809-0.625-1.434-1.434-1.434C818.09,359.465,817.442,360.09,817.442,360.898
		 M815.847,375.352h2.429l1.409-10.707h-2.428L815.847,375.352z M810.366,375.352h2.428l0.74-5.643
		c0.116-0.855,0.185-1.572,0.185-2.15c0-2.08-1.295-3.283-3.491-3.283c-1.48,0-2.775,0.531-4.023,1.664l0.185-1.295h-2.336
		l-1.411,10.707h2.43l0.67-5.248c0.347-2.66,1.457-3.979,3.492-3.979c1.295,0,1.988,0.764,1.988,2.174c0,0.277,0,0.578-0.046,0.902
		L810.366,375.352z M796.399,375.352h2.428l1.133-8.625h1.943l0.276-2.082h-1.941l0.508-4.047h-2.428l-0.532,4.047h-1.827
		l-0.277,2.082h1.851L796.399,375.352z M795.358,366.795l0.787-2.104c-0.486-0.277-0.995-0.416-1.527-0.416
		c-1.156,0-2.15,0.578-3.006,1.758l0.185-1.389h-2.336l-1.41,10.707h2.429l0.671-5.018c0.347-2.613,1.295-3.908,3.052-3.908
		C794.641,366.426,795.011,366.541,795.358,366.795 M781.09,366.426c1.851,0,2.914,1.109,2.914,3.123c0,2.52-1.479,4.092-3.7,4.092
		c-1.757,0-2.867-1.156-2.867-3.1C777.437,368.092,778.963,366.426,781.09,366.426 M781.067,364.252
		c-3.607,0-6.151,2.566-6.151,6.289c0,3.168,2.104,5.25,5.388,5.25c3.746,0,6.244-2.658,6.244-6.174
		C786.548,366.379,784.42,364.252,781.067,364.252 M768.511,375.352h2.429l1.133-8.625h2.174l0.277-2.082h-2.175l0.302-2.289
		c0.23-1.711,0.485-2.566,1.571-2.566c0.37,0,0.765,0.115,1.295,0.348l0.278-2.105c-0.647-0.277-1.271-0.393-1.942-0.393
		c-2.382,0-3.169,1.295-3.585,4.348l-0.369,2.658h-1.919l-0.278,2.082h1.942L768.511,375.352z M751.838,380.393l9.852-15.748h-2.706
		l-3.1,5.297c-0.37,0.623-0.67,1.248-0.9,1.895c-0.116-0.992-0.232-1.664-0.348-2.033l-1.596-5.158h-2.521l3.1,8.973l-4.324,6.775
		H751.838z M750.15,366.795l0.786-2.104c-0.486-0.277-0.994-0.416-1.526-0.416c-1.157,0-2.151,0.578-3.007,1.758l0.185-1.389h-2.335
		l-1.411,10.707h2.429l0.671-5.018c0.347-2.613,1.295-3.908,3.052-3.908C749.433,366.426,749.803,366.541,750.15,366.795
		 M733.245,368.715c0.301-1.434,1.504-2.336,3.145-2.336c1.435,0,2.336,0.879,2.383,2.336H733.245z M738.634,372.068
		c-0.717,0.994-1.781,1.549-2.914,1.549c-1.596,0-2.683-1.18-2.683-3.168h8.163c0.047-0.555,0.07-0.949,0.07-1.203
		c0-3.053-1.896-4.971-4.765-4.971c-3.469,0-5.989,2.59-5.989,6.289c0,3.145,2.15,5.227,5.318,5.227c1.92,0,3.307-0.74,4.556-2.357
		L738.634,372.068z M723.441,375.998l7.099-11.354h-2.752l-3.076,5.273c-0.347,0.578-0.624,1.18-0.809,1.803
		c-0.069-0.785-0.208-1.434-0.37-1.941l-1.665-5.135h-2.521L723.441,375.998z M710.514,368.715c0.301-1.434,1.503-2.336,3.146-2.336
		c1.433,0,2.335,0.879,2.382,2.336H710.514z M715.902,372.068c-0.718,0.994-1.781,1.549-2.914,1.549
		c-1.596,0-2.683-1.18-2.683-3.168h8.163c0.046-0.555,0.069-0.949,0.069-1.203c0-3.053-1.896-4.971-4.764-4.971
		c-3.469,0-5.989,2.59-5.989,6.289c0,3.145,2.151,5.227,5.319,5.227c1.919,0,3.307-0.74,4.555-2.357L715.902,372.068z
		 M691.713,380.393l9.853-15.748h-2.706l-3.1,5.297c-0.37,0.623-0.67,1.248-0.901,1.895c-0.115-0.992-0.231-1.664-0.348-2.033
		l-1.595-5.158h-2.521l3.099,8.973l-4.324,6.775H691.713z M680.29,370.334c0-2.566,1.202-4.141,3.029-4.141
		c1.734,0,2.798,1.203,2.798,3.031c0,2.797-1.249,4.369-3.146,4.369C681.307,373.594,680.29,372.414,680.29,370.334
		 M687.759,375.352l1.411-10.707h-2.428l-0.208,1.434c-1.041-1.203-2.244-1.803-3.7-1.803c-2.961,0-5.065,2.498-5.065,6.406
		c0,3.283,1.619,5.086,4.395,5.086c1.41,0,2.497-0.508,3.353-1.594l-0.185,1.178H687.759z M667.248,370.357
		c0-2.568,1.179-4.139,3.029-4.139c1.733,0,2.798,1.178,2.798,3.006c0,2.797-1.249,4.393-3.146,4.393
		C668.265,373.617,667.248,372.438,667.248,370.357 M674.74,375.352l2.289-17.506h-2.429l-1.087,8.279
		c-0.993-1.225-2.243-1.85-3.746-1.85c-2.937,0-5.04,2.498-5.04,6.428c0,3.285,1.618,5.088,4.394,5.088
		c1.295,0,2.405-0.484,3.376-1.525l-0.139,1.086H674.74z"/>
	<path clip-path="url(#SVGID_2_)" fill="#F9A25E" d="M822.286,347.209c0-2.566,1.202-4.141,3.029-4.141
		c1.735,0,2.798,1.203,2.798,3.031c0,2.797-1.248,4.369-3.145,4.369C823.304,350.469,822.286,349.289,822.286,347.209
		 M829.755,352.227l1.411-10.707h-2.428l-0.208,1.434c-1.041-1.203-2.243-1.803-3.7-1.803c-2.96,0-5.064,2.498-5.064,6.406
		c0,3.283,1.619,5.086,4.394,5.086c1.411,0,2.498-0.508,3.354-1.594l-0.186,1.178H829.755z M818.979,343.67l0.786-2.104
		c-0.485-0.277-0.994-0.416-1.526-0.416c-1.156,0-2.15,0.578-3.006,1.758l0.185-1.389h-2.336l-1.409,10.707h2.428l0.67-5.018
		c0.347-2.613,1.295-3.908,3.053-3.908C818.263,343.301,818.633,343.416,818.979,343.67 M805.429,352.227h2.428l1.133-8.625h1.943
		l0.276-2.082h-1.941l0.509-4.047h-2.428l-0.532,4.047h-1.827l-0.278,2.082h1.851L805.429,352.227z M792.757,352.227h2.866
		l2.521-3.076c0.093-0.092,0.324-0.484,0.763-1.109c0.093,0.301,0.208,0.578,0.348,0.832l1.78,3.354h2.775l-3.308-5.572l4.395-5.135
		h-2.868l-2.127,2.545c-0.209,0.23-0.463,0.6-0.764,1.133c-0.115-0.416-0.347-0.74-0.531-1.064l-1.48-2.613h-2.729l3.075,5.111
		L792.757,352.227z M784.755,345.59c0.301-1.434,1.504-2.336,3.146-2.336c1.434,0,2.335,0.879,2.382,2.336H784.755z
		 M790.144,348.943c-0.717,0.994-1.781,1.549-2.914,1.549c-1.595,0-2.682-1.18-2.682-3.168h8.162
		c0.047-0.555,0.069-0.949,0.069-1.203c0-3.053-1.896-4.971-4.764-4.971c-3.468,0-5.989,2.59-5.989,6.289
		c0,3.145,2.151,5.227,5.319,5.227c1.919,0,3.307-0.74,4.555-2.357L790.144,348.943z M770.187,352.227h2.428l0.741-5.643
		c0.115-0.855,0.185-1.572,0.185-2.15c0-2.08-1.296-3.283-3.491-3.283c-1.48,0-2.775,0.531-4.024,1.664l0.185-1.295h-2.336
		l-1.409,10.707h2.428l0.67-5.248c0.347-2.66,1.457-3.979,3.492-3.979c1.295,0,1.988,0.764,1.988,2.174c0,0.277,0,0.578-0.046,0.902
		L770.187,352.227z M751.964,347.209c0-2.566,1.203-4.141,3.029-4.141c1.735,0,2.799,1.203,2.799,3.031
		c0,2.797-1.249,4.369-3.145,4.369C752.982,350.469,751.964,349.289,751.964,347.209 M759.434,352.227l1.411-10.707h-2.429
		l-0.208,1.434c-1.041-1.203-2.242-1.803-3.699-1.803c-2.96,0-5.065,2.498-5.065,6.406c0,3.283,1.619,5.086,4.394,5.086
		c1.411,0,2.498-0.508,3.354-1.594l-0.186,1.178H759.434z M734.228,349.082l-1.41,1.619c1.087,1.295,2.543,1.965,4.185,1.965
		c2.567,0,4.117-1.41,4.117-3.516c0-1.525-0.764-2.266-2.196-3.051c-1.318-0.74-2.268-0.926-2.268-1.92
		c0-0.625,0.603-1.156,1.388-1.156c0.948,0,1.827,0.439,2.521,1.295l1.503-1.549c-1.087-1.111-2.312-1.643-3.77-1.643
		c-2.429,0-4.023,1.41-4.023,3.398c0,1.574,0.971,2.268,2.659,3.215c1.133,0.625,1.804,0.971,1.804,1.805
		c0,0.738-0.648,1.248-1.688,1.248C736.031,350.793,735.037,350.215,734.228,349.082 M730.598,342.307h1.85v-6.291h-1.85V342.307z
		 M723.96,352.227h2.429l1.133-8.625h1.942l0.277-2.082H727.8l0.509-4.047h-2.429l-0.531,4.047h-1.827l-0.278,2.082h1.851
		L723.96,352.227z M713.185,347.209c0-2.566,1.203-4.141,3.029-4.141c1.734,0,2.799,1.203,2.799,3.031
		c0,2.797-1.249,4.369-3.146,4.369C714.202,350.469,713.185,349.289,713.185,347.209 M720.653,352.227l1.411-10.707h-2.428
		l-0.208,1.434c-1.041-1.203-2.243-1.803-3.7-1.803c-2.96,0-5.065,2.498-5.065,6.406c0,3.283,1.619,5.086,4.395,5.086
		c1.411,0,2.498-0.508,3.353-1.594l-0.185,1.178H720.653z M705.276,352.227h2.428l0.74-5.666c0.092-0.785,0.186-1.502,0.186-2.127
		c0-2.059-1.296-3.283-3.492-3.283c-1.457,0-2.706,0.531-3.908,1.596l1.062-8.025h-2.428l-2.312,17.506h2.428l0.671-5.273
		c0.346-2.658,1.456-3.953,3.491-3.953c1.295,0,1.989,0.74,1.989,2.15c0,0.277,0,0.578-0.047,0.902L705.276,352.227z
		 M688.834,352.227h2.613l1.873-14.152h4.209l0.324-2.381h-11.285l-0.324,2.381h4.463L688.834,352.227z"/>
	<path clip-path="url(#SVGID_2_)" fill="#F9A25E" d="M548.43,366.795l0.787-2.104c-0.486-0.277-0.995-0.416-1.527-0.416
		c-1.156,0-2.149,0.578-3.006,1.758l0.185-1.389h-2.336l-1.409,10.707h2.428l0.671-5.018c0.346-2.613,1.295-3.908,3.052-3.908
		C547.713,366.426,548.083,366.541,548.43,366.795 M530.624,370.334c0-2.566,1.202-4.141,3.029-4.141
		c1.734,0,2.798,1.203,2.798,3.031c0,2.797-1.249,4.369-3.145,4.369C531.642,373.594,530.624,372.414,530.624,370.334
		 M538.094,375.352l1.41-10.707h-2.429l-0.208,1.434c-1.041-1.203-2.242-1.803-3.699-1.803c-2.96,0-5.064,2.498-5.064,6.406
		c0,3.283,1.618,5.086,4.394,5.086c1.41,0,2.498-0.508,3.353-1.594l-0.184,1.178H538.094z M518.483,368.715
		c0.3-1.434,1.503-2.336,3.146-2.336c1.434,0,2.335,0.879,2.382,2.336H518.483z M523.872,372.068
		c-0.718,0.994-1.781,1.549-2.914,1.549c-1.596,0-2.683-1.18-2.683-3.168h8.163c0.046-0.555,0.069-0.949,0.069-1.203
		c0-3.053-1.896-4.971-4.765-4.971c-3.468,0-5.988,2.59-5.988,6.289c0,3.145,2.15,5.227,5.318,5.227c1.919,0,3.308-0.74,4.556-2.357
		L523.872,372.068z M506.273,380.393l9.852-15.748h-2.706l-3.099,5.297c-0.37,0.623-0.671,1.248-0.901,1.895
		c-0.116-0.992-0.231-1.664-0.348-2.033l-1.596-5.158h-2.52l3.098,8.973l-4.324,6.775H506.273z M488.26,370.334
		c0-2.566,1.202-4.141,3.029-4.141c1.734,0,2.798,1.203,2.798,3.031c0,2.797-1.248,4.369-3.146,4.369
		C489.276,373.594,488.26,372.414,488.26,370.334 M495.729,375.352l1.411-10.707h-2.428l-0.208,1.434
		c-1.041-1.203-2.244-1.803-3.7-1.803c-2.96,0-5.065,2.498-5.065,6.406c0,3.283,1.619,5.086,4.395,5.086
		c1.411,0,2.497-0.508,3.353-1.594l-0.185,1.178H495.729z M470.522,372.207l-1.411,1.619c1.087,1.295,2.544,1.965,4.187,1.965
		c2.566,0,4.116-1.41,4.116-3.516c0-1.525-0.764-2.266-2.197-3.051c-1.318-0.74-2.267-0.926-2.267-1.92
		c0-0.625,0.602-1.156,1.389-1.156c0.947,0,1.826,0.439,2.52,1.295l1.503-1.549c-1.087-1.111-2.312-1.643-3.769-1.643
		c-2.428,0-4.024,1.41-4.024,3.398c0,1.574,0.972,2.268,2.66,3.215c1.133,0.625,1.803,0.971,1.803,1.803
		c0,0.74-0.646,1.25-1.688,1.25C472.326,373.918,471.332,373.34,470.522,372.207 M464.673,375.352h2.428l0.74-5.666
		c0.092-0.785,0.185-1.502,0.185-2.127c0-2.059-1.295-3.283-3.492-3.283c-1.457,0-2.706,0.531-3.907,1.596l1.062-8.025h-2.428
		l-2.312,17.506h2.429l0.671-5.273c0.346-2.658,1.456-3.953,3.491-3.953c1.295,0,1.988,0.74,1.988,2.15c0,0.277,0,0.578-0.046,0.902
		L464.673,375.352z M450.705,375.352h2.428l1.134-8.625h1.942l0.277-2.082h-1.942l0.509-4.047h-2.428l-0.532,4.047h-1.827
		l-0.278,2.082h1.851L450.705,375.352z M445.062,375.352h2.428l0.74-5.643c0.116-0.855,0.186-1.572,0.186-2.15
		c0-2.08-1.296-3.283-3.492-3.283c-1.48,0-2.775,0.531-4.023,1.664l0.186-1.295h-2.336l-1.411,10.707h2.428l0.671-5.248
		c0.347-2.66,1.457-3.979,3.492-3.979c1.295,0,1.989,0.764,1.989,2.174c0,0.277,0,0.578-0.047,0.902L445.062,375.352z
		 M430.379,366.426c1.85,0,2.913,1.109,2.913,3.123c0,2.52-1.48,4.092-3.7,4.092c-1.757,0-2.867-1.156-2.867-3.1
		C426.725,368.092,428.251,366.426,430.379,366.426 M430.355,364.252c-3.607,0-6.151,2.566-6.151,6.289
		c0,3.168,2.104,5.25,5.388,5.25c3.747,0,6.244-2.658,6.244-6.174C435.836,366.379,433.709,364.252,430.355,364.252
		 M418.955,375.352h2.475l0.74-5.689c0.092-0.785,0.161-1.457,0.161-2.012c0-2.172-1.202-3.375-3.215-3.375
		c-1.525,0-2.752,0.625-4.001,1.988c-0.508-1.34-1.479-1.988-3.028-1.988c-1.364,0-2.567,0.555-3.678,1.664l0.348-1.295h-2.405
		l-1.411,10.707h2.405l0.671-5.273c0.347-2.635,1.203-3.953,2.938-3.953c1.226,0,1.804,0.74,1.804,2.289
		c0,0.254-0.023,0.51-0.047,0.764l-0.786,6.174h2.451l0.671-5.273c0.347-2.658,1.226-3.953,3.053-3.953
		c1.11,0,1.734,0.764,1.734,2.221c0,0.277-0.023,0.555-0.069,0.832L418.955,375.352z M391.39,366.426
		c1.85,0,2.914,1.109,2.914,3.123c0,2.52-1.48,4.092-3.7,4.092c-1.758,0-2.868-1.156-2.868-3.1
		C387.735,368.092,389.263,366.426,391.39,366.426 M391.366,364.252c-3.606,0-6.15,2.566-6.15,6.289c0,3.168,2.104,5.25,5.388,5.25
		c3.746,0,6.244-2.658,6.244-6.174C396.848,366.379,394.72,364.252,391.366,364.252 M367.502,364.645l3.955,11.379l3.63-6.037
		c0.115-0.184,0.37-0.67,0.739-1.457c0.07,0.578,0.162,1.064,0.302,1.504l1.804,5.99l7.261-11.379h-2.752l-3.238,5.574
		c-0.23,0.393-0.462,0.9-0.692,1.525c-0.047-0.508-0.116-1.018-0.278-1.572l-1.757-6.312l-3.585,6.127
		c-0.37,0.625-0.647,1.203-0.809,1.758c-0.023-0.531-0.208-1.062-0.394-1.641l-1.735-5.459H367.502z M361.883,375.352h2.428
		l1.133-8.625h1.943l0.277-2.082h-1.942l0.509-4.047h-2.429l-0.532,4.047h-1.826l-0.277,2.082h1.85L361.883,375.352z"/>
	<path clip-path="url(#SVGID_2_)" fill="#F9A25E" d="M518.286,342.834c0-2.566,1.202-4.141,3.029-4.141
		c1.735,0,2.798,1.203,2.798,3.031c0,2.797-1.248,4.369-3.145,4.369C519.304,346.094,518.286,344.914,518.286,342.834
		 M525.756,347.852l1.41-10.707h-2.428l-0.208,1.434c-1.041-1.203-2.243-1.803-3.7-1.803c-2.96,0-5.064,2.498-5.064,6.406
		c0,3.283,1.619,5.086,4.394,5.086c1.411,0,2.498-0.508,3.354-1.594l-0.186,1.178H525.756z M514.979,339.295l0.786-2.104
		c-0.485-0.277-0.994-0.416-1.526-0.416c-1.156,0-2.149,0.578-3.006,1.758l0.185-1.389h-2.336l-1.409,10.707h2.428l0.67-5.018
		c0.347-2.613,1.295-3.908,3.053-3.908C514.263,338.926,514.633,339.041,514.979,339.295 M501.429,347.852h2.428l1.133-8.625h1.943
		l0.276-2.082h-1.941l0.509-4.047h-2.429l-0.531,4.047h-1.827l-0.278,2.082h1.851L501.429,347.852z M488.757,347.852h2.866
		l2.521-3.076c0.092-0.092,0.324-0.484,0.763-1.109c0.093,0.301,0.208,0.578,0.348,0.832l1.78,3.354h2.775l-3.308-5.572l4.395-5.135
		h-2.868l-2.127,2.545c-0.209,0.23-0.463,0.6-0.764,1.133c-0.115-0.416-0.348-0.74-0.532-1.064l-1.479-2.613h-2.729l3.075,5.111
		L488.757,347.852z M480.756,341.215c0.3-1.434,1.503-2.336,3.145-2.336c1.434,0,2.335,0.879,2.382,2.336H480.756z M486.144,344.568
		c-0.717,0.994-1.781,1.549-2.914,1.549c-1.596,0-2.682-1.18-2.682-3.168h8.162c0.047-0.555,0.069-0.949,0.069-1.203
		c0-3.053-1.896-4.971-4.764-4.971c-3.468,0-5.989,2.59-5.989,6.289c0,3.145,2.151,5.227,5.319,5.227
		c1.919,0,3.307-0.74,4.555-2.357L486.144,344.568z M466.187,347.852h2.428l0.74-5.643c0.116-0.855,0.185-1.572,0.185-2.15
		c0-2.08-1.295-3.283-3.49-3.283c-1.48,0-2.775,0.531-4.024,1.664l0.185-1.295h-2.336l-1.409,10.707h2.428l0.67-5.248
		c0.347-2.66,1.457-3.979,3.492-3.979c1.295,0,1.988,0.764,1.988,2.174c0,0.277,0,0.578-0.046,0.902L466.187,347.852z
		 M447.965,342.834c0-2.566,1.202-4.141,3.028-4.141c1.735,0,2.799,1.203,2.799,3.031c0,2.797-1.249,4.369-3.145,4.369
		C448.982,346.094,447.965,344.914,447.965,342.834 M455.434,347.852l1.411-10.707h-2.429l-0.208,1.434
		c-1.041-1.203-2.242-1.803-3.699-1.803c-2.96,0-5.065,2.498-5.065,6.406c0,3.283,1.619,5.086,4.394,5.086
		c1.411,0,2.498-0.508,3.354-1.594l-0.185,1.178H455.434z M430.228,344.707l-1.41,1.619c1.086,1.295,2.543,1.965,4.185,1.965
		c2.567,0,4.116-1.41,4.116-3.516c0-1.525-0.763-2.266-2.195-3.051c-1.318-0.74-2.268-0.926-2.268-1.92
		c0-0.625,0.603-1.156,1.388-1.156c0.948,0,1.827,0.439,2.521,1.295l1.504-1.549c-1.087-1.111-2.312-1.643-3.77-1.643
		c-2.429,0-4.024,1.41-4.024,3.398c0,1.574,0.972,2.268,2.66,3.215c1.133,0.625,1.804,0.971,1.804,1.805
		c0,0.738-0.647,1.248-1.688,1.248C432.031,346.418,431.037,345.84,430.228,344.707 M426.598,337.932h1.85v-6.291h-1.85V337.932z
		 M419.96,347.852h2.429l1.133-8.625h1.943l0.276-2.082H423.8l0.509-4.047h-2.429l-0.531,4.047h-1.827l-0.278,2.082h1.851
		L419.96,347.852z M409.185,342.834c0-2.566,1.203-4.141,3.029-4.141c1.734,0,2.799,1.203,2.799,3.031
		c0,2.797-1.249,4.369-3.146,4.369C410.202,346.094,409.185,344.914,409.185,342.834 M416.653,347.852l1.411-10.707h-2.428
		l-0.208,1.434c-1.041-1.203-2.243-1.803-3.7-1.803c-2.96,0-5.065,2.498-5.065,6.406c0,3.283,1.619,5.086,4.395,5.086
		c1.411,0,2.498-0.508,3.353-1.594l-0.185,1.178H416.653z M401.276,347.852h2.428l0.74-5.666c0.092-0.785,0.186-1.502,0.186-2.127
		c0-2.059-1.296-3.283-3.492-3.283c-1.457,0-2.706,0.531-3.908,1.596l1.062-8.025h-2.428l-2.312,17.506h2.428l0.671-5.273
		c0.346-2.658,1.456-3.953,3.491-3.953c1.295,0,1.989,0.74,1.989,2.15c0,0.277,0,0.578-0.047,0.902L401.276,347.852z
		 M384.834,347.852h2.613l1.873-14.152h4.209l0.324-2.381h-11.285l-0.324,2.381h4.463L384.834,347.852z"/>
	<path clip-path="url(#SVGID_2_)" fill="#F9A25E" d="M215.663,375.352h2.428l0.763-5.689l4.395,5.689h2.937l-4.556-5.781
		l5.851-4.926h-3.145l-5.436,4.557l1.503-11.355h-2.428L215.663,375.352z M206.065,368.715c0.302-1.434,1.503-2.336,3.146-2.336
		c1.434,0,2.336,0.879,2.382,2.336H206.065z M211.454,372.068c-0.717,0.994-1.781,1.549-2.914,1.549
		c-1.596,0-2.683-1.18-2.683-3.168h8.163c0.046-0.555,0.069-0.949,0.069-1.203c0-3.053-1.896-4.971-4.763-4.971
		c-3.47,0-5.99,2.59-5.99,6.289c0,3.145,2.151,5.227,5.319,5.227c1.919,0,3.307-0.74,4.556-2.357L211.454,372.068z M193.855,368.715
		c0.302-1.434,1.503-2.336,3.146-2.336c1.434,0,2.336,0.879,2.382,2.336H193.855z M199.244,372.068
		c-0.718,0.994-1.78,1.549-2.914,1.549c-1.596,0-2.683-1.18-2.683-3.168h8.163c0.046-0.555,0.069-0.949,0.069-1.203
		c0-3.053-1.896-4.971-4.763-4.971c-3.47,0-5.99,2.59-5.99,6.289c0,3.145,2.15,5.227,5.319,5.227c1.919,0,3.307-0.74,4.556-2.357
		L199.244,372.068z M173.367,364.645l3.956,11.379l3.63-6.037c0.115-0.184,0.37-0.67,0.739-1.457
		c0.07,0.578,0.162,1.064,0.302,1.504l1.804,5.99l7.261-11.379h-2.752l-3.237,5.574c-0.231,0.393-0.463,0.9-0.693,1.525
		c-0.046-0.508-0.116-1.018-0.278-1.572l-1.757-6.312l-3.584,6.127c-0.37,0.625-0.648,1.203-0.81,1.758
		c-0.023-0.531-0.208-1.062-0.394-1.641l-1.734-5.459H173.367z M162.036,375.352h2.429l0.74-5.666
		c0.092-0.785,0.185-1.502,0.185-2.127c0-2.059-1.295-3.283-3.492-3.283c-1.457,0-2.706,0.531-3.908,1.596l1.063-8.025h-2.428
		l-2.312,17.506h2.428l0.67-5.273c0.347-2.658,1.457-3.953,3.492-3.953c1.295,0,1.989,0.74,1.989,2.15c0,0.277,0,0.578-0.046,0.902
		L162.036,375.352z M152.972,367.697l0.509-2.312c-1.11-0.764-2.267-1.109-3.631-1.109c-3.654,0-6.244,2.566-6.244,6.289
		c0,3.145,2.081,5.227,5.319,5.227c1.11,0,2.081-0.23,2.96-0.693l0.509-2.59c-1.18,0.764-2.336,1.133-3.4,1.133
		c-1.757,0-2.867-1.156-2.867-3.1c0-2.473,1.549-4.139,3.7-4.139C150.914,366.402,152.001,366.842,152.972,367.697 M133.223,370.334
		c0-2.566,1.203-4.141,3.03-4.141c1.734,0,2.798,1.203,2.798,3.031c0,2.797-1.249,4.369-3.145,4.369
		C134.241,373.594,133.223,372.414,133.223,370.334 M140.693,375.352l1.41-10.707h-2.428l-0.208,1.434
		c-1.041-1.203-2.243-1.803-3.7-1.803c-2.96,0-5.064,2.498-5.064,6.406c0,3.283,1.618,5.086,4.393,5.086
		c1.411,0,2.498-0.508,3.354-1.594l-0.185,1.178H140.693z M121.083,368.715c0.3-1.434,1.503-2.336,3.145-2.336
		c1.434,0,2.335,0.879,2.382,2.336H121.083z M126.471,372.068c-0.717,0.994-1.781,1.549-2.914,1.549
		c-1.595,0-2.682-1.18-2.682-3.168h8.163c0.046-0.555,0.069-0.949,0.069-1.203c0-3.053-1.896-4.971-4.764-4.971
		c-3.468,0-5.989,2.59-5.989,6.289c0,3.145,2.151,5.227,5.319,5.227c1.919,0,3.307-0.74,4.555-2.357L126.471,372.068z
		 M102.282,380.393l9.852-15.748h-2.706l-3.099,5.297c-0.37,0.623-0.67,1.248-0.902,1.895c-0.115-0.992-0.231-1.664-0.347-2.033
		l-1.595-5.158h-2.521l3.099,8.973l-4.324,6.775H102.282z M90.859,370.334c0-2.566,1.202-4.141,3.029-4.141
		c1.735,0,2.798,1.203,2.798,3.031c0,2.797-1.248,4.369-3.145,4.369C91.876,373.594,90.859,372.414,90.859,370.334 M98.328,375.352
		l1.411-10.707h-2.428l-0.208,1.434c-1.041-1.203-2.244-1.803-3.7-1.803c-2.96,0-5.065,2.498-5.065,6.406
		c0,3.283,1.619,5.086,4.394,5.086c1.411,0,2.497-0.508,3.353-1.594l-0.185,1.178H98.328z M77.817,370.357
		c0-2.568,1.179-4.139,3.029-4.139c1.734,0,2.798,1.178,2.798,3.006c0,2.797-1.249,4.393-3.145,4.393
		C78.834,373.617,77.817,372.438,77.817,370.357 M85.309,375.352l2.289-17.506H85.17l-1.087,8.279
		c-0.994-1.225-2.243-1.85-3.746-1.85c-2.937,0-5.041,2.498-5.041,6.428c0,3.285,1.619,5.088,4.394,5.088
		c1.295,0,2.405-0.484,3.376-1.525l-0.139,1.086H85.309z"/>
	<path clip-path="url(#SVGID_2_)" fill="#F9A25E" d="M214.286,342.834c0-2.566,1.202-4.141,3.029-4.141
		c1.735,0,2.798,1.203,2.798,3.031c0,2.797-1.248,4.369-3.145,4.369C215.304,346.094,214.286,344.914,214.286,342.834
		 M221.756,347.852l1.41-10.707h-2.428l-0.208,1.434c-1.041-1.203-2.243-1.803-3.7-1.803c-2.96,0-5.064,2.498-5.064,6.406
		c0,3.283,1.619,5.086,4.394,5.086c1.411,0,2.498-0.508,3.354-1.594l-0.186,1.178H221.756z M210.979,339.295l0.786-2.104
		c-0.485-0.277-0.994-0.416-1.526-0.416c-1.156,0-2.149,0.578-3.006,1.758l0.185-1.389h-2.336l-1.409,10.707h2.428l0.67-5.018
		c0.347-2.613,1.295-3.908,3.053-3.908C210.263,338.926,210.633,339.041,210.979,339.295 M197.429,347.852h2.428l1.133-8.625h1.943
		l0.276-2.082h-1.941l0.509-4.047h-2.428l-0.532,4.047h-1.827l-0.278,2.082h1.851L197.429,347.852z M184.757,347.852h2.866
		l2.521-3.076c0.092-0.092,0.324-0.484,0.763-1.109c0.093,0.301,0.208,0.578,0.348,0.832l1.78,3.354h2.775l-3.308-5.572l4.395-5.135
		h-2.868l-2.127,2.545c-0.209,0.23-0.463,0.6-0.764,1.133c-0.115-0.416-0.347-0.74-0.532-1.064l-1.48-2.613h-2.728l3.075,5.111
		L184.757,347.852z M176.756,341.215c0.3-1.434,1.503-2.336,3.145-2.336c1.433,0,2.335,0.879,2.382,2.336H176.756z M182.144,344.568
		c-0.717,0.994-1.781,1.549-2.914,1.549c-1.596,0-2.682-1.18-2.682-3.168h8.162c0.047-0.555,0.069-0.949,0.069-1.203
		c0-3.053-1.896-4.971-4.764-4.971c-3.468,0-5.989,2.59-5.989,6.289c0,3.145,2.151,5.227,5.319,5.227
		c1.919,0,3.307-0.74,4.555-2.357L182.144,344.568z M162.187,347.852h2.428l0.74-5.643c0.116-0.855,0.185-1.572,0.185-2.15
		c0-2.08-1.295-3.283-3.491-3.283c-1.48,0-2.775,0.531-4.024,1.664l0.185-1.295h-2.336l-1.41,10.707h2.428l0.67-5.248
		c0.347-2.66,1.457-3.979,3.492-3.979c1.295,0,1.989,0.764,1.989,2.174c0,0.277,0,0.578-0.046,0.902L162.187,347.852z
		 M143.964,342.834c0-2.566,1.203-4.141,3.029-4.141c1.735,0,2.799,1.203,2.799,3.031c0,2.797-1.249,4.369-3.145,4.369
		C144.982,346.094,143.964,344.914,143.964,342.834 M151.434,347.852l1.411-10.707h-2.428l-0.208,1.434
		c-1.041-1.203-2.243-1.803-3.7-1.803c-2.96,0-5.065,2.498-5.065,6.406c0,3.283,1.619,5.086,4.394,5.086
		c1.411,0,2.498-0.508,3.353-1.594l-0.185,1.178H151.434z M126.228,344.707l-1.41,1.619c1.087,1.295,2.543,1.965,4.185,1.965
		c2.567,0,4.117-1.41,4.117-3.516c0-1.525-0.764-2.266-2.197-3.051c-1.318-0.74-2.267-0.926-2.267-1.92
		c0-0.625,0.602-1.156,1.388-1.156c0.948,0,1.827,0.439,2.52,1.295l1.504-1.549c-1.087-1.111-2.313-1.643-3.77-1.643
		c-2.428,0-4.024,1.41-4.024,3.398c0,1.574,0.972,2.268,2.66,3.215c1.133,0.625,1.804,0.971,1.804,1.805
		c0,0.738-0.648,1.248-1.689,1.248C128.031,346.418,127.038,345.84,126.228,344.707 M122.598,337.932h1.85v-6.291h-1.85V337.932z
		 M115.96,347.852h2.428l1.133-8.625h1.943l0.277-2.082h-1.942l0.509-4.047h-2.429l-0.531,4.047h-1.827l-0.278,2.082h1.85
		L115.96,347.852z M105.185,342.834c0-2.566,1.203-4.141,3.029-4.141c1.735,0,2.799,1.203,2.799,3.031
		c0,2.797-1.249,4.369-3.145,4.369C106.203,346.094,105.185,344.914,105.185,342.834 M112.653,347.852l1.411-10.707h-2.428
		l-0.208,1.434c-1.041-1.203-2.243-1.803-3.7-1.803c-2.96,0-5.065,2.498-5.065,6.406c0,3.283,1.619,5.086,4.394,5.086
		c1.411,0,2.498-0.508,3.353-1.594l-0.185,1.178H112.653z M97.276,347.852h2.428l0.74-5.666c0.092-0.785,0.185-1.502,0.185-2.127
		c0-2.059-1.295-3.283-3.492-3.283c-1.457,0-2.706,0.531-3.908,1.596l1.063-8.025h-2.428l-2.312,17.506h2.428l0.671-5.273
		c0.346-2.658,1.456-3.953,3.491-3.953c1.295,0,1.989,0.74,1.989,2.15c0,0.277,0,0.578-0.046,0.902L97.276,347.852z M80.834,347.852
		h2.613l1.873-14.152h4.209l0.324-2.381H78.568l-0.324,2.381h4.463L80.834,347.852z"/>
	<path clip-path="url(#SVGID_2_)" fill="#808285" d="M828.851,290.023h0.773v-6.604h-1.688l-0.447,0.689h1.361V290.023z
		 M823.952,291.816c0,1.695-0.928,2.654-2.4,2.654c-1.424,0-2.319-1.023-2.319-2.814c0-1.584,0.88-2.496,2.304-2.496
		C822.977,289.16,823.952,290.199,823.952,291.816 M825.136,283.24h-1.216v6.303c-0.544-1.055-1.424-1.6-2.607-1.6
		c-2,0-3.376,1.457-3.376,3.855c0,2.336,1.376,3.857,3.424,3.857c1.104,0,2.032-0.576,2.592-1.602v1.297h1.184V283.24z
		 M815.408,290.967h-4.353c0.129-1.215,1.009-1.967,2.177-1.967C814.528,289,815.328,289.703,815.408,290.967 M816.72,291.959v-0.24
		c0-2.367-1.344-3.791-3.439-3.791c-2.08,0-3.568,1.568-3.568,3.824c0,2.336,1.473,3.904,3.648,3.904
		c1.472,0,2.592-0.656,3.312-1.953l-0.928-0.623c-0.592,1.039-1.36,1.551-2.32,1.551c-1.376,0-2.368-1.008-2.368-2.559v-0.113
		H816.72z M806.464,289.207v6.145h1.216v-6.145h1.345v-1.008h-1.345v-2.879h-1.216v2.879h-1.312v1.008H806.464z M800.752,295.352
		h1.216v-3.488c0-1.871,0.641-2.799,1.937-2.799c0.224,0,0.479,0.047,0.752,0.143l0.416-1.104c-0.272-0.096-0.544-0.145-0.832-0.145
		c-1.088,0-1.76,0.512-2.4,1.729v-1.488h-1.088V295.352z M792.433,291.799c0-1.52,1.151-2.703,2.592-2.703
		c1.424,0,2.576,1.184,2.576,2.703c0,1.521-1.152,2.705-2.576,2.705S792.433,293.32,792.433,291.799 M791.136,291.799
		c0,1.041,0.385,1.969,1.137,2.721c0.735,0.736,1.695,1.137,2.752,1.137c1.04,0,2-0.416,2.752-1.152
		c0.735-0.721,1.136-1.664,1.136-2.705c0-1.039-0.4-2-1.136-2.719c-0.752-0.736-1.696-1.137-2.752-1.137
		c-1.057,0-2.017,0.385-2.752,1.121C791.521,289.799,791.136,290.76,791.136,291.799 M783.824,291.799
		c0-1.695,0.928-2.672,2.399-2.672c1.425,0,2.32,1.025,2.32,2.816c0,1.584-0.88,2.512-2.304,2.512
		C784.8,294.455,783.824,293.416,783.824,291.799 M782.64,298.84h1.217v-4.785c0.544,1.057,1.424,1.602,2.607,1.602
		c2,0,3.376-1.441,3.376-3.857c0-2.352-1.376-3.855-3.424-3.855c-1.104,0-2.048,0.561-2.608,1.6v-1.344h-1.168V298.84z
		 M779.568,290.967h-4.353c0.128-1.215,1.008-1.967,2.177-1.967C778.688,289,779.488,289.703,779.568,290.967 M780.88,291.959v-0.24
		c0-2.367-1.344-3.791-3.439-3.791c-2.08,0-3.568,1.568-3.568,3.824c0,2.336,1.472,3.904,3.648,3.904
		c1.472,0,2.592-0.656,3.312-1.953l-0.928-0.623c-0.592,1.039-1.36,1.551-2.32,1.551c-1.376,0-2.368-1.008-2.368-2.559v-0.113
		H780.88z M768.977,295.352h1.216v-3.488c0-1.871,0.64-2.799,1.936-2.799c0.225,0,0.48,0.047,0.752,0.143l0.416-1.104
		c-0.271-0.096-0.544-0.145-0.832-0.145c-1.088,0-1.76,0.512-2.399,1.729v-1.488h-1.088V295.352z M760.449,289.207v6.145h1.216
		v-6.145h1.344v-1.008h-1.344v-2.879h-1.216v2.879h-1.312v1.008H760.449z M751.953,291.799c0-1.52,1.152-2.703,2.592-2.703
		c1.424,0,2.576,1.184,2.576,2.703c0,1.521-1.152,2.705-2.576,2.705S751.953,293.32,751.953,291.799 M750.657,291.799
		c0,1.041,0.384,1.969,1.136,2.721c0.736,0.736,1.696,1.137,2.752,1.137c1.04,0,2-0.416,2.752-1.152
		c0.736-0.721,1.136-1.664,1.136-2.705c0-1.039-0.399-2-1.136-2.719c-0.752-0.736-1.695-1.137-2.752-1.137
		c-1.056,0-2.016,0.385-2.752,1.121C751.041,289.799,750.657,290.76,750.657,291.799 M742.401,295.352h1.216v-3.695
		c0-0.785,0-1.377,0.416-1.889c0.399-0.496,1.024-0.768,1.744-0.768c1.28,0,1.903,0.703,1.903,2.143v4.209h1.217v-4.863
		c0-1.617-1.024-2.545-2.688-2.545c-1.12,0-1.983,0.432-2.592,1.359v-1.104h-1.216V295.352z M734.689,290.967h-4.353
		c0.128-1.215,1.008-1.967,2.176-1.967C733.81,289,734.609,289.703,734.689,290.967 M736.001,291.959v-0.24
		c0-2.367-1.344-3.791-3.439-3.791c-2.08,0-3.568,1.568-3.568,3.824c0,2.336,1.472,3.904,3.648,3.904
		c1.472,0,2.592-0.656,3.312-1.953l-0.928-0.623c-0.593,1.039-1.36,1.551-2.32,1.551c-1.376,0-2.368-1.008-2.368-2.559v-0.113
		H736.001z M722.065,288.199h-1.217v4.271c0,2.098,1.137,3.186,3.217,3.186c2.144,0,3.264-1.121,3.264-3.281v-4.176h-1.216v3.52
		c0,1.889-0.448,2.77-2.017,2.77c-1.567,0-2.031-0.881-2.031-2.77V288.199z M717.217,295.352h1.216V283.24h-1.216V295.352z
		 M713.603,291.848c0,1.648-0.896,2.592-2.336,2.592c-1.521,0-2.385-0.977-2.385-2.703c0-1.633,0.864-2.576,2.336-2.576
		C712.594,289.16,713.603,290.184,713.603,291.848 M714.786,288.199h-1.216v1.344c-0.544-1.055-1.424-1.6-2.624-1.6
		c-2,0-3.36,1.457-3.36,3.855c0,2.336,1.376,3.857,3.424,3.857c1.104,0,2.017-0.561,2.593-1.602v1.297h1.184V288.199z
		 M703.378,295.799l3.521-7.6h-1.376l-2.16,4.992l-2.145-4.992h-1.376L703.378,295.799z M688.498,291.799
		c0-1.695,0.928-2.672,2.4-2.672c1.424,0,2.319,1.025,2.319,2.816c0,1.584-0.88,2.512-2.304,2.512
		C689.474,294.455,688.498,293.416,688.498,291.799 M687.314,298.84h1.216v-4.785c0.544,1.057,1.424,1.602,2.607,1.602
		c2,0,3.376-1.441,3.376-3.857c0-2.352-1.376-3.855-3.424-3.855c-1.104,0-2.048,0.561-2.607,1.6v-1.344h-1.168V298.84z"/>
	<path clip-path="url(#SVGID_2_)" fill="#808285" d="M846.207,278.424l0.896,0.352l1.92-4.145l-1.327-0.463L846.207,278.424z
		 M839.327,274.951c0.56,1.008,1.487,1.504,2.815,1.504c1.584,0,2.608-0.943,2.608-2.271c0-1.168-0.688-1.68-2.08-2.129
		c-1.184-0.383-1.84-0.479-1.84-1.23c0-0.625,0.496-1.072,1.216-1.072c0.752,0,1.344,0.367,1.632,1.023l0.992-0.607
		c-0.384-0.912-1.312-1.424-2.544-1.424c-1.521,0-2.528,0.912-2.528,2.16c0,1.408,1.057,1.711,2.816,2.318
		c0.752,0.258,1.12,0.545,1.12,1.09c0,0.623-0.528,1.07-1.345,1.07c-0.815,0-1.424-0.367-1.823-1.135L839.327,274.951z
		 M832.287,276.152h1.216l0.016-3.777l3.681,3.777h1.712l-3.889-3.873l3.568-3.279h-1.632l-3.44,3.248l-0.016-8.209h-1.216V276.152z
		 M829.199,271.768h-4.353c0.128-1.217,1.008-1.969,2.176-1.969C828.319,269.799,829.119,270.504,829.199,271.768 M830.511,272.76
		v-0.24c0-2.367-1.344-3.791-3.439-3.791c-2.08,0-3.568,1.566-3.568,3.822c0,2.336,1.472,3.904,3.648,3.904
		c1.472,0,2.592-0.656,3.312-1.951l-0.928-0.625c-0.592,1.041-1.36,1.553-2.32,1.553c-1.376,0-2.368-1.008-2.368-2.561v-0.111
		H830.511z M821.056,271.768h-4.352c0.128-1.217,1.008-1.969,2.176-1.969C820.176,269.799,820.976,270.504,821.056,271.768
		 M822.368,272.76v-0.24c0-2.367-1.344-3.791-3.44-3.791c-2.08,0-3.567,1.566-3.567,3.822c0,2.336,1.472,3.904,3.647,3.904
		c1.472,0,2.592-0.656,3.312-1.951l-0.929-0.625c-0.592,1.041-1.359,1.553-2.319,1.553c-1.376,0-2.368-1.008-2.368-2.561v-0.111
		H822.368z M809.376,268.744h-0.192l-2.176,5.135L805.104,269h-1.359l3.184,7.6l2.353-5.488l2.352,5.488l3.184-7.6h-1.376
		l-1.92,4.879L809.376,268.744z M797.536,274.855H793.2l1.792-1.936c1.84-2,2.896-3.504,2.896-5.152
		c0-1.969-1.312-3.168-3.552-3.168c-2.256,0-3.584,1.264-3.584,3.424c0,0.096,0.016,0.209,0.016,0.305h1.28v-0.129
		c0-1.52,0.8-2.352,2.24-2.352c1.376,0,2.256,0.848,2.256,2c0,1.488-1.424,3.008-3.488,5.439l-2.416,2.865h6.896V274.855z
		 M782.048,270.439c0.704-0.543,1.536-0.816,2.432-0.816c1.761,0,2.849,1.121,2.849,2.752c0,1.777-1.104,2.896-2.736,2.896
		c-1.12,0-2-0.561-2.512-1.615l-0.96,1.119c0.784,1.152,1.888,1.68,3.439,1.68c2.624,0,4.208-1.631,4.208-4.207
		c0-2.289-1.392-3.729-3.632-3.729c-0.64,0-1.231,0.129-1.775,0.416l0.72-2.943h4.096v-1.168h-5.023l-1.36,5.568L782.048,270.439z
		 M771.472,276.152h1.216v-3.488c0-1.873,0.641-2.801,1.937-2.801c0.224,0,0.479,0.049,0.752,0.145l0.416-1.104
		c-0.272-0.096-0.544-0.145-0.832-0.145c-1.088,0-1.76,0.512-2.4,1.729V269h-1.088V276.152z M768.384,271.768h-4.352
		c0.128-1.217,1.008-1.969,2.176-1.969C767.504,269.799,768.304,270.504,768.384,271.768 M769.696,272.76v-0.24
		c0-2.367-1.345-3.791-3.44-3.791c-2.08,0-3.568,1.566-3.568,3.822c0,2.336,1.473,3.904,3.648,3.904
		c1.472,0,2.592-0.656,3.312-1.951l-0.928-0.625c-0.592,1.041-1.359,1.553-2.32,1.553c-1.375,0-2.367-1.008-2.367-2.561v-0.111
		H769.696z M758.56,276.6l3.521-7.6h-1.376l-2.16,4.992L756.399,269h-1.375L758.56,276.6z M747.905,272.6
		c0-1.52,1.151-2.703,2.592-2.703c1.424,0,2.576,1.184,2.576,2.703s-1.152,2.703-2.576,2.703S747.905,274.119,747.905,272.6
		 M746.608,272.6c0,1.039,0.385,1.969,1.137,2.721c0.735,0.734,1.695,1.135,2.752,1.135c1.04,0,2-0.416,2.752-1.152
		c0.736-0.719,1.136-1.664,1.136-2.703s-0.399-2-1.136-2.721c-0.752-0.734-1.696-1.135-2.752-1.135
		c-1.057,0-2.017,0.383-2.752,1.119C746.993,270.6,746.608,271.561,746.608,272.6 M734.241,272.6c0-1.52,1.151-2.703,2.592-2.703
		c1.424,0,2.576,1.184,2.576,2.703s-1.152,2.703-2.576,2.703S734.241,274.119,734.241,272.6 M732.945,272.6
		c0,1.039,0.384,1.969,1.136,2.721c0.736,0.734,1.696,1.135,2.752,1.135c1.04,0,2-0.416,2.752-1.152
		c0.736-0.719,1.136-1.664,1.136-2.703s-0.399-2-1.136-2.721c-0.752-0.734-1.696-1.135-2.752-1.135s-2.016,0.383-2.752,1.119
		C733.329,270.6,732.945,271.561,732.945,272.6 M725.617,272.615c0-1.615,0.991-2.656,2.432-2.656c1.424,0,2.304,0.912,2.304,2.496
		c0,1.793-0.912,2.816-2.336,2.816C726.545,275.271,725.617,274.312,725.617,272.615 M724.449,264.039v12.113h1.168v-1.297
		c0.56,1.023,1.504,1.6,2.607,1.6c2.048,0,3.425-1.52,3.425-3.855c0-2.4-1.377-3.855-3.377-3.855c-1.184,0-2.063,0.543-2.607,1.6
		v-6.305H724.449z M721.377,271.768h-4.353c0.129-1.217,1.009-1.969,2.177-1.969C720.497,269.799,721.297,270.504,721.377,271.768
		 M722.688,272.76v-0.24c0-2.367-1.344-3.791-3.439-3.791c-2.08,0-3.568,1.566-3.568,3.822c0,2.336,1.473,3.904,3.648,3.904
		c1.472,0,2.592-0.656,3.312-1.951l-0.928-0.625c-0.592,1.041-1.36,1.553-2.32,1.553c-1.376,0-2.368-1.008-2.368-2.561v-0.111
		H722.688z M714.688,274.455c-0.752,0.545-1.439,0.816-2.208,0.816c-1.487,0-2.56-1.152-2.56-2.592c0-1.695,1.088-2.752,2.656-2.752
		c0.704,0,1.376,0.225,1.983,0.623v-1.311c-0.655-0.32-1.424-0.496-2.224-0.496c-2.145,0-3.729,1.568-3.729,3.904
		c0,2.256,1.456,3.807,3.681,3.807c0.928,0,1.744-0.191,2.399-0.576V274.455z M705.649,272.648c0,1.646-0.896,2.592-2.337,2.592
		c-1.52,0-2.384-0.977-2.384-2.705c0-1.631,0.864-2.576,2.336-2.576C704.641,269.959,705.649,270.984,705.649,272.648 M706.833,269
		h-1.216v1.344c-0.544-1.057-1.425-1.6-2.624-1.6c-2,0-3.36,1.455-3.36,3.855c0,2.336,1.376,3.855,3.424,3.855
		c1.104,0,2.017-0.559,2.593-1.6v1.297h1.184V269z M696.45,276.152h1.216v-12.113h-1.216V276.152z M688.498,272.6
		c0-1.695,0.928-2.672,2.399-2.672c1.425,0,2.32,1.023,2.32,2.816c0,1.584-0.88,2.512-2.304,2.512
		C689.474,275.256,688.498,274.215,688.498,272.6 M687.313,279.639h1.217v-4.783c0.544,1.057,1.424,1.6,2.607,1.6
		c2,0,3.376-1.439,3.376-3.855c0-2.352-1.376-3.855-3.424-3.855c-1.104,0-2.048,0.559-2.608,1.6V269h-1.168V279.639z
		 M675.49,274.951c0.56,1.008,1.487,1.504,2.815,1.504c1.584,0,2.608-0.943,2.608-2.271c0-1.168-0.688-1.68-2.08-2.129
		c-1.185-0.383-1.84-0.479-1.84-1.23c0-0.625,0.496-1.072,1.216-1.072c0.752,0,1.344,0.367,1.632,1.023l0.992-0.607
		c-0.384-0.912-1.312-1.424-2.544-1.424c-1.521,0-2.528,0.912-2.528,2.16c0,1.408,1.056,1.711,2.816,2.318
		c0.752,0.258,1.12,0.545,1.12,1.09c0,0.623-0.528,1.07-1.345,1.07c-0.815,0-1.424-0.367-1.823-1.135L675.49,274.951z M671.49,276.6
		l3.52-7.6h-1.376l-2.16,4.992L669.33,269h-1.376L671.49,276.6z"/>
	<path clip-path="url(#SVGID_2_)" fill="#808285" d="M524.851,290.023h0.773v-6.604h-1.688l-0.447,0.689h1.361V290.023z
		 M519.952,291.816c0,1.695-0.928,2.654-2.4,2.654c-1.424,0-2.319-1.023-2.319-2.814c0-1.584,0.88-2.496,2.304-2.496
		C518.977,289.16,519.952,290.199,519.952,291.816 M521.136,283.24h-1.216v6.303c-0.544-1.055-1.424-1.6-2.607-1.6
		c-2,0-3.376,1.457-3.376,3.855c0,2.336,1.376,3.857,3.424,3.857c1.104,0,2.032-0.576,2.592-1.602v1.297h1.184V283.24z
		 M511.408,290.967h-4.353c0.129-1.215,1.009-1.967,2.177-1.967C510.528,289,511.328,289.703,511.408,290.967 M512.72,291.959v-0.24
		c0-2.367-1.344-3.791-3.439-3.791c-2.08,0-3.568,1.568-3.568,3.824c0,2.336,1.473,3.904,3.648,3.904
		c1.472,0,2.592-0.656,3.312-1.953l-0.928-0.623c-0.592,1.039-1.36,1.551-2.32,1.551c-1.376,0-2.368-1.008-2.368-2.559v-0.113
		H512.72z M502.464,289.207v6.145h1.216v-6.145h1.345v-1.008h-1.345v-2.879h-1.216v2.879h-1.312v1.008H502.464z M496.752,295.352
		h1.216v-3.488c0-1.871,0.641-2.799,1.937-2.799c0.224,0,0.479,0.047,0.752,0.143l0.416-1.104c-0.272-0.096-0.544-0.145-0.832-0.145
		c-1.088,0-1.76,0.512-2.4,1.729v-1.488h-1.088V295.352z M488.432,291.799c0-1.52,1.152-2.703,2.593-2.703
		c1.424,0,2.576,1.184,2.576,2.703c0,1.521-1.152,2.705-2.576,2.705S488.432,293.32,488.432,291.799 M487.136,291.799
		c0,1.041,0.385,1.969,1.137,2.721c0.735,0.736,1.695,1.137,2.752,1.137c1.04,0,2-0.416,2.752-1.152
		c0.735-0.721,1.136-1.664,1.136-2.705c0-1.039-0.4-2-1.136-2.719c-0.752-0.736-1.696-1.137-2.752-1.137
		c-1.057,0-2.017,0.385-2.752,1.121C487.521,289.799,487.136,290.76,487.136,291.799 M479.824,291.799
		c0-1.695,0.928-2.672,2.399-2.672c1.425,0,2.32,1.025,2.32,2.816c0,1.584-0.88,2.512-2.304,2.512
		C480.8,294.455,479.824,293.416,479.824,291.799 M478.64,298.84h1.217v-4.785c0.544,1.057,1.424,1.602,2.607,1.602
		c2,0,3.376-1.441,3.376-3.857c0-2.352-1.376-3.855-3.424-3.855c-1.104,0-2.048,0.561-2.608,1.6v-1.344h-1.168V298.84z
		 M475.568,290.967h-4.353c0.128-1.215,1.008-1.967,2.177-1.967C474.688,289,475.488,289.703,475.568,290.967 M476.88,291.959v-0.24
		c0-2.367-1.344-3.791-3.439-3.791c-2.08,0-3.568,1.568-3.568,3.824c0,2.336,1.472,3.904,3.648,3.904
		c1.472,0,2.592-0.656,3.312-1.953l-0.928-0.623c-0.592,1.039-1.36,1.551-2.32,1.551c-1.376,0-2.368-1.008-2.368-2.559v-0.113
		H476.88z M464.977,295.352h1.216v-3.488c0-1.871,0.64-2.799,1.936-2.799c0.225,0,0.48,0.047,0.752,0.143l0.416-1.104
		c-0.271-0.096-0.544-0.145-0.832-0.145c-1.088,0-1.76,0.512-2.399,1.729v-1.488h-1.088V295.352z M456.449,289.207v6.145h1.216
		v-6.145h1.344v-1.008h-1.344v-2.879h-1.216v2.879h-1.312v1.008H456.449z M447.953,291.799c0-1.52,1.152-2.703,2.592-2.703
		c1.424,0,2.576,1.184,2.576,2.703c0,1.521-1.152,2.705-2.576,2.705S447.953,293.32,447.953,291.799 M446.657,291.799
		c0,1.041,0.384,1.969,1.136,2.721c0.736,0.736,1.696,1.137,2.752,1.137c1.04,0,2-0.416,2.752-1.152
		c0.736-0.721,1.136-1.664,1.136-2.705c0-1.039-0.399-2-1.136-2.719c-0.752-0.736-1.695-1.137-2.752-1.137
		c-1.056,0-2.016,0.385-2.752,1.121C447.041,289.799,446.657,290.76,446.657,291.799 M438.401,295.352h1.216v-3.695
		c0-0.785,0-1.377,0.416-1.889c0.399-0.496,1.023-0.768,1.744-0.768c1.279,0,1.903,0.703,1.903,2.143v4.209h1.217v-4.863
		c0-1.617-1.024-2.545-2.688-2.545c-1.12,0-1.983,0.432-2.592,1.359v-1.104h-1.216V295.352z M430.689,290.967h-4.353
		c0.128-1.215,1.008-1.967,2.176-1.967C429.81,289,430.609,289.703,430.689,290.967 M432.001,291.959v-0.24
		c0-2.367-1.344-3.791-3.439-3.791c-2.08,0-3.568,1.568-3.568,3.824c0,2.336,1.472,3.904,3.648,3.904
		c1.472,0,2.592-0.656,3.312-1.953l-0.928-0.623c-0.593,1.039-1.36,1.551-2.32,1.551c-1.376,0-2.368-1.008-2.368-2.559v-0.113
		H432.001z M418.065,288.199h-1.217v4.271c0,2.098,1.137,3.186,3.217,3.186c2.144,0,3.264-1.121,3.264-3.281v-4.176h-1.216v3.52
		c0,1.889-0.448,2.77-2.017,2.77c-1.567,0-2.031-0.881-2.031-2.77V288.199z M413.217,295.352h1.216V283.24h-1.216V295.352z
		 M409.603,291.848c0,1.648-0.896,2.592-2.336,2.592c-1.521,0-2.385-0.977-2.385-2.703c0-1.633,0.864-2.576,2.336-2.576
		C408.594,289.16,409.603,290.184,409.603,291.848 M410.786,288.199h-1.216v1.344c-0.544-1.055-1.424-1.6-2.624-1.6
		c-2,0-3.36,1.457-3.36,3.855c0,2.336,1.376,3.857,3.424,3.857c1.104,0,2.017-0.561,2.593-1.602v1.297h1.184V288.199z
		 M399.378,295.799l3.521-7.6h-1.376l-2.16,4.992l-2.145-4.992h-1.376L399.378,295.799z M384.498,291.799
		c0-1.695,0.928-2.672,2.4-2.672c1.424,0,2.319,1.025,2.319,2.816c0,1.584-0.88,2.512-2.304,2.512
		C385.474,294.455,384.498,293.416,384.498,291.799 M383.314,298.84h1.216v-4.785c0.544,1.057,1.424,1.602,2.607,1.602
		c2,0,3.376-1.441,3.376-3.857c0-2.352-1.376-3.855-3.424-3.855c-1.104,0-2.048,0.561-2.607,1.6v-1.344h-1.168V298.84z"/>
	<path clip-path="url(#SVGID_2_)" fill="#808285" d="M542.207,278.424l0.896,0.352l1.92-4.145l-1.327-0.463L542.207,278.424z
		 M535.327,274.951c0.56,1.008,1.487,1.504,2.815,1.504c1.584,0,2.608-0.943,2.608-2.271c0-1.168-0.688-1.68-2.08-2.129
		c-1.184-0.383-1.84-0.479-1.84-1.23c0-0.625,0.496-1.072,1.216-1.072c0.752,0,1.344,0.367,1.632,1.023l0.992-0.607
		c-0.384-0.912-1.312-1.424-2.544-1.424c-1.521,0-2.528,0.912-2.528,2.16c0,1.408,1.057,1.711,2.816,2.318
		c0.752,0.258,1.12,0.545,1.12,1.09c0,0.623-0.528,1.07-1.345,1.07c-0.815,0-1.424-0.367-1.823-1.135L535.327,274.951z
		 M528.287,276.152h1.216l0.016-3.777l3.681,3.777h1.712l-3.889-3.873l3.568-3.279h-1.632l-3.44,3.248l-0.016-8.209h-1.216V276.152z
		 M525.199,271.768h-4.353c0.128-1.217,1.008-1.969,2.176-1.969C524.319,269.799,525.119,270.504,525.199,271.768 M526.511,272.76
		v-0.24c0-2.367-1.344-3.791-3.439-3.791c-2.08,0-3.568,1.566-3.568,3.822c0,2.336,1.472,3.904,3.648,3.904
		c1.472,0,2.592-0.656,3.312-1.951l-0.928-0.625c-0.592,1.041-1.36,1.553-2.32,1.553c-1.376,0-2.368-1.008-2.368-2.561v-0.111
		H526.511z M517.056,271.768h-4.352c0.128-1.217,1.008-1.969,2.176-1.969C516.176,269.799,516.976,270.504,517.056,271.768
		 M518.368,272.76v-0.24c0-2.367-1.344-3.791-3.44-3.791c-2.08,0-3.567,1.566-3.567,3.822c0,2.336,1.472,3.904,3.647,3.904
		c1.472,0,2.592-0.656,3.312-1.951l-0.929-0.625c-0.592,1.041-1.359,1.553-2.319,1.553c-1.376,0-2.368-1.008-2.368-2.561v-0.111
		H518.368z M505.376,268.744h-0.192l-2.176,5.135L501.104,269h-1.359l3.184,7.6l2.353-5.488l2.352,5.488l3.184-7.6h-1.376
		l-1.92,4.879L505.376,268.744z M493.536,274.855H489.2l1.792-1.936c1.84-2,2.896-3.504,2.896-5.152
		c0-1.969-1.312-3.168-3.552-3.168c-2.256,0-3.584,1.264-3.584,3.424c0,0.096,0.016,0.209,0.016,0.305h1.28v-0.129
		c0-1.52,0.8-2.352,2.24-2.352c1.376,0,2.256,0.848,2.256,2c0,1.488-1.424,3.008-3.488,5.439l-2.416,2.865h6.896V274.855z
		 M478.048,270.439c0.704-0.543,1.536-0.816,2.432-0.816c1.761,0,2.849,1.121,2.849,2.752c0,1.777-1.104,2.896-2.736,2.896
		c-1.12,0-2-0.561-2.512-1.615l-0.96,1.119c0.784,1.152,1.888,1.68,3.439,1.68c2.624,0,4.208-1.631,4.208-4.207
		c0-2.289-1.392-3.729-3.632-3.729c-0.64,0-1.231,0.129-1.775,0.416l0.72-2.943h4.096v-1.168h-5.023l-1.36,5.568L478.048,270.439z
		 M467.472,276.152h1.216v-3.488c0-1.873,0.641-2.801,1.937-2.801c0.224,0,0.479,0.049,0.752,0.145l0.416-1.104
		c-0.272-0.096-0.544-0.145-0.832-0.145c-1.088,0-1.76,0.512-2.4,1.729V269h-1.088V276.152z M464.384,271.768h-4.352
		c0.128-1.217,1.008-1.969,2.176-1.969C463.504,269.799,464.304,270.504,464.384,271.768 M465.696,272.76v-0.24
		c0-2.367-1.345-3.791-3.44-3.791c-2.08,0-3.568,1.566-3.568,3.822c0,2.336,1.473,3.904,3.648,3.904
		c1.472,0,2.592-0.656,3.312-1.951l-0.928-0.625c-0.592,1.041-1.359,1.553-2.319,1.553c-1.376,0-2.368-1.008-2.368-2.561v-0.111
		H465.696z M454.56,276.6l3.521-7.6h-1.376l-2.16,4.992L452.4,269h-1.376L454.56,276.6z M443.905,272.6
		c0-1.52,1.151-2.703,2.592-2.703c1.424,0,2.576,1.184,2.576,2.703s-1.152,2.703-2.576,2.703S443.905,274.119,443.905,272.6
		 M442.609,272.6c0,1.039,0.384,1.969,1.136,2.721c0.735,0.734,1.695,1.135,2.752,1.135c1.04,0,2-0.416,2.752-1.152
		c0.736-0.719,1.136-1.664,1.136-2.703s-0.399-2-1.136-2.721c-0.752-0.734-1.696-1.135-2.752-1.135
		c-1.057,0-2.017,0.383-2.752,1.119C442.993,270.6,442.609,271.561,442.609,272.6 M430.241,272.6c0-1.52,1.151-2.703,2.592-2.703
		c1.424,0,2.576,1.184,2.576,2.703s-1.152,2.703-2.576,2.703S430.241,274.119,430.241,272.6 M428.945,272.6
		c0,1.039,0.384,1.969,1.136,2.721c0.736,0.734,1.696,1.135,2.752,1.135c1.04,0,2-0.416,2.752-1.152
		c0.736-0.719,1.136-1.664,1.136-2.703s-0.399-2-1.136-2.721c-0.752-0.734-1.696-1.135-2.752-1.135s-2.016,0.383-2.752,1.119
		C429.329,270.6,428.945,271.561,428.945,272.6 M421.617,272.615c0-1.615,0.992-2.656,2.432-2.656c1.424,0,2.304,0.912,2.304,2.496
		c0,1.793-0.912,2.816-2.336,2.816C422.545,275.271,421.617,274.312,421.617,272.615 M420.449,264.039v12.113h1.168v-1.297
		c0.56,1.023,1.504,1.6,2.607,1.6c2.048,0,3.425-1.52,3.425-3.855c0-2.4-1.377-3.855-3.377-3.855c-1.184,0-2.063,0.543-2.607,1.6
		v-6.305H420.449z M417.377,271.768h-4.353c0.129-1.217,1.009-1.969,2.177-1.969C416.497,269.799,417.297,270.504,417.377,271.768
		 M418.688,272.76v-0.24c0-2.367-1.344-3.791-3.439-3.791c-2.08,0-3.568,1.566-3.568,3.822c0,2.336,1.473,3.904,3.648,3.904
		c1.472,0,2.592-0.656,3.312-1.951l-0.928-0.625c-0.592,1.041-1.36,1.553-2.32,1.553c-1.376,0-2.368-1.008-2.368-2.561v-0.111
		H418.688z M410.688,274.455c-0.752,0.545-1.439,0.816-2.208,0.816c-1.487,0-2.56-1.152-2.56-2.592c0-1.695,1.088-2.752,2.656-2.752
		c0.704,0,1.376,0.225,1.983,0.623v-1.311c-0.655-0.32-1.424-0.496-2.224-0.496c-2.144,0-3.728,1.568-3.728,3.904
		c0,2.256,1.455,3.807,3.68,3.807c0.928,0,1.744-0.191,2.399-0.576V274.455z M401.649,272.648c0,1.646-0.896,2.592-2.337,2.592
		c-1.52,0-2.384-0.977-2.384-2.705c0-1.631,0.864-2.576,2.336-2.576C400.641,269.959,401.649,270.984,401.649,272.648 M402.833,269
		h-1.216v1.344c-0.544-1.057-1.424-1.6-2.624-1.6c-2,0-3.36,1.455-3.36,3.855c0,2.336,1.376,3.855,3.424,3.855
		c1.104,0,2.017-0.559,2.593-1.6v1.297h1.184V269z M392.45,276.152h1.216v-12.113h-1.216V276.152z M384.498,272.6
		c0-1.695,0.928-2.672,2.399-2.672c1.425,0,2.32,1.023,2.32,2.816c0,1.584-0.88,2.512-2.304,2.512
		C385.474,275.256,384.498,274.215,384.498,272.6 M383.313,279.639h1.217v-4.783c0.544,1.057,1.424,1.6,2.607,1.6
		c2,0,3.376-1.439,3.376-3.855c0-2.352-1.376-3.855-3.424-3.855c-1.104,0-2.048,0.559-2.608,1.6V269h-1.168V279.639z
		 M371.49,274.951c0.56,1.008,1.487,1.504,2.815,1.504c1.584,0,2.608-0.943,2.608-2.271c0-1.168-0.688-1.68-2.08-2.129
		c-1.185-0.383-1.84-0.479-1.84-1.23c0-0.625,0.496-1.072,1.216-1.072c0.752,0,1.344,0.367,1.632,1.023l0.992-0.607
		c-0.384-0.912-1.312-1.424-2.544-1.424c-1.521,0-2.528,0.912-2.528,2.16c0,1.408,1.057,1.711,2.816,2.318
		c0.752,0.258,1.12,0.545,1.12,1.09c0,0.623-0.528,1.07-1.345,1.07c-0.815,0-1.424-0.367-1.823-1.135L371.49,274.951z M367.49,276.6
		l3.52-7.6h-1.376l-2.16,4.992L365.33,269h-1.376L367.49,276.6z"/>
	<path clip-path="url(#SVGID_2_)" fill="#808285" d="M220.852,290.023h0.772v-6.604h-1.688l-0.447,0.689h1.362V290.023z
		 M215.952,291.816c0,1.695-0.928,2.654-2.4,2.654c-1.424,0-2.319-1.023-2.319-2.814c0-1.584,0.88-2.496,2.304-2.496
		C214.977,289.16,215.952,290.199,215.952,291.816 M217.136,283.24h-1.216v6.303c-0.544-1.055-1.424-1.6-2.607-1.6
		c-2,0-3.376,1.457-3.376,3.855c0,2.336,1.376,3.857,3.424,3.857c1.104,0,2.032-0.576,2.592-1.602v1.297h1.184V283.24z
		 M207.408,290.967h-4.353c0.129-1.215,1.009-1.967,2.177-1.967C206.528,289,207.328,289.703,207.408,290.967 M208.72,291.959v-0.24
		c0-2.367-1.344-3.791-3.439-3.791c-2.08,0-3.568,1.568-3.568,3.824c0,2.336,1.473,3.904,3.648,3.904
		c1.472,0,2.592-0.656,3.312-1.953l-0.928-0.623c-0.592,1.039-1.36,1.551-2.32,1.551c-1.376,0-2.368-1.008-2.368-2.559v-0.113
		H208.72z M198.464,289.207v6.145h1.216v-6.145h1.345v-1.008h-1.345v-2.879h-1.216v2.879h-1.312v1.008H198.464z M192.752,295.352
		h1.216v-3.488c0-1.871,0.641-2.799,1.937-2.799c0.224,0,0.479,0.047,0.752,0.143l0.416-1.104c-0.272-0.096-0.544-0.145-0.832-0.145
		c-1.088,0-1.76,0.512-2.4,1.729v-1.488h-1.088V295.352z M184.432,291.799c0-1.52,1.152-2.703,2.593-2.703
		c1.424,0,2.576,1.184,2.576,2.703c0,1.521-1.152,2.705-2.576,2.705S184.432,293.32,184.432,291.799 M183.136,291.799
		c0,1.041,0.385,1.969,1.137,2.721c0.735,0.736,1.695,1.137,2.752,1.137c1.04,0,2-0.416,2.752-1.152
		c0.735-0.721,1.136-1.664,1.136-2.705c0-1.039-0.4-2-1.136-2.719c-0.752-0.736-1.696-1.137-2.752-1.137
		c-1.057,0-2.017,0.385-2.752,1.121C183.521,289.799,183.136,290.76,183.136,291.799 M175.824,291.799
		c0-1.695,0.928-2.672,2.399-2.672c1.425,0,2.32,1.025,2.32,2.816c0,1.584-0.88,2.512-2.304,2.512
		C176.8,294.455,175.824,293.416,175.824,291.799 M174.64,298.84h1.216v-4.785c0.544,1.057,1.424,1.602,2.608,1.602
		c2,0,3.376-1.441,3.376-3.857c0-2.352-1.376-3.855-3.424-3.855c-1.104,0-2.048,0.561-2.608,1.6v-1.344h-1.168V298.84z
		 M171.568,290.967h-4.352c0.128-1.215,1.008-1.967,2.176-1.967C170.688,289,171.488,289.703,171.568,290.967 M172.88,291.959v-0.24
		c0-2.367-1.344-3.791-3.44-3.791c-2.08,0-3.568,1.568-3.568,3.824c0,2.336,1.472,3.904,3.648,3.904
		c1.472,0,2.592-0.656,3.312-1.953l-0.928-0.623c-0.592,1.039-1.36,1.551-2.32,1.551c-1.376,0-2.368-1.008-2.368-2.559v-0.113
		H172.88z M160.976,295.352h1.216v-3.488c0-1.871,0.64-2.799,1.936-2.799c0.224,0,0.48,0.047,0.752,0.143l0.416-1.104
		c-0.272-0.096-0.544-0.145-0.832-0.145c-1.088,0-1.76,0.512-2.4,1.729v-1.488h-1.088V295.352z M152.449,289.207v6.145h1.216v-6.145
		h1.344v-1.008h-1.344v-2.879h-1.216v2.879h-1.312v1.008H152.449z M143.953,291.799c0-1.52,1.152-2.703,2.592-2.703
		c1.424,0,2.576,1.184,2.576,2.703c0,1.521-1.152,2.705-2.576,2.705C145.121,294.504,143.953,293.32,143.953,291.799
		 M142.657,291.799c0,1.041,0.384,1.969,1.136,2.721c0.736,0.736,1.696,1.137,2.752,1.137c1.04,0,2-0.416,2.752-1.152
		c0.736-0.721,1.136-1.664,1.136-2.705c0-1.039-0.4-2-1.136-2.719c-0.752-0.736-1.696-1.137-2.752-1.137
		c-1.056,0-2.016,0.385-2.752,1.121C143.041,289.799,142.657,290.76,142.657,291.799 M134.401,295.352h1.216v-3.695
		c0-0.785,0-1.377,0.416-1.889c0.4-0.496,1.024-0.768,1.744-0.768c1.28,0,1.904,0.703,1.904,2.143v4.209h1.216v-4.863
		c0-1.617-1.024-2.545-2.688-2.545c-1.12,0-1.984,0.432-2.592,1.359v-1.104h-1.216V295.352z M126.689,290.967h-4.352
		c0.128-1.215,1.008-1.967,2.176-1.967C125.809,289,126.609,289.703,126.689,290.967 M128.001,291.959v-0.24
		c0-2.367-1.344-3.791-3.44-3.791c-2.08,0-3.568,1.568-3.568,3.824c0,2.336,1.472,3.904,3.648,3.904
		c1.472,0,2.592-0.656,3.312-1.953l-0.928-0.623c-0.592,1.039-1.36,1.551-2.32,1.551c-1.376,0-2.368-1.008-2.368-2.559v-0.113
		H128.001z M114.065,288.199h-1.216v4.271c0,2.098,1.136,3.186,3.216,3.186c2.144,0,3.264-1.121,3.264-3.281v-4.176h-1.216v3.52
		c0,1.889-0.448,2.77-2.016,2.77s-2.032-0.881-2.032-2.77V288.199z M109.217,295.352h1.216V283.24h-1.216V295.352z M105.602,291.848
		c0,1.648-0.896,2.592-2.336,2.592c-1.52,0-2.384-0.977-2.384-2.703c0-1.633,0.864-2.576,2.336-2.576
		C104.594,289.16,105.602,290.184,105.602,291.848 M106.786,288.199h-1.216v1.344c-0.544-1.055-1.424-1.6-2.624-1.6
		c-2,0-3.36,1.457-3.36,3.855c0,2.336,1.376,3.857,3.424,3.857c1.104,0,2.016-0.561,2.592-1.602v1.297h1.184V288.199z
		 M95.378,295.799l3.52-7.6h-1.376l-2.16,4.992l-2.144-4.992h-1.376L95.378,295.799z M80.498,291.799c0-1.695,0.928-2.672,2.4-2.672
		c1.424,0,2.32,1.025,2.32,2.816c0,1.584-0.88,2.512-2.304,2.512C81.474,294.455,80.498,293.416,80.498,291.799 M79.314,298.84
		h1.216v-4.785c0.544,1.057,1.424,1.602,2.608,1.602c2,0,3.376-1.441,3.376-3.857c0-2.352-1.376-3.855-3.424-3.855
		c-1.104,0-2.048,0.561-2.608,1.6v-1.344h-1.168V298.84z"/>
	<path clip-path="url(#SVGID_2_)" fill="#808285" d="M238.207,278.424l0.896,0.352l1.92-4.145l-1.327-0.463L238.207,278.424z
		 M231.327,274.951c0.56,1.008,1.487,1.504,2.815,1.504c1.584,0,2.608-0.943,2.608-2.271c0-1.168-0.688-1.68-2.08-2.129
		c-1.184-0.383-1.84-0.479-1.84-1.23c0-0.625,0.496-1.072,1.216-1.072c0.752,0,1.344,0.367,1.632,1.023l0.992-0.607
		c-0.384-0.912-1.312-1.424-2.544-1.424c-1.521,0-2.528,0.912-2.528,2.16c0,1.408,1.057,1.711,2.816,2.318
		c0.752,0.258,1.12,0.545,1.12,1.09c0,0.623-0.528,1.07-1.345,1.07c-0.815,0-1.424-0.367-1.823-1.135L231.327,274.951z
		 M224.287,276.152h1.216l0.016-3.777l3.681,3.777h1.712l-3.889-3.873l3.568-3.279h-1.632l-3.44,3.248l-0.016-8.209h-1.216V276.152z
		 M221.199,271.768h-4.353c0.128-1.217,1.008-1.969,2.176-1.969C220.319,269.799,221.119,270.504,221.199,271.768 M222.511,272.76
		v-0.24c0-2.367-1.344-3.791-3.439-3.791c-2.08,0-3.568,1.566-3.568,3.822c0,2.336,1.472,3.904,3.648,3.904
		c1.472,0,2.592-0.656,3.312-1.951l-0.928-0.625c-0.592,1.041-1.36,1.553-2.32,1.553c-1.376,0-2.368-1.008-2.368-2.561v-0.111
		H222.511z M213.056,271.768h-4.352c0.128-1.217,1.008-1.969,2.176-1.969C212.176,269.799,212.976,270.504,213.056,271.768
		 M214.368,272.76v-0.24c0-2.367-1.345-3.791-3.44-3.791c-2.08,0-3.567,1.566-3.567,3.822c0,2.336,1.472,3.904,3.647,3.904
		c1.472,0,2.592-0.656,3.312-1.951l-0.929-0.625c-0.592,1.041-1.359,1.553-2.319,1.553c-1.376,0-2.368-1.008-2.368-2.561v-0.111
		H214.368z M201.376,268.744h-0.192l-2.176,5.135L197.104,269h-1.359l3.184,7.6l2.353-5.488l2.352,5.488l3.184-7.6h-1.376
		l-1.92,4.879L201.376,268.744z M189.536,274.855H185.2l1.792-1.936c1.84-2,2.896-3.504,2.896-5.152
		c0-1.969-1.312-3.168-3.552-3.168c-2.256,0-3.584,1.264-3.584,3.424c0,0.096,0.016,0.209,0.016,0.305h1.28v-0.129
		c0-1.52,0.8-2.352,2.24-2.352c1.376,0,2.256,0.848,2.256,2c0,1.488-1.424,3.008-3.488,5.439l-2.416,2.865h6.896V274.855z
		 M174.048,270.439c0.704-0.543,1.536-0.816,2.432-0.816c1.761,0,2.849,1.121,2.849,2.752c0,1.777-1.104,2.896-2.736,2.896
		c-1.12,0-2-0.561-2.512-1.615l-0.96,1.119c0.784,1.152,1.888,1.68,3.439,1.68c2.624,0,4.208-1.631,4.208-4.207
		c0-2.289-1.392-3.729-3.632-3.729c-0.64,0-1.232,0.129-1.776,0.416l0.72-2.943h4.096v-1.168h-5.024l-1.36,5.568L174.048,270.439z
		 M163.472,276.152h1.216v-3.488c0-1.873,0.64-2.801,1.936-2.801c0.224,0,0.48,0.049,0.752,0.145l0.416-1.104
		c-0.272-0.096-0.544-0.145-0.832-0.145c-1.088,0-1.76,0.512-2.4,1.729V269h-1.088V276.152z M160.384,271.768h-4.352
		c0.128-1.217,1.008-1.969,2.176-1.969C159.504,269.799,160.304,270.504,160.384,271.768 M161.696,272.76v-0.24
		c0-2.367-1.344-3.791-3.44-3.791c-2.08,0-3.568,1.566-3.568,3.822c0,2.336,1.472,3.904,3.648,3.904
		c1.472,0,2.592-0.656,3.312-1.951l-0.928-0.625c-0.592,1.041-1.36,1.553-2.32,1.553c-1.376,0-2.368-1.008-2.368-2.561v-0.111
		H161.696z M150.56,276.6l3.52-7.6h-1.376l-2.16,4.992L148.4,269h-1.376L150.56,276.6z M139.905,272.6
		c0-1.52,1.152-2.703,2.592-2.703c1.424,0,2.576,1.184,2.576,2.703s-1.152,2.703-2.576,2.703
		C141.073,275.303,139.905,274.119,139.905,272.6 M138.609,272.6c0,1.039,0.384,1.969,1.136,2.721
		c0.736,0.734,1.696,1.135,2.752,1.135c1.04,0,2-0.416,2.752-1.152c0.736-0.719,1.136-1.664,1.136-2.703s-0.4-2-1.136-2.721
		c-0.752-0.734-1.696-1.135-2.752-1.135c-1.056,0-2.016,0.383-2.752,1.119C138.993,270.6,138.609,271.561,138.609,272.6
		 M126.241,272.6c0-1.52,1.152-2.703,2.592-2.703c1.424,0,2.576,1.184,2.576,2.703s-1.152,2.703-2.576,2.703
		C127.409,275.303,126.241,274.119,126.241,272.6 M124.945,272.6c0,1.039,0.384,1.969,1.136,2.721
		c0.736,0.734,1.696,1.135,2.752,1.135c1.04,0,2-0.416,2.752-1.152c0.736-0.719,1.136-1.664,1.136-2.703s-0.4-2-1.136-2.721
		c-0.752-0.734-1.696-1.135-2.752-1.135s-2.016,0.383-2.752,1.119C125.329,270.6,124.945,271.561,124.945,272.6 M117.617,272.615
		c0-1.615,0.992-2.656,2.432-2.656c1.424,0,2.304,0.912,2.304,2.496c0,1.793-0.912,2.816-2.336,2.816
		C118.545,275.271,117.617,274.312,117.617,272.615 M116.449,264.039v12.113h1.168v-1.297c0.56,1.023,1.504,1.6,2.608,1.6
		c2.048,0,3.424-1.52,3.424-3.855c0-2.4-1.376-3.855-3.376-3.855c-1.184,0-2.064,0.543-2.608,1.6v-6.305H116.449z M113.377,271.768
		h-4.352c0.128-1.217,1.008-1.969,2.176-1.969C112.497,269.799,113.297,270.504,113.377,271.768 M114.689,272.76v-0.24
		c0-2.367-1.344-3.791-3.44-3.791c-2.08,0-3.568,1.566-3.568,3.822c0,2.336,1.472,3.904,3.648,3.904
		c1.472,0,2.592-0.656,3.312-1.951l-0.928-0.625c-0.592,1.041-1.36,1.553-2.32,1.553c-1.376,0-2.368-1.008-2.368-2.561v-0.111
		H114.689z M106.689,274.455c-0.752,0.545-1.44,0.816-2.208,0.816c-1.488,0-2.56-1.152-2.56-2.592c0-1.695,1.088-2.752,2.656-2.752
		c0.704,0,1.376,0.225,1.984,0.623v-1.311c-0.656-0.32-1.424-0.496-2.224-0.496c-2.144,0-3.728,1.568-3.728,3.904
		c0,2.256,1.456,3.807,3.68,3.807c0.928,0,1.744-0.191,2.4-0.576V274.455z M97.649,272.648c0,1.646-0.896,2.592-2.336,2.592
		c-1.52,0-2.384-0.977-2.384-2.705c0-1.631,0.864-2.576,2.336-2.576C96.641,269.959,97.649,270.984,97.649,272.648 M98.833,269
		h-1.216v1.344c-0.544-1.057-1.424-1.6-2.624-1.6c-2,0-3.36,1.455-3.36,3.855c0,2.336,1.376,3.855,3.424,3.855
		c1.104,0,2.016-0.559,2.592-1.6v1.297h1.184V269z M88.45,276.152h1.216v-12.113H88.45V276.152z M80.498,272.6
		c0-1.695,0.928-2.672,2.4-2.672c1.424,0,2.32,1.023,2.32,2.816c0,1.584-0.88,2.512-2.304,2.512
		C81.474,275.256,80.498,274.215,80.498,272.6 M79.314,279.639h1.216v-4.783c0.544,1.057,1.424,1.6,2.608,1.6
		c2,0,3.376-1.439,3.376-3.855c0-2.352-1.376-3.855-3.424-3.855c-1.104,0-2.048,0.559-2.608,1.6V269h-1.168V279.639z M67.49,274.951
		c0.56,1.008,1.488,1.504,2.816,1.504c1.584,0,2.608-0.943,2.608-2.271c0-1.168-0.688-1.68-2.08-2.129
		c-1.184-0.383-1.84-0.479-1.84-1.23c0-0.625,0.496-1.072,1.216-1.072c0.752,0,1.344,0.367,1.632,1.023l0.992-0.607
		c-0.384-0.912-1.312-1.424-2.544-1.424c-1.52,0-2.528,0.912-2.528,2.16c0,1.408,1.056,1.711,2.816,2.318
		c0.752,0.258,1.12,0.545,1.12,1.09c0,0.623-0.528,1.07-1.344,1.07s-1.424-0.367-1.824-1.135L67.49,274.951z M63.49,276.6l3.52-7.6
		h-1.376l-2.16,4.992L61.33,269h-1.376L63.49,276.6z"/>
</g>
</svg>
