<?xml version="1.0" encoding="utf-8"?>
<!-- Generator: Adobe Illustrator 15.1.0, SVG Export Plug-In . SVG Version: 6.00 Build 0)  -->
<!DOCTYPE svg PUBLIC "-//W3C//DTD SVG 1.1//EN" "http://www.w3.org/Graphics/SVG/1.1/DTD/svg11.dtd">
<svg version="1.1" id="art" xmlns="http://www.w3.org/2000/svg" xmlns:xlink="http://www.w3.org/1999/xlink" x="0px" y="0px"
	 width="912px" height="564px" viewBox="0 0 912 564" enable-background="new 0 0 912 564" xml:space="preserve">
<g>
	<defs>
		<rect id="SVGID_1_" x="-9" y="-1" width="930" height="562.252"/>
	</defs>
	<clipPath id="SVGID_2_">
		<use xlink:href="#SVGID_1_"  overflow="visible"/>
	</clipPath>
	<rect y="400" clip-path="url(#SVGID_2_)" fill="#F3E3D5" width="912" height="20"/>
	<rect y="80" clip-path="url(#SVGID_2_)" fill="#F3E3D5" width="912" height="40"/>
	<rect clip-path="url(#SVGID_2_)" fill="#F3E3D5" width="912" height="40"/>
	<rect y="160" clip-path="url(#SVGID_2_)" fill="#F3E3D5" width="912" height="40"/>
	<rect y="240" clip-path="url(#SVGID_2_)" fill="#F3E3D5" width="912" height="40"/>
	<rect y="320" clip-path="url(#SVGID_2_)" fill="#F3E3D5" width="912" height="40"/>
	<line clip-path="url(#SVGID_2_)" fill="none" stroke="#D1D3D4" stroke-width="0.5" x1="228" y1="0" x2="228" y2="420"/>
	<line clip-path="url(#SVGID_2_)" fill="none" stroke="#D1D3D4" stroke-width="0.5" x1="114" y1="0" x2="114" y2="420"/>
	<line clip-path="url(#SVGID_2_)" fill="none" stroke="#D1D3D4" stroke-width="0.5" x1="342" y1="0" x2="342" y2="420"/>
	<line clip-path="url(#SVGID_2_)" fill="none" stroke="#D1D3D4" stroke-width="0.5" x1="456" y1="0" x2="456" y2="420"/>
	<line clip-path="url(#SVGID_2_)" fill="none" stroke="#D1D3D4" stroke-width="0.5" x1="570" y1="80" x2="570" y2="420"/>
	<line clip-path="url(#SVGID_2_)" fill="none" stroke="#D1D3D4" stroke-width="0.5" x1="684" y1="80" x2="684" y2="420"/>
	<line clip-path="url(#SVGID_2_)" fill="none" stroke="#D1D3D4" stroke-width="0.5" x1="798" y1="0" x2="798" y2="420"/>
	<g clip-path="url(#SVGID_2_)">
		<defs>
			<rect id="SVGID_3_" x="-9" y="-1" width="930" height="562.252"/>
		</defs>
		<clipPath id="SVGID_4_">
			<use xlink:href="#SVGID_3_"  overflow="visible"/>
		</clipPath>
		<path clip-path="url(#SVGID_4_)" fill="#F9A25E" d="M39.616,19.998v4.352c-1.216-0.128-1.968-1.008-1.968-2.176
			C37.648,20.877,38.352,20.077,39.616,19.998 M40.608,18.686h-0.24c-2.368,0-3.792,1.344-3.792,3.44
			c0,2.08,1.568,3.568,3.824,3.568c2.336,0,3.904-1.472,3.904-3.648c0-1.472-0.656-2.592-1.952-3.312l-0.624,0.928
			c1.04,0.592,1.552,1.36,1.552,2.32c0,1.376-1.008,2.368-2.56,2.368h-0.112V18.686z M44,33.901v-1.216h-3.696
			c-0.784,0-1.376,0-1.888-0.416c-0.496-0.4-0.768-1.024-0.768-1.744c0-1.28,0.704-1.904,2.144-1.904H44v-1.216h-4.864
			c-1.616,0-2.544,1.024-2.544,2.688c0,1.12,0.432,1.984,1.36,2.592h-1.104v1.216H44z M33.408,37.917c0.512,0,0.896-0.4,0.896-0.897
			c0-0.495-0.384-0.896-0.88-0.896c-0.496,0-0.912,0.401-0.912,0.896C32.512,37.518,32.912,37.917,33.408,37.917 M44,36.414h-7.152
			v1.216H44V36.414z M44,40.204H31.888v1.216H44V40.204z M39.616,44.556v4.352c-1.216-0.128-1.968-1.008-1.968-2.176
			C37.648,45.437,38.352,44.636,39.616,44.556 M40.608,43.244h-0.24c-2.368,0-3.792,1.344-3.792,3.44
			c0,2.08,1.568,3.568,3.824,3.568c2.336,0,3.904-1.472,3.904-3.648c0-1.472-0.656-2.592-1.952-3.312l-0.624,0.928
			c1.04,0.592,1.552,1.36,1.552,2.32c0,1.376-1.008,2.368-2.56,2.368h-0.112V43.244z M42.8,56.812
			c1.008-0.56,1.504-1.488,1.504-2.816c0-1.584-0.944-2.608-2.272-2.608c-1.168,0-1.68,0.688-2.128,2.08
			c-0.384,1.184-0.48,1.84-1.232,1.84c-0.624,0-1.072-0.496-1.072-1.216c0-0.752,0.368-1.344,1.024-1.632l-0.608-0.992
			c-0.912,0.384-1.424,1.312-1.424,2.544c0,1.52,0.912,2.528,2.16,2.528c1.408,0,1.712-1.056,2.32-2.816
			c0.256-0.752,0.544-1.12,1.088-1.12c0.624,0,1.072,0.528,1.072,1.344s-0.368,1.424-1.136,1.824L42.8,56.812z M40.496,59.612
			c1.648,0,2.592,0.896,2.592,2.336c0,1.52-0.976,2.384-2.704,2.384c-1.632,0-2.576-0.864-2.576-2.336
			C37.808,60.62,38.832,59.612,40.496,59.612 M36.848,58.428v1.216h1.344c-1.056,0.544-1.6,1.424-1.6,2.624
			c0,2,1.456,3.36,3.856,3.36c2.336,0,3.856-1.376,3.856-3.424c0-1.104-0.56-2.016-1.6-2.592H44v-1.184H36.848z M40.464,72.988
			c-1.616,0-2.656-0.992-2.656-2.432c0-1.424,0.912-2.304,2.496-2.304c1.792,0,2.816,0.912,2.816,2.336
			C43.12,72.061,42.16,72.988,40.464,72.988 M31.888,74.156H44v-1.168h-1.296c1.024-0.56,1.6-1.504,1.6-2.608
			c0-2.048-1.52-3.424-3.856-3.424c-2.4,0-3.856,1.376-3.856,3.376c0,1.184,0.544,2.064,1.6,2.608h-6.304V74.156z M44,82.333v-1.216
			h-4.864c-1.616,0-2.544,0.96-2.544,2.544c0,1.088,0.464,1.92,1.456,2.544c-0.96,0.416-1.456,1.248-1.456,2.4
			c0,1.072,0.448,1.888,1.36,2.464h-1.104v1.216H44v-1.216h-3.696c-0.176,0-0.352,0.016-0.512,0.016
			c-0.544,0-0.992-0.064-1.376-0.368c-0.496-0.384-0.768-0.976-0.768-1.632c0-1.216,0.704-1.776,2.144-1.776H44v-1.216h-3.696
			c-0.16,0-0.304,0.016-0.448,0.016c-0.592,0-1.04-0.08-1.44-0.384c-0.496-0.384-0.768-0.96-0.768-1.616
			c0-1.216,0.704-1.776,2.144-1.776H44z M40.448,100.587c-1.52,0-2.704-1.152-2.704-2.592c0-1.424,1.184-2.576,2.704-2.576
			c1.52,0,2.704,1.152,2.704,2.576C43.152,99.419,41.968,100.587,40.448,100.587 M40.448,101.883c1.04,0,1.968-0.384,2.72-1.136
			c0.736-0.736,1.136-1.696,1.136-2.752c0-1.04-0.416-2-1.152-2.752c-0.72-0.736-1.664-1.136-2.704-1.136c-1.04,0-2,0.4-2.72,1.136
			c-0.736,0.752-1.136,1.696-1.136,2.752c0,1.056,0.384,2.016,1.12,2.752C38.448,101.5,39.408,101.883,40.448,101.883 M44,106.827
			v-1.216h-3.488c-1.872,0-2.8-0.64-2.8-1.936c0-0.224,0.048-0.48,0.144-0.752l-1.104-0.416c-0.096,0.272-0.144,0.544-0.144,0.832
			c0,1.088,0.512,1.76,1.728,2.4h-1.488v1.088H44z M44,111.067v-1.216h-6.144v-1.904h-1.008v1.904h-1.904
			c-1.376,0-2.032-0.032-2.032-0.944c0-0.32,0.08-0.64,0.256-0.96h-1.264c-0.112,0.336-0.16,0.688-0.16,1.056
			c0,1.712,0.896,2.064,3.04,2.064h2.064v1.376h1.008v-1.376H44z M42.8,123.211c1.008-0.56,1.504-1.488,1.504-2.816
			c0-1.584-0.944-2.608-2.272-2.608c-1.168,0-1.68,0.688-2.128,2.08c-0.384,1.184-0.48,1.84-1.232,1.84
			c-0.624,0-1.072-0.496-1.072-1.216c0-0.752,0.368-1.344,1.024-1.632l-0.608-0.992c-0.912,0.384-1.424,1.312-1.424,2.544
			c0,1.52,0.912,2.528,2.16,2.528c1.408,0,1.712-1.056,2.32-2.816c0.256-0.752,0.544-1.12,1.088-1.12
			c0.624,0,1.072,0.528,1.072,1.344c0,0.816-0.368,1.424-1.136,1.824L42.8,123.211z M39.616,125.531v4.352
			c-1.216-0.128-1.968-1.008-1.968-2.176C37.648,126.411,38.352,125.611,39.616,125.531 M40.608,124.219h-0.24
			c-2.368,0-3.792,1.344-3.792,3.44c0,2.08,1.568,3.568,3.824,3.568c2.336,0,3.904-1.472,3.904-3.648
			c0-1.472-0.656-2.592-1.952-3.312l-0.624,0.928c1.04,0.592,1.552,1.36,1.552,2.32c0,1.376-1.008,2.368-2.56,2.368h-0.112V124.219z
			 M44,136.124v-1.216h-3.488c-1.872,0-2.8-0.64-2.8-1.936c0-0.224,0.048-0.48,0.144-0.752l-1.104-0.416
			c-0.096,0.272-0.144,0.544-0.144,0.832c0,1.088,0.512,1.76,1.728,2.4h-1.488v1.088H44z M42.304,137.755
			c0.544,0.752,0.816,1.44,0.816,2.208c0,1.488-1.152,2.56-2.592,2.56c-1.696,0-2.752-1.088-2.752-2.656
			c0-0.704,0.224-1.376,0.624-1.984h-1.312c-0.32,0.656-0.496,1.424-0.496,2.224c0,2.144,1.568,3.728,3.904,3.728
			c2.256,0,3.808-1.456,3.808-3.68c0-0.928-0.192-1.744-0.576-2.4H42.304z M40.448,151.546c-1.52,0-2.704-1.151-2.704-2.591
			c0-1.424,1.184-2.576,2.704-2.576c1.52,0,2.704,1.152,2.704,2.576C43.152,150.379,41.968,151.546,40.448,151.546 M40.448,152.843
			c1.04,0,1.968-0.384,2.72-1.136c0.736-0.736,1.136-1.696,1.136-2.752c0-1.04-0.416-2-1.152-2.753
			c-0.72-0.735-1.664-1.135-2.704-1.135c-1.04,0-2,0.4-2.72,1.135c-0.736,0.753-1.136,1.697-1.136,2.753
			c0,1.056,0.384,2.016,1.12,2.752C38.448,152.459,39.408,152.843,40.448,152.843 M42.8,159.45c1.008-0.56,1.504-1.487,1.504-2.815
			c0-1.585-0.944-2.609-2.272-2.609c-1.168,0-1.68,0.688-2.128,2.08c-0.384,1.184-0.48,1.84-1.232,1.84
			c-0.624,0-1.072-0.496-1.072-1.216c0-0.751,0.368-1.344,1.024-1.632l-0.608-0.992c-0.912,0.384-1.424,1.313-1.424,2.544
			c0,1.52,0.912,2.528,2.16,2.528c1.408,0,1.712-1.056,2.32-2.816c0.256-0.752,0.544-1.12,1.088-1.12
			c0.624,0,1.072,0.528,1.072,1.344s-0.368,1.424-1.136,1.825L42.8,159.45z M44,165.898H32.56v1.36H44V165.898z M42.72,177.435
			h-8.896v-0.88c0-1.968,0.032-3.328,0.832-4.272c0.784-0.944,2-1.44,3.616-1.44s2.864,0.512,3.632,1.44
			c0.8,0.96,0.816,2.32,0.816,4.272V177.435z M44,178.794v-2.688c0-1.856-0.048-3.36-1.072-4.688c-1.008-1.312-2.592-2-4.64-2
			s-3.648,0.688-4.656,2c-1.072,1.392-1.072,3.04-1.072,5.184v2.192H44z M39.824,184.842h1.232v-3.648h-1.232V184.842z
			 M39.92,191.386v1.68l2.528-2.336c0.352,0.64,0.512,1.36,0.512,2.208c0,0.976-0.288,1.872-0.816,2.608
			c-0.944,1.296-2.24,1.952-3.856,1.952c-1.248,0-2.432-0.48-3.312-1.36c-0.88-0.88-1.36-2.064-1.36-3.312
			c0-1.696,0.816-3.152,2.24-4.016c0.688-0.416,1.552-0.64,2.496-0.64c1.408,0,2.624,0.56,3.392,1.52L39.92,191.386z M45.104,186.57
			l-2.352,2.176c-1.072-1.344-2.624-2.048-4.448-2.048c-1.744,0-3.296,0.672-4.416,1.904c-1.04,1.152-1.584,2.592-1.584,4.224
			c0,1.632,0.608,3.152,1.744,4.32c1.136,1.152,2.64,1.792,4.24,1.792c1.984,0,3.664-0.848,4.848-2.448
			c0.736-0.992,1.12-2.176,1.12-3.472c0-1.264-0.256-2.336-0.784-3.248l1.632-1.52V186.57z M35.12,204.714l4.208-1.824v3.648
			L35.12,204.714z M32.112,204.714L44,209.898v-1.472l-3.504-1.488v-4.464L44,200.986v-1.472L32.112,204.714z M44,219.802v-1.36
			h-5.744v-6.08H44v-1.36H32.56v1.36h4.4v6.08h-4.4v1.36H44z M44,233.402v-1.216h-3.696c-0.784,0-1.376,0-1.888-0.416
			c-0.496-0.4-0.768-1.024-0.768-1.744c0-1.28,0.704-1.904,2.144-1.904H44v-1.216h-4.864c-1.616,0-2.544,1.024-2.544,2.688
			c0,1.12,0.432,1.984,1.36,2.592h-1.104v1.216H44z M33.408,237.417c0.512,0,0.896-0.4,0.896-0.896s-0.384-0.896-0.88-0.896
			c-0.496,0-0.912,0.4-0.912,0.896S32.912,237.417,33.408,237.417 M44,235.914h-7.152v1.216H44V235.914z M39.616,244.905v4.352
			c-1.216-0.128-1.968-1.008-1.968-2.176C37.648,245.785,38.352,244.985,39.616,244.905 M40.608,243.593h-0.24
			c-2.368,0-3.792,1.344-3.792,3.44c0,2.08,1.568,3.568,3.824,3.568c2.336,0,3.904-1.472,3.904-3.648
			c0-1.472-0.656-2.592-1.952-3.312l-0.624,0.928c1.04,0.592,1.552,1.36,1.552,2.32c0,1.376-1.008,2.368-2.56,2.368h-0.112V243.593z
			 M40.448,253.562c1.648,0,2.608,0.896,2.608,2.336c0,1.52-0.976,2.384-2.704,2.384c-1.632,0-2.576-0.864-2.576-2.336
			C37.776,254.569,38.784,253.562,40.448,253.562 M36.848,252.345v1.248h1.328c-1.04,0.528-1.584,1.44-1.584,2.624
			c0,2,1.424,3.36,3.808,3.36c2.32,0,3.824-1.376,3.824-3.424c0-1.104-0.56-2.032-1.584-2.592h1.2c0.656,0,1.184,0.032,1.632,0.304
			c0.624,0.368,0.944,1.072,0.944,2.048c0,1.376-0.624,2.128-1.68,2.128H44.64v1.376c1.792-0.048,2.848-1.296,2.848-3.488
			c0-1.264-0.368-2.224-1.072-2.88c-0.72-0.672-1.52-0.704-2.544-0.704H36.848z M44,267.865v-1.216h-3.696
			c-0.784,0-1.376,0-1.888-0.416c-0.496-0.4-0.768-1.024-0.768-1.744c0-1.28,0.704-1.904,2.144-1.904H44v-1.216h-4.864
			c-1.616,0-2.544,1.024-2.544,2.688c0,1.12,0.432,1.984,1.36,2.592h-1.104v1.216H44z M40.496,271.417
			c1.648,0,2.592,0.896,2.592,2.336c0,1.52-0.976,2.384-2.704,2.384c-1.632,0-2.576-0.864-2.576-2.336
			C37.808,272.425,38.832,271.417,40.496,271.417 M36.848,270.233v1.216h1.344c-1.056,0.544-1.6,1.424-1.6,2.624
			c0,2,1.456,3.36,3.856,3.36c2.336,0,3.856-1.376,3.856-3.424c0-1.104-0.56-2.016-1.6-2.592H44v-1.184H36.848z M44,285.721v-1.215
			h-3.696c-0.784,0-1.376,0-1.888-0.416c-0.496-0.4-0.768-1.024-0.768-1.744c0-1.28,0.704-1.904,2.144-1.904H44v-1.216h-4.864
			c-1.616,0-2.544,1.024-2.544,2.688c0,1.119,0.432,1.983,1.36,2.607h-6.064v1.199H44z M42.304,287.338
			c0.544,0.752,0.816,1.439,0.816,2.207c0,1.488-1.152,2.561-2.592,2.561c-1.696,0-2.752-1.088-2.752-2.656
			c0-0.704,0.224-1.376,0.624-1.984h-1.312c-0.32,0.656-0.496,1.424-0.496,2.225c0,2.145,1.568,3.729,3.904,3.729
			c2.256,0,3.808-1.457,3.808-3.681c0-0.928-0.192-1.744-0.576-2.399H42.304z M44,306.297v-1.217h-3.696
			c-0.784,0-1.376,0-1.888-0.416c-0.496-0.4-0.768-1.023-0.768-1.744c0-1.279,0.704-1.903,2.144-1.903H44v-1.216h-4.864
			c-1.616,0-2.544,1.023-2.544,2.688c0,1.12,0.432,1.984,1.36,2.592h-1.104v1.217H44z M40.496,309.848
			c1.648,0,2.592,0.896,2.592,2.337c0,1.521-0.976,2.384-2.704,2.384c-1.632,0-2.576-0.863-2.576-2.336
			C37.808,310.856,38.832,309.848,40.496,309.848 M36.848,308.664v1.217h1.344c-1.056,0.543-1.6,1.424-1.6,2.623
			c0,2,1.456,3.36,3.856,3.36c2.336,0,3.856-1.376,3.856-3.424c0-1.104-0.56-2.017-1.6-2.593H44v-1.184H36.848z M39.616,318.393
			v4.352c-1.216-0.128-1.968-1.008-1.968-2.176C37.648,319.272,38.352,318.473,39.616,318.393 M40.608,317.08h-0.24
			c-2.368,0-3.792,1.344-3.792,3.44c0,2.08,1.568,3.567,3.824,3.567c2.336,0,3.904-1.472,3.904-3.647
			c0-1.472-0.656-2.593-1.952-3.312l-0.624,0.928c1.04,0.592,1.552,1.359,1.552,2.32c0,1.375-1.008,2.367-2.56,2.367h-0.112V317.08z
			 M44,327v-1.216h-4.864c-1.616,0-2.544,0.96-2.544,2.544c0,1.088,0.464,1.92,1.456,2.545c-0.96,0.416-1.456,1.247-1.456,2.399
			c0,1.071,0.448,1.888,1.36,2.464h-1.104v1.216H44v-1.216h-3.696c-0.176,0-0.352,0.016-0.512,0.016
			c-0.544,0-0.992-0.063-1.376-0.367c-0.496-0.385-0.768-0.977-0.768-1.633c0-1.216,0.704-1.775,2.144-1.775H44v-1.217h-3.696
			c-0.16,0-0.304,0.017-0.448,0.017c-0.592,0-1.04-0.08-1.44-0.384c-0.496-0.385-0.768-0.961-0.768-1.616
			c0-1.216,0.704-1.776,2.144-1.776H44z M40.464,345.192c1.696,0,2.656,0.928,2.656,2.399c0,1.425-1.024,2.32-2.816,2.32
			c-1.584,0-2.496-0.88-2.496-2.304C37.808,346.168,38.848,345.192,40.464,345.192 M31.888,344.008v1.217h6.304
			c-1.056,0.544-1.6,1.424-1.6,2.607c0,2,1.456,3.377,3.856,3.377c2.336,0,3.856-1.377,3.856-3.425c0-1.104-0.576-2.032-1.6-2.592
			H44v-1.185H31.888z M39.616,353.736v4.352c-1.216-0.127-1.968-1.008-1.968-2.176C37.648,354.616,38.352,353.816,39.616,353.736
			 M40.608,352.424h-0.24c-2.368,0-3.792,1.345-3.792,3.44c0,2.08,1.568,3.567,3.824,3.567c2.336,0,3.904-1.471,3.904-3.647
			c0-1.472-0.656-2.592-1.952-3.312l-0.624,0.928c1.04,0.592,1.552,1.359,1.552,2.32c0,1.375-1.008,2.367-2.56,2.367h-0.112V352.424
			z M37.856,362.68H44v-1.217h-6.144v-1.344h-1.008v1.344h-2.88v1.217h2.88v1.312h1.008V362.68z M42.8,370.055
			c1.008-0.56,1.504-1.487,1.504-2.815c0-1.584-0.944-2.608-2.272-2.608c-1.168,0-1.68,0.688-2.128,2.08
			c-0.384,1.185-0.48,1.84-1.232,1.84c-0.624,0-1.072-0.496-1.072-1.215c0-0.752,0.368-1.345,1.024-1.633l-0.608-0.992
			c-0.912,0.385-1.424,1.312-1.424,2.545c0,1.52,0.912,2.527,2.16,2.527c1.408,0,1.712-1.056,2.32-2.816
			c0.256-0.752,0.544-1.119,1.088-1.119c0.624,0,1.072,0.527,1.072,1.344s-0.368,1.424-1.136,1.824L42.8,370.055z M36.848,376.855
			v1.216h4.272c2.096,0,3.184-1.136,3.184-3.216c0-2.145-1.12-3.264-3.28-3.264h-4.176v1.215h3.52c1.888,0,2.768,0.449,2.768,2.017
			c0,1.568-0.88,2.032-2.768,2.032H36.848z M33.408,381.991c0.512,0,0.896-0.399,0.896-0.896s-0.384-0.896-0.88-0.896
			c-0.496,0-0.912,0.4-0.912,0.896S32.912,381.991,33.408,381.991 M47.488,380.487h-10.64v1.216h10.64V380.487z M40.464,385.367
			c1.696,0,2.656,0.928,2.656,2.4c0,1.424-1.024,2.32-2.816,2.32c-1.584,0-2.496-0.881-2.496-2.305
			C37.808,386.344,38.848,385.367,40.464,385.367 M31.888,384.184v1.216h6.304c-1.056,0.544-1.6,1.424-1.6,2.608
			c0,2,1.456,3.375,3.856,3.375c2.336,0,3.856-1.375,3.856-3.424c0-1.104-0.576-2.031-1.6-2.592H44v-1.184H31.888z M35.12,397.016
			l4.208-1.824v3.648L35.12,397.016z M32.112,397.016L44,402.199v-1.472l-3.504-1.488v-4.464L44,393.287v-1.472L32.112,397.016z"/>
		<g clip-path="url(#SVGID_4_)">
			<g>
				<defs>
					<rect id="SVGID_5_" x="60.312" y="93.168" width="39.824" height="13.856"/>
				</defs>
				<clipPath id="SVGID_6_">
					<use xlink:href="#SVGID_5_"  overflow="visible"/>
				</clipPath>
				<path clip-path="url(#SVGID_6_)" fill="#F9A25E" d="M87.296,95.208c1.248,0,2.017,0.72,2.017,1.904
					c0,1.152-0.736,1.856-2.048,1.856c-1.28,0-2-0.72-2-1.856C85.265,95.944,86.032,95.208,87.296,95.208 M87.28,104.92
					c-1.536,0-2.4-0.88-2.4-2.304c0-1.44,0.896-2.352,2.4-2.352s2.4,0.896,2.4,2.352C89.681,104.041,88.816,104.92,87.28,104.92
					 M85.792,99.672c-1.504,0.416-2.352,1.536-2.352,3.04c0,1.984,1.424,3.312,3.855,3.312c2.448,0,3.84-1.296,3.84-3.344
					c0-1.472-0.848-2.576-2.352-3.008c1.232-0.368,1.936-1.296,1.936-2.528c0-1.776-1.296-2.976-3.424-2.976
					c-2.096,0-3.439,1.232-3.439,2.864C83.856,98.393,84.512,99.272,85.792,99.672 M79.344,104.952c0,0.512,0.4,0.912,0.929,0.912
					c0.527,0,0.943-0.4,0.943-0.912c0-0.512-0.416-0.928-0.943-0.928C79.76,104.024,79.344,104.44,79.344,104.952 M73.296,106.024
					c2.4,0,3.952-2.128,3.952-5.936s-1.536-5.92-3.983-5.92c-2.385,0-3.952,2.144-3.952,5.92S70.88,106.024,73.296,106.024
					 M73.28,104.904c-1.584,0-2.561-1.728-2.561-4.832c0-3.088,0.977-4.8,2.561-4.8c1.664,0,2.56,1.648,2.56,4.832
					C75.84,103.272,74.944,104.904,73.28,104.904"/>
			</g>
		</g>
		<g clip-path="url(#SVGID_4_)">
			<g>
				<defs>
					<rect id="SVGID_7_" x="61.592" y="13.168" width="38.656" height="13.856"/>
				</defs>
				<clipPath id="SVGID_8_">
					<use xlink:href="#SVGID_7_"  overflow="visible"/>
				</clipPath>
				<path clip-path="url(#SVGID_8_)" fill="#F9A25E" d="M87.296,26.024c2.4,0,3.952-2.128,3.952-5.936s-1.536-5.92-3.984-5.92
					c-2.384,0-3.951,2.144-3.951,5.92S84.88,26.024,87.296,26.024 M87.28,24.904c-1.584,0-2.561-1.728-2.561-4.832
					c0-3.088,0.977-4.8,2.561-4.8c1.664,0,2.56,1.648,2.56,4.832C89.84,23.272,88.944,24.904,87.28,24.904 M79.344,24.952
					c0,0.512,0.4,0.912,0.929,0.912c0.527,0,0.943-0.4,0.943-0.912c0-0.512-0.416-0.928-0.943-0.928
					C79.76,24.024,79.344,24.44,79.344,24.952 M72.928,25.72h1.328V14.393H71.36l-0.769,1.184h2.336V25.72z"/>
			</g>
		</g>
		<g clip-path="url(#SVGID_4_)">
			<g>
				<defs>
					<rect id="SVGID_9_" x="60.312" y="172.832" width="39.712" height="14.192"/>
				</defs>
				<clipPath id="SVGID_10_">
					<use xlink:href="#SVGID_9_"  overflow="visible"/>
				</clipPath>
				<path clip-path="url(#SVGID_10_)" fill="#F9A25E" d="M84.896,182.393c0-1.504,0.928-2.544,2.288-2.544
					c1.52,0,2.432,0.976,2.432,2.528c0,1.52-0.944,2.512-2.352,2.512C85.824,184.888,84.896,183.944,84.896,182.393 M85.809,179.256
					l3.695-4.8l-1.184-0.624l-2.608,3.68c-1.264,1.792-2.224,3.12-2.224,4.768c0,2.24,1.408,3.744,3.504,3.744
					c2.496,0,4.032-1.488,4.032-3.776c0-2.096-1.408-3.536-3.456-3.536C86.928,178.712,86.368,178.888,85.809,179.256
					 M79.344,184.952c0,0.512,0.4,0.912,0.929,0.912c0.527,0,0.943-0.4,0.943-0.912c0-0.512-0.416-0.928-0.943-0.928
					C79.76,184.024,79.344,184.44,79.344,184.952 M73.296,186.024c2.4,0,3.952-2.128,3.952-5.936s-1.536-5.92-3.983-5.92
					c-2.385,0-3.952,2.144-3.952,5.92S70.88,186.024,73.296,186.024 M73.28,184.904c-1.584,0-2.561-1.728-2.561-4.832
					c0-3.088,0.977-4.8,2.561-4.8c1.664,0,2.56,1.648,2.56,4.832C75.84,183.272,74.944,184.904,73.28,184.904"/>
			</g>
		</g>
		<g clip-path="url(#SVGID_4_)">
			<g>
				<defs>
					<rect id="SVGID_11_" x="60.312" y="253.168" width="39.648" height="13.856"/>
				</defs>
				<clipPath id="SVGID_12_">
					<use xlink:href="#SVGID_11_"  overflow="visible"/>
				</clipPath>
				<path clip-path="url(#SVGID_12_)" fill="#F9A25E" d="M88.272,265.72h1.344v-2.464h1.344v-1.104h-1.344v-7.984H89.04
					l-6.128,9.088h5.36V265.72z M88.272,262.152h-3.345l3.345-5.024V262.152z M79.344,264.952c0,0.512,0.4,0.912,0.929,0.912
					c0.527,0,0.943-0.4,0.943-0.912c0-0.512-0.416-0.928-0.943-0.928C79.76,264.024,79.344,264.44,79.344,264.952 M73.296,266.024
					c2.4,0,3.952-2.128,3.952-5.936s-1.536-5.92-3.983-5.92c-2.385,0-3.952,2.144-3.952,5.92S70.88,266.024,73.296,266.024
					 M73.28,264.904c-1.584,0-2.561-1.728-2.561-4.832c0-3.088,0.977-4.8,2.561-4.8c1.664,0,2.56,1.648,2.56,4.832
					C75.84,263.272,74.944,264.904,73.28,264.904"/>
			</g>
		</g>
		<g clip-path="url(#SVGID_4_)">
			<g>
				<defs>
					<rect id="SVGID_13_" x="60.312" y="333.168" width="39.392" height="13.855"/>
				</defs>
				<clipPath id="SVGID_14_">
					<use xlink:href="#SVGID_13_"  overflow="visible"/>
				</clipPath>
				<path clip-path="url(#SVGID_14_)" fill="#F9A25E" d="M90.353,344.424h-4.336l1.792-1.936c1.84-2,2.896-3.504,2.896-5.152
					c0-1.968-1.312-3.168-3.552-3.168c-2.256,0-3.584,1.264-3.584,3.424c0,0.097,0.016,0.209,0.016,0.305h1.28v-0.128
					c0-1.521,0.8-2.353,2.24-2.353c1.376,0,2.256,0.848,2.256,2c0,1.488-1.424,3.008-3.488,5.44l-2.416,2.864h6.896V344.424z
					 M79.344,344.952c0,0.513,0.4,0.912,0.929,0.912c0.527,0,0.943-0.399,0.943-0.912c0-0.512-0.416-0.928-0.943-0.928
					C79.76,344.024,79.344,344.44,79.344,344.952 M73.296,346.024c2.4,0,3.952-2.128,3.952-5.937c0-3.808-1.536-5.92-3.983-5.92
					c-2.385,0-3.952,2.145-3.952,5.92C69.312,343.864,70.88,346.024,73.296,346.024 M73.28,344.904
					c-1.584,0-2.561-1.729-2.561-4.832c0-3.088,0.977-4.8,2.561-4.8c1.664,0,2.56,1.647,2.56,4.832
					C75.84,343.272,74.944,344.904,73.28,344.904"/>
			</g>
		</g>
		<g clip-path="url(#SVGID_4_)">
			<g>
				<defs>
					<rect id="SVGID_15_" x="60.312" y="373.168" width="36.944" height="13.855"/>
				</defs>
				<clipPath id="SVGID_16_">
					<use xlink:href="#SVGID_15_"  overflow="visible"/>
				</clipPath>
				<path clip-path="url(#SVGID_16_)" fill="#F9A25E" d="M86.928,385.721h1.328v-11.328H85.36l-0.769,1.184h2.336V385.721z
					 M79.344,384.952c0,0.513,0.4,0.912,0.929,0.912c0.527,0,0.943-0.399,0.943-0.912c0-0.512-0.416-0.928-0.943-0.928
					C79.76,384.024,79.344,384.44,79.344,384.952 M73.296,386.024c2.4,0,3.952-2.128,3.952-5.937c0-3.808-1.536-5.92-3.983-5.92
					c-2.385,0-3.952,2.145-3.952,5.92C69.312,383.864,70.88,386.024,73.296,386.024 M73.28,384.904
					c-1.584,0-2.561-1.729-2.561-4.832c0-3.088,0.977-4.8,2.561-4.8c1.664,0,2.56,1.647,2.56,4.832
					C75.84,383.272,74.944,384.904,73.28,384.904"/>
			</g>
		</g>
		<g clip-path="url(#SVGID_4_)">
			<g>
				<defs>
					<rect id="SVGID_17_" x="60.312" y="293.168" width="39.44" height="13.855"/>
				</defs>
				<clipPath id="SVGID_18_">
					<use xlink:href="#SVGID_17_"  overflow="visible"/>
				</clipPath>
				<path clip-path="url(#SVGID_18_)" fill="#F9A25E" d="M83.44,302.824v0.208c0,1.808,1.344,2.992,3.472,2.992
					c2.432,0,3.84-1.28,3.84-3.328c0-1.552-0.815-2.592-2.176-2.815c1.28-0.336,2.032-1.312,2.032-2.672
					c0-1.856-1.296-3.041-3.424-3.041c-2.208,0-3.44,1.104-3.536,3.057h1.344c0.064-1.232,0.832-1.904,2.16-1.904
					c1.264,0,2.032,0.768,2.032,1.952c0,1.344-0.801,2.048-2.385,2.048c-0.128,0-0.239-0.016-0.367-0.016v1.119
					c0.144-0.016,0.271-0.016,0.399-0.016c1.648,0,2.496,0.768,2.496,2.24c0,1.393-0.848,2.208-2.368,2.208
					c-1.312,0-2.128-0.736-2.128-1.904v-0.128H83.44z M79.344,304.952c0,0.513,0.4,0.912,0.929,0.912
					c0.527,0,0.943-0.399,0.943-0.912c0-0.512-0.416-0.928-0.943-0.928C79.76,304.024,79.344,304.44,79.344,304.952 M73.296,306.024
					c2.4,0,3.952-2.128,3.952-5.937c0-3.808-1.536-5.92-3.983-5.92c-2.385,0-3.952,2.145-3.952,5.92
					C69.312,303.864,70.88,306.024,73.296,306.024 M73.28,304.904c-1.584,0-2.561-1.729-2.561-4.832c0-3.088,0.977-4.8,2.561-4.8
					c1.664,0,2.56,1.647,2.56,4.832C75.84,303.272,74.944,304.904,73.28,304.904"/>
			</g>
		</g>
		<g clip-path="url(#SVGID_4_)">
			<g>
				<defs>
					<rect id="SVGID_19_" x="60.312" y="213.168" width="39.632" height="13.856"/>
				</defs>
				<clipPath id="SVGID_20_">
					<use xlink:href="#SVGID_19_"  overflow="visible"/>
				</clipPath>
				<path clip-path="url(#SVGID_20_)" fill="#F9A25E" d="M84.225,220.008c0.703-0.544,1.535-0.816,2.432-0.816
					c1.76,0,2.848,1.12,2.848,2.752c0,1.776-1.104,2.896-2.735,2.896c-1.12,0-2-0.56-2.513-1.616l-0.96,1.12
					c0.784,1.152,1.889,1.68,3.44,1.68c2.624,0,4.208-1.632,4.208-4.208c0-2.288-1.393-3.728-3.632-3.728
					c-0.641,0-1.232,0.128-1.776,0.416l0.72-2.944h4.097v-1.168h-5.024l-1.36,5.568L84.225,220.008z M79.344,224.952
					c0,0.512,0.4,0.912,0.929,0.912c0.527,0,0.943-0.4,0.943-0.912c0-0.512-0.416-0.928-0.943-0.928
					C79.76,224.024,79.344,224.44,79.344,224.952 M73.296,226.024c2.4,0,3.952-2.128,3.952-5.936s-1.536-5.92-3.983-5.92
					c-2.385,0-3.952,2.144-3.952,5.92S70.88,226.024,73.296,226.024 M73.28,224.904c-1.584,0-2.561-1.728-2.561-4.832
					c0-3.088,0.977-4.8,2.561-4.8c1.664,0,2.56,1.648,2.56,4.832C75.84,223.272,74.944,224.904,73.28,224.904"/>
			</g>
		</g>
		<g clip-path="url(#SVGID_4_)">
			<g>
				<defs>
					<rect id="SVGID_21_" x="60.312" y="133.168" width="39.888" height="13.984"/>
				</defs>
				<clipPath id="SVGID_22_">
					<use xlink:href="#SVGID_21_"  overflow="visible"/>
				</clipPath>
				<path clip-path="url(#SVGID_22_)" fill="#F9A25E" d="M84.368,145.576l1.12,0.576l5.712-11.76h-7.248v1.184h5.296L84.368,145.576
					z M79.344,144.952c0,0.512,0.4,0.912,0.929,0.912c0.527,0,0.943-0.4,0.943-0.912c0-0.512-0.416-0.928-0.943-0.928
					C79.76,144.024,79.344,144.44,79.344,144.952 M73.296,146.024c2.4,0,3.952-2.128,3.952-5.936s-1.536-5.92-3.983-5.92
					c-2.385,0-3.952,2.144-3.952,5.92S70.88,146.024,73.296,146.024 M73.28,144.904c-1.584,0-2.561-1.728-2.561-4.832
					c0-3.088,0.977-4.8,2.561-4.8c1.664,0,2.56,1.648,2.56,4.832C75.84,143.272,74.944,144.904,73.28,144.904"/>
			</g>
		</g>
		<g clip-path="url(#SVGID_4_)">
			<g>
				<defs>
					<rect id="SVGID_23_" x="60.312" y="53.168" width="39.664" height="14.176"/>
				</defs>
				<clipPath id="SVGID_24_">
					<use xlink:href="#SVGID_23_"  overflow="visible"/>
				</clipPath>
				<path clip-path="url(#SVGID_24_)" fill="#F9A25E" d="M89.584,57.8c0,1.504-0.943,2.528-2.304,2.528
					c-1.521,0-2.416-0.976-2.416-2.528c0-1.52,0.944-2.512,2.352-2.512C88.656,55.289,89.584,56.249,89.584,57.8 M88.672,60.92
					l-3.695,4.816l1.184,0.608l2.608-3.68c1.264-1.792,2.208-3.104,2.208-4.752c0-2.24-1.408-3.744-3.504-3.744
					c-2.496,0-4.017,1.472-4.017,3.76c0,2.096,1.408,3.536,3.456,3.536C87.552,61.464,88.112,61.289,88.672,60.92 M79.344,64.952
					c0,0.512,0.4,0.912,0.929,0.912c0.527,0,0.943-0.4,0.943-0.912c0-0.512-0.416-0.928-0.943-0.928
					C79.76,64.024,79.344,64.44,79.344,64.952 M73.296,66.024c2.4,0,3.952-2.128,3.952-5.936s-1.536-5.92-3.983-5.92
					c-2.385,0-3.952,2.144-3.952,5.92S70.88,66.024,73.296,66.024 M73.28,64.904c-1.584,0-2.561-1.728-2.561-4.832
					c0-3.088,0.977-4.8,2.561-4.8c1.664,0,2.56,1.648,2.56,4.832C75.84,63.272,74.944,64.904,73.28,64.904"/>
			</g>
		</g>
	</g>
	<polyline clip-path="url(#SVGID_2_)" fill="none" stroke="#808285" stroke-width="2" points="114,420 142.5,375 171,360 
		228.25,359.762 289,320 342,322.5 399,320 456,336 512.666,347 570,351 684,340 798,350.5 	"/>
	<polyline clip-path="url(#SVGID_2_)" fill="none" stroke="#F9A25E" stroke-width="2" points="114.454,419.5 142.5,317.5 
		228.454,263 342.454,227 399.332,215.026 456.454,210.05 513.332,202.5 570.454,195 684.454,187 798.454,191 	"/>
	<line clip-path="url(#SVGID_2_)" fill="none" stroke="#F9A25E" stroke-width="3" x1="0" y1="420" x2="912" y2="420"/>
	<g clip-path="url(#SVGID_2_)">
		<defs>
			<rect id="SVGID_25_" x="-9" y="-1" width="930" height="562.252"/>
		</defs>
		<clipPath id="SVGID_26_">
			<use xlink:href="#SVGID_25_"  overflow="visible"/>
		</clipPath>
		<g clip-path="url(#SVGID_26_)">
			<g>
				<defs>
					<rect id="SVGID_27_" x="780.496" y="443.447" width="34.864" height="13.553"/>
				</defs>
				<clipPath id="SVGID_28_">
					<use xlink:href="#SVGID_27_"  overflow="visible"/>
				</clipPath>
				<path clip-path="url(#SVGID_28_)" fill="#F9A25E" d="M803.672,456h1.344v-2.464h1.345v-1.104h-1.345v-7.983h-0.575l-6.128,9.088
					h5.359V456z M803.672,452.432h-3.344l3.344-5.023V452.432z M796.392,454.705h-4.336l1.792-1.937c1.84-2,2.896-3.505,2.896-5.152
					c0-1.968-1.312-3.168-3.552-3.168c-2.257,0-3.584,1.265-3.584,3.425c0,0.096,0.016,0.207,0.016,0.303h1.28v-0.127
					c0-1.521,0.8-2.353,2.239-2.353c1.376,0,2.257,0.849,2.257,2c0,1.488-1.425,3.009-3.488,5.44L789.496,456h6.896V454.705z"/>
			</g>
		</g>
		<g clip-path="url(#SVGID_26_)">
			<g>
				<defs>
					<rect id="SVGID_29_" x="666.496" y="443.447" width="35.152" height="13.856"/>
				</defs>
				<clipPath id="SVGID_30_">
					<use xlink:href="#SVGID_29_"  overflow="visible"/>
				</clipPath>
				<path clip-path="url(#SVGID_30_)" fill="#F9A25E" d="M688.696,456.305c2.399,0,3.952-2.129,3.952-5.937s-1.536-5.92-3.984-5.92
					c-2.384,0-3.952,2.144-3.952,5.92S686.28,456.305,688.696,456.305 M688.68,455.185c-1.584,0-2.56-1.728-2.56-4.832
					c0-3.089,0.976-4.8,2.56-4.8c1.664,0,2.561,1.647,2.561,4.832C691.24,453.553,690.344,455.185,688.68,455.185 M682.392,454.705
					h-4.336l1.792-1.937c1.84-2,2.896-3.505,2.896-5.152c0-1.968-1.312-3.168-3.552-3.168c-2.257,0-3.584,1.265-3.584,3.425
					c0,0.096,0.016,0.207,0.016,0.303h1.28v-0.127c0-1.521,0.8-2.353,2.239-2.353c1.376,0,2.257,0.849,2.257,2
					c0,1.488-1.425,3.009-3.488,5.44L675.496,456h6.896V454.705z"/>
			</g>
		</g>
		<g clip-path="url(#SVGID_26_)">
			<g>
				<defs>
					<rect id="SVGID_31_" x="553.632" y="443.111" width="33.792" height="14.192"/>
				</defs>
				<clipPath id="SVGID_32_">
					<use xlink:href="#SVGID_31_"  overflow="visible"/>
				</clipPath>
				<path clip-path="url(#SVGID_32_)" fill="#F9A25E" d="M572.296,452.672c0-1.504,0.928-2.543,2.288-2.543
					c1.52,0,2.432,0.976,2.432,2.527c0,1.52-0.943,2.512-2.352,2.512C573.224,455.168,572.296,454.225,572.296,452.672
					 M573.208,449.536l3.696-4.8l-1.185-0.624l-2.607,3.681c-1.265,1.791-2.225,3.119-2.225,4.768c0,2.24,1.408,3.744,3.504,3.744
					c2.496,0,4.032-1.488,4.032-3.776c0-2.097-1.408-3.536-3.456-3.536C574.328,448.992,573.768,449.168,573.208,449.536
					 M564.968,456h1.328v-11.328H563.4l-0.769,1.185h2.336V456z"/>
			</g>
		</g>
		<g clip-path="url(#SVGID_26_)">
			<g>
				<defs>
					<rect id="SVGID_33_" x="439.632" y="443.447" width="33.472" height="13.553"/>
				</defs>
				<clipPath id="SVGID_34_">
					<use xlink:href="#SVGID_33_"  overflow="visible"/>
				</clipPath>
				<path clip-path="url(#SVGID_34_)" fill="#F9A25E" d="M463.752,454.705h-4.336l1.792-1.937c1.84-2,2.896-3.505,2.896-5.152
					c0-1.968-1.312-3.168-3.552-3.168c-2.256,0-3.584,1.265-3.584,3.425c0,0.096,0.017,0.207,0.017,0.303h1.279v-0.127
					c0-1.521,0.801-2.353,2.24-2.353c1.376,0,2.256,0.849,2.256,2c0,1.488-1.424,3.009-3.488,5.44L456.855,456h6.896V454.705z
					 M450.968,456h1.328v-11.328H449.4l-0.769,1.185h2.336V456z"/>
			</g>
		</g>
		<g clip-path="url(#SVGID_26_)">
			<g>
				<defs>
					<rect id="SVGID_35_" x="329.16" y="443.447" width="25.696" height="13.856"/>
				</defs>
				<clipPath id="SVGID_36_">
					<use xlink:href="#SVGID_35_"  overflow="visible"/>
				</clipPath>
				<path clip-path="url(#SVGID_36_)" fill="#F9A25E" d="M342.016,445.488c1.248,0,2.017,0.721,2.017,1.904
					c0,1.152-0.736,1.855-2.048,1.855c-1.28,0-2-0.72-2-1.855C339.984,446.225,340.752,445.488,342.016,445.488 M342,455.2
					c-1.536,0-2.4-0.88-2.4-2.304c0-1.439,0.896-2.352,2.4-2.352s2.4,0.896,2.4,2.352C344.4,454.32,343.536,455.2,342,455.2
					 M340.512,449.952c-1.504,0.416-2.352,1.536-2.352,3.04c0,1.984,1.424,3.312,3.855,3.312c2.448,0,3.841-1.297,3.841-3.344
					c0-1.473-0.849-2.576-2.353-3.009c1.232-0.368,1.937-1.296,1.937-2.528c0-1.775-1.297-2.976-3.425-2.976
					c-2.096,0-3.439,1.231-3.439,2.864C338.576,448.672,339.232,449.553,340.512,449.952"/>
			</g>
		</g>
		<g clip-path="url(#SVGID_26_)">
			<g>
				<defs>
					<rect id="SVGID_37_" x="214.632" y="443.447" width="26.048" height="13.553"/>
				</defs>
				<clipPath id="SVGID_38_">
					<use xlink:href="#SVGID_37_"  overflow="visible"/>
				</clipPath>
				<path clip-path="url(#SVGID_38_)" fill="#F9A25E" d="M228.992,456h1.344v-2.464h1.344v-1.104h-1.344v-7.983h-0.576l-6.128,9.088
					h5.36V456z M228.992,452.432h-3.344l3.344-5.023V452.432z"/>
			</g>
		</g>
		<g clip-path="url(#SVGID_26_)">
			<g>
				<defs>
					<rect id="SVGID_39_" x="101.032" y="443.447" width="25.936" height="13.856"/>
				</defs>
				<clipPath id="SVGID_40_">
					<use xlink:href="#SVGID_39_"  overflow="visible"/>
				</clipPath>
				<path clip-path="url(#SVGID_40_)" fill="#F9A25E" d="M114.016,456.305c2.4,0,3.952-2.129,3.952-5.937s-1.536-5.92-3.983-5.92
					c-2.385,0-3.952,2.144-3.952,5.92S111.6,456.305,114.016,456.305 M114,455.185c-1.584,0-2.56-1.728-2.56-4.832
					c0-3.089,0.976-4.8,2.56-4.8c1.664,0,2.56,1.647,2.56,4.832C116.56,453.553,115.664,455.185,114,455.185"/>
			</g>
		</g>
		<path clip-path="url(#SVGID_26_)" fill="#F9A25E" d="M472.552,506.801c0.561,1.008,1.488,1.504,2.816,1.504
			c1.584,0,2.608-0.944,2.608-2.272c0-1.168-0.688-1.68-2.08-2.128c-1.185-0.384-1.84-0.479-1.84-1.232
			c0-0.623,0.495-1.071,1.216-1.071c0.752,0,1.344,0.368,1.632,1.023l0.992-0.607c-0.385-0.912-1.312-1.424-2.544-1.424
			c-1.521,0-2.528,0.911-2.528,2.159c0,1.408,1.056,1.713,2.816,2.32c0.752,0.256,1.119,0.544,1.119,1.088
			c0,0.624-0.527,1.072-1.344,1.072c-0.815,0-1.424-0.368-1.824-1.136L472.552,506.801z M465.512,508h1.217l0.016-3.775l3.68,3.775
			h1.712l-3.888-3.872l3.568-3.279h-1.632l-3.44,3.248l-0.016-8.208h-1.217V508z M462.424,503.616h-4.352
			c0.128-1.216,1.008-1.968,2.176-1.968C461.544,501.648,462.344,502.353,462.424,503.616 M463.736,504.608v-0.24
			c0-2.368-1.344-3.792-3.44-3.792c-2.08,0-3.567,1.568-3.567,3.824c0,2.336,1.472,3.904,3.647,3.904
			c1.473,0,2.592-0.656,3.312-1.952l-0.929-0.624c-0.592,1.04-1.359,1.552-2.319,1.552c-1.376,0-2.368-1.008-2.368-2.56v-0.112
			H463.736z M454.28,503.616h-4.353c0.129-1.216,1.009-1.968,2.177-1.968C453.4,501.648,454.2,502.353,454.28,503.616
			 M455.592,504.608v-0.24c0-2.368-1.344-3.792-3.439-3.792c-2.08,0-3.568,1.568-3.568,3.824c0,2.336,1.473,3.904,3.648,3.904
			c1.472,0,2.592-0.656,3.312-1.952l-0.928-0.624c-0.592,1.04-1.36,1.552-2.32,1.552c-1.376,0-2.368-1.008-2.368-2.56v-0.112
			H455.592z M433.32,496.561l4.432,11.888l2.977-8.848l2.991,8.848l4.433-11.888h-1.473l-2.911,8.416l-3.057-8.864l-3.023,8.864
			l-2.896-8.416H433.32z"/>
	</g>
	<polygon clip-path="url(#SVGID_2_)" fill="#F9A25E" points="142.152,305.5 142.847,305.5 142.847,300.452 144.375,300.452 
		144.375,299.853 142.847,299.853 142.847,297.5 142.152,297.5 142.152,299.853 140.625,299.853 140.625,300.452 142.152,300.452 	
		"/>
	<polygon clip-path="url(#SVGID_2_)" fill="none" stroke="#F9A25E" points="142.152,305.5 142.847,305.5 142.847,300.452 
		144.375,300.452 144.375,299.853 142.847,299.853 142.847,297.5 142.152,297.5 142.152,299.853 140.625,299.853 140.625,300.452 
		142.152,300.452 	"/>
	<polygon clip-path="url(#SVGID_2_)" fill="#F9A25E" points="170.652,287.5 171.347,287.5 171.347,282.452 172.875,282.452 
		172.875,281.853 171.347,281.853 171.347,279.5 170.652,279.5 170.652,281.853 169.125,281.853 169.125,282.452 170.652,282.452 	
		"/>
	<polygon clip-path="url(#SVGID_2_)" fill="none" stroke="#F9A25E" points="170.652,287.5 171.347,287.5 171.347,282.452 
		172.875,282.452 172.875,281.853 171.347,281.853 171.347,279.5 170.652,279.5 170.652,281.853 169.125,281.853 169.125,282.452 
		170.652,282.452 	"/>
	<polygon clip-path="url(#SVGID_2_)" fill="#F9A25E" points="227.652,252.5 228.347,252.5 228.347,247.452 229.875,247.452 
		229.875,246.853 228.347,246.853 228.347,244.5 227.652,244.5 227.652,246.853 226.125,246.853 226.125,247.452 227.652,247.452 	
		"/>
	<polygon clip-path="url(#SVGID_2_)" fill="none" stroke="#F9A25E" points="227.652,252.5 228.347,252.5 228.347,247.452 
		229.875,247.452 229.875,246.853 228.347,246.853 228.347,244.5 227.652,244.5 227.652,246.853 226.125,246.853 226.125,247.452 
		227.652,247.452 	"/>
	<polygon clip-path="url(#SVGID_2_)" fill="#F9A25E" points="284.652,233.5 285.347,233.5 285.347,228.452 286.875,228.452 
		286.875,227.853 285.347,227.853 285.347,225.5 284.652,225.5 284.652,227.853 283.125,227.853 283.125,228.452 284.652,228.452 	
		"/>
	<polygon clip-path="url(#SVGID_2_)" fill="none" stroke="#F9A25E" points="284.652,233.5 285.347,233.5 285.347,228.452 
		286.875,228.452 286.875,227.853 285.347,227.853 285.347,225.5 284.652,225.5 284.652,227.853 283.125,227.853 283.125,228.452 
		284.652,228.452 	"/>
	<polygon clip-path="url(#SVGID_2_)" fill="#F9A25E" points="341.652,215.5 342.347,215.5 342.347,210.452 343.875,210.452 
		343.875,209.853 342.347,209.853 342.347,207.5 341.652,207.5 341.652,209.853 340.125,209.853 340.125,210.452 341.652,210.452 	
		"/>
	<polygon clip-path="url(#SVGID_2_)" fill="none" stroke="#F9A25E" points="341.652,215.5 342.347,215.5 342.347,210.452 
		343.875,210.452 343.875,209.853 342.347,209.853 342.347,207.5 341.652,207.5 341.652,209.853 340.125,209.853 340.125,210.452 
		341.652,210.452 	"/>
	<polygon clip-path="url(#SVGID_2_)" fill="#F9A25E" points="398.652,203.5 399.347,203.5 399.347,198.452 400.875,198.452 
		400.875,197.853 399.347,197.853 399.347,195.5 398.652,195.5 398.652,197.853 397.125,197.853 397.125,198.452 398.652,198.452 	
		"/>
	<polygon clip-path="url(#SVGID_2_)" fill="none" stroke="#F9A25E" points="398.652,203.5 399.347,203.5 399.347,198.452 
		400.875,198.452 400.875,197.853 399.347,197.853 399.347,195.5 398.652,195.5 398.652,197.853 397.125,197.853 397.125,198.452 
		398.652,198.452 	"/>
	<polygon clip-path="url(#SVGID_2_)" fill="#F9A25E" points="455.653,198.5 456.347,198.5 456.347,193.452 457.875,193.452 
		457.875,192.853 456.347,192.853 456.347,190.5 455.653,190.5 455.653,192.853 454.125,192.853 454.125,193.452 455.653,193.452 	
		"/>
	<polygon clip-path="url(#SVGID_2_)" fill="none" stroke="#F9A25E" points="455.653,198.5 456.347,198.5 456.347,193.452 
		457.875,193.452 457.875,192.853 456.347,192.853 456.347,190.5 455.653,190.5 455.653,192.853 454.125,192.853 454.125,193.452 
		455.653,193.452 	"/>
	<polygon clip-path="url(#SVGID_2_)" fill="#F9A25E" points="512.652,191.5 513.347,191.5 513.347,186.452 514.875,186.452 
		514.875,185.853 513.347,185.853 513.347,183.5 512.652,183.5 512.652,185.853 511.125,185.853 511.125,186.452 512.652,186.452 	
		"/>
	<polygon clip-path="url(#SVGID_2_)" fill="none" stroke="#F9A25E" points="512.652,191.5 513.347,191.5 513.347,186.452 
		514.875,186.452 514.875,185.853 513.347,185.853 513.347,183.5 512.652,183.5 512.652,185.853 511.125,185.853 511.125,186.452 
		512.652,186.452 	"/>
	<polygon clip-path="url(#SVGID_2_)" fill="#F9A25E" points="569.653,183.5 570.347,183.5 570.347,178.452 571.875,178.452 
		571.875,177.853 570.347,177.853 570.347,175.5 569.653,175.5 569.653,177.853 568.125,177.853 568.125,178.452 569.653,178.452 	
		"/>
	<polygon clip-path="url(#SVGID_2_)" fill="none" stroke="#F9A25E" points="569.653,183.5 570.347,183.5 570.347,178.452 
		571.875,178.452 571.875,177.853 570.347,177.853 570.347,175.5 569.653,175.5 569.653,177.853 568.125,177.853 568.125,178.452 
		569.653,178.452 	"/>
	<polygon clip-path="url(#SVGID_2_)" fill="#F9A25E" points="683.653,175.5 684.347,175.5 684.347,170.452 685.875,170.452 
		685.875,169.853 684.347,169.853 684.347,167.5 683.653,167.5 683.653,169.853 682.125,169.853 682.125,170.452 683.653,170.452 	
		"/>
	<polygon clip-path="url(#SVGID_2_)" fill="none" stroke="#F9A25E" points="683.653,175.5 684.347,175.5 684.347,170.452 
		685.875,170.452 685.875,169.853 684.347,169.853 684.347,167.5 683.653,167.5 683.653,169.853 682.125,169.853 682.125,170.452 
		683.653,170.452 	"/>
	<polygon clip-path="url(#SVGID_2_)" fill="#F9A25E" points="797.653,179.5 798.347,179.5 798.347,174.452 799.875,174.452 
		799.875,173.853 798.347,173.853 798.347,171.5 797.653,171.5 797.653,173.853 796.125,173.853 796.125,174.452 797.653,174.452 	
		"/>
	<polygon clip-path="url(#SVGID_2_)" fill="none" stroke="#F9A25E" points="797.653,179.5 798.347,179.5 798.347,174.452 
		799.875,174.452 799.875,173.853 798.347,173.853 798.347,171.5 797.653,171.5 797.653,173.853 796.125,173.853 796.125,174.452 
		797.653,174.452 	"/>
	<g clip-path="url(#SVGID_2_)">
		<defs>
			<rect id="SVGID_41_" x="-9" y="-1" width="930" height="562.252"/>
		</defs>
		<clipPath id="SVGID_42_">
			<use xlink:href="#SVGID_41_"  overflow="visible"/>
		</clipPath>
		<path clip-path="url(#SVGID_42_)" fill="#F9A25E" d="M748.003,28.792l0.832,0.432c1.232-2.288,1.856-4.864,1.856-7.728
			c0-2.96-0.576-5.504-1.856-7.76l-0.832,0.384c1.152,2.272,1.648,4.64,1.648,7.376C749.651,24.312,749.155,26.68,748.003,28.792
			 M738.899,22.824v0.208c0,1.808,1.344,2.992,3.472,2.992c2.432,0,3.84-1.28,3.84-3.328c0-1.552-0.815-2.592-2.176-2.816
			c1.28-0.336,2.032-1.312,2.032-2.672c0-1.856-1.296-3.04-3.425-3.04c-2.207,0-3.439,1.104-3.535,3.056h1.344
			c0.063-1.232,0.832-1.904,2.16-1.904c1.264,0,2.031,0.768,2.031,1.952c0,1.344-0.8,2.048-2.384,2.048
			c-0.128,0-0.239-0.016-0.368-0.016v1.12c0.145-0.016,0.272-0.016,0.4-0.016c1.648,0,2.496,0.768,2.496,2.24
			c0,1.392-0.848,2.208-2.368,2.208c-1.312,0-2.128-0.736-2.128-1.904v-0.128H738.899z M735.683,17.8
			c0,1.504-0.943,2.528-2.304,2.528c-1.52,0-2.416-0.976-2.416-2.528c0-1.52,0.944-2.512,2.353-2.512
			C734.755,15.289,735.683,16.249,735.683,17.8 M734.771,20.92l-3.696,4.816l1.184,0.608l2.608-3.68
			c1.264-1.792,2.208-3.104,2.208-4.752c0-2.24-1.408-3.744-3.504-3.744c-2.496,0-4.017,1.472-4.017,3.76
			c0,2.096,1.408,3.536,3.456,3.536C733.651,21.464,734.211,21.289,734.771,20.92 M720.179,22.824v0.208
			c0,1.808,1.345,2.992,3.473,2.992c2.432,0,3.84-1.28,3.84-3.328c0-1.552-0.816-2.592-2.176-2.816
			c1.279-0.336,2.031-1.312,2.031-2.672c0-1.856-1.296-3.04-3.424-3.04c-2.208,0-3.439,1.104-3.536,3.056h1.345
			c0.063-1.232,0.832-1.904,2.159-1.904c1.265,0,2.032,0.768,2.032,1.952c0,1.344-0.8,2.048-2.384,2.048
			c-0.128,0-0.24-0.016-0.368-0.016v1.12c0.145-0.016,0.272-0.016,0.4-0.016c1.647,0,2.496,0.768,2.496,2.24
			c0,1.392-0.849,2.208-2.368,2.208c-1.312,0-2.128-0.736-2.128-1.904v-0.128H720.179z M717.396,21.992h-9.36v0.912h9.36V21.992z
			 M717.396,19h-9.36v0.912h9.36V19z M698.467,25.72h1.216v-3.696c0-0.784,0-1.376,0.416-1.888c0.4-0.496,1.024-0.768,1.744-0.768
			c1.28,0,1.904,0.704,1.904,2.144v4.208h1.216v-4.864c0-1.616-1.023-2.544-2.688-2.544c-1.12,0-1.984,0.432-2.593,1.36v-1.104
			h-1.216V25.72z M696.675,28.792c-1.151-2.112-1.647-4.48-1.647-7.296c0-2.736,0.496-5.104,1.647-7.376l-0.832-0.384
			c-1.279,2.256-1.855,4.8-1.855,7.76c0,2.864,0.624,5.44,1.855,7.728L696.675,28.792z M679.571,25.72h1.552l2.672-4.928
			l2.816,4.928h1.6l-3.647-5.952l3.248-5.488h-1.553l-2.368,4.352l-2.447-4.352h-1.632l3.279,5.36L679.571,25.72z M675.012,25.72
			h1.36V15.576h3.232V14.28h-7.824v1.296h3.231V25.72z M665.012,26.168l3.536-8.224l1.456,7.776h1.328l-2.32-11.888l-4,9.456
			l-4-9.456l-2.319,11.888h1.328l1.439-7.776L665.012,26.168z M647.556,16.185h-0.928v4.304h-4.224V21.4h4.224v4.32h0.928V21.4
			h4.208v-0.912h-4.208V16.185z M633.444,22.168c0,1.648-0.896,2.608-2.336,2.608c-1.521,0-2.385-0.976-2.385-2.704
			c0-1.632,0.864-2.576,2.337-2.576C632.436,19.497,633.444,20.504,633.444,22.168 M634.66,18.568h-1.248v1.328
			c-0.528-1.04-1.44-1.584-2.624-1.584c-2,0-3.36,1.424-3.36,3.808c0,2.32,1.376,3.824,3.424,3.824c1.104,0,2.032-0.56,2.593-1.584
			v1.2c0,0.656-0.032,1.184-0.305,1.632c-0.367,0.624-1.071,0.944-2.048,0.944c-1.376,0-2.128-0.624-2.128-1.68V26.36h-1.376
			c0.048,1.792,1.296,2.848,3.488,2.848c1.264,0,2.224-0.368,2.88-1.072c0.672-0.72,0.704-1.52,0.704-2.544V18.568z M624.436,25.72
			h1.217v-4.864c0-1.616-0.96-2.544-2.544-2.544c-1.088,0-1.92,0.464-2.544,1.456c-0.416-0.96-1.248-1.456-2.4-1.456
			c-1.072,0-1.888,0.448-2.464,1.36v-1.104h-1.216v7.152h1.216v-3.696c0-0.176-0.017-0.352-0.017-0.512
			c0-0.544,0.064-0.992,0.368-1.376c0.384-0.496,0.977-0.768,1.632-0.768c1.217,0,1.776,0.704,1.776,2.144v4.208h1.216v-3.696
			c0-0.16-0.016-0.304-0.016-0.448c0-0.592,0.08-1.04,0.384-1.44c0.384-0.496,0.96-0.768,1.616-0.768
			c1.216,0,1.775,0.704,1.775,2.144V25.72z M608.612,26.024c2.399,0,3.952-2.128,3.952-5.936s-1.536-5.92-3.984-5.92
			c-2.384,0-3.952,2.144-3.952,5.92S606.196,26.024,608.612,26.024 M608.596,24.904c-1.584,0-2.56-1.728-2.56-4.832
			c0-3.088,0.976-4.8,2.56-4.8c1.664,0,2.561,1.648,2.561,4.832C611.156,23.272,610.26,24.904,608.596,24.904 M599.252,26.024
			c2.4,0,3.952-2.128,3.952-5.936s-1.536-5.92-3.984-5.92c-2.384,0-3.952,2.144-3.952,5.92S596.836,26.024,599.252,26.024
			 M599.236,24.904c-1.584,0-2.561-1.728-2.561-4.832c0-3.088,0.977-4.8,2.561-4.8c1.664,0,2.56,1.648,2.56,4.832
			C601.796,23.272,600.9,24.904,599.236,24.904 M592.948,24.424h-4.336l1.792-1.936c1.84-2,2.896-3.504,2.896-5.152
			c0-1.968-1.312-3.168-3.552-3.168c-2.256,0-3.584,1.264-3.584,3.424c0,0.096,0.016,0.208,0.016,0.304h1.28v-0.128
			c0-1.52,0.8-2.352,2.24-2.352c1.376,0,2.256,0.848,2.256,2c0,1.488-1.424,3.008-3.488,5.44l-2.416,2.864h6.896V24.424z
			 M578.212,22.216c0,1.648-0.896,2.592-2.336,2.592c-1.52,0-2.384-0.976-2.384-2.704c0-1.632,0.864-2.576,2.336-2.576
			C577.204,19.528,578.212,20.552,578.212,22.216 M579.396,18.568h-1.217v1.344c-0.544-1.056-1.424-1.6-2.624-1.6
			c-2,0-3.359,1.456-3.359,3.856c0,2.336,1.376,3.856,3.424,3.856c1.104,0,2.016-0.56,2.592-1.6v1.296h1.185V18.568z
			 M568.725,15.128c0,0.512,0.4,0.896,0.896,0.896s0.896-0.384,0.896-0.88s-0.399-0.912-0.896-0.912S568.725,14.632,568.725,15.128
			 M569.013,25.72h1.217v-7.152h-1.217V25.72z M561.125,25.72h6.224v-1.072h-4.063l4.096-6.08h-6v1.072h3.84L561.125,25.72z
			 M558.597,25.72h1.217v-4.864c0-1.616-0.96-2.544-2.544-2.544c-1.089,0-1.921,0.464-2.545,1.456
			c-0.416-0.96-1.248-1.456-2.399-1.456c-1.072,0-1.888,0.448-2.464,1.36v-1.104h-1.216v7.152h1.216v-3.696
			c0-0.176-0.017-0.352-0.017-0.512c0-0.544,0.064-0.992,0.368-1.376c0.384-0.496,0.977-0.768,1.632-0.768
			c1.216,0,1.776,0.704,1.776,2.144v4.208h1.216v-3.696c0-0.16-0.016-0.304-0.016-0.448c0-0.592,0.08-1.04,0.384-1.44
			c0.384-0.496,0.96-0.768,1.616-0.768c1.216,0,1.775,0.704,1.775,2.144V25.72z M544.629,15.128c0,0.512,0.4,0.896,0.896,0.896
			s0.896-0.384,0.896-0.88s-0.399-0.912-0.896-0.912S544.629,14.632,544.629,15.128 M544.917,25.72h1.216v-7.152h-1.216V25.72z
			 M542.741,17.017V15.24c-1.185-0.816-2.4-1.232-3.76-1.232c-1.681,0-3.089,0.56-4.257,1.68c-1.199,1.168-1.792,2.592-1.792,4.368
			c0,2.032,0.912,3.76,2.576,4.912c0.992,0.688,2.16,1.056,3.376,1.056c1.393,0,2.721-0.432,3.856-1.248v-1.808
			c-1.04,1.216-2.304,1.808-3.744,1.808c-1.552,0-2.944-0.736-3.856-2.032c-0.527-0.752-0.783-1.648-0.783-2.704
			c0-1.344,0.432-2.464,1.312-3.376c0.848-0.88,2.064-1.392,3.264-1.392C540.421,15.272,541.637,15.816,542.741,17.017"/>
		<path clip-path="url(#SVGID_42_)" fill="#808285" d="M698.516,68.792l0.832,0.432c1.231-2.288,1.855-4.864,1.855-7.728
			c0-2.96-0.576-5.504-1.855-7.76l-0.832,0.384c1.151,2.272,1.647,4.64,1.647,7.376C700.163,64.312,699.667,66.68,698.516,68.792
			 M695.555,57.8c0,1.504-0.943,2.528-2.304,2.528c-1.52,0-2.416-0.976-2.416-2.528c0-1.52,0.944-2.512,2.353-2.512
			C694.627,55.289,695.555,56.249,695.555,57.8 M694.644,60.92l-3.696,4.816l1.184,0.608l2.608-3.68
			c1.264-1.792,2.208-3.104,2.208-4.752c0-2.24-1.408-3.744-3.504-3.744c-2.496,0-4.017,1.472-4.017,3.76
			c0,2.096,1.408,3.536,3.456,3.536C693.523,61.464,694.083,61.289,694.644,60.92 M686.195,57.8c0,1.504-0.944,2.528-2.304,2.528
			c-1.521,0-2.416-0.976-2.416-2.528c0-1.52,0.943-2.512,2.352-2.512C685.268,55.289,686.195,56.249,686.195,57.8 M685.283,60.92
			l-3.696,4.816l1.185,0.608l2.607-3.68c1.265-1.792,2.208-3.104,2.208-4.752c0-2.24-1.407-3.744-3.504-3.744
			c-2.496,0-4.016,1.472-4.016,3.76c0,2.096,1.408,3.536,3.456,3.536C684.163,61.464,684.724,61.289,685.283,60.92 M674.18,65.72
			h1.327V54.393h-2.896l-0.769,1.184h2.337V65.72z M667.907,61.992h-9.36v0.912h9.36V61.992z M667.907,59h-9.36v0.912h9.36V59z
			 M648.979,65.72h1.216v-3.696c0-0.784,0-1.376,0.416-1.888c0.4-0.496,1.023-0.768,1.744-0.768c1.279,0,1.903,0.704,1.903,2.144
			v4.208h1.217v-4.864c0-1.616-1.024-2.544-2.688-2.544c-1.12,0-1.984,0.432-2.592,1.36v-1.104h-1.216V65.72z M647.188,68.792
			c-1.152-2.112-1.648-4.48-1.648-7.296c0-2.736,0.496-5.104,1.648-7.376l-0.832-0.384c-1.28,2.256-1.856,4.8-1.856,7.76
			c0,2.864,0.624,5.44,1.856,7.728L647.188,68.792z M630.083,65.72h1.552l2.673-4.928l2.815,4.928h1.601l-3.648-5.952l3.248-5.488
			h-1.552l-2.368,4.352l-2.448-4.352h-1.632l3.28,5.36L630.083,65.72z M625.524,65.72h1.359V55.576h3.232V54.28h-7.824v1.296h3.232
			V65.72z M615.524,66.168l3.536-8.224l1.456,7.776h1.327l-2.319-11.888l-4,9.456l-4-9.456l-2.32,11.888h1.328l1.44-7.776
			L615.524,66.168z M598.068,56.185h-0.928v4.304h-4.225V61.4h4.225v4.32h0.928V61.4h4.208v-0.912h-4.208V56.185z M579.236,62.168
			c0-1.52,1.152-2.704,2.592-2.704c1.424,0,2.576,1.184,2.576,2.704s-1.152,2.704-2.576,2.704S579.236,63.688,579.236,62.168
			 M577.94,62.168c0,1.04,0.384,1.968,1.136,2.72c0.736,0.736,1.696,1.136,2.752,1.136c1.04,0,2-0.416,2.752-1.152
			c0.736-0.72,1.136-1.664,1.136-2.704s-0.399-2-1.136-2.72c-0.752-0.736-1.696-1.136-2.752-1.136s-2.016,0.384-2.752,1.12
			C578.324,60.168,577.94,61.128,577.94,62.168 M570.612,62.185c0-1.616,0.992-2.656,2.432-2.656c1.424,0,2.305,0.912,2.305,2.496
			c0,1.792-0.912,2.816-2.337,2.816C571.54,64.84,570.612,63.88,570.612,62.185 M569.444,53.608V65.72h1.168v-1.296
			c0.56,1.024,1.504,1.6,2.608,1.6c2.048,0,3.424-1.52,3.424-3.856c0-2.4-1.376-3.856-3.376-3.856c-1.185,0-2.064,0.544-2.608,1.6
			v-6.304H569.444z M566.372,61.336h-4.352c0.128-1.216,1.008-1.968,2.176-1.968C565.492,59.368,566.292,60.072,566.372,61.336
			 M567.685,62.328v-0.24c0-2.368-1.345-3.792-3.44-3.792c-2.08,0-3.568,1.568-3.568,3.824c0,2.336,1.473,3.904,3.648,3.904
			c1.472,0,2.592-0.656,3.312-1.952l-0.928-0.624c-0.592,1.04-1.359,1.552-2.319,1.552c-1.377,0-2.368-1.008-2.368-2.56v-0.112
			H567.685z M559.685,64.024c-0.751,0.544-1.44,0.816-2.207,0.816c-1.489,0-2.561-1.152-2.561-2.592
			c0-1.696,1.087-2.752,2.655-2.752c0.705,0,1.377,0.224,1.984,0.624v-1.312c-0.656-0.32-1.424-0.496-2.225-0.496
			c-2.144,0-3.727,1.568-3.727,3.904c0,2.256,1.456,3.808,3.68,3.808c0.927,0,1.744-0.192,2.399-0.576V64.024z M550.646,62.216
			c0,1.648-0.896,2.592-2.336,2.592c-1.521,0-2.385-0.976-2.385-2.704c0-1.632,0.864-2.576,2.336-2.576
			C549.637,59.528,550.646,60.552,550.646,62.216 M551.829,58.568h-1.216v1.344c-0.544-1.056-1.424-1.6-2.624-1.6
			c-2,0-3.36,1.456-3.36,3.856c0,2.336,1.376,3.856,3.424,3.856c1.104,0,2.017-0.56,2.593-1.6v1.296h1.184V58.568z M541.445,65.72
			h1.216V53.608h-1.216V65.72z M534.821,60.584h1.04c1.184,0,2.112-0.032,2.88-0.576c0.72-0.512,1.168-1.456,1.168-2.576
			c0-1.12-0.448-2.064-1.168-2.576c-0.768-0.544-1.712-0.576-2.88-0.576h-2.4v11.44h1.36V60.584z M534.821,59.353v-3.824h0.656
			c1.983,0,2.96,0.32,2.96,1.984c0,1.584-0.992,1.84-2.96,1.84H534.821z"/>
	</g>
	<line clip-path="url(#SVGID_2_)" fill="none" stroke="#808285" stroke-width="2" x1="472.894" y1="60" x2="517.893" y2="60"/>
	<line clip-path="url(#SVGID_2_)" fill="none" stroke="#F9A25E" stroke-width="2" x1="472.894" y1="20.5" x2="517.893" y2="20.5"/>
	<g clip-path="url(#SVGID_2_)">
		<defs>
			<rect id="SVGID_43_" x="-9" y="-1" width="930" height="562.252"/>
		</defs>
		<clipPath id="SVGID_44_">
			<use xlink:href="#SVGID_43_"  overflow="visible"/>
		</clipPath>
		<path clip-path="url(#SVGID_44_)" fill="#808285" d="M466.465,553.002h0.724v-6.189h-1.581l-0.42,0.646h1.277V553.002z
			 M461.062,557.278c0,0.479,0.374,0.854,0.869,0.854c0.494,0,0.884-0.375,0.884-0.854c0-0.48-0.39-0.869-0.884-0.869
			C461.452,556.409,461.062,556.798,461.062,557.278 M457.538,550.573c0,1.41-0.886,2.371-2.161,2.371
			c-1.426,0-2.266-0.916-2.266-2.371c0-1.426,0.885-2.356,2.205-2.356C456.667,548.217,457.538,549.117,457.538,550.573
			 M456.682,553.498l-3.466,4.516l1.11,0.568l2.445-3.45c1.186-1.679,2.069-2.908,2.069-4.454c0-2.101-1.318-3.509-3.284-3.509
			c-2.341,0-3.764,1.378-3.764,3.524c0,1.966,1.318,3.313,3.239,3.313C455.632,554.007,456.157,553.842,456.682,553.498
			 M446.617,558.282c2.251,0,3.704-1.993,3.704-5.564c0-3.57-1.438-5.549-3.734-5.549c-2.236,0-3.704,2.008-3.704,5.549
			S444.351,558.282,446.617,558.282 M446.602,557.234c-1.485,0-2.4-1.621-2.4-4.531c0-2.896,0.915-4.501,2.4-4.501
			c1.562,0,2.401,1.545,2.401,4.531C449.003,555.703,448.163,557.234,446.602,557.234 M437.842,558.282
			c2.251,0,3.704-1.993,3.704-5.564c0-3.57-1.438-5.549-3.734-5.549c-2.235,0-3.704,2.008-3.704,5.549
			S435.576,558.282,437.842,558.282 M437.827,557.234c-1.486,0-2.401-1.621-2.401-4.531c0-2.896,0.915-4.501,2.401-4.501
			c1.561,0,2.4,1.545,2.4,4.531C440.228,555.703,439.388,557.234,437.827,557.234 M431.932,556.784h-4.064l1.68-1.816
			c1.726-1.875,2.714-3.286,2.714-4.829c0-1.847-1.228-2.97-3.329-2.97c-2.116,0-3.358,1.184-3.358,3.21
			c0,0.089,0.015,0.194,0.015,0.283h1.198v-0.119c0-1.425,0.75-2.206,2.101-2.206c1.291,0,2.116,0.796,2.116,1.877
			c0,1.394-1.336,2.819-3.271,5.1l-2.264,2.684h6.464V556.784z M417.953,557.997h1.138v-11.353h-1.138V557.997z M414.562,554.713
			c0,1.545-0.84,2.432-2.19,2.432c-1.425,0-2.235-0.916-2.235-2.536c0-1.531,0.811-2.416,2.19-2.416
			C413.618,552.192,414.562,553.152,414.562,554.713 M415.672,551.294h-1.139v1.258c-0.511-0.989-1.335-1.498-2.461-1.498
			c-1.875,0-3.149,1.363-3.149,3.614c0,2.191,1.289,3.614,3.209,3.614c1.036,0,1.891-0.524,2.431-1.498v1.213h1.109V551.294z
			 M401.454,552.237v5.76h1.138v-5.76h1.26v-0.943h-1.26v-2.7h-1.138v2.7h-1.23v0.943H401.454z M398.394,553.889h-4.082
			c0.12-1.141,0.945-1.847,2.041-1.847C397.568,552.042,398.319,552.703,398.394,553.889 M399.622,554.817v-0.226
			c0-2.22-1.258-3.553-3.225-3.553c-1.95,0-3.344,1.468-3.344,3.583c0,2.191,1.378,3.66,3.419,3.66c1.38,0,2.431-0.614,3.104-1.829
			l-0.869-0.585c-0.554,0.975-1.275,1.456-2.175,1.456c-1.291,0-2.222-0.946-2.222-2.402v-0.104H399.622z M383.843,558.417
			l4.514-11.143h-1.38l-3.134,8.204l-3.148-8.204h-1.381L383.843,558.417z M372.938,554.683c0,1.591-0.869,2.491-2.251,2.491
			c-1.335,0-2.176-0.961-2.176-2.641c0-1.486,0.826-2.341,2.161-2.341C372.023,552.192,372.938,553.167,372.938,554.683
			 M374.047,546.645h-1.138v5.907c-0.511-0.988-1.335-1.498-2.446-1.498c-1.876,0-3.164,1.363-3.164,3.614
			c0,2.191,1.288,3.614,3.209,3.614c1.036,0,1.906-0.539,2.431-1.498v1.213h1.108V546.645z M359.529,557.997h1.138v-3.464
			c0-0.735,0-1.291,0.391-1.771c0.375-0.465,0.96-0.72,1.636-0.72c1.2,0,1.785,0.66,1.785,2.011v3.944h1.139v-4.56
			c0-1.516-0.958-2.384-2.519-2.384c-1.051,0-1.86,0.404-2.432,1.273v-1.034h-1.138V557.997z M356.199,554.713
			c0,1.545-0.84,2.432-2.19,2.432c-1.426,0-2.236-0.916-2.236-2.536c0-1.531,0.811-2.416,2.191-2.416
			C355.254,552.192,356.199,553.152,356.199,554.713 M357.308,551.294h-1.139v1.258c-0.51-0.989-1.335-1.498-2.461-1.498
			c-1.875,0-3.149,1.363-3.149,3.614c0,2.191,1.289,3.614,3.209,3.614c1.036,0,1.892-0.524,2.432-1.498v1.213h1.108V551.294z
			 M345.894,557.997h1.14v-3.269c0-1.757,0.6-2.626,1.814-2.626c0.21,0,0.45,0.045,0.705,0.135l0.391-1.033
			c-0.256-0.09-0.511-0.135-0.78-0.135c-1.021,0-1.65,0.479-2.25,1.618v-1.395h-1.02V557.997z M342.25,552.237v5.76h1.138v-5.76
			h1.26v-0.943h-1.26v-2.7h-1.138v2.7h-1.23v0.943H342.25z M338.454,552.043l-1.53-0.675c-0.976-0.436-1.441-0.961-1.441-1.727
			c0-0.914,0.676-1.56,1.637-1.56c0.765,0,1.35,0.42,1.815,1.23l1.05-0.676c-0.524-1.063-1.485-1.617-2.775-1.617
			c-1.786,0-3.014,1.138-3.014,2.638c0,1.306,0.688,2.235,2.112,2.836l1.307,0.555c1.109,0.48,1.666,1.186,1.666,2.146
			c0,1.171-0.856,1.996-2.146,1.996c-1.081,0-1.815-0.676-2.13-1.981l-1.154,0.571c0.405,1.59,1.588,2.487,3.284,2.487
			c2.071,0,3.435-1.317,3.435-3.283C340.568,553.633,339.849,552.658,338.454,552.043 M326.77,557.997h1.139v-4.56
			c0-1.516-0.898-2.384-2.385-2.384c-1.02,0-1.801,0.435-2.386,1.363c-0.389-0.899-1.168-1.363-2.249-1.363
			c-1.005,0-1.771,0.419-2.311,1.273v-1.034h-1.139v6.704h1.139v-3.464c0-0.165-0.016-0.33-0.016-0.48
			c0-0.511,0.061-0.931,0.346-1.291c0.359-0.465,0.916-0.72,1.53-0.72c1.142,0,1.666,0.66,1.666,2.011v3.944h1.139v-3.464
			c0-0.15-0.016-0.285-0.016-0.42c0-0.557,0.075-0.977,0.36-1.352c0.36-0.465,0.901-0.72,1.516-0.72c1.142,0,1.666,0.66,1.666,2.011
			V557.997z M309.653,554.668c0-1.426,1.081-2.536,2.431-2.536c1.336,0,2.416,1.11,2.416,2.536c0,1.425-1.08,2.536-2.416,2.536
			C310.749,557.204,309.653,556.093,309.653,554.668 M308.439,554.668c0,0.975,0.36,1.846,1.064,2.551
			c0.69,0.689,1.59,1.063,2.58,1.063c0.976,0,1.876-0.39,2.581-1.078c0.688-0.675,1.062-1.562,1.062-2.536s-0.374-1.876-1.062-2.551
			c-0.705-0.689-1.59-1.063-2.581-1.063c-0.99,0-1.89,0.359-2.58,1.049C308.8,552.792,308.439,553.693,308.439,554.668
			 M303.805,557.997h1.139v-3.269c0-1.757,0.6-2.626,1.814-2.626c0.21,0,0.45,0.045,0.705,0.135l0.39-1.033
			c-0.255-0.09-0.51-0.135-0.779-0.135c-1.021,0-1.65,0.479-2.249,1.618v-1.395h-1.02V557.997z M299.83,557.997h1.139v-5.76h1.785
			v-0.943h-1.785v-1.786c0-1.291,0.03-1.905,0.885-1.905c0.301,0,0.601,0.074,0.9,0.239v-1.183c-0.315-0.105-0.645-0.15-0.99-0.15
			c-1.604,0-1.934,0.838-1.934,2.85v1.936h-1.29v0.943h1.29V557.997z M291.806,554.683c0,1.591-0.871,2.491-2.251,2.491
			c-1.336,0-2.176-0.961-2.176-2.641c0-1.486,0.825-2.341,2.161-2.341C290.89,552.192,291.806,553.167,291.806,554.683
			 M292.914,546.645h-1.139v5.907c-0.511-0.988-1.336-1.498-2.445-1.498c-1.876,0-3.164,1.363-3.164,3.614
			c0,2.191,1.288,3.614,3.209,3.614c1.035,0,1.905-0.539,2.431-1.498v1.213h1.108V546.645z M283.796,553.889h-4.082
			c0.12-1.141,0.945-1.847,2.041-1.847C282.97,552.042,283.721,552.703,283.796,553.889 M285.023,554.817v-0.226
			c0-2.22-1.258-3.553-3.224-3.553c-1.951,0-3.344,1.468-3.344,3.583c0,2.191,1.378,3.66,3.419,3.66c1.38,0,2.43-0.614,3.104-1.829
			l-0.868-0.585c-0.555,0.975-1.275,1.456-2.176,1.456c-1.291,0-2.221-0.946-2.221-2.402v-0.104H285.023z M275.411,552.237v5.76
			h1.138v-5.76h1.26v-0.943h-1.26v-2.7h-1.138v2.7h-1.23v0.943H275.411z M267.834,554.668c0-1.591,0.87-2.506,2.251-2.506
			c1.336,0,2.176,0.96,2.176,2.641c0,1.485-0.825,2.356-2.161,2.356C268.75,557.159,267.834,556.183,267.834,554.668
			 M266.726,561.252h1.139v-4.468c0.51,0.989,1.336,1.498,2.445,1.498c1.876,0,3.164-1.349,3.164-3.614
			c0-2.206-1.288-3.614-3.209-3.614c-1.035,0-1.921,0.524-2.445,1.498v-1.259h-1.094V561.252z M263.396,554.713
			c0,1.545-0.84,2.432-2.19,2.432c-1.425,0-2.236-0.916-2.236-2.536c0-1.531,0.812-2.416,2.191-2.416
			C262.451,552.192,263.396,553.152,263.396,554.713 M264.504,551.294h-1.138v1.258c-0.511-0.989-1.335-1.498-2.461-1.498
			c-1.876,0-3.149,1.363-3.149,3.614c0,2.191,1.288,3.614,3.209,3.614c1.036,0,1.891-0.524,2.431-1.498v1.213h1.108V551.294z
			 M254.891,554.683c0,1.591-0.87,2.491-2.251,2.491c-1.335,0-2.175-0.961-2.175-2.641c0-1.486,0.825-2.341,2.16-2.341
			C253.976,552.192,254.891,553.167,254.891,554.683 M256,546.645h-1.139v5.907c-0.511-0.988-1.336-1.498-2.446-1.498
			c-1.875,0-3.164,1.363-3.164,3.614c0,2.191,1.289,3.614,3.209,3.614c1.036,0,1.906-0.539,2.431-1.498v1.213H256V546.645z
			 M243.97,549.673l1.71,3.946h-3.419L243.97,549.673z M243.97,546.854l-4.858,11.143h1.38l1.395-3.285h4.185l1.395,3.285h1.38
			L243.97,546.854z M231.926,557.278c0,0.479,0.375,0.854,0.87,0.854c0.494,0,0.884-0.375,0.884-0.854
			c0-0.48-0.39-0.869-0.884-0.869C232.315,556.409,231.926,556.798,231.926,557.278 M223.975,554.668
			c0-1.426,1.08-2.536,2.432-2.536c1.335,0,2.416,1.11,2.416,2.536c0,1.425-1.081,2.536-2.416,2.536
			C225.07,557.204,223.975,556.093,223.975,554.668 M222.762,554.668c0,0.975,0.359,1.846,1.063,2.551
			c0.689,0.689,1.59,1.063,2.581,1.063c0.975,0,1.875-0.39,2.58-1.078c0.688-0.675,1.063-1.562,1.063-2.536
			s-0.375-1.876-1.063-2.551c-0.705-0.689-1.591-1.063-2.58-1.063c-0.991,0-1.892,0.359-2.581,1.049
			C223.121,552.792,222.762,553.693,222.762,554.668 M215.89,554.683c0-1.516,0.931-2.49,2.281-2.49
			c1.335,0,2.161,0.854,2.161,2.341c0,1.68-0.856,2.641-2.191,2.641C216.76,557.174,215.89,556.273,215.89,554.683 M214.797,546.645
			v11.353h1.093v-1.213c0.525,0.96,1.411,1.498,2.446,1.498c1.921,0,3.209-1.423,3.209-3.614c0-2.251-1.288-3.614-3.164-3.614
			c-1.11,0-1.936,0.51-2.446,1.498v-5.907H214.797z M211.917,553.889h-4.082c0.12-1.141,0.945-1.847,2.041-1.847
			C211.092,552.042,211.842,552.703,211.917,553.889 M213.145,554.817v-0.226c0-2.22-1.258-3.553-3.224-3.553
			c-1.951,0-3.344,1.468-3.344,3.583c0,2.191,1.378,3.66,3.419,3.66c1.381,0,2.43-0.614,3.104-1.829l-0.869-0.585
			c-0.554,0.975-1.274,1.456-2.175,1.456c-1.291,0-2.221-0.946-2.221-2.402v-0.104H213.145z M205.645,556.409
			c-0.705,0.51-1.35,0.765-2.069,0.765c-1.396,0-2.4-1.081-2.4-2.431c0-1.591,1.021-2.581,2.49-2.581c0.66,0,1.29,0.21,1.86,0.585
			v-1.229c-0.615-0.299-1.336-0.464-2.086-0.464c-2.01,0-3.492,1.469-3.492,3.659c0,2.116,1.362,3.569,3.447,3.569
			c0.87,0,1.636-0.18,2.25-0.539V556.409z M197.172,554.713c0,1.545-0.84,2.432-2.191,2.432c-1.425,0-2.235-0.916-2.235-2.536
			c0-1.531,0.811-2.416,2.19-2.416C196.227,552.192,197.172,553.152,197.172,554.713 M198.28,551.294h-1.139v1.258
			c-0.51-0.989-1.335-1.498-2.461-1.498c-1.876,0-3.148,1.363-3.148,3.614c0,2.191,1.288,3.614,3.209,3.614
			c1.036,0,1.891-0.524,2.431-1.498v1.213h1.108V551.294z M188.547,557.997h1.138v-11.353h-1.138V557.997z M181.091,554.668
			c0-1.591,0.87-2.506,2.251-2.506c1.335,0,2.176,0.96,2.176,2.641c0,1.485-0.826,2.356-2.161,2.356
			C182.006,557.159,181.091,556.183,181.091,554.668 M179.982,561.252h1.139v-4.468c0.51,0.989,1.335,1.498,2.445,1.498
			c1.877,0,3.164-1.349,3.164-3.614c0-2.206-1.287-3.614-3.209-3.614c-1.035,0-1.921,0.524-2.445,1.498v-1.259h-1.094V561.252z
			 M168.897,556.874c0.524,0.944,1.394,1.408,2.64,1.408c1.484,0,2.443-0.883,2.443-2.129c0-1.096-0.644-1.575-1.948-1.995
			c-1.111-0.36-1.727-0.45-1.727-1.156c0-0.585,0.465-1.005,1.142-1.005c0.705,0,1.261,0.345,1.529,0.96l0.93-0.57
			c-0.359-0.854-1.229-1.333-2.385-1.333c-1.426,0-2.368,0.854-2.368,2.023c0,1.321,0.987,1.605,2.639,2.176
			c0.705,0.24,1.051,0.51,1.051,1.021c0,0.586-0.496,1.006-1.261,1.006c-0.767,0-1.336-0.346-1.711-1.066L168.897,556.874z
			 M165.146,558.417l3.3-7.123h-1.29l-2.024,4.679l-2.01-4.679h-1.289L165.146,558.417z M152.743,557.997h1.243v-10.618h-2.714
			l-0.72,1.108h2.19V557.997z M144.312,558.282c2.251,0,3.704-1.993,3.704-5.564c0-3.57-1.438-5.549-3.733-5.549
			c-2.236,0-3.704,2.008-3.704,5.549S142.046,558.282,144.312,558.282 M144.297,557.234c-1.486,0-2.401-1.621-2.401-4.531
			c0-2.896,0.915-4.501,2.401-4.501c1.561,0,2.401,1.545,2.401,4.531C146.698,555.703,145.857,557.234,144.297,557.234
			 M135.537,558.282c2.251,0,3.704-1.993,3.704-5.564c0-3.57-1.438-5.549-3.734-5.549c-2.236,0-3.704,2.008-3.704,5.549
			S133.271,558.282,135.537,558.282 M135.521,557.234c-1.485,0-2.4-1.621-2.4-4.531c0-2.896,0.915-4.501,2.4-4.501
			c1.562,0,2.401,1.545,2.401,4.531C137.923,555.703,137.083,557.234,135.521,557.234 M128.083,557.278
			c0,0.479,0.375,0.854,0.869,0.854c0.495,0,0.884-0.375,0.884-0.854c0-0.48-0.389-0.869-0.884-0.869
			C128.473,556.409,128.083,556.798,128.083,557.278 M122.412,558.282c2.251,0,3.704-1.993,3.704-5.564
			c0-3.57-1.438-5.549-3.734-5.549c-2.236,0-3.704,2.008-3.704,5.549S120.146,558.282,122.412,558.282 M122.396,557.234
			c-1.484,0-2.4-1.621-2.4-4.531c0-2.896,0.916-4.501,2.4-4.501c1.562,0,2.401,1.545,2.401,4.531
			C124.798,555.703,123.958,557.234,122.396,557.234 M116.111,550.544v-0.93l-8.623,3.539v0.75l8.623,3.539v-0.945l-7.318-2.969
			L116.111,550.544z M99.327,554.668c0-1.591,0.87-2.506,2.25-2.506c1.336,0,2.176,0.96,2.176,2.641
			c0,1.485-0.825,2.356-2.161,2.356C100.242,557.159,99.327,556.183,99.327,554.668 M98.218,561.252h1.138v-4.468
			c0.512,0.989,1.337,1.498,2.447,1.498c1.875,0,3.163-1.349,3.163-3.614c0-2.206-1.288-3.614-3.209-3.614
			c-1.035,0-1.92,0.524-2.445,1.498v-1.259h-1.094V561.252z M94.442,554.9h0.706v-5.143h1.558v-0.61h-1.558v-2.396h-0.706v2.396
			h-1.558v0.61h1.558V554.9z"/>
	</g>
</g>
</svg>
