<?xml version="1.0" encoding="utf-8"?>
<!-- Generator: Adobe Illustrator 15.1.0, SVG Export Plug-In . SVG Version: 6.00 Build 0)  -->
<!DOCTYPE svg PUBLIC "-//W3C//DTD SVG 1.1//EN" "http://www.w3.org/Graphics/SVG/1.1/DTD/svg11.dtd">
<svg version="1.1" id="art" xmlns="http://www.w3.org/2000/svg" xmlns:xlink="http://www.w3.org/1999/xlink" x="0px" y="0px"
	 width="912px" height="422px" viewBox="0 0 912 422" enable-background="new 0 0 912 422" xml:space="preserve">
<rect y="400" fill="#F3E3D5" width="912" height="20"/>
<rect y="80" fill="#F3E3D5" width="912" height="40"/>
<rect fill="#F3E3D5" width="912" height="40"/>
<rect y="160" fill="#F3E3D5" width="912" height="40"/>
<rect y="240" fill="#F3E3D5" width="912" height="40"/>
<rect y="320" fill="#F3E3D5" width="912" height="40"/>
<g>
	<defs>
		<rect id="SVGID_1_" x="-9" y="-1" width="930" height="422.5"/>
	</defs>
	<clipPath id="SVGID_2_">
		<use xlink:href="#SVGID_1_"  overflow="visible"/>
	</clipPath>
	<polyline clip-path="url(#SVGID_2_)" fill="none" stroke="#808285" stroke-width="2" points="114,420 142.5,375 171,360 
		228.25,359.762 289,320 342,322.5 399,320 456,336 512.666,347 570,351 684,340 798,350.5 	"/>
	<polyline clip-path="url(#SVGID_2_)" fill="none" stroke="#F9A25E" stroke-width="2" points="114.455,419.5 142.5,317.5 
		228.454,263 342.454,227 399.332,215.025 456.454,210.05 513.332,202.5 570.454,195 684.454,187 798.454,191 	"/>
	<line clip-path="url(#SVGID_2_)" fill="none" stroke="#F9A25E" stroke-width="3" x1="0" y1="420" x2="912" y2="420"/>
</g>
</svg>
