<?xml version="1.0" encoding="utf-8"?>
<!-- Generator: Adobe Illustrator 15.1.0, SVG Export Plug-In . SVG Version: 6.00 Build 0)  -->
<!DOCTYPE svg PUBLIC "-//W3C//DTD SVG 1.1//EN" "http://www.w3.org/Graphics/SVG/1.1/DTD/svg11.dtd">
<svg version="1.1" id="art" xmlns="http://www.w3.org/2000/svg" xmlns:xlink="http://www.w3.org/1999/xlink" x="0px" y="0px"
	 width="912px" height="541px" viewBox="0 0 912 541" enable-background="new 0 0 912 541" xml:space="preserve">
<g>
	<g>
		<g>
			<defs>
				<rect id="SVGID_1_" width="912" height="393.55"/>
			</defs>
			<clipPath id="SVGID_2_">
				<use xlink:href="#SVGID_1_"  overflow="visible"/>
			</clipPath>
			<line clip-path="url(#SVGID_2_)" fill="none" stroke="#F8A15E" stroke-width="3" x1="0" y1="392.05" x2="912" y2="392.05"/>
		</g>
	</g>
	<g>
		<g>
			<defs>
				<rect id="SVGID_3_" width="912" height="393.55"/>
			</defs>
			<clipPath id="SVGID_4_">
				<use xlink:href="#SVGID_3_"  overflow="visible"/>
			</clipPath>
			<path clip-path="url(#SVGID_4_)" fill="#F8A15E" d="M115.375,40c11.046,0,20-8.954,20-20s-8.954-20-20-20s-20,8.954-20,20
				S104.329,40,115.375,40"/>
		</g>
	</g>
	<g>
		<g>
			<defs>
				<rect id="SVGID_5_" width="912" height="393.55"/>
			</defs>
			<clipPath id="SVGID_6_">
				<use xlink:href="#SVGID_5_"  overflow="visible"/>
			</clipPath>
			<path clip-path="url(#SVGID_6_)" fill="#F8A15E" d="M113.866,45.903c0,0,1.53,2.58,3.062,0l4.912-8.273c0,0,1.53-2.58-1.47-2.58
				h-9.946c0,0-3,0-1.468,2.58L113.866,45.903z"/>
		</g>
	</g>
</g>
<polygon fill="#FFFFFF" points="116.411,27.447 116.411,14.275 115.469,14.275 113.081,16.329 113.081,17.457 115.469,15.348 
	115.469,27.447 "/>
<g>
	<g>
		<g>
			<defs>
				<rect id="SVGID_7_" width="912" height="393.55"/>
			</defs>
			<clipPath id="SVGID_8_">
				<use xlink:href="#SVGID_7_"  overflow="visible"/>
			</clipPath>
			<path clip-path="url(#SVGID_8_)" fill="#FFFFFF" d="M140.018,290.643v-34c0-3-3-3-3-3h-44c-3,0-3,3-3,3v34c0,3,3,3,3,3h16.943
				l3.504,5.902c1.531,2.58,3.062,0,3.062,0l3.504-5.902h16.986C140.018,293.643,140.018,290.643,140.018,290.643"/>
		</g>
	</g>
	<g>
		<g>
			<defs>
				<rect id="SVGID_9_" width="912" height="393.55"/>
			</defs>
			<clipPath id="SVGID_10_">
				<use xlink:href="#SVGID_9_"  overflow="visible"/>
			</clipPath>
			<path clip-path="url(#SVGID_10_)" fill="none" stroke="#D0D2D3" d="M140.018,290.643v-34c0-3-3-3-3-3h-44c-3,0-3,3-3,3v34
				c0,3,3,3,3,3h16.943l3.504,5.902c1.531,2.58,3.062,0,3.062,0l3.504-5.902h16.986
				C140.018,293.643,140.018,290.643,140.018,290.643z"/>
		</g>
	</g>
	<g>
		<g>
			<defs>
				<rect id="SVGID_11_" width="912" height="393.55"/>
			</defs>
			<clipPath id="SVGID_12_">
				<use xlink:href="#SVGID_11_"  overflow="visible"/>
			</clipPath>
			<path clip-path="url(#SVGID_12_)" fill="#F8A15E" d="M130.078,277.173c-0.541,0-0.854-0.539-0.854-1.562
				c0-1.043,0.301-1.572,0.877-1.572c0.541,0,0.854,0.541,0.854,1.562C130.955,276.657,130.654,277.173,130.078,277.173
				 M128.183,275.602c0,1.428,0.707,2.268,1.907,2.268c1.199,0,1.919-0.84,1.919-2.268c0-1.453-0.707-2.256-1.907-2.256
				C128.902,273.346,128.183,274.172,128.183,275.602 M123.166,271.232c0,1.438,0.72,2.256,1.92,2.256
				c1.199,0,1.906-0.827,1.906-2.256c0-1.454-0.707-2.256-1.906-2.256C123.886,268.979,123.166,269.805,123.166,271.232
				 M125.074,272.807c-0.541,0-0.854-0.541-0.854-1.562c0-1.044,0.301-1.585,0.877-1.585c0.541,0,0.841,0.553,0.841,1.572
				C125.938,272.289,125.65,272.807,125.074,272.807 M125.494,277.867l5.004-8.891h-0.805l-5.004,8.891H125.494z M120.791,271.82
				c0,1.021-0.637,1.729-1.549,1.729c-1.033,0-1.633-0.658-1.633-1.729c0-1.045,0.624-1.705,1.656-1.705
				C120.154,270.115,120.791,270.775,120.791,271.82 M120.011,274.412l-2.474,3.229l1.057,0.539l1.513-2.123
				c1.152-1.621,2.027-2.783,2.027-4.226c0-1.705-1.127-2.854-2.845-2.854c-1.823,0-3.035,1.174-3.035,2.938
				c0,1.646,1.128,2.76,2.64,2.76C119.266,274.676,119.639,274.593,120.011,274.412 M113.123,276.992
				c0,0.42,0.336,0.756,0.767,0.756c0.433,0,0.769-0.336,0.769-0.756c0-0.432-0.336-0.779-0.769-0.779
				C113.459,276.213,113.123,276.562,113.123,276.992 M110.89,276.525h-3.263l1.092-1.26c1.308-1.502,2.158-2.57,2.158-3.914
				c0-1.463-1.019-2.375-2.674-2.375c-1.752,0-2.856,0.996-2.856,2.531h1.344c0.06-0.805,0.612-1.333,1.392-1.333
				c0.889,0,1.416,0.528,1.416,1.368c0,0.624-0.396,1.347-1.151,2.257l-3.204,3.842h5.747L110.89,276.525L110.89,276.525z
				 M103.701,276.525h-3.262l1.092-1.26c1.307-1.502,2.158-2.57,2.158-3.914c0-1.463-1.02-2.375-2.674-2.375
				c-1.752,0-2.855,0.996-2.855,2.531h1.342c0.062-0.805,0.613-1.333,1.394-1.333c0.888,0,1.416,0.528,1.416,1.368
				c0,0.624-0.396,1.347-1.151,2.257l-3.205,3.842h5.746L103.701,276.525L103.701,276.525z"/>
		</g>
	</g>
	<g>
		<g>
			<defs>
				<rect id="SVGID_13_" width="912" height="393.55"/>
			</defs>
			<clipPath id="SVGID_14_">
				<use xlink:href="#SVGID_13_"  overflow="visible"/>
			</clipPath>
			<path clip-path="url(#SVGID_14_)" fill="#006227" d="M115.018,309.131c2.199,0,3.982-1.783,3.982-3.982
				c0-2.197-1.783-3.98-3.982-3.98c-2.198,0-3.981,1.783-3.981,3.98C111.037,307.348,112.819,309.131,115.018,309.131"/>
		</g>
	</g>
	<g>
		<g>
			<defs>
				<rect id="SVGID_15_" width="912" height="393.55"/>
			</defs>
			<clipPath id="SVGID_16_">
				<use xlink:href="#SVGID_15_"  overflow="visible"/>
			</clipPath>
			<path clip-path="url(#SVGID_16_)" fill="#006227" d="M115.018,372.05c2.199,0,3.982-1.782,3.982-3.981
				c0-2.197-1.783-3.98-3.982-3.98c-2.198,0-3.981,1.783-3.981,3.98C111.036,370.268,112.819,372.05,115.018,372.05"/>
		</g>
	</g>
	<g>
		<g>
			<defs>
				<rect id="SVGID_17_" width="912" height="393.55"/>
			</defs>
			<clipPath id="SVGID_18_">
				<use xlink:href="#SVGID_17_"  overflow="visible"/>
			</clipPath>
			<path clip-path="url(#SVGID_18_)" fill="#FFFFFF" d="M140.018,353.561v-34c0-3-3-3-3-3h-44c-3,0-3,3-3,3v34c0,3,3,3,3,3h16.943
				l3.504,5.903c1.531,2.58,3.062,0,3.062,0l3.504-5.903h16.986C140.018,356.561,140.018,353.561,140.018,353.561"/>
		</g>
	</g>
	<g>
		<g>
			<defs>
				<rect id="SVGID_19_" width="912" height="393.55"/>
			</defs>
			<clipPath id="SVGID_20_">
				<use xlink:href="#SVGID_19_"  overflow="visible"/>
			</clipPath>
			<path clip-path="url(#SVGID_20_)" fill="none" stroke="#D0D2D3" d="M140.018,353.561v-34c0-3-3-3-3-3h-44c-3,0-3,3-3,3v34
				c0,3,3,3,3,3h16.943l3.504,5.903c1.531,2.58,3.062,0,3.062,0l3.504-5.903h16.986
				C140.018,356.561,140.018,353.561,140.018,353.561z"/>
		</g>
	</g>
	<g>
		<g>
			<defs>
				<rect id="SVGID_21_" width="912" height="393.55"/>
			</defs>
			<clipPath id="SVGID_22_">
				<use xlink:href="#SVGID_21_"  overflow="visible"/>
			</clipPath>
			<path clip-path="url(#SVGID_22_)" fill="#F8A15E" d="M126.484,340.093c-0.541,0-0.854-0.54-0.854-1.561
				c0-1.046,0.301-1.573,0.877-1.573c0.54,0,0.854,0.54,0.854,1.562C127.361,339.576,127.061,340.093,126.484,340.093
				 M124.589,338.521c0,1.428,0.707,2.267,1.907,2.267c1.2,0,1.919-0.839,1.919-2.267c0-1.453-0.707-2.258-1.907-2.258
				C125.309,336.266,124.589,337.091,124.589,338.521 M119.573,334.152c0,1.438,0.719,2.256,1.919,2.256
				c1.199,0,1.906-0.828,1.906-2.256c0-1.453-0.707-2.256-1.906-2.256C120.292,331.896,119.573,332.725,119.573,334.152
				 M121.48,335.725c-0.541,0-0.854-0.539-0.854-1.561c0-1.045,0.301-1.585,0.877-1.585c0.54,0,0.842,0.552,0.842,1.573
				C122.346,335.208,122.057,335.725,121.48,335.725 M121.9,340.787l5.004-8.891H126.1l-5.004,8.891H121.9z M114.039,337.934
				c0-1.021,0.637-1.719,1.549-1.719c1.032,0,1.633,0.648,1.633,1.719c0,1.043-0.613,1.703-1.645,1.703
				C114.688,339.637,114.039,338.977,114.039,337.934 M114.82,335.354l2.484-3.24l-1.068-0.539l-1.5,2.124
				c-1.152,1.62-2.027,2.782-2.027,4.224c0,1.704,1.114,2.867,2.831,2.867c1.825,0,3.035-1.175,3.035-2.938
				c0-1.646-1.127-2.771-2.64-2.771C115.564,335.076,115.191,335.172,114.82,335.354 M109.529,339.912
				c0,0.419,0.336,0.755,0.767,0.755c0.433,0,0.767-0.336,0.767-0.755c0-0.432-0.334-0.78-0.767-0.78
				C109.865,339.132,109.529,339.48,109.529,339.912 M102.678,338.509l-0.925,1.021c0.636,0.863,1.5,1.26,2.677,1.26
				c2.039,0,3.299-1.26,3.299-3.155c0-1.681-1.127-2.831-2.76-2.831c-0.443,0-0.875,0.098-1.332,0.287l0.504-1.896h3.215v-1.127
				h-4.055l-1.068,4.354l0.349,0.072c0.468-0.479,1.092-0.731,1.812-0.731c1.201,0,2.004,0.793,2.004,1.922
				c0,1.188-0.779,1.969-1.907,1.969C103.732,339.648,103.085,339.252,102.678,338.509"/>
		</g>
	</g>
</g>
</svg>
