<?xml version="1.0" encoding="utf-8"?>
<!-- Generator: Adobe Illustrator 15.1.0, SVG Export Plug-In . SVG Version: 6.00 Build 0)  -->
<!DOCTYPE svg PUBLIC "-//W3C//DTD SVG 1.1//EN" "http://www.w3.org/Graphics/SVG/1.1/DTD/svg11.dtd">
<svg version="1.1" id="art" xmlns="http://www.w3.org/2000/svg" xmlns:xlink="http://www.w3.org/1999/xlink" x="0px" y="0px"
	 width="790px" height="160px" viewBox="0 0 790 160" enable-background="new 0 0 790 160" xml:space="preserve">
<g>
	<polygon fill="#FAA35E" points="169.297,0 163.001,4 156.704,0 151.111,4.937 144.267,1.97 139.515,7.721 132.29,5.862 
		128.497,12.284 121.069,11.579 118.329,18.515 110.883,18.979 109.261,26.261 101.979,27.884 101.515,35.329 94.578,38.072 
		95.284,45.498 88.86,49.291 90.72,56.516 84.97,61.267 87.936,68.112 83,73.705 87,80 83,86.297 87.936,91.889 84.97,98.734 
		90.72,103.486 88.86,110.711 95.284,114.504 94.578,121.93 101.515,124.674 101.979,132.117 109.261,133.74 110.883,141.021 
		118.329,141.485 121.069,148.424 128.497,147.717 132.29,154.141 139.515,152.281 144.267,158.031 151.111,155.064 156.704,160 
		163.001,156.001 169.297,160 174.889,155.064 181.733,158.031 186.484,152.281 193.71,154.141 197.504,147.717 204.93,148.424 
		207.671,141.485 215.116,141.021 216.739,133.74 224.021,132.117 224.484,124.674 231.422,121.93 230.717,114.504 237.138,110.711 
		235.28,103.486 241.03,98.734 238.063,91.889 243.001,86.297 238.999,80 243.001,73.705 238.063,68.112 241.03,61.267 
		235.28,56.516 237.138,49.291 230.717,45.498 231.422,38.072 224.484,35.329 224.021,27.884 216.739,26.261 215.116,18.979 
		207.671,18.515 204.93,11.579 197.504,12.284 193.71,5.862 186.484,7.721 181.733,1.97 174.889,4.937 	"/>
	<polygon fill="#FAA35E" points="401.297,0 395.001,4 388.704,0 383.111,4.937 376.267,1.97 371.514,7.721 364.292,5.862 
		360.498,12.284 353.069,11.579 350.329,18.515 342.883,18.979 341.261,26.261 333.98,27.884 333.516,35.329 326.579,38.072 
		327.283,45.498 320.86,49.291 322.72,56.516 316.97,61.267 319.935,68.112 315.001,73.705 319,80 315.001,86.297 319.935,91.889 
		316.97,98.734 322.72,103.486 320.86,110.711 327.283,114.504 326.579,121.93 333.516,124.674 333.98,132.117 341.261,133.74 
		342.883,141.021 350.329,141.485 353.069,148.424 360.498,147.717 364.292,154.141 371.514,152.281 376.267,158.031 
		383.111,155.064 388.704,160 395.001,156.001 401.297,160 406.89,155.064 413.734,158.031 418.485,152.281 425.71,154.141 
		429.503,147.717 436.93,148.424 439.672,141.485 447.117,141.021 448.74,133.74 456.021,132.117 456.485,124.674 463.424,121.93 
		462.718,114.504 469.139,110.711 467.28,103.486 473.03,98.734 470.063,91.889 475.001,86.297 471,80 475.001,73.705 
		470.063,68.112 473.03,61.267 467.28,56.516 469.139,49.291 462.718,45.498 463.424,38.072 456.485,35.329 456.021,27.884 
		448.74,26.261 447.117,18.979 439.672,18.515 436.93,11.579 429.503,12.284 425.71,5.862 418.485,7.721 413.734,1.97 406.89,4.937 
			"/>
	<polygon fill="#FAA35E" points="633.295,0 626.999,4 620.703,0 615.11,4.937 608.265,1.97 603.514,7.721 596.289,5.862 
		592.497,12.284 585.07,11.579 582.328,18.515 574.882,18.979 573.26,26.261 565.979,27.884 565.514,35.329 558.576,38.072 
		559.283,45.498 552.861,49.291 554.719,56.516 548.969,61.267 551.934,68.112 547,73.705 551,80 547,86.297 551.934,91.889 
		548.969,98.734 554.719,103.486 552.861,110.711 559.283,114.504 558.576,121.93 565.514,124.674 565.979,132.117 573.26,133.74 
		574.882,141.021 582.328,141.485 585.07,148.424 592.497,147.717 596.289,154.141 603.514,152.281 608.265,158.031 615.11,155.064 
		620.703,160 626.999,156.001 633.295,160 638.888,155.064 645.733,158.031 650.482,152.281 657.709,154.141 661.503,147.717 
		668.928,148.424 671.67,141.485 679.116,141.021 680.738,133.74 688.021,132.117 688.483,124.674 695.422,121.93 694.715,114.504 
		701.137,110.711 699.279,103.486 705.029,98.734 702.064,91.889 707,86.297 703,80 707,73.705 702.064,68.112 705.029,61.267 
		699.279,56.516 701.137,49.291 694.715,45.498 695.422,38.072 688.483,35.329 688.021,27.884 680.738,26.261 679.116,18.979 
		671.67,18.515 668.928,11.579 661.503,12.284 657.709,5.862 650.482,7.721 645.733,1.97 638.888,4.937 	"/>
	<g>
		<defs>
			<rect id="SVGID_1_" x="83" width="624" height="160"/>
		</defs>
		<clipPath id="SVGID_2_">
			<use xlink:href="#SVGID_1_"  overflow="visible"/>
		</clipPath>
		<path clip-path="url(#SVGID_2_)" fill="#FFFFFF" d="M678.275,100.58h2.544V91.7h1.944v-2.231h-1.944v-4.201h-2.544v4.201h-1.944
			V91.7h1.944V100.58z M663.804,100.58h2.544v-5.064c0-1.392,0.049-2.352,0.504-3.023c0.527-0.792,1.488-1.248,2.688-1.248
			c2.112,0,2.424,1.152,2.424,3.624v5.712h2.568v-6.744c0-1.344,0-2.352-0.552-3.191c-0.648-1.032-1.824-1.561-3.48-1.561
			c-1.943,0-3.264,0.648-4.296,2.208v-1.823h-2.399V100.58z M661.404,95.396v-0.48c0-3.695-2.112-5.832-5.688-5.832
			c-3.456,0-5.832,2.52-5.832,5.977c0,3.624,2.28,5.976,5.832,5.976c2.495,0,4.319-1.08,5.568-3.312l-2.137-1.2
			c-0.816,1.536-1.848,2.184-3.48,2.184c-1.848,0-3.023-1.224-3.144-3.312H661.404z M658.764,93.692h-6.072
			c0.408-1.656,1.416-2.448,3.072-2.448C657.516,91.244,658.571,92.084,658.764,93.692 M632.483,100.58v-5.064
			c0-1.367,0-2.303,0.432-3.023c0.481-0.792,1.345-1.271,2.353-1.271c1.752,0,2.208,1.127,2.208,3.647v5.712h2.567v-5.064
			c0-2.855,0.577-4.295,2.785-4.295c1.919,0,2.159,1.199,2.159,3.647v5.712h2.544v-7.632c0-0.937-0.048-1.704-0.408-2.304
			c-0.6-1.008-1.704-1.584-3.191-1.584c-1.729,0-2.976,0.695-4.128,2.207c-0.601-1.487-1.729-2.207-3.456-2.207
			c-1.776,0-3,0.695-4.008,2.231v-1.823h-2.399v11.111H632.483z M620.797,105.812l8.016-16.344h-2.76l-2.736,5.928
			c-0.312,0.695-0.624,1.368-0.792,2.016c-0.096-0.696-0.264-1.439-0.528-2.184l-2.04-5.76h-2.808l4.08,10.151l-3.048,6.192H620.797
			z M613.74,95.061c0,2.088-1.56,3.695-3.432,3.695c-1.896,0-3.433-1.607-3.433-3.695s1.536-3.696,3.433-3.696
			C612.204,91.364,613.74,92.973,613.74,95.061 M604.188,95.036c0,1.632,0.624,3.096,1.8,4.248c1.152,1.128,2.688,1.752,4.296,1.752
			c1.656,0,3.168-0.624,4.368-1.776c1.152-1.104,1.776-2.567,1.776-4.224c0-1.608-0.648-3.071-1.801-4.2
			c-1.176-1.152-2.688-1.752-4.344-1.752c-1.607,0-3.144,0.6-4.296,1.729C604.812,91.94,604.188,93.428,604.188,95.036
			 M598.74,84.668c0,0.864,0.72,1.608,1.608,1.608c0.888,0,1.584-0.696,1.584-1.608s-0.696-1.584-1.584-1.584
			C599.46,83.084,598.74,83.805,598.74,84.668 M599.076,105.812h2.544V89.469h-2.544V105.812z M585.084,100.58h2.544v-5.064
			c0-1.392,0.049-2.352,0.505-3.023c0.527-0.792,1.487-1.248,2.688-1.248c2.112,0,2.424,1.152,2.424,3.624v5.712h2.568v-6.744
			c0-1.344,0-2.352-0.552-3.191c-0.648-1.032-1.824-1.561-3.48-1.561c-1.944,0-3.264,0.648-4.296,2.208v-1.823h-2.4V100.58z
			 M572.772,100.58h9.576v-2.496h-6.792V92.54h6.792v-2.448h-6.792v-4.295h6.792V83.42h-9.576V100.58z"/>
		<path clip-path="url(#SVGID_2_)" fill="#FFFFFF" d="M654.491,81.812l8.017-16.344h-2.761l-2.735,5.928
			c-0.312,0.696-0.624,1.368-0.792,2.016c-0.097-0.696-0.265-1.44-0.528-2.184l-2.04-5.76h-2.808l4.08,10.152l-3.049,6.192H654.491z
			 M646.644,76.58h2.544V58.412h-2.544V76.58z M640.261,60.668c0,0.864,0.719,1.608,1.606,1.608c0.889,0,1.584-0.696,1.584-1.608
			c0-0.912-0.695-1.584-1.584-1.584C640.979,59.084,640.261,59.804,640.261,60.668 M640.597,76.58h2.544V65.468h-2.544V76.58z
			 M622.261,76.58v-5.064c0-1.368,0-2.304,0.432-3.024c0.48-0.792,1.344-1.272,2.353-1.272c1.752,0,2.208,1.128,2.208,3.648v5.712
			h2.567v-5.064c0-2.856,0.576-4.296,2.784-4.296c1.92,0,2.159,1.2,2.159,3.648v5.712h2.545v-7.632c0-0.936-0.048-1.704-0.408-2.304
			c-0.6-1.008-1.704-1.584-3.191-1.584c-1.729,0-2.977,0.696-4.129,2.208c-0.601-1.488-1.728-2.208-3.455-2.208
			c-1.776,0-3,0.696-4.01,2.232v-1.824h-2.398V76.58H622.261z M616.452,76.58V65.468h-2.544v1.824
			c-0.6-1.416-1.92-2.208-3.744-2.208c-2.928,0-4.991,2.352-4.991,5.928c0,3.792,1.968,6.024,5.063,6.024
			c1.561,0,2.76-0.624,3.672-1.896v1.44H616.452z M613.98,70.988c0,2.352-1.344,3.792-3.096,3.792c-1.92,0-3.048-1.32-3.048-3.696
			c0-2.352,1.176-3.744,3.096-3.744C612.828,67.34,613.98,68.66,613.98,70.988 M593.845,76.58h2.784v-8.064h6.792v-2.448h-6.792
			v-4.272h6.792V59.42h-9.576V76.58z"/>
		<path clip-path="url(#SVGID_2_)" fill="#FFFFFF" d="M412.94,100.58h2.544v-5.736l4.992,5.736h3.288l-5.521-6.216l5.04-4.896
			h-3.144l-4.656,4.607V82.412h-2.544V100.58z M406.893,91.244v-1.8h-2.544v11.136h2.544v-4.872c0-3,0.575-4.416,2.376-4.416
			c0.575,0,1.08,0.12,1.56,0.456l0.912-2.16c-0.672-0.336-1.368-0.504-2.088-0.504C408.309,89.084,407.444,89.78,406.893,91.244
			 M399.212,95.061c0,2.088-1.56,3.695-3.432,3.695c-1.896,0-3.432-1.607-3.432-3.695s1.535-3.696,3.432-3.696
			C397.676,91.364,399.212,92.973,399.212,95.061 M389.66,95.036c0,1.632,0.624,3.096,1.8,4.248
			c1.152,1.128,2.688,1.752,4.296,1.752c1.656,0,3.168-0.624,4.368-1.776c1.152-1.104,1.776-2.567,1.776-4.224
			c0-1.608-0.648-3.071-1.8-4.2c-1.177-1.152-2.688-1.752-4.345-1.752c-1.607,0-3.144,0.6-4.296,1.729
			C390.284,91.94,389.66,93.428,389.66,95.036 M366.356,83.42l6.624,17.832l3.84-9.744c0.312-0.791,0.576-1.607,0.815-2.447
			c0.217,0.744,0.505,1.56,0.841,2.399l3.912,9.792l6.647-17.832h-2.784l-3.216,8.736c-0.36,0.984-0.647,1.848-0.84,2.664
			c-0.288-1.008-0.601-1.92-0.912-2.736l-3.624-9.336l-3.456,9.168c-0.096,0.288-0.432,1.225-0.936,2.881
			c-0.265-0.912-0.576-1.801-0.912-2.713l-3.24-8.664H366.356z"/>
		<path clip-path="url(#SVGID_2_)" fill="#FFFFFF" d="M449.492,71.396v-0.48c0-3.696-2.112-5.832-5.688-5.832
			c-3.456,0-5.832,2.52-5.832,5.976c0,3.624,2.28,5.976,5.832,5.976c2.496,0,4.32-1.08,5.568-3.312l-2.137-1.2
			c-0.815,1.536-1.848,2.184-3.479,2.184c-1.848,0-3.024-1.224-3.145-3.312H449.492z M446.852,69.692h-6.072
			c0.408-1.656,1.416-2.448,3.072-2.448C445.604,67.244,446.66,68.084,446.852,69.692 M431.611,77.252l5.832-11.784h-2.76
			l-2.424,5.592c-0.288,0.672-0.504,1.344-0.648,2.016c-0.264-1.032-0.479-1.704-0.624-2.016l-2.424-5.592h-2.784L431.611,77.252z
			 M421.436,60.668c0,0.864,0.72,1.608,1.608,1.608c0.888,0,1.584-0.696,1.584-1.608c0-0.912-0.696-1.584-1.584-1.584
			C422.155,59.084,421.436,59.804,421.436,60.668 M421.771,76.58h2.544V65.468h-2.544V76.58z M415.22,76.58h2.544V67.7h1.944v-2.232
			h-1.944v-4.2h-2.544v4.2h-1.944V67.7h1.944V76.58z M412.268,68.636V65.78c-0.864-0.48-1.824-0.696-2.952-0.696
			c-3.672,0-6.168,2.4-6.168,5.976c0,3.528,2.424,5.976,5.904,5.976c1.224,0,2.28-0.264,3.216-0.792v-2.928
			c-0.744,0.936-1.704,1.392-2.928,1.392c-2.208,0-3.552-1.392-3.552-3.72c0-2.232,1.367-3.672,3.432-3.672
			C410.443,67.316,411.5,67.796,412.268,68.636 M392.563,65.468h-2.544v5.496c0,4.176,1.512,6.072,5.4,6.072
			c3.815,0,5.352-1.92,5.352-6.072v-5.496h-2.544v6.264c0,2.088-0.768,3.024-2.832,3.024c-2.063,0-2.832-0.936-2.832-3.024V65.468z
			 M384.356,70.988c0,2.352-1.319,3.792-3.096,3.792c-1.92,0-3.048-1.32-3.048-3.696c0-2.352,1.176-3.744,3.096-3.744
			C383.205,67.34,384.356,68.66,384.356,70.988 M384.285,58.412v8.88c-0.601-1.416-1.921-2.208-3.744-2.208
			c-2.929,0-4.992,2.352-4.992,5.928c0,3.792,1.968,6.024,5.063,6.024c1.561,0,2.761-0.624,3.673-1.896v1.44h2.544V58.412H384.285z
			 M371.229,71.06c0,2.088-1.56,3.696-3.432,3.696c-1.896,0-3.433-1.608-3.433-3.696c0-2.088,1.536-3.696,3.433-3.696
			C369.692,67.364,371.229,68.972,371.229,71.06 M361.677,71.036c0,1.632,0.624,3.096,1.8,4.248
			c1.152,1.128,2.688,1.752,4.296,1.752c1.656,0,3.168-0.624,4.368-1.776c1.152-1.104,1.776-2.568,1.776-4.224
			c0-1.608-0.648-3.072-1.8-4.2c-1.177-1.152-2.688-1.752-4.345-1.752c-1.607,0-3.144,0.6-4.296,1.728
			C362.301,67.94,361.677,69.428,361.677,71.036 M356.444,67.244v-1.8H353.9V76.58h2.544v-4.872c0-3,0.576-4.416,2.376-4.416
			c0.576,0,1.08,0.12,1.561,0.456l0.912-2.16c-0.672-0.336-1.368-0.504-2.088-0.504C357.86,65.084,356.997,65.78,356.444,67.244
			 M344.373,66.596V61.82h0.72c2.592,0,3.864,0.432,3.864,2.496c0,1.992-1.296,2.28-3.864,2.28H344.373z M344.205,68.876h1.607
			c1.752,0,3.145-0.048,4.296-0.864c1.057-0.768,1.729-2.208,1.729-3.864c0-1.656-0.672-3.072-1.729-3.84
			c-1.151-0.84-2.544-0.888-4.296-0.888h-4.224v17.16h2.616V68.876z"/>
		<path clip-path="url(#SVGID_2_)" fill="#FFFFFF" d="M180.881,95.396v-0.48c0-3.695-2.112-5.832-5.688-5.832
			c-3.456,0-5.832,2.52-5.832,5.977c0,3.624,2.279,5.976,5.832,5.976c2.496,0,4.319-1.08,5.567-3.312l-2.136-1.2
			c-0.816,1.536-1.848,2.184-3.48,2.184c-1.847,0-3.024-1.224-3.144-3.312H180.881z M178.24,93.692h-6.072
			c0.408-1.656,1.416-2.448,3.072-2.448C176.992,91.244,178.049,92.084,178.24,93.692 M163.433,100.58h2.544V91.7h2.663v-2.231
			h-2.663v-2.641c0-1.704,0.432-2.472,1.704-2.472c0.431,0,0.84,0.12,1.248,0.36v-2.305c-0.624-0.168-1.2-0.24-1.729-0.24
			c-2.592,0-3.768,1.393-3.768,4.32v2.977h-1.944V91.7h1.944V100.58z M156.809,84.668c0,0.864,0.72,1.608,1.608,1.608
			c0.888,0,1.584-0.696,1.584-1.608s-0.696-1.584-1.584-1.584C157.528,83.084,156.809,83.805,156.809,84.668 M157.145,100.58h2.544
			V89.469h-2.544V100.58z M146.2,100.58h9.024v-2.496h-6.24V83.42H146.2V100.58z"/>
		<path clip-path="url(#SVGID_2_)" fill="#FFFFFF" d="M211.768,68.636V65.78c-0.864-0.48-1.824-0.696-2.952-0.696
			c-3.672,0-6.168,2.4-6.168,5.976c0,3.528,2.424,5.976,5.904,5.976c1.224,0,2.279-0.264,3.216-0.792v-2.928
			c-0.744,0.936-1.704,1.392-2.928,1.392c-2.208,0-3.552-1.392-3.552-3.72c0-2.232,1.367-3.672,3.432-3.672
			C209.943,67.316,210.999,67.796,211.768,68.636 M197.199,60.668c0,0.864,0.721,1.608,1.608,1.608s1.584-0.696,1.584-1.608
			c0-0.912-0.696-1.584-1.584-1.584S197.199,59.804,197.199,60.668 M197.535,76.58h2.545V65.468h-2.545V76.58z M190.984,76.58h2.544
			V67.7h1.944v-2.232h-1.944v-4.2h-2.544v4.2h-1.943V67.7h1.943V76.58z M179.129,74.564c0.815,1.68,2.231,2.472,4.392,2.472
			c2.904,0,4.536-1.392,4.536-3.552c0-1.608-0.912-2.52-2.856-3.288c-1.728-0.696-2.928-0.864-2.928-1.944
			c0-0.768,0.624-1.272,1.608-1.272c0.888,0,1.584,0.456,1.848,1.152l1.8-1.248c-0.552-1.152-1.8-1.824-3.552-1.824
			c-2.64,0-4.248,1.416-4.248,3.336c0,1.608,1.08,2.472,3.192,3.36c1.536,0.648,2.64,0.744,2.64,1.896
			c0,0.888-0.672,1.464-1.824,1.464c-1.344,0-2.184-0.6-2.496-1.704L179.129,74.564z M178.001,71.396v-0.48
			c0-3.696-2.112-5.832-5.688-5.832c-3.456,0-5.832,2.52-5.832,5.976c0,3.624,2.28,5.976,5.832,5.976c2.496,0,4.32-1.08,5.568-3.312
			l-2.136-1.2c-0.816,1.536-1.849,2.184-3.48,2.184c-1.848,0-3.024-1.224-3.144-3.312H178.001z M175.36,69.692h-6.071
			c0.407-1.656,1.416-2.448,3.071-2.448C174.112,67.244,175.169,68.084,175.36,69.692 M149.081,76.58v-5.064
			c0-1.368,0-2.304,0.432-3.024c0.479-0.792,1.344-1.272,2.352-1.272c1.752,0,2.208,1.128,2.208,3.648v5.712h2.568v-5.064
			c0-2.856,0.576-4.296,2.784-4.296c1.92,0,2.16,1.2,2.16,3.648v5.712h2.544v-7.632c0-0.936-0.048-1.704-0.408-2.304
			c-0.6-1.008-1.704-1.584-3.192-1.584c-1.728,0-2.976,0.696-4.128,2.208c-0.6-1.488-1.728-2.208-3.456-2.208
			c-1.775,0-3,0.696-4.008,2.232v-1.824h-2.399V76.58H149.081z M141.4,71.06c0,2.088-1.56,3.696-3.432,3.696
			c-1.896,0-3.432-1.608-3.432-3.696c0-2.088,1.535-3.696,3.432-3.696C139.864,67.364,141.4,68.972,141.4,71.06 M131.849,71.036
			c0,1.632,0.624,3.096,1.8,4.248c1.152,1.128,2.688,1.752,4.296,1.752c1.656,0,3.168-0.624,4.368-1.776
			c1.152-1.104,1.776-2.568,1.776-4.224c0-1.608-0.648-3.072-1.8-4.2c-1.177-1.152-2.688-1.752-4.345-1.752
			c-1.607,0-3.144,0.6-4.296,1.728C132.473,67.94,131.849,69.428,131.849,71.036 M118.145,74.06V61.916h2.016
			c2.064,0,3.648,0.072,4.921,1.128c1.296,1.104,1.943,2.76,1.943,4.944s-0.647,3.84-1.943,4.944
			c-1.225,1.032-2.688,1.128-4.584,1.128H118.145z M115.36,76.58h4.513c2.783,0,5.04-0.072,7.031-1.608
			c1.969-1.512,3.024-3.888,3.024-6.96s-1.056-5.472-3.024-6.984c-2.088-1.608-4.56-1.608-7.775-1.608h-3.769V76.58z"/>
	</g>
</g>
</svg>
