<?xml version="1.0" encoding="utf-8"?>
<!-- Generator: Adobe Illustrator 15.1.0, SVG Export Plug-In . SVG Version: 6.00 Build 0)  -->
<!DOCTYPE svg PUBLIC "-//W3C//DTD SVG 1.1//EN" "http://www.w3.org/Graphics/SVG/1.1/DTD/svg11.dtd">
<svg version="1.1" id="art" xmlns="http://www.w3.org/2000/svg" xmlns:xlink="http://www.w3.org/1999/xlink" x="0px" y="0px"
	 width="912px" height="342px" viewBox="0 0 912 342" enable-background="new 0 0 912 342" xml:space="preserve">
<rect y="320" fill="#F3E3D5" width="912" height="20"/>
<rect fill="#F3E3D5" width="912" height="40"/>
<rect y="80" fill="#F3E3D5" width="912" height="40"/>
<rect y="160" fill="#F3E3D5" width="912" height="40"/>
<rect y="240" fill="#F3E3D5" width="912" height="40"/>
<g>
	<defs>
		<rect id="SVGID_1_" x="-9" y="-1" width="930" height="342.5"/>
	</defs>
	<clipPath id="SVGID_2_">
		<use xlink:href="#SVGID_1_"  overflow="visible"/>
	</clipPath>
	<line clip-path="url(#SVGID_2_)" fill="none" stroke="#6D6E71" stroke-dasharray="4,4" x1="810.25" y1="0" x2="810.25" y2="340"/>
	
		<line clip-path="url(#SVGID_2_)" fill="none" stroke="#6D6E71" stroke-dasharray="4,4" x1="115.375" y1="0" x2="115.375" y2="340"/>
	
		<line clip-path="url(#SVGID_2_)" fill="none" stroke="#6D6E71" stroke-dasharray="4,4" x1="265.505" y1="0" x2="265.505" y2="340"/>
	
		<line clip-path="url(#SVGID_2_)" fill="none" stroke="#6D6E71" stroke-dasharray="4,4" x1="428.877" y1="0" x2="428.877" y2="340"/>
	<polyline clip-path="url(#SVGID_2_)" fill="none" stroke="#006227" stroke-width="2" points="101.75,340.085 115.875,242.663 
		129.001,202.711 156.251,170.953 183.501,137.147 210.751,123.83 238.001,114.61 265.506,92.073 292.5,96.171 319.75,100.269 
		374.25,114.61 429.378,111.537 496.999,113.586 537.749,119.732 598.999,128.952 646.75,126.903 755.75,132.025 810.75,131.001 	
		"/>
</g>
<line fill="none" stroke="#006227" stroke-width="2" stroke-dasharray="9.836,4.836" x1="106.45" y1="331.549" x2="112.349" y2="320.807"/>
<line fill="none" stroke="#006227" stroke-width="2" stroke-dasharray="9.445,4.445" x1="136.199" y1="302.546" x2="178.055" y2="269.49"/>
<line fill="none" stroke="#006227" stroke-width="2" stroke-dasharray="9.692,4.692" x1="192.539" y1="268.244" x2="203.942" y2="272.104"/>
<line fill="none" stroke="#006227" stroke-width="2" stroke-dasharray="9.545,4.545" x1="219.764" y1="272.037" x2="231.19" y2="269.028"/>
<line fill="none" stroke="#006227" stroke-width="2" stroke-dasharray="9.419,4.419" x1="247.076" y1="266.222" x2="258.633" y2="264.93"/>
<line fill="none" stroke="#006227" stroke-width="2" stroke-dasharray="9.326,4.326" x1="274.396" y1="265.511" x2="285.755" y2="267.236"/>
<line fill="none" stroke="#006227" stroke-width="2" stroke-dasharray="10.199,5.199" x1="301.616" y1="263.462" x2="312.94" y2="257.5"/>
<line fill="none" stroke="#006227" stroke-width="2" stroke-dasharray="9.974,4.974" x1="328.832" y1="258.011" x2="367.44" y2="275.434"/>
<line fill="none" stroke="#006227" stroke-width="2" stroke-dasharray="9.421,4.421" x1="383.345" y1="279.354" x2="422.488" y2="282.992"/>
<line fill="none" stroke="#006227" stroke-width="2" stroke-dasharray="10.264,5.264" x1="439.774" y1="283.73" x2="638.986" y2="285.608"/>
<line fill="none" stroke="#006227" stroke-width="2" stroke-dasharray="10.294,5.294" x1="657.18" y1="285.191" x2="747.964" y2="280.924"/>
<line fill="none" stroke="#006227" stroke-width="2" stroke-dasharray="9.386,4.386" x1="764.813" y1="281.064" x2="803.873" y2="283.248"/>
<g>
	<defs>
		<rect id="SVGID_3_" x="-9" y="-1" width="930" height="342.5"/>
	</defs>
	<clipPath id="SVGID_4_">
		<use xlink:href="#SVGID_3_"  overflow="visible"/>
	</clipPath>
	<path clip-path="url(#SVGID_4_)" fill="none" stroke="#006227" stroke-width="2" d="M806.063,283.369l4.686,0.263 M750.608,280.8
		l5.141-0.242l4.687,0.262 M641.619,285.634l5.131,0.048l5.143-0.241 M424.689,283.196l4.689,0.436l5.132,0.049 M369.707,276.457
		l4.546,2.051l4.69,0.437 M315.241,256.289l4.512-2.377l4.546,2.053 M287.894,267.561l4.609,0.699l4.513-2.375 M260.828,264.685
		l4.681-0.524l4.61,0.701 M233.389,268.451l4.615-1.215l4.681-0.525 M206.164,272.855l4.59,1.555l4.615-1.215 M179.798,268.113
		l3.706-2.928l4.59,1.555 M124.592,310.295l4.413-2.067l3.706-2.927 M113.513,318.688l2.367-4.312l4.413-2.067 M101.755,340.099
		l2.367-4.311"/>
	<line clip-path="url(#SVGID_4_)" fill="none" stroke="#F9A25E" stroke-width="3" x1="0" y1="340" x2="912" y2="340"/>
</g>
</svg>
