<?xml version="1.0" encoding="utf-8"?>
<!-- Generator: Adobe Illustrator 15.1.0, SVG Export Plug-In . SVG Version: 6.00 Build 0)  -->
<!DOCTYPE svg PUBLIC "-//W3C//DTD SVG 1.1//EN" "http://www.w3.org/Graphics/SVG/1.1/DTD/svg11.dtd">
<svg version="1.1" id="art" xmlns="http://www.w3.org/2000/svg" xmlns:xlink="http://www.w3.org/1999/xlink" x="0px" y="0px"
	 width="912px" height="422px" viewBox="0 0 912 422" enable-background="new 0 0 912 422" xml:space="preserve">
<rect y="400" fill="#F3E3D5" width="912" height="20"/>
<rect y="80" fill="#F3E3D5" width="912" height="40"/>
<rect fill="#F3E3D5" width="912" height="40"/>
<rect y="160" fill="#F3E3D5" width="912" height="40"/>
<rect y="240" fill="#F3E3D5" width="912" height="40"/>
<rect y="320" fill="#F3E3D5" width="912" height="40"/>
<g>
	<defs>
		<rect id="SVGID_1_" x="-9" y="-1" width="930" height="422.5"/>
	</defs>
	<clipPath id="SVGID_2_">
		<use xlink:href="#SVGID_1_"  overflow="visible"/>
	</clipPath>
	<polyline clip-path="url(#SVGID_2_)" fill="none" stroke="#006227" stroke-width="2" points="114.455,419.5 228.454,172 
		342.454,85 456.454,115 570.454,108 684.454,125 798.454,125 	"/>
</g>
<line fill="none" stroke="#006227" stroke-width="2" stroke-dasharray="9.954,9.954" x1="121.125" y1="406.878" x2="223.25" y2="218.799"/>
<line fill="none" stroke="#006227" stroke-width="2" stroke-dasharray="10.215,10.215" x1="242.25" y1="204.419" x2="332.5" y2="168.754"/>
<line fill="none" stroke="#006227" stroke-width="2" stroke-dasharray="10.378,10.378" x1="357.546" y1="164.182" x2="559.637" y2="153.546"/>
<line fill="none" stroke="#006227" stroke-width="2" stroke-dasharray="9.562,9.562" x1="584.25" y1="154.625" x2="674.5" y2="164.917"/>
<line fill="none" stroke="#006227" stroke-width="2" stroke-dasharray="9.712,9.712" x1="698.307" y1="163.25" x2="788.917" y2="145.833"/>
<g>
	<defs>
		<rect id="SVGID_3_" x="-9" y="-1" width="930" height="422.5"/>
	</defs>
	<clipPath id="SVGID_4_">
		<use xlink:href="#SVGID_3_"  overflow="visible"/>
	</clipPath>
	<path clip-path="url(#SVGID_4_)" fill="none" stroke="#006227" stroke-width="2" d="M793.686,144.917l4.769-0.917 M679.25,165.458
		L684,166l4.77-0.917 M564.818,153.273L570,153l4.75,0.542 M337.25,166.877L342,165l5.183-0.273 M225.625,214.424L228,210.05
		l4.75-1.877 M114,420l2.375-4.374"/>
	<polyline clip-path="url(#SVGID_4_)" fill="none" stroke="#F9A25E" stroke-width="2" points="114,420 228.349,311 342,262 456,257 
		570,204 684,183 798,198 	"/>
</g>
<line fill="none" stroke="#F9A25E" stroke-width="2" stroke-dasharray="10.243,10.243" x1="126.214" y1="410.679" x2="219.857" y2="339.215"/>
<line fill="none" stroke="#F9A25E" stroke-width="2" stroke-dasharray="9.503,9.503" x1="242.25" y1="333.375" x2="332.5" y2="335.75"/>
<line fill="none" stroke="#F9A25E" stroke-width="2" stroke-dasharray="9.388,9.388" x1="354.238" y1="329.035" x2="448.068" y2="275.643"/>
<line fill="none" stroke="#F9A25E" stroke-width="2" stroke-dasharray="9.499,9.499" x1="470.449" y1="270.125" x2="560.519" y2="264.583"/>
<line fill="none" stroke="#F9A25E" stroke-width="2" stroke-dasharray="9.614,9.614" x1="584.25" y1="266.219" x2="674.5" y2="280.269"/>
<line fill="none" stroke="#F9A25E" stroke-width="2" stroke-dasharray="9.542,9.542" x1="698.25" y1="280.404" x2="788.5" y2="271.896"/>
<g>
	<defs>
		<rect id="SVGID_5_" x="-9" y="-1" width="930" height="422.5"/>
	</defs>
	<clipPath id="SVGID_6_">
		<use xlink:href="#SVGID_5_"  overflow="visible"/>
	</clipPath>
	<path clip-path="url(#SVGID_6_)" fill="none" stroke="#F9A25E" stroke-width="2" d="M793.25,271.448L798,271 M679.25,281.008
		l4.75,0.74l4.75-0.448 M565.259,264.292L570,264l4.75,0.74 M452.148,273.322l4.078-2.322l4.741-0.292 M337.25,335.875L342,336
		l4.08-2.322 M223.929,336.107L228,333l4.75,0.125 M114,420l4.071-3.107"/>
	<polyline clip-path="url(#SVGID_6_)" fill="none" stroke="#808285" stroke-width="2" points="114,420 228.349,393 342,356 456,336 
		570,337 684,295 798,301.428 	"/>
	
		<line clip-path="url(#SVGID_6_)" fill="none" stroke="#808285" stroke-width="2" stroke-dasharray="10.426,10.426" x1="129.545" y1="418.295" x2="331.637" y2="396.137"/>
</g>
<line fill="none" stroke="#808285" stroke-width="2" stroke-dasharray="10.34,10.34" x1="356.25" y1="388.875" x2="446.5" y2="350.083"/>
<line fill="none" stroke="#808285" stroke-width="2" stroke-dasharray="10.431,10.431" x1="471.545" y1="347.772" x2="673.637" y2="370.817"/>
<line fill="none" stroke="#808285" stroke-width="2" stroke-dasharray="9.726,9.726" x1="698.25" y1="368.875" x2="788.5" y2="349.083"/>
<g>
	<defs>
		<rect id="SVGID_7_" x="-9" y="-1" width="930" height="422.5"/>
	</defs>
	<clipPath id="SVGID_8_">
		<use xlink:href="#SVGID_7_"  overflow="visible"/>
	</clipPath>
	<path clip-path="url(#SVGID_8_)" fill="none" stroke="#808285" stroke-width="2" d="M793.25,348.042L798,347 M678.818,371.409
		L684,372l4.75-1.042 M451.25,348.042L456,346l5.182,0.591 M336.818,395.568L342,395l4.75-2.042 M114,420l5.182-0.568"/>
	<line clip-path="url(#SVGID_8_)" fill="none" stroke="#F9A25E" stroke-width="3" x1="0" y1="420" x2="912" y2="420"/>
</g>
</svg>
