<?xml version="1.0" encoding="utf-8"?>
<!-- Generator: Adobe Illustrator 15.1.0, SVG Export Plug-In . SVG Version: 6.00 Build 0)  -->
<!DOCTYPE svg PUBLIC "-//W3C//DTD SVG 1.1//EN" "http://www.w3.org/Graphics/SVG/1.1/DTD/svg11.dtd">
<svg version="1.1" id="art" xmlns="http://www.w3.org/2000/svg" xmlns:xlink="http://www.w3.org/1999/xlink" x="0px" y="0px"
	 width="912px" height="541px" viewBox="0 0 912 541" enable-background="new 0 0 912 541" xml:space="preserve">
<g>
	<g>
		<defs>
			<rect id="SVGID_1_" width="912" height="393.55"/>
		</defs>
		<clipPath id="SVGID_2_">
			<use xlink:href="#SVGID_1_"  overflow="visible"/>
		</clipPath>
		<line clip-path="url(#SVGID_2_)" fill="none" stroke="#F9A25E" stroke-width="3" x1="0" y1="392.05" x2="912" y2="392.05"/>
	</g>
</g>
<polygon fill="#F9A25E" points="115.028,282.773 115.722,282.773 115.722,277.727 117.25,277.727 117.25,277.126 115.722,277.126 
	115.722,274.773 115.028,274.773 115.028,277.126 113.5,277.126 113.5,277.727 115.028,277.727 "/>
<polygon fill="none" stroke="#F9A25E" points="115.028,282.773 115.722,282.773 115.722,277.727 117.25,277.727 117.25,277.126 
	115.722,277.126 115.722,274.773 115.028,274.773 115.028,277.126 113.5,277.126 113.5,277.727 115.028,277.727 "/>
<g>
	<g>
		<defs>
			<rect id="SVGID_3_" width="912" height="393.55"/>
		</defs>
		<clipPath id="SVGID_4_">
			<use xlink:href="#SVGID_3_"  overflow="visible"/>
		</clipPath>
		<path clip-path="url(#SVGID_4_)" fill="#FFFFFF" d="M140.019,290.643v-34c0-3-3-3-3-3h-44c-3,0-3,3-3,3v34c0,3,3,3,3,3h16.943
			l3.504,5.901c1.531,2.58,3.062,0,3.062,0l3.504-5.901h16.987C140.019,293.643,140.019,290.643,140.019,290.643"/>
	</g>
	<g>
		<defs>
			<rect id="SVGID_5_" width="912" height="393.55"/>
		</defs>
		<clipPath id="SVGID_6_">
			<use xlink:href="#SVGID_5_"  overflow="visible"/>
		</clipPath>
		<path clip-path="url(#SVGID_6_)" fill="none" stroke="#D1D3D4" d="M140.019,290.643v-34c0-3-3-3-3-3h-44c-3,0-3,3-3,3v34
			c0,3,3,3,3,3h16.943l3.504,5.901c1.531,2.58,3.062,0,3.062,0l3.504-5.901h16.987C140.019,293.643,140.019,290.643,140.019,290.643
			z"/>
	</g>
	<g>
		<defs>
			<rect id="SVGID_7_" width="912" height="393.55"/>
		</defs>
		<clipPath id="SVGID_8_">
			<use xlink:href="#SVGID_7_"  overflow="visible"/>
		</clipPath>
		<path clip-path="url(#SVGID_8_)" fill="#F9A25E" d="M130.077,277.464c-0.54,0-0.853-0.539-0.853-1.562
			c0-1.043,0.301-1.571,0.877-1.571c0.541,0,0.854,0.54,0.854,1.562C130.955,276.948,130.654,277.464,130.077,277.464
			 M128.183,275.893c0,1.428,0.707,2.267,1.907,2.267c1.2,0,1.919-0.839,1.919-2.267c0-1.453-0.707-2.257-1.907-2.257
			C128.902,273.636,128.183,274.464,128.183,275.893 M123.167,271.523c0,1.439,0.719,2.256,1.919,2.256
			c1.199,0,1.906-0.827,1.906-2.256c0-1.453-0.707-2.255-1.906-2.255C123.886,269.269,123.167,270.095,123.167,271.523
			 M125.073,273.098c-0.54,0-0.853-0.541-0.853-1.562c0-1.044,0.301-1.584,0.877-1.584c0.541,0,0.841,0.552,0.841,1.572
			C125.938,272.58,125.65,273.098,125.073,273.098 M125.494,278.158l5.005-8.89h-0.806l-5.004,8.89H125.494z M120.791,272.111
			c0,1.021-0.636,1.729-1.549,1.729c-1.032,0-1.632-0.66-1.632-1.729c0-1.045,0.624-1.705,1.656-1.705
			C120.155,270.406,120.791,271.066,120.791,272.111 M120.011,274.703l-2.473,3.229l1.056,0.539l1.513-2.125
			c1.152-1.619,2.027-2.781,2.027-4.224c0-1.705-1.127-2.854-2.844-2.854c-1.824,0-3.035,1.174-3.035,2.938
			c0,1.646,1.127,2.759,2.639,2.759C119.266,274.966,119.639,274.884,120.011,274.703 M113.123,277.283
			c0,0.42,0.336,0.756,0.767,0.756c0.432,0,0.768-0.336,0.768-0.756c0-0.432-0.336-0.778-0.768-0.778
			C113.458,276.505,113.123,276.854,113.123,277.283 M110.89,276.816h-3.263l1.092-1.262c1.308-1.5,2.159-2.568,2.159-3.912
			c0-1.464-1.019-2.375-2.675-2.375c-1.752,0-2.856,0.994-2.856,2.531h1.344c0.06-0.805,0.612-1.334,1.392-1.334
			c0.888,0,1.416,0.529,1.416,1.369c0,0.624-0.396,1.344-1.152,2.256l-3.204,3.84h5.747V276.816z M103.702,276.816h-3.262
			l1.091-1.262c1.308-1.5,2.159-2.568,2.159-3.912c0-1.464-1.019-2.375-2.674-2.375c-1.752,0-2.856,0.994-2.856,2.531h1.343
			c0.061-0.805,0.613-1.334,1.393-1.334c0.888,0,1.416,0.529,1.416,1.369c0,0.624-0.396,1.344-1.152,2.256l-3.204,3.84h5.746
			V276.816z"/>
	</g>
	<g>
		<defs>
			<rect id="SVGID_9_" width="912" height="393.55"/>
		</defs>
		<clipPath id="SVGID_10_">
			<use xlink:href="#SVGID_9_"  overflow="visible"/>
		</clipPath>
		<path clip-path="url(#SVGID_10_)" fill="#FFFFFF" d="M140.019,353.561v-33.998c0-3-3-3-3-3h-44c-3,0-3,3-3,3v33.998c0,3,3,3,3,3
			h16.943l3.504,5.903c1.531,2.58,3.062,0,3.062,0l3.504-5.903h16.987C140.019,356.561,140.019,353.561,140.019,353.561"/>
	</g>
	<g>
		<defs>
			<rect id="SVGID_11_" width="912" height="393.55"/>
		</defs>
		<clipPath id="SVGID_12_">
			<use xlink:href="#SVGID_11_"  overflow="visible"/>
		</clipPath>
		<path clip-path="url(#SVGID_12_)" fill="none" stroke="#D1D3D4" d="M140.019,353.561v-33.998c0-3-3-3-3-3h-44c-3,0-3,3-3,3v33.998
			c0,3,3,3,3,3h16.943l3.504,5.903c1.531,2.58,3.062,0,3.062,0l3.504-5.903h16.987C140.019,356.561,140.019,353.561,140.019,353.561
			z"/>
	</g>
	<g>
		<defs>
			<rect id="SVGID_13_" width="912" height="393.55"/>
		</defs>
		<clipPath id="SVGID_14_">
			<use xlink:href="#SVGID_13_"  overflow="visible"/>
		</clipPath>
		<path clip-path="url(#SVGID_14_)" fill="#F9A25E" d="M126.484,340.383c-0.541,0-0.854-0.54-0.854-1.56
			c0-1.046,0.3-1.573,0.877-1.573c0.54,0,0.854,0.54,0.854,1.562C127.361,339.867,127.061,340.383,126.484,340.383 M124.589,338.812
			c0,1.428,0.707,2.267,1.907,2.267c1.2,0,1.919-0.839,1.919-2.267c0-1.453-0.707-2.256-1.907-2.256
			C125.308,336.557,124.589,337.382,124.589,338.812 M119.573,334.443c0,1.438,0.719,2.256,1.919,2.256
			c1.2,0,1.907-0.828,1.907-2.256c0-1.453-0.707-2.256-1.907-2.256C120.292,332.188,119.573,333.016,119.573,334.443
			 M121.48,336.016c-0.541,0-0.853-0.539-0.853-1.561c0-1.045,0.3-1.585,0.877-1.585c0.54,0,0.841,0.552,0.841,1.573
			C122.345,335.499,122.056,336.016,121.48,336.016 M121.9,341.078l5.004-8.891h-0.806l-5.003,8.891H121.9z M114.039,338.225
			c0-1.021,0.637-1.719,1.549-1.719c1.032,0,1.633,0.648,1.633,1.719c0,1.043-0.613,1.702-1.645,1.702
			C114.688,339.927,114.039,339.268,114.039,338.225 M114.82,335.645l2.485-3.242l-1.069-0.538l-1.5,2.124
			c-1.152,1.619-2.027,2.783-2.027,4.224c0,1.704,1.114,2.867,2.831,2.867c1.825,0,3.035-1.175,3.035-2.938
			c0-1.646-1.127-2.771-2.639-2.771C115.564,335.367,115.192,335.463,114.82,335.645 M109.529,340.203
			c0,0.419,0.336,0.755,0.767,0.755c0.432,0,0.767-0.336,0.767-0.755c0-0.432-0.335-0.78-0.767-0.78
			C109.865,339.423,109.529,339.771,109.529,340.203 M102.677,338.799l-0.924,1.021c0.636,0.863,1.5,1.259,2.676,1.259
			c2.04,0,3.299-1.259,3.299-3.155c0-1.681-1.127-2.832-2.759-2.832c-0.444,0-0.876,0.098-1.332,0.288l0.504-1.896h3.215v-1.127
			h-4.055l-1.068,4.354l0.348,0.072c0.468-0.48,1.092-0.732,1.812-0.732c1.2,0,2.004,0.792,2.004,1.922
			c0,1.188-0.78,1.969-1.908,1.969C103.733,339.939,103.085,339.543,102.677,338.799"/>
	</g>
	<g>
		<defs>
			<rect id="SVGID_15_" width="912" height="393.55"/>
		</defs>
		<clipPath id="SVGID_16_">
			<use xlink:href="#SVGID_15_"  overflow="visible"/>
		</clipPath>
		<path clip-path="url(#SVGID_16_)" fill="#F9A25E" d="M115.375,40c11.046,0,20-8.954,20-20s-8.954-20-20-20s-20,8.954-20,20
			S104.329,40,115.375,40"/>
	</g>
	<g>
		<defs>
			<rect id="SVGID_17_" width="912" height="393.55"/>
		</defs>
		<clipPath id="SVGID_18_">
			<use xlink:href="#SVGID_17_"  overflow="visible"/>
		</clipPath>
		<path clip-path="url(#SVGID_18_)" fill="#F9A25E" d="M113.866,45.903c0,0,1.531,2.58,3.062,0l4.911-8.273
			c0,0,1.531-2.58-1.469-2.58h-9.946c0,0-3,0-1.468,2.58L113.866,45.903z"/>
	</g>
</g>
<polygon fill="#FFFFFF" points="116.411,27.447 116.411,14.275 115.468,14.275 113.081,16.329 113.081,17.457 115.468,15.348 
	115.468,27.447 "/>
<g>
	<g>
		<defs>
			<rect id="SVGID_19_" width="912" height="393.55"/>
		</defs>
		<clipPath id="SVGID_20_">
			<use xlink:href="#SVGID_19_"  overflow="visible"/>
		</clipPath>
		<path clip-path="url(#SVGID_20_)" fill="#F9A25E" d="M115.018,309.13c2.199,0,3.982-1.782,3.982-3.981
			c0-2.198-1.783-3.98-3.982-3.98c-2.199,0-3.982,1.782-3.982,3.98C111.036,307.348,112.819,309.13,115.018,309.13"/>
	</g>
	<g>
		<defs>
			<rect id="SVGID_21_" width="912" height="393.55"/>
		</defs>
		<clipPath id="SVGID_22_">
			<use xlink:href="#SVGID_21_"  overflow="visible"/>
		</clipPath>
		<path clip-path="url(#SVGID_22_)" fill="#808285" d="M115.018,372.05c2.199,0,3.982-1.782,3.982-3.981
			c0-2.198-1.783-3.981-3.982-3.981c-2.199,0-3.982,1.783-3.982,3.981C111.036,370.268,112.819,372.05,115.018,372.05"/>
	</g>
</g>
</svg>
