<?xml version="1.0" encoding="utf-8"?>
<!-- Generator: Adobe Illustrator 15.1.0, SVG Export Plug-In . SVG Version: 6.00 Build 0)  -->
<!DOCTYPE svg PUBLIC "-//W3C//DTD SVG 1.1//EN" "http://www.w3.org/Graphics/SVG/1.1/DTD/svg11.dtd">
<svg version="1.1" id="art" xmlns="http://www.w3.org/2000/svg" xmlns:xlink="http://www.w3.org/1999/xlink" x="0px" y="0px"
	 width="912px" height="541px" viewBox="0 0 912 541" enable-background="new 0 0 912 541" xml:space="preserve">
<g>
	<defs>
		<rect id="SVGID_1_" x="-9" width="930" height="540.832"/>
	</defs>
	<clipPath id="SVGID_2_">
		<use xlink:href="#SVGID_1_"  overflow="visible"/>
	</clipPath>
	<rect y="372.05" clip-path="url(#SVGID_2_)" fill="#F3E3D5" width="912" height="20"/>
	<rect y="52.05" clip-path="url(#SVGID_2_)" fill="#F3E3D5" width="912" height="40"/>
	<rect y="132.05" clip-path="url(#SVGID_2_)" fill="#F3E3D5" width="912" height="40"/>
	<rect y="212.05" clip-path="url(#SVGID_2_)" fill="#F3E3D5" width="912" height="40"/>
	<rect y="292.05" clip-path="url(#SVGID_2_)" fill="#F3E3D5" width="912" height="40"/>
	
		<line clip-path="url(#SVGID_2_)" fill="none" stroke="#D1D3D4" stroke-width="0.5" x1="374.25" y1="52.05" x2="374.25" y2="392.051"/>
	
		<line clip-path="url(#SVGID_2_)" fill="none" stroke="#D1D3D4" stroke-width="0.5" x1="319.75" y1="52.05" x2="319.75" y2="392.051"/>
	
		<line clip-path="url(#SVGID_2_)" fill="none" stroke="#D1D3D4" stroke-width="0.5" x1="210.75" y1="52.05" x2="210.75" y2="392.051"/>
	
		<line clip-path="url(#SVGID_2_)" fill="none" stroke="#D1D3D4" stroke-width="0.5" x1="156.25" y1="52.05" x2="156.25" y2="392.051"/>
	
		<line clip-path="url(#SVGID_2_)" fill="none" stroke="#D1D3D4" stroke-width="0.5" x1="755.75" y1="132.05" x2="755.75" y2="392.051"/>
	
		<line clip-path="url(#SVGID_2_)" fill="none" stroke="#D1D3D4" stroke-width="0.5" x1="646.75" y1="132.05" x2="646.75" y2="392.051"/>
	
		<line clip-path="url(#SVGID_2_)" fill="none" stroke="#D1D3D4" stroke-width="0.5" x1="537.75" y1="132.05" x2="537.75" y2="392.051"/>
	
		<line clip-path="url(#SVGID_2_)" fill="none" stroke="#D1D3D4" stroke-width="0.5" x1="101.75" y1="52.05" x2="101.75" y2="392.051"/>
	
		<line clip-path="url(#SVGID_2_)" fill="none" stroke="#6D6E71" stroke-dasharray="4,4" x1="265.505" y1="52.05" x2="265.505" y2="392.051"/>
	
		<line clip-path="url(#SVGID_2_)" fill="none" stroke="#6D6E71" stroke-dasharray="4,4" x1="810.25" y1="52.05" x2="810.25" y2="392.051"/>
	
		<line clip-path="url(#SVGID_2_)" fill="none" stroke="#6D6E71" stroke-dasharray="4,4" x1="115.375" y1="52.05" x2="115.375" y2="392.051"/>
	
		<line clip-path="url(#SVGID_2_)" fill="none" stroke="#6D6E71" stroke-dasharray="4,4" x1="428.877" y1="52.05" x2="428.877" y2="392.051"/>
	<g clip-path="url(#SVGID_2_)">
		<defs>
			<rect id="SVGID_3_" x="-9" width="930" height="540.832"/>
		</defs>
		<clipPath id="SVGID_4_">
			<use xlink:href="#SVGID_3_"  overflow="visible"/>
		</clipPath>
		<path clip-path="url(#SVGID_4_)" fill="#F9A25E" d="M47.072,187.117l0.432-0.832c-2.288-1.232-4.864-1.856-7.728-1.856
			c-2.96,0-5.504,0.576-7.76,1.856l0.384,0.832c2.272-1.152,4.64-1.648,7.376-1.648C42.592,185.469,44.96,185.965,47.072,187.117
			 M41.344,188.044c-1.888,0-2.96,0.88-2.96,2.336c0,1.456,1.072,2.352,2.96,2.352c1.888,0,2.96-0.896,2.96-2.352
			C44.304,188.925,43.232,188.044,41.344,188.044 M43.504,190.381c0,0.752-0.752,1.2-2.16,1.2c-1.408,0-2.16-0.448-2.16-1.2
			c0-0.784,0.72-1.2,2.16-1.2C42.752,189.181,43.504,189.628,43.504,190.381 M37.568,196.701c0,0.752-0.752,1.2-2.16,1.2
			c-1.408,0-2.176-0.448-2.176-1.2c0-0.784,0.736-1.2,2.176-1.2C36.816,195.5,37.568,195.949,37.568,196.701 M35.408,194.349
			c-1.888,0-2.96,0.896-2.96,2.352s1.072,2.352,2.96,2.352c1.888,0,2.944-0.896,2.944-2.352S37.296,194.349,35.408,194.349
			 M44.304,197.373v-0.976l-11.856-6.56v0.96L44.304,197.373z M47.072,200.044c-2.112,1.152-4.48,1.648-7.296,1.648
			c-2.736,0-5.104-0.496-7.376-1.648l-0.384,0.832c2.256,1.28,4.8,1.856,7.76,1.856c2.864,0,5.44-0.624,7.728-1.856L47.072,200.044z
			 M42.8,214.604c1.008-0.56,1.504-1.488,1.504-2.816c0-1.584-0.944-2.608-2.272-2.608c-1.168,0-1.68,0.688-2.128,2.08
			c-0.384,1.184-0.48,1.84-1.232,1.84c-0.624,0-1.072-0.496-1.072-1.216c0-0.752,0.368-1.344,1.024-1.632l-0.608-0.992
			c-0.912,0.384-1.424,1.312-1.424,2.544c0,1.52,0.912,2.528,2.16,2.528c1.408,0,1.712-1.056,2.32-2.816
			c0.256-0.752,0.544-1.12,1.088-1.12c0.624,0,1.072,0.528,1.072,1.344s-0.368,1.424-1.136,1.824L42.8,214.604z M37.856,217.725H44
			v-1.216h-6.144v-1.344h-1.008v1.344h-2.88v1.216h2.88v1.312h1.008V217.725z M44,226.749v-1.216h-3.696
			c-0.784,0-1.376,0-1.888-0.416c-0.496-0.4-0.768-1.024-0.768-1.744c0-1.28,0.704-1.904,2.144-1.904H44v-1.216h-4.864
			c-1.616,0-2.544,1.024-2.544,2.688c0,1.12,0.432,1.984,1.36,2.592h-1.104v1.216H44z M39.616,229.821v4.352
			c-1.216-0.128-1.968-1.008-1.968-2.176C37.648,230.701,38.352,229.9,39.616,229.821 M40.608,228.509h-0.24
			c-2.368,0-3.792,1.344-3.792,3.44c0,2.08,1.568,3.568,3.824,3.568c2.336,0,3.904-1.472,3.904-3.648
			c0-1.472-0.656-2.592-1.952-3.312l-0.624,0.928c1.04,0.592,1.552,1.36,1.552,2.32c0,1.376-1.008,2.368-2.56,2.368h-0.112V228.509z
			 M33.408,238.909c0.512,0,0.896-0.4,0.896-0.897c0-0.495-0.384-0.896-0.88-0.896c-0.496,0-0.912,0.401-0.912,0.896
			C32.512,238.509,32.912,238.909,33.408,238.909 M44,237.405h-7.152v1.216H44V237.405z M37.856,242.556H44v-1.216h-6.144v-1.344
			h-1.008v1.344h-2.88v1.216h2.88v1.312h1.008V242.556z M40.496,246.3c1.648,0,2.592,0.896,2.592,2.336
			c0,1.52-0.976,2.384-2.704,2.384c-1.632,0-2.576-0.864-2.576-2.336C37.808,247.308,38.832,246.3,40.496,246.3 M36.848,245.116
			v1.216h1.344c-1.056,0.544-1.6,1.424-1.6,2.624c0,2,1.456,3.36,3.856,3.36c2.336,0,3.856-1.376,3.856-3.424
			c0-1.104-0.56-2.016-1.6-2.592H44v-1.184H36.848z M38.864,258.332v-1.04c0-1.184-0.032-2.112-0.576-2.88
			c-0.512-0.72-1.456-1.168-2.576-1.168s-2.064,0.448-2.576,1.168c-0.544,0.768-0.576,1.712-0.576,2.88v2.4H44v-1.36H38.864z
			 M37.632,258.332h-3.824v-0.656c0-1.984,0.32-2.96,1.984-2.96c1.584,0,1.84,0.992,1.84,2.96V258.332z"/>
		<g clip-path="url(#SVGID_4_)">
			<g>
				<defs>
					<rect id="SVGID_5_" x="65.08" y="64.83" width="35.168" height="13.856"/>
				</defs>
				<clipPath id="SVGID_6_">
					<use xlink:href="#SVGID_5_"  overflow="visible"/>
				</clipPath>
				<path clip-path="url(#SVGID_6_)" fill="#F9A25E" d="M87.296,77.687c2.4,0,3.952-2.128,3.952-5.936s-1.536-5.92-3.984-5.92
					c-2.384,0-3.951,2.144-3.951,5.92S84.88,77.687,87.296,77.687 M87.28,76.566c-1.584,0-2.561-1.728-2.561-4.832
					c0-3.088,0.977-4.8,2.561-4.8c1.664,0,2.56,1.648,2.56,4.832C89.84,74.935,88.944,76.566,87.28,76.566 M77.937,66.871
					c1.248,0,2.016,0.72,2.016,1.904c0,1.152-0.736,1.856-2.048,1.856c-1.28,0-2-0.72-2-1.856
					C75.904,67.606,76.672,66.871,77.937,66.871 M77.92,76.583c-1.536,0-2.399-0.88-2.399-2.304c0-1.44,0.896-2.352,2.399-2.352
					s2.4,0.896,2.4,2.352C80.32,75.703,79.456,76.583,77.92,76.583 M76.432,71.334c-1.504,0.416-2.352,1.536-2.352,3.04
					c0,1.984,1.424,3.312,3.856,3.312c2.447,0,3.84-1.296,3.84-3.344c0-1.472-0.849-2.576-2.353-3.008
					c1.232-0.368,1.937-1.296,1.937-2.528c0-1.776-1.296-2.976-3.424-2.976c-2.097,0-3.44,1.232-3.44,2.864
					C74.496,70.055,75.152,70.935,76.432,71.334"/>
			</g>
		</g>
		<g clip-path="url(#SVGID_4_)">
			<g>
				<defs>
					<rect id="SVGID_7_" x="65.128" y="144.494" width="35.12" height="14.192"/>
				</defs>
				<clipPath id="SVGID_8_">
					<use xlink:href="#SVGID_7_"  overflow="visible"/>
				</clipPath>
				<path clip-path="url(#SVGID_8_)" fill="#F9A25E" d="M87.296,157.687c2.4,0,3.952-2.128,3.952-5.936s-1.536-5.92-3.984-5.92
					c-2.384,0-3.951,2.144-3.951,5.92S84.88,157.687,87.296,157.687 M87.28,156.566c-1.584,0-2.561-1.728-2.561-4.832
					c0-3.088,0.977-4.8,2.561-4.8c1.664,0,2.56,1.648,2.56,4.832C89.84,154.935,88.944,156.566,87.28,156.566 M75.536,154.055
					c0-1.504,0.928-2.544,2.288-2.544c1.52,0,2.432,0.976,2.432,2.528c0,1.52-0.943,2.512-2.352,2.512
					C76.464,156.55,75.536,155.606,75.536,154.055 M76.448,150.918l3.696-4.8l-1.185-0.624l-2.607,3.68
					c-1.265,1.792-2.225,3.12-2.225,4.768c0,2.24,1.408,3.744,3.504,3.744c2.496,0,4.032-1.488,4.032-3.776
					c0-2.096-1.408-3.536-3.456-3.536C77.568,150.375,77.008,150.55,76.448,150.918"/>
			</g>
		</g>
		<g clip-path="url(#SVGID_4_)">
			<g>
				<defs>
					<rect id="SVGID_9_" x="64.552" y="224.83" width="35.696" height="13.856"/>
				</defs>
				<clipPath id="SVGID_10_">
					<use xlink:href="#SVGID_9_"  overflow="visible"/>
				</clipPath>
				<path clip-path="url(#SVGID_10_)" fill="#F9A25E" d="M87.296,237.687c2.4,0,3.952-2.128,3.952-5.936s-1.536-5.92-3.984-5.92
					c-2.384,0-3.951,2.144-3.951,5.92S84.88,237.687,87.296,237.687 M87.28,236.566c-1.584,0-2.561-1.728-2.561-4.832
					c0-3.088,0.977-4.8,2.561-4.8c1.664,0,2.56,1.648,2.56,4.832C89.84,234.935,88.944,236.566,87.28,236.566 M78.912,237.382h1.344
					v-2.464H81.6v-1.104h-1.344v-7.984H79.68l-6.128,9.088h5.36V237.382z M78.912,233.814h-3.344l3.344-5.024V233.814z"/>
			</g>
		</g>
		<g clip-path="url(#SVGID_4_)">
			<g>
				<defs>
					<rect id="SVGID_11_" x="65.096" y="304.83" width="35.152" height="13.855"/>
				</defs>
				<clipPath id="SVGID_12_">
					<use xlink:href="#SVGID_11_"  overflow="visible"/>
				</clipPath>
				<path clip-path="url(#SVGID_12_)" fill="#F9A25E" d="M87.296,317.687c2.4,0,3.952-2.128,3.952-5.937
					c0-3.808-1.536-5.92-3.984-5.92c-2.384,0-3.951,2.145-3.951,5.92C83.312,315.526,84.88,317.687,87.296,317.687 M87.28,316.566
					c-1.584,0-2.561-1.729-2.561-4.832c0-3.088,0.977-4.8,2.561-4.8c1.664,0,2.56,1.647,2.56,4.832
					C89.84,314.935,88.944,316.566,87.28,316.566 M80.992,316.086h-4.336l1.792-1.936c1.84-2,2.896-3.504,2.896-5.152
					c0-1.968-1.312-3.168-3.552-3.168c-2.256,0-3.584,1.264-3.584,3.424c0,0.097,0.016,0.209,0.016,0.305h1.28v-0.128
					c0-1.521,0.8-2.353,2.24-2.353c1.376,0,2.256,0.848,2.256,2c0,1.488-1.424,3.008-3.488,5.44l-2.416,2.864h6.896V316.086z"/>
			</g>
		</g>
	</g>
	<polyline clip-path="url(#SVGID_2_)" fill="none" stroke="#F9A25E" stroke-width="2" points="101.751,392.136 115.876,294.714 
		129.001,254.762 156.251,223.004 183.501,189.198 210.751,175.881 238.001,166.661 265.506,144.124 292.5,148.222 319.75,152.32 
		374.25,166.661 429.378,163.588 496.999,165.637 537.749,171.783 598.999,181.003 646.75,178.954 755.75,184.076 810.75,183.052 	
		"/>
	<polyline clip-path="url(#SVGID_2_)" fill="none" stroke="#808285" stroke-width="2" points="101.755,392.149 115.88,366.426 
		129.005,360.278 156.255,338.758 183.504,317.236 210.754,326.461 238.004,319.287 265.509,316.211 292.503,320.311 
		319.753,305.963 374.253,330.559 429.379,335.683 537.751,334.658 646.75,337.732 755.749,332.608 810.749,335.683 	"/>
	<line clip-path="url(#SVGID_2_)" fill="none" stroke="#F9A25E" stroke-width="3" x1="0" y1="392.051" x2="912" y2="392.051"/>
	<g clip-path="url(#SVGID_2_)">
		<defs>
			<rect id="SVGID_13_" x="-9" width="930" height="540.832"/>
		</defs>
		<clipPath id="SVGID_14_">
			<use xlink:href="#SVGID_13_"  overflow="visible"/>
		</clipPath>
		<g clip-path="url(#SVGID_14_)">
			<g>
				<defs>
					<rect id="SVGID_15_" x="792.586" y="415.498" width="34.768" height="13.855"/>
				</defs>
				<clipPath id="SVGID_16_">
					<use xlink:href="#SVGID_15_"  overflow="visible"/>
				</clipPath>
				<path clip-path="url(#SVGID_16_)" fill="#F9A25E" d="M818.002,426.754h-4.336l1.792-1.936c1.84-2,2.896-3.504,2.896-5.152
					c0-1.968-1.312-3.168-3.552-3.168c-2.256,0-3.584,1.264-3.584,3.424c0,0.097,0.017,0.209,0.017,0.305h1.279v-0.128
					c0-1.521,0.801-2.353,2.24-2.353c1.376,0,2.256,0.848,2.256,2c0,1.488-1.424,3.008-3.488,5.44l-2.416,2.864h6.896V426.754z
					 M802.514,422.338c0.704-0.543,1.536-0.815,2.433-0.815c1.76,0,2.848,1.12,2.848,2.752c0,1.776-1.104,2.896-2.736,2.896
					c-1.12,0-2-0.56-2.512-1.615l-0.96,1.119c0.784,1.152,1.888,1.681,3.44,1.681c2.624,0,4.208-1.632,4.208-4.208
					c0-2.288-1.393-3.729-3.633-3.729c-0.64,0-1.231,0.129-1.775,0.416l0.72-2.943h4.096v-1.168h-5.023l-1.36,5.568L802.514,422.338
					z"/>
			</g>
		</g>
		<g clip-path="url(#SVGID_14_)">
			<g>
				<defs>
					<rect id="SVGID_17_" x="737.702" y="415.498" width="35.584" height="13.855"/>
				</defs>
				<clipPath id="SVGID_18_">
					<use xlink:href="#SVGID_17_"  overflow="visible"/>
				</clipPath>
				<path clip-path="url(#SVGID_18_)" fill="#F9A25E" d="M760.446,417.539c1.248,0,2.016,0.719,2.016,1.903
					c0,1.151-0.736,1.856-2.048,1.856c-1.28,0-2-0.721-2-1.856C758.414,418.274,759.182,417.539,760.446,417.539 M760.43,427.25
					c-1.535,0-2.399-0.879-2.399-2.304c0-1.44,0.896-2.353,2.399-2.353s2.4,0.896,2.4,2.353
					C762.83,426.371,761.966,427.25,760.43,427.25 M758.942,422.002c-1.504,0.416-2.353,1.537-2.353,3.041
					c0,1.983,1.424,3.312,3.856,3.312c2.448,0,3.84-1.296,3.84-3.345c0-1.471-0.848-2.575-2.353-3.008
					c1.232-0.367,1.937-1.295,1.937-2.527c0-1.776-1.296-2.977-3.424-2.977c-2.097,0-3.44,1.232-3.44,2.864
					C757.006,420.723,757.662,421.603,758.942,422.002 M752.062,428.051h1.344v-2.465h1.344v-1.104h-1.344v-7.984h-0.576
					l-6.128,9.088h5.36V428.051z M752.062,424.482h-3.345l3.345-5.023V424.482z"/>
			</g>
		</g>
		<g clip-path="url(#SVGID_14_)">
			<g>
				<defs>
					<rect id="SVGID_19_" x="628.702" y="415.498" width="35.696" height="13.855"/>
				</defs>
				<clipPath id="SVGID_20_">
					<use xlink:href="#SVGID_19_"  overflow="visible"/>
				</clipPath>
				<path clip-path="url(#SVGID_20_)" fill="#F9A25E" d="M651.446,428.354c2.399,0,3.952-2.128,3.952-5.937
					c0-3.808-1.536-5.92-3.984-5.92c-2.384,0-3.952,2.145-3.952,5.92C647.462,426.194,649.03,428.354,651.446,428.354
					 M651.43,427.234c-1.584,0-2.56-1.729-2.56-4.832c0-3.088,0.976-4.8,2.56-4.8c1.664,0,2.561,1.647,2.561,4.832
					C653.99,425.603,653.094,427.234,651.43,427.234 M643.062,428.051h1.344v-2.465h1.344v-1.104h-1.344v-7.984h-0.576l-6.128,9.088
					h5.36V428.051z M643.062,424.482h-3.345l3.345-5.023V424.482z"/>
			</g>
		</g>
		<g clip-path="url(#SVGID_14_)">
			<g>
				<defs>
					<rect id="SVGID_21_" x="520.23" y="415.498" width="34.623" height="13.855"/>
				</defs>
				<clipPath id="SVGID_22_">
					<use xlink:href="#SVGID_21_"  overflow="visible"/>
				</clipPath>
				<path clip-path="url(#SVGID_22_)" fill="#F9A25E" d="M545.502,426.754h-4.336l1.792-1.936c1.84-2,2.896-3.504,2.896-5.152
					c0-1.968-1.312-3.168-3.553-3.168c-2.256,0-3.584,1.264-3.584,3.424c0,0.097,0.017,0.209,0.017,0.305h1.279v-0.128
					c0-1.521,0.801-2.353,2.24-2.353c1.376,0,2.256,0.848,2.256,2c0,1.488-1.424,3.008-3.487,5.44l-2.416,2.864h6.896V426.754z
					 M529.23,425.154v0.208c0,1.808,1.344,2.992,3.472,2.992c2.432,0,3.84-1.28,3.84-3.328c0-1.552-0.815-2.592-2.176-2.815
					c1.28-0.336,2.032-1.312,2.032-2.672c0-1.856-1.297-3.041-3.425-3.041c-2.208,0-3.439,1.104-3.535,3.057h1.344
					c0.063-1.232,0.832-1.904,2.16-1.904c1.264,0,2.031,0.768,2.031,1.952c0,1.344-0.8,2.048-2.384,2.048
					c-0.128,0-0.24-0.016-0.368-0.016v1.119c0.145-0.016,0.272-0.016,0.4-0.016c1.648,0,2.496,0.768,2.496,2.24
					c0,1.393-0.848,2.208-2.368,2.208c-1.312,0-2.128-0.736-2.128-1.904v-0.128H529.23z"/>
			</g>
		</g>
		<g clip-path="url(#SVGID_14_)">
			<g>
				<defs>
					<rect id="SVGID_23_" x="411.246" y="415.498" width="34.864" height="13.552"/>
				</defs>
				<clipPath id="SVGID_24_">
					<use xlink:href="#SVGID_23_"  overflow="visible"/>
				</clipPath>
				<path clip-path="url(#SVGID_24_)" fill="#F9A25E" d="M434.422,428.051h1.344v-2.465h1.345v-1.104h-1.345v-7.984h-0.575
					l-6.128,9.088h5.359V428.051z M434.422,424.482h-3.344l3.344-5.023V424.482z M427.143,426.754h-4.337l1.792-1.936
					c1.841-2,2.896-3.504,2.896-5.152c0-1.968-1.312-3.168-3.552-3.168c-2.256,0-3.584,1.264-3.584,3.424
					c0,0.097,0.016,0.209,0.016,0.305h1.28v-0.128c0-1.521,0.8-2.353,2.24-2.353c1.376,0,2.256,0.848,2.256,2
					c0,1.488-1.424,3.008-3.488,5.44l-2.416,2.864h6.896V426.754z"/>
			</g>
		</g>
		<g clip-path="url(#SVGID_14_)">
			<g>
				<defs>
					<rect id="SVGID_25_" x="356.746" y="415.498" width="35.152" height="13.855"/>
				</defs>
				<clipPath id="SVGID_26_">
					<use xlink:href="#SVGID_25_"  overflow="visible"/>
				</clipPath>
				<path clip-path="url(#SVGID_26_)" fill="#F9A25E" d="M378.946,428.354c2.399,0,3.952-2.128,3.952-5.937
					c0-3.808-1.536-5.92-3.984-5.92c-2.384,0-3.952,2.145-3.952,5.92C374.962,426.194,376.53,428.354,378.946,428.354
					 M378.93,427.234c-1.584,0-2.56-1.729-2.56-4.832c0-3.088,0.976-4.8,2.56-4.8c1.664,0,2.561,1.647,2.561,4.832
					C381.49,425.603,380.594,427.234,378.93,427.234 M372.643,426.754h-4.337l1.792-1.936c1.841-2,2.896-3.504,2.896-5.152
					c0-1.968-1.312-3.168-3.552-3.168c-2.256,0-3.584,1.264-3.584,3.424c0,0.097,0.016,0.209,0.016,0.305h1.28v-0.128
					c0-1.521,0.8-2.353,2.24-2.353c1.376,0,2.256,0.848,2.256,2c0,1.488-1.424,3.008-3.488,5.44l-2.416,2.864h6.896V426.754z"/>
			</g>
		</g>
		<g clip-path="url(#SVGID_14_)">
			<g>
				<defs>
					<rect id="SVGID_27_" x="303.382" y="415.162" width="33.792" height="14.191"/>
				</defs>
				<clipPath id="SVGID_28_">
					<use xlink:href="#SVGID_27_"  overflow="visible"/>
				</clipPath>
				<path clip-path="url(#SVGID_28_)" fill="#F9A25E" d="M322.046,424.723c0-1.504,0.928-2.545,2.288-2.545
					c1.521,0,2.432,0.977,2.432,2.529c0,1.52-0.943,2.512-2.352,2.512C322.974,427.219,322.046,426.274,322.046,424.723
					 M322.958,421.586l3.696-4.799l-1.185-0.625l-2.607,3.68c-1.265,1.793-2.225,3.121-2.225,4.769c0,2.24,1.408,3.744,3.505,3.744
					c2.495,0,4.031-1.488,4.031-3.776c0-2.096-1.408-3.535-3.456-3.535C324.078,421.043,323.519,421.219,322.958,421.586
					 M314.718,428.051h1.328v-11.328h-2.896l-0.769,1.184h2.336V428.051z"/>
			</g>
		</g>
		<g clip-path="url(#SVGID_14_)">
			<g>
				<defs>
					<rect id="SVGID_29_" x="248.882" y="415.498" width="33.472" height="13.552"/>
				</defs>
				<clipPath id="SVGID_30_">
					<use xlink:href="#SVGID_29_"  overflow="visible"/>
				</clipPath>
				<path clip-path="url(#SVGID_30_)" fill="#F9A25E" d="M273.002,426.754h-4.336l1.792-1.936c1.84-2,2.896-3.504,2.896-5.152
					c0-1.968-1.312-3.168-3.553-3.168c-2.256,0-3.584,1.264-3.584,3.424c0,0.097,0.017,0.209,0.017,0.305h1.279v-0.128
					c0-1.521,0.801-2.353,2.24-2.353c1.376,0,2.256,0.848,2.256,2c0,1.488-1.424,3.008-3.487,5.44l-2.416,2.864h6.896V426.754z
					 M260.218,428.051h1.328v-11.328h-2.896l-0.769,1.184h2.336V428.051z"/>
			</g>
		</g>
		<g clip-path="url(#SVGID_14_)">
			<g>
				<defs>
					<rect id="SVGID_31_" x="197.91" y="415.498" width="25.696" height="13.855"/>
				</defs>
				<clipPath id="SVGID_32_">
					<use xlink:href="#SVGID_31_"  overflow="visible"/>
				</clipPath>
				<path clip-path="url(#SVGID_32_)" fill="#F9A25E" d="M210.766,417.539c1.248,0,2.017,0.719,2.017,1.903
					c0,1.151-0.736,1.856-2.048,1.856c-1.28,0-2-0.721-2-1.856C208.734,418.274,209.502,417.539,210.766,417.539 M210.75,427.25
					c-1.536,0-2.4-0.879-2.4-2.304c0-1.44,0.896-2.353,2.4-2.353s2.4,0.896,2.4,2.353C213.15,426.371,212.286,427.25,210.75,427.25
					 M209.262,422.002c-1.504,0.416-2.352,1.537-2.352,3.041c0,1.983,1.424,3.312,3.855,3.312c2.448,0,3.841-1.296,3.841-3.345
					c0-1.471-0.849-2.575-2.353-3.008c1.232-0.367,1.937-1.295,1.937-2.527c0-1.776-1.297-2.977-3.425-2.977
					c-2.096,0-3.439,1.232-3.439,2.864C207.326,420.723,207.982,421.603,209.262,422.002"/>
			</g>
		</g>
		<g clip-path="url(#SVGID_14_)">
			<g>
				<defs>
					<rect id="SVGID_33_" x="142.882" y="415.498" width="26.048" height="13.552"/>
				</defs>
				<clipPath id="SVGID_34_">
					<use xlink:href="#SVGID_33_"  overflow="visible"/>
				</clipPath>
				<path clip-path="url(#SVGID_34_)" fill="#F9A25E" d="M157.242,428.051h1.344v-2.465h1.344v-1.104h-1.344v-7.984h-0.576
					l-6.128,9.088h5.36V428.051z M157.242,424.482h-3.344l3.344-5.023V424.482z"/>
			</g>
		</g>
		<g clip-path="url(#SVGID_14_)">
			<g>
				<defs>
					<rect id="SVGID_35_" x="88.782" y="415.498" width="25.936" height="13.855"/>
				</defs>
				<clipPath id="SVGID_36_">
					<use xlink:href="#SVGID_35_"  overflow="visible"/>
				</clipPath>
				<path clip-path="url(#SVGID_36_)" fill="#F9A25E" d="M101.766,428.354c2.4,0,3.952-2.128,3.952-5.937
					c0-3.808-1.536-5.92-3.983-5.92c-2.385,0-3.952,2.145-3.952,5.92C97.782,426.194,99.35,428.354,101.766,428.354 M101.75,427.234
					c-1.584,0-2.56-1.729-2.56-4.832c0-3.088,0.976-4.8,2.56-4.8c1.664,0,2.56,1.647,2.56,4.832
					C104.31,425.603,103.414,427.234,101.75,427.234"/>
			</g>
		</g>
		<path clip-path="url(#SVGID_14_)" fill="#F9A25E" d="M472.552,478.851c0.561,1.008,1.488,1.504,2.816,1.504
			c1.584,0,2.608-0.944,2.608-2.272c0-1.168-0.688-1.68-2.08-2.128c-1.185-0.384-1.84-0.479-1.84-1.231
			c0-0.624,0.495-1.072,1.216-1.072c0.752,0,1.344,0.368,1.632,1.024l0.992-0.608c-0.385-0.912-1.312-1.424-2.544-1.424
			c-1.521,0-2.528,0.912-2.528,2.16c0,1.407,1.056,1.712,2.816,2.319c0.752,0.257,1.119,0.544,1.119,1.088
			c0,0.624-0.527,1.072-1.344,1.072c-0.815,0-1.424-0.368-1.824-1.136L472.552,478.851z M465.512,480.051h1.217l0.016-3.776
			l3.68,3.776h1.712l-3.888-3.872l3.568-3.28h-1.632l-3.44,3.248l-0.016-8.208h-1.217V480.051z M462.424,475.666h-4.352
			c0.128-1.216,1.008-1.968,2.176-1.968C461.544,473.698,462.344,474.402,462.424,475.666 M463.736,476.658v-0.24
			c0-2.367-1.344-3.792-3.44-3.792c-2.08,0-3.567,1.568-3.567,3.824c0,2.336,1.472,3.904,3.647,3.904
			c1.473,0,2.592-0.656,3.312-1.952l-0.929-0.624c-0.592,1.04-1.359,1.552-2.319,1.552c-1.376,0-2.368-1.008-2.368-2.56v-0.112
			H463.736z M454.28,475.666h-4.353c0.129-1.216,1.009-1.968,2.177-1.968C453.4,473.698,454.2,474.402,454.28,475.666
			 M455.592,476.658v-0.24c0-2.367-1.344-3.792-3.439-3.792c-2.08,0-3.568,1.568-3.568,3.824c0,2.336,1.473,3.904,3.648,3.904
			c1.472,0,2.592-0.656,3.312-1.952l-0.928-0.624c-0.592,1.04-1.36,1.552-2.32,1.552c-1.376,0-2.368-1.008-2.368-2.56v-0.112
			H455.592z M433.32,468.61l4.432,11.888l2.977-8.848l2.991,8.848l4.433-11.888h-1.473l-2.911,8.416l-3.057-8.864l-3.023,8.864
			l-2.896-8.416H433.32z"/>
		<path clip-path="url(#SVGID_14_)" fill="#808285" d="M220.339,533.97v0.114c0,0.989,0.734,1.635,1.897,1.635
			c1.33,0,2.098-0.699,2.098-1.818c0-0.849-0.445-1.417-1.188-1.539c0.698-0.184,1.109-0.718,1.109-1.46
			c0-1.016-0.708-1.661-1.871-1.661c-1.207,0-1.88,0.602-1.933,1.669h0.735c0.034-0.673,0.455-1.041,1.181-1.041
			c0.69,0,1.11,0.42,1.11,1.067c0,0.735-0.438,1.12-1.304,1.12c-0.069,0-0.131-0.009-0.201-0.009v0.611
			c0.079-0.009,0.149-0.009,0.22-0.009c0.899,0,1.363,0.42,1.363,1.225c0,0.761-0.464,1.207-1.294,1.207
			c-0.717,0-1.163-0.402-1.163-1.041v-0.07H220.339z M212.748,540.547h1.138v-3.464c0-0.735,0-1.29,0.392-1.771
			c0.375-0.465,0.96-0.72,1.635-0.72c1.201,0,1.786,0.66,1.786,2.011v3.944h1.138v-4.559c0-1.517-0.958-2.385-2.518-2.385
			c-1.051,0-1.861,0.404-2.433,1.273v-1.033h-1.138V540.547z M204.962,537.218c0-1.425,1.08-2.536,2.432-2.536
			c1.335,0,2.416,1.111,2.416,2.536c0,1.426-1.081,2.536-2.416,2.536C206.057,539.754,204.962,538.644,204.962,537.218
			 M203.749,537.218c0,0.976,0.359,1.846,1.063,2.551c0.689,0.689,1.59,1.063,2.581,1.063c0.975,0,1.875-0.389,2.579-1.078
			c0.689-0.675,1.064-1.561,1.064-2.536c0-0.975-0.375-1.876-1.064-2.551c-0.704-0.689-1.59-1.063-2.579-1.063
			c-0.991,0-1.892,0.359-2.581,1.049C204.108,535.342,203.749,536.243,203.749,537.218 M200.524,530.618
			c0,0.479,0.375,0.839,0.839,0.839s0.839-0.359,0.839-0.824c0-0.464-0.375-0.854-0.839-0.854S200.524,530.154,200.524,530.618
			 M200.794,540.547h1.138v-6.703h-1.138V540.547z M197.104,534.787v5.76h1.138v-5.76h1.26v-0.943h-1.26v-2.7h-1.138v2.7h-1.23
			v0.943H197.104z M193.594,537.263c0,1.546-0.84,2.432-2.19,2.432c-1.425,0-2.236-0.915-2.236-2.536
			c0-1.53,0.812-2.416,2.191-2.416C192.649,534.742,193.594,535.703,193.594,537.263 M194.702,533.844h-1.138v1.258
			c-0.511-0.989-1.335-1.498-2.461-1.498c-1.876,0-3.149,1.363-3.149,3.614c0,2.191,1.288,3.614,3.209,3.614
			c1.036,0,1.891-0.523,2.431-1.498v1.213h1.108V533.844z M185.149,540.547h1.138v-4.559c0-1.517-0.898-2.385-2.383-2.385
			c-1.021,0-1.801,0.435-2.386,1.363c-0.391-0.898-1.17-1.363-2.249-1.363c-1.007,0-1.771,0.419-2.312,1.273v-1.033h-1.138v6.703
			h1.138v-3.464c0-0.165-0.015-0.33-0.015-0.48c0-0.51,0.06-0.931,0.346-1.291c0.36-0.465,0.915-0.72,1.53-0.72
			c1.141,0,1.666,0.66,1.666,2.011v3.944h1.138v-3.464c0-0.15-0.015-0.285-0.015-0.42c0-0.555,0.074-0.977,0.36-1.352
			c0.36-0.465,0.9-0.72,1.516-0.72c1.141,0,1.666,0.66,1.666,2.011V540.547z M170.645,540.547h1.138v-3.269
			c0-1.757,0.6-2.626,1.814-2.626c0.21,0,0.45,0.045,0.705,0.135l0.391-1.033c-0.255-0.09-0.511-0.135-0.78-0.135
			c-1.02,0-1.65,0.479-2.249,1.618v-1.394h-1.019V540.547z M162.843,537.218c0-1.425,1.08-2.536,2.432-2.536
			c1.335,0,2.415,1.111,2.415,2.536c0,1.426-1.08,2.536-2.415,2.536C163.938,539.754,162.843,538.644,162.843,537.218
			 M161.629,537.218c0,0.976,0.36,1.846,1.064,2.551c0.689,0.689,1.59,1.063,2.581,1.063c0.975,0,1.875-0.389,2.58-1.078
			c0.688-0.675,1.063-1.561,1.063-2.536c0-0.975-0.375-1.876-1.063-2.551c-0.705-0.689-1.591-1.063-2.58-1.063
			c-0.991,0-1.892,0.359-2.581,1.049C161.989,535.342,161.629,536.243,161.629,537.218 M158.21,540.547h1.138v-5.76h1.785v-0.943
			h-1.785v-1.786c0-1.291,0.03-1.905,0.886-1.905c0.3,0,0.6,0.074,0.899,0.239v-1.183c-0.314-0.105-0.645-0.15-0.989-0.15
			c-1.604,0-1.934,0.839-1.934,2.85v1.936h-1.29v0.943h1.29V540.547z M149.63,540.547h1.139v-3.464c0-0.735,0-1.29,0.39-1.771
			c0.375-0.465,0.961-0.72,1.636-0.72c1.201,0,1.786,0.66,1.786,2.011v3.944h1.138v-4.559c0-1.517-0.958-2.385-2.519-2.385
			c-1.05,0-1.861,0.404-2.431,1.273v-1.033h-1.139V540.547z M145.955,540.547h1.273v-10.723h-1.273V540.547z M137.84,534.787v5.76
			h1.139v-5.76h1.26v-0.943h-1.26v-2.7h-1.139v2.7h-1.229v0.943H137.84z M136.144,538.959c-0.705,0.51-1.351,0.765-2.07,0.765
			c-1.396,0-2.4-1.08-2.4-2.431c0-1.591,1.021-2.581,2.49-2.581c0.66,0,1.29,0.21,1.86,0.585v-1.229
			c-0.615-0.3-1.335-0.465-2.085-0.465c-2.011,0-3.493,1.469-3.493,3.659c0,2.116,1.362,3.569,3.448,3.569
			c0.869,0,1.635-0.18,2.25-0.539V538.959z M123.919,533.844h-1.139v4.004c0,1.966,1.063,2.984,3.014,2.984
			c2.011,0,3.061-1.048,3.061-3.074v-3.914h-1.14v3.299c0,1.771-0.42,2.597-1.891,2.597c-1.47,0-1.905-0.825-1.905-2.597V533.844z
			 M119.495,537.233c0,1.591-0.87,2.49-2.25,2.49c-1.336,0-2.176-0.96-2.176-2.641c0-1.486,0.825-2.341,2.161-2.341
			C118.58,534.742,119.495,535.717,119.495,537.233 M120.604,529.194h-1.139v5.907c-0.511-0.988-1.336-1.498-2.445-1.498
			c-1.876,0-3.164,1.363-3.164,3.614c0,2.191,1.288,3.614,3.209,3.614c1.034,0,1.904-0.539,2.43-1.498v1.214h1.109V529.194z
			 M106.579,537.218c0-1.425,1.08-2.536,2.431-2.536c1.335,0,2.416,1.111,2.416,2.536c0,1.426-1.081,2.536-2.416,2.536
			C107.674,539.754,106.579,538.644,106.579,537.218 M105.366,537.218c0,0.976,0.358,1.846,1.062,2.551
			c0.69,0.689,1.591,1.063,2.581,1.063c0.976,0,1.876-0.389,2.581-1.078c0.688-0.675,1.063-1.561,1.063-2.536
			c0-0.975-0.375-1.876-1.063-2.551c-0.705-0.689-1.591-1.063-2.581-1.063s-1.891,0.359-2.581,1.049
			C105.725,535.342,105.366,536.243,105.366,537.218 M100.731,540.547h1.138v-3.269c0-1.757,0.6-2.626,1.815-2.626
			c0.21,0,0.449,0.045,0.704,0.135l0.391-1.033c-0.255-0.09-0.51-0.135-0.78-0.135c-1.02,0-1.65,0.479-2.25,1.618v-1.394h-1.018
			V540.547z M94.564,535.731h0.976c1.11,0,1.981-0.029,2.7-0.538c0.675-0.479,1.094-1.364,1.094-2.415s-0.419-1.937-1.094-2.415
			c-0.719-0.51-1.605-0.539-2.7-0.539h-2.249v10.723h1.273V535.731z M94.564,534.579v-3.587h0.614c1.861,0,2.777,0.3,2.777,1.86
			c0,1.486-0.931,1.727-2.777,1.727H94.564z"/>
		<path clip-path="url(#SVGID_14_)" fill="#808285" d="M783.101,519.233c0,1.59-0.87,2.491-2.25,2.491
			c-1.336,0-2.176-0.962-2.176-2.642c0-1.486,0.825-2.341,2.161-2.341C782.186,516.742,783.101,517.717,783.101,519.233
			 M784.21,511.194h-1.139v5.908c-0.511-0.989-1.335-1.498-2.446-1.498c-1.875,0-3.164,1.362-3.164,3.613
			c0,2.191,1.289,3.614,3.209,3.614c1.036,0,1.906-0.539,2.431-1.498v1.213h1.109V511.194z M775.092,518.439h-4.082
			c0.12-1.142,0.945-1.848,2.041-1.848C774.266,516.592,775.017,517.253,775.092,518.439 M776.32,519.367v-0.225
			c0-2.221-1.259-3.554-3.225-3.554c-1.951,0-3.344,1.469-3.344,3.583c0,2.191,1.378,3.66,3.419,3.66c1.38,0,2.43-0.614,3.104-1.829
			l-0.869-0.585c-0.555,0.976-1.275,1.456-2.176,1.456c-1.291,0-2.221-0.946-2.221-2.402v-0.104H776.32z M765.881,522.967
			l3.299-7.123h-1.29l-2.023,4.68l-2.011-4.68h-1.289L765.881,522.967z M755.89,519.218c0-1.426,1.081-2.535,2.432-2.535
			c1.335,0,2.416,1.109,2.416,2.535s-1.081,2.536-2.416,2.536C756.985,521.754,755.89,520.644,755.89,519.218 M754.677,519.218
			c0,0.976,0.359,1.847,1.063,2.552c0.689,0.688,1.591,1.062,2.581,1.062c0.975,0,1.876-0.389,2.581-1.078
			c0.688-0.675,1.062-1.561,1.062-2.536c0-0.975-0.374-1.876-1.062-2.551c-0.705-0.688-1.592-1.062-2.581-1.062
			c-0.99,0-1.892,0.358-2.581,1.048C755.036,517.342,754.677,518.243,754.677,519.218 M750.042,522.547h1.138v-3.269
			c0-1.756,0.601-2.626,1.815-2.626c0.21,0,0.45,0.045,0.705,0.135l0.39-1.033c-0.255-0.09-0.51-0.135-0.78-0.135
			c-1.02,0-1.649,0.479-2.25,1.618v-1.395h-1.018V522.547z M742.63,519.218c0-1.591,0.871-2.506,2.251-2.506
			c1.336,0,2.176,0.96,2.176,2.642c0,1.484-0.825,2.355-2.161,2.355C743.546,521.709,742.63,520.733,742.63,519.218
			 M741.521,525.802h1.139v-4.468c0.51,0.989,1.336,1.498,2.445,1.498c1.876,0,3.164-1.348,3.164-3.614
			c0-2.206-1.288-3.613-3.209-3.613c-1.035,0-1.921,0.523-2.445,1.498v-1.26h-1.094V525.802z M734.125,519.218
			c0-1.591,0.871-2.506,2.251-2.506c1.336,0,2.176,0.96,2.176,2.642c0,1.484-0.825,2.355-2.161,2.355
			C735.041,521.709,734.125,520.733,734.125,519.218 M733.017,525.802h1.139v-4.468c0.511,0.989,1.336,1.498,2.445,1.498
			c1.876,0,3.164-1.348,3.164-3.614c0-2.206-1.288-3.613-3.209-3.613c-1.035,0-1.92,0.523-2.445,1.498v-1.26h-1.094V525.802z
			 M727.226,514.223l1.71,3.946h-3.419L727.226,514.223z M727.226,511.404l-4.858,11.143h1.38l1.395-3.285h4.185l1.395,3.285h1.379
			L727.226,511.404z M714.566,513.005c0.675,0,0.989,0.175,0.989,0.64c0,0.455-0.306,0.604-0.971,0.604h-0.63v-1.243H714.566z
			 M714.681,512.613h-1.329v3.585h0.604v-1.559h0.761l0.753,1.559h0.672l-0.804-1.646c0.525-0.087,0.839-0.453,0.839-0.952
			C716.176,512.926,715.678,512.613,714.681,512.613 M717.366,514.476c0,0.742-0.289,1.416-0.806,1.924
			c-0.542,0.533-1.232,0.812-1.976,0.812c-0.718,0-1.408-0.279-1.933-0.812c-0.525-0.534-0.814-1.216-0.814-1.942
			c0-0.734,0.289-1.435,0.832-1.976c0.507-0.517,1.18-0.788,1.923-0.788c0.762,0,1.443,0.279,1.978,0.813
			C717.086,513.022,717.366,513.723,717.366,514.476 M714.593,511.318c-0.848,0-1.607,0.313-2.186,0.9
			c-0.612,0.612-0.944,1.407-0.944,2.238s0.323,1.609,0.918,2.204c0.604,0.604,1.382,0.935,2.212,0.935
			c0.823,0,1.609-0.331,2.23-0.935c0.596-0.577,0.908-1.347,0.908-2.204c0-0.839-0.312-1.626-0.899-2.212
			C716.228,511.642,715.451,511.318,714.593,511.318 M708.797,519.263c0,1.546-0.841,2.432-2.191,2.432
			c-1.426,0-2.235-0.916-2.235-2.536c0-1.531,0.81-2.416,2.19-2.416C707.851,516.742,708.797,517.702,708.797,519.263
			 M709.905,515.844h-1.139v1.259c-0.51-0.99-1.336-1.498-2.461-1.498c-1.876,0-3.148,1.362-3.148,3.613
			c0,2.191,1.288,3.614,3.209,3.614c1.034,0,1.891-0.523,2.431-1.498v1.213h1.108V515.844z M699.902,512.618
			c0,0.479,0.375,0.839,0.839,0.839s0.839-0.36,0.839-0.824c0-0.465-0.375-0.854-0.839-0.854S699.902,512.153,699.902,512.618
			 M700.172,522.547h1.138v-6.703h-1.138V522.547z M692.777,522.547h5.833v-1.003h-3.81l3.839-5.7h-5.623v1.003h3.6L692.777,522.547
			z M690.407,522.547h1.138v-4.56c0-1.516-0.898-2.383-2.384-2.383c-1.021,0-1.801,0.434-2.386,1.362
			c-0.39-0.898-1.169-1.362-2.25-1.362c-1.005,0-1.771,0.419-2.311,1.272v-1.034h-1.138v6.704h1.138v-3.464
			c0-0.165-0.015-0.33-0.015-0.479c0-0.512,0.06-0.932,0.345-1.291c0.361-0.466,0.916-0.721,1.531-0.721
			c1.141,0,1.666,0.66,1.666,2.012v3.943h1.138v-3.464c0-0.149-0.015-0.285-0.015-0.42c0-0.556,0.074-0.976,0.359-1.351
			c0.361-0.466,0.901-0.721,1.517-0.721c1.141,0,1.666,0.66,1.666,2.012V522.547z M677.312,512.618c0,0.479,0.375,0.839,0.839,0.839
			c0.465,0,0.84-0.36,0.84-0.824c0-0.465-0.375-0.854-0.84-0.854C677.687,511.779,677.312,512.153,677.312,512.618 M677.582,522.547
			h1.138v-6.703h-1.138V522.547z M675.54,514.387v-1.665c-1.11-0.764-2.25-1.152-3.525-1.152c-1.575,0-2.895,0.523-3.989,1.573
			c-1.123,1.095-1.679,2.431-1.679,4.096c0,1.905,0.854,3.525,2.413,4.605c0.93,0.645,2.025,0.988,3.165,0.988
			c1.305,0,2.55-0.404,3.615-1.168v-1.696c-0.976,1.142-2.16,1.696-3.51,1.696c-1.455,0-2.761-0.689-3.615-1.906
			c-0.495-0.705-0.735-1.545-0.735-2.535c0-1.26,0.405-2.311,1.23-3.165c0.795-0.825,1.935-1.306,3.06-1.306
			C673.365,512.752,674.505,513.262,675.54,514.387 M658.997,519.233c0,1.59-0.87,2.491-2.25,2.491
			c-1.336,0-2.176-0.962-2.176-2.642c0-1.486,0.824-2.341,2.16-2.341C658.082,516.742,658.997,517.717,658.997,519.233
			 M660.105,511.194h-1.139v5.908c-0.51-0.989-1.335-1.498-2.446-1.498c-1.875,0-3.164,1.362-3.164,3.613
			c0,2.191,1.289,3.614,3.21,3.614c1.035,0,1.905-0.539,2.431-1.498v1.213h1.108V511.194z M645.588,522.547h1.138v-3.464
			c0-0.735,0-1.291,0.391-1.771c0.375-0.466,0.96-0.721,1.636-0.721c1.2,0,1.786,0.66,1.786,2.012v3.943h1.138v-4.56
			c0-1.516-0.959-2.383-2.519-2.383c-1.052,0-1.861,0.403-2.432,1.272v-1.034h-1.138V522.547z M642.258,519.263
			c0,1.546-0.841,2.432-2.191,2.432c-1.426,0-2.235-0.916-2.235-2.536c0-1.531,0.81-2.416,2.19-2.416
			C641.312,516.742,642.258,517.702,642.258,519.263 M643.366,515.844h-1.139v1.259c-0.51-0.99-1.336-1.498-2.461-1.498
			c-1.876,0-3.148,1.362-3.148,3.613c0,2.191,1.288,3.614,3.209,3.614c1.035,0,1.891-0.523,2.431-1.498v1.213h1.108V515.844z
			 M632.563,516.845h-2.369l0.979-1.058c1.005-1.094,1.582-1.916,1.582-2.816c0-1.076-0.716-1.73-1.941-1.73
			c-1.233,0-1.958,0.688-1.958,1.871c0,0.052,0.009,0.113,0.009,0.165h0.698v-0.069c0-0.831,0.438-1.286,1.226-1.286
			c0.752,0,1.232,0.463,1.232,1.094c0,0.812-0.777,1.644-1.906,2.974l-1.32,1.563h3.769V516.845z M623.626,522.547h1.243v-10.618
			h-2.713l-0.721,1.108h2.19V522.547z M614.851,522.547h1.243v-10.618h-2.713l-0.72,1.108h2.189V522.547z M606.42,522.832
			c2.251,0,3.704-1.993,3.704-5.563c0-3.571-1.438-5.55-3.734-5.55c-2.235,0-3.704,2.009-3.704,5.55S604.154,522.832,606.42,522.832
			 M606.405,521.784c-1.485,0-2.401-1.621-2.401-4.531c0-2.896,0.916-4.501,2.401-4.501c1.561,0,2.4,1.545,2.4,4.531
			C608.806,520.253,607.966,521.784,606.405,521.784 M600.51,521.334h-4.064l1.681-1.815c1.725-1.875,2.713-3.286,2.713-4.829
			c0-1.848-1.228-2.971-3.329-2.971c-2.116,0-3.359,1.184-3.359,3.21c0,0.09,0.016,0.194,0.016,0.283h1.198v-0.119
			c0-1.425,0.751-2.206,2.101-2.206c1.291,0,2.116,0.797,2.116,1.877c0,1.394-1.335,2.819-3.271,5.1l-2.264,2.684h6.464V521.334z
			 M586.531,522.547h1.138v-11.353h-1.138V522.547z M583.142,519.263c0,1.546-0.841,2.432-2.19,2.432
			c-1.426,0-2.236-0.916-2.236-2.536c0-1.531,0.811-2.416,2.191-2.416C582.196,516.742,583.142,517.702,583.142,519.263
			 M584.25,515.844h-1.138v1.259c-0.512-0.99-1.337-1.498-2.462-1.498c-1.875,0-3.148,1.362-3.148,3.613
			c0,2.191,1.288,3.614,3.209,3.614c1.035,0,1.89-0.523,2.431-1.498v1.213h1.108V515.844z M570.032,516.787v5.76h1.138v-5.76h1.26
			v-0.943h-1.26v-2.699h-1.138v2.699h-1.23v0.943H570.032z M566.972,518.439h-4.082c0.12-1.142,0.946-1.848,2.041-1.848
			C566.146,516.592,566.896,517.253,566.972,518.439 M568.2,519.367v-0.225c0-2.221-1.259-3.554-3.225-3.554
			c-1.95,0-3.344,1.469-3.344,3.583c0,2.191,1.378,3.66,3.419,3.66c1.381,0,2.43-0.614,3.104-1.829l-0.869-0.585
			c-0.555,0.976-1.274,1.456-2.175,1.456c-1.29,0-2.222-0.946-2.222-2.402v-0.104H568.2z M550.247,522.547h5.653v-1.183h-4.381
			v-4.112h4.381v-1.183h-4.381v-3.077h4.381v-1.168h-5.653V522.547z M542.896,518.439h-4.082c0.12-1.142,0.946-1.848,2.041-1.848
			C542.072,516.592,542.822,517.253,542.896,518.439 M544.125,519.367v-0.225c0-2.221-1.258-3.554-3.225-3.554
			c-1.95,0-3.344,1.469-3.344,3.583c0,2.191,1.378,3.66,3.419,3.66c1.381,0,2.431-0.614,3.104-1.829l-0.868-0.585
			c-0.555,0.976-1.275,1.456-2.176,1.456c-1.29,0-2.222-0.946-2.222-2.402v-0.104H544.125z M529.862,522.547H531v-3.464
			c0-0.735,0-1.291,0.391-1.771c0.375-0.466,0.96-0.721,1.635-0.721c1.201,0,1.786,0.66,1.786,2.012v3.943h1.139v-4.56
			c0-1.516-0.958-2.383-2.519-2.383c-1.051,0-1.86,0.403-2.432,1.272v-1.034h-1.138V522.547z M522.076,519.218
			c0-1.426,1.08-2.535,2.431-2.535c1.335,0,2.416,1.109,2.416,2.535s-1.081,2.536-2.416,2.536
			C523.171,521.754,522.076,520.644,522.076,519.218 M520.863,519.218c0,0.976,0.358,1.847,1.062,2.552
			c0.69,0.688,1.59,1.062,2.581,1.062c0.975,0,1.875-0.389,2.58-1.078c0.688-0.675,1.063-1.561,1.063-2.536
			c0-0.975-0.375-1.876-1.063-2.551c-0.705-0.688-1.59-1.062-2.58-1.062c-0.991,0-1.891,0.358-2.581,1.048
			C521.222,517.342,520.863,518.243,520.863,519.218 M517.772,516.787v5.76h1.139v-5.76h1.26v-0.943h-1.26v-2.699h-1.139v2.699
			h-1.229v0.943H517.772z M510.857,521.424c0.524,0.944,1.394,1.408,2.64,1.408c1.484,0,2.443-0.883,2.443-2.129
			c0-1.095-0.644-1.575-1.948-1.995c-1.111-0.36-1.727-0.45-1.727-1.156c0-0.585,0.465-1.005,1.142-1.005
			c0.705,0,1.261,0.346,1.53,0.96l0.929-0.569c-0.359-0.854-1.229-1.333-2.385-1.333c-1.426,0-2.368,0.853-2.368,2.022
			c0,1.321,0.987,1.606,2.639,2.176c0.706,0.24,1.051,0.511,1.051,1.021c0,0.586-0.496,1.006-1.261,1.006
			c-0.767,0-1.336-0.345-1.71-1.066L510.857,521.424z M504.768,525.802h1.289l4.499-9.958h-1.26l-2.069,4.808l-1.948-4.808h-1.32
			l2.624,6.035L504.768,525.802z M502.158,518.439h-4.082c0.12-1.142,0.945-1.848,2.041-1.848
			C501.333,516.592,502.083,517.253,502.158,518.439 M503.386,519.367v-0.225c0-2.221-1.258-3.554-3.224-3.554
			c-1.951,0-3.344,1.469-3.344,3.583c0,2.191,1.378,3.66,3.419,3.66c1.381,0,2.43-0.614,3.104-1.829l-0.868-0.585
			c-0.555,0.976-1.274,1.456-2.176,1.456c-1.29,0-2.221-0.946-2.221-2.402v-0.104H503.386z M488.732,522.547h1.273v-5.773
			l4.815,5.773h1.649l-5.055-5.894l4.604-4.829h-1.529l-4.485,4.769v-4.769h-1.273V522.547z M479.628,524.679l0.84,0.328
			l1.798-3.885l-1.244-0.433L479.628,524.679z M476.015,517.552h0.725v-6.189h-1.581l-0.42,0.646h1.276V517.552z M469.292,512.692
			c1.17,0,1.89,0.675,1.89,1.786c0,1.08-0.689,1.74-1.92,1.74c-1.201,0-1.876-0.676-1.876-1.74
			C467.386,513.382,468.105,512.692,469.292,512.692 M469.277,521.799c-1.441,0-2.251-0.826-2.251-2.161
			c0-1.351,0.84-2.205,2.251-2.205c1.409,0,2.251,0.84,2.251,2.205C471.528,520.973,470.717,521.799,469.277,521.799
			 M467.881,516.878c-1.41,0.39-2.203,1.439-2.203,2.851c0,1.86,1.333,3.104,3.614,3.104c2.296,0,3.599-1.213,3.599-3.134
			c0-1.381-0.794-2.416-2.204-2.82c1.155-0.345,1.814-1.214,1.814-2.37c0-1.666-1.213-2.789-3.209-2.789
			c-1.966,0-3.226,1.153-3.226,2.685C466.066,515.679,466.681,516.503,467.881,516.878 M460.517,522.832
			c2.251,0,3.704-1.993,3.704-5.563c0-3.571-1.438-5.55-3.733-5.55c-2.236,0-3.704,2.009-3.704,5.55
			S458.251,522.832,460.517,522.832 M460.502,521.784c-1.486,0-2.401-1.621-2.401-4.531c0-2.896,0.915-4.501,2.401-4.501
			c1.56,0,2.401,1.545,2.401,4.531C462.903,520.253,462.062,521.784,460.502,521.784 M451.742,522.832
			c2.251,0,3.704-1.993,3.704-5.563c0-3.571-1.438-5.55-3.734-5.55c-2.236,0-3.704,2.009-3.704,5.55
			S449.476,522.832,451.742,522.832 M451.727,521.784c-1.485,0-2.4-1.621-2.4-4.531c0-2.896,0.915-4.501,2.4-4.501
			c1.561,0,2.401,1.545,2.401,4.531C454.128,520.253,453.287,521.784,451.727,521.784 M445.831,521.334h-4.065l1.682-1.815
			c1.725-1.875,2.714-3.286,2.714-4.829c0-1.848-1.229-2.971-3.329-2.971c-2.116,0-3.359,1.184-3.359,3.21
			c0,0.09,0.016,0.194,0.016,0.283h1.197v-0.119c0-1.425,0.75-2.206,2.102-2.206c1.29,0,2.116,0.797,2.116,1.877
			c0,1.394-1.337,2.819-3.272,5.1l-2.263,2.684h6.463V521.334z M431.853,522.547h1.139v-11.353h-1.139V522.547z M428.463,519.263
			c0,1.546-0.84,2.432-2.191,2.432c-1.425,0-2.235-0.916-2.235-2.536c0-1.531,0.811-2.416,2.19-2.416
			C427.518,516.742,428.463,517.702,428.463,519.263 M429.571,515.844h-1.139v1.259c-0.51-0.99-1.335-1.498-2.461-1.498
			c-1.876,0-3.148,1.362-3.148,3.613c0,2.191,1.288,3.614,3.209,3.614c1.036,0,1.891-0.523,2.431-1.498v1.213h1.108V515.844z
			 M415.353,516.787v5.76h1.14v-5.76h1.26v-0.943h-1.26v-2.699h-1.14v2.699h-1.229v0.943H415.353z M412.294,518.439h-4.082
			c0.12-1.142,0.945-1.848,2.041-1.848C411.468,516.592,412.218,517.253,412.294,518.439 M413.521,519.367v-0.225
			c0-2.221-1.259-3.554-3.224-3.554c-1.951,0-3.344,1.469-3.344,3.583c0,2.191,1.378,3.66,3.419,3.66c1.38,0,2.43-0.614,3.104-1.829
			l-0.869-0.585c-0.555,0.976-1.274,1.456-2.175,1.456c-1.291,0-2.221-0.946-2.221-2.402v-0.104H413.521z M395.569,522.547h5.652
			v-1.183h-4.38v-4.112h4.38v-1.183h-4.38v-3.077h4.38v-1.168h-5.652V522.547z M388.219,518.439h-4.082
			c0.12-1.142,0.945-1.848,2.041-1.848C387.393,516.592,388.144,517.253,388.219,518.439 M389.447,519.367v-0.225
			c0-2.221-1.259-3.554-3.225-3.554c-1.951,0-3.344,1.469-3.344,3.583c0,2.191,1.378,3.66,3.419,3.66c1.38,0,2.43-0.614,3.104-1.829
			l-0.869-0.585c-0.555,0.976-1.275,1.456-2.176,1.456c-1.291,0-2.221-0.946-2.221-2.402v-0.104H389.447z M375.184,522.547h1.139
			v-3.464c0-0.735,0-1.291,0.39-1.771c0.375-0.466,0.961-0.721,1.636-0.721c1.201,0,1.786,0.66,1.786,2.012v3.943h1.138v-4.56
			c0-1.516-0.958-2.383-2.519-2.383c-1.05,0-1.861,0.403-2.431,1.272v-1.034h-1.139V522.547z M367.396,519.218
			c0-1.426,1.081-2.535,2.432-2.535c1.336,0,2.416,1.109,2.416,2.535s-1.08,2.536-2.416,2.536
			C368.493,521.754,367.396,520.644,367.396,519.218 M366.184,519.218c0,0.976,0.36,1.847,1.063,2.552
			c0.689,0.688,1.591,1.062,2.581,1.062c0.976,0,1.876-0.389,2.581-1.078c0.688-0.675,1.062-1.561,1.062-2.536
			c0-0.975-0.374-1.876-1.062-2.551c-0.705-0.688-1.59-1.062-2.581-1.062c-0.99,0-1.892,0.358-2.581,1.048
			C366.544,517.342,366.184,518.243,366.184,519.218 M363.094,516.787v5.76h1.138v-5.76h1.261v-0.943h-1.261v-2.699h-1.138v2.699
			h-1.229v0.943H363.094z M356.179,521.424c0.525,0.944,1.395,1.408,2.64,1.408c1.485,0,2.443-0.883,2.443-2.129
			c0-1.095-0.643-1.575-1.948-1.995c-1.11-0.36-1.727-0.45-1.727-1.156c0-0.585,0.466-1.005,1.141-1.005
			c0.706,0,1.262,0.346,1.531,0.96l0.929-0.569c-0.359-0.854-1.229-1.333-2.385-1.333c-1.425,0-2.369,0.853-2.369,2.022
			c0,1.321,0.989,1.606,2.641,2.176c0.705,0.24,1.05,0.511,1.05,1.021c0,0.586-0.495,1.006-1.261,1.006s-1.335-0.345-1.71-1.066
			L356.179,521.424z M350.089,525.802h1.29l4.499-9.958h-1.26l-2.069,4.808l-1.95-4.808h-1.318l2.624,6.035L350.089,525.802z
			 M347.479,518.439h-4.082c0.12-1.142,0.945-1.848,2.041-1.848C346.654,516.592,347.405,517.253,347.479,518.439 M348.708,519.367
			v-0.225c0-2.221-1.258-3.554-3.224-3.554c-1.951,0-3.345,1.469-3.345,3.583c0,2.191,1.378,3.66,3.419,3.66
			c1.38,0,2.431-0.614,3.104-1.829l-0.869-0.585c-0.554,0.976-1.275,1.456-2.175,1.456c-1.291,0-2.222-0.946-2.222-2.402v-0.104
			H348.708z M334.055,522.547h1.273v-5.773l4.814,5.773h1.65l-5.055-5.894l4.604-4.829h-1.53l-4.484,4.769v-4.769h-1.273V522.547z
			 M326.27,522.547h1.139v-4.56c0-1.516-0.898-2.383-2.385-2.383c-1.02,0-1.801,0.434-2.386,1.362
			c-0.389-0.898-1.168-1.362-2.249-1.362c-1.005,0-1.771,0.419-2.311,1.272v-1.034h-1.139v6.704h1.139v-3.464
			c0-0.165-0.016-0.33-0.016-0.479c0-0.512,0.061-0.932,0.346-1.291c0.359-0.466,0.916-0.721,1.53-0.721
			c1.142,0,1.666,0.66,1.666,2.012v3.943h1.139v-3.464c0-0.149-0.016-0.285-0.016-0.42c0-0.556,0.075-0.976,0.36-1.351
			c0.36-0.466,0.901-0.721,1.516-0.721c1.142,0,1.666,0.66,1.666,2.012V522.547z M309.153,519.218c0-1.426,1.081-2.535,2.431-2.535
			c1.336,0,2.416,1.109,2.416,2.535s-1.08,2.536-2.416,2.536C310.249,521.754,309.153,520.644,309.153,519.218 M307.939,519.218
			c0,0.976,0.36,1.847,1.064,2.552c0.69,0.688,1.59,1.062,2.58,1.062c0.976,0,1.876-0.389,2.581-1.078
			c0.688-0.675,1.062-1.561,1.062-2.536c0-0.975-0.374-1.876-1.062-2.551c-0.705-0.688-1.59-1.062-2.581-1.062
			c-0.99,0-1.89,0.358-2.58,1.048C308.3,517.342,307.939,518.243,307.939,519.218 M303.305,522.547h1.139v-3.269
			c0-1.756,0.6-2.626,1.814-2.626c0.21,0,0.45,0.045,0.705,0.135l0.39-1.033c-0.255-0.09-0.51-0.135-0.779-0.135
			c-1.021,0-1.65,0.479-2.249,1.618v-1.395h-1.02V522.547z M299.33,522.547h1.139v-5.76h1.785v-0.943h-1.785v-1.785
			c0-1.291,0.03-1.906,0.885-1.906c0.301,0,0.601,0.075,0.9,0.24v-1.184c-0.315-0.104-0.645-0.149-0.99-0.149
			c-1.604,0-1.934,0.838-1.934,2.849v1.936h-1.29v0.943h1.29V522.547z M291.306,519.233c0,1.59-0.871,2.491-2.251,2.491
			c-1.336,0-2.176-0.962-2.176-2.642c0-1.486,0.825-2.341,2.161-2.341C290.39,516.742,291.306,517.717,291.306,519.233
			 M292.414,511.194h-1.139v5.908c-0.511-0.989-1.336-1.498-2.445-1.498c-1.876,0-3.164,1.362-3.164,3.613
			c0,2.191,1.288,3.614,3.209,3.614c1.035,0,1.905-0.539,2.431-1.498v1.213h1.108V511.194z M283.296,518.439h-4.082
			c0.12-1.142,0.945-1.848,2.041-1.848C282.47,516.592,283.221,517.253,283.296,518.439 M284.523,519.367v-0.225
			c0-2.221-1.258-3.554-3.224-3.554c-1.951,0-3.344,1.469-3.344,3.583c0,2.191,1.378,3.66,3.419,3.66c1.38,0,2.43-0.614,3.104-1.829
			l-0.868-0.585c-0.555,0.976-1.275,1.456-2.176,1.456c-1.291,0-2.221-0.946-2.221-2.402v-0.104H284.523z M274.911,516.787v5.76
			h1.138v-5.76h1.26v-0.943h-1.26v-2.699h-1.138v2.699h-1.23v0.943H274.911z M267.334,519.218c0-1.591,0.87-2.506,2.251-2.506
			c1.336,0,2.176,0.96,2.176,2.642c0,1.484-0.825,2.355-2.161,2.355C268.25,521.709,267.334,520.733,267.334,519.218
			 M266.226,525.802h1.139v-4.468c0.51,0.989,1.336,1.498,2.445,1.498c1.876,0,3.164-1.348,3.164-3.614
			c0-2.206-1.288-3.613-3.209-3.613c-1.035,0-1.921,0.523-2.445,1.498v-1.26h-1.094V525.802z M262.896,519.263
			c0,1.546-0.84,2.432-2.19,2.432c-1.425,0-2.236-0.916-2.236-2.536c0-1.531,0.812-2.416,2.191-2.416
			C261.951,516.742,262.896,517.702,262.896,519.263 M264.004,515.844h-1.138v1.259c-0.511-0.99-1.335-1.498-2.461-1.498
			c-1.876,0-3.149,1.362-3.149,3.613c0,2.191,1.288,3.614,3.209,3.614c1.036,0,1.891-0.523,2.431-1.498v1.213h1.108V515.844z
			 M254.391,519.233c0,1.59-0.87,2.491-2.251,2.491c-1.335,0-2.175-0.962-2.175-2.642c0-1.486,0.825-2.341,2.16-2.341
			C253.476,516.742,254.391,517.717,254.391,519.233 M255.5,511.194h-1.139v5.908c-0.511-0.989-1.336-1.498-2.446-1.498
			c-1.875,0-3.164,1.362-3.164,3.613c0,2.191,1.289,3.614,3.209,3.614c1.036,0,1.906-0.539,2.431-1.498v1.213h1.109V511.194z
			 M243.47,514.223l1.71,3.946h-3.419L243.47,514.223z M243.47,511.404l-4.858,11.143h1.38l1.395-3.285h4.185l1.395,3.285h1.38
			L243.47,511.404z M231.426,521.828c0,0.479,0.375,0.854,0.87,0.854c0.494,0,0.884-0.375,0.884-0.854
			c0-0.48-0.39-0.869-0.884-0.869C231.815,520.959,231.426,521.348,231.426,521.828 M223.475,519.218
			c0-1.426,1.08-2.535,2.432-2.535c1.335,0,2.416,1.109,2.416,2.535s-1.081,2.536-2.416,2.536
			C224.57,521.754,223.475,520.644,223.475,519.218 M222.262,519.218c0,0.976,0.359,1.847,1.063,2.552
			c0.689,0.688,1.59,1.062,2.581,1.062c0.975,0,1.875-0.389,2.58-1.078c0.688-0.675,1.063-1.561,1.063-2.536
			c0-0.975-0.375-1.876-1.063-2.551c-0.705-0.688-1.591-1.062-2.58-1.062c-0.991,0-1.892,0.358-2.581,1.048
			C222.621,517.342,222.262,518.243,222.262,519.218 M215.39,519.233c0-1.517,0.931-2.491,2.281-2.491
			c1.335,0,2.161,0.854,2.161,2.341c0,1.68-0.856,2.642-2.191,2.642C216.26,521.725,215.39,520.823,215.39,519.233 M214.297,511.194
			v11.353h1.093v-1.213c0.525,0.96,1.411,1.498,2.446,1.498c1.921,0,3.209-1.423,3.209-3.614c0-2.251-1.288-3.613-3.164-3.613
			c-1.11,0-1.936,0.509-2.446,1.498v-5.908H214.297z M211.417,518.439h-4.082c0.12-1.142,0.945-1.848,2.041-1.848
			C210.592,516.592,211.342,517.253,211.417,518.439 M212.645,519.367v-0.225c0-2.221-1.258-3.554-3.224-3.554
			c-1.951,0-3.344,1.469-3.344,3.583c0,2.191,1.378,3.66,3.419,3.66c1.381,0,2.43-0.614,3.104-1.829l-0.869-0.585
			c-0.554,0.976-1.274,1.456-2.175,1.456c-1.291,0-2.221-0.946-2.221-2.402v-0.104H212.645z M205.145,520.959
			c-0.705,0.51-1.35,0.766-2.069,0.766c-1.396,0-2.4-1.081-2.4-2.432c0-1.591,1.021-2.581,2.49-2.581c0.66,0,1.29,0.21,1.86,0.585
			v-1.229c-0.615-0.299-1.336-0.464-2.086-0.464c-2.01,0-3.492,1.468-3.492,3.658c0,2.116,1.362,3.569,3.447,3.569
			c0.87,0,1.636-0.18,2.25-0.539V520.959z M196.672,519.263c0,1.546-0.84,2.432-2.191,2.432c-1.425,0-2.235-0.916-2.235-2.536
			c0-1.531,0.811-2.416,2.19-2.416C195.727,516.742,196.672,517.702,196.672,519.263 M197.78,515.844h-1.139v1.259
			c-0.51-0.99-1.335-1.498-2.461-1.498c-1.876,0-3.148,1.362-3.148,3.613c0,2.191,1.288,3.614,3.209,3.614
			c1.036,0,1.891-0.523,2.431-1.498v1.213h1.108V515.844z M188.047,522.547h1.138v-11.353h-1.138V522.547z M180.591,519.218
			c0-1.591,0.87-2.506,2.251-2.506c1.335,0,2.176,0.96,2.176,2.642c0,1.484-0.826,2.355-2.161,2.355
			C181.506,521.709,180.591,520.733,180.591,519.218 M179.482,525.802h1.139v-4.468c0.51,0.989,1.335,1.498,2.445,1.498
			c1.877,0,3.164-1.348,3.164-3.614c0-2.206-1.287-3.613-3.209-3.613c-1.035,0-1.921,0.523-2.445,1.498v-1.26h-1.094V525.802z
			 M168.397,521.424c0.524,0.944,1.394,1.408,2.64,1.408c1.484,0,2.443-0.883,2.443-2.129c0-1.095-0.644-1.575-1.948-1.995
			c-1.111-0.36-1.727-0.45-1.727-1.156c0-0.585,0.465-1.005,1.142-1.005c0.705,0,1.261,0.346,1.529,0.96l0.93-0.569
			c-0.359-0.854-1.229-1.333-2.385-1.333c-1.426,0-2.368,0.853-2.368,2.022c0,1.321,0.987,1.606,2.639,2.176
			c0.705,0.24,1.051,0.511,1.051,1.021c0,0.586-0.496,1.006-1.261,1.006c-0.767,0-1.336-0.345-1.711-1.066L168.397,521.424z
			 M164.646,522.967l3.3-7.123h-1.29l-2.024,4.68l-2.01-4.68h-1.289L164.646,522.967z M152.243,522.547h1.243v-10.618h-2.714
			l-0.72,1.108h2.19V522.547z M143.812,522.832c2.251,0,3.704-1.993,3.704-5.563c0-3.571-1.438-5.55-3.733-5.55
			c-2.236,0-3.704,2.009-3.704,5.55S141.546,522.832,143.812,522.832 M143.797,521.784c-1.486,0-2.401-1.621-2.401-4.531
			c0-2.896,0.915-4.501,2.401-4.501c1.561,0,2.401,1.545,2.401,4.531C146.198,520.253,145.357,521.784,143.797,521.784
			 M135.037,522.832c2.251,0,3.704-1.993,3.704-5.563c0-3.571-1.438-5.55-3.734-5.55c-2.236,0-3.704,2.009-3.704,5.55
			S132.771,522.832,135.037,522.832 M135.021,521.784c-1.485,0-2.4-1.621-2.4-4.531c0-2.896,0.915-4.501,2.4-4.501
			c1.562,0,2.401,1.545,2.401,4.531C137.423,520.253,136.583,521.784,135.021,521.784 M127.583,521.828
			c0,0.479,0.375,0.854,0.869,0.854c0.495,0,0.884-0.375,0.884-0.854c0-0.48-0.389-0.869-0.884-0.869
			C127.973,520.959,127.583,521.348,127.583,521.828 M121.912,522.832c2.251,0,3.704-1.993,3.704-5.563
			c0-3.571-1.438-5.55-3.734-5.55c-2.236,0-3.704,2.009-3.704,5.55S119.646,522.832,121.912,522.832 M121.896,521.784
			c-1.484,0-2.4-1.621-2.4-4.531c0-2.896,0.916-4.501,2.4-4.501c1.562,0,2.401,1.545,2.401,4.531
			C124.298,520.253,123.458,521.784,121.896,521.784 M115.611,515.094v-0.93l-8.623,3.539v0.75l8.623,3.539v-0.945l-7.318-2.969
			L115.611,515.094z M98.827,519.218c0-1.591,0.87-2.506,2.25-2.506c1.336,0,2.176,0.96,2.176,2.642
			c0,1.484-0.825,2.355-2.161,2.355C99.742,521.709,98.827,520.733,98.827,519.218 M97.718,525.802h1.138v-4.468
			c0.512,0.989,1.337,1.498,2.447,1.498c1.875,0,3.163-1.348,3.163-3.614c0-2.206-1.288-3.613-3.209-3.613
			c-1.035,0-1.92,0.523-2.445,1.498v-1.26h-1.094V525.802z M93.942,519.45h0.706v-5.142h1.558v-0.611h-1.558v-2.396h-0.706v2.396
			h-1.558v0.611h1.558V519.45z"/>
	</g>
	<polygon clip-path="url(#SVGID_2_)" fill="#F9A25E" points="265.147,137.55 265.842,137.55 265.842,132.502 267.37,132.502 
		267.37,131.902 265.842,131.902 265.842,129.55 265.147,129.55 265.147,131.902 263.62,131.902 263.62,132.502 265.147,132.502 	
		"/>
	<polygon clip-path="url(#SVGID_2_)" fill="none" stroke="#F9A25E" points="265.147,137.55 265.842,137.55 265.842,132.502 
		267.37,132.502 267.37,131.902 265.842,131.902 265.842,129.55 265.147,129.55 265.147,131.902 263.62,131.902 263.62,132.502 
		265.147,132.502 	"/>
	<polygon clip-path="url(#SVGID_2_)" fill="#F9A25E" points="292.153,140.05 292.847,140.05 292.847,135.002 294.375,135.002 
		294.375,134.402 292.847,134.402 292.847,132.05 292.153,132.05 292.153,134.402 290.625,134.402 290.625,135.002 292.153,135.002 
			"/>
	<polygon clip-path="url(#SVGID_2_)" fill="none" stroke="#F9A25E" points="292.153,140.05 292.847,140.05 292.847,135.002 
		294.375,135.002 294.375,134.402 292.847,134.402 292.847,132.05 292.153,132.05 292.153,134.402 290.625,134.402 290.625,135.002 
		292.153,135.002 	"/>
	<polygon clip-path="url(#SVGID_2_)" fill="#F9A25E" points="319.653,146.25 320.347,146.25 320.347,141.202 321.875,141.202 
		321.875,140.602 320.347,140.602 320.347,138.25 319.653,138.25 319.653,140.602 318.125,140.602 318.125,141.202 319.653,141.202 
			"/>
	<polygon clip-path="url(#SVGID_2_)" fill="none" stroke="#F9A25E" points="319.653,146.25 320.347,146.25 320.347,141.202 
		321.875,141.202 321.875,140.602 320.347,140.602 320.347,138.25 319.653,138.25 319.653,140.602 318.125,140.602 318.125,141.202 
		319.653,141.202 	"/>
	<polygon clip-path="url(#SVGID_2_)" fill="#F9A25E" points="373.653,159.015 374.347,159.015 374.347,153.966 375.875,153.966 
		375.875,153.366 374.347,153.366 374.347,151.015 373.653,151.015 373.653,153.366 372.125,153.366 372.125,153.966 
		373.653,153.966 	"/>
	<polygon clip-path="url(#SVGID_2_)" fill="none" stroke="#F9A25E" points="373.653,159.015 374.347,159.015 374.347,153.966 
		375.875,153.966 375.875,153.366 374.347,153.366 374.347,151.015 373.653,151.015 373.653,153.366 372.125,153.366 
		372.125,153.966 373.653,153.966 	"/>
	<polygon clip-path="url(#SVGID_2_)" fill="#F9A25E" points="428.53,153.515 429.225,153.515 429.225,148.466 430.752,148.466 
		430.752,147.866 429.225,147.866 429.225,145.515 428.53,145.515 428.53,147.866 427.002,147.866 427.002,148.466 428.53,148.466 	
		"/>
	<polygon clip-path="url(#SVGID_2_)" fill="none" stroke="#F9A25E" points="428.53,153.515 429.225,153.515 429.225,148.466 
		430.752,148.466 430.752,147.866 429.225,147.866 429.225,145.515 428.53,145.515 428.53,147.866 427.002,147.866 427.002,148.466 
		428.53,148.466 	"/>
	<polygon clip-path="url(#SVGID_2_)" fill="#F9A25E" points="537.653,166.015 538.347,166.015 538.347,160.966 539.875,160.966 
		539.875,160.366 538.347,160.366 538.347,158.015 537.653,158.015 537.653,160.366 536.125,160.366 536.125,160.966 
		537.653,160.966 	"/>
	<polygon clip-path="url(#SVGID_2_)" fill="none" stroke="#F9A25E" points="537.653,166.015 538.347,166.015 538.347,160.966 
		539.875,160.966 539.875,160.366 538.347,160.366 538.347,158.015 537.653,158.015 537.653,160.366 536.125,160.366 
		536.125,160.966 537.653,160.966 	"/>
	<polygon clip-path="url(#SVGID_2_)" fill="#F9A25E" points="646.403,174.05 647.097,174.05 647.097,169.002 648.625,169.002 
		648.625,168.402 647.097,168.402 647.097,166.05 646.403,166.05 646.403,168.402 644.875,168.402 644.875,169.002 646.403,169.002 
			"/>
	<polygon clip-path="url(#SVGID_2_)" fill="none" stroke="#F9A25E" points="646.403,174.05 647.097,174.05 647.097,169.002 
		648.625,169.002 648.625,168.402 647.097,168.402 647.097,166.05 646.403,166.05 646.403,168.402 644.875,168.402 644.875,169.002 
		646.403,169.002 	"/>
	<polygon clip-path="url(#SVGID_2_)" fill="#F9A25E" points="755.403,177.05 756.097,177.05 756.097,172.002 757.625,172.002 
		757.625,171.402 756.097,171.402 756.097,169.05 755.403,169.05 755.403,171.402 753.875,171.402 753.875,172.002 755.403,172.002 
			"/>
	<polygon clip-path="url(#SVGID_2_)" fill="none" stroke="#F9A25E" points="755.403,177.05 756.097,177.05 756.097,172.002 
		757.625,172.002 757.625,171.402 756.097,171.402 756.097,169.05 755.403,169.05 755.403,171.402 753.875,171.402 753.875,172.002 
		755.403,172.002 	"/>
	<polygon clip-path="url(#SVGID_2_)" fill="#F9A25E" points="809.903,176.05 810.597,176.05 810.597,171.002 812.125,171.002 
		812.125,170.402 810.597,170.402 810.597,168.05 809.903,168.05 809.903,170.402 808.375,170.402 808.375,171.002 809.903,171.002 
			"/>
	<polygon clip-path="url(#SVGID_2_)" fill="none" stroke="#F9A25E" points="809.903,176.05 810.597,176.05 810.597,171.002 
		812.125,171.002 812.125,170.402 810.597,170.402 810.597,168.05 809.903,168.05 809.903,170.402 808.375,170.402 808.375,171.002 
		809.903,171.002 	"/>
	<polygon clip-path="url(#SVGID_2_)" fill="#F9A25E" points="115.028,282.775 115.722,282.775 115.722,277.727 117.25,277.727 
		117.25,277.127 115.722,277.127 115.722,274.775 115.028,274.775 115.028,277.127 113.5,277.127 113.5,277.727 115.028,277.727 	
		"/>
	<polygon clip-path="url(#SVGID_2_)" fill="none" stroke="#F9A25E" points="115.028,282.775 115.722,282.775 115.722,277.727 
		117.25,277.727 117.25,277.127 115.722,277.127 115.722,274.775 115.028,274.775 115.028,277.127 113.5,277.127 113.5,277.727 
		115.028,277.727 	"/>
	<polygon clip-path="url(#SVGID_2_)" fill="#F9A25E" points="128.652,245.05 129.347,245.05 129.347,240.002 130.875,240.002 
		130.875,239.402 129.347,239.402 129.347,237.05 128.652,237.05 128.652,239.402 127.125,239.402 127.125,240.002 128.652,240.002 
			"/>
	<polygon clip-path="url(#SVGID_2_)" fill="none" stroke="#F9A25E" points="128.652,245.05 129.347,245.05 129.347,240.002 
		130.875,240.002 130.875,239.402 129.347,239.402 129.347,237.05 128.652,237.05 128.652,239.402 127.125,239.402 127.125,240.002 
		128.652,240.002 	"/>
	<polygon clip-path="url(#SVGID_2_)" fill="#F9A25E" points="155.528,214.05 156.222,214.05 156.222,209.002 157.75,209.002 
		157.75,208.402 156.222,208.402 156.222,206.05 155.528,206.05 155.528,208.402 154,208.402 154,209.002 155.528,209.002 	"/>
	<polygon clip-path="url(#SVGID_2_)" fill="none" stroke="#F9A25E" points="155.528,214.05 156.222,214.05 156.222,209.002 
		157.75,209.002 157.75,208.402 156.222,208.402 156.222,206.05 155.528,206.05 155.528,208.402 154,208.402 154,209.002 
		155.528,209.002 	"/>
	<polygon clip-path="url(#SVGID_2_)" fill="#F9A25E" points="183.153,179.05 183.847,179.05 183.847,174.002 185.375,174.002 
		185.375,173.402 183.847,173.402 183.847,171.05 183.153,171.05 183.153,173.402 181.625,173.402 181.625,174.002 183.153,174.002 
			"/>
	<polygon clip-path="url(#SVGID_2_)" fill="none" stroke="#F9A25E" points="183.153,179.05 183.847,179.05 183.847,174.002 
		185.375,174.002 185.375,173.402 183.847,173.402 183.847,171.05 183.153,171.05 183.153,173.402 181.625,173.402 181.625,174.002 
		183.153,174.002 	"/>
	<polygon clip-path="url(#SVGID_2_)" fill="#F9A25E" points="210.153,166.05 210.847,166.05 210.847,161.002 212.375,161.002 
		212.375,160.402 210.847,160.402 210.847,158.05 210.153,158.05 210.153,160.402 208.625,160.402 208.625,161.002 210.153,161.002 
			"/>
	<polygon clip-path="url(#SVGID_2_)" fill="none" stroke="#F9A25E" points="210.153,166.05 210.847,166.05 210.847,161.002 
		212.375,161.002 212.375,160.402 210.847,160.402 210.847,158.05 210.153,158.05 210.153,160.402 208.625,160.402 208.625,161.002 
		210.153,161.002 	"/>
	<polygon clip-path="url(#SVGID_2_)" fill="#F9A25E" points="237.653,157.05 238.347,157.05 238.347,152.002 239.875,152.002 
		239.875,151.402 238.347,151.402 238.347,149.05 237.653,149.05 237.653,151.402 236.125,151.402 236.125,152.002 237.653,152.002 
			"/>
	<polygon clip-path="url(#SVGID_2_)" fill="none" stroke="#F9A25E" points="237.653,157.05 238.347,157.05 238.347,152.002 
		239.875,152.002 239.875,151.402 238.347,151.402 238.347,149.05 237.653,149.05 237.653,151.402 236.125,151.402 236.125,152.002 
		237.653,152.002 	"/>
	<g clip-path="url(#SVGID_2_)">
		<defs>
			<rect id="SVGID_37_" x="-9" width="930" height="540.832"/>
		</defs>
		<clipPath id="SVGID_38_">
			<use xlink:href="#SVGID_37_"  overflow="visible"/>
		</clipPath>
		<path clip-path="url(#SVGID_38_)" fill="#F9A25E" d="M773.241,80.455l0.832,0.432c1.232-2.288,1.856-4.864,1.856-7.728
			c0-2.96-0.576-5.504-1.856-7.76l-0.832,0.384c1.152,2.272,1.648,4.64,1.648,7.376C774.89,75.975,774.394,78.342,773.241,80.455
			 M764.139,74.486v0.208c0,1.808,1.344,2.992,3.471,2.992c2.434,0,3.841-1.28,3.841-3.328c0-1.552-0.816-2.592-2.177-2.816
			c1.281-0.336,2.032-1.312,2.032-2.672c0-1.856-1.296-3.04-3.424-3.04c-2.207,0-3.44,1.104-3.535,3.056h1.344
			c0.063-1.232,0.831-1.904,2.159-1.904c1.264,0,2.033,0.768,2.033,1.952c0,1.344-0.802,2.048-2.386,2.048
			c-0.127,0-0.238-0.016-0.367-0.016v1.12c0.144-0.016,0.271-0.016,0.399-0.016c1.648,0,2.497,0.768,2.497,2.24
			c0,1.392-0.849,2.208-2.369,2.208c-1.311,0-2.128-0.736-2.128-1.904v-0.128H764.139z M760.923,69.462
			c0,1.504-0.944,2.528-2.305,2.528c-1.52,0-2.416-0.976-2.416-2.528c0-1.52,0.944-2.512,2.353-2.512
			C759.994,66.95,760.923,67.911,760.923,69.462 M760.011,72.583l-3.696,4.816l1.184,0.608l2.608-3.68
			c1.264-1.792,2.208-3.104,2.208-4.752c0-2.24-1.408-3.744-3.504-3.744c-2.496,0-4.016,1.472-4.016,3.76
			c0,2.096,1.407,3.536,3.455,3.536C758.891,73.126,759.45,72.95,760.011,72.583 M745.418,74.486v0.208
			c0,1.808,1.345,2.992,3.473,2.992c2.432,0,3.84-1.28,3.84-3.328c0-1.552-0.816-2.592-2.176-2.816
			c1.279-0.336,2.032-1.312,2.032-2.672c0-1.856-1.297-3.04-3.425-3.04c-2.208,0-3.439,1.104-3.535,3.056h1.344
			c0.063-1.232,0.832-1.904,2.16-1.904c1.264,0,2.031,0.768,2.031,1.952c0,1.344-0.8,2.048-2.384,2.048
			c-0.128,0-0.24-0.016-0.368-0.016v1.12c0.145-0.016,0.272-0.016,0.4-0.016c1.647,0,2.496,0.768,2.496,2.24
			c0,1.392-0.849,2.208-2.368,2.208c-1.312,0-2.128-0.736-2.128-1.904v-0.128H745.418z M742.635,73.654h-9.36v0.912h9.36V73.654z
			 M742.635,70.663h-9.36v0.912h9.36V70.663z M723.706,77.382h1.217v-3.696c0-0.784,0-1.376,0.416-1.888
			c0.399-0.496,1.023-0.768,1.743-0.768c1.28,0,1.904,0.704,1.904,2.144v4.208h1.216v-4.864c0-1.616-1.023-2.544-2.688-2.544
			c-1.12,0-1.984,0.432-2.592,1.36V70.23h-1.217V77.382z M721.914,80.455c-1.151-2.112-1.647-4.48-1.647-7.296
			c0-2.736,0.496-5.104,1.647-7.376l-0.832-0.384c-1.279,2.256-1.855,4.8-1.855,7.76c0,2.864,0.624,5.44,1.855,7.728L721.914,80.455
			z M704.811,77.382h1.552l2.672-4.928l2.816,4.928h1.6l-3.647-5.952l3.248-5.488h-1.553l-2.367,4.352l-2.448-4.352h-1.632
			l3.279,5.36L704.811,77.382z M700.25,77.382h1.36V67.238h3.232v-1.296h-7.824v1.296h3.231V77.382z M690.25,77.831l3.536-8.224
			l1.456,7.776h1.328l-2.32-11.888l-4,9.456l-4-9.456l-2.319,11.888h1.328l1.439-7.776L690.25,77.831z M672.795,67.847h-0.928v4.304
			h-4.224v0.912h4.224v4.32h0.928v-4.32h4.209V72.15h-4.209V67.847z M646.38,65.942l4.432,11.888l2.976-8.848l2.992,8.848
			l4.433-11.888h-1.473l-2.912,8.416l-3.056-8.864l-3.024,8.864l-2.896-8.416H646.38z M644.924,76.086h-4.336l1.792-1.936
			c1.84-2,2.896-3.504,2.896-5.152c0-1.968-1.312-3.168-3.552-3.168c-2.256,0-3.584,1.264-3.584,3.424
			c0,0.096,0.016,0.208,0.016,0.304h1.28v-0.128c0-1.52,0.8-2.352,2.24-2.352c1.376,0,2.256,0.848,2.256,2
			c0,1.488-1.424,3.008-3.488,5.44l-2.416,2.864h6.896V76.086z M631.691,73.302h-1.68l2.336,2.528
			c-0.641,0.352-1.36,0.512-2.208,0.512c-0.977,0-1.872-0.288-2.608-0.816c-1.296-0.944-1.952-2.24-1.952-3.856
			c0-1.248,0.48-2.432,1.36-3.312s2.064-1.36,3.312-1.36c1.695,0,3.151,0.816,4.016,2.24c0.416,0.688,0.64,1.552,0.64,2.496
			c0,1.408-0.56,2.624-1.52,3.392L631.691,73.302z M636.508,78.486l-2.177-2.352c1.345-1.072,2.049-2.624,2.049-4.448
			c0-1.744-0.673-3.296-1.904-4.416c-1.152-1.04-2.592-1.584-4.224-1.584c-1.633,0-3.152,0.608-4.32,1.744
			c-1.152,1.136-1.792,2.64-1.792,4.24c0,1.984,0.848,3.664,2.448,4.848c0.991,0.736,2.176,1.12,3.472,1.12
			c1.264,0,2.336-0.256,3.248-0.784l1.52,1.632H636.508z M616.315,73.831c0,1.648-0.896,2.608-2.336,2.608
			c-1.521,0-2.384-0.976-2.384-2.704c0-1.632,0.863-2.576,2.336-2.576C615.308,71.158,616.315,72.167,616.315,73.831 M617.531,70.23
			h-1.248v1.328c-0.527-1.04-1.439-1.584-2.624-1.584c-2,0-3.359,1.424-3.359,3.808c0,2.32,1.376,3.824,3.424,3.824
			c1.104,0,2.032-0.56,2.592-1.584v1.2c0,0.656-0.032,1.184-0.304,1.632c-0.368,0.624-1.072,0.944-2.048,0.944
			c-1.376,0-2.128-0.624-2.128-1.68v-0.096h-1.377c0.049,1.792,1.297,2.848,3.488,2.848c1.265,0,2.225-0.368,2.88-1.072
			c0.672-0.72,0.704-1.52,0.704-2.544V70.23z M607.308,77.382h1.216v-4.864c0-1.616-0.96-2.544-2.544-2.544
			c-1.088,0-1.92,0.464-2.544,1.456c-0.416-0.96-1.248-1.456-2.4-1.456c-1.071,0-1.888,0.448-2.464,1.36V70.23h-1.216v7.152h1.216
			v-3.696c0-0.176-0.016-0.352-0.016-0.512c0-0.544,0.063-0.992,0.368-1.376c0.384-0.496,0.976-0.768,1.632-0.768
			c1.216,0,1.775,0.704,1.775,2.144v4.208h1.217v-3.696c0-0.16-0.017-0.304-0.017-0.448c0-0.592,0.08-1.04,0.384-1.44
			c0.385-0.496,0.96-0.768,1.616-0.768c1.216,0,1.776,0.704,1.776,2.144V77.382z M591.483,77.687c2.4,0,3.952-2.128,3.952-5.936
			s-1.536-5.92-3.984-5.92c-2.384,0-3.952,2.144-3.952,5.92S589.067,77.687,591.483,77.687 M591.468,76.566
			c-1.584,0-2.561-1.728-2.561-4.832c0-3.088,0.977-4.8,2.561-4.8c1.664,0,2.56,1.648,2.56,4.832
			C594.027,74.935,593.132,76.566,591.468,76.566 M582.123,77.687c2.4,0,3.952-2.128,3.952-5.936s-1.536-5.92-3.983-5.92
			c-2.385,0-3.952,2.144-3.952,5.92S579.707,77.687,582.123,77.687 M582.107,76.566c-1.584,0-2.56-1.728-2.56-4.832
			c0-3.088,0.976-4.8,2.56-4.8c1.664,0,2.561,1.648,2.561,4.832C584.668,74.935,583.771,76.566,582.107,76.566 M575.819,76.086
			h-4.336l1.792-1.936c1.84-2,2.896-3.504,2.896-5.152c0-1.968-1.312-3.168-3.553-3.168c-2.256,0-3.584,1.264-3.584,3.424
			c0,0.096,0.017,0.208,0.017,0.304h1.279v-0.128c0-1.52,0.801-2.352,2.24-2.352c1.376,0,2.256,0.848,2.256,2
			c0,1.488-1.424,3.008-3.487,5.44l-2.416,2.864h6.896V76.086z M561.083,73.878c0,1.648-0.896,2.592-2.336,2.592
			c-1.52,0-2.384-0.976-2.384-2.704c0-1.632,0.864-2.576,2.336-2.576C560.075,71.19,561.083,72.214,561.083,73.878 M562.268,70.23
			h-1.216v1.344c-0.544-1.056-1.425-1.6-2.624-1.6c-2,0-3.36,1.456-3.36,3.856c0,2.336,1.376,3.856,3.424,3.856
			c1.104,0,2.017-0.56,2.592-1.6v1.296h1.185V70.23z M551.597,66.791c0,0.512,0.399,0.896,0.896,0.896s0.896-0.384,0.896-0.88
			c0-0.496-0.4-0.912-0.896-0.912S551.597,66.294,551.597,66.791 M551.885,77.382h1.216V70.23h-1.216V77.382z M543.996,77.382h6.225
			v-1.072h-4.064l4.096-6.08h-6v1.072h3.841L543.996,77.382z M541.469,77.382h1.216v-4.864c0-1.616-0.96-2.544-2.544-2.544
			c-1.088,0-1.92,0.464-2.544,1.456c-0.416-0.96-1.248-1.456-2.4-1.456c-1.072,0-1.888,0.448-2.464,1.36V70.23h-1.216v7.152h1.216
			v-3.696c0-0.176-0.016-0.352-0.016-0.512c0-0.544,0.063-0.992,0.367-1.376c0.385-0.496,0.977-0.768,1.633-0.768
			c1.216,0,1.775,0.704,1.775,2.144v4.208h1.216v-3.696c0-0.16-0.016-0.304-0.016-0.448c0-0.592,0.08-1.04,0.384-1.44
			c0.385-0.496,0.96-0.768,1.616-0.768c1.216,0,1.776,0.704,1.776,2.144V77.382z M527.5,66.791c0,0.512,0.4,0.896,0.896,0.896
			s0.896-0.384,0.896-0.88c0-0.496-0.4-0.912-0.896-0.912S527.5,66.294,527.5,66.791 M527.788,77.382h1.217V70.23h-1.217V77.382z
			 M525.612,68.678v-1.776c-1.184-0.816-2.399-1.232-3.76-1.232c-1.68,0-3.088,0.56-4.256,1.68c-1.2,1.168-1.792,2.592-1.792,4.368
			c0,2.032,0.912,3.76,2.576,4.912c0.991,0.688,2.159,1.056,3.376,1.056c1.392,0,2.72-0.432,3.855-1.248V74.63
			c-1.04,1.216-2.304,1.808-3.744,1.808c-1.552,0-2.943-0.736-3.855-2.032c-0.528-0.752-0.784-1.648-0.784-2.704
			c0-1.344,0.432-2.464,1.312-3.376c0.849-0.88,2.064-1.392,3.265-1.392C523.293,66.935,524.509,67.479,525.612,68.678"/>
		<path clip-path="url(#SVGID_38_)" fill="#808285" d="M681.387,120.455l0.832,0.432c1.231-2.288,1.855-4.864,1.855-7.728
			c0-2.96-0.575-5.504-1.855-7.76l-0.832,0.384c1.152,2.272,1.647,4.64,1.647,7.376
			C683.034,115.975,682.539,118.342,681.387,120.455 M678.427,109.462c0,1.504-0.944,2.528-2.304,2.528
			c-1.521,0-2.416-0.976-2.416-2.528c0-1.52,0.943-2.512,2.352-2.512C677.499,106.95,678.427,107.911,678.427,109.462
			 M677.515,112.583l-3.696,4.816l1.185,0.608l2.607-3.68c1.265-1.792,2.208-3.104,2.208-4.752c0-2.24-1.408-3.744-3.504-3.744
			c-2.496,0-4.016,1.472-4.016,3.76c0,2.096,1.408,3.536,3.456,3.536C676.395,113.126,676.955,112.95,677.515,112.583
			 M669.066,109.462c0,1.504-0.943,2.528-2.304,2.528c-1.521,0-2.416-0.976-2.416-2.528c0-1.52,0.944-2.512,2.352-2.512
			C668.139,106.95,669.066,107.911,669.066,109.462 M668.154,112.583l-3.695,4.816l1.184,0.608l2.608-3.68
			c1.264-1.792,2.208-3.104,2.208-4.752c0-2.24-1.408-3.744-3.504-3.744c-2.496,0-4.017,1.472-4.017,3.76
			c0,2.096,1.408,3.536,3.456,3.536C667.034,113.126,667.595,112.95,668.154,112.583 M657.051,117.382h1.328v-11.328h-2.896
			l-0.768,1.184h2.336V117.382z M650.778,113.654h-9.359v0.912h9.359V113.654z M650.778,110.663h-9.359v0.912h9.359V110.663z
			 M631.851,117.382h1.216v-3.696c0-0.784,0-1.376,0.416-1.888c0.4-0.496,1.024-0.768,1.744-0.768c1.28,0,1.904,0.704,1.904,2.144
			v4.208h1.216v-4.864c0-1.616-1.024-2.544-2.688-2.544c-1.119,0-1.983,0.432-2.592,1.36v-1.104h-1.216V117.382z M630.059,120.455
			c-1.152-2.112-1.648-4.48-1.648-7.296c0-2.736,0.496-5.104,1.648-7.376l-0.832-0.384c-1.28,2.256-1.855,4.8-1.855,7.76
			c0,2.864,0.623,5.44,1.855,7.728L630.059,120.455z M612.955,117.382h1.552l2.672-4.928l2.815,4.928h1.601l-3.648-5.952
			l3.248-5.488h-1.552l-2.368,4.352l-2.448-4.352h-1.632l3.28,5.36L612.955,117.382z M608.396,117.382h1.36v-10.144h3.231v-1.296
			h-7.823v1.296h3.231V117.382z M598.396,117.831l3.536-8.224l1.456,7.776h1.328l-2.32-11.888l-4,9.456l-4-9.456l-2.32,11.888h1.328
			l1.44-7.776L598.396,117.831z M580.939,107.847h-0.928v4.304h-4.225v0.912h4.225v4.32h0.928v-4.32h4.208v-0.912h-4.208V107.847z
			 M562.107,113.831c0-1.52,1.152-2.704,2.592-2.704c1.425,0,2.576,1.184,2.576,2.704s-1.151,2.704-2.576,2.704
			C563.275,116.535,562.107,115.351,562.107,113.831 M560.812,113.831c0,1.04,0.384,1.968,1.136,2.72
			c0.736,0.736,1.696,1.136,2.752,1.136c1.04,0,2-0.416,2.752-1.152c0.736-0.72,1.137-1.664,1.137-2.704s-0.4-2-1.137-2.72
			c-0.752-0.736-1.695-1.136-2.752-1.136c-1.056,0-2.016,0.384-2.752,1.12C561.195,111.831,560.812,112.791,560.812,113.831
			 M553.483,113.847c0-1.616,0.992-2.656,2.433-2.656c1.424,0,2.304,0.912,2.304,2.496c0,1.792-0.912,2.816-2.336,2.816
			C554.412,116.502,553.483,115.542,553.483,113.847 M552.315,105.271v12.112h1.168v-1.296c0.561,1.024,1.504,1.6,2.608,1.6
			c2.048,0,3.424-1.52,3.424-3.856c0-2.4-1.376-3.856-3.376-3.856c-1.184,0-2.064,0.544-2.608,1.6v-6.304H552.315z M549.243,112.999
			h-4.352c0.128-1.216,1.008-1.968,2.176-1.968C548.363,111.03,549.164,111.734,549.243,112.999 M550.556,113.99v-0.24
			c0-2.368-1.344-3.792-3.44-3.792c-2.08,0-3.567,1.568-3.567,3.824c0,2.336,1.472,3.904,3.647,3.904
			c1.473,0,2.592-0.656,3.312-1.952l-0.928-0.624c-0.593,1.04-1.36,1.552-2.32,1.552c-1.376,0-2.368-1.008-2.368-2.56v-0.112
			H550.556z M542.556,115.687c-0.751,0.544-1.439,0.816-2.207,0.816c-1.489,0-2.56-1.152-2.56-2.592
			c0-1.696,1.087-2.752,2.654-2.752c0.705,0,1.377,0.224,1.984,0.624v-1.312c-0.656-0.32-1.424-0.496-2.225-0.496
			c-2.144,0-3.727,1.568-3.727,3.904c0,2.256,1.456,3.808,3.68,3.808c0.928,0,1.744-0.192,2.399-0.576V115.687z M533.517,113.878
			c0,1.648-0.896,2.592-2.336,2.592c-1.521,0-2.384-0.976-2.384-2.704c0-1.632,0.863-2.576,2.336-2.576
			C532.509,111.19,533.517,112.214,533.517,113.878 M534.7,110.23h-1.216v1.344c-0.544-1.056-1.424-1.6-2.624-1.6
			c-2,0-3.359,1.456-3.359,3.856c0,2.336,1.376,3.856,3.424,3.856c1.104,0,2.016-0.56,2.592-1.6v1.296h1.184V110.23z
			 M524.316,117.382h1.216v-12.112h-1.216V117.382z M517.692,112.247h1.04c1.185,0,2.112-0.032,2.88-0.576
			c0.721-0.512,1.168-1.456,1.168-2.576c0-1.12-0.447-2.064-1.168-2.576c-0.768-0.544-1.712-0.576-2.88-0.576h-2.399v11.44h1.359
			V112.247z M517.692,111.015v-3.824h0.656c1.984,0,2.96,0.32,2.96,1.984c0,1.584-0.992,1.84-2.96,1.84H517.692z"/>
		<path clip-path="url(#SVGID_38_)" fill="#F9A25E" d="M273.209,27.448v-0.833h-5.846l4.938-6.456
			c0.666-0.87,0.907-1.554,0.907-2.535c0-2.09-1.369-3.459-3.478-3.459c-2.184,0-3.479,1.498-3.479,3.459h0.943
			c0-1.85,1.166-2.627,2.535-2.627c1.591,0,2.533,1.055,2.533,2.627c0,0.759-0.222,1.388-0.739,2.054l-5.291,6.937v0.833H273.209z
			 M261.369,27.448V14.276h-0.943l-2.387,2.053v1.129l2.387-2.109v12.099H261.369z"/>
		<path clip-path="url(#SVGID_38_)" fill="#F9A25E" d="M437.243,25.283v-0.832h-1.758V20.27h-0.942v4.181h-4.219l4.848-10.175
			h-0.999l-4.848,10.175v0.832h5.218v2.165h0.942v-2.165H437.243z M427.513,27.448v-0.833h-5.846l4.939-6.456
			c0.666-0.87,0.906-1.554,0.906-2.535c0-2.09-1.369-3.459-3.479-3.459c-2.183,0-3.478,1.498-3.478,3.459h0.944
			c0-1.85,1.165-2.627,2.533-2.627c1.592,0,2.535,1.055,2.535,2.627c0,0.759-0.222,1.388-0.739,2.054l-5.291,6.937v0.833H427.513z"
			/>
		<path clip-path="url(#SVGID_38_)" fill="#F9A25E" d="M818.464,27.448v-0.833h-5.846l4.938-6.456
			c0.666-0.87,0.907-1.554,0.907-2.535c0-2.09-1.369-3.459-3.478-3.459c-2.184,0-3.479,1.498-3.479,3.459h0.943
			c0-1.85,1.166-2.627,2.535-2.627c1.591,0,2.534,1.054,2.534,2.627c0,0.759-0.223,1.388-0.74,2.054l-5.291,6.937v0.833H818.464z
			 M809.177,23.137c0-1.24-0.147-2.627-1.072-3.552c-0.519-0.518-1.276-0.795-2.221-0.795c-1.072,0-1.924,0.314-2.497,0.98v-4.662
			h5.494v-0.832h-6.327v6.733h0.833c0.277-0.888,1.185-1.387,2.387-1.387c2.164,0,2.461,1.869,2.461,3.515
			c0,0.981-0.02,2.165-0.796,2.942c-0.426,0.425-1.092,0.666-1.813,0.666c-1.535,0-2.294-0.796-2.479-2.202h-0.943
			c0.074,0.944,0.388,1.646,0.888,2.146c0.573,0.592,1.461,0.888,2.534,0.888c1.092,0,1.924-0.333,2.535-0.943
			C809.104,25.69,809.177,24.396,809.177,23.137"/>
	</g>
	
		<line clip-path="url(#SVGID_2_)" fill="none" stroke="#F9A25E" stroke-width="2" x1="455.765" y1="72.05" x2="500.765" y2="72.05"/>
	
		<line clip-path="url(#SVGID_2_)" fill="none" stroke="#808285" stroke-width="2" x1="455.765" y1="112.05" x2="500.765" y2="112.05"/>
	<g clip-path="url(#SVGID_2_)">
		<defs>
			<rect id="SVGID_39_" x="-9" width="930" height="540.832"/>
		</defs>
		<clipPath id="SVGID_40_">
			<use xlink:href="#SVGID_39_"  overflow="visible"/>
		</clipPath>
		<path clip-path="url(#SVGID_40_)" fill="#FFFFFF" d="M115.375,40c11.046,0,20-8.954,20-20c0-11.046-8.954-20-20-20
			s-20,8.954-20,20C95.375,31.046,104.329,40,115.375,40"/>
		<path clip-path="url(#SVGID_40_)" fill="#FFFFFF" d="M113.866,45.904c0,0,1.531,2.58,3.062,0l4.911-8.273
			c0,0,1.531-2.58-1.469-2.58h-9.946c0,0-3,0-1.468,2.58L113.866,45.904z"/>
	</g>
	<polygon clip-path="url(#SVGID_2_)" fill="#F9A25E" points="116.411,27.448 116.411,14.276 115.468,14.276 113.081,16.329 
		113.081,17.458 115.468,15.349 115.468,27.448 	"/>
</g>
</svg>
