<?xml version="1.0" encoding="utf-8"?>
<!-- Generator: Adobe Illustrator 15.1.0, SVG Export Plug-In . SVG Version: 6.00 Build 0)  -->
<!DOCTYPE svg PUBLIC "-//W3C//DTD SVG 1.1//EN" "http://www.w3.org/Graphics/SVG/1.1/DTD/svg11.dtd">
<svg version="1.1" id="art" xmlns="http://www.w3.org/2000/svg" xmlns:xlink="http://www.w3.org/1999/xlink" x="0px" y="0px"
	 width="912px" height="541px" viewBox="0 0 912 541" enable-background="new 0 0 912 541" xml:space="preserve">
<g>
	<g>
		<defs>
			<rect id="SVGID_1_" width="912" height="393.55"/>
		</defs>
		<clipPath id="SVGID_2_">
			<use xlink:href="#SVGID_1_"  overflow="visible"/>
		</clipPath>
		<line clip-path="url(#SVGID_2_)" fill="none" stroke="#F9A25E" stroke-width="3" x1="0" y1="392.05" x2="912" y2="392.05"/>
	</g>
	<g>
		<defs>
			<rect id="SVGID_3_" width="912" height="393.55"/>
		</defs>
		<clipPath id="SVGID_4_">
			<use xlink:href="#SVGID_3_"  overflow="visible"/>
		</clipPath>
		<path clip-path="url(#SVGID_4_)" fill="#F9A25E" d="M810.25,40c11.046,0,20-8.954,20-20s-8.954-20-20-20s-20,8.954-20,20
			S799.204,40,810.25,40"/>
	</g>
	<g>
		<defs>
			<rect id="SVGID_5_" width="912" height="393.55"/>
		</defs>
		<clipPath id="SVGID_6_">
			<use xlink:href="#SVGID_5_"  overflow="visible"/>
		</clipPath>
		<path clip-path="url(#SVGID_6_)" fill="#F9A25E" d="M808.741,45.903c0,0,1.531,2.58,3.062,0l4.911-8.273
			c0,0,1.531-2.58-1.469-2.58h-9.946c0,0-3,0-1.468,2.58L808.741,45.903z"/>
	</g>
	<g>
		<defs>
			<rect id="SVGID_7_" width="912" height="393.55"/>
		</defs>
		<clipPath id="SVGID_8_">
			<use xlink:href="#SVGID_7_"  overflow="visible"/>
		</clipPath>
		<path clip-path="url(#SVGID_8_)" fill="#FFFFFF" d="M818.464,27.447v-0.832h-5.846l4.938-6.457
			c0.666-0.869,0.907-1.554,0.907-2.534c0-2.091-1.369-3.46-3.478-3.46c-2.185,0-3.479,1.499-3.479,3.46h0.943
			c0-1.85,1.166-2.627,2.535-2.627c1.591,0,2.533,1.054,2.533,2.627c0,0.758-0.223,1.387-0.739,2.053l-5.291,6.938v0.832H818.464z
			 M809.177,23.137c0-1.24-0.146-2.627-1.071-3.552c-0.52-0.518-1.276-0.796-2.222-0.796c-1.072,0-1.924,0.315-2.497,0.981v-4.662
			h5.494v-0.833h-6.327v6.734h0.833c0.277-0.888,1.186-1.387,2.388-1.387c2.163,0,2.461,1.868,2.461,3.515
			c0,0.98-0.021,2.164-0.796,2.941c-0.427,0.426-1.093,0.666-1.813,0.666c-1.535,0-2.294-0.795-2.479-2.201h-0.942
			c0.074,0.943,0.388,1.646,0.888,2.146c0.573,0.592,1.461,0.888,2.534,0.888c1.092,0,1.924-0.333,2.535-0.944
			C809.104,25.689,809.177,24.395,809.177,23.137"/>
	</g>
	<g>
		<defs>
			<rect id="SVGID_9_" width="912" height="393.55"/>
		</defs>
		<clipPath id="SVGID_10_">
			<use xlink:href="#SVGID_9_"  overflow="visible"/>
		</clipPath>
		<path clip-path="url(#SVGID_10_)" fill="#FFFFFF" d="M835.75,168.715v-34c0-3-3-3-3-3h-44c-3,0-3,3-3,3v34c0,3,3,3,3,3h16.943
			l3.504,5.903c1.531,2.58,3.062,0,3.062,0l3.504-5.903h16.987C835.75,171.715,835.75,168.715,835.75,168.715"/>
	</g>
	<g>
		<defs>
			<rect id="SVGID_11_" width="912" height="393.55"/>
		</defs>
		<clipPath id="SVGID_12_">
			<use xlink:href="#SVGID_11_"  overflow="visible"/>
		</clipPath>
		<path clip-path="url(#SVGID_12_)" fill="none" stroke="#D1D3D4" d="M835.75,168.715v-34c0-3-3-3-3-3h-44c-3,0-3,3-3,3v34
			c0,3,3,3,3,3h16.943l3.504,5.903c1.531,2.58,3.062,0,3.062,0l3.504-5.903h16.987C835.75,171.715,835.75,168.715,835.75,168.715z"
			/>
	</g>
	<g>
		<defs>
			<rect id="SVGID_13_" width="912" height="393.55"/>
		</defs>
		<clipPath id="SVGID_14_">
			<use xlink:href="#SVGID_13_"  overflow="visible"/>
		</clipPath>
		<path clip-path="url(#SVGID_14_)" fill="#F9A25E" d="M820.434,153.538c-0.539,0-0.853-0.54-0.853-1.56
			c0-1.045,0.3-1.573,0.877-1.573c0.54,0,0.853,0.54,0.853,1.561C821.311,153.021,821.01,153.538,820.434,153.538 M818.539,151.965
			c0,1.428,0.707,2.267,1.907,2.267c1.198,0,1.919-0.839,1.919-2.267c0-1.453-0.707-2.256-1.907-2.256
			S818.539,150.537,818.539,151.965 M813.523,147.598c0,1.44,0.719,2.256,1.919,2.256c1.198,0,1.905-0.828,1.905-2.256
			c0-1.453-0.707-2.256-1.905-2.256C814.242,145.341,813.523,146.168,813.523,147.598 M815.43,149.169
			c-0.541,0-0.853-0.54-0.853-1.56c0-1.045,0.301-1.585,0.877-1.585c0.54,0,0.841,0.552,0.841,1.573
			C816.295,148.653,816.006,149.169,815.43,149.169 M815.85,154.232l5.004-8.891h-0.804l-5.004,8.891H815.85z M806.551,151.713
			c0.048,1.548,1.142,2.519,2.784,2.519c1.86,0,2.962-0.995,2.962-2.483c0-1.261-0.587-2.029-1.666-2.22
			c0.937-0.144,1.475-0.864,1.475-1.908c0-1.393-0.971-2.28-2.555-2.28c-1.644,0-2.566,0.815-2.651,2.268h1.261
			c0.022-0.733,0.516-1.153,1.354-1.153c0.78,0,1.284,0.468,1.284,1.201c0,0.84-0.528,1.26-1.536,1.26
			c-0.084,0-0.168-0.012-0.252-0.012v1.127c0.097,0,0.182-0.012,0.266-0.012c1.15,0,1.738,0.516,1.738,1.549
			c0,0.972-0.588,1.512-1.632,1.512c-0.924,0-1.5-0.516-1.5-1.296v-0.072H806.551L806.551,151.713z M800.191,151.954l-0.926,1.02
			c0.638,0.863,1.5,1.259,2.678,1.259c2.04,0,3.299-1.259,3.299-3.155c0-1.681-1.127-2.832-2.759-2.832
			c-0.444,0-0.876,0.096-1.332,0.288l0.504-1.897h3.215v-1.127h-4.056l-1.067,4.355l0.348,0.072c0.469-0.48,1.093-0.732,1.812-0.732
			c1.2,0,2.004,0.792,2.004,1.921c0,1.188-0.78,1.968-1.908,1.968C801.247,153.094,800.599,152.697,800.191,151.954"/>
	</g>
	<g>
		<defs>
			<rect id="SVGID_15_" width="912" height="393.55"/>
		</defs>
		<clipPath id="SVGID_16_">
			<use xlink:href="#SVGID_15_"  overflow="visible"/>
		</clipPath>
		<path clip-path="url(#SVGID_16_)" fill="#006227" d="M810.75,187.204c2.199,0,3.982-1.783,3.982-3.982
			c0-2.199-1.783-3.982-3.982-3.982s-3.982,1.783-3.982,3.982C806.768,185.421,808.551,187.204,810.75,187.204"/>
	</g>
	<g>
		<defs>
			<rect id="SVGID_17_" width="912" height="393.55"/>
		</defs>
		<clipPath id="SVGID_18_">
			<use xlink:href="#SVGID_17_"  overflow="visible"/>
		</clipPath>
		<path clip-path="url(#SVGID_18_)" fill="#006227" d="M810.25,339.039c2.199,0,3.982-1.783,3.982-3.982s-1.783-3.98-3.982-3.98
			s-3.982,1.781-3.982,3.98S808.051,339.039,810.25,339.039"/>
	</g>
	<g>
		<defs>
			<rect id="SVGID_19_" width="912" height="393.55"/>
		</defs>
		<clipPath id="SVGID_20_">
			<use xlink:href="#SVGID_19_"  overflow="visible"/>
		</clipPath>
		<path clip-path="url(#SVGID_20_)" fill="#FFFFFF" d="M835.25,320.55v-34c0-3-3-3-3-3h-44c-3,0-3,3-3,3v34c0,3,3,3,3,3h16.943
			l3.504,5.902c1.531,2.581,3.062,0,3.062,0l3.504-5.902h16.987C835.25,323.55,835.25,320.55,835.25,320.55"/>
	</g>
	<g>
		<defs>
			<rect id="SVGID_21_" width="912" height="393.55"/>
		</defs>
		<clipPath id="SVGID_22_">
			<use xlink:href="#SVGID_21_"  overflow="visible"/>
		</clipPath>
		<path clip-path="url(#SVGID_22_)" fill="none" stroke="#D1D3D4" d="M835.25,320.55v-34c0-3-3-3-3-3h-44c-3,0-3,3-3,3v34
			c0,3,3,3,3,3h16.943l3.504,5.902c1.531,2.581,3.062,0,3.062,0l3.504-5.902h16.987C835.25,323.55,835.25,320.55,835.25,320.55z"/>
	</g>
	<g>
		<defs>
			<rect id="SVGID_23_" width="912" height="393.55"/>
		</defs>
		<clipPath id="SVGID_24_">
			<use xlink:href="#SVGID_23_"  overflow="visible"/>
		</clipPath>
		<path clip-path="url(#SVGID_24_)" fill="#F9A25E" d="M819.934,307.373c-0.541,0-0.853-0.541-0.853-1.562
			c0-1.045,0.3-1.572,0.877-1.572c0.54,0,0.854,0.541,0.854,1.562C820.812,306.855,820.51,307.373,819.934,307.373 M818.039,305.8
			c0,1.429,0.707,2.269,1.907,2.269s1.919-0.84,1.919-2.269c0-1.452-0.707-2.255-1.907-2.255S818.039,304.371,818.039,305.8
			 M813.023,301.434c0,1.438,0.719,2.256,1.919,2.256c1.199,0,1.906-0.828,1.906-2.256c0-1.453-0.707-2.257-1.906-2.257
			C813.742,299.177,813.023,300.003,813.023,301.434 M814.93,303.004c-0.541,0-0.853-0.54-0.853-1.561
			c0-1.045,0.3-1.586,0.877-1.586c0.54,0,0.841,0.554,0.841,1.574C815.795,302.488,815.506,303.004,814.93,303.004 M815.35,308.066
			l5.006-8.891h-0.806l-5.004,8.891H815.35z M806.051,305.548c0.049,1.55,1.142,2.521,2.784,2.521c1.86,0,2.962-0.995,2.962-2.483
			c0-1.261-0.587-2.028-1.666-2.22c0.937-0.145,1.477-0.864,1.477-1.908c0-1.393-0.973-2.279-2.557-2.279
			c-1.644,0-2.566,0.814-2.65,2.268h1.26c0.023-0.732,0.516-1.152,1.354-1.152c0.78,0,1.284,0.468,1.284,1.201
			c0,0.84-0.527,1.26-1.536,1.26c-0.084,0-0.168-0.012-0.252-0.012v1.127c0.097,0,0.182-0.014,0.266-0.014
			c1.15,0,1.738,0.518,1.738,1.551c0,0.972-0.588,1.512-1.632,1.512c-0.924,0-1.5-0.518-1.5-1.296v-0.072h-1.332V305.548z
			 M801.479,307.839h1.271v-8.493h-2.507l-0.54,1.103h1.775V307.839z"/>
	</g>
</g>
</svg>
