<?xml version="1.0" encoding="utf-8"?>
<!-- Generator: Adobe Illustrator 15.1.0, SVG Export Plug-In . SVG Version: 6.00 Build 0)  -->
<!DOCTYPE svg PUBLIC "-//W3C//DTD SVG 1.1//EN" "http://www.w3.org/Graphics/SVG/1.1/DTD/svg11.dtd">
<svg version="1.1" id="art" xmlns="http://www.w3.org/2000/svg" xmlns:xlink="http://www.w3.org/1999/xlink" x="0px" y="0px"
	 width="912px" height="541px" viewBox="0 0 912 541" enable-background="new 0 0 912 541" xml:space="preserve">
<g>
	<g>
		<g>
			<defs>
				<rect id="SVGID_1_" width="912" height="393.55"/>
			</defs>
			<clipPath id="SVGID_2_">
				<use xlink:href="#SVGID_1_"  overflow="visible"/>
			</clipPath>
			<line clip-path="url(#SVGID_2_)" fill="none" stroke="#F8A15E" stroke-width="3" x1="0" y1="392.05" x2="912" y2="392.05"/>
		</g>
	</g>
	<g>
		<g>
			<defs>
				<rect id="SVGID_3_" width="912" height="393.55"/>
			</defs>
			<clipPath id="SVGID_4_">
				<use xlink:href="#SVGID_3_"  overflow="visible"/>
			</clipPath>
			<path clip-path="url(#SVGID_4_)" fill="#F8A15E" d="M428.878,40c11.046,0,20-8.954,20-20c0-11.047-8.954-20-20-20
				s-20,8.953-20,20C408.878,31.046,417.832,40,428.878,40"/>
		</g>
	</g>
	<g>
		<g>
			<defs>
				<rect id="SVGID_5_" width="912" height="393.55"/>
			</defs>
			<clipPath id="SVGID_6_">
				<use xlink:href="#SVGID_5_"  overflow="visible"/>
			</clipPath>
			<path clip-path="url(#SVGID_6_)" fill="#F8A15E" d="M427.369,45.903c0,0,1.53,2.58,3.062,0l4.911-8.272
				c0,0,1.531-2.58-1.469-2.58h-9.946c0,0-3,0-1.468,2.58L427.369,45.903z"/>
		</g>
	</g>
	<g>
		<g>
			<defs>
				<rect id="SVGID_7_" width="912" height="393.55"/>
			</defs>
			<clipPath id="SVGID_8_">
				<use xlink:href="#SVGID_7_"  overflow="visible"/>
			</clipPath>
			<path clip-path="url(#SVGID_8_)" fill="#FFFFFF" d="M437.243,25.283V24.45h-1.758v-4.18h-0.942v4.181h-4.219l4.848-10.175h-0.999
				l-4.848,10.175v0.833h5.218v2.164h0.942v-2.164L437.243,25.283L437.243,25.283z M427.513,27.447v-0.832h-5.846l4.939-6.457
				c0.665-0.87,0.904-1.555,0.904-2.534c0-2.091-1.369-3.46-3.479-3.46c-2.185,0-3.479,1.499-3.479,3.46h0.944
				c0-1.851,1.165-2.628,2.533-2.628c1.592,0,2.535,1.055,2.535,2.628c0,0.759-0.224,1.388-0.739,2.054l-5.291,6.938v0.832h6.976
				v-0.001H427.513z"/>
		</g>
	</g>
	<g>
		<g>
			<defs>
				<rect id="SVGID_9_" width="912" height="393.55"/>
			</defs>
			<clipPath id="SVGID_10_">
				<use xlink:href="#SVGID_9_"  overflow="visible"/>
			</clipPath>
			<path clip-path="url(#SVGID_10_)" fill="#006227" d="M428.878,166.545c2.198,0,3.981-1.783,3.981-3.982
				c0-2.199-1.783-3.982-3.981-3.982c-2.199,0-3.98,1.783-3.98,3.982C424.896,164.762,426.679,166.545,428.878,166.545"/>
		</g>
	</g>
	<g>
		<g>
			<defs>
				<rect id="SVGID_11_" width="912" height="393.55"/>
			</defs>
			<clipPath id="SVGID_12_">
				<use xlink:href="#SVGID_11_"  overflow="visible"/>
			</clipPath>
			<path clip-path="url(#SVGID_12_)" fill="#006227" d="M428.878,338.594c2.198,0,3.981-1.781,3.981-3.98
				c0-2.198-1.783-3.981-3.981-3.981c-2.199,0-3.98,1.783-3.98,3.981C424.897,336.812,426.679,338.594,428.878,338.594"/>
		</g>
	</g>
	<g>
		<g>
			<defs>
				<rect id="SVGID_13_" width="912" height="393.55"/>
			</defs>
			<clipPath id="SVGID_14_">
				<use xlink:href="#SVGID_13_"  overflow="visible"/>
			</clipPath>
			<path clip-path="url(#SVGID_14_)" fill="#FFFFFF" d="M453.878,148.055v-34c0-3-3-3-3-3h-44c-3,0-3,3-3,3v34c0,3,3,3,3,3h16.942
				l3.504,5.904c1.531,2.579,3.062,0,3.062,0l3.504-5.904h16.987C453.878,151.055,453.878,148.055,453.878,148.055"/>
		</g>
	</g>
	<g>
		<g>
			<defs>
				<rect id="SVGID_15_" width="912" height="393.55"/>
			</defs>
			<clipPath id="SVGID_16_">
				<use xlink:href="#SVGID_15_"  overflow="visible"/>
			</clipPath>
			<path clip-path="url(#SVGID_16_)" fill="none" stroke="#D0D2D3" d="M453.878,148.055v-34c0-3-3-3-3-3h-44c-3,0-3,3-3,3v34
				c0,3,3,3,3,3h16.942l3.504,5.904c1.531,2.579,3.062,0,3.062,0l3.504-5.904h16.987
				C453.878,151.055,453.878,148.055,453.878,148.055z"/>
		</g>
	</g>
	<g>
		<g>
			<defs>
				<rect id="SVGID_17_" width="912" height="393.55"/>
			</defs>
			<clipPath id="SVGID_18_">
				<use xlink:href="#SVGID_17_"  overflow="visible"/>
			</clipPath>
			<path clip-path="url(#SVGID_18_)" fill="#FFFFFF" d="M453.878,320.105v-34c0-3-3-3-3-3h-44c-3,0-3,3-3,3v34c0,3,3,3,3,3h16.942
				l3.504,5.901c1.531,2.58,3.062,0,3.062,0l3.504-5.901h16.987C453.878,323.105,453.878,320.105,453.878,320.105"/>
		</g>
	</g>
	<g>
		<g>
			<defs>
				<rect id="SVGID_19_" width="912" height="393.55"/>
			</defs>
			<clipPath id="SVGID_20_">
				<use xlink:href="#SVGID_19_"  overflow="visible"/>
			</clipPath>
			<path clip-path="url(#SVGID_20_)" fill="none" stroke="#D0D2D3" d="M453.878,320.105v-34c0-3-3-3-3-3h-44c-3,0-3,3-3,3v34
				c0,3,3,3,3,3h16.942l3.504,5.901c1.531,2.58,3.062,0,3.062,0l3.504-5.901h16.987
				C453.878,323.105,453.878,320.105,453.878,320.105z"/>
		</g>
	</g>
	<g>
		<g>
			<defs>
				<rect id="SVGID_21_" width="912" height="393.55"/>
			</defs>
			<clipPath id="SVGID_22_">
				<use xlink:href="#SVGID_21_"  overflow="visible"/>
			</clipPath>
			<path clip-path="url(#SVGID_22_)" fill="#F8A15E" d="M443.938,134.587c-0.539,0-0.853-0.54-0.853-1.56
				c0-1.045,0.3-1.574,0.877-1.574c0.54,0,0.854,0.541,0.854,1.562C444.812,134.07,444.514,134.587,443.938,134.587
				 M442.042,133.015c0,1.429,0.707,2.267,1.907,2.267s1.92-0.838,1.92-2.267c0-1.453-0.707-2.256-1.907-2.256
				C442.761,130.759,442.042,131.586,442.042,133.015 M437.025,128.646c0,1.44,0.72,2.256,1.92,2.256
				c1.198,0,1.905-0.828,1.905-2.256c0-1.453-0.707-2.256-1.905-2.256C437.745,126.39,437.025,127.218,437.025,128.646
				 M438.934,130.219c-0.541,0-0.853-0.54-0.853-1.561c0-1.045,0.3-1.584,0.877-1.584c0.54,0,0.84,0.552,0.84,1.572
				C439.798,129.703,439.51,130.219,438.934,130.219 M439.354,135.281l5.006-8.891h-0.807l-5.004,8.891H439.354z M431.696,130.519
				c-0.973,0.312-1.521,1.14-1.521,2.257c0,1.512,1.065,2.506,2.938,2.506c1.885,0,2.951-0.982,2.951-2.53
				c0-1.081-0.575-1.921-1.522-2.232c0.804-0.312,1.234-0.924,1.234-1.776c0-1.404-1.009-2.352-2.663-2.352
				c-1.633,0-2.651,0.947-2.651,2.292C430.462,129.582,430.857,130.158,431.696,130.519 M433.138,127.518
				c0.806,0,1.272,0.456,1.272,1.189c0,0.707-0.456,1.152-1.297,1.152c-0.816,0-1.284-0.445-1.284-1.152
				C431.829,127.986,432.32,127.518,433.138,127.518 M433.113,134.143c-1.021,0-1.599-0.576-1.599-1.488
				c0-0.925,0.602-1.5,1.599-1.5c1.009,0,1.607,0.563,1.607,1.5C434.723,133.566,434.134,134.143,433.113,134.143 M426.982,134.406
				c0,0.42,0.335,0.756,0.768,0.756c0.432,0,0.767-0.336,0.767-0.756c0-0.432-0.335-0.779-0.767-0.779
				C427.317,133.627,426.982,133.975,426.982,134.406 M420.944,130.519c-0.973,0.312-1.521,1.14-1.521,2.257
				c0,1.512,1.066,2.506,2.938,2.506c1.886,0,2.949-0.982,2.949-2.53c0-1.081-0.573-1.921-1.521-2.232
				c0.803-0.312,1.234-0.924,1.234-1.776c0-1.404-1.009-2.352-2.664-2.352c-1.635,0-2.65,0.947-2.65,2.292
				C419.711,129.582,420.105,130.158,420.944,130.519 M422.386,127.518c0.806,0,1.272,0.456,1.272,1.189
				c0,0.707-0.457,1.152-1.297,1.152c-0.815,0-1.285-0.445-1.285-1.152C421.076,127.986,421.569,127.518,422.386,127.518
				 M422.361,134.143c-1.021,0-1.599-0.576-1.599-1.488c0-0.925,0.603-1.5,1.599-1.5c1.01,0,1.607,0.563,1.607,1.5
				C423.971,133.566,423.383,134.143,422.361,134.143 M412.942,133.003l-0.926,1.021c0.638,0.862,1.5,1.258,2.678,1.258
				c2.04,0,3.298-1.258,3.298-3.154c0-1.682-1.126-2.832-2.758-2.832c-0.443,0-0.876,0.096-1.332,0.287l0.504-1.896h3.216v-1.127
				h-4.056l-1.067,4.355l0.348,0.072c0.47-0.48,1.094-0.732,1.812-0.732c1.2,0,2.005,0.792,2.005,1.921
				c0,1.188-0.78,1.968-1.908,1.968C413.999,134.143,413.351,133.746,412.942,133.003"/>
		</g>
	</g>
	<g>
		<g>
			<defs>
				<rect id="SVGID_23_" width="912" height="393.55"/>
			</defs>
			<clipPath id="SVGID_24_">
				<use xlink:href="#SVGID_23_"  overflow="visible"/>
			</clipPath>
			<path clip-path="url(#SVGID_24_)" fill="#F8A15E" d="M443.938,306.639c-0.539,0-0.853-0.541-0.853-1.562
				c0-1.045,0.3-1.572,0.877-1.572c0.54,0,0.854,0.54,0.854,1.561C444.812,306.121,444.514,306.639,443.938,306.639
				 M442.042,305.064c0,1.428,0.707,2.268,1.907,2.268s1.92-0.84,1.92-2.268c0-1.453-0.707-2.256-1.907-2.256
				C442.761,302.811,442.042,303.636,442.042,305.064 M437.025,300.695c0,1.441,0.72,2.257,1.92,2.257
				c1.198,0,1.905-0.827,1.905-2.257c0-1.452-0.707-2.254-1.905-2.254C437.745,298.441,437.025,299.268,437.025,300.695
				 M438.934,302.27c-0.541,0-0.853-0.541-0.853-1.561c0-1.045,0.3-1.585,0.877-1.585c0.54,0,0.84,0.552,0.84,1.571
				C439.798,301.753,439.51,302.27,438.934,302.27 M439.354,307.332l5.006-8.891h-0.807l-5.004,8.891H439.354z M431.493,304.477
				c0-1.021,0.636-1.717,1.549-1.717c1.031,0,1.633,0.647,1.633,1.717c0,1.045-0.611,1.705-1.646,1.705
				C432.141,306.182,431.493,305.521,431.493,304.477 M432.272,301.896l2.483-3.242l-1.066-0.537l-1.502,2.123
				c-1.149,1.619-2.024,2.783-2.024,4.225c0,1.704,1.113,2.867,2.831,2.867c1.823,0,3.034-1.176,3.034-2.939
				c0-1.645-1.127-2.771-2.641-2.771C433.018,301.622,432.646,301.717,432.272,301.896 M426.982,306.457
				c0,0.419,0.335,0.755,0.768,0.755c0.432,0,0.767-0.336,0.767-0.755c0-0.434-0.335-0.779-0.767-0.779
				C427.317,305.678,426.982,306.023,426.982,306.457 M419.303,304.812c0.048,1.547,1.142,2.52,2.784,2.52
				c1.859,0,2.962-0.995,2.962-2.482c0-1.262-0.587-2.029-1.666-2.221c0.937-0.145,1.477-0.863,1.477-1.908
				c0-1.394-0.973-2.279-2.557-2.279c-1.645,0-2.566,0.814-2.65,2.27h1.261c0.021-0.732,0.516-1.152,1.354-1.152
				c0.78,0,1.284,0.469,1.284,1.2c0,0.841-0.526,1.261-1.536,1.261c-0.084,0-0.168-0.013-0.252-0.013v1.127
				c0.098,0,0.182-0.013,0.266-0.013c1.15,0,1.738,0.518,1.738,1.55c0,0.974-0.588,1.513-1.632,1.513c-0.924,0-1.5-0.517-1.5-1.295
				v-0.072h-1.332V304.812L419.303,304.812z M414.73,307.104h1.271v-8.494h-2.506l-0.54,1.104h1.775V307.104L414.73,307.104z"/>
		</g>
	</g>
</g>
</svg>
