<?xml version="1.0" encoding="utf-8"?>
<!-- Generator: Adobe Illustrator 15.1.0, SVG Export Plug-In . SVG Version: 6.00 Build 0)  -->
<!DOCTYPE svg PUBLIC "-//W3C//DTD SVG 1.1//EN" "http://www.w3.org/Graphics/SVG/1.1/DTD/svg11.dtd">
<svg version="1.1" id="art" xmlns="http://www.w3.org/2000/svg" xmlns:xlink="http://www.w3.org/1999/xlink" x="0px" y="0px"
	 width="912px" height="483px" viewBox="0 0 912 483" enable-background="new 0 0 912 483" xml:space="preserve">
<g>
	<defs>
		<rect id="SVGID_1_" x="-9" y="-1" width="930" height="482.252"/>
	</defs>
	<clipPath id="SVGID_2_">
		<use xlink:href="#SVGID_1_"  overflow="visible"/>
	</clipPath>
	<rect y="320" clip-path="url(#SVGID_2_)" fill="#F3E3D5" width="912" height="20"/>
	<rect clip-path="url(#SVGID_2_)" fill="#F3E3D5" width="912" height="40"/>
	<rect y="80" clip-path="url(#SVGID_2_)" fill="#F3E3D5" width="912" height="40"/>
	<rect y="160" clip-path="url(#SVGID_2_)" fill="#F3E3D5" width="912" height="40"/>
	<rect y="240" clip-path="url(#SVGID_2_)" fill="#F3E3D5" width="912" height="40"/>
	<line clip-path="url(#SVGID_2_)" fill="none" stroke="#D1D3D4" stroke-width="0.5" x1="105.435" y1="0" x2="105.435" y2="340"/>
	<line clip-path="url(#SVGID_2_)" fill="none" stroke="#D1D3D4" stroke-width="0.5" x1="137.305" y1="0" x2="137.305" y2="340"/>
	<line clip-path="url(#SVGID_2_)" fill="none" stroke="#D1D3D4" stroke-width="0.5" x1="169.175" y1="0" x2="169.175" y2="340"/>
	<line clip-path="url(#SVGID_2_)" fill="none" stroke="#D1D3D4" stroke-width="0.5" x1="201.045" y1="0" x2="201.045" y2="340"/>
	<line clip-path="url(#SVGID_2_)" fill="none" stroke="#D1D3D4" stroke-width="0.5" x1="264.785" y1="0" x2="264.785" y2="340"/>
	<line clip-path="url(#SVGID_2_)" fill="none" stroke="#D1D3D4" stroke-width="0.5" x1="296.654" y1="0" x2="296.654" y2="340"/>
	<line clip-path="url(#SVGID_2_)" fill="none" stroke="#D1D3D4" stroke-width="0.5" x1="328.524" y1="0" x2="328.524" y2="340"/>
	<line clip-path="url(#SVGID_2_)" fill="none" stroke="#D1D3D4" stroke-width="0.5" x1="360.395" y1="0" x2="360.395" y2="340"/>
	<line clip-path="url(#SVGID_2_)" fill="none" stroke="#D1D3D4" stroke-width="0.5" x1="392.265" y1="0" x2="392.265" y2="340"/>
	<line clip-path="url(#SVGID_2_)" fill="none" stroke="#D1D3D4" stroke-width="0.5" x1="424.135" y1="0" x2="424.135" y2="340"/>
	<line clip-path="url(#SVGID_2_)" fill="none" stroke="#D1D3D4" stroke-width="0.5" x1="456.005" y1="0" x2="456.005" y2="340"/>
	<line clip-path="url(#SVGID_2_)" fill="none" stroke="#D1D3D4" stroke-width="0.5" x1="487.875" y1="80" x2="487.875" y2="340"/>
	<line clip-path="url(#SVGID_2_)" fill="none" stroke="#D1D3D4" stroke-width="0.5" x1="519.745" y1="80" x2="519.745" y2="340"/>
	<line clip-path="url(#SVGID_2_)" fill="none" stroke="#D1D3D4" stroke-width="0.5" x1="551.615" y1="80" x2="551.615" y2="340"/>
	<line clip-path="url(#SVGID_2_)" fill="none" stroke="#D1D3D4" stroke-width="0.5" x1="583.484" y1="80" x2="583.484" y2="340"/>
	<line clip-path="url(#SVGID_2_)" fill="none" stroke="#D1D3D4" stroke-width="0.5" x1="615.354" y1="80" x2="615.354" y2="340"/>
	<line clip-path="url(#SVGID_2_)" fill="none" stroke="#D1D3D4" stroke-width="0.5" x1="647.225" y1="80" x2="647.225" y2="340"/>
	<line clip-path="url(#SVGID_2_)" fill="none" stroke="#D1D3D4" stroke-width="0.5" x1="679.095" y1="80" x2="679.095" y2="340"/>
	<line clip-path="url(#SVGID_2_)" fill="none" stroke="#D1D3D4" stroke-width="0.5" x1="710.965" y1="80" x2="710.965" y2="340"/>
	<line clip-path="url(#SVGID_2_)" fill="none" stroke="#D1D3D4" stroke-width="0.5" x1="742.835" y1="80" x2="742.835" y2="340"/>
	<line clip-path="url(#SVGID_2_)" fill="none" stroke="#D1D3D4" stroke-width="0.5" x1="774.705" y1="80" x2="774.705" y2="340"/>
	<line clip-path="url(#SVGID_2_)" fill="none" stroke="#D1D3D4" stroke-width="0.5" x1="806.575" y1="0" x2="806.575" y2="340"/>
	<g clip-path="url(#SVGID_2_)">
		<defs>
			<rect id="SVGID_3_" x="-9" y="-1" width="930" height="482.252"/>
		</defs>
		<clipPath id="SVGID_4_">
			<use xlink:href="#SVGID_3_"  overflow="visible"/>
		</clipPath>
		
			<line clip-path="url(#SVGID_4_)" fill="none" stroke="#6D6E71" stroke-dasharray="4,4" x1="232.914" y1="0" x2="232.914" y2="340"/>
		<path clip-path="url(#SVGID_4_)" fill="#F9A25E" d="M47.072,108.521l0.432-0.832c-2.288-1.232-4.864-1.856-7.728-1.856
			c-2.96,0-5.504,0.576-7.76,1.856l0.384,0.832c2.272-1.152,4.64-1.648,7.376-1.648C42.592,106.873,44.96,107.369,47.072,108.521
			 M44,116.249v-1.36h-5.456v-0.16L44,110.553v-1.728l-5.456,4.368v-0.24c0-2.016-0.992-3.088-2.864-3.088
			c-1.12,0-2.032,0.416-2.544,1.072c-0.544,0.704-0.576,1.536-0.576,2.624v2.688H44z M33.712,114.889v-1.008
			c0-1.808,0.32-2.672,1.984-2.672c1.584,0,1.84,0.88,1.84,2.672v1.008H33.712z M37.648,120.232l-0.72,1.632
			c-0.464,1.04-1.024,1.536-1.84,1.536c-0.976,0-1.664-0.72-1.664-1.744c0-0.816,0.448-1.44,1.312-1.936l-0.72-1.12
			c-1.136,0.56-1.728,1.584-1.728,2.96c0,1.904,1.216,3.216,2.816,3.216c1.392,0,2.384-0.736,3.024-2.256l0.592-1.392
			c0.512-1.184,1.264-1.776,2.288-1.776c1.248,0,2.128,0.912,2.128,2.288c0,1.152-0.72,1.936-2.112,2.272l0.608,1.232
			c1.696-0.432,2.656-1.696,2.656-3.504c0-2.208-1.408-3.664-3.504-3.664C39.344,117.977,38.304,118.745,37.648,120.232 M44,132.648
			v-6.032h-1.264v4.672h-4.384v-4.672h-1.264v4.672h-3.28v-4.672H32.56v6.032H44z M47.072,134.568
			c-2.112,1.152-4.48,1.648-7.296,1.648c-2.736,0-5.104-0.496-7.376-1.648l-0.384,0.832c2.256,1.28,4.8,1.856,7.76,1.856
			c2.864,0,5.44-0.624,7.728-1.856L47.072,134.568z M33.488,147.816c0-1.248,0.72-2.016,1.904-2.016
			c1.152,0,1.856,0.736,1.856,2.048c0,1.28-0.72,2-1.856,2C34.224,149.849,33.488,149.081,33.488,147.816 M43.2,147.833
			c0,1.536-0.88,2.4-2.304,2.4c-1.44,0-2.352-0.896-2.352-2.4s0.896-2.4,2.352-2.4C42.32,145.433,43.2,146.296,43.2,147.833
			 M37.952,149.32c0.416,1.504,1.536,2.352,3.04,2.352c1.984,0,3.312-1.424,3.312-3.856c0-2.448-1.296-3.84-3.344-3.84
			c-1.472,0-2.576,0.848-3.008,2.352c-0.368-1.232-1.296-1.936-2.528-1.936c-1.776,0-2.976,1.296-2.976,3.424
			c0,2.096,1.232,3.44,2.864,3.44C36.672,151.256,37.552,150.601,37.952,149.32 M42.704,154.121v4.336l-1.936-1.792
			c-2-1.84-3.504-2.896-5.152-2.896c-1.968,0-3.168,1.312-3.168,3.552c0,2.256,1.264,3.584,3.424,3.584
			c0.096,0,0.208-0.016,0.304-0.016v-1.28h-0.128c-1.52,0-2.352-0.8-2.352-2.24c0-1.376,0.848-2.256,2-2.256
			c1.488,0,3.008,1.424,5.44,3.488L44,161.017v-6.896H42.704z M37.648,164.521l-0.72,1.632c-0.464,1.04-1.024,1.536-1.84,1.536
			c-0.976,0-1.664-0.72-1.664-1.744c0-0.816,0.448-1.44,1.312-1.936l-0.72-1.12c-1.136,0.56-1.728,1.584-1.728,2.96
			c0,1.904,1.216,3.216,2.816,3.216c1.392,0,2.384-0.736,3.024-2.256l0.592-1.392c0.512-1.184,1.264-1.776,2.288-1.776
			c1.248,0,2.128,0.912,2.128,2.288c0,1.152-0.72,1.936-2.112,2.272l0.608,1.232c1.696-0.432,2.656-1.696,2.656-3.504
			c0-2.208-1.408-3.664-3.504-3.664C39.344,162.265,38.304,163.033,37.648,164.521 M35.12,174.984l4.208-1.824v3.648L35.12,174.984z
			 M32.112,174.984L44,180.168v-1.472l-3.504-1.488v-4.464L44,171.256v-1.472L32.112,174.984z M42.72,188.761h-8.896v-0.88
			c0-1.968,0.032-3.328,0.832-4.272c0.784-0.944,2-1.44,3.616-1.44s2.864,0.512,3.632,1.44c0.8,0.96,0.816,2.32,0.816,4.272V188.761
			z M44,190.121v-2.688c0-1.856-0.048-3.36-1.072-4.688c-1.008-1.312-2.592-2-4.64-2s-3.648,0.688-4.656,2
			c-1.072,1.392-1.072,3.04-1.072,5.184v2.192H44z M44,203.72v-1.216h-3.696c-0.784,0-1.376,0-1.888-0.416
			c-0.496-0.4-0.768-1.024-0.768-1.744c0-1.28,0.704-1.904,2.144-1.904H44v-1.216h-4.864c-1.616,0-2.544,1.024-2.544,2.688
			c0,1.12,0.432,1.984,1.36,2.592h-1.104v1.216H44z M40.496,207.271c1.648,0,2.592,0.896,2.592,2.336
			c0,1.52-0.976,2.384-2.704,2.384c-1.632,0-2.576-0.864-2.576-2.336C37.808,208.28,38.832,207.271,40.496,207.271 M36.848,206.087
			v1.216h1.344c-1.056,0.544-1.6,1.424-1.6,2.624c0,2,1.456,3.36,3.856,3.36c2.336,0,3.856-1.376,3.856-3.424
			c0-1.104-0.56-2.016-1.6-2.592H44v-1.184H36.848z M39.616,215.815v4.352c-1.216-0.128-1.968-1.008-1.968-2.176
			C37.648,216.695,38.352,215.896,39.616,215.815 M40.608,214.503h-0.24c-2.368,0-3.792,1.344-3.792,3.44
			c0,2.08,1.568,3.568,3.824,3.568c2.336,0,3.904-1.472,3.904-3.648c0-1.472-0.656-2.592-1.952-3.312l-0.624,0.928
			c1.04,0.592,1.552,1.36,1.552,2.32c0,1.376-1.008,2.368-2.56,2.368h-0.112V214.503z M44.448,228.76l-8.224-3.536L44,223.768
			v-1.328l-11.888,2.32l9.456,4l-9.456,4L44,235.08v-1.328l-7.776-1.44L44.448,228.76z"/>
		<g clip-path="url(#SVGID_4_)">
			<g>
				<defs>
					<rect id="SVGID_5_" x="74.456" y="253.168" width="25.248" height="13.552"/>
				</defs>
				<clipPath id="SVGID_6_">
					<use xlink:href="#SVGID_5_"  overflow="visible"/>
				</clipPath>
				<path clip-path="url(#SVGID_6_)" fill="#F9A25E" d="M90.353,264.424h-4.337l1.792-1.936c1.841-2,2.896-3.504,2.896-5.152
					c0-1.968-1.312-3.168-3.552-3.168c-2.256,0-3.584,1.264-3.584,3.424c0,0.097,0.016,0.209,0.016,0.305h1.28v-0.128
					c0-1.521,0.8-2.353,2.24-2.353c1.376,0,2.256,0.848,2.256,2c0,1.488-1.424,3.008-3.488,5.44l-2.416,2.864h6.896V264.424z"/>
			</g>
		</g>
		<g clip-path="url(#SVGID_4_)">
			<g>
				<defs>
					<rect id="SVGID_7_" x="74.44" y="213.168" width="25.312" height="13.856"/>
				</defs>
				<clipPath id="SVGID_8_">
					<use xlink:href="#SVGID_7_"  overflow="visible"/>
				</clipPath>
				<path clip-path="url(#SVGID_8_)" fill="#F9A25E" d="M83.44,222.824v0.208c0,1.808,1.344,2.992,3.472,2.992
					c2.432,0,3.84-1.28,3.84-3.328c0-1.552-0.815-2.592-2.176-2.816c1.28-0.336,2.032-1.312,2.032-2.672
					c0-1.856-1.296-3.04-3.424-3.04c-2.208,0-3.44,1.104-3.536,3.056h1.344c0.063-1.232,0.832-1.904,2.16-1.904
					c1.264,0,2.032,0.768,2.032,1.952c0,1.344-0.801,2.048-2.385,2.048c-0.128,0-0.239-0.016-0.368-0.016v1.12
					c0.145-0.016,0.272-0.016,0.4-0.016c1.648,0,2.496,0.768,2.496,2.24c0,1.392-0.848,2.208-2.368,2.208
					c-1.312,0-2.128-0.736-2.128-1.904v-0.128H83.44z"/>
			</g>
		</g>
		<g clip-path="url(#SVGID_4_)">
			<g>
				<defs>
					<rect id="SVGID_9_" x="73.912" y="173.168" width="26.048" height="13.552"/>
				</defs>
				<clipPath id="SVGID_10_">
					<use xlink:href="#SVGID_9_"  overflow="visible"/>
				</clipPath>
				<path clip-path="url(#SVGID_10_)" fill="#F9A25E" d="M88.272,185.72h1.344v-2.464h1.344v-1.104h-1.344v-7.984H89.04
					l-6.128,9.088h5.36V185.72z M88.272,182.152h-3.345l3.345-5.024V182.152z"/>
			</g>
		</g>
		<g clip-path="url(#SVGID_4_)">
			<g>
				<defs>
					<rect id="SVGID_11_" x="74.296" y="133.392" width="25.648" height="13.632"/>
				</defs>
				<clipPath id="SVGID_12_">
					<use xlink:href="#SVGID_11_"  overflow="visible"/>
				</clipPath>
				<path clip-path="url(#SVGID_12_)" fill="#F9A25E" d="M84.224,140.008c0.704-0.544,1.536-0.816,2.433-0.816
					c1.76,0,2.848,1.12,2.848,2.752c0,1.776-1.104,2.896-2.735,2.896c-1.12,0-2-0.56-2.513-1.616l-0.96,1.12
					c0.784,1.152,1.889,1.68,3.44,1.68c2.624,0,4.208-1.632,4.208-4.208c0-2.288-1.393-3.728-3.632-3.728
					c-0.641,0-1.232,0.128-1.776,0.416l0.72-2.944h4.097v-1.168h-5.024l-1.36,5.568L84.224,140.008z"/>
			</g>
		</g>
		<g clip-path="url(#SVGID_4_)">
			<g>
				<defs>
					<rect id="SVGID_13_" x="74.488" y="92.832" width="25.536" height="14.192"/>
				</defs>
				<clipPath id="SVGID_14_">
					<use xlink:href="#SVGID_13_"  overflow="visible"/>
				</clipPath>
				<path clip-path="url(#SVGID_14_)" fill="#F9A25E" d="M84.896,102.393c0-1.504,0.928-2.544,2.288-2.544
					c1.52,0,2.432,0.976,2.432,2.528c0,1.52-0.944,2.512-2.353,2.512C85.824,104.888,84.896,103.944,84.896,102.393 M85.808,99.256
					l3.696-4.8l-1.184-0.624l-2.608,3.68c-1.264,1.792-2.224,3.12-2.224,4.768c0,2.24,1.408,3.744,3.504,3.744
					c2.496,0,4.032-1.488,4.032-3.776c0-2.096-1.408-3.536-3.456-3.536C86.928,98.712,86.368,98.888,85.808,99.256"/>
			</g>
		</g>
		<g clip-path="url(#SVGID_4_)">
			<g>
				<defs>
					<rect id="SVGID_15_" x="74.952" y="53.392" width="25.248" height="13.76"/>
				</defs>
				<clipPath id="SVGID_16_">
					<use xlink:href="#SVGID_15_"  overflow="visible"/>
				</clipPath>
				<polygon clip-path="url(#SVGID_16_)" fill="#F9A25E" points="84.368,65.576 85.488,66.152 91.2,54.393 83.952,54.393 
					83.952,55.576 89.248,55.576 				"/>
			</g>
		</g>
		<g clip-path="url(#SVGID_4_)">
			<g>
				<defs>
					<rect id="SVGID_17_" x="74.44" y="13.168" width="25.695" height="13.856"/>
				</defs>
				<clipPath id="SVGID_18_">
					<use xlink:href="#SVGID_17_"  overflow="visible"/>
				</clipPath>
				<path clip-path="url(#SVGID_18_)" fill="#F9A25E" d="M87.296,15.208c1.248,0,2.017,0.72,2.017,1.904
					c0,1.152-0.736,1.856-2.049,1.856c-1.279,0-2-0.72-2-1.856C85.264,15.944,86.032,15.208,87.296,15.208 M87.28,24.92
					c-1.536,0-2.4-0.88-2.4-2.304c0-1.44,0.896-2.352,2.4-2.352s2.399,0.896,2.399,2.352C89.68,24.041,88.816,24.92,87.28,24.92
					 M85.792,19.672c-1.504,0.416-2.352,1.536-2.352,3.04c0,1.984,1.424,3.312,3.855,3.312c2.448,0,3.84-1.296,3.84-3.344
					c0-1.472-0.848-2.576-2.352-3.008c1.231-0.368,1.936-1.296,1.936-2.528c0-1.776-1.296-2.976-3.424-2.976
					c-2.096,0-3.439,1.232-3.439,2.864C83.856,18.393,84.512,19.272,85.792,19.672"/>
			</g>
		</g>
		<g clip-path="url(#SVGID_4_)">
			<g>
				<defs>
					<rect id="SVGID_19_" x="75.592" y="293.393" width="21.664" height="13.327"/>
				</defs>
				<clipPath id="SVGID_20_">
					<use xlink:href="#SVGID_19_"  overflow="visible"/>
				</clipPath>
				<polygon clip-path="url(#SVGID_20_)" fill="#F9A25E" points="86.928,305.721 88.256,305.721 88.256,294.393 85.36,294.393 
					84.592,295.576 86.928,295.576 				"/>
			</g>
		</g>
		<path clip-path="url(#SVGID_4_)" fill="none" stroke="#808285" stroke-width="2" d="M105.435,92l2.863,13l7.76,12.569l10.573,19
			l5.312,6l5.562,5L169.377,157l31.873,6l31.622,6l32.123,5l31.372,1h32.119l32.125-0.261L391.984,174l31.872,2l32.373-2l31.872-1
			h31.873h31.873c0,0,31.622,2.078,31.622,2c0-0.078,32.123,0,32.123,0h31.872h31.872h31.873h31.872h31.373"/>
		<path clip-path="url(#SVGID_4_)" fill="none" stroke="#FAB57E" stroke-width="2" d="M105.382,59.295L105.436,92l2.861,23l7.762,20
			l10.571,19l5.312,6l5.562,4.5l31.872,10.5l31.873,5l31.622,1.123L264.995,190l31.372,1.232l32.119,1.03L360.612,192h31.373h31.872
			l32.373-2h31.872h31.873h31.872c0,0,31.623,0.078,31.623,0s32.121,0,32.121,0h31.873h31.872h31.873h31.872h31.373"/>
	</g>
	<line clip-path="url(#SVGID_2_)" fill="none" stroke="#F9A25E" stroke-width="3" x1="0" y1="340" x2="912" y2="340"/>
	<g clip-path="url(#SVGID_2_)">
		<defs>
			<rect id="SVGID_21_" x="-9" y="-1" width="930" height="482.252"/>
		</defs>
		<clipPath id="SVGID_22_">
			<use xlink:href="#SVGID_21_"  overflow="visible"/>
		</clipPath>
		<g clip-path="url(#SVGID_22_)">
			<g>
				<defs>
					<rect id="SVGID_23_" x="787.678" y="366.085" width="37.666" height="11.144"/>
				</defs>
				<clipPath id="SVGID_24_">
					<use xlink:href="#SVGID_23_"  overflow="visible"/>
				</clipPath>
				<path clip-path="url(#SVGID_24_)" fill="#F9A25E" d="M814.33,376h1.006v-1.85h1.008v-0.825h-1.008v-5.988h-0.431l-4.596,6.813
					h4.021V376z M814.33,373.325h-2.508l2.508-3.769V373.325z M804.777,373.504c0-1.128,0.695-1.908,1.716-1.908
					c1.141,0,1.825,0.732,1.825,1.896c0,1.141-0.709,1.885-1.766,1.885C805.473,375.377,804.777,374.669,804.777,373.504
					 M805.461,371.152l2.772-3.6l-0.888-0.468l-1.957,2.761c-0.948,1.342-1.667,2.338-1.667,3.574c0,1.682,1.056,2.809,2.627,2.809
					c1.873,0,3.024-1.115,3.024-2.832c0-1.572-1.055-2.651-2.592-2.651C806.301,370.745,805.881,370.877,805.461,371.152
					 M801.849,375.029h-3.252l1.345-1.452c1.381-1.501,2.172-2.629,2.172-3.864c0-1.477-0.983-2.376-2.664-2.376
					c-1.692,0-2.688,0.947-2.688,2.568c0,0.071,0.012,0.155,0.012,0.226h0.959v-0.095c0-1.14,0.601-1.765,1.681-1.765
					c1.033,0,1.692,0.637,1.692,1.502c0,1.115-1.067,2.254-2.616,4.08L796.678,376h5.171V375.029z"/>
			</g>
		</g>
		<g clip-path="url(#SVGID_22_)">
			<g>
				<defs>
					<rect id="SVGID_25_" x="755.808" y="366.337" width="37.476" height="10.892"/>
				</defs>
				<clipPath id="SVGID_26_">
					<use xlink:href="#SVGID_25_"  overflow="visible"/>
				</clipPath>
				<path clip-path="url(#SVGID_26_)" fill="#F9A25E" d="M784.02,375.029h-3.252l1.345-1.452c1.38-1.501,2.171-2.629,2.171-3.864
					c0-1.477-0.982-2.376-2.664-2.376c-1.691,0-2.687,0.947-2.687,2.568c0,0.071,0.012,0.155,0.012,0.226h0.959v-0.095
					c0-1.14,0.6-1.765,1.68-1.765c1.033,0,1.693,0.637,1.693,1.502c0,1.115-1.068,2.254-2.617,4.08L778.849,376h5.171V375.029z
					 M772.404,371.716c0.528-0.407,1.152-0.612,1.824-0.612c1.32,0,2.136,0.84,2.136,2.064c0,1.333-0.828,2.173-2.052,2.173
					c-0.84,0-1.5-0.42-1.884-1.212l-0.721,0.84c0.588,0.863,1.416,1.26,2.58,1.26c1.968,0,3.155-1.224,3.155-3.156
					c0-1.717-1.043-2.795-2.723-2.795c-0.48,0-0.925,0.096-1.332,0.311l0.54-2.209h3.07v-0.874h-3.767l-1.021,4.175L772.404,371.716
					z M769.979,375.029h-3.252l1.345-1.452c1.38-1.501,2.171-2.629,2.171-3.864c0-1.477-0.982-2.376-2.664-2.376
					c-1.691,0-2.687,0.947-2.687,2.568c0,0.071,0.012,0.155,0.012,0.226h0.959v-0.095c0-1.14,0.6-1.765,1.68-1.765
					c1.033,0,1.693,0.637,1.693,1.502c0,1.115-1.068,2.254-2.617,4.08L764.809,376h5.171V375.029z"/>
			</g>
		</g>
		<g clip-path="url(#SVGID_22_)">
			<g>
				<defs>
					<rect id="SVGID_27_" x="723.939" y="366.337" width="37.882" height="10.892"/>
				</defs>
				<clipPath id="SVGID_28_">
					<use xlink:href="#SVGID_27_"  overflow="visible"/>
				</clipPath>
				<path clip-path="url(#SVGID_28_)" fill="#F9A25E" d="M749.857,376.229c1.802,0,2.963-1.596,2.963-4.453
					c0-2.855-1.149-4.438-2.986-4.438c-1.788,0-2.963,1.606-2.963,4.438C746.871,374.609,748.046,376.229,749.857,376.229
					 M749.846,375.389c-1.188,0-1.921-1.295-1.921-3.625c0-2.315,0.733-3.6,1.921-3.6c1.249,0,1.921,1.236,1.921,3.624
					C751.767,374.165,751.095,375.389,749.846,375.389 M743.57,376h1.008v-1.85h1.008v-0.825h-1.008v-5.988h-0.433l-4.595,6.813
					h4.02V376z M743.57,373.325h-2.508l2.508-3.769V373.325z M738.109,375.029h-3.252l1.346-1.452
					c1.38-1.501,2.171-2.629,2.171-3.864c0-1.477-0.983-2.376-2.664-2.376c-1.692,0-2.688,0.947-2.688,2.568
					c0,0.071,0.013,0.155,0.013,0.226h0.959v-0.095c0-1.14,0.6-1.765,1.68-1.765c1.033,0,1.693,0.637,1.693,1.502
					c0,1.115-1.068,2.254-2.617,4.08L732.938,376h5.171V375.029z"/>
			</g>
		</g>
		<g clip-path="url(#SVGID_22_)">
			<g>
				<defs>
					<rect id="SVGID_29_" x="692.069" y="366.337" width="37.799" height="10.892"/>
				</defs>
				<clipPath id="SVGID_30_">
					<use xlink:href="#SVGID_29_"  overflow="visible"/>
				</clipPath>
				<path clip-path="url(#SVGID_30_)" fill="#F9A25E" d="M717.988,368.116c0.937,0,1.513,0.54,1.513,1.428
					c0,0.865-0.552,1.394-1.537,1.394c-0.96,0-1.5-0.541-1.5-1.394C716.464,368.668,717.04,368.116,717.988,368.116 M717.977,375.4
					c-1.152,0-1.802-0.659-1.802-1.729c0-1.08,0.673-1.765,1.802-1.765s1.801,0.673,1.801,1.765
					C719.777,374.741,719.129,375.4,717.977,375.4 M716.86,371.464c-1.128,0.312-1.763,1.152-1.763,2.28
					c0,1.488,1.066,2.484,2.891,2.484c1.837,0,2.88-0.972,2.88-2.508c0-1.104-0.636-1.933-1.763-2.257
					c0.924-0.274,1.451-0.971,1.451-1.896c0-1.332-0.972-2.231-2.568-2.231c-1.572,0-2.579,0.923-2.579,2.147
					C715.409,370.505,715.9,371.165,716.86,371.464 M713.26,375.029h-3.252l1.346-1.452c1.38-1.501,2.171-2.629,2.171-3.864
					c0-1.477-0.983-2.376-2.664-2.376c-1.692,0-2.688,0.947-2.688,2.568c0,0.071,0.013,0.155,0.013,0.226h0.959v-0.095
					c0-1.14,0.6-1.765,1.68-1.765c1.033,0,1.693,0.637,1.693,1.502c0,1.115-1.068,2.254-2.617,4.08L708.089,376h5.171V375.029z
					 M706.24,375.029h-3.252l1.345-1.452c1.38-1.501,2.171-2.629,2.171-3.864c0-1.477-0.982-2.376-2.664-2.376
					c-1.691,0-2.687,0.947-2.687,2.568c0,0.071,0.012,0.155,0.012,0.226h0.959v-0.095c0-1.14,0.601-1.765,1.68-1.765
					c1.033,0,1.693,0.637,1.693,1.502c0,1.115-1.068,2.254-2.617,4.08L701.069,376h5.171V375.029z"/>
			</g>
		</g>
		<g clip-path="url(#SVGID_22_)">
			<g>
				<defs>
					<rect id="SVGID_31_" x="660.2" y="366.085" width="37.714" height="11.144"/>
				</defs>
				<clipPath id="SVGID_32_">
					<use xlink:href="#SVGID_31_"  overflow="visible"/>
				</clipPath>
				<path clip-path="url(#SVGID_32_)" fill="#F9A25E" d="M684.318,373.504c0-1.128,0.696-1.908,1.717-1.908
					c1.141,0,1.824,0.732,1.824,1.896c0,1.141-0.708,1.885-1.765,1.885C685.015,375.377,684.318,374.669,684.318,373.504
					 M685.003,371.152l2.772-3.6l-0.888-0.468l-1.957,2.761c-0.948,1.342-1.667,2.338-1.667,3.574c0,1.682,1.055,2.809,2.627,2.809
					c1.873,0,3.024-1.115,3.024-2.832c0-1.572-1.056-2.651-2.593-2.651C685.843,370.745,685.423,370.877,685.003,371.152
					 M678.823,376h0.995v-8.495h-2.171l-0.576,0.888h1.752V376z M674.371,375.029h-3.252l1.345-1.452
					c1.38-1.501,2.171-2.629,2.171-3.864c0-1.477-0.983-2.376-2.664-2.376c-1.692,0-2.688,0.947-2.688,2.568
					c0,0.071,0.013,0.155,0.013,0.226h0.959v-0.095c0-1.14,0.6-1.765,1.68-1.765c1.033,0,1.693,0.637,1.693,1.502
					c0,1.115-1.068,2.254-2.617,4.08L669.199,376h5.172V375.029z"/>
			</g>
		</g>
		<g clip-path="url(#SVGID_22_)">
			<g>
				<defs>
					<rect id="SVGID_33_" x="628.33" y="366.337" width="37.667" height="10.892"/>
				</defs>
				<clipPath id="SVGID_34_">
					<use xlink:href="#SVGID_33_"  overflow="visible"/>
				</clipPath>
				<path clip-path="url(#SVGID_34_)" fill="#F9A25E" d="M654.982,376h1.007v-1.85h1.008v-0.825h-1.008v-5.988h-0.433l-4.595,6.813
					h4.021V376z M654.982,373.325h-2.509l2.509-3.769V373.325z M647.229,376.229c1.801,0,2.964-1.596,2.964-4.453
					c0-2.855-1.151-4.438-2.988-4.438c-1.788,0-2.963,1.606-2.963,4.438C644.242,374.609,645.417,376.229,647.229,376.229
					 M647.217,375.389c-1.188,0-1.92-1.295-1.92-3.625c0-2.315,0.732-3.6,1.92-3.6c1.249,0,1.921,1.236,1.921,3.624
					C649.138,374.165,648.466,375.389,647.217,375.389 M642.501,375.029h-3.252l1.345-1.452c1.38-1.501,2.171-2.629,2.171-3.864
					c0-1.477-0.982-2.376-2.663-2.376c-1.692,0-2.688,0.947-2.688,2.568c0,0.071,0.012,0.155,0.012,0.226h0.959v-0.095
					c0-1.14,0.601-1.765,1.681-1.765c1.032,0,1.692,0.637,1.692,1.502c0,1.115-1.067,2.254-2.617,4.08L637.33,376h5.171V375.029z"/>
			</g>
		</g>
		<g clip-path="url(#SVGID_22_)">
			<g>
				<defs>
					<rect id="SVGID_35_" x="597.312" y="366.337" width="36.622" height="11.131"/>
				</defs>
				<clipPath id="SVGID_36_">
					<use xlink:href="#SVGID_35_"  overflow="visible"/>
				</clipPath>
				<path clip-path="url(#SVGID_36_)" fill="#F9A25E" d="M624.672,375.028h-3.252l1.344-1.452c1.381-1.5,2.171-2.629,2.171-3.863
					c0-1.478-0.982-2.377-2.663-2.377c-1.693,0-2.687,0.947-2.687,2.568c0,0.072,0.012,0.155,0.012,0.227h0.958v-0.094
					c0-1.141,0.601-1.766,1.681-1.766c1.033,0,1.693,0.637,1.693,1.501c0,1.115-1.069,2.256-2.617,4.08L619.501,376h5.171V375.028z
					 M617.076,370.061c0,1.128-0.708,1.896-1.729,1.896c-1.141,0-1.813-0.732-1.813-1.896c0-1.141,0.709-1.885,1.766-1.885
					C616.381,368.176,617.076,368.896,617.076,370.061 M616.393,372.4l-2.773,3.612l0.889,0.455l1.957-2.761
					c0.946-1.342,1.653-2.326,1.653-3.562c0-1.682-1.054-2.809-2.627-2.809c-1.872,0-3.011,1.104-3.011,2.82
					c0,1.572,1.054,2.651,2.591,2.651C615.552,372.808,615.973,372.676,616.393,372.4 M608.064,376h0.995v-8.496h-2.171
					l-0.576,0.888h1.752V376z"/>
			</g>
		</g>
		<g clip-path="url(#SVGID_22_)">
			<g>
				<defs>
					<rect id="SVGID_37_" x="565.443" y="366.337" width="37.029" height="10.892"/>
				</defs>
				<clipPath id="SVGID_38_">
					<use xlink:href="#SVGID_37_"  overflow="visible"/>
				</clipPath>
				<path clip-path="url(#SVGID_38_)" fill="#F9A25E" d="M590.51,376.228c1.802,0,2.963-1.595,2.963-4.451s-1.149-4.44-2.986-4.44
					c-1.789,0-2.963,1.607-2.963,4.44C587.523,374.608,588.697,376.228,590.51,376.228 M590.498,375.389
					c-1.188,0-1.921-1.296-1.921-3.624c0-2.317,0.733-3.601,1.921-3.601c1.249,0,1.921,1.235,1.921,3.625
					C592.419,374.164,591.747,375.389,590.498,375.389 M583.49,368.115c0.937,0,1.513,0.541,1.513,1.43
					c0,0.863-0.552,1.392-1.537,1.392c-0.96,0-1.5-0.54-1.5-1.392C581.966,368.668,582.542,368.115,583.49,368.115 M583.479,375.4
					c-1.152,0-1.802-0.66-1.802-1.729c0-1.08,0.673-1.764,1.802-1.764s1.801,0.672,1.801,1.764
					C585.279,374.74,584.631,375.4,583.479,375.4 M582.362,371.465c-1.128,0.311-1.763,1.15-1.763,2.279
					c0,1.488,1.065,2.483,2.891,2.483c1.837,0,2.879-0.972,2.879-2.507c0-1.105-0.635-1.934-1.762-2.256
					c0.924-0.276,1.451-0.973,1.451-1.896c0-1.333-0.972-2.232-2.568-2.232c-1.572,0-2.579,0.924-2.579,2.148
					C580.911,370.504,581.402,371.164,582.362,371.465 M576.195,376h0.995v-8.496h-2.171l-0.576,0.888h1.752V376z"/>
			</g>
		</g>
		<g clip-path="url(#SVGID_22_)">
			<g>
				<defs>
					<rect id="SVGID_39_" x="533.574" y="366.337" width="36.945" height="10.892"/>
				</defs>
				<clipPath id="SVGID_40_">
					<use xlink:href="#SVGID_39_"  overflow="visible"/>
				</clipPath>
				<path clip-path="url(#SVGID_40_)" fill="#F9A25E" d="M558.641,368.115c0.937,0,1.513,0.541,1.513,1.43
					c0,0.863-0.552,1.392-1.537,1.392c-0.96,0-1.5-0.54-1.5-1.392C557.116,368.668,557.692,368.115,558.641,368.115 M558.629,375.4
					c-1.152,0-1.802-0.66-1.802-1.729c0-1.08,0.673-1.764,1.802-1.764s1.801,0.672,1.801,1.764
					C560.43,374.74,559.781,375.4,558.629,375.4 M557.513,371.465c-1.128,0.311-1.764,1.15-1.764,2.279
					c0,1.488,1.066,2.483,2.892,2.483c1.837,0,2.879-0.972,2.879-2.507c0-1.105-0.635-1.934-1.762-2.256
					c0.924-0.276,1.451-0.973,1.451-1.896c0-1.333-0.972-2.232-2.568-2.232c-1.573,0-2.579,0.924-2.579,2.148
					C556.062,370.504,556.553,371.164,557.513,371.465 M549.317,371.715c0.528-0.407,1.152-0.611,1.824-0.611
					c1.32,0,2.136,0.84,2.136,2.064c0,1.332-0.828,2.172-2.052,2.172c-0.84,0-1.5-0.42-1.884-1.211l-0.721,0.84
					c0.588,0.863,1.416,1.259,2.58,1.259c1.969,0,3.154-1.224,3.154-3.155c0-1.717-1.042-2.796-2.722-2.796
					c-0.48,0-0.925,0.097-1.332,0.312l0.54-2.209h3.07v-0.875h-3.767l-1.021,4.176L549.317,371.715z M544.325,376h0.995v-8.496
					h-2.171l-0.576,0.888h1.752V376z"/>
			</g>
		</g>
		<g clip-path="url(#SVGID_22_)">
			<g>
				<defs>
					<rect id="SVGID_41_" x="501.704" y="366.085" width="36.862" height="11.144"/>
				</defs>
				<clipPath id="SVGID_42_">
					<use xlink:href="#SVGID_41_"  overflow="visible"/>
				</clipPath>
				<path clip-path="url(#SVGID_42_)" fill="#F9A25E" d="M524.97,373.504c0-1.129,0.697-1.908,1.717-1.908
					c1.142,0,1.825,0.732,1.825,1.896c0,1.141-0.708,1.885-1.765,1.885C525.667,375.377,524.97,374.668,524.97,373.504
					 M525.655,371.152l2.772-3.601l-0.889-0.468l-1.956,2.761c-0.948,1.344-1.667,2.339-1.667,3.575
					c0,1.681,1.054,2.808,2.627,2.808c1.873,0,3.022-1.114,3.022-2.831c0-1.572-1.054-2.652-2.591-2.652
					C526.495,370.744,526.075,370.877,525.655,371.152 M517.448,371.715c0.527-0.407,1.151-0.611,1.823-0.611
					c1.32,0,2.137,0.84,2.137,2.064c0,1.332-0.828,2.172-2.053,2.172c-0.84,0-1.5-0.42-1.884-1.211l-0.72,0.84
					c0.588,0.863,1.416,1.259,2.58,1.259c1.968,0,3.154-1.224,3.154-3.155c0-1.717-1.043-2.796-2.723-2.796
					c-0.479,0-0.924,0.097-1.332,0.312l0.54-2.209h3.071v-0.875h-3.768l-1.02,4.176L517.448,371.715z M512.456,376h0.995v-8.496
					h-2.171l-0.576,0.888h1.752V376z"/>
			</g>
		</g>
		<g clip-path="url(#SVGID_22_)">
			<g>
				<defs>
					<rect id="SVGID_43_" x="469.834" y="366.337" width="36.815" height="10.663"/>
				</defs>
				<clipPath id="SVGID_44_">
					<use xlink:href="#SVGID_43_"  overflow="visible"/>
				</clipPath>
				<path clip-path="url(#SVGID_44_)" fill="#F9A25E" d="M495.635,376h1.006v-1.849h1.008v-0.825h-1.008v-5.99h-0.432l-4.595,6.815
					h4.021V376z M495.635,373.326h-2.509l2.509-3.77V373.326z M488.614,376h1.006v-1.849h1.008v-0.825h-1.008v-5.99h-0.431
					l-4.595,6.815h4.02V376z M488.614,373.326h-2.508l2.508-3.77V373.326z M480.586,376h0.994v-8.496h-2.17l-0.576,0.888h1.752V376z
					"/>
			</g>
		</g>
		<g clip-path="url(#SVGID_22_)">
			<g>
				<defs>
					<rect id="SVGID_45_" x="437.965" y="366.337" width="36.622" height="10.892"/>
				</defs>
				<clipPath id="SVGID_46_">
					<use xlink:href="#SVGID_45_"  overflow="visible"/>
				</clipPath>
				<path clip-path="url(#SVGID_46_)" fill="#F9A25E" d="M465.324,375.028h-3.252l1.344-1.452c1.381-1.5,2.171-2.629,2.171-3.863
					c0-1.478-0.982-2.377-2.663-2.377c-1.693,0-2.688,0.947-2.688,2.568c0,0.072,0.013,0.155,0.013,0.227h0.958v-0.094
					c0-1.141,0.601-1.766,1.681-1.766c1.033,0,1.693,0.637,1.693,1.501c0,1.115-1.069,2.256-2.617,4.08L460.152,376h5.172V375.028z
					 M453.121,373.828v0.156c0,1.355,1.008,2.243,2.604,2.243c1.824,0,2.878-0.959,2.878-2.495c0-1.165-0.61-1.945-1.63-2.111
					c0.959-0.252,1.523-0.984,1.523-2.004c0-1.394-0.972-2.281-2.567-2.281c-1.656,0-2.58,0.828-2.652,2.293h1.009
					c0.048-0.926,0.624-1.43,1.619-1.43c0.948,0,1.524,0.576,1.524,1.465c0,1.008-0.6,1.537-1.788,1.537
					c-0.096,0-0.18-0.013-0.275-0.013v0.839c0.107-0.012,0.203-0.012,0.3-0.012c1.235,0,1.872,0.576,1.872,1.682
					c0,1.043-0.637,1.656-1.776,1.656c-0.984,0-1.596-0.553-1.596-1.43v-0.096H453.121z M448.717,376h0.994v-8.496h-2.17
					l-0.576,0.888h1.752V376z"/>
			</g>
		</g>
		<g clip-path="url(#SVGID_22_)">
			<g>
				<defs>
					<rect id="SVGID_47_" x="406.095" y="366.337" width="37.031" height="10.892"/>
				</defs>
				<clipPath id="SVGID_48_">
					<use xlink:href="#SVGID_47_"  overflow="visible"/>
				</clipPath>
				<path clip-path="url(#SVGID_48_)" fill="#F9A25E" d="M431.162,376.228c1.801,0,2.963-1.595,2.963-4.451s-1.149-4.44-2.986-4.44
					c-1.789,0-2.964,1.607-2.964,4.44C428.175,374.608,429.35,376.228,431.162,376.228 M431.15,375.389
					c-1.188,0-1.921-1.296-1.921-3.624c0-2.317,0.732-3.601,1.921-3.601c1.249,0,1.921,1.235,1.921,3.625
					C433.071,374.164,432.399,375.389,431.15,375.389 M426.435,375.028h-3.252l1.344-1.452c1.381-1.5,2.171-2.629,2.171-3.863
					c0-1.478-0.982-2.377-2.663-2.377c-1.693,0-2.687,0.947-2.687,2.568c0,0.072,0.012,0.155,0.012,0.227h0.958v-0.094
					c0-1.141,0.601-1.766,1.681-1.766c1.033,0,1.693,0.637,1.693,1.501c0,1.115-1.069,2.256-2.617,4.08L421.264,376h5.171V375.028z
					 M416.848,376h0.994v-8.496h-2.171l-0.575,0.888h1.752V376z"/>
			</g>
		</g>
		<g clip-path="url(#SVGID_22_)">
			<g>
				<defs>
					<rect id="SVGID_49_" x="374.226" y="366.337" width="36.946" height="10.892"/>
				</defs>
				<clipPath id="SVGID_50_">
					<use xlink:href="#SVGID_49_"  overflow="visible"/>
				</clipPath>
				<path clip-path="url(#SVGID_50_)" fill="#F9A25E" d="M399.293,368.115c0.937,0,1.513,0.541,1.513,1.43
					c0,0.863-0.552,1.392-1.537,1.392c-0.96,0-1.5-0.54-1.5-1.392C397.769,368.668,398.345,368.115,399.293,368.115 M399.28,375.4
					c-1.151,0-1.801-0.66-1.801-1.729c0-1.08,0.673-1.764,1.801-1.764c1.13,0,1.802,0.672,1.802,1.764
					C401.082,374.74,400.434,375.4,399.28,375.4 M398.165,371.465c-1.128,0.311-1.764,1.15-1.764,2.279
					c0,1.488,1.066,2.483,2.892,2.483c1.837,0,2.879-0.972,2.879-2.507c0-1.105-0.635-1.934-1.762-2.256
					c0.924-0.276,1.45-0.973,1.45-1.896c0-1.333-0.971-2.232-2.567-2.232c-1.573,0-2.58,0.924-2.58,2.148
					C396.713,370.504,397.205,371.164,398.165,371.465 M392.272,376.228c1.801,0,2.963-1.595,2.963-4.451s-1.149-4.44-2.986-4.44
					c-1.789,0-2.963,1.607-2.963,4.44C389.286,374.608,390.46,376.228,392.272,376.228 M392.261,375.389
					c-1.188,0-1.921-1.296-1.921-3.624c0-2.317,0.732-3.601,1.921-3.601c1.249,0,1.921,1.235,1.921,3.625
					C394.182,374.164,393.51,375.389,392.261,375.389 M384.978,376h0.995v-8.496h-2.171l-0.576,0.888h1.752V376z"/>
			</g>
		</g>
		<g clip-path="url(#SVGID_22_)">
			<g>
				<defs>
					<rect id="SVGID_51_" x="345.014" y="366.085" width="30.695" height="11.383"/>
				</defs>
				<clipPath id="SVGID_52_">
					<use xlink:href="#SVGID_51_"  overflow="visible"/>
				</clipPath>
				<path clip-path="url(#SVGID_52_)" fill="#F9A25E" d="M362.113,373.504c0-1.127,0.695-1.908,1.716-1.908
					c1.141,0,1.825,0.732,1.825,1.896c0,1.141-0.709,1.885-1.765,1.885C362.809,375.377,362.113,374.67,362.113,373.504
					 M362.797,371.152l2.772-3.602l-0.888-0.465l-1.957,2.758c-0.948,1.345-1.667,2.34-1.667,3.576c0,1.682,1.056,2.807,2.627,2.807
					c1.873,0,3.024-1.113,3.024-2.83c0-1.573-1.055-2.651-2.591-2.651C363.637,370.745,363.217,370.877,362.797,371.152
					 M358.609,370.061c0,1.128-0.708,1.896-1.728,1.896c-1.141,0-1.813-0.732-1.813-1.896c0-1.141,0.708-1.885,1.766-1.885
					C357.914,368.176,358.609,368.896,358.609,370.061 M357.926,372.4l-2.773,3.613l0.889,0.453l1.957-2.758
					c0.947-1.345,1.654-2.328,1.654-3.564c0-1.682-1.055-2.807-2.627-2.807c-1.873,0-3.012,1.102-3.012,2.818
					c0,1.573,1.055,2.65,2.591,2.65C357.086,372.807,357.506,372.676,357.926,372.4"/>
			</g>
		</g>
		<g clip-path="url(#SVGID_22_)">
			<g>
				<defs>
					<rect id="SVGID_53_" x="313.133" y="366.337" width="30.658" height="10.892"/>
				</defs>
				<clipPath id="SVGID_54_">
					<use xlink:href="#SVGID_53_"  overflow="visible"/>
				</clipPath>
				<path clip-path="url(#SVGID_54_)" fill="#F9A25E" d="M332.776,375.999h1.007v-1.848h1.008v-0.826h-1.008v-5.987h-0.432
					l-4.596,6.813h4.021V375.999z M332.776,373.325h-2.508l2.508-3.769V373.325z M325.023,368.115c0.937,0,1.513,0.541,1.513,1.43
					c0,0.864-0.552,1.393-1.537,1.393c-0.96,0-1.5-0.54-1.5-1.393C323.499,368.668,324.075,368.115,325.023,368.115
					 M325.012,375.401c-1.152,0-1.801-0.66-1.801-1.729c0-1.08,0.672-1.765,1.801-1.765s1.801,0.673,1.801,1.765
					C326.812,374.741,326.164,375.401,325.012,375.401 M323.896,371.465c-1.128,0.312-1.764,1.151-1.764,2.279
					c0,1.489,1.067,2.482,2.892,2.482c1.837,0,2.88-0.969,2.88-2.506c0-1.104-0.635-1.933-1.763-2.256
					c0.924-0.276,1.45-0.972,1.45-1.896c0-1.333-0.971-2.23-2.567-2.23c-1.572,0-2.579,0.922-2.579,2.146
					C322.444,370.506,322.936,371.164,323.896,371.465"/>
			</g>
		</g>
		<g clip-path="url(#SVGID_22_)">
			<g>
				<defs>
					<rect id="SVGID_55_" x="281.647" y="366.337" width="30.081" height="10.987"/>
				</defs>
				<clipPath id="SVGID_56_">
					<use xlink:href="#SVGID_55_"  overflow="visible"/>
				</clipPath>
				<path clip-path="url(#SVGID_56_)" fill="#F9A25E" d="M302.466,375.029h-3.252l1.345-1.452c1.38-1.501,2.171-2.629,2.171-3.864
					c0-1.477-0.982-2.376-2.664-2.376c-1.691,0-2.687,0.947-2.687,2.568c0,0.071,0.012,0.155,0.012,0.227h0.959v-0.096
					c0-1.14,0.601-1.765,1.681-1.765c1.032,0,1.692,0.637,1.692,1.502c0,1.115-1.067,2.254-2.617,4.08L297.295,376h5.171V375.029z
					 M290.959,375.893l0.84,0.432l4.283-8.819h-5.436v0.888h3.972L290.959,375.893z"/>
			</g>
		</g>
		<g clip-path="url(#SVGID_22_)">
			<g>
				<defs>
					<rect id="SVGID_57_" x="249.429" y="366.085" width="30.839" height="11.144"/>
				</defs>
				<clipPath id="SVGID_58_">
					<use xlink:href="#SVGID_57_"  overflow="visible"/>
				</clipPath>
				<path clip-path="url(#SVGID_58_)" fill="#F9A25E" d="M268.305,376.228c1.801,0,2.964-1.595,2.964-4.451
					s-1.151-4.438-2.988-4.438c-1.788,0-2.963,1.605-2.963,4.438S266.492,376.228,268.305,376.228 M268.292,375.389
					c-1.188,0-1.92-1.297-1.92-3.625c0-2.316,0.732-3.6,1.92-3.6c1.249,0,1.921,1.235,1.921,3.625
					C270.213,374.164,269.541,375.389,268.292,375.389 M259.484,373.504c0-1.127,0.696-1.908,1.716-1.908
					c1.141,0,1.825,0.732,1.825,1.896c0,1.141-0.708,1.885-1.766,1.885C260.181,375.377,259.484,374.668,259.484,373.504
					 M260.168,371.152l2.773-3.602l-0.889-0.465l-1.957,2.758c-0.947,1.345-1.666,2.34-1.666,3.576c0,1.682,1.055,2.808,2.627,2.808
					c1.873,0,3.023-1.114,3.023-2.831c0-1.573-1.055-2.651-2.591-2.651C261.008,370.745,260.588,370.877,260.168,371.152"/>
			</g>
		</g>
		<g clip-path="url(#SVGID_22_)">
			<g>
				<defs>
					<rect id="SVGID_59_" x="217.128" y="366.337" width="31.187" height="10.892"/>
				</defs>
				<clipPath id="SVGID_60_">
					<use xlink:href="#SVGID_59_"  overflow="visible"/>
				</clipPath>
				<path clip-path="url(#SVGID_60_)" fill="#F9A25E" d="M236.435,368.115c0.938,0,1.514,0.541,1.514,1.429
					c0,0.865-0.553,1.394-1.537,1.394c-0.96,0-1.5-0.541-1.5-1.394C234.911,368.668,235.486,368.115,236.435,368.115 M236.423,375.4
					c-1.152,0-1.801-0.659-1.801-1.729c0-1.08,0.673-1.765,1.801-1.765c1.129,0,1.801,0.673,1.801,1.765
					C238.224,374.741,237.576,375.4,236.423,375.4 M235.307,371.464c-1.128,0.312-1.763,1.152-1.763,2.28
					c0,1.488,1.065,2.482,2.891,2.482c1.837,0,2.879-0.97,2.879-2.506c0-1.104-0.635-1.933-1.762-2.257
					c0.924-0.274,1.451-0.971,1.451-1.896c0-1.332-0.971-2.231-2.568-2.231c-1.571,0-2.579,0.923-2.579,2.147
					C233.855,370.505,234.347,371.165,235.307,371.464 M230.147,375.999h1.007v-1.849h1.008v-0.825h-1.008v-5.988h-0.432
					l-4.595,6.813h4.02V375.999z M230.147,373.325h-2.508l2.508-3.769V373.325z"/>
			</g>
		</g>
		<g clip-path="url(#SVGID_22_)">
			<g>
				<defs>
					<rect id="SVGID_61_" x="185.654" y="366.085" width="30.707" height="11.144"/>
				</defs>
				<clipPath id="SVGID_62_">
					<use xlink:href="#SVGID_61_"  overflow="visible"/>
				</clipPath>
				<path clip-path="url(#SVGID_62_)" fill="#F9A25E" d="M202.765,373.504c0-1.129,0.696-1.908,1.717-1.908
					c1.141,0,1.825,0.732,1.825,1.896c0,1.141-0.708,1.885-1.766,1.885C203.461,375.377,202.765,374.668,202.765,373.504
					 M203.449,371.152l2.773-3.602l-0.889-0.465l-1.957,2.758c-0.947,1.345-1.667,2.34-1.667,3.576c0,1.682,1.055,2.808,2.627,2.808
					c1.873,0,3.023-1.114,3.023-2.831c0-1.573-1.054-2.65-2.591-2.65C204.289,370.746,203.869,370.877,203.449,371.152
					 M194.654,373.828v0.156c0,1.357,1.008,2.243,2.604,2.243c1.824,0,2.88-0.958,2.88-2.495c0-1.165-0.612-1.943-1.632-2.111
					c0.959-0.252,1.523-0.984,1.523-2.005c0-1.393-0.971-2.278-2.567-2.278c-1.655,0-2.58,0.826-2.651,2.291h1.008
					c0.048-0.926,0.624-1.43,1.62-1.43c0.948,0,1.523,0.576,1.523,1.465c0,1.008-0.6,1.537-1.788,1.537
					c-0.096,0-0.18-0.012-0.275-0.012v0.838c0.107-0.012,0.204-0.012,0.3-0.012c1.236,0,1.872,0.576,1.872,1.681
					c0,1.044-0.636,1.657-1.776,1.657c-0.983,0-1.596-0.553-1.596-1.43v-0.096H194.654z"/>
			</g>
		</g>
		<g clip-path="url(#SVGID_22_)">
			<g>
				<defs>
					<rect id="SVGID_63_" x="153.797" y="366.337" width="30.646" height="10.663"/>
				</defs>
				<clipPath id="SVGID_64_">
					<use xlink:href="#SVGID_63_"  overflow="visible"/>
				</clipPath>
				<path clip-path="url(#SVGID_64_)" fill="#F9A25E" d="M173.429,376h1.007v-1.85h1.008v-0.825h-1.008v-5.988h-0.432l-4.596,6.813
					h4.021V376z M173.429,373.325h-2.508l2.508-3.769V373.325z M167.968,375.029h-3.252l1.345-1.452
					c1.38-1.501,2.171-2.629,2.171-3.864c0-1.477-0.982-2.376-2.664-2.376c-1.691,0-2.687,0.947-2.687,2.568
					c0,0.071,0.012,0.155,0.012,0.226h0.959v-0.095c0-1.14,0.6-1.765,1.68-1.765c1.033,0,1.693,0.637,1.693,1.502
					c0,1.115-1.068,2.254-2.617,4.08L162.797,376h5.171V375.029z"/>
			</g>
		</g>
		<g clip-path="url(#SVGID_22_)">
			<g>
				<defs>
					<rect id="SVGID_65_" x="122.779" y="366.337" width="29.603" height="10.663"/>
				</defs>
				<clipPath id="SVGID_66_">
					<use xlink:href="#SVGID_65_"  overflow="visible"/>
				</clipPath>
				<path clip-path="url(#SVGID_66_)" fill="#F9A25E" d="M143.118,375.028h-3.252l1.344-1.452c1.381-1.5,2.171-2.629,2.171-3.863
					c0-1.478-0.981-2.377-2.663-2.377c-1.692,0-2.687,0.947-2.687,2.568c0,0.072,0.012,0.155,0.012,0.227h0.958v-0.094
					c0-1.141,0.602-1.766,1.681-1.766c1.033,0,1.693,0.637,1.693,1.501c0,1.115-1.069,2.256-2.617,4.08L137.947,376h5.171V375.028z
					 M133.531,376h0.994v-8.496h-2.17l-0.576,0.888h1.752V376z"/>
			</g>
		</g>
		<g clip-path="url(#SVGID_22_)">
			<g>
				<defs>
					<rect id="SVGID_67_" x="93.46" y="366.337" width="23.95" height="10.892"/>
				</defs>
				<clipPath id="SVGID_68_">
					<use xlink:href="#SVGID_67_"  overflow="visible"/>
				</clipPath>
				<path clip-path="url(#SVGID_68_)" fill="#F9A25E" d="M105.447,376.229c1.801,0,2.963-1.596,2.963-4.453
					c0-2.855-1.15-4.438-2.987-4.438c-1.789,0-2.963,1.606-2.963,4.438C102.46,374.609,103.634,376.229,105.447,376.229
					 M105.435,375.389c-1.188,0-1.921-1.295-1.921-3.625c0-2.315,0.733-3.6,1.921-3.6c1.249,0,1.921,1.236,1.921,3.624
					C107.355,374.165,106.684,375.389,105.435,375.389"/>
			</g>
		</g>
		<path clip-path="url(#SVGID_22_)" fill="#F9A25E" d="M472.552,426.801c0.561,1.008,1.488,1.504,2.816,1.504
			c1.584,0,2.608-0.944,2.608-2.272c0-1.168-0.688-1.68-2.08-2.128c-1.185-0.384-1.84-0.479-1.84-1.232
			c0-0.623,0.495-1.071,1.216-1.071c0.752,0,1.344,0.368,1.632,1.023l0.992-0.607c-0.385-0.912-1.312-1.424-2.544-1.424
			c-1.521,0-2.528,0.911-2.528,2.159c0,1.408,1.056,1.713,2.816,2.32c0.752,0.256,1.119,0.544,1.119,1.088
			c0,0.624-0.527,1.072-1.344,1.072c-0.815,0-1.424-0.368-1.824-1.136L472.552,426.801z M465.512,428h1.217l0.016-3.775l3.68,3.775
			h1.712l-3.888-3.872l3.568-3.279h-1.632l-3.44,3.248l-0.016-8.208h-1.217V428z M462.424,423.616h-4.352
			c0.128-1.216,1.008-1.968,2.176-1.968C461.544,421.648,462.344,422.353,462.424,423.616 M463.736,424.608v-0.24
			c0-2.368-1.344-3.792-3.44-3.792c-2.08,0-3.567,1.568-3.567,3.824c0,2.336,1.472,3.904,3.647,3.904
			c1.473,0,2.592-0.656,3.312-1.952l-0.929-0.624c-0.592,1.04-1.359,1.552-2.319,1.552c-1.376,0-2.368-1.008-2.368-2.56v-0.112
			H463.736z M454.28,423.616h-4.353c0.129-1.216,1.009-1.968,2.177-1.968C453.4,421.648,454.2,422.353,454.28,423.616
			 M455.592,424.608v-0.24c0-2.368-1.344-3.792-3.439-3.792c-2.08,0-3.568,1.568-3.568,3.824c0,2.336,1.473,3.904,3.648,3.904
			c1.472,0,2.592-0.656,3.312-1.952l-0.928-0.624c-0.592,1.04-1.36,1.552-2.32,1.552c-1.376,0-2.368-1.008-2.368-2.56v-0.112
			H455.592z M433.32,416.561l4.432,11.888l2.977-8.848l2.991,8.848l4.433-11.888h-1.473l-2.911,8.416l-3.057-8.864l-3.023,8.864
			l-2.896-8.416H433.32z"/>
		<path clip-path="url(#SVGID_22_)" fill="#F9A25E" d="M661.324,28.792l0.832,0.432c1.231-2.288,1.855-4.864,1.855-7.728
			c0-2.96-0.576-5.504-1.855-7.76l-0.832,0.384c1.151,2.272,1.647,4.64,1.647,7.376C662.972,24.312,662.476,26.68,661.324,28.792
			 M652.22,22.824v0.208c0,1.808,1.345,2.992,3.473,2.992c2.432,0,3.84-1.28,3.84-3.328c0-1.552-0.816-2.592-2.176-2.816
			c1.279-0.336,2.031-1.312,2.031-2.672c0-1.856-1.296-3.04-3.424-3.04c-2.208,0-3.439,1.104-3.536,3.056h1.344
			c0.064-1.232,0.832-1.904,2.16-1.904c1.265,0,2.032,0.768,2.032,1.952c0,1.344-0.8,2.048-2.384,2.048
			c-0.128,0-0.24-0.016-0.368-0.016v1.12c0.145-0.016,0.272-0.016,0.4-0.016c1.647,0,2.496,0.768,2.496,2.24
			c0,1.392-0.849,2.208-2.368,2.208c-1.312,0-2.128-0.736-2.128-1.904v-0.128H652.22z M646.716,15.208
			c1.248,0,2.017,0.72,2.017,1.904c0,1.152-0.736,1.856-2.049,1.856c-1.279,0-2-0.72-2-1.856
			C644.684,15.944,645.452,15.208,646.716,15.208 M646.7,24.92c-1.536,0-2.4-0.88-2.4-2.304c0-1.44,0.896-2.352,2.4-2.352
			s2.399,0.896,2.399,2.352C649.1,24.041,648.236,24.92,646.7,24.92 M645.212,19.672c-1.504,0.416-2.352,1.536-2.352,3.04
			c0,1.984,1.424,3.312,3.855,3.312c2.448,0,3.84-1.296,3.84-3.344c0-1.472-0.848-2.576-2.352-3.008
			c1.231-0.368,1.936-1.296,1.936-2.528c0-1.776-1.296-2.976-3.424-2.976c-2.096,0-3.439,1.232-3.439,2.864
			C643.276,18.393,643.932,19.272,645.212,19.672 M634.428,25.576l1.12,0.576l5.712-11.76h-7.248v1.184h5.296L634.428,25.576z
			 M630.716,21.992h-9.359v0.912h9.359V21.992z M630.716,19h-9.359v0.912h9.359V19z M611.788,25.72h1.216v-3.696
			c0-0.784,0-1.376,0.416-1.888c0.4-0.496,1.024-0.768,1.744-0.768c1.28,0,1.904,0.704,1.904,2.144v4.208h1.216v-4.864
			c0-1.616-1.024-2.544-2.688-2.544c-1.12,0-1.983,0.432-2.592,1.36v-1.104h-1.216V25.72z M609.997,28.792
			c-1.152-2.112-1.649-4.48-1.649-7.296c0-2.736,0.497-5.104,1.649-7.376l-0.833-0.384c-1.279,2.256-1.855,4.8-1.855,7.76
			c0,2.864,0.623,5.44,1.855,7.728L609.997,28.792z M596.717,25.72h1.36V15.576h3.231V14.28h-7.823v1.296h3.231V25.72z
			 M588.685,25.72h1.36V15.576h3.232V14.28h-7.824v1.296h3.231V25.72z M582.637,25.72h1.36V14.28h-1.36V25.72z M574.301,22.216
			c0,1.648-0.896,2.592-2.336,2.592c-1.52,0-2.384-0.976-2.384-2.704c0-1.632,0.864-2.576,2.336-2.576
			C573.293,19.528,574.301,20.552,574.301,22.216 M575.485,18.568h-1.217v1.344c-0.544-1.056-1.424-1.6-2.624-1.6
			c-2,0-3.359,1.456-3.359,3.856c0,2.336,1.376,3.856,3.424,3.856c1.104,0,2.016-0.56,2.592-1.6v1.296h1.185V18.568z
			 M564.814,15.128c0,0.512,0.399,0.896,0.896,0.896s0.896-0.384,0.896-0.88s-0.399-0.912-0.896-0.912
			S564.814,14.632,564.814,15.128 M565.102,25.72h1.217v-7.152h-1.217V25.72z M557.214,25.72h6.224v-1.072h-4.063l4.096-6.08h-6
			v1.072h3.84L557.214,25.72z M554.686,25.72h1.217v-4.864c0-1.616-0.96-2.544-2.544-2.544c-1.089,0-1.921,0.464-2.544,1.456
			c-0.416-0.96-1.248-1.456-2.4-1.456c-1.072,0-1.888,0.448-2.464,1.36v-1.104h-1.216v7.152h1.216v-3.696
			c0-0.176-0.017-0.352-0.017-0.512c0-0.544,0.064-0.992,0.368-1.376c0.384-0.496,0.977-0.768,1.632-0.768
			c1.217,0,1.776,0.704,1.776,2.144v4.208h1.216v-3.696c0-0.16-0.016-0.304-0.016-0.448c0-0.592,0.08-1.04,0.384-1.44
			c0.384-0.496,0.96-0.768,1.616-0.768c1.216,0,1.775,0.704,1.775,2.144V25.72z M540.718,15.128c0,0.512,0.4,0.896,0.896,0.896
			s0.896-0.384,0.896-0.88s-0.399-0.912-0.896-0.912S540.718,14.632,540.718,15.128 M541.006,25.72h1.216v-7.152h-1.216V25.72z
			 M538.83,17.017V15.24c-1.184-0.816-2.4-1.232-3.76-1.232c-1.681,0-3.088,0.56-4.256,1.68c-1.2,1.168-1.793,2.592-1.793,4.368
			c0,2.032,0.912,3.76,2.576,4.912c0.992,0.688,2.16,1.056,3.376,1.056c1.393,0,2.721-0.432,3.856-1.248v-1.808
			c-1.04,1.216-2.304,1.808-3.744,1.808c-1.552,0-2.944-0.736-3.855-2.032c-0.528-0.752-0.784-1.648-0.784-2.704
			c0-1.344,0.432-2.464,1.312-3.376c0.848-0.88,2.064-1.392,3.264-1.392C536.51,15.272,537.726,15.816,538.83,17.017"/>
		<path clip-path="url(#SVGID_22_)" fill="#808285" d="M787.035,68.792l0.832,0.432c1.231-2.288,1.855-4.864,1.855-7.728
			c0-2.96-0.576-5.504-1.855-7.76l-0.832,0.384c1.152,2.272,1.647,4.64,1.647,7.376C788.683,64.312,788.188,66.68,787.035,68.792
			 M781.787,55.208c1.248,0,2.016,0.72,2.016,1.904c0,1.152-0.735,1.856-2.048,1.856c-1.28,0-2-0.72-2-1.856
			C779.755,55.944,780.523,55.208,781.787,55.208 M781.771,64.92c-1.536,0-2.4-0.88-2.4-2.304c0-1.44,0.896-2.352,2.4-2.352
			c1.504,0,2.399,0.896,2.399,2.352C784.171,64.041,783.307,64.92,781.771,64.92 M780.283,59.672
			c-1.504,0.416-2.353,1.536-2.353,3.04c0,1.984,1.425,3.312,3.856,3.312c2.448,0,3.84-1.296,3.84-3.344
			c0-1.472-0.848-2.576-2.352-3.008c1.231-0.368,1.936-1.296,1.936-2.528c0-1.776-1.296-2.976-3.424-2.976
			c-2.096,0-3.44,1.232-3.44,2.864C778.347,58.393,779.003,59.272,780.283,59.672 M772.427,66.024c2.4,0,3.952-2.128,3.952-5.936
			s-1.536-5.92-3.984-5.92c-2.384,0-3.951,2.144-3.951,5.92S770.011,66.024,772.427,66.024 M772.411,64.904
			c-1.584,0-2.561-1.728-2.561-4.832c0-3.088,0.977-4.8,2.561-4.8c1.664,0,2.56,1.648,2.56,4.832
			C774.971,63.272,774.075,64.904,772.411,64.904 M759.995,60.008c0.704-0.544,1.536-0.816,2.432-0.816
			c1.761,0,2.849,1.12,2.849,2.752c0,1.776-1.104,2.896-2.736,2.896c-1.12,0-2-0.56-2.512-1.616l-0.96,1.12
			c0.783,1.152,1.888,1.68,3.439,1.68c2.624,0,4.208-1.632,4.208-4.208c0-2.288-1.392-3.728-3.632-3.728
			c-0.64,0-1.232,0.128-1.776,0.416l0.721-2.944h4.096v-1.168h-5.024l-1.359,5.568L759.995,60.008z M756.427,61.992h-9.359v0.912
			h9.359V61.992z M756.427,59h-9.359v0.912h9.359V59z M737.499,65.72h1.216v-3.696c0-0.784,0-1.376,0.416-1.888
			c0.4-0.496,1.024-0.768,1.744-0.768c1.28,0,1.904,0.704,1.904,2.144v4.208h1.216v-4.864c0-1.616-1.024-2.544-2.688-2.544
			c-1.119,0-1.983,0.432-2.592,1.36v-1.104h-1.216V65.72z M735.707,68.792c-1.152-2.112-1.648-4.48-1.648-7.296
			c0-2.736,0.496-5.104,1.648-7.376l-0.832-0.384c-1.28,2.256-1.856,4.8-1.856,7.76c0,2.864,0.624,5.44,1.856,7.728L735.707,68.792z
			 M721.146,64.521c0.561,1.008,1.488,1.504,2.816,1.504c1.584,0,2.608-0.944,2.608-2.272c0-1.168-0.688-1.68-2.08-2.128
			c-1.185-0.384-1.84-0.48-1.84-1.232c0-0.624,0.495-1.072,1.216-1.072c0.752,0,1.344,0.368,1.632,1.024l0.992-0.608
			c-0.384-0.912-1.312-1.424-2.544-1.424c-1.521,0-2.528,0.912-2.528,2.16c0,1.408,1.056,1.712,2.816,2.32
			c0.752,0.256,1.12,0.544,1.12,1.088c0,0.624-0.528,1.072-1.345,1.072c-0.815,0-1.424-0.368-1.823-1.136L721.146,64.521z
			 M716.379,65.72h1.216v-3.488c0-1.872,0.641-2.8,1.937-2.8c0.224,0,0.479,0.048,0.752,0.144l0.416-1.104
			c-0.272-0.096-0.544-0.144-0.832-0.144c-1.088,0-1.76,0.512-2.4,1.728v-1.488h-1.088V65.72z M713.291,61.336h-4.352
			c0.128-1.216,1.008-1.968,2.176-1.968C712.411,59.368,713.211,60.072,713.291,61.336 M714.603,62.328v-0.24
			c0-2.368-1.344-3.792-3.439-3.792c-2.08,0-3.568,1.568-3.568,3.824c0,2.336,1.473,3.904,3.648,3.904
			c1.472,0,2.592-0.656,3.312-1.952l-0.928-0.624c-0.592,1.04-1.36,1.552-2.32,1.552c-1.376,0-2.367-1.008-2.367-2.56v-0.112
			H714.603z M704.348,59.576v6.144h1.217v-6.144h1.344v-1.008h-1.344v-2.88h-1.217v2.88h-1.312v1.008H704.348z M701.084,61.336
			h-4.352c0.128-1.216,1.008-1.968,2.176-1.968C700.204,59.368,701.004,60.072,701.084,61.336 M702.396,62.328v-0.24
			c0-2.368-1.345-3.792-3.44-3.792c-2.08,0-3.568,1.568-3.568,3.824c0,2.336,1.473,3.904,3.648,3.904
			c1.472,0,2.592-0.656,3.312-1.952l-0.928-0.624c-0.592,1.04-1.36,1.552-2.32,1.552c-1.376,0-2.367-1.008-2.367-2.56v-0.112
			H702.396z M692.284,65.72h1.216V53.608h-1.216V65.72z M684.332,62.168c0-1.696,0.928-2.672,2.4-2.672
			c1.424,0,2.319,1.024,2.319,2.816c0,1.584-0.88,2.512-2.304,2.512C685.308,64.824,684.332,63.784,684.332,62.168 M683.148,69.208
			h1.216v-4.784c0.544,1.056,1.424,1.6,2.607,1.6c2,0,3.376-1.44,3.376-3.856c0-2.352-1.376-3.856-3.424-3.856
			c-1.104,0-2.048,0.56-2.607,1.6v-1.344h-1.168V69.208z M679.612,65.72h1.216v-4.864c0-1.616-0.96-2.544-2.544-2.544
			c-1.088,0-1.92,0.464-2.544,1.456c-0.416-0.96-1.248-1.456-2.4-1.456c-1.072,0-1.888,0.448-2.464,1.36v-1.104h-1.216v7.152h1.216
			v-3.696c0-0.176-0.016-0.352-0.016-0.512c0-0.544,0.063-0.992,0.367-1.376c0.385-0.496,0.977-0.768,1.633-0.768
			c1.216,0,1.775,0.704,1.775,2.144v4.208h1.216v-3.696c0-0.16-0.016-0.304-0.016-0.448c0-0.592,0.08-1.04,0.384-1.44
			c0.384-0.496,0.96-0.768,1.616-0.768c1.216,0,1.776,0.704,1.776,2.144V65.72z M661.356,62.168c0-1.52,1.151-2.704,2.592-2.704
			c1.424,0,2.576,1.184,2.576,2.704s-1.152,2.704-2.576,2.704S661.356,63.688,661.356,62.168 M660.06,62.168
			c0,1.04,0.385,1.968,1.137,2.72c0.735,0.736,1.695,1.136,2.752,1.136c1.04,0,2-0.416,2.752-1.152
			c0.735-0.72,1.136-1.664,1.136-2.704s-0.4-2-1.136-2.72c-0.752-0.736-1.696-1.136-2.752-1.136c-1.057,0-2.017,0.384-2.752,1.12
			C660.444,60.168,660.06,61.128,660.06,62.168 M658.525,57.017V55.24c-1.185-0.816-2.4-1.232-3.761-1.232
			c-1.68,0-3.088,0.56-4.256,1.68c-1.2,1.168-1.792,2.592-1.792,4.368c0,2.032,0.912,3.76,2.576,4.912
			c0.992,0.688,2.16,1.056,3.376,1.056c1.392,0,2.72-0.432,3.856-1.248v-1.808c-1.04,1.216-2.305,1.808-3.744,1.808
			c-1.553,0-2.944-0.736-3.856-2.032c-0.528-0.752-0.784-1.648-0.784-2.704c0-1.344,0.433-2.464,1.312-3.376
			c0.848-0.88,2.063-1.392,3.264-1.392C656.205,55.272,657.421,55.816,658.525,57.017 M640.925,62.216
			c0,1.648-0.896,2.592-2.336,2.592c-1.52,0-2.384-0.976-2.384-2.704c0-1.632,0.864-2.576,2.336-2.576
			C639.917,59.528,640.925,60.552,640.925,62.216 M642.109,58.568h-1.217v1.344c-0.544-1.056-1.424-1.6-2.624-1.6
			c-2,0-3.359,1.456-3.359,3.856c0,2.336,1.376,3.856,3.424,3.856c1.104,0,2.016-0.56,2.592-1.6v1.296h1.185V58.568z
			 M631.438,55.128c0,0.512,0.399,0.896,0.896,0.896s0.896-0.384,0.896-0.88s-0.399-0.912-0.896-0.912
			S631.438,54.632,631.438,55.128 M631.725,65.72h1.217v-7.152h-1.217V65.72z M623.837,65.72h6.224v-1.072h-4.063l4.096-6.08h-6
			v1.072h3.84L623.837,65.72z M621.309,65.72h1.217v-4.864c0-1.616-0.96-2.544-2.545-2.544c-1.088,0-1.92,0.464-2.543,1.456
			c-0.416-0.96-1.248-1.456-2.4-1.456c-1.072,0-1.888,0.448-2.464,1.36v-1.104h-1.216v7.152h1.216v-3.696
			c0-0.176-0.017-0.352-0.017-0.512c0-0.544,0.064-0.992,0.368-1.376c0.384-0.496,0.977-0.768,1.632-0.768
			c1.217,0,1.776,0.704,1.776,2.144v4.208h1.216v-3.696c0-0.16-0.016-0.304-0.016-0.448c0-0.592,0.08-1.04,0.384-1.44
			c0.384-0.496,0.96-0.768,1.616-0.768c1.216,0,1.775,0.704,1.775,2.144V65.72z M607.341,55.128c0,0.512,0.4,0.896,0.896,0.896
			s0.896-0.384,0.896-0.88s-0.399-0.912-0.896-0.912S607.341,54.632,607.341,55.128 M607.629,65.72h1.216v-7.152h-1.216V65.72z
			 M605.453,57.017V55.24c-1.185-0.816-2.4-1.232-3.76-1.232c-1.681,0-3.088,0.56-4.256,1.68c-1.2,1.168-1.793,2.592-1.793,4.368
			c0,2.032,0.912,3.76,2.576,4.912c0.992,0.688,2.16,1.056,3.376,1.056c1.393,0,2.721-0.432,3.856-1.248v-1.808
			c-1.04,1.216-2.304,1.808-3.744,1.808c-1.552,0-2.944-0.736-3.856-2.032c-0.527-0.752-0.783-1.648-0.783-2.704
			c0-1.344,0.432-2.464,1.312-3.376c0.848-0.88,2.064-1.392,3.264-1.392C603.133,55.272,604.349,55.816,605.453,57.017
			 M588.59,64.424h-4.336l1.792-1.936c1.84-2,2.896-3.504,2.896-5.152c0-1.968-1.312-3.168-3.553-3.168
			c-2.256,0-3.584,1.264-3.584,3.424c0,0.096,0.017,0.208,0.017,0.304h1.278v-0.128c0-1.52,0.802-2.352,2.241-2.352
			c1.376,0,2.256,0.848,2.256,2c0,1.488-1.424,3.008-3.487,5.44l-2.416,2.864h6.896V64.424z M573.102,60.008
			c0.704-0.544,1.536-0.816,2.433-0.816c1.76,0,2.848,1.12,2.848,2.752c0,1.776-1.104,2.896-2.735,2.896c-1.12,0-2-0.56-2.513-1.616
			l-0.96,1.12c0.784,1.152,1.889,1.68,3.44,1.68c2.624,0,4.208-1.632,4.208-4.208c0-2.288-1.393-3.728-3.632-3.728
			c-0.641,0-1.232,0.128-1.776,0.416l0.72-2.944h4.097v-1.168h-5.024l-1.36,5.568L573.102,60.008z M560.254,65.72h1.216l0.017-3.776
			l3.68,3.776h1.712l-3.888-3.872l3.567-3.28h-1.632l-3.439,3.248l-0.017-8.208h-1.216V65.72z M557.166,61.336h-4.352
			c0.128-1.216,1.008-1.968,2.176-1.968C556.286,59.368,557.086,60.072,557.166,61.336 M558.478,62.328v-0.24
			c0-2.368-1.344-3.792-3.439-3.792c-2.08,0-3.568,1.568-3.568,3.824c0,2.336,1.473,3.904,3.648,3.904
			c1.472,0,2.592-0.656,3.312-1.952l-0.928-0.624c-0.592,1.04-1.36,1.552-2.32,1.552c-1.376,0-2.367-1.008-2.367-2.56v-0.112
			H558.478z M549.021,61.336h-4.352c0.128-1.216,1.008-1.968,2.176-1.968C548.142,59.368,548.942,60.072,549.021,61.336
			 M550.334,62.328v-0.24c0-2.368-1.344-3.792-3.44-3.792c-2.079,0-3.567,1.568-3.567,3.824c0,2.336,1.472,3.904,3.647,3.904
			c1.473,0,2.593-0.656,3.312-1.952l-0.928-0.624c-0.593,1.04-1.36,1.552-2.32,1.552c-1.376,0-2.368-1.008-2.368-2.56v-0.112
			H550.334z M528.062,54.28l4.432,11.888l2.976-8.848l2.992,8.848l4.432-11.888h-1.472l-2.912,8.416l-3.056-8.864l-3.024,8.864
			l-2.896-8.416H528.062z"/>
	</g>
	<line clip-path="url(#SVGID_2_)" fill="none" stroke="#F9A25E" stroke-width="2" x1="468.981" y1="20.5" x2="513.981" y2="20.5"/>
	<line clip-path="url(#SVGID_2_)" fill="none" stroke="#808285" stroke-width="2" x1="468.981" y1="60" x2="513.981" y2="60"/>
	<g clip-path="url(#SVGID_2_)">
		<defs>
			<rect id="SVGID_69_" x="-9" y="-1" width="930" height="482.252"/>
		</defs>
		<clipPath id="SVGID_70_">
			<use xlink:href="#SVGID_69_"  overflow="visible"/>
		</clipPath>
		<path clip-path="url(#SVGID_70_)" fill="#808285" d="M233,305c2.761,0,5-2.238,5-5c0-2.761-2.239-5-5-5s-5,2.239-5,5
			C228,302.762,230.239,305,233,305"/>
		<path clip-path="url(#SVGID_70_)" fill="#808285" d="M335.57,305.721h6.031v-1.264h-4.672v-4.385h4.672v-1.264h-4.672v-3.28h4.672
			v-1.248h-6.031V305.721z M328.354,305.721h5.681v-1.297h-4.32V294.28h-1.36V305.721z M320.099,304.744
			c-1.264,0-2.399-0.48-3.312-1.392c-0.896-0.912-1.376-2.048-1.376-3.328s0.479-2.448,1.376-3.36
			c0.88-0.896,2.048-1.375,3.312-1.375c1.265,0,2.416,0.479,3.312,1.375c0.896,0.896,1.376,2.08,1.376,3.36s-0.48,2.433-1.376,3.328
			C322.499,304.264,321.347,304.744,320.099,304.744 M326.211,300.024c0-1.632-0.608-3.12-1.776-4.256
			c-1.151-1.12-2.72-1.744-4.336-1.744c-1.615,0-3.168,0.624-4.319,1.744c-1.168,1.136-1.792,2.624-1.792,4.256
			s0.624,3.104,1.792,4.239c1.151,1.121,2.704,1.761,4.319,1.761c1.601,0,3.168-0.624,4.336-1.761
			C325.587,303.145,326.211,301.656,326.211,300.024 M301.443,302.168c0-1.52,1.151-2.703,2.592-2.703
			c1.424,0,2.576,1.184,2.576,2.703c0,1.521-1.152,2.705-2.576,2.705S301.443,303.688,301.443,302.168 M300.147,302.168
			c0,1.041,0.384,1.969,1.136,2.721c0.735,0.736,1.695,1.136,2.752,1.136c1.04,0,2-0.416,2.752-1.151
			c0.736-0.721,1.136-1.664,1.136-2.705c0-1.039-0.399-2-1.136-2.72c-0.752-0.735-1.696-1.136-2.752-1.136
			c-1.057,0-2.017,0.384-2.752,1.119C300.531,300.168,300.147,301.129,300.147,302.168 M296.851,299.576v6.145h1.217v-6.145h1.344
			v-1.008h-1.344v-2.88h-1.217v2.88h-1.312v1.008H296.851z M287.827,305.721h1.216v-3.696c0-0.784,0-1.376,0.416-1.888
			c0.4-0.496,1.024-0.769,1.744-0.769c1.28,0,1.904,0.704,1.904,2.144v4.209h1.216v-4.864c0-1.616-1.024-2.544-2.688-2.544
			c-1.12,0-1.983,0.432-2.592,1.359v-1.104h-1.216V305.721z M283.811,295.129c0,0.512,0.4,0.896,0.896,0.896s0.896-0.384,0.896-0.88
			s-0.399-0.912-0.896-0.912S283.811,294.633,283.811,295.129 M284.099,305.721h1.217v-7.152h-1.217V305.721z M272.148,309.209
			h1.376l4.8-10.641h-1.344l-2.208,5.137l-2.08-5.137h-1.408l2.8,6.448L272.148,309.209z M266.916,305.721h1.216v-3.488
			c0-1.872,0.641-2.801,1.937-2.801c0.224,0,0.479,0.049,0.752,0.145l0.416-1.104c-0.272-0.096-0.544-0.145-0.832-0.145
			c-1.088,0-1.761,0.512-2.4,1.729v-1.488h-1.088V305.721z M263.028,299.576v6.145h1.216v-6.145h1.344v-1.008h-1.344v-2.88h-1.216
			v2.88h-1.312v1.008H263.028z M254.004,305.721h1.216v-3.696c0-0.784,0-1.376,0.416-1.888c0.4-0.496,1.024-0.769,1.744-0.769
			c1.28,0,1.904,0.704,1.904,2.144v4.209h1.216v-4.864c0-1.616-1.024-2.544-2.688-2.544c-1.119,0-1.983,0.432-2.592,1.359v-1.104
			h-1.216V305.721z M245.876,305.721h6.032v-1.264h-4.672v-4.385h4.672v-1.264h-4.672v-3.28h4.672v-1.248h-6.032V305.721z"/>
		<path clip-path="url(#SVGID_70_)" fill="#808285" d="M529.706,472.295h-2.369l0.979-1.058c1.007-1.095,1.583-1.916,1.583-2.816
			c0-1.077-0.716-1.73-1.94-1.73c-1.234,0-1.959,0.688-1.959,1.87c0,0.053,0.009,0.113,0.009,0.165h0.699v-0.068
			c0-0.831,0.437-1.286,1.225-1.286c0.752,0,1.233,0.464,1.233,1.094c0,0.812-0.779,1.644-1.907,2.973l-1.32,1.564h3.769V472.295z
			 M522.434,477.278c0,0.479,0.375,0.854,0.869,0.854c0.495,0,0.884-0.375,0.884-0.854c0-0.48-0.389-0.869-0.884-0.869
			C522.824,476.409,522.434,476.798,522.434,477.278 M517.679,477.997h1.258v-2.311h1.261v-1.032h-1.261v-7.485h-0.539l-5.743,8.518
			h5.024V477.997z M517.679,474.654h-3.135l3.135-4.711V474.654z M507.644,477.997h1.243v-10.618h-2.713l-0.72,1.108h2.189V477.997z
			 M499.213,478.282c2.251,0,3.704-1.993,3.704-5.564s-1.438-5.549-3.734-5.549c-2.235,0-3.704,2.008-3.704,5.549
			S496.947,478.282,499.213,478.282 M499.198,477.234c-1.485,0-2.401-1.62-2.401-4.531c0-2.896,0.916-4.501,2.401-4.501
			c1.561,0,2.4,1.545,2.4,4.531C501.599,475.704,500.759,477.234,499.198,477.234 M493.303,476.784h-4.064l1.681-1.816
			c1.725-1.875,2.713-3.286,2.713-4.829c0-1.847-1.228-2.97-3.329-2.97c-2.116,0-3.358,1.183-3.358,3.21
			c0,0.089,0.015,0.194,0.015,0.283h1.198v-0.119c0-1.425,0.751-2.206,2.101-2.206c1.291,0,2.116,0.796,2.116,1.877
			c0,1.394-1.335,2.819-3.271,5.099l-2.264,2.685h6.464V476.784z M479.324,477.997h1.138v-11.354h-1.138V477.997z M475.935,474.713
			c0,1.545-0.841,2.431-2.19,2.431c-1.426,0-2.236-0.916-2.236-2.535c0-1.531,0.811-2.416,2.191-2.416
			C474.989,472.192,475.935,473.152,475.935,474.713 M477.043,471.294h-1.138v1.258c-0.512-0.99-1.336-1.498-2.461-1.498
			c-1.876,0-3.149,1.363-3.149,3.614c0,2.191,1.288,3.614,3.209,3.614c1.035,0,1.89-0.523,2.431-1.498v1.213h1.108V471.294z
			 M462.825,472.237v5.76h1.138v-5.76h1.26v-0.943h-1.26v-2.7h-1.138v2.7h-1.23v0.943H462.825z M459.765,473.889h-4.082
			c0.12-1.141,0.945-1.847,2.041-1.847C458.939,472.042,459.689,472.703,459.765,473.889 M460.993,474.817v-0.226
			c0-2.22-1.258-3.553-3.225-3.553c-1.95,0-3.344,1.468-3.344,3.583c0,2.19,1.378,3.66,3.419,3.66c1.381,0,2.43-0.614,3.104-1.829
			l-0.869-0.585c-0.554,0.976-1.275,1.456-2.175,1.456c-1.291,0-2.222-0.946-2.222-2.402v-0.104H460.993z M443.04,477.997h5.653
			v-1.184h-4.381v-4.111h4.381v-1.184h-4.381v-3.076h4.381v-1.168h-5.653V477.997z M435.689,473.889h-4.082
			c0.12-1.141,0.946-1.847,2.041-1.847C434.865,472.042,435.615,472.703,435.689,473.889 M436.918,474.817v-0.226
			c0-2.22-1.258-3.553-3.224-3.553c-1.951,0-3.345,1.468-3.345,3.583c0,2.19,1.378,3.66,3.419,3.66c1.382,0,2.431-0.614,3.104-1.829
			l-0.868-0.585c-0.555,0.976-1.275,1.456-2.176,1.456c-1.29,0-2.222-0.946-2.222-2.402v-0.104H436.918z M422.655,477.997h1.138
			v-3.464c0-0.735,0-1.291,0.391-1.771c0.375-0.465,0.96-0.72,1.636-0.72c1.2,0,1.785,0.66,1.785,2.011v3.944h1.139v-4.561
			c0-1.515-0.958-2.383-2.519-2.383c-1.051,0-1.86,0.404-2.432,1.273v-1.034h-1.138V477.997z M414.869,474.668
			c0-1.426,1.08-2.536,2.431-2.536c1.335,0,2.415,1.11,2.415,2.536c0,1.425-1.08,2.536-2.415,2.536
			C415.964,477.204,414.869,476.093,414.869,474.668 M413.655,474.668c0,0.975,0.359,1.846,1.063,2.551
			c0.69,0.689,1.59,1.063,2.581,1.063c0.976,0,1.875-0.39,2.58-1.078c0.689-0.675,1.064-1.562,1.064-2.536s-0.375-1.876-1.064-2.551
			c-0.705-0.689-1.59-1.063-2.58-1.063c-0.991,0-1.891,0.359-2.581,1.048C414.015,472.792,413.655,473.693,413.655,474.668
			 M410.565,472.237v5.76h1.139v-5.76h1.26v-0.943h-1.26v-2.7h-1.139v2.7h-1.229v0.943H410.565z M403.651,476.874
			c0.523,0.944,1.393,1.408,2.639,1.408c1.485,0,2.444-0.883,2.444-2.129c0-1.096-0.645-1.575-1.949-1.995
			c-1.111-0.36-1.727-0.45-1.727-1.156c0-0.585,0.465-1.005,1.142-1.005c0.705,0,1.261,0.345,1.529,0.96l0.93-0.57
			c-0.359-0.854-1.229-1.333-2.384-1.333c-1.427,0-2.369,0.854-2.369,2.023c0,1.321,0.987,1.605,2.639,2.176
			c0.705,0.24,1.051,0.51,1.051,1.021c0,0.585-0.496,1.005-1.261,1.005c-0.766,0-1.336-0.346-1.71-1.065L403.651,476.874z
			 M397.561,481.252h1.289l4.499-9.958h-1.26l-2.069,4.807l-1.948-4.807h-1.32l2.624,6.035L397.561,481.252z M394.951,473.889
			h-4.082c0.12-1.141,0.945-1.847,2.041-1.847C394.126,472.042,394.876,472.703,394.951,473.889 M396.179,474.817v-0.226
			c0-2.22-1.258-3.553-3.224-3.553c-1.951,0-3.344,1.468-3.344,3.583c0,2.19,1.378,3.66,3.419,3.66c1.381,0,2.43-0.614,3.104-1.829
			l-0.868-0.585c-0.555,0.976-1.274,1.456-2.176,1.456c-1.29,0-2.221-0.946-2.221-2.402v-0.104H396.179z M381.526,477.997h1.272
			v-5.774l4.815,5.774h1.649l-5.055-5.895l4.604-4.828h-1.529l-4.485,4.769v-4.769h-1.272V477.997z M373.741,477.997h1.138v-4.561
			c0-1.515-0.898-2.383-2.383-2.383c-1.021,0-1.801,0.435-2.386,1.363c-0.391-0.899-1.17-1.363-2.249-1.363
			c-1.007,0-1.771,0.419-2.312,1.273v-1.034h-1.138v6.704h1.138v-3.464c0-0.165-0.015-0.33-0.015-0.48
			c0-0.511,0.06-0.931,0.346-1.291c0.36-0.465,0.915-0.72,1.53-0.72c1.141,0,1.666,0.66,1.666,2.011v3.944h1.138v-3.464
			c0-0.15-0.015-0.285-0.015-0.42c0-0.557,0.074-0.977,0.36-1.352c0.36-0.465,0.9-0.72,1.516-0.72c1.141,0,1.666,0.66,1.666,2.011
			V477.997z M356.625,474.668c0-1.426,1.08-2.536,2.431-2.536c1.335,0,2.416,1.11,2.416,2.536c0,1.425-1.081,2.536-2.416,2.536
			C357.72,477.204,356.625,476.093,356.625,474.668 M355.412,474.668c0,0.975,0.358,1.846,1.062,2.551
			c0.69,0.689,1.59,1.063,2.581,1.063c0.976,0,1.875-0.39,2.58-1.078c0.689-0.675,1.064-1.562,1.064-2.536s-0.375-1.876-1.064-2.551
			c-0.705-0.689-1.59-1.063-2.58-1.063c-0.991,0-1.891,0.359-2.581,1.048C355.771,472.792,355.412,473.693,355.412,474.668
			 M350.777,477.997h1.138v-3.27c0-1.756,0.6-2.626,1.814-2.626c0.21,0,0.45,0.045,0.705,0.136l0.391-1.033
			c-0.255-0.09-0.511-0.135-0.78-0.135c-1.02,0-1.65,0.479-2.25,1.617v-1.394h-1.018V477.997z M346.802,477.997h1.138v-5.76h1.785
			v-0.943h-1.785v-1.786c0-1.291,0.03-1.906,0.886-1.906c0.3,0,0.6,0.075,0.899,0.24v-1.183c-0.314-0.105-0.645-0.15-0.989-0.15
			c-1.604,0-1.934,0.838-1.934,2.85v1.936h-1.29v0.943h1.29V477.997z M338.777,474.683c0,1.592-0.87,2.491-2.252,2.491
			c-1.336,0-2.176-0.96-2.176-2.641c0-1.486,0.825-2.341,2.161-2.341C337.862,472.192,338.777,473.167,338.777,474.683
			 M339.885,466.644h-1.138v5.908c-0.51-0.989-1.336-1.498-2.446-1.498c-1.876,0-3.164,1.363-3.164,3.614
			c0,2.191,1.288,3.614,3.209,3.614c1.035,0,1.906-0.539,2.432-1.498v1.213h1.107V466.644z M330.767,473.889h-4.082
			c0.12-1.141,0.946-1.847,2.041-1.847C329.941,472.042,330.691,472.703,330.767,473.889 M331.995,474.817v-0.226
			c0-2.22-1.258-3.553-3.225-3.553c-1.95,0-3.344,1.468-3.344,3.583c0,2.19,1.378,3.66,3.419,3.66c1.381,0,2.43-0.614,3.104-1.829
			l-0.868-0.585c-0.555,0.976-1.275,1.456-2.176,1.456c-1.29,0-2.222-0.946-2.222-2.402v-0.104H331.995z M322.382,472.237v5.76
			h1.138v-5.76h1.261v-0.943h-1.261v-2.7h-1.138v2.7h-1.229v0.943H322.382z M314.806,474.668c0-1.591,0.87-2.506,2.25-2.506
			c1.336,0,2.176,0.96,2.176,2.641c0,1.486-0.824,2.356-2.16,2.356C315.721,477.159,314.806,476.184,314.806,474.668
			 M313.697,481.252h1.139v-4.468c0.51,0.989,1.335,1.498,2.446,1.498c1.875,0,3.164-1.349,3.164-3.614
			c0-2.206-1.289-3.614-3.209-3.614c-1.036,0-1.922,0.524-2.446,1.498v-1.259h-1.094V481.252z M310.368,474.713
			c0,1.545-0.841,2.431-2.191,2.431c-1.426,0-2.236-0.916-2.236-2.535c0-1.531,0.811-2.416,2.191-2.416
			C309.422,472.192,310.368,473.152,310.368,474.713 M311.476,471.294h-1.138v1.258c-0.511-0.99-1.336-1.498-2.461-1.498
			c-1.876,0-3.149,1.363-3.149,3.614c0,2.191,1.288,3.614,3.209,3.614c1.035,0,1.891-0.523,2.432-1.498v1.213h1.107V471.294z
			 M301.863,474.683c0,1.592-0.871,2.491-2.251,2.491c-1.337,0-2.177-0.96-2.177-2.641c0-1.486,0.825-2.341,2.161-2.341
			C300.947,472.192,301.863,473.167,301.863,474.683 M302.971,466.644h-1.138v5.908c-0.51-0.989-1.336-1.498-2.446-1.498
			c-1.876,0-3.164,1.363-3.164,3.614c0,2.191,1.288,3.614,3.209,3.614c1.035,0,1.906-0.539,2.432-1.498v1.213h1.107V466.644z
			 M290.941,469.673l1.709,3.946h-3.419L290.941,469.673z M290.941,466.854l-4.858,11.144h1.379l1.395-3.285h4.185l1.395,3.285h1.38
			L290.941,466.854z M278.897,477.278c0,0.479,0.374,0.854,0.869,0.854c0.494,0,0.884-0.375,0.884-0.854
			c0-0.48-0.39-0.869-0.884-0.869C279.287,476.409,278.897,476.798,278.897,477.278 M271.113,477.997h5.652v-1.184h-4.38v-4.111
			h4.38v-1.184h-4.38v-3.076h4.38v-1.168h-5.652V477.997z M264.348,477.997h5.323v-1.213h-4.05v-9.51h-1.273V477.997z
			 M256.606,477.084c-1.185,0-2.25-0.45-3.105-1.305c-0.84-0.856-1.29-1.921-1.29-3.121s0.45-2.296,1.29-3.151
			c0.826-0.84,1.921-1.29,3.105-1.29c1.186,0,2.267,0.45,3.106,1.29s1.29,1.951,1.29,3.151s-0.45,2.279-1.29,3.121
			C258.857,476.634,257.777,477.084,256.606,477.084 M262.336,472.658c0-1.53-0.569-2.926-1.663-3.991
			c-1.08-1.049-2.551-1.633-4.066-1.633c-1.515,0-2.971,0.584-4.051,1.633c-1.094,1.065-1.678,2.461-1.678,3.991
			c0,1.529,0.584,2.911,1.678,3.976c1.08,1.049,2.536,1.648,4.051,1.648c1.5,0,2.972-0.584,4.066-1.648
			C261.752,475.584,262.336,474.188,262.336,472.658 M241.728,477.997h1.139v-3.27c0-1.756,0.6-2.626,1.814-2.626
			c0.21,0,0.45,0.045,0.705,0.136l0.391-1.033c-0.256-0.09-0.511-0.135-0.78-0.135c-1.021,0-1.65,0.479-2.25,1.617v-1.394h-1.019
			V477.997z M233.926,474.668c0-1.426,1.081-2.536,2.431-2.536c1.337,0,2.416,1.11,2.416,2.536c0,1.425-1.079,2.536-2.416,2.536
			C235.021,477.204,233.926,476.093,233.926,474.668 M232.713,474.668c0,0.975,0.36,1.846,1.064,2.551
			c0.689,0.689,1.59,1.063,2.579,1.063c0.977,0,1.876-0.39,2.581-1.078c0.689-0.675,1.063-1.562,1.063-2.536
			s-0.374-1.876-1.063-2.551c-0.705-0.689-1.59-1.063-2.581-1.063c-0.989,0-1.89,0.359-2.579,1.048
			C233.073,472.792,232.713,473.693,232.713,474.668 M229.294,477.997h1.138v-5.76h1.785v-0.943h-1.785v-1.786
			c0-1.291,0.03-1.906,0.885-1.906c0.301,0,0.601,0.075,0.9,0.24v-1.183c-0.314-0.105-0.645-0.15-0.99-0.15
			c-1.604,0-1.933,0.838-1.933,2.85v1.936h-1.29v0.943h1.29V477.997z M221.269,474.683c0,1.592-0.871,2.491-2.251,2.491
			c-1.336,0-2.176-0.96-2.176-2.641c0-1.486,0.825-2.341,2.161-2.341C220.353,472.192,221.269,473.167,221.269,474.683
			 M222.377,466.644h-1.138v5.908c-0.512-0.989-1.336-1.498-2.446-1.498c-1.876,0-3.164,1.363-3.164,3.614
			c0,2.191,1.288,3.614,3.209,3.614c1.035,0,1.905-0.539,2.431-1.498v1.213h1.108V466.644z M213.259,473.889h-4.082
			c0.12-1.141,0.945-1.847,2.041-1.847C212.433,472.042,213.184,472.703,213.259,473.889 M214.487,474.817v-0.226
			c0-2.22-1.259-3.553-3.225-3.553c-1.951,0-3.344,1.468-3.344,3.583c0,2.19,1.378,3.66,3.419,3.66c1.381,0,2.43-0.614,3.104-1.829
			l-0.868-0.585c-0.555,0.976-1.275,1.456-2.176,1.456c-1.291,0-2.221-0.946-2.221-2.402v-0.104H214.487z M204.874,472.237v5.76
			h1.138v-5.76h1.26v-0.943h-1.26v-2.7h-1.138v2.7h-1.23v0.943H204.874z M199.519,477.997h1.139v-3.27
			c0-1.756,0.6-2.626,1.814-2.626c0.21,0,0.45,0.045,0.705,0.136l0.39-1.033c-0.255-0.09-0.51-0.135-0.779-0.135
			c-1.021,0-1.65,0.479-2.25,1.617v-1.394h-1.019V477.997z M191.717,474.668c0-1.426,1.081-2.536,2.431-2.536
			c1.337,0,2.416,1.11,2.416,2.536c0,1.425-1.079,2.536-2.416,2.536C192.812,477.204,191.717,476.093,191.717,474.668
			 M190.504,474.668c0,0.975,0.36,1.846,1.064,2.551c0.689,0.689,1.59,1.063,2.579,1.063c0.977,0,1.876-0.39,2.581-1.078
			c0.689-0.675,1.063-1.562,1.063-2.536s-0.374-1.876-1.063-2.551c-0.705-0.689-1.59-1.063-2.581-1.063
			c-0.989,0-1.89,0.359-2.579,1.048C190.864,472.792,190.504,473.693,190.504,474.668 M183.647,474.668
			c0-1.591,0.87-2.506,2.25-2.506c1.337,0,2.177,0.96,2.177,2.641c0,1.486-0.825,2.356-2.161,2.356
			C184.562,477.159,183.647,476.184,183.647,474.668 M182.539,481.252h1.139v-4.468c0.51,0.989,1.335,1.498,2.446,1.498
			c1.875,0,3.164-1.349,3.164-3.614c0-2.206-1.289-3.614-3.209-3.614c-1.036,0-1.921,0.524-2.446,1.498v-1.259h-1.094V481.252z
			 M179.66,473.889h-4.082c0.12-1.141,0.944-1.847,2.041-1.847C178.834,472.042,179.584,472.703,179.66,473.889 M180.888,474.817
			v-0.226c0-2.22-1.259-3.553-3.224-3.553c-1.951,0-3.344,1.468-3.344,3.583c0,2.19,1.378,3.66,3.419,3.66
			c1.38,0,2.43-0.614,3.104-1.829l-0.869-0.585c-0.555,0.976-1.274,1.456-2.175,1.456c-1.291,0-2.221-0.946-2.221-2.402v-0.104
			H180.888z M169.729,477.997h1.139v-3.27c0-1.756,0.6-2.626,1.814-2.626c0.21,0,0.45,0.045,0.705,0.136l0.391-1.033
			c-0.256-0.09-0.511-0.135-0.78-0.135c-1.021,0-1.65,0.479-2.25,1.617v-1.394h-1.019V477.997z M161.735,472.237v5.76h1.138v-5.76
			h1.26v-0.943h-1.26v-2.7h-1.138v2.7h-1.23v0.943H161.735z M153.768,474.668c0-1.426,1.081-2.536,2.432-2.536
			c1.336,0,2.416,1.11,2.416,2.536c0,1.425-1.08,2.536-2.416,2.536C154.864,477.204,153.768,476.093,153.768,474.668
			 M152.555,474.668c0,0.975,0.359,1.846,1.063,2.551c0.689,0.689,1.591,1.063,2.581,1.063c0.975,0,1.876-0.39,2.581-1.078
			c0.688-0.675,1.062-1.562,1.062-2.536s-0.374-1.876-1.062-2.551c-0.705-0.689-1.592-1.063-2.581-1.063
			c-0.99,0-1.892,0.359-2.581,1.048C152.914,472.792,152.555,473.693,152.555,474.668 M144.814,477.997h1.139v-3.464
			c0-0.735,0-1.291,0.39-1.771c0.376-0.465,0.961-0.72,1.636-0.72c1.201,0,1.786,0.66,1.786,2.011v3.944h1.139v-4.561
			c0-1.515-0.958-2.383-2.52-2.383c-1.05,0-1.86,0.404-2.431,1.273v-1.034h-1.139V477.997z M137.585,473.889h-4.082
			c0.12-1.141,0.946-1.847,2.041-1.847C136.76,472.042,137.51,472.703,137.585,473.889 M138.812,474.817v-0.226
			c0-2.22-1.258-3.553-3.224-3.553c-1.951,0-3.344,1.468-3.344,3.583c0,2.19,1.378,3.66,3.419,3.66c1.381,0,2.43-0.614,3.104-1.829
			l-0.868-0.585c-0.555,0.976-1.274,1.456-2.176,1.456c-1.29,0-2.221-0.946-2.221-2.402v-0.104H138.812z M125.748,471.294h-1.138
			v4.004c0,1.966,1.063,2.984,3.014,2.984c2.011,0,3.059-1.048,3.059-3.074v-3.914h-1.138v3.299c0,1.771-0.42,2.596-1.891,2.596
			s-1.906-0.824-1.906-2.596V471.294z M121.205,477.997h1.138v-11.354h-1.138V477.997z M117.815,474.713
			c0,1.545-0.841,2.431-2.19,2.431c-1.426,0-2.236-0.916-2.236-2.535c0-1.531,0.811-2.416,2.191-2.416
			C116.87,472.192,117.815,473.152,117.815,474.713 M118.924,471.294h-1.138v1.258c-0.512-0.99-1.336-1.498-2.461-1.498
			c-1.876,0-3.149,1.363-3.149,3.614c0,2.191,1.288,3.614,3.209,3.614c1.035,0,1.89-0.523,2.431-1.498v1.213h1.108V471.294z
			 M108.229,478.417l3.3-7.123h-1.29l-2.024,4.679l-2.01-4.679h-1.289L108.229,478.417z M94.279,474.668
			c0-1.591,0.869-2.506,2.251-2.506c1.336,0,2.176,0.96,2.176,2.641c0,1.486-0.825,2.356-2.161,2.356
			C95.194,477.159,94.279,476.184,94.279,474.668 M93.171,481.252h1.138v-4.468c0.511,0.989,1.336,1.498,2.446,1.498
			c1.876,0,3.164-1.349,3.164-3.614c0-2.206-1.288-3.614-3.209-3.614c-1.035,0-1.921,0.524-2.446,1.498v-1.259h-1.093V481.252z"/>
	</g>
</g>
</svg>
