<?xml version="1.0" encoding="utf-8"?>
<!-- Generator: Adobe Illustrator 16.0.0, SVG Export Plug-In . SVG Version: 6.00 Build 0)  -->
<!DOCTYPE svg PUBLIC "-//W3C//DTD SVG 1.1//EN" "http://www.w3.org/Graphics/SVG/1.1/DTD/svg11.dtd">
<svg version="1.1" id="Layer_1" xmlns="http://www.w3.org/2000/svg" xmlns:xlink="http://www.w3.org/1999/xlink" x="0px" y="0px"
	 width="115px" height="115px" viewBox="0 0 115 115" enable-background="new 0 0 115 115" xml:space="preserve">
<g>
	<g>
		<path display="none" fill="#F9A35F" d="M212.166,111c-31.756,0-57.5-25.744-57.5-57.5S180.41-4,212.166-4s57.5,25.744,57.5,57.5
			S243.922,111,212.166,111"/>
		<path display="none" fill="#FFFFFF" d="M198.404,49.09c0-2.546-1.587-3.079-4.822-3.079h-0.898v5.891h0.898
			C196.787,51.902,198.404,51.546,198.404,49.09 M221.825,55.898h5.96l-2.186-4.825c-0.24-0.562-0.511-1.332-0.81-2.398
			c-0.27,1.066-0.539,1.836-0.778,2.398L221.825,55.898z M235.123,64.215h-3.684l-2.426-5.446h-8.477l-2.485,5.446h-3.654
			l10.363-21.993L235.123,64.215z M206.91,53.944c0,1.332,1.497,1.539,3.654,2.398c2.426,0.947,3.563,2.072,3.563,4.055
			c0,2.664-2.037,4.381-5.66,4.381c-2.695,0-4.463-0.977-5.481-3.049l2.636-1.421c0.39,1.362,1.438,2.102,3.115,2.102
			c1.438,0,2.276-0.711,2.276-1.806c0-1.421-1.378-1.539-3.295-2.338c-2.636-1.096-3.983-2.161-3.983-4.145
			c0-2.367,2.007-4.114,5.301-4.114c2.188,0,3.744,0.829,4.434,2.25l-2.246,1.539c-0.33-0.858-1.198-1.421-2.308-1.421
			C207.689,52.375,206.91,52.997,206.91,53.944 M201.998,48.883c0,2.042-0.839,3.818-2.155,4.765
			c-1.438,1.006-3.176,1.066-5.362,1.066h-2.006v9.501h-3.266V43.051h5.271c2.187,0,3.924,0.06,5.362,1.096
			C201.159,45.094,201.998,46.84,201.998,48.883 M252.166,50.352l-2.468-2.797l1.483-3.422l-2.875-2.376l0.93-3.612l-3.212-1.897
			l0.353-3.713l-3.468-1.371l-0.232-3.722l-3.641-0.812l-0.812-3.64l-3.723-0.233l-1.371-3.468l-3.713,0.353l-1.896-3.212
			l-3.612,0.93l-2.376-2.875l-3.422,1.483l-2.797-2.468l-3.148,2l-3.147-2l-2.796,2.468l-3.423-1.483l-2.377,2.875l-3.611-0.93
			l-1.897,3.212l-3.713-0.353l-1.371,3.468l-3.722,0.233l-0.812,3.64l-3.64,0.812l-0.233,3.722l-3.468,1.371l0.354,3.713
			l-3.211,1.897l0.929,3.612l-2.875,2.376l1.483,3.422l-2.469,2.797l2,3.148l-2,3.148l2.469,2.796l-1.483,3.423l2.875,2.376
			l-0.929,3.612l3.211,1.897l-0.354,3.712l3.468,1.372l0.233,3.722l3.64,0.812l0.812,3.64l3.722,0.233l1.371,3.468l3.713-0.353
			l1.897,3.211l3.611-0.929l2.377,2.875l3.423-1.483l2.796,2.468l3.147-2l3.148,2l2.797-2.468l3.422,1.483l2.376-2.875l3.612,0.929
			l1.896-3.211l3.713,0.353l1.371-3.468l3.723-0.233l0.812-3.64l3.641-0.812l0.232-3.722l3.468-1.372l-0.353-3.712l3.212-1.897
			l-0.93-3.612l2.875-2.376l-1.483-3.423l2.468-2.796l-2-3.148L252.166,50.352z"/>
	</g>
</g>
<g>
	<g>
		<path display="none" fill="#F9A35F" d="M212.166,111c-31.756,0-57.5-25.744-57.5-57.5S180.41-4,212.166-4s57.5,25.744,57.5,57.5
			S243.922,111,212.166,111"/>
		<path display="none" fill="#FFFFFF" d="M198.404,49.09c0-2.546-1.587-3.079-4.822-3.079h-0.898v5.891h0.898
			C196.787,51.902,198.404,51.546,198.404,49.09 M221.825,55.898h5.96l-2.186-4.825c-0.24-0.562-0.511-1.332-0.81-2.398
			c-0.27,1.066-0.539,1.836-0.778,2.398L221.825,55.898z M235.123,64.215h-3.684l-2.426-5.446h-8.477l-2.485,5.446h-3.654
			l10.363-21.993L235.123,64.215z M206.91,53.944c0,1.332,1.497,1.539,3.654,2.398c2.426,0.947,3.563,2.072,3.563,4.055
			c0,2.664-2.037,4.381-5.66,4.381c-2.695,0-4.463-0.977-5.481-3.049l2.636-1.421c0.39,1.362,1.438,2.102,3.115,2.102
			c1.438,0,2.276-0.711,2.276-1.806c0-1.421-1.378-1.539-3.295-2.338c-2.636-1.096-3.983-2.161-3.983-4.145
			c0-2.367,2.007-4.114,5.301-4.114c2.188,0,3.744,0.829,4.434,2.25l-2.246,1.539c-0.33-0.858-1.198-1.421-2.308-1.421
			C207.689,52.375,206.91,52.997,206.91,53.944 M201.998,48.883c0,2.042-0.839,3.818-2.155,4.765
			c-1.438,1.006-3.176,1.066-5.362,1.066h-2.006v9.501h-3.266V43.051h5.271c2.187,0,3.924,0.06,5.362,1.096
			C201.159,45.094,201.998,46.84,201.998,48.883 M252.166,50.352l-2.468-2.797l1.483-3.422l-2.875-2.376l0.93-3.612l-3.212-1.897
			l0.353-3.713l-3.468-1.371l-0.232-3.722l-3.641-0.812l-0.812-3.64l-3.723-0.233l-1.371-3.468l-3.713,0.353l-1.896-3.212
			l-3.612,0.93l-2.376-2.875l-3.422,1.483l-2.797-2.468l-3.148,2l-3.147-2l-2.796,2.468l-3.423-1.483l-2.377,2.875l-3.611-0.93
			l-1.897,3.212l-3.713-0.353l-1.371,3.468l-3.722,0.233l-0.812,3.64l-3.64,0.812l-0.233,3.722l-3.468,1.371l0.354,3.713
			l-3.211,1.897l0.929,3.612l-2.875,2.376l1.483,3.422l-2.469,2.797l2,3.148l-2,3.148l2.469,2.796l-1.483,3.423l2.875,2.376
			l-0.929,3.612l3.211,1.897l-0.354,3.712l3.468,1.372l0.233,3.722l3.64,0.812l0.812,3.64l3.722,0.233l1.371,3.468l3.713-0.353
			l1.897,3.211l3.611-0.929l2.377,2.875l3.423-1.483l2.796,2.468l3.147-2l3.148,2l2.797-2.468l3.422,1.483l2.376-2.875l3.612,0.929
			l1.896-3.211l3.713,0.353l1.371-3.468l3.723-0.233l0.812-3.64l3.641-0.812l0.232-3.722l3.468-1.372l-0.353-3.712l3.212-1.897
			l-0.93-3.612l2.875-2.376l-1.483-3.423l2.468-2.796l-2-3.148L252.166,50.352z"/>
	</g>
</g>
<path fill="#F9A35F" d="M57.5,115C25.743,115,0,89.256,0,57.5S25.743,0,57.5,0C89.256,0,115,25.744,115,57.5S89.256,115,57.5,115"/>
<path fill="#FFFFFF" d="M47.392,59.912h5.96l-2.186-4.855c-0.24-0.565-0.51-1.34-0.81-2.412c-0.269,1.072-0.539,1.847-0.779,2.412
	L47.392,59.912z M75.035,62.265c0,3.962-2.666,6.583-7.099,6.583c-3.653,0-6.05-1.728-6.768-4.825l2.784-1.281
	c0.51,1.906,1.947,2.919,4.134,2.919c2.097,0,3.385-1.251,3.385-3.157c0-2.085-1.588-2.592-3.804-3.664
	c-3.805-1.847-5.9-3.276-5.9-6.493c0-3.425,2.545-5.838,6.439-5.838c3.175,0,5.36,1.281,6.17,3.515l-2.727,1.4
	c-0.838-1.311-1.827-1.936-3.174-1.936c-1.887,0-3.055,1.072-3.055,2.68c0,2.055,1.677,2.681,4.072,3.783
	C73.269,57.679,75.035,59.198,75.035,62.265 M60.689,68.282h-3.684l-2.426-5.48h-8.477l-2.486,5.48h-3.653l10.362-22.13
	L60.689,68.282z M97.5,54.332l-2.469-2.814l1.483-3.443l-2.875-2.391l0.93-3.635l-3.212-1.909l0.354-3.736l-3.469-1.379
	l-0.232-3.746l-3.641-0.817l-0.812-3.663l-3.722-0.234l-1.371-3.49l-3.713,0.355l-1.897-3.231l-3.612,0.935l-2.376-2.893
	l-3.422,1.492l-2.797-2.483L57.5,19.262l-3.148-2.012l-2.796,2.483l-3.423-1.492l-2.376,2.893l-3.612-0.935l-1.896,3.231
	l-3.714-0.355l-1.37,3.49l-3.723,0.234l-0.812,3.663l-3.641,0.817l-0.232,3.746l-3.468,1.379l0.353,3.736l-3.211,1.909l0.929,3.635
	l-2.875,2.391l1.483,3.443L17.5,54.332l2,3.168l-2,3.168l2.468,2.814l-1.483,3.443l2.875,2.391l-0.929,3.634l3.211,1.909
	l-0.353,3.736l3.468,1.38l0.232,3.746l3.641,0.817l0.812,3.663l3.723,0.234l1.37,3.49l3.714-0.355l1.896,3.231l3.612-0.935
	l2.376,2.893l3.423-1.493l2.796,2.484l3.148-2.013l3.147,2.013l2.797-2.484l3.422,1.493l2.376-2.893l3.612,0.935l1.897-3.231
	l3.713,0.355l1.371-3.49l3.722-0.234l0.812-3.663l3.641-0.817l0.232-3.746l3.469-1.38l-0.354-3.736l3.212-1.909l-0.93-3.634
	l2.875-2.391l-1.483-3.443l2.469-2.814l-2-3.168L97.5,54.332z"/>
<path fill="#F9A35F" d="M57.5,115C25.743,115,0,89.256,0,57.5S25.743,0,57.5,0C89.256,0,115,25.744,115,57.5S89.256,115,57.5,115"/>
<path fill="#FFFFFF" d="M47.392,59.912h5.96l-2.186-4.855c-0.24-0.565-0.51-1.34-0.81-2.412c-0.269,1.072-0.539,1.847-0.779,2.412
	L47.392,59.912z M75.035,62.265c0,3.962-2.666,6.583-7.099,6.583c-3.653,0-6.05-1.728-6.768-4.825l2.784-1.281
	c0.51,1.906,1.947,2.919,4.134,2.919c2.097,0,3.385-1.251,3.385-3.157c0-2.085-1.588-2.592-3.804-3.664
	c-3.805-1.847-5.9-3.276-5.9-6.493c0-3.425,2.545-5.838,6.439-5.838c3.175,0,5.36,1.281,6.17,3.515l-2.727,1.4
	c-0.838-1.311-1.827-1.936-3.174-1.936c-1.887,0-3.055,1.072-3.055,2.68c0,2.055,1.677,2.681,4.072,3.783
	C73.269,57.679,75.035,59.198,75.035,62.265 M60.689,68.282h-3.684l-2.426-5.48h-8.477l-2.486,5.48h-3.653l10.362-22.13
	L60.689,68.282z M97.5,54.332l-2.469-2.814l1.483-3.443l-2.875-2.391l0.93-3.635l-3.212-1.909l0.354-3.736l-3.469-1.379
	l-0.232-3.746l-3.641-0.817l-0.812-3.663l-3.722-0.234l-1.371-3.49l-3.713,0.355l-1.897-3.231l-3.612,0.935l-2.376-2.893
	l-3.422,1.492l-2.797-2.483L57.5,19.262l-3.148-2.012l-2.796,2.483l-3.423-1.492l-2.376,2.893l-3.612-0.935l-1.896,3.231
	l-3.714-0.355l-1.37,3.49l-3.723,0.234l-0.812,3.663l-3.641,0.817l-0.232,3.746l-3.468,1.379l0.353,3.736l-3.211,1.909l0.929,3.635
	l-2.875,2.391l1.483,3.443L17.5,54.332l2,3.168l-2,3.168l2.468,2.814l-1.483,3.443l2.875,2.391l-0.929,3.634l3.211,1.909
	l-0.353,3.736l3.468,1.38l0.232,3.746l3.641,0.817l0.812,3.663l3.723,0.234l1.37,3.49l3.714-0.355l1.896,3.231l3.612-0.935
	l2.376,2.893l3.423-1.493l2.796,2.484l3.148-2.013l3.147,2.013l2.797-2.484l3.422,1.493l2.376-2.893l3.612,0.935l1.897-3.231
	l3.713,0.355l1.371-3.49l3.722-0.234l0.812-3.663l3.641-0.817l0.232-3.746l3.469-1.38l-0.354-3.736l3.212-1.909l-0.93-3.634
	l2.875-2.391l-1.483-3.443l2.469-2.814l-2-3.168L97.5,54.332z"/>
</svg>
