<?xml version="1.0" encoding="utf-8"?>
<!-- Generator: Adobe Illustrator 15.1.0, SVG Export Plug-In . SVG Version: 6.00 Build 0)  -->
<!DOCTYPE svg PUBLIC "-//W3C//DTD SVG 1.1//EN" "http://www.w3.org/Graphics/SVG/1.1/DTD/svg11.dtd">
<svg version="1.1" id="Layer_1" xmlns="http://www.w3.org/2000/svg" xmlns:xlink="http://www.w3.org/1999/xlink" x="0px" y="0px"
	 width="40px" height="50px" viewBox="0 0 40 50" enable-background="new 0 0 40 50" xml:space="preserve">
<g>
	<path fill="#F9A35F" d="M15,11c7.721,0,14,6.28,14,14s-6.279,14-14,14C7.28,39,1,32.72,1,25S7.28,11,15,11 M15,10
		C6.716,10,0,16.716,0,25s6.716,15,15,15c8.285,0,15-6.716,15-15S23.285,10,15,10L15,10z"/>
</g>
<path fill="#F9A35F" d="M21.576,26.787c0,1.485-1,2.469-2.663,2.469c-1.369,0-2.268-0.648-2.538-1.81l1.044-0.48
	c0.191,0.715,0.73,1.095,1.55,1.095c0.787,0,1.27-0.469,1.27-1.184c0-0.782-0.596-0.973-1.427-1.375
	c-1.427-0.692-2.212-1.228-2.212-2.434c0-1.285,0.954-2.189,2.414-2.189c1.19,0,2.011,0.48,2.313,1.318l-1.022,0.525
	c-0.314-0.492-0.685-0.726-1.19-0.726c-0.707,0-1.146,0.402-1.146,1.005c0,0.771,0.629,1.005,1.527,1.418
	C20.914,25.067,21.576,25.637,21.576,26.787"/>
<path fill="#F9A35F" d="M12.31,20.745l-3.886,8.298h1.37l0.932-2.055h3.179l0.91,2.055h1.382L12.31,20.745z M11.21,25.904
	l0.819-1.82c0.09-0.212,0.191-0.503,0.292-0.905c0.113,0.402,0.214,0.693,0.304,0.905l0.819,1.82H11.21z"/>
</svg>
