<?xml version="1.0" encoding="utf-8"?>
<!-- Generator: Adobe Illustrator 15.1.0, SVG Export Plug-In . SVG Version: 6.00 Build 0)  -->
<!DOCTYPE svg PUBLIC "-//W3C//DTD SVG 1.1//EN" "http://www.w3.org/Graphics/SVG/1.1/DTD/svg11.dtd">
<svg version="1.1" id="Layer_1" xmlns="http://www.w3.org/2000/svg" xmlns:xlink="http://www.w3.org/1999/xlink" x="0px" y="0px"
	 width="40px" height="40px" viewBox="0 0 40 40" enable-background="new 0 0 40 40" xml:space="preserve">
<g>
	<path fill="#B3B4B6" d="M20,40c11.046,0,20-8.954,20-20S31.046,0,20,0S0,8.954,0,20S8.954,40,20,40"/>
</g>
<path fill="#FFFFFF" d="M22.12,20l5.305-5.305c0.587-0.586,0.587-1.536,0-2.121c-0.586-0.586-1.534-0.586-2.12,0L20,17.879
	l-5.303-5.303c-0.586-0.586-1.535-0.586-2.121,0c-0.586,0.585-0.586,1.536,0,2.121L17.878,20l-5.303,5.303
	c-0.586,0.586-0.586,1.535,0,2.121c0.293,0.293,0.677,0.439,1.061,0.439c0.384,0,0.768-0.146,1.061-0.439L20,22.121l5.305,5.305
	c0.293,0.293,0.676,0.439,1.061,0.439c0.384,0,0.768-0.146,1.061-0.439c0.586-0.586,0.586-1.535,0-2.121L22.12,20z"/>
</svg>
