<?xml version="1.0" encoding="utf-8"?>
<!-- Generator: Adobe Illustrator 15.1.0, SVG Export Plug-In . SVG Version: 6.00 Build 0)  -->
<!DOCTYPE svg PUBLIC "-//W3C//DTD SVG 1.1//EN" "http://www.w3.org/Graphics/SVG/1.1/DTD/svg11.dtd">
<svg version="1.1" id="Layer_1" xmlns="http://www.w3.org/2000/svg" xmlns:xlink="http://www.w3.org/1999/xlink" x="0px" y="0px"
	 width="10px" height="8.936px" viewBox="0 0 10 8.936" enable-background="new 0 0 10 8.936" xml:space="preserve">
<path fill="#F9A35F" d="M9.982,4.303c-0.037-0.1-0.135-0.165-0.239-0.165H7.982V0.256C7.982,0.115,7.867,0,7.725,0h-5.45
	C2.133,0,2.018,0.115,2.018,0.256v3.882H0.257c-0.106,0-0.202,0.064-0.24,0.163c-0.038,0.102-0.011,0.213,0.067,0.283l4.734,4.284
	C4.867,8.912,4.929,8.935,4.99,8.935c0.062,0,0.124-0.022,0.172-0.066l4.753-4.283C9.994,4.514,10.021,4.402,9.982,4.303z"/>
</svg>
