<?xml version="1.0" encoding="utf-8"?>
<!-- Generator: Adobe Illustrator 15.1.0, SVG Export Plug-In . SVG Version: 6.00 Build 0)  -->
<!DOCTYPE svg PUBLIC "-//W3C//DTD SVG 1.1//EN" "http://www.w3.org/Graphics/SVG/1.1/DTD/svg11.dtd">
<svg version="1.1" id="Layer_1" xmlns="http://www.w3.org/2000/svg" xmlns:xlink="http://www.w3.org/1999/xlink" x="0px" y="0px"
	 width="245px" height="140px" viewBox="0 0 245 140" enable-background="new 0 0 245 140" xml:space="preserve">
<path fill="#FFEBD9" d="M0,58.5V3.461C0,0.115,3.112,0.002,3.462,0h238.077c3.352,0,3.46,3.107,3.461,3.461V58.5H0z"/>
<g>
	<path fill="#E4A162" d="M80.354,35.602c-1.176,2.819-4.117,2.851-4.146,2.851c-0.004,0-0.034,0.003-0.037,0.003h-0.073
		c-0.967,0-4.504-0.367-9.453-5.06c-4.626-4.387-5.01-9.054-5.038-9.572c-0.042-0.751,0.158-2.656,2.903-4.139
		c0.122-0.069,0.386-0.138,0.618-0.138c0.015,0,0.03,0,0.04,0.002c0.447,0.702,2.433,3.973,2.53,4.148
		c0.027,0.056,0.041,0.109,0.042,0.13c0,0.003-0.027,0.111-0.248,0.343c-0.249,0.26-0.519,0.499-0.809,0.715
		c-0.336,0.252-0.651,0.521-0.938,0.802c-0.391,0.385-0.574,0.72-0.573,1.078c0.019,0.467,0.317,2.2,3.328,4.847
		c2.62,2.303,4.084,3.142,4.392,3.259c0.193,0.074,0.361,0.106,0.516,0.106c0.336,0,0.671-0.183,1.055-0.573
		c0.135-0.136,0.352-0.409,0.69-0.847c0.257-0.332,0.613-0.784,0.733-0.896c0.223-0.213,0.332-0.251,0.321-0.253
		c0.046,0.002,0.1,0.021,0.146,0.038c0.251,0.134,3.464,2.017,4.159,2.445C80.515,35.046,80.461,35.338,80.354,35.602
		 M81.377,34.124c-0.191-0.193-4.488-2.669-4.521-2.685c-0.213-0.104-0.433-0.16-0.649-0.16c-0.348,0-0.699,0.179-1.102,0.562
		c-0.169,0.161-0.446,0.513-0.847,1.023c-0.237,0.305-0.505,0.646-0.606,0.747c-0.145,0.154-0.237,0.211-0.273,0.232
		c-0.021-0.005-0.046-0.011-0.082-0.022c-0.014-0.007-1.271-0.608-4.052-3.055c-2.644-2.318-2.917-3.762-2.942-3.987
		c0.021-0.034,0.077-0.124,0.233-0.281c0.251-0.246,0.524-0.482,0.821-0.701c0.341-0.253,0.66-0.538,0.95-0.848
		c0.384-0.4,0.562-0.752,0.562-1.103c0-0.211-0.052-0.434-0.156-0.648c-0.017-0.034-2.581-4.321-2.778-4.514
		c-0.179-0.179-0.451-0.272-0.81-0.272c-0.396,0-0.851,0.108-1.156,0.273c-3.406,1.839-3.537,4.441-3.494,5.195
		c0.032,0.563,0.448,5.645,5.389,10.336c5.253,4.982,9.158,5.368,10.229,5.368h0.112c1.28,0,4.019-0.743,5.189-3.548
		C81.487,35.814,81.921,34.682,81.377,34.124"/>
	<g>
		<path fill="#E4A162" d="M95.114,24.639h-2.102l0.506-0.943h2.624v11.527h-1.027L95.114,24.639L95.114,24.639z"/>
		<path fill="#E4A162" d="M101.534,26.316c0-1.613,1.284-2.851,3.273-2.851c2.019,0,3.256,1.22,3.256,2.981
			c0,1.205-0.652,2.086-1.84,2.509c1.402,0.357,2.267,1.578,2.267,3.108c0,2.117-1.352,3.471-3.681,3.471
			c-2.346,0-3.715-1.384-3.715-3.436c0-1.563,0.849-2.785,2.28-3.143C102.218,28.597,101.534,27.62,101.534,26.316z M107.397,32.049
			c0-1.583-0.993-2.572-2.604-2.572c-1.615,0-2.591,0.976-2.591,2.572c0,1.549,0.929,2.542,2.591,2.542
			C106.468,34.591,107.397,33.563,107.397,32.049z M106.991,26.48c0-1.285-0.88-2.085-2.182-2.085c-1.321,0-2.165,0.814-2.165,2.085
			c0,1.22,0.78,2.051,2.181,2.051C106.208,28.531,106.991,27.7,106.991,26.48z"/>
		<path fill="#E4A162" d="M110.236,29.51c0-3.845,1.515-6.042,3.892-6.042c2.36,0,3.873,2.165,3.873,6.042
			c0,3.875-1.496,6.023-3.907,6.023C111.782,35.533,110.236,33.354,110.236,29.51z M114.13,34.591c1.84,0,2.817-1.743,2.817-5.098
			c0-3.308-1.008-5.082-2.852-5.082c-1.742,0-2.818,1.92-2.818,5.115C111.275,32.685,112.354,34.591,114.13,34.591z"/>
		<path fill="#E4A162" d="M119.556,29.51c0-3.845,1.515-6.042,3.892-6.042c2.36,0,3.874,2.165,3.874,6.042
			c0,3.875-1.496,6.023-3.908,6.023C121.102,35.533,119.556,33.354,119.556,29.51z M123.447,34.591c1.841,0,2.816-1.743,2.816-5.098
			c0-3.308-1.01-5.082-2.85-5.082c-1.744,0-2.818,1.92-2.818,5.115C120.599,32.685,121.673,34.591,123.447,34.591z"/>
		<path fill="#E4A162" d="M139.807,24.247c-3.049,0-5.084,2.152-5.084,5.165c0,3.11,2.133,5.144,4.937,5.144
			c1.336,0,2.638-0.453,3.76-1.351l-0.019,1.238c-1.123,0.718-2.493,1.09-3.694,1.09c-3.5,0-6.121-2.457-6.121-6.121
			c0-3.583,2.67-6.092,6.121-6.092c1.481,0,2.753,0.408,3.796,1.223l-0.033,1.172C142.328,24.736,141.174,24.247,139.807,24.247z"/>
		<path fill="#E4A162" d="M145.723,23.581h1.062v11.645h-1.062V23.581z"/>
		<path fill="#E4A162" d="M150.82,26.331l-0.877,8.895h-1.092l1.582-12.133l4.465,10.357l4.623-10.357l1.498,12.133h-1.094
			l-0.857-8.895l-4.154,9.35L150.82,26.331z"/>
		<path fill="#E4A162" d="M168.825,24.543h-5.912v-0.962h7.72l-6.889,10.667h6.188v0.978h-8.029L168.825,24.543z"/>
		<path fill="#E4A162" d="M172.215,23.581h1.062v11.645h-1.062V23.581z"/>
		<path fill="#E4A162" d="M179.631,23.124l4.9,12.099h-1.154l-1.48-3.939h-4.758l-1.547,3.939h-1.074L179.631,23.124z
			 M181.552,30.373l-1.987-5.064l-2.067,5.064H181.552z"/>
	</g>
</g>
<path fill="#FFEBD9" d="M245,216.54c0,3.345-3.111,3.458-3.461,3.46H3.461c-3.346,0-3.459-3.109-3.461-3.46V161.5h245V216.54z"/>
<g>
	<g>
		<path fill="#E4A162" d="M64.284,193.725c0.035,1.84,1.01,2.934,2.411,2.934c1.06,0,1.809-0.572,2.345-1.693l0.895,0.488
			c-0.715,1.432-1.725,2.084-3.239,2.084c-2.068,0-3.469-1.545-3.469-3.766c0-2.342,1.433-3.854,3.438-3.854
			c1.903,0,3.223,1.365,3.223,3.562v0.246h-5.604V193.725z M66.532,190.859c-1.139,0-2.067,0.797-2.182,2.033h4.379
			C68.648,191.59,67.836,190.859,66.532,190.859z"/>
		<path fill="#E4A162" d="M71.877,190.174l2.166,5.34l2.152-5.34h1.089l-3.241,7.359l-3.241-7.359H71.877z"/>
		<path fill="#E4A162" d="M79.21,193.725c0.031,1.84,1.01,2.934,2.409,2.934c1.06,0,1.807-0.572,2.344-1.693l0.896,0.488
			c-0.718,1.432-1.726,2.084-3.24,2.084c-2.068,0-3.468-1.545-3.468-3.766c0-2.342,1.431-3.854,3.436-3.854
			c1.902,0,3.223,1.365,3.223,3.562v0.246h-5.6V193.725z M81.457,190.859c-1.139,0-2.067,0.797-2.18,2.033h4.379
			C83.571,191.59,82.76,190.859,81.457,190.859z"/>
		<path fill="#E4A162" d="M90.043,189.916c0.277,0,0.555,0.047,0.832,0.146l-0.311,0.928c-0.244-0.082-0.473-0.115-0.667-0.115
			c-1.089,0-2.132,1.139-2.132,2.881v3.471h-0.979v-7.051h0.979v1.416C88.465,190.416,89.051,189.916,90.043,189.916z"/>
		<path fill="#E4A162" d="M91.938,190.174l2.02,5.521l1.857-5.521h1.041l-3.646,10.602H92.2l1.237-3.598l-2.542-7.004H91.938z"/>
		<path fill="#E4A162" d="M103.598,195.939c-0.471,1.041-1.335,1.594-2.476,1.594c-2.02,0-3.369-1.516-3.369-3.793
			c0-2.281,1.386-3.828,3.273-3.828c1.188,0,2.069,0.523,2.574,1.545v-6.562h0.979v12.332H103.6v-1.287H103.598L103.598,195.939z
			 M101.222,196.623c1.415,0,2.376-1.078,2.376-3.033c0-1.758-0.929-2.783-2.362-2.783c-1.433,0-2.394,1.092-2.394,2.965
			C98.844,195.609,99.706,196.623,101.222,196.623z"/>
		<path fill="#E4A162" d="M112.316,195.939c-0.456,1.041-1.337,1.594-2.476,1.594c-2.02,0-3.37-1.516-3.37-3.793
			c0-2.281,1.384-3.828,3.272-3.828c1.19,0,2.085,0.523,2.575,1.545v-1.281h0.978v7.051h-0.978L112.316,195.939L112.316,195.939z
			 M109.94,196.623c1.415,0,2.393-1.078,2.393-3.033c0-1.758-0.942-2.783-2.375-2.783c-1.434,0-2.396,1.092-2.396,2.965
			C107.561,195.609,108.426,196.623,109.94,196.623z"/>
		<path fill="#E4A162" d="M115.937,190.174l2.02,5.521l1.856-5.521h1.042l-3.647,10.602H116.2l1.237-3.598l-2.541-7.004H115.937z"/>
		<path fill="#E4A162" d="M122.484,195.436c0.327,0.797,0.896,1.189,1.745,1.189c0.85,0,1.354-0.473,1.354-1.156
			c0-0.979-0.864-1.109-1.987-1.582c-1.138-0.475-1.692-1.043-1.692-1.938c0-1.191,0.912-2.053,2.281-2.053
			c1.137,0,1.969,0.506,2.344,1.434l-0.896,0.504c-0.229-0.662-0.765-1.025-1.516-1.025c-0.684,0-1.171,0.457-1.171,1.045
			c0,0.699,0.572,0.979,1.679,1.354c1.271,0.422,1.968,0.877,1.968,2.193c0,1.26-0.94,2.135-2.556,2.135
			c-1.218,0-2.115-0.602-2.475-1.564L122.484,195.436z"/>
		<path fill="#E4A162" d="M128.84,193.689c0,1.973,0.44,2.934,2.004,2.934c1.564,0,2.022-0.961,2.022-2.934v-3.518h0.976v4.021
			c0,2.215-1.025,3.336-2.982,3.336c-1.937,0-2.992-1.123-2.992-3.336v-4.021h0.977v3.518H128.84z"/>
		<path fill="#E4A162" d="M136.385,190.174h0.979v1.32c0.489-0.994,1.401-1.584,2.491-1.584c1.99,0,3.31,1.516,3.31,3.811
			c0,2.41-1.353,3.814-3.256,3.814c-1.142,0-2.024-0.553-2.542-1.611v4.848h-0.979v-10.598H136.385z M139.756,190.809
			c-1.445,0-2.395,1.01-2.395,2.852c0,1.902,1.078,2.967,2.492,2.967c1.39,0,2.246-1.025,2.246-2.883
			C142.1,191.916,141.225,190.809,139.756,190.809z"/>
		<path fill="#E4A162" d="M145.134,190.174h0.979v1.32c0.49-0.994,1.404-1.584,2.49-1.584c1.99,0,3.312,1.516,3.312,3.811
			c0,2.41-1.354,3.814-3.265,3.814c-1.133,0-2.02-0.553-2.539-1.611v4.848h-0.979L145.134,190.174L145.134,190.174z
			 M148.507,190.809c-1.446,0-2.396,1.01-2.396,2.852c0,1.902,1.076,2.967,2.492,2.967c1.389,0,2.248-1.025,2.248-2.883
			C150.854,191.916,149.97,190.809,148.507,190.809z"/>
		<path fill="#E4A162" d="M153.299,193.707c0-2.115,1.691-3.791,3.793-3.791c2.152,0,3.86,1.676,3.86,3.791
			c0,2.133-1.742,3.828-3.86,3.828C155.025,197.533,153.299,195.857,153.299,193.707z M159.895,193.725
			c0-1.643-1.236-2.898-2.771-2.898c-1.547,0-2.771,1.258-2.771,2.898c0,1.629,1.235,2.9,2.771,2.9
			C158.639,196.623,159.895,195.367,159.895,193.725z"/>
		<path fill="#E4A162" d="M166.169,189.916c0.276,0,0.556,0.047,0.833,0.146l-0.311,0.928c-0.246-0.082-0.475-0.115-0.67-0.115
			c-1.086,0-2.131,1.139-2.131,2.881v3.471h-0.98v-7.051h0.98v1.416C164.59,190.416,165.174,189.916,166.169,189.916z"/>
		<path fill="#E4A162" d="M166.887,191.004v-0.83h1.309v-2.9h0.977v2.9h1.398v0.83h-1.398v6.223h-0.977v-6.223H166.887z"/>
		<path fill="#E4A162" d="M172.994,195.742c0.458,0,0.816,0.344,0.816,0.814c0,0.475-0.358,0.812-0.816,0.812
			c-0.453,0-0.812-0.355-0.812-0.812C172.182,196.104,172.541,195.742,172.994,195.742z"/>
		<path fill="#E4A162" d="M178.877,190.777c-1.773,0-2.863,1.236-2.863,3.078c0,1.596,1.156,2.85,2.863,2.85
			c0.783,0,1.581-0.277,2.312-0.801l0.02,1.078c-0.717,0.389-1.562,0.586-2.509,0.586c-2.164,0-3.679-1.6-3.679-3.781
			c0-2.279,1.582-3.873,3.873-3.873c0.849,0,1.627,0.176,2.197,0.471l-0.017,1.074C180.409,191.004,179.66,190.777,178.877,190.777z
			"/>
		<path fill="#E4A162" d="M182.367,193.707c0-2.115,1.691-3.791,3.795-3.791c2.146,0,3.857,1.676,3.857,3.791
			c0,2.133-1.742,3.828-3.857,3.828C184.094,197.533,182.367,195.857,182.367,193.707z M188.961,193.725
			c0-1.643-1.236-2.898-2.77-2.898c-1.547,0-2.771,1.258-2.771,2.898c0,1.629,1.238,2.9,2.771,2.9
			C187.707,196.623,188.961,195.367,188.961,193.725z"/>
		<path fill="#E4A162" d="M191.98,197.227v-7.053h0.977v1.107c0.454-0.896,1.253-1.365,2.246-1.365c1.023,0,1.757,0.471,2.148,1.383
			c0.569-0.928,1.388-1.383,2.459-1.383c1.498,0,2.409,0.977,2.409,2.539v4.773h-0.979v-4.381c0-1.389-0.573-2.084-1.694-2.084
			c-1.396,0-1.949,0.926-1.949,2.754v3.713h-0.981v-4.383c0-1.387-0.472-2.084-1.66-2.084c-1.418,0-2.003,0.926-2.003,2.754v3.713
			h-0.975L191.98,197.227L191.98,197.227z"/>
		<path fill="#E4A162" d="M205.161,195.742c0.455,0,0.812,0.344,0.812,0.814c0,0.475-0.354,0.812-0.812,0.812
			s-0.812-0.355-0.812-0.812C204.345,196.104,204.703,195.742,205.161,195.742z"/>
		<path fill="#E4A162" d="M213.288,195.939c-0.455,1.041-1.336,1.594-2.476,1.594c-2.021,0-3.371-1.516-3.371-3.793
			c0-2.281,1.385-3.828,3.271-3.828c1.188,0,2.087,0.523,2.577,1.545v-1.281h0.979v7.051h-0.979L213.288,195.939L213.288,195.939z
			 M210.912,196.623c1.416,0,2.393-1.078,2.393-3.033c0-1.758-0.943-2.783-2.377-2.783c-1.433,0-2.393,1.092-2.393,2.965
			C208.535,195.609,209.396,196.623,210.912,196.623z"/>
		<path fill="#E4A162" d="M217.805,193.689c0,1.973,0.44,2.934,2.004,2.934c1.562,0,2.021-0.961,2.021-2.934v-3.518h0.979v4.021
			c0,2.215-1.024,3.336-2.98,3.336c-1.938,0-2.995-1.123-2.995-3.336v-4.021h0.978v3.518H217.805z"/>
	</g>
	<g>
		<path fill="#E4A162" d="M45.999,193.365H25.284V182.48H46L45.999,193.365L45.999,193.365z M46.748,181.479H24.532
			c-0.137,0-0.247,0.111-0.247,0.254v12.383c0,0.141,0.11,0.252,0.247,0.252h22.214c0.138,0,0.248-0.113,0.248-0.252V181.73
			C46.994,181.592,46.885,181.479,46.748,181.479"/>
		<path fill="#E4A162" d="M48.06,195.51c-0.008,0.062-0.04,0.127-0.142,0.143H23.333c-0.045-0.004-0.123-0.021-0.143-0.146V180.49
			c0.034-0.018,0.093-0.035,0.141-0.037H47.92c0.046,0.004,0.107,0.023,0.14,0.037V195.51z M47.939,179.453H23.29
			c-0.544,0.027-1.096,0.385-1.096,1.023v15.059v0.035c0.026,0.348,0.283,1.021,1.084,1.074l24.676,0.004l0.02-0.004
			c0.8-0.055,1.059-0.729,1.08-1.074v-15.094C49.053,179.838,48.505,179.48,47.939,179.453"/>
		<path fill="#E4A162" d="M38.349,201.545c-0.226,0-0.531,0-0.894,0.004c-0.531,0.002-1.119,0.002-1.701,0.002H35.75
			c-1.008,0-1.993-0.002-2.61-0.006c-0.093,0-0.177,0-0.251-0.004h-0.164c-0.075,0-0.145-0.002-0.213-0.002
			c0.161-0.156,0.327-0.344,0.458-0.535c0.197-0.221,0.244-0.627,0.285-0.975c0.059-0.525,0.114-0.986,0.151-1.301h4.439
			c0.039,0.311,0.093,0.773,0.156,1.299c0.037,0.35,0.082,0.758,0.284,0.979c0.131,0.193,0.298,0.379,0.455,0.533
			C38.617,201.541,38.485,201.541,38.349,201.545 M39.864,201.205c-0.021-0.016-0.033-0.029-0.056-0.043
			c-0.248-0.205-0.567-0.508-0.729-0.76c-0.006-0.008-0.008-0.012-0.016-0.023c-0.013-0.053-0.043-0.186-0.072-0.463
			c-0.114-0.986-0.207-1.75-0.207-1.75c-0.032-0.252-0.244-0.439-0.498-0.439h-5.322c-0.252,0-0.464,0.188-0.496,0.438
			c0,0-0.097,0.77-0.207,1.754c-0.031,0.275-0.062,0.41-0.076,0.463c-0.002,0.014-0.009,0.018-0.015,0.021
			c-0.195,0.311-0.608,0.664-0.755,0.777c-0.014,0.012-0.03,0.025-0.043,0.039c-0.093,0.094-0.388,0.43-0.255,0.826
			c0.049,0.148,0.199,0.402,0.646,0.463l0.073,0.016c0.04,0.002,0.082,0.002,0.099,0.002c0.141,0.01,0.418,0.012,0.788,0.02h0.154
			c0.078,0,0.164,0,0.258,0h0.003c0.615,0.006,1.6,0.008,2.612,0.008c0.584,0,1.176,0,1.71-0.002
			c0.363-0.006,0.665-0.006,0.897-0.006c0.143,0,0.272,0,0.401,0l0.57-0.02c0.033,0,0.061,0,0.07-0.002
			c0.101-0.008,0.406-0.031,0.613-0.266c0.221-0.258,0.199-0.631-0.046-0.932C39.908,201.244,39.864,201.205,39.864,201.205"/>
	</g>
</g>
</svg>
