<?xml version="1.0" encoding="utf-8"?>
<!-- Generator: Adobe Illustrator 16.0.0, SVG Export Plug-In . SVG Version: 6.00 Build 0)  -->
<!DOCTYPE svg PUBLIC "-//W3C//DTD SVG 1.1//EN" "http://www.w3.org/Graphics/SVG/1.1/DTD/svg11.dtd">
<svg version="1.1" id="Layer_1" xmlns="http://www.w3.org/2000/svg" xmlns:xlink="http://www.w3.org/1999/xlink" x="0px" y="0px"
	 width="16px" height="15.08px" viewBox="0 0 16 15.08" enable-background="new 0 0 16 15.08" xml:space="preserve">
<path fill="#FFFFFF" d="M15.778,6.593L8.427,0.16C8.305,0.054,8.153,0,8,0S7.695,0.054,7.573,0.16L0.222,6.593
	c-0.203,0.178-0.275,0.463-0.18,0.716c0.095,0.252,0.337,0.421,0.607,0.421h1.19v6.702c0,0.358,0.29,0.648,0.648,0.648h4.594
	c0.358,0,0.648-0.29,0.648-0.648v-2.107h0.541v2.107c0,0.358,0.291,0.648,0.648,0.648h4.594c0.358,0,0.648-0.29,0.648-0.648V7.729
	h1.19c0.27,0,0.512-0.169,0.606-0.421C16.053,7.056,15.982,6.771,15.778,6.593z M13.513,7.081v7.351H8.919v-2.756H7.081v2.756H2.487
	V7.081H0.648L8,0.648l7.352,6.433H13.513z"/>
</svg>
