<?xml version="1.0" encoding="utf-8"?>
<!-- Generator: Adobe Illustrator 16.0.0, SVG Export Plug-In . SVG Version: 6.00 Build 0)  -->
<!DOCTYPE svg PUBLIC "-//W3C//DTD SVG 1.1//EN" "http://www.w3.org/Graphics/SVG/1.1/DTD/svg11.dtd">
<svg version="1.1" id="Layer_1" xmlns="http://www.w3.org/2000/svg" xmlns:xlink="http://www.w3.org/1999/xlink" x="0px" y="0px"
	 width="115px" height="115px" viewBox="0 0 115 115" enable-background="new 0 0 115 115" xml:space="preserve">
<g>
	<g>
		<path display="none" fill="#F9A35F" d="M37.833,126c-31.756,0-57.5-25.744-57.5-57.5S6.077,11,37.833,11s57.5,25.744,57.5,57.5
			S69.589,126,37.833,126"/>
		<path display="none" fill="#F9A35F" d="M-122.833,126c-31.757,0-57.5-25.744-57.5-57.5s25.743-57.5,57.5-57.5
			c31.756,0,57.5,25.744,57.5,57.5S-91.077,126-122.833,126"/>
		<path display="none" fill="#FFFFFF" d="M-132.941,70.912h5.96l-2.186-4.855c-0.24-0.565-0.51-1.34-0.81-2.412
			c-0.269,1.072-0.539,1.847-0.779,2.412L-132.941,70.912z M-105.298,73.265c0,3.962-2.666,6.583-7.099,6.583
			c-3.653,0-6.05-1.728-6.768-4.825l2.784-1.281c0.51,1.906,1.947,2.919,4.134,2.919c2.097,0,3.385-1.251,3.385-3.157
			c0-2.085-1.588-2.592-3.804-3.664c-3.805-1.847-5.9-3.276-5.9-6.493c0-3.425,2.545-5.838,6.439-5.838
			c3.175,0,5.36,1.281,6.17,3.515l-2.727,1.4c-0.838-1.311-1.827-1.936-3.174-1.936c-1.887,0-3.055,1.072-3.055,2.68
			c0,2.055,1.677,2.681,4.072,3.783C-107.064,68.679-105.298,70.198-105.298,73.265 M-119.644,79.282h-3.684l-2.426-5.48h-8.477
			l-2.486,5.48h-3.653l10.362-22.13L-119.644,79.282z M-82.833,65.332l-2.469-2.814l1.483-3.443l-2.875-2.391l0.93-3.635
			l-3.212-1.909l0.354-3.736l-3.469-1.379l-0.232-3.746l-3.641-0.817l-0.812-3.663l-3.722-0.234l-1.371-3.49l-3.713,0.355
			l-1.897-3.231l-3.612,0.935l-2.376-2.893l-3.422,1.492l-2.797-2.483l-3.147,2.012l-3.148-2.012l-2.796,2.483l-3.423-1.492
			l-2.376,2.893l-3.612-0.935l-1.896,3.231l-3.714-0.355l-1.37,3.49l-3.723,0.234l-0.812,3.663l-3.641,0.817l-0.232,3.746
			l-3.468,1.379l0.353,3.736l-3.211,1.909l0.929,3.635l-2.875,2.391l1.483,3.443l-2.468,2.814l2,3.168l-2,3.168l2.468,2.814
			l-1.483,3.443l2.875,2.391l-0.929,3.634l3.211,1.909l-0.353,3.736l3.468,1.38l0.232,3.746l3.641,0.817l0.812,3.663l3.723,0.234
			l1.37,3.49l3.714-0.355l1.896,3.231l3.612-0.935l2.376,2.893l3.423-1.493l2.796,2.484l3.148-2.013l3.147,2.013l2.797-2.484
			l3.422,1.493l2.376-2.893l3.612,0.935l1.897-3.231l3.713,0.355l1.371-3.49l3.722-0.234l0.812-3.663l3.641-0.817l0.232-3.746
			l3.469-1.38l-0.354-3.736l3.212-1.909l-0.93-3.634l2.875-2.391l-1.483-3.443l2.469-2.814l-2-3.168L-82.833,65.332z"/>
		<path display="none" fill="#FFFFFF" d="M24.071,64.09c0-2.546-1.587-3.079-4.822-3.079h-0.898v5.891h0.898
			C22.454,66.902,24.071,66.546,24.071,64.09 M47.492,70.898h5.96l-2.186-4.825c-0.24-0.562-0.511-1.332-0.81-2.398
			c-0.27,1.066-0.539,1.836-0.778,2.398L47.492,70.898z M60.79,79.215h-3.684l-2.426-5.446h-8.477l-2.485,5.446h-3.654
			l10.363-21.993L60.79,79.215z M32.577,68.944c0,1.332,1.497,1.539,3.654,2.398c2.426,0.947,3.563,2.072,3.563,4.055
			c0,2.664-2.037,4.381-5.66,4.381c-2.695,0-4.463-0.977-5.481-3.049l2.636-1.421c0.39,1.362,1.438,2.102,3.115,2.102
			c1.438,0,2.276-0.711,2.276-1.806c0-1.421-1.378-1.539-3.295-2.338c-2.636-1.096-3.983-2.161-3.983-4.145
			c0-2.367,2.007-4.114,5.301-4.114c2.188,0,3.744,0.829,4.434,2.25l-2.246,1.539c-0.33-0.858-1.198-1.421-2.308-1.421
			C33.356,67.375,32.577,67.997,32.577,68.944 M27.665,63.883c0,2.042-0.839,3.818-2.155,4.765
			c-1.438,1.006-3.176,1.066-5.362,1.066h-2.006v9.501h-3.266V58.051h5.271c2.187,0,3.924,0.06,5.362,1.096
			C26.826,60.094,27.665,61.84,27.665,63.883 M77.833,65.352l-2.468-2.797l1.483-3.422l-2.875-2.376l0.93-3.612l-3.212-1.897
			l0.353-3.713l-3.468-1.371l-0.232-3.722l-3.641-0.812l-0.812-3.64l-3.723-0.233l-1.371-3.468l-3.713,0.353l-1.896-3.212
			l-3.612,0.93L47.2,29.485l-3.422,1.483L40.981,28.5l-3.148,2l-3.147-2l-2.796,2.468l-3.423-1.483L26.09,32.36l-3.611-0.93
			l-1.897,3.212l-3.713-0.353l-1.371,3.468l-3.722,0.233l-0.812,3.64l-3.64,0.812L7.09,46.164l-3.468,1.371l0.354,3.713
			l-3.211,1.897l0.929,3.612l-2.875,2.376l1.483,3.422l-2.469,2.797l2,3.148l-2,3.148l2.469,2.796l-1.483,3.423l2.875,2.376
			l-0.929,3.612l3.211,1.897l-0.354,3.712l3.468,1.372l0.233,3.722l3.64,0.812l0.812,3.64l3.722,0.233l1.371,3.468l3.713-0.353
			l1.897,3.211l3.611-0.929l2.377,2.875l3.423-1.483l2.796,2.468l3.147-2l3.148,2l2.797-2.468l3.422,1.483l2.376-2.875l3.612,0.929
			l1.896-3.211l3.713,0.353l1.371-3.468l3.723-0.233l0.812-3.64l3.641-0.812l0.232-3.722l3.468-1.372l-0.353-3.712l3.212-1.897
			l-0.93-3.612l2.875-2.376l-1.483-3.423l2.468-2.796l-2-3.148L77.833,65.352z"/>
	</g>
</g>
<g>
	<g>
		<path display="none" fill="#F9A35F" d="M37.833,126c-31.756,0-57.5-25.744-57.5-57.5S6.077,11,37.833,11s57.5,25.744,57.5,57.5
			S69.589,126,37.833,126"/>
		<path display="none" fill="#F9A35F" d="M-122.833,126c-31.757,0-57.5-25.744-57.5-57.5s25.743-57.5,57.5-57.5
			c31.756,0,57.5,25.744,57.5,57.5S-91.077,126-122.833,126"/>
		<path display="none" fill="#FFFFFF" d="M-132.941,70.912h5.96l-2.186-4.855c-0.24-0.565-0.51-1.34-0.81-2.412
			c-0.269,1.072-0.539,1.847-0.779,2.412L-132.941,70.912z M-105.298,73.265c0,3.962-2.666,6.583-7.099,6.583
			c-3.653,0-6.05-1.728-6.768-4.825l2.784-1.281c0.51,1.906,1.947,2.919,4.134,2.919c2.097,0,3.385-1.251,3.385-3.157
			c0-2.085-1.588-2.592-3.804-3.664c-3.805-1.847-5.9-3.276-5.9-6.493c0-3.425,2.545-5.838,6.439-5.838
			c3.175,0,5.36,1.281,6.17,3.515l-2.727,1.4c-0.838-1.311-1.827-1.936-3.174-1.936c-1.887,0-3.055,1.072-3.055,2.68
			c0,2.055,1.677,2.681,4.072,3.783C-107.064,68.679-105.298,70.198-105.298,73.265 M-119.644,79.282h-3.684l-2.426-5.48h-8.477
			l-2.486,5.48h-3.653l10.362-22.13L-119.644,79.282z M-82.833,65.332l-2.469-2.814l1.483-3.443l-2.875-2.391l0.93-3.635
			l-3.212-1.909l0.354-3.736l-3.469-1.379l-0.232-3.746l-3.641-0.817l-0.812-3.663l-3.722-0.234l-1.371-3.49l-3.713,0.355
			l-1.897-3.231l-3.612,0.935l-2.376-2.893l-3.422,1.492l-2.797-2.483l-3.147,2.012l-3.148-2.012l-2.796,2.483l-3.423-1.492
			l-2.376,2.893l-3.612-0.935l-1.896,3.231l-3.714-0.355l-1.37,3.49l-3.723,0.234l-0.812,3.663l-3.641,0.817l-0.232,3.746
			l-3.468,1.379l0.353,3.736l-3.211,1.909l0.929,3.635l-2.875,2.391l1.483,3.443l-2.468,2.814l2,3.168l-2,3.168l2.468,2.814
			l-1.483,3.443l2.875,2.391l-0.929,3.634l3.211,1.909l-0.353,3.736l3.468,1.38l0.232,3.746l3.641,0.817l0.812,3.663l3.723,0.234
			l1.37,3.49l3.714-0.355l1.896,3.231l3.612-0.935l2.376,2.893l3.423-1.493l2.796,2.484l3.148-2.013l3.147,2.013l2.797-2.484
			l3.422,1.493l2.376-2.893l3.612,0.935l1.897-3.231l3.713,0.355l1.371-3.49l3.722-0.234l0.812-3.663l3.641-0.817l0.232-3.746
			l3.469-1.38l-0.354-3.736l3.212-1.909l-0.93-3.634l2.875-2.391l-1.483-3.443l2.469-2.814l-2-3.168L-82.833,65.332z"/>
		<path display="none" fill="#FFFFFF" d="M24.071,64.09c0-2.546-1.587-3.079-4.822-3.079h-0.898v5.891h0.898
			C22.454,66.902,24.071,66.546,24.071,64.09 M47.492,70.898h5.96l-2.186-4.825c-0.24-0.562-0.511-1.332-0.81-2.398
			c-0.27,1.066-0.539,1.836-0.778,2.398L47.492,70.898z M60.79,79.215h-3.684l-2.426-5.446h-8.477l-2.485,5.446h-3.654
			l10.363-21.993L60.79,79.215z M32.577,68.944c0,1.332,1.497,1.539,3.654,2.398c2.426,0.947,3.563,2.072,3.563,4.055
			c0,2.664-2.037,4.381-5.66,4.381c-2.695,0-4.463-0.977-5.481-3.049l2.636-1.421c0.39,1.362,1.438,2.102,3.115,2.102
			c1.438,0,2.276-0.711,2.276-1.806c0-1.421-1.378-1.539-3.295-2.338c-2.636-1.096-3.983-2.161-3.983-4.145
			c0-2.367,2.007-4.114,5.301-4.114c2.188,0,3.744,0.829,4.434,2.25l-2.246,1.539c-0.33-0.858-1.198-1.421-2.308-1.421
			C33.356,67.375,32.577,67.997,32.577,68.944 M27.665,63.883c0,2.042-0.839,3.818-2.155,4.765
			c-1.438,1.006-3.176,1.066-5.362,1.066h-2.006v9.501h-3.266V58.051h5.271c2.187,0,3.924,0.06,5.362,1.096
			C26.826,60.094,27.665,61.84,27.665,63.883 M77.833,65.352l-2.468-2.797l1.483-3.422l-2.875-2.376l0.93-3.612l-3.212-1.897
			l0.353-3.713l-3.468-1.371l-0.232-3.722l-3.641-0.812l-0.812-3.64l-3.723-0.233l-1.371-3.468l-3.713,0.353l-1.896-3.212
			l-3.612,0.93L47.2,29.485l-3.422,1.483L40.981,28.5l-3.148,2l-3.147-2l-2.796,2.468l-3.423-1.483L26.09,32.36l-3.611-0.93
			l-1.897,3.212l-3.713-0.353l-1.371,3.468l-3.722,0.233l-0.812,3.64l-3.64,0.812L7.09,46.164l-3.468,1.371l0.354,3.713
			l-3.211,1.897l0.929,3.612l-2.875,2.376l1.483,3.422l-2.469,2.797l2,3.148l-2,3.148l2.469,2.796l-1.483,3.423l2.875,2.376
			l-0.929,3.612l3.211,1.897l-0.354,3.712l3.468,1.372l0.233,3.722l3.64,0.812l0.812,3.64l3.722,0.233l1.371,3.468l3.713-0.353
			l1.897,3.211l3.611-0.929l2.377,2.875l3.423-1.483l2.796,2.468l3.147-2l3.148,2l2.797-2.468l3.422,1.483l2.376-2.875l3.612,0.929
			l1.896-3.211l3.713,0.353l1.371-3.468l3.723-0.233l0.812-3.64l3.641-0.812l0.232-3.722l3.468-1.372l-0.353-3.712l3.212-1.897
			l-0.93-3.612l2.875-2.376l-1.483-3.423l2.468-2.796l-2-3.148L77.833,65.352z"/>
	</g>
</g>
<path display="none" fill="#F9A35F" d="M-284.5,65.754c31.756,0,57.5-25.744,57.5-57.5s-25.744-57.5-57.5-57.5
	S-342-23.502-342,8.254S-316.256,65.754-284.5,65.754"/>
<path display="none" fill="#FFFFFF" d="M-267.839-12.798h-32.942c-0.837,0-1.517,0.677-1.517,1.515c0,0.836,0.68,1.514,1.517,1.514
	h32.942c0.837,0,1.517-0.678,1.517-1.514C-266.322-12.121-267.002-12.798-267.839-12.798"/>
<path display="none" fill="#FFFFFF" d="M-267.839,26.276h-32.942c-0.837,0-1.517,0.677-1.517,1.514s0.68,1.515,1.517,1.515h32.942
	c0.837,0,1.517-0.678,1.517-1.515S-267.002,26.276-267.839,26.276"/>
<path display="none" fill="#FFFFFF" d="M-310.105-21.218h51.208v58.944h-51.208V-21.218z M-257.382-24.246h-54.237
	c-0.837,0-1.515,0.678-1.515,1.514V39.24c0,0.836,0.678,1.514,1.515,1.514h54.237c0.836,0,1.516-0.678,1.516-1.514v-61.972
	C-255.866-23.568-256.546-24.246-257.382-24.246"/>
<path display="none" fill="#FFFFFF" d="M-267.839-3.03h-32.942c-0.837,0-1.517,0.679-1.517,1.515S-301.618,0-300.781,0h32.942
	c0.837,0,1.517-0.679,1.517-1.515S-267.002-3.03-267.839-3.03"/>
<path display="none" fill="#FFFFFF" d="M-267.839,6.739h-32.942c-0.472,0-0.887,0.219-1.165,0.556
	c-0.216,0.262-0.352,0.593-0.352,0.959c0,0.836,0.68,1.515,1.517,1.515h32.942c0.837,0,1.517-0.679,1.517-1.515
	S-267.002,6.739-267.839,6.739"/>
<path display="none" fill="#FFFFFF" d="M-267.839,16.508h-32.942c-0.105,0-0.207,0.011-0.307,0.031
	c-0.689,0.141-1.21,0.752-1.21,1.483v0.001c0,0.836,0.68,1.515,1.517,1.515h32.942c0.837,0,1.517-0.679,1.517-1.515
	C-266.322,17.187-267.002,16.508-267.839,16.508"/>
<path display="none" fill="#F9A35F" d="M-284.5,65.754c31.756,0,57.5-25.744,57.5-57.5s-25.744-57.5-57.5-57.5
	S-342-23.502-342,8.254S-316.256,65.754-284.5,65.754"/>
<path display="none" fill="#FFFFFF" d="M-267.839-12.798h-32.942c-0.837,0-1.517,0.677-1.517,1.515c0,0.836,0.68,1.514,1.517,1.514
	h32.942c0.837,0,1.517-0.678,1.517-1.514C-266.322-12.121-267.002-12.798-267.839-12.798"/>
<path display="none" fill="#FFFFFF" d="M-267.839,26.276h-32.942c-0.837,0-1.517,0.677-1.517,1.514s0.68,1.515,1.517,1.515h32.942
	c0.837,0,1.517-0.678,1.517-1.515S-267.002,26.276-267.839,26.276"/>
<path display="none" fill="#FFFFFF" d="M-310.105-21.218h51.208v58.944h-51.208V-21.218z M-257.382-24.246h-54.237
	c-0.837,0-1.515,0.678-1.515,1.514V39.24c0,0.836,0.678,1.514,1.515,1.514h54.237c0.836,0,1.516-0.678,1.516-1.514v-61.972
	C-255.866-23.568-256.546-24.246-257.382-24.246"/>
<path display="none" fill="#FFFFFF" d="M-267.839-3.03h-32.942c-0.837,0-1.517,0.679-1.517,1.515S-301.618,0-300.781,0h32.942
	c0.837,0,1.517-0.679,1.517-1.515S-267.002-3.03-267.839-3.03"/>
<path display="none" fill="#FFFFFF" d="M-267.839,6.739h-32.942c-0.472,0-0.887,0.219-1.165,0.556
	c-0.216,0.262-0.352,0.593-0.352,0.959c0,0.836,0.68,1.515,1.517,1.515h32.942c0.837,0,1.517-0.679,1.517-1.515
	S-267.002,6.739-267.839,6.739"/>
<path display="none" fill="#FFFFFF" d="M-267.839,16.508h-32.942c-0.105,0-0.207,0.011-0.307,0.031
	c-0.689,0.141-1.21,0.752-1.21,1.483v0.001c0,0.836,0.68,1.515,1.517,1.515h32.942c0.837,0,1.517-0.679,1.517-1.515
	C-266.322,17.187-267.002,16.508-267.839,16.508"/>
<path fill="#F9A35F" d="M57.5,115c31.756,0,57.5-25.744,57.5-57.5S89.256,0,57.5,0S0,25.744,0,57.5S25.744,115,57.5,115"/>
<path fill="#FFFFFF" d="M74.161,36.448H41.219c-0.837,0-1.517,0.677-1.517,1.515c0,0.836,0.68,1.514,1.517,1.514h32.942
	c0.837,0,1.517-0.678,1.517-1.514C75.678,37.125,74.998,36.448,74.161,36.448"/>
<path fill="#FFFFFF" d="M74.161,75.522H41.219c-0.837,0-1.517,0.677-1.517,1.514s0.68,1.515,1.517,1.515h32.942
	c0.837,0,1.517-0.678,1.517-1.515S74.998,75.522,74.161,75.522"/>
<path fill="#FFFFFF" d="M31.895,28.028h51.208v58.944H31.895V28.028z M84.618,25H30.381c-0.837,0-1.515,0.678-1.515,1.514v61.972
	c0,0.836,0.678,1.514,1.515,1.514h54.237c0.836,0,1.516-0.678,1.516-1.514V26.514C86.134,25.678,85.454,25,84.618,25"/>
<path fill="#FFFFFF" d="M74.161,46.216H41.219c-0.837,0-1.517,0.679-1.517,1.515s0.68,1.515,1.517,1.515h32.942
	c0.837,0,1.517-0.679,1.517-1.515S74.998,46.216,74.161,46.216"/>
<path fill="#FFFFFF" d="M74.161,55.985H41.219c-0.472,0-0.887,0.219-1.165,0.556c-0.216,0.262-0.352,0.593-0.352,0.959
	c0,0.836,0.68,1.515,1.517,1.515h32.942c0.837,0,1.517-0.679,1.517-1.515S74.998,55.985,74.161,55.985"/>
<path fill="#FFFFFF" d="M74.161,65.754H41.219c-0.105,0-0.207,0.011-0.307,0.031c-0.689,0.141-1.21,0.752-1.21,1.483v0.001
	c0,0.836,0.68,1.515,1.517,1.515h32.942c0.837,0,1.517-0.679,1.517-1.515C75.678,66.433,74.998,65.754,74.161,65.754"/>
<path fill="#F9A35F" d="M57.5,115C25.744,115,0,89.256,0,57.5S25.744,0,57.5,0S115,25.744,115,57.5S89.256,115,57.5,115"/>
<path fill="#FFFFFF" d="M39.702,37.963c0-0.838,0.68-1.515,1.517-1.515h32.942c0.837,0,1.517,0.677,1.517,1.515
	c0,0.836-0.68,1.514-1.517,1.514H41.219C40.382,39.478,39.702,38.799,39.702,37.963z M41.219,78.552h32.942
	c0.837,0,1.517-0.678,1.517-1.515s-0.68-1.514-1.517-1.514H41.219c-0.837,0-1.517,0.677-1.517,1.514S40.382,78.552,41.219,78.552z
	 M86.134,26.514v61.972c0,0.836-0.68,1.514-1.516,1.514H30.381c-0.837,0-1.515-0.678-1.515-1.514V26.514
	c0-0.836,0.678-1.514,1.515-1.514h54.237C85.454,25,86.134,25.678,86.134,26.514z M83.103,28.028H31.895v58.944h51.208V28.028z
	 M41.219,49.246h32.942c0.837,0,1.517-0.679,1.517-1.515s-0.68-1.515-1.517-1.515H41.219c-0.837,0-1.517,0.679-1.517,1.515
	S40.382,49.246,41.219,49.246z M41.219,59.015h32.942c0.837,0,1.517-0.679,1.517-1.515s-0.68-1.515-1.517-1.515H41.219
	c-0.472,0-0.887,0.219-1.165,0.556c-0.216,0.262-0.352,0.593-0.352,0.959C39.702,58.336,40.382,59.015,41.219,59.015z
	 M41.219,68.784h32.942c0.837,0,1.517-0.679,1.517-1.515c0-0.836-0.68-1.515-1.517-1.515H41.219c-0.105,0-0.207,0.011-0.307,0.031
	c-0.689,0.141-1.21,0.752-1.21,1.483v0.001C39.702,68.105,40.382,68.784,41.219,68.784z"/>
</svg>
