<?xml version="1.0" encoding="utf-8"?>
<!-- Generator: Adobe Illustrator 16.0.0, SVG Export Plug-In . SVG Version: 6.00 Build 0)  -->
<!DOCTYPE svg PUBLIC "-//W3C//DTD SVG 1.1//EN" "http://www.w3.org/Graphics/SVG/1.1/DTD/svg11.dtd">
<svg version="1.1" id="Layer_1" xmlns="http://www.w3.org/2000/svg" xmlns:xlink="http://www.w3.org/1999/xlink" x="0px" y="0px"
	 width="20px" height="20px" viewBox="0 0 20 20" enable-background="new 0 0 20 20" xml:space="preserve">
<path d="M10,0C4.477,0,0,4.478,0,10c0,5.523,4.477,10,10,10s10-4.477,10-10C20,4.478,15.523,0,10,0z M10,19.089
	c-5.012,0-9.09-4.077-9.09-9.089S4.988,0.91,10,0.91s9.09,4.078,9.09,9.09S15.012,19.089,10,19.089z M10.949,8.379v7.072
	c0,0.528-0.422,0.949-0.949,0.949s-0.949-0.421-0.949-0.949V8.379C9.051,7.853,9.473,7.43,10,7.43S10.949,7.853,10.949,8.379z
	 M11.16,4.76c0,0.633-0.506,1.16-1.16,1.16c-0.633,0-1.16-0.527-1.16-1.16C8.84,4.128,9.367,3.6,10,3.6
	C10.654,3.6,11.16,4.128,11.16,4.76z"/>
</svg>
