<?xml version="1.0" encoding="utf-8"?>
<!-- Generator: Adobe Illustrator 16.0.0, SVG Export Plug-In . SVG Version: 6.00 Build 0)  -->
<!DOCTYPE svg PUBLIC "-//W3C//DTD SVG 1.1//EN" "http://www.w3.org/Graphics/SVG/1.1/DTD/svg11.dtd">
<svg version="1.1" id="Layer_1" xmlns="http://www.w3.org/2000/svg" xmlns:xlink="http://www.w3.org/1999/xlink" x="0px" y="0px"
	 width="30px" height="30px" viewBox="0 0 30 30" enable-background="new 0 0 30 30" xml:space="preserve">
<g>
	<defs>
		<path id="SVGID_1_" d="M15,30c8.284,0,15-6.716,15-15S23.284,0,15,0S0,6.716,0,15S6.716,30,15,30"/>
	</defs>
	<clipPath id="SVGID_2_">
		<use xlink:href="#SVGID_1_"  overflow="visible"/>
	</clipPath>
	<g clip-path="url(#SVGID_2_)">
		<path fill="#E1CEC1" d="M17.103,9.08c-1.02,0-1.979,0.397-2.7,1.118s-1.118,1.68-1.118,2.701c0,1.019,0.396,1.978,1.116,2.698
			c0.723,0.722,1.682,1.119,2.701,1.119c1.021,0,1.979-0.397,2.699-1.117c0.723-0.723,1.12-1.682,1.12-2.701
			c0-1.021-0.397-1.979-1.119-2.701C19.081,9.477,18.123,9.08,17.103,9.08z"/>
		<path fill="#E1CEC1" d="M15,0C6.716,0,0,6.716,0,15s6.716,15,15,15s15-6.716,15-15S23.284,0,15,0z M21.626,17.422
			c-1.249,1.25-2.886,1.874-4.524,1.874c-1.049,0-2.096-0.259-3.043-0.771l-4.44,4.441c-0.71,0.71-1.874,0.71-2.585-0.001
			s-0.711-1.874,0-2.585l4.44-4.441c-1.311-2.424-0.945-5.517,1.104-7.565c1.25-1.249,2.887-1.874,4.524-1.874
			s3.274,0.624,4.523,1.873C24.125,10.872,24.125,14.924,21.626,17.422z"/>
	</g>
</g>
</svg>
