<?xml version="1.0" encoding="utf-8"?>
<!-- Generator: Adobe Illustrator 15.1.0, SVG Export Plug-In . SVG Version: 6.00 Build 0)  -->
<!DOCTYPE svg PUBLIC "-//W3C//DTD SVG 1.1//EN" "http://www.w3.org/Graphics/SVG/1.1/DTD/svg11.dtd">
<svg version="1.1" id="Layer_1" xmlns="http://www.w3.org/2000/svg" xmlns:xlink="http://www.w3.org/1999/xlink" x="0px" y="0px"
	 width="40px" height="40px" viewBox="0 0 40 40" enable-background="new 0 0 40 40" xml:space="preserve">
<path fill="#585A5C" d="M20,0C8.955,0,0,8.955,0,20c0,11.046,8.955,20,20,20c11.047,0,20-8.954,20-20C40,8.955,31.047,0,20,0L20,0z"
	/>
<path fill="#FFFFFF" d="M26.297,14.361l-5.181,10.998h1.826l1.242-2.724h4.24l1.213,2.724h1.842L26.297,14.361z M24.829,21.198
	l1.093-2.412c0.12-0.28,0.254-0.666,0.388-1.199c0.151,0.533,0.287,0.917,0.406,1.199l1.094,2.412H24.829z"/>
<path fill="#FFFFFF" d="M17.372,20.223c0,0.667,0.75,0.77,1.827,1.199c1.215,0.473,1.783,1.036,1.783,2.028
	c0,1.331-1.019,2.19-2.831,2.19c-1.346,0-2.23-0.488-2.74-1.526l1.317-0.708c0.194,0.68,0.72,1.051,1.557,1.051
	c0.72,0,1.139-0.356,1.139-0.903c0-0.71-0.689-0.77-1.648-1.168c-1.319-0.549-1.992-1.081-1.992-2.075
	c0-1.182,1.004-2.056,2.651-2.056c1.093,0,1.872,0.415,2.217,1.123l-1.123,0.771c-0.166-0.429-0.598-0.711-1.153-0.711
	C17.761,19.438,17.372,19.75,17.372,20.223"/>
<path fill="#FFFFFF" d="M13.837,15.326c-0.72-0.521-1.587-0.55-2.68-0.55H8.521v10.583h1.633v-4.75h1.003
	c1.093,0,1.961-0.029,2.681-0.532c0.659-0.474,1.078-1.361,1.078-2.383C14.916,16.669,14.498,15.797,13.837,15.326z M10.708,19.201
	h-0.45v-2.947h0.45c1.617,0,2.41,0.267,2.41,1.541C13.119,19.024,12.311,19.201,10.708,19.201z"/>
</svg>
