<?xml version="1.0" encoding="utf-8"?>
<!-- Generator: Adobe Illustrator 15.1.0, SVG Export Plug-In . SVG Version: 6.00 Build 0)  -->
<!DOCTYPE svg PUBLIC "-//W3C//DTD SVG 1.1//EN" "http://www.w3.org/Graphics/SVG/1.1/DTD/svg11.dtd">
<svg version="1.1" id="Layer_1" xmlns="http://www.w3.org/2000/svg" xmlns:xlink="http://www.w3.org/1999/xlink" x="0px" y="0px"
	 width="40px" height="40px" viewBox="0 0 40 40" enable-background="new 0 0 40 40" xml:space="preserve">
<path fill="#585A5C" d="M20,0C8.955,0,0,8.955,0,20c0,11.046,8.955,20,20,20c11.047,0,20-8.954,20-20C40,8.955,31.047,0,20,0L20,0z"
	/>
<g>
	<path fill="#FFFFFF" d="M16.012,20.697c1.621-0.195,2.46-1.171,2.46-2.895c0-1.006-0.391-1.846-1.034-2.355
		c-0.659-0.51-1.516-0.602-2.669-0.602h-2.432v10.727h1.635v-4.801h0.195l3.57,4.801H19.7L16.012,20.697z M14.078,19.422v-3.074
		h0.313c1.561,0,2.296,0.285,2.296,1.605c0,1.289-0.766,1.469-2.296,1.469H14.078z"/>
	<path fill="#FFFFFF" d="M24.472,14.428l-5.19,11.145h1.829l1.246-2.76h4.245l1.216,2.76h1.846L24.472,14.428z M23.003,21.359
		l1.095-2.446c0.12-0.285,0.254-0.675,0.39-1.215c0.15,0.54,0.285,0.931,0.406,1.215l1.094,2.446H23.003z"/>
</g>
</svg>
