<?xml version="1.0" encoding="utf-8"?>
<!-- Generator: Adobe Illustrator 15.1.0, SVG Export Plug-In . SVG Version: 6.00 Build 0)  -->
<!DOCTYPE svg PUBLIC "-//W3C//DTD SVG 1.1//EN" "http://www.w3.org/Graphics/SVG/1.1/DTD/svg11.dtd">
<svg version="1.1" id="Layer_1" xmlns="http://www.w3.org/2000/svg" xmlns:xlink="http://www.w3.org/1999/xlink" x="0px" y="0px"
	 width="40px" height="40px" viewBox="0 0 40 40" enable-background="new 0 0 40 40" xml:space="preserve">
<path fill="#585A5C" d="M20,0C8.955,0,0,8.955,0,20c0,11.046,8.955,20,20,20c11.047,0,20-8.954,20-20C40,8.955,31.047,0,20,0L20,0z"
	/>
<g>
	<path fill="#FFFFFF" d="M28.269,22.293c0,1.979-1.334,3.291-3.551,3.291c-1.826,0-3.025-0.863-3.385-2.414l1.393-0.639
		c0.254,0.955,0.973,1.459,2.066,1.459c1.049,0,1.693-0.625,1.693-1.578c0-1.041-0.795-1.297-1.902-1.833
		c-1.903-0.923-2.95-1.638-2.95-3.246c0-1.713,1.273-2.918,3.219-2.918c1.587,0,2.683,0.64,3.085,1.757l-1.363,0.701
		c-0.418-0.656-0.913-0.968-1.586-0.968c-0.943,0-1.529,0.536-1.529,1.34c0,1.028,0.839,1.34,2.037,1.891
		C27.386,20,28.269,20.759,28.269,22.293"/>
	<path fill="#FFFFFF" d="M15.914,14.468l-5.183,11.064h1.827l1.243-2.74h4.237l1.214,2.74h1.844L15.914,14.468z M14.446,21.347
		l1.093-2.427c0.12-0.282,0.255-0.671,0.388-1.206c0.151,0.535,0.287,0.924,0.406,1.206l1.092,2.427H14.446z"/>
</g>
</svg>
