<?xml version="1.0" encoding="utf-8"?>
<!-- Generator: Adobe Illustrator 16.0.0, SVG Export Plug-In . SVG Version: 6.00 Build 0)  -->
<!DOCTYPE svg PUBLIC "-//W3C//DTD SVG 1.1//EN" "http://www.w3.org/Graphics/SVG/1.1/DTD/svg11.dtd">
<svg version="1.1" id="Layer_1" xmlns="http://www.w3.org/2000/svg" xmlns:xlink="http://www.w3.org/1999/xlink" x="0px" y="0px"
	 width="115px" height="115px" viewBox="0 0 115 115" enable-background="new 0 0 115 115" xml:space="preserve">
<g>
	<g>
		<path fill="#F9A35F" d="M57.5,115C25.744,115,0,89.256,0,57.5S25.744,0,57.5,0S115,25.744,115,57.5S89.256,115,57.5,115"/>
		<path fill="#FFFFFF" d="M43.738,53.09c0-2.546-1.587-3.079-4.822-3.079h-0.898v5.891h0.898
			C42.121,55.902,43.738,55.546,43.738,53.09 M67.159,59.898h5.96l-2.186-4.825c-0.24-0.562-0.511-1.332-0.81-2.398
			c-0.27,1.066-0.539,1.836-0.778,2.398L67.159,59.898z M80.457,68.215h-3.684l-2.426-5.446h-8.477l-2.485,5.446h-3.654
			l10.363-21.993L80.457,68.215z M52.244,57.944c0,1.332,1.497,1.539,3.654,2.398c2.426,0.947,3.563,2.072,3.563,4.055
			c0,2.664-2.037,4.381-5.66,4.381c-2.695,0-4.463-0.977-5.481-3.049l2.636-1.421c0.39,1.362,1.438,2.102,3.115,2.102
			c1.438,0,2.276-0.711,2.276-1.806c0-1.421-1.378-1.539-3.295-2.338c-2.636-1.096-3.983-2.161-3.983-4.145
			c0-2.367,2.007-4.114,5.301-4.114c2.188,0,3.744,0.829,4.434,2.25l-2.246,1.539c-0.33-0.858-1.198-1.421-2.308-1.421
			C53.023,56.375,52.244,56.997,52.244,57.944 M47.332,52.883c0,2.042-0.839,3.818-2.155,4.765
			c-1.438,1.006-3.176,1.066-5.362,1.066h-2.006v9.501h-3.266V47.051h5.271c2.187,0,3.924,0.06,5.362,1.096
			C46.493,49.094,47.332,50.84,47.332,52.883 M97.5,54.352l-2.468-2.797l1.483-3.422l-2.875-2.376l0.93-3.612l-3.212-1.897
			l0.353-3.713l-3.468-1.371l-0.232-3.722L84.37,30.63l-0.812-3.64l-3.723-0.233l-1.371-3.468l-3.713,0.353l-1.896-3.212
			l-3.612,0.93l-2.376-2.875l-3.422,1.483L60.648,17.5l-3.148,2l-3.147-2l-2.796,2.468l-3.423-1.483l-2.377,2.875l-3.611-0.93
			l-1.897,3.212l-3.713-0.353l-1.371,3.468l-3.722,0.233l-0.812,3.64l-3.64,0.812l-0.233,3.722l-3.468,1.371l0.354,3.713
			l-3.211,1.897l0.929,3.612l-2.875,2.376l1.483,3.422L17.5,54.352l2,3.148l-2,3.148l2.469,2.796l-1.483,3.423l2.875,2.376
			l-0.929,3.612l3.211,1.897l-0.354,3.712l3.468,1.372l0.233,3.722l3.64,0.812l0.812,3.64l3.722,0.233l1.371,3.468l3.713-0.353
			l1.897,3.211l3.611-0.929l2.377,2.875l3.423-1.483l2.796,2.468l3.147-2l3.148,2l2.797-2.468l3.422,1.483l2.376-2.875l3.612,0.929
			l1.896-3.211l3.713,0.353l1.371-3.468l3.723-0.233l0.812-3.64l3.641-0.812l0.232-3.722l3.468-1.372l-0.353-3.712l3.212-1.897
			l-0.93-3.612l2.875-2.376l-1.483-3.423l2.468-2.796l-2-3.148L97.5,54.352z"/>
	</g>
</g>
</svg>
