<?xml version="1.0" encoding="utf-8"?>
<!-- Generator: Adobe Illustrator 15.1.0, SVG Export Plug-In . SVG Version: 6.00 Build 0)  -->
<!DOCTYPE svg PUBLIC "-//W3C//DTD SVG 1.1//EN" "http://www.w3.org/Graphics/SVG/1.1/DTD/svg11.dtd">
<svg version="1.1" id="Layer_1" xmlns="http://www.w3.org/2000/svg" xmlns:xlink="http://www.w3.org/1999/xlink" x="0px" y="0px"
	 width="40px" height="50px" viewBox="0 0 40 50" enable-background="new 0 0 40 50" xml:space="preserve">
<path fill="#F9A35F" d="M19.723,20.771l-3.886,8.248h1.37l0.932-2.042h3.18l0.909,2.042h1.382L19.723,20.771z M18.622,25.899
	l0.82-1.809c0.089-0.21,0.19-0.499,0.291-0.899c0.112,0.4,0.214,0.688,0.304,0.899l0.82,1.809H18.622z"/>
<path fill="#F9A35F" d="M13.029,25.167c0,0.5,0.562,0.577,1.37,0.899c0.911,0.355,1.337,0.778,1.337,1.522
	c0,0.998-0.764,1.642-2.123,1.642c-1.01,0-1.673-0.366-2.055-1.144l0.988-0.531c0.146,0.509,0.54,0.788,1.168,0.788
	c0.54,0,0.854-0.268,0.854-0.678c0-0.532-0.517-0.577-1.236-0.876c-0.989-0.411-1.494-0.811-1.494-1.556
	c0-0.887,0.753-1.542,1.988-1.542c0.82,0,1.404,0.311,1.663,0.842l-0.842,0.579c-0.124-0.322-0.449-0.534-0.865-0.534
	C13.321,24.578,13.029,24.812,13.029,25.167"/>
<path fill="#F9A35F" d="M10.378,21.494c-0.54-0.39-1.19-0.412-2.01-0.412H6.391v7.938h1.225v-3.563h0.752
	c0.82,0,1.471-0.022,2.011-0.399c0.494-0.355,0.808-1.021,0.808-1.787C11.187,22.502,10.873,21.848,10.378,21.494z M8.031,24.401
	H7.694v-2.21h0.337c1.213,0,1.808,0.2,1.808,1.155C9.839,24.268,9.233,24.401,8.031,24.401z"/>
<g>
	<path fill="#F9A35F" d="M15,11c7.72,0,14,6.28,14,14S22.72,39,15,39S1,32.72,1,25S7.28,11,15,11 M15,10C6.716,10,0,16.716,0,25
		c0,8.284,6.716,15,15,15c8.285,0,15-6.716,15-15C30,16.716,23.285,10,15,10L15,10z"/>
</g>
</svg>
