<?xml version="1.0" encoding="utf-8"?>
<!-- Generator: Adobe Illustrator 16.0.0, SVG Export Plug-In . SVG Version: 6.00 Build 0)  -->
<!DOCTYPE svg PUBLIC "-//W3C//DTD SVG 1.1//EN" "http://www.w3.org/Graphics/SVG/1.1/DTD/svg11.dtd">
<svg version="1.1" id="Layer_1" xmlns="http://www.w3.org/2000/svg" xmlns:xlink="http://www.w3.org/1999/xlink" x="0px" y="0px"
	 width="115px" height="115px" viewBox="0 0 115 115" enable-background="new 0 0 115 115" xml:space="preserve">
<path fill="#F9A35F" d="M57.5,115C25.744,115,0,89.256,0,57.5S25.744,0,57.5,0S115,25.744,115,57.5S89.256,115,57.5,115"/>
<path fill="#FFFFFF" d="M97.5,54.352l-2.468-2.797l1.483-3.422l-2.875-2.376l0.93-3.612l-3.212-1.896l0.353-3.713l-3.468-1.371
	l-0.232-3.722L84.37,30.63l-0.812-3.64l-3.723-0.233l-1.371-3.468l-3.713,0.353l-1.896-3.212l-3.612,0.931l-2.376-2.875
	l-3.422,1.482L60.648,17.5l-3.148,2l-3.147-2l-2.796,2.468l-3.423-1.482l-2.377,2.875l-3.611-0.931l-1.897,3.212l-3.713-0.353
	l-1.371,3.468l-3.722,0.233l-0.812,3.64l-3.64,0.812l-0.233,3.722l-3.468,1.371l0.354,3.713l-3.211,1.896l0.929,3.612l-2.875,2.376
	l1.483,3.422L17.5,54.352l2,3.148l-2,3.147l2.469,2.797l-1.483,3.423l2.875,2.376l-0.929,3.611l3.211,1.897l-0.354,3.712
	l3.468,1.372l0.233,3.722l3.64,0.812l0.812,3.64l3.722,0.233l1.371,3.468l3.713-0.354l1.897,3.212l3.611-0.93l2.377,2.875
	l3.423-1.482l2.796,2.468l3.147-2l3.148,2l2.797-2.468l3.422,1.482l2.376-2.875l3.612,0.93l1.896-3.212l3.713,0.354l1.371-3.468
	l3.723-0.233l0.812-3.64l3.641-0.812l0.232-3.722l3.468-1.372l-0.353-3.712l3.212-1.897l-0.93-3.611l2.875-2.376l-1.483-3.423
	l2.468-2.797l-2-3.147L97.5,54.352z M43.444,68.645h-3.27V47.195h4.859c2.311,0,4.021,0.18,5.34,1.2
	c1.29,1.02,2.07,2.699,2.07,4.709c0,3.45-1.68,5.4-4.92,5.79l7.38,9.75h-3.93l-7.14-9.6h-0.391V68.645z M44.284,56.345
	c3.061,0,4.59-0.36,4.59-2.939c0-2.641-1.47-3.21-4.59-3.21h-0.63v6.149H44.284z M68.704,63.124h-8.489l-2.49,5.521h-3.66
	l10.38-22.289l10.38,22.289h-3.69L68.704,63.124z M67.475,60.215l-2.19-4.89c-0.24-0.57-0.51-1.351-0.81-2.431
	c-0.271,1.08-0.54,1.86-0.78,2.431l-2.19,4.89H67.475z"/>
</svg>
