<?xml version="1.0" encoding="utf-8"?>
<!-- Generator: Adobe Illustrator 16.0.0, SVG Export Plug-In . SVG Version: 6.00 Build 0)  -->
<!DOCTYPE svg PUBLIC "-//W3C//DTD SVG 1.1//EN" "http://www.w3.org/Graphics/SVG/1.1/DTD/svg11.dtd">
<svg version="1.1" id="Layer_1" xmlns="http://www.w3.org/2000/svg" xmlns:xlink="http://www.w3.org/1999/xlink" x="0px" y="0px"
	 width="26.482px" height="20px" viewBox="0 0 26.482 20" enable-background="new 0 0 26.482 20" xml:space="preserve">
<path d="M26.347,3.527c-0.676-0.675-1.408-1.242-2.177-1.684l-0.204-0.118V0.654c0-0.227-0.163-0.419-0.387-0.457
	C22.805,0.067,22.034,0,21.287,0c-4.069,0-6.642,1.882-7.812,3.003l-0.246,0.236l-0.275-0.201c-1.187-0.864-3.609-2.315-6.511-2.315
	c-2.324,0-4.446,0.943-6.308,2.803C0.048,3.614,0,3.731,0,3.854V19.15c0,0.157,0.084,0.308,0.22,0.393
	c0.073,0.045,0.158,0.068,0.245,0.068c0.071,0,0.142-0.016,0.205-0.047c0.021-0.012,2.322-1.135,5.684-1.135
	c2.28,0,4.519,0.508,6.659,1.512l0.033,0.016c0.025,0.012,0.054,0.021,0.101,0.033c0.024,0.004,0.05,0.009,0.073,0.01h0.027
	c0.024-0.001,0.049-0.004,0.074-0.008l0.029-0.004c0.09-0.008,0.172-0.037,0.239-0.088l0.035-0.024l0.04-0.019
	c2.083-0.947,4.258-1.427,6.463-1.427c3.214,0,5.433,1.015,5.685,1.134c0.063,0.032,0.134,0.049,0.206,0.049
	c0.086,0,0.17-0.023,0.244-0.069c0.138-0.086,0.22-0.233,0.22-0.394V3.855C26.482,3.733,26.433,3.613,26.347,3.527z M12.776,18.81
	l-0.553-0.212c-1.897-0.727-3.873-1.096-5.87-1.096c-2.117,0-3.829,0.415-4.893,0.762l-0.534,0.174V4.047l0.129-0.121
	c1.615-1.509,3.427-2.275,5.387-2.275c2.854,0,5.269,1.606,6.175,2.297l0.159,0.122V18.81z M13.777,18.371V4.017l0.112-0.118
	c0.666-0.697,3.169-2.971,7.397-2.971c0.454,0,0.921,0.026,1.39,0.079l0.362,0.04V15.39l-0.442-0.036
	c-0.303-0.025-0.615-0.039-0.927-0.039c-1.51,0-4.459,0.329-7.232,2.531L13.777,18.371z M25.556,18.438l-0.534-0.174
	c-1.063-0.347-2.775-0.761-4.893-0.761c-0.56,0-1.144,0.032-1.736,0.097c-1.427,0.096-2.576,0.508-3.627,0.96
	c1.585-1.343,3.452-1.751,3.452-1.751c1.106-0.376,2.268-0.566,3.452-0.566c0.948,0,1.593,0.129,1.687,0.15l0.037,0.008
	c0.035,0.008,0.072,0.012,0.108,0.012c0.104,0,0.206-0.035,0.287-0.098c0.111-0.09,0.177-0.223,0.177-0.365V2.595l0.68,0.614
	c0.265,0.238,0.526,0.479,0.78,0.717l0.13,0.121V18.438z"/>
</svg>
