<?xml version="1.0" encoding="utf-8"?>
<!-- Generator: Adobe Illustrator 15.1.0, SVG Export Plug-In . SVG Version: 6.00 Build 0)  -->
<!DOCTYPE svg PUBLIC "-//W3C//DTD SVG 1.1//EN" "http://www.w3.org/Graphics/SVG/1.1/DTD/svg11.dtd">
<svg version="1.1" id="Layer_1" xmlns="http://www.w3.org/2000/svg" xmlns:xlink="http://www.w3.org/1999/xlink" x="0px" y="0px"
	 width="49.417px" height="50px" viewBox="0 0 49.417 50" enable-background="new 0 0 49.417 50" xml:space="preserve">
<polygon points="26.654,0 24.708,1.249 22.764,0 21.036,1.542 18.923,0.615 17.455,2.412 15.224,1.831 14.053,3.839 11.759,3.618 
	10.912,5.786 8.613,5.931 8.111,8.206 5.863,8.713 5.719,11.04 3.577,11.897 3.794,14.217 1.811,15.403 2.385,17.661 0.61,19.146 
	1.525,21.285 0,23.033 1.237,25 0,26.967 1.525,28.716 0.61,30.854 2.385,32.34 1.811,34.598 3.794,35.782 3.577,38.104 
	5.719,38.96 5.863,41.286 8.111,41.794 8.613,44.07 10.912,44.214 11.759,46.382 14.053,46.162 15.224,48.169 17.455,47.588 
	18.923,49.384 21.036,48.458 22.764,50 24.708,48.75 26.654,50 28.38,48.458 30.494,49.384 31.962,47.588 34.193,48.169 
	35.365,46.162 37.66,46.382 38.505,44.214 40.805,44.07 41.306,41.794 43.554,41.286 43.699,38.96 45.841,38.104 45.623,35.782 
	47.606,34.598 47.033,32.34 48.808,30.854 47.893,28.716 49.417,26.967 48.181,25 49.417,23.033 47.893,21.285 48.808,19.146 
	47.033,17.661 47.606,15.403 45.623,14.217 45.841,11.897 43.699,11.04 43.554,8.713 41.306,8.206 40.805,5.931 38.505,5.786 
	37.66,3.618 35.365,3.839 34.193,1.831 31.962,2.412 30.494,0.615 28.38,1.542 "/>
</svg>
