<?xml version="1.0" encoding="utf-8"?>
<!-- Generator: Adobe Illustrator 15.1.0, SVG Export Plug-In . SVG Version: 6.00 Build 0)  -->
<!DOCTYPE svg PUBLIC "-//W3C//DTD SVG 1.1//EN" "http://www.w3.org/Graphics/SVG/1.1/DTD/svg11.dtd">
<svg version="1.1" id="Layer_1" xmlns="http://www.w3.org/2000/svg" xmlns:xlink="http://www.w3.org/1999/xlink" x="0px" y="0px"
	 width="10px" height="8.936px" viewBox="0 0 10 8.936" enable-background="new 0 0 10 8.936" xml:space="preserve">
<g>
	<path fill="#F9A35F" d="M5.182,0.067C5.133,0.023,5.071,0,5.01,0C4.948,0,4.886,0.022,4.838,0.066L0.085,4.349
		C0.006,4.421-0.021,4.533,0.018,4.632c0.037,0.1,0.135,0.165,0.239,0.165h1.761V8.68c0,0.141,0.115,0.256,0.258,0.256h5.451
		c0.142,0,0.256-0.115,0.256-0.256V4.798h1.762c0.105,0,0.201-0.064,0.24-0.163c0.037-0.102,0.011-0.213-0.067-0.283L5.182,0.067z"
		/>
</g>
</svg>
