<?xml version="1.0" encoding="utf-8"?>
<!-- Generator: Adobe Illustrator 15.1.0, SVG Export Plug-In . SVG Version: 6.00 Build 0)  -->
<!DOCTYPE svg PUBLIC "-//W3C//DTD SVG 1.1//EN" "http://www.w3.org/Graphics/SVG/1.1/DTD/svg11.dtd">
<svg version="1.1" id="Layer_1" xmlns="http://www.w3.org/2000/svg" xmlns:xlink="http://www.w3.org/1999/xlink" x="0px" y="0px"
	 width="310px" height="200px" viewBox="0 0 310 200" enable-background="new 0 0 310 200" xml:space="preserve">
<g>
	<polygon fill="#F9A25E" points="160.51,30 155,33.5 149.491,30 144.597,34.318 138.608,31.723 134.45,36.755 128.129,35.129 
		124.81,40.749 118.312,40.131 115.912,46.2 109.398,46.607 107.977,52.978 101.607,54.397 101.2,60.911 95.13,63.312 95.748,69.81 
		90.128,73.13 91.754,79.45 86.723,83.607 89.319,89.597 85,94.49 88.5,100 85,105.509 89.319,110.402 86.723,116.392 
		91.754,120.55 90.128,126.871 95.748,130.19 95.13,136.688 101.2,139.088 101.607,145.602 107.977,147.021 109.398,153.394 
		115.912,153.8 118.312,159.869 124.81,159.253 128.129,164.872 134.45,163.246 138.608,168.276 144.597,165.681 149.491,170 
		155,166.5 160.51,170 165.403,165.681 171.393,168.276 175.551,163.246 181.87,164.872 185.191,159.253 191.688,159.869 
		194.088,153.8 200.602,153.394 202.021,147.021 208.393,145.602 208.799,139.088 214.869,136.688 214.252,130.19 219.871,126.871 
		218.245,120.55 223.275,116.392 220.682,110.402 225,105.509 221.5,100 225,94.49 220.682,89.597 223.275,83.607 218.245,79.45 
		219.871,73.13 214.252,69.81 214.869,63.312 208.799,60.911 208.393,54.397 202.021,52.978 200.602,46.607 194.088,46.2 
		191.688,40.131 185.191,40.749 181.87,35.129 175.551,36.755 171.393,31.723 165.403,34.318 	"/>
	<g>
		<path fill="#FFFFFF" d="M99.027,92.528h2.488v15.34h-2.488V92.528z"/>
		<path fill="#FFFFFF" d="M104.711,97.935h2.146v1.631c0.923-1.395,2.103-1.974,3.84-1.974c1.48,0,2.532,0.472,3.111,1.395
			c0.493,0.751,0.493,1.652,0.493,2.854v6.028h-2.295v-5.106c0-2.209-0.279-3.239-2.167-3.239c-1.073,0-1.931,0.408-2.403,1.116
			c-0.407,0.601-0.45,1.458-0.45,2.703v4.526h-2.274V97.935z"/>
		<path fill="#FFFFFF" d="M117.646,99.931h-1.738v-1.996h1.738v-3.754h2.274v3.754h1.738v1.996h-1.738v7.938h-2.274V99.931z"/>
		<path fill="#FFFFFF" d="M128.135,97.592c0.644,0,1.266,0.15,1.866,0.45l-0.815,1.931c-0.429-0.3-0.88-0.407-1.395-0.407
			c-1.609,0-2.124,1.266-2.124,3.947v4.355h-2.274v-9.954h2.274v1.608C126.161,98.214,126.934,97.592,128.135,97.592z"/>
		<path fill="#FFFFFF" d="M131.974,99.137c1.03-1.009,2.403-1.545,3.84-1.545c1.48,0,2.832,0.536,3.883,1.566
			c1.03,1.008,1.609,2.316,1.609,3.754c0,1.48-0.558,2.789-1.588,3.776c-1.073,1.029-2.424,1.587-3.904,1.587
			c-1.438,0-2.811-0.558-3.84-1.565c-1.051-1.03-1.609-2.339-1.609-3.798C130.365,101.475,130.923,100.145,131.974,99.137z
			 M135.836,99.63c-1.695,0-3.068,1.438-3.068,3.304s1.373,3.304,3.068,3.304c1.673,0,3.068-1.438,3.068-3.304
			S137.531,99.63,135.836,99.63z"/>
		<path fill="#FFFFFF" d="M152.868,91.628v16.24h-2.274v-1.287c-0.815,1.137-1.888,1.694-3.283,1.694
			c-2.768,0-4.526-1.995-4.526-5.385c0-3.196,1.845-5.299,4.462-5.299c1.63,0,2.81,0.708,3.347,1.974v-7.938H152.868z
			 M147.934,99.608c-1.716,0-2.768,1.244-2.768,3.347c0,2.124,1.008,3.304,2.725,3.304c1.587,0,2.768-1.287,2.768-3.39
			C150.658,100.788,149.628,99.608,147.934,99.608z"/>
		<path fill="#FFFFFF" d="M158.014,103.534c0,1.867,0.688,2.703,2.532,2.703s2.531-0.836,2.531-2.703v-5.6h2.274v4.913
			c0,3.712-1.373,5.428-4.784,5.428c-3.476,0-4.827-1.694-4.827-5.428v-4.913h2.273V103.534z"/>
		<path fill="#FFFFFF" d="M172.9,99.587c-1.845,0-3.067,1.287-3.067,3.282c0,2.081,1.201,3.325,3.175,3.325
			c1.094,0,1.953-0.407,2.617-1.244v2.617c-0.836,0.473-1.78,0.708-2.875,0.708c-3.11,0-5.277-2.188-5.277-5.342
			c0-3.196,2.231-5.342,5.514-5.342c1.009,0,1.867,0.193,2.639,0.622v2.553C174.939,100.016,173.995,99.587,172.9,99.587z"/>
		<path fill="#FFFFFF" d="M178.284,99.931h-1.737v-1.996h1.737v-3.754h2.274v3.754h1.737v1.996h-1.737v7.938h-2.274V99.931z"/>
		<path fill="#FFFFFF" d="M185.277,92.229c0.793,0,1.416,0.601,1.416,1.416s-0.623,1.438-1.416,1.438
			c-0.795,0-1.438-0.665-1.438-1.438S184.482,92.229,185.277,92.229z M184.14,97.935h2.274v9.934h-2.274V97.935z"/>
		<path fill="#FFFFFF" d="M190.317,99.137c1.03-1.009,2.403-1.545,3.841-1.545c1.479,0,2.831,0.536,3.883,1.566
			c1.029,1.008,1.609,2.316,1.609,3.754c0,1.48-0.559,2.789-1.588,3.776c-1.073,1.029-2.425,1.587-3.904,1.587
			c-1.438,0-2.811-0.558-3.841-1.565c-1.052-1.03-1.608-2.339-1.608-3.798C188.709,101.475,189.266,100.145,190.317,99.137z
			 M194.18,99.63c-1.695,0-3.068,1.438-3.068,3.304s1.373,3.304,3.068,3.304c1.673,0,3.067-1.438,3.067-3.304
			S195.874,99.63,194.18,99.63z"/>
		<path fill="#FFFFFF" d="M201.857,97.935h2.145v1.631c0.923-1.395,2.104-1.974,3.841-1.974c1.48,0,2.532,0.472,3.11,1.395
			c0.494,0.751,0.494,1.652,0.494,2.854v6.028h-2.296v-5.106c0-2.209-0.278-3.239-2.167-3.239c-1.072,0-1.931,0.408-2.402,1.116
			c-0.408,0.601-0.451,1.458-0.451,2.703v4.526h-2.273V97.935z"/>
	</g>
</g>
</svg>
