<?xml version="1.0" encoding="utf-8"?>
<!-- Generator: Adobe Illustrator 15.1.0, SVG Export Plug-In . SVG Version: 6.00 Build 0)  -->
<!DOCTYPE svg PUBLIC "-//W3C//DTD SVG 1.1//EN" "http://www.w3.org/Graphics/SVG/1.1/DTD/svg11.dtd">
<svg version="1.1" id="Layer_1" xmlns="http://www.w3.org/2000/svg" xmlns:xlink="http://www.w3.org/1999/xlink" x="0px" y="0px"
	 width="310px" height="200px" viewBox="0 0 310 200" enable-background="new 0 0 310 200" xml:space="preserve">
<polygon fill="#F9A25E" points="160.51,30 155,33.5 149.491,30 144.597,34.318 138.608,31.723 134.45,36.755 128.13,35.129 
	124.81,40.749 118.312,40.131 115.912,46.2 109.398,46.607 107.978,52.978 101.607,54.397 101.201,60.911 95.13,63.312 
	95.748,69.81 90.128,73.13 91.754,79.45 86.723,83.607 89.319,89.597 85,94.49 88.5,100 85,105.509 89.319,110.402 86.723,116.392 
	91.754,120.55 90.128,126.871 95.748,130.19 95.13,136.688 101.201,139.088 101.607,145.602 107.978,147.021 109.398,153.394 
	115.912,153.8 118.312,159.869 124.81,159.253 128.13,164.872 134.45,163.246 138.608,168.276 144.597,165.681 149.491,170 
	155,166.5 160.51,170 165.404,165.681 171.393,168.276 175.551,163.246 181.871,164.872 185.191,159.253 191.688,159.869 
	194.088,153.8 200.602,153.394 202.021,147.021 208.393,145.602 208.799,139.088 214.869,136.688 214.252,130.19 219.871,126.871 
	218.246,120.55 223.277,116.392 220.682,110.402 225,105.509 221.5,100 225,94.49 220.682,89.597 223.277,83.607 218.246,79.45 
	219.871,73.13 214.252,69.81 214.869,63.312 208.799,60.911 208.393,54.397 202.021,52.978 200.602,46.607 194.088,46.2 
	191.688,40.131 185.191,40.749 181.871,35.129 175.551,36.755 171.393,31.723 165.404,34.318 "/>
<g>
	<path fill="#FFFFFF" d="M107.07,105.781h-2.338V90.442h3.776c1.566,0,2.811,0.043,3.84,0.794c0.944,0.687,1.544,1.952,1.544,3.433
		s-0.601,2.768-1.544,3.454c-1.03,0.729-2.274,0.772-3.84,0.772h-1.438V105.781z M107.864,96.857c2.295,0,3.454-0.258,3.454-2.038
		c0-1.845-1.137-2.231-3.454-2.231h-0.644v4.27H107.864z"/>
	<path fill="#FFFFFF" d="M115.95,90.442h8.56v2.124h-6.071v3.841h6.071v2.188h-6.071v4.957h6.071v2.23h-8.56V90.442z"/>
	<path fill="#FFFFFF" d="M141.714,97.929c0.021,0.623,0.043,1.095,0.043,1.438c0,4.356-2.617,6.823-7.08,6.823
		c-2.51,0-4.462-0.73-5.943-2.23c-1.458-1.48-2.252-3.541-2.252-5.815c0-2.316,0.794-4.291,2.338-5.792
		c1.502-1.459,3.562-2.253,5.857-2.253c2.424,0,4.312,0.88,5.792,2.682l-1.824,1.373c-1.03-1.201-2.317-1.78-3.926-1.78
		c-3.283,0-5.643,2.295-5.643,5.749c0,3.497,2.338,5.836,5.664,5.836c2.875,0,4.591-1.438,4.591-3.712v-0.215h-3.69v-2.103H141.714z
		"/>
	<path fill="#FFFFFF" d="M143.363,110.459l2.725-5.535l-3.647-9.076h2.51l1.823,5.15c0.236,0.664,0.386,1.33,0.472,1.951
		c0.15-0.578,0.429-1.18,0.708-1.801l2.446-5.3h2.467l-7.166,14.611H143.363z"/>
	<path fill="#FFFFFF" d="M153.98,89.542h2.273v16.24h-2.273V89.542z"/>
	<path fill="#FFFFFF" d="M166.359,105.781v-1.287c-0.816,1.137-1.889,1.695-3.283,1.695c-2.768,0-4.527-1.996-4.527-5.385
		c0-3.197,1.846-5.299,4.463-5.299c1.631,0,2.811,0.708,3.348,1.974v-1.631h2.273v9.933H166.359z M163.699,97.522
		c-1.717,0-2.768,1.244-2.768,3.347c0,2.123,1.008,3.303,2.725,3.303c1.564,0,2.768-1.287,2.768-3.389
		C166.424,98.702,165.393,97.522,163.699,97.522z"/>
	<path fill="#FFFFFF" d="M172.105,97.844h-1.738v-1.996h1.738v-3.754h2.273v3.754h1.738v1.996h-1.738v7.937h-2.273V97.844z"/>
	<path fill="#FFFFFF" d="M179.119,90.142c0.795,0,1.416,0.601,1.416,1.416s-0.621,1.438-1.416,1.438
		c-0.793,0-1.438-0.665-1.438-1.438S178.326,90.142,179.119,90.142z M177.982,95.848h2.273v9.933h-2.273V95.848z"/>
	<path fill="#FFFFFF" d="M184.16,97.05c1.029-1.009,2.402-1.545,3.84-1.545c1.48,0,2.832,0.536,3.883,1.566
		c1.031,1.008,1.609,2.316,1.609,3.754c0,1.48-0.557,2.789-1.588,3.775c-1.072,1.029-2.424,1.588-3.904,1.588
		c-1.438,0-2.811-0.559-3.84-1.566c-1.051-1.029-1.609-2.338-1.609-3.797C182.551,99.388,183.109,98.058,184.16,97.05z
		 M188.021,97.543c-1.693,0-3.066,1.438-3.066,3.304c0,1.865,1.373,3.303,3.066,3.303c1.674,0,3.068-1.438,3.068-3.303
		C191.09,98.981,189.717,97.543,188.021,97.543z"/>
	<path fill="#FFFFFF" d="M195.678,95.848h2.146v1.631c0.922-1.395,2.102-1.974,3.84-1.974c1.48,0,2.531,0.472,3.111,1.395
		c0.492,0.751,0.492,1.652,0.492,2.854v6.028h-2.295v-5.105c0-2.209-0.279-3.24-2.166-3.24c-1.072,0-1.932,0.408-2.404,1.116
		c-0.406,0.601-0.449,1.458-0.449,2.704v4.525h-2.275V95.848z"/>
</g>
</svg>
