<?xml version="1.0" encoding="utf-8"?>
<!-- Generator: Adobe Illustrator 15.1.0, SVG Export Plug-In . SVG Version: 6.00 Build 0)  -->
<!DOCTYPE svg PUBLIC "-//W3C//DTD SVG 1.1//EN" "http://www.w3.org/Graphics/SVG/1.1/DTD/svg11.dtd">
<svg version="1.1" id="Layer_1" xmlns="http://www.w3.org/2000/svg" xmlns:xlink="http://www.w3.org/1999/xlink" x="0px" y="0px"
	 width="310px" height="200px" viewBox="0 0 310 200" enable-background="new 0 0 310 200" xml:space="preserve">
<polygon fill="#F9A25E" points="160.51,30 155,33.5 149.491,30 144.598,34.318 138.607,31.723 134.45,36.755 128.129,35.129 
	124.811,40.749 118.312,40.131 115.912,46.2 109.398,46.607 107.977,52.978 101.607,54.397 101.2,60.911 95.13,63.312 95.748,69.81 
	90.128,73.13 91.754,79.45 86.723,83.607 89.319,89.597 85,94.49 88.5,100 85,105.509 89.319,110.402 86.723,116.392 91.754,120.55 
	90.128,126.871 95.748,130.19 95.13,136.688 101.2,139.088 101.607,145.602 107.977,147.021 109.398,153.394 115.912,153.8 
	118.312,159.869 124.811,159.253 128.129,164.872 134.45,163.246 138.607,168.276 144.598,165.681 149.491,170 155,166.5 
	160.51,170 165.403,165.681 171.393,168.276 175.551,163.246 181.87,164.872 185.191,159.253 191.688,159.869 194.088,153.8 
	200.602,153.394 202.021,147.021 208.393,145.602 208.799,139.088 214.869,136.688 214.252,130.19 219.871,126.871 218.245,120.55 
	223.275,116.392 220.682,110.402 225,105.509 221.5,100 225,94.49 220.682,89.597 223.275,83.607 218.245,79.45 219.871,73.13 
	214.252,69.81 214.869,63.312 208.799,60.911 208.393,54.397 202.021,52.978 200.602,46.607 194.088,46.2 191.688,40.131 
	185.191,40.749 181.87,35.129 175.551,36.755 171.393,31.723 165.403,34.318 "/>
<g>
	<g>
		<path fill="#FFFFFF" d="M112.146,87.516c-0.129,0.729-0.365,1.416-0.709,2.124l-4.012,8.174l-4.012-8.346
			c-0.3-0.622-0.558-1.266-0.75-1.952c-0.021,0.729-0.129,1.438-0.279,2.124l-1.652,7.552h-2.295l3.625-15.94l4.527,9.633
			c0.129,0.279,0.407,0.966,0.836,2.081c0.301-0.858,0.645-1.545,0.88-2.081l4.42-9.633l3.712,15.94h-2.317l-1.695-7.573
			C112.36,89.339,112.296,88.652,112.146,87.516z"/>
		<path fill="#FFFFFF" d="M118.921,88.46c1.029-1.009,2.402-1.545,3.84-1.545c1.48,0,2.832,0.536,3.883,1.566
			c1.03,1.008,1.609,2.316,1.609,3.754c0,1.48-0.558,2.789-1.588,3.776c-1.072,1.029-2.424,1.587-3.904,1.587
			c-1.438,0-2.811-0.558-3.84-1.565c-1.051-1.03-1.609-2.339-1.609-3.798C117.312,90.798,117.87,89.468,118.921,88.46z
			 M122.782,88.953c-1.694,0-3.067,1.438-3.067,3.304s1.373,3.304,3.067,3.304c1.674,0,3.068-1.438,3.068-3.304
			S124.478,88.953,122.782,88.953z"/>
		<path fill="#FFFFFF" d="M130.439,87.258h2.146v1.631c0.923-1.395,2.103-1.974,3.84-1.974c1.48,0,2.532,0.472,3.111,1.395
			c0.493,0.751,0.493,1.652,0.493,2.854v6.028h-2.296v-5.106c0-2.209-0.278-3.239-2.166-3.239c-1.072,0-1.932,0.408-2.403,1.116
			c-0.407,0.601-0.45,1.458-0.45,2.703v4.526h-2.274V87.258z"/>
		<path fill="#FFFFFF" d="M143.718,88.46c1.029-1.009,2.402-1.545,3.84-1.545c1.48,0,2.832,0.536,3.883,1.566
			c1.029,1.008,1.609,2.316,1.609,3.754c0,1.48-0.559,2.789-1.588,3.776c-1.072,1.029-2.424,1.587-3.904,1.587
			c-1.438,0-2.811-0.558-3.84-1.565c-1.052-1.03-1.609-2.339-1.609-3.798C142.108,90.798,142.666,89.468,143.718,88.46z
			 M147.579,88.953c-1.695,0-3.068,1.438-3.068,3.304s1.373,3.304,3.068,3.304c1.674,0,3.068-1.438,3.068-3.304
			S149.274,88.953,147.579,88.953z"/>
		<path fill="#FFFFFF" d="M153.519,87.258h2.489l2.167,4.999c0.129,0.279,0.322,0.88,0.558,1.803
			c0.129-0.602,0.321-1.202,0.579-1.803l2.167-4.999h2.468l-5.214,10.534L153.519,87.258z"/>
		<path fill="#FFFFFF" d="M172.247,97.191v-1.287c-0.816,1.137-1.889,1.694-3.283,1.694c-2.768,0-4.526-1.995-4.526-5.385
			c0-3.196,1.845-5.299,4.462-5.299c1.631,0,2.811,0.708,3.348,1.974v-1.631h2.273v9.934H172.247z M169.587,88.932
			c-1.717,0-2.768,1.244-2.768,3.347c0,2.124,1.008,3.304,2.725,3.304c1.565,0,2.768-1.287,2.768-3.39
			C172.312,90.111,171.281,88.932,169.587,88.932z"/>
		<path fill="#FFFFFF" d="M177.564,80.951h2.274v16.24h-2.274V80.951z"/>
		<path fill="#FFFFFF" d="M184.515,92.558c0.107,1.866,1.158,2.96,2.811,2.96c1.459,0,2.381-0.579,3.11-1.952l1.909,1.073
			c-1.115,1.995-2.746,2.96-4.977,2.96c-3.176,0-5.213-2.103-5.213-5.342c0-3.089,2.123-5.342,5.213-5.342
			c3.196,0,5.084,1.909,5.084,5.213v0.43H184.515z M187.411,88.846c-1.48,0-2.382,0.708-2.746,2.188h5.428
			C189.921,89.597,188.978,88.846,187.411,88.846z"/>
		<path fill="#FFFFFF" d="M194.616,87.258h2.146v1.631c0.922-1.395,2.102-1.974,3.84-1.974c1.48,0,2.531,0.472,3.111,1.395
			c0.493,0.751,0.493,1.652,0.493,2.854v6.028h-2.296v-5.106c0-2.209-0.279-3.239-2.167-3.239c-1.072,0-1.931,0.408-2.402,1.116
			c-0.407,0.601-0.45,1.458-0.45,2.703v4.526h-2.275V87.258z"/>
		<path fill="#FFFFFF" d="M207.552,89.254h-1.738v-1.996h1.738v-3.754h2.273v3.754h1.738v1.996h-1.738v7.938h-2.273V89.254z"/>
	</g>
	<g>
		<path fill="#FFFFFF" d="M121.582,117.183c-1.437,1.244-2.917,1.823-4.741,1.823c-2.875,0-4.763-1.866-4.763-4.376
			c0-1.824,1.138-3.218,3.411-4.634l-0.622-0.665c-0.687-0.751-1.052-1.652-1.052-2.554c0-1.974,1.588-3.454,3.948-3.454
			s3.755,1.309,3.755,3.24c0,1.565-0.987,2.725-2.982,3.883l3.196,3.712c0.687-0.687,1.33-1.502,1.974-2.403l1.459,1.566
			c-0.579,0.922-1.266,1.716-2.038,2.402l2.574,2.918h-2.874L121.582,117.183z M116.819,111.69l-0.387,0.258
			c-1.244,0.837-1.973,1.523-1.973,2.617c0,1.33,1.051,2.424,2.488,2.424c1.029,0,2.103-0.472,3.219-1.438L116.819,111.69z
			 M117.978,108.537c0.795-0.473,1.181-1.073,1.181-1.824c0-0.879-0.601-1.479-1.438-1.479c-0.944,0-1.566,0.622-1.566,1.501
			c0,0.43,0.172,0.837,0.493,1.202l0.773,0.922L117.978,108.537z"/>
		<path fill="#FFFFFF" d="M133.679,103.302h8.56v2.124h-6.071v3.819h6.071v2.188h-6.071v7.209h-2.488V103.302z"/>
		<path fill="#FFFFFF" d="M149.229,110.36c-1.845,0-3.067,1.287-3.067,3.282c0,2.081,1.201,3.325,3.175,3.325
			c1.094,0,1.953-0.407,2.617-1.244v2.617c-0.836,0.473-1.78,0.708-2.875,0.708c-3.11,0-5.277-2.188-5.277-5.342
			c0-3.196,2.231-5.342,5.514-5.342c1.009,0,1.867,0.193,2.639,0.622v2.553C151.269,110.789,150.324,110.36,149.229,110.36z"/>
		<path fill="#FFFFFF" d="M159.634,112.656v2.103h-5.6v-2.103H159.634z"/>
		<path fill="#FFFFFF" d="M162.85,110.704h-1.737v-1.996h1.737v-2.66c0-2.617,1.052-3.861,3.368-3.861
			c0.473,0,0.987,0.064,1.545,0.215v2.06c-0.365-0.215-0.729-0.322-1.115-0.322c-1.137,0-1.523,0.687-1.523,2.21v2.359h2.381v1.996
			h-2.381v7.938h-2.274V110.704z"/>
		<path fill="#FFFFFF" d="M173.618,108.365c0.645,0,1.266,0.15,1.867,0.45l-0.815,1.932c-0.429-0.301-0.88-0.408-1.395-0.408
			c-1.609,0-2.124,1.266-2.124,3.947v4.355h-2.274v-9.955h2.274v1.609C171.645,108.987,172.417,108.365,173.618,108.365z"/>
		<path fill="#FFFFFF" d="M178.187,114.008c0.107,1.866,1.158,2.96,2.811,2.96c1.459,0,2.382-0.579,3.111-1.952l1.909,1.073
			c-1.116,1.995-2.746,2.96-4.978,2.96c-3.175,0-5.213-2.103-5.213-5.342c0-3.089,2.123-5.342,5.213-5.342
			c3.197,0,5.085,1.909,5.085,5.213v0.43H178.187z M181.083,110.296c-1.48,0-2.381,0.708-2.746,2.188h5.428
			C183.593,111.047,182.649,110.296,181.083,110.296z"/>
		<path fill="#FFFFFF" d="M189.898,114.008c0.106,1.866,1.158,2.96,2.811,2.96c1.458,0,2.382-0.579,3.11-1.952l1.91,1.073
			c-1.116,1.995-2.746,2.96-4.979,2.96c-3.174,0-5.213-2.103-5.213-5.342c0-3.089,2.124-5.342,5.213-5.342
			c3.197,0,5.086,1.909,5.086,5.213v0.43H189.898z M192.794,110.296c-1.479,0-2.381,0.708-2.746,2.188h5.428
			C195.305,111.047,194.36,110.296,192.794,110.296z"/>
	</g>
</g>
</svg>
