<?xml version="1.0" standalone="no"?>
<!DOCTYPE svg PUBLIC "-//W3C//DTD SVG 1.1//EN" "http://www.w3.org/Graphics/SVG/1.1/DTD/svg11.dtd" >
<svg xmlns="http://www.w3.org/2000/svg" xmlns:xlink="http://www.w3.org/1999/xlink" version="1.1">
<metadata></metadata>
<defs>
<font id="futuraregular" horiz-adv-x="1165" >
<font-face units-per-em="2048" ascent="1573" descent="-475" />
<missing-glyph horiz-adv-x="604" />
<glyph horiz-adv-x="0" />
<glyph unicode="&#xd;" horiz-adv-x="604" />
<glyph unicode=" "  horiz-adv-x="604" />
<glyph unicode="&#x09;" horiz-adv-x="604" />
<glyph unicode="&#xa0;" horiz-adv-x="604" />
<glyph unicode="!" horiz-adv-x="653" d="M209 80q0 49 35 84t84 35t83.5 -35t34.5 -84t-33.5 -84t-84.5 -35t-85 35t-34 84zM248 332v1165h160v-1165h-160z" />
<glyph unicode="&#x22;" horiz-adv-x="589" d="M94 881v553h117v-553h-117zM377 881v553h119v-553h-119z" />
<glyph unicode="#" horiz-adv-x="1574" d="M104 467l43 123h320l96 272h-342l43 123h344l168 471h146l-166 -471h260l168 471h143l-164 -471h307l-43 -123h-311l-94 -272h330l-43 -123h-332l-166 -469h-145l168 469h-265l-168 -469h-143l166 469h-320zM614 590h263l96 272h-264z" />
<glyph unicode="$" horiz-adv-x="1208" d="M127 305l147 90q55 -256 261 -280v604q-186 72 -274.5 171t-88.5 245q0 154 93 251t270 117v99h79v-99q244 -18 347 -221l-150 -94q-33 78 -82 118t-115 46v-475q211 -72 309.5 -184.5t98.5 -289.5q0 -186 -107.5 -303.5t-300.5 -136.5v-149h-79v147q-170 8 -273.5 96 t-134.5 248zM346 1153q0 -88 45 -143.5t144 -96.5v441q-90 -16 -139.5 -71.5t-49.5 -129.5zM614 115q236 45 236 278q0 106 -56.5 173t-179.5 118v-569z" />
<glyph unicode="%" horiz-adv-x="1515" d="M57 1100q0 182 80 280.5t221 98.5t221 -98.5t80 -280.5t-79.5 -279.5t-221.5 -97.5q-141 0 -221 97.5t-80 279.5zM205 1100q0 -135 40.5 -206t112.5 -71t113 71t41 206q0 279 -154 278q-72 0 -112.5 -71.5t-40.5 -206.5zM272 -39l842 1518h123l-840 -1518h-125zM866 340 q0 182 80 280.5t221 98.5t220 -98.5t79 -280.5t-78.5 -280.5t-220.5 -98.5q-141 0 -221 98.5t-80 280.5zM1014 340q0 -135 40.5 -206t112.5 -71t113 71t41 206q0 276 -154 276q-72 0 -112.5 -70.5t-40.5 -205.5z" />
<glyph unicode="&#x26;" horiz-adv-x="1370" d="M86 387q0 260 336 451l-60 67q-47 55 -70.5 113.5t-23.5 130.5q0 68 24.5 124t69 97t105.5 63.5t137 22.5q154 0 243 -85t89 -222q0 -111 -65.5 -198t-200.5 -169l319 -385q41 47 84 103.5t90 124.5l107 -117q-84 -129 -187 -227l234 -281h-211l-141 170 q-195 -197 -445 -197q-98 0 -178 31t-137.5 86t-88 131t-30.5 166zM260 393q0 -57 20.5 -106t55.5 -86t84 -57.5t108 -20.5q86 0 168 42t172 124l-354 428l-43 -29q-100 -66 -155.5 -132.5t-55.5 -162.5zM432 1141q0 -76 53 -137l90 -107l64 37q137 80 137 211q0 78 -47 122 t-125 44t-125 -48.5t-47 -121.5z" />
<glyph unicode="'" horiz-adv-x="305" d="M94 881v553h117v-553h-117z" />
<glyph unicode="(" horiz-adv-x="589" d="M166 541q0 287 57.5 531.5t179.5 461.5l107 -49q-111 -219 -161 -449.5t-50 -494.5q0 -272 50 -500.5t161 -433.5l-107 -56q-238 440 -237 990z" />
<glyph unicode=")" horiz-adv-x="589" d="M80 -393q111 205 161 433t50 501q0 264 -50.5 494.5t-160.5 449.5l106 49q123 -217 180.5 -462t57.5 -531q0 -549 -238 -990z" />
<glyph unicode="*" horiz-adv-x="847" d="M102 987l224 129l-224 129l52 88l225 -131l-2 262h102l-2 -256l219 125l49 -90l-219 -127l219 -125l-49 -90l-217 125v-250h-102v254l-225 -131z" />
<glyph unicode="+" horiz-adv-x="1705" d="M254 553v117h541v551h118v-551h539v-117h-539v-553h-118v553h-541z" />
<glyph unicode="," horiz-adv-x="604" d="M121 -291l190 545l170 -59l-245 -531z" />
<glyph unicode="-" horiz-adv-x="749" d="M141 377v158h467v-158h-467z" />
<glyph unicode="." horiz-adv-x="604" d="M182 98q0 49 35 84t84 35q51 0 86 -35t35 -84t-35 -82.5t-86 -33.5t-85 33.5t-34 82.5z" />
<glyph unicode="/" horiz-adv-x="854" d="M0 -190l717 1687h137l-719 -1687h-135z" />
<glyph unicode="0" horiz-adv-x="1208" d="M96 721q0 180 36 321.5t102.5 238.5t159.5 147.5t208 50.5q117 0 212 -50.5t160.5 -146.5t101.5 -237.5t36 -323.5t-36 -324.5t-102.5 -239t-159.5 -146.5t-208 -50q-117 0 -211 51t-160.5 147.5t-102.5 238t-36 323.5zM276 723q0 -299 87 -459t241 -160q160 0 244 155 t84 460q0 307 -84 462.5t-244 155.5q-154 0 -241 -157.5t-87 -456.5z" />
<glyph unicode="1" horiz-adv-x="1208" d="M260 1298l98 152h371v-1450h-170v1298h-299z" />
<glyph unicode="2" horiz-adv-x="1208" d="M115 0l309 367q98 117 181 213t141.5 180t91 157.5t32.5 145.5q0 111 -77.5 183.5t-210.5 72.5q-139 0 -213 -77t-74 -224v-17h-164q0 10 -1 19.5t-1 19.5q0 209 121 324t338 115t335.5 -107.5t118.5 -298.5q0 -80 -24.5 -156.5t-72.5 -156.5t-116.5 -165t-156.5 -181 l-230 -248h555v-166h-882z" />
<glyph unicode="3" horiz-adv-x="1208" d="M113 344v27h178v-17q0 -113 72.5 -178t199.5 -65q147 0 225 73.5t78 208.5q0 287 -319 287h-24.5t-26.5 -2v143q12 0 23 -1t24 -1q305 0 305 262q0 115 -68.5 182.5t-191.5 67.5q-129 0 -200 -62.5t-77 -181.5h-172q10 188 125 290t328 102q205 0 321.5 -105.5 t116.5 -283.5q0 -131 -68.5 -220.5t-191.5 -121.5q131 -23 205 -117t74 -244q0 -199 -128 -312.5t-364 -113.5q-102 0 -184 27.5t-140.5 78t-89 121t-30.5 156.5z" />
<glyph unicode="4" horiz-adv-x="1208" d="M45 315l784 1164h74v-1022h172v-142h-172v-315h-172v315h-686zM303 457h428v643z" />
<glyph unicode="5" horiz-adv-x="1208" d="M94 176l123 143q49 -102 131 -154t191 -52q158 0 254 99t96 271q0 158 -97.5 255.5t-267.5 97.5q-176 0 -311 -105l-33 6l174 713h643v-150h-524l-92 -376q100 53 227 53q106 0 193.5 -34t147 -95.5t92 -149.5t32.5 -198q0 -123 -37 -223.5t-106.5 -170t-170 -107.5 t-224.5 -38q-150 0 -257.5 52.5t-183.5 162.5z" />
<glyph unicode="6" horiz-adv-x="1208" d="M119 440q0 80 21.5 153t60.5 145.5t90 149.5t112 163l334 471l152 -80l-473 -615q106 70 225 70q98 0 179 -33t139.5 -93t91 -143t32.5 -184q0 -111 -35.5 -199.5t-102 -151t-163 -97.5t-215.5 -35q-100 0 -183 35t-141.5 97.5t-91 150.5t-32.5 196zM299 426 q0 -150 82 -235t221 -85q68 0 123 23t95 65t61.5 101t21.5 133q0 150 -82 237t-229 87q-66 0 -120 -23.5t-92 -67t-59.5 -103.5t-21.5 -132z" />
<glyph unicode="7" horiz-adv-x="1208" d="M178 1298v152h928l-731 -1505l-144 73l625 1280h-678z" />
<glyph unicode="8" horiz-adv-x="1208" d="M113 385q0 145 78 246.5t223 142.5q-248 78 -248 338q0 78 30.5 145.5t88 116.5t139.5 77t182 28q102 0 183 -28t138.5 -78t87 -119.5t29.5 -155.5q0 -119 -64.5 -204t-182.5 -120q145 -41 223 -142.5t78 -242.5q0 -199 -128 -313.5t-364 -114.5q-117 0 -209 31 t-154.5 86t-96 133t-33.5 174zM297 397q0 -137 80 -216t227 -79t227 79t80 216q0 141 -80.5 221t-226.5 80q-145 0 -226 -80.5t-81 -220.5zM346 1102q0 -111 66.5 -174.5t189.5 -63.5q127 0 194.5 63.5t67.5 174.5q0 115 -68.5 179.5t-189.5 64.5q-123 0 -191.5 -66 t-68.5 -178z" />
<glyph unicode="9" horiz-adv-x="1208" d="M115 997q0 111 35.5 199t101 151.5t161 97.5t216.5 34q100 0 183 -35t141.5 -97.5t91 -151.5t32.5 -196q0 -80 -21.5 -152.5t-59.5 -145t-89 -148.5t-112 -162l-334 -471l-152 78l473 616q-106 -70 -225 -69q-98 0 -180 32.5t-140.5 93t-90 143.5t-31.5 183zM295 1014 q0 -150 81 -237t228 -87q66 0 120 23.5t93 66.5t60.5 102.5t21.5 131.5q0 150 -82 235.5t-221 85.5q-68 0 -123 -22.5t-95 -64.5t-61.5 -101.5t-21.5 -132.5z" />
<glyph unicode=":" horiz-adv-x="653" d="M209 100q0 49 35 83t84 34t83.5 -33.5t34.5 -83.5q0 -49 -33.5 -83.5t-84.5 -34.5t-85 34.5t-34 83.5zM209 772q0 49 35 84t84 35t83.5 -35t34.5 -84t-33.5 -84t-84.5 -35t-85 35t-34 84z" />
<glyph unicode=";" horiz-adv-x="653" d="M131 -291l191 545l170 -59l-248 -531zM285 772q0 49 34.5 84t83.5 35t84 -35t35 -84t-33.5 -84t-85.5 -35q-51 0 -84.5 35t-33.5 84z" />
<glyph unicode="&#x3c;" horiz-adv-x="1705" d="M264 559v103l1178 483v-127l-1000 -408l1000 -405v-129z" />
<glyph unicode="=" horiz-adv-x="1705" d="M254 360v117h1198v-117h-1198zM254 743v117h1198v-117h-1198z" />
<glyph unicode="&#x3e;" horiz-adv-x="1705" d="M264 76v129l1000 405l-1000 408v127l1178 -483v-103z" />
<glyph unicode="?" horiz-adv-x="1067" d="M184 1135v26q0 154 94.5 245t251.5 91q166 0 259.5 -86t93.5 -233q0 -53 -17.5 -97.5t-50.5 -84.5t-83 -78.5t-114 -81.5q-49 -33 -91 -59.5t-70.5 -54.5t-45 -59.5t-16.5 -74.5q0 -55 37 -91t96 -36q152 0 152 196v9h154v-33q0 -154 -80 -236t-228 -82q-141 0 -218 79 t-77 214q0 55 16.5 99.5t47.5 83t76 75.5t104 78q51 35 94 63.5t74 57.5t48.5 59.5t17.5 71.5q0 68 -47.5 110t-129.5 42q-90 0 -138 -54.5t-48 -158.5h-162zM391 80q0 49 35 84t84 35t84 -35t35 -84t-34 -84t-85 -35t-85 35t-34 84z" />
<glyph unicode="@" horiz-adv-x="2048" d="M113 522q0 166 51 310.5t149 267.5q145 176 347 267t456 91q170 0 314.5 -45t244.5 -123q129 -100 195.5 -230t66.5 -282q0 -174 -63.5 -311t-181.5 -234q-141 -113 -312 -112q-199 0 -198 155q0 4 1 10.5t1 12.5q-51 -88 -127 -133t-170 -45q-154 0 -234 85t-80 247 q0 117 37 217t101.5 174t149.5 115.5t181 41.5q182 0 250 -157l58 121h110l-141 -568q-12 -49 -12 -80q0 -90 110 -90q41 0 95.5 21.5t107.5 66.5q86 74 138 193t52 258q0 131 -50 239.5t-143 186.5t-225 121t-296 43q-338 0 -572 -205q-141 -123 -211.5 -283.5 t-70.5 -353.5q0 -174 59 -304t188 -230q98 -78 236.5 -123t298.5 -45q172 0 334 48t297 140l45 -66q-295 -221 -660 -221q-385 0 -624 185q-303 233 -303 624zM713 446q0 -111 51 -170t145 -59q49 0 96.5 18.5t86 51t67.5 80t43 106.5l60 242q-16 92 -71.5 141t-135.5 49 q-74 0 -136.5 -35.5t-108.5 -97t-71.5 -145.5t-25.5 -181z" />
<glyph unicode="A" horiz-adv-x="1280" d="M-25 0l664 1522l666 -1522h-189l-190 449h-572l-190 -449h-189zM406 598h466l-233 539z" />
<glyph unicode="B" horiz-adv-x="1150" d="M176 0v1464h305q121 0 210 -11t159 -62t108.5 -132t38.5 -180q0 -117 -56 -194.5t-161 -108.5q129 -20 205 -116.5t76 -243.5q0 -92 -33 -171t-88 -134q-41 -39 -88 -61.5t-103.5 -33t-123 -13.5t-144.5 -3h-305zM348 823h133q176 0 257 51.5t81 184.5q0 80 -20.5 129 t-61.5 76.5t-105.5 38t-150.5 10.5h-131zM350 152h131q104 0 178 7t121 42q45 33 71 89t26 126q0 164 -121 231q-47 29 -101.5 34t-122.5 5h-182v-534z" />
<glyph unicode="C" horiz-adv-x="1484" d="M109 725q0 336 229 559q223 215 545 215q131 0 248.5 -40t232.5 -118v-227q-106 117 -225 170t-262 53q-117 0 -226.5 -46t-191.5 -132q-168 -174 -168 -432q0 -203 100 -346q88 -125 216 -192.5t278 -67.5q281 0 479 231v-231q-111 -78 -234.5 -119t-259.5 -41 q-238 0 -432 135q-160 111 -244.5 271.5t-84.5 357.5z" />
<glyph unicode="D" horiz-adv-x="1484" d="M176 0v1464h281q102 0 194 -2t174 -15t155 -41t140 -79q127 -98 191.5 -247.5t64.5 -348.5q0 -397 -256 -594q-63 -49 -131.5 -76.5t-142.5 -41t-156 -16.5t-170 -3h-344zM350 164h113q94 0 174 2t147.5 12t123 30.5t102.5 59.5q90 74 137 192t47 273q0 309 -184 463 q-45 39 -101.5 60.5t-124 31.5t-147.5 12.5t-174 2.5h-113v-1139z" />
<glyph unicode="E" horiz-adv-x="1067" d="M176 0v1464h772v-159h-598v-420h598v-162h-598v-561h598v-162h-772z" />
<glyph unicode="F" horiz-adv-x="1038" d="M176 0v1464h772v-159h-598v-420h598v-162h-598v-723h-174z" />
<glyph unicode="G" horiz-adv-x="1667" d="M109 717q0 367 235 590q199 190 520 190q418 0 623 -307l-146 -117q-160 266 -471 266q-127 0 -232.5 -45t-181 -127t-117.5 -196.5t-42 -253.5q0 -131 43 -240.5t119 -189.5t181 -124t230 -44q109 0 202 34.5t164 98t113 152t50 196.5h-418v156h604v-49 q0 -176 -51 -314.5t-146.5 -234t-230.5 -146.5t-303 -51q-111 0 -203 22.5t-166 63.5q-180 98 -278 272.5t-98 397.5z" />
<glyph unicode="H" horiz-adv-x="1478" d="M176 0v1464h174v-563h778v563h175v-1464h-175v735h-778v-735h-174z" />
<glyph unicode="I" horiz-adv-x="530" d="M178 0v1464h174v-1464h-174z" />
<glyph unicode="J" horiz-adv-x="792" d="M0 106l115 115q51 -53 97 -78.5t99 -25.5q47 0 75 18.5t43 55t20.5 91t5.5 126.5v1056h174v-1142q0 -182 -79 -271.5t-251 -89.5q-92 0 -164 36t-135 109z" />
<glyph unicode="K" horiz-adv-x="1210" d="M176 0v1464h174v-651l613 651h208l-628 -659l690 -805h-225l-658 788v-788h-174z" />
<glyph unicode="L" horiz-adv-x="933" d="M176 0v1464h174v-1298h553v-166h-727z" />
<glyph unicode="M" horiz-adv-x="1716" d="M49 0l297 1522l512 -1211l512 1211l297 -1522h-170l-186 995l-453 -1052l-455 1052l-184 -995h-170z" />
<glyph unicode="N" horiz-adv-x="1587" d="M176 0v1522l1063 -1170v1112h174v-1521l-1063 1157v-1100h-174z" />
<glyph unicode="O" horiz-adv-x="1781" d="M109 729q0 158 58 296t171 249q111 109 254 166t299 57t300 -57.5t255 -165.5q113 -111 170 -249t57 -296t-58.5 -296t-168.5 -247q-113 -111 -257.5 -168t-297.5 -57q-156 0 -299 58.5t-254 166.5q-113 111 -171 248t-58 295zM291 729q0 -123 45 -230.5t131 -195.5 q178 -178 424 -178q121 0 228.5 45t195.5 133q176 176 176 426q0 123 -45 233.5t-131 196.5q-176 176 -424 176q-123 0 -230.5 -45t-193.5 -131q-86 -88 -131 -197.5t-45 -232.5z" />
<glyph unicode="P" horiz-adv-x="1040" d="M176 0v1464h307q113 0 204 -10t165 -63q70 -49 109.5 -135.5t39.5 -194.5q0 -109 -39.5 -195t-109.5 -135q-74 -53 -164 -63.5t-205 -10.5h-133v-657h-174zM350 815h84q94 0 165 8t119 34t71.5 72t23.5 122q0 80 -23.5 129t-70.5 76.5t-119 38t-166 10.5h-84v-490z" />
<glyph unicode="Q" horiz-adv-x="1781" d="M109 731q0 154 59 293t170 250q113 111 254 167t299 56q315 0 541 -203q119 -109 181 -253t62 -312q0 -176 -66.5 -320.5t-195.5 -248.5l279 -301h-215l-195 209q-174 -100 -416 -101q-252 0 -444 144q-154 115 -233.5 271.5t-79.5 348.5zM293 731q0 -311 250 -493 q145 -104 334 -105q164 0 282 66l-299 323h215l217 -233q92 74 143.5 186.5t51.5 247.5q0 184 -82 319q-84 137 -217 212t-297 75q-121 0 -229.5 -44t-194.5 -130t-130 -194.5t-44 -229.5z" />
<glyph unicode="R" horiz-adv-x="1095" d="M176 0v1464h344q104 0 186 -10t150 -63q63 -49 100 -133t37 -193q0 -180 -100 -273.5t-295 -93.5h-31l559 -698h-221l-534 698h-21v-698h-174zM350 827h129q86 0 150.5 8.5t106.5 34t63.5 71.5t21.5 122q0 80 -20.5 129t-63.5 76.5t-107.5 38t-150.5 10.5h-129v-490z" />
<glyph unicode="S" horiz-adv-x="1052" d="M80 303l158 78q66 -270 290 -270q133 0 213 75.5t80 196.5q0 195 -227 293l-178 76q-289 121 -289 387q0 76 29.5 142.5t84 114.5t130 75.5t168.5 27.5q133 0 229 -55t150 -166l-144 -92q-96 168 -248 168q-98 0 -160.5 -59.5t-62.5 -153.5q0 -78 48 -134.5t149 -101.5 l209 -92q288 -127 288 -399q0 -102 -33.5 -185.5t-95 -141.5t-147.5 -91t-193 -33q-174 0 -290.5 88t-157.5 252z" />
<glyph unicode="T" horiz-adv-x="1038" d="M18 1298v166h1002v-166h-414v-1298h-174v1298h-414z" />
<glyph unicode="U" horiz-adv-x="1474" d="M170 553v911h174v-911q0 -221 94 -325.5t299 -104.5t299 104.5t94 325.5v911h175v-911q0 -592 -568 -592q-567 0 -567 592z" />
<glyph unicode="V" horiz-adv-x="1187" d="M-25 1464h189l430 -1120l428 1120h188l-616 -1521z" />
<glyph unicode="W" horiz-adv-x="1869" d="M-14 1464h188l371 -1077l387 1135l391 -1135l373 1077h188l-567 -1521l-383 1132l-381 -1132z" />
<glyph unicode="X" horiz-adv-x="1083" d="M-12 0l450 778l-420 686h209l314 -557l303 557h198l-415 -702l467 -762h-205l-361 631l-342 -631h-198z" />
<glyph unicode="Y" horiz-adv-x="1171" d="M2 1464h201l383 -635l381 635h200l-495 -794v-670h-174v670z" />
<glyph unicode="Z" horiz-adv-x="1159" d="M-10 0l823 1305h-668v159h963l-815 -1298h782v-166h-1085z" />
<glyph unicode="[" horiz-adv-x="589" d="M188 -412v1909h324v-135h-182v-1638h182v-136h-324z" />
<glyph unicode="\" horiz-adv-x="854" d="M0 1497h135l719 -1687h-137z" />
<glyph unicode="]" horiz-adv-x="589" d="M78 -276h182v1638h-182v135h323v-1909h-323v136z" />
<glyph unicode="^" horiz-adv-x="2048" d="M422 901l520 557h162l520 -557h-158l-442 438l-442 -438h-160z" />
<glyph unicode="_" horiz-adv-x="1024" d="M0 -365h1024v-118h-1024v118z" />
<glyph unicode="`" horiz-adv-x="1024" d="M250 1407h201l204 -348h-120z" />
<glyph unicode="a" d="M90 455q0 115 31 207t88 155.5t136 97t175 33.5q229 0 336 -205v172h156v-915h-152v166q-55 -100 -140 -152.5t-192 -52.5q-98 0 -179 35t-138 99.5t-89 155.5t-32 204zM256 463q0 -166 79 -256t226 -90q139 0 219 86t80 246q0 80 -22.5 143t-63.5 108t-97 69t-122 24 q-141 0 -220 -86t-79 -244z" />
<glyph unicode="b" horiz-adv-x="1171" d="M160 0v1550h155v-807q106 205 334 205q96 0 176 -33.5t136.5 -97t88 -156t31.5 -206.5q0 -113 -31.5 -204t-89 -155.5t-138.5 -99.5t-179 -35q-106 0 -193.5 53.5t-140.5 151.5v-166h-149zM309 453q0 -164 83 -252t224 -88q137 0 218 93t81 267q0 154 -78.5 237 t-215.5 83q-139 0 -225.5 -92t-86.5 -248z" />
<glyph unicode="c" horiz-adv-x="919" d="M84 449q0 113 36 204.5t99.5 157.5t151.5 101.5t190 35.5q154 0 285 -63v-168q-121 80 -254 80q-152 0 -246 -94.5t-94 -258.5q0 -70 24.5 -130t67.5 -105t103.5 -70.5t132.5 -25.5q74 0 142.5 25.5t139.5 78.5v-182q-127 -74 -307 -74q-106 0 -193.5 36t-148.5 100.5 t-95 153.5t-34 198z" />
<glyph unicode="d" horiz-adv-x="1171" d="M90 455q0 115 32 207t88 155.5t136 97t176 33.5q227 0 334 -205v807h156v-1550h-152v166q-53 -98 -139 -151.5t-193 -53.5q-98 0 -179 35t-138 99.5t-89 155.5t-32 204zM256 473q0 -174 80 -267t217 -93q141 0 224 88t83 252q0 156 -85 248t-224 92q-137 0 -216 -83 t-79 -237z" />
<glyph unicode="e" horiz-adv-x="1052" d="M80 461q0 109 33.5 199t94 154.5t144.5 100t185 35.5q203 0 321.5 -128t118.5 -357v-31h-725v-14q0 -74 22.5 -134.5t62.5 -103.5t96 -66.5t122 -23.5q184 0 297 199l119 -80q-139 -250 -424 -250q-104 0 -190.5 36t-148 101.5t-95 157.5t-33.5 205zM252 561h557 q-8 123 -81 187.5t-198 64.5q-113 0 -189.5 -67.5t-88.5 -184.5z" />
<glyph unicode="f" horiz-adv-x="591" d="M25 786v129h176v265q0 102 10 176t40 121t81 69.5t133 22.5q74 0 135 -21v-162q-59 33 -123 33q-43 0 -67.5 -16.5t-37 -48t-14.5 -80.5t-2 -115v-244h244v-129h-244v-786h-155v786h-176z" />
<glyph unicode="g" horiz-adv-x="1169" d="M90 461q0 115 31 205t88 153.5t136 96t175 32.5q115 0 200 -51t136 -152v170h160v-899q0 -98 -13.5 -177t-76.5 -148q-127 -137 -369 -137q-211 0 -326.5 95t-119.5 269h176v-12q0 -102 69.5 -158.5t202.5 -56.5q190 0 262 121q27 43 33 94t6 114v154 q-53 -98 -139 -150.5t-193 -52.5q-98 0 -179 35t-138 98.5t-89 154.5t-32 202zM256 467q0 -166 79 -256t226 -90q139 0 219 87t80 247q0 80 -22.5 143.5t-63.5 107.5t-97 67.5t-122 23.5q-141 0 -220 -86t-79 -244z" />
<glyph unicode="h" horiz-adv-x="1140" d="M160 0v1550h153v-776q117 174 334 174q160 0 252 -85t92 -240v-623h-155v539q0 274 -244 274q-143 0 -223 -98q-41 -49 -47.5 -107.5t-6.5 -134.5v-473h-155z" />
<glyph unicode="i" horiz-adv-x="495" d="M131 1356q0 47 34 80.5t81 33.5t80.5 -34.5t33.5 -81.5t-33.5 -80t-80.5 -33t-81 33t-34 82zM168 0v915h156v-915h-156z" />
<glyph unicode="j" horiz-adv-x="495" d="M131 1356q0 47 34 80.5t81 33.5t80.5 -34.5t33.5 -81.5t-33.5 -80t-80.5 -33t-81 33t-34 82zM168 -446v1361h156v-1361h-156z" />
<glyph unicode="k" horiz-adv-x="1009" d="M162 0v1550h155l2 -1050l441 415h209l-457 -419l498 -496h-219l-472 483l-2 -483h-155z" />
<glyph unicode="l" horiz-adv-x="495" d="M168 0v1550h156v-1550h-156z" />
<glyph unicode="m" horiz-adv-x="1736" d="M160 0v915h155v-141q111 174 316 174q111 0 188.5 -47t118.5 -139q117 186 326 186q154 0 239.5 -85t85.5 -240v-623h-155v539q0 139 -55.5 206.5t-172.5 67.5q-131 0 -207 -98q-29 -39 -39 -83t-10 -102q0 -14 1 -27.5t1 -29.5v-473h-155v539q0 139 -55.5 206.5 t-172.5 67.5q-63 0 -117.5 -25.5t-91.5 -72.5q-29 -37 -38 -80t-9 -96q0 -16 1 -33t1 -33v-473h-155z" />
<glyph unicode="n" horiz-adv-x="1140" d="M160 0v915h155v-141q115 174 332 174q160 0 252 -85t92 -240v-623h-155v539q0 274 -244 274q-143 0 -223 -98q-41 -49 -47.5 -107.5t-6.5 -134.5v-473h-155z" />
<glyph unicode="o" d="M86 455q0 100 37 189t108 161q72 72 161 107.5t192 35.5q102 0 191 -37t161 -108q72 -70 108.5 -159t36.5 -189q0 -205 -145 -346q-72 -72 -162 -110t-190 -38q-207 0 -353 145q-145 146 -145 349zM252 455q0 -74 26.5 -136.5t71.5 -109.5t105.5 -73.5t128.5 -26.5 t128 26.5t105 73.5t70.5 109.5t25.5 136.5t-25.5 136t-70.5 109.5t-105.5 74t-127.5 26.5q-70 0 -130.5 -26.5t-105.5 -74t-70.5 -109.5t-25.5 -136z" />
<glyph unicode="p" horiz-adv-x="1171" d="M160 -446v1361h149v-172q53 100 140.5 152.5t193.5 52.5q98 0 179 -34.5t138.5 -99t89 -156t31.5 -203.5q0 -117 -31.5 -208t-88 -154.5t-136.5 -97.5t-176 -34q-227 0 -334 205v-612h-155zM311 455q0 -156 85 -248t225 -92q137 0 215.5 84t78.5 237q0 174 -79.5 267.5 t-217.5 93.5q-141 0 -224 -89t-83 -253z" />
<glyph unicode="q" horiz-adv-x="1171" d="M90 455q0 113 32 204t89 155.5t138 99t179 34.5q106 0 192.5 -52t139.5 -153v172h152v-1361h-156v612q-106 -205 -334 -205q-96 0 -176 34t-136 97.5t-88 154.5t-32 208zM254 436q0 -154 79 -237.5t216 -83.5q139 0 225 92t86 248q0 164 -83 253t-224 89 q-137 0 -218 -93.5t-81 -267.5z" />
<glyph unicode="r" horiz-adv-x="718" d="M162 0v915h139v-190q61 117 132 169t175 52q53 0 107 -18l-53 -142q-53 18 -97 19q-248 0 -248 -359v-446h-155z" />
<glyph unicode="s" horiz-adv-x="833" d="M63 154l134 90q76 -145 233 -146q78 0 125 39t47 99q0 53 -36 83.5t-107 55.5q-84 29 -151.5 53.5t-114 56t-71 75.5t-24.5 112q0 121 88 198.5t236 77.5q119 0 204 -47t122 -135l-127 -78q-29 63 -83.5 97t-125.5 34q-70 0 -113 -39t-43 -98q0 -37 15.5 -58.5t45 -38 t73.5 -29.5t102 -32q135 -43 200.5 -101t65.5 -171q0 -129 -90 -210t-244 -81q-254 0 -361 193z" />
<glyph unicode="t" horiz-adv-x="530" d="M16 786v129h168v369h156v-369h172v-129h-172v-786h-156v786h-168z" />
<glyph unicode="u" horiz-adv-x="1120" d="M147 369v546h156v-450q0 -90 12.5 -156.5t42 -110.5t79.5 -65.5t126 -21.5t125 21.5t79 65.5t42 110.5t12 156.5v450h156v-534q0 -209 -105.5 -314.5t-312.5 -105.5q-201 0 -306.5 102.5t-105.5 305.5z" />
<glyph unicode="v" horiz-adv-x="919" d="M8 915h176l275 -639l276 639h176l-450 -972z" />
<glyph unicode="w" horiz-adv-x="1417" d="M0 915h174l244 -624l278 657h25l274 -657l246 624h176l-407 -972l-301 702l-301 -702z" />
<glyph unicode="x" horiz-adv-x="886" d="M0 0l352 473l-342 442h195l237 -327l240 327h195l-345 -442l355 -473h-195l-250 354l-247 -354h-195z" />
<glyph unicode="y" horiz-adv-x="901" d="M12 915h181l266 -657l282 657h172l-614 -1361h-176l248 536z" />
<glyph unicode="z" horiz-adv-x="882" d="M31 0l524 778h-492v137h768l-524 -778h520v-137h-796z" />
<glyph unicode="{" horiz-adv-x="1024" d="M172 467v127q12 0 23.5 -1t21.5 -1q137 0 190.5 62.5t53.5 213.5v244q0 57 3 105.5t13 87t29.5 68.5t54.5 52q47 31 110.5 41.5t151.5 10.5h35v-127q-12 0 -23.5 1t-21.5 1q-66 0 -106.5 -12.5t-63 -41t-30 -75.5t-7.5 -115v-242q0 -74 -8 -129t-29.5 -95t-60.5 -67.5 t-100 -44.5q61 -16 100 -43.5t60.5 -67.5t29.5 -95.5t8 -128.5v-242q0 -70 8.5 -116t31 -73.5t64.5 -40t109 -12.5h39v-125h-35q-86 0 -150.5 10.5t-111.5 41.5q-68 45 -84 120.5t-16 192.5v244q0 150 -53.5 212t-190.5 62q-10 0 -21.5 -1t-23.5 -1z" />
<glyph unicode="|" horiz-adv-x="1024" d="M449 -483v2048h126v-2048h-126z" />
<glyph unicode="}" horiz-adv-x="1024" d="M166 -289q12 0 23.5 -1t21.5 -1q66 0 106.5 12.5t63 42t30 76.5t7.5 115v240q0 74 8 129t29.5 95t60.5 67.5t100 43.5q-61 16 -100 44t-60.5 68t-29.5 95.5t-8 128.5v242q0 70 -8.5 116t-31 74.5t-64.5 41t-109 12.5h-39v125h35q86 0 151.5 -10.5t112.5 -41.5 q68 -45 83 -120.5t15 -192.5v-244q0 -152 54.5 -214t191.5 -62q10 0 21.5 1t23.5 1v-127q-12 0 -23.5 1t-21.5 1q-137 0 -191.5 -62.5t-54.5 -213.5v-242q0 -117 -15.5 -193.5t-82.5 -122.5q-47 -31 -109.5 -40t-148.5 -9h-41v125z" />
<glyph unicode="~" horiz-adv-x="1705" d="M178 461v133q211 145 387 145q80 0 150.5 -20.5t140.5 -44.5q74 -27 142.5 -50.5t146.5 -23.5q92 0 184 41t201 117v-131q-201 -143 -387 -144q-86 0 -191 35q-106 35 -199.5 69t-189.5 34q-92 0 -183 -41t-202 -119z" />
<glyph unicode="&#xa1;" horiz-adv-x="653" d="M209 1380q0 49 33.5 83t85.5 34q51 0 84.5 -33.5t33.5 -83.5q0 -49 -34.5 -83.5t-83.5 -34.5t-84 34.5t-35 83.5zM248 -39v1167h160v-1167h-160z" />
<glyph unicode="&#xa2;" horiz-adv-x="1208" d="M160 735q0 98 30.5 182t88 146.5t140.5 103.5t187 54v161h80v-157q133 0 281 -60v-170q-66 41 -134.5 61.5t-146.5 24.5v-671q92 10 163 32.5t120 63.5l-2 -172q-117 -70 -281 -72v-203h-80v207q-100 6 -182 43t-140.5 99.5t-91 145.5t-32.5 181zM330 750 q0 -141 73.5 -231.5t202.5 -106.5v663q-59 -6 -110.5 -33.5t-88 -71.5t-57 -100.5t-20.5 -119.5z" />
<glyph unicode="&#xa3;" horiz-adv-x="1208" d="M86 49q111 174 250 187q45 88 45 186q0 82 -49 168h-236v117h180q-37 90 -61.5 165.5t-24.5 149.5q0 98 34 182t95.5 145.5t149.5 95.5t197 34q201 0 316.5 -113t131.5 -330l-166 -39q-10 168 -85 255t-208 87q-61 0 -114.5 -21.5t-91 -61t-59 -95t-21.5 -123.5 q0 -135 90 -331h385v-117h-342q27 -61 26 -131q0 -49 -22.5 -108.5t-69.5 -114.5h8q61 0 113.5 -17.5t101 -38t91.5 -38t84 -17.5q53 0 95 30.5t83 94.5l133 -88q-109 -201 -309 -201q-78 0 -164 35q-92 37 -161 64.5t-126 27.5t-100 -30.5t-86 -96.5z" />
<glyph unicode="&#xa4;" horiz-adv-x="1241" d="M86 424l207 205q-88 117 -88 256t88 256l-207 205l72 73l207 -207q59 45 121.5 68t134.5 23q141 0 260 -91l204 207l72 -73l-205 -205q86 -115 86 -256q0 -143 -86 -256l205 -205l-72 -74l-204 207q-113 -88 -260 -88q-143 0 -256 88l-207 -207zM309 887q0 -66 24.5 -123 t66.5 -100t99.5 -68t123.5 -25t123 25t99 68t66.5 100t24.5 123q0 63 -24.5 120.5t-66.5 100.5t-99.5 67.5t-122.5 24.5q-66 0 -123.5 -24.5t-99.5 -67.5t-66.5 -100.5t-24.5 -120.5z" />
<glyph unicode="&#xa5;" horiz-adv-x="1208" d="M20 629v123h441l-86 139h-355v123h277l-272 436h188l393 -649l393 649h185l-275 -436h279v-123h-354l-89 -139l443 2v-125h-498v-629h-172v629h-498z" />
<glyph unicode="&#xa6;" horiz-adv-x="1024" d="M449 -350v758h126v-758h-126zM449 674v758h126v-758h-126z" />
<glyph unicode="&#xa7;" horiz-adv-x="1075" d="M111 516q0 141 75.5 238.5t204.5 126.5q-227 88 -227 295q0 145 100.5 234t282.5 89q172 0 260 -86t88 -248v-20h-158q-6 209 -200 209q-92 0 -142.5 -47t-50.5 -133q0 -94 80 -150q39 -29 100.5 -48.5t132.5 -49.5q158 -68 236 -159t78 -237q0 -276 -281 -354 q104 -33 158.5 -109.5t54.5 -193.5q0 -150 -97 -238t-280 -88q-172 0 -272 93.5t-100 248.5v21h170q6 -211 206 -211q100 0 153.5 47t53.5 133q0 47 -16 80t-47 57.5t-76 44t-100 41.5q-96 37 -169 75t-121 86t-72.5 108.5t-24.5 144.5zM287 530q0 -51 19.5 -96t54 -77.5 t80 -52t98.5 -19.5q51 0 97 19.5t81 53t54.5 77.5t19.5 95t-19.5 95.5t-53.5 77t-80 52t-99 19.5t-99.5 -19.5t-80 -52t-53 -76.5t-19.5 -96z" />
<glyph unicode="&#xa8;" horiz-adv-x="1024" d="M217 1223q0 45 34 78.5t81 33.5t78.5 -32.5t31.5 -79.5q0 -49 -30.5 -81t-79.5 -32t-82 32t-33 81zM582 1223q0 45 32.5 78.5t79.5 33.5t80 -32.5t33 -79.5q0 -49 -32 -81t-81 -32q-47 0 -79.5 32t-32.5 81z" />
<glyph unicode="&#xa9;" horiz-adv-x="1705" d="M119 725q0 147 56 280.5t163 241.5q102 104 233 158.5t281 54.5t284 -54t240 -161q104 -104 157.5 -237.5t53.5 -282.5q0 -152 -53 -283t-158 -233q-111 -106 -245 -162.5t-279 -56.5q-147 0 -278.5 55t-237.5 162q-106 106 -161.5 238.5t-55.5 279.5zM207 725 q0 -129 49 -244.5t141 -210.5q92 -92 209 -141t246 -49t248 49t215 143q92 90 139 205t47 248q0 131 -48 249t-140 210t-210 140t-251 48t-248 -47t-205 -139q-94 -96 -143 -214t-49 -247zM465 721q0 106 28.5 190t81 143.5t125 91.5t160.5 32q70 0 128.5 -19.5t102.5 -55.5 t70.5 -85t32.5 -107h-129q-16 78 -71.5 121t-137.5 43q-117 0 -182.5 -90t-65.5 -262q0 -166 67.5 -255t180.5 -89q86 0 144.5 48t74.5 134h129q-6 -63 -33.5 -116.5t-74.5 -91.5t-109.5 -58.5t-136.5 -20.5q-86 0 -157.5 31t-122 89.5t-78 140t-27.5 186.5z" />
<glyph unicode="&#xaa;" horiz-adv-x="874" d="M68 1143q0 162 89 254t234 92q170 0 252 -143v120h117v-641h-115v117q-41 -72 -105.5 -107.5t-142.5 -35.5q-74 0 -134 24.5t-104 69.5t-67.5 108.5t-23.5 141.5zM193 1149q0 -117 59 -179.5t170 -62.5q104 0 163.5 60.5t59.5 171.5q0 113 -64.5 177t-164.5 64 q-106 0 -164.5 -60t-58.5 -171z" />
<glyph unicode="&#xab;" horiz-adv-x="851" d="M68 453l243 407l105 -67l-205 -340l207 -332l-99 -72zM430 453l244 407l106 -67l-207 -340l209 -332l-98 -72z" />
<glyph unicode="&#xac;" horiz-adv-x="1705" d="M254 741v117h1198v-502h-115v385h-1083z" />
<glyph unicode="&#xad;" horiz-adv-x="749" d="M141 377v158h467v-158h-467z" />
<glyph unicode="&#xae;" horiz-adv-x="1705" d="M119 725q0 147 56 281.5t165 242.5q102 104 232 157.5t280 53.5q152 0 285 -55t239 -162q104 -104 157.5 -237.5t53.5 -280.5q0 -152 -54 -283t-159 -233q-111 -106 -244 -162.5t-278 -56.5q-147 0 -279.5 56t-238.5 163q-104 104 -159.5 236.5t-55.5 279.5zM207 725 q0 -129 49 -244.5t141 -210.5q92 -94 209 -142t244 -48q131 0 249 48t214 142q92 90 140 205t48 246q0 133 -47 251t-139 210q-190 190 -463 190q-131 0 -245.5 -46t-205.5 -138q-96 -96 -145 -215t-49 -248zM561 317v840h311q350 0 351 -231q0 -88 -52.5 -147.5 t-144.5 -76.5l188 -385h-157l-176 365h-179v-365h-141zM702 774h148q117 0 172 31t55 110q0 82 -56 116t-175 34h-144v-291z" />
<glyph unicode="&#xaf;" horiz-adv-x="1024" d="M242 1153v139h540v-139h-540z" />
<glyph unicode="&#xb0;" horiz-adv-x="673" d="M55 1171q0 59 22.5 111.5t60.5 90.5t89.5 59.5t110.5 21.5q57 0 109.5 -22.5t90 -60.5t60.5 -90t23 -110q0 -57 -23 -108t-60.5 -90t-90 -61.5t-111.5 -22.5t-110.5 21.5t-89.5 60.5t-59.5 90t-21.5 110zM135 1171q0 -43 16.5 -79.5t44 -64.5t64.5 -43t78 -15q43 0 80 16 t63.5 44t42 64.5t15.5 77.5q0 84 -57.5 142.5t-143.5 58.5q-84 0 -143.5 -57.5t-59.5 -143.5z" />
<glyph unicode="&#xb1;" horiz-adv-x="1705" d="M254 41v117h1198v-117h-1198zM254 719v117h541v344h118v-344h539v-117h-539v-344h-118v344h-541z" />
<glyph unicode="&#xb2;" horiz-adv-x="796" d="M76 575l205 220q131 139 212.5 236t81.5 181q0 68 -52 111t-140 43q-92 0 -140 -46t-48 -134v-10h-109v24q0 125 79 193.5t222 68.5t222 -64.5t79 -178.5q0 -94 -64.5 -186.5t-181.5 -209.5l-149 -147h364v-101h-581z" />
<glyph unicode="&#xb3;" horiz-adv-x="796" d="M74 782v17h119v-11q0 -68 47 -107.5t133 -39.5q96 0 147 45t51 125q0 172 -211 172h-32v86q8 0 15 -1t15 -1q201 0 201 158q0 68 -45 108.5t-127 40.5q-84 0 -131 -37t-51 -108h-113q6 113 82 173t217 60q135 0 212 -62.5t77 -170.5q0 -78 -45 -131.5t-127 -73.5 q86 -12 135 -68.5t49 -148.5q0 -117 -85 -185.5t-238 -68.5q-135 0 -215 62.5t-80 166.5z" />
<glyph unicode="&#xb4;" horiz-adv-x="1024" d="M369 1059l204 348h201l-285 -348h-120z" />
<glyph unicode="&#xb5;" horiz-adv-x="1128" d="M-111 -426l316 1495h157l-126 -596q-14 -63 -15 -137q0 -109 56.5 -168t160.5 -59q248 0 336 409l121 551h156l-162 -754q-23 -100 -23 -135q0 -66 72 -65h12t23 2l-27 -125q-27 -6 -50.5 -8t-41.5 -2q-72 0 -105.5 34.5t-39.5 112.5q-41 -70 -116 -108.5t-173 -38.5 q-174 0 -262 137l-113 -545h-156z" />
<glyph unicode="&#xb6;" horiz-adv-x="1024" d="M76 1130q0 76 27.5 140.5t78.5 110.5t124 72t163 26h479v-78h-125v-1401h-94v1401h-184v-1401h-94v782q-176 8 -275.5 103.5t-99.5 244.5z" />
<glyph unicode="&#xb7;" horiz-adv-x="604" d="M182 721q0 49 35 84t84 35q51 0 86 -35t35 -84t-35 -84t-86 -35t-85 35t-34 84z" />
<glyph unicode="&#xb8;" horiz-adv-x="1024" d="M256 -326q92 -23 152.5 -31t93.5 -8q121 0 121 82q0 86 -134 86h-24t-29 -2v199h76v-102h29q223 0 223 -181q0 -92 -63.5 -140t-186.5 -48q-47 0 -112.5 11t-145.5 34v100z" />
<glyph unicode="&#xb9;" horiz-adv-x="798" d="M172 1354l64 92h245v-871h-112v779h-197z" />
<glyph unicode="&#xba;" horiz-adv-x="874" d="M66 1143q0 72 27.5 134t80.5 112q106 100 264 100q156 0 264 -103q109 -98 109 -243q0 -139 -109 -242q-53 -49 -120.5 -75.5t-143.5 -26.5q-158 0 -264 100q-108 103 -108 244zM188 1143q0 -51 19.5 -95t53.5 -77t80 -51.5t97 -18.5t96.5 18.5t79 51.5t53 77t19.5 95 t-19.5 96t-53 78t-79 51t-96.5 18q-53 0 -98 -18t-79 -51t-53.5 -78t-19.5 -96z" />
<glyph unicode="&#xbb;" horiz-adv-x="851" d="M68 121l206 332l-204 340l104 67l244 -407l-252 -404zM430 121l209 332l-207 340l107 67l243 -407l-252 -404z" />
<glyph unicode="&#xbc;" horiz-adv-x="1865" d="M164 1360l61 84h234v-811h-107v727h-188zM420 -39l899 1518h125l-899 -1518h-125zM1133 176l493 651h47v-571h109v-80h-109v-176h-108v176h-432zM1294 256h271v360z" />
<glyph unicode="&#xbd;" horiz-adv-x="1865" d="M164 1360l61 84h234v-811h-107v727h-188zM420 -39l899 1518h125l-899 -1518h-125zM1176 0l194 205q61 66 113.5 120t90.5 101t58.5 88t20.5 82q0 61 -49.5 102t-133.5 41q-180 0 -180 -170v-8h-104v21q0 117 75.5 181t213.5 64q135 0 210.5 -60t75.5 -167 q0 -88 -60.5 -175t-172.5 -194l-146 -139h351v-92h-557z" />
<glyph unicode="&#xbe;" horiz-adv-x="1863" d="M72 825v15h110v-9q0 -63 47 -100t125 -37q92 0 141.5 42t49.5 118q0 160 -201 160h-15t-18 -2v82q8 0 15.5 -1t15.5 -1q193 0 193 147q0 63 -43 101t-121 38q-80 0 -125 -35.5t-49 -101.5h-109q6 106 78 162.5t207 56.5q129 0 202.5 -58.5t73.5 -158.5q0 -74 -43 -124 t-121 -68q82 -10 129.5 -63.5t47.5 -137.5q0 -111 -82 -175.5t-230 -64.5q-129 0 -203.5 58.5t-74.5 156.5zM420 -39l899 1518h125l-899 -1518h-125zM1133 176l493 651h47v-571h109v-80h-109v-176h-108v176h-432zM1294 256h271v360z" />
<glyph unicode="&#xbf;" horiz-adv-x="1067" d="M184 283q0 53 17.5 96t50.5 83t82 79t115 82q49 33 91 59.5t70.5 54t45 59t16.5 74.5q0 55 -38 91t-97 36q-150 0 -150 -196v-8h-156v30q0 156 81 238t229 82q141 0 218 -78t77 -213q0 -55 -16.5 -99t-48.5 -84t-78 -77t-103 -78q-51 -35 -94 -63.5t-74 -57t-47.5 -60.5 t-16.5 -71q0 -68 47.5 -109.5t129.5 -41.5q90 0 138 54t48 159h162v-27q0 -154 -95.5 -245t-252.5 -91q-166 0 -258.5 87t-92.5 235zM438 1378q0 49 34 84t85 35t85 -35t34 -84t-35 -83.5t-84 -34.5t-84 34.5t-35 83.5z" />
<glyph unicode="&#xc0;" horiz-adv-x="1280" d="M-25 0l664 1522l666 -1522h-189l-190 449h-572l-190 -449h-189zM379 1958h201l204 -348h-120zM406 598h466l-233 539z" />
<glyph unicode="&#xc1;" horiz-adv-x="1280" d="M-25 0l664 1522l666 -1522h-189l-190 449h-572l-190 -449h-189zM406 598h466l-233 539zM498 1610l204 348h201l-285 -348h-120z" />
<glyph unicode="&#xc2;" horiz-adv-x="1280" d="M-25 0l664 1522l666 -1522h-189l-190 449h-572l-190 -449h-189zM346 1610l197 348h196l197 -348h-123l-172 229l-174 -229h-121zM406 598h466l-233 539z" />
<glyph unicode="&#xc3;" horiz-adv-x="1280" d="M-25 0l664 1522l666 -1522h-189l-190 449h-572l-190 -449h-189zM348 1657q18 100 68.5 152.5t124.5 52.5q35 0 59 -8l98 -29q37 -10 54 -10q66 0 94 73h88q-41 -209 -197 -209q-29 0 -65 11l-97 26q-27 8 -49 9q-63 0 -90 -68h-88zM406 598h466l-233 539z" />
<glyph unicode="&#xc4;" horiz-adv-x="1280" d="M-25 0l664 1522l666 -1522h-189l-190 449h-572l-190 -449h-189zM346 1774q0 45 34 78.5t81 33.5t78.5 -32.5t31.5 -79.5q0 -49 -30.5 -81t-79.5 -32t-82 32t-33 81zM406 598h466l-233 539zM711 1774q0 45 32.5 78.5t79.5 33.5t80 -32.5t33 -79.5q0 -49 -32 -81t-81 -32 q-47 0 -79.5 32t-32.5 81z" />
<glyph unicode="&#xc5;" horiz-adv-x="1280" d="M-25 0l654 1460h26l650 -1460h-189l-190 449h-572l-190 -449h-189zM401 1733q0 51 18.5 94t50.5 75.5t76 51t95 18.5t94 -18.5t76 -51t51.5 -75.5t18.5 -94t-18.5 -95.5t-51.5 -76t-76 -50t-94 -18.5t-95 18.5t-76 50t-50.5 76t-18.5 95.5zM406 598h466l-233 539z M518 1733q0 -53 35 -89t88 -36t90 35.5t37 89.5q0 51 -37 88t-90 37q-51 0 -87 -36t-36 -89z" />
<glyph unicode="&#xc6;" horiz-adv-x="1767" d="M-25 0l621 1464h768l27 -155h-646l183 -430h637l28 -156h-598l238 -561h612l29 -162h-758l-190 449h-572l-190 -449h-189zM406 598h466l-233 569z" />
<glyph unicode="&#xc7;" horiz-adv-x="1484" d="M109 725q0 336 229 559q223 215 545 215q131 0 248.5 -40t232.5 -118v-227q-106 117 -225 170t-262 53q-117 0 -226.5 -46t-191.5 -132q-168 -174 -168 -432q0 -203 100 -346q88 -125 216 -192.5t278 -67.5q281 0 479 231v-231q-111 -78 -234.5 -119t-259.5 -41 q-238 0 -432 135q-160 111 -244.5 271.5t-84.5 357.5zM612 -326q92 -23 152.5 -31t93.5 -8q121 0 121 82q0 86 -134 86h-24t-29 -2v199h76v-102h29q223 0 223 -181q0 -92 -63.5 -140t-186.5 -48q-47 0 -112.5 11t-145.5 34v100z" />
<glyph unicode="&#xc8;" horiz-adv-x="1067" d="M176 0v1464h772v-159h-598v-420h598v-162h-598v-561h598v-162h-772zM305 1958h201l204 -348h-120z" />
<glyph unicode="&#xc9;" horiz-adv-x="1067" d="M176 0v1464h772v-159h-598v-420h598v-162h-598v-561h598v-162h-772zM424 1610l204 348h201l-285 -348h-120z" />
<glyph unicode="&#xca;" horiz-adv-x="1067" d="M176 0v1464h772v-159h-598v-420h598v-162h-598v-561h598v-162h-772zM272 1610l197 348h196l197 -348h-123l-172 229l-174 -229h-121z" />
<glyph unicode="&#xcb;" horiz-adv-x="1067" d="M176 0v1464h772v-159h-598v-420h598v-162h-598v-561h598v-162h-772zM272 1774q0 45 34 78.5t81 33.5t78.5 -32.5t31.5 -79.5q0 -49 -30.5 -81t-79.5 -32t-82 32t-33 81zM637 1774q0 45 32.5 78.5t79.5 33.5t80 -32.5t33 -79.5q0 -49 -32 -81t-81 -32q-47 0 -79.5 32 t-32.5 81z" />
<glyph unicode="&#xcc;" horiz-adv-x="530" d="M6 1958h201l204 -348h-120zM178 0v1464h174v-1464h-174z" />
<glyph unicode="&#xcd;" horiz-adv-x="530" d="M125 1610l204 348h201l-285 -348h-120zM178 0v1464h174v-1464h-174z" />
<glyph unicode="&#xce;" horiz-adv-x="530" d="M-27 1610l197 348h196l197 -348h-123l-172 229l-174 -229h-121zM178 0v1464h174v-1464h-174z" />
<glyph unicode="&#xcf;" horiz-adv-x="530" d="M-27 1774q0 45 34 78.5t81 33.5t78.5 -32.5t31.5 -79.5q0 -49 -30.5 -81t-79.5 -32t-82 32t-33 81zM178 0v1464h174v-1464h-174zM338 1774q0 45 32.5 78.5t79.5 33.5t80 -32.5t33 -79.5q0 -49 -32 -81t-81 -32q-47 0 -79.5 32t-32.5 81z" />
<glyph unicode="&#xd0;" horiz-adv-x="1492" d="M0 741v152h184v571h281q102 0 194.5 -2t174 -15t154.5 -41t140 -79q127 -98 192.5 -247.5t65.5 -348.5t-65.5 -347t-192.5 -247q-63 -49 -131.5 -76.5t-142.5 -41t-156 -16.5t-170 -3h-344v741h-184zM358 164h115q94 0 174 2t147.5 12t123 30.5t102.5 59.5 q182 152 182 465q0 311 -182 463q-45 39 -101.5 60.5t-124 31.5t-147.5 12.5t-174 2.5h-115v-410h400v-152h-400v-577z" />
<glyph unicode="&#xd1;" horiz-adv-x="1587" d="M176 0v1522l1063 -1170v1112h174v-1521l-1063 1157v-1100h-174zM502 1657q18 100 68.5 152.5t124.5 52.5q35 0 59 -8l98 -29q37 -10 54 -10q66 0 94 73h88q-41 -209 -197 -209q-29 0 -65 11l-97 26q-27 8 -49 9q-63 0 -90 -68h-88z" />
<glyph unicode="&#xd2;" horiz-adv-x="1781" d="M109 729q0 158 58 296t171 249q111 109 254 166t299 57t300 -57.5t255 -165.5q113 -111 170 -249t57 -296t-58.5 -296t-168.5 -247q-113 -111 -257.5 -168t-297.5 -57q-156 0 -299 58.5t-254 166.5q-113 111 -171 248t-58 295zM291 729q0 -123 45 -230.5t131 -195.5 q178 -178 424 -178q121 0 228.5 45t195.5 133q176 176 176 426q0 123 -45 233.5t-131 196.5q-176 176 -424 176q-123 0 -230.5 -45t-193.5 -131q-86 -88 -131 -197.5t-45 -232.5zM629 1958h201l204 -348h-120z" />
<glyph unicode="&#xd3;" horiz-adv-x="1781" d="M109 729q0 158 58 296t171 249q111 109 254 166t299 57t300 -57.5t255 -165.5q113 -111 170 -249t57 -296t-58.5 -296t-168.5 -247q-113 -111 -257.5 -168t-297.5 -57q-156 0 -299 58.5t-254 166.5q-113 111 -171 248t-58 295zM291 729q0 -123 45 -230.5t131 -195.5 q178 -178 424 -178q121 0 228.5 45t195.5 133q176 176 176 426q0 123 -45 233.5t-131 196.5q-176 176 -424 176q-123 0 -230.5 -45t-193.5 -131q-86 -88 -131 -197.5t-45 -232.5zM748 1610l204 348h201l-285 -348h-120z" />
<glyph unicode="&#xd4;" horiz-adv-x="1781" d="M109 729q0 158 58 296t171 249q111 109 254 166t299 57t300 -57.5t255 -165.5q113 -111 170 -249t57 -296t-58.5 -296t-168.5 -247q-113 -111 -257.5 -168t-297.5 -57q-156 0 -299 58.5t-254 166.5q-113 111 -171 248t-58 295zM291 729q0 -123 45 -230.5t131 -195.5 q178 -178 424 -178q121 0 228.5 45t195.5 133q176 176 176 426q0 123 -45 233.5t-131 196.5q-176 176 -424 176q-123 0 -230.5 -45t-193.5 -131q-86 -88 -131 -197.5t-45 -232.5zM596 1610l197 348h196l197 -348h-123l-172 229l-174 -229h-121z" />
<glyph unicode="&#xd5;" horiz-adv-x="1781" d="M109 729q0 158 58 296t171 249q111 109 254 166t299 57t300 -57.5t255 -165.5q113 -111 170 -249t57 -296t-58.5 -296t-168.5 -247q-113 -111 -257.5 -168t-297.5 -57q-156 0 -299 58.5t-254 166.5q-113 111 -171 248t-58 295zM291 729q0 -123 45 -230.5t131 -195.5 q178 -178 424 -178q121 0 228.5 45t195.5 133q176 176 176 426q0 123 -45 233.5t-131 196.5q-176 176 -424 176q-123 0 -230.5 -45t-193.5 -131q-86 -88 -131 -197.5t-45 -232.5zM598 1657q18 100 68.5 152.5t124.5 52.5q35 0 59 -8l98 -29q37 -10 54 -10q66 0 94 73h88 q-41 -209 -197 -209q-29 0 -65 11l-97 26q-27 8 -49 9q-63 0 -90 -68h-88z" />
<glyph unicode="&#xd6;" horiz-adv-x="1781" d="M109 729q0 158 58 296t171 249q111 109 254 166t299 57t300 -57.5t255 -165.5q113 -111 170 -249t57 -296t-58.5 -296t-168.5 -247q-113 -111 -257.5 -168t-297.5 -57q-156 0 -299 58.5t-254 166.5q-113 111 -171 248t-58 295zM291 729q0 -123 45 -230.5t131 -195.5 q178 -178 424 -178q121 0 228.5 45t195.5 133q176 176 176 426q0 123 -45 233.5t-131 196.5q-176 176 -424 176q-123 0 -230.5 -45t-193.5 -131q-86 -88 -131 -197.5t-45 -232.5zM596 1774q0 45 34 78.5t81 33.5t78.5 -32.5t31.5 -79.5q0 -49 -30.5 -81t-79.5 -32t-82 32 t-33 81zM961 1774q0 45 32.5 78.5t79.5 33.5t80 -32.5t33 -79.5q0 -49 -32 -81t-81 -32q-47 0 -79.5 32t-32.5 81z" />
<glyph unicode="&#xd7;" horiz-adv-x="1705" d="M301 135l475 475l-475 477l80 82l477 -477l475 477l82 -82l-475 -477l475 -475l-82 -82l-475 475l-477 -475z" />
<glyph unicode="&#xd8;" horiz-adv-x="1781" d="M109 731q0 156 58 294t171 249q111 111 252 168t301 57q274 0 483 -166l160 170l80 -80l-154 -163q104 -102 158.5 -236.5t54.5 -292.5q0 -156 -58.5 -294t-170.5 -249q-111 -109 -252 -166t-301 -57q-254 0 -483 164l-166 -178l-80 82l160 172q-104 102 -158.5 237.5 t-54.5 288.5zM291 731q0 -121 39 -222t110 -177l820 878q-168 127 -369 127q-248 0 -424 -176q-86 -86 -131 -196.5t-45 -233.5zM524 252q158 -125 367 -125q123 0 231.5 44t194.5 130q84 86 129 197.5t45 238.5q0 213 -150 396z" />
<glyph unicode="&#xd9;" horiz-adv-x="1474" d="M170 553v911h174v-911q0 -221 94 -325.5t299 -104.5t299 104.5t94 325.5v911h175v-911q0 -592 -568 -592q-567 0 -567 592zM475 1958h201l204 -348h-120z" />
<glyph unicode="&#xda;" horiz-adv-x="1474" d="M170 553v911h174v-911q0 -221 94 -325.5t299 -104.5t299 104.5t94 325.5v911h175v-911q0 -592 -568 -592q-567 0 -567 592zM594 1610l204 348h201l-285 -348h-120z" />
<glyph unicode="&#xdb;" horiz-adv-x="1474" d="M170 553v911h174v-911q0 -221 94 -325.5t299 -104.5t299 104.5t94 325.5v911h175v-911q0 -592 -568 -592q-567 0 -567 592zM442 1610l197 348h196l197 -348h-123l-172 229l-174 -229h-121z" />
<glyph unicode="&#xdc;" horiz-adv-x="1474" d="M170 553v911h174v-911q0 -221 94 -325.5t299 -104.5t299 104.5t94 325.5v911h175v-911q0 -592 -568 -592q-567 0 -567 592zM442 1774q0 45 34 78.5t81 33.5t78.5 -32.5t31.5 -79.5q0 -49 -30.5 -81t-79.5 -32t-82 32t-33 81zM807 1774q0 45 32.5 78.5t79.5 33.5t80 -32.5 t33 -79.5q0 -49 -32 -81t-81 -32q-47 0 -79.5 32t-32.5 81z" />
<glyph unicode="&#xdd;" horiz-adv-x="1171" d="M2 1464h201l383 -635l381 635h200l-495 -794v-670h-174v670zM443 1610l204 348h201l-285 -348h-120z" />
<glyph unicode="&#xde;" horiz-adv-x="1024" d="M176 0v1464h170v-299h115q123 0 218 -10t173 -65q70 -49 109.5 -135.5t39.5 -194.5q0 -109 -39.5 -195t-109.5 -135q-74 -53 -164 -63.5t-205 -10.5h-137v-356h-170zM346 516h88q94 0 165 7t119 32t71.5 71t23.5 124q0 80 -23.5 130t-70.5 77.5t-119 38t-166 10.5h-88 v-490z" />
<glyph unicode="&#xdf;" horiz-adv-x="1175" d="M41 791v131h129v262q0 184 103.5 284.5t287.5 100.5q88 0 161 -28t125 -78t79.5 -119.5t27.5 -153.5q0 -252 -211 -311q160 -10 248 -122t88 -308q0 -109 -32.5 -198t-93 -151.5t-146.5 -97.5t-193 -35q-31 0 -64.5 5t-74.5 16v153q59 -29 135 -28q141 0 218 87t77 249 q0 170 -86 258t-260 88q-14 0 -27.5 -1t-29.5 -3v147q12 -2 23.5 -2h21.5q121 0 182.5 59.5t61.5 173.5q0 121 -58.5 183.5t-171.5 62.5q-143 0 -207 -106q-18 -33 -23 -79t-5 -108v-1122h-156v791h-129z" />
<glyph unicode="&#xe0;" d="M90 455q0 115 31 207t88 155.5t136 97t175 33.5q229 0 336 -205v172h156v-915h-152v166q-55 -100 -140 -152.5t-192 -52.5q-98 0 -179 35t-138 99.5t-89 155.5t-32 204zM256 463q0 -166 79 -256t226 -90q139 0 219 86t80 246q0 80 -22.5 143t-63.5 108t-97 69t-122 24 q-141 0 -220 -86t-79 -244zM322 1407h201l204 -348h-120z" />
<glyph unicode="&#xe1;" d="M90 455q0 115 31 207t88 155.5t136 97t175 33.5q229 0 336 -205v172h156v-915h-152v166q-55 -100 -140 -152.5t-192 -52.5q-98 0 -179 35t-138 99.5t-89 155.5t-32 204zM256 463q0 -166 79 -256t226 -90q139 0 219 86t80 246q0 80 -22.5 143t-63.5 108t-97 69t-122 24 q-141 0 -220 -86t-79 -244zM441 1059l204 348h201l-285 -348h-120z" />
<glyph unicode="&#xe2;" d="M90 455q0 115 31 207t88 155.5t136 97t175 33.5q229 0 336 -205v172h156v-915h-152v166q-55 -100 -140 -152.5t-192 -52.5q-98 0 -179 35t-138 99.5t-89 155.5t-32 204zM256 463q0 -166 79 -256t226 -90q139 0 219 86t80 246q0 80 -22.5 143t-63.5 108t-97 69t-122 24 q-141 0 -220 -86t-79 -244zM289 1059l197 348h196l197 -348h-123l-172 229l-174 -229h-121z" />
<glyph unicode="&#xe3;" d="M90 455q0 115 31 207t88 155.5t136 97t175 33.5q229 0 336 -205v172h156v-915h-152v166q-55 -100 -140 -152.5t-192 -52.5q-98 0 -179 35t-138 99.5t-89 155.5t-32 204zM256 463q0 -166 79 -256t226 -90q139 0 219 86t80 246q0 80 -22.5 143t-63.5 108t-97 69t-122 24 q-141 0 -220 -86t-79 -244zM291 1106q18 100 68.5 152.5t124.5 52.5q35 0 59 -8l98 -29q37 -10 54 -10q66 0 94 73h88q-41 -209 -197 -209q-29 0 -65 11l-97 26q-27 8 -49 9q-63 0 -90 -68h-88z" />
<glyph unicode="&#xe4;" d="M90 455q0 115 31 207t88 155.5t136 97t175 33.5q229 0 336 -205v172h156v-915h-152v166q-55 -100 -140 -152.5t-192 -52.5q-98 0 -179 35t-138 99.5t-89 155.5t-32 204zM256 463q0 -166 79 -256t226 -90q139 0 219 86t80 246q0 80 -22.5 143t-63.5 108t-97 69t-122 24 q-141 0 -220 -86t-79 -244zM289 1223q0 45 34 78.5t81 33.5t78.5 -32.5t31.5 -79.5q0 -49 -30.5 -81t-79.5 -32t-82 32t-33 81zM654 1223q0 45 32.5 78.5t79.5 33.5t80 -32.5t33 -79.5q0 -49 -32 -81t-81 -32q-47 0 -79.5 32t-32.5 81z" />
<glyph unicode="&#xe5;" d="M90 455q0 115 31 207t88 155.5t136 97t175 33.5q229 0 336 -205v172h156v-915h-152v166q-55 -100 -140 -152.5t-192 -52.5q-98 0 -179 35t-138 99.5t-89 155.5t-32 204zM256 463q0 -166 79 -256t226 -90q139 0 219 86t80 246q0 80 -22.5 143t-63.5 108t-97 69t-122 24 q-141 0 -220 -86t-79 -244zM313 1253q0 51 18.5 94.5t50.5 76t76 51t95 18.5t94 -18.5t76 -51t51.5 -75.5t18.5 -95q0 -51 -18.5 -95t-51.5 -75.5t-76 -50t-94 -18.5t-95 18.5t-76 50t-50.5 75.5t-18.5 95zM430 1255q0 -53 35 -89t88 -36t90 36t37 89q0 51 -37 88t-90 37 q-51 0 -87 -36t-36 -89z" />
<glyph unicode="&#xe6;" horiz-adv-x="1662" d="M53 289q0 150 97.5 235.5t265.5 85.5q160 0 274 -90q2 12 2 24.5v22.5q0 123 -73.5 187.5t-215.5 64.5q-125 0 -270 -76v146q160 59 311 59q137 0 226.5 -54t113.5 -146q94 203 355 202q102 0 184 -32.5t140.5 -95t89 -152.5t30.5 -203v-33h-731q2 -78 26.5 -141.5 t65.5 -107.5t97.5 -68.5t121.5 -24.5q193 0 295 199l119 -80q-139 -250 -424 -250q-133 0 -231.5 52.5t-155.5 150.5q-47 -98 -140.5 -149.5t-222.5 -51.5q-162 0 -256 89t-94 237zM213 281q0 -88 58.5 -136.5t174.5 -48.5q117 0 185.5 51.5t68.5 139.5q0 92 -63.5 141 t-179.5 49q-121 0 -182.5 -50t-61.5 -146zM852 561h559q-8 123 -81 187.5t-197 64.5q-55 0 -104.5 -18.5t-87.5 -52t-61.5 -80t-27.5 -101.5z" />
<glyph unicode="&#xe7;" horiz-adv-x="919" d="M84 449q0 113 36 204.5t99.5 157.5t151.5 101.5t190 35.5q154 0 285 -63v-168q-121 80 -254 80q-152 0 -246 -94.5t-94 -258.5q0 -70 24.5 -130t67.5 -105t103.5 -70.5t132.5 -25.5q74 0 142.5 25.5t139.5 78.5v-182q-127 -74 -307 -74q-106 0 -193.5 36t-148.5 100.5 t-95 153.5t-34 198zM276 -326q92 -23 152.5 -31t93.5 -8q121 0 121 82q0 86 -134 86h-24t-29 -2v199h76v-102h29q223 0 223 -181q0 -92 -63.5 -140t-186.5 -48q-47 0 -112.5 11t-145.5 34v100z" />
<glyph unicode="&#xe8;" horiz-adv-x="1052" d="M80 461q0 109 33.5 199t94 154.5t144.5 100t185 35.5q203 0 321.5 -128t118.5 -357v-31h-725v-14q0 -74 22.5 -134.5t62.5 -103.5t96 -66.5t122 -23.5q184 0 297 199l119 -80q-139 -250 -424 -250q-104 0 -190.5 36t-148 101.5t-95 157.5t-33.5 205zM252 561h557 q-8 123 -81 187.5t-198 64.5q-113 0 -189.5 -67.5t-88.5 -184.5zM264 1407h201l204 -348h-120z" />
<glyph unicode="&#xe9;" horiz-adv-x="1052" d="M80 461q0 109 33.5 199t94 154.5t144.5 100t185 35.5q203 0 321.5 -128t118.5 -357v-31h-725v-14q0 -74 22.5 -134.5t62.5 -103.5t96 -66.5t122 -23.5q184 0 297 199l119 -80q-139 -250 -424 -250q-104 0 -190.5 36t-148 101.5t-95 157.5t-33.5 205zM252 561h557 q-8 123 -81 187.5t-198 64.5q-113 0 -189.5 -67.5t-88.5 -184.5zM383 1059l204 348h201l-285 -348h-120z" />
<glyph unicode="&#xea;" horiz-adv-x="1052" d="M80 461q0 109 33.5 199t94 154.5t144.5 100t185 35.5q203 0 321.5 -128t118.5 -357v-31h-725v-14q0 -74 22.5 -134.5t62.5 -103.5t96 -66.5t122 -23.5q184 0 297 199l119 -80q-139 -250 -424 -250q-104 0 -190.5 36t-148 101.5t-95 157.5t-33.5 205zM231 1059l197 348 h196l197 -348h-123l-172 229l-174 -229h-121zM252 561h557q-8 123 -81 187.5t-198 64.5q-113 0 -189.5 -67.5t-88.5 -184.5z" />
<glyph unicode="&#xeb;" horiz-adv-x="1052" d="M80 461q0 109 33.5 199t94 154.5t144.5 100t185 35.5q203 0 321.5 -128t118.5 -357v-31h-725v-14q0 -74 22.5 -134.5t62.5 -103.5t96 -66.5t122 -23.5q184 0 297 199l119 -80q-139 -250 -424 -250q-104 0 -190.5 36t-148 101.5t-95 157.5t-33.5 205zM231 1223 q0 45 34 78.5t81 33.5t78.5 -32.5t31.5 -79.5q0 -49 -30.5 -81t-79.5 -32t-82 32t-33 81zM252 561h557q-8 123 -81 187.5t-198 64.5q-113 0 -189.5 -67.5t-88.5 -184.5zM596 1223q0 45 32.5 78.5t79.5 33.5t80 -32.5t33 -79.5q0 -49 -32 -81t-81 -32q-47 0 -79.5 32 t-32.5 81z" />
<glyph unicode="&#xec;" horiz-adv-x="495" d="M-12 1407h201l204 -348h-120zM168 0v915h156v-915h-156z" />
<glyph unicode="&#xed;" horiz-adv-x="495" d="M107 1059l204 348h201l-285 -348h-120zM168 0v915h156v-915h-156z" />
<glyph unicode="&#xee;" horiz-adv-x="495" d="M-45 1059l197 348h196l197 -348h-123l-172 229l-174 -229h-121zM168 0v915h156v-915h-156z" />
<glyph unicode="&#xef;" horiz-adv-x="495" d="M-45 1223q0 45 34 78.5t81 33.5t78.5 -32.5t31.5 -79.5q0 -49 -30.5 -81t-79.5 -32t-82 32t-33 81zM168 0v915h156v-915h-156zM320 1223q0 45 32.5 78.5t79.5 33.5t80 -32.5t33 -79.5q0 -49 -32 -81t-81 -32q-47 0 -79.5 32t-32.5 81z" />
<glyph unicode="&#xf0;" d="M86 424q0 94 37 177t106 149q72 66 159 101.5t177 35.5q201 0 344 -150q-72 238 -305 457l-328 -150l-57 105l279 129q-53 43 -112.5 84t-125.5 76l78 110q80 -47 155.5 -97t147.5 -110l344 160l59 -104l-305 -144q172 -174 257 -355t85 -384q0 -131 -35.5 -233.5 t-101 -173t-157 -108.5t-203.5 -38q-100 0 -191.5 36t-163.5 101q-70 66 -106.5 150t-36.5 176zM252 426q0 -66 25.5 -123t70.5 -100t105.5 -67.5t130.5 -24.5t129 24.5t104 67.5t70.5 100t25.5 123t-25.5 124t-70.5 101t-104.5 67.5t-128.5 24.5q-70 0 -130.5 -24.5 t-105.5 -67.5t-70.5 -101t-25.5 -124z" />
<glyph unicode="&#xf1;" horiz-adv-x="1140" d="M160 0v915h155v-141q115 174 332 174q160 0 252 -85t92 -240v-623h-155v539q0 274 -244 274q-143 0 -223 -98q-41 -49 -47.5 -107.5t-6.5 -134.5v-473h-155zM285 1106q18 100 68.5 152.5t124.5 52.5q35 0 59 -8l98 -29q37 -10 54 -10q66 0 94 73h88q-41 -209 -197 -209 q-29 0 -65 11l-97 26q-27 8 -49 9q-63 0 -90 -68h-88z" />
<glyph unicode="&#xf2;" d="M86 455q0 100 37 189t108 161q72 72 161 107.5t192 35.5q102 0 191 -37t161 -108q72 -70 108.5 -159t36.5 -189q0 -205 -145 -346q-72 -72 -162 -110t-190 -38q-207 0 -353 145q-145 146 -145 349zM252 455q0 -74 26.5 -136.5t71.5 -109.5t105.5 -73.5t128.5 -26.5 t128 26.5t105 73.5t70.5 109.5t25.5 136.5t-25.5 136t-70.5 109.5t-105.5 74t-127.5 26.5q-70 0 -130.5 -26.5t-105.5 -74t-70.5 -109.5t-25.5 -136zM322 1407h201l204 -348h-120z" />
<glyph unicode="&#xf3;" d="M86 455q0 100 37 189t108 161q72 72 161 107.5t192 35.5q102 0 191 -37t161 -108q72 -70 108.5 -159t36.5 -189q0 -205 -145 -346q-72 -72 -162 -110t-190 -38q-207 0 -353 145q-145 146 -145 349zM252 455q0 -74 26.5 -136.5t71.5 -109.5t105.5 -73.5t128.5 -26.5 t128 26.5t105 73.5t70.5 109.5t25.5 136.5t-25.5 136t-70.5 109.5t-105.5 74t-127.5 26.5q-70 0 -130.5 -26.5t-105.5 -74t-70.5 -109.5t-25.5 -136zM441 1059l204 348h201l-285 -348h-120z" />
<glyph unicode="&#xf4;" d="M86 455q0 100 37 189t108 161q72 72 161 107.5t192 35.5q102 0 191 -37t161 -108q72 -70 108.5 -159t36.5 -189q0 -205 -145 -346q-72 -72 -162 -110t-190 -38q-207 0 -353 145q-145 146 -145 349zM252 455q0 -74 26.5 -136.5t71.5 -109.5t105.5 -73.5t128.5 -26.5 t128 26.5t105 73.5t70.5 109.5t25.5 136.5t-25.5 136t-70.5 109.5t-105.5 74t-127.5 26.5q-70 0 -130.5 -26.5t-105.5 -74t-70.5 -109.5t-25.5 -136zM289 1059l197 348h196l197 -348h-123l-172 229l-174 -229h-121z" />
<glyph unicode="&#xf5;" d="M86 455q0 100 37 189t108 161q72 72 161 107.5t192 35.5q102 0 191 -37t161 -108q72 -70 108.5 -159t36.5 -189q0 -205 -145 -346q-72 -72 -162 -110t-190 -38q-207 0 -353 145q-145 146 -145 349zM252 455q0 -74 26.5 -136.5t71.5 -109.5t105.5 -73.5t128.5 -26.5 t128 26.5t105 73.5t70.5 109.5t25.5 136.5t-25.5 136t-70.5 109.5t-105.5 74t-127.5 26.5q-70 0 -130.5 -26.5t-105.5 -74t-70.5 -109.5t-25.5 -136zM291 1106q18 100 68.5 152.5t124.5 52.5q35 0 59 -8l98 -29q37 -10 54 -10q66 0 94 73h88q-41 -209 -197 -209 q-29 0 -65 11l-97 26q-27 8 -49 9q-63 0 -90 -68h-88z" />
<glyph unicode="&#xf6;" d="M86 455q0 100 37 189t108 161q72 72 161 107.5t192 35.5q102 0 191 -37t161 -108q72 -70 108.5 -159t36.5 -189q0 -205 -145 -346q-72 -72 -162 -110t-190 -38q-207 0 -353 145q-145 146 -145 349zM252 455q0 -74 26.5 -136.5t71.5 -109.5t105.5 -73.5t128.5 -26.5 t128 26.5t105 73.5t70.5 109.5t25.5 136.5t-25.5 136t-70.5 109.5t-105.5 74t-127.5 26.5q-70 0 -130.5 -26.5t-105.5 -74t-70.5 -109.5t-25.5 -136zM289 1223q0 45 34 78.5t81 33.5t78.5 -32.5t31.5 -79.5q0 -49 -30.5 -81t-79.5 -32t-82 32t-33 81zM654 1223 q0 45 32.5 78.5t79.5 33.5t80 -32.5t33 -79.5q0 -49 -32 -81t-81 -32q-47 0 -79.5 32t-32.5 81z" />
<glyph unicode="&#xf7;" horiz-adv-x="1705" d="M254 553v117h1198v-117h-1198zM739 250q0 49 34 82t81 33t81 -34t34 -81t-33 -81t-82 -34q-47 0 -81 34t-34 81zM739 971q0 47 34 80.5t81 33.5t81 -33.5t34 -80.5t-33 -81t-82 -34t-82 34t-33 81z" />
<glyph unicode="&#xf8;" d="M76 33l117 114q-106 125 -107 293q0 111 38 204t103.5 160.5t156.5 104.5t200 37q172 0 305 -104l119 116l73 -73l-116 -117q117 -117 116 -305q0 -109 -38.5 -200t-106.5 -158.5t-160 -105.5t-196 -38q-96 0 -176 29.5t-140 83.5l-121 -121zM252 449q0 -104 55 -187 l473 469q-35 33 -85 51.5t-113 18.5q-70 0 -130.5 -25.5t-104.5 -73t-69.5 -112t-25.5 -141.5zM377 184q72 -78 205 -78q70 0 130 27t106 75t73 112.5t27 142.5q0 106 -66 194z" />
<glyph unicode="&#xf9;" horiz-adv-x="1120" d="M147 369v546h156v-450q0 -90 12.5 -156.5t42 -110.5t79.5 -65.5t126 -21.5t125 21.5t79 65.5t42 110.5t12 156.5v450h156v-534q0 -209 -105.5 -314.5t-312.5 -105.5q-201 0 -306.5 102.5t-105.5 305.5zM299 1407h201l204 -348h-120z" />
<glyph unicode="&#xfa;" horiz-adv-x="1120" d="M147 369v546h156v-450q0 -90 12.5 -156.5t42 -110.5t79.5 -65.5t126 -21.5t125 21.5t79 65.5t42 110.5t12 156.5v450h156v-534q0 -209 -105.5 -314.5t-312.5 -105.5q-201 0 -306.5 102.5t-105.5 305.5zM418 1059l204 348h201l-285 -348h-120z" />
<glyph unicode="&#xfb;" horiz-adv-x="1120" d="M147 369v546h156v-450q0 -90 12.5 -156.5t42 -110.5t79.5 -65.5t126 -21.5t125 21.5t79 65.5t42 110.5t12 156.5v450h156v-534q0 -209 -105.5 -314.5t-312.5 -105.5q-201 0 -306.5 102.5t-105.5 305.5zM266 1059l197 348h196l197 -348h-123l-172 229l-174 -229h-121z" />
<glyph unicode="&#xfc;" horiz-adv-x="1120" d="M147 369v546h156v-450q0 -90 12.5 -156.5t42 -110.5t79.5 -65.5t126 -21.5t125 21.5t79 65.5t42 110.5t12 156.5v450h156v-534q0 -209 -105.5 -314.5t-312.5 -105.5q-201 0 -306.5 102.5t-105.5 305.5zM266 1223q0 45 34 78.5t81 33.5t78.5 -32.5t31.5 -79.5 q0 -49 -30.5 -81t-79.5 -32t-82 32t-33 81zM631 1223q0 45 32.5 78.5t79.5 33.5t80 -32.5t33 -79.5q0 -49 -32 -81t-81 -32q-47 0 -79.5 32t-32.5 81z" />
<glyph unicode="&#xfd;" horiz-adv-x="901" d="M12 915h181l266 -657l282 657h172l-614 -1361h-176l248 536zM310 1059l204 348h201l-285 -348h-120z" />
<glyph unicode="&#xfe;" horiz-adv-x="1175" d="M160 -446v1996h155v-807q39 98 125 151.5t203 53.5q98 0 179 -34.5t138.5 -99t89 -156t31.5 -203.5q0 -115 -31.5 -207t-88 -155.5t-136.5 -97.5t-176 -34q-227 0 -334 205v-612h-155zM311 467q0 -166 84 -259t226 -93q137 0 215.5 84t78.5 237q0 174 -79.5 267.5 t-217.5 93.5q-139 0 -223 -88t-84 -242z" />
<glyph unicode="&#xff;" horiz-adv-x="901" d="M12 915h181l266 -657l282 657h172l-614 -1361h-176l248 536zM158 1223q0 45 34 78.5t81 33.5t78.5 -32.5t31.5 -79.5q0 -49 -30.5 -81t-79.5 -32t-82 32t-33 81zM523 1223q0 45 32.5 78.5t79.5 33.5t80 -32.5t33 -79.5q0 -49 -32 -81t-81 -32q-47 0 -79.5 32t-32.5 81z " />
<glyph unicode="&#x152;" horiz-adv-x="2361" d="M109 733q0 156 59 294t172 249t257 167t312 56q180 0 321.5 -71.5t258.5 -219.5v256h764v-159h-598v-420h598v-162h-598v-561h598v-162h-764v258q-115 -147 -257 -220t-325 -73q-117 0 -220 26.5t-187 76.5q-190 111 -290.5 284.5t-100.5 380.5zM293 733 q0 -121 45 -229.5t133 -196.5q86 -86 192.5 -129t227.5 -43t229.5 44t194.5 130t130 193.5t44 230.5q0 121 -45 228.5t-131 193.5t-193.5 131t-228.5 45t-228.5 -44t-193.5 -130q-176 -176 -176 -424z" />
<glyph unicode="&#x153;" horiz-adv-x="1878" d="M86 455q0 104 39 194t106.5 156.5t160.5 104.5t204 38q242 0 389 -200q55 98 151.5 150t221.5 52q205 0 323.5 -128t118.5 -357v-31h-723v-14q0 -74 22.5 -134.5t62.5 -103.5t96.5 -66.5t121.5 -23.5q182 0 295 199l121 -80q-139 -250 -424 -250q-133 0 -232.5 52.5 t-154.5 150.5q-53 -92 -161.5 -147.5t-239.5 -55.5q-68 0 -131.5 17.5t-118.5 50.5q-121 72 -184.5 182.5t-63.5 243.5zM252 455q0 -74 26.5 -136.5t71.5 -109.5t105.5 -73.5t128.5 -26.5t128 26.5t105 73.5t70.5 109.5t25.5 136.5t-25.5 136t-70.5 109.5t-105.5 74 t-127.5 26.5q-70 0 -130.5 -26.5t-105.5 -74t-70.5 -109.5t-25.5 -136zM1077 561h555q-8 123 -80.5 187.5t-197.5 64.5q-113 0 -188.5 -67.5t-88.5 -184.5z" />
<glyph unicode="&#x178;" horiz-adv-x="1171" d="M2 1464h201l383 -635l381 635h200l-495 -794v-670h-174v670zM291 1774q0 45 34 78.5t81 33.5t78.5 -32.5t31.5 -79.5q0 -49 -30.5 -81t-79.5 -32t-82 32t-33 81zM656 1774q0 45 32.5 78.5t79.5 33.5t80 -32.5t33 -79.5q0 -49 -32 -81t-81 -32q-47 0 -79.5 32t-32.5 81z " />
<glyph unicode="&#x2c6;" horiz-adv-x="1024" d="M217 1059l197 348h196l197 -348h-123l-172 229l-174 -229h-121z" />
<glyph unicode="&#x2dc;" horiz-adv-x="1024" d="M219 1106q18 100 68.5 152.5t124.5 52.5q35 0 59 -8l98 -29q37 -10 54 -10q66 0 94 73h88q-41 -209 -197 -209q-29 0 -65 11l-97 26q-27 8 -49 9q-63 0 -90 -68h-88z" />
<glyph unicode="&#x2000;" horiz-adv-x="986" />
<glyph unicode="&#x2001;" horiz-adv-x="1972" />
<glyph unicode="&#x2002;" horiz-adv-x="986" />
<glyph unicode="&#x2003;" horiz-adv-x="1972" />
<glyph unicode="&#x2004;" horiz-adv-x="657" />
<glyph unicode="&#x2005;" horiz-adv-x="493" />
<glyph unicode="&#x2006;" horiz-adv-x="328" />
<glyph unicode="&#x2007;" horiz-adv-x="328" />
<glyph unicode="&#x2008;" horiz-adv-x="246" />
<glyph unicode="&#x2009;" horiz-adv-x="394" />
<glyph unicode="&#x200a;" horiz-adv-x="109" />
<glyph unicode="&#x2010;" horiz-adv-x="749" d="M141 377v158h467v-158h-467z" />
<glyph unicode="&#x2011;" horiz-adv-x="749" d="M141 377v158h467v-158h-467z" />
<glyph unicode="&#x2012;" horiz-adv-x="749" d="M141 377v158h467v-158h-467z" />
<glyph unicode="&#x2013;" horiz-adv-x="1024" d="M0 397v117h1024v-117h-1024z" />
<glyph unicode="&#x2014;" horiz-adv-x="2048" d="M0 397v117h2048v-117h-2048z" />
<glyph unicode="&#x2018;" horiz-adv-x="604" d="M121 969l248 528l112 -45l-188 -545z" />
<glyph unicode="&#x2019;" horiz-adv-x="604" d="M121 954l190 543l170 -59l-245 -531z" />
<glyph unicode="&#x201a;" horiz-adv-x="604" d="M121 -291l190 545l170 -59l-245 -531z" />
<glyph unicode="&#x201c;" horiz-adv-x="890" d="M84 969l248 528l112 -45l-190 -545zM446 969l246 528l115 -45l-191 -545z" />
<glyph unicode="&#x201d;" horiz-adv-x="890" d="M86 954l190 543l170 -59l-245 -531zM444 954l189 543l172 -59l-248 -531z" />
<glyph unicode="&#x201e;" horiz-adv-x="890" d="M86 -291l190 545l170 -59l-245 -531zM444 -291l189 545l172 -59l-248 -531z" />
<glyph unicode="&#x2022;" horiz-adv-x="1208" d="M307 762q0 61 23.5 114.5t63.5 93.5t94.5 63.5t115.5 23.5t114.5 -23.5t93.5 -63.5t63.5 -93.5t23.5 -114.5t-23.5 -114.5t-63.5 -94.5t-94 -64.5t-116 -23.5q-61 0 -115.5 23.5t-94.5 63.5t-62.5 94.5t-22.5 115.5z" />
<glyph unicode="&#x2026;" horiz-adv-x="2048" d="M221 98q0 49 35 84t84 35q51 0 86 -35t35 -84t-35 -82.5t-86 -33.5t-85 33.5t-34 82.5zM903 98q0 49 35 84t84 35q51 0 86 -35t35 -84t-35 -82.5t-86 -33.5t-85 33.5t-34 82.5zM1587 98q0 49 35 84t84 35q51 0 86 -35t35 -84t-35 -82.5t-86 -33.5t-85 33.5t-34 82.5z" />
<glyph unicode="&#x202f;" horiz-adv-x="394" />
<glyph unicode="&#x2039;" horiz-adv-x="485" d="M68 453l243 407l105 -67l-205 -340l207 -332l-99 -72z" />
<glyph unicode="&#x203a;" horiz-adv-x="485" d="M68 121l206 332l-204 340l104 67l244 -407l-252 -404z" />
<glyph unicode="&#x205f;" horiz-adv-x="493" />
<glyph unicode="&#x2122;" horiz-adv-x="1705" d="M254 1389v67h440v-67h-172v-467h-94v467h-174zM819 922v534h129l160 -405l149 405h132v-534h-82v458l-172 -458h-54l-180 458v-458h-82z" />
<glyph unicode="&#x25fc;" horiz-adv-x="911" d="M0 0v911h911v-911h-911z" />
<glyph unicode="&#xfb01;" horiz-adv-x="1075" d="M25 786v129h176v265q0 102 10 176t40 121t81 69.5t133 22.5q74 0 135 -21v-162q-59 33 -123 33q-43 0 -67.5 -16.5t-37 -48t-14.5 -80.5t-2 -115v-244h244v-129h-244v-786h-155v786h-176zM713 1356q0 47 33.5 80.5t80.5 33.5t81 -34.5t34 -81.5t-34 -80t-81 -33t-80.5 33 t-33.5 82zM750 0v915h155v-915h-155z" />
<glyph unicode="&#xfb02;" horiz-adv-x="1075" d="M25 786v129h176v265q0 102 10 176t40 121t81 69.5t133 22.5q74 0 135 -21v-162q-59 33 -123 33q-43 0 -67.5 -16.5t-37 -48t-14.5 -80.5t-2 -115v-244h244v-129h-240v-786h-159v786h-176zM750 0v1550h155v-1550h-155z" />
</font>
</defs>
</svg>
