<?xml version="1.0" standalone="no"?>
<!DOCTYPE svg PUBLIC "-//W3C//DTD SVG 1.1//EN" "http://www.w3.org/Graphics/SVG/1.1/DTD/svg11.dtd" >
<svg xmlns="http://www.w3.org/2000/svg" xmlns:xlink="http://www.w3.org/1999/xlink" version="1.1">
<metadata></metadata>
<defs>
<font id="futuraregular" horiz-adv-x="1024" >
<font-face units-per-em="2048" ascent="1565" descent="-483" />
<missing-glyph horiz-adv-x="589" />
<glyph horiz-adv-x="0" />
<glyph unicode="&#xd;" horiz-adv-x="589" />
<glyph unicode=" "  horiz-adv-x="589" />
<glyph unicode="&#x09;" horiz-adv-x="589" />
<glyph unicode="&#xa0;" horiz-adv-x="589" />
<glyph unicode="!" horiz-adv-x="634" d="M215 63q0 43 29.5 73t72.5 30t73 -28.5t30 -74.5q0 -45 -30 -73.5t-73 -28.5t-72.5 29.5t-29.5 72.5zM256 303v1194h123v-1194h-123z" />
<glyph unicode="&#x22;" horiz-adv-x="550" d="M100 881v553h86v-553h-86zM365 881v553h86v-553h-86z" />
<glyph unicode="#" horiz-adv-x="1574" d="M129 494l31 90h336l100 282h-360l28 90h365l176 498h110l-174 -498h271l176 498h110l-174 -498h322l-31 -90h-323l-101 -282h348l-30 -90h-351l-174 -494h-112l176 494h-270l-179 -494h-110l174 494h-334zM610 584h269l100 282h-270z" />
<glyph unicode="$" horiz-adv-x="1179" d="M160 274l114 58q61 -199 281 -217v633q-84 41 -146.5 82.5t-103.5 87t-61.5 97.5t-20.5 115q0 133 86 222.5t246 111.5v101h80v-99q104 -12 175 -55t118 -123l-105 -57q-57 111 -188 121v-506q94 -45 161.5 -88t111.5 -92.5t65.5 -108.5t21.5 -137q0 -166 -96 -278.5 t-264 -139.5v-170h-80v174q-276 0 -395 268zM356 1135q0 -86 48.5 -144.5t150.5 -107.5v469q-45 -6 -82 -26.5t-62.5 -49.5t-40 -65.5t-14.5 -75.5zM635 117q109 14 171 92t62 201q0 102 -56 172.5t-177 128.5v-594z" />
<glyph unicode="%" horiz-adv-x="1497" d="M63 1104q0 180 79 277.5t214 97.5t215 -97.5t80 -277.5t-78.5 -277.5t-216.5 -97.5q-137 0 -215 97.5t-78 277.5zM182 1106q0 -139 44 -211t130 -72t131 73t45 210q0 281 -176 280q-84 0 -129 -71.5t-45 -208.5zM270 -39l842 1518h109l-842 -1518h-109zM848 334 q0 180 79 277.5t214 97.5t215 -97.5t80 -277.5t-79 -276.5t-216 -96.5t-215 96.5t-78 276.5zM967 336q0 -139 44 -211t130 -72t131 73t45 210q0 281 -176 280q-84 0 -129 -71.5t-45 -208.5z" />
<glyph unicode="&#x26;" horiz-adv-x="1310" d="M86 381q0 135 90 245.5t273 227.5l-56 74q-47 61 -80.5 121.5t-33.5 146.5q0 55 23.5 102.5t65.5 83t100 56t130 20.5q63 0 116.5 -20.5t91.5 -56t59.5 -86t21.5 -109.5q0 -106 -67.5 -188.5t-203.5 -168.5l361 -446q47 57 90 116.5t84 125.5l86 -50q-94 -158 -199 -280 l252 -295h-145l-182 215q-104 -123 -213 -182.5t-234 -59.5q-98 0 -177 32t-135.5 87t-87 129t-30.5 160zM213 387q0 -66 24.5 -121t66.5 -97t98.5 -65.5t119.5 -23.5q174 0 373 221l-383 467l-66 -47q-51 -37 -94 -71t-73.5 -72.5t-48 -83.5t-17.5 -107zM401 1188 q0 -37 16.5 -81t51.5 -89l82 -111l65 45q154 106 154 236q0 74 -53 121t-127 47q-82 0 -135.5 -46t-53.5 -122z" />
<glyph unicode="'" horiz-adv-x="284" d="M100 881v553h86v-553h-86z" />
<glyph unicode="(" horiz-adv-x="559" d="M184 555q0 547 238 977l90 -49q-213 -434 -213 -932q0 -270 51 -502.5t162 -441.5l-90 -53q-238 438 -238 1001z" />
<glyph unicode=")" horiz-adv-x="559" d="M47 -393q111 209 163 441.5t52 502.5q0 252 -53 481.5t-162 450.5l90 49q238 -430 238 -977q0 -563 -238 -1001z" />
<glyph unicode="*" horiz-adv-x="854" d="M119 1006l233 122l-233 129l43 78l227 -145l-6 274h88l-8 -274l229 143l43 -76l-233 -129l233 -122l-47 -78l-227 139l8 -266h-86l8 264l-229 -137z" />
<glyph unicode="+" horiz-adv-x="1705" d="M254 569v80h559v570h80v-570h559v-80h-559v-569h-80v569h-559z" />
<glyph unicode="," horiz-adv-x="589" d="M121 -283l203 537l145 -61l-264 -515z" />
<glyph unicode="-" horiz-adv-x="710" d="M137 377v129h436v-129h-436z" />
<glyph unicode="." horiz-adv-x="589" d="M193 84q0 43 29.5 72.5t72.5 29.5t72.5 -28.5t29.5 -73.5t-29.5 -73.5t-72.5 -28.5t-72.5 29.5t-29.5 72.5z" />
<glyph unicode="/" horiz-adv-x="825" d="M0 -190l717 1687h108l-716 -1687h-109z" />
<glyph unicode="0" horiz-adv-x="1179" d="M102 719q0 180 35 322.5t98.5 238.5t153.5 147.5t203 51.5q111 0 201 -50.5t153.5 -147.5t98 -238.5t34.5 -323.5q0 -369 -131 -563.5t-360 -194.5q-109 0 -199 50t-153.5 147.5t-98.5 238t-35 322.5zM233 717q0 -150 25 -267.5t71 -199.5t112.5 -126t150.5 -44 q174 0 264 161.5t90 479.5q0 313 -92 476t-266 163q-82 0 -147.5 -44t-111.5 -127t-71 -202.5t-25 -269.5z" />
<glyph unicode="1" horiz-adv-x="1179" d="M281 1331l63 119h330v-1450h-129v1331h-264z" />
<glyph unicode="2" horiz-adv-x="1179" d="M72 0l315 346q111 119 200 216t153.5 182t99 162t34.5 157q0 66 -23.5 120t-65.5 94t-101 61.5t-133 21.5q-143 0 -230.5 -90t-87.5 -250v-6h-131v14q0 211 124 331t339 120q102 0 186.5 -30t143.5 -83t91 -128t32 -167q0 -90 -25.5 -165t-73 -146.5t-113 -144 t-142.5 -156.5l-322 -344h670v-115h-940z" />
<glyph unicode="3" horiz-adv-x="1179" d="M98 369h144q10 -143 91 -216t228 -73q160 0 243 85t83 224q0 143 -84 228t-236 85h-28.5t-36.5 -2v127q27 -2 44 -2h29q139 0 214 72t75 190q0 125 -78.5 200t-207.5 75q-117 0 -190 -61.5t-87 -174.5h-143q8 82 41.5 146.5t89 111t128 71t161.5 24.5q94 0 171.5 -28 t134 -77t87 -118.5t30.5 -155.5q0 -125 -66.5 -215t-186.5 -125q135 -43 206.5 -139.5t71.5 -231.5q0 -96 -31.5 -174t-91 -135t-145.5 -88t-197 -31q-211 0 -329.5 104.5t-133.5 303.5z" />
<glyph unicode="4" horiz-adv-x="1179" d="M61 371l793 1128v-1014h150v-114h-150v-371h-133v371h-660zM260 485h461l2 660z" />
<glyph unicode="5" horiz-adv-x="1179" d="M82 240l104 77q66 -123 149 -180t206 -57q160 0 256 102.5t96 280.5q0 162 -97.5 258t-265.5 96q-92 0 -167.5 -26.5t-135.5 -79.5l-41 4l187 735h592v-113h-500l-115 -454q55 23 108.5 36t108.5 13q104 0 189.5 -34t146 -94.5t94 -145.5t33.5 -187q0 -115 -36 -209 t-101.5 -161.5t-156.5 -104.5t-201 -37q-158 0 -268.5 69.5t-184.5 211.5z" />
<glyph unicode="6" horiz-adv-x="1179" d="M123 408q0 82 21.5 157.5t59.5 149t91 151.5t115 164l342 477l108 -67l-469 -635q59 37 114.5 55.5t119.5 18.5q92 0 169.5 -32t134 -91.5t89.5 -142.5t33 -185q0 -104 -36 -191t-100.5 -148.5t-152.5 -95.5t-193 -34q-102 0 -184 32t-140.5 91t-90 141t-31.5 185z M260 416q0 -160 90 -250t238 -90q147 0 236 97t89 261q0 70 -22.5 131.5t-65.5 105.5t-102 69.5t-133 25.5q-76 0 -136.5 -26.5t-103.5 -72.5t-66.5 -110.5t-23.5 -140.5z" />
<glyph unicode="7" horiz-adv-x="1179" d="M184 1337v113h899l-737 -1495l-123 63l668 1319h-707z" />
<glyph unicode="8" horiz-adv-x="1179" d="M125 393q0 147 76 253.5t211 141.5q-111 35 -171.5 122t-60.5 210q0 76 29 141.5t83 113.5t130 76t170 28t171 -28t129 -77t80.5 -118.5t28.5 -151.5q0 -115 -59 -195t-172 -121q133 -35 209 -140t76 -251q0 -201 -121 -318.5t-342 -117.5q-111 0 -198 31t-146.5 88 t-91 137t-31.5 176zM264 399q0 -147 84 -233t242 -86q160 0 244 88t84 231q0 150 -87.5 237t-240.5 87q-154 0 -240 -86t-86 -238zM319 1100q0 -117 71 -187.5t204 -70.5q131 0 201.5 70.5t70.5 187.5q0 123 -75.5 192.5t-198.5 69.5q-125 0 -199 -70.5t-74 -191.5z" />
<glyph unicode="9" horiz-adv-x="1179" d="M123 1010q0 104 36 191t100.5 148.5t152.5 95.5t192 34q102 0 185 -32t141.5 -91.5t90.5 -142.5t32 -183q0 -78 -20.5 -151.5t-58.5 -148.5t-91.5 -154.5t-118.5 -167.5l-350 -476l-109 66l477 635q-59 -37 -113.5 -54.5t-117.5 -17.5q-92 0 -170 32t-135.5 90t-90 141 t-32.5 186zM262 1006q0 -72 22.5 -132.5t64.5 -105.5t101.5 -70.5t133.5 -25.5q76 0 137 26.5t104 72.5t66.5 110.5t23.5 140.5q0 160 -90 251t-237 91t-236.5 -97.5t-89.5 -260.5z" />
<glyph unicode=":" horiz-adv-x="634" d="M215 84q0 43 29.5 72.5t72.5 29.5t73 -28.5t30 -73.5t-30 -73.5t-73 -28.5t-72.5 29.5t-29.5 72.5zM215 760q0 43 29.5 72.5t72.5 29.5t73 -28.5t30 -73.5t-30 -74t-73 -29t-72.5 30t-29.5 73z" />
<glyph unicode=";" horiz-adv-x="634" d="M129 -283l203 537l145 -61l-264 -515zM301 760q0 43 29.5 72.5t72.5 29.5t73 -28.5t30 -73.5t-30 -74t-73 -29t-72.5 30t-29.5 73z" />
<glyph unicode="&#x3c;" horiz-adv-x="1705" d="M264 580v61l1178 483v-90l-1045 -424l1045 -424v-88z" />
<glyph unicode="=" horiz-adv-x="1705" d="M254 389v80h1198v-80h-1198zM254 752v79h1198v-79h-1198z" />
<glyph unicode="&#x3e;" horiz-adv-x="1705" d="M264 98v88l1045 424l-1045 424v90l1178 -483v-61z" />
<glyph unicode="?" horiz-adv-x="1052" d="M172 1096v32q0 172 97.5 270.5t265.5 98.5q154 0 243.5 -89t89.5 -243q0 -76 -20.5 -130t-58 -97t-93 -82t-125.5 -82q-49 -31 -90 -56.5t-68.5 -52t-43 -58.5t-15.5 -75q0 -72 45 -115.5t123 -43.5q86 0 136.5 46t50.5 132v18h110v-24q0 -135 -80 -207t-231 -72 q-125 0 -203 75t-78 194q0 61 20.5 108t57.5 85t87 73t110 71q55 37 100 67t77 61.5t48 68.5t16 88q0 96 -57 154.5t-158 58.5q-113 0 -175 -68.5t-62 -199.5v-6h-119zM401 63q0 43 30 73t73 30t72.5 -28.5t29.5 -74.5q0 -45 -29.5 -73.5t-72.5 -28.5t-73 29.5t-30 72.5z " />
<glyph unicode="@" horiz-adv-x="2048" d="M121 522q0 164 50 308.5t148 263.5q143 176 344 266t451 90q166 0 309.5 -45t243.5 -123q129 -98 194.5 -226t65.5 -278q0 -172 -63.5 -310t-180.5 -230q-68 -53 -146.5 -82t-158.5 -29q-193 0 -192 145q0 10 1 19.5t3 19.5q-49 -90 -125 -137t-166 -47q-154 0 -233.5 83 t-79.5 243q0 117 36.5 216t99 171.5t146.5 114.5t179 42q195 0 256 -170l61 129h80l-137 -553q-10 -41 -15.5 -67.5t-5.5 -40.5q0 -43 30 -67.5t87 -24.5q98 0 203 76q49 37 90 89t70.5 115.5t46 135t16.5 149.5q0 135 -51.5 246.5t-146.5 191.5t-229 124t-298 44 q-336 0 -569 -192q-309 -256 -310 -672q0 -162 57.5 -294t163 -226t256 -145.5t336.5 -51.5q160 0 322 49t301 144l29 -45q-293 -219 -648 -220q-377 0 -620 185q-301 227 -301 616zM690 446q0 -117 57.5 -181t159.5 -64q111 0 196 71.5t116 194.5l63 254q-23 98 -81 150.5 t-152 52.5q-76 0 -141.5 -37t-114 -101.5t-76 -151.5t-27.5 -188z" />
<glyph unicode="A" horiz-adv-x="1222" d="M-18 0l643 1522l616 -1522h-145l-187 496h-598l-194 -496h-135zM356 610h510l-250 637z" />
<glyph unicode="B" horiz-adv-x="1132" d="M182 0v1464h254q121 0 209 -10t158 -61q72 -53 110.5 -132t38.5 -178q0 -117 -61.5 -198.5t-167.5 -108.5q141 -20 221 -112.5t80 -233.5q0 -225 -152 -342q-41 -33 -88 -50.5t-100 -25.5t-114.5 -10t-131.5 -2h-256zM315 115h197q86 0 150.5 7t115.5 46q47 35 75 99.5 t28 135.5q0 92 -32 157t-85 97q-47 29 -104.5 35t-122.5 6h-222v-583zM315 813h166q82 0 144.5 11.5t104.5 41t63.5 79.5t21.5 128q0 82 -19.5 135.5t-60.5 84t-104.5 43t-149.5 12.5h-166v-535z" />
<glyph unicode="C" horiz-adv-x="1464" d="M113 731q0 168 59 309.5t162.5 242.5t244 157.5t304.5 56.5q281 0 477 -154l-4 -147q-109 92 -220.5 138t-240.5 46q-143 0 -261 -48t-202 -134t-130 -206t-46 -261q0 -147 47 -266t131 -204t196.5 -131t246.5 -46q127 0 246.5 42t226.5 128l-2 -156 q-106 -68 -228.5 -102.5t-236.5 -34.5q-166 0 -306.5 55.5t-244 156.5t-161.5 243.5t-58 314.5z" />
<glyph unicode="D" horiz-adv-x="1427" d="M182 0v1464h228q94 0 178 -1t158.5 -10t140 -28.5t125.5 -56.5q143 -88 222 -252t79 -385q0 -201 -64.5 -352.5t-183.5 -243.5q-63 -49 -131 -75.5t-141.5 -40t-153.5 -16.5t-168 -3h-289zM315 115h197q139 0 246.5 12t191.5 72q104 76 162.5 212t58.5 322 q0 152 -38.5 269.5t-110.5 197.5q-51 55 -108.5 87t-125 46.5t-145.5 17.5t-170 3h-158v-1239z" />
<glyph unicode="E" horiz-adv-x="1050" d="M182 0v1464h725v-125h-592v-458h592v-125h-592v-631h592v-125h-725z" />
<glyph unicode="F" horiz-adv-x="1026" d="M182 0v1464h725v-125h-592v-458h570v-125h-570v-756h-133z" />
<glyph unicode="G" horiz-adv-x="1673" d="M113 729q0 166 54 306.5t152.5 243.5t233.5 160.5t299 57.5q219 0 379 -79t248 -238l-97 -84q-90 139 -219 209.5t-293 70.5q-137 0 -250.5 -49t-194.5 -136t-125 -209t-44 -267q0 -133 46 -249t128 -201t194.5 -133t245.5 -48q123 0 224.5 39t175 107.5t115.5 165 t45 212.5h-506v115h651v-21q0 -172 -49 -310t-142.5 -233.5t-226.5 -146.5t-299 -51t-303 55.5t-235.5 156.5t-152.5 242.5t-54 313.5z" />
<glyph unicode="H" horiz-adv-x="1427" d="M182 0v1464h133v-594h797v594h133v-1464h-133v756h-797v-756h-133z" />
<glyph unicode="I" horiz-adv-x="497" d="M182 0v1464h133v-1464h-133z" />
<glyph unicode="J" horiz-adv-x="763" d="M6 113l94 86q82 -111 185 -111q109 0 145.5 80t36.5 233v1063h133v-1149q0 -178 -80 -266t-231 -88q-188 0 -283 152z" />
<glyph unicode="K" horiz-adv-x="1175" d="M182 0v1464h133v-686l662 686h174l-694 -700l727 -764h-193l-676 743v-743h-133z" />
<glyph unicode="L" horiz-adv-x="845" d="M182 0v1464h133v-1339h502v-125h-635z" />
<glyph unicode="M" horiz-adv-x="1712" d="M88 0l199 1526l561 -1303l582 1303l188 -1526h-137l-109 1118l-522 -1175l-514 1175l-111 -1118h-137z" />
<glyph unicode="N" horiz-adv-x="1525" d="M182 0v1526l1028 -1225v1163h133v-1507l-1028 1227v-1184h-133z" />
<glyph unicode="O" horiz-adv-x="1792" d="M113 729q0 158 58 297t171 250q225 221 553 221q162 0 303 -55.5t252 -165.5q113 -111 171 -251t58 -296t-59 -295t-170 -248q-113 -111 -254 -168t-301 -57t-301 57.5t-252 167.5q-111 111 -170 250t-59 293zM254 729q0 -135 50 -254t136 -206t203 -138t252 -51t252 51 t204 138t137 206t50 254t-50 254t-137 207t-205 139t-251 51t-250 -50t-204 -138t-137 -207t-50 -256z" />
<glyph unicode="P" d="M182 0v1464h285q104 0 188 -10t156 -63q68 -49 106.5 -135.5t38.5 -194.5q0 -217 -121.5 -310.5t-365.5 -93.5h-154v-657h-133zM315 774h91q98 0 173.5 8.5t128 37t80 83.5t27.5 148q0 78 -25.5 140t-72.5 99q-51 41 -126 49.5t-185 8.5h-91v-574z" />
<glyph unicode="Q" horiz-adv-x="1792" d="M113 731q0 156 59 294t170 249t253 167t300 56q160 0 302 -57.5t253 -165.5q113 -111 171 -249t58 -294q0 -317 -235 -545l248 -288h-162l-178 206q-109 -70 -222.5 -102.5t-246.5 -32.5q-154 0 -292 56.5t-249 162.5q-113 111 -171 250.5t-58 292.5zM256 731 q0 -135 49 -253t136 -206t205 -138t253 -50q109 0 205 33t162 88l-340 395h164l272 -317q176 195 176 448q0 135 -50 254t-137 206t-205 138t-251 51t-250 -50t-203 -138t-136 -207t-50 -254z" />
<glyph unicode="R" horiz-adv-x="1081" d="M182 0v1464h269q475 0 475 -399q0 -174 -101.5 -270.5t-279.5 -96.5l526 -698h-162l-514 698h-80v-698h-133zM315 807h134q86 0 148 11t103 41t61.5 81t20.5 129q0 158 -79.5 218.5t-253.5 60.5h-134v-541z" />
<glyph unicode="S" horiz-adv-x="1019" d="M70 246l114 61q31 -111 111 -169t188 -58q139 0 217 81t78 228q0 68 -19.5 116t-55 87t-88 69.5t-115.5 65.5q-86 45 -155 88t-116 91t-71.5 105.5t-24.5 135.5t27.5 142.5t78 111.5t120 72.5t153.5 25.5q221 0 324 -186l-103 -62q-31 63 -90 96t-139 33 q-111 0 -173.5 -63.5t-62.5 -171.5q0 -68 23.5 -112t66.5 -77.5t102.5 -64.5t131.5 -70q80 -43 139.5 -85t98 -91t57 -111.5t18.5 -144.5q0 -98 -29.5 -177t-85 -135.5t-135.5 -86t-178 -29.5q-291 0 -407 285z" />
<glyph unicode="T" horiz-adv-x="1017" d="M39 1339v125h940v-125h-404v-1339h-133v1339h-403z" />
<glyph unicode="U" horiz-adv-x="1417" d="M176 551v913h133v-956q0 -217 97.5 -322.5t302.5 -105.5t302 105.5t97 322.5v956h133v-913q0 -590 -532 -590t-533 590z" />
<glyph unicode="V" horiz-adv-x="1128" d="M-18 1464h153l422 -1192l444 1192h146l-592 -1503z" />
<glyph unicode="W" horiz-adv-x="1839" d="M25 1464h139l366 -1169l390 1227l405 -1217l352 1159h138l-490 -1503l-405 1225l-390 -1225z" />
<glyph unicode="X" horiz-adv-x="991" d="M-25 0l447 770l-404 694h150l330 -581l333 581h144l-404 -690l445 -774h-148l-372 649l-375 -649h-146z" />
<glyph unicode="Y" horiz-adv-x="1118" d="M10 1464h160l393 -671l395 671h152l-481 -790v-674h-133v674z" />
<glyph unicode="Z" horiz-adv-x="1146" d="M25 0l870 1343h-743v121h970l-866 -1341h778v-123h-1009z" />
<glyph unicode="[" horiz-adv-x="559" d="M221 -412v1909h291v-98h-174v-1712h174v-99h-291z" />
<glyph unicode="\" horiz-adv-x="825" d="M0 1497h109l716 -1687h-108z" />
<glyph unicode="]" horiz-adv-x="559" d="M47 -313h176v1712h-176v98h291v-1909h-291v99z" />
<glyph unicode="^" horiz-adv-x="2048" d="M424 901l539 557h118l541 -557h-125l-473 469l-475 -469h-125z" />
<glyph unicode="_" d="M0 -403h1024v-80h-1024v80z" />
<glyph unicode="`" d="M268 1380h164l213 -350h-94z" />
<glyph unicode="a" horiz-adv-x="1107" d="M84 438q0 106 30.5 195.5t86 153t130.5 98.5t165 35q113 0 194.5 -48.5t128.5 -146.5v162h123v-887h-123v162q-43 -98 -123 -149.5t-188 -51.5q-96 0 -174 34t-133.5 97.5t-86 150.5t-30.5 195zM221 434q0 -174 78 -266t221 -92q135 0 218 97t83 284q0 166 -82 258 t-217 92t-218 -97.5t-83 -275.5z" />
<glyph unicode="b" horiz-adv-x="1107" d="M164 0v1550h123v-825q92 195 321 195q88 0 164 -35t131 -98.5t86 -152.5t31 -196q0 -109 -31 -195.5t-86 -150t-134 -97.5t-173 -34q-109 0 -187.5 51t-121.5 150v-162h-123zM285 457q0 -186 83 -283.5t218 -97.5q143 0 220 92t77 266q0 178 -83 275.5t-218 97.5 t-216 -92t-81 -258z" />
<glyph unicode="c" horiz-adv-x="933" d="M92 432q0 106 36 196.5t100.5 155t153.5 100.5t198 36q80 0 151.5 -15.5t124.5 -44.5l-2 -135q-127 86 -276 86q-168 0 -264.5 -106.5t-96.5 -280.5q0 -76 25.5 -141.5t74 -113.5t115 -75.5t146.5 -27.5q150 0 290 100l2 -135q-135 -74 -315 -74q-102 0 -187 36 t-146.5 99.5t-95.5 150.5t-34 189z" />
<glyph unicode="d" horiz-adv-x="1107" d="M88 438q0 106 31 195.5t86 153t130 98.5t165 35q227 0 323 -195v825h123v-1550h-123v162q-45 -98 -123.5 -149.5t-187.5 -51.5q-96 0 -174 34t-133 97.5t-86 150.5t-31 195zM225 434q0 -174 78 -266t221 -92q135 0 217 97t82 284q0 166 -80.5 258t-216.5 92 q-135 0 -218 -97.5t-83 -275.5z" />
<glyph unicode="e" horiz-adv-x="1017" d="M88 434q0 111 32 201t89 152.5t137 97.5t174 35q90 0 165 -31t128 -89.5t83 -141.5t30 -187v-31h-705q4 -174 87 -271t216 -97q100 0 172 53t123 160l113 -62q-68 -135 -166 -198.5t-242 -63.5q-98 0 -178 35t-137 97.5t-89 149.5t-32 191zM229 545h551 q-8 123 -80.5 189.5t-195.5 66.5q-53 0 -101.5 -18.5t-85 -51.5t-59 -81t-29.5 -105z" />
<glyph unicode="f" horiz-adv-x="530" d="M27 782v105h166v256q0 106 6 186t29.5 133.5t69.5 80t128 26.5q59 0 119 -21l-23 -108q-47 24 -85 24h-3q-74 0 -96.5 -59t-22.5 -182v-336h195v-105h-195v-782h-122v782h-166z" />
<glyph unicode="g" horiz-adv-x="1107" d="M90 440q0 109 30 197t84 151.5t131 97.5t171 34q109 0 194.5 -56.5t120.5 -142.5v166h123v-740q0 -147 -8 -245.5t-33 -151.5q-90 -196 -378 -196h-3q-350 0 -395 276l154 -4q31 -162 251 -162q82 0 147.5 30t98.5 79q29 43 36 91t7 105v195q-41 -94 -126 -148.5 t-195 -54.5q-90 0 -165 32t-129 93t-85 150.5t-31 203.5zM223 438q0 -176 77 -269t208 -93q68 0 125 24.5t99 71.5t65.5 116.5t23.5 160.5q0 174 -82 266t-219 92q-139 0 -218 -97.5t-79 -271.5z" />
<glyph unicode="h" horiz-adv-x="1067" d="M164 0v1550h123v-800q100 170 307 170q147 0 233 -82t86 -236v-602h-122v547q0 133 -55.5 197.5t-174.5 64.5q-147 0 -210.5 -86t-63.5 -260v-463h-123z" />
<glyph unicode="i" horiz-adv-x="471" d="M141 1233q0 41 29 67.5t66 26.5q39 0 67.5 -26.5t28.5 -67.5q0 -39 -28 -66.5t-68 -27.5q-41 0 -68 27.5t-27 66.5zM174 0v887h123v-887h-123z" />
<glyph unicode="j" horiz-adv-x="471" d="M141 1233q0 41 29 67.5t66 26.5q39 0 67.5 -26.5t28.5 -67.5q0 -39 -28 -66.5t-68 -27.5q-41 0 -68 27.5t-27 66.5zM174 -446v1333h123v-1333h-123z" />
<glyph unicode="k" horiz-adv-x="937" d="M164 0v1550h123v-1056l442 393h170l-475 -398l510 -489h-170l-477 459v-459h-123z" />
<glyph unicode="l" horiz-adv-x="471" d="M176 0v1550h123v-1550h-123z" />
<glyph unicode="m" horiz-adv-x="1615" d="M164 0v887h123v-139q43 86 115.5 129t166.5 43q197 0 271 -175q106 174 309 175q141 0 222 -86t81 -234v-600h-123v551q0 262 -213 262q-133 0 -189.5 -86t-56.5 -260v-467h-122v551q0 131 -48.5 196.5t-160.5 65.5q-135 0 -193.5 -86t-58.5 -260v-467h-123z" />
<glyph unicode="n" horiz-adv-x="1067" d="M164 0v887h117v-137q109 170 313 170q147 0 233 -82t86 -236v-602h-122v547q0 133 -55.5 197.5t-174.5 64.5q-147 0 -210.5 -86t-63.5 -260v-463h-123z" />
<glyph unicode="o" horiz-adv-x="1142" d="M90 442q0 100 38 187.5t102.5 152t151.5 101.5t185 37q100 0 189.5 -37t155 -101.5t103.5 -151.5t38 -188q0 -100 -39 -188t-104.5 -152.5t-154 -102.5t-188.5 -38q-98 0 -184 37t-151.5 102.5t-103.5 152.5t-38 189zM223 440q0 -78 28 -144.5t75 -115.5t110 -76.5 t135 -27.5t135.5 27.5t110.5 76.5t75 115.5t28 144.5t-28 144.5t-75 116t-110.5 77t-135.5 27.5q-74 0 -137 -27.5t-110.5 -77t-74 -116t-26.5 -144.5z" />
<glyph unicode="p" horiz-adv-x="1107" d="M164 -446v1333h123v-166q47 94 128 146.5t185 52.5q94 0 171 -34t131 -97.5t84 -151.5t30 -197q0 -115 -31 -204t-85 -150t-129 -93t-165 -32q-219 0 -319 203v-610h-123zM287 449q0 -90 23.5 -160t65.5 -117t99 -71.5t125 -24.5q131 0 207 93t76 269q0 174 -78 271.5 t-217 97.5q-137 0 -219 -92t-82 -266z" />
<glyph unicode="q" horiz-adv-x="1107" d="M90 440q0 109 30 197t84 151.5t131 97.5t171 34q104 0 186 -52.5t129 -146.5v166h123v-1333h-123v610q-49 -100 -131 -151.5t-190 -51.5q-90 0 -165 32t-129 93t-85 150.5t-31 203.5zM223 438q0 -176 77 -269t208 -93q68 0 125 24.5t99 71.5t65.5 116.5t23.5 160.5 q0 174 -82 266t-219 92q-139 0 -218 -97.5t-79 -271.5z" />
<glyph unicode="r" horiz-adv-x="645" d="M164 0v887h123v-178q66 111 129 161t157 50q51 0 105 -19l-39 -117q-43 14 -84 15q-51 0 -99 -25.5t-86 -74t-60.5 -115t-22.5 -148.5v-436h-123z" />
<glyph unicode="s" horiz-adv-x="782" d="M63 158l117 67q61 -149 217 -149h2q80 0 125 40t45 105q0 45 -19.5 74t-53 49.5t-78.5 36.5t-99 39q-109 45 -161 101.5t-52 142.5q0 113 79 185.5t208 72.5q109 0 184.5 -46.5t110.5 -134.5l-113 -63q-45 129 -190 129q-66 0 -106.5 -38t-40.5 -93q0 -66 53 -100.5 t158 -69.5q59 -20 105 -43t78 -53.5t48 -74.5t16 -106q0 -119 -84 -193.5t-237 -74.5q-117 0 -197 52.5t-115 144.5z" />
<glyph unicode="t" horiz-adv-x="507" d="M27 782v105h163v364h123v-364h176v-105h-176v-782h-123v782h-163z" />
<glyph unicode="u" horiz-adv-x="1079" d="M164 381v506h123v-443q0 -186 52 -277t200 -91q147 0 200.5 91t53.5 277v443h122v-506q0 -211 -94 -315.5t-280 -104.5q-184 0 -280.5 104.5t-96.5 315.5z" />
<glyph unicode="v" horiz-adv-x="874" d="M31 887h135l272 -672l271 672h137l-408 -926z" />
<glyph unicode="w" horiz-adv-x="1327" d="M25 887h129l231 -639l279 686l278 -686l232 639h129l-355 -926l-282 688l-287 -688z" />
<glyph unicode="x" horiz-adv-x="806" d="M0 0l332 461l-301 426h153l217 -326l217 326h150l-299 -426l330 -461h-152l-248 358l-245 -358h-154z" />
<glyph unicode="y" horiz-adv-x="825" d="M43 887h131l254 -694l234 694h131l-459 -1333h-127l155 452z" />
<glyph unicode="z" horiz-adv-x="780" d="M23 0l495 776h-461v111h674l-491 -778h505v-109h-722z" />
<glyph unicode="{" d="M176 485v90q14 -2 26.5 -2h22.5q141 0 197.5 66t56.5 221v240q0 104 12.5 176t48 117t99 64.5t166.5 19.5h43v-88h-37q-74 0 -119 -13.5t-69.5 -44.5t-32.5 -82t-8 -125v-241q0 -76 -7.5 -134.5t-29 -100.5t-59 -70.5t-99.5 -47.5q61 -18 100 -46.5t59.5 -71.5t28 -100.5 t7.5 -133.5v-241q0 -74 8 -124.5t32.5 -81t69.5 -44t117 -13.5h39v-88h-43q-102 0 -166 19.5t-99.5 63.5t-48 116t-12.5 176v240q0 156 -57 221t-201 65q-10 0 -21.5 -1t-23.5 -1z" />
<glyph unicode="|" d="M467 -483v2048h90v-2048h-90z" />
<glyph unicode="}" d="M176 -326h39q72 0 117 13.5t69.5 44t32.5 81t8 124.5v241q0 76 7.5 133.5t29 100.5t60.5 71.5t100 46.5q-61 18 -100 47t-60.5 71t-29 100.5t-7.5 134.5v241q0 74 -8 125t-32.5 82t-69.5 44.5t-119 13.5h-37v88h43q102 0 166 -19.5t99.5 -64.5t48 -117t12.5 -176v-240 q0 -78 13 -132t44 -89t80 -50.5t121 -15.5q10 0 21.5 1t23.5 1v-90q-12 0 -23.5 1t-21.5 1q-72 0 -121 -15t-80 -50t-44 -89t-13 -132v-240q0 -104 -12.5 -176t-48 -116t-99 -63.5t-166.5 -19.5h-43v88z" />
<glyph unicode="~" horiz-adv-x="1705" d="M178 481v92q104 72 199.5 110t187.5 38q80 0 149.5 -22.5t139.5 -47.5q72 -27 141.5 -49t147.5 -22q92 0 184 41t203 118v-92q-104 -72 -199.5 -109.5t-187.5 -37.5q-82 0 -151.5 22.5t-137.5 46.5q-74 27 -143.5 49.5t-145.5 22.5q-92 0 -184 -41t-203 -119z" />
<glyph unicode="&#xa1;" horiz-adv-x="634" d="M215 1395q0 43 29.5 72.5t72.5 29.5t73 -28.5t30 -73.5t-30 -74t-73 -29t-72.5 30t-29.5 73zM256 -39v1196h123v-1196h-123z" />
<glyph unicode="&#xa2;" horiz-adv-x="1179" d="M123 735q0 98 30.5 181t88 147.5t139.5 104.5t186 53v161h80v-159q135 0 283 -60v-135q-66 43 -135.5 62.5t-147.5 23.5v-745q92 10 162 32.5t121 63.5v-131q-119 -70 -283 -72v-205h-80v207q-98 4 -180 42t-140.5 101.5t-91 147.5t-32.5 180zM254 748q0 -154 83 -254.5 t230 -118.5v735q-68 -6 -125 -36t-99 -79t-65.5 -112.5t-23.5 -134.5z" />
<glyph unicode="&#xa3;" horiz-adv-x="1179" d="M100 20q72 133 195 170q80 111 80 205q0 49 -11.5 99.5t-33.5 105.5h-230v90h185q-102 221 -103 371q0 90 33 167t91.5 132t141 87t183.5 32q203 0 319.5 -112t122.5 -316l-127 -23q-4 160 -86 247t-225 87q-147 0 -232.5 -83t-85.5 -220q0 -133 101 -369h389v-90h-358 q18 -49 28 -92t10 -84q0 -143 -102 -229q63 0 118.5 -18.5t107 -40t98.5 -39t94 -17.5q66 0 115 36t96 107l88 -59q-53 -102 -124 -151.5t-167 -49.5q-61 0 -115.5 18.5t-104.5 42t-98.5 42t-97.5 18.5q-61 0 -111.5 -30.5t-97.5 -94.5z" />
<glyph unicode="&#xa4;" horiz-adv-x="1241" d="M94 418l207 205q-92 117 -92 262t92 262l-207 205l58 59l206 -207q119 94 263 94q145 0 264 -94l205 207l59 -59l-207 -205q92 -117 92 -262t-92 -262l207 -205l-59 -60l-205 207q-117 -92 -264 -92q-145 0 -263 92l-206 -207zM291 887q0 -68 25.5 -128.5t70.5 -105.5 t105.5 -71.5t130.5 -26.5t130 26.5t105 71.5t70.5 105.5t25.5 128.5t-25.5 128t-70.5 105t-105.5 71t-129.5 26q-70 0 -130.5 -27t-105.5 -71t-70.5 -104.5t-25.5 -127.5z" />
<glyph unicode="&#xa5;" horiz-adv-x="1181" d="M33 631v98h456l-98 162h-358v100h293l-283 461h147l402 -676l412 676h135l-281 -461h289v-100h-352l-99 -162h451v-98h-490v-631h-127v631h-497z" />
<glyph unicode="&#xa6;" d="M467 -350v758h90v-758h-90zM467 674v758h90v-758h-90z" />
<glyph unicode="&#xa7;" horiz-adv-x="1042" d="M115 530q0 123 71.5 215.5t198.5 133.5q-219 90 -219 297q0 143 97 233t274 90q170 0 259 -86t89 -244v-24h-135q-10 246 -222 246q-98 0 -159.5 -57.5t-61.5 -149.5q0 -61 20.5 -101.5t59.5 -70t91 -51t118 -43.5q168 -61 253 -149.5t85 -233.5q0 -272 -264 -357 q217 -94 217 -305q0 -68 -25.5 -128t-73 -104t-112 -70t-144.5 -26q-164 0 -260 91.5t-96 244.5v27h127q6 -233 227 -234q106 0 164 57.5t58 155.5q0 53 -18.5 89t-52.5 63t-82 46t-105 42q-90 33 -161 64.5t-119 76.5t-73.5 107.5t-25.5 154.5zM250 530q0 -127 74.5 -201.5 t201.5 -74.5q57 0 107.5 21.5t87.5 59.5t58.5 88t21.5 107q0 61 -19.5 111.5t-56.5 86.5t-87 56.5t-112 20.5q-57 0 -107 -21.5t-88 -58.5t-59.5 -87t-21.5 -108z" />
<glyph unicode="&#xa8;" d="M240 1188q0 39 28.5 68.5t67.5 29.5q41 0 69.5 -29.5t28.5 -68.5q0 -41 -28.5 -68.5t-69.5 -27.5t-68.5 27.5t-27.5 68.5zM590 1188q0 39 29.5 68.5t68.5 29.5q41 0 68.5 -29.5t27.5 -68.5q0 -41 -27.5 -68.5t-68.5 -27.5t-69.5 27.5t-28.5 68.5z" />
<glyph unicode="&#xa9;" horiz-adv-x="1705" d="M123 721q0 145 55 278.5t162 241.5q102 104 232 157.5t280 53.5t283 -55.5t237 -159.5t157.5 -236.5t53.5 -279.5q0 -152 -53 -281t-158 -231q-109 -106 -242 -162.5t-278 -56.5q-147 0 -278.5 56t-235.5 161q-104 104 -159.5 235t-55.5 279zM195 721q0 -131 50 -250 t144 -213t213 -144.5t250 -50.5q129 0 250 50.5t219 146.5q92 92 141 209t49 252t-49 254t-141 211q-96 96 -215 145t-254 49t-252 -49t-209 -141q-96 -98 -146 -218t-50 -251zM471 725q0 104 28.5 187t80 141.5t123 90.5t157.5 32q133 0 223.5 -72t102.5 -186h-105 q-20 82 -79.5 127t-147.5 45q-125 0 -195.5 -95.5t-70.5 -275.5q0 -174 71.5 -269.5t194.5 -95.5q92 0 156.5 51.5t83.5 141.5h102q-6 -61 -33.5 -112.5t-74 -88.5t-107.5 -57.5t-133 -20.5q-170 0 -273.5 120t-103.5 337z" />
<glyph unicode="&#xaa;" horiz-adv-x="831" d="M63 1151q0 76 24 137.5t65 105.5t97 68.5t124 24.5q84 0 145.5 -34t95.5 -101v112h93v-620h-93v112q-66 -139 -233 -139q-143 0 -230.5 91t-87.5 243zM166 1147q0 -123 58.5 -186.5t166.5 -63.5q100 0 162.5 68.5t62.5 197.5q0 117 -61 181.5t-164 64.5 q-102 0 -163.5 -68.5t-61.5 -193.5z" />
<glyph unicode="&#xab;" horiz-adv-x="782" d="M45 436l244 395l86 -53l-209 -344l213 -332l-82 -53zM401 436l246 395l86 -53l-211 -344l215 -332l-82 -53z" />
<glyph unicode="&#xac;" horiz-adv-x="1705" d="M254 776v80h1198v-502h-80v422h-1118z" />
<glyph unicode="&#xad;" horiz-adv-x="710" d="M137 377v129h436v-129h-436z" />
<glyph unicode="&#xae;" horiz-adv-x="1705" d="M123 721q0 145 55 278.5t162 241.5q102 104 232 157.5t280 53.5t283 -55.5t237 -159.5t157.5 -236.5t53.5 -279.5q0 -152 -53 -281t-158 -231q-109 -106 -242 -162.5t-278 -56.5q-147 0 -278.5 56t-235.5 161q-104 104 -159.5 235t-55.5 279zM195 721q0 -131 50 -250 t144 -213t213 -144.5t250 -50.5q129 0 250 50.5t219 146.5q92 92 141 209t49 252t-49 254t-141 211q-96 96 -215 145t-254 49t-252 -49t-209 -141q-96 -98 -146 -218t-50 -251zM569 309v846h305q176 0 262.5 -55.5t86.5 -177.5q0 -88 -54.5 -148.5t-148.5 -71.5l190 -393 h-131l-182 377h-213v-377h-115zM684 764h168q133 0 193.5 32.5t60.5 129.5q0 80 -62.5 115.5t-191.5 35.5h-168v-313z" />
<glyph unicode="&#xaf;" d="M254 1118v117h516v-117h-516z" />
<glyph unicode="&#xb0;" horiz-adv-x="673" d="M63 1176q0 57 21.5 107t58.5 87t87.5 58.5t107.5 21.5q55 0 105.5 -21.5t87 -58.5t58 -87t21.5 -107q0 -55 -21.5 -105.5t-58 -87.5t-87 -58.5t-107.5 -21.5t-107.5 21.5t-87.5 58.5t-57.5 86t-20.5 107zM125 1176q0 -45 16.5 -84t46 -68t68.5 -45t82 -16q45 0 84 16 t67.5 46t45 69t16.5 82t-16.5 81.5t-46 68.5t-68.5 46.5t-82 16.5q-90 0 -151.5 -61.5t-61.5 -151.5z" />
<glyph unicode="&#xb1;" horiz-adv-x="1705" d="M254 61v80h1198v-80h-1198zM254 727v80h559v354h80v-354h559v-80h-559v-352h-80v352h-559z" />
<glyph unicode="&#xb2;" horiz-adv-x="778" d="M47 575l209 207q72 72 131 130.5t101 109.5t66 97t24 93q0 78 -58.5 128.5t-154.5 50.5t-153.5 -53.5t-57.5 -149.5v-4h-86v8q0 127 81.5 198.5t223.5 71.5q137 0 218 -66.5t81 -176.5q0 -53 -17.5 -99.5t-48.5 -89.5t-74 -87t-94 -93l-213 -205h443v-70h-621z" />
<glyph unicode="&#xb3;" horiz-adv-x="778" d="M66 797h94q12 -174 211 -174q104 0 159.5 51t55.5 135q0 86 -55.5 137t-155.5 51h-19.5t-23.5 -2v76h47q92 0 142 43t50 115q0 74 -52 119t-138 45q-78 0 -125 -37t-57 -105h-95q10 98 85 154.5t192 56.5q125 0 203 -61.5t78 -165.5q0 -74 -45.5 -128t-122.5 -75 q88 -27 136 -85t48 -138q0 -115 -81 -185.5t-226 -70.5q-139 0 -217 62.5t-88 181.5z" />
<glyph unicode="&#xb4;" d="M379 1030l213 350h164l-283 -350h-94z" />
<glyph unicode="&#xb5;" horiz-adv-x="1093" d="M-111 -424l316 1487h121l-123 -590q-8 -39 -12.5 -72.5t-4.5 -68.5q0 -127 59.5 -192.5t174.5 -65.5q123 0 216 105.5t140 316.5l125 567h121l-166 -787q-10 -51 -17.5 -84.5t-7.5 -50.5q0 -63 68 -63h13.5t25.5 2l-18 -96q-23 -4 -41.5 -8.5t-34.5 -4.5q-133 0 -133 127 q0 10 1 21.5t3 23.5q-43 -84 -123 -128t-189 -44q-98 0 -169.5 45t-104.5 127l-119 -567h-121z" />
<glyph unicode="&#xb6;" d="M90 1130q0 76 27.5 140.5t79 110.5t125 72t163.5 26h447v-64h-129v-1415h-70v1415h-192v-1415h-70v782q-180 8 -280.5 103.5t-100.5 244.5z" />
<glyph unicode="&#xb7;" horiz-adv-x="589" d="M193 719q0 43 29.5 72.5t72.5 29.5t72.5 -28.5t29.5 -73.5t-29.5 -74t-72.5 -29t-72.5 30t-29.5 73z" />
<glyph unicode="&#xb8;" d="M301 -309q70 -14 126 -23.5t99 -9.5q125 0 125 88q0 90 -137 90h-21.5t-23.5 -2v166h61v-100h15q104 0 158.5 -40t54.5 -112q0 -164 -215 -164q-57 0 -116.5 10.5t-125.5 26.5v70z" />
<glyph unicode="&#xb9;" horiz-adv-x="778" d="M186 1374l41 72h217v-871h-84v799h-174z" />
<glyph unicode="&#xba;" horiz-adv-x="858" d="M68 1153q0 70 27.5 131.5t76.5 106.5t114.5 70.5t139.5 25.5q76 0 142.5 -25.5t115.5 -70.5t78 -106.5t29 -131.5q0 -72 -29 -132t-79 -106.5t-116.5 -72t-140.5 -25.5t-138.5 25.5t-113.5 72t-77.5 106.5t-28.5 132zM168 1151q0 -53 20.5 -100t55.5 -81t83 -53.5 t101 -19.5t101.5 19.5t84 53.5t56 81t20.5 100q0 55 -20.5 101t-56 81t-83 54.5t-102.5 19.5t-102 -19.5t-82 -54.5t-55.5 -81t-20.5 -101z" />
<glyph unicode="&#xbb;" horiz-adv-x="782" d="M45 102l215 332l-211 344l86 53l244 -395l-252 -387zM401 102l215 332l-208 344l86 53l243 -395l-252 -387z" />
<glyph unicode="&#xbc;" horiz-adv-x="1828" d="M176 1378l41 66h207v-811h-80v745h-168zM401 -39l918 1518h106l-915 -1518h-109zM1124 207l500 633v-568h94v-65h-94v-207h-84v207h-416zM1249 272h291v369z" />
<glyph unicode="&#xbd;" horiz-adv-x="1828" d="M176 1378l41 66h207v-811h-80v745h-168zM401 -39l918 1518h106l-915 -1518h-109zM1130 0l199 195q68 68 125 122t97 101t62.5 90t22.5 88q0 72 -56 119t-148 47q-90 0 -144.5 -50t-54.5 -141v-4h-84v8q0 117 79 184.5t214 67.5q129 0 206.5 -61t77.5 -166q0 -51 -16 -93 t-45 -82t-71 -81t-91 -88l-203 -193h422v-63h-592z" />
<glyph unicode="&#xbe;" horiz-adv-x="1828" d="M61 840h91q12 -162 202 -162q100 0 152.5 47t52.5 125q0 80 -53 128t-148 48h-43v70h47q88 0 135.5 40t47.5 105q0 72 -49.5 113t-130.5 41q-74 0 -120 -34t-55 -97h-90q10 92 82 144t183 52q119 0 192.5 -57t73.5 -154q0 -72 -42 -121t-118 -69q86 -25 131 -79t45 -130 q0 -106 -76.5 -173t-216.5 -67q-133 0 -207.5 59.5t-85.5 170.5zM401 -39l918 1518h106l-915 -1518h-109zM1124 207l500 633v-568h94v-65h-94v-207h-84v207h-416zM1249 272h291v369z" />
<glyph unicode="&#xbf;" horiz-adv-x="1052" d="M172 295q0 76 20.5 130t59.5 97t94 81t125 81q49 31 90 56.5t68.5 53t43 59.5t15.5 75q0 72 -46 115.5t-124 43.5q-86 0 -136 -46t-50 -132v-18h-111v24q0 135 80 207t231 72q125 0 203 -75t78 -193q0 -61 -20.5 -108.5t-56.5 -85.5t-86 -72.5t-109 -71.5 q-55 -37 -100.5 -66.5t-77 -61.5t-49 -69t-17.5 -88q0 -96 57.5 -154.5t157.5 -58.5q113 0 175.5 68.5t62.5 199.5v7h118v-33q0 -172 -97 -271.5t-265 -99.5q-154 0 -244 90t-90 244zM436 1395q0 45 29 73.5t72 28.5t72.5 -29.5t29.5 -72.5t-29.5 -73t-72.5 -30t-72 29 t-29 74z" />
<glyph unicode="&#xc0;" horiz-adv-x="1222" d="M-18 0l643 1522l616 -1522h-145l-187 496h-598l-194 -496h-135zM356 610h510l-250 637zM368 1958h164l213 -350h-94z" />
<glyph unicode="&#xc1;" horiz-adv-x="1222" d="M-18 0l643 1522l616 -1522h-145l-187 496h-598l-194 -496h-135zM356 610h510l-250 637zM479 1608l213 350h164l-283 -350h-94z" />
<glyph unicode="&#xc2;" horiz-adv-x="1222" d="M-18 0l643 1522l616 -1522h-145l-187 496h-598l-194 -496h-135zM325 1608l213 350h146l213 -350h-92l-193 250l-195 -250h-92zM356 610h510l-250 637z" />
<glyph unicode="&#xc3;" horiz-adv-x="1222" d="M-18 0l643 1522l616 -1522h-145l-187 496h-598l-194 -496h-135zM321 1672q43 178 199 178q35 0 59 -8l78 -27q35 -10 61 -10q68 0 97 67h88q-25 -92 -76 -138t-123 -46q-18 0 -33.5 3t-31.5 7l-80 27q-25 8 -58 8q-61 0 -92 -61h-88zM356 610h510l-250 637z" />
<glyph unicode="&#xc4;" horiz-adv-x="1222" d="M-18 0l643 1522l616 -1522h-145l-187 496h-598l-194 -496h-135zM340 1766q0 39 28.5 68.5t67.5 29.5q41 0 69.5 -29.5t28.5 -68.5q0 -41 -28.5 -68.5t-69.5 -27.5t-68.5 27.5t-27.5 68.5zM356 610h510l-250 637zM690 1766q0 39 29.5 68.5t68.5 29.5q41 0 68.5 -29.5 t27.5 -68.5q0 -41 -27.5 -68.5t-68.5 -27.5t-69.5 27.5t-28.5 68.5z" />
<glyph unicode="&#xc5;" horiz-adv-x="1222" d="M-18 0l624 1460h39l596 -1460h-145l-187 496h-598l-194 -496h-135zM356 610h510l-250 633zM389 1737q0 49 18.5 92t50 74.5t74.5 50t93 18.5q49 0 92 -18.5t74.5 -50t50 -74.5t18.5 -92t-18.5 -92t-50 -75t-74.5 -50.5t-92 -18.5t-91 18.5t-75 50.5t-51.5 75t-18.5 92z M492 1737q0 -55 38.5 -94t94.5 -39q55 0 94 38.5t39 94.5q0 57 -39 95t-94 38t-94 -39t-39 -94z" />
<glyph unicode="&#xc6;" horiz-adv-x="1687" d="M8 0l529 1464h618l41 -125h-506l158 -458h526l43 -125h-526l215 -631h532l41 -125h-665l-170 496h-533l-176 -496h-127zM348 610h457l-217 662z" />
<glyph unicode="&#xc7;" horiz-adv-x="1464" d="M113 731q0 168 59 309.5t162.5 242.5t244 157.5t304.5 56.5q281 0 477 -154l-4 -147q-109 92 -220.5 138t-240.5 46q-143 0 -261 -48t-202 -134t-130 -206t-46 -261q0 -147 47 -266t131 -204t196.5 -131t246.5 -46q127 0 246.5 42t226.5 128l-2 -156 q-106 -68 -228.5 -102.5t-236.5 -34.5q-166 0 -306.5 55.5t-244 156.5t-161.5 243.5t-58 314.5zM649 -309q70 -14 126 -23.5t99 -9.5q125 0 125 88q0 90 -137 90h-21.5t-23.5 -2v166h61v-100h15q104 0 158.5 -40t54.5 -112q0 -164 -215 -164q-57 0 -116.5 10.5t-125.5 26.5 v70z" />
<glyph unicode="&#xc8;" horiz-adv-x="1050" d="M182 0v1464h725v-125h-592v-458h592v-125h-592v-631h592v-125h-725zM297 1958h164l213 -350h-94z" />
<glyph unicode="&#xc9;" horiz-adv-x="1050" d="M182 0v1464h725v-125h-592v-458h592v-125h-592v-631h592v-125h-725zM408 1608l213 350h164l-283 -350h-94z" />
<glyph unicode="&#xca;" horiz-adv-x="1050" d="M182 0v1464h725v-125h-592v-458h592v-125h-592v-631h592v-125h-725zM254 1608l213 350h146l213 -350h-92l-193 250l-195 -250h-92z" />
<glyph unicode="&#xcb;" horiz-adv-x="1050" d="M182 0v1464h725v-125h-592v-458h592v-125h-592v-631h592v-125h-725zM269 1766q0 39 28.5 68.5t67.5 29.5q41 0 69.5 -29.5t28.5 -68.5q0 -41 -28.5 -68.5t-69.5 -27.5t-68.5 27.5t-27.5 68.5zM619 1766q0 39 29.5 68.5t68.5 29.5q41 0 68.5 -29.5t27.5 -68.5 q0 -41 -27.5 -68.5t-68.5 -27.5t-69.5 27.5t-28.5 68.5z" />
<glyph unicode="&#xcc;" horiz-adv-x="497" d="M8 1958h164l213 -350h-94zM182 0v1464h133v-1464h-133z" />
<glyph unicode="&#xcd;" horiz-adv-x="497" d="M119 1608l213 350h164l-283 -350h-94zM182 0v1464h133v-1464h-133z" />
<glyph unicode="&#xce;" horiz-adv-x="497" d="M-35 1608l213 350h146l213 -350h-92l-193 250l-195 -250h-92zM182 0v1464h133v-1464h-133z" />
<glyph unicode="&#xcf;" horiz-adv-x="497" d="M-20 1766q0 39 28.5 68.5t67.5 29.5q41 0 69.5 -29.5t28.5 -68.5q0 -41 -28.5 -68.5t-69.5 -27.5t-68.5 27.5t-27.5 68.5zM182 0v1464h133v-1464h-133zM330 1766q0 39 29.5 68.5t68.5 29.5q41 0 68.5 -29.5t27.5 -68.5q0 -41 -27.5 -68.5t-68.5 -27.5t-69.5 27.5 t-28.5 68.5z" />
<glyph unicode="&#xd0;" horiz-adv-x="1435" d="M0 762v102h193v600h227q106 0 199.5 -2t173 -15t149.5 -40t131 -76q121 -98 185.5 -249.5t64.5 -350.5t-64.5 -350.5t-187.5 -247.5q-61 -47 -126.5 -73.5t-139.5 -40t-154 -16.5t-168 -3h-290v762h-193zM326 115h194q141 0 249 12t192 72q104 76 161.5 212t57.5 322 q0 303 -148 467q-51 55 -108.5 87t-125 46.5t-146.5 17.5t-171 3h-155v-490h426v-102h-426v-647z" />
<glyph unicode="&#xd1;" horiz-adv-x="1525" d="M182 0v1526l1028 -1225v1163h133v-1507l-1028 1227v-1184h-133zM473 1672q43 178 199 178q35 0 59 -8l78 -27q35 -10 61 -10q68 0 97 67h88q-25 -92 -76 -138t-123 -46q-18 0 -33.5 3t-31.5 7l-80 27q-25 8 -58 8q-61 0 -92 -61h-88z" />
<glyph unicode="&#xd2;" horiz-adv-x="1792" d="M113 729q0 158 58 297t171 250q225 221 553 221q162 0 303 -55.5t252 -165.5q113 -111 171 -251t58 -296t-59 -295t-170 -248q-113 -111 -254 -168t-301 -57t-301 57.5t-252 167.5q-111 111 -170 250t-59 293zM254 729q0 -135 50 -254t136 -206t203 -138t252 -51t252 51 t204 138t137 206t50 254t-50 254t-137 207t-205 139t-251 51t-250 -50t-204 -138t-137 -207t-50 -256zM653 1958h164l213 -350h-94z" />
<glyph unicode="&#xd3;" horiz-adv-x="1792" d="M113 729q0 158 58 297t171 250q225 221 553 221q162 0 303 -55.5t252 -165.5q113 -111 171 -251t58 -296t-59 -295t-170 -248q-113 -111 -254 -168t-301 -57t-301 57.5t-252 167.5q-111 111 -170 250t-59 293zM254 729q0 -135 50 -254t136 -206t203 -138t252 -51t252 51 t204 138t137 206t50 254t-50 254t-137 207t-205 139t-251 51t-250 -50t-204 -138t-137 -207t-50 -256zM764 1608l213 350h164l-283 -350h-94z" />
<glyph unicode="&#xd4;" horiz-adv-x="1792" d="M113 729q0 158 58 297t171 250q225 221 553 221q162 0 303 -55.5t252 -165.5q113 -111 171 -251t58 -296t-59 -295t-170 -248q-113 -111 -254 -168t-301 -57t-301 57.5t-252 167.5q-111 111 -170 250t-59 293zM254 729q0 -135 50 -254t136 -206t203 -138t252 -51t252 51 t204 138t137 206t50 254t-50 254t-137 207t-205 139t-251 51t-250 -50t-204 -138t-137 -207t-50 -256zM610 1608l213 350h146l213 -350h-92l-193 250l-195 -250h-92z" />
<glyph unicode="&#xd5;" horiz-adv-x="1792" d="M113 729q0 158 58 297t171 250q225 221 553 221q162 0 303 -55.5t252 -165.5q113 -111 171 -251t58 -296t-59 -295t-170 -248q-113 -111 -254 -168t-301 -57t-301 57.5t-252 167.5q-111 111 -170 250t-59 293zM254 729q0 -135 50 -254t136 -206t203 -138t252 -51t252 51 t204 138t137 206t50 254t-50 254t-137 207t-205 139t-251 51t-250 -50t-204 -138t-137 -207t-50 -256zM606 1672q43 178 199 178q35 0 59 -8l78 -27q35 -10 61 -10q68 0 97 67h88q-25 -92 -76 -138t-123 -46q-18 0 -33.5 3t-31.5 7l-80 27q-25 8 -58 8q-61 0 -92 -61h-88z " />
<glyph unicode="&#xd6;" horiz-adv-x="1792" d="M113 729q0 158 58 297t171 250q225 221 553 221q162 0 303 -55.5t252 -165.5q113 -111 171 -251t58 -296t-59 -295t-170 -248q-113 -111 -254 -168t-301 -57t-301 57.5t-252 167.5q-111 111 -170 250t-59 293zM254 729q0 -135 50 -254t136 -206t203 -138t252 -51t252 51 t204 138t137 206t50 254t-50 254t-137 207t-205 139t-251 51t-250 -50t-204 -138t-137 -207t-50 -256zM625 1766q0 39 28.5 68.5t67.5 29.5q41 0 69.5 -29.5t28.5 -68.5q0 -41 -28.5 -68.5t-69.5 -27.5t-68.5 27.5t-27.5 68.5zM975 1766q0 39 29.5 68.5t68.5 29.5 q41 0 68.5 -29.5t27.5 -68.5q0 -41 -27.5 -68.5t-68.5 -27.5t-69.5 27.5t-28.5 68.5z" />
<glyph unicode="&#xd7;" horiz-adv-x="1705" d="M309 123l488 487l-488 488l58 57l487 -487l487 487l58 -57l-488 -488l488 -487l-58 -57l-487 487l-487 -487z" />
<glyph unicode="&#xd8;" horiz-adv-x="1792" d="M113 731q0 156 58 294t171 249q111 109 252 167t301 58q309 0 514 -186l184 192l70 -67l-186 -191q98 -104 150 -239.5t52 -276.5q0 -176 -73.5 -328.5t-212.5 -263.5q-213 -172 -508 -172q-141 0 -259 41t-229 131l-178 -184l-65 70l176 180q-104 98 -160.5 235.5 t-56.5 290.5zM256 731q0 -125 40 -226.5t126 -207.5l897 924q-180 160 -424 159q-133 0 -250 -50t-203 -138t-136 -207t-50 -254zM489 233q98 -78 194.5 -113.5t211.5 -35.5q133 0 250 50t205 137t138 206t50 254q0 119 -38 218.5t-116 203.5z" />
<glyph unicode="&#xd9;" horiz-adv-x="1417" d="M176 551v913h133v-956q0 -217 97.5 -322.5t302.5 -105.5t302 105.5t97 322.5v956h133v-913q0 -590 -532 -590t-533 590zM465 1958h164l213 -350h-94z" />
<glyph unicode="&#xda;" horiz-adv-x="1417" d="M176 551v913h133v-956q0 -217 97.5 -322.5t302.5 -105.5t302 105.5t97 322.5v956h133v-913q0 -590 -532 -590t-533 590zM576 1608l213 350h164l-283 -350h-94z" />
<glyph unicode="&#xdb;" horiz-adv-x="1417" d="M176 551v913h133v-956q0 -217 97.5 -322.5t302.5 -105.5t302 105.5t97 322.5v956h133v-913q0 -590 -532 -590t-533 590zM422 1608l213 350h146l213 -350h-92l-193 250l-195 -250h-92z" />
<glyph unicode="&#xdc;" horiz-adv-x="1417" d="M176 551v913h133v-956q0 -217 97.5 -322.5t302.5 -105.5t302 105.5t97 322.5v956h133v-913q0 -590 -532 -590t-533 590zM437 1766q0 39 28.5 68.5t67.5 29.5q41 0 69.5 -29.5t28.5 -68.5q0 -41 -28.5 -68.5t-69.5 -27.5t-68.5 27.5t-27.5 68.5zM787 1766q0 39 29.5 68.5 t68.5 29.5q41 0 68.5 -29.5t27.5 -68.5q0 -41 -27.5 -68.5t-68.5 -27.5t-69.5 27.5t-28.5 68.5z" />
<glyph unicode="&#xdd;" horiz-adv-x="1118" d="M10 1464h160l393 -671l395 671h152l-481 -790v-674h-133v674zM426 1608l213 350h164l-283 -350h-94z" />
<glyph unicode="&#xde;" d="M182 0v1464h133v-299h134q111 0 198.5 -11t163.5 -64q68 -49 106.5 -134.5t38.5 -193.5q0 -217 -121.5 -311.5t-365.5 -94.5h-154v-356h-133zM315 473h91q98 0 173.5 8t128 37t80 84t27.5 148q0 78 -25.5 139t-72.5 100q-49 41 -125 49.5t-186 8.5h-91v-574z" />
<glyph unicode="&#xdf;" horiz-adv-x="1058" d="M33 782v105h121v297q0 193 95 290t261 97t262 -103.5t96 -285.5q0 -233 -217 -318q152 -16 231 -125.5t79 -306.5q0 -109 -30 -197t-85 -150t-134 -96t-177 -34q-59 0 -123 25v131q33 -16 64.5 -23.5t66.5 -7.5q135 0 211.5 91t76.5 263q0 178 -82.5 272.5t-240.5 94.5 q-10 0 -28.5 -1t-45.5 -3v125q12 -2 24.5 -2h24.5q131 0 194.5 65.5t63.5 204.5q0 131 -60 199.5t-181 68.5q-61 0 -109.5 -25.5t-77.5 -72.5q-25 -43 -31 -101.5t-6 -136.5v-1122h-122v782h-121z" />
<glyph unicode="&#xe0;" horiz-adv-x="1107" d="M84 438q0 106 30.5 195.5t86 153t130.5 98.5t165 35q113 0 194.5 -48.5t128.5 -146.5v162h123v-887h-123v162q-43 -98 -123 -149.5t-188 -51.5q-96 0 -174 34t-133.5 97.5t-86 150.5t-30.5 195zM221 434q0 -174 78 -266t221 -92q135 0 218 97t83 284q0 166 -82 258 t-217 92t-218 -97.5t-83 -275.5zM311 1380h164l213 -350h-94z" />
<glyph unicode="&#xe1;" horiz-adv-x="1107" d="M84 438q0 106 30.5 195.5t86 153t130.5 98.5t165 35q113 0 194.5 -48.5t128.5 -146.5v162h123v-887h-123v162q-43 -98 -123 -149.5t-188 -51.5q-96 0 -174 34t-133.5 97.5t-86 150.5t-30.5 195zM221 434q0 -174 78 -266t221 -92q135 0 218 97t83 284q0 166 -82 258 t-217 92t-218 -97.5t-83 -275.5zM422 1030l213 350h164l-283 -350h-94z" />
<glyph unicode="&#xe2;" horiz-adv-x="1107" d="M84 438q0 106 30.5 195.5t86 153t130.5 98.5t165 35q113 0 194.5 -48.5t128.5 -146.5v162h123v-887h-123v162q-43 -98 -123 -149.5t-188 -51.5q-96 0 -174 34t-133.5 97.5t-86 150.5t-30.5 195zM221 434q0 -174 78 -266t221 -92q135 0 218 97t83 284q0 166 -82 258 t-217 92t-218 -97.5t-83 -275.5zM268 1030l213 350h146l213 -350h-92l-193 250l-195 -250h-92z" />
<glyph unicode="&#xe3;" horiz-adv-x="1107" d="M84 438q0 106 30.5 195.5t86 153t130.5 98.5t165 35q113 0 194.5 -48.5t128.5 -146.5v162h123v-887h-123v162q-43 -98 -123 -149.5t-188 -51.5q-96 0 -174 34t-133.5 97.5t-86 150.5t-30.5 195zM221 434q0 -174 78 -266t221 -92q135 0 218 97t83 284q0 166 -82 258 t-217 92t-218 -97.5t-83 -275.5zM264 1094q43 178 199 178q35 0 59 -8l78 -27q35 -10 61 -10q68 0 97 67h88q-25 -92 -76 -138t-123 -46q-18 0 -33.5 3t-31.5 7l-80 27q-25 8 -58 8q-61 0 -92 -61h-88z" />
<glyph unicode="&#xe4;" horiz-adv-x="1107" d="M84 438q0 106 30.5 195.5t86 153t130.5 98.5t165 35q113 0 194.5 -48.5t128.5 -146.5v162h123v-887h-123v162q-43 -98 -123 -149.5t-188 -51.5q-96 0 -174 34t-133.5 97.5t-86 150.5t-30.5 195zM221 434q0 -174 78 -266t221 -92q135 0 218 97t83 284q0 166 -82 258 t-217 92t-218 -97.5t-83 -275.5zM283 1188q0 39 28.5 68.5t67.5 29.5q41 0 69.5 -29.5t28.5 -68.5q0 -41 -28.5 -68.5t-69.5 -27.5t-68.5 27.5t-27.5 68.5zM633 1188q0 39 29.5 68.5t68.5 29.5q41 0 68.5 -29.5t27.5 -68.5q0 -41 -27.5 -68.5t-68.5 -27.5t-69.5 27.5 t-28.5 68.5z" />
<glyph unicode="&#xe5;" horiz-adv-x="1107" d="M84 438q0 106 30.5 195.5t86 153t130.5 98.5t165 35q113 0 194.5 -48.5t128.5 -146.5v162h123v-887h-123v162q-43 -98 -123 -149.5t-188 -51.5q-96 0 -174 34t-133.5 97.5t-86 150.5t-30.5 195zM221 434q0 -174 78 -266t221 -92q135 0 218 97t83 284q0 166 -82 258 t-217 92t-218 -97.5t-83 -275.5zM291 1221q0 49 18.5 92t50 74.5t74.5 50t92 18.5t92.5 -18.5t75 -50t50 -74.5t18.5 -92t-18.5 -92.5t-50 -75t-75 -50t-92.5 -18.5t-91 18.5t-74.5 50t-51 75t-18.5 92.5zM393 1221q0 -55 39 -94.5t94 -39.5t94 39t39 95q0 57 -38.5 96 t-94.5 39q-55 0 -94 -40t-39 -95z" />
<glyph unicode="&#xe6;" horiz-adv-x="1624" d="M72 246q0 63 24.5 118.5t71.5 95.5t114.5 63.5t151.5 23.5q168 0 277 -92q2 23 3 40t1 29q0 289 -277 289q-80 0 -152.5 -19.5t-148.5 -58.5l2 131q156 55 310 56q137 0 228 -51.5t114 -137.5q47 88 133 136.5t196 48.5q92 0 169 -32t131.5 -90.5t84 -143.5t29.5 -189 v-25h-705q6 -174 86 -269t209 -95q205 0 299 211l117 -62q-72 -135 -171 -199.5t-243 -64.5q-125 0 -212 53.5t-150 167.5q-35 -104 -128 -162.5t-228 -58.5q-158 0 -247 81t-89 206zM207 250q0 -86 60.5 -132t172.5 -46q123 0 192.5 58t69.5 140q0 74 -65.5 121t-181.5 47 q-121 0 -184.5 -51t-63.5 -137zM838 543h551q-8 123 -81 190.5t-196 67.5q-53 0 -101 -18.5t-85 -52.5t-59.5 -82t-28.5 -105z" />
<glyph unicode="&#xe7;" horiz-adv-x="933" d="M92 432q0 106 36 196.5t100.5 155t153.5 100.5t198 36q80 0 151.5 -15.5t124.5 -44.5l-2 -135q-127 86 -276 86q-168 0 -264.5 -106.5t-96.5 -280.5q0 -76 25.5 -141.5t74 -113.5t115 -75.5t146.5 -27.5q150 0 290 100l2 -135q-135 -74 -315 -74q-102 0 -187 36 t-146.5 99.5t-95.5 150.5t-34 189zM334 -309q70 -14 126 -23.5t99 -9.5q125 0 125 88q0 90 -137 90h-21.5t-23.5 -2v166h61v-100h15q104 0 158.5 -40t54.5 -112q0 -164 -215 -164q-57 0 -116.5 10.5t-125.5 26.5v70z" />
<glyph unicode="&#xe8;" horiz-adv-x="1017" d="M88 434q0 111 32 201t89 152.5t137 97.5t174 35q90 0 165 -31t128 -89.5t83 -141.5t30 -187v-31h-705q4 -174 87 -271t216 -97q100 0 172 53t123 160l113 -62q-68 -135 -166 -198.5t-242 -63.5q-98 0 -178 35t-137 97.5t-89 149.5t-32 191zM229 545h551 q-8 123 -80.5 189.5t-195.5 66.5q-53 0 -101.5 -18.5t-85 -51.5t-59 -81t-29.5 -105zM268 1380h164l213 -350h-94z" />
<glyph unicode="&#xe9;" horiz-adv-x="1017" d="M88 434q0 111 32 201t89 152.5t137 97.5t174 35q90 0 165 -31t128 -89.5t83 -141.5t30 -187v-31h-705q4 -174 87 -271t216 -97q100 0 172 53t123 160l113 -62q-68 -135 -166 -198.5t-242 -63.5q-98 0 -178 35t-137 97.5t-89 149.5t-32 191zM229 545h551 q-8 123 -80.5 189.5t-195.5 66.5q-53 0 -101.5 -18.5t-85 -51.5t-59 -81t-29.5 -105zM379 1030l213 350h164l-283 -350h-94z" />
<glyph unicode="&#xea;" horiz-adv-x="1017" d="M88 434q0 111 32 201t89 152.5t137 97.5t174 35q90 0 165 -31t128 -89.5t83 -141.5t30 -187v-31h-705q4 -174 87 -271t216 -97q100 0 172 53t123 160l113 -62q-68 -135 -166 -198.5t-242 -63.5q-98 0 -178 35t-137 97.5t-89 149.5t-32 191zM225 1030l213 350h146 l213 -350h-92l-193 250l-195 -250h-92zM229 545h551q-8 123 -80.5 189.5t-195.5 66.5q-53 0 -101.5 -18.5t-85 -51.5t-59 -81t-29.5 -105z" />
<glyph unicode="&#xeb;" horiz-adv-x="1017" d="M88 434q0 111 32 201t89 152.5t137 97.5t174 35q90 0 165 -31t128 -89.5t83 -141.5t30 -187v-31h-705q4 -174 87 -271t216 -97q100 0 172 53t123 160l113 -62q-68 -135 -166 -198.5t-242 -63.5q-98 0 -178 35t-137 97.5t-89 149.5t-32 191zM229 545h551 q-8 123 -80.5 189.5t-195.5 66.5q-53 0 -101.5 -18.5t-85 -51.5t-59 -81t-29.5 -105zM240 1188q0 39 28.5 68.5t67.5 29.5q41 0 69.5 -29.5t28.5 -68.5q0 -41 -28.5 -68.5t-69.5 -27.5t-68.5 27.5t-27.5 68.5zM590 1188q0 39 29.5 68.5t68.5 29.5q41 0 68.5 -29.5 t27.5 -68.5q0 -41 -27.5 -68.5t-68.5 -27.5t-69.5 27.5t-28.5 68.5z" />
<glyph unicode="&#xec;" horiz-adv-x="471" d="M-6 1380h164l213 -350h-94zM174 0v887h123v-887h-123z" />
<glyph unicode="&#xed;" horiz-adv-x="471" d="M105 1030l213 350h164l-283 -350h-94zM174 0v887h123v-887h-123z" />
<glyph unicode="&#xee;" horiz-adv-x="471" d="M-49 1030l213 350h146l213 -350h-92l-193 250l-195 -250h-92zM174 0v887h123v-887h-123z" />
<glyph unicode="&#xef;" horiz-adv-x="471" d="M-34 1188q0 39 28.5 68.5t67.5 29.5q41 0 69.5 -29.5t28.5 -68.5q0 -41 -28.5 -68.5t-69.5 -27.5t-68.5 27.5t-27.5 68.5zM174 0v887h123v-887h-123zM316 1188q0 39 29.5 68.5t68.5 29.5q41 0 68.5 -29.5t27.5 -68.5q0 -41 -27.5 -68.5t-68.5 -27.5t-69.5 27.5 t-28.5 68.5z" />
<glyph unicode="&#xf0;" horiz-adv-x="1138" d="M84 424q0 96 39 180t103.5 147.5t148.5 99.5t174 36q96 0 178 -37t166 -109q-33 123 -114 250t-210 242l-313 -146l-47 82l276 131q-63 49 -123.5 87t-119.5 71l59 90q74 -43 149.5 -91t147.5 -105l342 159l51 -84l-307 -147q369 -365 369 -784q0 -125 -36 -224.5 t-100.5 -168t-153.5 -105.5t-196 -37q-100 0 -188 36t-153.5 98.5t-103.5 147.5t-38 181zM219 428q0 -74 26.5 -138.5t74 -111.5t110.5 -74.5t137 -27.5q72 0 135.5 27.5t110.5 74.5t74.5 111.5t27.5 138.5t-26.5 138.5t-73.5 111.5t-110.5 74.5t-137.5 27.5t-137 -27.5 t-110.5 -74.5t-74 -111.5t-26.5 -138.5z" />
<glyph unicode="&#xf1;" horiz-adv-x="1067" d="M164 0v887h117v-137q109 170 313 170q147 0 233 -82t86 -236v-602h-122v547q0 133 -55.5 197.5t-174.5 64.5q-147 0 -210.5 -86t-63.5 -260v-463h-123zM244 1094q43 178 199 178q35 0 59 -8l78 -27q35 -10 61 -10q68 0 97 67h88q-25 -92 -76 -138t-123 -46q-18 0 -33.5 3 t-31.5 7l-80 27q-25 8 -58 8q-61 0 -92 -61h-88z" />
<glyph unicode="&#xf2;" horiz-adv-x="1142" d="M90 442q0 100 38 187.5t102.5 152t151.5 101.5t185 37q100 0 189.5 -37t155 -101.5t103.5 -151.5t38 -188q0 -100 -39 -188t-104.5 -152.5t-154 -102.5t-188.5 -38q-98 0 -184 37t-151.5 102.5t-103.5 152.5t-38 189zM223 440q0 -78 28 -144.5t75 -115.5t110 -76.5 t135 -27.5t135.5 27.5t110.5 76.5t75 115.5t28 144.5t-28 144.5t-75 116t-110.5 77t-135.5 27.5q-74 0 -137 -27.5t-110.5 -77t-74 -116t-26.5 -144.5zM327 1380h164l213 -350h-94z" />
<glyph unicode="&#xf3;" horiz-adv-x="1142" d="M90 442q0 100 38 187.5t102.5 152t151.5 101.5t185 37q100 0 189.5 -37t155 -101.5t103.5 -151.5t38 -188q0 -100 -39 -188t-104.5 -152.5t-154 -102.5t-188.5 -38q-98 0 -184 37t-151.5 102.5t-103.5 152.5t-38 189zM223 440q0 -78 28 -144.5t75 -115.5t110 -76.5 t135 -27.5t135.5 27.5t110.5 76.5t75 115.5t28 144.5t-28 144.5t-75 116t-110.5 77t-135.5 27.5q-74 0 -137 -27.5t-110.5 -77t-74 -116t-26.5 -144.5zM438 1030l213 350h164l-283 -350h-94z" />
<glyph unicode="&#xf4;" horiz-adv-x="1142" d="M90 442q0 100 38 187.5t102.5 152t151.5 101.5t185 37q100 0 189.5 -37t155 -101.5t103.5 -151.5t38 -188q0 -100 -39 -188t-104.5 -152.5t-154 -102.5t-188.5 -38q-98 0 -184 37t-151.5 102.5t-103.5 152.5t-38 189zM223 440q0 -78 28 -144.5t75 -115.5t110 -76.5 t135 -27.5t135.5 27.5t110.5 76.5t75 115.5t28 144.5t-28 144.5t-75 116t-110.5 77t-135.5 27.5q-74 0 -137 -27.5t-110.5 -77t-74 -116t-26.5 -144.5zM284 1030l213 350h146l213 -350h-92l-193 250l-195 -250h-92z" />
<glyph unicode="&#xf5;" horiz-adv-x="1142" d="M90 442q0 100 38 187.5t102.5 152t151.5 101.5t185 37q100 0 189.5 -37t155 -101.5t103.5 -151.5t38 -188q0 -100 -39 -188t-104.5 -152.5t-154 -102.5t-188.5 -38q-98 0 -184 37t-151.5 102.5t-103.5 152.5t-38 189zM223 440q0 -78 28 -144.5t75 -115.5t110 -76.5 t135 -27.5t135.5 27.5t110.5 76.5t75 115.5t28 144.5t-28 144.5t-75 116t-110.5 77t-135.5 27.5q-74 0 -137 -27.5t-110.5 -77t-74 -116t-26.5 -144.5zM280 1094q43 178 199 178q35 0 59 -8l78 -27q35 -10 61 -10q68 0 97 67h88q-25 -92 -76 -138t-123 -46q-18 0 -33.5 3 t-31.5 7l-80 27q-25 8 -58 8q-61 0 -92 -61h-88z" />
<glyph unicode="&#xf6;" horiz-adv-x="1142" d="M90 442q0 100 38 187.5t102.5 152t151.5 101.5t185 37q100 0 189.5 -37t155 -101.5t103.5 -151.5t38 -188q0 -100 -39 -188t-104.5 -152.5t-154 -102.5t-188.5 -38q-98 0 -184 37t-151.5 102.5t-103.5 152.5t-38 189zM223 440q0 -78 28 -144.5t75 -115.5t110 -76.5 t135 -27.5t135.5 27.5t110.5 76.5t75 115.5t28 144.5t-28 144.5t-75 116t-110.5 77t-135.5 27.5q-74 0 -137 -27.5t-110.5 -77t-74 -116t-26.5 -144.5zM299 1188q0 39 28.5 68.5t67.5 29.5q41 0 69.5 -29.5t28.5 -68.5q0 -41 -28.5 -68.5t-69.5 -27.5t-68.5 27.5t-27.5 68.5 zM649 1188q0 39 29.5 68.5t68.5 29.5q41 0 68.5 -29.5t27.5 -68.5q0 -41 -27.5 -68.5t-68.5 -27.5t-69.5 27.5t-28.5 68.5z" />
<glyph unicode="&#xf7;" horiz-adv-x="1705" d="M254 571v80h1198v-80h-1198zM756 266q0 41 28.5 71t69.5 30t69.5 -30t28.5 -71t-28.5 -69.5t-69.5 -28.5t-69.5 27.5t-28.5 70.5zM756 956q0 41 28.5 70t69.5 29t69.5 -29t28.5 -70t-28.5 -70.5t-69.5 -29.5t-69.5 29.5t-28.5 70.5z" />
<glyph unicode="&#xf8;" horiz-adv-x="1142" d="M88 432q0 100 37 189.5t101.5 156t153.5 104.5t195 38q86 0 158 -27t144 -84l110 113l62 -58l-113 -110q59 -76 88 -150t29 -160q0 -106 -39 -194t-105.5 -152.5t-156.5 -100.5t-193 -36q-86 0 -154.5 26.5t-140.5 86.5l-117 -115l-55 59l111 113q-59 72 -87 143.5 t-28 157.5zM223 434q0 -59 17.5 -109.5t52.5 -103.5l500 502q-90 82 -211 82q-78 0 -144.5 -26.5t-114 -76t-74 -118t-26.5 -150.5zM346 160q53 -41 104.5 -61.5t112.5 -20.5q76 0 140.5 27.5t112.5 75.5t75 116t27 147q0 59 -16.5 111.5t-51.5 108.5z" />
<glyph unicode="&#xf9;" horiz-adv-x="1079" d="M164 381v506h123v-443q0 -186 52 -277t200 -91q147 0 200.5 91t53.5 277v443h122v-506q0 -211 -94 -315.5t-280 -104.5q-184 0 -280.5 104.5t-96.5 315.5zM297 1380h164l213 -350h-94z" />
<glyph unicode="&#xfa;" horiz-adv-x="1079" d="M164 381v506h123v-443q0 -186 52 -277t200 -91q147 0 200.5 91t53.5 277v443h122v-506q0 -211 -94 -315.5t-280 -104.5q-184 0 -280.5 104.5t-96.5 315.5zM408 1030l213 350h164l-283 -350h-94z" />
<glyph unicode="&#xfb;" horiz-adv-x="1079" d="M164 381v506h123v-443q0 -186 52 -277t200 -91q147 0 200.5 91t53.5 277v443h122v-506q0 -211 -94 -315.5t-280 -104.5q-184 0 -280.5 104.5t-96.5 315.5zM254 1030l213 350h146l213 -350h-92l-193 250l-195 -250h-92z" />
<glyph unicode="&#xfc;" horiz-adv-x="1079" d="M164 381v506h123v-443q0 -186 52 -277t200 -91q147 0 200.5 91t53.5 277v443h122v-506q0 -211 -94 -315.5t-280 -104.5q-184 0 -280.5 104.5t-96.5 315.5zM269 1188q0 39 28.5 68.5t67.5 29.5q41 0 69.5 -29.5t28.5 -68.5q0 -41 -28.5 -68.5t-69.5 -27.5t-68.5 27.5 t-27.5 68.5zM619 1188q0 39 29.5 68.5t68.5 29.5q41 0 68.5 -29.5t27.5 -68.5q0 -41 -27.5 -68.5t-68.5 -27.5t-69.5 27.5t-28.5 68.5z" />
<glyph unicode="&#xfd;" horiz-adv-x="825" d="M43 887h131l254 -694l234 694h131l-459 -1333h-127l155 452zM283 1030l213 350h164l-283 -350h-94z" />
<glyph unicode="&#xfe;" horiz-adv-x="1107" d="M164 -446v1996h119v-829q41 92 126 145.5t191 53.5q94 0 171 -34t131 -97.5t84 -151.5t30 -197q0 -115 -31 -204t-85 -150t-129 -93t-165 -32q-109 0 -190.5 51t-132.5 152v-610h-119zM285 449q0 -90 24.5 -160t66.5 -117t99 -71.5t125 -24.5q131 0 207 94t76 268 t-78 271.5t-217 97.5q-137 0 -220 -92t-83 -266z" />
<glyph unicode="&#xff;" horiz-adv-x="825" d="M43 887h131l254 -694l234 694h131l-459 -1333h-127l155 452zM144 1188q0 39 28.5 68.5t67.5 29.5q41 0 69.5 -29.5t28.5 -68.5q0 -41 -28.5 -68.5t-69.5 -27.5t-68.5 27.5t-27.5 68.5zM494 1188q0 39 29.5 68.5t68.5 29.5q41 0 68.5 -29.5t27.5 -68.5q0 -41 -27.5 -68.5 t-68.5 -27.5t-69.5 27.5t-28.5 68.5z" />
<glyph unicode="&#x152;" horiz-adv-x="2320" d="M113 733q0 158 56 295t163 246q109 111 248 168t299 57q399 0 604 -338v303h698v-125h-575v-458h575v-125h-575v-631h575v-125h-698v311q-96 -166 -257 -256t-360 -90q-127 0 -243.5 41t-216.5 119q-141 111 -217 267.5t-76 340.5zM242 731q0 -129 46 -245.5t138 -213.5 q86 -92 199.5 -139t236.5 -47q131 0 245 49t195.5 136t129 205t47.5 255q0 143 -47.5 262t-129 205t-195.5 133t-245 47q-104 0 -199.5 -33.5t-177.5 -99.5q-117 -92 -180 -226t-63 -288z" />
<glyph unicode="&#x153;" horiz-adv-x="1841" d="M92 442q0 100 38 187.5t102.5 152t149.5 101.5t181 37q291 0 412 -232q39 109 137 171.5t227 62.5q92 0 167 -32t129.5 -91.5t84 -143.5t29.5 -188v-25h-705v-6q0 -82 23 -148.5t61.5 -113.5t92 -72.5t116.5 -25.5q205 0 301 213l117 -64q-72 -135 -170 -199.5 t-233 -64.5q-137 0 -239.5 66.5t-137.5 171.5q-55 -113 -162.5 -174.5t-243.5 -61.5q-102 0 -189 38t-151.5 102.5t-100.5 151.5t-36 187zM225 440q0 -78 28 -144.5t75 -115.5t110 -76.5t135 -27.5t135.5 27.5t110.5 76.5t75 115.5t28 144.5t-28 144.5t-75 116t-110.5 78 t-135.5 28.5q-74 0 -137 -28.5t-110 -78t-74 -116t-27 -144.5zM1053 545h551q-8 123 -81 190.5t-196 67.5q-53 0 -101 -18.5t-85 -52.5t-60.5 -82t-27.5 -105z" />
<glyph unicode="&#x178;" horiz-adv-x="1118" d="M10 1464h160l393 -671l395 671h152l-481 -790v-674h-133v674zM287 1766q0 39 28.5 68.5t67.5 29.5q41 0 69.5 -29.5t28.5 -68.5q0 -41 -28.5 -68.5t-69.5 -27.5t-68.5 27.5t-27.5 68.5zM637 1766q0 39 29.5 68.5t68.5 29.5q41 0 68.5 -29.5t27.5 -68.5q0 -41 -27.5 -68.5 t-68.5 -27.5t-69.5 27.5t-28.5 68.5z" />
<glyph unicode="&#x2c6;" d="M225 1030l213 350h146l213 -350h-92l-193 250l-195 -250h-92z" />
<glyph unicode="&#x2dc;" d="M221 1094q43 178 199 178q35 0 59 -8l78 -27q35 -10 61 -10q68 0 97 67h88q-25 -92 -76 -138t-123 -46q-18 0 -33.5 3t-31.5 7l-80 27q-25 8 -58 8q-61 0 -92 -61h-88z" />
<glyph unicode="&#x2000;" horiz-adv-x="986" />
<glyph unicode="&#x2001;" horiz-adv-x="1972" />
<glyph unicode="&#x2002;" horiz-adv-x="986" />
<glyph unicode="&#x2003;" horiz-adv-x="1972" />
<glyph unicode="&#x2004;" horiz-adv-x="657" />
<glyph unicode="&#x2005;" horiz-adv-x="493" />
<glyph unicode="&#x2006;" horiz-adv-x="328" />
<glyph unicode="&#x2007;" horiz-adv-x="328" />
<glyph unicode="&#x2008;" horiz-adv-x="246" />
<glyph unicode="&#x2009;" horiz-adv-x="394" />
<glyph unicode="&#x200a;" horiz-adv-x="109" />
<glyph unicode="&#x2010;" horiz-adv-x="710" d="M137 377v129h436v-129h-436z" />
<glyph unicode="&#x2011;" horiz-adv-x="710" d="M137 377v129h436v-129h-436z" />
<glyph unicode="&#x2012;" horiz-adv-x="710" d="M137 377v129h436v-129h-436z" />
<glyph unicode="&#x2013;" d="M0 401v80h1024v-80h-1024z" />
<glyph unicode="&#x2014;" horiz-adv-x="2048" d="M0 401v80h2048v-80h-2048z" />
<glyph unicode="&#x2018;" horiz-adv-x="589" d="M123 993l262 504l82 -31l-195 -540z" />
<glyph unicode="&#x2019;" horiz-adv-x="589" d="M123 958l194 539l150 -65l-262 -506z" />
<glyph unicode="&#x201a;" horiz-adv-x="589" d="M121 -283l203 537l145 -61l-264 -515z" />
<glyph unicode="&#x201c;" horiz-adv-x="876" d="M106 993l261 504l82 -31l-195 -540zM428 993l262 504l82 -31l-194 -540z" />
<glyph unicode="&#x201d;" horiz-adv-x="876" d="M106 958l193 539l150 -65l-263 -506zM428 958l195 539l149 -65l-262 -506z" />
<glyph unicode="&#x201e;" horiz-adv-x="876" d="M106 -287l193 541l150 -68l-263 -505zM428 -287l195 541l149 -68l-262 -505z" />
<glyph unicode="&#x2022;" horiz-adv-x="1208" d="M307 762q0 61 23.5 114.5t63.5 93.5t94.5 63.5t115.5 23.5t114.5 -23.5t93.5 -63.5t63.5 -93.5t23.5 -114.5t-23.5 -114.5t-63.5 -94.5t-94 -64.5t-116 -23.5q-61 0 -115.5 23.5t-94.5 63.5t-62.5 94.5t-22.5 115.5z" />
<glyph unicode="&#x2026;" horiz-adv-x="2048" d="M240 84q0 43 29.5 72.5t72.5 29.5t72.5 -28.5t29.5 -73.5t-29.5 -73.5t-72.5 -28.5t-72.5 29.5t-29.5 72.5zM922 84q0 43 29.5 72.5t72.5 29.5t72.5 -28.5t29.5 -73.5t-29.5 -73.5t-72.5 -28.5t-72.5 29.5t-29.5 72.5zM1606 84q0 43 29.5 72.5t72.5 29.5t72.5 -28.5 t29.5 -73.5t-29.5 -73.5t-72.5 -28.5t-72.5 29.5t-29.5 72.5z" />
<glyph unicode="&#x202f;" horiz-adv-x="394" />
<glyph unicode="&#x2039;" horiz-adv-x="421" d="M43 436l244 395l86 -51l-209 -346l215 -332l-84 -51z" />
<glyph unicode="&#x203a;" horiz-adv-x="421" d="M43 102l215 332l-211 346l88 51l244 -395l-254 -385z" />
<glyph unicode="&#x205f;" horiz-adv-x="493" />
<glyph unicode="&#x2122;" horiz-adv-x="1705" d="M274 1403v51h420v-51h-174v-479h-67v479h-179zM825 924v530h101l174 -440l162 440h102v-530h-59v479l-181 -479h-49l-190 479v-479h-60z" />
<glyph unicode="&#x25fc;" horiz-adv-x="890" d="M0 0v891h891v-891h-891z" />
<glyph unicode="&#xfb01;" horiz-adv-x="966" d="M27 782v105h166v256q0 106 6 186t29.5 133.5t69.5 80t128 26.5q59 0 119 -21l-23 -108q-49 25 -88 24q-74 0 -96.5 -59t-22.5 -182v-336h195v-105h-195v-782h-122v782h-166zM637 1233q0 41 28.5 67.5t65.5 26.5q39 0 66.5 -26.5t27.5 -67.5q0 -39 -26.5 -66.5 t-67.5 -27.5t-67.5 27.5t-26.5 66.5zM670 0v887h123v-887h-123z" />
<glyph unicode="&#xfb02;" horiz-adv-x="976" d="M27 782v105h166v256q0 106 6 186t29.5 133.5t69.5 80t128 26.5q59 0 119 -21l-23 -108q-49 25 -88 24q-74 0 -96.5 -59t-22.5 -182v-336h195v-105h-195v-782h-122v782h-166zM680 0v1550h123v-1550h-123z" />
</font>
</defs>
</svg>
