<?xml version="1.0" standalone="no"?>
<!DOCTYPE svg PUBLIC "-//W3C//DTD SVG 1.1//EN" "http://www.w3.org/Graphics/SVG/1.1/DTD/svg11.dtd" >
<svg xmlns="http://www.w3.org/2000/svg" xmlns:xlink="http://www.w3.org/1999/xlink" version="1.1">
<metadata></metadata>
<defs>
<font id="futuraregular" horiz-adv-x="1204" >
<font-face units-per-em="2048" ascent="1571" descent="-477" />
<missing-glyph horiz-adv-x="618" />
<glyph horiz-adv-x="0" />
<glyph unicode="&#xd;" horiz-adv-x="618" />
<glyph unicode=" "  horiz-adv-x="618" />
<glyph unicode="&#x09;" horiz-adv-x="618" />
<glyph unicode="&#xa0;" horiz-adv-x="618" />
<glyph unicode="!" horiz-adv-x="673" d="M205 92q0 53 39 92t92 39q55 0 93 -38t38 -93q0 -53 -38 -92t-93 -39t-93 39t-38 92zM223 336v1161h228v-1161h-228z" />
<glyph unicode="&#x22;" horiz-adv-x="643" d="M86 879v557h164v-557h-164zM395 879v557h164v-557h-164z" />
<glyph unicode="#" horiz-adv-x="1574" d="M70 428l61 172h297l90 252h-315l61 172h316l155 436h191l-154 -436h250l156 436h190l-154 -436h291l-59 -172h-293l-90 -252h309l-61 -172h-307l-156 -434h-191l156 434h-252l-158 -434h-190l156 434h-299zM618 598h256l91 254h-256z" />
<glyph unicode="$" horiz-adv-x="1236" d="M137 317l189 84q49 -172 241 -192v457q-199 82 -295 181t-96 240q0 158 102.5 261.5t288.5 126.5v112h105v-114q289 -25 366 -232l-184 -92q-66 104 -182 125v-402q106 -49 184 -95t129 -97t75.5 -110.5t24.5 -139.5q0 -180 -106.5 -291.5t-306.5 -136.5v-170h-105v166 q-358 25 -430 319zM428 1102q0 -63 34 -108.5t105 -84.5v359q-72 -23 -105.5 -62t-33.5 -104zM672 215q168 43 168 201q0 68 -41 117t-127 90v-408z" />
<glyph unicode="%" horiz-adv-x="1622" d="M57 1094q0 184 87 284.5t241 100.5t240 -99.5t86 -285.5q0 -184 -86 -284.5t-240 -100.5t-241 99.5t-87 285.5zM238 1092q0 -131 37.5 -199t107.5 -68q147 0 147 269q0 131 -36.5 199.5t-106.5 68.5q-150 0 -149 -270zM317 -39l854 1518h138l-854 -1518h-138zM913 348 q0 184 87 284.5t241 100.5t240 -99t86 -286q0 -184 -87 -285.5t-241 -101.5t-240 101.5t-86 285.5zM1092 346q0 -131 37.5 -198.5t107.5 -67.5q150 0 149 268q0 131 -37.5 198.5t-107.5 67.5q-150 0 -149 -268z" />
<glyph unicode="&#x26;" horiz-adv-x="1374" d="M61 383q0 131 81 235.5t245 206.5l-59 64q-100 111 -101 244q0 70 28 130t77 105t118.5 69.5t153.5 24.5q170 0 264.5 -85t94.5 -224q0 -113 -71 -200t-214 -171l305 -354q49 49 95 106.5t93 122.5l140 -149q-41 -66 -90.5 -123t-104.5 -106l246 -279h-275l-118 139 q-104 -90 -213 -132t-240 -42q-102 0 -186 32t-143.5 87t-92.5 132t-33 167zM289 389q0 -47 17.5 -89t49 -73.5t75.5 -50t95 -18.5q150 0 308 137l-320 369l-37 -25q-90 -59 -139 -115.5t-49 -134.5zM451 1137q0 -61 47 -115l73 -88l54 31q113 68 112 174q0 63 -39 102 t-98 39q-68 0 -108.5 -40t-40.5 -103z" />
<glyph unicode="'" horiz-adv-x="333" d="M86 879v557h164v-557h-164z" />
<glyph unicode="(" horiz-adv-x="620" d="M168 539q0 287 57.5 531.5t180.5 461.5l163 -49q-111 -219 -161 -449.5t-50 -492.5q0 -272 49.5 -500.5t161.5 -433.5l-163 -53q-238 440 -238 985z" />
<glyph unicode=")" horiz-adv-x="620" d="M45 -393q113 205 162 433t49 501q0 262 -50 492.5t-161 449.5l162 49q123 -217 180 -462t57 -531q0 -545 -237 -985z" />
<glyph unicode="*" horiz-adv-x="901" d="M106 989l226 115l-226 133l72 123l211 -135l-12 239h145l-14 -241l215 137l72 -123l-232 -127l232 -121l-76 -121l-211 140l14 -246h-145l10 244l-209 -138z" />
<glyph unicode="+" horiz-adv-x="1705" d="M254 528v166h514v527h170v-527h514v-166h-514v-528h-170v528h-514z" />
<glyph unicode="," horiz-adv-x="618" d="M115 -309l194 557l195 -72l-260 -536z" />
<glyph unicode="-" horiz-adv-x="829" d="M147 371v200h535v-200h-535z" />
<glyph unicode="." horiz-adv-x="618" d="M178 111q0 55 38 94t93 39t93 -39t38 -94q0 -53 -37.5 -91t-93.5 -38q-55 0 -93 38t-38 91z" />
<glyph unicode="/" horiz-adv-x="886" d="M0 -190l717 1687h170l-717 -1687h-170z" />
<glyph unicode="0" horiz-adv-x="1236" d="M92 721q0 365 140.5 561.5t388.5 196.5q250 0 387 -196.5t137 -577.5q0 -176 -37 -314.5t-105.5 -234t-166 -145.5t-218.5 -50q-248 0 -387 195.5t-139 564.5zM330 719q0 -272 74.5 -412.5t209.5 -140.5q293 0 293 557q0 274 -72.5 413.5t-211.5 139.5q-293 0 -293 -557z " />
<glyph unicode="1" horiz-adv-x="1236" d="M238 1262l92 188h428v-1450h-217v1262h-303z" />
<glyph unicode="2" horiz-adv-x="1236" d="M43 0l547 655q98 117 147 211.5t49 173.5q0 109 -63.5 171.5t-177.5 62.5q-100 0 -165 -61.5t-73 -165.5h-229q0 98 33.5 178t97 136t154 87t202.5 31q213 0 335 -108.5t122 -297.5q0 -86 -26.5 -165t-75 -158.5t-116 -163.5t-151.5 -180l-186 -216h557v-190h-981z" />
<glyph unicode="3" horiz-adv-x="1236" d="M94 391h228v-12q0 -100 68.5 -160.5t187.5 -60.5q135 0 206.5 66.5t71.5 191.5q0 264 -297 264q-10 0 -21.5 -1t-23.5 -1v192q10 0 21.5 -1t21.5 -1q262 0 262 215q0 94 -59.5 149.5t-159.5 55.5q-109 0 -168 -51t-63 -145h-215q10 186 125.5 286.5t326.5 100.5 q205 0 320.5 -104.5t115.5 -284.5q0 -135 -65.5 -221.5t-185.5 -104.5q139 -25 211.5 -121t72.5 -258q0 -96 -34.5 -174t-99 -133t-159 -86t-213.5 -31q-104 0 -191 29.5t-148.5 86t-97.5 136.5t-38 178z" />
<glyph unicode="4" horiz-adv-x="1236" d="M27 297l852 1182h67v-1016h178v-166h-178v-297h-217v297h-702zM362 463h367v381q0 10 1 46t5 99z" />
<glyph unicode="5" horiz-adv-x="1236" d="M78 176l158 174q53 -96 131.5 -145t177.5 -49q145 0 235 91t90 245q0 72 -24.5 132t-69.5 103t-108.5 67.5t-139.5 24.5q-188 0 -309 -125l-59 13l182 743h692v-193h-549l-86 -323q117 49 228 49q104 0 191 -35t148.5 -99.5t96.5 -153.5t35 -195q0 -121 -39 -220.5 t-112 -170t-177 -109.5t-235 -39q-152 0 -263.5 52.5t-193.5 162.5z" />
<glyph unicode="6" horiz-adv-x="1236" d="M113 451q0 92 26.5 177t72.5 171t109.5 177t137.5 195l256 363l182 -92l-424 -553q98 47 191 47q96 0 179 -35t143.5 -97.5t94 -149.5t33.5 -191q0 -113 -37 -205t-105.5 -158.5t-163.5 -102.5t-212 -36q-111 0 -200 36t-151.5 100.5t-97 154.5t-34.5 199zM340 449 q0 -135 73.5 -213t188.5 -78q133 0 207 77.5t74 213.5q0 137 -73 214.5t-206 77.5q-117 0 -190.5 -80.5t-73.5 -211.5z" />
<glyph unicode="7" horiz-adv-x="1236" d="M150 1262v188h1009l-737 -1505l-193 86l598 1231h-677z" />
<glyph unicode="8" horiz-adv-x="1236" d="M115 389q0 143 67.5 243.5t192.5 141.5q-109 47 -160 122t-51 191q0 86 31.5 158t90 124t142.5 81t188 29q106 0 190.5 -29t143 -82t90 -127t31.5 -164q0 -221 -211 -303q123 -41 191.5 -141.5t68.5 -239.5q0 -199 -131 -315.5t-373 -116.5t-371.5 117t-129.5 311z M344 410q0 -117 70.5 -185.5t201.5 -68.5t203 68.5t72 185.5q0 121 -73 188.5t-202 67.5t-200.5 -69t-71.5 -187zM397 1083q0 -92 57.5 -144t161.5 -52q109 0 165.5 52t56.5 144q0 94 -56.5 148.5t-160.5 54.5t-164 -55t-60 -148z" />
<glyph unicode="9" horiz-adv-x="1236" d="M104 977q0 113 37 205t105.5 158.5t164 102.5t212.5 36q111 0 199.5 -35t152 -99.5t98.5 -154.5t35 -199q0 -92 -26.5 -177t-72.5 -171t-109.5 -177t-137.5 -196l-258 -362l-180 92l421 551q-92 -45 -190 -45q-96 0 -179 33.5t-143.5 96t-94.5 149.5t-34 192zM336 993 q0 -137 72.5 -216t205.5 -79q57 0 106.5 21.5t84.5 60.5t54.5 93t19.5 120q0 135 -73 213t-188 78q-133 0 -207.5 -78t-74.5 -213z" />
<glyph unicode=":" horiz-adv-x="673" d="M205 111q0 53 39 92t92 39q55 0 93 -38t38 -93q0 -53 -38 -91t-93 -38t-93 38t-38 91zM205 795q0 53 39 91t92 38q55 0 93 -37t38 -92q0 -53 -38 -92t-93 -39t-93 39t-38 92z" />
<glyph unicode=";" horiz-adv-x="673" d="M119 -309l196 557l195 -72l-260 -536zM293 795q0 53 38 91t91 38q55 0 93 -37t38 -92q0 -53 -38 -92t-93 -39t-92 39t-37 92z" />
<glyph unicode="&#x3c;" horiz-adv-x="1705" d="M264 530v160l1178 486v-185l-934 -381l934 -381v-182z" />
<glyph unicode="=" horiz-adv-x="1705" d="M254 322v165h1198v-165h-1198zM254 733v168h1198v-168h-1198z" />
<glyph unicode="&#x3e;" horiz-adv-x="1705" d="M264 47v182l934 381l-934 381v185l1178 -486v-160z" />
<glyph unicode="?" horiz-adv-x="1114" d="M207 1153q0 160 95 253t255 93q166 0 261 -94t95 -250q0 -68 -18 -117t-53 -89t-87.5 -72.5t-121.5 -65.5q-51 -25 -92 -46.5t-70 -43t-44 -47t-15 -60.5q0 -49 37.5 -87t95.5 -38q137 0 141 156h178v-20q0 -147 -83 -228.5t-236 -81.5q-72 0 -132.5 22.5t-103.5 62.5 t-66.5 93.5t-23.5 116.5q0 70 20.5 122t60.5 93t97.5 76t132.5 72q45 20 81 39.5t61.5 41t39 48t13.5 61.5q0 66 -47 110t-121 44q-82 0 -129 -52.5t-47 -148.5h-172q0 10 -1 18.5t-1 18.5zM397 92q0 53 39 92t92 39q55 0 93 -38t38 -93q0 -53 -37.5 -92t-93.5 -39 q-55 0 -93 39t-38 92z" />
<glyph unicode="@" horiz-adv-x="2048" d="M98 522q0 166 52.5 314.5t152.5 271.5q147 180 352 272.5t461 92.5q172 0 318.5 -46.5t251.5 -126.5q264 -203 264 -536q0 -164 -64.5 -302t-185.5 -237q-141 -113 -318 -112q-209 0 -208 166v4q-55 -88 -128 -128t-176 -40q-154 0 -233.5 86t-79.5 250q0 119 38 221 t102.5 177t149.5 117t181 42q90 0 149.5 -35t98.5 -107l55 107h154l-148 -586q-4 -16 -6 -27.5t-2 -21.5q0 -39 26.5 -61.5t69.5 -22.5q47 0 103.5 28.5t109.5 86.5q72 76 110 176t38 217q0 125 -48 229.5t-136.5 180t-213 117.5t-278.5 42q-276 0 -471 -125 q-182 -115 -279.5 -292t-97.5 -394q0 -156 54.5 -282.5t154.5 -216t242.5 -138.5t316.5 -49q168 0 324.5 49t290.5 142l67 -99q-301 -227 -674 -227q-387 0 -632 190q-307 233 -308 633zM741 444q0 -100 45 -152t129 -52q88 0 162 64.5t101 174.5l55 228q-14 86 -61.5 131 t-122.5 45q-63 0 -119 -34t-97.5 -93.5t-66.5 -139t-25 -172.5z" />
<glyph unicode="A" horiz-adv-x="1355" d="M-31 0l709 1522l708 -1522h-251l-166 377h-580l-170 -377h-250zM477 575h408l-150 334q-12 29 -25.5 70t-29.5 96q-14 -55 -27.5 -96t-25.5 -70z" />
<glyph unicode="B" horiz-adv-x="1179" d="M168 0v1464h369q117 0 205.5 -11t156.5 -62q68 -49 105.5 -130t37.5 -180q0 -117 -53 -195.5t-158 -109.5q129 -20 202 -116.5t73 -243.5q0 -92 -32 -171t-87 -134q-39 -39 -85 -61.5t-101.5 -33t-121 -13.5t-140.5 -3h-371zM401 199h82q100 0 171 8t114 37t67.5 78 t24.5 108q0 143 -112 203q-41 23 -90.5 28t-102.5 5h-154v-467zM401 846h91q162 0 236.5 44t74.5 159q0 68 -19.5 110.5t-57.5 66t-96.5 32t-137.5 8.5h-91v-420z" />
<glyph unicode="C" horiz-adv-x="1470" d="M104 729q0 162 56.5 302t167.5 249t250 164t305 55q133 0 248.5 -38t224.5 -113l-13 -240q-203 172 -450 172q-121 0 -220.5 -41t-171 -113.5t-110.5 -174t-39 -224.5q0 -121 40 -221t108.5 -172t163 -112t204.5 -40q258 0 473 185v-269q-193 -137 -454 -137 q-170 0 -311.5 55.5t-249.5 161.5q-109 106 -165.5 248.5t-56.5 302.5z" />
<glyph unicode="D" horiz-adv-x="1515" d="M168 0v1464h321q102 0 194.5 -2t174.5 -15t154.5 -41t140.5 -79q127 -98 192.5 -247.5t65.5 -348.5t-65.5 -347t-192.5 -247q-63 -49 -132 -76.5t-142.5 -41t-155.5 -16.5t-170 -3h-385zM406 215h200q121 0 217.5 15.5t173.5 80.5q166 141 166 422t-166 422 q-82 68 -184 82t-235 14h-172v-1036z" />
<glyph unicode="E" horiz-adv-x="1089" d="M168 0v1464h817v-202h-579v-367h579v-209h-579v-473h579v-213h-817z" />
<glyph unicode="F" horiz-adv-x="1075" d="M168 0v1464h817v-202h-579v-365h579v-209h-579v-688h-238z" />
<glyph unicode="G" horiz-adv-x="1644" d="M104 729q0 336 224 553q109 104 251 159.5t308 55.5q342 0 553 -256l-174 -131q-145 170 -375 170q-117 0 -216.5 -39t-171 -111.5t-111.5 -174t-40 -224.5q0 -125 40 -227.5t111.5 -176t171 -113.5t218.5 -40q207 0 322.5 95.5t115.5 258.5v21h-352v201h580q2 -45 3 -79 t1 -59q0 -313 -177.5 -482t-498.5 -169q-356 0 -568 213q-104 106 -159.5 248.5t-55.5 306.5z" />
<glyph unicode="H" horiz-adv-x="1531" d="M168 0v1464h238v-540h720v540h238v-1464h-238v711h-720v-711h-238z" />
<glyph unicode="I" horiz-adv-x="583" d="M172 0v1464h238v-1464h-238z" />
<glyph unicode="J" horiz-adv-x="806" d="M4 113l152 153q35 -41 68.5 -62.5t74.5 -21.5q80 0 103.5 54.5t23.5 162.5v1065h236v-1142q0 -184 -80 -272.5t-258 -88.5q-96 0 -173 37t-147 115z" />
<glyph unicode="K" horiz-adv-x="1269" d="M168 0v1464h238v-606l526 606h291l-580 -651l649 -813h-307l-579 748v-748h-238z" />
<glyph unicode="L" horiz-adv-x="962" d="M168 0v1464h238v-1251h532v-213h-770z" />
<glyph unicode="M" horiz-adv-x="1767" d="M27 0l346 1522l432 -920q10 -20 29.5 -69.5t50.5 -129.5q23 61 45 110.5t39 88.5l422 920l354 -1522h-221l-162 723q-4 20 -10 69.5t-17 131.5q-18 -100 -67 -203l-383 -780l-383 796q-23 45 -40.5 91t-31.5 96q-2 -53 -9 -103.5t-18 -99.5l-157 -721h-219z" />
<glyph unicode="N" horiz-adv-x="1644" d="M168 0v1522l930 -895q45 -43 84 -87t75 -91v1015h220v-1521l-949 911q-78 74 -141 164v-1018h-219z" />
<glyph unicode="O" horiz-adv-x="1773" d="M104 729q0 158 57.5 296t170.5 249t254 167t301 56t300 -56.5t253 -166.5q113 -111 171 -250t58 -295q0 -158 -58.5 -295t-170.5 -248q-113 -111 -254.5 -168t-298.5 -57q-158 0 -301.5 57.5t-253.5 167.5q-113 111 -170.5 248t-57.5 295zM352 729q0 -111 39 -210 t117 -177t174 -119t205 -41t204 41t173 119t117.5 177t39.5 210t-40 211t-117 178q-76 78 -173.5 119t-203.5 41t-203.5 -41t-175.5 -119t-117 -178t-39 -211z" />
<glyph unicode="P" horiz-adv-x="1089" d="M168 0v1464h360q113 0 203 -11t164 -64q68 -49 107.5 -135.5t39.5 -192.5t-39.5 -193.5t-107.5 -136.5q-74 -53 -164 -63.5t-203 -10.5h-137v-657h-223zM406 852h61q82 0 143.5 6t103.5 26.5t62.5 59.5t20.5 103q0 66 -20.5 107.5t-61.5 65t-103.5 32t-144.5 8.5h-61 v-408z" />
<glyph unicode="Q" horiz-adv-x="1773" d="M104 731q0 156 57.5 294t170.5 249q111 111 253 167t302 56t301 -56.5t252 -166.5q113 -111 171 -249t58 -294q0 -154 -56.5 -289t-164.5 -243l311 -336h-284l-191 207q-100 -53 -200.5 -79t-209.5 -26q-147 0 -289.5 57.5t-252.5 165.5q-113 111 -170.5 249t-57.5 294z M352 731q0 -115 41 -214t113 -173t171 -116t216 -42q121 0 231 56l-262 282h289l141 -151q66 82 97.5 168t31.5 190q0 111 -39 210t-116 177q-78 78 -175.5 120t-203.5 42t-203.5 -42t-175.5 -120t-117 -177t-39 -210z" />
<glyph unicode="R" horiz-adv-x="1146" d="M168 0v1464h332q119 0 208 -14t156 -68q66 -53 104 -135t38 -186q0 -354 -336 -395l504 -666h-269l-487 655h-27v-655h-223zM406 840h43q78 0 137 6t98 27.5t58.5 61.5t19.5 105q0 68 -19.5 111t-57.5 66.5t-97.5 33t-138.5 9.5h-43v-420z" />
<glyph unicode="S" horiz-adv-x="1124" d="M84 293l190 88q53 -201 283 -201q109 0 170 59.5t61 157.5q0 53 -19 89t-54 62.5t-82 49.5t-105 51q-98 47 -172.5 92t-126 96.5t-78 113t-26.5 145.5q0 88 31.5 161.5t89 127t138.5 83t181 29.5q164 0 272.5 -62.5t149.5 -179.5l-186 -96q-84 133 -217 133 q-98 0 -153.5 -50t-55.5 -134q0 -53 20.5 -90t57 -64.5t88 -52t112.5 -53.5q96 -45 168 -88t119 -94.5t69.5 -111.5t22.5 -140q0 -102 -32.5 -185.5t-96 -142.5t-154 -92t-202.5 -33q-188 0 -307 86t-156 246z" />
<glyph unicode="T" horiz-adv-x="1042" d="M14 1262v202h1014v-202h-387v-1262h-238v1262h-389z" />
<glyph unicode="U" horiz-adv-x="1523" d="M162 553v911h235v-889q0 -397 365 -397t364 397v889h238v-911q0 -592 -602 -592q-600 0 -600 592z" />
<glyph unicode="V" horiz-adv-x="1265" d="M-20 1464h247l328 -780q27 -61 46.5 -118.5t31.5 -116.5q27 111 80 235l327 780h246l-653 -1521z" />
<glyph unicode="W" horiz-adv-x="1923" d="M-6 1464h235l277 -739q23 -59 42 -115.5t36 -115.5q33 106 53 166.5t27 78.5l294 783l310 -797q20 -53 39.5 -110.5t38.5 -122.5q12 53 30.5 108t40.5 119l275 745h237l-567 -1521l-334 835q-45 111 -72 205q-16 -53 -32.5 -105.5t-36.5 -103.5l-328 -831z" />
<glyph unicode="X" horiz-adv-x="1171" d="M0 0l475 766l-420 698h250l211 -358q16 -25 34.5 -61.5t43.5 -83.5q16 35 36.5 69.5t43.5 73.5l223 360h244l-428 -694l461 -770h-263l-245 416q-12 20 -31 57t-47 90q-33 -70 -80 -145l-256 -418h-252z" />
<glyph unicode="Y" horiz-adv-x="1214" d="M-10 1464h250l307 -497q4 -8 20.5 -37t40.5 -80q27 70 62 123l315 491h238l-504 -794v-670h-236v670z" />
<glyph unicode="Z" horiz-adv-x="1179" d="M18 0l746 1262h-621v202h987l-739 -1251h748v-213h-1121z" />
<glyph unicode="[" horiz-adv-x="620" d="M199 -414v1911h381v-156h-191v-1597h191v-158h-381z" />
<glyph unicode="\" horiz-adv-x="886" d="M0 1497h170l717 -1687h-170z" />
<glyph unicode="]" horiz-adv-x="620" d="M43 -256h188v1597h-188v156h379v-1911h-379v158z" />
<glyph unicode="^" horiz-adv-x="2048" d="M418 899l497 561h218l495 -561h-207l-397 397l-399 -397h-207z" />
<glyph unicode="_" horiz-adv-x="1024" d="M0 -311h1024v-172h-1024v172z" />
<glyph unicode="`" horiz-adv-x="1024" d="M238 1364h225l190 -272h-123z" />
<glyph unicode="a" horiz-adv-x="1191" d="M80 475q0 115 31.5 208t88 159.5t134.5 102.5t172 36q117 0 198.5 -48t120.5 -140v155h217v-948h-217v123q-117 -162 -313 -162q-199 0 -315.5 135t-116.5 379zM307 469q0 -154 68.5 -234.5t191.5 -80.5q113 0 188.5 85.5t75.5 237.5q0 150 -68.5 230.5t-191.5 80.5 t-193.5 -83.5t-70.5 -235.5z" />
<glyph unicode="b" horiz-adv-x="1191" d="M150 0v1550h217v-757q39 92 121.5 140t199.5 48q94 0 172 -36t134.5 -102.5t87 -159.5t30.5 -208q0 -244 -116.5 -379t-315.5 -135q-197 0 -313 162v-123h-217zM360 477q0 -152 76 -237.5t191 -85.5q123 0 190.5 80.5t67.5 234.5q0 152 -71 235.5t-193 83.5 q-123 0 -192 -80.5t-69 -230.5z" />
<glyph unicode="c" horiz-adv-x="929" d="M80 471q0 115 38 209t107.5 160.5t166.5 103.5t214 37q145 0 252 -59v-244q-49 53 -115.5 83t-144.5 30q-133 0 -213 -85t-80 -229q0 -150 81 -233.5t222 -83.5q156 0 250 119v-250q-121 -68 -274 -68q-111 0 -204 37t-159.5 104.5t-103.5 161.5t-37 207z" />
<glyph unicode="d" horiz-adv-x="1191" d="M80 475q0 115 31.5 208t88 159.5t134.5 102.5t172 36q117 0 198.5 -48t120.5 -140v757h217v-1550h-217v123q-117 -162 -313 -162q-199 0 -315.5 135t-116.5 379zM307 469q0 -154 68.5 -234.5t191.5 -80.5q115 0 189.5 85.5t74.5 237.5q0 150 -68.5 230.5t-191.5 80.5 t-193.5 -83.5t-70.5 -235.5z" />
<glyph unicode="e" horiz-adv-x="1138" d="M80 471q0 111 36 204t102.5 161.5t157.5 106.5t202 38q229 0 357 -130t128 -368v-41h-758q8 -135 79 -208.5t189 -73.5q104 0 174 44t123 142l183 -102q-158 -283 -475 -283q-115 0 -206 36t-156.5 102.5t-100.5 160.5t-35 211zM319 588h519q-12 104 -78 156.5t-178 52.5 q-211 0 -263 -209z" />
<glyph unicode="f" horiz-adv-x="626" d="M14 758v190h166v254q0 188 78 278.5t244 90.5q72 0 147 -21v-196q-51 30 -103 30h-3q-82 0 -114 -50t-32 -160v-226h228v-190h-228v-758h-217v758h-166z" />
<glyph unicode="g" horiz-adv-x="1191" d="M80 475q0 115 31.5 208t88 159.5t134.5 102.5t172 36q117 0 198.5 -48t120.5 -140v155h217v-889q0 -133 -24.5 -228t-80.5 -156.5t-149.5 -91t-230.5 -29.5q-203 0 -316.5 83.5t-115.5 219.5h233q10 -125 203 -125q150 0 205 66.5t57 199.5l2 125q-117 -162 -313 -162 q-199 0 -315.5 135t-116.5 379zM307 469q0 -154 68.5 -234.5t191.5 -80.5q113 0 188.5 85.5t75.5 237.5q0 150 -68.5 230.5t-191.5 80.5t-193.5 -83.5t-70.5 -235.5z" />
<glyph unicode="h" d="M150 0v1550h204v-757q66 100 154 144t213 44q213 0 297 -133q35 -53 41 -119.5t6 -153.5v-575h-219v487q0 80 -7.5 137.5t-29 96.5t-62 57.5t-108.5 18.5q-78 0 -136.5 -28t-92.5 -79q-29 -43 -36 -105.5t-7 -152.5v-432h-217z" />
<glyph unicode="i" horiz-adv-x="536" d="M131 1358q0 55 40 95t97 40t96 -38t39 -97t-38.5 -98t-96.5 -39q-57 0 -97 41t-40 96zM160 0v948h217v-948h-217z" />
<glyph unicode="j" horiz-adv-x="536" d="M131 1358q0 55 40 95t97 40t96 -38t39 -97t-38.5 -98t-96.5 -39q-57 0 -97 41t-40 96zM160 -446v1394h217v-1394h-217z" />
<glyph unicode="k" horiz-adv-x="1056" d="M150 0v1550h217v-995l397 393h268l-430 -418l471 -530h-280l-426 489v-489h-217z" />
<glyph unicode="l" horiz-adv-x="536" d="M160 0v1550h217v-1550h-217z" />
<glyph unicode="m" horiz-adv-x="1792" d="M150 0v948h204v-155q66 98 147 144t195 46q219 0 295 -188q74 98 158 143t194 45q96 0 165 -35t108 -100q23 -39 29 -88t6 -109v-651h-217v487q0 78 -6.5 136.5t-25 97.5t-55 58.5t-98.5 19.5q-141 0 -189 -92.5t-48 -274.5v-432h-219v487q0 162 -38 237t-151 75 q-66 0 -118 -29t-83 -80q-29 -47 -32.5 -108.5t-3.5 -149.5v-432h-217z" />
<glyph unicode="n" d="M150 0v948h204v-155q66 100 154 144t213 44q213 0 297 -133q35 -53 41 -119.5t6 -153.5v-575h-219v487q0 80 -7.5 137.5t-29 96.5t-62 57.5t-108.5 18.5q-78 0 -136.5 -28t-92.5 -79q-29 -43 -36 -105.5t-7 -152.5v-432h-217z" />
<glyph unicode="o" d="M80 473q0 104 39 196.5t114 164.5q74 72 168.5 109.5t198.5 37.5q217 0 371 -150q74 -72 113.5 -162.5t39.5 -195.5q0 -215 -151 -360q-78 -74 -172 -113t-201 -39q-104 0 -198.5 39t-168.5 111q-153 149 -153 362zM309 471q0 -68 22.5 -125t62.5 -99t93.5 -66.5 t114.5 -24.5q59 0 112.5 24.5t93.5 66.5t63.5 99t23.5 125t-22.5 125t-62.5 99t-93 66.5t-115 24.5q-61 0 -114.5 -24.5t-93.5 -66.5t-62.5 -99t-22.5 -125z" />
<glyph unicode="p" horiz-adv-x="1191" d="M150 -446v1394h217v-155q39 92 121.5 140t199.5 48q94 0 172 -36t134.5 -102.5t87 -159.5t30.5 -208q0 -244 -116.5 -379t-315.5 -135q-197 0 -313 162v-569h-217zM360 477q0 -154 75 -238.5t192 -84.5q123 0 190.5 80.5t67.5 234.5q0 152 -71 235.5t-193 83.5 q-123 0 -192 -80.5t-69 -230.5z" />
<glyph unicode="q" horiz-adv-x="1191" d="M80 475q0 115 31.5 208t88 159.5t134.5 102.5t172 36q117 0 198.5 -48t120.5 -140v155h217v-1394h-217v569q-117 -162 -313 -162q-199 0 -315.5 135t-116.5 379zM307 469q0 -154 68.5 -234.5t191.5 -80.5q117 0 190.5 84.5t73.5 238.5q0 150 -68.5 230.5t-191.5 80.5 t-193.5 -83.5t-70.5 -235.5z" />
<glyph unicode="r" horiz-adv-x="753" d="M150 0v950h217v-153q35 94 92 139t143 45q92 0 178 -43l-78 -184q-31 23 -63.5 31t-69.5 8q-115 0 -158.5 -92.5t-43.5 -284.5v-416h-217z" />
<glyph unicode="s" horiz-adv-x="872" d="M41 172l180 98q41 -145 213 -145q74 0 115 34t41 91q0 37 -16.5 59.5t-47 37.5t-71.5 29.5t-90 35.5q-135 57 -204 120.5t-69 165.5q0 61 24.5 113.5t72 90.5t115 59.5t151.5 21.5q113 0 190.5 -41t112.5 -115l-154 -106q-16 45 -58 71.5t-100 26.5q-63 0 -100 -29.5 t-37 -78.5q0 -35 18.5 -56.5t51.5 -39t79 -33t101 -37.5q125 -49 184.5 -112.5t59.5 -168.5q0 -139 -100.5 -221t-286.5 -82q-272 0 -375 211z" />
<glyph unicode="t" horiz-adv-x="620" d="M35 758v190h166v359h217v-359h166v-190h-166v-758h-217v758h-166z" />
<glyph unicode="u" d="M143 479v469h217v-534q0 -135 54.5 -196.5t187.5 -61.5t187.5 61.5t54.5 196.5v534h217v-469q0 -266 -106.5 -392t-350.5 -126q-125 0 -212 31t-142 94.5t-81 161.5t-26 231z" />
<glyph unicode="v" horiz-adv-x="966" d="M-14 948h237l207 -477q20 -45 53 -172q18 86 56 172l206 477h236l-498 -1005z" />
<glyph unicode="w" horiz-adv-x="1536" d="M-14 948h231l213 -456q10 -25 23.5 -73t23.5 -120q2 47 15.5 88t33.5 84l232 512h18l236 -512q20 -43 31.5 -84t13.5 -88q18 111 55 190l209 459h229l-493 -1005l-219 493q-18 43 -36 89t-34 100q-45 -133 -66 -181l-225 -501z" />
<glyph unicode="x" horiz-adv-x="927" d="M-25 0l359 510l-307 438h239l133 -196q16 -25 33 -52.5t33 -62.5q16 31 31.5 59.5t35.5 57.5l132 194h237l-307 -440l356 -508h-237l-176 250q-23 33 -42.5 63.5t-31.5 65.5q-29 -53 -47.5 -85t-28.5 -46l-172 -248h-240z" />
<glyph unicode="y" horiz-adv-x="964" d="M2 948h240l174 -491q16 -47 27.5 -94.5t17.5 -92.5q10 41 28.5 84t38.5 88l234 506h235l-684 -1394h-223l260 528z" />
<glyph unicode="z" horiz-adv-x="919" d="M-2 0l528 758h-475v190h828l-517 -758h517v-190h-881z" />
<glyph unicode="{" horiz-adv-x="1024" d="M162 442v179q10 0 21.5 -1.5t21.5 -1.5q127 0 179 59.5t52 201.5v247q0 115 16.5 187.5t86.5 113.5q53 31 122.5 40.5t167.5 9.5h45v-179q-12 0 -24 1t-23 1q-59 0 -96 -11t-56.5 -35.5t-26.5 -65.5t-7 -103v-241q0 -70 -8 -122t-30.5 -89t-61.5 -62.5t-103 -40.5 q63 -16 102.5 -40.5t62 -62.5t30.5 -89t8 -121v-240q0 -61 7 -102t27.5 -66.5t57.5 -37t96 -11.5q10 0 21.5 1t23.5 1v-176h-63q-90 0 -156.5 10.5t-115.5 38.5q-68 41 -85.5 113t-17.5 186v248q0 141 -51 201.5t-180 60.5q-10 0 -21.5 -1t-21.5 -1z" />
<glyph unicode="|" horiz-adv-x="1024" d="M424 -483v2048h178v-2048h-178z" />
<glyph unicode="}" horiz-adv-x="1024" d="M152 -238q12 0 23 -1t22 -1q59 0 96 11.5t56.5 37t26.5 66.5t7 102v240q0 70 8 121t30.5 89t62.5 62.5t104 40.5q-63 14 -103.5 40t-63 64t-30.5 89t-8 121v241q0 61 -7 102.5t-26.5 66t-56.5 35.5t-94 11q-10 0 -22.5 -1t-24.5 -1v179h45q96 0 165.5 -9.5t122.5 -40.5 q70 -41 86.5 -114.5t16.5 -186.5v-247q0 -141 51 -201t180 -60q10 0 21.5 1.5t21.5 1.5v-179q-10 0 -21.5 1t-21.5 1q-129 0 -180 -60t-51 -202v-248q0 -113 -16.5 -185.5t-86.5 -113.5q-51 -31 -121.5 -40t-166.5 -9h-45v176z" />
<glyph unicode="~" horiz-adv-x="1705" d="M178 434v187q211 143 387 143q88 0 159 -18.5t134 -40.5q76 -27 146.5 -50.5t146.5 -23.5q90 0 182 39t197 114v-184q-100 -70 -194.5 -105.5t-186.5 -35.5q-90 0 -191 35q-106 35 -201 66.5t-194 31.5q-90 0 -182 -40t-203 -118z" />
<glyph unicode="&#xa1;" horiz-adv-x="673" d="M205 1368q0 53 38 91t93 38t93 -38t38 -91q0 -55 -38 -93t-93 -38q-53 0 -92 39t-39 92zM223 -39v1163h228v-1163h-228z" />
<glyph unicode="&#xa2;" horiz-adv-x="1236" d="M186 735q0 195 115 325t322 161v161h104v-157q63 -2 129 -16.5t137 -43.5v-204q-63 41 -128.5 59t-137.5 24v-598q90 14 154.5 37t111.5 60v-209q-113 -66 -266 -72v-203h-104v207q-98 8 -179.5 46t-137.5 100.5t-88 144.5t-32 178zM383 750q0 -123 63.5 -203t176.5 -101 v596q-109 -18 -174.5 -100t-65.5 -192z" />
<glyph unicode="&#xa3;" horiz-adv-x="1236" d="M74 49q117 174 262 187q47 94 47 178q0 82 -47 172h-250v141h188q-90 150 -90 299q0 96 35 179t99.5 143.5t156.5 95.5t207 35q211 0 332 -113t139 -330l-223 -30q-10 139 -76 209.5t-182 70.5q-113 0 -182.5 -69.5t-69.5 -180.5q0 -66 26.5 -139.5t63.5 -169.5h358v-141 h-313q10 -29 13 -56.5t3 -52.5q0 -66 -24.5 -128t-71.5 -113h6q57 0 109.5 -14.5t99.5 -31t91 -31t87 -14.5q70 0 124.5 28t82.5 79l133 -119q-47 -86 -124.5 -131t-174.5 -45q-68 0 -132 15.5t-124.5 33t-117 32.5t-111.5 15q-111 0 -219 -104z" />
<glyph unicode="&#xa4;" horiz-adv-x="1241" d="M76 432l203 205q-80 106 -80 248q0 139 80 248l-203 204l92 93l203 -203q109 82 250 82q143 0 251 -82l203 203l94 -93l-204 -204q80 -109 79 -248q0 -141 -79 -248l204 -205l-94 -92l-203 205q-113 -82 -249 -82q-143 0 -252 82l-203 -205zM332 885q0 -59 22.5 -112.5 t62.5 -92.5t92 -61.5t114 -22.5q61 0 113 22.5t92 61.5t62.5 92t22.5 113q0 59 -22.5 111.5t-62.5 92t-93 63.5t-112 24t-112.5 -24t-93.5 -63.5t-62.5 -92t-22.5 -111.5z" />
<glyph unicode="&#xa5;" horiz-adv-x="1236" d="M0 1452h240l307 -494q8 -12 23.5 -42.5t37.5 -77.5q25 70 62 127l315 487h229l-266 -420h256v-145h-350l-102 -164h452v-145h-493v-578h-219v578h-482v145h445l-101 164h-344v145h256z" />
<glyph unicode="&#xa6;" horiz-adv-x="1024" d="M424 -350v758h178v-758h-178zM424 674v758h178v-758h-178z" />
<glyph unicode="&#xa7;" horiz-adv-x="1089" d="M84 539q0 129 67.5 224t194.5 144q-180 82 -180 271q0 145 101.5 233t293.5 88q174 0 266.5 -86t92.5 -250v-20h-187q-6 182 -186 182q-82 0 -130 -42t-48 -101q0 -35 16 -61.5t48 -50t80 -45t112 -46.5q98 -39 170.5 -80t120 -93t71 -118.5t23.5 -155.5 q0 -281 -275 -360q96 -45 146.5 -121t50.5 -168q0 -152 -102.5 -243t-292.5 -91q-88 0 -159 25t-121 70t-76.5 107.5t-26.5 139.5v21h202q6 -182 187 -182q92 0 141 42t49 107q0 39 -17.5 65.5t-49 48t-77.5 41t-104 44.5q-98 41 -166.5 75.5t-109.5 73.5q-66 61 -95.5 137 t-29.5 175zM301 537q0 -55 20.5 -101.5t54.5 -81.5t79 -54t96 -19t96 19t80 54t55.5 81t20.5 102q0 53 -20.5 100t-54.5 82t-80 55.5t-97 20.5t-97 -19.5t-80 -54.5t-53.5 -82t-19.5 -102z" />
<glyph unicode="&#xa8;" horiz-adv-x="1024" d="M209 1255q0 47 36 83t85 36t84 -34.5t35 -84.5q0 -53 -33 -87.5t-86 -34.5q-51 0 -86 34.5t-35 87.5zM573 1255q0 47 36 83t85 36t84 -34.5t35 -84.5q0 -53 -32.5 -87.5t-86.5 -34.5q-51 0 -86 34.5t-35 87.5z" />
<glyph unicode="&#xa9;" horiz-adv-x="1705" d="M113 731q0 147 57 281.5t164 242.5q211 215 518 215q152 0 285 -54t241 -163q104 -104 159.5 -237t55.5 -285q0 -154 -54 -286t-159 -234q-111 -109 -246 -165t-282 -56t-280.5 56t-239.5 163q-106 106 -162.5 240.5t-56.5 281.5zM223 731q0 -127 47 -239.5t140 -204.5 q92 -92 205.5 -139.5t238.5 -47.5t239.5 48.5t209.5 140.5q182 178 182 442q0 129 -46 242.5t-136 204.5q-92 92 -206 138t-243 46t-241.5 -45t-202.5 -137q-92 -92 -139.5 -208t-47.5 -241zM457 725q0 104 28.5 189t82 143.5t127 90.5t163.5 32q74 0 135.5 -20.5 t107.5 -56.5t73.5 -87t31.5 -113h-166q-10 74 -60 114t-130 40q-96 0 -153.5 -83t-57.5 -243q0 -154 58.5 -235.5t162.5 -81.5q78 0 128 43t61 125h165q-4 -68 -31.5 -122t-74.5 -94t-111.5 -61.5t-142.5 -21.5q-182 0 -289.5 117.5t-107.5 324.5z" />
<glyph unicode="&#xaa;" horiz-adv-x="894" d="M59 1133q0 80 23.5 145t67 111.5t101.5 72t128 25.5q88 0 149.5 -34t89.5 -97v108h164v-663h-164v86q-86 -113 -233 -113q-150 0 -238 94.5t-88 264.5zM231 1128q0 -106 51.5 -163.5t143.5 -57.5q86 0 142.5 61t56.5 167q0 104 -52.5 160.5t-144.5 56.5t-144.5 -58.5 t-52.5 -165.5z" />
<glyph unicode="&#xab;" horiz-adv-x="929" d="M80 469l254 408l137 -84l-205 -324l205 -324l-137 -84zM459 469l254 408l139 -84l-207 -324l207 -324l-139 -84z" />
<glyph unicode="&#xac;" horiz-adv-x="1705" d="M254 696v166h1198v-502h-166v336h-1032z" />
<glyph unicode="&#xad;" horiz-adv-x="829" d="M147 371v200h535v-200h-535z" />
<glyph unicode="&#xae;" horiz-adv-x="1705" d="M113 731q0 147 57 283.5t166 245.5q211 210 516 210q154 0 288 -55t242 -166q104 -104 157.5 -236t53.5 -282q0 -154 -55 -287t-162 -237q-111 -106 -245 -161.5t-279 -55.5q-147 0 -282.5 57t-241.5 166q-104 106 -159.5 238.5t-55.5 279.5zM223 731q0 -125 46 -237.5 t137 -204.5q92 -92 204.5 -140.5t233.5 -48.5q266 0 456 185q90 86 137.5 198.5t47.5 237.5q0 268 -180 453q-189 188 -451 188q-260 0 -440 -180q-92 -94 -141.5 -210t-49.5 -241zM551 330v829h319q176 0 263.5 -57.5t87.5 -167.5q0 -92 -47.5 -150.5t-137.5 -78.5 l185 -375h-199l-164 346h-129v-346h-178zM729 786h117q98 0 145 30t47 97q0 72 -49 103t-151 31h-109v-261z" />
<glyph unicode="&#xaf;" horiz-adv-x="1024" d="M248 1153v141h526v-141h-526z" />
<glyph unicode="&#xb0;" horiz-adv-x="673" d="M43 1163q0 61 22.5 115.5t62.5 94.5t94.5 63.5t115.5 23.5t114.5 -23.5t93.5 -63.5t63.5 -94t23.5 -116q0 -59 -23.5 -113.5t-63.5 -94.5t-94.5 -63.5t-115.5 -23.5t-114.5 22.5t-93.5 62.5t-62.5 94.5t-22.5 115.5zM152 1165q0 -78 54 -132t132 -54q39 0 72.5 15.5 t58.5 41t39 59t14 70.5q0 78 -53 131.5t-131 53.5t-132 -53.5t-54 -131.5z" />
<glyph unicode="&#xb1;" horiz-adv-x="1705" d="M254 14v168h1198v-168h-1198zM254 707v165h514v334h170v-334h514v-165h-514v-334h-170v334h-514z" />
<glyph unicode="&#xb2;" horiz-adv-x="817" d="M29 575l360 394q129 141 129 231q0 66 -42 102.5t-116 36.5q-66 0 -109.5 -36.5t-47.5 -98.5h-152q0 117 87 187.5t235 70.5q141 0 221 -64.5t80 -178.5q0 -102 -65.5 -194.5t-176.5 -205.5l-125 -129h369v-115h-647z" />
<glyph unicode="&#xb3;" horiz-adv-x="817" d="M61 811h152v-8q0 -59 45 -96t123 -37q90 0 137 40t47 115q0 158 -196 158h-29v115q6 0 13 -1t16 -1q172 0 172 129q0 57 -40 90t-106 33q-72 0 -110.5 -31t-40.5 -86h-142q6 111 82 171t215 60q135 0 212 -62.5t77 -170.5q0 -80 -44 -132.5t-122 -62.5 q92 -16 140.5 -72.5t48.5 -154.5q0 -117 -88 -185.5t-248 -68.5q-139 0 -224 68.5t-90 189.5z" />
<glyph unicode="&#xb4;" horiz-adv-x="1024" d="M371 1092l190 272h225l-292 -272h-123z" />
<glyph unicode="&#xb5;" horiz-adv-x="1208" d="M-92 -430l297 1511h229l-125 -635q-12 -59 -12 -104q0 -197 182 -197q129 0 197.5 92.5t107.5 288.5l109 555h225l-145 -739q-18 -96 -19 -133q0 -35 15.5 -50.5t52.5 -15.5h16.5t18.5 2l-33 -159q-35 -10 -72 -13.5t-78 -3.5q-150 0 -149 125v15q-41 -68 -108.5 -105 t-145.5 -37t-135 24.5t-100 84.5l-99 -506h-229z" />
<glyph unicode="&#xb6;" horiz-adv-x="1024" d="M55 1130q0 76 27 140.5t78 110.5t123.5 72t162.5 26h523v-99h-117v-1380h-129v1380h-170v-1380h-129v784q-172 6 -270.5 102.5t-98.5 243.5z" />
<glyph unicode="&#xb7;" horiz-adv-x="618" d="M178 721q0 55 38 93t93 38t93 -38t38 -93q0 -53 -37.5 -92t-93.5 -39q-55 0 -93 39t-38 92z" />
<glyph unicode="&#xb8;" horiz-adv-x="1024" d="M274 -287q156 -37 242 -37q102 0 102 68q0 41 -32.5 57.5t-100.5 16.5q-10 0 -20 -1t-21 -1v184h86v-86h17q223 0 223 -174q0 -82 -60.5 -127t-177.5 -45q-100 0 -258 39v106z" />
<glyph unicode="&#xb9;" horiz-adv-x="817" d="M158 1333l61 113h281v-871h-142v758h-200z" />
<glyph unicode="&#xba;" horiz-adv-x="903" d="M59 1133q0 147 117 251q55 51 126 77t149 26q164 0 278 -105q115 -104 115 -249q0 -150 -115 -254q-117 -104 -278 -105q-78 0 -149 26.5t-126 78.5q-117 104 -117 254zM231 1130q0 -47 17.5 -86.5t47.5 -69.5t70 -47.5t87 -17.5q45 0 85 17.5t69.5 47.5t47 69.5 t17.5 86.5t-17.5 87t-47 70t-69.5 47.5t-85 17.5q-47 0 -87 -17.5t-70 -47.5t-47.5 -69.5t-17.5 -87.5z" />
<glyph unicode="&#xbb;" horiz-adv-x="929" d="M82 145l205 324l-205 324l137 84l254 -408l-254 -408zM459 145l207 324l-207 324l139 84l254 -408l-254 -408z" />
<glyph unicode="&#xbc;" horiz-adv-x="1900" d="M150 1339l57 105h270v-811h-137v706h-190zM438 -39l887 1518h137l-887 -1518h-137zM1139 166l536 661h43v-567h113v-94h-113v-166h-137v166h-442zM1352 260h229v213v24.5t4 55.5z" />
<glyph unicode="&#xbd;" horiz-adv-x="1900" d="M150 1339l57 105h270v-811h-137v706h-190zM438 -39l887 1518h137l-887 -1518h-137zM1149 0l344 367q61 66 93 118t32 97q0 61 -40 96t-112 35q-63 0 -104 -34t-47 -93h-144q0 111 83 176t225 65q135 0 210.5 -60t75.5 -167q0 -47 -16 -91t-47 -88t-74 -91t-94 -103 l-117 -121h350v-106h-618z" />
<glyph unicode="&#xbe;" horiz-adv-x="1900" d="M59 852h144v-6q0 -57 43 -91t119 -34q84 0 129 37t45 108q0 147 -187 148q-6 0 -13 -1t-15 -1v108q8 0 14 -1t12 -1q166 0 166 121q0 53 -37 84t-100 31q-141 0 -148 -111h-135q8 104 80 160.5t205 56.5q129 0 202.5 -58.5t73.5 -158.5q0 -76 -42 -124t-117 -58 q180 -29 180 -213q0 -106 -84 -172t-236 -66q-133 0 -214 65.5t-85 176.5zM438 -39l887 1518h137l-887 -1518h-137zM1139 166l536 661h43v-567h113v-94h-113v-166h-137v166h-442zM1352 260h229v213v24.5t4 55.5z" />
<glyph unicode="&#xbf;" horiz-adv-x="1114" d="M193 305q0 68 18 117t54 89t88.5 71.5t121.5 66.5q51 25 91 46.5t69 43t44 47t15 60.5q0 49 -38 87t-95 38q-137 0 -141 -156h-178v21q0 147 83 228t236 81q72 0 132.5 -22.5t103.5 -62.5t66.5 -93.5t23.5 -116.5q0 -70 -20.5 -122t-60.5 -93t-97.5 -76t-133.5 -72 q-90 -43 -141 -81.5t-51 -108.5q0 -66 47 -110t121 -44q82 0 128 52.5t46 148.5h172q0 -10 1 -18.5t1 -18.5q0 -160 -94 -253t-254 -93q-166 0 -262 94.5t-96 249.5zM449 1368q0 53 37.5 91t93.5 38q55 0 93 -38t38 -91t-39 -92t-92 -39q-55 0 -93 38t-38 93z" />
<glyph unicode="&#xc0;" horiz-adv-x="1355" d="M-31 0l709 1522l708 -1522h-251l-166 377h-580l-170 -377h-250zM404 1880h225l190 -272h-123zM477 575h408l-150 334q-12 29 -25.5 70t-29.5 96q-14 -55 -27.5 -96t-25.5 -70z" />
<glyph unicode="&#xc1;" horiz-adv-x="1355" d="M-31 0l709 1522l708 -1522h-251l-166 377h-580l-170 -377h-250zM477 575h408l-150 334q-12 29 -25.5 70t-29.5 96q-14 -55 -27.5 -96t-25.5 -70zM537 1608l190 272h225l-292 -272h-123z" />
<glyph unicode="&#xc2;" horiz-adv-x="1355" d="M-31 0l709 1522l708 -1522h-251l-166 377h-580l-170 -377h-250zM381 1608l193 272h208l193 -272h-123l-174 157l-174 -157h-123zM477 575h408l-150 334q-12 29 -25.5 70t-29.5 96q-14 -55 -27.5 -96t-25.5 -70z" />
<glyph unicode="&#xc3;" horiz-adv-x="1355" d="M-31 0l709 1522l708 -1522h-251l-166 377h-580l-170 -377h-250zM385 1624q45 209 189 209q31 0 61 -8l117 -31q12 -4 24.5 -4h22.5q63 0 82 67h90q-18 -102 -70.5 -155t-124.5 -53q-27 0 -53 6l-125 32q-10 2 -18 3.5t-19 1.5q-35 0 -55.5 -15.5t-30.5 -52.5h-90z M477 575h408l-150 334q-12 29 -25.5 70t-29.5 96q-14 -55 -27.5 -96t-25.5 -70z" />
<glyph unicode="&#xc4;" horiz-adv-x="1355" d="M-31 0l709 1522l708 -1522h-251l-166 377h-580l-170 -377h-250zM375 1771q0 47 36 83t85 36t84 -34.5t35 -84.5q0 -53 -33 -87.5t-86 -34.5q-51 0 -86 34.5t-35 87.5zM477 575h408l-150 334q-12 29 -25.5 70t-29.5 96q-14 -55 -27.5 -96t-25.5 -70zM739 1771q0 47 36 83 t85 36t84 -34.5t35 -84.5q0 -53 -32.5 -87.5t-86.5 -34.5q-51 0 -86 34.5t-35 87.5z" />
<glyph unicode="&#xc5;" horiz-adv-x="1355" d="M-31 0l684 1464h52l681 -1464h-251l-166 377h-580l-170 -377h-250zM442 1735q0 49 18.5 93t50.5 75.5t75 50t92 18.5t92 -18.5t76 -51t51 -75.5t18 -92t-18 -92.5t-50 -75t-76 -50t-93 -18.5t-92 18.5t-75 50t-50.5 75t-18.5 92.5zM477 575h408l-150 334q-12 29 -25.5 70 t-29.5 96q-14 -55 -27.5 -96t-25.5 -70zM565 1735q0 -47 34 -80t81 -33t81 33t34 80t-34 80.5t-81 33.5t-81 -33.5t-34 -80.5z" />
<glyph unicode="&#xc6;" horiz-adv-x="1865" d="M-31 0l684 1464h676l84 -202h-536l129 -359h491l78 -209h-490l179 -481h538l80 -213h-772l-139 377h-582l-170 -377h-250zM477 575h422l-123 334q-23 61 -41 122t-30 122q-20 -106 -74 -223z" />
<glyph unicode="&#xc7;" horiz-adv-x="1470" d="M104 729q0 162 56.5 302t167.5 249t250 164t305 55q133 0 248.5 -38t224.5 -113l-13 -240q-203 172 -450 172q-121 0 -220.5 -41t-171 -113.5t-110.5 -174t-39 -224.5q0 -121 40 -221t108.5 -172t163 -112t204.5 -40q258 0 473 185v-269q-193 -137 -454 -137 q-170 0 -311.5 55.5t-249.5 161.5q-109 106 -165.5 248.5t-56.5 302.5zM630 -287q156 -37 242 -37q102 0 102 68q0 41 -32.5 57.5t-100.5 16.5q-10 0 -20 -1t-21 -1v184h86v-86h17q223 0 223 -174q0 -82 -60.5 -127t-177.5 -45q-100 0 -258 39v106z" />
<glyph unicode="&#xc8;" horiz-adv-x="1089" d="M168 0v1464h817v-202h-579v-367h579v-209h-579v-473h579v-213h-817zM306 1880h225l190 -272h-123z" />
<glyph unicode="&#xc9;" horiz-adv-x="1089" d="M168 0v1464h817v-202h-579v-367h579v-209h-579v-473h579v-213h-817zM439 1608l190 272h225l-292 -272h-123z" />
<glyph unicode="&#xca;" horiz-adv-x="1089" d="M168 0v1464h817v-202h-579v-367h579v-209h-579v-473h579v-213h-817zM283 1608l193 272h208l193 -272h-123l-174 157l-174 -157h-123z" />
<glyph unicode="&#xcb;" horiz-adv-x="1089" d="M168 0v1464h817v-202h-579v-367h579v-209h-579v-473h579v-213h-817zM277 1771q0 47 36 83t85 36t84 -34.5t35 -84.5q0 -53 -33 -87.5t-86 -34.5q-51 0 -86 34.5t-35 87.5zM641 1771q0 47 36 83t85 36t84 -34.5t35 -84.5q0 -53 -32.5 -87.5t-86.5 -34.5q-51 0 -86 34.5 t-35 87.5z" />
<glyph unicode="&#xcc;" horiz-adv-x="583" d="M21 1880h225l190 -272h-123zM172 0v1464h238v-1464h-238z" />
<glyph unicode="&#xcd;" horiz-adv-x="583" d="M154 1608l190 272h225l-292 -272h-123zM172 0v1464h238v-1464h-238z" />
<glyph unicode="&#xce;" horiz-adv-x="583" d="M-2 1608l193 272h208l193 -272h-123l-174 157l-174 -157h-123zM172 0v1464h238v-1464h-238z" />
<glyph unicode="&#xcf;" horiz-adv-x="583" d="M-8 1771q0 47 36 83t85 36t84 -34.5t35 -84.5q0 -53 -33 -87.5t-86 -34.5q-51 0 -86 34.5t-35 87.5zM172 0v1464h238v-1464h-238zM356 1771q0 47 36 83t85 36t84 -34.5t35 -84.5q0 -53 -32.5 -87.5t-86.5 -34.5q-51 0 -86 34.5t-35 87.5z" />
<glyph unicode="&#xd0;" horiz-adv-x="1529" d="M0 723v184h182v557h322q102 0 194.5 -2t174 -15t154.5 -41t140 -79q127 -98 192.5 -247.5t65.5 -348.5t-65.5 -347t-192.5 -247q-63 -49 -131.5 -76.5t-142.5 -41t-156 -16.5t-170 -3h-385v723h-182zM420 215h201q121 0 217 15.5t174 80.5q166 141 166 422t-166 422 q-82 68 -184.5 82t-235.5 14h-172v-344h387v-184h-387v-508z" />
<glyph unicode="&#xd1;" horiz-adv-x="1644" d="M168 0v1522l930 -895q45 -43 84 -87t75 -91v1015h220v-1521l-949 911q-78 74 -141 164v-1018h-219zM530 1624q45 209 189 209q31 0 61 -8l117 -31q12 -4 24.5 -4h22.5q63 0 82 67h90q-18 -102 -70.5 -155t-124.5 -53q-27 0 -53 6l-125 32q-10 2 -18 3.5t-19 1.5 q-35 0 -55.5 -15.5t-30.5 -52.5h-90z" />
<glyph unicode="&#xd2;" horiz-adv-x="1773" d="M104 729q0 158 57.5 296t170.5 249t254 167t301 56t300 -56.5t253 -166.5q113 -111 171 -250t58 -295q0 -158 -58.5 -295t-170.5 -248q-113 -111 -254.5 -168t-298.5 -57q-158 0 -301.5 57.5t-253.5 167.5q-113 111 -170.5 248t-57.5 295zM352 729q0 -111 39 -210 t117 -177t174 -119t205 -41t204 41t173 119t117.5 177t39.5 210t-40 211t-117 178q-76 78 -173.5 119t-203.5 41t-203.5 -41t-175.5 -119t-117 -178t-39 -211zM613 1880h225l190 -272h-123z" />
<glyph unicode="&#xd3;" horiz-adv-x="1773" d="M104 729q0 158 57.5 296t170.5 249t254 167t301 56t300 -56.5t253 -166.5q113 -111 171 -250t58 -295q0 -158 -58.5 -295t-170.5 -248q-113 -111 -254.5 -168t-298.5 -57q-158 0 -301.5 57.5t-253.5 167.5q-113 111 -170.5 248t-57.5 295zM352 729q0 -111 39 -210 t117 -177t174 -119t205 -41t204 41t173 119t117.5 177t39.5 210t-40 211t-117 178q-76 78 -173.5 119t-203.5 41t-203.5 -41t-175.5 -119t-117 -178t-39 -211zM746 1608l190 272h225l-292 -272h-123z" />
<glyph unicode="&#xd4;" horiz-adv-x="1773" d="M104 729q0 158 57.5 296t170.5 249t254 167t301 56t300 -56.5t253 -166.5q113 -111 171 -250t58 -295q0 -158 -58.5 -295t-170.5 -248q-113 -111 -254.5 -168t-298.5 -57q-158 0 -301.5 57.5t-253.5 167.5q-113 111 -170.5 248t-57.5 295zM352 729q0 -111 39 -210 t117 -177t174 -119t205 -41t204 41t173 119t117.5 177t39.5 210t-40 211t-117 178q-76 78 -173.5 119t-203.5 41t-203.5 -41t-175.5 -119t-117 -178t-39 -211zM590 1608l193 272h208l193 -272h-123l-174 157l-174 -157h-123z" />
<glyph unicode="&#xd5;" horiz-adv-x="1773" d="M104 729q0 158 57.5 296t170.5 249t254 167t301 56t300 -56.5t253 -166.5q113 -111 171 -250t58 -295q0 -158 -58.5 -295t-170.5 -248q-113 -111 -254.5 -168t-298.5 -57q-158 0 -301.5 57.5t-253.5 167.5q-113 111 -170.5 248t-57.5 295zM352 729q0 -111 39 -210 t117 -177t174 -119t205 -41t204 41t173 119t117.5 177t39.5 210t-40 211t-117 178q-76 78 -173.5 119t-203.5 41t-203.5 -41t-175.5 -119t-117 -178t-39 -211zM594 1624q45 209 189 209q31 0 61 -8l117 -31q12 -4 24.5 -4h22.5q63 0 82 67h90q-18 -102 -70.5 -155 t-124.5 -53q-27 0 -53 6l-125 32q-10 2 -18 3.5t-19 1.5q-35 0 -55.5 -15.5t-30.5 -52.5h-90z" />
<glyph unicode="&#xd6;" horiz-adv-x="1773" d="M104 729q0 158 57.5 296t170.5 249t254 167t301 56t300 -56.5t253 -166.5q113 -111 171 -250t58 -295q0 -158 -58.5 -295t-170.5 -248q-113 -111 -254.5 -168t-298.5 -57q-158 0 -301.5 57.5t-253.5 167.5q-113 111 -170.5 248t-57.5 295zM352 729q0 -111 39 -210 t117 -177t174 -119t205 -41t204 41t173 119t117.5 177t39.5 210t-40 211t-117 178q-76 78 -173.5 119t-203.5 41t-203.5 -41t-175.5 -119t-117 -178t-39 -211zM584 1771q0 47 36 83t85 36t84 -34.5t35 -84.5q0 -53 -33 -87.5t-86 -34.5q-51 0 -86 34.5t-35 87.5zM948 1771 q0 47 36 83t85 36t84 -34.5t35 -84.5q0 -53 -32.5 -87.5t-86.5 -34.5q-51 0 -86 34.5t-35 87.5z" />
<glyph unicode="&#xd7;" horiz-adv-x="1705" d="M287 152l458 458l-458 461l116 117l459 -459l461 459l117 -117l-459 -461l459 -458l-117 -119l-461 461l-459 -461z" />
<glyph unicode="&#xd8;" horiz-adv-x="1773" d="M104 731q0 156 57.5 294t170.5 249q111 111 253 168t302 57q119 0 230.5 -37t223.5 -108l172 184l129 -104l-176 -189q203 -223 203 -514q0 -156 -58.5 -294t-170.5 -249q-111 -109 -253.5 -166t-299.5 -57q-260 0 -473 156l-181 -195l-124 109l184 196 q-98 111 -143.5 233t-45.5 267zM352 731q0 -94 25.5 -173t79.5 -150l727 778q-70 49 -141.5 71.5t-155.5 22.5q-106 0 -204.5 -41t-174.5 -119q-78 -78 -117 -178t-39 -211zM571 289q131 -104 301 -105q236 0 394 160q78 78 116.5 177.5t38.5 209.5q0 193 -118 342z" />
<glyph unicode="&#xd9;" horiz-adv-x="1523" d="M162 553v911h235v-889q0 -397 365 -397t364 397v889h238v-911q0 -592 -602 -592q-600 0 -600 592zM488 1880h225l190 -272h-123z" />
<glyph unicode="&#xda;" horiz-adv-x="1523" d="M162 553v911h235v-889q0 -397 365 -397t364 397v889h238v-911q0 -592 -602 -592q-600 0 -600 592zM621 1608l190 272h225l-292 -272h-123z" />
<glyph unicode="&#xdb;" horiz-adv-x="1523" d="M162 553v911h235v-889q0 -397 365 -397t364 397v889h238v-911q0 -592 -602 -592q-600 0 -600 592zM465 1608l193 272h208l193 -272h-123l-174 157l-174 -157h-123z" />
<glyph unicode="&#xdc;" horiz-adv-x="1523" d="M162 553v911h235v-889q0 -397 365 -397t364 397v889h238v-911q0 -592 -602 -592q-600 0 -600 592zM459 1771q0 47 36 83t85 36t84 -34.5t35 -84.5q0 -53 -33 -87.5t-86 -34.5q-51 0 -86 34.5t-35 87.5zM823 1771q0 47 36 83t85 36t84 -34.5t35 -84.5q0 -53 -32.5 -87.5 t-86.5 -34.5q-51 0 -86 34.5t-35 87.5z" />
<glyph unicode="&#xdd;" horiz-adv-x="1214" d="M-10 1464h250l307 -497q4 -8 20.5 -37t40.5 -80q27 70 62 123l315 491h238l-504 -794v-670h-236v670zM467 1608l190 272h225l-292 -272h-123z" />
<glyph unicode="&#xde;" horiz-adv-x="1089" d="M168 0v1464h223v-301h115q121 0 216 -10t173 -66q68 -49 107.5 -135t39.5 -192t-39.5 -193.5t-107.5 -136.5q-74 -53 -164 -63.5t-203 -10.5h-137v-356h-223zM391 551h76q82 0 143.5 6t103.5 26.5t62.5 59.5t20.5 102q0 66 -20.5 108t-61.5 65.5t-103.5 31.5t-144.5 8 h-76v-407z" />
<glyph unicode="&#xdf;" horiz-adv-x="1232" d="M47 743v205h117v234q0 84 31.5 155.5t89 123.5t139.5 81t182 29q98 0 176 -27.5t133.5 -79t85 -123t29.5 -157.5q0 -252 -276 -334q193 -10 294 -118.5t101 -301.5q0 -223 -119 -346t-346 -123q-49 0 -91 8t-81 31v193q61 -31 135 -31q133 0 204 73.5t71 213.5 q0 289 -340 288h-35v201q10 0 17 -1t16 -1q109 0 166 55.5t57 155.5q0 115 -53.5 173t-151.5 58q-72 0 -115 -22.5t-65.5 -67.5t-29.5 -111.5t-7 -154.5v-1022h-217v743h-117z" />
<glyph unicode="&#xe0;" horiz-adv-x="1191" d="M80 475q0 115 31.5 208t88 159.5t134.5 102.5t172 36q117 0 198.5 -48t120.5 -140v155h217v-948h-217v123q-117 -162 -313 -162q-199 0 -315.5 135t-116.5 379zM307 469q0 -154 68.5 -234.5t191.5 -80.5q113 0 188.5 85.5t75.5 237.5q0 150 -68.5 230.5t-191.5 80.5 t-193.5 -83.5t-70.5 -235.5zM332 1364h225l190 -272h-123z" />
<glyph unicode="&#xe1;" horiz-adv-x="1191" d="M80 475q0 115 31.5 208t88 159.5t134.5 102.5t172 36q117 0 198.5 -48t120.5 -140v155h217v-948h-217v123q-117 -162 -313 -162q-199 0 -315.5 135t-116.5 379zM307 469q0 -154 68.5 -234.5t191.5 -80.5q113 0 188.5 85.5t75.5 237.5q0 150 -68.5 230.5t-191.5 80.5 t-193.5 -83.5t-70.5 -235.5zM465 1092l190 272h225l-292 -272h-123z" />
<glyph unicode="&#xe2;" horiz-adv-x="1191" d="M80 475q0 115 31.5 208t88 159.5t134.5 102.5t172 36q117 0 198.5 -48t120.5 -140v155h217v-948h-217v123q-117 -162 -313 -162q-199 0 -315.5 135t-116.5 379zM307 469q0 -154 68.5 -234.5t191.5 -80.5q113 0 188.5 85.5t75.5 237.5q0 150 -68.5 230.5t-191.5 80.5 t-193.5 -83.5t-70.5 -235.5zM309 1092l193 272h208l193 -272h-123l-174 157l-174 -157h-123z" />
<glyph unicode="&#xe3;" horiz-adv-x="1191" d="M80 475q0 115 31.5 208t88 159.5t134.5 102.5t172 36q117 0 198.5 -48t120.5 -140v155h217v-948h-217v123q-117 -162 -313 -162q-199 0 -315.5 135t-116.5 379zM307 469q0 -154 68.5 -234.5t191.5 -80.5q113 0 188.5 85.5t75.5 237.5q0 150 -68.5 230.5t-191.5 80.5 t-193.5 -83.5t-70.5 -235.5zM313 1108q45 209 189 209q31 0 61 -8l117 -31q12 -4 24.5 -4h22.5q63 0 82 67h90q-18 -102 -70.5 -155t-124.5 -53q-27 0 -53 6l-125 32q-10 2 -18 3.5t-19 1.5q-35 0 -55.5 -15.5t-30.5 -52.5h-90z" />
<glyph unicode="&#xe4;" horiz-adv-x="1191" d="M80 475q0 115 31.5 208t88 159.5t134.5 102.5t172 36q117 0 198.5 -48t120.5 -140v155h217v-948h-217v123q-117 -162 -313 -162q-199 0 -315.5 135t-116.5 379zM303 1255q0 47 36 83t85 36t84 -34.5t35 -84.5q0 -53 -33 -87.5t-86 -34.5q-51 0 -86 34.5t-35 87.5z M307 469q0 -154 68.5 -234.5t191.5 -80.5q113 0 188.5 85.5t75.5 237.5q0 150 -68.5 230.5t-191.5 80.5t-193.5 -83.5t-70.5 -235.5zM667 1255q0 47 36 83t85 36t84 -34.5t35 -84.5q0 -53 -32.5 -87.5t-86.5 -34.5q-51 0 -86 34.5t-35 87.5z" />
<glyph unicode="&#xe5;" horiz-adv-x="1191" d="M80 475q0 115 31.5 208t88 159.5t134.5 102.5t172 36q117 0 198.5 -48t120.5 -140v155h217v-948h-217v123q-117 -162 -313 -162q-199 0 -315.5 135t-116.5 379zM307 469q0 -154 68.5 -234.5t191.5 -80.5q113 0 188.5 85.5t75.5 237.5q0 150 -68.5 230.5t-191.5 80.5 t-193.5 -83.5t-70.5 -235.5zM330 1284q0 49 18.5 93t51 76t75.5 50.5t92 18.5t92 -18.5t75 -51.5t50.5 -76t18.5 -92t-18.5 -92t-50.5 -75t-75 -50t-92 -18t-93 18t-75.5 50t-50 75t-18.5 92zM455 1284q0 -47 32.5 -80t79.5 -33t81 33t34 80t-34 81t-81 34t-79.5 -34 t-32.5 -81z" />
<glyph unicode="&#xe6;" horiz-adv-x="1765" d="M70 293q0 72 26.5 130t75.5 99t116.5 63.5t151.5 22.5t154 -16.5t131 -52.5q2 10 2 18v18q0 109 -69.5 165.5t-206.5 56.5q-72 0 -149 -24.5t-148 -72.5v203q72 41 147.5 60.5t157.5 19.5q135 0 226 -37t157 -131q59 82 148 125t206 43q229 0 357 -131t128 -373v-37h-757 q8 -135 78.5 -210.5t189.5 -75.5q104 0 174 46t123 144l182 -102q-158 -283 -475 -283q-119 0 -205 37t-149 119q-66 -74 -167.5 -115t-225.5 -41q-88 0 -159 24.5t-120 68.5t-74.5 104.5t-25.5 134.5zM295 297q0 -66 52 -103.5t149 -37.5q117 0 178 38.5t61 104.5 q0 63 -57 103t-162 40q-104 0 -162.5 -40t-58.5 -105zM938 588h518q-25 209 -254 209q-213 0 -264 -209z" />
<glyph unicode="&#xe7;" horiz-adv-x="929" d="M80 471q0 115 38 209t107.5 160.5t166.5 103.5t214 37q145 0 252 -59v-244q-49 53 -115.5 83t-144.5 30q-133 0 -213 -85t-80 -229q0 -150 81 -233.5t222 -83.5q156 0 250 119v-250q-121 -68 -274 -68q-111 0 -204 37t-159.5 104.5t-103.5 161.5t-37 207zM317 -287 q156 -37 242 -37q102 0 102 68q0 41 -32.5 57.5t-100.5 16.5q-10 0 -20 -1t-21 -1v184h86v-86h17q223 0 223 -174q0 -82 -60.5 -127t-177.5 -45q-100 0 -258 39v106z" />
<glyph unicode="&#xe8;" horiz-adv-x="1138" d="M80 471q0 111 36 204t102.5 161.5t157.5 106.5t202 38q229 0 357 -130t128 -368v-41h-758q8 -135 79 -208.5t189 -73.5q104 0 174 44t123 142l183 -102q-158 -283 -475 -283q-115 0 -206 36t-156.5 102.5t-100.5 160.5t-35 211zM304 1364h225l190 -272h-123zM319 588h519 q-12 104 -78 156.5t-178 52.5q-211 0 -263 -209z" />
<glyph unicode="&#xe9;" horiz-adv-x="1138" d="M80 471q0 111 36 204t102.5 161.5t157.5 106.5t202 38q229 0 357 -130t128 -368v-41h-758q8 -135 79 -208.5t189 -73.5q104 0 174 44t123 142l183 -102q-158 -283 -475 -283q-115 0 -206 36t-156.5 102.5t-100.5 160.5t-35 211zM319 588h519q-12 104 -78 156.5t-178 52.5 q-211 0 -263 -209zM437 1092l190 272h225l-292 -272h-123z" />
<glyph unicode="&#xea;" horiz-adv-x="1138" d="M80 471q0 111 36 204t102.5 161.5t157.5 106.5t202 38q229 0 357 -130t128 -368v-41h-758q8 -135 79 -208.5t189 -73.5q104 0 174 44t123 142l183 -102q-158 -283 -475 -283q-115 0 -206 36t-156.5 102.5t-100.5 160.5t-35 211zM281 1092l193 272h208l193 -272h-123 l-174 157l-174 -157h-123zM319 588h519q-12 104 -78 156.5t-178 52.5q-211 0 -263 -209z" />
<glyph unicode="&#xeb;" horiz-adv-x="1138" d="M80 471q0 111 36 204t102.5 161.5t157.5 106.5t202 38q229 0 357 -130t128 -368v-41h-758q8 -135 79 -208.5t189 -73.5q104 0 174 44t123 142l183 -102q-158 -283 -475 -283q-115 0 -206 36t-156.5 102.5t-100.5 160.5t-35 211zM275 1255q0 47 36 83t85 36t84 -34.5 t35 -84.5q0 -53 -33 -87.5t-86 -34.5q-51 0 -86 34.5t-35 87.5zM319 588h519q-12 104 -78 156.5t-178 52.5q-211 0 -263 -209zM639 1255q0 47 36 83t85 36t84 -34.5t35 -84.5q0 -53 -32.5 -87.5t-86.5 -34.5q-51 0 -86 34.5t-35 87.5z" />
<glyph unicode="&#xec;" horiz-adv-x="536" d="M-4 1364h225l190 -272h-123zM160 0v948h217v-948h-217z" />
<glyph unicode="&#xed;" horiz-adv-x="536" d="M129 1092l190 272h225l-292 -272h-123zM160 0v948h217v-948h-217z" />
<glyph unicode="&#xee;" horiz-adv-x="536" d="M-27 1092l193 272h208l193 -272h-123l-174 157l-174 -157h-123zM160 0v948h217v-948h-217z" />
<glyph unicode="&#xef;" horiz-adv-x="536" d="M-33 1255q0 47 36 83t85 36t84 -34.5t35 -84.5q0 -53 -33 -87.5t-86 -34.5q-51 0 -86 34.5t-35 87.5zM160 0v948h217v-948h-217zM331 1255q0 47 36 83t85 36t84 -34.5t35 -84.5q0 -53 -32.5 -87.5t-86.5 -34.5q-51 0 -86 34.5t-35 87.5z" />
<glyph unicode="&#xf0;" d="M80 449q0 98 40 185t113 154q141 133 355 134q151 0 276 -109q-100 217 -248 332l-290 -135l-60 116l240 111q-55 43 -114.5 78t-121.5 69l109 160q98 -59 180 -111.5t148 -105.5l317 143l59 -114l-268 -123q154 -147 231.5 -325.5t77.5 -377.5q0 -133 -36.5 -238.5 t-105.5 -179t-166 -112.5t-216 -39q-104 0 -198.5 37t-170.5 106q-74 68 -112.5 157t-38.5 188zM309 442q0 -59 22.5 -111t62.5 -91t93.5 -61.5t114.5 -22.5t114.5 22.5t93.5 61.5t62.5 91t22.5 111t-22.5 111.5t-62.5 91.5t-93 61.5t-115 22.5q-61 0 -115.5 -22.5 t-93.5 -61.5t-61.5 -91t-22.5 -112z" />
<glyph unicode="&#xf1;" d="M150 0v948h204v-155q66 100 154 144t213 44q213 0 297 -133q35 -53 41 -119.5t6 -153.5v-575h-219v487q0 80 -7.5 137.5t-29 96.5t-62 57.5t-108.5 18.5q-78 0 -136.5 -28t-92.5 -79q-29 -43 -36 -105.5t-7 -152.5v-432h-217zM325 1108q45 209 189 209q31 0 61 -8 l117 -31q12 -4 24.5 -4h22.5q63 0 82 67h90q-18 -102 -70.5 -155t-124.5 -53q-27 0 -53 6l-125 32q-10 2 -18 3.5t-19 1.5q-35 0 -55.5 -15.5t-30.5 -52.5h-90z" />
<glyph unicode="&#xf2;" d="M80 473q0 104 39 196.5t114 164.5q74 72 168.5 109.5t198.5 37.5q217 0 371 -150q74 -72 113.5 -162.5t39.5 -195.5q0 -215 -151 -360q-78 -74 -172 -113t-201 -39q-104 0 -198.5 39t-168.5 111q-153 149 -153 362zM309 471q0 -68 22.5 -125t62.5 -99t93.5 -66.5 t114.5 -24.5q59 0 112.5 24.5t93.5 66.5t63.5 99t23.5 125t-22.5 125t-62.5 99t-93 66.5t-115 24.5q-61 0 -114.5 -24.5t-93.5 -66.5t-62.5 -99t-22.5 -125zM328 1364h225l190 -272h-123z" />
<glyph unicode="&#xf3;" d="M80 473q0 104 39 196.5t114 164.5q74 72 168.5 109.5t198.5 37.5q217 0 371 -150q74 -72 113.5 -162.5t39.5 -195.5q0 -215 -151 -360q-78 -74 -172 -113t-201 -39q-104 0 -198.5 39t-168.5 111q-153 149 -153 362zM309 471q0 -68 22.5 -125t62.5 -99t93.5 -66.5 t114.5 -24.5q59 0 112.5 24.5t93.5 66.5t63.5 99t23.5 125t-22.5 125t-62.5 99t-93 66.5t-115 24.5q-61 0 -114.5 -24.5t-93.5 -66.5t-62.5 -99t-22.5 -125zM461 1092l190 272h225l-292 -272h-123z" />
<glyph unicode="&#xf4;" d="M80 473q0 104 39 196.5t114 164.5q74 72 168.5 109.5t198.5 37.5q217 0 371 -150q74 -72 113.5 -162.5t39.5 -195.5q0 -215 -151 -360q-78 -74 -172 -113t-201 -39q-104 0 -198.5 39t-168.5 111q-153 149 -153 362zM305 1092l193 272h208l193 -272h-123l-174 157 l-174 -157h-123zM309 471q0 -68 22.5 -125t62.5 -99t93.5 -66.5t114.5 -24.5q59 0 112.5 24.5t93.5 66.5t63.5 99t23.5 125t-22.5 125t-62.5 99t-93 66.5t-115 24.5q-61 0 -114.5 -24.5t-93.5 -66.5t-62.5 -99t-22.5 -125z" />
<glyph unicode="&#xf5;" d="M80 473q0 104 39 196.5t114 164.5q74 72 168.5 109.5t198.5 37.5q217 0 371 -150q74 -72 113.5 -162.5t39.5 -195.5q0 -215 -151 -360q-78 -74 -172 -113t-201 -39q-104 0 -198.5 39t-168.5 111q-153 149 -153 362zM309 471q0 -68 22.5 -125t62.5 -99t93.5 -66.5 t114.5 -24.5q59 0 112.5 24.5t93.5 66.5t63.5 99t23.5 125t-22.5 125t-62.5 99t-93 66.5t-115 24.5q-61 0 -114.5 -24.5t-93.5 -66.5t-62.5 -99t-22.5 -125zM309 1108q45 209 189 209q31 0 61 -8l117 -31q12 -4 24.5 -4h22.5q63 0 82 67h90q-18 -102 -70.5 -155t-124.5 -53 q-27 0 -53 6l-125 32q-10 2 -18 3.5t-19 1.5q-35 0 -55.5 -15.5t-30.5 -52.5h-90z" />
<glyph unicode="&#xf6;" d="M80 473q0 104 39 196.5t114 164.5q74 72 168.5 109.5t198.5 37.5q217 0 371 -150q74 -72 113.5 -162.5t39.5 -195.5q0 -215 -151 -360q-78 -74 -172 -113t-201 -39q-104 0 -198.5 39t-168.5 111q-153 149 -153 362zM299 1255q0 47 36 83t85 36t84 -34.5t35 -84.5 q0 -53 -33 -87.5t-86 -34.5q-51 0 -86 34.5t-35 87.5zM309 471q0 -68 22.5 -125t62.5 -99t93.5 -66.5t114.5 -24.5q59 0 112.5 24.5t93.5 66.5t63.5 99t23.5 125t-22.5 125t-62.5 99t-93 66.5t-115 24.5q-61 0 -114.5 -24.5t-93.5 -66.5t-62.5 -99t-22.5 -125zM663 1255 q0 47 36 83t85 36t84 -34.5t35 -84.5q0 -53 -32.5 -87.5t-86.5 -34.5q-51 0 -86 34.5t-35 87.5z" />
<glyph unicode="&#xf7;" horiz-adv-x="1705" d="M254 528v166h1198v-166h-1198zM717 229q0 57 41 97.5t96 40.5q57 0 97 -40t40 -98q0 -55 -39 -95t-98 -40t-98 39t-39 96zM717 989q0 57 41 98t96 41q57 0 97 -40.5t40 -98.5q0 -55 -39 -95t-98 -40t-98 39t-39 96z" />
<glyph unicode="&#xf8;" d="M70 29l125 127q-113 145 -113 313q0 111 40 205t109.5 162.5t166 107.5t210.5 39q188 0 318 -113l125 127l84 -79l-127 -130q115 -147 114 -315q0 -111 -40 -204t-110.5 -161.5t-167.5 -107.5t-210 -39q-186 0 -313 111l-131 -125zM305 475q0 -82 45 -170l428 418 q-72 63 -166 63q-68 0 -124 -24.5t-97 -66.5t-63.5 -98t-22.5 -122zM424 217q76 -57 170 -57q66 0 121 22.5t95 63.5t62.5 97t22.5 122q0 86 -45 170z" />
<glyph unicode="&#xf9;" d="M143 479v469h217v-534q0 -135 54.5 -196.5t187.5 -61.5t187.5 61.5t54.5 196.5v534h217v-469q0 -266 -106.5 -392t-350.5 -126q-125 0 -212 31t-142 94.5t-81 161.5t-26 231zM328 1364h225l190 -272h-123z" />
<glyph unicode="&#xfa;" d="M143 479v469h217v-534q0 -135 54.5 -196.5t187.5 -61.5t187.5 61.5t54.5 196.5v534h217v-469q0 -266 -106.5 -392t-350.5 -126q-125 0 -212 31t-142 94.5t-81 161.5t-26 231zM461 1092l190 272h225l-292 -272h-123z" />
<glyph unicode="&#xfb;" d="M143 479v469h217v-534q0 -135 54.5 -196.5t187.5 -61.5t187.5 61.5t54.5 196.5v534h217v-469q0 -266 -106.5 -392t-350.5 -126q-125 0 -212 31t-142 94.5t-81 161.5t-26 231zM305 1092l193 272h208l193 -272h-123l-174 157l-174 -157h-123z" />
<glyph unicode="&#xfc;" d="M143 479v469h217v-534q0 -135 54.5 -196.5t187.5 -61.5t187.5 61.5t54.5 196.5v534h217v-469q0 -266 -106.5 -392t-350.5 -126q-125 0 -212 31t-142 94.5t-81 161.5t-26 231zM299 1255q0 47 36 83t85 36t84 -34.5t35 -84.5q0 -53 -33 -87.5t-86 -34.5q-51 0 -86 34.5 t-35 87.5zM663 1255q0 47 36 83t85 36t84 -34.5t35 -84.5q0 -53 -32.5 -87.5t-86.5 -34.5q-51 0 -86 34.5t-35 87.5z" />
<glyph unicode="&#xfd;" horiz-adv-x="964" d="M2 948h240l174 -491q16 -47 27.5 -94.5t17.5 -92.5q10 41 28.5 84t38.5 88l234 506h235l-684 -1394h-223l260 528zM344 1092l190 272h225l-292 -272h-123z" />
<glyph unicode="&#xfe;" horiz-adv-x="1191" d="M150 -446v1996h217v-757q39 92 121.5 140t199.5 48q94 0 172 -36t134.5 -102.5t87 -159.5t30.5 -208q0 -244 -116.5 -379t-315.5 -135q-197 0 -313 162v-569h-217zM360 477q0 -154 75 -238.5t192 -84.5q123 0 190.5 80.5t67.5 234.5q0 152 -71 235.5t-193 83.5 q-123 0 -192 -80.5t-69 -230.5z" />
<glyph unicode="&#xff;" horiz-adv-x="964" d="M2 948h240l174 -491q16 -47 27.5 -94.5t17.5 -92.5q10 41 28.5 84t38.5 88l234 506h235l-684 -1394h-223l260 528zM182 1255q0 47 36 83t85 36t84 -34.5t35 -84.5q0 -53 -33 -87.5t-86 -34.5q-51 0 -86 34.5t-35 87.5zM546 1255q0 47 36 83t85 36t84 -34.5t35 -84.5 q0 -53 -32.5 -87.5t-86.5 -34.5q-51 0 -86 34.5t-35 87.5z" />
<glyph unicode="&#x152;" horiz-adv-x="2304" d="M109 731q0 158 57 295t168 248t249 168t294 57q319 0 528 -252l2 217h788v-202h-569v-361h569v-209h-569v-479h569v-213h-788l-2 225q-94 -127 -229.5 -193.5t-298.5 -66.5q-156 0 -294.5 56.5t-248.5 166.5q-111 111 -168 248t-57 295zM352 731q0 -111 39 -210t115 -177 t171 -119t200 -41q104 0 199 41t171 119t115 177t39 210q0 229 -154 389q-76 78 -171 119t-199 41t-199.5 -41t-171.5 -119q-154 -160 -154 -389z" />
<glyph unicode="&#x153;" horiz-adv-x="1943" d="M80 473q0 102 39 193.5t110 162.5q76 74 173.5 113t209.5 39q129 0 226.5 -52t162.5 -149q61 98 152.5 149.5t222.5 51.5q229 0 357.5 -130t128.5 -368v-41h-758q8 -135 78.5 -210.5t189.5 -75.5q104 0 174 46t123 144l182 -102q-158 -283 -475 -283q-129 0 -220 44 t-163 142q-86 -94 -179 -140t-208 -46q-143 0 -264 70q-127 72 -194.5 186.5t-67.5 255.5zM307 471q0 -68 22.5 -125t62.5 -99t93.5 -66.5t114.5 -24.5q59 0 113.5 24.5t94.5 66.5t63.5 99t23.5 125t-23.5 125t-63.5 99t-93 66.5t-115 24.5q-61 0 -114.5 -24.5t-93.5 -66.5 t-62.5 -99t-22.5 -125zM1118 588h518q-25 209 -254 209q-213 0 -264 -209z" />
<glyph unicode="&#x178;" horiz-adv-x="1214" d="M-10 1464h250l307 -497q4 -8 20.5 -37t40.5 -80q27 70 62 123l315 491h238l-504 -794v-670h-236v670zM305 1771q0 47 36 83t85 36t84 -34.5t35 -84.5q0 -53 -33 -87.5t-86 -34.5q-51 0 -86 34.5t-35 87.5zM669 1771q0 47 36 83t85 36t84 -34.5t35 -84.5 q0 -53 -32.5 -87.5t-86.5 -34.5q-51 0 -86 34.5t-35 87.5z" />
<glyph unicode="&#x2c6;" horiz-adv-x="1024" d="M215 1092l193 272h208l193 -272h-123l-174 157l-174 -157h-123z" />
<glyph unicode="&#x2dc;" horiz-adv-x="1024" d="M219 1108q45 209 189 209q31 0 61 -8l117 -31q12 -4 24.5 -4h22.5q63 0 82 67h90q-18 -102 -70.5 -155t-124.5 -53q-27 0 -53 6l-125 32q-10 2 -18 3.5t-19 1.5q-35 0 -55.5 -15.5t-30.5 -52.5h-90z" />
<glyph unicode="&#x2000;" horiz-adv-x="986" />
<glyph unicode="&#x2001;" horiz-adv-x="1972" />
<glyph unicode="&#x2002;" horiz-adv-x="986" />
<glyph unicode="&#x2003;" horiz-adv-x="1972" />
<glyph unicode="&#x2004;" horiz-adv-x="657" />
<glyph unicode="&#x2005;" horiz-adv-x="493" />
<glyph unicode="&#x2006;" horiz-adv-x="328" />
<glyph unicode="&#x2007;" horiz-adv-x="328" />
<glyph unicode="&#x2008;" horiz-adv-x="246" />
<glyph unicode="&#x2009;" horiz-adv-x="394" />
<glyph unicode="&#x200a;" horiz-adv-x="109" />
<glyph unicode="&#x2010;" horiz-adv-x="829" d="M147 371v200h535v-200h-535z" />
<glyph unicode="&#x2011;" horiz-adv-x="829" d="M147 371v200h535v-200h-535z" />
<glyph unicode="&#x2012;" horiz-adv-x="829" d="M147 371v200h535v-200h-535z" />
<glyph unicode="&#x2013;" horiz-adv-x="1024" d="M0 399v146h1024v-146h-1024z" />
<glyph unicode="&#x2014;" horiz-adv-x="2048" d="M0 399v146h2048v-146h-2048z" />
<glyph unicode="&#x2018;" horiz-adv-x="618" d="M123 969l246 528l127 -45l-191 -545z" />
<glyph unicode="&#x2019;" horiz-adv-x="618" d="M123 954l190 543l183 -59l-246 -531z" />
<glyph unicode="&#x201a;" horiz-adv-x="618" d="M123 -299l190 545l183 -60l-246 -530z" />
<glyph unicode="&#x201c;" horiz-adv-x="905" d="M84 969l246 528l127 -45l-189 -545zM449 969l245 528l127 -45l-190 -545z" />
<glyph unicode="&#x201d;" horiz-adv-x="905" d="M84 954l190 543l183 -59l-246 -531zM449 954l190 543l182 -59l-246 -531z" />
<glyph unicode="&#x201e;" horiz-adv-x="905" d="M84 -299l190 545l183 -60l-246 -530zM449 -299l190 545l182 -60l-246 -530z" />
<glyph unicode="&#x2022;" horiz-adv-x="1208" d="M307 762q0 61 23.5 114.5t63.5 93.5t94.5 63.5t115.5 23.5t114.5 -23.5t93.5 -63.5t63.5 -93.5t23.5 -114.5t-23.5 -114.5t-63.5 -94.5t-94 -64.5t-116 -23.5q-61 0 -115.5 23.5t-94.5 63.5t-62.5 94.5t-22.5 115.5z" />
<glyph unicode="&#x2026;" horiz-adv-x="2048" d="M211 111q0 55 38 94t93 39t93 -39t38 -94q0 -53 -38 -91t-93 -38t-93 38t-38 91zM893 111q0 55 38 94t93 39t93 -39t38 -94q0 -53 -38 -91t-93 -38t-93 38t-38 91zM1577 111q0 55 38 94t93 39t93 -39t38 -94q0 -53 -38 -91t-93 -38t-93 38t-38 91z" />
<glyph unicode="&#x202f;" horiz-adv-x="394" />
<glyph unicode="&#x2039;" horiz-adv-x="626" d="M80 469l254 408l139 -84l-207 -324l207 -324l-139 -84z" />
<glyph unicode="&#x203a;" horiz-adv-x="544" d="M80 145l207 324l-207 324l139 84l254 -408l-254 -408z" />
<glyph unicode="&#x205f;" horiz-adv-x="493" />
<glyph unicode="&#x2122;" horiz-adv-x="1705" d="M225 1366v94h467v-94h-168v-448h-129v448h-170zM809 918v542h170l141 -360l133 360h170v-542h-114v428l-160 -428h-59l-166 428v-428h-115z" />
<glyph unicode="&#x25fc;" horiz-adv-x="952" d="M0 0v952h952v-952h-952z" />
<glyph unicode="&#xfb01;" horiz-adv-x="1150" d="M14 758v190h166v254q0 188 78 278.5t244 90.5q72 0 147 -21v-196q-53 31 -106 30q-82 0 -114 -50t-32 -160v-226h228v-190h-228v-758h-217v758h-166zM748 1358q0 55 39.5 95t97.5 40q57 0 96 -38t39 -97t-39 -98t-96 -39t-97 41t-40 96zM774 0v948h219v-948h-219z" />
<glyph unicode="&#xfb02;" horiz-adv-x="1150" d="M14 758v190h166v254q0 188 78 278.5t244 90.5q72 0 147 -21v-196q-53 31 -106 30q-82 0 -114 -50t-32 -160v-226h228v-190h-228v-758h-217v758h-166zM774 0v1550h219v-1550h-219z" />
</font>
</defs>
</svg>
