<?xml version="1.0" standalone="no"?>
<!DOCTYPE svg PUBLIC "-//W3C//DTD SVG 1.1//EN" "http://www.w3.org/Graphics/SVG/1.1/DTD/svg11.dtd" >
<svg xmlns="http://www.w3.org/2000/svg" xmlns:xlink="http://www.w3.org/1999/xlink" version="1.1">
<metadata></metadata>
<defs>
<font id="futuraregular" horiz-adv-x="1146" >
<font-face units-per-em="2048" ascent="1577" descent="-471" />
<missing-glyph horiz-adv-x="573" />
<glyph horiz-adv-x="0" />
<glyph unicode="&#xd;" horiz-adv-x="573" />
<glyph unicode=" "  horiz-adv-x="573" />
<glyph unicode="&#x09;" horiz-adv-x="573" />
<glyph unicode="&#xa0;" horiz-adv-x="573" />
<glyph unicode="!" horiz-adv-x="620" d="M121 63q0 43 29.5 73t72.5 30t73 -30t30 -73t-30 -72.5t-73 -29.5t-72.5 29.5t-29.5 72.5zM193 291l157 1206h121l-160 -1206h-118z" />
<glyph unicode="&#x22;" horiz-adv-x="550" d="M100 881v553h86v-553h-86zM365 881v553h86v-553h-86z" />
<glyph unicode="#" horiz-adv-x="1574" d="M129 494l31 90h336l100 282h-360l28 90h365l176 498h110l-174 -498h271l176 498h110l-174 -498h322l-31 -90h-323l-101 -282h348l-30 -90h-351l-174 -494h-112l176 494h-270l-179 -494h-110l174 494h-334zM610 584h269l100 282h-270z" />
<glyph unicode="$" d="M72 258l86 84q106 -227 288 -260l82 618q-152 74 -221 166t-69 230q0 80 26.5 146.5t77.5 116.5t124 79.5t163 36.5l20 147h78l-20 -152q96 -10 168.5 -63t132.5 -147l-80 -72q-102 164 -236 170l-74 -565q162 -72 237 -169.5t75 -240.5q0 -186 -111.5 -299t-310.5 -123 l-23 -172h-77l24 178q-121 16 -207 86t-153 205zM358 1092q0 -90 44 -149.5t143 -113.5l69 533q-119 -10 -187.5 -84t-68.5 -186zM524 78q135 10 207 90t72 215q0 96 -49 162.5t-154 116.5z" />
<glyph unicode="%" horiz-adv-x="1466" d="M86 1014q0 104 25.5 189t68.5 146.5t101.5 94.5t124.5 33q254 0 253 -306q0 -102 -25.5 -187t-68.5 -145.5t-100 -94t-121 -33.5q-258 0 -258 303zM188 1001q0 -213 146 -213q45 0 86 29t70.5 81t47 127t17.5 169q0 106 -33 156.5t-110 50.5q-45 0 -85 -29t-71 -81 t-49.5 -126t-18.5 -164zM274 -39l824 1518h86l-824 -1518h-86zM809 272q0 104 25.5 189.5t68.5 147t101 94t124 32.5q254 0 254 -307q0 -102 -25.5 -187t-68.5 -145.5t-100.5 -93.5t-120.5 -33q-258 0 -258 303zM913 260q0 -213 144 -213q45 0 85 28.5t70.5 81t48 127 t17.5 169.5q0 106 -33 156t-108 50q-45 0 -86 -28.5t-72 -80.5t-48.5 -126t-17.5 -164z" />
<glyph unicode="&#x26;" horiz-adv-x="1232" d="M29 365q0 150 103.5 266.5t316.5 230.5q-57 92 -88 168t-31 144t23.5 124t65.5 98t100.5 64.5t127.5 22.5q66 0 121 -20.5t94 -56.5t60.5 -86t21.5 -108q0 -113 -85 -202.5t-257 -180.5l322 -452q49 47 99 100t103 113l76 -84q-41 -45 -92 -100.5t-117 -124.5l201 -281 h-139l-148 201q-127 -121 -242.5 -181.5t-238.5 -60.5q-86 0 -158.5 32t-126 87t-83 129t-29.5 158zM147 360q0 -61 20.5 -112t56.5 -90t87 -60.5t113 -21.5q106 0 205.5 55t212.5 166l-336 473q-182 -100 -270.5 -195.5t-88.5 -214.5zM444 1169q1 -101 103 -251 q141 74 211.5 143t70.5 145q0 72 -51 123t-135 51q-90 0 -144.5 -57t-54.5 -154z" />
<glyph unicode="'" horiz-adv-x="284" d="M100 881v553h86v-553h-86z" />
<glyph unicode="(" horiz-adv-x="634" d="M160 352q0 319 100 618.5t299 557.5l76 -72q-182 -238 -277.5 -523.5t-95.5 -602.5q0 -174 38 -339t114 -337l-92 -51q-162 367 -162 749z" />
<glyph unicode=")" horiz-adv-x="634" d="M-47 -328q182 238 277.5 524.5t95.5 604.5q0 174 -38 339t-114 337l92 51q162 -367 162 -750q0 -319 -100.5 -618t-298.5 -557z" />
<glyph unicode="*" horiz-adv-x="854" d="M154 1040l245 95l-217 155l54 74l208 -174l27 274l86 -10l-39 -272l244 114l33 -79l-248 -101l217 -149l-55 -72l-209 166l-25 -266l-84 12l39 260l-244 -109z" />
<glyph unicode="+" horiz-adv-x="1705" d="M254 569v80h559v570h80v-570h559v-80h-559v-569h-80v569h-559z" />
<glyph unicode="," horiz-adv-x="573" d="M-59 -229l266 508l135 -80l-324 -478z" />
<glyph unicode="-" horiz-adv-x="616" d="M41 385l14 111h437l-15 -111h-436z" />
<glyph unicode="." horiz-adv-x="573" d="M98 84q0 43 30 72.5t73 29.5t72.5 -29.5t29.5 -72.5t-29.5 -72.5t-72.5 -29.5t-73 29.5t-30 72.5z" />
<glyph unicode="/" horiz-adv-x="886" d="M0 -190l782 1687h105l-783 -1687h-104z" />
<glyph unicode="0" d="M86 539q0 213 47 393t125 307q150 240 404 240q184 0 292.5 -148.5t108.5 -431.5q0 -211 -48 -391t-126 -307q-74 -119 -175.5 -180.5t-219.5 -61.5q-193 0 -300.5 148.5t-107.5 431.5zM213 512q0 -440 279 -440q90 0 169.5 59t139 171t94.5 271.5t35 360.5 q-1 432 -277 432q-86 0 -159.5 -47t-126.5 -139q-66 -117 -110 -292t-44 -376z" />
<glyph unicode="1" d="M346 1341l51 109h351l-191 -1450h-125l178 1341h-264z" />
<glyph unicode="2" d="M2 0l526 483q96 88 172 164t129.5 146.5t81 141.5t27.5 148q0 137 -84 212t-240 75q-72 0 -133 -24.5t-107 -70.5t-74 -111.5t-30 -145.5h-120q10 219 134 341t343 122q207 0 321.5 -103.5t114.5 -287.5q0 -111 -38 -202t-106.5 -179t-166 -177.5t-213.5 -195.5 l-246 -221h643l-14 -115h-920z" />
<glyph unicode="3" d="M59 369h119q12 -141 95 -219t223 -78q80 0 146.5 24.5t113.5 69.5t72.5 107.5t25.5 138.5q0 135 -93 207.5t-274 72.5h-22l16 115q14 -2 28.5 -2h27.5q188 0 287.5 82t99.5 227q0 117 -80 186.5t-217 69.5q-129 0 -211 -69.5t-94 -180.5h-132q12 80 49 146.5t95.5 113.5 t133.5 73t161 26q94 0 171 -27t132 -74t85 -112.5t30 -145.5q0 -143 -83 -241.5t-241 -139.5q125 -33 191.5 -117.5t66.5 -211.5q0 -98 -34 -180.5t-97.5 -141.5t-151.5 -93t-198 -34q-203 0 -316.5 106.5t-124.5 301.5z" />
<glyph unicode="4" d="M4 358l944 1141l-135 -1030h156l-15 -111h-155l-49 -358h-121l49 358h-674zM219 469h471l103 705z" />
<glyph unicode="5" d="M37 178l84 96q70 -104 154.5 -153t195.5 -49q86 0 161 31.5t130 86t86 126t31 153.5q0 170 -97.5 267.5t-269.5 97.5q-92 0 -170 -29t-131 -72l-43 31l254 686h594l-15 -119h-495l-166 -432q47 20 94 30.5t96 10.5q111 0 200 -33t150.5 -93t95.5 -145t34 -188 q0 -111 -40 -206t-111 -165.5t-167 -110.5t-207 -40q-147 0 -254.5 51t-193.5 168z" />
<glyph unicode="6" d="M82 389q0 88 25.5 171t74.5 166t119 169t158 182l385 420l88 -84l-549 -602q123 59 238 59q86 0 156.5 -28.5t120.5 -82.5t78 -131t28 -173q0 -104 -37 -194.5t-103.5 -157t-158 -104.5t-199.5 -38q-96 0 -175 31t-134.5 86t-85 134t-29.5 177zM205 393q0 -145 85 -230 t226 -85q80 0 146.5 27.5t115.5 77.5t76 119t27 153q0 152 -84 234.5t-238 82.5q-76 0 -140.5 -29.5t-112.5 -81t-74.5 -120t-26.5 -148.5z" />
<glyph unicode="7" d="M170 10l739 1317h-702l18 123h893l-839 -1503z" />
<glyph unicode="8" d="M84 383q0 162 84 267.5t248 146.5q-100 55 -149.5 129.5t-49.5 179.5q0 80 31 148.5t85 118.5t129 78t161 28q184 0 286.5 -92.5t102.5 -251.5q0 -141 -74 -234.5t-205 -118.5q256 -76 256 -358q0 -98 -34.5 -183t-97 -147.5t-151 -97.5t-194.5 -35q-201 0 -314.5 113.5 t-113.5 308.5zM205 371q0 -133 84 -214t221 -81q80 0 145.5 25.5t112.5 73.5t73.5 113.5t26.5 145.5q0 133 -87 211t-230 78q-74 0 -137.5 -25.5t-109.5 -72.5t-72.5 -111.5t-26.5 -142.5zM338 1094q0 -115 70.5 -180.5t193.5 -65.5q131 0 212 71.5t81 192.5 q0 123 -70.5 190.5t-195.5 67.5q-66 0 -119 -20.5t-92 -57.5t-59.5 -87t-20.5 -111z" />
<glyph unicode="9" d="M133 985q0 104 37 194.5t103.5 157t157.5 104.5t200 38q96 0 175 -31t134 -86t85 -134t30 -177q0 -88 -25.5 -171t-75 -166t-119 -170t-157.5 -184l-385 -417l-88 84l549 602q-123 -59 -238 -60q-86 0 -156.5 29t-121 83t-78 131t-27.5 173zM256 985q0 -152 84 -234.5 t238 -82.5q76 0 141 29.5t112.5 79.5t75 119t27.5 148q0 145 -86 231.5t-227 86.5q-80 0 -146.5 -27.5t-116 -78t-76 -120t-26.5 -151.5z" />
<glyph unicode=":" horiz-adv-x="620" d="M127 90q0 43 29.5 73t72.5 30t73 -30t30 -73t-30 -72.5t-73 -29.5t-72.5 29.5t-29.5 72.5zM211 760q0 43 29.5 72.5t72.5 29.5t73 -29.5t30 -72.5t-30 -73t-73 -30t-72.5 30t-29.5 73z" />
<glyph unicode=";" horiz-adv-x="620" d="M-33 -229l266 508l136 -80l-324 -478zM211 760q0 43 29.5 72.5t72.5 29.5t73 -29.5t30 -72.5t-30 -73t-73 -30t-72.5 30t-29.5 73z" />
<glyph unicode="&#x3c;" horiz-adv-x="1705" d="M264 580v61l1178 483v-90l-1045 -424l1045 -424v-88z" />
<glyph unicode="=" horiz-adv-x="1705" d="M254 389v80h1198v-80h-1198zM254 752v79h1198v-79h-1198z" />
<glyph unicode="&#x3e;" horiz-adv-x="1705" d="M264 98v88l1045 424l-1045 424v90l1178 -483v-61z" />
<glyph unicode="?" horiz-adv-x="1013" d="M170 578q0 199 229 286q98 37 174 68t128.5 66.5t80 78.5t27.5 105q0 94 -64.5 152.5t-175.5 58.5q-209 0 -274 -242l-115 33q41 156 143.5 236.5t260.5 80.5q76 0 140 -23.5t110.5 -67.5t72 -105.5t25.5 -137.5q0 -102 -69.5 -188t-200.5 -137q-90 -35 -160 -62.5 t-117 -55.5t-71.5 -62.5t-24.5 -86.5q0 -72 50 -115.5t136 -43.5q162 0 207 174l117 -27q-68 -252 -324 -252q-139 0 -222 74t-83 193zM309 63q0 43 30 73t73 30t71.5 -30t28.5 -73t-28.5 -72.5t-71.5 -29.5t-73 29.5t-30 72.5z" />
<glyph unicode="@" horiz-adv-x="2048" d="M121 522q0 164 50 308.5t148 263.5q143 176 344 266t451 90q166 0 309.5 -45t243.5 -123q129 -98 194.5 -226t65.5 -278q0 -172 -63.5 -310t-180.5 -230q-68 -53 -146.5 -82t-158.5 -29q-193 0 -192 145q0 10 1 19.5t3 19.5q-49 -90 -125 -137t-166 -47q-154 0 -233.5 83 t-79.5 243q0 117 36.5 216t99 171.5t146.5 114.5t179 42q195 0 256 -170l61 129h80l-137 -553q-10 -41 -15.5 -67.5t-5.5 -40.5q0 -43 30 -67.5t87 -24.5q98 0 203 76q49 37 90 89t70.5 115.5t46 135t16.5 149.5q0 135 -51.5 246.5t-146.5 191.5t-229 124t-298 44 q-336 0 -569 -192q-309 -256 -310 -672q0 -162 57.5 -294t163 -226t256 -145.5t336.5 -51.5q160 0 322 49t301 144l29 -45q-293 -219 -648 -220q-377 0 -620 185q-301 227 -301 616zM690 446q0 -117 57.5 -181t159.5 -64q111 0 196 71.5t116 194.5l63 254q-23 98 -81 150.5 t-152 52.5q-76 0 -141.5 -37t-114 -101.5t-76 -151.5t-27.5 -188z" />
<glyph unicode="A" horiz-adv-x="1175" d="M-147 0l864 1499l452 -1499h-137l-139 479h-631l-270 -479h-139zM326 586h536l-182 641z" />
<glyph unicode="B" horiz-adv-x="1103" d="M82 0l192 1464h230q119 0 206 -13t152 -71q51 -47 79 -112.5t28 -145.5q0 -268 -242 -336q262 -78 262 -354q0 -104 -47 -196.5t-131 -151.5q-88 -61 -210 -72.5t-288 -11.5h-231zM221 115h182q86 0 157 6t132 35q76 35 120 110.5t44 177.5q0 164 -119 234 q-57 35 -136 40t-189 5h-111zM315 834h131q78 0 142.5 5t116.5 29q66 31 102.5 97.5t36.5 152.5q0 66 -26.5 116t-74.5 81q-43 29 -96 34t-121 5h-143z" />
<glyph unicode="C" horiz-adv-x="1421" d="M106 676q0 180 63.5 334.5t180.5 267.5q113 109 259.5 164t318.5 55q289 0 487 -162l-35 -135q-172 186 -456 186q-141 0 -261 -48t-212 -140q-102 -104 -156.5 -239.5t-54.5 -286.5q0 -135 42 -245t121.5 -187.5t193.5 -120.5t255 -43q184 0 428 135l-35 -154 q-113 -47 -217 -71.5t-209 -24.5q-162 0 -293 52.5t-224 145.5t-144.5 225t-51.5 292z" />
<glyph unicode="D" horiz-adv-x="1402" d="M82 0l192 1464h195q86 0 163 -2t148.5 -14t138 -38t130.5 -73q119 -90 184 -232t65 -325q0 -160 -49 -298t-141 -242q-135 -150 -326 -205q-82 -23 -159.5 -29t-155.5 -6h-385zM221 109h92q96 0 181.5 2t160 13t140 35.5t123.5 67.5q117 88 181 231.5t64 321.5 q0 154 -51 271.5t-149 195.5q-92 74 -208 91.5t-268 17.5h-102z" />
<glyph unicode="E" horiz-adv-x="1042" d="M82 0l192 1464h721l-14 -112h-596l-63 -480h579l-14 -110h-580l-84 -647h611l-17 -115h-735z" />
<glyph unicode="F" horiz-adv-x="1013" d="M82 0l192 1464h721l-14 -112h-596l-63 -480h579l-14 -110h-580l-100 -762h-125z" />
<glyph unicode="G" horiz-adv-x="1669" d="M106 674q0 180 63.5 336.5t180.5 267.5q231 221 580 221q205 0 354.5 -71.5t267.5 -229.5l-88 -82q-102 137 -233 205t-305 68q-139 0 -260 -50.5t-215 -144.5q-102 -102 -156.5 -237.5t-54.5 -284.5q0 -133 42 -243t118.5 -188.5t184 -121.5t240.5 -43q125 0 231.5 39 t184.5 108.5t123 167.5t51 217h-493l14 109h620v-4q0 -176 -51 -315.5t-146 -237t-231.5 -148.5t-304.5 -51q-162 0 -294 51t-226 145.5t-145.5 225.5t-51.5 291z" />
<glyph unicode="H" horiz-adv-x="1411" d="M82 0l192 1464h125l-80 -604h803l80 604h125l-192 -1464h-125l98 752h-803l-98 -752h-125z" />
<glyph unicode="I" horiz-adv-x="493" d="M86 0l195 1464h125l-193 -1464h-127z" />
<glyph unicode="J" horiz-adv-x="770" d="M-68 117l105 76q70 -109 182 -109q74 0 115 40t66.5 125t42 215t40.5 310l90 690h129l-114 -870q-23 -180 -43.5 -308t-71.5 -206q-37 -55 -104.5 -87t-159.5 -32q-96 0 -162.5 37t-114.5 119z" />
<glyph unicode="K" horiz-adv-x="1128" d="M82 0l192 1464h125l-92 -700l697 700h161l-716 -712l608 -752h-166l-588 735l-96 -735h-125z" />
<glyph unicode="L" horiz-adv-x="843" d="M82 0l192 1464h125l-178 -1349h565l-14 -115h-690z" />
<glyph unicode="M" horiz-adv-x="1705" d="M2 0l449 1503l352 -1261l676 1261l63 -1503h-123l-39 1106l-618 -1153l-320 1155l-307 -1108h-133z" />
<glyph unicode="N" horiz-adv-x="1515" d="M82 0l199 1503l876 -1224l156 1185h121l-199 -1503l-875 1223l-155 -1184h-123z" />
<glyph unicode="O" horiz-adv-x="1761" d="M106 674q0 180 63.5 336.5t180.5 267.5q111 106 260.5 162.5t317.5 56.5q166 0 301 -51t229 -144.5t145.5 -224.5t51.5 -293q0 -176 -63.5 -329.5t-184.5 -268.5q-113 -109 -264.5 -167t-325.5 -58q-160 0 -290 52.5t-224 145.5t-145.5 224t-51.5 291zM240 672 q0 -133 42 -243t119.5 -188.5t187 -121.5t245.5 -43q139 0 261 49t218 145q100 100 154.5 234t54.5 284q0 131 -42 242t-121 189.5t-189.5 122.5t-245.5 44q-137 0 -259 -50t-214 -142q-102 -104 -156.5 -237.5t-54.5 -284.5z" />
<glyph unicode="P" horiz-adv-x="1034" d="M82 0l192 1464h209q121 0 217.5 -10t176.5 -72q129 -100 129 -280q0 -215 -152 -330q-84 -63 -188.5 -75.5t-235.5 -12.5h-133l-90 -684h-125zM311 793h154q78 0 141.5 5t116.5 31q72 35 113 103.5t41 163.5q0 150 -109 213q-47 29 -103.5 35t-123.5 6h-74h-82z" />
<glyph unicode="Q" horiz-adv-x="1761" d="M106 676q0 180 63.5 334.5t180.5 267.5q113 109 259.5 164t318.5 55q166 0 300 -51t228 -143.5t145.5 -222.5t51.5 -287q0 -219 -92.5 -398.5t-268.5 -296.5l211 -245h-147l-164 192q-98 -41 -188.5 -61.5t-178.5 -20.5q-164 0 -296 51.5t-226 145.5t-145.5 225 t-51.5 291zM240 672q0 -133 42 -244t120.5 -188.5t190.5 -120.5t251 -43q125 0 266 59l-295 346h148l249 -291q147 100 228.5 257t81.5 346q0 131 -42 239.5t-121 187t-188.5 122.5t-244.5 44q-139 0 -260 -49t-215 -143q-102 -102 -156.5 -237.5t-54.5 -284.5z" />
<glyph unicode="R" horiz-adv-x="1081" d="M82 0l192 1464h209q121 0 217.5 -10t176.5 -72q129 -100 129 -280q0 -197 -123 -306.5t-351 -111.5l453 -684h-145l-447 684h-96l-90 -684h-125zM311 793h154q78 0 141.5 5t116.5 31q72 35 113 103.5t41 163.5q0 150 -109 213q-47 29 -103.5 35t-123.5 6h-74h-82z" />
<glyph unicode="S" horiz-adv-x="1019" d="M4 264l86 84q63 -135 148.5 -201.5t201.5 -66.5q137 0 219 84t82 225q0 61 -15 104.5t-46 78t-77 64.5t-107 62q-80 43 -140.5 82t-101.5 85t-61.5 105.5t-20.5 141.5t29.5 152.5t84 123t130.5 81t168 28.5q119 0 207 -52t159 -165l-84 -74q-109 180 -284 180 q-63 0 -116.5 -20t-92.5 -57t-60.5 -88.5t-21.5 -110.5t17.5 -101t51 -76t81.5 -63.5t110 -62.5q76 -41 136.5 -80t100 -86t61 -107.5t21.5 -142.5q0 -96 -31.5 -174t-88 -135t-136 -88t-176.5 -31q-297 0 -434 301z" />
<glyph unicode="T" horiz-adv-x="995" d="M86 1348l16 116h930l-16 -116h-385l-176 -1348h-127l178 1348h-420z" />
<glyph unicode="U" horiz-adv-x="1384" d="M133 391q0 61 8.5 141t22.5 183l98 749h125l-119 -901q-6 -43 -8 -76.5t-2 -62.5q0 -168 90 -260t254 -92q236 0 356 166q63 86 84 195.5t39 246.5l103 784h125l-109 -823q-10 -70 -17 -134.5t-21.5 -123.5t-37 -113.5t-59.5 -103.5q-76 -100 -196.5 -154.5t-274.5 -54.5 q-221 0 -341 113.5t-120 320.5z" />
<glyph unicode="V" horiz-adv-x="1157" d="M61 1464h132l294 -1192l600 1192h134l-775 -1503z" />
<glyph unicode="W" horiz-adv-x="1849" d="M76 1464h129l258 -1149l506 1192l272 -1194l496 1151h133l-662 -1515l-272 1208l-514 -1208z" />
<glyph unicode="X" horiz-adv-x="1052" d="M-86 0l539 756l-342 708h139l291 -620l430 620h147l-520 -735l369 -729h-142l-315 639l-438 -639h-158z" />
<glyph unicode="Y" horiz-adv-x="1013" d="M41 1464h137l330 -661l455 661h141l-541 -786l-90 -678h-127l90 684z" />
<glyph unicode="Z" horiz-adv-x="1138" d="M-43 0l969 1348h-729l16 116h940l-969 -1347h787l-15 -117h-999z" />
<glyph unicode="[" horiz-adv-x="634" d="M123 -369l246 1866h274l-12 -102h-170l-217 -1659h168l-15 -105h-274z" />
<glyph unicode="\" horiz-adv-x="886" d="M162 1497h104l459 -1687h-104z" />
<glyph unicode="]" horiz-adv-x="634" d="M-49 -369l14 105h168l219 1659h-170l15 102h274l-246 -1866h-274z" />
<glyph unicode="^" horiz-adv-x="2048" d="M424 901l539 557h118l541 -557h-125l-473 469l-475 -469h-125z" />
<glyph unicode="_" horiz-adv-x="1024" d="M0 -403h1024v-80h-1024v80z" />
<glyph unicode="`" horiz-adv-x="1024" d="M299 1380h147l224 -350h-90z" />
<glyph unicode="a" horiz-adv-x="1095" d="M53 412q0 109 34 202t92.5 160.5t139 106.5t177.5 39q117 0 191.5 -51.5t119.5 -159.5l24 178h119l-116 -887h-119l18 133q-111 -172 -309 -172q-80 0 -147.5 33t-117.5 91t-78 141t-28 186zM178 406q0 -160 77 -251.5t202 -91.5q68 0 126 30t101 85t68.5 132t25.5 169 q0 156 -75.5 248t-198.5 92q-68 0 -127.5 -29.5t-103.5 -85t-69.5 -131t-25.5 -167.5z" />
<glyph unicode="b" horiz-adv-x="1095" d="M66 0l204 1550h119l-104 -798q61 86 135 126t172 40q80 0 148.5 -32t118.5 -91.5t78 -142.5t28 -183q0 -109 -34 -202t-93.5 -160.5t-140.5 -106.5t-175 -39q-227 0 -313 213l-23 -174h-120zM240 403q0 -156 75.5 -248t198.5 -92q68 0 127 31t103 85t70 130t26 168 q0 80 -20.5 142.5t-58.5 107.5t-89.5 68.5t-112.5 23.5q-68 0 -126 -29.5t-101 -85t-67.5 -132t-24.5 -169.5z" />
<glyph unicode="c" horiz-adv-x="909" d="M45 408q0 111 38 204t105.5 161.5t161.5 107.5t207 39q168 0 297 -91l-31 -112q-133 96 -272 96q-82 0 -151.5 -29.5t-120 -83t-79 -126t-28.5 -160.5q0 -78 23.5 -140.5t67.5 -108.5t104.5 -70.5t134.5 -24.5q70 0 133 25.5t131 76.5l-25 -145q-125 -66 -243 -66 q-104 0 -187.5 33t-142.5 91t-91 141t-32 182z" />
<glyph unicode="d" horiz-adv-x="1095" d="M53 414q0 111 34 204t93.5 160.5t140 105.5t177.5 38q117 0 190.5 -51.5t118.5 -161.5l113 841h118l-202 -1550h-121l18 133q-115 -172 -307 -172q-80 0 -148.5 33t-117.5 92t-78 142t-29 186zM178 408q0 -160 78 -252.5t201 -92.5q68 0 126 31t101 86.5t68.5 132 t25.5 168.5q0 156 -75.5 248t-198.5 92q-68 0 -127.5 -29.5t-103.5 -85t-69.5 -131t-25.5 -167.5z" />
<glyph unicode="e" horiz-adv-x="1046" d="M47 387q0 119 36 217t99.5 168t152.5 109t193 39q188 0 291 -105.5t103 -298.5q0 -39 -7 -90h-743v-23q0 -162 82 -249.5t229 -87.5q180 0 293 167l82 -79q-74 -100 -165 -146.5t-212 -46.5q-100 0 -180 31t-136 87t-87 135t-31 173zM184 526h619q0 141 -68.5 216 t-193.5 75q-279 0 -357 -291z" />
<glyph unicode="f" horiz-adv-x="544" d="M45 782l14 105h160l53 399q10 74 25.5 127t41.5 89t65.5 52.5t99.5 16.5q80 0 141 -29l-16 -106q-33 12 -58.5 19t-48.5 7q-66 0 -92.5 -44t-38.5 -142l-51 -389h211l-14 -105h-211l-103 -782h-121l105 782h-162z" />
<glyph unicode="g" horiz-adv-x="1095" d="M16 -104h123v-5q0 -104 73 -167.5t189 -63.5q80 0 134.5 24.5t91.5 72.5t58.5 120t33.5 168l14 102q-111 -170 -307 -170q-80 0 -148.5 32t-117.5 90.5t-78 139t-29 181.5q0 106 33 197.5t92.5 159t140 105.5t177.5 38q117 0 191.5 -50.5t119.5 -158.5l24 176h119 l-112 -856q-33 -240 -134.5 -358.5t-310.5 -118.5q-80 0 -147.5 24.5t-116.5 68.5t-79 107.5t-34 141.5zM178 416q0 -158 77 -248t202 -90q68 0 126 29.5t101 84t68.5 130t25.5 165.5q0 154 -75.5 244t-198.5 90q-68 0 -127.5 -29.5t-103.5 -83t-69.5 -128t-25.5 -164.5z " />
<glyph unicode="h" horiz-adv-x="1054" d="M66 0l204 1550h119l-110 -807q137 176 329 177q127 0 201 -68t74 -190q0 -16 -2 -41t-7 -58l-73 -563h-121l74 555q6 43 6 86q0 86 -52.5 130t-150.5 44q-264 0 -313 -373l-58 -442h-120z" />
<glyph unicode="i" horiz-adv-x="460" d="M76 0l117 887h120l-116 -887h-121zM201 1214q0 39 25.5 65t64.5 26t64.5 -26t25.5 -65t-25.5 -64.5t-64.5 -25.5t-64.5 25.5t-25.5 64.5z" />
<glyph unicode="j" horiz-adv-x="460" d="M16 -446l177 1333h120l-176 -1333h-121zM201 1214q0 39 25.5 65t64.5 26t64.5 -26t25.5 -65t-25.5 -64.5t-64.5 -25.5t-64.5 25.5t-25.5 64.5z" />
<glyph unicode="k" horiz-adv-x="923" d="M66 0l204 1550h119l-137 -1052l489 389h187l-531 -410l432 -477h-147l-434 471l-62 -471h-120z" />
<glyph unicode="l" horiz-adv-x="460" d="M76 0l205 1550h118l-204 -1550h-119z" />
<glyph unicode="m" horiz-adv-x="1583" d="M66 0l114 887h113l-23 -139q131 176 312 176q100 0 164.5 -49.5t87.5 -143.5q131 193 319 193q117 0 185.5 -68t68.5 -190q0 -16 -2 -40t-6 -59l-72 -567h-117l72 559q6 37 6 86q0 86 -48 130t-140 44q-123 0 -192.5 -93t-94.5 -280l-57 -446h-119l74 559q6 43 6 80 q0 180 -189 180q-125 0 -193.5 -93t-92.5 -280l-58 -446h-118z" />
<glyph unicode="n" horiz-adv-x="1054" d="M66 0l116 887h117l-20 -144q137 176 329 177q127 0 201 -68t74 -190q0 -16 -2 -41t-7 -58l-73 -563h-121l74 555q6 43 6 86q0 86 -52.5 130t-150.5 44q-264 0 -313 -373l-58 -442h-120z" />
<glyph unicode="o" horiz-adv-x="1118" d="M45 406q0 111 38 205t105.5 162.5t159.5 107.5t201 39q100 0 183 -33t142.5 -91.5t92 -139.5t32.5 -177q0 -113 -37.5 -208t-104 -163.5t-159 -107.5t-200.5 -39q-102 0 -186.5 33t-143.5 91t-91 140.5t-32 180.5zM172 412q0 -76 23.5 -139.5t66.5 -108.5t103.5 -69.5 t134.5 -24.5q80 0 147.5 29.5t116.5 84t77.5 127t28.5 158.5q0 74 -24.5 137.5t-67.5 108.5t-103 70.5t-132 25.5q-80 0 -147.5 -29.5t-118 -83t-78 -126t-27.5 -160.5z" />
<glyph unicode="p" horiz-adv-x="1095" d="M6 -446l176 1333h117l-18 -137q66 88 138.5 129t170.5 41q80 0 148.5 -33t118.5 -91.5t79 -142.5t29 -184q0 -111 -34 -204t-92.5 -160.5t-140.5 -106.5t-176 -39q-225 0 -313 213l-82 -618h-121zM240 403q0 -156 75.5 -249t198.5 -93q68 0 127 31t103 85t70 131t26 169 q0 160 -79 251t-202 91q-68 0 -126 -29.5t-101 -85t-67.5 -132t-24.5 -169.5z" />
<glyph unicode="q" horiz-adv-x="1095" d="M53 412q0 111 34 204t92.5 160.5t139 105.5t177.5 38q117 0 190.5 -50.5t120.5 -160.5l24 178h121l-176 -1333h-121l78 575q-117 -168 -307 -168q-80 0 -148.5 33t-117.5 91t-78 141t-29 186zM178 406q0 -160 78 -252.5t201 -92.5q68 0 126 31t101 86t68.5 132t25.5 169 q0 156 -75.5 248t-198.5 92q-68 0 -127.5 -29.5t-103.5 -85t-69.5 -131t-25.5 -167.5z" />
<glyph unicode="r" horiz-adv-x="626" d="M66 0l116 887h117l-23 -150q125 184 269 185q25 0 50.5 -4.5t53.5 -14.5l-28 -121q-31 10 -55.5 17.5t-41.5 7.5q-236 0 -280 -356l-58 -451h-120z" />
<glyph unicode="s" horiz-adv-x="806" d="M-8 135l78 76q117 -150 278 -150q92 0 146.5 48.5t54.5 113.5q0 37 -11.5 62.5t-35 44t-57 34t-76.5 33.5q-63 25 -111.5 49.5t-81.5 53t-49 65.5t-16 88q0 119 80.5 194t218.5 75q152 0 288 -131l-71 -80q-103 114 -228 114h-2q-78 0 -126 -45t-48 -116 q0 -37 16.5 -61.5t45 -43t69.5 -34t90 -36.5q115 -49 169.5 -106t54.5 -145q0 -123 -86 -200t-240 -77q-113 0 -198 41t-152 133z" />
<glyph unicode="t" horiz-adv-x="497" d="M37 782l12 105h150l47 364h119l-48 -364h181l-15 -105h-180l-102 -782h-119l102 782h-147z" />
<glyph unicode="u" horiz-adv-x="1052" d="M100 250q0 53 6.5 113.5t16.5 125.5l53 398h119l-49 -377q-10 -78 -17.5 -139.5t-7.5 -106.5q0 -90 58.5 -141t164.5 -51q72 0 122 23.5t84 72.5t55.5 121.5t33.5 171.5l58 426h118l-57 -436q-16 -125 -39.5 -219.5t-83.5 -159.5q-100 -111 -295 -111q-160 0 -250 78 t-90 211z" />
<glyph unicode="v" horiz-adv-x="890" d="M2 887h127l215 -694l397 694h136l-566 -942z" />
<glyph unicode="w" horiz-adv-x="1327" d="M8 887h129l191 -664l342 729l168 -727l372 662h133l-548 -942l-166 710l-328 -710z" />
<glyph unicode="x" horiz-adv-x="825" d="M-63 0l376 455l-270 432h135l215 -363l291 363h156l-387 -447l268 -440h-137l-209 365l-283 -365h-155z" />
<glyph unicode="y" horiz-adv-x="890" d="M-45 -446l309 516l-258 817h131l207 -701l404 701h135l-797 -1333h-131z" />
<glyph unicode="z" horiz-adv-x="815" d="M-59 0l643 782h-518l14 105h725l-637 -781h545l-15 -106h-757z" />
<glyph unicode="{" horiz-adv-x="1024" d="M176 485v90q14 -2 26.5 -2h22.5q141 0 197.5 66t56.5 221v240q0 104 12.5 176t48 117t99 64.5t166.5 19.5h43v-88h-37q-74 0 -119 -13.5t-69.5 -44.5t-32.5 -82t-8 -125v-241q0 -76 -7.5 -134.5t-29 -100.5t-59 -70.5t-99.5 -47.5q61 -18 100 -46.5t59.5 -71.5t28 -100.5 t7.5 -133.5v-241q0 -74 8 -124.5t32.5 -81t69.5 -44t117 -13.5h39v-88h-43q-102 0 -166 19.5t-99.5 63.5t-48 116t-12.5 176v240q0 156 -57 221t-201 65q-10 0 -21.5 -1t-23.5 -1z" />
<glyph unicode="|" horiz-adv-x="1024" d="M467 -483v2048h90v-2048h-90z" />
<glyph unicode="}" horiz-adv-x="1024" d="M176 -326h39q72 0 117 13.5t69.5 44t32.5 81t8 124.5v241q0 76 7.5 133.5t29 100.5t60.5 71.5t100 46.5q-61 18 -100 47t-60.5 71t-29 100.5t-7.5 134.5v241q0 74 -8 125t-32.5 82t-69.5 44.5t-119 13.5h-37v88h43q102 0 166 -19.5t99.5 -64.5t48 -117t12.5 -176v-240 q0 -78 13 -132t44 -89t80 -50.5t121 -15.5q10 0 21.5 1t23.5 1v-90q-12 0 -23.5 1t-21.5 1q-72 0 -121 -15t-80 -50t-44 -89t-13 -132v-240q0 -104 -12.5 -176t-48 -116t-99 -63.5t-166.5 -19.5h-43v88z" />
<glyph unicode="~" horiz-adv-x="1705" d="M178 481v92q104 72 199.5 110t187.5 38q80 0 149.5 -22.5t139.5 -47.5q72 -27 141.5 -49t147.5 -22q92 0 184 41t203 118v-92q-104 -72 -199.5 -109.5t-187.5 -37.5q-82 0 -151.5 22.5t-137.5 46.5q-74 27 -143.5 49.5t-145.5 22.5q-92 0 -184 -41t-203 -119z" />
<glyph unicode="&#xa1;" horiz-adv-x="620" d="M141 -39l158 1208h119l-158 -1208h-119zM285 1395q0 43 29.5 72.5t72.5 29.5t72.5 -29.5t29.5 -72.5t-29.5 -73t-72.5 -30t-72.5 30t-29.5 73z" />
<glyph unicode="&#xa2;" d="M141 434q0 106 33 197.5t94.5 160t147.5 110.5t192 52l23 170h78l-23 -170q150 -10 266 -90l-30 -112q-127 92 -250 98l-99 -744q8 0 15.5 -1t15.5 -1q127 0 260 105l-24 -146q-63 -33 -126 -49t-132 -16h-23l-27 -203h-75l26 213q-80 16 -142 55t-107.5 94.5t-69 126 t-23.5 150.5zM272 451q0 -125 58.5 -210t169.5 -122l94 727q-152 -29 -237 -134.5t-85 -260.5z" />
<glyph unicode="&#xa3;" d="M57 66q20 29 57.5 56.5t92.5 59.5q59 74 88 142.5t29 156.5q0 25 -2.5 54.5t-6.5 64.5h-252l11 84h221q-35 84 -57.5 161t-22.5 163q0 98 37 184t101.5 149.5t150.5 99.5t186 36q193 0 304.5 -108.5t111.5 -303.5v-30.5t-2 -30.5h-123v28q0 160 -77 246t-212 86 q-74 0 -137 -28.5t-110.5 -78t-75 -116t-27.5 -142.5q0 -68 23.5 -143.5t52.5 -171.5h405l-10 -84h-375q6 -47 6 -86q0 -98 -33.5 -177t-107.5 -155q31 6 62 6q59 0 131 -22q35 -12 68.5 -27.5t67.5 -30t67.5 -24.5t68.5 -10q59 0 109.5 30.5t113.5 83.5l76 -77 q-74 -76 -147.5 -113t-157.5 -37q-49 0 -94 14.5t-95 32.5q-63 25 -122.5 48.5t-131.5 23.5q-104 0 -217 -105z" />
<glyph unicode="&#xa4;" horiz-adv-x="1241" d="M94 418l207 205q-92 117 -92 262t92 262l-207 205l58 59l206 -207q119 94 263 94q145 0 264 -94l205 207l59 -59l-207 -205q92 -117 92 -262t-92 -262l207 -205l-59 -60l-205 207q-117 -92 -264 -92q-145 0 -263 92l-206 -207zM291 887q0 -68 25.5 -128.5t70.5 -105.5 t105.5 -71.5t130.5 -26.5t130 26.5t105 71.5t70.5 105.5t25.5 128.5t-25.5 128t-70.5 105t-105.5 71t-129.5 26q-70 0 -130.5 -27t-105.5 -71t-70.5 -104.5t-25.5 -127.5z" />
<glyph unicode="&#xa5;" d="M2 623l10 96h473l-88 174h-360l12 96h297l-235 463h129l335 -676l467 676h132l-318 -463h297l-12 -96h-353l-124 -174h454l-12 -96h-479l-82 -623h-127l82 623h-498z" />
<glyph unicode="&#xa6;" horiz-adv-x="1024" d="M467 -350v758h90v-758h-90zM467 674v758h90v-758h-90z" />
<glyph unicode="&#xa7;" horiz-adv-x="1042" d="M45 -25h117v-24q0 -254 231 -254q109 0 172.5 64.5t63.5 170.5q0 51 -15.5 89t-46 69t-77 56.5t-107.5 52.5q-72 31 -126 63.5t-90 72.5t-53.5 90t-17.5 116q0 147 84 246.5t236 125.5q-182 86 -183 261q0 70 26 130t72 104t109.5 68.5t139.5 24.5q154 0 241.5 -89 t87.5 -249v-30h-108v18q0 121 -58.5 184.5t-167.5 63.5q-102 0 -165.5 -59.5t-63.5 -151.5q0 -47 15.5 -83t46 -65.5t76.5 -54t108 -49.5q143 -59 216 -137t73 -215q0 -297 -326 -365q190 -84 190 -278q0 -74 -25.5 -137.5t-71.5 -109.5t-110.5 -73t-142.5 -27 q-170 0 -260 92.5t-90 266.5v22zM213 551q0 -117 69.5 -185.5t188.5 -68.5q129 0 208 78t79 209q0 117 -70 188.5t-186 71.5q-63 0 -116.5 -21.5t-91.5 -59.5t-59.5 -92t-21.5 -120z" />
<glyph unicode="&#xa8;" horiz-adv-x="1024" d="M326 1190q0 33 26.5 59.5t61.5 26.5t60.5 -25.5t25.5 -60.5q0 -39 -24.5 -63.5t-61.5 -24.5q-35 0 -61.5 25.5t-26.5 62.5zM647 1190q0 33 26.5 59.5t61.5 26.5t60.5 -25.5t25.5 -60.5q0 -39 -24.5 -63.5t-61.5 -24.5q-35 0 -61.5 25.5t-26.5 62.5z" />
<glyph unicode="&#xa9;" horiz-adv-x="1705" d="M123 721q0 145 55 278.5t162 241.5q102 104 232 157.5t280 53.5t283 -55.5t237 -159.5t157.5 -236.5t53.5 -279.5q0 -152 -53 -281t-158 -231q-109 -106 -242 -162.5t-278 -56.5q-147 0 -278.5 56t-235.5 161q-104 104 -159.5 235t-55.5 279zM195 721q0 -131 50 -250 t144 -213t213 -144.5t250 -50.5q129 0 250 50.5t219 146.5q92 92 141 209t49 252t-49 254t-141 211q-96 96 -215 145t-254 49t-252 -49t-209 -141q-96 -98 -146 -218t-50 -251zM471 725q0 104 28.5 187t80 141.5t123 90.5t157.5 32q133 0 223.5 -72t102.5 -186h-105 q-20 82 -79.5 127t-147.5 45q-125 0 -195.5 -95.5t-70.5 -275.5q0 -174 71.5 -269.5t194.5 -95.5q92 0 156.5 51.5t83.5 141.5h102q-6 -61 -33.5 -112.5t-74 -88.5t-107.5 -57.5t-133 -20.5q-170 0 -273.5 120t-103.5 337z" />
<glyph unicode="&#xaa;" horiz-adv-x="821" d="M41 1133q0 76 24.5 140t69.5 112.5t105.5 75t132.5 26.5q168 0 233 -148l19 125h88l-88 -620h-88l14 92q-82 -119 -234 -119q-59 0 -110 22.5t-88 63.5t-57.5 99.5t-20.5 130.5zM133 1128q0 -113 58.5 -176t150.5 -63q51 0 95 20.5t77 59.5t51.5 92t18.5 119 q0 109 -56.5 173t-148.5 64q-51 0 -96 -20.5t-78 -59.5t-52.5 -92t-19.5 -117z" />
<glyph unicode="&#xab;" horiz-adv-x="915" d="M45 446l365 416l69 -67l-311 -363l217 -352l-80 -55zM391 442l365 418l69 -67l-311 -365l217 -350l-80 -55z" />
<glyph unicode="&#xac;" horiz-adv-x="1705" d="M254 776v80h1198v-502h-80v422h-1118z" />
<glyph unicode="&#xad;" horiz-adv-x="616" d="M41 385l14 111h437l-15 -111h-436z" />
<glyph unicode="&#xae;" horiz-adv-x="1705" d="M123 721q0 145 55 278.5t162 241.5q102 104 232 157.5t280 53.5t283 -55.5t237 -159.5t157.5 -236.5t53.5 -279.5q0 -152 -53 -281t-158 -231q-109 -106 -242 -162.5t-278 -56.5q-147 0 -278.5 56t-235.5 161q-104 104 -159.5 235t-55.5 279zM195 721q0 -131 50 -250 t144 -213t213 -144.5t250 -50.5q129 0 250 50.5t219 146.5q92 92 141 209t49 252t-49 254t-141 211q-96 96 -215 145t-254 49t-252 -49t-209 -141q-96 -98 -146 -218t-50 -251zM569 309v846h305q176 0 262.5 -55.5t86.5 -177.5q0 -88 -54.5 -148.5t-148.5 -71.5l190 -393 h-131l-182 377h-213v-377h-115zM684 764h168q133 0 193.5 32.5t60.5 129.5q0 80 -62.5 115.5t-191.5 35.5h-168v-313z" />
<glyph unicode="&#xaf;" horiz-adv-x="1024" d="M313 1130l15 117h512l-15 -117h-512z" />
<glyph unicode="&#xb0;" horiz-adv-x="673" d="M63 1176q0 57 21.5 107t58.5 87t87.5 58.5t107.5 21.5q55 0 105.5 -21.5t87 -58.5t58 -87t21.5 -107q0 -55 -21.5 -105.5t-58 -87.5t-87 -58.5t-107.5 -21.5t-107.5 21.5t-87.5 58.5t-57.5 86t-20.5 107zM125 1176q0 -45 16.5 -84t46 -68t68.5 -45t82 -16q45 0 84 16 t67.5 46t45 69t16.5 82t-16.5 81.5t-46 68.5t-68.5 46.5t-82 16.5q-90 0 -151.5 -61.5t-61.5 -151.5z" />
<glyph unicode="&#xb1;" horiz-adv-x="1705" d="M254 61v80h1198v-80h-1198zM254 727v80h559v354h80v-354h559v-80h-559v-352h-80v352h-559z" />
<glyph unicode="&#xb2;" horiz-adv-x="757" d="M2 575l346 291q129 106 199.5 186.5t70.5 172.5q0 84 -54 128t-158 44q-96 0 -160 -56.5t-68 -154.5h-80q6 131 88 204.5t228 73.5q135 0 211.5 -62.5t76.5 -172.5q0 -66 -24.5 -121t-69.5 -108.5t-109.5 -106.5t-142.5 -117l-163 -131h425l-10 -70h-606z" />
<glyph unicode="&#xb3;" horiz-adv-x="757" d="M39 797h78q10 -86 64.5 -132.5t146.5 -46.5q106 0 170.5 56.5t64.5 148.5q0 80 -61.5 124t-179.5 44h-15l10 68h37q123 0 189.5 49t66.5 135q0 70 -52 112t-144 42q-86 0 -139.5 -42t-61.5 -108h-88q16 98 96 156.5t195 58.5q125 0 199.5 -59.5t74.5 -155.5 q0 -86 -54 -145.5t-159 -81.5q82 -20 126 -71.5t44 -127.5q0 -59 -22.5 -108t-64.5 -84t-100.5 -55.5t-129.5 -20.5q-133 0 -209 63.5t-82 180.5z" />
<glyph unicode="&#xb4;" horiz-adv-x="1024" d="M422 1030l244 350h147l-299 -350h-92z" />
<glyph unicode="&#xb5;" horiz-adv-x="1093" d="M-111 -424l316 1487h121l-123 -590q-8 -39 -12.5 -72.5t-4.5 -68.5q0 -127 59.5 -192.5t174.5 -65.5q123 0 216 105.5t140 316.5l125 567h121l-166 -787q-10 -51 -17.5 -84.5t-7.5 -50.5q0 -63 68 -63h13.5t25.5 2l-18 -96q-23 -4 -41.5 -8.5t-34.5 -4.5q-133 0 -133 127 q0 10 1 21.5t3 23.5q-43 -84 -123 -128t-189 -44q-98 0 -169.5 45t-104.5 127l-119 -567h-121z" />
<glyph unicode="&#xb6;" horiz-adv-x="1024" d="M90 1130q0 76 27.5 140.5t79 110.5t125 72t163.5 26h447v-64h-129v-1415h-70v1415h-192v-1415h-70v782q-180 8 -280.5 103.5t-100.5 244.5z" />
<glyph unicode="&#xb7;" horiz-adv-x="573" d="M184 719q0 43 30 72.5t73 29.5t72.5 -29.5t29.5 -72.5t-29.5 -73t-72.5 -30t-73 30t-30 73z" />
<glyph unicode="&#xb8;" horiz-adv-x="1024" d="M160 -416l26 78q135 -39 211 -39q70 0 106 29t36 82q0 49 -41 68.5t-129 19.5h-31l59 178h66l-37 -111h20q205 0 205 -155q0 -90 -60.5 -142.5t-176.5 -52.5q-59 0 -121 11.5t-133 33.5z" />
<glyph unicode="&#xb9;" horiz-adv-x="757" d="M229 1380l33 66h232l-125 -871h-84l118 805h-174z" />
<glyph unicode="&#xba;" horiz-adv-x="839" d="M35 1128q0 76 28.5 142.5t79 114t119 75t150.5 27.5q76 0 137 -22.5t106 -63.5t70 -97.5t25 -123.5q0 -80 -28 -146.5t-78 -115t-119.5 -75t-151.5 -26.5q-78 0 -139.5 22.5t-106.5 63.5t-68.5 98t-23.5 127zM129 1133q0 -109 67.5 -174.5t178.5 -65.5q59 0 110.5 21.5 t88 58.5t58 88t21.5 110q0 51 -18.5 95.5t-51 77t-77.5 50t-98 17.5q-59 0 -110.5 -20.5t-88.5 -57.5t-58.5 -88t-21.5 -112z" />
<glyph unicode="&#xbb;" horiz-adv-x="915" d="M16 88l310 365l-217 352l79 55l261 -422l-363 -415zM362 86l310 365l-217 350l80 57l260 -422l-363 -416z" />
<glyph unicode="&#xbc;" horiz-adv-x="1787" d="M219 1384l31 60h221l-121 -811h-78l113 751h-166zM381 -39l930 1518h94l-930 -1518h-94zM1067 201l596 639l-86 -578h98l-8 -61h-98l-31 -201h-78l33 201h-426zM1202 262h297l66 395z" />
<glyph unicode="&#xbd;" horiz-adv-x="1787" d="M219 1384l31 60h221l-121 -811h-78l113 751h-166zM381 -39l930 1518h94l-930 -1518h-94zM1067 0l332 270q123 98 190.5 174t67.5 162q0 78 -53.5 120t-151.5 42q-92 0 -152.5 -53t-64.5 -146h-76q6 123 84 191.5t217 68.5q129 0 202 -57t73 -162q0 -61 -23.5 -112.5 t-68 -100.5t-104.5 -99t-134 -110l-156 -125h406l-10 -63h-578z" />
<glyph unicode="&#xbe;" horiz-adv-x="1787" d="M37 840h76q8 -80 60 -123t138 -43q104 0 166 52t62 138q0 156 -232 156h-14l10 65q10 -2 18.5 -2h16.5q119 0 181.5 46.5t62.5 127.5q0 66 -50.5 105t-136.5 39q-82 0 -133 -39t-59 -102h-82q14 92 90 146t184 54q121 0 192.5 -55t71.5 -145q0 -80 -52 -135.5t-152 -77.5 q78 -18 120.5 -65.5t42.5 -119.5q0 -111 -81.5 -181.5t-221.5 -70.5q-129 0 -200.5 59.5t-77.5 170.5zM381 -39l930 1518h94l-930 -1518h-94zM1067 201l596 639l-86 -578h98l-8 -61h-98l-31 -201h-78l33 201h-426zM1202 262h297l66 395z" />
<glyph unicode="&#xbf;" horiz-adv-x="1013" d="M84 293q0 102 68.5 188t201.5 137q90 35 160 63t117 55.5t71.5 62.5t24.5 86q0 72 -50 115.5t-136 43.5q-162 0 -207 -174l-117 27q68 252 324 252q139 0 222 -74t83 -192q0 -98 -59.5 -171t-172.5 -116q-98 -37 -175 -67.5t-129 -66.5t-78.5 -79t-26.5 -104 q0 -94 65.5 -152.5t175.5 -58.5q207 0 273 239l117 -31q-41 -156 -143.5 -236.5t-260.5 -80.5q-78 0 -141.5 23.5t-109.5 67.5t-71.5 105.5t-25.5 137.5zM502 1395q0 43 29.5 72.5t72.5 29.5t73 -29.5t30 -72.5t-30 -73t-73 -30t-72.5 30t-29.5 73z" />
<glyph unicode="&#xc0;" horiz-adv-x="1175" d="M-147 0l864 1499l452 -1499h-137l-139 479h-631l-270 -479h-139zM326 586h536l-182 641zM469 1958h147l224 -350h-90z" />
<glyph unicode="&#xc1;" horiz-adv-x="1175" d="M-147 0l864 1499l452 -1499h-137l-139 479h-631l-270 -479h-139zM326 586h536l-182 641zM592 1608l244 350h147l-299 -350h-92z" />
<glyph unicode="&#xc2;" horiz-adv-x="1175" d="M-147 0l864 1499l452 -1499h-137l-139 479h-631l-270 -479h-139zM326 586h536l-182 641zM440 1608l267 350h133l153 -350h-82l-145 248l-234 -248h-92z" />
<glyph unicode="&#xc3;" horiz-adv-x="1175" d="M-147 0l864 1499l452 -1499h-137l-139 479h-631l-270 -479h-139zM326 586h536l-182 641zM461 1659q35 96 77 141.5t111 45.5q31 0 56 -8l92 -29q16 -4 30.5 -8t26.5 -4q66 0 92 71h80q-33 -94 -76 -137t-112 -43q-31 0 -68 10l-94 29q-10 4 -21.5 7t-23.5 3 q-61 0 -90 -78h-80z" />
<glyph unicode="&#xc4;" horiz-adv-x="1175" d="M-147 0l864 1499l452 -1499h-137l-139 479h-631l-270 -479h-139zM326 586h536l-182 641zM496 1768q0 33 26.5 59.5t61.5 26.5t60.5 -25.5t25.5 -60.5q0 -39 -24.5 -63.5t-61.5 -24.5q-35 0 -61.5 25.5t-26.5 62.5zM817 1768q0 33 26.5 59.5t61.5 26.5t60.5 -25.5 t25.5 -60.5q0 -39 -24.5 -63.5t-61.5 -24.5q-35 0 -61.5 25.5t-26.5 62.5z" />
<glyph unicode="&#xc5;" horiz-adv-x="1175" d="M-147 0l841 1464h31l444 -1464h-137l-139 479h-631l-270 -479h-139zM326 586h536l-182 641zM487 1739q0 49 18.5 91t49.5 72.5t73 49t91 18.5t91 -18.5t73.5 -49t50 -72.5t18.5 -91t-18.5 -91t-50 -73t-73.5 -49.5t-91 -18.5q-47 0 -89 18.5t-74 50.5t-50.5 74t-18.5 89z M571 1739q0 -59 44 -103.5t104 -44.5q61 0 105 43t44 105q0 61 -44 104t-105 43t-104.5 -43t-43.5 -104z" />
<glyph unicode="&#xc6;" horiz-adv-x="1757" d="M-94 0l817 1464h688l23 -112h-627l123 -480h614l29 -110h-615l164 -647h615l28 -115h-741l-133 520h-551l-295 -520h-139zM399 633h465l-141 602z" />
<glyph unicode="&#xc7;" horiz-adv-x="1421" d="M106 676q0 180 63.5 334.5t180.5 267.5q113 109 259.5 164t318.5 55q289 0 487 -162l-35 -135q-172 186 -456 186q-141 0 -261 -48t-212 -140q-102 -104 -156.5 -239.5t-54.5 -286.5q0 -135 42 -245t121.5 -187.5t193.5 -120.5t255 -43q184 0 428 135l-35 -154 q-113 -47 -217 -71.5t-209 -24.5q-162 0 -293 52.5t-224 145.5t-144.5 225t-51.5 292zM533 -416l26 78q135 -39 211 -39q70 0 106 29t36 82q0 49 -41 68.5t-129 19.5h-31l59 178h66l-37 -111h20q205 0 205 -155q0 -90 -60.5 -142.5t-176.5 -52.5q-59 0 -121 11.5t-133 33.5z " />
<glyph unicode="&#xc8;" horiz-adv-x="1042" d="M82 0l192 1464h721l-14 -112h-596l-63 -480h579l-14 -110h-580l-84 -647h611l-17 -115h-735zM399 1958h147l224 -350h-90z" />
<glyph unicode="&#xc9;" horiz-adv-x="1042" d="M82 0l192 1464h721l-14 -112h-596l-63 -480h579l-14 -110h-580l-84 -647h611l-17 -115h-735zM522 1608l244 350h147l-299 -350h-92z" />
<glyph unicode="&#xca;" horiz-adv-x="1042" d="M82 0l192 1464h721l-14 -112h-596l-63 -480h579l-14 -110h-580l-84 -647h611l-17 -115h-735zM370 1608l267 350h133l153 -350h-82l-145 248l-234 -248h-92z" />
<glyph unicode="&#xcb;" horiz-adv-x="1042" d="M82 0l192 1464h721l-14 -112h-596l-63 -480h579l-14 -110h-580l-84 -647h611l-17 -115h-735zM426 1768q0 33 26.5 59.5t61.5 26.5t60.5 -25.5t25.5 -60.5q0 -39 -24.5 -63.5t-61.5 -24.5q-35 0 -61.5 25.5t-26.5 62.5zM747 1768q0 33 26.5 59.5t61.5 26.5t60.5 -25.5 t25.5 -60.5q0 -39 -24.5 -63.5t-61.5 -24.5q-35 0 -61.5 25.5t-26.5 62.5z" />
<glyph unicode="&#xcc;" horiz-adv-x="493" d="M86 0l195 1464h125l-193 -1464h-127zM94 1958h147l224 -350h-90z" />
<glyph unicode="&#xcd;" horiz-adv-x="493" d="M86 0l195 1464h125l-193 -1464h-127zM217 1608l244 350h147l-299 -350h-92z" />
<glyph unicode="&#xce;" horiz-adv-x="493" d="M65 1608l267 350h133l153 -350h-82l-145 248l-234 -248h-92zM86 0l195 1464h125l-193 -1464h-127z" />
<glyph unicode="&#xcf;" horiz-adv-x="493" d="M86 0l195 1464h125l-193 -1464h-127zM121 1768q0 33 26.5 59.5t61.5 26.5t60.5 -25.5t25.5 -60.5q0 -39 -24.5 -63.5t-61.5 -24.5q-35 0 -61.5 25.5t-26.5 62.5zM442 1768q0 33 26.5 59.5t61.5 26.5t60.5 -25.5t25.5 -60.5q0 -39 -24.5 -63.5t-61.5 -24.5 q-35 0 -61.5 25.5t-26.5 62.5z" />
<glyph unicode="&#xd0;" horiz-adv-x="1413" d="M-6 758l12 100h199l80 606h194q86 0 163 -2t148.5 -14t138 -38t130.5 -73q119 -90 183.5 -232t64.5 -325q0 -160 -48.5 -298t-140.5 -242q-135 -150 -325 -205q-82 -23 -161 -29t-157 -6h-383l101 758h-199zM229 109h95q96 0 181 2t159.5 13t140 35.5t123.5 67.5 q117 88 181.5 231.5t64.5 321.5q0 154 -51.5 271.5t-149.5 195.5q-92 74 -208 91.5t-267 17.5h-103l-65 -498h438l-12 -100h-441z" />
<glyph unicode="&#xd1;" horiz-adv-x="1515" d="M82 0l199 1503l876 -1224l156 1185h121l-199 -1503l-875 1223l-155 -1184h-123zM594 1659q35 96 77 141.5t111 45.5q31 0 56 -8l92 -29q16 -4 30.5 -8t26.5 -4q66 0 92 71h80q-33 -94 -76 -137t-112 -43q-31 0 -68 10l-94 29q-10 4 -21.5 7t-23.5 3q-61 0 -90 -78h-80z " />
<glyph unicode="&#xd2;" horiz-adv-x="1761" d="M106 674q0 180 63.5 336.5t180.5 267.5q111 106 260.5 162.5t317.5 56.5q166 0 301 -51t229 -144.5t145.5 -224.5t51.5 -293q0 -176 -63.5 -329.5t-184.5 -268.5q-113 -109 -264.5 -167t-325.5 -58q-160 0 -290 52.5t-224 145.5t-145.5 224t-51.5 291zM240 672 q0 -133 42 -243t119.5 -188.5t187 -121.5t245.5 -43q139 0 261 49t218 145q100 100 154.5 234t54.5 284q0 131 -42 242t-121 189.5t-189.5 122.5t-245.5 44q-137 0 -259 -50t-214 -142q-102 -104 -156.5 -237.5t-54.5 -284.5zM688 1958h147l224 -350h-90z" />
<glyph unicode="&#xd3;" horiz-adv-x="1761" d="M106 674q0 180 63.5 336.5t180.5 267.5q111 106 260.5 162.5t317.5 56.5q166 0 301 -51t229 -144.5t145.5 -224.5t51.5 -293q0 -176 -63.5 -329.5t-184.5 -268.5q-113 -109 -264.5 -167t-325.5 -58q-160 0 -290 52.5t-224 145.5t-145.5 224t-51.5 291zM240 672 q0 -133 42 -243t119.5 -188.5t187 -121.5t245.5 -43q139 0 261 49t218 145q100 100 154.5 234t54.5 284q0 131 -42 242t-121 189.5t-189.5 122.5t-245.5 44q-137 0 -259 -50t-214 -142q-102 -104 -156.5 -237.5t-54.5 -284.5zM811 1608l244 350h147l-299 -350h-92z" />
<glyph unicode="&#xd4;" horiz-adv-x="1761" d="M106 674q0 180 63.5 336.5t180.5 267.5q111 106 260.5 162.5t317.5 56.5q166 0 301 -51t229 -144.5t145.5 -224.5t51.5 -293q0 -176 -63.5 -329.5t-184.5 -268.5q-113 -109 -264.5 -167t-325.5 -58q-160 0 -290 52.5t-224 145.5t-145.5 224t-51.5 291zM240 672 q0 -133 42 -243t119.5 -188.5t187 -121.5t245.5 -43q139 0 261 49t218 145q100 100 154.5 234t54.5 284q0 131 -42 242t-121 189.5t-189.5 122.5t-245.5 44q-137 0 -259 -50t-214 -142q-102 -104 -156.5 -237.5t-54.5 -284.5zM659 1608l267 350h133l153 -350h-82l-145 248 l-234 -248h-92z" />
<glyph unicode="&#xd5;" horiz-adv-x="1761" d="M106 674q0 180 63.5 336.5t180.5 267.5q111 106 260.5 162.5t317.5 56.5q166 0 301 -51t229 -144.5t145.5 -224.5t51.5 -293q0 -176 -63.5 -329.5t-184.5 -268.5q-113 -109 -264.5 -167t-325.5 -58q-160 0 -290 52.5t-224 145.5t-145.5 224t-51.5 291zM240 672 q0 -133 42 -243t119.5 -188.5t187 -121.5t245.5 -43q139 0 261 49t218 145q100 100 154.5 234t54.5 284q0 131 -42 242t-121 189.5t-189.5 122.5t-245.5 44q-137 0 -259 -50t-214 -142q-102 -104 -156.5 -237.5t-54.5 -284.5zM680 1659q35 96 77 141.5t111 45.5q31 0 56 -8 l92 -29q16 -4 30.5 -8t26.5 -4q66 0 92 71h80q-33 -94 -76 -137t-112 -43q-31 0 -68 10l-94 29q-10 4 -21.5 7t-23.5 3q-61 0 -90 -78h-80z" />
<glyph unicode="&#xd6;" horiz-adv-x="1761" d="M106 674q0 180 63.5 336.5t180.5 267.5q111 106 260.5 162.5t317.5 56.5q166 0 301 -51t229 -144.5t145.5 -224.5t51.5 -293q0 -176 -63.5 -329.5t-184.5 -268.5q-113 -109 -264.5 -167t-325.5 -58q-160 0 -290 52.5t-224 145.5t-145.5 224t-51.5 291zM240 672 q0 -133 42 -243t119.5 -188.5t187 -121.5t245.5 -43q139 0 261 49t218 145q100 100 154.5 234t54.5 284q0 131 -42 242t-121 189.5t-189.5 122.5t-245.5 44q-137 0 -259 -50t-214 -142q-102 -104 -156.5 -237.5t-54.5 -284.5zM715 1768q0 33 26.5 59.5t61.5 26.5t60.5 -25.5 t25.5 -60.5q0 -39 -24.5 -63.5t-61.5 -24.5q-35 0 -61.5 25.5t-26.5 62.5zM1036 1768q0 33 26.5 59.5t61.5 26.5t60.5 -25.5t25.5 -60.5q0 -39 -24.5 -63.5t-61.5 -24.5q-35 0 -61.5 25.5t-26.5 62.5z" />
<glyph unicode="&#xd7;" horiz-adv-x="1705" d="M309 123l488 487l-488 488l58 57l487 -487l487 487l58 -57l-488 -488l488 -487l-58 -57l-487 487l-487 -487z" />
<glyph unicode="&#xd8;" horiz-adv-x="1761" d="M66 12l196 191q-78 78 -118 189.5t-40 269.5q0 190 63.5 347.5t184.5 274.5q113 109 259.5 166t320.5 57q313 0 502 -176l170 164l55 -63l-168 -160q162 -195 162 -488q0 -180 -62.5 -332.5t-183.5 -269.5q-113 -111 -263.5 -167t-324.5 -56q-313 0 -500 182l-198 -190z M242 653q0 -213 114 -360l985 950q-76 74 -180 113t-235 39q-139 0 -260 -49.5t-215 -145.5q-209 -213 -209 -547zM412 229q152 -156 426 -155q139 0 260 49t215 145q100 100 154.5 235.5t54.5 289.5q0 223 -125 389z" />
<glyph unicode="&#xd9;" horiz-adv-x="1384" d="M133 391q0 61 8.5 141t22.5 183l98 749h125l-119 -901q-6 -43 -8 -76.5t-2 -62.5q0 -168 90 -260t254 -92q236 0 356 166q63 86 84 195.5t39 246.5l103 784h125l-109 -823q-10 -70 -17 -134.5t-21.5 -123.5t-37 -113.5t-59.5 -103.5q-76 -100 -196.5 -154.5t-274.5 -54.5 q-221 0 -341 113.5t-120 320.5zM537 1958h147l224 -350h-90z" />
<glyph unicode="&#xda;" horiz-adv-x="1384" d="M133 391q0 61 8.5 141t22.5 183l98 749h125l-119 -901q-6 -43 -8 -76.5t-2 -62.5q0 -168 90 -260t254 -92q236 0 356 166q63 86 84 195.5t39 246.5l103 784h125l-109 -823q-10 -70 -17 -134.5t-21.5 -123.5t-37 -113.5t-59.5 -103.5q-76 -100 -196.5 -154.5t-274.5 -54.5 q-221 0 -341 113.5t-120 320.5zM660 1608l244 350h147l-299 -350h-92z" />
<glyph unicode="&#xdb;" horiz-adv-x="1384" d="M133 391q0 61 8.5 141t22.5 183l98 749h125l-119 -901q-6 -43 -8 -76.5t-2 -62.5q0 -168 90 -260t254 -92q236 0 356 166q63 86 84 195.5t39 246.5l103 784h125l-109 -823q-10 -70 -17 -134.5t-21.5 -123.5t-37 -113.5t-59.5 -103.5q-76 -100 -196.5 -154.5t-274.5 -54.5 q-221 0 -341 113.5t-120 320.5zM508 1608l267 350h133l153 -350h-82l-145 248l-234 -248h-92z" />
<glyph unicode="&#xdc;" horiz-adv-x="1384" d="M133 391q0 61 8.5 141t22.5 183l98 749h125l-119 -901q-6 -43 -8 -76.5t-2 -62.5q0 -168 90 -260t254 -92q236 0 356 166q63 86 84 195.5t39 246.5l103 784h125l-109 -823q-10 -70 -17 -134.5t-21.5 -123.5t-37 -113.5t-59.5 -103.5q-76 -100 -196.5 -154.5t-274.5 -54.5 q-221 0 -341 113.5t-120 320.5zM564 1768q0 33 26.5 59.5t61.5 26.5t60.5 -25.5t25.5 -60.5q0 -39 -24.5 -63.5t-61.5 -24.5q-35 0 -61.5 25.5t-26.5 62.5zM885 1768q0 33 26.5 59.5t61.5 26.5t60.5 -25.5t25.5 -60.5q0 -39 -24.5 -63.5t-61.5 -24.5q-35 0 -61.5 25.5 t-26.5 62.5z" />
<glyph unicode="&#xdd;" horiz-adv-x="1013" d="M41 1464h137l330 -661l455 661h141l-541 -786l-90 -678h-127l90 684zM475 1608l244 350h147l-299 -350h-92z" />
<glyph unicode="&#xde;" horiz-adv-x="1034" d="M82 0l192 1464h125l-43 -313h80q121 0 217.5 -11.5t173.5 -72.5q63 -49 97 -121t34 -160q0 -211 -151 -327q-82 -63 -182.5 -75.5t-223.5 -12.5h-149l-45 -371h-125zM268 479h150q78 0 141.5 5t116.5 32q72 35 111.5 103.5t39.5 162.5q0 147 -106 211q-49 31 -110.5 37 t-137.5 6h-55h-76z" />
<glyph unicode="&#xdf;" horiz-adv-x="1064" d="M25 778l14 103h149l29 225q14 115 34.5 204t80.5 152q98 106 262 107q166 0 259 -99.5t93 -281.5q0 -133 -74.5 -231.5t-209.5 -129.5q141 -39 208.5 -131t67.5 -247q0 -111 -28.5 -200t-79 -153.5t-121 -99.5t-156.5 -35q-41 0 -86 8t-98 25l6 115q74 -37 145 -37 q133 0 214 98t81 260q0 344 -346 344h-25l15 109h35q160 0 242.5 79.5t82.5 233.5q0 131 -57 198.5t-168 67.5q-74 0 -120 -26.5t-73.5 -79.5t-43 -133t-29.5 -187l-135 -1036h-121l102 778h-149z" />
<glyph unicode="&#xe0;" horiz-adv-x="1095" d="M53 412q0 109 34 202t92.5 160.5t139 106.5t177.5 39q117 0 191.5 -51.5t119.5 -159.5l24 178h119l-116 -887h-119l18 133q-111 -172 -309 -172q-80 0 -147.5 33t-117.5 91t-78 141t-28 186zM178 406q0 -160 77 -251.5t202 -91.5q68 0 126 30t101 85t68.5 132t25.5 169 q0 156 -75.5 248t-198.5 92q-68 0 -127.5 -29.5t-103.5 -85t-69.5 -131t-25.5 -167.5zM311 1380h147l224 -350h-90z" />
<glyph unicode="&#xe1;" horiz-adv-x="1095" d="M53 412q0 109 34 202t92.5 160.5t139 106.5t177.5 39q117 0 191.5 -51.5t119.5 -159.5l24 178h119l-116 -887h-119l18 133q-111 -172 -309 -172q-80 0 -147.5 33t-117.5 91t-78 141t-28 186zM178 406q0 -160 77 -251.5t202 -91.5q68 0 126 30t101 85t68.5 132t25.5 169 q0 156 -75.5 248t-198.5 92q-68 0 -127.5 -29.5t-103.5 -85t-69.5 -131t-25.5 -167.5zM434 1030l244 350h147l-299 -350h-92z" />
<glyph unicode="&#xe2;" horiz-adv-x="1095" d="M53 412q0 109 34 202t92.5 160.5t139 106.5t177.5 39q117 0 191.5 -51.5t119.5 -159.5l24 178h119l-116 -887h-119l18 133q-111 -172 -309 -172q-80 0 -147.5 33t-117.5 91t-78 141t-28 186zM178 406q0 -160 77 -251.5t202 -91.5q68 0 126 30t101 85t68.5 132t25.5 169 q0 156 -75.5 248t-198.5 92q-68 0 -127.5 -29.5t-103.5 -85t-69.5 -131t-25.5 -167.5zM282 1030l267 350h133l153 -350h-82l-145 248l-234 -248h-92z" />
<glyph unicode="&#xe3;" horiz-adv-x="1095" d="M53 412q0 109 34 202t92.5 160.5t139 106.5t177.5 39q117 0 191.5 -51.5t119.5 -159.5l24 178h119l-116 -887h-119l18 133q-111 -172 -309 -172q-80 0 -147.5 33t-117.5 91t-78 141t-28 186zM178 406q0 -160 77 -251.5t202 -91.5q68 0 126 30t101 85t68.5 132t25.5 169 q0 156 -75.5 248t-198.5 92q-68 0 -127.5 -29.5t-103.5 -85t-69.5 -131t-25.5 -167.5zM303 1081q35 96 77 141.5t111 45.5q31 0 56 -8l92 -29q16 -4 30.5 -8t26.5 -4q66 0 92 71h80q-33 -94 -76 -137t-112 -43q-31 0 -68 10l-94 29q-10 4 -21.5 7t-23.5 3q-61 0 -90 -78h-80 z" />
<glyph unicode="&#xe4;" horiz-adv-x="1095" d="M53 412q0 109 34 202t92.5 160.5t139 106.5t177.5 39q117 0 191.5 -51.5t119.5 -159.5l24 178h119l-116 -887h-119l18 133q-111 -172 -309 -172q-80 0 -147.5 33t-117.5 91t-78 141t-28 186zM178 406q0 -160 77 -251.5t202 -91.5q68 0 126 30t101 85t68.5 132t25.5 169 q0 156 -75.5 248t-198.5 92q-68 0 -127.5 -29.5t-103.5 -85t-69.5 -131t-25.5 -167.5zM338 1190q0 33 26.5 59.5t61.5 26.5t60.5 -25.5t25.5 -60.5q0 -39 -24.5 -63.5t-61.5 -24.5q-35 0 -61.5 25.5t-26.5 62.5zM659 1190q0 33 26.5 59.5t61.5 26.5t60.5 -25.5t25.5 -60.5 q0 -39 -24.5 -63.5t-61.5 -24.5q-35 0 -61.5 25.5t-26.5 62.5z" />
<glyph unicode="&#xe5;" horiz-adv-x="1095" d="M53 412q0 109 34 202t92.5 160.5t139 106.5t177.5 39q117 0 191.5 -51.5t119.5 -159.5l24 178h119l-116 -887h-119l18 133q-111 -172 -309 -172q-80 0 -147.5 33t-117.5 91t-78 141t-28 186zM178 406q0 -160 77 -251.5t202 -91.5q68 0 126 30t101 85t68.5 132t25.5 169 q0 156 -75.5 248t-198.5 92q-68 0 -127.5 -29.5t-103.5 -85t-69.5 -131t-25.5 -167.5zM340 1217q0 49 18.5 91t50 72.5t73.5 49t91 18.5t91.5 -18.5t73 -49t49 -72.5t18.5 -91t-18.5 -91.5t-49 -74t-72.5 -50t-92 -18.5q-47 0 -90 18.5t-74.5 50t-50 75t-18.5 90.5z M424 1217q0 -59 44 -103.5t103 -44.5q61 0 105.5 43t44.5 105q0 61 -44 104t-106 43q-61 0 -104 -43t-43 -104z" />
<glyph unicode="&#xe6;" horiz-adv-x="1622" d="M20 246q0 61 25 113.5t70 90t107.5 60t135.5 22.5q96 0 166 -20t123 -72l8 92q4 35 6.5 64t2.5 55q0 170 -218 170q-72 0 -142.5 -18.5t-147.5 -52.5l10 108q150 61 266 62q288 -1 313 -191q133 190 357 191q186 0 287.5 -105.5t101.5 -298.5q0 -39 -6 -90h-729v-18 q0 -164 79.5 -253t225.5 -89q174 0 287 167l79 -79q-74 -100 -163.5 -147.5t-212.5 -47.5q-227 0 -353 186q-119 -186 -350 -186q-152 0 -240 79t-88 208zM139 244q0 -82 63.5 -133.5t174.5 -51.5q59 0 109.5 16.5t87 45.5t58 65.5t21.5 79.5q0 84 -70.5 130t-201.5 46 q-111 0 -176.5 -55t-65.5 -143zM768 526h608q0 141 -68.5 216t-197.5 75t-218 -74.5t-124 -216.5z" />
<glyph unicode="&#xe7;" horiz-adv-x="909" d="M45 408q0 111 38 204t105.5 161.5t161.5 107.5t207 39q168 0 297 -91l-31 -112q-133 96 -272 96q-82 0 -151.5 -29.5t-120 -83t-79 -126t-28.5 -160.5q0 -78 23.5 -140.5t67.5 -108.5t104.5 -70.5t134.5 -24.5q70 0 133 25.5t131 76.5l-25 -145q-125 -66 -243 -66 q-104 0 -187.5 33t-142.5 91t-91 141t-32 182zM203 -416l26 78q135 -39 211 -39q70 0 106 29t36 82q0 49 -41 68.5t-129 19.5h-31l59 178h66l-37 -111h20q205 0 205 -155q0 -90 -60.5 -142.5t-176.5 -52.5q-59 0 -121 11.5t-133 33.5z" />
<glyph unicode="&#xe8;" horiz-adv-x="1046" d="M47 387q0 119 36 217t99.5 168t152.5 109t193 39q188 0 291 -105.5t103 -298.5q0 -39 -7 -90h-743v-23q0 -162 82 -249.5t229 -87.5q180 0 293 167l82 -79q-74 -100 -165 -146.5t-212 -46.5q-100 0 -180 31t-136 87t-87 135t-31 173zM184 526h619q0 141 -68.5 216 t-193.5 75q-279 0 -357 -291zM297 1380h147l224 -350h-90z" />
<glyph unicode="&#xe9;" horiz-adv-x="1046" d="M47 387q0 119 36 217t99.5 168t152.5 109t193 39q188 0 291 -105.5t103 -298.5q0 -39 -7 -90h-743v-23q0 -162 82 -249.5t229 -87.5q180 0 293 167l82 -79q-74 -100 -165 -146.5t-212 -46.5q-100 0 -180 31t-136 87t-87 135t-31 173zM184 526h619q0 141 -68.5 216 t-193.5 75q-279 0 -357 -291zM420 1030l244 350h147l-299 -350h-92z" />
<glyph unicode="&#xea;" horiz-adv-x="1046" d="M47 387q0 119 36 217t99.5 168t152.5 109t193 39q188 0 291 -105.5t103 -298.5q0 -39 -7 -90h-743v-23q0 -162 82 -249.5t229 -87.5q180 0 293 167l82 -79q-74 -100 -165 -146.5t-212 -46.5q-100 0 -180 31t-136 87t-87 135t-31 173zM184 526h619q0 141 -68.5 216 t-193.5 75q-279 0 -357 -291zM268 1030l267 350h133l153 -350h-82l-145 248l-234 -248h-92z" />
<glyph unicode="&#xeb;" horiz-adv-x="1046" d="M47 387q0 119 36 217t99.5 168t152.5 109t193 39q188 0 291 -105.5t103 -298.5q0 -39 -7 -90h-743v-23q0 -162 82 -249.5t229 -87.5q180 0 293 167l82 -79q-74 -100 -165 -146.5t-212 -46.5q-100 0 -180 31t-136 87t-87 135t-31 173zM184 526h619q0 141 -68.5 216 t-193.5 75q-279 0 -357 -291zM324 1190q0 33 26.5 59.5t61.5 26.5t60.5 -25.5t25.5 -60.5q0 -39 -24.5 -63.5t-61.5 -24.5q-35 0 -61.5 25.5t-26.5 62.5zM645 1190q0 33 26.5 59.5t61.5 26.5t60.5 -25.5t25.5 -60.5q0 -39 -24.5 -63.5t-61.5 -24.5q-35 0 -61.5 25.5 t-26.5 62.5z" />
<glyph unicode="&#xec;" horiz-adv-x="460" d="M20 1380h147l224 -350h-90zM76 0l117 887h120l-116 -887h-121z" />
<glyph unicode="&#xed;" horiz-adv-x="460" d="M76 0l117 887h120l-116 -887h-121zM143 1030l244 350h147l-299 -350h-92z" />
<glyph unicode="&#xee;" horiz-adv-x="460" d="M-9 1030l267 350h133l153 -350h-82l-145 248l-234 -248h-92zM76 0l117 887h120l-116 -887h-121z" />
<glyph unicode="&#xef;" horiz-adv-x="460" d="M47 1190q0 33 26.5 59.5t61.5 26.5t60.5 -25.5t25.5 -60.5q0 -39 -24.5 -63.5t-61.5 -24.5q-35 0 -61.5 25.5t-26.5 62.5zM76 0l117 887h120l-116 -887h-121zM368 1190q0 33 26.5 59.5t61.5 26.5t60.5 -25.5t25.5 -60.5q0 -39 -24.5 -63.5t-61.5 -24.5q-35 0 -61.5 25.5 t-26.5 62.5z" />
<glyph unicode="&#xf0;" horiz-adv-x="1118" d="M45 399q0 104 37 193.5t103.5 155t156.5 102.5t195 37q254 0 364 -205v12q0 299 -135 518l-299 -69l-29 90l269 65q-27 37 -69 77t-101 87l65 84q131 -90 232 -221l249 57l31 -88l-223 -55q129 -238 129 -563q0 -350 -134 -533.5t-380 -183.5q-106 0 -191.5 32t-145.5 90 t-92 139t-32 179zM174 401q0 -74 23.5 -136t66.5 -106t104.5 -68.5t137.5 -24.5q78 0 143.5 28.5t113.5 79.5t74.5 121t26.5 149q0 76 -23.5 138.5t-67.5 107.5t-105.5 69.5t-135.5 24.5q-78 0 -143 -28.5t-112.5 -79.5t-75 -122t-27.5 -153z" />
<glyph unicode="&#xf1;" horiz-adv-x="1054" d="M66 0l116 887h117l-20 -144q137 176 329 177q127 0 201 -68t74 -190q0 -16 -2 -41t-7 -58l-73 -563h-121l74 555q6 43 6 86q0 86 -52.5 130t-150.5 44q-264 0 -313 -373l-58 -442h-120zM299 1081q35 96 77 141.5t111 45.5q31 0 56 -8l92 -29q16 -4 30.5 -8t26.5 -4 q66 0 92 71h80q-33 -94 -76 -137t-112 -43q-31 0 -68 10l-94 29q-10 4 -21.5 7t-23.5 3q-61 0 -90 -78h-80z" />
<glyph unicode="&#xf2;" horiz-adv-x="1118" d="M45 406q0 111 38 205t105.5 162.5t159.5 107.5t201 39q100 0 183 -33t142.5 -91.5t92 -139.5t32.5 -177q0 -113 -37.5 -208t-104 -163.5t-159 -107.5t-200.5 -39q-102 0 -186.5 33t-143.5 91t-91 140.5t-32 180.5zM172 412q0 -76 23.5 -139.5t66.5 -108.5t103.5 -69.5 t134.5 -24.5q80 0 147.5 29.5t116.5 84t77.5 127t28.5 158.5q0 74 -24.5 137.5t-67.5 108.5t-103 70.5t-132 25.5q-80 0 -147.5 -29.5t-118 -83t-78 -126t-27.5 -160.5zM311 1380h147l224 -350h-90z" />
<glyph unicode="&#xf3;" horiz-adv-x="1118" d="M45 406q0 111 38 205t105.5 162.5t159.5 107.5t201 39q100 0 183 -33t142.5 -91.5t92 -139.5t32.5 -177q0 -113 -37.5 -208t-104 -163.5t-159 -107.5t-200.5 -39q-102 0 -186.5 33t-143.5 91t-91 140.5t-32 180.5zM172 412q0 -76 23.5 -139.5t66.5 -108.5t103.5 -69.5 t134.5 -24.5q80 0 147.5 29.5t116.5 84t77.5 127t28.5 158.5q0 74 -24.5 137.5t-67.5 108.5t-103 70.5t-132 25.5q-80 0 -147.5 -29.5t-118 -83t-78 -126t-27.5 -160.5zM434 1030l244 350h147l-299 -350h-92z" />
<glyph unicode="&#xf4;" horiz-adv-x="1118" d="M45 406q0 111 38 205t105.5 162.5t159.5 107.5t201 39q100 0 183 -33t142.5 -91.5t92 -139.5t32.5 -177q0 -113 -37.5 -208t-104 -163.5t-159 -107.5t-200.5 -39q-102 0 -186.5 33t-143.5 91t-91 140.5t-32 180.5zM172 412q0 -76 23.5 -139.5t66.5 -108.5t103.5 -69.5 t134.5 -24.5q80 0 147.5 29.5t116.5 84t77.5 127t28.5 158.5q0 74 -24.5 137.5t-67.5 108.5t-103 70.5t-132 25.5q-80 0 -147.5 -29.5t-118 -83t-78 -126t-27.5 -160.5zM282 1030l267 350h133l153 -350h-82l-145 248l-234 -248h-92z" />
<glyph unicode="&#xf5;" horiz-adv-x="1118" d="M45 406q0 111 38 205t105.5 162.5t159.5 107.5t201 39q100 0 183 -33t142.5 -91.5t92 -139.5t32.5 -177q0 -113 -37.5 -208t-104 -163.5t-159 -107.5t-200.5 -39q-102 0 -186.5 33t-143.5 91t-91 140.5t-32 180.5zM172 412q0 -76 23.5 -139.5t66.5 -108.5t103.5 -69.5 t134.5 -24.5q80 0 147.5 29.5t116.5 84t77.5 127t28.5 158.5q0 74 -24.5 137.5t-67.5 108.5t-103 70.5t-132 25.5q-80 0 -147.5 -29.5t-118 -83t-78 -126t-27.5 -160.5zM303 1081q35 96 77 141.5t111 45.5q31 0 56 -8l92 -29q16 -4 30.5 -8t26.5 -4q66 0 92 71h80 q-33 -94 -76 -137t-112 -43q-31 0 -68 10l-94 29q-10 4 -21.5 7t-23.5 3q-61 0 -90 -78h-80z" />
<glyph unicode="&#xf6;" horiz-adv-x="1118" d="M45 406q0 111 38 205t105.5 162.5t159.5 107.5t201 39q100 0 183 -33t142.5 -91.5t92 -139.5t32.5 -177q0 -113 -37.5 -208t-104 -163.5t-159 -107.5t-200.5 -39q-102 0 -186.5 33t-143.5 91t-91 140.5t-32 180.5zM172 412q0 -76 23.5 -139.5t66.5 -108.5t103.5 -69.5 t134.5 -24.5q80 0 147.5 29.5t116.5 84t77.5 127t28.5 158.5q0 74 -24.5 137.5t-67.5 108.5t-103 70.5t-132 25.5q-80 0 -147.5 -29.5t-118 -83t-78 -126t-27.5 -160.5zM338 1190q0 33 26.5 59.5t61.5 26.5t60.5 -25.5t25.5 -60.5q0 -39 -24.5 -63.5t-61.5 -24.5 q-35 0 -61.5 25.5t-26.5 62.5zM659 1190q0 33 26.5 59.5t61.5 26.5t60.5 -25.5t25.5 -60.5q0 -39 -24.5 -63.5t-61.5 -24.5q-35 0 -61.5 25.5t-26.5 62.5z" />
<glyph unicode="&#xf7;" horiz-adv-x="1705" d="M254 571v80h1198v-80h-1198zM756 266q0 41 28.5 71t69.5 30t69.5 -30t28.5 -71t-28.5 -69.5t-69.5 -28.5t-69.5 27.5t-28.5 70.5zM756 956q0 41 28.5 70t69.5 29t69.5 -29t28.5 -70t-28.5 -70.5t-69.5 -29.5t-69.5 29.5t-28.5 70.5z" />
<glyph unicode="&#xf8;" horiz-adv-x="1118" d="M-20 10l143 127q-80 119 -80 269q0 111 39 205t106.5 162.5t160.5 107.5t202 39q186 0 311 -113l135 121l52 -58l-136 -122q45 -63 65.5 -130t20.5 -145q0 -111 -36.5 -204t-103 -160.5t-159 -106.5t-202.5 -39q-100 0 -178 26.5t-148 90.5l-141 -125zM172 422 q0 -117 47 -197l551 498q-86 88 -225 88q-80 0 -148.5 -29.5t-118 -82t-78 -124t-28.5 -153.5zM264 166q92 -96 234 -96q82 0 150.5 30.5t117.5 83t76.5 124t27.5 151.5q0 102 -53 203z" />
<glyph unicode="&#xf9;" horiz-adv-x="1052" d="M100 250q0 53 6.5 113.5t16.5 125.5l53 398h119l-49 -377q-10 -78 -17.5 -139.5t-7.5 -106.5q0 -90 58.5 -141t164.5 -51q72 0 122 23.5t84 72.5t55.5 121.5t33.5 171.5l58 426h118l-57 -436q-16 -125 -39.5 -219.5t-83.5 -159.5q-100 -111 -295 -111q-160 0 -250 78 t-90 211zM313 1380h147l224 -350h-90z" />
<glyph unicode="&#xfa;" horiz-adv-x="1052" d="M100 250q0 53 6.5 113.5t16.5 125.5l53 398h119l-49 -377q-10 -78 -17.5 -139.5t-7.5 -106.5q0 -90 58.5 -141t164.5 -51q72 0 122 23.5t84 72.5t55.5 121.5t33.5 171.5l58 426h118l-57 -436q-16 -125 -39.5 -219.5t-83.5 -159.5q-100 -111 -295 -111q-160 0 -250 78 t-90 211zM436 1030l244 350h147l-299 -350h-92z" />
<glyph unicode="&#xfb;" horiz-adv-x="1052" d="M100 250q0 53 6.5 113.5t16.5 125.5l53 398h119l-49 -377q-10 -78 -17.5 -139.5t-7.5 -106.5q0 -90 58.5 -141t164.5 -51q72 0 122 23.5t84 72.5t55.5 121.5t33.5 171.5l58 426h118l-57 -436q-16 -125 -39.5 -219.5t-83.5 -159.5q-100 -111 -295 -111q-160 0 -250 78 t-90 211zM284 1030l267 350h133l153 -350h-82l-145 248l-234 -248h-92z" />
<glyph unicode="&#xfc;" horiz-adv-x="1052" d="M100 250q0 53 6.5 113.5t16.5 125.5l53 398h119l-49 -377q-10 -78 -17.5 -139.5t-7.5 -106.5q0 -90 58.5 -141t164.5 -51q72 0 122 23.5t84 72.5t55.5 121.5t33.5 171.5l58 426h118l-57 -436q-16 -125 -39.5 -219.5t-83.5 -159.5q-100 -111 -295 -111q-160 0 -250 78 t-90 211zM340 1190q0 33 26.5 59.5t61.5 26.5t60.5 -25.5t25.5 -60.5q0 -39 -24.5 -63.5t-61.5 -24.5q-35 0 -61.5 25.5t-26.5 62.5zM661 1190q0 33 26.5 59.5t61.5 26.5t60.5 -25.5t25.5 -60.5q0 -39 -24.5 -63.5t-61.5 -24.5q-35 0 -61.5 25.5t-26.5 62.5z" />
<glyph unicode="&#xfd;" horiz-adv-x="890" d="M-45 -446l309 516l-258 817h131l207 -701l404 701h135l-797 -1333h-131zM359 1030l244 350h147l-299 -350h-92z" />
<glyph unicode="&#xfe;" horiz-adv-x="1095" d="M6 -446l264 1996h117l-106 -800q53 88 126.5 130t176.5 42q82 0 152.5 -33t120.5 -92.5t79 -142.5t29 -185q0 -111 -34 -204t-92.5 -160.5t-140.5 -106.5t-176 -39q-225 0 -313 213l-82 -618h-121zM240 401q0 -156 75.5 -248t198.5 -92q68 0 127 31t103 85t70 131t26 169 q0 160 -78 251t-203 91q-68 0 -126 -30.5t-101 -86t-67.5 -132t-24.5 -169.5z" />
<glyph unicode="&#xff;" horiz-adv-x="890" d="M-45 -446l309 516l-258 817h131l207 -701l404 701h135l-797 -1333h-131zM263 1190q0 33 26.5 59.5t61.5 26.5t60.5 -25.5t25.5 -60.5q0 -39 -24.5 -63.5t-61.5 -24.5q-35 0 -61.5 25.5t-26.5 62.5zM584 1190q0 33 26.5 59.5t61.5 26.5t60.5 -25.5t25.5 -60.5 q0 -39 -24.5 -63.5t-61.5 -24.5q-35 0 -61.5 25.5t-26.5 62.5z" />
<glyph unicode="&#x152;" horiz-adv-x="2347" d="M113 674q0 182 61.5 339.5t175.5 270.5q225 221 565 221q229 0 384 -90t243 -278l45 327h719l-14 -112h-596l-64 -480h580l-14 -110h-580l-84 -647h610l-16 -115h-735l34 244q-111 -141 -266 -213t-350 -72q-158 0 -287 51t-220 145.5t-141 226.5t-50 292zM242 674 q0 -135 42 -246t117.5 -190.5t183 -122.5t240.5 -43q135 0 255 50t212 146q98 102 152.5 236.5t54.5 286.5q0 135 -42 246.5t-118.5 191.5t-185.5 123t-242 43t-252.5 -50.5t-209.5 -144.5q-100 -104 -153.5 -239.5t-53.5 -286.5z" />
<glyph unicode="&#x153;" horiz-adv-x="1837" d="M47 410q0 109 38 202t104.5 161.5t156.5 107.5t197 39q131 0 229 -56.5t154 -163.5q68 109 170 164.5t231 55.5q184 0 286.5 -105.5t102.5 -294.5q0 -39 -6 -94h-743v-23q0 -162 81.5 -248.5t229.5 -86.5q182 0 293 165l82 -79q-76 -100 -166 -146.5t-213 -46.5 q-275 0 -379 213q-72 -104 -174.5 -158.5t-226.5 -54.5q-102 0 -185.5 33t-141.5 91t-89 141t-31 184zM174 414q0 -78 23.5 -141.5t65.5 -108.5t101.5 -70.5t131.5 -25.5q76 0 142.5 29.5t114.5 84t75.5 128t27.5 159.5q0 76 -23.5 138.5t-65.5 107.5t-101 70.5t-129 25.5 q-78 0 -144.5 -29.5t-115 -82t-76 -126t-27.5 -159.5zM979 526h620q0 141 -69.5 216t-200.5 75t-222 -74.5t-128 -216.5z" />
<glyph unicode="&#x178;" horiz-adv-x="1013" d="M41 1464h137l330 -661l455 661h141l-541 -786l-90 -678h-127l90 684zM379 1768q0 33 26.5 59.5t61.5 26.5t60.5 -25.5t25.5 -60.5q0 -39 -24.5 -63.5t-61.5 -24.5q-35 0 -61.5 25.5t-26.5 62.5zM700 1768q0 33 26.5 59.5t61.5 26.5t60.5 -25.5t25.5 -60.5 q0 -39 -24.5 -63.5t-61.5 -24.5q-35 0 -61.5 25.5t-26.5 62.5z" />
<glyph unicode="&#x2c6;" horiz-adv-x="1024" d="M270 1030l267 350h133l153 -350h-82l-145 248l-234 -248h-92z" />
<glyph unicode="&#x2dc;" horiz-adv-x="1024" d="M291 1081q35 96 77 141.5t111 45.5q31 0 56 -8l92 -29q16 -4 30.5 -8t26.5 -4q66 0 92 71h80q-33 -94 -76 -137t-112 -43q-31 0 -68 10l-94 29q-10 4 -21.5 7t-23.5 3q-61 0 -90 -78h-80z" />
<glyph unicode="&#x2000;" horiz-adv-x="985" />
<glyph unicode="&#x2001;" horiz-adv-x="1970" />
<glyph unicode="&#x2002;" horiz-adv-x="985" />
<glyph unicode="&#x2003;" horiz-adv-x="1970" />
<glyph unicode="&#x2004;" horiz-adv-x="656" />
<glyph unicode="&#x2005;" horiz-adv-x="492" />
<glyph unicode="&#x2006;" horiz-adv-x="328" />
<glyph unicode="&#x2007;" horiz-adv-x="328" />
<glyph unicode="&#x2008;" horiz-adv-x="246" />
<glyph unicode="&#x2009;" horiz-adv-x="394" />
<glyph unicode="&#x200a;" horiz-adv-x="109" />
<glyph unicode="&#x2010;" horiz-adv-x="616" d="M41 385l14 111h437l-15 -111h-436z" />
<glyph unicode="&#x2011;" horiz-adv-x="616" d="M41 385l14 111h437l-15 -111h-436z" />
<glyph unicode="&#x2012;" horiz-adv-x="616" d="M41 385l14 111h437l-15 -111h-436z" />
<glyph unicode="&#x2013;" horiz-adv-x="1024" d="M-45 401l10 80h1024l-10 -80h-1024z" />
<glyph unicode="&#x2014;" horiz-adv-x="2048" d="M-45 401l10 80h2048l-10 -80h-2048z" />
<glyph unicode="&#x2018;" horiz-adv-x="573" d="M154 1020l323 477l80 -47l-268 -508z" />
<glyph unicode="&#x2019;" horiz-adv-x="573" d="M150 989l266 508l135 -78l-324 -477z" />
<glyph unicode="&#x201a;" horiz-adv-x="573" d="M-59 -229l266 508l135 -80l-324 -478z" />
<glyph unicode="&#x201c;" horiz-adv-x="929" d="M160 1020l323 477l80 -47l-268 -508zM489 1020l326 477l78 -47l-266 -508z" />
<glyph unicode="&#x201d;" horiz-adv-x="929" d="M156 989l266 508l137 -78l-326 -477zM485 989l269 508l135 -78l-324 -477z" />
<glyph unicode="&#x201e;" horiz-adv-x="929" d="M-43 -229l266 508l137 -80l-325 -478zM287 -229l268 508l135 -80l-323 -478z" />
<glyph unicode="&#x2022;" horiz-adv-x="1208" d="M307 762q0 61 23.5 114.5t63.5 93.5t94.5 63.5t115.5 23.5t114.5 -23.5t93.5 -63.5t63.5 -93.5t23.5 -114.5t-23.5 -114.5t-63.5 -94.5t-94 -64.5t-116 -23.5q-61 0 -115.5 23.5t-94.5 63.5t-62.5 94.5t-22.5 115.5z" />
<glyph unicode="&#x2026;" horiz-adv-x="2048" d="M154 84q0 43 29.5 72.5t72.5 29.5t72.5 -29.5t29.5 -72.5t-29.5 -72.5t-72.5 -29.5t-72.5 29.5t-29.5 72.5zM836 84q0 43 29.5 72.5t72.5 29.5t72.5 -29.5t29.5 -72.5t-29.5 -72.5t-72.5 -29.5t-72.5 29.5t-29.5 72.5zM1520 84q0 43 29.5 72.5t72.5 29.5t72.5 -29.5 t29.5 -72.5t-29.5 -72.5t-72.5 -29.5t-72.5 29.5t-29.5 72.5z" />
<glyph unicode="&#x202f;" horiz-adv-x="394" />
<glyph unicode="&#x2039;" horiz-adv-x="569" d="M45 442l365 418l69 -67l-311 -365l217 -350l-80 -55z" />
<glyph unicode="&#x203a;" horiz-adv-x="569" d="M14 88l312 365l-217 352l79 55l261 -422l-365 -415z" />
<glyph unicode="&#x205f;" horiz-adv-x="492" />
<glyph unicode="&#x2122;" horiz-adv-x="1705" d="M274 1403v51h420v-51h-174v-479h-67v479h-179zM825 924v530h101l174 -440l162 440h102v-530h-59v479l-181 -479h-49l-190 479v-479h-60z" />
<glyph unicode="&#x25fc;" horiz-adv-x="890" d="M0 0v891h891v-891h-891z" />
<glyph unicode="&#xfb01;" horiz-adv-x="991" d="M45 782l14 105h160l53 399q10 74 25.5 127t41.5 89t65.5 52.5t99.5 16.5q80 0 141 -29l-16 -106q-33 12 -58.5 19t-48.5 7q-66 0 -92.5 -44t-38.5 -142l-51 -389h211l-14 -105h-211l-103 -782h-121l105 782h-162zM606 0l117 887h121l-117 -887h-121zM731 1214 q0 39 25.5 65t64.5 26t64.5 -26t25.5 -65t-25.5 -64.5t-64.5 -25.5t-64.5 25.5t-25.5 64.5z" />
<glyph unicode="&#xfb02;" horiz-adv-x="991" d="M45 782l14 105h160l53 399q10 74 25.5 127t41.5 89t65.5 52.5t99.5 16.5q80 0 141 -29l-16 -106q-33 12 -58.5 19t-48.5 7q-66 0 -92.5 -44t-38.5 -142l-51 -389h211l-14 -105h-211l-103 -782h-121l105 782h-162zM606 0l205 1550h119l-203 -1550h-121z" />
</font>
</defs>
</svg>
