<?xml version="1.0" encoding="utf-8"?>
<!-- Generator: Adobe Illustrator 15.1.0, SVG Export Plug-In . SVG Version: 6.00 Build 0)  -->
<!DOCTYPE svg PUBLIC "-//W3C//DTD SVG 1.1//EN" "http://www.w3.org/Graphics/SVG/1.1/DTD/svg11.dtd">
<svg version="1.1" id="art" xmlns="http://www.w3.org/2000/svg" xmlns:xlink="http://www.w3.org/1999/xlink" x="0px" y="0px"
	 width="912px" height="535px" viewBox="0 0 912 535" enable-background="new 0 0 912 535" xml:space="preserve">
<g>
	<defs>
		<rect id="SVGID_1_" width="912" height="393.55"/>
	</defs>
	<clipPath id="SVGID_2_">
		<use xlink:href="#SVGID_1_"  overflow="visible"/>
	</clipPath>
	<line clip-path="url(#SVGID_2_)" fill="none" stroke="#F9A25E" stroke-width="3" x1="0" y1="392.05" x2="912" y2="392.05"/>
	<path clip-path="url(#SVGID_2_)" fill="#F9A25E" d="M798,40c11.046,0,20-8.954,20-20c0-11.046-8.954-20-20-20s-20,8.954-20,20
		C778,31.046,786.954,40,798,40"/>
	<path clip-path="url(#SVGID_2_)" fill="#F9A25E" d="M796.491,45.903c0,0,1.531,2.58,3.062,0l4.911-8.273c0,0,1.531-2.58-1.469-2.58
		h-9.946c0,0-3,0-1.468,2.58L796.491,45.903z"/>
	<path clip-path="url(#SVGID_2_)" fill="#FFFFFF" d="M806.621,25.283V24.45h-1.758v-4.181h-0.943v4.181h-4.218l4.847-10.175h-0.999
		l-4.847,10.175v0.833h5.217v2.164h0.943v-2.164H806.621z M796.89,27.447v-0.832h-5.846l4.94-6.457
		c0.666-0.87,0.905-1.554,0.905-2.534c0-2.091-1.368-3.46-3.478-3.46c-2.183,0-3.479,1.499-3.479,3.46h0.943
		c0-1.85,1.166-2.628,2.535-2.628c1.591,0,2.535,1.055,2.535,2.628c0,0.758-0.223,1.387-0.74,2.053l-5.291,6.938v0.832H796.89z"/>
	<path clip-path="url(#SVGID_2_)" fill="#006227" d="M797.5,157.05c2.199,0,3.982-1.783,3.982-3.982
		c0-2.199-1.783-3.982-3.982-3.982s-3.981,1.783-3.981,3.982C793.519,155.267,795.301,157.05,797.5,157.05"/>
	<path clip-path="url(#SVGID_2_)" fill="#006227" d="M797.5,298.557c2.199,0,3.982-1.782,3.982-3.981s-1.783-3.982-3.982-3.982
		s-3.981,1.783-3.981,3.982S795.301,298.557,797.5,298.557"/>
	<path clip-path="url(#SVGID_2_)" fill="#FFFFFF" d="M822.5,139.036v-34c0-3-3-3-3-3h-44c-3,0-3,3-3,3v34c0,3,3,3,3,3h16.943
		l3.504,5.903c1.531,2.58,3.062,0,3.062,0l3.504-5.903H819.5C822.5,142.036,822.5,139.036,822.5,139.036"/>
	<path clip-path="url(#SVGID_2_)" fill="none" stroke="#D1D3D4" d="M822.5,139.036v-34c0-3-3-3-3-3h-44c-3,0-3,3-3,3v34c0,3,3,3,3,3
		h16.943l3.504,5.903c1.531,2.58,3.062,0,3.062,0l3.504-5.903H819.5C822.5,142.036,822.5,139.036,822.5,139.036z"/>
	<path clip-path="url(#SVGID_2_)" fill="#FFFFFF" d="M822.5,280.543v-34c0-3-3-3-3-3h-44c-3,0-3,3-3,3v34c0,3,3,3,3,3h16.943
		l3.504,5.903c1.531,2.58,3.062,0,3.062,0l3.504-5.903H819.5C822.5,283.543,822.5,280.543,822.5,280.543"/>
	<path clip-path="url(#SVGID_2_)" fill="none" stroke="#D1D3D4" d="M822.5,280.543v-34c0-3-3-3-3-3h-44c-3,0-3,3-3,3v34c0,3,3,3,3,3
		h16.943l3.504,5.903c1.531,2.58,3.062,0,3.062,0l3.504-5.903H819.5C822.5,283.543,822.5,280.543,822.5,280.543z"/>
	<path clip-path="url(#SVGID_2_)" fill="#F9A25E" d="M812.561,125.858c-0.541,0-0.854-0.54-0.854-1.56
		c0-1.045,0.3-1.573,0.877-1.573c0.54,0,0.854,0.54,0.854,1.561C813.438,125.342,813.136,125.858,812.561,125.858 M810.665,124.287
		c0,1.428,0.707,2.267,1.907,2.267s1.919-0.839,1.919-2.267c0-1.453-0.707-2.256-1.907-2.256S810.665,122.857,810.665,124.287
		 M805.649,119.917c0,1.441,0.719,2.257,1.919,2.257c1.199,0,1.906-0.828,1.906-2.257c0-1.452-0.707-2.255-1.906-2.255
		C806.368,117.663,805.649,118.489,805.649,119.917 M807.556,121.49c-0.541,0-0.853-0.54-0.853-1.561c0-1.044,0.3-1.584,0.877-1.584
		c0.54,0,0.841,0.552,0.841,1.572C808.421,120.975,808.132,121.49,807.556,121.49 M807.977,126.553l5.004-8.891h-0.806l-5.003,8.891
		H807.977z M801.293,126.325h1.271v-8.495h-2.507l-0.539,1.103h1.775V126.325z M795.605,125.678c0,0.419,0.336,0.755,0.767,0.755
		c0.432,0,0.767-0.336,0.767-0.755c0-0.432-0.335-0.78-0.767-0.78C795.941,124.898,795.605,125.247,795.605,125.678 M794.08,122.198
		c0-2.953-1.127-4.536-3.072-4.536c-1.92,0-3.095,1.607-3.095,4.44c0,2.856,1.163,4.451,3.083,4.451
		C792.893,126.553,794.08,124.958,794.08,122.198 M790.972,125.354c-1.056,0-1.668-1.128-1.668-3.24
		c0-2.161,0.589-3.265,1.717-3.265c1.081,0,1.669,1.116,1.669,3.241C792.689,124.262,792.113,125.354,790.972,125.354
		 M782.176,123.698c0-1.021,0.637-1.717,1.548-1.717c1.033,0,1.634,0.648,1.634,1.717c0,1.044-0.612,1.704-1.646,1.704
		C782.824,125.402,782.176,124.742,782.176,123.698 M782.956,121.118l2.485-3.241l-1.068-0.539l-1.501,2.124
		c-1.152,1.62-2.027,2.783-2.027,4.224c0,1.704,1.115,2.867,2.831,2.867c1.825,0,3.036-1.175,3.036-2.939
		c0-1.645-1.127-2.772-2.639-2.772C783.7,120.842,783.328,120.938,782.956,121.118"/>
	<path clip-path="url(#SVGID_2_)" fill="#F9A25E" d="M812.56,267.366c-0.54,0-0.853-0.541-0.853-1.562
		c0-1.044,0.301-1.571,0.877-1.571c0.541,0,0.853,0.539,0.853,1.559C813.437,266.85,813.137,267.366,812.56,267.366
		 M810.665,265.792c0,1.43,0.707,2.268,1.907,2.268c1.199,0,1.918-0.838,1.918-2.268c0-1.451-0.706-2.254-1.906-2.254
		S810.665,264.364,810.665,265.792 M805.648,261.425c0,1.441,0.72,2.257,1.919,2.257c1.2,0,1.907-0.828,1.907-2.257
		c0-1.452-0.707-2.255-1.907-2.255C806.368,259.17,805.648,259.997,805.648,261.425 M807.556,262.997
		c-0.54,0-0.853-0.539-0.853-1.561c0-1.044,0.301-1.584,0.877-1.584c0.541,0,0.841,0.553,0.841,1.572
		C808.421,262.481,808.133,262.997,807.556,262.997 M807.977,268.06l5.004-8.89h-0.805l-5.004,8.89H807.977z M799.505,265.782
		l-0.924,1.02c0.636,0.863,1.5,1.258,2.676,1.258c2.04,0,3.299-1.258,3.299-3.154c0-1.681-1.127-2.832-2.759-2.832
		c-0.444,0-0.876,0.097-1.332,0.289l0.504-1.897h3.215v-1.127h-4.055l-1.068,4.354l0.349,0.072c0.468-0.48,1.092-0.732,1.812-0.732
		c1.2,0,2.004,0.793,2.004,1.92c0,1.189-0.78,1.97-1.908,1.97C800.561,266.922,799.913,266.526,799.505,265.782 M795.604,267.185
		c0,0.42,0.336,0.756,0.768,0.756s0.768-0.336,0.768-0.756c0-0.431-0.336-0.779-0.768-0.779S795.604,266.754,795.604,267.185
		 M787.925,265.54c0.048,1.55,1.14,2.52,2.784,2.52c1.859,0,2.963-0.994,2.963-2.482c0-1.26-0.587-2.028-1.667-2.221
		c0.936-0.144,1.475-0.863,1.475-1.908c0-1.392-0.971-2.278-2.555-2.278c-1.644,0-2.568,0.815-2.652,2.267h1.261
		c0.023-0.732,0.516-1.152,1.355-1.152c0.78,0,1.284,0.469,1.284,1.201c0,0.84-0.528,1.26-1.536,1.26
		c-0.084,0-0.168-0.012-0.252-0.012v1.127c0.096,0,0.18-0.012,0.264-0.012c1.152,0,1.74,0.516,1.74,1.548
		c0,0.974-0.588,1.513-1.632,1.513c-0.924,0-1.5-0.516-1.5-1.297v-0.072H787.925z M786.184,266.718h-3.263l1.092-1.26
		c1.308-1.502,2.159-2.569,2.159-3.913c0-1.464-1.02-2.375-2.675-2.375c-1.752,0-2.856,0.995-2.856,2.53h1.345
		c0.061-0.804,0.612-1.332,1.392-1.332c0.888,0,1.416,0.528,1.416,1.369c0,0.623-0.396,1.344-1.152,2.256l-3.204,3.84h5.747V266.718
		z"/>
</g>
</svg>
