<?xml version="1.0" encoding="utf-8"?>
<!-- Generator: Adobe Illustrator 15.1.0, SVG Export Plug-In . SVG Version: 6.00 Build 0)  -->
<!DOCTYPE svg PUBLIC "-//W3C//DTD SVG 1.1//EN" "http://www.w3.org/Graphics/SVG/1.1/DTD/svg11.dtd">
<svg version="1.1" id="x-axis" xmlns="http://www.w3.org/2000/svg" xmlns:xlink="http://www.w3.org/1999/xlink" x="0px" y="0px"
	 width="912px" height="484px" viewBox="0 0 912 484" enable-background="new 0 0 912 484" xml:space="preserve">
<g>
	<defs>
		<rect id="SVGID_1_" x="-9" y="-1" width="930" height="482.252"/>
	</defs>
	<clipPath id="SVGID_2_">
		<use xlink:href="#SVGID_1_"  overflow="visible"/>
	</clipPath>
	<rect y="320" clip-path="url(#SVGID_2_)" fill="#F3E3D5" width="912" height="20"/>
	<rect clip-path="url(#SVGID_2_)" fill="#F3E3D5" width="912" height="40"/>
	<rect y="80" clip-path="url(#SVGID_2_)" fill="#F3E3D5" width="912" height="40"/>
	<rect y="160" clip-path="url(#SVGID_2_)" fill="#F3E3D5" width="912" height="40"/>
	<rect y="240" clip-path="url(#SVGID_2_)" fill="#F3E3D5" width="912" height="40"/>
	<line clip-path="url(#SVGID_2_)" fill="none" stroke="#D1D3D4" stroke-width="0.5" x1="228" y1="0" x2="228" y2="340"/>
	<line clip-path="url(#SVGID_2_)" fill="none" stroke="#D1D3D4" stroke-width="0.5" x1="285.25" y1="0" x2="285.25" y2="340"/>
	<line clip-path="url(#SVGID_2_)" fill="none" stroke="#D1D3D4" stroke-width="0.5" x1="114" y1="0" x2="114" y2="340"/>
	<line clip-path="url(#SVGID_2_)" fill="none" stroke="#D1D3D4" stroke-width="0.5" x1="171.75" y1="0" x2="171.75" y2="340"/>
	<line clip-path="url(#SVGID_2_)" fill="none" stroke="#D1D3D4" stroke-width="0.5" x1="342" y1="0" x2="342" y2="340"/>
	<line clip-path="url(#SVGID_2_)" fill="none" stroke="#D1D3D4" stroke-width="0.5" x1="399.25" y1="0" x2="399.25" y2="340"/>
	<line clip-path="url(#SVGID_2_)" fill="none" stroke="#D1D3D4" stroke-width="0.5" x1="456" y1="0" x2="456" y2="340"/>
	<line clip-path="url(#SVGID_2_)" fill="none" stroke="#D1D3D4" stroke-width="0.5" x1="570" y1="80" x2="570" y2="340"/>
	<line clip-path="url(#SVGID_2_)" fill="none" stroke="#D1D3D4" stroke-width="0.5" x1="512.75" y1="80" x2="512.75" y2="340"/>
	<line clip-path="url(#SVGID_2_)" fill="none" stroke="#D1D3D4" stroke-width="0.5" x1="627.25" y1="80" x2="627.25" y2="340"/>
	<line clip-path="url(#SVGID_2_)" fill="none" stroke="#D1D3D4" stroke-width="0.5" x1="684" y1="80" x2="684" y2="340"/>
	<line clip-path="url(#SVGID_2_)" fill="none" stroke="#D1D3D4" stroke-width="0.5" x1="741.25" y1="80" x2="741.25" y2="340"/>
	<line clip-path="url(#SVGID_2_)" fill="none" stroke="#D1D3D4" stroke-width="0.5" x1="799" y1="0" x2="799" y2="340"/>
	<g clip-path="url(#SVGID_2_)">
		<defs>
			<rect id="SVGID_3_" x="-9" y="-1" width="930" height="482.252"/>
		</defs>
		<clipPath id="SVGID_4_">
			<use xlink:href="#SVGID_3_"  overflow="visible"/>
		</clipPath>
		<path clip-path="url(#SVGID_4_)" fill="#F9A25E" d="M39.616,122.323v4.352c-1.216-0.128-1.968-1.008-1.968-2.176
			C37.648,123.203,38.352,122.403,39.616,122.323 M40.608,121.011h-0.24c-2.368,0-3.792,1.344-3.792,3.44
			c0,2.08,1.568,3.568,3.824,3.568c2.336,0,3.904-1.472,3.904-3.648c0-1.472-0.656-2.592-1.952-3.312l-0.624,0.928
			c1.04,0.592,1.552,1.36,1.552,2.32c0,1.376-1.008,2.368-2.56,2.368h-0.112V121.011z M44,132.915v-1.216h-3.488
			c-1.872,0-2.8-0.64-2.8-1.936c0-0.224,0.048-0.48,0.144-0.752l-1.104-0.416c-0.096,0.272-0.144,0.544-0.144,0.832
			c0,1.088,0.512,1.76,1.728,2.4h-1.488v1.088H44z M40.448,141.235c-1.52,0-2.704-1.152-2.704-2.592
			c0-1.424,1.184-2.576,2.704-2.576c1.52,0,2.704,1.152,2.704,2.576C43.152,140.067,41.968,141.235,40.448,141.235 M40.448,142.531
			c1.04,0,1.968-0.384,2.72-1.136c0.736-0.736,1.136-1.696,1.136-2.752c0-1.04-0.416-2-1.152-2.752
			c-0.72-0.736-1.664-1.136-2.704-1.136c-1.04,0-2,0.4-2.72,1.136c-0.736,0.752-1.136,1.696-1.136,2.752
			c0,1.056,0.384,2.016,1.12,2.752C38.448,142.146,39.408,142.531,40.448,142.531 M42.304,143.571
			c0.544,0.752,0.816,1.44,0.816,2.208c0,1.488-1.152,2.56-2.592,2.56c-1.696,0-2.752-1.088-2.752-2.656
			c0-0.704,0.224-1.376,0.624-1.984h-1.312c-0.32,0.656-0.496,1.424-0.496,2.224c0,2.144,1.568,3.728,3.904,3.728
			c2.256,0,3.808-1.456,3.808-3.68c0-0.928-0.192-1.744-0.576-2.4H42.304z M37.648,152.915l-0.72,1.632
			c-0.464,1.04-1.024,1.536-1.84,1.536c-0.976,0-1.664-0.72-1.664-1.744c0-0.816,0.448-1.44,1.312-1.936l-0.72-1.12
			c-1.136,0.56-1.728,1.584-1.728,2.96c0,1.904,1.216,3.216,2.816,3.216c1.392,0,2.384-0.736,3.024-2.256l0.592-1.392
			c0.512-1.184,1.264-1.776,2.288-1.776c1.248,0,2.128,0.912,2.128,2.288c0,1.152-0.72,1.936-2.112,2.272l0.608,1.232
			c1.696-0.432,2.656-1.696,2.656-3.504c0-2.208-1.408-3.664-3.504-3.664C39.344,150.659,38.304,151.427,37.648,152.915 M44,164.403
			H32.56v1.36H44V164.403z M42.72,175.938h-8.896v-0.88c0-1.968,0.032-3.328,0.832-4.272c0.784-0.944,2-1.44,3.616-1.44
			s2.864,0.512,3.632,1.44c0.8,0.96,0.816,2.32,0.816,4.272V175.938z M44,177.298v-2.688c0-1.856-0.048-3.36-1.072-4.688
			c-1.008-1.312-2.592-2-4.64-2s-3.648,0.688-4.656,2c-1.072,1.392-1.072,3.04-1.072,5.184v2.192H44z M39.824,183.346h1.232v-3.648
			h-1.232V183.346z M39.92,189.89v1.68l2.528-2.336c0.352,0.64,0.512,1.36,0.512,2.208c0,0.976-0.288,1.872-0.816,2.608
			c-0.944,1.296-2.24,1.952-3.856,1.952c-1.248,0-2.432-0.48-3.312-1.36s-1.36-2.064-1.36-3.312c0-1.696,0.816-3.152,2.24-4.016
			c0.688-0.416,1.552-0.64,2.496-0.64c1.408,0,2.624,0.56,3.392,1.52L39.92,189.89z M45.104,185.074l-2.352,2.176
			c-1.072-1.344-2.624-2.048-4.448-2.048c-1.744,0-3.296,0.672-4.416,1.904c-1.04,1.152-1.584,2.592-1.584,4.224
			c0,1.632,0.608,3.152,1.744,4.32c1.136,1.152,2.64,1.792,4.24,1.792c1.984,0,3.664-0.848,4.848-2.448
			c0.736-0.992,1.12-2.176,1.12-3.472c0-1.264-0.256-2.336-0.784-3.248l1.632-1.52V185.074z M35.12,203.218l4.208-1.824v3.648
			L35.12,203.218z M32.112,203.218L44,208.402v-1.472l-3.504-1.488v-4.464L44,199.49v-1.472L32.112,203.218z M44,218.306v-1.36
			h-5.744v-6.08H44v-1.36H32.56v1.36h4.4v6.08h-4.4v1.36H44z"/>
		<g clip-path="url(#SVGID_4_)">
			<g>
				<defs>
					<rect id="SVGID_5_" x="60.312" y="13.168" width="39.824" height="13.856"/>
				</defs>
				<clipPath id="SVGID_6_">
					<use xlink:href="#SVGID_5_"  overflow="visible"/>
				</clipPath>
				<path clip-path="url(#SVGID_6_)" fill="#F9A25E" d="M87.296,15.208c1.248,0,2.017,0.72,2.017,1.904
					c0,1.152-0.736,1.856-2.048,1.856c-1.28,0-2-0.72-2-1.856C85.265,15.944,86.032,15.208,87.296,15.208 M87.28,24.92
					c-1.536,0-2.4-0.88-2.4-2.304c0-1.44,0.896-2.352,2.4-2.352s2.4,0.896,2.4,2.352C89.681,24.041,88.816,24.92,87.28,24.92
					 M85.792,19.672c-1.504,0.416-2.352,1.536-2.352,3.04c0,1.984,1.424,3.312,3.855,3.312c2.448,0,3.84-1.296,3.84-3.344
					c0-1.472-0.848-2.576-2.352-3.008c1.232-0.368,1.936-1.296,1.936-2.528c0-1.776-1.296-2.976-3.424-2.976
					c-2.096,0-3.439,1.232-3.439,2.864C83.856,18.393,84.512,19.272,85.792,19.672 M79.344,24.952c0,0.512,0.4,0.912,0.929,0.912
					c0.527,0,0.943-0.4,0.943-0.912c0-0.512-0.416-0.928-0.943-0.928C79.76,24.024,79.344,24.44,79.344,24.952 M73.296,26.024
					c2.4,0,3.952-2.128,3.952-5.936s-1.536-5.92-3.983-5.92c-2.385,0-3.952,2.144-3.952,5.92S70.88,26.024,73.296,26.024
					 M73.28,24.904c-1.584,0-2.561-1.728-2.561-4.832c0-3.088,0.977-4.8,2.561-4.8c1.664,0,2.56,1.648,2.56,4.832
					C75.84,23.272,74.944,24.904,73.28,24.904"/>
			</g>
		</g>
		<g clip-path="url(#SVGID_4_)">
			<g>
				<defs>
					<rect id="SVGID_7_" x="60.312" y="92.832" width="39.712" height="14.192"/>
				</defs>
				<clipPath id="SVGID_8_">
					<use xlink:href="#SVGID_7_"  overflow="visible"/>
				</clipPath>
				<path clip-path="url(#SVGID_8_)" fill="#F9A25E" d="M84.896,102.393c0-1.504,0.928-2.544,2.288-2.544
					c1.52,0,2.432,0.976,2.432,2.528c0,1.52-0.944,2.512-2.352,2.512C85.824,104.888,84.896,103.944,84.896,102.393 M85.809,99.256
					l3.695-4.8l-1.184-0.624l-2.608,3.68c-1.264,1.792-2.224,3.12-2.224,4.768c0,2.24,1.408,3.744,3.504,3.744
					c2.496,0,4.032-1.488,4.032-3.776c0-2.096-1.408-3.536-3.456-3.536C86.928,98.712,86.368,98.888,85.809,99.256 M79.344,104.952
					c0,0.512,0.4,0.912,0.929,0.912c0.527,0,0.943-0.4,0.943-0.912c0-0.512-0.416-0.928-0.943-0.928
					C79.76,104.024,79.344,104.44,79.344,104.952 M73.296,106.024c2.4,0,3.952-2.128,3.952-5.936s-1.536-5.92-3.983-5.92
					c-2.385,0-3.952,2.144-3.952,5.92S70.88,106.024,73.296,106.024 M73.28,104.904c-1.584,0-2.561-1.728-2.561-4.832
					c0-3.088,0.977-4.8,2.561-4.8c1.664,0,2.56,1.648,2.56,4.832C75.84,103.272,74.944,104.904,73.28,104.904"/>
			</g>
		</g>
		<g clip-path="url(#SVGID_4_)">
			<g>
				<defs>
					<rect id="SVGID_9_" x="60.312" y="173.168" width="39.648" height="13.856"/>
				</defs>
				<clipPath id="SVGID_10_">
					<use xlink:href="#SVGID_9_"  overflow="visible"/>
				</clipPath>
				<path clip-path="url(#SVGID_10_)" fill="#F9A25E" d="M88.272,185.72h1.344v-2.464h1.344v-1.104h-1.344v-7.984H89.04
					l-6.128,9.088h5.36V185.72z M88.272,182.152h-3.345l3.345-5.024V182.152z M79.344,184.952c0,0.512,0.4,0.912,0.929,0.912
					c0.527,0,0.943-0.4,0.943-0.912c0-0.512-0.416-0.928-0.943-0.928C79.76,184.024,79.344,184.44,79.344,184.952 M73.296,186.024
					c2.4,0,3.952-2.128,3.952-5.936s-1.536-5.92-3.983-5.92c-2.385,0-3.952,2.144-3.952,5.92S70.88,186.024,73.296,186.024
					 M73.28,184.904c-1.584,0-2.561-1.728-2.561-4.832c0-3.088,0.977-4.8,2.561-4.8c1.664,0,2.56,1.648,2.56,4.832
					C75.84,183.272,74.944,184.904,73.28,184.904"/>
			</g>
		</g>
		<g clip-path="url(#SVGID_4_)">
			<g>
				<defs>
					<rect id="SVGID_11_" x="60.312" y="253.168" width="39.392" height="13.855"/>
				</defs>
				<clipPath id="SVGID_12_">
					<use xlink:href="#SVGID_11_"  overflow="visible"/>
				</clipPath>
				<path clip-path="url(#SVGID_12_)" fill="#F9A25E" d="M90.353,264.424h-4.336l1.792-1.936c1.84-2,2.896-3.504,2.896-5.152
					c0-1.968-1.312-3.168-3.552-3.168c-2.256,0-3.584,1.264-3.584,3.424c0,0.097,0.016,0.209,0.016,0.305h1.28v-0.128
					c0-1.521,0.8-2.353,2.24-2.353c1.376,0,2.256,0.848,2.256,2c0,1.488-1.424,3.008-3.488,5.44l-2.416,2.864h6.896V264.424z
					 M79.344,264.952c0,0.513,0.4,0.912,0.929,0.912c0.527,0,0.943-0.399,0.943-0.912c0-0.512-0.416-0.928-0.943-0.928
					C79.76,264.024,79.344,264.44,79.344,264.952 M73.296,266.024c2.4,0,3.952-2.128,3.952-5.937c0-3.808-1.536-5.92-3.983-5.92
					c-2.385,0-3.952,2.145-3.952,5.92C69.312,263.864,70.88,266.024,73.296,266.024 M73.28,264.904
					c-1.584,0-2.561-1.729-2.561-4.832c0-3.088,0.977-4.8,2.561-4.8c1.664,0,2.56,1.647,2.56,4.832
					C75.84,263.272,74.944,264.904,73.28,264.904"/>
			</g>
		</g>
	</g>
	<polyline clip-path="url(#SVGID_2_)" fill="none" stroke="#808285" stroke-width="2" stroke-linecap="round" points="
		113.862,339.36 142.388,298 171.394,291 227.903,291 284.914,278 341.927,279 399,280 456,278 513,281 569.971,278.219 627,277 
		684,277 798,277 	"/>
	<polyline clip-path="url(#SVGID_2_)" fill="none" stroke="#F9A25E" stroke-width="2" stroke-linecap="round" points="
		113.993,340.266 142.5,275 171.503,250 228.008,216 285.012,177 342.018,175 399.021,163 456.029,162 513.034,154 570.039,151.781 
		627.044,133 684.05,133 798.56,133 	"/>
	<line clip-path="url(#SVGID_2_)" fill="none" stroke="#C0C1C2" stroke-width="2.5" x1="114" y1="213" x2="797.421" y2="213"/>
	<line clip-path="url(#SVGID_2_)" fill="none" stroke="#F9A25E" stroke-width="3" x1="0" y1="340" x2="912" y2="340"/>
	<g clip-path="url(#SVGID_2_)">
		<defs>
			<rect id="SVGID_13_" x="-9" y="-1" width="930" height="482.252"/>
		</defs>
		<clipPath id="SVGID_14_">
			<use xlink:href="#SVGID_13_"  overflow="visible"/>
		</clipPath>
		<g clip-path="url(#SVGID_14_)">
			<g>
				<defs>
					<rect id="SVGID_15_" x="780.496" y="363.447" width="34.864" height="13.553"/>
				</defs>
				<clipPath id="SVGID_16_">
					<use xlink:href="#SVGID_15_"  overflow="visible"/>
				</clipPath>
				<path clip-path="url(#SVGID_16_)" fill="#F9A25E" d="M803.672,376h1.344v-2.464h1.345v-1.104h-1.345v-7.983h-0.575l-6.128,9.088
					h5.359V376z M803.672,372.432h-3.344l3.344-5.023V372.432z M796.392,374.705h-4.336l1.792-1.937c1.84-2,2.896-3.505,2.896-5.152
					c0-1.968-1.312-3.168-3.552-3.168c-2.257,0-3.584,1.265-3.584,3.425c0,0.096,0.016,0.207,0.016,0.303h1.28v-0.127
					c0-1.521,0.8-2.353,2.239-2.353c1.376,0,2.257,0.849,2.257,2c0,1.488-1.425,3.009-3.488,5.44L789.496,376h6.896V374.705z"/>
			</g>
		</g>
		<g clip-path="url(#SVGID_14_)">
			<g>
				<defs>
					<rect id="SVGID_17_" x="723.496" y="363.447" width="34.607" height="13.553"/>
				</defs>
				<clipPath id="SVGID_18_">
					<use xlink:href="#SVGID_17_"  overflow="visible"/>
				</clipPath>
				<path clip-path="url(#SVGID_18_)" fill="#F9A25E" d="M748.752,374.705h-4.336l1.792-1.937c1.84-2,2.896-3.505,2.896-5.152
					c0-1.968-1.312-3.168-3.552-3.168c-2.256,0-3.584,1.265-3.584,3.425c0,0.096,0.017,0.207,0.017,0.303h1.279v-0.127
					c0-1.521,0.801-2.353,2.24-2.353c1.376,0,2.256,0.849,2.256,2c0,1.488-1.424,3.009-3.488,5.44L741.856,376h6.896V374.705z
					 M739.392,374.705h-4.336l1.792-1.937c1.84-2,2.896-3.505,2.896-5.152c0-1.968-1.312-3.168-3.552-3.168
					c-2.257,0-3.584,1.265-3.584,3.425c0,0.096,0.016,0.207,0.016,0.303h1.28v-0.127c0-1.521,0.8-2.353,2.239-2.353
					c1.376,0,2.257,0.849,2.257,2c0,1.488-1.425,3.009-3.488,5.44L732.496,376h6.896V374.705z"/>
			</g>
		</g>
		<g clip-path="url(#SVGID_14_)">
			<g>
				<defs>
					<rect id="SVGID_19_" x="666.496" y="363.447" width="35.152" height="13.856"/>
				</defs>
				<clipPath id="SVGID_20_">
					<use xlink:href="#SVGID_19_"  overflow="visible"/>
				</clipPath>
				<path clip-path="url(#SVGID_20_)" fill="#F9A25E" d="M688.696,376.305c2.399,0,3.952-2.129,3.952-5.937s-1.536-5.92-3.984-5.92
					c-2.384,0-3.952,2.144-3.952,5.92S686.28,376.305,688.696,376.305 M688.68,375.185c-1.584,0-2.56-1.728-2.56-4.832
					c0-3.089,0.976-4.8,2.56-4.8c1.664,0,2.561,1.647,2.561,4.832C691.24,373.553,690.344,375.185,688.68,375.185 M682.392,374.705
					h-4.336l1.792-1.937c1.84-2,2.896-3.505,2.896-5.152c0-1.968-1.312-3.168-3.552-3.168c-2.257,0-3.584,1.265-3.584,3.425
					c0,0.096,0.016,0.207,0.016,0.303h1.28v-0.127c0-1.521,0.8-2.353,2.239-2.353c1.376,0,2.257,0.849,2.257,2
					c0,1.488-1.425,3.009-3.488,5.44L675.496,376h6.896V374.705z"/>
			</g>
		</g>
		<g clip-path="url(#SVGID_14_)">
			<g>
				<defs>
					<rect id="SVGID_21_" x="610.632" y="363.447" width="33.904" height="13.856"/>
				</defs>
				<clipPath id="SVGID_22_">
					<use xlink:href="#SVGID_21_"  overflow="visible"/>
				</clipPath>
				<path clip-path="url(#SVGID_22_)" fill="#F9A25E" d="M631.696,365.488c1.248,0,2.016,0.721,2.016,1.904
					c0,1.152-0.735,1.855-2.048,1.855c-1.28,0-2-0.72-2-1.855C629.664,366.225,630.432,365.488,631.696,365.488 M631.68,375.2
					c-1.535,0-2.399-0.88-2.399-2.304c0-1.439,0.896-2.352,2.399-2.352s2.4,0.896,2.4,2.352
					C634.08,374.32,633.216,375.2,631.68,375.2 M630.192,369.952c-1.504,0.416-2.353,1.536-2.353,3.04
					c0,1.984,1.424,3.312,3.856,3.312c2.448,0,3.84-1.297,3.84-3.344c0-1.473-0.848-2.576-2.353-3.009
					c1.232-0.368,1.937-1.296,1.937-2.528c0-1.775-1.296-2.976-3.424-2.976c-2.097,0-3.44,1.231-3.44,2.864
					C628.256,368.672,628.912,369.553,630.192,369.952 M621.968,376h1.328v-11.328H620.4l-0.769,1.185h2.336V376z"/>
			</g>
		</g>
		<g clip-path="url(#SVGID_14_)">
			<g>
				<defs>
					<rect id="SVGID_23_" x="553.632" y="363.111" width="33.792" height="14.192"/>
				</defs>
				<clipPath id="SVGID_24_">
					<use xlink:href="#SVGID_23_"  overflow="visible"/>
				</clipPath>
				<path clip-path="url(#SVGID_24_)" fill="#F9A25E" d="M572.296,372.672c0-1.504,0.928-2.543,2.288-2.543
					c1.52,0,2.432,0.976,2.432,2.527c0,1.52-0.943,2.512-2.352,2.512C573.224,375.168,572.296,374.225,572.296,372.672
					 M573.208,369.536l3.696-4.8l-1.185-0.624l-2.607,3.681c-1.265,1.791-2.225,3.119-2.225,4.768c0,2.24,1.408,3.744,3.504,3.744
					c2.496,0,4.032-1.488,4.032-3.776c0-2.097-1.408-3.536-3.456-3.536C574.328,368.992,573.768,369.168,573.208,369.536
					 M564.968,376h1.328v-11.328H563.4l-0.769,1.185h2.336V376z"/>
			</g>
		</g>
		<g clip-path="url(#SVGID_14_)">
			<g>
				<defs>
					<rect id="SVGID_25_" x="496.632" y="363.447" width="33.729" height="13.553"/>
				</defs>
				<clipPath id="SVGID_26_">
					<use xlink:href="#SVGID_25_"  overflow="visible"/>
				</clipPath>
				<path clip-path="url(#SVGID_26_)" fill="#F9A25E" d="M518.672,376h1.344v-2.464h1.345v-1.104h-1.345v-7.983h-0.575l-6.128,9.088
					h5.359V376z M518.672,372.432h-3.344l3.344-5.023V372.432z M507.968,376h1.328v-11.328H506.4l-0.769,1.185h2.336V376z"/>
			</g>
		</g>
		<g clip-path="url(#SVGID_14_)">
			<g>
				<defs>
					<rect id="SVGID_27_" x="439.632" y="363.447" width="33.472" height="13.553"/>
				</defs>
				<clipPath id="SVGID_28_">
					<use xlink:href="#SVGID_27_"  overflow="visible"/>
				</clipPath>
				<path clip-path="url(#SVGID_28_)" fill="#F9A25E" d="M463.752,374.705h-4.336l1.792-1.937c1.84-2,2.896-3.505,2.896-5.152
					c0-1.968-1.312-3.168-3.552-3.168c-2.256,0-3.584,1.265-3.584,3.425c0,0.096,0.017,0.207,0.017,0.303h1.279v-0.127
					c0-1.521,0.801-2.353,2.24-2.353c1.376,0,2.256,0.849,2.256,2c0,1.488-1.424,3.009-3.488,5.44L456.855,376h6.896V374.705z
					 M450.968,376h1.328v-11.328H449.4l-0.769,1.185h2.336V376z"/>
			</g>
		</g>
		<g clip-path="url(#SVGID_14_)">
			<g>
				<defs>
					<rect id="SVGID_29_" x="382.632" y="363.447" width="34.017" height="13.856"/>
				</defs>
				<clipPath id="SVGID_30_">
					<use xlink:href="#SVGID_29_"  overflow="visible"/>
				</clipPath>
				<path clip-path="url(#SVGID_30_)" fill="#F9A25E" d="M403.696,376.305c2.399,0,3.952-2.129,3.952-5.937s-1.536-5.92-3.984-5.92
					c-2.384,0-3.952,2.144-3.952,5.92S401.28,376.305,403.696,376.305 M403.68,375.185c-1.584,0-2.56-1.728-2.56-4.832
					c0-3.089,0.976-4.8,2.56-4.8c1.664,0,2.561,1.647,2.561,4.832C406.24,373.553,405.344,375.185,403.68,375.185 M393.968,376
					h1.328v-11.328H392.4l-0.769,1.185h2.336V376z"/>
			</g>
		</g>
		<g clip-path="url(#SVGID_14_)">
			<g>
				<defs>
					<rect id="SVGID_31_" x="329.16" y="363.447" width="25.696" height="13.856"/>
				</defs>
				<clipPath id="SVGID_32_">
					<use xlink:href="#SVGID_31_"  overflow="visible"/>
				</clipPath>
				<path clip-path="url(#SVGID_32_)" fill="#F9A25E" d="M342.016,365.488c1.248,0,2.017,0.721,2.017,1.904
					c0,1.152-0.736,1.855-2.048,1.855c-1.28,0-2-0.72-2-1.855C339.984,366.225,340.752,365.488,342.016,365.488 M342,375.2
					c-1.536,0-2.4-0.88-2.4-2.304c0-1.439,0.896-2.352,2.4-2.352s2.4,0.896,2.4,2.352C344.4,374.32,343.536,375.2,342,375.2
					 M340.512,369.952c-1.504,0.416-2.352,1.536-2.352,3.04c0,1.984,1.424,3.312,3.855,3.312c2.448,0,3.841-1.297,3.841-3.344
					c0-1.473-0.849-2.576-2.353-3.009c1.232-0.368,1.937-1.296,1.937-2.528c0-1.775-1.297-2.976-3.425-2.976
					c-2.096,0-3.439,1.231-3.439,2.864C338.576,368.672,339.232,369.553,340.512,369.952"/>
			</g>
		</g>
		<g clip-path="url(#SVGID_14_)">
			<g>
				<defs>
					<rect id="SVGID_33_" x="272.208" y="363.111" width="25.536" height="14.192"/>
				</defs>
				<clipPath id="SVGID_34_">
					<use xlink:href="#SVGID_33_"  overflow="visible"/>
				</clipPath>
				<path clip-path="url(#SVGID_34_)" fill="#F9A25E" d="M282.616,372.672c0-1.504,0.928-2.543,2.288-2.543
					c1.52,0,2.432,0.976,2.432,2.527c0,1.52-0.944,2.512-2.352,2.512C283.544,375.168,282.616,374.225,282.616,372.672
					 M283.528,369.536l3.695-4.8l-1.184-0.624l-2.608,3.681c-1.264,1.791-2.224,3.119-2.224,4.768c0,2.24,1.408,3.744,3.504,3.744
					c2.496,0,4.032-1.488,4.032-3.776c0-2.097-1.408-3.536-3.456-3.536C284.648,368.992,284.088,369.168,283.528,369.536"/>
			</g>
		</g>
		<g clip-path="url(#SVGID_14_)">
			<g>
				<defs>
					<rect id="SVGID_35_" x="214.632" y="363.447" width="26.048" height="13.553"/>
				</defs>
				<clipPath id="SVGID_36_">
					<use xlink:href="#SVGID_35_"  overflow="visible"/>
				</clipPath>
				<path clip-path="url(#SVGID_36_)" fill="#F9A25E" d="M228.992,376h1.344v-2.464h1.344v-1.104h-1.344v-7.983h-0.576l-6.128,9.088
					h5.36V376z M228.992,372.432h-3.344l3.344-5.023V372.432z"/>
			</g>
		</g>
		<g clip-path="url(#SVGID_14_)">
			<g>
				<defs>
					<rect id="SVGID_37_" x="158.176" y="363.447" width="25.248" height="13.553"/>
				</defs>
				<clipPath id="SVGID_38_">
					<use xlink:href="#SVGID_37_"  overflow="visible"/>
				</clipPath>
				<path clip-path="url(#SVGID_38_)" fill="#F9A25E" d="M174.072,374.705h-4.336l1.792-1.937c1.84-2,2.896-3.505,2.896-5.152
					c0-1.968-1.312-3.168-3.552-3.168c-2.256,0-3.584,1.265-3.584,3.425c0,0.096,0.016,0.207,0.016,0.303h1.28v-0.127
					c0-1.521,0.8-2.353,2.24-2.353c1.376,0,2.256,0.849,2.256,2c0,1.488-1.424,3.009-3.488,5.44L167.176,376h6.896V374.705z"/>
			</g>
		</g>
		<g clip-path="url(#SVGID_14_)">
			<g>
				<defs>
					<rect id="SVGID_39_" x="101.032" y="363.447" width="25.936" height="13.856"/>
				</defs>
				<clipPath id="SVGID_40_">
					<use xlink:href="#SVGID_39_"  overflow="visible"/>
				</clipPath>
				<path clip-path="url(#SVGID_40_)" fill="#F9A25E" d="M114.016,376.305c2.4,0,3.952-2.129,3.952-5.937s-1.536-5.92-3.983-5.92
					c-2.385,0-3.952,2.144-3.952,5.92S111.6,376.305,114.016,376.305 M114,375.185c-1.584,0-2.56-1.728-2.56-4.832
					c0-3.089,0.976-4.8,2.56-4.8c1.664,0,2.56,1.647,2.56,4.832C116.56,373.553,115.664,375.185,114,375.185"/>
			</g>
		</g>
		<path clip-path="url(#SVGID_14_)" fill="#F9A25E" d="M472.552,426.801c0.561,1.008,1.488,1.504,2.816,1.504
			c1.584,0,2.608-0.944,2.608-2.272c0-1.168-0.688-1.68-2.08-2.128c-1.185-0.384-1.84-0.479-1.84-1.232
			c0-0.623,0.495-1.071,1.216-1.071c0.752,0,1.344,0.368,1.632,1.023l0.992-0.607c-0.385-0.912-1.312-1.424-2.544-1.424
			c-1.521,0-2.528,0.911-2.528,2.159c0,1.408,1.056,1.713,2.816,2.32c0.752,0.256,1.119,0.544,1.119,1.088
			c0,0.624-0.527,1.072-1.344,1.072c-0.815,0-1.424-0.368-1.824-1.136L472.552,426.801z M465.512,428h1.217l0.016-3.775l3.68,3.775
			h1.712l-3.888-3.872l3.568-3.279h-1.632l-3.44,3.248l-0.016-8.208h-1.217V428z M462.424,423.616h-4.352
			c0.128-1.216,1.008-1.968,2.176-1.968C461.544,421.648,462.344,422.353,462.424,423.616 M463.736,424.608v-0.24
			c0-2.368-1.344-3.792-3.44-3.792c-2.08,0-3.567,1.568-3.567,3.824c0,2.336,1.472,3.904,3.647,3.904
			c1.473,0,2.592-0.656,3.312-1.952l-0.929-0.624c-0.592,1.04-1.359,1.552-2.319,1.552c-1.376,0-2.368-1.008-2.368-2.56v-0.112
			H463.736z M454.28,423.616h-4.353c0.129-1.216,1.009-1.968,2.177-1.968C453.4,421.648,454.2,422.353,454.28,423.616
			 M455.592,424.608v-0.24c0-2.368-1.344-3.792-3.439-3.792c-2.08,0-3.568,1.568-3.568,3.824c0,2.336,1.473,3.904,3.648,3.904
			c1.472,0,2.592-0.656,3.312-1.952l-0.928-0.624c-0.592,1.04-1.36,1.552-2.32,1.552c-1.376,0-2.368-1.008-2.368-2.56v-0.112
			H455.592z M433.32,416.561l4.432,11.888l2.977-8.848l2.991,8.848l4.433-11.888h-1.473l-2.911,8.416l-3.057-8.864l-3.023,8.864
			l-2.896-8.416H433.32z"/>
	</g>
	<polygon clip-path="url(#SVGID_2_)" fill="#F9A25E" points="170.515,242.683 171.485,242.683 171.485,235.627 173.622,235.627 
		173.622,234.788 171.485,234.788 171.485,231.5 170.515,231.5 170.515,234.788 168.379,234.788 168.379,235.627 170.515,235.627 	
		"/>
	<polygon clip-path="url(#SVGID_2_)" fill="none" stroke="#F9A25E" points="170.515,242.683 171.485,242.683 171.485,235.627 
		173.622,235.627 173.622,234.788 171.485,234.788 171.485,231.5 170.515,231.5 170.515,234.788 168.379,234.788 168.379,235.627 
		170.515,235.627 	"/>
	<polygon clip-path="url(#SVGID_2_)" fill="#F9A25E" points="227.515,208.433 228.485,208.433 228.485,201.377 230.622,201.377 
		230.622,200.538 228.485,200.538 228.485,197.251 227.515,197.251 227.515,200.538 225.379,200.538 225.379,201.377 
		227.515,201.377 	"/>
	<polygon clip-path="url(#SVGID_2_)" fill="none" stroke="#F9A25E" points="227.515,208.433 228.485,208.433 228.485,201.377 
		230.622,201.377 230.622,200.538 228.485,200.538 228.485,197.251 227.515,197.251 227.515,200.538 225.379,200.538 
		225.379,201.377 227.515,201.377 	"/>
	<polygon clip-path="url(#SVGID_2_)" fill="#F9A25E" points="284.515,168.683 285.485,168.683 285.485,161.627 287.622,161.627 
		287.622,160.788 285.485,160.788 285.485,157.501 284.515,157.501 284.515,160.788 282.379,160.788 282.379,161.627 
		284.515,161.627 	"/>
	<polygon clip-path="url(#SVGID_2_)" fill="none" stroke="#F9A25E" points="284.515,168.683 285.485,168.683 285.485,161.627 
		287.622,161.627 287.622,160.788 285.485,160.788 285.485,157.501 284.515,157.501 284.515,160.788 282.379,160.788 
		282.379,161.627 284.515,161.627 	"/>
	<polygon clip-path="url(#SVGID_2_)" fill="#F9A25E" points="341.515,167.5 342.485,167.5 342.485,160.444 344.622,160.444 
		344.622,159.605 342.485,159.605 342.485,156.318 341.515,156.318 341.515,159.605 339.379,159.605 339.379,160.444 
		341.515,160.444 	"/>
	<polygon clip-path="url(#SVGID_2_)" fill="none" stroke="#F9A25E" points="341.515,167.5 342.485,167.5 342.485,160.444 
		344.622,160.444 344.622,159.605 342.485,159.605 342.485,156.318 341.515,156.318 341.515,159.605 339.379,159.605 
		339.379,160.444 341.515,160.444 	"/>
	<polygon clip-path="url(#SVGID_2_)" fill="#F9A25E" points="398.515,155.683 399.485,155.683 399.485,148.627 401.622,148.627 
		401.622,147.788 399.485,147.788 399.485,144.501 398.515,144.501 398.515,147.788 396.379,147.788 396.379,148.627 
		398.515,148.627 	"/>
	<polygon clip-path="url(#SVGID_2_)" fill="none" stroke="#F9A25E" points="398.515,155.683 399.485,155.683 399.485,148.627 
		401.622,148.627 401.622,147.788 399.485,147.788 399.485,144.501 398.515,144.501 398.515,147.788 396.379,147.788 
		396.379,148.627 398.515,148.627 	"/>
	<polygon clip-path="url(#SVGID_2_)" fill="#F9A25E" points="455.515,153.683 456.484,153.683 456.484,146.627 458.621,146.627 
		458.621,145.788 456.484,145.788 456.484,142.501 455.515,142.501 455.515,145.788 453.379,145.788 453.379,146.627 
		455.515,146.627 	"/>
	<polygon clip-path="url(#SVGID_2_)" fill="none" stroke="#F9A25E" points="455.515,153.683 456.484,153.683 456.484,146.627 
		458.621,146.627 458.621,145.788 456.484,145.788 456.484,142.501 455.515,142.501 455.515,145.788 453.379,145.788 
		453.379,146.627 455.515,146.627 	"/>
	<polygon clip-path="url(#SVGID_2_)" fill="#F9A25E" points="512.515,146.683 513.484,146.683 513.484,139.627 515.622,139.627 
		515.622,138.788 513.484,138.788 513.484,135.501 512.515,135.501 512.515,138.788 510.379,138.788 510.379,139.627 
		512.515,139.627 	"/>
	<polygon clip-path="url(#SVGID_2_)" fill="none" stroke="#F9A25E" points="512.515,146.683 513.484,146.683 513.484,139.627 
		515.622,139.627 515.622,138.788 513.484,138.788 513.484,135.501 512.515,135.501 512.515,138.788 510.379,138.788 
		510.379,139.627 512.515,139.627 	"/>
	<polygon clip-path="url(#SVGID_2_)" fill="#F9A25E" points="569.515,144.683 570.485,144.683 570.485,137.627 572.622,137.627 
		572.622,136.788 570.485,136.788 570.485,133.501 569.515,133.501 569.515,136.788 567.379,136.788 567.379,137.627 
		569.515,137.627 	"/>
	<polygon clip-path="url(#SVGID_2_)" fill="none" stroke="#F9A25E" points="569.515,144.683 570.485,144.683 570.485,137.627 
		572.622,137.627 572.622,136.788 570.485,136.788 570.485,133.501 569.515,133.501 569.515,136.788 567.379,136.788 
		567.379,137.627 569.515,137.627 	"/>
	<polygon clip-path="url(#SVGID_2_)" fill="#F9A25E" points="626.515,126.683 627.485,126.683 627.485,119.627 629.622,119.627 
		629.622,118.788 627.485,118.788 627.485,115.501 626.515,115.501 626.515,118.788 624.379,118.788 624.379,119.627 
		626.515,119.627 	"/>
	<polygon clip-path="url(#SVGID_2_)" fill="none" stroke="#F9A25E" points="626.515,126.683 627.485,126.683 627.485,119.627 
		629.622,119.627 629.622,118.788 627.485,118.788 627.485,115.501 626.515,115.501 626.515,118.788 624.379,118.788 
		624.379,119.627 626.515,119.627 	"/>
	<polygon clip-path="url(#SVGID_2_)" fill="#F9A25E" points="683.515,126.683 684.485,126.683 684.485,119.627 686.622,119.627 
		686.622,118.788 684.485,118.788 684.485,115.501 683.515,115.501 683.515,118.788 681.379,118.788 681.379,119.627 
		683.515,119.627 	"/>
	<polygon clip-path="url(#SVGID_2_)" fill="none" stroke="#F9A25E" points="683.515,126.683 684.485,126.683 684.485,119.627 
		686.622,119.627 686.622,118.788 684.485,118.788 684.485,115.501 683.515,115.501 683.515,118.788 681.379,118.788 
		681.379,119.627 683.515,119.627 	"/>
	<polygon clip-path="url(#SVGID_2_)" fill="#F9A25E" points="740.515,126.683 741.485,126.683 741.485,119.627 743.622,119.627 
		743.622,118.788 741.485,118.788 741.485,115.501 740.515,115.501 740.515,118.788 738.379,118.788 738.379,119.627 
		740.515,119.627 	"/>
	<polygon clip-path="url(#SVGID_2_)" fill="none" stroke="#F9A25E" points="740.515,126.683 741.485,126.683 741.485,119.627 
		743.622,119.627 743.622,118.788 741.485,118.788 741.485,115.501 740.515,115.501 740.515,118.788 738.379,118.788 
		738.379,119.627 740.515,119.627 	"/>
	<polygon clip-path="url(#SVGID_2_)" fill="#F9A25E" points="797.515,126.683 798.485,126.683 798.485,119.627 800.622,119.627 
		800.622,118.788 798.485,118.788 798.485,115.501 797.515,115.501 797.515,118.788 795.379,118.788 795.379,119.627 
		797.515,119.627 	"/>
	<polygon clip-path="url(#SVGID_2_)" fill="none" stroke="#F9A25E" points="797.515,126.683 798.485,126.683 798.485,119.627 
		800.622,119.627 800.622,118.788 798.485,118.788 798.485,115.501 797.515,115.501 797.515,118.788 795.379,118.788 
		795.379,119.627 797.515,119.627 	"/>
	<g clip-path="url(#SVGID_2_)">
		<defs>
			<rect id="SVGID_41_" x="-9" y="-1" width="930" height="482.252"/>
		</defs>
		<clipPath id="SVGID_42_">
			<use xlink:href="#SVGID_41_"  overflow="visible"/>
		</clipPath>
		<path clip-path="url(#SVGID_42_)" fill="#F9A25E" d="M751.539,28.792l0.832,0.432c1.232-2.288,1.855-4.864,1.855-7.728
			c0-2.96-0.575-5.504-1.855-7.76l-0.832,0.384c1.152,2.272,1.648,4.64,1.648,7.376C753.188,24.312,752.691,26.68,751.539,28.792
			 M746.291,15.208c1.248,0,2.016,0.72,2.016,1.904c0,1.152-0.735,1.856-2.048,1.856c-1.279,0-2-0.72-2-1.856
			C744.259,15.944,745.027,15.208,746.291,15.208 M746.275,24.92c-1.536,0-2.4-0.88-2.4-2.304c0-1.44,0.896-2.352,2.4-2.352
			s2.399,0.896,2.399,2.352C748.675,24.041,747.812,24.92,746.275,24.92 M744.787,19.672c-1.504,0.416-2.352,1.536-2.352,3.04
			c0,1.984,1.424,3.312,3.855,3.312c2.448,0,3.84-1.296,3.84-3.344c0-1.472-0.848-2.576-2.352-3.008
			c1.231-0.368,1.936-1.296,1.936-2.528c0-1.776-1.296-2.976-3.424-2.976c-2.096,0-3.439,1.232-3.439,2.864
			C742.852,18.393,743.507,19.272,744.787,19.672 M733.075,22.824v0.208c0,1.808,1.344,2.992,3.472,2.992
			c2.433,0,3.84-1.28,3.84-3.328c0-1.552-0.815-2.592-2.176-2.816c1.28-0.336,2.032-1.312,2.032-2.672
			c0-1.856-1.296-3.04-3.424-3.04c-2.208,0-3.44,1.104-3.536,3.056h1.344c0.064-1.232,0.832-1.904,2.16-1.904
			c1.264,0,2.032,0.768,2.032,1.952c0,1.344-0.8,2.048-2.384,2.048c-0.129,0-0.24-0.016-0.368-0.016v1.12
			c0.144-0.016,0.271-0.016,0.399-0.016c1.648,0,2.496,0.768,2.496,2.24c0,1.392-0.848,2.208-2.368,2.208
			c-1.312,0-2.128-0.736-2.128-1.904v-0.128H733.075z M727.203,25.72h1.328V14.393h-2.896l-0.768,1.184h2.336V25.72z
			 M720.931,21.992h-9.359v0.912h9.359V21.992z M720.931,19h-9.359v0.912h9.359V19z M702.004,25.72h1.216v-3.696
			c0-0.784,0-1.376,0.416-1.888c0.4-0.496,1.024-0.768,1.744-0.768c1.28,0,1.904,0.704,1.904,2.144v4.208h1.216v-4.864
			c0-1.616-1.023-2.544-2.688-2.544c-1.12,0-1.984,0.432-2.593,1.36v-1.104h-1.216V25.72z M700.212,28.792
			c-1.151-2.112-1.647-4.48-1.647-7.296c0-2.736,0.496-5.104,1.647-7.376l-0.832-0.384c-1.28,2.256-1.855,4.8-1.855,7.76
			c0,2.864,0.624,5.44,1.855,7.728L700.212,28.792z M676.948,14.28l4.432,11.888l2.977-8.848l2.991,8.848l4.433-11.888h-1.473
			l-2.911,8.416l-3.057-8.864l-3.023,8.864l-2.896-8.416H676.948z M675.492,24.424h-4.336l1.792-1.936
			c1.84-2,2.896-3.504,2.896-5.152c0-1.968-1.312-3.168-3.552-3.168c-2.256,0-3.584,1.264-3.584,3.424
			c0,0.096,0.016,0.208,0.016,0.304h1.28v-0.128c0-1.52,0.8-2.352,2.24-2.352c1.376,0,2.256,0.848,2.256,2
			c0,1.488-1.424,3.008-3.488,5.44l-2.416,2.864h6.896V24.424z M662.26,21.641h-1.68l2.336,2.528
			c-0.64,0.352-1.36,0.512-2.208,0.512c-0.976,0-1.872-0.288-2.608-0.816c-1.296-0.944-1.951-2.24-1.951-3.856
			c0-1.248,0.479-2.432,1.359-3.312s2.064-1.36,3.312-1.36c1.695,0,3.151,0.816,4.016,2.24c0.416,0.688,0.641,1.552,0.641,2.496
			c0,1.408-0.561,2.624-1.521,3.392L662.26,21.641z M667.076,26.824l-2.176-2.352c1.344-1.072,2.048-2.624,2.048-4.448
			c0-1.744-0.672-3.296-1.904-4.416c-1.151-1.04-2.592-1.584-4.224-1.584s-3.152,0.608-4.32,1.744
			c-1.152,1.136-1.792,2.64-1.792,4.24c0,1.984,0.848,3.664,2.448,4.848c0.992,0.736,2.176,1.12,3.472,1.12
			c1.265,0,2.336-0.256,3.248-0.784l1.521,1.632H667.076z M646.884,22.168c0,1.648-0.896,2.608-2.336,2.608
			c-1.52,0-2.384-0.976-2.384-2.704c0-1.632,0.864-2.576,2.336-2.576C645.876,19.497,646.884,20.504,646.884,22.168 M648.1,18.568
			h-1.248v1.328c-0.527-1.04-1.439-1.584-2.623-1.584c-2,0-3.36,1.424-3.36,3.808c0,2.32,1.376,3.824,3.424,3.824
			c1.104,0,2.032-0.56,2.592-1.584v1.2c0,0.656-0.032,1.184-0.304,1.632c-0.368,0.624-1.072,0.944-2.048,0.944
			c-1.376,0-2.128-0.624-2.128-1.68V26.36h-1.376c0.048,1.792,1.296,2.848,3.487,2.848c1.265,0,2.225-0.368,2.881-1.072
			c0.672-0.72,0.703-1.52,0.703-2.544V18.568z M637.876,25.72h1.216v-4.864c0-1.616-0.96-2.544-2.544-2.544
			c-1.088,0-1.92,0.464-2.544,1.456c-0.416-0.96-1.248-1.456-2.399-1.456c-1.072,0-1.889,0.448-2.465,1.36v-1.104h-1.216v7.152
			h1.216v-3.696c0-0.176-0.016-0.352-0.016-0.512c0-0.544,0.064-0.992,0.368-1.376c0.384-0.496,0.976-0.768,1.632-0.768
			c1.216,0,1.776,0.704,1.776,2.144v4.208h1.216v-3.696c0-0.16-0.017-0.304-0.017-0.448c0-0.592,0.08-1.04,0.385-1.44
			c0.384-0.496,0.96-0.768,1.615-0.768c1.217,0,1.776,0.704,1.776,2.144V25.72z M622.052,26.024c2.4,0,3.952-2.128,3.952-5.936
			s-1.536-5.92-3.983-5.92c-2.385,0-3.952,2.144-3.952,5.92S619.636,26.024,622.052,26.024 M622.036,24.904
			c-1.584,0-2.56-1.728-2.56-4.832c0-3.088,0.976-4.8,2.56-4.8c1.664,0,2.56,1.648,2.56,4.832
			C624.596,23.272,623.7,24.904,622.036,24.904 M612.692,26.024c2.399,0,3.952-2.128,3.952-5.936s-1.536-5.92-3.984-5.92
			c-2.384,0-3.952,2.144-3.952,5.92S610.276,26.024,612.692,26.024 M612.676,24.904c-1.584,0-2.56-1.728-2.56-4.832
			c0-3.088,0.976-4.8,2.56-4.8c1.664,0,2.561,1.648,2.561,4.832C615.236,23.272,614.34,24.904,612.676,24.904 M606.388,24.424
			h-4.336l1.792-1.936c1.84-2,2.896-3.504,2.896-5.152c0-1.968-1.312-3.168-3.552-3.168c-2.257,0-3.584,1.264-3.584,3.424
			c0,0.096,0.016,0.208,0.016,0.304h1.28v-0.128c0-1.52,0.8-2.352,2.239-2.352c1.376,0,2.257,0.848,2.257,2
			c0,1.488-1.425,3.008-3.488,5.44l-2.416,2.864h6.896V24.424z M589.028,16.84l1.823,4.208h-3.647L589.028,16.84z M589.028,13.833
			l-5.185,11.888h1.473l1.487-3.504h4.464l1.488,3.504h1.473L589.028,13.833z M581.365,25.72h1.359V14.28h-1.359V25.72z
			 M570.917,25.72h8.48v-1.296h-6.112l6.368-10.144h-7.521v1.248h5.216L570.917,25.72z M564.373,26.168l3.536-8.224l1.456,7.776
			h1.328l-2.32-11.888l-4,9.456l-4-9.456l-2.32,11.888h1.328l1.44-7.776L564.373,26.168z M554.997,25.72h1.36V14.28h-1.36V25.72z
			 M552.741,17.017V15.24c-1.185-0.816-2.4-1.232-3.76-1.232c-1.681,0-3.089,0.56-4.257,1.68c-1.199,1.168-1.792,2.592-1.792,4.368
			c0,2.032,0.912,3.76,2.576,4.912c0.992,0.688,2.16,1.056,3.376,1.056c1.393,0,2.721-0.432,3.856-1.248v-1.808
			c-1.04,1.216-2.304,1.808-3.744,1.808c-1.552,0-2.944-0.736-3.856-2.032c-0.527-0.752-0.783-1.648-0.783-2.704
			c0-1.344,0.432-2.464,1.312-3.376c0.848-0.88,2.064-1.392,3.264-1.392C550.421,15.272,551.637,15.816,552.741,17.017"/>
		<path clip-path="url(#SVGID_42_)" fill="#808285" d="M698.611,68.792l0.832,0.432c1.231-2.288,1.855-4.864,1.855-7.728
			c0-2.96-0.575-5.504-1.855-7.76l-0.832,0.384c1.152,2.272,1.647,4.64,1.647,7.376C700.259,64.312,699.764,66.68,698.611,68.792
			 M690.963,62.393c0-1.504,0.929-2.544,2.288-2.544c1.521,0,2.433,0.976,2.433,2.528c0,1.52-0.944,2.512-2.353,2.512
			C691.892,64.888,690.963,63.944,690.963,62.393 M691.875,59.256l3.696-4.8l-1.185-0.624l-2.607,3.68
			c-1.264,1.792-2.225,3.12-2.225,4.768c0,2.24,1.408,3.744,3.505,3.744c2.495,0,4.031-1.488,4.031-3.776
			c0-2.096-1.407-3.536-3.456-3.536C692.995,58.712,692.436,58.888,691.875,59.256 M680.147,62.824v0.208
			c0,1.808,1.344,2.992,3.472,2.992c2.432,0,3.84-1.28,3.84-3.328c0-1.552-0.815-2.592-2.176-2.816
			c1.28-0.336,2.032-1.312,2.032-2.672c0-1.856-1.296-3.04-3.424-3.04c-2.208,0-3.44,1.104-3.536,3.056h1.344
			c0.064-1.232,0.832-1.904,2.16-1.904c1.264,0,2.032,0.768,2.032,1.952c0,1.344-0.801,2.048-2.385,2.048
			c-0.128,0-0.239-0.016-0.367-0.016v1.12c0.144-0.016,0.271-0.016,0.399-0.016c1.648,0,2.496,0.768,2.496,2.24
			c0,1.392-0.848,2.208-2.368,2.208c-1.312,0-2.128-0.736-2.128-1.904v-0.128H680.147z M674.275,65.72h1.328V54.393h-2.896
			l-0.768,1.184h2.336V65.72z M668.003,61.992h-9.359v0.912h9.359V61.992z M668.003,59h-9.359v0.912h9.359V59z M649.075,65.72h1.216
			v-3.696c0-0.784,0-1.376,0.416-1.888c0.4-0.496,1.024-0.768,1.744-0.768c1.28,0,1.904,0.704,1.904,2.144v4.208h1.216v-4.864
			c0-1.616-1.024-2.544-2.688-2.544c-1.119,0-1.983,0.432-2.592,1.36v-1.104h-1.216V65.72z M647.284,68.792
			c-1.152-2.112-1.647-4.48-1.647-7.296c0-2.736,0.495-5.104,1.647-7.376l-0.832-0.384c-1.28,2.256-1.856,4.8-1.856,7.76
			c0,2.864,0.625,5.44,1.856,7.728L647.284,68.792z M624.021,54.28l4.432,11.888l2.976-8.848l2.992,8.848l4.433-11.888h-1.473
			l-2.912,8.416l-3.056-8.864l-3.023,8.864l-2.896-8.416H624.021z M622.564,64.424h-4.336l1.792-1.936
			c1.84-2,2.896-3.504,2.896-5.152c0-1.968-1.312-3.168-3.552-3.168c-2.256,0-3.584,1.264-3.584,3.424
			c0,0.096,0.016,0.208,0.016,0.304h1.28v-0.128c0-1.52,0.8-2.352,2.24-2.352c1.376,0,2.256,0.848,2.256,2
			c0,1.488-1.424,3.008-3.488,5.44l-2.416,2.864h6.896V64.424z M609.332,61.641h-1.68l2.336,2.528
			c-0.64,0.352-1.36,0.512-2.208,0.512c-0.976,0-1.872-0.288-2.608-0.816c-1.296-0.944-1.951-2.24-1.951-3.856
			c0-1.248,0.479-2.432,1.359-3.312s2.064-1.36,3.312-1.36c1.695,0,3.151,0.816,4.016,2.24c0.416,0.688,0.64,1.552,0.64,2.496
			c0,1.408-0.56,2.624-1.52,3.392L609.332,61.641z M614.148,66.824l-2.176-2.352c1.344-1.072,2.048-2.624,2.048-4.448
			c0-1.744-0.672-3.296-1.904-4.416c-1.152-1.04-2.592-1.584-4.224-1.584c-1.633,0-3.152,0.608-4.32,1.744
			c-1.152,1.136-1.792,2.64-1.792,4.24c0,1.984,0.848,3.664,2.448,4.848c0.992,0.736,2.176,1.12,3.472,1.12
			c1.264,0,2.336-0.256,3.248-0.784l1.52,1.632H614.148z M589.236,62.168c0-1.52,1.152-2.704,2.592-2.704
			c1.424,0,2.576,1.184,2.576,2.704s-1.152,2.704-2.576,2.704S589.236,63.688,589.236,62.168 M587.94,62.168
			c0,1.04,0.384,1.968,1.136,2.72c0.736,0.736,1.696,1.136,2.752,1.136c1.04,0,2-0.416,2.752-1.152
			c0.736-0.72,1.136-1.664,1.136-2.704s-0.399-2-1.136-2.72c-0.752-0.736-1.696-1.136-2.752-1.136s-2.016,0.384-2.752,1.12
			C588.324,60.168,587.94,61.128,587.94,62.168 M580.612,62.185c0-1.616,0.992-2.656,2.432-2.656c1.424,0,2.305,0.912,2.305,2.496
			c0,1.792-0.912,2.816-2.337,2.816C581.54,64.84,580.612,63.88,580.612,62.185 M579.444,53.608V65.72h1.168v-1.296
			c0.56,1.024,1.504,1.6,2.608,1.6c2.048,0,3.424-1.52,3.424-3.856c0-2.4-1.376-3.856-3.376-3.856c-1.185,0-2.064,0.544-2.608,1.6
			v-6.304H579.444z M576.372,61.336h-4.352c0.128-1.216,1.008-1.968,2.176-1.968C575.492,59.368,576.292,60.072,576.372,61.336
			 M577.685,62.328v-0.24c0-2.368-1.345-3.792-3.44-3.792c-2.08,0-3.568,1.568-3.568,3.824c0,2.336,1.473,3.904,3.648,3.904
			c1.472,0,2.592-0.656,3.312-1.952l-0.928-0.624c-0.592,1.04-1.359,1.552-2.319,1.552c-1.377,0-2.368-1.008-2.368-2.56v-0.112
			H577.685z M569.685,64.024c-0.751,0.544-1.44,0.816-2.207,0.816c-1.489,0-2.561-1.152-2.561-2.592
			c0-1.696,1.087-2.752,2.655-2.752c0.705,0,1.377,0.224,1.984,0.624v-1.312c-0.656-0.32-1.424-0.496-2.225-0.496
			c-2.144,0-3.727,1.568-3.727,3.904c0,2.256,1.456,3.808,3.68,3.808c0.927,0,1.744-0.192,2.399-0.576V64.024z M560.646,62.216
			c0,1.648-0.896,2.592-2.336,2.592c-1.521,0-2.385-0.976-2.385-2.704c0-1.632,0.864-2.576,2.336-2.576
			C559.637,59.528,560.646,60.552,560.646,62.216 M561.829,58.568h-1.216v1.344c-0.544-1.056-1.424-1.6-2.624-1.6
			c-2,0-3.36,1.456-3.36,3.856c0,2.336,1.376,3.856,3.424,3.856c1.104,0,2.017-0.56,2.593-1.6v1.296h1.184V58.568z M551.445,65.72
			h1.216V53.608h-1.216V65.72z M544.821,60.584h1.04c1.184,0,2.112-0.032,2.88-0.576c0.72-0.512,1.168-1.456,1.168-2.576
			c0-1.12-0.448-2.064-1.168-2.576c-0.768-0.544-1.712-0.576-2.88-0.576h-2.4v11.44h1.36V60.584z M544.821,59.353v-3.824h0.656
			c1.983,0,2.96,0.32,2.96,1.984c0,1.584-0.992,1.84-2.96,1.84H544.821z"/>
	</g>
	<line clip-path="url(#SVGID_2_)" fill="none" stroke="#F9A25E" stroke-width="2" x1="482.894" y1="20.5" x2="527.893" y2="20.5"/>
	<line clip-path="url(#SVGID_2_)" fill="none" stroke="#808285" stroke-width="2" x1="482.894" y1="60" x2="527.893" y2="60"/>
	<g clip-path="url(#SVGID_2_)">
		<defs>
			<rect id="SVGID_43_" x="-9" y="-1" width="930" height="482.252"/>
		</defs>
		<clipPath id="SVGID_44_">
			<use xlink:href="#SVGID_43_"  overflow="visible"/>
		</clipPath>
		<g clip-path="url(#SVGID_44_)">
			<g>
				<defs>
					<rect id="SVGID_45_" x="802.48" y="205.832" width="58.432" height="14.352"/>
				</defs>
				<clipPath id="SVGID_46_">
					<use xlink:href="#SVGID_45_"  overflow="visible"/>
				</clipPath>
				<path clip-path="url(#SVGID_46_)" fill="#808285" d="M844.056,217.041v-8.096h1.344c1.376,0,2.432,0.048,3.28,0.752
					c0.863,0.736,1.296,1.84,1.296,3.296s-0.433,2.56-1.296,3.296c-0.816,0.688-1.792,0.752-3.057,0.752H844.056z M842.199,218.72
					h3.008c1.856,0,3.36-0.048,4.688-1.072c1.312-1.008,2.016-2.592,2.016-4.64s-0.704-3.648-2.016-4.656
					c-1.393-1.072-3.04-1.072-5.185-1.072h-2.512V218.72z M837.752,218.72h1.856v-11.44h-1.856V218.72z M835.496,210.064
					l0.097-1.872c-1.12-0.784-2.32-1.184-3.696-1.184c-1.712,0-3.2,0.592-4.336,1.712c-1.136,1.12-1.744,2.624-1.744,4.304
					c0,1.664,0.608,3.2,1.728,4.304c1.12,1.104,2.624,1.696,4.385,1.696c1.376,0,2.544-0.352,3.552-1.072v-2.096
					c-1.12,0.96-2.336,1.44-3.696,1.44c-2.288,0-4.032-1.744-4.032-4.256c0-2.544,1.713-4.32,4.225-4.32
					C833.272,208.72,834.44,209.168,835.496,210.064 M821.912,213.072l1.265,5.648h1.728l-2.768-11.888l-3.296,7.184
					c-0.177,0.4-0.433,0.912-0.656,1.552c-0.32-0.832-0.528-1.344-0.624-1.552l-3.376-7.184l-2.704,11.888h1.712l1.232-5.632
					c0.111-0.512,0.191-1.04,0.208-1.584c0.144,0.512,0.336,0.992,0.56,1.456l2.992,6.224l2.992-6.096
					c0.256-0.528,0.432-1.04,0.527-1.584C821.816,212.353,821.864,212.864,821.912,213.072"/>
			</g>
		</g>
		<path clip-path="url(#SVGID_44_)" fill="#808285" d="M822.034,473.002h0.725v-6.189h-1.582l-0.42,0.646h1.277V473.002z
			 M816.632,477.278c0,0.479,0.374,0.854,0.869,0.854c0.494,0,0.884-0.375,0.884-0.854c0-0.48-0.39-0.869-0.884-0.869
			C817.021,476.409,816.632,476.798,816.632,477.278 M811.877,477.997h1.258v-2.31h1.26v-1.033h-1.26v-7.485h-0.539l-5.744,8.519
			h5.025V477.997z M811.877,474.654h-3.135l3.135-4.711V474.654z M801.842,477.997h1.243v-10.618h-2.713l-0.72,1.108h2.189V477.997z
			 M793.411,478.282c2.251,0,3.704-1.993,3.704-5.564c0-3.57-1.438-5.549-3.734-5.549c-2.236,0-3.704,2.008-3.704,5.549
			S791.145,478.282,793.411,478.282 M793.396,477.234c-1.485,0-2.4-1.621-2.4-4.531c0-2.896,0.915-4.501,2.4-4.501
			c1.562,0,2.401,1.545,2.401,4.531C795.797,475.703,794.957,477.234,793.396,477.234 M787.501,476.784h-4.065l1.681-1.816
			c1.726-1.875,2.714-3.286,2.714-4.829c0-1.847-1.229-2.97-3.329-2.97c-2.116,0-3.359,1.184-3.359,3.21
			c0,0.089,0.016,0.194,0.016,0.283h1.197v-0.119c0-1.425,0.751-2.206,2.102-2.206c1.291,0,2.116,0.796,2.116,1.877
			c0,1.394-1.335,2.819-3.271,5.1l-2.264,2.684h6.464V476.784z M773.521,477.997h1.139v-11.353h-1.139V477.997z M770.132,474.713
			c0,1.545-0.84,2.432-2.19,2.432c-1.426,0-2.235-0.916-2.235-2.536c0-1.531,0.81-2.416,2.19-2.416
			C769.187,472.192,770.132,473.152,770.132,474.713 M771.241,471.294h-1.14v1.258c-0.51-0.989-1.335-1.498-2.461-1.498
			c-1.875,0-3.148,1.363-3.148,3.614c0,2.191,1.289,3.614,3.209,3.614c1.036,0,1.891-0.524,2.431-1.498v1.213h1.109V471.294z
			 M757.022,472.237v5.76h1.139v-5.76h1.26v-0.943h-1.26v-2.7h-1.139v2.7h-1.229v0.943H757.022z M753.963,473.889h-4.082
			c0.12-1.141,0.945-1.847,2.041-1.847C753.137,472.042,753.888,472.703,753.963,473.889 M755.191,474.817v-0.226
			c0-2.22-1.259-3.553-3.225-3.553c-1.951,0-3.344,1.468-3.344,3.583c0,2.191,1.378,3.66,3.419,3.66c1.381,0,2.43-0.614,3.104-1.829
			l-0.868-0.585c-0.555,0.975-1.275,1.456-2.176,1.456c-1.291,0-2.221-0.946-2.221-2.402v-0.104H755.191z M736.578,477.997h1.138
			v-3.464c0-0.735,0-1.291,0.39-1.771c0.376-0.465,0.961-0.72,1.637-0.72c1.201,0,1.786,0.66,1.786,2.011v3.944h1.138v-4.56
			c0-1.516-0.958-2.384-2.52-2.384c-1.05,0-1.86,0.404-2.431,1.273v-1.034h-1.138V477.997z M733.248,474.713
			c0,1.545-0.84,2.432-2.191,2.432c-1.425,0-2.235-0.916-2.235-2.536c0-1.531,0.811-2.416,2.19-2.416
			C732.303,472.192,733.248,473.152,733.248,474.713 M734.355,471.294h-1.138v1.258c-0.51-0.989-1.335-1.498-2.461-1.498
			c-1.876,0-3.149,1.363-3.149,3.614c0,2.191,1.288,3.614,3.209,3.614c1.036,0,1.892-0.524,2.432-1.498v1.213h1.107V471.294z
			 M724.803,477.997h1.139v-4.56c0-1.516-0.898-2.384-2.384-2.384c-1.021,0-1.801,0.435-2.386,1.363
			c-0.39-0.899-1.169-1.363-2.249-1.363c-1.006,0-1.771,0.419-2.312,1.273v-1.034h-1.139v6.704h1.139v-3.464
			c0-0.165-0.016-0.33-0.016-0.48c0-0.511,0.061-0.931,0.346-1.291c0.36-0.465,0.915-0.72,1.53-0.72c1.142,0,1.666,0.66,1.666,2.011
			v3.944h1.138v-3.464c0-0.15-0.015-0.285-0.015-0.42c0-0.557,0.075-0.977,0.361-1.352c0.359-0.465,0.899-0.72,1.515-0.72
			c1.142,0,1.666,0.66,1.666,2.011V477.997z M712.098,474.683c0,1.591-0.87,2.491-2.251,2.491c-1.335,0-2.175-0.961-2.175-2.641
			c0-1.486,0.825-2.341,2.16-2.341C711.183,472.192,712.098,473.167,712.098,474.683 M713.207,466.645h-1.139v5.907
			c-0.511-0.988-1.336-1.498-2.446-1.498c-1.875,0-3.164,1.363-3.164,3.614c0,2.191,1.289,3.614,3.209,3.614
			c1.036,0,1.906-0.539,2.431-1.498v1.213h1.109V466.645z M703.639,474.713c0,1.545-0.841,2.432-2.19,2.432
			c-1.427,0-2.236-0.916-2.236-2.536c0-1.531,0.81-2.416,2.191-2.416C702.693,472.192,703.639,473.152,703.639,474.713
			 M704.747,471.294h-1.138v1.258c-0.512-0.989-1.337-1.498-2.462-1.498c-1.876,0-3.148,1.363-3.148,3.614
			c0,2.191,1.288,3.614,3.209,3.614c1.035,0,1.89-0.524,2.431-1.498v1.213h1.108V471.294z M695.014,477.997h1.139v-11.353h-1.139
			V477.997z M688.833,472.464v1.139h3.061c-0.149,2.101-1.74,3.526-3.871,3.526c-2.445,0-4.2-1.815-4.2-4.381
			c0-2.715,1.71-4.561,4.2-4.561c1.516,0,2.672,0.645,3.451,1.95l1.064-0.855c-1.004-1.515-2.521-2.248-4.561-2.248
			c-1.545,0-2.836,0.464-3.811,1.393c-1.154,1.097-1.723,2.536-1.723,4.321c0,2.175,1.004,3.946,2.758,4.905
			c0.72,0.389,1.636,0.629,2.701,0.629c3.271,0,5.354-2.039,5.354-5.459v-0.359H688.833z M675.154,477.997h1.138v-4.56
			c0-1.516-0.898-2.384-2.384-2.384c-1.021,0-1.802,0.435-2.387,1.363c-0.389-0.899-1.168-1.363-2.249-1.363
			c-1.005,0-1.771,0.419-2.311,1.273v-1.034h-1.138v6.704h1.138v-3.464c0-0.165-0.015-0.33-0.015-0.48
			c0-0.511,0.06-0.931,0.345-1.291c0.361-0.465,0.916-0.72,1.531-0.72c1.141,0,1.666,0.66,1.666,2.011v3.944h1.138v-3.464
			c0-0.15-0.015-0.285-0.015-0.42c0-0.557,0.074-0.977,0.359-1.352c0.361-0.465,0.901-0.72,1.517-0.72
			c1.141,0,1.666,0.66,1.666,2.011V477.997z M658.037,474.668c0-1.426,1.081-2.536,2.431-2.536c1.336,0,2.416,1.11,2.416,2.536
			c0,1.425-1.08,2.536-2.416,2.536C659.133,477.204,658.037,476.093,658.037,474.668 M656.824,474.668
			c0,0.975,0.359,1.846,1.063,2.551c0.69,0.689,1.59,1.063,2.58,1.063c0.977,0,1.876-0.39,2.581-1.078
			c0.689-0.675,1.063-1.562,1.063-2.536s-0.374-1.876-1.063-2.551c-0.705-0.689-1.59-1.063-2.581-1.063
			c-0.99,0-1.89,0.359-2.58,1.049C657.184,472.792,656.824,473.693,656.824,474.668 M652.188,477.997h1.139v-3.269
			c0-1.757,0.6-2.626,1.814-2.626c0.21,0,0.45,0.045,0.705,0.135l0.391-1.033c-0.256-0.09-0.511-0.135-0.78-0.135
			c-1.021,0-1.65,0.479-2.249,1.618v-1.395h-1.02V477.997z M648.215,477.997h1.138v-5.76h1.785v-0.943h-1.785v-1.786
			c0-1.291,0.03-1.905,0.886-1.905c0.3,0,0.6,0.074,0.899,0.239v-1.183c-0.314-0.105-0.645-0.15-0.99-0.15
			c-1.604,0-1.933,0.838-1.933,2.85v1.936h-1.291v0.943h1.291V477.997z M640.189,474.683c0,1.591-0.87,2.491-2.251,2.491
			c-1.336,0-2.176-0.961-2.176-2.641c0-1.486,0.825-2.341,2.161-2.341C639.273,472.192,640.189,473.167,640.189,474.683
			 M641.298,466.645h-1.138v5.907c-0.512-0.988-1.336-1.498-2.446-1.498c-1.876,0-3.164,1.363-3.164,3.614
			c0,2.191,1.288,3.614,3.209,3.614c1.035,0,1.905-0.539,2.431-1.498v1.213h1.108V466.645z M632.18,473.889h-4.082
			c0.12-1.141,0.945-1.847,2.041-1.847C631.354,472.042,632.104,472.703,632.18,473.889 M633.408,474.817v-0.226
			c0-2.22-1.258-3.553-3.225-3.553c-1.951,0-3.344,1.468-3.344,3.583c0,2.191,1.378,3.66,3.419,3.66c1.381,0,2.43-0.614,3.104-1.829
			l-0.869-0.585c-0.555,0.975-1.275,1.456-2.175,1.456c-1.291,0-2.222-0.946-2.222-2.402v-0.104H633.408z M623.795,472.237v5.76
			h1.138v-5.76h1.261v-0.943h-1.261v-2.7h-1.138v2.7h-1.23v0.943H623.795z M616.218,474.668c0-1.591,0.871-2.506,2.251-2.506
			c1.336,0,2.176,0.96,2.176,2.641c0,1.485-0.824,2.356-2.16,2.356C617.134,477.159,616.218,476.183,616.218,474.668
			 M615.11,481.252h1.138v-4.468c0.51,0.989,1.336,1.498,2.446,1.498c1.876,0,3.163-1.349,3.163-3.614
			c0-2.206-1.287-3.614-3.209-3.614c-1.034,0-1.921,0.524-2.445,1.498v-1.259h-1.093V481.252z M611.78,474.713
			c0,1.545-0.841,2.432-2.191,2.432c-1.425,0-2.235-0.916-2.235-2.536c0-1.531,0.811-2.416,2.19-2.416
			C610.835,472.192,611.78,473.152,611.78,474.713 M612.888,471.294h-1.138v1.258c-0.51-0.989-1.335-1.498-2.461-1.498
			c-1.875,0-3.149,1.363-3.149,3.614c0,2.191,1.289,3.614,3.209,3.614c1.036,0,1.892-0.524,2.432-1.498v1.213h1.107V471.294z
			 M603.275,474.683c0,1.591-0.87,2.491-2.25,2.491c-1.337,0-2.177-0.961-2.177-2.641c0-1.486,0.825-2.341,2.161-2.341
			C602.359,472.192,603.275,473.167,603.275,474.683 M604.384,466.645h-1.139v5.907c-0.511-0.988-1.335-1.498-2.446-1.498
			c-1.875,0-3.164,1.363-3.164,3.614c0,2.191,1.289,3.614,3.209,3.614c1.036,0,1.906-0.539,2.432-1.498v1.213h1.108V466.645z
			 M592.354,469.673l1.71,3.946h-3.419L592.354,469.673z M592.354,466.854l-4.858,11.143h1.38l1.395-3.285h4.185l1.395,3.285h1.38
			L592.354,466.854z M580.311,477.278c0,0.479,0.374,0.854,0.869,0.854c0.494,0,0.884-0.375,0.884-0.854
			c0-0.48-0.39-0.869-0.884-0.869C580.7,476.409,580.311,476.798,580.311,477.278 M571.761,472.642c0.66-0.51,1.44-0.765,2.28-0.765
			c1.649,0,2.67,1.05,2.67,2.581c0,1.665-1.035,2.716-2.565,2.716c-1.05,0-1.875-0.524-2.354-1.516l-0.9,1.051
			c0.735,1.079,1.771,1.573,3.226,1.573c2.46,0,3.942-1.528,3.942-3.944c0-2.146-1.303-3.494-3.402-3.494
			c-0.601,0-1.155,0.12-1.665,0.39l0.675-2.762h3.838v-1.093h-4.708l-1.275,5.218L571.761,472.642z M567.186,477.278
			c0,0.479,0.374,0.854,0.869,0.854c0.494,0,0.884-0.375,0.884-0.854c0-0.48-0.39-0.869-0.884-0.869
			C567.575,476.409,567.186,476.798,567.186,477.278 M557.9,475.283v0.195c0,1.695,1.261,2.804,3.256,2.804
			c2.279,0,3.598-1.198,3.598-3.119c0-1.456-0.764-2.431-2.038-2.64c1.199-0.315,1.903-1.23,1.903-2.506
			c0-1.74-1.213-2.849-3.208-2.849c-2.07,0-3.226,1.033-3.315,2.864h1.26c0.061-1.156,0.78-1.786,2.025-1.786
			c1.185,0,1.905,0.72,1.905,1.831c0,1.26-0.75,1.921-2.235,1.921c-0.12,0-0.225-0.015-0.345-0.015v1.048
			c0.135-0.016,0.255-0.016,0.375-0.016c1.545,0,2.34,0.721,2.34,2.102c0,1.305-0.795,2.071-2.22,2.071
			c-1.23,0-1.995-0.69-1.995-1.786v-0.12H557.9z M552.454,471.864l-7.453-3.45v0.93l6.493,2.985l-6.493,2.985v0.93l7.453-3.45
			V471.864z M552.454,477.174h-7.453v0.823h7.453V477.174z M537.426,477.997h1.138v-5.76h1.785v-0.943h-1.785v-1.786
			c0-1.291,0.03-1.905,0.886-1.905c0.3,0,0.6,0.074,0.899,0.239v-1.183c-0.314-0.105-0.645-0.15-0.989-0.15
			c-1.604,0-1.934,0.838-1.934,2.85v1.936h-1.29v0.943h1.29V477.997z M529.339,474.668c0-1.426,1.081-2.536,2.431-2.536
			c1.336,0,2.416,1.11,2.416,2.536c0,1.425-1.08,2.536-2.416,2.536C530.435,477.204,529.339,476.093,529.339,474.668
			 M528.126,474.668c0,0.975,0.36,1.846,1.063,2.551c0.69,0.689,1.591,1.063,2.58,1.063c0.977,0,1.876-0.39,2.581-1.078
			c0.689-0.675,1.063-1.562,1.063-2.536s-0.374-1.876-1.063-2.551c-0.705-0.689-1.59-1.063-2.581-1.063
			c-0.989,0-1.89,0.359-2.58,1.049C528.486,472.792,528.126,473.693,528.126,474.668 M521.436,473.889h-4.082
			c0.121-1.141,0.946-1.847,2.041-1.847C520.611,472.042,521.361,472.703,521.436,473.889 M522.664,474.817v-0.226
			c0-2.22-1.258-3.553-3.225-3.553c-1.949,0-3.344,1.468-3.344,3.583c0,2.191,1.379,3.66,3.419,3.66
			c1.381,0,2.432-0.614,3.105-1.829l-0.869-0.585c-0.555,0.975-1.275,1.456-2.176,1.456c-1.29,0-2.222-0.946-2.222-2.402v-0.104
			H522.664z M508.4,477.997h1.14v-3.464c0-0.735,0-1.291,0.39-1.771c0.375-0.465,0.96-0.72,1.636-0.72c1.2,0,1.786,0.66,1.786,2.011
			v3.944h1.139v-4.56c0-1.516-0.959-2.384-2.52-2.384c-1.051,0-1.861,0.404-2.431,1.273v-1.034h-1.14V477.997z M504.637,468.068
			c0,0.479,0.374,0.839,0.839,0.839c0.464,0,0.839-0.36,0.839-0.824c0-0.465-0.375-0.854-0.839-0.854
			C505.011,467.229,504.637,467.604,504.637,468.068 M504.907,477.997h1.138v-6.703h-1.138V477.997z M501.352,477.997h1.139v-11.353
			h-1.139V477.997z M498.412,473.889h-4.082c0.12-1.141,0.945-1.847,2.041-1.847C497.587,472.042,498.337,472.703,498.412,473.889
			 M499.64,474.817v-0.226c0-2.22-1.258-3.553-3.224-3.553c-1.951,0-3.344,1.468-3.344,3.583c0,2.191,1.378,3.66,3.419,3.66
			c1.381,0,2.43-0.614,3.104-1.829l-0.869-0.585c-0.554,0.975-1.274,1.456-2.175,1.456c-1.291,0-2.221-0.946-2.221-2.402v-0.104
			H499.64z M486.922,476.874c0.525,0.944,1.393,1.408,2.639,1.408c1.486,0,2.444-0.883,2.444-2.129c0-1.096-0.644-1.575-1.949-1.995
			c-1.109-0.36-1.726-0.45-1.726-1.156c0-0.585,0.465-1.005,1.141-1.005c0.705,0,1.261,0.345,1.531,0.96l0.928-0.57
			c-0.358-0.854-1.228-1.333-2.384-1.333c-1.426,0-2.369,0.854-2.369,2.023c0,1.321,0.988,1.605,2.639,2.176
			c0.706,0.24,1.052,0.51,1.052,1.021c0,0.586-0.495,1.006-1.262,1.006c-0.766,0-1.336-0.346-1.71-1.066L486.922,476.874z
			 M484.297,474.713c0,1.545-0.84,2.432-2.191,2.432c-1.425,0-2.235-0.916-2.235-2.536c0-1.531,0.811-2.416,2.19-2.416
			C483.352,472.192,484.297,473.152,484.297,474.713 M485.405,471.294h-1.139v1.258c-0.51-0.989-1.335-1.498-2.461-1.498
			c-1.876,0-3.148,1.363-3.148,3.614c0,2.191,1.288,3.614,3.209,3.614c1.036,0,1.891-0.524,2.431-1.498v1.213h1.108V471.294z
			 M471.756,474.683c0-1.516,0.93-2.49,2.28-2.49c1.336,0,2.161,0.854,2.161,2.341c0,1.68-0.855,2.641-2.191,2.641
			C472.626,477.174,471.756,476.273,471.756,474.683 M470.662,466.645v11.353h1.094v-1.213c0.525,0.96,1.41,1.498,2.445,1.498
			c1.921,0,3.209-1.423,3.209-3.614c0-2.251-1.288-3.614-3.163-3.614c-1.111,0-1.937,0.51-2.447,1.498v-5.907H470.662z
			 M462.997,477.997h1.139v-4.56c0-1.516-0.898-2.384-2.384-2.384c-1.021,0-1.801,0.435-2.386,1.363
			c-0.391-0.899-1.169-1.363-2.249-1.363c-1.006,0-1.771,0.419-2.312,1.273v-1.034h-1.139v6.704h1.139v-3.464
			c0-0.165-0.015-0.33-0.015-0.48c0-0.511,0.06-0.931,0.345-1.291c0.36-0.465,0.915-0.72,1.531-0.72c1.14,0,1.665,0.66,1.665,2.011
			v3.944h1.139v-3.464c0-0.15-0.015-0.285-0.015-0.42c0-0.557,0.075-0.977,0.359-1.352c0.36-0.465,0.9-0.72,1.517-0.72
			c1.14,0,1.665,0.66,1.665,2.011V477.997z M445.881,474.668c0-1.426,1.08-2.536,2.431-2.536c1.335,0,2.416,1.11,2.416,2.536
			c0,1.425-1.081,2.536-2.416,2.536C446.976,477.204,445.881,476.093,445.881,474.668 M444.668,474.668
			c0,0.975,0.359,1.846,1.062,2.551c0.69,0.689,1.591,1.063,2.581,1.063c0.976,0,1.875-0.39,2.58-1.078
			c0.689-0.675,1.064-1.562,1.064-2.536s-0.375-1.876-1.064-2.551c-0.705-0.689-1.59-1.063-2.58-1.063s-1.891,0.359-2.581,1.049
			C445.027,472.792,444.668,473.693,444.668,474.668 M440.033,477.997h1.138v-3.269c0-1.757,0.6-2.626,1.815-2.626
			c0.21,0,0.449,0.045,0.704,0.135l0.391-1.033c-0.255-0.09-0.51-0.135-0.78-0.135c-1.02,0-1.649,0.479-2.25,1.618v-1.395h-1.018
			V477.997z M436.058,477.997h1.139v-5.76h1.784v-0.943h-1.784v-1.786c0-1.291,0.029-1.905,0.885-1.905c0.3,0,0.6,0.074,0.899,0.239
			v-1.183c-0.314-0.105-0.645-0.15-0.989-0.15c-1.604,0-1.934,0.838-1.934,2.85v1.936h-1.29v0.943h1.29V477.997z M427.778,472.237
			v5.76h1.138v-5.76h1.26v-0.943h-1.26v-2.7h-1.138v2.7h-1.23v0.943H427.778z M419.318,477.997h1.138v-3.464
			c0-0.735,0-1.291,0.391-1.771c0.375-0.465,0.96-0.72,1.635-0.72c1.201,0,1.786,0.66,1.786,2.011v3.944h1.139v-4.56
			c0-1.516-0.958-2.384-2.519-2.384c-1.051,0-1.86,0.404-2.432,1.273v-1.034h-1.138V477.997z M416.438,473.889h-4.081
			c0.12-1.141,0.945-1.847,2.04-1.847C415.613,472.042,416.363,472.703,416.438,473.889 M417.667,474.817v-0.226
			c0-2.22-1.259-3.553-3.226-3.553c-1.949,0-3.344,1.468-3.344,3.583c0,2.191,1.379,3.66,3.42,3.66c1.38,0,2.431-0.614,3.104-1.829
			l-0.869-0.585c-0.555,0.975-1.275,1.456-2.175,1.456c-1.291,0-2.222-0.946-2.222-2.402v-0.104H417.667z M408.369,477.997h1.138
			v-4.56c0-1.516-0.899-2.384-2.384-2.384c-1.021,0-1.801,0.435-2.386,1.363c-0.391-0.899-1.169-1.363-2.249-1.363
			c-1.007,0-1.771,0.419-2.312,1.273v-1.034h-1.138v6.704h1.138v-3.464c0-0.165-0.015-0.33-0.015-0.48
			c0-0.511,0.06-0.931,0.345-1.291c0.36-0.465,0.915-0.72,1.531-0.72c1.14,0,1.666,0.66,1.666,2.011v3.944h1.138v-3.464
			c0-0.15-0.015-0.285-0.015-0.42c0-0.557,0.075-0.977,0.359-1.352c0.36-0.465,0.9-0.72,1.517-0.72c1.14,0,1.666,0.66,1.666,2.011
			V477.997z M396.159,473.889h-4.082c0.12-1.141,0.944-1.847,2.041-1.847C395.333,472.042,396.084,472.703,396.159,473.889
			 M397.387,474.817v-0.226c0-2.22-1.258-3.553-3.224-3.553c-1.951,0-3.344,1.468-3.344,3.583c0,2.191,1.378,3.66,3.419,3.66
			c1.38,0,2.43-0.614,3.104-1.829l-0.869-0.585c-0.554,0.975-1.274,1.456-2.175,1.456c-1.291,0-2.221-0.946-2.221-2.402v-0.104
			H397.387z M386.948,478.417l3.299-7.123h-1.29l-2.024,4.679l-2.01-4.679h-1.289L386.948,478.417z M376.957,474.668
			c0-1.426,1.081-2.536,2.431-2.536c1.336,0,2.416,1.11,2.416,2.536c0,1.425-1.08,2.536-2.416,2.536
			C378.053,477.204,376.957,476.093,376.957,474.668 M375.744,474.668c0,0.975,0.358,1.846,1.062,2.551
			c0.69,0.689,1.591,1.063,2.581,1.063c0.976,0,1.876-0.39,2.581-1.078c0.689-0.675,1.063-1.562,1.063-2.536
			s-0.374-1.876-1.063-2.551c-0.705-0.689-1.591-1.063-2.581-1.063s-1.891,0.359-2.581,1.049
			C376.103,472.792,375.744,473.693,375.744,474.668 M371.109,477.997h1.138v-3.269c0-1.757,0.6-2.626,1.814-2.626
			c0.21,0,0.45,0.045,0.705,0.135l0.391-1.033c-0.255-0.09-0.511-0.135-0.78-0.135c-1.021,0-1.65,0.479-2.25,1.618v-1.395h-1.018
			V477.997z M363.697,474.668c0-1.591,0.871-2.506,2.251-2.506c1.336,0,2.176,0.96,2.176,2.641c0,1.485-0.825,2.356-2.161,2.356
			C364.613,477.159,363.697,476.183,363.697,474.668 M362.589,481.252h1.138v-4.468c0.512,0.989,1.336,1.498,2.446,1.498
			c1.876,0,3.164-1.349,3.164-3.614c0-2.206-1.288-3.614-3.209-3.614c-1.035,0-1.92,0.524-2.446,1.498v-1.259h-1.093V481.252z
			 M359.273,477.997h1.139v-4.56c0-1.516-0.898-2.384-2.383-2.384c-1.021,0-1.802,0.435-2.387,1.363
			c-0.39-0.899-1.169-1.363-2.249-1.363c-1.006,0-1.771,0.419-2.312,1.273v-1.034h-1.138v6.704h1.138v-3.464
			c0-0.165-0.016-0.33-0.016-0.48c0-0.511,0.061-0.931,0.347-1.291c0.359-0.465,0.915-0.72,1.53-0.72
			c1.141,0,1.666,0.66,1.666,2.011v3.944h1.138v-3.464c0-0.15-0.016-0.285-0.016-0.42c0-0.557,0.075-0.977,0.361-1.352
			c0.36-0.465,0.9-0.72,1.515-0.72c1.142,0,1.666,0.66,1.666,2.011V477.997z M346.179,468.068c0,0.479,0.375,0.839,0.84,0.839
			c0.464,0,0.839-0.36,0.839-0.824c0-0.465-0.375-0.854-0.839-0.854C346.554,467.229,346.179,467.604,346.179,468.068
			 M346.449,477.997h1.138v-6.703h-1.138V477.997z M335.305,476.874c0.524,0.944,1.394,1.408,2.64,1.408
			c1.484,0,2.443-0.883,2.443-2.129c0-1.096-0.644-1.575-1.949-1.995c-1.11-0.36-1.726-0.45-1.726-1.156
			c0-0.585,0.465-1.005,1.14-1.005c0.706,0,1.262,0.345,1.531,0.96l0.929-0.57c-0.359-0.854-1.229-1.333-2.384-1.333
			c-1.426,0-2.369,0.854-2.369,2.023c0,1.321,0.988,1.605,2.64,2.176c0.705,0.24,1.051,0.51,1.051,1.021
			c0,0.586-0.496,1.006-1.261,1.006c-0.767,0-1.336-0.346-1.711-1.066L335.305,476.874z M332.68,474.713
			c0,1.545-0.841,2.432-2.19,2.432c-1.427,0-2.236-0.916-2.236-2.536c0-1.531,0.81-2.416,2.191-2.416
			C331.734,472.192,332.68,473.152,332.68,474.713 M333.788,471.294h-1.139v1.258c-0.51-0.989-1.336-1.498-2.461-1.498
			c-1.876,0-3.148,1.363-3.148,3.614c0,2.191,1.288,3.614,3.209,3.614c1.035,0,1.891-0.524,2.431-1.498v1.213h1.108V471.294z
			 M319.825,474.683c0,1.591-0.87,2.491-2.251,2.491c-1.336,0-2.177-0.961-2.177-2.641c0-1.486,0.825-2.341,2.161-2.341
			C318.91,472.192,319.825,473.167,319.825,474.683 M320.933,466.645h-1.138v5.907c-0.51-0.988-1.336-1.498-2.446-1.498
			c-1.876,0-3.164,1.363-3.164,3.614c0,2.191,1.288,3.614,3.209,3.614c1.035,0,1.906-0.539,2.432-1.498v1.213h1.107V466.645z
			 M311.814,473.889h-4.082c0.12-1.141,0.946-1.847,2.041-1.847C310.99,472.042,311.74,472.703,311.814,473.889 M313.043,474.817
			v-0.226c0-2.22-1.258-3.553-3.224-3.553c-1.951,0-3.345,1.468-3.345,3.583c0,2.191,1.378,3.66,3.419,3.66
			c1.381,0,2.431-0.614,3.104-1.829l-0.868-0.585c-0.555,0.975-1.275,1.456-2.176,1.456c-1.29,0-2.222-0.946-2.222-2.402v-0.104
			H313.043z M298.78,477.997h1.138v-3.464c0-0.735,0-1.291,0.39-1.771c0.376-0.465,0.961-0.72,1.637-0.72
			c1.2,0,1.785,0.66,1.785,2.011v3.944h1.139v-4.56c0-1.516-0.958-2.384-2.52-2.384c-1.05,0-1.859,0.404-2.431,1.273v-1.034h-1.138
			V477.997z M295.015,468.068c0,0.479,0.375,0.839,0.839,0.839c0.466,0,0.84-0.36,0.84-0.824c0-0.465-0.374-0.854-0.84-0.854
			C295.39,467.229,295.015,467.604,295.015,468.068 M295.285,477.997h1.138v-6.703h-1.138V477.997z M291.266,477.997h1.139v-5.76
			h1.784v-0.943h-1.784v-1.786c0-1.291,0.029-1.905,0.885-1.905c0.3,0,0.6,0.074,0.899,0.239v-1.183
			c-0.314-0.105-0.645-0.15-0.989-0.15c-1.604,0-1.934,0.838-1.934,2.85v1.936h-1.29v0.943h1.29V477.997z M288.086,473.889h-4.082
			c0.12-1.141,0.945-1.847,2.041-1.847C287.26,472.042,288.011,472.703,288.086,473.889 M289.313,474.817v-0.226
			c0-2.22-1.258-3.553-3.224-3.553c-1.951,0-3.344,1.468-3.344,3.583c0,2.191,1.378,3.66,3.419,3.66c1.38,0,2.43-0.614,3.104-1.829
			l-0.869-0.585c-0.554,0.975-1.274,1.456-2.175,1.456c-1.291,0-2.221-0.946-2.221-2.402v-0.104H289.313z M279.956,474.683
			c0,1.591-0.871,2.491-2.251,2.491c-1.336,0-2.176-0.961-2.176-2.641c0-1.486,0.824-2.341,2.16-2.341
			C279.04,472.192,279.956,473.167,279.956,474.683 M281.063,466.645h-1.138v5.907c-0.51-0.988-1.336-1.498-2.446-1.498
			c-1.876,0-3.164,1.363-3.164,3.614c0,2.191,1.288,3.614,3.209,3.614c1.035,0,1.906-0.539,2.432-1.498v1.213h1.107V466.645z
			 M261.249,476.424v-7.592h1.26c1.291,0,2.281,0.045,3.077,0.705c0.81,0.69,1.215,1.726,1.215,3.091s-0.405,2.4-1.215,3.091
			c-0.766,0.646-1.681,0.705-2.866,0.705H261.249z M259.511,477.997h2.818c1.741,0,3.15-0.045,4.396-1.004
			c1.229-0.944,1.889-2.43,1.889-4.351s-0.659-3.421-1.889-4.364c-1.306-1.004-2.851-1.004-4.861-1.004h-2.354V477.997z
			 M255.341,477.997h1.738v-10.723h-1.738V477.997z M253.224,469.882l0.09-1.754c-1.05-0.735-2.175-1.108-3.465-1.108
			c-1.604,0-3,0.554-4.063,1.603c-1.064,1.05-1.634,2.461-1.634,4.036c0,1.56,0.569,3.001,1.618,4.036
			c1.05,1.034,2.459,1.588,4.109,1.588c1.29,0,2.385-0.33,3.33-1.004v-1.964c-1.05,0.899-2.19,1.35-3.465,1.35
			c-2.146,0-3.78-1.636-3.78-3.991c0-2.386,1.605-4.051,3.96-4.051C251.139,468.622,252.234,469.042,253.224,469.882
			 M240.49,472.703l1.185,5.294h1.62l-2.595-11.143l-3.09,6.733c-0.165,0.375-0.405,0.855-0.615,1.455
			c-0.299-0.78-0.494-1.26-0.584-1.455l-3.165-6.733l-2.535,11.143h1.604l1.155-5.279c0.105-0.479,0.181-0.975,0.195-1.484
			c0.135,0.479,0.314,0.93,0.524,1.364l2.805,5.834l2.805-5.714c0.24-0.495,0.405-0.975,0.495-1.484
			C240.399,472.028,240.445,472.508,240.49,472.703 M223.152,477.278c0,0.479,0.374,0.854,0.868,0.854s0.885-0.375,0.885-0.854
			c0-0.48-0.391-0.869-0.885-0.869C223.541,476.409,223.152,476.798,223.152,477.278 M215.2,474.668c0-1.426,1.08-2.536,2.431-2.536
			c1.335,0,2.416,1.11,2.416,2.536c0,1.425-1.081,2.536-2.416,2.536C216.295,477.204,215.2,476.093,215.2,474.668 M213.987,474.668
			c0,0.975,0.358,1.846,1.062,2.551c0.69,0.689,1.59,1.063,2.581,1.063c0.975,0,1.875-0.39,2.58-1.078
			c0.689-0.675,1.064-1.562,1.064-2.536s-0.375-1.876-1.064-2.551c-0.705-0.689-1.59-1.063-2.58-1.063
			c-0.991,0-1.891,0.359-2.581,1.049C214.346,472.792,213.987,473.693,213.987,474.668 M207.115,474.683
			c0-1.516,0.93-2.49,2.28-2.49c1.336,0,2.161,0.854,2.161,2.341c0,1.68-0.854,2.641-2.19,2.641
			C207.985,477.174,207.115,476.273,207.115,474.683 M206.021,466.645v11.353h1.094v-1.213c0.524,0.96,1.411,1.498,2.445,1.498
			c1.921,0,3.209-1.423,3.209-3.614c0-2.251-1.288-3.614-3.164-3.614c-1.109,0-1.936,0.51-2.445,1.498v-5.907H206.021z
			 M203.142,473.889h-4.082c0.12-1.141,0.946-1.847,2.041-1.847C202.316,472.042,203.066,472.703,203.142,473.889 M204.37,474.817
			v-0.226c0-2.22-1.258-3.553-3.225-3.553c-1.95,0-3.344,1.468-3.344,3.583c0,2.191,1.378,3.66,3.419,3.66
			c1.381,0,2.431-0.614,3.104-1.829l-0.869-0.585c-0.554,0.975-1.274,1.456-2.175,1.456c-1.29,0-2.222-0.946-2.222-2.402v-0.104
			H204.37z M196.87,476.409c-0.705,0.51-1.351,0.765-2.07,0.765c-1.395,0-2.399-1.081-2.399-2.431c0-1.591,1.02-2.581,2.489-2.581
			c0.66,0,1.29,0.21,1.86,0.585v-1.229c-0.615-0.299-1.335-0.464-2.085-0.464c-2.01,0-3.493,1.469-3.493,3.659
			c0,2.116,1.363,3.569,3.448,3.569c0.87,0,1.635-0.18,2.25-0.539V476.409z M188.396,474.713c0,1.545-0.84,2.432-2.19,2.432
			c-1.425,0-2.236-0.916-2.236-2.536c0-1.531,0.812-2.416,2.191-2.416C187.452,472.192,188.396,473.152,188.396,474.713
			 M189.505,471.294h-1.138v1.258c-0.511-0.989-1.335-1.498-2.461-1.498c-1.875,0-3.149,1.363-3.149,3.614
			c0,2.191,1.289,3.614,3.209,3.614c1.036,0,1.891-0.524,2.431-1.498v1.213h1.108V471.294z M179.772,477.997h1.139v-11.353h-1.139
			V477.997z M172.315,474.668c0-1.591,0.87-2.506,2.251-2.506c1.336,0,2.177,0.96,2.177,2.641c0,1.485-0.826,2.356-2.161,2.356
			C173.23,477.159,172.315,476.183,172.315,474.668 M171.208,481.252h1.138v-4.468c0.51,0.989,1.335,1.498,2.446,1.498
			c1.876,0,3.164-1.349,3.164-3.614c0-2.206-1.288-3.614-3.209-3.614c-1.036,0-1.921,0.524-2.446,1.498v-1.259h-1.093V481.252z
			 M160.123,476.874c0.523,0.944,1.393,1.408,2.639,1.408c1.485,0,2.444-0.883,2.444-2.129c0-1.096-0.645-1.575-1.949-1.995
			c-1.111-0.36-1.726-0.45-1.726-1.156c0-0.585,0.465-1.005,1.141-1.005c0.705,0,1.261,0.345,1.53,0.96l0.929-0.57
			c-0.359-0.854-1.228-1.333-2.384-1.333c-1.426,0-2.369,0.854-2.369,2.023c0,1.321,0.988,1.605,2.639,2.176
			c0.705,0.24,1.052,0.51,1.052,1.021c0,0.586-0.496,1.006-1.262,1.006s-1.336-0.346-1.71-1.066L160.123,476.874z M156.372,478.417
			l3.299-7.123h-1.29l-2.024,4.679l-2.009-4.679h-1.29L156.372,478.417z M143.968,477.997h1.243v-10.618h-2.713l-0.72,1.108h2.189
			V477.997z M135.537,478.282c2.251,0,3.704-1.993,3.704-5.564c0-3.57-1.438-5.549-3.734-5.549c-2.236,0-3.704,2.008-3.704,5.549
			S133.271,478.282,135.537,478.282 M135.521,477.234c-1.485,0-2.4-1.621-2.4-4.531c0-2.896,0.915-4.501,2.4-4.501
			c1.562,0,2.401,1.545,2.401,4.531C137.923,475.703,137.083,477.234,135.521,477.234 M128.083,477.278
			c0,0.479,0.375,0.854,0.869,0.854c0.495,0,0.884-0.375,0.884-0.854c0-0.48-0.389-0.869-0.884-0.869
			C128.473,476.409,128.083,476.798,128.083,477.278 M122.412,478.282c2.251,0,3.704-1.993,3.704-5.564
			c0-3.57-1.438-5.549-3.734-5.549c-2.236,0-3.704,2.008-3.704,5.549S120.146,478.282,122.412,478.282 M122.396,477.234
			c-1.484,0-2.4-1.621-2.4-4.531c0-2.896,0.916-4.501,2.4-4.501c1.562,0,2.401,1.545,2.401,4.531
			C124.798,475.703,123.958,477.234,122.396,477.234 M116.111,470.544v-0.93l-8.623,3.539v0.75l8.623,3.539v-0.945l-7.318-2.969
			L116.111,470.544z M99.327,474.668c0-1.591,0.87-2.506,2.25-2.506c1.336,0,2.176,0.96,2.176,2.641
			c0,1.485-0.825,2.356-2.161,2.356C100.242,477.159,99.327,476.183,99.327,474.668 M98.218,481.252h1.138v-4.468
			c0.512,0.989,1.337,1.498,2.447,1.498c1.875,0,3.163-1.349,3.163-3.614c0-2.206-1.288-3.614-3.209-3.614
			c-1.035,0-1.92,0.524-2.445,1.498v-1.259h-1.094V481.252z M94.442,474.9h0.706v-5.143h1.558v-0.61h-1.558v-2.396h-0.706v2.396
			h-1.558v0.61h1.558V474.9z"/>
	</g>
</g>
</svg>
