<?xml version="1.0" encoding="utf-8"?>
<!-- Generator: Adobe Illustrator 15.1.0, SVG Export Plug-In . SVG Version: 6.00 Build 0)  -->
<!DOCTYPE svg PUBLIC "-//W3C//DTD SVG 1.1//EN" "http://www.w3.org/Graphics/SVG/1.1/DTD/svg11.dtd">
<svg version="1.1" id="art" xmlns="http://www.w3.org/2000/svg" xmlns:xlink="http://www.w3.org/1999/xlink" x="0px" y="0px"
	 width="912px" height="422px" viewBox="0 0 912 422" enable-background="new 0 0 912 422" xml:space="preserve">
<rect y="400" fill="#F3E3D5" width="912" height="20"/>
<rect y="80" fill="#F3E3D5" width="912" height="40"/>
<rect fill="#F3E3D5" width="912" height="40"/>
<rect y="160" fill="#F3E3D5" width="912" height="40"/>
<rect y="240" fill="#F3E3D5" width="912" height="40"/>
<rect y="320" fill="#F3E3D5" width="912" height="40"/>
<path fill="none" stroke="#006227" stroke-width="2" d="M372.26,173.088"/>
<g>
	<defs>
		<rect id="SVGID_1_" x="-9" y="-1" width="930" height="422.5"/>
	</defs>
	<clipPath id="SVGID_2_">
		<use xlink:href="#SVGID_1_"  overflow="visible"/>
	</clipPath>
	<polyline clip-path="url(#SVGID_2_)" fill="none" stroke="#006227" stroke-width="2" points="119.9,419.7 288.125,188 
		456.052,164.8 798,153.2 	"/>
</g>
<line fill="none" stroke="#338152" stroke-width="2" stroke-dasharray="9.916,4.916" x1="126.122" y1="412.033" x2="283.452" y2="218.158"/>
<line fill="none" stroke="#338152" stroke-width="2" stroke-dasharray="10.043,5.043" x1="298.13" y1="211.301" x2="790.502" y2="157.223"/>
<g>
	<defs>
		<rect id="SVGID_3_" x="-9" y="-1" width="930" height="422.5"/>
	</defs>
	<clipPath id="SVGID_4_">
		<use xlink:href="#SVGID_3_"  overflow="visible"/>
	</clipPath>
	<path clip-path="url(#SVGID_4_)" fill="none" stroke="#338152" stroke-width="2" d="M793.009,156.948L798,156.4 M285.001,216.25
		l3.124-3.85l4.992-0.549 M119.9,419.7l3.124-3.85"/>
	<polyline clip-path="url(#SVGID_4_)" fill="none" stroke="#F9A25E" stroke-width="2" points="119.9,419.7 288.125,275.2 
		456.052,243.2 798,222.801 	"/>
</g>
<line fill="none" stroke="#FAB57E" stroke-width="2" stroke-dasharray="10.095,5.095" x1="127.923" y1="413.495" x2="282.117" y2="294.246"/>
<line fill="none" stroke="#FAB57E" stroke-width="2" stroke-dasharray="10.228,5.228" x1="298.34" y1="287.982" x2="448.419" y2="264.209"/>
<line fill="none" stroke="#FAB57E" stroke-width="2" stroke-dasharray="9.956,4.956" x1="465.956" y1="262.229" x2="790.566" y2="236.979"/>
<g>
	<defs>
		<rect id="SVGID_5_" x="-9" y="-1" width="930" height="422.5"/>
	</defs>
	<clipPath id="SVGID_6_">
		<use xlink:href="#SVGID_5_"  overflow="visible"/>
	</clipPath>
	<path clip-path="url(#SVGID_6_)" fill="none" stroke="#FAB57E" stroke-width="2" d="M793.037,236.786L798,236.4 M451.001,263.801
		l5.051-0.801l4.963-0.386 M284.132,292.688l3.993-3.088l5.051-0.799 M119.9,419.7l3.992-3.088"/>
	<path clip-path="url(#SVGID_6_)" fill="#F9A25E" d="M124.94,418.39c-0.25-0.93,0.31-1.89,1.25-2.13l0,0
		c0.93-0.25,1.89,0.32,2.13,1.25l0,0c0.25,0.94-0.32,1.89-1.25,2.14l0,0c-0.15,0.03-0.3,0.051-0.44,0.051l0,0
		C125.85,419.7,125.14,419.18,124.94,418.39z M131.66,416.649c-0.24-0.939,0.32-1.899,1.26-2.14l0,0c0.93-0.24,1.89,0.32,2.13,1.25
		l0,0c0.24,0.94-0.32,1.89-1.25,2.14l0,0c-0.15,0.04-0.3,0.051-0.45,0.051l0,0C132.58,417.95,131.87,417.43,131.66,416.649z
		 M138.39,414.899c-0.24-0.939,0.32-1.89,1.26-2.14l0,0c0.93-0.24,1.89,0.32,2.13,1.26l0,0c0.24,0.931-0.32,1.891-1.25,2.13l0,0
		c-0.15,0.04-0.3,0.061-0.44,0.061l0,0C139.31,416.21,138.6,415.68,138.39,414.899z M145.12,413.149
		c-0.24-0.939,0.32-1.89,1.25-2.14l0,0c0.94-0.24,1.9,0.32,2.14,1.26l0,0c0.24,0.931-0.32,1.891-1.26,2.13l0,0
		c-0.14,0.04-0.29,0.061-0.44,0.061l0,0C146.04,414.46,145.32,413.939,145.12,413.149z M151.85,411.399
		c-0.24-0.939,0.32-1.89,1.25-2.13l0,0c0.94-0.25,1.9,0.311,2.14,1.25l0,0c0.24,0.931-0.32,1.891-1.26,2.13l0,0
		c-0.14,0.04-0.29,0.061-0.44,0.061l0,0C152.76,412.71,152.05,412.189,151.85,411.399z M158.58,409.649
		c-0.25-0.93,0.32-1.89,1.25-2.13l0,0c0.94-0.25,1.89,0.32,2.13,1.25l0,0c0.25,0.94-0.31,1.891-1.25,2.141l0,0
		c-0.14,0.029-0.29,0.05-0.44,0.05l0,0C159.49,410.96,158.78,410.439,158.58,409.649z M165.31,407.899
		c-0.25-0.93,0.32-1.89,1.25-2.13l0,0c0.93-0.239,1.89,0.32,2.13,1.25l0,0c0.25,0.94-0.31,1.891-1.25,2.141l0,0
		c-0.15,0.029-0.3,0.05-0.44,0.05l0,0C166.22,409.21,165.51,408.689,165.31,407.899z M172.04,406.16
		c-0.25-0.94,0.31-1.891,1.25-2.141l0,0c0.93-0.239,1.89,0.32,2.13,1.25l0,0c0.25,0.94-0.31,1.9-1.25,2.141l0,0
		c-0.15,0.04-0.3,0.06-0.44,0.06l0,0C172.95,407.47,172.24,406.939,172.04,406.16z M178.77,404.41c-0.25-0.94,0.31-1.891,1.25-2.141
		l0,0c0.93-0.239,1.89,0.32,2.13,1.261l0,0c0.25,0.93-0.32,1.89-1.25,2.13l0,0c-0.15,0.04-0.3,0.06-0.44,0.06l0,0
		C179.68,405.72,178.97,405.2,178.77,404.41z M185.49,402.66c-0.24-0.931,0.32-1.891,1.26-2.13l0,0c0.93-0.25,1.89,0.319,2.13,1.25
		l0,0c0.24,0.939-0.32,1.89-1.25,2.13l0,0c-0.15,0.04-0.3,0.06-0.45,0.06l0,0C186.41,403.97,185.7,403.45,185.49,402.66z
		 M192.22,400.91c-0.24-0.931,0.32-1.891,1.25-2.13l0,0c0.94-0.25,1.9,0.319,2.14,1.25l0,0c0.24,0.939-0.32,1.89-1.25,2.14l0,0
		c-0.15,0.03-0.3,0.05-0.45,0.05l0,0C193.14,402.22,192.43,401.7,192.22,400.91z M198.95,399.16c-0.24-0.931,0.32-1.891,1.25-2.13
		l0,0c0.94-0.24,1.9,0.319,2.14,1.25l0,0c0.24,0.939-0.32,1.899-1.26,2.14l0,0c-0.14,0.04-0.29,0.06-0.44,0.06l0,0
		C199.86,400.479,199.16,399.95,198.95,399.16z M205.68,397.42c-0.24-0.94,0.32-1.9,1.25-2.14l0,0c0.94-0.24,1.89,0.319,2.14,1.26
		l0,0c0.24,0.93-0.32,1.89-1.26,2.13l0,0c-0.14,0.04-0.29,0.06-0.44,0.06l0,0C206.59,398.729,205.88,398.2,205.68,397.42z
		 M212.41,395.67c-0.25-0.94,0.32-1.89,1.25-2.14l0,0c0.94-0.24,1.89,0.319,2.13,1.26l0,0c0.25,0.93-0.31,1.89-1.25,2.13l0,0
		c-0.15,0.04-0.29,0.06-0.44,0.06l0,0C213.32,396.979,212.61,396.46,212.41,395.67z M219.14,393.92c-0.25-0.94,0.31-1.89,1.25-2.13
		l0,0c0.94-0.25,1.89,0.31,2.13,1.25l0,0c0.25,0.939-0.31,1.89-1.25,2.13l0,0c-0.15,0.04-0.3,0.06-0.44,0.06l0,0
		C220.05,395.229,219.34,394.71,219.14,393.92z M225.87,392.17c-0.25-0.93,0.31-1.89,1.25-2.13l0,0c0.93-0.25,1.89,0.319,2.13,1.25
		l0,0c0.25,0.939-0.32,1.89-1.25,2.14l0,0c-0.15,0.04-0.3,0.05-0.44,0.05l0,0C226.78,393.479,226.07,392.96,225.87,392.17z
		 M232.59,390.42c-0.24-0.93,0.32-1.89,1.26-2.13l0,0c0.93-0.24,1.89,0.319,2.13,1.26l0,0c0.25,0.93-0.32,1.89-1.25,2.13l0,0
		c-0.15,0.04-0.3,0.061-0.44,0.061l0,0C233.51,391.74,232.8,391.21,232.59,390.42z M239.32,388.68c-0.24-0.939,0.32-1.89,1.26-2.14
		l0,0c0.93-0.24,1.89,0.319,2.13,1.26l0,0c0.24,0.93-0.32,1.89-1.25,2.13l0,0c-0.15,0.04-0.3,0.061-0.44,0.061l0,0
		C240.24,389.99,239.53,389.47,239.32,388.68z M246.05,386.93c-0.24-0.939,0.32-1.89,1.25-2.13l0,0c0.94-0.25,1.89,0.31,2.14,1.25
		l0,0c0.24,0.93-0.32,1.89-1.25,2.13l0,0c-0.15,0.04-0.3,0.061-0.45,0.061l0,0C246.97,388.24,246.26,387.72,246.05,386.93z
		 M252.78,385.18c-0.24-0.93,0.32-1.89,1.25-2.13l0,0c0.94-0.25,1.89,0.31,2.14,1.25l0,0c0.24,0.94-0.32,1.89-1.26,2.13l0,0
		c-0.14,0.04-0.29,0.061-0.44,0.061l0,0C253.69,386.49,252.98,385.97,252.78,385.18z M259.51,383.43c-0.24-0.93,0.32-1.89,1.25-2.13
		l0,0c0.94-0.24,1.89,0.32,2.14,1.25l0,0c0.24,0.94-0.32,1.89-1.26,2.14l0,0c-0.15,0.04-0.29,0.051-0.44,0.051l0,0
		C260.42,384.74,259.71,384.22,259.51,383.43z M266.24,381.68c-0.25-0.93,0.32-1.89,1.25-2.13l0,0c0.94-0.24,1.89,0.32,2.13,1.26
		l0,0c0.25,0.931-0.31,1.891-1.25,2.13l0,0c-0.15,0.04-0.29,0.051-0.44,0.051l0,0C267.15,382.99,266.44,382.47,266.24,381.68z
		 M272.97,379.939c-0.25-0.939,0.32-1.89,1.25-2.14l0,0c0.94-0.24,1.89,0.32,2.13,1.26l0,0c0.25,0.931-0.32,1.891-1.25,2.13l0,0
		c-0.15,0.04-0.29,0.061-0.44,0.061l0,0C273.88,381.25,273.17,380.729,272.97,379.939z M279.69,378.189
		c-0.24-0.939,0.32-1.89,1.26-2.13l0,0c0.93-0.25,1.89,0.311,2.13,1.25l0,0c0.24,0.94-0.32,1.891-1.25,2.13l0,0
		c-0.15,0.04-0.3,0.061-0.44,0.061l0,0C280.61,379.5,279.9,378.979,279.69,378.189z"/>
</g>
<path fill="#F9A25E" d="M293.37,375.81c-0.03-0.96,0.72-1.77,1.69-1.81l0,0c0.97-0.03,1.78,0.72,1.81,1.689l0,0
	c0.03,0.96-0.72,1.771-1.69,1.811l0,0c-0.02,0-0.04,0-0.06,0l0,0C294.18,377.5,293.41,376.76,293.37,375.81z M300.37,375.56
	c-0.04-0.96,0.72-1.77,1.69-1.81l0,0c0.96-0.03,1.77,0.72,1.81,1.689l0,0c0.03,0.96-0.72,1.771-1.69,1.811l0,0
	c-0.02,0-0.04,0-0.06,0l0,0C301.18,377.25,300.4,376.51,300.37,375.56z M307.37,375.31c-0.04-0.96,0.72-1.779,1.68-1.81l0,0
	c0.97-0.03,1.78,0.72,1.81,1.689l0,0c0.04,0.96-0.72,1.771-1.68,1.811l0,0c-0.02,0-0.05,0-0.07,0l0,0
	C308.17,377,307.4,376.26,307.37,375.31z M314.36,375.06c-0.03-0.96,0.72-1.779,1.69-1.81l0,0c0.96-0.03,1.78,0.72,1.81,1.689l0,0
	c0.04,0.96-0.72,1.771-1.69,1.811l0,0c-0.02,0-0.04,0-0.06,0l0,0C315.17,376.75,314.4,376.01,314.36,375.06z M321.36,374.81
	c-0.04-0.96,0.72-1.779,1.68-1.81l0,0c0.97-0.03,1.78,0.72,1.82,1.689l0,0c0.03,0.96-0.72,1.771-1.69,1.811l0,0
	c-0.02,0-0.04,0-0.07,0l0,0C322.17,376.5,321.39,375.76,321.36,374.81z M328.36,374.56c-0.04-0.96,0.72-1.77,1.68-1.81l0,0
	c0.97-0.03,1.78,0.72,1.81,1.689l0,0c0.04,0.96-0.72,1.78-1.68,1.811l0,0c-0.03,0-0.05,0-0.07,0l0,0
	C329.16,376.25,328.39,375.51,328.36,374.56z M335.35,374.31c-0.03-0.96,0.72-1.77,1.69-1.81l0,0c0.96-0.03,1.78,0.72,1.81,1.689
	l0,0c0.03,0.96-0.72,1.771-1.69,1.811l0,0c-0.02,0-0.04,0-0.06,0l0,0C336.16,376,335.39,375.26,335.35,374.31z M342.35,374.06
	c-0.04-0.96,0.72-1.77,1.69-1.81l0,0c0.96-0.03,1.77,0.72,1.81,1.689l0,0c0.03,0.96-0.72,1.771-1.69,1.811l0,0
	c-0.02,0-0.04,0-0.07,0l0,0C343.16,375.75,342.38,375.01,342.35,374.06z M349.35,373.81c-0.04-0.96,0.72-1.779,1.68-1.81l0,0
	c0.97-0.03,1.78,0.72,1.81,1.689l0,0c0.04,0.96-0.72,1.771-1.68,1.811l0,0c-0.03,0-0.05,0-0.07,0l0,0
	C350.15,375.5,349.38,374.76,349.35,373.81z M356.34,373.56c-0.03-0.96,0.72-1.779,1.69-1.81l0,0c0.97-0.03,1.78,0.72,1.81,1.689
	l0,0c0.03,0.96-0.72,1.771-1.69,1.811l0,0c-0.02,0-0.04,0-0.06,0l0,0C357.15,375.25,356.37,374.51,356.34,373.56z M363.34,373.31
	c-0.04-0.96,0.72-1.779,1.69-1.81l0,0c0.96-0.03,1.77,0.72,1.81,1.689l0,0c0.03,0.96-0.72,1.771-1.69,1.811l0,0
	c-0.02,0-0.04,0-0.07,0l0,0C364.15,375,363.37,374.26,363.34,373.31z M370.33,373.06c-0.03-0.96,0.72-1.77,1.69-1.81l0,0
	c0.97-0.03,1.78,0.72,1.81,1.689l0,0c0.04,0.96-0.72,1.771-1.68,1.811l0,0c-0.03,0-0.05,0-0.07,0l0,0
	C371.15,374.75,370.37,374.01,370.33,373.06z M377.33,372.81c-0.03-0.96,0.72-1.77,1.69-1.81l0,0c0.96-0.03,1.78,0.72,1.81,1.689
	l0,0c0.03,0.96-0.72,1.771-1.69,1.811l0,0c-0.02,0-0.04,0-0.06,0l0,0C378.14,374.5,377.37,373.76,377.33,372.81z M384.33,372.56
	c-0.04-0.96,0.72-1.779,1.68-1.81l0,0c0.97-0.03,1.78,0.72,1.81,1.689l0,0c0.04,0.96-0.72,1.771-1.68,1.811l0,0
	c-0.02,0-0.05,0-0.07,0l0,0C385.14,374.25,384.36,373.51,384.33,372.56z M391.33,372.31c-0.04-0.96,0.71-1.779,1.68-1.81l0,0
	c0.97-0.03,1.78,0.72,1.81,1.689l0,0c0.04,0.96-0.72,1.771-1.68,1.811l0,0c-0.03,0-0.05,0-0.07,0l0,0
	C392.13,374,391.36,373.26,391.33,372.31z M398.32,372.06c-0.03-0.97,0.72-1.779,1.69-1.81l0,0c0.96-0.03,1.77,0.72,1.81,1.689l0,0
	c0.03,0.96-0.72,1.771-1.69,1.811l0,0c-0.02,0-0.04,0-0.06,0l0,0C399.13,373.75,398.35,373.01,398.32,372.06z M405.32,371.81
	c-0.04-0.96,0.72-1.77,1.68-1.81l0,0c0.97-0.03,1.78,0.72,1.82,1.689l0,0c0.03,0.96-0.72,1.771-1.69,1.811l0,0
	c-0.02,0-0.05,0-0.07,0l0,0C406.13,373.5,405.35,372.76,405.32,371.81z M412.31,371.56c-0.03-0.96,0.72-1.77,1.69-1.81l0,0
	c0.97-0.03,1.78,0.72,1.81,1.689l0,0c0.04,0.96-0.72,1.771-1.68,1.811l0,0c-0.02,0-0.05,0-0.07,0l0,0
	C413.13,373.25,412.35,372.51,412.31,371.56z M419.31,371.31c-0.03-0.96,0.72-1.77,1.69-1.81l0,0c0.96-0.04,1.77,0.72,1.81,1.689
	l0,0c0.03,0.96-0.72,1.771-1.69,1.811l0,0c-0.02,0-0.04,0-0.06,0l0,0C420.12,373,419.34,372.26,419.31,371.31z M426.31,371.06
	c-0.04-0.96,0.72-1.779,1.68-1.81l0,0c0.97-0.03,1.78,0.72,1.82,1.689l0,0c0.03,0.96-0.73,1.771-1.69,1.811l0,0
	c-0.02,0-0.04,0-0.07,0l0,0C427.12,372.75,426.34,372.01,426.31,371.06z M433.3,370.81c-0.03-0.96,0.72-1.779,1.69-1.81l0,0
	c0.97-0.03,1.78,0.72,1.81,1.689l0,0c0.04,0.96-0.72,1.771-1.69,1.811l0,0c-0.02,0-0.04,0-0.06,0l0,0
	C434.11,372.5,433.34,371.76,433.3,370.81z M440.3,370.56c-0.04-0.96,0.72-1.77,1.69-1.81l0,0c0.96-0.03,1.77,0.72,1.81,1.689l0,0
	c0.03,0.96-0.72,1.771-1.69,1.811l0,0c-0.02,0-0.04,0-0.07,0l0,0C441.11,372.25,440.33,371.51,440.3,370.56z M447.3,370.31
	c-0.04-0.96,0.72-1.77,1.68-1.81l0,0c0.97-0.03,1.78,0.72,1.81,1.689l0,0c0.04,0.96-0.72,1.771-1.68,1.811l0,0
	c-0.02,0-0.04,0-0.06,0l0,0C448.11,372,447.33,371.26,447.3,370.31z"/>
<g>
	<defs>
		<rect id="SVGID_7_" x="-9" y="-1" width="930" height="422.5"/>
	</defs>
	<clipPath id="SVGID_8_">
		<use xlink:href="#SVGID_7_"  overflow="visible"/>
	</clipPath>
	
		<path clip-path="url(#SVGID_8_)" fill="none" stroke="#F9A25E" stroke-width="3.5" stroke-linecap="round" stroke-linejoin="round" d="
		M456.052,370L456.052,370 M288.125,376L288.125,376 M119.9,419.7L119.9,419.7"/>
	<polyline clip-path="url(#SVGID_8_)" fill="none" stroke="#808285" stroke-width="2" points="119.9,419.7 288.125,321.6 
		456.052,306.801 798,280.801 	"/>
	<path clip-path="url(#SVGID_8_)" fill="#808285" d="M125.16,419.43c-0.06-0.97,0.69-1.79,1.65-1.84l0,0
		c0.97-0.05,1.79,0.69,1.84,1.66l0,0c0.05,0.96-0.69,1.79-1.66,1.84l0,0c-0.03,0-0.06,0-0.09,0l0,0
		C125.98,421.09,125.2,420.359,125.16,419.43z M132.16,419.069c-0.05-0.97,0.69-1.789,1.66-1.84l0,0c0.96-0.05,1.78,0.69,1.83,1.66
		l0,0c0.05,0.96-0.69,1.79-1.65,1.84l0,0c-0.03,0-0.06,0-0.09,0l0,0C132.98,420.729,132.21,420,132.16,419.069z M139.16,418.71
		c-0.05-0.97,0.69-1.79,1.66-1.84l0,0c0.96-0.051,1.79,0.689,1.84,1.66l0,0c0.05,0.96-0.7,1.789-1.66,1.84l0,0
		c-0.03,0-0.06,0-0.09,0l0,0C139.98,420.37,139.21,419.64,139.16,418.71z M146.16,418.35c-0.05-0.97,0.7-1.79,1.66-1.84l0,0
		c0.97-0.05,1.79,0.69,1.84,1.66l0,0c0.05,0.96-0.69,1.78-1.66,1.84l0,0c-0.03,0-0.06,0-0.09,0l0,0
		C146.99,420.01,146.21,419.28,146.16,418.35z M153.17,417.99c-0.05-0.971,0.69-1.79,1.66-1.841l0,0c0.96-0.05,1.78,0.69,1.83,1.66
		l0,0c0.05,0.96-0.69,1.78-1.66,1.84l0,0c-0.03,0-0.06,0-0.09,0l0,0C153.99,419.649,153.21,418.92,153.17,417.99z M160.17,417.63
		c-0.05-0.97,0.69-1.79,1.66-1.84l0,0c0.96-0.05,1.79,0.689,1.83,1.66l0,0c0.05,0.96-0.69,1.779-1.65,1.83l0,0
		c-0.03,0.01-0.07,0.01-0.1,0.01l0,0C160.99,419.29,160.22,418.56,160.17,417.63z M167.17,417.27c-0.05-0.97,0.69-1.79,1.66-1.84
		l0,0c0.97-0.05,1.79,0.69,1.84,1.66l0,0c0.05,0.96-0.7,1.78-1.66,1.83l0,0c-0.03,0.01-0.06,0.01-0.09,0.01l0,0
		C167.99,418.93,167.22,418.2,167.17,417.27z M174.17,416.91c-0.05-0.971,0.7-1.79,1.66-1.841l0,0c0.97-0.05,1.79,0.69,1.84,1.66
		l0,0c0.05,0.96-0.69,1.78-1.66,1.83l0,0c-0.03,0-0.06,0.01-0.09,0.01l0,0C175,418.569,174.22,417.84,174.17,416.91z M181.18,416.55
		c-0.05-0.97,0.69-1.79,1.65-1.84l0,0c0.97-0.05,1.79,0.689,1.84,1.66l0,0c0.05,0.96-0.69,1.779-1.66,1.83l0,0
		c-0.03,0-0.06,0.01-0.09,0.01l0,0C182,418.2,181.22,417.479,181.18,416.55z M188.18,416.189c-0.05-0.97,0.69-1.79,1.66-1.84l0,0
		c0.96-0.05,1.79,0.69,1.84,1.66l0,0c0.04,0.96-0.7,1.78-1.66,1.83l0,0c-0.03,0-0.06,0-0.09,0l0,0
		C189,417.84,188.23,417.12,188.18,416.189z M195.18,415.819c-0.05-0.96,0.7-1.779,1.66-1.829l0,0c0.97-0.051,1.79,0.689,1.84,1.659
		l0,0c0.05,0.96-0.7,1.78-1.66,1.83l0,0c-0.03,0-0.06,0-0.09,0l0,0C196,417.479,195.23,416.76,195.18,415.819z M202.18,415.47
		c-0.04-0.97,0.7-1.79,1.66-1.84l0,0c0.97-0.05,1.79,0.689,1.84,1.65l0,0c0.05,0.97-0.69,1.789-1.66,1.84l0,0c-0.03,0-0.06,0-0.09,0
		l0,0C203.01,417.12,202.23,416.399,202.18,415.47z M209.19,415.1c-0.05-0.96,0.69-1.78,1.66-1.83l0,0
		c0.96-0.05,1.78,0.69,1.83,1.65l0,0c0.05,0.97-0.69,1.79-1.65,1.84l0,0c-0.03,0-0.06,0.01-0.09,0.01l0,0
		C210.01,416.77,209.24,416.04,209.19,415.1z M216.19,414.74c-0.05-0.96,0.69-1.78,1.66-1.83l0,0c0.96-0.051,1.79,0.689,1.84,1.649
		l0,0c0.05,0.971-0.7,1.79-1.66,1.84l0,0c-0.03,0-0.06,0-0.09,0l0,0C217.01,416.399,216.24,415.68,216.19,414.74z M223.19,414.38
		c-0.05-0.96,0.7-1.78,1.66-1.83l0,0c0.97-0.05,1.79,0.69,1.84,1.65l0,0c0.05,0.97-0.69,1.79-1.66,1.84l0,0c-0.03,0-0.06,0-0.09,0
		l0,0C224.02,416.04,223.24,415.319,223.19,414.38z M230.2,414.02c-0.05-0.96,0.69-1.779,1.65-1.83l0,0
		c0.97-0.05,1.79,0.69,1.84,1.65l0,0c0.05,0.97-0.69,1.79-1.66,1.84l0,0c-0.03,0-0.06,0-0.09,0l0,0
		C231.02,415.68,230.24,414.96,230.2,414.02z M237.2,413.66c-0.05-0.96,0.69-1.78,1.66-1.841l0,0c0.96-0.039,1.78,0.7,1.83,1.66l0,0
		c0.05,0.971-0.69,1.79-1.65,1.84l0,0c-0.03,0-0.06,0-0.1,0l0,0C238.02,415.319,237.25,414.6,237.2,413.66z M244.2,413.3
		c-0.05-0.96,0.7-1.79,1.66-1.84l0,0c0.96-0.04,1.79,0.7,1.84,1.66l0,0c0.05,0.97-0.7,1.79-1.66,1.84l0,0c-0.03,0-0.06,0-0.09,0l0,0
		C245.02,414.96,244.25,414.24,244.2,413.3z M251.2,412.939c-0.04-0.96,0.7-1.79,1.66-1.84l0,0c0.97-0.04,1.79,0.7,1.84,1.66l0,0
		c0.05,0.97-0.69,1.79-1.66,1.84l0,0c-0.03,0-0.06,0-0.09,0l0,0C252.02,414.6,251.25,413.88,251.2,412.939z M258.21,412.58
		c-0.05-0.96,0.69-1.79,1.66-1.84l0,0c0.96-0.051,1.78,0.699,1.83,1.659l0,0c0.05,0.971-0.69,1.79-1.66,1.841l0,0
		c-0.03,0-0.06,0-0.09,0l0,0C259.03,414.24,258.26,413.52,258.21,412.58z M265.21,412.22c-0.05-0.96,0.69-1.79,1.66-1.84l0,0
		c0.96-0.05,1.79,0.7,1.83,1.66l0,0c0.06,0.97-0.69,1.79-1.65,1.84l0,0c-0.03,0-0.06,0-0.1,0l0,0
		C266.03,413.88,265.26,413.16,265.21,412.22z M272.21,411.859c-0.05-0.96,0.69-1.79,1.66-1.84l0,0c0.97-0.05,1.79,0.7,1.84,1.66
		l0,0c0.05,0.97-0.69,1.79-1.66,1.84l0,0c-0.03,0-0.06,0-0.09,0l0,0C273.03,413.52,272.26,412.79,272.21,411.859z M279.22,411.5
		c-0.05-0.96,0.69-1.79,1.65-1.84l0,0c0.97-0.051,1.79,0.689,1.84,1.659l0,0c0.05,0.971-0.69,1.79-1.66,1.841l0,0
		c-0.03,0-0.06,0-0.09,0l0,0C280.04,413.16,279.26,412.439,279.22,411.5z M286.22,411.14c-0.05-0.96,0.69-1.79,1.66-1.84l0,0
		c0.96-0.05,1.78,0.69,1.83,1.66l0,0c0.05,0.97-0.69,1.79-1.65,1.84l0,0c-0.03,0-0.06,0-0.09,0l0,0
		C287.04,412.8,286.27,412.069,286.22,411.14z M293.22,410.78c-0.05-0.971,0.69-1.79,1.66-1.841l0,0c0.96-0.05,1.79,0.7,1.84,1.66
		l0,0c0.05,0.96-0.7,1.79-1.66,1.84l0,0c-0.03,0-0.06,0-0.09,0l0,0C294.04,412.439,293.27,411.71,293.22,410.78z M300.22,410.42
		c-0.05-0.97,0.7-1.79,1.66-1.84l0,0c0.97-0.05,1.79,0.689,1.84,1.66l0,0c0.05,0.96-0.69,1.79-1.66,1.84l0,0c-0.03,0-0.06,0-0.09,0
		l0,0C301.05,412.08,300.27,411.35,300.22,410.42z M307.23,410.06c-0.05-0.97,0.69-1.79,1.65-1.84l0,0
		c0.97-0.05,1.79,0.69,1.84,1.66l0,0c0.05,0.96-0.69,1.79-1.66,1.84l0,0c-0.03,0-0.06,0-0.09,0l0,0
		C308.05,411.72,307.27,410.99,307.23,410.06z M314.23,409.7c-0.05-0.971,0.69-1.79,1.66-1.841l0,0c0.96-0.05,1.79,0.69,1.83,1.66
		l0,0c0.05,0.96-0.69,1.79-1.65,1.84l0,0c-0.03,0-0.07,0-0.1,0l0,0C315.05,411.359,314.28,410.63,314.23,409.7z M321.23,409.34
		c-0.05-0.97,0.69-1.79,1.66-1.84l0,0c0.97-0.05,1.79,0.689,1.84,1.66l0,0c0.05,0.96-0.7,1.79-1.66,1.84l0,0c-0.03,0-0.06,0-0.09,0
		l0,0C322.05,411,321.28,410.27,321.23,409.34z M328.23,408.979c-0.05-0.97,0.7-1.79,1.66-1.84l0,0c0.97-0.05,1.79,0.69,1.84,1.66
		l0,0c0.05,0.96-0.69,1.79-1.66,1.84l0,0c-0.03,0-0.06,0-0.09,0l0,0C329.05,410.64,328.28,409.91,328.23,408.979z M335.24,408.62
		c-0.05-0.971,0.69-1.79,1.65-1.84l0,0c0.97-0.051,1.79,0.689,1.84,1.659l0,0c0.05,0.96-0.69,1.79-1.66,1.83l0,0
		c-0.03,0.011-0.06,0.011-0.09,0.011l0,0C336.06,410.28,335.28,409.55,335.24,408.62z M342.24,408.26
		c-0.05-0.97,0.69-1.79,1.66-1.84l0,0c0.96-0.05,1.79,0.689,1.84,1.66l0,0c0.04,0.96-0.7,1.79-1.66,1.83l0,0
		c-0.03,0.01-0.06,0.01-0.09,0.01l0,0C343.06,409.92,342.29,409.189,342.24,408.26z M349.24,407.899c-0.05-0.97,0.7-1.79,1.66-1.84
		l0,0c0.97-0.05,1.79,0.69,1.84,1.66l0,0c0.05,0.96-0.7,1.78-1.66,1.83l0,0c-0.03,0.01-0.06,0.01-0.09,0.01l0,0
		C350.06,409.56,349.29,408.83,349.24,407.899z M356.24,407.54c-0.04-0.971,0.7-1.79,1.66-1.84l0,0
		c0.97-0.051,1.79,0.689,1.84,1.659l0,0c0.05,0.96-0.69,1.78-1.66,1.83l0,0c-0.03,0-0.06,0.011-0.09,0.011l0,0
		C357.07,409.189,356.29,408.47,356.24,407.54z M363.25,407.18c-0.05-0.97,0.69-1.79,1.65-1.84l0,0c0.97-0.05,1.79,0.69,1.84,1.66
		l0,0c0.05,0.96-0.69,1.78-1.65,1.83l0,0c-0.04,0-0.07,0-0.1,0l0,0C364.07,408.83,363.3,408.109,363.25,407.18z M370.25,406.81
		c-0.05-0.96,0.69-1.779,1.66-1.83l0,0c0.96-0.05,1.79,0.69,1.84,1.66l0,0c0.05,0.96-0.7,1.78-1.66,1.83l0,0c-0.03,0-0.06,0-0.09,0
		l0,0C371.07,408.47,370.3,407.75,370.25,406.81z M377.25,406.46c-0.05-0.97,0.7-1.79,1.66-1.84l0,0
		c0.97-0.051,1.79,0.689,1.84,1.649l0,0c0.05,0.971-0.69,1.79-1.66,1.84l0,0c-0.03,0-0.06,0-0.09,0l0,0
		C378.07,408.109,377.3,407.39,377.25,406.46z M384.26,406.1c-0.05-0.97,0.69-1.79,1.65-1.84l0,0c0.97-0.05,1.79,0.69,1.84,1.65l0,0
		c0.05,0.97-0.69,1.79-1.66,1.84l0,0c-0.03,0-0.06,0.01-0.09,0.01l0,0C385.08,407.76,384.3,407.03,384.26,406.1z M391.26,405.729
		c-0.05-0.96,0.69-1.779,1.66-1.83l0,0c0.96-0.05,1.78,0.69,1.83,1.65l0,0c0.05,0.97-0.69,1.79-1.65,1.84l0,0c-0.03,0-0.06,0-0.09,0
		l0,0C392.08,407.39,391.31,406.67,391.26,405.729z M398.26,405.37c-0.05-0.96,0.7-1.78,1.66-1.83l0,0
		c0.96-0.05,1.79,0.689,1.84,1.649l0,0c0.05,0.971-0.7,1.79-1.66,1.841l0,0c-0.03,0-0.06,0-0.09,0l0,0
		C399.08,407.03,398.31,406.31,398.26,405.37z M405.26,405.01c-0.04-0.96,0.7-1.78,1.66-1.83l0,0c0.97-0.05,1.79,0.69,1.84,1.65l0,0
		c0.05,0.97-0.69,1.79-1.66,1.84l0,0c-0.03,0-0.06,0-0.09,0l0,0C406.08,406.67,405.31,405.95,405.26,405.01z M412.27,404.649
		c-0.05-0.96,0.69-1.779,1.65-1.84l0,0c0.97-0.04,1.79,0.7,1.84,1.66l0,0c0.05,0.97-0.69,1.79-1.66,1.84l0,0c-0.03,0-0.06,0-0.09,0
		l0,0C413.09,406.31,412.32,405.59,412.27,404.649z M419.27,404.29c-0.05-0.96,0.69-1.79,1.66-1.84l0,0
		c0.96-0.04,1.79,0.699,1.83,1.659l0,0c0.06,0.971-0.69,1.79-1.65,1.841l0,0c-0.03,0-0.06,0-0.1,0l0,0
		C420.09,405.95,419.32,405.229,419.27,404.29z M426.27,403.93c-0.05-0.96,0.69-1.79,1.66-1.83l0,0c0.96-0.05,1.79,0.69,1.84,1.65
		l0,0c0.05,0.97-0.69,1.79-1.66,1.84l0,0c-0.03,0-0.06,0-0.09,0l0,0C427.09,405.59,426.32,404.87,426.27,403.93z M433.28,403.569
		c-0.05-0.96,0.69-1.789,1.65-1.84l0,0c0.97-0.05,1.79,0.7,1.84,1.66l0,0c0.05,0.97-0.69,1.79-1.66,1.84l0,0c-0.03,0-0.06,0-0.09,0
		l0,0C434.1,405.229,433.32,404.51,433.28,403.569z M440.28,403.21c-0.05-0.96,0.69-1.79,1.66-1.84l0,0
		c0.96-0.051,1.78,0.699,1.83,1.66l0,0c0.05,0.97-0.69,1.789-1.66,1.84l0,0c-0.03,0-0.06,0-0.09,0l0,0
		C441.1,404.87,440.33,404.149,440.28,403.21z M447.28,402.85c-0.05-0.96,0.69-1.79,1.66-1.84l0,0c0.96-0.05,1.79,0.7,1.84,1.66l0,0
		c0.05,0.97-0.7,1.79-1.66,1.84l0,0c-0.03,0-0.06,0-0.09,0l0,0C448.1,404.51,447.33,403.78,447.28,402.85z"/>
	
		<path clip-path="url(#SVGID_8_)" fill="none" stroke="#808285" stroke-width="3.5" stroke-linecap="round" stroke-linejoin="round" d="
		M456.052,402.4L456.052,402.4 M119.9,419.7L119.9,419.7"/>
	<path clip-path="url(#SVGID_8_)" fill="#006227" d="M124.39,417.109c-0.48-0.829-0.19-1.909,0.65-2.39l0,0
		c0.83-0.479,1.9-0.189,2.39,0.64l0,0c0.48,0.841,0.19,1.91-0.65,2.4l0,0c-0.27,0.15-0.57,0.23-0.87,0.23l0,0
		C125.3,417.99,124.72,417.68,124.39,417.109z M130.4,413.649c-0.48-0.84-0.2-1.909,0.64-2.39l0,0c0.84-0.479,1.91-0.19,2.39,0.64
		l0,0c0.49,0.841,0.2,1.91-0.64,2.391l0,0c-0.28,0.16-0.58,0.24-0.87,0.24l0,0C131.31,414.53,130.72,414.21,130.4,413.649z
		 M136.41,410.189c-0.49-0.84-0.2-1.909,0.64-2.39l0,0c0.84-0.48,1.91-0.19,2.39,0.64l0,0c0.48,0.841,0.19,1.91-0.64,2.391l0,0
		c-0.28,0.16-0.58,0.239-0.88,0.239l0,0C137.32,411.069,136.73,410.75,136.41,410.189z M142.41,406.729
		c-0.48-0.84-0.19-1.91,0.65-2.39l0,0c0.84-0.48,1.9-0.19,2.39,0.64l0,0c0.48,0.84,0.19,1.91-0.65,2.391l0,0
		c-0.27,0.16-0.57,0.239-0.87,0.239l0,0C143.33,407.609,142.74,407.29,142.41,406.729z M148.42,403.27
		c-0.48-0.84-0.19-1.91,0.65-2.39l0,0c0.83-0.48,1.9-0.2,2.38,0.64l0,0c0.49,0.84,0.2,1.91-0.64,2.391l0,0
		c-0.27,0.159-0.57,0.239-0.87,0.239l0,0C149.33,404.149,148.75,403.83,148.42,403.27z M154.43,399.81
		c-0.48-0.84-0.2-1.91,0.64-2.39l0,0c0.84-0.48,1.91-0.19,2.39,0.64l0,0c0.48,0.84,0.2,1.91-0.64,2.391l0,0
		c-0.28,0.159-0.58,0.239-0.87,0.239l0,0C155.34,400.689,154.75,400.37,154.43,399.81z M160.44,396.35
		c-0.48-0.84-0.2-1.91,0.64-2.39l0,0c0.84-0.48,1.91-0.2,2.39,0.64l0,0c0.48,0.84,0.2,1.91-0.64,2.391l0,0
		c-0.28,0.159-0.58,0.239-0.88,0.239l0,0C161.35,397.229,160.76,396.91,160.44,396.35z M166.45,392.89
		c-0.49-0.84-0.2-1.91,0.64-2.39l0,0c0.83-0.48,1.91-0.2,2.39,0.64l0,0c0.48,0.84,0.19,1.91-0.64,2.391l0,0
		c-0.28,0.159-0.58,0.239-0.88,0.239l0,0C167.36,393.77,166.77,393.45,166.45,392.89z M172.45,389.43
		c-0.48-0.84-0.19-1.91,0.65-2.39l0,0c0.83-0.48,1.9-0.2,2.39,0.64l0,0c0.48,0.84,0.19,1.91-0.65,2.39l0,0
		c-0.27,0.16-0.57,0.23-0.87,0.23l0,0C173.36,390.3,172.78,389.99,172.45,389.43z M178.46,385.97c-0.48-0.84-0.19-1.91,0.64-2.39
		l0,0c0.84-0.48,1.91-0.2,2.39,0.64l0,0c0.49,0.84,0.2,1.91-0.64,2.39l0,0c-0.28,0.16-0.58,0.23-0.87,0.23l0,0
		C179.37,386.84,178.78,386.53,178.46,385.97z M184.47,382.51c-0.48-0.84-0.2-1.91,0.64-2.39l0,0c0.84-0.48,1.91-0.2,2.39,0.64l0,0
		c0.48,0.84,0.2,1.91-0.64,2.39l0,0c-0.28,0.16-0.58,0.23-0.88,0.23l0,0C185.38,383.38,184.79,383.069,184.47,382.51z
		 M190.48,379.05c-0.49-0.84-0.2-1.91,0.64-2.39l0,0c0.84-0.49,1.91-0.2,2.39,0.64l0,0c0.48,0.84,0.19,1.91-0.65,2.39l0,0
		c-0.27,0.16-0.57,0.23-0.87,0.23l0,0C191.39,379.92,190.8,379.609,190.48,379.05z M196.48,375.59c-0.48-0.84-0.19-1.91,0.65-2.39
		l0,0c0.83-0.49,1.9-0.2,2.39,0.64l0,0c0.48,0.84,0.19,1.91-0.65,2.39l0,0c-0.27,0.16-0.57,0.23-0.87,0.23l0,0
		C197.4,376.46,196.81,376.149,196.48,375.59z M202.49,372.13c-0.48-0.84-0.2-1.91,0.64-2.39l0,0c0.84-0.49,1.91-0.2,2.39,0.64l0,0
		c0.49,0.84,0.2,1.91-0.64,2.39l0,0c-0.28,0.16-0.58,0.23-0.87,0.23l0,0C203.4,373,202.81,372.689,202.49,372.13z M208.5,368.66
		c-0.48-0.83-0.2-1.9,0.64-2.38l0,0c0.84-0.49,1.91-0.2,2.39,0.64l0,0c0.48,0.84,0.2,1.899-0.64,2.39l0,0
		c-0.28,0.16-0.58,0.23-0.87,0.23l0,0C209.41,369.54,208.82,369.229,208.5,368.66z M214.51,365.21c-0.49-0.84-0.2-1.91,0.64-2.4l0,0
		c0.84-0.479,1.91-0.189,2.39,0.65l0,0c0.48,0.84,0.19,1.91-0.64,2.39l0,0c-0.28,0.16-0.58,0.23-0.88,0.23l0,0
		C215.42,366.08,214.83,365.77,214.51,365.21z M220.51,361.74c-0.48-0.83-0.19-1.9,0.65-2.391l0,0c0.83-0.479,1.9-0.189,2.39,0.65
		l0,0c0.48,0.84,0.19,1.899-0.65,2.39l0,0c-0.27,0.16-0.57,0.23-0.87,0.23l0,0C221.43,362.62,220.84,362.31,220.51,361.74z
		 M226.52,358.28c-0.48-0.841-0.19-1.9,0.64-2.391l0,0c0.84-0.479,1.91-0.189,2.39,0.65l0,0c0.49,0.83,0.2,1.899-0.64,2.39l0,0
		c-0.27,0.15-0.58,0.23-0.87,0.23l0,0C227.43,359.16,226.85,358.85,226.52,358.28z M232.53,354.819c-0.48-0.829-0.2-1.899,0.64-2.39
		l0,0c0.84-0.479,1.91-0.189,2.39,0.65l0,0c0.48,0.83,0.2,1.899-0.64,2.39l0,0c-0.28,0.15-0.58,0.23-0.87,0.23l0,0
		C233.44,355.7,232.85,355.39,232.53,354.819z M238.54,351.359c-0.49-0.84-0.2-1.899,0.64-2.39l0,0c0.84-0.479,1.91-0.189,2.39,0.65
		l0,0c0.48,0.83,0.19,1.899-0.64,2.38l0,0c-0.28,0.16-0.58,0.24-0.88,0.24l0,0C239.45,352.24,238.86,351.92,238.54,351.359z
		 M244.54,347.899c-0.48-0.84-0.19-1.909,0.65-2.39l0,0c0.84-0.479,1.9-0.19,2.39,0.64l0,0c0.48,0.841,0.19,1.91-0.65,2.4l0,0
		c-0.27,0.15-0.57,0.23-0.87,0.23l0,0C245.46,348.78,244.87,348.46,244.54,347.899z M250.55,344.439
		c-0.48-0.84-0.19-1.909,0.64-2.39l0,0c0.84-0.48,1.91-0.19,2.39,0.64l0,0c0.49,0.841,0.2,1.91-0.64,2.391l0,0
		c-0.27,0.16-0.57,0.239-0.87,0.239l0,0C251.46,345.319,250.87,345,250.55,344.439z M256.56,340.979c-0.48-0.84-0.2-1.91,0.64-2.39
		l0,0c0.84-0.48,1.91-0.19,2.39,0.64l0,0c0.48,0.84,0.2,1.91-0.64,2.391l0,0c-0.28,0.16-0.58,0.239-0.87,0.239l0,0
		C257.47,341.859,256.88,341.54,256.56,340.979z M262.57,337.52c-0.49-0.84-0.2-1.91,0.64-2.39l0,0c0.84-0.48,1.91-0.19,2.39,0.64
		l0,0c0.48,0.84,0.19,1.91-0.64,2.391l0,0c-0.28,0.159-0.58,0.239-0.88,0.239l0,0C263.48,338.399,262.89,338.08,262.57,337.52z
		 M268.57,334.06c-0.48-0.84-0.19-1.91,0.65-2.39l0,0c0.83-0.48,1.91-0.19,2.39,0.64l0,0c0.48,0.84,0.19,1.91-0.65,2.391l0,0
		c-0.27,0.159-0.57,0.239-0.87,0.239l0,0C269.49,334.939,268.9,334.62,268.57,334.06z M274.58,330.6c-0.48-0.84-0.19-1.91,0.64-2.39
		l0,0c0.84-0.48,1.91-0.19,2.39,0.64l0,0c0.49,0.84,0.2,1.91-0.64,2.391l0,0c-0.27,0.159-0.57,0.239-0.87,0.239l0,0
		C275.49,331.479,274.91,331.16,274.58,330.6z M280.59,327.14c-0.48-0.84-0.19-1.91,0.64-2.39l0,0c0.84-0.48,1.91-0.2,2.39,0.64l0,0
		c0.48,0.84,0.2,1.91-0.64,2.391l0,0c-0.28,0.159-0.58,0.239-0.87,0.239l0,0C281.5,328.02,280.91,327.7,280.59,327.14z"/>
</g>
<path fill="#006227" d="M449.02,327.62c-0.97-0.021-1.74-0.82-1.72-1.79l0,0c0.02-0.96,0.82-1.73,1.78-1.71l0,0
	c0.97,0.01,1.74,0.81,1.72,1.779l0,0c-0.02,0.95-0.8,1.721-1.75,1.721l0,0C449.04,327.62,449.03,327.62,449.02,327.62z
	 M442.02,327.479c-0.97-0.02-1.73-0.81-1.72-1.779l0,0c0.02-0.971,0.82-1.73,1.79-1.721l0,0c0.96,0.021,1.73,0.82,1.71,1.79l0,0
	c-0.02,0.95-0.8,1.71-1.75,1.71l0,0C442.04,327.479,442.03,327.479,442.02,327.479z M435.02,327.35c-0.96-0.02-1.73-0.819-1.71-1.78
	l0,0c0.02-0.97,0.81-1.739,1.78-1.72l0,0c0.97,0.021,1.73,0.82,1.72,1.78l0,0c-0.02,0.96-0.8,1.72-1.75,1.72l0,0
	C435.05,327.35,435.03,327.35,435.02,327.35z M428.03,327.22c-0.97-0.02-1.74-0.82-1.72-1.79l0,0c0.02-0.96,0.82-1.729,1.78-1.71
	l0,0c0.97,0.021,1.74,0.811,1.72,1.78l0,0c-0.02,0.95-0.8,1.72-1.75,1.72l0,0C428.05,327.22,428.04,327.22,428.03,327.22z
	 M421.03,327.08c-0.97-0.021-1.74-0.811-1.72-1.78l0,0c0.02-0.97,0.82-1.74,1.79-1.72l0,0c0.96,0.02,1.73,0.819,1.71,1.79l0,0
	c-0.02,0.949-0.8,1.71-1.75,1.71l0,0C421.05,327.08,421.04,327.08,421.03,327.08z M414.03,326.95c-0.96-0.021-1.73-0.82-1.71-1.78
	l0,0c0.01-0.97,0.81-1.74,1.78-1.72l0,0c0.97,0.02,1.74,0.819,1.72,1.779l0,0c-0.02,0.96-0.8,1.721-1.75,1.721l0,0
	C414.06,326.95,414.04,326.95,414.03,326.95z M407.04,326.81c-0.97-0.01-1.74-0.81-1.72-1.779l0,0c0.02-0.961,0.82-1.73,1.78-1.711
	l0,0c0.97,0.021,1.74,0.811,1.72,1.78l0,0c-0.02,0.95-0.8,1.72-1.75,1.72l0,0C407.06,326.819,407.05,326.81,407.04,326.81z
	 M400.04,326.68c-0.97-0.02-1.74-0.82-1.72-1.78l0,0c0.02-0.97,0.82-1.739,1.79-1.72l0,0c0.96,0.021,1.73,0.82,1.71,1.79l0,0
	c-0.02,0.95-0.8,1.71-1.75,1.71l0,0C400.06,326.68,400.05,326.68,400.04,326.68z M393.04,326.55c-0.96-0.02-1.73-0.82-1.71-1.78l0,0
	c0.01-0.97,0.81-1.739,1.78-1.72l0,0c0.97,0.02,1.74,0.82,1.72,1.78l0,0c-0.02,0.96-0.8,1.72-1.75,1.72l0,0
	C393.06,326.55,393.05,326.55,393.04,326.55z M386.05,326.41c-0.97-0.011-1.74-0.811-1.72-1.78l0,0c0.02-0.96,0.82-1.73,1.78-1.71
	l0,0c0.97,0.02,1.74,0.81,1.72,1.78l0,0c-0.02,0.949-0.8,1.72-1.75,1.72l0,0C386.07,326.42,386.06,326.42,386.05,326.41z
	 M379.05,326.28c-0.97-0.021-1.74-0.811-1.72-1.78l0,0c0.02-0.97,0.82-1.74,1.79-1.72l0,0c0.96,0.02,1.73,0.819,1.71,1.779l0,0
	c-0.02,0.96-0.79,1.721-1.75,1.721l0,0C379.07,326.28,379.06,326.28,379.05,326.28z M372.05,326.149
	c-0.96-0.02-1.73-0.819-1.71-1.79l0,0c0.01-0.96,0.81-1.729,1.78-1.71l0,0c0.97,0.021,1.73,0.82,1.72,1.78l0,0
	c-0.02,0.96-0.8,1.72-1.75,1.72l0,0C372.08,326.149,372.06,326.149,372.05,326.149z M365.06,326.02c-0.97-0.02-1.74-0.819-1.72-1.79
	l0,0c0.02-0.96,0.82-1.729,1.78-1.71l0,0c0.97,0.011,1.74,0.811,1.72,1.78l0,0c-0.02,0.96-0.8,1.72-1.75,1.72l0,0
	C365.08,326.02,365.07,326.02,365.06,326.02z M358.06,325.88c-0.97-0.021-1.74-0.811-1.72-1.78l0,0c0.02-0.97,0.82-1.74,1.79-1.72
	l0,0c0.96,0.02,1.73,0.82,1.71,1.79l0,0c-0.02,0.95-0.8,1.71-1.75,1.71l0,0C358.08,325.88,358.07,325.88,358.06,325.88z
	 M351.06,325.75c-0.96-0.021-1.73-0.82-1.71-1.78l0,0c0.01-0.97,0.81-1.74,1.78-1.72l0,0c0.97,0.02,1.73,0.819,1.72,1.78l0,0
	c-0.02,0.96-0.8,1.72-1.75,1.72l0,0C351.09,325.75,351.07,325.75,351.06,325.75z M344.07,325.62c-0.97-0.021-1.74-0.82-1.72-1.79
	l0,0c0.02-0.96,0.82-1.73,1.78-1.71l0,0c0.97,0.01,1.74,0.81,1.72,1.779l0,0c-0.02,0.95-0.8,1.721-1.75,1.721l0,0
	C344.09,325.62,344.08,325.62,344.07,325.62z M337.07,325.479c-0.97-0.02-1.74-0.81-1.72-1.779l0,0c0.02-0.971,0.82-1.73,1.78-1.721
	l0,0c0.97,0.021,1.74,0.82,1.72,1.79l0,0c-0.02,0.95-0.8,1.71-1.75,1.71l0,0C337.09,325.479,337.08,325.479,337.07,325.479z
	 M330.07,325.35c-0.96-0.02-1.73-0.819-1.71-1.79l0,0c0.01-0.96,0.81-1.729,1.78-1.71l0,0c0.96,0.021,1.73,0.82,1.72,1.78l0,0
	c-0.02,0.96-0.8,1.72-1.75,1.72l0,0C330.1,325.35,330.08,325.35,330.07,325.35z M323.08,325.22c-0.97-0.02-1.74-0.82-1.72-1.79l0,0
	c0.02-0.96,0.82-1.729,1.78-1.71l0,0c0.97,0.021,1.74,0.811,1.72,1.78l0,0c-0.02,0.95-0.8,1.72-1.75,1.72l0,0
	C323.1,325.22,323.09,325.22,323.08,325.22z M316.08,325.08c-0.97-0.021-1.74-0.811-1.72-1.78l0,0c0.02-0.97,0.82-1.74,1.78-1.72
	l0,0c0.97,0.02,1.74,0.819,1.72,1.79l0,0c-0.02,0.949-0.8,1.71-1.75,1.71l0,0C316.1,325.08,316.09,325.08,316.08,325.08z
	 M309.08,324.95c-0.97-0.021-1.73-0.82-1.71-1.78l0,0c0.01-0.97,0.81-1.74,1.78-1.72l0,0c0.96,0.02,1.73,0.819,1.72,1.779l0,0
	c-0.02,0.96-0.8,1.721-1.75,1.721l0,0C309.11,324.95,309.09,324.95,309.08,324.95z M302.08,324.819
	c-0.96-0.02-1.73-0.819-1.71-1.789l0,0c0.02-0.971,0.82-1.73,1.78-1.711l0,0c0.97,0.021,1.74,0.811,1.72,1.78l0,0
	c-0.02,0.95-0.8,1.72-1.75,1.72l0,0C302.11,324.819,302.1,324.819,302.08,324.819z M295.09,324.68c-0.97-0.02-1.74-0.81-1.72-1.78
	l0,0c0.02-0.97,0.82-1.739,1.79-1.72l0,0c0.96,0.021,1.73,0.82,1.71,1.79l0,0c-0.02,0.95-0.8,1.71-1.75,1.71l0,0
	C295.11,324.68,295.1,324.68,295.09,324.68z"/>
<g>
	<defs>
		<rect id="SVGID_9_" x="-9" y="-1" width="930" height="422.5"/>
	</defs>
	<clipPath id="SVGID_10_">
		<use xlink:href="#SVGID_9_"  overflow="visible"/>
	</clipPath>
	
		<path clip-path="url(#SVGID_10_)" fill="none" stroke="#006227" stroke-width="3.5" stroke-linecap="round" stroke-linejoin="round" d="
		M456.052,326L456.052,326 M288.125,322.801L288.125,322.801 M119.9,419.7L119.9,419.7"/>
</g>
<line fill="none" stroke="#808285" stroke-width="2" stroke-dasharray="10.091,5.091" x1="129.658" y1="416.957" x2="448.744" y2="327.255"/>
<line fill="none" stroke="#808285" stroke-width="2" stroke-dasharray="9.956,4.956" x1="465.956" y1="324.424" x2="790.566" y2="298.982"/>
<g>
	<defs>
		<rect id="SVGID_11_" x="-9" y="-1" width="930" height="422.5"/>
	</defs>
	<clipPath id="SVGID_12_">
		<use xlink:href="#SVGID_11_"  overflow="visible"/>
	</clipPath>
	<path clip-path="url(#SVGID_12_)" fill="none" stroke="#808285" stroke-width="2" d="M793.037,298.789L798,298.4 M451.195,326.565
		l4.856-1.365l4.963-0.39 M119.9,419.7l4.856-1.365"/>
	<line clip-path="url(#SVGID_12_)" fill="none" stroke="#F9A25E" stroke-width="3" x1="0" y1="420" x2="912" y2="420"/>
</g>
</svg>
