<?xml version="1.0" encoding="utf-8"?>
<!-- Generator: Adobe Illustrator 15.1.0, SVG Export Plug-In . SVG Version: 6.00 Build 0)  -->
<!DOCTYPE svg PUBLIC "-//W3C//DTD SVG 1.1//EN" "http://www.w3.org/Graphics/SVG/1.1/DTD/svg11.dtd">
<svg version="1.1" id="art" xmlns="http://www.w3.org/2000/svg" xmlns:xlink="http://www.w3.org/1999/xlink" x="0px" y="0px"
	 width="912px" height="535px" viewBox="0 0 912 535" enable-background="new 0 0 912 535" xml:space="preserve">
<g>
	<defs>
		<rect id="SVGID_1_" width="912" height="406.075"/>
	</defs>
	<clipPath id="SVGID_2_">
		<use xlink:href="#SVGID_1_"  overflow="visible"/>
	</clipPath>
	<line clip-path="url(#SVGID_2_)" fill="none" stroke="#F9A25E" stroke-width="3" x1="0" y1="392.051" x2="912" y2="392.051"/>
	<path clip-path="url(#SVGID_2_)" fill="#F9A25E" d="M142.5,40c11.046,0,20-8.954,20-20c0-11.046-8.954-20-20-20s-20,8.954-20,20
		C122.5,31.046,131.454,40,142.5,40"/>
	<path clip-path="url(#SVGID_2_)" fill="#F9A25E" d="M140.991,45.903c0,0,1.531,2.58,3.062,0l4.911-8.273c0,0,1.531-2.58-1.469-2.58
		h-9.946c0,0-3,0-1.468,2.58L140.991,45.903z"/>
</g>
<polygon fill="#FFFFFF" points="143.536,27.447 143.536,14.275 142.593,14.275 140.206,16.33 140.206,17.458 142.593,15.349 
	142.593,27.447 "/>
<g>
	<defs>
		<rect id="SVGID_3_" width="912" height="406.075"/>
	</defs>
	<clipPath id="SVGID_4_">
		<use xlink:href="#SVGID_3_"  overflow="visible"/>
	</clipPath>
	<path clip-path="url(#SVGID_4_)" fill="#006227" d="M142.5,306.545c2.199,0,3.982-1.783,3.982-3.982
		c0-2.198-1.783-3.981-3.982-3.981s-3.981,1.783-3.981,3.981C138.519,304.762,140.301,306.545,142.5,306.545"/>
	<path clip-path="url(#SVGID_4_)" fill="#006227" d="M142.5,358.545c2.199,0,3.982-1.783,3.982-3.982s-1.783-3.981-3.982-3.981
		s-3.981,1.782-3.981,3.981S140.301,358.545,142.5,358.545"/>
	<path clip-path="url(#SVGID_4_)" fill="#FFFFFF" d="M167.5,288.53v-34c0-3-3-3-3-3h-44c-3,0-3,3-3,3v34c0,3,3,3,3,3h16.943
		l3.503,5.903c1.532,2.58,3.062,0,3.062,0l3.503-5.903H164.5C167.5,291.53,167.5,288.53,167.5,288.53"/>
	<path clip-path="url(#SVGID_4_)" fill="none" stroke="#D1D3D4" d="M167.5,288.53v-34c0-3-3-3-3-3h-44c-3,0-3,3-3,3v34c0,3,3,3,3,3
		h16.943l3.503,5.903c1.532,2.58,3.062,0,3.062,0l3.503-5.903H164.5C167.5,291.53,167.5,288.53,167.5,288.53z"/>
	<path clip-path="url(#SVGID_4_)" fill="#FFFFFF" d="M167.5,402.576v-34c0-3-3-3-3-3h-16.942l-3.505-5.904
		c-1.53-2.579-3.062,0-3.062,0l-3.504,5.904H120.5c-3,0-3,3-3,3v34c0,3,3,3,3,3h44C167.5,405.576,167.5,402.576,167.5,402.576"/>
	<path clip-path="url(#SVGID_4_)" fill="none" stroke="#D1D3D4" d="M167.5,402.576v-34c0-3-3-3-3-3h-16.942l-3.505-5.904
		c-1.53-2.579-3.062,0-3.062,0l-3.504,5.904H120.5c-3,0-3,3-3,3v34c0,3,3,3,3,3h44C167.5,405.576,167.5,402.576,167.5,402.576z"/>
	<path clip-path="url(#SVGID_4_)" fill="#F9A25E" d="M157.56,275.354c-0.54,0-0.853-0.54-0.853-1.562
		c0-1.043,0.301-1.571,0.877-1.571c0.541,0,0.853,0.54,0.853,1.56C158.437,274.837,158.137,275.354,157.56,275.354 M155.665,273.78
		c0,1.43,0.707,2.269,1.907,2.269c1.199,0,1.919-0.839,1.919-2.269c0-1.451-0.707-2.255-1.907-2.255S155.665,272.353,155.665,273.78
		 M150.648,269.413c0,1.44,0.72,2.256,1.919,2.256c1.2,0,1.907-0.827,1.907-2.256c0-1.453-0.707-2.256-1.907-2.256
		C151.368,267.157,150.648,267.984,150.648,269.413 M152.556,270.985c-0.54,0-0.853-0.539-0.853-1.561
		c0-1.045,0.301-1.584,0.877-1.584c0.541,0,0.841,0.552,0.841,1.572C153.421,270.47,153.133,270.985,152.556,270.985
		 M152.977,276.049l5.004-8.892h-0.805l-5.004,8.892H152.977z M149.832,271.692c0-2.951-1.127-4.535-3.072-4.535
		c-1.92,0-3.095,1.607-3.095,4.439c0,2.857,1.163,4.452,3.083,4.452C148.645,276.049,149.832,274.454,149.832,271.692
		 M146.724,274.85c-1.056,0-1.668-1.128-1.668-3.241c0-2.16,0.588-3.264,1.716-3.264c1.081,0,1.669,1.115,1.669,3.24
		C148.44,273.758,147.865,274.85,146.724,274.85 M140.604,275.173c0,0.42,0.336,0.756,0.768,0.756s0.768-0.336,0.768-0.756
		c0-0.432-0.336-0.779-0.768-0.779S140.604,274.741,140.604,275.173 M138.372,274.706h-3.264l1.093-1.26
		c1.308-1.502,2.158-2.57,2.158-3.914c0-1.464-1.019-2.375-2.675-2.375c-1.752,0-2.855,0.996-2.855,2.531h1.344
		c0.06-0.804,0.612-1.332,1.392-1.332c0.889,0,1.416,0.528,1.416,1.368c0,0.624-0.396,1.344-1.151,2.256l-3.204,3.841h5.747V274.706
		z M131.184,274.706h-3.262l1.091-1.26c1.308-1.502,2.159-2.57,2.159-3.914c0-1.464-1.02-2.375-2.674-2.375
		c-1.752,0-2.856,0.996-2.856,2.531h1.343c0.062-0.804,0.613-1.332,1.393-1.332c0.888,0,1.416,0.528,1.416,1.368
		c0,0.624-0.396,1.344-1.151,2.256l-3.204,3.841h5.746V274.706z"/>
	<path clip-path="url(#SVGID_4_)" fill="#F9A25E" d="M153.966,389.398c-0.541,0-0.853-0.54-0.853-1.562
		c0-1.044,0.3-1.572,0.877-1.572c0.54,0,0.853,0.54,0.853,1.561C154.843,388.882,154.542,389.398,153.966,389.398 M152.071,387.825
		c0,1.429,0.707,2.268,1.907,2.268c1.199,0,1.919-0.839,1.919-2.268c0-1.452-0.707-2.255-1.907-2.255
		S152.071,386.397,152.071,387.825 M147.055,383.457c0,1.441,0.72,2.257,1.919,2.257c1.2,0,1.907-0.828,1.907-2.257
		c0-1.452-0.707-2.255-1.907-2.255C147.774,381.202,147.055,382.029,147.055,383.457 M148.962,385.03
		c-0.541,0-0.853-0.54-0.853-1.562c0-1.044,0.3-1.584,0.877-1.584c0.54,0,0.841,0.552,0.841,1.572
		C149.827,384.514,149.538,385.03,148.962,385.03 M149.382,390.093l5.004-8.891h-0.804l-5.004,8.891H149.382z M143.839,384.069
		c-0.036,0.491-0.036,0.779-0.036,0.852v2.233h-2.147L143.839,384.069z M143.803,389.865h1.271v-1.74h1.044v-0.971h-1.044v-5.952
		h-0.396l-4.99,6.923h4.115V389.865z M137.011,389.217c0,0.42,0.336,0.756,0.768,0.756s0.767-0.336,0.767-0.756
		c0-0.431-0.335-0.778-0.767-0.778S137.011,388.786,137.011,389.217 M130.123,389.686l1.128,0.504l4.319-8.819h-5.915v1.103h3.971
		L130.123,389.686z"/>
</g>
</svg>
