<?xml version="1.0" encoding="utf-8"?>
<!-- Generator: Adobe Illustrator 15.1.0, SVG Export Plug-In . SVG Version: 6.00 Build 0)  -->
<!DOCTYPE svg PUBLIC "-//W3C//DTD SVG 1.1//EN" "http://www.w3.org/Graphics/SVG/1.1/DTD/svg11.dtd">
<svg version="1.1" id="Layer_1" xmlns="http://www.w3.org/2000/svg" xmlns:xlink="http://www.w3.org/1999/xlink" x="0px" y="0px"
	 width="1350px" height="534px" viewBox="0 0 1350 534" enable-background="new 0 0 1350 534" xml:space="preserve">
<g>
	<defs>
		<rect id="SVGID_1_" x="302" y="-1" width="746" height="447"/>
	</defs>
	<clipPath id="SVGID_2_">
		<use xlink:href="#SVGID_1_"  overflow="visible"/>
	</clipPath>
	<rect x="311" y="270" clip-path="url(#SVGID_2_)" fill="#F3E3D5" width="728" height="35"/>
	<rect x="311" y="200" clip-path="url(#SVGID_2_)" fill="#F3E3D5" width="728" height="35"/>
	<rect x="311" y="130" clip-path="url(#SVGID_2_)" fill="#F3E3D5" width="728" height="35"/>
	<rect x="311" y="60" clip-path="url(#SVGID_2_)" fill="#F3E3D5" width="728" height="35"/>
	<rect x="589" clip-path="url(#SVGID_2_)" fill="#F9A25E" width="450" height="60"/>
	<rect x="311" y="410" clip-path="url(#SVGID_2_)" fill="#F3E3D5" width="728" height="35"/>
	<rect x="311" y="340" clip-path="url(#SVGID_2_)" fill="#F3E3D5" width="728" height="35"/>
	<g clip-path="url(#SVGID_2_)">
		<defs>
			<rect id="SVGID_3_" x="302" y="-1" width="746" height="447"/>
		</defs>
		<clipPath id="SVGID_4_">
			<use xlink:href="#SVGID_3_"  overflow="visible"/>
		</clipPath>
		<g opacity="0.3" clip-path="url(#SVGID_4_)">
			<g>
				<defs>
					<rect id="SVGID_5_" x="310" y="50.5" width="730" height="19"/>
				</defs>
				<clipPath id="SVGID_6_">
					<use xlink:href="#SVGID_5_"  overflow="visible"/>
				</clipPath>
				<line clip-path="url(#SVGID_6_)" fill="none" stroke="#808285" x1="1039" y1="60" x2="311" y2="60"/>
			</g>
		</g>
		<g opacity="0.3" clip-path="url(#SVGID_4_)">
			<g>
				<defs>
					<rect id="SVGID_7_" x="310" y="85.5" width="730" height="19"/>
				</defs>
				<clipPath id="SVGID_8_">
					<use xlink:href="#SVGID_7_"  overflow="visible"/>
				</clipPath>
				<line clip-path="url(#SVGID_8_)" fill="none" stroke="#808285" x1="1039" y1="95" x2="311" y2="95"/>
			</g>
		</g>
		<g opacity="0.3" clip-path="url(#SVGID_4_)">
			<g>
				<defs>
					<rect id="SVGID_9_" x="310" y="120.5" width="730" height="19"/>
				</defs>
				<clipPath id="SVGID_10_">
					<use xlink:href="#SVGID_9_"  overflow="visible"/>
				</clipPath>
				<line clip-path="url(#SVGID_10_)" fill="none" stroke="#808285" x1="1039" y1="130" x2="311" y2="130"/>
			</g>
		</g>
		<g opacity="0.3" clip-path="url(#SVGID_4_)">
			<g>
				<defs>
					<rect id="SVGID_11_" x="310" y="155.5" width="730" height="19"/>
				</defs>
				<clipPath id="SVGID_12_">
					<use xlink:href="#SVGID_11_"  overflow="visible"/>
				</clipPath>
				<line clip-path="url(#SVGID_12_)" fill="none" stroke="#808285" x1="1039" y1="165" x2="311" y2="165"/>
			</g>
		</g>
		<g opacity="0.3" clip-path="url(#SVGID_4_)">
			<g>
				<defs>
					<rect id="SVGID_13_" x="310" y="190.5" width="730" height="19"/>
				</defs>
				<clipPath id="SVGID_14_">
					<use xlink:href="#SVGID_13_"  overflow="visible"/>
				</clipPath>
				<line clip-path="url(#SVGID_14_)" fill="none" stroke="#808285" x1="1039" y1="200" x2="311" y2="200"/>
			</g>
		</g>
		<g opacity="0.3" clip-path="url(#SVGID_4_)">
			<g>
				<defs>
					<rect id="SVGID_15_" x="310" y="225.5" width="730" height="19"/>
				</defs>
				<clipPath id="SVGID_16_">
					<use xlink:href="#SVGID_15_"  overflow="visible"/>
				</clipPath>
				<line clip-path="url(#SVGID_16_)" fill="none" stroke="#808285" x1="1039" y1="235" x2="311" y2="235"/>
			</g>
		</g>
		<g opacity="0.3" clip-path="url(#SVGID_4_)">
			<g>
				<defs>
					<rect id="SVGID_17_" x="310" y="260.5" width="730" height="19"/>
				</defs>
				<clipPath id="SVGID_18_">
					<use xlink:href="#SVGID_17_"  overflow="visible"/>
				</clipPath>
				<line clip-path="url(#SVGID_18_)" fill="none" stroke="#808285" x1="1039" y1="270" x2="311" y2="270"/>
			</g>
		</g>
		<g opacity="0.3" clip-path="url(#SVGID_4_)">
			<g>
				<defs>
					<rect id="SVGID_19_" x="310" y="295.5" width="730" height="19"/>
				</defs>
				<clipPath id="SVGID_20_">
					<use xlink:href="#SVGID_19_"  overflow="visible"/>
				</clipPath>
				<line clip-path="url(#SVGID_20_)" fill="none" stroke="#808285" x1="1039" y1="305" x2="311" y2="305"/>
			</g>
		</g>
		<g opacity="0.3" clip-path="url(#SVGID_4_)">
			<g>
				<defs>
					<rect id="SVGID_21_" x="310" y="330.5" width="730" height="19"/>
				</defs>
				<clipPath id="SVGID_22_">
					<use xlink:href="#SVGID_21_"  overflow="visible"/>
				</clipPath>
				<line clip-path="url(#SVGID_22_)" fill="none" stroke="#808285" x1="1039" y1="340" x2="311" y2="340"/>
			</g>
		</g>
		<g opacity="0.3" clip-path="url(#SVGID_4_)">
			<g>
				<defs>
					<rect id="SVGID_23_" x="310" y="365.5" width="730" height="19"/>
				</defs>
				<clipPath id="SVGID_24_">
					<use xlink:href="#SVGID_23_"  overflow="visible"/>
				</clipPath>
				<line clip-path="url(#SVGID_24_)" fill="none" stroke="#808285" x1="1039" y1="375" x2="311" y2="375"/>
			</g>
		</g>
		<g opacity="0.3" clip-path="url(#SVGID_4_)">
			<g>
				<defs>
					<rect id="SVGID_25_" x="310" y="400.5" width="730" height="19"/>
				</defs>
				<clipPath id="SVGID_26_">
					<use xlink:href="#SVGID_25_"  overflow="visible"/>
				</clipPath>
				<line clip-path="url(#SVGID_26_)" fill="none" stroke="#808285" x1="1039" y1="410" x2="311" y2="410"/>
			</g>
		</g>
		<g opacity="0.3" clip-path="url(#SVGID_4_)">
			<g>
				<defs>
					<rect id="SVGID_27_" x="310" y="435.5" width="730" height="19"/>
				</defs>
				<clipPath id="SVGID_28_">
					<use xlink:href="#SVGID_27_"  overflow="visible"/>
				</clipPath>
				<line clip-path="url(#SVGID_28_)" fill="none" stroke="#808285" x1="1039" y1="445" x2="311" y2="445"/>
			</g>
		</g>
		<g opacity="0.3" clip-path="url(#SVGID_4_)">
			<g>
				<defs>
					<rect id="SVGID_29_" x="579.5" y="-1" width="19" height="447"/>
				</defs>
				<clipPath id="SVGID_30_">
					<use xlink:href="#SVGID_29_"  overflow="visible"/>
				</clipPath>
				<line clip-path="url(#SVGID_30_)" fill="none" stroke="#808285" x1="589" y1="0" x2="589" y2="445"/>
			</g>
		</g>
		<g opacity="0.3" clip-path="url(#SVGID_4_)">
			<g>
				<defs>
					<rect id="SVGID_31_" x="729.5" y="-1" width="19" height="447"/>
				</defs>
				<clipPath id="SVGID_32_">
					<use xlink:href="#SVGID_31_"  overflow="visible"/>
				</clipPath>
				<line clip-path="url(#SVGID_32_)" fill="none" stroke="#808285" x1="739" y1="0" x2="739" y2="445"/>
			</g>
		</g>
		<g opacity="0.3" clip-path="url(#SVGID_4_)">
			<g>
				<defs>
					<rect id="SVGID_33_" x="879.5" y="-1" width="19" height="447"/>
				</defs>
				<clipPath id="SVGID_34_">
					<use xlink:href="#SVGID_33_"  overflow="visible"/>
				</clipPath>
				<line clip-path="url(#SVGID_34_)" fill="none" stroke="#808285" x1="889" y1="0" x2="889" y2="445"/>
			</g>
		</g>
		<path clip-path="url(#SVGID_4_)" fill="#808285" d="M422.779,250.337h-2.538c0.075-0.71,0.588-1.149,1.269-1.149
			C422.266,249.188,422.733,249.6,422.779,250.337 M423.543,250.914v-0.141c0-1.379-0.782-2.209-2.005-2.209
			c-1.213,0-2.079,0.914-2.079,2.229c0,1.361,0.857,2.275,2.126,2.275c0.859,0,1.511-0.381,1.93-1.137l-0.54-0.365
			c-0.345,0.607-0.793,0.906-1.353,0.906c-0.802,0-1.381-0.588-1.381-1.494v-0.064H423.543z M415.19,261.292l0.832,0.433
			c1.232-2.289,1.856-4.865,1.856-7.729c0-2.96-0.576-5.504-1.856-7.76l-0.832,0.384c1.152,2.272,1.648,4.64,1.648,7.376
			C416.838,256.812,416.342,259.18,415.19,261.292 M414.263,255.564c0-1.889-0.88-2.961-2.336-2.961
			c-1.456,0-2.352,1.072-2.352,2.961c0,1.888,0.896,2.959,2.352,2.959C413.383,258.523,414.263,257.452,414.263,255.564
			 M411.927,257.725c-0.752,0-1.2-0.752-1.2-2.16s0.448-2.16,1.2-2.16c0.784,0,1.2,0.72,1.2,2.16
			C413.127,256.973,412.679,257.725,411.927,257.725 M405.607,251.788c-0.752,0-1.2-0.752-1.2-2.16c0-1.407,0.448-2.176,1.2-2.176
			c0.784,0,1.2,0.735,1.2,2.176C406.807,251.036,406.359,251.788,405.607,251.788 M407.959,249.628c0-1.888-0.896-2.96-2.352-2.96
			s-2.352,1.072-2.352,2.96s0.896,2.944,2.352,2.944S407.959,251.516,407.959,249.628 M404.935,258.523h0.976l6.56-11.855h-0.96
			L404.935,258.523z M402.263,261.292c-1.152-2.112-1.648-4.479-1.648-7.296c0-2.736,0.496-5.104,1.648-7.376l-0.832-0.384
			c-1.28,2.256-1.856,4.8-1.856,7.76c0,2.863,0.624,5.439,1.856,7.729L402.263,261.292z M387.703,257.02
			c0.56,1.008,1.488,1.504,2.816,1.504c1.584,0,2.608-0.943,2.608-2.271c0-1.168-0.688-1.68-2.08-2.128
			c-1.184-0.384-1.84-0.479-1.84-1.231c0-0.625,0.496-1.072,1.216-1.072c0.752,0,1.344,0.367,1.632,1.023l0.992-0.607
			c-0.384-0.912-1.312-1.424-2.544-1.424c-1.52,0-2.528,0.912-2.528,2.16c0,1.407,1.056,1.711,2.816,2.319
			c0.752,0.256,1.12,0.544,1.12,1.088c0,0.624-0.528,1.072-1.344,1.072s-1.424-0.368-1.824-1.136L387.703,257.02z M384.439,247.628
			c0,0.513,0.4,0.896,0.896,0.896s0.896-0.383,0.896-0.879s-0.4-0.912-0.896-0.912S384.439,247.132,384.439,247.628
			 M384.727,258.221h1.216v-7.152h-1.216V258.221z M380.791,252.076v6.145h1.216v-6.145h1.344v-1.008h-1.344v-2.881h-1.216v2.881
			h-1.312v1.008H380.791z M376.583,247.628c0,0.513,0.4,0.896,0.896,0.896s0.896-0.383,0.896-0.879s-0.4-0.912-0.896-0.912
			S376.583,247.132,376.583,247.628 M376.871,258.221h1.216v-7.152h-1.216V258.221z M369.623,257.02
			c0.56,1.008,1.488,1.504,2.816,1.504c1.584,0,2.608-0.943,2.608-2.271c0-1.168-0.688-1.68-2.08-2.128
			c-1.184-0.384-1.84-0.479-1.84-1.231c0-0.625,0.496-1.072,1.216-1.072c0.752,0,1.344,0.367,1.632,1.023l0.992-0.607
			c-0.384-0.912-1.312-1.424-2.544-1.424c-1.52,0-2.528,0.912-2.528,2.16c0,1.407,1.056,1.711,2.816,2.319
			c0.752,0.256,1.12,0.544,1.12,1.088c0,0.624-0.528,1.072-1.344,1.072c-0.816,0-1.424-0.368-1.824-1.136L369.623,257.02z
			 M367.303,253.836h-4.352c0.128-1.216,1.008-1.968,2.176-1.968C366.423,251.868,367.223,252.572,367.303,253.836 M368.615,254.828
			v-0.24c0-2.367-1.344-3.792-3.44-3.792c-2.08,0-3.568,1.568-3.568,3.824c0,2.336,1.472,3.903,3.648,3.903
			c1.472,0,2.592-0.655,3.312-1.951l-0.928-0.624c-0.592,1.04-1.36,1.552-2.32,1.552c-1.376,0-2.368-1.008-2.368-2.561v-0.111
			H368.615z M353.4,258.221h1.216v-3.697c0-0.783,0-1.375,0.416-1.887c0.4-0.496,1.024-0.769,1.744-0.769
			c1.28,0,1.904,0.704,1.904,2.144v4.209h1.216v-4.865c0-1.615-1.024-2.543-2.688-2.543c-1.12,0-1.984,0.432-2.608,1.359v-6.064
			h-1.2V258.221z M349.528,252.076v6.145h1.216v-6.145h1.344v-1.008h-1.344v-2.881h-1.216v2.881h-1.312v1.008H349.528z
			 M340.504,258.221h1.216v-3.697c0-0.783,0-1.375,0.416-1.887c0.4-0.496,1.024-0.769,1.744-0.769c1.28,0,1.904,0.704,1.904,2.144
			v4.209H347v-4.865c0-1.615-1.024-2.543-2.688-2.543c-1.12,0-1.984,0.432-2.592,1.359v-1.104h-1.216V258.221z M332.376,258.221
			h6.032v-1.265h-4.672v-4.384h4.672v-1.264h-4.672v-3.281h4.672v-1.248h-6.032V258.221z"/>
		<path clip-path="url(#SVGID_4_)" fill="#808285" d="M440.998,226.292l0.832,0.432c1.231-2.288,1.855-4.864,1.855-7.728
			c0-2.96-0.575-5.504-1.855-7.76l-0.832,0.384c1.152,2.272,1.648,4.64,1.648,7.376C442.646,221.812,442.15,224.18,440.998,226.292
			 M434.438,222.02c0.561,1.008,1.488,1.504,2.816,1.504c1.584,0,2.608-0.944,2.608-2.272c0-1.168-0.688-1.68-2.08-2.128
			c-1.185-0.384-1.84-0.48-1.84-1.232c0-0.624,0.495-1.072,1.216-1.072c0.752,0,1.344,0.368,1.632,1.024l0.992-0.608
			c-0.384-0.912-1.312-1.424-2.544-1.424c-1.521,0-2.528,0.912-2.528,2.16c0,1.408,1.056,1.712,2.816,2.32
			c0.752,0.256,1.12,0.544,1.12,1.088c0,0.624-0.528,1.072-1.345,1.072c-0.815,0-1.424-0.368-1.824-1.136L434.438,222.02z
			 M431.319,217.076v6.144h1.216v-6.144h1.344v-1.008h-1.344v-2.88h-1.216v2.88h-1.312v1.008H431.319z M422.295,223.22h1.216v-3.696
			c0-0.784,0-1.376,0.416-1.888c0.4-0.496,1.024-0.768,1.744-0.768c1.28,0,1.904,0.704,1.904,2.144v4.208h1.216v-4.864
			c0-1.616-1.024-2.544-2.688-2.544c-1.12,0-1.984,0.432-2.592,1.36v-1.104h-1.216V223.22z M418.279,212.628
			c0,0.512,0.4,0.896,0.896,0.896c0.496,0,0.896-0.384,0.896-0.88s-0.4-0.912-0.896-0.912
			C418.679,211.732,418.279,212.132,418.279,212.628 M418.567,223.22h1.216v-7.152h-1.216V223.22z M410.199,219.668
			c0-1.52,1.152-2.704,2.592-2.704c1.424,0,2.576,1.184,2.576,2.704s-1.152,2.704-2.576,2.704S410.199,221.188,410.199,219.668
			 M408.903,219.668c0,1.04,0.384,1.968,1.136,2.72c0.736,0.736,1.696,1.136,2.752,1.136c1.04,0,2-0.416,2.752-1.152
			c0.736-0.72,1.136-1.664,1.136-2.704s-0.4-2-1.136-2.72c-0.752-0.736-1.696-1.136-2.752-1.136s-2.016,0.384-2.752,1.12
			C409.287,217.668,408.903,218.628,408.903,219.668 M405.463,212.628c0,0.512,0.4,0.896,0.896,0.896s0.896-0.384,0.896-0.88
			s-0.4-0.912-0.896-0.912S405.463,212.132,405.463,212.628 M405.751,226.708h1.216v-10.64h-1.216V226.708z M392.775,219.892
			c0-1.504,0.928-2.544,2.288-2.544c1.52,0,2.432,0.976,2.432,2.528c0,1.52-0.944,2.512-2.352,2.512
			C393.703,222.388,392.775,221.444,392.775,219.892 M393.687,216.756l3.696-4.8l-1.184-0.624l-2.608,3.68
			c-1.264,1.792-2.224,3.12-2.224,4.768c0,2.24,1.408,3.744,3.504,3.744c2.496,0,4.032-1.488,4.032-3.776
			c0-2.096-1.408-3.536-3.456-3.536C394.807,216.212,394.247,216.388,393.687,216.756 M383.415,219.892
			c0-1.504,0.928-2.544,2.288-2.544c1.52,0,2.432,0.976,2.432,2.528c0,1.52-0.944,2.512-2.352,2.512
			C384.343,222.388,383.415,221.444,383.415,219.892 M384.327,216.756l3.696-4.8l-1.184-0.624l-2.608,3.68
			c-1.264,1.792-2.224,3.12-2.224,4.768c0,2.24,1.408,3.744,3.504,3.744c2.496,0,4.032-1.488,4.032-3.776
			c0-2.096-1.408-3.536-3.456-3.536C385.447,216.212,384.887,216.388,384.327,216.756 M376.407,220.276h3.648v-1.232h-3.648V220.276
			z M370.68,223.524c2.4,0,3.952-2.128,3.952-5.936s-1.536-5.92-3.984-5.92c-2.384,0-3.952,2.144-3.952,5.92
			S368.264,223.524,370.68,223.524 M370.664,222.404c-1.584,0-2.56-1.728-2.56-4.832c0-3.088,0.976-4.8,2.56-4.8
			c1.664,0,2.56,1.648,2.56,4.832C373.224,220.772,372.328,222.404,370.664,222.404 M365.4,226.292
			c-1.152-2.112-1.648-4.48-1.648-7.296c0-2.736,0.496-5.104,1.648-7.376l-0.832-0.384c-1.28,2.256-1.856,4.8-1.856,7.76
			c0,2.864,0.624,5.44,1.856,7.728L365.4,226.292z M355.912,214.516v-1.776c-1.184-0.816-2.4-1.232-3.76-1.232
			c-1.68,0-3.088,0.56-4.256,1.68c-1.2,1.168-1.792,2.592-1.792,4.368c0,2.032,0.912,3.76,2.576,4.912
			c0.992,0.688,2.16,1.056,3.376,1.056c1.392,0,2.72-0.432,3.856-1.248v-1.808c-1.04,1.216-2.304,1.808-3.744,1.808
			c-1.552,0-2.944-0.736-3.856-2.032c-0.528-0.752-0.784-1.648-0.784-2.704c0-1.344,0.432-2.464,1.312-3.376
			c0.848-0.88,2.064-1.392,3.264-1.392C353.592,212.772,354.808,213.316,355.912,214.516 M342.696,211.78v8.256
			c0,1.472-0.144,2.272-1.12,2.272c-0.56,0-1.008-0.272-1.536-0.816l-0.896,0.896c0.656,0.768,1.392,1.136,2.336,1.136
			c1.776,0,2.576-0.928,2.576-2.816v-8.928H342.696z M336.536,216.868l-1.632-0.72c-1.04-0.464-1.536-1.024-1.536-1.84
			c0-0.976,0.72-1.664,1.744-1.664c0.816,0,1.44,0.448,1.936,1.312l1.12-0.72c-0.56-1.136-1.584-1.728-2.96-1.728
			c-1.904,0-3.216,1.216-3.216,2.816c0,1.392,0.736,2.384,2.256,3.024l1.392,0.592c1.184,0.512,1.776,1.264,1.776,2.288
			c0,1.248-0.912,2.128-2.288,2.128c-1.152,0-1.936-0.72-2.272-2.112l-1.232,0.608c0.432,1.696,1.696,2.656,3.504,2.656
			c2.208,0,3.664-1.408,3.664-3.504C338.792,218.564,338.024,217.524,336.536,216.868"/>
		<path clip-path="url(#SVGID_4_)" fill="#808285" d="M440.886,191.292l0.832,0.432c1.232-2.288,1.856-4.864,1.856-7.728
			c0-2.96-0.576-5.504-1.856-7.76l-0.832,0.384c1.152,2.272,1.648,4.64,1.648,7.376C442.534,186.812,442.038,189.18,440.886,191.292
			 M434.326,187.02c0.56,1.008,1.488,1.504,2.815,1.504c1.584,0,2.608-0.944,2.608-2.272c0-1.168-0.688-1.68-2.08-2.128
			c-1.184-0.384-1.84-0.48-1.84-1.232c0-0.624,0.496-1.072,1.216-1.072c0.752,0,1.344,0.368,1.632,1.024l0.992-0.608
			c-0.384-0.912-1.312-1.424-2.544-1.424c-1.52,0-2.528,0.912-2.528,2.16c0,1.408,1.057,1.712,2.816,2.32
			c0.752,0.256,1.12,0.544,1.12,1.088c0,0.624-0.528,1.072-1.344,1.072c-0.816,0-1.425-0.368-1.824-1.136L434.326,187.02z
			 M431.206,182.076v6.144h1.216v-6.144h1.344v-1.008h-1.344v-2.88h-1.216v2.88h-1.312v1.008H431.206z M422.183,188.22h1.216v-3.696
			c0-0.784,0-1.376,0.416-1.888c0.4-0.496,1.024-0.768,1.744-0.768c1.28,0,1.904,0.704,1.904,2.144v4.208h1.216v-4.864
			c0-1.616-1.023-2.544-2.688-2.544c-1.12,0-1.984,0.432-2.592,1.36v-1.104h-1.216V188.22z M418.167,177.628
			c0,0.512,0.4,0.896,0.896,0.896s0.896-0.384,0.896-0.88s-0.4-0.912-0.896-0.912S418.167,177.132,418.167,177.628 M418.455,188.22
			h1.216v-7.152h-1.216V188.22z M410.087,184.668c0-1.52,1.152-2.704,2.592-2.704c1.424,0,2.576,1.184,2.576,2.704
			s-1.152,2.704-2.576,2.704C411.255,187.372,410.087,186.188,410.087,184.668 M408.791,184.668c0,1.04,0.384,1.968,1.136,2.72
			c0.736,0.736,1.696,1.136,2.752,1.136c1.04,0,2-0.416,2.752-1.152c0.736-0.72,1.136-1.664,1.136-2.704s-0.4-2-1.136-2.72
			c-0.752-0.736-1.696-1.136-2.752-1.136c-1.056,0-2.016,0.384-2.752,1.12C409.175,182.668,408.791,183.628,408.791,184.668
			 M405.351,177.628c0,0.512,0.4,0.896,0.896,0.896s0.896-0.384,0.896-0.88s-0.4-0.912-0.896-0.912S405.351,177.132,405.351,177.628
			 M405.639,191.708h1.216v-10.64h-1.216V191.708z M395.063,177.708c1.248,0,2.016,0.72,2.016,1.904
			c0,1.152-0.736,1.856-2.048,1.856c-1.28,0-2-0.72-2-1.856C393.031,178.444,393.799,177.708,395.063,177.708 M395.047,187.42
			c-1.536,0-2.4-0.88-2.4-2.304c0-1.44,0.896-2.352,2.4-2.352s2.4,0.896,2.4,2.352C397.447,186.54,396.583,187.42,395.047,187.42
			 M393.559,182.172c-1.504,0.416-2.352,1.536-2.352,3.04c0,1.984,1.424,3.312,3.856,3.312c2.448,0,3.84-1.296,3.84-3.344
			c0-1.472-0.848-2.576-2.352-3.008c1.232-0.368,1.936-1.296,1.936-2.528c0-1.776-1.296-2.976-3.424-2.976
			c-2.096,0-3.44,1.232-3.44,2.864C391.623,180.892,392.279,181.772,393.559,182.172 M383.303,184.892
			c0-1.504,0.928-2.544,2.288-2.544c1.52,0,2.432,0.976,2.432,2.528c0,1.52-0.944,2.512-2.352,2.512
			C384.231,187.388,383.303,186.444,383.303,184.892 M384.215,181.756l3.696-4.8l-1.184-0.624l-2.608,3.68
			c-1.264,1.792-2.224,3.12-2.224,4.768c0,2.24,1.408,3.744,3.504,3.744c2.496,0,4.032-1.488,4.032-3.776
			c0-2.096-1.408-3.536-3.456-3.536C385.335,181.212,384.775,181.388,384.215,181.756 M376.295,185.276h3.648v-1.232h-3.648V185.276
			z M370.567,188.524c2.4,0,3.952-2.128,3.952-5.936c0-3.808-1.536-5.92-3.984-5.92c-2.384,0-3.952,2.144-3.952,5.92
			C366.583,186.364,368.151,188.524,370.567,188.524 M370.551,187.404c-1.584,0-2.56-1.728-2.56-4.832c0-3.088,0.976-4.8,2.56-4.8
			c1.664,0,2.56,1.648,2.56,4.832C373.111,185.772,372.215,187.404,370.551,187.404 M365.288,191.292
			c-1.152-2.112-1.648-4.48-1.648-7.296c0-2.736,0.496-5.104,1.648-7.376l-0.832-0.384c-1.28,2.256-1.856,4.8-1.856,7.76
			c0,2.864,0.624,5.44,1.856,7.728L365.288,191.292z M355.8,179.516v-1.776c-1.184-0.816-2.4-1.232-3.76-1.232
			c-1.68,0-3.088,0.56-4.256,1.68c-1.2,1.168-1.792,2.592-1.792,4.368c0,2.032,0.912,3.76,2.576,4.912
			c0.992,0.688,2.16,1.056,3.376,1.056c1.392,0,2.72-0.432,3.856-1.248v-1.808c-1.04,1.216-2.304,1.808-3.744,1.808
			c-1.552,0-2.944-0.736-3.856-2.032c-0.528-0.752-0.784-1.648-0.784-2.704c0-1.344,0.432-2.464,1.312-3.376
			c0.848-0.88,2.064-1.392,3.264-1.392C353.48,177.772,354.696,178.316,355.8,179.516 M342.584,176.78v8.256
			c0,1.472-0.144,2.272-1.12,2.272c-0.56,0-1.008-0.272-1.536-0.816l-0.896,0.896c0.656,0.768,1.392,1.136,2.336,1.136
			c1.776,0,2.576-0.928,2.576-2.816v-8.928H342.584z M334.376,188.22h1.36v-10.144h3.232v-1.296h-7.824v1.296h3.232V188.22z"/>
		<path clip-path="url(#SVGID_4_)" fill="#808285" d="M554.531,145.831c0,0.989-0.541,1.549-1.4,1.549
			c-0.83,0-1.353-0.598-1.353-1.643c0-0.924,0.513-1.456,1.344-1.456C553.962,144.281,554.531,144.888,554.531,145.831
			 M555.22,140.831h-0.708v3.674c-0.316-0.615-0.83-0.931-1.521-0.931c-1.166,0-1.967,0.847-1.967,2.247
			c0,1.363,0.801,2.248,1.994,2.248c0.645,0,1.186-0.336,1.513-0.932v0.755h0.688V140.831z M546.709,156.292l0.832,0.432
			c1.232-2.288,1.856-4.864,1.856-7.728c0-2.96-0.576-5.504-1.856-7.76l-0.832,0.384c1.152,2.272,1.648,4.64,1.648,7.376
			C548.357,151.812,547.861,154.18,546.709,156.292 M540.149,152.02c0.56,1.008,1.487,1.504,2.815,1.504
			c1.584,0,2.608-0.944,2.608-2.272c0-1.168-0.688-1.68-2.08-2.128c-1.185-0.384-1.84-0.48-1.84-1.232
			c0-0.624,0.496-1.072,1.216-1.072c0.752,0,1.344,0.368,1.632,1.024l0.992-0.608c-0.384-0.912-1.312-1.424-2.544-1.424
			c-1.521,0-2.528,0.912-2.528,2.16c0,1.408,1.056,1.712,2.816,2.32c0.752,0.256,1.12,0.544,1.12,1.088
			c0,0.624-0.528,1.072-1.345,1.072c-0.815,0-1.424-0.368-1.823-1.136L540.149,152.02z M535.381,153.22h1.216v-3.488
			c0-1.872,0.641-2.8,1.937-2.8c0.224,0,0.479,0.048,0.752,0.144l0.416-1.104c-0.272-0.096-0.544-0.144-0.832-0.144
			c-1.088,0-1.76,0.512-2.4,1.728v-1.488h-1.088V153.22z M531.812,149.716c0,1.648-0.896,2.592-2.336,2.592
			c-1.52,0-2.384-0.976-2.384-2.704c0-1.632,0.864-2.576,2.336-2.576C530.805,147.028,531.812,148.052,531.812,149.716
			 M532.997,146.068h-1.216v1.344c-0.544-1.056-1.424-1.6-2.624-1.6c-2,0-3.36,1.456-3.36,3.856c0,2.336,1.376,3.856,3.424,3.856
			c1.104,0,2.017-0.56,2.592-1.6v1.296h1.185V146.068z M523.269,148.836h-4.352c0.128-1.216,1.008-1.968,2.176-1.968
			C522.389,146.868,523.189,147.572,523.269,148.836 M524.581,149.828v-0.24c0-2.368-1.344-3.792-3.44-3.792
			c-2.08,0-3.567,1.568-3.567,3.824c0,2.336,1.472,3.904,3.647,3.904c1.473,0,2.592-0.656,3.312-1.952l-0.928-0.624
			c-0.593,1.04-1.36,1.552-2.32,1.552c-1.376,0-2.368-1.008-2.368-2.56v-0.112H524.581z M510.949,156.708h1.376l4.8-10.64h-1.344
			l-2.208,5.136l-2.08-5.136h-1.408l2.8,6.448L510.949,156.708z M509.445,156.292c-1.152-2.112-1.648-4.48-1.648-7.296
			c0-2.736,0.496-5.104,1.648-7.376l-0.832-0.384c-1.28,2.256-1.856,4.8-1.856,7.76c0,2.864,0.624,5.44,1.856,7.728L509.445,156.292
			z M494.885,152.02c0.561,1.008,1.488,1.504,2.816,1.504c1.584,0,2.607-0.944,2.607-2.272c0-1.168-0.688-1.68-2.08-2.128
			c-1.184-0.384-1.84-0.48-1.84-1.232c0-0.624,0.496-1.072,1.217-1.072c0.752,0,1.344,0.368,1.632,1.024l0.991-0.608
			c-0.384-0.912-1.312-1.424-2.544-1.424c-1.52,0-2.527,0.912-2.527,2.16c0,1.408,1.056,1.712,2.815,2.32
			c0.752,0.256,1.12,0.544,1.12,1.088c0,0.624-0.527,1.072-1.344,1.072s-1.424-0.368-1.824-1.136L494.885,152.02z M491.622,142.628
			c0,0.512,0.4,0.896,0.896,0.896c0.496,0,0.896-0.384,0.896-0.88s-0.4-0.912-0.896-0.912
			C492.022,141.732,491.622,142.132,491.622,142.628 M491.91,153.22h1.216v-7.152h-1.216V153.22z M484.662,152.02
			c0.56,1.008,1.488,1.504,2.815,1.504c1.584,0,2.608-0.944,2.608-2.272c0-1.168-0.688-1.68-2.08-2.128
			c-1.184-0.384-1.84-0.48-1.84-1.232c0-0.624,0.496-1.072,1.216-1.072c0.752,0,1.344,0.368,1.632,1.024l0.992-0.608
			c-0.384-0.912-1.312-1.424-2.544-1.424c-1.52,0-2.528,0.912-2.528,2.16c0,1.408,1.057,1.712,2.816,2.32
			c0.752,0.256,1.12,0.544,1.12,1.088c0,0.624-0.528,1.072-1.344,1.072c-0.816,0-1.425-0.368-1.824-1.136L484.662,152.02z
			 M477.11,149.668c0-1.52,1.151-2.704,2.592-2.704c1.424,0,2.576,1.184,2.576,2.704s-1.152,2.704-2.576,2.704
			S477.11,151.188,477.11,149.668 M475.814,149.668c0,1.04,0.384,1.968,1.136,2.72c0.735,0.736,1.696,1.136,2.752,1.136
			c1.04,0,2-0.416,2.752-1.152c0.736-0.72,1.136-1.664,1.136-2.704s-0.399-2-1.136-2.72c-0.752-0.736-1.696-1.136-2.752-1.136
			s-2.017,0.384-2.752,1.12C476.198,147.668,475.814,148.628,475.814,149.668 M467.558,153.22h1.217v-3.696
			c0-0.784,0-1.376,0.416-1.888c0.399-0.496,1.023-0.768,1.743-0.768c1.28,0,1.904,0.704,1.904,2.144v4.208h1.216v-4.864
			c0-1.616-1.023-2.544-2.688-2.544c-1.12,0-1.984,0.432-2.592,1.36v-1.104h-1.217V153.22z M463.974,149.668
			c0,1.648-0.896,2.608-2.336,2.608c-1.52,0-2.384-0.976-2.384-2.704c0-1.632,0.864-2.576,2.336-2.576
			C462.966,146.996,463.974,148.004,463.974,149.668 M465.19,146.068h-1.248v1.328c-0.528-1.04-1.44-1.584-2.624-1.584
			c-2,0-3.36,1.424-3.36,3.808c0,2.32,1.376,3.824,3.424,3.824c1.104,0,2.032-0.56,2.592-1.584v1.2c0,0.656-0.031,1.184-0.304,1.632
			c-0.368,0.624-1.072,0.944-2.048,0.944c-1.376,0-2.128-0.624-2.128-1.68v-0.096h-1.376c0.048,1.792,1.296,2.848,3.488,2.848
			c1.264,0,2.224-0.368,2.88-1.072c0.672-0.72,0.704-1.52,0.704-2.544V146.068z M454.95,149.716c0,1.648-0.896,2.592-2.336,2.592
			c-1.521,0-2.384-0.976-2.384-2.704c0-1.632,0.863-2.576,2.336-2.576C453.942,147.028,454.95,148.052,454.95,149.716
			 M456.134,146.068h-1.216v1.344c-0.544-1.056-1.424-1.6-2.624-1.6c-2,0-3.36,1.456-3.36,3.856c0,2.336,1.376,3.856,3.425,3.856
			c1.104,0,2.016-0.56,2.592-1.6v1.296h1.184V146.068z M445.462,142.628c0,0.512,0.4,0.896,0.896,0.896
			c0.495,0,0.896-0.384,0.896-0.88s-0.4-0.912-0.896-0.912C445.862,141.732,445.462,142.132,445.462,142.628 M445.75,153.22h1.216
			v-7.152h-1.216V153.22z M442.087,149.684c0,1.696-0.928,2.656-2.4,2.656c-1.424,0-2.319-1.024-2.319-2.816
			c0-1.584,0.88-2.496,2.304-2.496C441.111,147.028,442.087,148.068,442.087,149.684 M443.271,141.108h-1.217v6.304
			c-0.544-1.056-1.424-1.6-2.607-1.6c-2,0-3.376,1.456-3.376,3.856c0,2.336,1.376,3.856,3.424,3.856c1.104,0,2.032-0.576,2.592-1.6
			v1.296h1.185V141.108z M425.799,144.34l1.824,4.208h-3.648L425.799,144.34z M425.799,141.332l-5.184,11.888h1.472l1.488-3.504
			h4.464l1.488,3.504h1.472L425.799,141.332z M414.871,152.02c0.56,1.008,1.488,1.504,2.816,1.504c1.584,0,2.608-0.944,2.608-2.272
			c0-1.168-0.688-1.68-2.08-2.128c-1.184-0.384-1.84-0.48-1.84-1.232c0-0.624,0.496-1.072,1.216-1.072
			c0.752,0,1.344,0.368,1.632,1.024l0.992-0.608c-0.384-0.912-1.312-1.424-2.544-1.424c-1.52,0-2.528,0.912-2.528,2.16
			c0,1.408,1.056,1.712,2.816,2.32c0.752,0.256,1.12,0.544,1.12,1.088c0,0.624-0.528,1.072-1.344,1.072s-1.424-0.368-1.824-1.136
			L414.871,152.02z M409.063,148.084h1.04c1.184,0,2.112-0.032,2.88-0.576c0.72-0.512,1.168-1.456,1.168-2.576
			c0-1.12-0.448-2.064-1.168-2.576c-0.768-0.544-1.712-0.576-2.88-0.576h-2.4v11.44h1.36V148.084z M409.063,146.852v-3.824h0.656
			c1.984,0,2.96,0.32,2.96,1.984c0,1.584-0.992,1.84-2.96,1.84H409.063z M399.399,153.22h1.216v-4.864
			c0-1.616-0.96-2.544-2.544-2.544c-1.088,0-1.92,0.464-2.544,1.456c-0.416-0.96-1.248-1.456-2.4-1.456
			c-1.072,0-1.888,0.448-2.464,1.36v-1.104h-1.216v7.152h1.216v-3.696c0-0.176-0.016-0.352-0.016-0.512
			c0-0.544,0.064-0.992,0.368-1.376c0.384-0.496,0.976-0.768,1.632-0.768c1.216,0,1.776,0.704,1.776,2.144v4.208h1.216v-3.696
			c0-0.16-0.016-0.304-0.016-0.448c0-0.592,0.08-1.04,0.384-1.44c0.384-0.496,0.96-0.768,1.616-0.768
			c1.216,0,1.776,0.704,1.776,2.144V153.22z M381.143,149.668c0-1.52,1.152-2.704,2.592-2.704c1.424,0,2.576,1.184,2.576,2.704
			s-1.152,2.704-2.576,2.704C382.311,152.372,381.143,151.188,381.143,149.668 M379.847,149.668c0,1.04,0.384,1.968,1.136,2.72
			c0.736,0.736,1.696,1.136,2.752,1.136c1.04,0,2-0.416,2.752-1.152c0.736-0.72,1.136-1.664,1.136-2.704s-0.4-2-1.136-2.72
			c-0.752-0.736-1.696-1.136-2.752-1.136c-1.056,0-2.016,0.384-2.752,1.12C380.231,147.668,379.847,148.628,379.847,149.668
			 M374.903,153.22h1.216v-3.488c0-1.872,0.64-2.8,1.936-2.8c0.224,0,0.48,0.048,0.752,0.144l0.416-1.104
			c-0.272-0.096-0.544-0.144-0.832-0.144c-1.088,0-1.76,0.512-2.4,1.728v-1.488h-1.088V153.22z M370.663,153.22h1.216v-6.144h1.904
			v-1.008h-1.904v-1.904c0-1.376,0.032-2.032,0.944-2.032c0.32,0,0.64,0.08,0.96,0.256v-1.264c-0.336-0.112-0.688-0.16-1.056-0.16
			c-1.712,0-2.064,0.896-2.064,3.04v2.064h-1.376v1.008h1.376V153.22z M362.632,148.836h-4.352c0.128-1.216,1.008-1.968,2.176-1.968
			C361.752,146.868,362.552,147.572,362.632,148.836 M363.944,149.828v-0.24c0-2.368-1.344-3.792-3.44-3.792
			c-2.08,0-3.568,1.568-3.568,3.824c0,2.336,1.472,3.904,3.648,3.904c1.472,0,2.592-0.656,3.312-1.952l-0.928-0.624
			c-0.592,1.04-1.36,1.552-2.32,1.552c-1.376,0-2.368-1.008-2.368-2.56v-0.112H363.944z M354.024,153.22h1.216v-4.864
			c0-1.616-0.96-2.544-2.544-2.544c-1.088,0-1.92,0.464-2.544,1.456c-0.416-0.96-1.248-1.456-2.4-1.456
			c-1.072,0-1.888,0.448-2.464,1.36v-1.104h-1.216v7.152h1.216v-3.696c0-0.176-0.016-0.352-0.016-0.512
			c0-0.544,0.064-0.992,0.368-1.376c0.384-0.496,0.976-0.768,1.632-0.768c1.216,0,1.776,0.704,1.776,2.144v4.208h1.216v-3.696
			c0-0.16-0.016-0.304-0.016-0.448c0-0.592,0.08-1.04,0.384-1.44c0.384-0.496,0.96-0.768,1.616-0.768
			c1.216,0,1.776,0.704,1.776,2.144V153.22z M340.056,142.628c0,0.512,0.4,0.896,0.896,0.896s0.896-0.384,0.896-0.88
			s-0.4-0.912-0.896-0.912S340.056,142.132,340.056,142.628 M340.344,153.22h1.216v-7.152h-1.216V153.22z M334.376,153.22h1.36
			v-10.144h3.232v-1.296h-7.824v1.296h3.232V153.22z"/>
		<path clip-path="url(#SVGID_4_)" fill="#808285" d="M412.486,112.137h-2.528l1.045-1.129c1.073-1.166,1.688-2.043,1.688-3.003
			c0-1.149-0.764-1.847-2.071-1.847c-1.316,0-2.089,0.736-2.089,1.996c0,0.056,0.01,0.12,0.01,0.176h0.745v-0.074
			c0-0.886,0.466-1.372,1.306-1.372c0.803,0,1.316,0.495,1.316,1.167c0,0.867-0.83,1.753-2.034,3.172l-1.408,1.668h4.02V112.137z
			 M404.039,121.292l0.832,0.432c1.232-2.288,1.856-4.864,1.856-7.728c0-2.96-0.576-5.504-1.856-7.76l-0.832,0.384
			c1.152,2.272,1.648,4.64,1.648,7.376C405.687,116.812,405.191,119.18,404.039,121.292 M401.127,118.22h1.216v-4.864
			c0-1.616-0.96-2.544-2.544-2.544c-1.088,0-1.92,0.464-2.544,1.456c-0.416-0.96-1.248-1.456-2.4-1.456
			c-1.072,0-1.888,0.448-2.464,1.36v-1.104h-1.216v7.152h1.216v-3.696c0-0.176-0.016-0.352-0.016-0.512
			c0-0.544,0.064-0.992,0.368-1.376c0.384-0.496,0.976-0.768,1.632-0.768c1.216,0,1.776,0.704,1.776,2.144v4.208h1.216v-3.696
			c0-0.16-0.016-0.304-0.016-0.448c0-0.592,0.08-1.04,0.384-1.44c0.384-0.496,0.96-0.768,1.616-0.768
			c1.216,0,1.776,0.704,1.776,2.144V118.22z M388.936,106.524l-5.6,13.184h1.056l5.615-13.184H388.936z M381,114.668
			c0,1.648-0.896,2.608-2.336,2.608c-1.52,0-2.384-0.976-2.384-2.704c0-1.632,0.864-2.576,2.336-2.576
			C379.992,111.996,381,113.004,381,114.668 M382.216,111.068h-1.248v1.328c-0.528-1.04-1.44-1.584-2.624-1.584
			c-2,0-3.36,1.424-3.36,3.808c0,2.32,1.376,3.824,3.424,3.824c1.104,0,2.032-0.56,2.592-1.584v1.2c0,0.656-0.032,1.184-0.304,1.632
			c-0.368,0.624-1.072,0.944-2.048,0.944c-1.376,0-2.128-0.624-2.128-1.68v-0.096h-1.376c0.048,1.792,1.296,2.848,3.488,2.848
			c1.264,0,2.224-0.368,2.88-1.072c0.672-0.72,0.704-1.52,0.704-2.544V111.068z M367.736,118.22h1.216l0.016-3.776l3.68,3.776h1.712
			l-3.888-3.872l3.568-3.28h-1.632l-3.44,3.248l-0.016-8.208h-1.216V118.22z M365.928,121.292c-1.152-2.112-1.648-4.48-1.648-7.296
			c0-2.736,0.496-5.104,1.648-7.376l-0.832-0.384c-1.28,2.256-1.856,4.8-1.856,7.76c0,2.864,0.624,5.44,1.856,7.728L365.928,121.292
			z M354.632,118.22h1.36v-11.44h-1.36V118.22z M346.616,118.668l3.536-8.224l1.456,7.776h1.328l-2.32-11.888l-4,9.456l-4-9.456
			l-2.32,11.888h1.328l1.44-7.776L346.616,118.668z M332.376,118.22h2.384c1.632,0,2.752-0.048,3.584-0.864
			c0.576-0.576,0.944-1.44,0.944-2.384c0-1.536-0.848-2.608-2.192-2.816c1.088-0.32,1.696-1.152,1.696-2.368
			c0-1.024-0.432-1.904-1.152-2.432c-0.72-0.528-1.632-0.576-2.88-0.576h-2.384V118.22z M333.736,112.86h1.424
			c0.704,0,1.264,0.016,1.744,0.304c0.624,0.352,0.944,0.976,0.944,1.808c0,0.72-0.288,1.344-0.752,1.68
			c-0.496,0.352-1.248,0.384-2.336,0.384h-1.024V112.86z M333.736,107.964h1.024c1.808,0,2.64,0.336,2.64,1.984
			c0,1.392-0.8,1.84-2.64,1.84h-1.04L333.736,107.964z"/>
		<path clip-path="url(#SVGID_4_)" fill="#808285" d="M404.007,86.292l0.832,0.432c1.232-2.288,1.856-4.864,1.856-7.728
			c0-2.96-0.576-5.504-1.856-7.76l-0.832,0.384c1.152,2.272,1.648,4.64,1.648,7.376C405.655,81.812,405.159,84.18,404.007,86.292
			 M397.447,82.02c0.56,1.008,1.488,1.504,2.816,1.504c1.584,0,2.608-0.944,2.608-2.272c0-1.168-0.688-1.68-2.08-2.128
			c-1.184-0.384-1.84-0.48-1.84-1.232c0-0.624,0.496-1.072,1.216-1.072c0.752,0,1.344,0.368,1.632,1.024l0.992-0.608
			c-0.384-0.912-1.312-1.424-2.544-1.424c-1.52,0-2.528,0.912-2.528,2.16c0,1.408,1.056,1.712,2.816,2.32
			c0.752,0.256,1.12,0.544,1.12,1.088c0,0.624-0.528,1.072-1.344,1.072s-1.424-0.368-1.824-1.136L397.447,82.02z M392.679,83.22
			h1.216v-3.488c0-1.872,0.64-2.8,1.936-2.8c0.224,0,0.48,0.048,0.752,0.144l0.416-1.104c-0.272-0.096-0.544-0.144-0.832-0.144
			c-1.088,0-1.76,0.512-2.4,1.728v-1.488h-1.088V83.22z M389.111,79.716c0,1.648-0.896,2.592-2.336,2.592
			c-1.52,0-2.384-0.976-2.384-2.704c0-1.632,0.864-2.576,2.336-2.576C388.103,77.028,389.111,78.052,389.111,79.716 M390.295,76.068
			h-1.216v1.344c-0.544-1.056-1.424-1.6-2.624-1.6c-2,0-3.36,1.456-3.36,3.856c0,2.336,1.376,3.856,3.424,3.856
			c1.104,0,2.016-0.56,2.592-1.6v1.296h1.184V76.068z M380.568,78.836h-4.352c0.128-1.216,1.008-1.968,2.176-1.968
			C379.688,76.868,380.488,77.572,380.568,78.836 M381.88,79.828v-0.24c0-2.368-1.344-3.792-3.44-3.792
			c-2.08,0-3.568,1.568-3.568,3.824c0,2.336,1.472,3.904,3.648,3.904c1.472,0,2.592-0.656,3.312-1.952l-0.928-0.624
			c-0.592,1.04-1.36,1.552-2.32,1.552c-1.376,0-2.368-1.008-2.368-2.56v-0.112H381.88z M368.248,86.708h1.376l4.8-10.64h-1.344
			l-2.208,5.136l-2.08-5.136h-1.408l2.8,6.448L368.248,86.708z M366.744,86.292c-1.152-2.112-1.648-4.48-1.648-7.296
			c0-2.736,0.496-5.104,1.648-7.376l-0.832-0.384c-1.28,2.256-1.856,4.8-1.856,7.76c0,2.864,0.624,5.44,1.856,7.728L366.744,86.292z
			 M356.296,78.836h-4.352c0.128-1.216,1.008-1.968,2.176-1.968C355.416,76.868,356.216,77.572,356.296,78.836 M357.608,79.828
			v-0.24c0-2.368-1.344-3.792-3.44-3.792c-2.08,0-3.568,1.568-3.568,3.824c0,2.336,1.472,3.904,3.648,3.904
			c1.472,0,2.592-0.656,3.312-1.952l-0.928-0.624c-0.592,1.04-1.36,1.552-2.32,1.552c-1.376,0-2.368-1.008-2.368-2.56v-0.112
			H357.608z M347.64,79.668c0,1.648-0.896,2.608-2.336,2.608c-1.52,0-2.384-0.976-2.384-2.704c0-1.632,0.864-2.576,2.336-2.576
			C346.632,76.996,347.64,78.004,347.64,79.668 M348.856,76.068h-1.248v1.328c-0.528-1.04-1.44-1.584-2.624-1.584
			c-2,0-3.36,1.424-3.36,3.808c0,2.32,1.376,3.824,3.424,3.824c1.104,0,2.032-0.56,2.592-1.584v1.2c0,0.656-0.032,1.184-0.304,1.632
			c-0.368,0.624-1.072,0.944-2.048,0.944c-1.376,0-2.128-0.624-2.128-1.68V83.86h-1.376c0.048,1.792,1.296,2.848,3.488,2.848
			c1.264,0,2.224-0.368,2.88-1.072c0.672-0.72,0.704-1.52,0.704-2.544V76.068z M335.992,74.34l1.824,4.208h-3.648L335.992,74.34z
			 M335.992,71.332l-5.184,11.888h1.472l1.488-3.504h4.464l1.488,3.504h1.472L335.992,71.332z"/>
		<path clip-path="url(#SVGID_4_)" fill="#808285" d="M417.913,287.891h0.707v-3.582h1.11v-0.586h-1.11v-1.111
			c0-0.801,0.019-1.185,0.551-1.185c0.186,0,0.373,0.048,0.559,0.149v-0.736c-0.195-0.064-0.401-0.093-0.615-0.093
			c-0.997,0-1.202,0.522-1.202,1.772v1.203h-0.803v0.586h0.803V287.891z M413.094,296.292l0.832,0.433
			c1.232-2.289,1.856-4.865,1.856-7.729c0-2.96-0.576-5.504-1.856-7.76l-0.832,0.384c1.152,2.272,1.648,4.64,1.648,7.376
			C414.742,291.812,414.246,294.18,413.094,296.292 M412.166,290.564c0-1.889-0.88-2.961-2.336-2.961s-2.352,1.072-2.352,2.961
			c0,1.888,0.896,2.959,2.352,2.959S412.166,292.452,412.166,290.564 M409.83,292.725c-0.752,0-1.2-0.752-1.2-2.16
			s0.448-2.16,1.2-2.16c0.784,0,1.2,0.72,1.2,2.16C411.03,291.973,410.582,292.725,409.83,292.725 M403.51,286.788
			c-0.752,0-1.2-0.752-1.2-2.16c0-1.407,0.448-2.176,1.2-2.176c0.784,0,1.2,0.735,1.2,2.176
			C404.71,286.036,404.262,286.788,403.51,286.788 M405.862,284.628c0-1.888-0.896-2.96-2.352-2.96c-1.456,0-2.352,1.072-2.352,2.96
			s0.896,2.944,2.352,2.944C404.966,287.572,405.862,286.516,405.862,284.628 M402.838,293.523h0.976l6.56-11.855h-0.96
			L402.838,293.523z M400.166,296.292c-1.152-2.112-1.648-4.479-1.648-7.296c0-2.736,0.496-5.104,1.648-7.376l-0.832-0.384
			c-1.28,2.256-1.856,4.8-1.856,7.76c0,2.863,0.624,5.439,1.856,7.729L400.166,296.292z M385.606,292.02
			c0.56,1.008,1.488,1.504,2.816,1.504c1.584,0,2.608-0.943,2.608-2.271c0-1.168-0.688-1.68-2.08-2.128
			c-1.184-0.384-1.84-0.479-1.84-1.231c0-0.625,0.496-1.072,1.216-1.072c0.752,0,1.344,0.367,1.632,1.023l0.992-0.607
			c-0.384-0.912-1.312-1.424-2.544-1.424c-1.52,0-2.528,0.912-2.528,2.16c0,1.407,1.056,1.711,2.816,2.319
			c0.752,0.256,1.12,0.544,1.12,1.088c0,0.624-0.528,1.072-1.344,1.072c-0.816,0-1.424-0.368-1.824-1.136L385.606,292.02z
			 M382.342,282.628c0,0.513,0.4,0.896,0.896,0.896c0.496,0,0.896-0.383,0.896-0.879s-0.4-0.912-0.896-0.912
			C382.742,281.732,382.342,282.132,382.342,282.628 M382.63,293.221h1.216v-7.152h-1.216V293.221z M378.695,287.076v6.145h1.216
			v-6.145h1.344v-1.008h-1.344v-2.881h-1.216v2.881h-1.312v1.008H378.695z M374.487,282.628c0,0.513,0.4,0.896,0.896,0.896
			c0.496,0,0.896-0.383,0.896-0.879s-0.4-0.912-0.896-0.912C374.887,281.732,374.487,282.132,374.487,282.628 M374.775,293.221
			h1.216v-7.152h-1.216V293.221z M370.983,293.221h1.216v-12.113h-1.216V293.221z M363.671,296.708h1.376l4.8-10.64h-1.344
			l-2.208,5.136l-2.08-5.136h-1.408l2.8,6.447L363.671,296.708z M360.087,287.076v6.145h1.216v-6.145h1.344v-1.008h-1.344v-2.881
			h-1.216v2.881h-1.312v1.008H360.087z M358.28,291.523c-0.752,0.545-1.44,0.816-2.208,0.816c-1.488,0-2.56-1.152-2.56-2.592
			c0-1.696,1.088-2.752,2.656-2.752c0.704,0,1.376,0.225,1.984,0.624v-1.312c-0.656-0.32-1.424-0.496-2.224-0.496
			c-2.144,0-3.728,1.567-3.728,3.903c0,2.257,1.456,3.808,3.68,3.808c0.928,0,1.744-0.191,2.4-0.575V291.523z M349.24,289.716
			c0,1.648-0.896,2.593-2.336,2.593c-1.52,0-2.384-0.977-2.384-2.705c0-1.631,0.864-2.576,2.336-2.576
			C348.232,287.027,349.24,288.052,349.24,289.716 M350.424,286.068h-1.216v1.344c-0.544-1.057-1.424-1.6-2.624-1.6
			c-2,0-3.36,1.455-3.36,3.855c0,2.336,1.376,3.855,3.424,3.855c1.104,0,2.016-0.56,2.592-1.6v1.297h1.184V286.068z
			 M333.736,291.939v-8.896h0.88c1.968,0,3.328,0.032,4.272,0.832c0.944,0.784,1.44,2,1.44,3.616c0,1.615-0.512,2.863-1.44,3.632
			c-0.96,0.8-2.32,0.815-4.272,0.815H333.736z M332.376,293.221h2.688c1.856,0,3.36-0.049,4.688-1.072c1.312-1.008,2-2.592,2-4.641
			c0-2.048-0.688-3.648-2-4.656c-1.392-1.072-3.04-1.072-5.184-1.072h-2.192V293.221z"/>
		<path clip-path="url(#SVGID_4_)" fill="#808285" d="M468.437,366.292l0.832,0.433c1.232-2.289,1.856-4.865,1.856-7.729
			c0-2.96-0.576-5.504-1.856-7.76l-0.832,0.384c1.152,2.272,1.648,4.64,1.648,7.376C470.085,361.812,469.589,364.18,468.437,366.292
			 M467.509,360.564c0-1.889-0.88-2.961-2.336-2.961s-2.352,1.072-2.352,2.961c0,1.888,0.896,2.959,2.352,2.959
			S467.509,362.452,467.509,360.564 M465.173,362.725c-0.752,0-1.2-0.752-1.2-2.16s0.448-2.16,1.2-2.16c0.784,0,1.2,0.72,1.2,2.16
			C466.373,361.973,465.925,362.725,465.173,362.725 M458.853,356.788c-0.752,0-1.199-0.752-1.199-2.16
			c0-1.407,0.447-2.176,1.199-2.176c0.784,0,1.2,0.735,1.2,2.176C460.053,356.036,459.605,356.788,458.853,356.788 M461.205,354.628
			c0-1.888-0.896-2.96-2.353-2.96c-1.455,0-2.352,1.072-2.352,2.96s0.896,2.944,2.352,2.944
			C460.309,357.572,461.205,356.516,461.205,354.628 M458.181,363.523h0.977l6.56-11.855h-0.96L458.181,363.523z M455.509,366.292
			c-1.151-2.112-1.647-4.479-1.647-7.296c0-2.736,0.496-5.104,1.647-7.376l-0.832-0.384c-1.279,2.256-1.855,4.8-1.855,7.76
			c0,2.863,0.624,5.439,1.855,7.729L455.509,366.292z M444.262,357.076v6.145h1.216v-6.145h1.345v-1.008h-1.345v-2.881h-1.216v2.881
			h-1.312v1.008H444.262z M435.238,363.221h1.216v-3.697c0-0.783,0-1.375,0.416-1.887c0.399-0.496,1.023-0.769,1.744-0.769
			c1.279,0,1.903,0.704,1.903,2.144v4.209h1.217v-4.865c0-1.615-1.024-2.543-2.688-2.543c-1.12,0-1.984,0.432-2.592,1.359v-1.104
			h-1.216V363.221z M432.166,358.836h-4.352c0.128-1.216,1.008-1.968,2.176-1.968C431.286,356.868,432.086,357.572,432.166,358.836
			 M433.478,359.828v-0.24c0-2.367-1.344-3.792-3.439-3.792c-2.08,0-3.568,1.567-3.568,3.824c0,2.336,1.472,3.903,3.648,3.903
			c1.472,0,2.592-0.655,3.312-1.951l-0.928-0.624c-0.592,1.04-1.36,1.552-2.32,1.552c-1.376,0-2.367-1.008-2.367-2.561v-0.111
			H433.478z M423.558,363.221h1.216v-4.865c0-1.615-0.96-2.543-2.544-2.543c-1.088,0-1.92,0.463-2.544,1.455
			c-0.416-0.959-1.248-1.455-2.4-1.455c-1.072,0-1.888,0.447-2.464,1.359v-1.104h-1.216v7.152h1.216v-3.697
			c0-0.176-0.016-0.352-0.016-0.512c0-0.544,0.064-0.992,0.368-1.375c0.384-0.496,0.976-0.769,1.632-0.769
			c1.216,0,1.776,0.704,1.776,2.144v4.209h1.216v-3.697c0-0.16-0.016-0.303-0.016-0.447c0-0.592,0.08-1.04,0.384-1.439
			c0.384-0.496,0.96-0.769,1.616-0.769c1.216,0,1.776,0.704,1.776,2.144V363.221z M410.534,358.836h-4.352
			c0.128-1.216,1.008-1.968,2.176-1.968C409.654,356.868,410.454,357.572,410.534,358.836 M411.846,359.828v-0.24
			c0-2.367-1.344-3.792-3.44-3.792c-2.08,0-3.568,1.567-3.568,3.824c0,2.336,1.472,3.903,3.648,3.903
			c1.472,0,2.592-0.655,3.312-1.951l-0.928-0.624c-0.592,1.04-1.36,1.552-2.32,1.552c-1.376,0-2.368-1.008-2.368-2.561v-0.111
			H411.846z M400.71,363.668l3.52-7.6h-1.376l-2.16,4.992l-2.144-4.992h-1.376L400.71,363.668z M394.631,363.221h1.216v-12.113
			h-1.216V363.221z M386.263,359.668c0-1.52,1.152-2.704,2.592-2.704c1.424,0,2.576,1.185,2.576,2.704s-1.152,2.704-2.576,2.704
			S386.263,361.188,386.263,359.668 M384.967,359.668c0,1.04,0.384,1.969,1.136,2.721c0.736,0.735,1.696,1.135,2.752,1.135
			c1.04,0,2-0.416,2.752-1.151c0.736-0.72,1.136-1.664,1.136-2.704s-0.4-2-1.136-2.72c-0.752-0.736-1.696-1.136-2.752-1.136
			s-2.016,0.383-2.752,1.119C385.351,357.668,384.967,358.628,384.967,359.668 M380.791,363.668l3.52-7.6h-1.376l-2.16,4.992
			l-2.144-4.992h-1.376L380.791,363.668z M369.607,363.221h1.216v-3.697c0-0.783,0-1.375,0.416-1.887
			c0.4-0.496,1.024-0.769,1.744-0.769c1.28,0,1.904,0.704,1.904,2.144v4.209h1.216v-4.865c0-1.615-1.024-2.543-2.688-2.543
			c-1.12,0-1.984,0.432-2.592,1.359v-1.104h-1.216V363.221z M365.591,352.628c0,0.513,0.4,0.896,0.896,0.896
			c0.496,0,0.896-0.383,0.896-0.879s-0.4-0.912-0.896-0.912C365.991,351.732,365.591,352.132,365.591,352.628 M365.879,363.221
			h1.216v-7.152h-1.216V363.221z M357.447,363.221h1.216v-12.113h-1.216V363.221z M353.368,352.628c0,0.513,0.4,0.896,0.896,0.896
			c0.496,0,0.896-0.383,0.896-0.879s-0.4-0.912-0.896-0.912C353.768,351.732,353.368,352.132,353.368,352.628 M353.656,363.221
			h1.216v-7.152h-1.216V363.221z M350.04,359.716c0,1.647-0.896,2.593-2.336,2.593c-1.52,0-2.384-0.977-2.384-2.705
			c0-1.631,0.864-2.576,2.336-2.576C349.032,357.027,350.04,358.052,350.04,359.716 M351.224,356.068h-1.216v1.344
			c-0.544-1.057-1.424-1.6-2.624-1.6c-2,0-3.36,1.455-3.36,3.855c0,2.336,1.376,3.855,3.424,3.855c1.104,0,2.016-0.56,2.592-1.6
			v1.297h1.184V356.068z M332.376,363.221h1.36v-8.593l8.304,9.04v-11.889h-1.36v8.688l-8.304-9.136V363.221z"/>
		<path clip-path="url(#SVGID_4_)" fill="#808285" d="M495.657,322.891h0.772v-6.603h-1.687l-0.448,0.688h1.362V322.891z
			 M489.206,331.292l0.832,0.433c1.231-2.289,1.855-4.865,1.855-7.729c0-2.96-0.575-5.504-1.855-7.76l-0.832,0.384
			c1.152,2.272,1.647,4.64,1.647,7.376C490.854,326.812,490.358,329.18,489.206,331.292 M481.734,328.221h1.52l1.937-2.769
			l1.951,2.769h1.521l-2.769-3.697l2.688-3.455h-1.521l-1.871,2.56l-1.856-2.56h-1.52l2.672,3.455L481.734,328.221z M479.43,324.716
			c0,1.647-0.896,2.593-2.336,2.593c-1.52,0-2.384-0.977-2.384-2.705c0-1.631,0.864-2.576,2.336-2.576
			C478.422,322.027,479.43,323.052,479.43,324.716 M480.614,321.068h-1.216v1.344c-0.545-1.057-1.425-1.6-2.624-1.6
			c-2,0-3.36,1.455-3.36,3.855c0,2.336,1.376,3.855,3.424,3.855c1.104,0,2.016-0.56,2.592-1.6v1.297h1.185V321.068z
			 M470.422,328.221h1.216v-4.865c0-1.615-0.96-2.543-2.544-2.543c-1.088,0-1.92,0.463-2.544,1.455
			c-0.416-0.959-1.248-1.455-2.399-1.455c-1.072,0-1.889,0.447-2.465,1.359v-1.104h-1.216v7.152h1.216v-3.697
			c0-0.176-0.016-0.352-0.016-0.512c0-0.544,0.064-0.992,0.368-1.375c0.384-0.496,0.976-0.769,1.632-0.769
			c1.216,0,1.776,0.704,1.776,2.144v4.209h1.216v-3.697c0-0.16-0.016-0.303-0.016-0.447c0-0.592,0.079-1.04,0.384-1.439
			c0.384-0.496,0.96-0.769,1.616-0.769c1.216,0,1.775,0.704,1.775,2.144V328.221z M454.55,325.275h3.648v-1.231h-3.648V325.275z
			 M445.862,328.221h1.216v-3.697c0-0.783,0-1.375,0.416-1.887c0.399-0.496,1.023-0.769,1.744-0.769
			c1.279,0,1.903,0.704,1.903,2.144v4.209h1.217v-4.865c0-1.615-1.024-2.543-2.688-2.543c-1.12,0-1.984,0.432-2.592,1.359v-1.104
			h-1.216V328.221z M441.846,317.628c0,0.513,0.4,0.896,0.896,0.896s0.896-0.383,0.896-0.879s-0.399-0.912-0.896-0.912
			S441.846,317.132,441.846,317.628 M442.134,328.221h1.216v-7.152h-1.216V328.221z M438.535,328.221h1.216v-4.865
			c0-1.615-0.96-2.543-2.544-2.543c-1.088,0-1.92,0.463-2.545,1.455c-0.415-0.959-1.247-1.455-2.399-1.455
			c-1.071,0-1.888,0.447-2.464,1.359v-1.104h-1.216v7.152h1.216v-3.697c0-0.176-0.016-0.352-0.016-0.512
			c0-0.544,0.063-0.992,0.368-1.375c0.384-0.496,0.976-0.769,1.631-0.769c1.216,0,1.775,0.704,1.775,2.144v4.209h1.217v-3.697
			c0-0.16-0.016-0.303-0.016-0.447c0-0.592,0.079-1.04,0.384-1.439c0.385-0.496,0.96-0.769,1.616-0.769
			c1.216,0,1.776,0.704,1.776,2.144V328.221z M426.791,331.292c-1.152-2.112-1.648-4.479-1.648-7.296
			c0-2.736,0.496-5.104,1.648-7.376l-0.832-0.384c-1.28,2.256-1.856,4.8-1.856,7.76c0,2.863,0.624,5.439,1.856,7.729
			L426.791,331.292z M410.583,328.221h1.216v-3.697c0-0.783,0-1.375,0.416-1.887c0.4-0.496,1.024-0.769,1.744-0.769
			c1.28,0,1.904,0.704,1.904,2.144v4.209h1.216v-4.865c0-1.615-1.024-2.543-2.688-2.543c-1.12,0-1.984,0.432-2.592,1.359v-1.104
			h-1.216V328.221z M407.031,324.716c0,1.647-0.896,2.593-2.336,2.593c-1.52,0-2.384-0.977-2.384-2.705
			c0-1.631,0.864-2.576,2.336-2.576C406.023,322.027,407.031,323.052,407.031,324.716 M408.215,321.068h-1.216v1.344
			c-0.544-1.057-1.424-1.6-2.624-1.6c-2,0-3.36,1.455-3.36,3.855c0,2.336,1.376,3.855,3.424,3.855c1.104,0,2.016-0.56,2.592-1.6
			v1.297h1.184V321.068z M397.543,317.628c0,0.513,0.4,0.896,0.896,0.896s0.896-0.383,0.896-0.879s-0.4-0.912-0.896-0.912
			S397.543,317.132,397.543,317.628 M397.831,328.221h1.216v-7.152h-1.216V328.221z M394.167,324.684c0,1.696-0.928,2.656-2.4,2.656
			c-1.424,0-2.32-1.023-2.32-2.816c0-1.584,0.88-2.496,2.304-2.496C393.191,322.027,394.167,323.068,394.167,324.684
			 M395.351,316.107h-1.216v6.305c-0.544-1.057-1.424-1.6-2.608-1.6c-2,0-3.376,1.455-3.376,3.855c0,2.336,1.376,3.855,3.424,3.855
			c1.104,0,2.032-0.575,2.592-1.6v1.297h1.184V316.107z M385.623,323.836h-4.352c0.128-1.216,1.008-1.968,2.176-1.968
			C384.743,321.868,385.543,322.572,385.623,323.836 M386.935,324.828v-0.24c0-2.367-1.344-3.792-3.44-3.792
			c-2.08,0-3.568,1.567-3.568,3.824c0,2.336,1.472,3.903,3.648,3.903c1.472,0,2.592-0.655,3.312-1.951l-0.928-0.624
			c-0.592,1.04-1.36,1.552-2.32,1.552c-1.376,0-2.368-1.008-2.368-2.561v-0.111H386.935z M377.016,328.221h1.216v-4.865
			c0-1.615-0.96-2.543-2.544-2.543c-1.088,0-1.92,0.463-2.544,1.455c-0.416-0.959-1.248-1.455-2.4-1.455
			c-1.072,0-1.888,0.447-2.464,1.359v-1.104h-1.216v7.152h1.216v-3.697c0-0.176-0.016-0.352-0.016-0.512
			c0-0.544,0.064-0.992,0.368-1.375c0.384-0.496,0.976-0.769,1.632-0.769c1.216,0,1.776,0.704,1.776,2.144v4.209h1.216v-3.697
			c0-0.16-0.016-0.303-0.016-0.447c0-0.592,0.08-1.04,0.384-1.439c0.384-0.496,0.96-0.769,1.616-0.769
			c1.216,0,1.776,0.704,1.776,2.144V328.221z M358.504,328.221h1.36v-11.441h-1.36V328.221z M354.504,321.868l-1.632-0.72
			c-1.04-0.465-1.536-1.024-1.536-1.84c0-0.977,0.72-1.664,1.744-1.664c0.816,0,1.44,0.447,1.936,1.312l1.12-0.72
			c-0.56-1.137-1.584-1.729-2.96-1.729c-1.904,0-3.216,1.217-3.216,2.816c0,1.392,0.736,2.384,2.256,3.023l1.392,0.592
			c1.184,0.513,1.776,1.265,1.776,2.289c0,1.248-0.912,2.127-2.288,2.127c-1.152,0-1.936-0.719-2.272-2.111l-1.232,0.607
			c0.432,1.696,1.696,2.656,3.504,2.656c2.208,0,3.664-1.408,3.664-3.504C356.76,323.564,355.992,322.523,354.504,321.868
			 M344.04,319.34l1.824,4.208h-3.648L344.04,319.34z M344.04,316.332l-5.184,11.889h1.472l1.488-3.505h4.464l1.488,3.505h1.472
			L344.04,316.332z M333.736,323.084h1.04c1.184,0,2.112-0.032,2.88-0.576c0.72-0.512,1.168-1.456,1.168-2.576
			c0-1.119-0.448-2.063-1.168-2.576c-0.768-0.543-1.712-0.576-2.88-0.576h-2.4v11.441h1.36V323.084z M333.736,321.852v-3.824h0.656
			c1.984,0,2.96,0.32,2.96,1.984c0,1.584-0.992,1.84-2.96,1.84H333.736z"/>
		<path clip-path="url(#SVGID_4_)" fill="#808285" d="M545.396,436.292l0.831,0.432c1.232-2.288,1.856-4.863,1.856-7.728
			c0-2.96-0.576-5.504-1.856-7.76l-0.831,0.384c1.151,2.271,1.647,4.64,1.647,7.376C547.044,431.812,546.548,434.18,545.396,436.292
			 M544.469,430.564c0-1.889-0.88-2.961-2.336-2.961s-2.352,1.072-2.352,2.961c0,1.888,0.896,2.96,2.352,2.96
			S544.469,432.452,544.469,430.564 M542.133,432.724c-0.752,0-1.2-0.752-1.2-2.159c0-1.408,0.448-2.16,1.2-2.16
			c0.784,0,1.2,0.72,1.2,2.16C543.333,431.972,542.885,432.724,542.133,432.724 M535.812,426.788c-0.752,0-1.199-0.752-1.199-2.16
			s0.447-2.176,1.199-2.176c0.784,0,1.2,0.736,1.2,2.176C537.013,426.036,536.565,426.788,535.812,426.788 M538.165,424.628
			c0-1.888-0.896-2.96-2.353-2.96c-1.455,0-2.352,1.072-2.352,2.96s0.896,2.944,2.352,2.944
			C537.269,427.572,538.165,426.516,538.165,424.628 M535.141,433.524h0.977l6.56-11.856h-0.96L535.141,433.524z M532.469,436.292
			c-1.151-2.112-1.647-4.48-1.647-7.296c0-2.736,0.496-5.104,1.647-7.376l-0.832-0.384c-1.279,2.256-1.855,4.8-1.855,7.76
			c0,2.864,0.624,5.439,1.855,7.728L532.469,436.292z M522.021,428.836h-4.353c0.128-1.216,1.008-1.968,2.176-1.968
			C521.141,426.868,521.941,427.572,522.021,428.836 M523.333,429.828v-0.24c0-2.368-1.344-3.792-3.44-3.792
			c-2.08,0-3.567,1.568-3.567,3.824c0,2.336,1.472,3.904,3.647,3.904c1.473,0,2.593-0.656,3.312-1.952l-0.928-0.624
			c-0.593,1.04-1.36,1.552-2.32,1.552c-1.376,0-2.368-1.008-2.368-2.56v-0.112H523.333z M511.429,433.22h1.216v-3.487
			c0-1.872,0.641-2.801,1.937-2.801c0.224,0,0.479,0.049,0.752,0.145l0.416-1.104c-0.272-0.096-0.544-0.144-0.832-0.144
			c-1.088,0-1.76,0.512-2.4,1.728v-1.487h-1.088V433.22z M503.861,426.068h-1.217v4.271c0,2.096,1.137,3.185,3.217,3.185
			c2.144,0,3.264-1.12,3.264-3.28v-4.176h-1.216v3.52c0,1.888-0.448,2.769-2.017,2.769c-1.567,0-2.031-0.881-2.031-2.769V426.068z
			 M495.557,432.02c0.561,1.009,1.488,1.505,2.816,1.505c1.584,0,2.608-0.944,2.608-2.272c0-1.168-0.688-1.68-2.08-2.128
			c-1.185-0.384-1.841-0.48-1.841-1.232c0-0.624,0.496-1.071,1.217-1.071c0.752,0,1.344,0.368,1.632,1.023l0.992-0.607
			c-0.385-0.912-1.312-1.425-2.544-1.425c-1.521,0-2.528,0.912-2.528,2.16c0,1.408,1.056,1.712,2.815,2.32
			c0.753,0.256,1.12,0.544,1.12,1.088c0,0.624-0.527,1.072-1.344,1.072c-0.815,0-1.424-0.368-1.824-1.136L495.557,432.02z
			 M488.005,429.668c0-1.52,1.152-2.704,2.592-2.704c1.425,0,2.576,1.185,2.576,2.704c0,1.521-1.151,2.704-2.576,2.704
			C489.173,432.372,488.005,431.188,488.005,429.668 M486.709,429.668c0,1.04,0.384,1.968,1.136,2.72
			c0.736,0.736,1.696,1.137,2.752,1.137c1.04,0,2-0.416,2.752-1.152c0.736-0.72,1.137-1.664,1.137-2.704s-0.4-2-1.137-2.72
			c-0.752-0.736-1.695-1.137-2.752-1.137c-1.056,0-2.016,0.385-2.752,1.12C487.093,427.668,486.709,428.628,486.709,429.668
			 M479.397,429.668c0-1.696,0.928-2.672,2.399-2.672c1.424,0,2.32,1.023,2.32,2.815c0,1.585-0.88,2.513-2.305,2.513
			C480.373,432.324,479.397,431.284,479.397,429.668 M478.213,436.708h1.216v-4.784c0.544,1.057,1.424,1.601,2.608,1.601
			c2,0,3.376-1.44,3.376-3.856c0-2.352-1.376-3.856-3.424-3.856c-1.104,0-2.048,0.561-2.608,1.601v-1.344h-1.168V436.708z
			 M470.117,433.22h1.52l1.937-2.768l1.952,2.768h1.52l-2.768-3.695l2.688-3.456h-1.52l-1.872,2.56l-1.856-2.56h-1.52l2.672,3.456
			L470.117,433.22z M468.293,428.836h-4.352c0.128-1.216,1.008-1.968,2.176-1.968C467.413,426.868,468.213,427.572,468.293,428.836
			 M469.605,429.828v-0.24c0-2.368-1.345-3.792-3.44-3.792c-2.08,0-3.568,1.568-3.568,3.824c0,2.336,1.473,3.904,3.648,3.904
			c1.472,0,2.592-0.656,3.312-1.952l-0.928-0.624c-0.592,1.04-1.36,1.552-2.32,1.552c-1.376,0-2.367-1.008-2.367-2.56v-0.112
			H469.605z M453.062,433.22h1.217v-3.487c0-1.872,0.64-2.801,1.936-2.801c0.225,0,0.48,0.049,0.752,0.145l0.416-1.104
			c-0.271-0.096-0.544-0.144-0.832-0.144c-1.088,0-1.76,0.512-2.399,1.728v-1.487h-1.089V433.22z M444.742,429.668
			c0-1.52,1.151-2.704,2.592-2.704c1.424,0,2.576,1.185,2.576,2.704c0,1.521-1.152,2.704-2.576,2.704
			S444.742,431.188,444.742,429.668 M443.446,429.668c0,1.04,0.384,1.968,1.136,2.72c0.736,0.736,1.696,1.137,2.752,1.137
			c1.04,0,2-0.416,2.752-1.152c0.736-0.72,1.136-1.664,1.136-2.704s-0.399-2-1.136-2.72c-0.752-0.736-1.696-1.137-2.752-1.137
			s-2.016,0.385-2.752,1.12C443.83,427.668,443.446,428.628,443.446,429.668 M440.15,427.076v6.144h1.216v-6.144h1.344v-1.008
			h-1.344v-2.88h-1.216v2.88h-1.312v1.008H440.15z M435.942,422.628c0,0.512,0.399,0.896,0.896,0.896s0.896-0.385,0.896-0.881
			c0-0.495-0.4-0.911-0.896-0.911S435.942,422.132,435.942,422.628 M436.23,433.22h1.216v-7.151h-1.216V433.22z M428.262,429.684
			c0-1.615,0.992-2.655,2.433-2.655c1.424,0,2.304,0.912,2.304,2.496c0,1.792-0.912,2.815-2.336,2.815
			C429.19,432.34,428.262,431.38,428.262,429.684 M427.094,421.108v12.111h1.168v-1.296c0.561,1.024,1.504,1.601,2.608,1.601
			c2.048,0,3.424-1.521,3.424-3.856c0-2.4-1.376-3.856-3.376-3.856c-1.184,0-2.064,0.545-2.608,1.601v-6.304H427.094z
			 M423.078,422.628c0,0.512,0.4,0.896,0.896,0.896s0.896-0.385,0.896-0.881c0-0.495-0.4-0.911-0.896-0.911
			S423.078,422.132,423.078,422.628 M423.366,433.22h1.216v-7.151h-1.216V433.22z M414.471,433.22h1.216v-3.695
			c0-0.784,0-1.376,0.416-1.889c0.4-0.496,1.024-0.768,1.744-0.768c1.28,0,1.904,0.704,1.904,2.144v4.208h1.216v-4.863
			c0-1.616-1.024-2.545-2.688-2.545c-1.12,0-1.984,0.433-2.608,1.36v-6.063h-1.2V433.22z M405.639,433.22h1.216v-3.695
			c0-0.784,0-1.376,0.416-1.889c0.4-0.496,1.024-0.768,1.744-0.768c1.28,0,1.904,0.704,1.904,2.144v4.208h1.216v-4.863
			c0-1.616-1.024-2.545-2.688-2.545c-1.12,0-1.984,0.433-2.592,1.36v-1.104h-1.216V433.22z M401.623,422.628
			c0,0.512,0.4,0.896,0.896,0.896s0.896-0.385,0.896-0.881c0-0.495-0.4-0.911-0.896-0.911S401.623,422.132,401.623,422.628
			 M401.911,433.22h1.216v-7.151h-1.216V433.22z M389.303,433.22h1.36v-5.647h4.672v-1.265h-4.672v-3.279h4.672v-1.248h-6.032
			V433.22z M376.983,433.22h1.36v-8.592l8.304,9.04V421.78h-1.36v8.688l-8.304-9.136V433.22z M370.951,433.22h1.36v-10.144h3.232
			v-1.296h-7.824v1.296h3.232V433.22z M358.663,433.22h1.216v-3.487c0-1.872,0.64-2.801,1.936-2.801c0.224,0,0.48,0.049,0.752,0.145
			l0.416-1.104c-0.272-0.096-0.544-0.144-0.832-0.144c-1.088,0-1.76,0.512-2.4,1.728v-1.487h-1.088V433.22z M350.344,429.668
			c0-1.52,1.152-2.704,2.592-2.704c1.424,0,2.576,1.185,2.576,2.704c0,1.521-1.152,2.704-2.576,2.704
			S350.344,431.188,350.344,429.668 M349.048,429.668c0,1.04,0.384,1.968,1.136,2.72c0.736,0.736,1.696,1.137,2.752,1.137
			c1.04,0,2-0.416,2.752-1.152c0.736-0.72,1.136-1.664,1.136-2.704s-0.4-2-1.136-2.72c-0.752-0.736-1.696-1.137-2.752-1.137
			s-2.016,0.385-2.752,1.12C349.432,427.668,349.048,428.628,349.048,429.668 M345.608,422.628c0,0.512,0.4,0.896,0.896,0.896
			s0.896-0.385,0.896-0.881c0-0.495-0.4-0.911-0.896-0.911S345.608,422.132,345.608,422.628 M345.896,433.22h1.216v-7.151h-1.216
			V433.22z M340.312,433.22h1.216v-3.487c0-1.872,0.64-2.801,1.936-2.801c0.224,0,0.48,0.049,0.752,0.145l0.416-1.104
			c-0.272-0.096-0.544-0.144-0.832-0.144c-1.088,0-1.76,0.512-2.4,1.728v-1.487h-1.088V433.22z M333.736,428.084h1.04
			c1.184,0,2.112-0.032,2.88-0.576c0.72-0.512,1.168-1.456,1.168-2.576s-0.448-2.063-1.168-2.575
			c-0.768-0.545-1.712-0.576-2.88-0.576h-2.4v11.439h1.36V428.084z M333.736,426.852v-3.823h0.656c1.984,0,2.96,0.319,2.96,1.983
			c0,1.584-0.992,1.84-2.96,1.84H333.736z"/>
		<path clip-path="url(#SVGID_4_)" fill="#808285" d="M503.99,401.292l0.832,0.432c1.231-2.288,1.855-4.863,1.855-7.728
			c0-2.96-0.576-5.504-1.855-7.76l-0.832,0.384c1.151,2.271,1.647,4.64,1.647,7.376C505.638,396.812,505.142,399.18,503.99,401.292
			 M503.062,395.564c0-1.889-0.88-2.961-2.336-2.961s-2.352,1.072-2.352,2.961c0,1.888,0.896,2.96,2.352,2.96
			S503.062,397.452,503.062,395.564 M500.726,397.724c-0.752,0-1.199-0.752-1.199-2.159c0-1.408,0.447-2.16,1.199-2.16
			c0.784,0,1.2,0.72,1.2,2.16C501.926,396.972,501.478,397.724,500.726,397.724 M494.406,391.788c-0.752,0-1.2-0.752-1.2-2.16
			s0.448-2.176,1.2-2.176c0.784,0,1.2,0.736,1.2,2.176C495.606,391.036,495.158,391.788,494.406,391.788 M496.758,389.628
			c0-1.888-0.896-2.96-2.352-2.96s-2.353,1.072-2.353,2.96s0.896,2.944,2.353,2.944S496.758,391.516,496.758,389.628
			 M493.734,398.524h0.976l6.56-11.856h-0.96L493.734,398.524z M491.062,401.292c-1.151-2.112-1.647-4.48-1.647-7.296
			c0-2.736,0.496-5.104,1.647-7.376l-0.831-0.384c-1.28,2.256-1.856,4.8-1.856,7.76c0,2.864,0.624,5.439,1.856,7.728
			L491.062,401.292z M473.654,396.94v-8.896h0.88c1.968,0,3.328,0.032,4.271,0.832c0.944,0.784,1.44,2,1.44,3.616
			s-0.512,2.864-1.44,3.632c-0.96,0.8-2.319,0.816-4.271,0.816H473.654z M472.294,398.22h2.688c1.855,0,3.359-0.048,4.688-1.071
			c1.312-1.009,2-2.593,2-4.641s-0.688-3.647-2-4.656c-1.392-1.071-3.04-1.071-5.184-1.071h-2.192V398.22z M463.814,398.22h1.359
			v-5.456h0.16l4.176,5.456h1.729l-4.368-5.456h0.24c2.016,0,3.088-0.991,3.088-2.863c0-1.12-0.416-2.032-1.072-2.544
			c-0.704-0.545-1.536-0.576-2.624-0.576h-2.688V398.22z M465.174,387.932h1.008c1.809,0,2.672,0.32,2.672,1.984
			c0,1.584-0.88,1.84-2.672,1.84h-1.008V387.932z M457.51,389.34l1.824,4.208h-3.648L457.51,389.34z M457.51,386.332l-5.184,11.888
			h1.472l1.488-3.504h4.464l1.488,3.504h1.472L457.51,386.332z M445.894,398.668l3.536-8.224l1.456,7.775h1.328l-2.32-11.888
			l-4,9.456l-4-9.456l-2.319,11.888h1.328l1.439-7.775L445.894,398.668z M430.407,396.94v-8.896h0.88
			c1.968,0,3.328,0.032,4.271,0.832c0.944,0.784,1.44,2,1.44,3.616s-0.512,2.864-1.44,3.632c-0.96,0.8-2.319,0.816-4.271,0.816
			H430.407z M429.047,398.22h2.688c1.855,0,3.359-0.048,4.688-1.071c1.312-1.009,2-2.593,2-4.641s-0.688-3.647-2-4.656
			c-1.392-1.071-3.04-1.071-5.184-1.071h-2.192V398.22z M418.039,398.22h1.328v-11.328h-2.896l-0.768,1.185h2.336V398.22z
			 M406.055,398.22h1.216v-6.144h1.904v-1.008h-1.904v-1.904c0-1.376,0.032-2.032,0.944-2.032c0.32,0,0.64,0.08,0.96,0.256v-1.264
			c-0.336-0.112-0.688-0.16-1.056-0.16c-1.712,0-2.064,0.896-2.064,3.04v2.064h-1.376v1.008h1.376V398.22z M397.431,394.668
			c0-1.52,1.152-2.704,2.592-2.704c1.424,0,2.576,1.185,2.576,2.704c0,1.521-1.152,2.704-2.576,2.704
			S397.431,396.188,397.431,394.668 M396.135,394.668c0,1.04,0.384,1.968,1.136,2.72c0.736,0.736,1.696,1.137,2.752,1.137
			c1.04,0,2-0.416,2.752-1.152c0.736-0.72,1.136-1.664,1.136-2.704s-0.4-2-1.136-2.72c-0.752-0.736-1.696-1.137-2.752-1.137
			s-2.016,0.385-2.752,1.12C396.519,392.668,396.135,393.628,396.135,394.668 M388.999,393.836h-4.352
			c0.128-1.216,1.008-1.968,2.176-1.968C388.119,391.868,388.919,392.572,388.999,393.836 M390.311,394.828v-0.24
			c0-2.368-1.344-3.792-3.44-3.792c-2.08,0-3.568,1.568-3.568,3.824c0,2.336,1.472,3.904,3.648,3.904
			c1.472,0,2.592-0.656,3.312-1.952l-0.928-0.624c-0.592,1.04-1.36,1.552-2.32,1.552c-1.376,0-2.368-1.008-2.368-2.56v-0.112
			H390.311z M376.743,397.02c0.56,1.009,1.488,1.505,2.816,1.505c1.584,0,2.608-0.944,2.608-2.272c0-1.168-0.688-1.68-2.08-2.128
			c-1.184-0.384-1.84-0.48-1.84-1.232c0-0.624,0.496-1.071,1.216-1.071c0.752,0,1.344,0.368,1.632,1.023l0.992-0.607
			c-0.384-0.912-1.312-1.425-2.544-1.425c-1.52,0-2.528,0.912-2.528,2.16c0,1.408,1.056,1.712,2.816,2.32
			c0.752,0.256,1.12,0.544,1.12,1.088c0,0.624-0.528,1.072-1.344,1.072s-1.424-0.368-1.824-1.136L376.743,397.02z M369.943,391.068
			h-1.216v4.271c0,2.096,1.136,3.185,3.216,3.185c2.144,0,3.264-1.12,3.264-3.28v-4.176h-1.216v3.52
			c0,1.888-0.448,2.769-2.016,2.769s-2.032-0.881-2.032-2.769V391.068z M358.663,398.22h1.216v-3.487
			c0-1.872,0.64-2.801,1.936-2.801c0.224,0,0.48,0.049,0.752,0.145l0.416-1.104c-0.272-0.096-0.544-0.144-0.832-0.144
			c-1.088,0-1.76,0.512-2.4,1.728v-1.487h-1.088V398.22z M350.344,394.668c0-1.52,1.152-2.704,2.592-2.704
			c1.424,0,2.576,1.185,2.576,2.704c0,1.521-1.152,2.704-2.576,2.704S350.344,396.188,350.344,394.668 M349.048,394.668
			c0,1.04,0.384,1.968,1.136,2.72c0.736,0.736,1.696,1.137,2.752,1.137c1.04,0,2-0.416,2.752-1.152
			c0.736-0.72,1.136-1.664,1.136-2.704s-0.4-2-1.136-2.72c-0.752-0.736-1.696-1.137-2.752-1.137s-2.016,0.385-2.752,1.12
			C349.432,392.668,349.048,393.628,349.048,394.668 M345.608,387.628c0,0.512,0.4,0.896,0.896,0.896s0.896-0.385,0.896-0.881
			c0-0.495-0.4-0.911-0.896-0.911S345.608,387.132,345.608,387.628 M345.896,398.22h1.216v-7.151h-1.216V398.22z M340.312,398.22
			h1.216v-3.487c0-1.872,0.64-2.801,1.936-2.801c0.224,0,0.48,0.049,0.752,0.145l0.416-1.104c-0.272-0.096-0.544-0.144-0.832-0.144
			c-1.088,0-1.76,0.512-2.4,1.728v-1.487h-1.088V398.22z M333.736,393.084h1.04c1.184,0,2.112-0.032,2.88-0.576
			c0.72-0.512,1.168-1.456,1.168-2.576s-0.448-2.063-1.168-2.575c-0.768-0.545-1.712-0.576-2.88-0.576h-2.4v11.439h1.36V393.084z
			 M333.736,391.852v-3.823h0.656c1.984,0,2.96,0.319,2.96,1.983c0,1.584-0.992,1.84-2.96,1.84H333.736z"/>
		<path clip-path="url(#SVGID_4_)" fill="#FFFFFF" d="M1020.807,32.241c0,1.764-1.008,2.844-2.321,2.844
			c-1.44,0-2.286-0.99-2.286-2.772c0-1.764,0.882-2.808,2.322-2.808C1019.943,29.505,1020.807,30.495,1020.807,32.241
			 M1022.661,35.913v-7.812h-1.908v1.368c-0.45-1.062-1.44-1.656-2.808-1.656c-2.196,0-3.744,1.764-3.744,4.446
			c0,2.844,1.476,4.518,3.798,4.518c1.17,0,2.07-0.468,2.754-1.422l-0.018,1.098c-0.019,1.566-0.559,2.34-2.305,2.34
			c-1.115,0-1.728-0.396-1.781-1.098h-2.053c0.019,1.566,1.44,2.664,3.798,2.664C1021.617,40.359,1022.661,39.027,1022.661,35.913
			 M1001.061,36.435v-3.798c0-1.026,0-1.728,0.324-2.268c0.36-0.594,1.008-0.954,1.765-0.954c1.313,0,1.655,0.846,1.655,2.736v4.284
			h1.926v-3.798c0-2.142,0.433-3.222,2.089-3.222c1.439,0,1.62,0.9,1.62,2.736v4.284h1.907v-5.724c0-0.702-0.036-1.278-0.306-1.728
			c-0.45-0.756-1.278-1.188-2.395-1.188c-1.296,0-2.231,0.522-3.096,1.656c-0.45-1.116-1.296-1.656-2.592-1.656
			c-1.332,0-2.25,0.522-3.006,1.674v-1.368h-1.8v8.334H1001.061z M997.119,30.243c0-4.428-1.692-6.804-4.608-6.804
			c-2.88,0-4.644,2.412-4.644,6.66c0,4.284,1.746,6.678,4.626,6.678C995.337,36.777,997.119,34.383,997.119,30.243 M992.457,34.977
			c-1.584,0-2.502-1.692-2.502-4.86c0-3.24,0.882-4.896,2.574-4.896c1.62,0,2.502,1.674,2.502,4.86
			C995.031,33.339,994.167,34.977,992.457,34.977 M986.338,30.243c0-4.428-1.691-6.804-4.607-6.804c-2.881,0-4.645,2.412-4.645,6.66
			c0,4.284,1.746,6.678,4.626,6.678C984.556,36.777,986.338,34.383,986.338,30.243 M981.676,34.977c-1.584,0-2.502-1.692-2.502-4.86
			c0-3.24,0.882-4.896,2.574-4.896c1.62,0,2.502,1.674,2.502,4.86C984.25,33.339,983.386,34.977,981.676,34.977 M971.956,27.741
			c-0.054,0.738-0.054,1.17-0.054,1.278v3.348h-3.223L971.956,27.741z M971.902,36.435h1.907v-2.61h1.566v-1.458h-1.566v-8.928
			h-0.594l-7.488,10.386h6.175V36.435z M958.924,36.435v-8.334h-1.908v1.368c-0.449-1.062-1.439-1.656-2.808-1.656
			c-2.196,0-3.744,1.764-3.744,4.446c0,2.844,1.477,4.518,3.798,4.518c1.17,0,2.07-0.468,2.754-1.422v1.08H958.924z M957.07,32.241
			c0,1.764-1.009,2.844-2.322,2.844c-1.44,0-2.286-0.99-2.286-2.772c0-1.764,0.882-2.808,2.322-2.808
			C956.206,29.505,957.07,30.495,957.07,32.241 M946.288,24.501c0,0.648,0.54,1.206,1.206,1.206s1.188-0.522,1.188-1.206
			s-0.521-1.188-1.188-1.188S946.288,23.853,946.288,24.501 M946.54,36.435h1.908v-8.334h-1.908V36.435z M944.867,36.435v-1.674
			h-4.536l4.536-6.66h-7.272v1.674h4.177l-4.645,6.66H944.867z M924.707,36.435v-3.798c0-1.026,0-1.728,0.324-2.268
			c0.359-0.594,1.008-0.954,1.764-0.954c1.314,0,1.656,0.846,1.656,2.736v4.284h1.926v-3.798c0-2.142,0.432-3.222,2.088-3.222
			c1.44,0,1.62,0.9,1.62,2.736v4.284h1.908v-5.724c0-0.702-0.036-1.278-0.307-1.728c-0.449-0.756-1.277-1.188-2.394-1.188
			c-1.296,0-2.232,0.522-3.096,1.656c-0.45-1.116-1.296-1.656-2.592-1.656c-1.332,0-2.25,0.522-3.007,1.674v-1.368h-1.8v8.334
			H924.707z M918.011,24.501c0,0.648,0.54,1.206,1.206,1.206s1.188-0.522,1.188-1.206s-0.522-1.188-1.188-1.188
			S918.011,23.853,918.011,24.501 M918.263,36.435h1.908v-8.334h-1.908V36.435z M915.833,26.697l0.108-2.106
			c-1.261-0.882-2.61-1.332-4.158-1.332c-1.926,0-3.601,0.666-4.878,1.926c-1.278,1.26-1.962,2.952-1.962,4.842
			c0,1.872,0.684,3.6,1.943,4.842c1.26,1.242,2.952,1.908,4.933,1.908c1.548,0,2.861-0.396,3.996-1.206v-2.358
			c-1.261,1.08-2.629,1.62-4.158,1.62c-2.574,0-4.536-1.962-4.536-4.788c0-2.862,1.926-4.86,4.752-4.86
			C913.331,25.185,914.645,25.689,915.833,26.697"/>
		<path clip-path="url(#SVGID_4_)" fill="#FFFFFF" d="M870.807,32.241c0,1.764-1.008,2.844-2.321,2.844
			c-1.44,0-2.286-0.99-2.286-2.772c0-1.764,0.882-2.808,2.322-2.808C869.943,29.505,870.807,30.495,870.807,32.241 M872.661,35.913
			v-7.812h-1.908v1.368c-0.45-1.062-1.44-1.656-2.808-1.656c-2.196,0-3.744,1.764-3.744,4.446c0,2.844,1.476,4.518,3.798,4.518
			c1.17,0,2.07-0.468,2.754-1.422l-0.018,1.098c-0.019,1.566-0.559,2.34-2.305,2.34c-1.115,0-1.728-0.396-1.781-1.098h-2.053
			c0.019,1.566,1.44,2.664,3.798,2.664C871.617,40.359,872.661,39.027,872.661,35.913 M851.061,36.435v-3.798
			c0-1.026,0-1.728,0.324-2.268c0.36-0.594,1.008-0.954,1.765-0.954c1.313,0,1.655,0.846,1.655,2.736v4.284h1.926v-3.798
			c0-2.142,0.433-3.222,2.089-3.222c1.439,0,1.62,0.9,1.62,2.736v4.284h1.907v-5.724c0-0.702-0.036-1.278-0.306-1.728
			c-0.45-0.756-1.278-1.188-2.395-1.188c-1.296,0-2.231,0.522-3.096,1.656c-0.45-1.116-1.296-1.656-2.592-1.656
			c-1.332,0-2.25,0.522-3.006,1.674v-1.368h-1.8v8.334H851.061z M847.119,30.243c0-4.428-1.692-6.804-4.608-6.804
			c-2.88,0-4.644,2.412-4.644,6.66c0,4.284,1.746,6.678,4.626,6.678C845.337,36.777,847.119,34.383,847.119,30.243 M842.457,34.977
			c-1.584,0-2.502-1.692-2.502-4.86c0-3.24,0.882-4.896,2.574-4.896c1.62,0,2.502,1.674,2.502,4.86
			C845.031,33.339,844.167,34.977,842.457,34.977 M836.338,30.243c0-4.428-1.691-6.804-4.607-6.804c-2.881,0-4.645,2.412-4.645,6.66
			c0,4.284,1.746,6.678,4.626,6.678C834.556,36.777,836.338,34.383,836.338,30.243 M831.676,34.977c-1.584,0-2.502-1.692-2.502-4.86
			c0-3.24,0.882-4.896,2.574-4.896c1.62,0,2.502,1.674,2.502,4.86C834.25,33.339,833.386,34.977,831.676,34.977 M824.494,34.761
			h-4.896l1.639-1.89c1.962-2.25,3.239-3.852,3.239-5.868c0-2.196-1.529-3.564-4.014-3.564c-2.628,0-4.284,1.494-4.284,3.798h2.017
			c0.09-1.206,0.918-1.998,2.088-1.998c1.332,0,2.124,0.792,2.124,2.052c0,0.936-0.595,2.016-1.729,3.384l-4.806,5.76h8.622V34.761z
			 M808.924,36.435v-8.334h-1.908v1.368c-0.449-1.062-1.439-1.656-2.808-1.656c-2.196,0-3.744,1.764-3.744,4.446
			c0,2.844,1.477,4.518,3.798,4.518c1.17,0,2.07-0.468,2.754-1.422v1.08H808.924z M807.07,32.241c0,1.764-1.009,2.844-2.322,2.844
			c-1.44,0-2.286-0.99-2.286-2.772c0-1.764,0.882-2.808,2.322-2.808C806.206,29.505,807.07,30.495,807.07,32.241 M796.288,24.501
			c0,0.648,0.54,1.206,1.206,1.206s1.188-0.522,1.188-1.206s-0.521-1.188-1.188-1.188S796.288,23.853,796.288,24.501 M796.54,36.435
			h1.908v-8.334h-1.908V36.435z M794.867,36.435v-1.674h-4.536l4.536-6.66h-7.272v1.674h4.177l-4.645,6.66H794.867z M774.707,36.435
			v-3.798c0-1.026,0-1.728,0.324-2.268c0.359-0.594,1.008-0.954,1.764-0.954c1.314,0,1.656,0.846,1.656,2.736v4.284h1.926v-3.798
			c0-2.142,0.432-3.222,2.088-3.222c1.44,0,1.62,0.9,1.62,2.736v4.284h1.908v-5.724c0-0.702-0.036-1.278-0.307-1.728
			c-0.449-0.756-1.277-1.188-2.394-1.188c-1.296,0-2.232,0.522-3.096,1.656c-0.45-1.116-1.296-1.656-2.592-1.656
			c-1.332,0-2.25,0.522-3.007,1.674v-1.368h-1.8v8.334H774.707z M768.011,24.501c0,0.648,0.54,1.206,1.206,1.206
			s1.188-0.522,1.188-1.206s-0.522-1.188-1.188-1.188S768.011,23.853,768.011,24.501 M768.263,36.435h1.908v-8.334h-1.908V36.435z
			 M765.833,26.697l0.108-2.106c-1.261-0.882-2.61-1.332-4.158-1.332c-1.926,0-3.601,0.666-4.878,1.926
			c-1.278,1.26-1.962,2.952-1.962,4.842c0,1.872,0.684,3.6,1.943,4.842c1.261,1.242,2.952,1.908,4.933,1.908
			c1.548,0,2.861-0.396,3.996-1.206v-2.358c-1.261,1.08-2.629,1.62-4.158,1.62c-2.574,0-4.536-1.962-4.536-4.788
			c0-2.862,1.926-4.86,4.752-4.86C763.331,25.185,764.645,25.689,765.833,26.697"/>
		<path clip-path="url(#SVGID_4_)" fill="#FFFFFF" d="M693.016,32.295c0,1.566-1.17,2.772-2.574,2.772
			c-1.422,0-2.574-1.206-2.574-2.772s1.152-2.772,2.574-2.772S693.016,30.729,693.016,32.295 M685.852,32.277
			c0,1.224,0.468,2.322,1.35,3.186c0.864,0.846,2.017,1.314,3.223,1.314c1.241,0,2.376-0.468,3.275-1.332
			c0.864-0.828,1.332-1.926,1.332-3.168c0-1.206-0.486-2.304-1.35-3.15c-0.882-0.864-2.017-1.314-3.258-1.314
			c-1.206,0-2.358,0.45-3.223,1.296C686.319,29.955,685.852,31.071,685.852,32.277 M677.932,32.241c0-1.746,0.863-2.736,2.286-2.736
			c1.439,0,2.321,1.044,2.321,2.808c0,1.782-0.828,2.772-2.267,2.772C678.939,35.085,677.932,34.005,677.932,32.241 M677.985,22.809
			h-1.908v13.626h1.908v-1.08c0.684,0.954,1.584,1.422,2.754,1.422c2.322,0,3.798-1.674,3.798-4.518
			c0-2.682-1.529-4.446-3.726-4.446c-1.367,0-2.375,0.594-2.826,1.656V22.809z M674.188,32.547v-0.36
			c0-2.772-1.584-4.374-4.266-4.374c-2.593,0-4.373,1.89-4.373,4.482c0,2.718,1.709,4.482,4.373,4.482
			c1.871,0,3.239-0.81,4.176-2.484l-1.602-0.9c-0.611,1.152-1.387,1.638-2.61,1.638c-1.386,0-2.269-0.918-2.358-2.484H674.188z
			 M672.207,31.269h-4.554c0.306-1.242,1.062-1.836,2.304-1.836C671.272,29.433,672.063,30.063,672.207,31.269 M664.307,30.477
			v-2.142c-0.648-0.36-1.368-0.522-2.214-0.522c-2.755,0-4.626,1.8-4.626,4.482c0,2.646,1.817,4.482,4.428,4.482
			c0.918,0,1.71-0.198,2.412-0.594v-2.196c-0.559,0.702-1.278,1.044-2.196,1.044c-1.656,0-2.664-1.044-2.664-2.79
			c0-1.674,1.026-2.754,2.574-2.754C662.938,29.487,663.73,29.847,664.307,30.477 M655.54,36.435v-8.334h-1.907v1.368
			c-0.45-1.062-1.44-1.656-2.809-1.656c-2.196,0-3.744,1.764-3.744,4.446c0,2.844,1.477,4.518,3.798,4.518
			c1.171,0,2.07-0.468,2.755-1.422v1.08H655.54z M653.687,32.241c0,1.764-1.008,2.844-2.322,2.844c-1.439,0-2.286-0.99-2.286-2.772
			c0-1.764,0.882-2.808,2.322-2.808C652.822,29.505,653.687,30.495,653.687,32.241 M643.156,36.435h1.908V22.809h-1.908V36.435z
			 M635.83,28.947v-3.582h0.54c1.944,0,2.898,0.324,2.898,1.872c0,1.494-0.972,1.71-2.898,1.71H635.83z M635.704,30.657h1.206
			c1.314,0,2.358-0.036,3.223-0.648c0.792-0.576,1.296-1.656,1.296-2.898c0-1.242-0.504-2.304-1.296-2.88
			c-0.864-0.63-1.908-0.666-3.223-0.666h-3.168v12.87h1.962V30.657z"/>
	</g>
</g>
</svg>
