<?xml version="1.0" encoding="utf-8"?>
<!-- Generator: Adobe Illustrator 15.1.0, SVG Export Plug-In . SVG Version: 6.00 Build 0)  -->
<!DOCTYPE svg PUBLIC "-//W3C//DTD SVG 1.1//EN" "http://www.w3.org/Graphics/SVG/1.1/DTD/svg11.dtd">
<svg version="1.1" id="art" xmlns="http://www.w3.org/2000/svg" xmlns:xlink="http://www.w3.org/1999/xlink" x="0px" y="0px"
	 width="912px" height="342px" viewBox="0 0 912 342" enable-background="new 0 0 912 342" xml:space="preserve">
<rect y="320" fill="#F3E3D5" width="912" height="20"/>
<rect fill="#F3E3D5" width="912" height="40"/>
<rect y="80" fill="#F3E3D5" width="912" height="40"/>
<rect y="160" fill="#F3E3D5" width="912" height="40"/>
<rect y="240" fill="#F3E3D5" width="912" height="40"/>
<line fill="none" stroke="#006227" stroke-width="2" stroke-dasharray="10.213,5.213" x1="123.699" y1="336.248" x2="135.438" y2="331.096"/>
<line fill="none" stroke="#006227" stroke-width="2" stroke-dasharray="9.894,4.894" x1="148.822" y1="320.454" x2="166.25" y2="299.666"/>
<line fill="none" stroke="#006227" stroke-width="2" stroke-dasharray="9.756,4.756" x1="180.46" y1="292.179" x2="220.875" y2="284.399"/>
<line fill="none" stroke="#006227" stroke-width="2" stroke-dasharray="9.991,4.991" x1="237.499" y1="279.942" x2="334.875" y2="248.314"/>
<line fill="none" stroke="#006227" stroke-width="2" stroke-dasharray="9.713,4.713" x1="351.498" y1="244.834" x2="449.393" y2="232.812"/>
<line fill="none" stroke="#006227" stroke-width="2" stroke-dasharray="9.591,4.591" x1="465.938" y1="231.939" x2="562.909" y2="231.996"/>
<line fill="none" stroke="#006227" stroke-width="2" stroke-dasharray="9.695,4.695" x1="579.449" y1="233.325" x2="676.875" y2="247"/>
<line fill="none" stroke="#006227" stroke-width="2" stroke-dasharray="9.724,4.724" x1="693.455" y1="246.424" x2="790.882" y2="230.188"/>
<g>
	<defs>
		<rect id="SVGID_1_" x="-9" y="-1" width="930" height="342.5"/>
	</defs>
	<clipPath id="SVGID_2_">
		<use xlink:href="#SVGID_1_"  overflow="visible"/>
	</clipPath>
	<path clip-path="url(#SVGID_2_)" fill="none" stroke="#006227" stroke-width="2" d="M793.211,229.799l4.796-0.799 M679.2,247.326
		L684,248l4.796-0.799 M565.205,231.996L570,232l4.8,0.674 M451.731,232.526l4.82-0.593l4.795,0.004 M337.249,247.543L342,246
		l4.82-0.592 M223.21,283.949l4.79-0.922l4.751-1.543 M167.822,297.791L171,294l4.79-0.922 M137.824,330.047l4.676-2.052
		l3.178-3.791 M114.25,340.396l4.676-2.052"/>
</g>
<line fill="none" stroke="#F9A25E" stroke-width="2" stroke-dasharray="9.646,4.646" x1="151.858" y1="331.555" x2="163.688" y2="329.728"/>
<line fill="none" stroke="#F9A25E" stroke-width="2" stroke-dasharray="10.285,5.285" x1="181.177" y1="328.446" x2="334.217" y2="325.636"/>
<line fill="none" stroke="#F9A25E" stroke-width="2" stroke-dasharray="10.094,5.094" x1="351.561" y1="322.113" x2="449.393" y2="287.531"/>
<line fill="none" stroke="#F9A25E" stroke-width="2" stroke-dasharray="9.607,4.607" x1="465.961" y1="284.835" x2="563.145" y2="283.127"/>
<line fill="none" stroke="#F9A25E" stroke-width="2" stroke-dasharray="9.638,4.638" x1="579.689" y1="283.581" x2="677.125" y2="289.563"/>
<line fill="none" stroke="#F9A25E" stroke-width="2" stroke-dasharray="9.637,4.637" x1="693.669" y1="289.172" x2="790.891" y2="280.625"/>
<path fill="none" stroke="#F9A25E" stroke-width="2" d="M793.2,280.422L798,280 M679.44,289.705l4.81,0.295l4.8-0.422
	 M565.447,283.086l4.803-0.085l4.811,0.296 M451.793,286.682l4.759-1.682l4.804-0.084 M336.858,325.587l5.142-0.094l4.758-1.683
	 M165.983,329.374l4.767-0.736l5.143-0.095 M142.5,333l4.768-0.736"/>
<g>
	<defs>
		<rect id="SVGID_3_" x="-9" y="-1" width="930" height="342.5"/>
	</defs>
	<clipPath id="SVGID_4_">
		<use xlink:href="#SVGID_3_"  overflow="visible"/>
	</clipPath>
	
		<line clip-path="url(#SVGID_4_)" fill="none" stroke="#808285" stroke-width="2" stroke-dasharray="9.698,4.698" x1="151.724" y1="337.653" x2="221.08" y2="331.479"/>
	
		<line clip-path="url(#SVGID_4_)" fill="none" stroke="#808285" stroke-width="2" stroke-dasharray="9.61,4.61" x1="237.644" y1="331.476" x2="334.656" y2="338.021"/>
</g>
<line fill="none" stroke="#808285" stroke-width="2" stroke-dasharray="9.699,4.699" x1="351.2" y1="337.132" x2="448.625" y2="323.031"/>
<line fill="none" stroke="#808285" stroke-width="2" stroke-dasharray="9.662,4.662" x1="465.235" y1="322.374" x2="563.094" y2="326.229"/>
<line fill="none" stroke="#808285" stroke-width="2" stroke-dasharray="10.111,5.111" x1="580.405" y1="326.021" x2="790.718" y2="315.877"/>
<g>
	<defs>
		<rect id="SVGID_5_" x="-9" y="-1" width="930" height="342.5"/>
	</defs>
	<clipPath id="SVGID_6_">
		<use xlink:href="#SVGID_5_"  overflow="visible"/>
	</clipPath>
	<path clip-path="url(#SVGID_6_)" fill="none" stroke="#808285" stroke-width="2" d="M793.271,315.755l5.05-0.244 M565.423,326.321
		l4.827,0.189l5.05-0.243 M450.95,322.695l4.8-0.695l4.827,0.19 M336.956,338.177l4.794,0.323l4.799-0.695 M223.42,331.271
		l4.83-0.43l4.794,0.323 M142.214,338.5l4.83-0.43"/>
	<polyline clip-path="url(#SVGID_6_)" fill="none" stroke="#006227" stroke-width="2" points="114.25,339.505 142.5,310 171,256 
		228,192 342,115 456.552,76 570,74.936 684,66.5 798.007,46 	"/>
	<polyline clip-path="url(#SVGID_6_)" fill="none" stroke="#F9A25E" stroke-width="2" points="113.75,339.42 142.5,334.013 171,307 
		228,282 342.25,237 456.552,154 570,151 684,117 798.007,95 	"/>
	<polyline clip-path="url(#SVGID_6_)" fill="none" stroke="#808285" stroke-width="2" points="114.25,339.505 142.5,334.013 
		171,325.511 228,319 342,293.027 456.552,257 570.25,230 684,188 798.007,175.971 	"/>
	<line clip-path="url(#SVGID_6_)" fill="none" stroke="#F9A25E" stroke-width="3" x1="0" y1="340" x2="912" y2="340"/>
</g>
</svg>
