<?xml version="1.0" encoding="utf-8"?>
<!-- Generator: Adobe Illustrator 15.1.0, SVG Export Plug-In . SVG Version: 6.00 Build 0)  -->
<!DOCTYPE svg PUBLIC "-//W3C//DTD SVG 1.1//EN" "http://www.w3.org/Graphics/SVG/1.1/DTD/svg11.dtd">
<svg version="1.1" id="art" xmlns="http://www.w3.org/2000/svg" xmlns:xlink="http://www.w3.org/1999/xlink" x="0px" y="0px"
	 width="912px" height="342px" viewBox="0 0 912 342" enable-background="new 0 0 912 342" xml:space="preserve">
<rect y="320" fill="#F3E3D5" width="912" height="20"/>
<rect fill="#F3E3D5" width="912" height="40"/>
<rect y="80" fill="#F3E3D5" width="912" height="40"/>
<rect y="160" fill="#F3E3D5" width="912" height="40"/>
<rect y="240" fill="#F3E3D5" width="912" height="40"/>
<g>
	<defs>
		<rect id="SVGID_1_" x="-9" y="-1" width="930" height="342.5"/>
	</defs>
	<clipPath id="SVGID_2_">
		<use xlink:href="#SVGID_1_"  overflow="visible"/>
	</clipPath>
	<line clip-path="url(#SVGID_2_)" fill="none" stroke="#6D6E71" stroke-dasharray="4,4" x1="798" y1="0" x2="798" y2="340"/>
	<line clip-path="url(#SVGID_2_)" fill="none" stroke="#6D6E71" stroke-dasharray="4,4" x1="142.5" y1="0" x2="142.5" y2="340"/>
	
		<line clip-path="url(#SVGID_2_)" fill="none" stroke="#6D6E71" stroke-dasharray="4,4" x1="456.052" y1="0" x2="456.052" y2="340"/>
</g>
<line fill="none" stroke="#006227" stroke-width="2" stroke-dasharray="10.036,5.036" x1="120.337" y1="331.295" x2="137.75" y2="309.851"/>
<line fill="none" stroke="#006227" stroke-width="2" stroke-dasharray="10.552,5.552" x1="152.081" y1="298.957" x2="163.875" y2="292.75"/>
<line fill="none" stroke="#006227" stroke-width="2" stroke-dasharray="9.626,4.626" x1="180.438" y1="288.835" x2="220.875" y2="288.126"/>
<line fill="none" stroke="#006227" stroke-width="2" stroke-dasharray="10.03,5.03" x1="237.505" y1="284.748" x2="334.875" y2="251.438"/>
<line fill="none" stroke="#006227" stroke-width="2" stroke-dasharray="9.661,4.661" x1="351.489" y1="248.796" x2="449.393" y2="246.685"/>
<line fill="none" stroke="#006227" stroke-width="2" stroke-dasharray="10.269,5.269" x1="466.927" y1="245.768" x2="619.253" y2="234.57"/>
<line fill="none" stroke="#006227" stroke-width="2" stroke-dasharray="10.282,5.282" x1="637.411" y1="234.487" x2="790.234" y2="241.637"/>
<g>
	<defs>
		<rect id="SVGID_3_" x="-9" y="-1" width="930" height="342.5"/>
	</defs>
	<clipPath id="SVGID_4_">
		<use xlink:href="#SVGID_3_"  overflow="visible"/>
	</clipPath>
	<path clip-path="url(#SVGID_4_)" fill="none" stroke="#006227" stroke-width="2" d="M792.872,241.76l5.135,0.24 M621.88,234.376
		L627,234l5.135,0.24 M451.722,246.635l4.83-0.104l5.12-0.377 M337.255,250.623L342,249l4.829-0.104 M223.188,288.084L228,288
		l4.745-1.623 M166.331,291.457L171,289l4.812-0.084 M139.337,307.896L142.5,304l4.669-2.457 M114,339.101l3.163-3.896"/>
</g>
<line fill="none" stroke="#808285" stroke-width="2" stroke-dasharray="10.384,5.384" x1="123.558" y1="335.973" x2="135.375" y2="330.375"/>
<line fill="none" stroke="#808285" stroke-width="2" stroke-dasharray="9.781,4.781" x1="151.964" y1="328.993" x2="163.875" y2="331.5"/>
<line fill="none" stroke="#808285" stroke-width="2" stroke-dasharray="9.676,4.676" x1="180.446" y1="331.866" x2="220.875" y2="327.015"/>
<line fill="none" stroke="#808285" stroke-width="2" stroke-dasharray="9.626,4.626" x1="237.438" y1="326.311" x2="334.875" y2="327.881"/>
<line fill="none" stroke="#808285" stroke-width="2" stroke-dasharray="9.672,4.672" x1="351.491" y1="327.429" x2="449.393" y2="321.582"/>
<line fill="none" stroke="#808285" stroke-width="2" stroke-dasharray="10.248,5.248" x1="466.924" y1="321.034" x2="619.252" y2="319.247"/>
<line fill="none" stroke="#808285" stroke-width="2" stroke-dasharray="9.652,4.652" x1="636.442" y1="319.984" x2="676.875" y2="323.533"/>
<line fill="none" stroke="#808285" stroke-width="2" stroke-dasharray="9.644,4.644" x1="693.441" y1="323.482" x2="790.881" y2="316.51"/>
<g>
	<defs>
		<rect id="SVGID_5_" x="-9" y="-1" width="930" height="342.5"/>
	</defs>
	<clipPath id="SVGID_6_">
		<use xlink:href="#SVGID_5_"  overflow="visible"/>
	</clipPath>
	<path clip-path="url(#SVGID_6_)" fill="none" stroke="#808285" stroke-width="2" d="M793.198,316.344l4.809-0.344 M679.192,323.737
		l4.808,0.422l4.81-0.345 M621.876,319.216l5.124-0.061l4.808,0.422 M451.724,321.444l4.828-0.289l5.124-0.061 M337.188,327.918
		l4.812,0.077l4.828-0.288 M223.196,326.735l4.804-0.576l4.812,0.077 M166.214,331.993L171,333l4.804-0.576 M137.808,329.223
		L142.5,327l4.786,1.008 M114,340.5l4.692-2.222"/>
	<polyline clip-path="url(#SVGID_6_)" fill="none" stroke="#006227" stroke-width="2" points="113.5,340.5 142.5,253 171,208 
		228,180 342,152 456.552,123 570,120 627,93 684,101 798.007,101 	"/>
	<polyline clip-path="url(#SVGID_6_)" fill="none" stroke="#808285" stroke-width="2" points="114,339.72 142.5,321.155 
		171,323.149 228,309 342,283 456.552,262 570,263 627,244.201 684,233.998 798.007,232.998 	"/>
	<polyline clip-path="url(#SVGID_6_)" fill="none" stroke="#F9A25E" stroke-width="2" points="113.5,339.72 142.5,320.249 171,307 
		228,260 342,234 456.552,201 570,187.248 627,177.802 684,168.249 798.007,170.05 	"/>
</g>
<line fill="none" stroke="#F9A25E" stroke-width="2" stroke-dasharray="10.302,5.302" x1="123.546" y1="335.459" x2="135.375" y2="330.181"/>
<line fill="none" stroke="#F9A25E" stroke-width="2" stroke-dasharray="9.66,4.66" x1="151.943" y1="326.059" x2="163.875" y2="324.868"/>
<line fill="none" stroke="#F9A25E" stroke-width="2" stroke-dasharray="9.625,4.625" x1="180.438" y1="324.159" x2="220.875" y2="324.159"/>
<line fill="none" stroke="#F9A25E" stroke-width="2" stroke-dasharray="9.659,4.659" x1="237.443" y1="323.234" x2="334.875" y2="313.697"/>
<line fill="none" stroke="#F9A25E" stroke-width="2" stroke-dasharray="9.779,4.779" x1="351.51" y1="311.257" x2="449.393" y2="293.312"/>
<line fill="none" stroke="#F9A25E" stroke-width="2" stroke-dasharray="9.661,4.661" x1="465.95" y1="293.325" x2="562.91" y2="307"/>
<line fill="none" stroke="#F9A25E" stroke-width="2" stroke-dasharray="9.666,4.666" x1="579.444" y1="306.986" x2="619.875" y2="302.649"/>
<line fill="none" stroke="#F9A25E" stroke-width="2" stroke-dasharray="9.716,4.716" x1="636.453" y1="303.396" x2="676.875" y2="309.86"/>
<line fill="none" stroke="#F9A25E" stroke-width="2" stroke-dasharray="9.823,4.823" x1="693.472" y1="308.757" x2="790.882" y2="285.688"/>
<g>
	<defs>
		<rect id="SVGID_7_" x="-9" y="-1" width="930" height="342.5"/>
	</defs>
	<clipPath id="SVGID_8_">
		<use xlink:href="#SVGID_7_"  overflow="visible"/>
	</clipPath>
	<path clip-path="url(#SVGID_8_)" fill="none" stroke="#F9A25E" stroke-width="2" d="M793.229,285.132l4.778-1.132 M679.203,310.232
		L684,311l4.779-1.131 M622.195,302.4l4.805-0.516l4.797,0.767 M565.217,307.326L570,308l4.805-0.516 M451.743,292.882l4.809-0.882
		l4.783,0.675 M337.193,313.471L342,313l4.809-0.881 M223.188,324.159H228l4.807-0.471 M166.194,324.638l4.806-0.479h4.812
		 M137.796,329.1l4.704-2.1l4.806-0.479 M114,339.72l4.704-2.099"/>
	<line clip-path="url(#SVGID_8_)" fill="none" stroke="#F9A25E" stroke-width="3" x1="0" y1="340" x2="912" y2="340"/>
</g>
</svg>
