<?xml version="1.0" encoding="utf-8"?>
<!-- Generator: Adobe Illustrator 15.1.0, SVG Export Plug-In . SVG Version: 6.00 Build 0)  -->
<!DOCTYPE svg PUBLIC "-//W3C//DTD SVG 1.1//EN" "http://www.w3.org/Graphics/SVG/1.1/DTD/svg11.dtd">
<svg version="1.1" id="art" xmlns="http://www.w3.org/2000/svg" xmlns:xlink="http://www.w3.org/1999/xlink" x="0px" y="0px"
	 width="912px" height="569px" viewBox="0 0 912 569" enable-background="new 0 0 912 569" xml:space="preserve">
<g>
	<defs>
		<rect id="SVGID_1_" x="-9" y="-1" width="930" height="567.282"/>
	</defs>
	<clipPath id="SVGID_2_">
		<use xlink:href="#SVGID_1_"  overflow="visible"/>
	</clipPath>
	<rect y="400" clip-path="url(#SVGID_2_)" fill="#F3E3D5" width="912" height="20"/>
	<rect y="80" clip-path="url(#SVGID_2_)" fill="#F3E3D5" width="912" height="40"/>
	<rect clip-path="url(#SVGID_2_)" fill="#F3E3D5" width="912" height="40"/>
	<rect y="160" clip-path="url(#SVGID_2_)" fill="#F3E3D5" width="912" height="40"/>
	<rect y="240" clip-path="url(#SVGID_2_)" fill="#F3E3D5" width="912" height="40"/>
	<rect y="320" clip-path="url(#SVGID_2_)" fill="#F3E3D5" width="912" height="40"/>
	<line clip-path="url(#SVGID_2_)" fill="none" stroke="#D1D3D4" stroke-width="0.5" x1="228" y1="0" x2="228" y2="420.001"/>
	<line clip-path="url(#SVGID_2_)" fill="none" stroke="#D1D3D4" stroke-width="0.5" x1="114.25" y1="0" x2="114.25" y2="420.001"/>
	<line clip-path="url(#SVGID_2_)" fill="none" stroke="#D1D3D4" stroke-width="0.5" x1="342" y1="0" x2="342" y2="420.001"/>
	<line clip-path="url(#SVGID_2_)" fill="none" stroke="#D1D3D4" stroke-width="0.5" x1="456" y1="0" x2="456" y2="420.001"/>
	<line clip-path="url(#SVGID_2_)" fill="none" stroke="#D1D3D4" stroke-width="0.5" x1="570" y1="80" x2="570" y2="420.001"/>
	<line clip-path="url(#SVGID_2_)" fill="none" stroke="#D1D3D4" stroke-width="0.5" x1="684" y1="80" x2="684" y2="420.001"/>
	<line clip-path="url(#SVGID_2_)" fill="none" stroke="#D1D3D4" stroke-width="0.5" x1="798" y1="0" x2="798" y2="420.001"/>
	<g clip-path="url(#SVGID_2_)">
		<defs>
			<rect id="SVGID_3_" x="-9" y="-1" width="930" height="567.282"/>
		</defs>
		<clipPath id="SVGID_4_">
			<use xlink:href="#SVGID_3_"  overflow="visible"/>
		</clipPath>
		<path clip-path="url(#SVGID_4_)" fill="#F9A25E" d="M47.072,175.067l0.432-0.832c-2.288-1.232-4.864-1.856-7.728-1.856
			c-2.96,0-5.504,0.576-7.76,1.856l0.384,0.832c2.272-1.152,4.64-1.648,7.376-1.648C42.592,173.419,44.96,173.915,47.072,175.067
			 M41.344,175.995c-1.888,0-2.96,0.88-2.96,2.336c0,1.456,1.072,2.352,2.96,2.352c1.888,0,2.96-0.896,2.96-2.352
			C44.304,176.875,43.232,175.995,41.344,175.995 M43.504,178.331c0,0.752-0.752,1.2-2.16,1.2c-1.408,0-2.16-0.448-2.16-1.2
			c0-0.784,0.72-1.2,2.16-1.2C42.752,177.131,43.504,177.579,43.504,178.331 M37.568,184.651c0,0.752-0.752,1.2-2.16,1.2
			c-1.408,0-2.176-0.448-2.176-1.2c0-0.784,0.736-1.2,2.176-1.2C36.816,183.451,37.568,183.899,37.568,184.651 M35.408,182.299
			c-1.888,0-2.96,0.896-2.96,2.352s1.072,2.352,2.96,2.352c1.888,0,2.944-0.896,2.944-2.352S37.296,182.299,35.408,182.299
			 M44.304,185.323v-0.976l-11.856-6.56v0.96L44.304,185.323z M47.072,187.995c-2.112,1.152-4.48,1.648-7.296,1.648
			c-2.736,0-5.104-0.496-7.376-1.648l-0.384,0.832c2.256,1.28,4.8,1.856,7.76,1.856c2.864,0,5.44-0.624,7.728-1.856L47.072,187.995z
			 M42.8,202.555c1.008-0.56,1.504-1.488,1.504-2.816c0-1.584-0.944-2.608-2.272-2.608c-1.168,0-1.68,0.688-2.128,2.08
			c-0.384,1.184-0.48,1.84-1.232,1.84c-0.624,0-1.072-0.496-1.072-1.216c0-0.752,0.368-1.344,1.024-1.632l-0.608-0.992
			c-0.912,0.384-1.424,1.312-1.424,2.544c0,1.52,0.912,2.528,2.16,2.528c1.408,0,1.712-1.056,2.32-2.816
			c0.256-0.752,0.544-1.12,1.088-1.12c0.624,0,1.072,0.528,1.072,1.344s-0.368,1.424-1.136,1.824L42.8,202.555z M37.856,205.675H44
			v-1.216h-6.144v-1.344h-1.008v1.344h-2.88v1.216h2.88v1.312h1.008V205.675z M44,214.699v-1.216h-3.696
			c-0.784,0-1.376,0-1.888-0.416c-0.496-0.4-0.768-1.024-0.768-1.744c0-1.28,0.704-1.904,2.144-1.904H44v-1.216h-4.864
			c-1.616,0-2.544,1.024-2.544,2.688c0,1.12,0.432,1.984,1.36,2.592h-1.104v1.216H44z M39.616,217.771v4.352
			c-1.216-0.128-1.968-1.008-1.968-2.176C37.648,218.651,38.352,217.851,39.616,217.771 M40.608,216.459h-0.24
			c-2.368,0-3.792,1.344-3.792,3.44c0,2.08,1.568,3.568,3.824,3.568c2.336,0,3.904-1.472,3.904-3.648
			c0-1.472-0.656-2.592-1.952-3.312l-0.624,0.928c1.04,0.592,1.552,1.36,1.552,2.32c0,1.376-1.008,2.368-2.56,2.368h-0.112V216.459z
			 M33.408,226.859c0.512,0,0.896-0.4,0.896-0.897c0-0.495-0.384-0.896-0.88-0.896c-0.496,0-0.912,0.401-0.912,0.896
			C32.512,226.459,32.912,226.859,33.408,226.859 M44,225.355h-7.152v1.216H44V225.355z M37.856,230.506H44v-1.216h-6.144v-1.344
			h-1.008v1.344h-2.88v1.216h2.88v1.312h1.008V230.506z M40.496,234.25c1.648,0,2.592,0.896,2.592,2.336
			c0,1.52-0.976,2.384-2.704,2.384c-1.632,0-2.576-0.864-2.576-2.336C37.808,235.258,38.832,234.25,40.496,234.25 M36.848,233.066
			v1.216h1.344c-1.056,0.544-1.6,1.424-1.6,2.624c0,2,1.456,3.36,3.856,3.36c2.336,0,3.856-1.376,3.856-3.424
			c0-1.104-0.56-2.016-1.6-2.592H44v-1.184H36.848z M38.864,246.282v-1.04c0-1.184-0.032-2.112-0.576-2.88
			c-0.512-0.72-1.456-1.168-2.576-1.168s-2.064,0.448-2.576,1.168c-0.544,0.768-0.576,1.712-0.576,2.88v2.4H44v-1.36H38.864z
			 M37.632,246.282h-3.824v-0.656c0-1.984,0.32-2.96,1.984-2.96c1.584,0,1.84,0.992,1.84,2.96V246.282z"/>
		<g clip-path="url(#SVGID_4_)">
			<g>
				<defs>
					<rect id="SVGID_5_" x="65.08" y="93.168" width="35.168" height="13.856"/>
				</defs>
				<clipPath id="SVGID_6_">
					<use xlink:href="#SVGID_5_"  overflow="visible"/>
				</clipPath>
				<path clip-path="url(#SVGID_6_)" fill="#F9A25E" d="M87.296,106.024c2.4,0,3.952-2.128,3.952-5.936
					c0-3.808-1.536-5.92-3.984-5.92c-2.384,0-3.951,2.144-3.951,5.92C83.312,103.865,84.88,106.024,87.296,106.024 M87.28,104.905
					c-1.584,0-2.561-1.728-2.561-4.832c0-3.088,0.977-4.8,2.561-4.8c1.664,0,2.56,1.648,2.56,4.832
					C89.84,103.272,88.944,104.905,87.28,104.905 M77.937,95.208c1.248,0,2.016,0.72,2.016,1.904c0,1.152-0.736,1.856-2.048,1.856
					c-1.28,0-2-0.72-2-1.856C75.904,95.945,76.672,95.208,77.937,95.208 M77.92,104.921c-1.536,0-2.399-0.88-2.399-2.304
					c0-1.44,0.896-2.352,2.399-2.352s2.4,0.896,2.4,2.352C80.32,104.041,79.456,104.921,77.92,104.921 M76.432,99.673
					c-1.504,0.416-2.352,1.536-2.352,3.04c0,1.984,1.424,3.312,3.856,3.312c2.447,0,3.84-1.296,3.84-3.344
					c0-1.472-0.849-2.576-2.353-3.008c1.232-0.368,1.937-1.296,1.937-2.528c0-1.776-1.296-2.976-3.424-2.976
					c-2.097,0-3.44,1.232-3.44,2.864C74.496,98.393,75.152,99.272,76.432,99.673"/>
			</g>
		</g>
		<g clip-path="url(#SVGID_4_)">
			<g>
				<defs>
					<rect id="SVGID_7_" x="56.872" y="13.168" width="43.376" height="13.856"/>
				</defs>
				<clipPath id="SVGID_8_">
					<use xlink:href="#SVGID_7_"  overflow="visible"/>
				</clipPath>
				<path clip-path="url(#SVGID_8_)" fill="#F9A25E" d="M87.296,26.024c2.4,0,3.952-2.128,3.952-5.936
					c0-3.808-1.536-5.92-3.983-5.92c-2.385,0-3.952,2.144-3.952,5.92C83.312,23.865,84.88,26.024,87.296,26.024 M87.28,24.905
					c-1.584,0-2.561-1.728-2.561-4.832c0-3.088,0.977-4.8,2.561-4.8c1.664,0,2.56,1.648,2.56,4.832
					C89.84,23.272,88.944,24.905,87.28,24.905 M77.937,26.024c2.399,0,3.952-2.128,3.952-5.936c0-3.808-1.536-5.92-3.984-5.92
					c-2.384,0-3.952,2.144-3.952,5.92C73.952,23.865,75.521,26.024,77.937,26.024 M77.92,24.905c-1.584,0-2.56-1.728-2.56-4.832
					c0-3.088,0.976-4.8,2.56-4.8c1.664,0,2.561,1.648,2.561,4.832C80.48,23.272,79.584,24.905,77.92,24.905 M68.208,25.721h1.328
					V14.393H66.64l-0.768,1.184h2.336V25.721z"/>
			</g>
		</g>
		<g clip-path="url(#SVGID_4_)">
			<g>
				<defs>
					<rect id="SVGID_9_" x="65.128" y="172.832" width="35.12" height="14.192"/>
				</defs>
				<clipPath id="SVGID_10_">
					<use xlink:href="#SVGID_9_"  overflow="visible"/>
				</clipPath>
				<path clip-path="url(#SVGID_10_)" fill="#F9A25E" d="M87.296,186.024c2.4,0,3.952-2.128,3.952-5.936
					c0-3.808-1.536-5.92-3.984-5.92c-2.384,0-3.951,2.144-3.951,5.92C83.312,183.865,84.88,186.024,87.296,186.024 M87.28,184.905
					c-1.584,0-2.561-1.728-2.561-4.832c0-3.088,0.977-4.8,2.561-4.8c1.664,0,2.56,1.648,2.56,4.832
					C89.84,183.272,88.944,184.905,87.28,184.905 M75.536,182.393c0-1.504,0.928-2.544,2.288-2.544c1.52,0,2.432,0.976,2.432,2.528
					c0,1.52-0.943,2.512-2.352,2.512C76.464,184.889,75.536,183.945,75.536,182.393 M76.448,179.257l3.696-4.8l-1.185-0.624
					l-2.607,3.68c-1.265,1.792-2.225,3.12-2.225,4.768c0,2.24,1.408,3.744,3.504,3.744c2.496,0,4.032-1.488,4.032-3.776
					c0-2.096-1.408-3.536-3.456-3.536C77.568,178.713,77.008,178.889,76.448,179.257"/>
			</g>
		</g>
		<g clip-path="url(#SVGID_4_)">
			<g>
				<defs>
					<rect id="SVGID_11_" x="64.552" y="253.168" width="35.696" height="13.856"/>
				</defs>
				<clipPath id="SVGID_12_">
					<use xlink:href="#SVGID_11_"  overflow="visible"/>
				</clipPath>
				<path clip-path="url(#SVGID_12_)" fill="#F9A25E" d="M87.296,266.024c2.4,0,3.952-2.128,3.952-5.936
					c0-3.808-1.536-5.92-3.984-5.92c-2.384,0-3.951,2.144-3.951,5.92C83.312,263.865,84.88,266.024,87.296,266.024 M87.28,264.905
					c-1.584,0-2.561-1.728-2.561-4.832c0-3.088,0.977-4.8,2.561-4.8c1.664,0,2.56,1.648,2.56,4.832
					C89.84,263.272,88.944,264.905,87.28,264.905 M78.912,265.721h1.344v-2.464H81.6v-1.104h-1.344v-7.984H79.68l-6.128,9.088h5.36
					V265.721z M78.912,262.153h-3.344l3.344-5.024V262.153z"/>
			</g>
		</g>
		<g clip-path="url(#SVGID_4_)">
			<g>
				<defs>
					<rect id="SVGID_13_" x="65.096" y="333.169" width="35.152" height="13.855"/>
				</defs>
				<clipPath id="SVGID_14_">
					<use xlink:href="#SVGID_13_"  overflow="visible"/>
				</clipPath>
				<path clip-path="url(#SVGID_14_)" fill="#F9A25E" d="M87.296,346.024c2.4,0,3.952-2.128,3.952-5.936
					c0-3.809-1.536-5.92-3.984-5.92c-2.384,0-3.951,2.144-3.951,5.92C83.312,343.864,84.88,346.024,87.296,346.024 M87.28,344.905
					c-1.584,0-2.561-1.729-2.561-4.832c0-3.088,0.977-4.801,2.561-4.801c1.664,0,2.56,1.648,2.56,4.832
					C89.84,343.272,88.944,344.905,87.28,344.905 M80.992,344.425h-4.336l1.792-1.936c1.84-2,2.896-3.504,2.896-5.152
					c0-1.969-1.312-3.168-3.552-3.168c-2.256,0-3.584,1.264-3.584,3.424c0,0.096,0.016,0.208,0.016,0.304h1.28v-0.128
					c0-1.52,0.8-2.352,2.24-2.352c1.376,0,2.256,0.848,2.256,2c0,1.488-1.424,3.008-3.488,5.439l-2.416,2.864h6.896V344.425z"/>
			</g>
		</g>
	</g>
	<polyline clip-path="url(#SVGID_2_)" fill="none" stroke="#006227" stroke-width="2" points="114.454,419.501 228.454,172 
		342.454,85 456.454,115 570.454,108 684.454,125 798.454,125 	"/>
	
		<line clip-path="url(#SVGID_2_)" fill="none" stroke="#006227" stroke-width="2" stroke-dasharray="9.954,9.954" x1="121.125" y1="406.878" x2="223.25" y2="218.799"/>
	
		<line clip-path="url(#SVGID_2_)" fill="none" stroke="#006227" stroke-width="2" stroke-dasharray="10.215,10.215" x1="242.25" y1="204.419" x2="332.5" y2="168.754"/>
	
		<line clip-path="url(#SVGID_2_)" fill="none" stroke="#006227" stroke-width="2" stroke-dasharray="10.378,10.378" x1="357.546" y1="164.182" x2="559.637" y2="153.546"/>
	
		<line clip-path="url(#SVGID_2_)" fill="none" stroke="#006227" stroke-width="2" stroke-dasharray="9.562,9.562" x1="584.25" y1="154.625" x2="674.5" y2="164.917"/>
	
		<line clip-path="url(#SVGID_2_)" fill="none" stroke="#006227" stroke-width="2" stroke-dasharray="9.712,9.712" x1="698.307" y1="163.25" x2="788.917" y2="145.833"/>
	<path clip-path="url(#SVGID_2_)" fill="none" stroke="#006227" stroke-width="2" d="M793.686,144.917l4.769-0.917 M679.25,165.458
		L684,166l4.77-0.917 M564.818,153.273L570,153l4.75,0.542 M337.25,166.877L342,165l5.183-0.273 M225.625,214.424l2.375-4.374
		l4.75-1.877 M114,420.001l2.375-4.375"/>
	<polyline clip-path="url(#SVGID_2_)" fill="none" stroke="#F9A25E" stroke-width="2" points="114,420.001 228.349,311.001 342,262 
		456,257 570,204 684,183 798,198 	"/>
	
		<line clip-path="url(#SVGID_2_)" fill="none" stroke="#F9A25E" stroke-width="2" stroke-dasharray="10.243,10.243" x1="126.214" y1="410.679" x2="219.857" y2="339.215"/>
	
		<line clip-path="url(#SVGID_2_)" fill="none" stroke="#F9A25E" stroke-width="2" stroke-dasharray="9.503,9.503" x1="242.25" y1="333.376" x2="332.5" y2="335.751"/>
	
		<line clip-path="url(#SVGID_2_)" fill="none" stroke="#F9A25E" stroke-width="2" stroke-dasharray="9.388,9.388" x1="354.238" y1="329.036" x2="448.068" y2="275.643"/>
	
		<line clip-path="url(#SVGID_2_)" fill="none" stroke="#F9A25E" stroke-width="2" stroke-dasharray="9.499,9.499" x1="470.449" y1="270.125" x2="560.519" y2="264.583"/>
	
		<line clip-path="url(#SVGID_2_)" fill="none" stroke="#F9A25E" stroke-width="2" stroke-dasharray="9.614,9.614" x1="584.25" y1="266.219" x2="674.5" y2="280.269"/>
	
		<line clip-path="url(#SVGID_2_)" fill="none" stroke="#F9A25E" stroke-width="2" stroke-dasharray="9.542,9.542" x1="698.25" y1="280.404" x2="788.5" y2="271.896"/>
	<path clip-path="url(#SVGID_2_)" fill="none" stroke="#F9A25E" stroke-width="2" d="M793.25,271.449L798,271 M679.25,281.009
		l4.75,0.74l4.75-0.448 M565.259,264.292L570,264l4.75,0.74 M452.148,273.323l4.078-2.322l4.741-0.292 M337.25,335.876l4.75,0.125
		l4.08-2.322 M223.929,336.107l4.071-3.106l4.75,0.125 M114,420.001l4.071-3.107"/>
	<polyline clip-path="url(#SVGID_2_)" fill="none" stroke="#808285" stroke-width="2" points="114,420.001 228.349,393.001 
		342,356.001 456,336.001 570,337.001 684,295.001 798,301.429 	"/>
	
		<line clip-path="url(#SVGID_2_)" fill="none" stroke="#808285" stroke-width="2" stroke-dasharray="10.426,10.426" x1="129.545" y1="418.296" x2="331.637" y2="396.137"/>
	
		<line clip-path="url(#SVGID_2_)" fill="none" stroke="#808285" stroke-width="2" stroke-dasharray="10.34,10.34" x1="356.25" y1="388.876" x2="446.5" y2="350.083"/>
	
		<line clip-path="url(#SVGID_2_)" fill="none" stroke="#808285" stroke-width="2" stroke-dasharray="10.431,10.431" x1="471.545" y1="347.773" x2="673.637" y2="370.818"/>
	
		<line clip-path="url(#SVGID_2_)" fill="none" stroke="#808285" stroke-width="2" stroke-dasharray="9.726,9.726" x1="698.25" y1="368.876" x2="788.5" y2="349.083"/>
	<path clip-path="url(#SVGID_2_)" fill="none" stroke="#808285" stroke-width="2" d="M793.25,348.042l4.75-1.041 M678.818,371.409
		l5.182,0.592l4.75-1.043 M451.25,348.042l4.75-2.041l5.182,0.59 M336.818,395.568l5.182-0.567l4.75-2.043 M114,420.001l5.182-0.568
		"/>
	<line clip-path="url(#SVGID_2_)" fill="none" stroke="#F9A25E" stroke-width="3" x1="0" y1="420.001" x2="912" y2="420.001"/>
	<g clip-path="url(#SVGID_2_)">
		<defs>
			<rect id="SVGID_15_" x="-9" y="-1" width="930" height="567.282"/>
		</defs>
		<clipPath id="SVGID_16_">
			<use xlink:href="#SVGID_15_"  overflow="visible"/>
		</clipPath>
		<g clip-path="url(#SVGID_16_)">
			<g>
				<defs>
					<rect id="SVGID_17_" x="780.496" y="443.448" width="34.864" height="13.552"/>
				</defs>
				<clipPath id="SVGID_18_">
					<use xlink:href="#SVGID_17_"  overflow="visible"/>
				</clipPath>
				<path clip-path="url(#SVGID_18_)" fill="#F9A25E" d="M803.672,456.001h1.344v-2.465h1.345v-1.104h-1.345v-7.984h-0.575
					l-6.128,9.088h5.359V456.001z M803.672,452.433h-3.344l3.344-5.023V452.433z M796.392,454.704h-4.336l1.792-1.936
					c1.84-2,2.896-3.504,2.896-5.152c0-1.968-1.312-3.168-3.552-3.168c-2.257,0-3.584,1.264-3.584,3.424
					c0,0.097,0.016,0.209,0.016,0.305h1.28v-0.128c0-1.521,0.8-2.353,2.239-2.353c1.376,0,2.257,0.848,2.257,2
					c0,1.488-1.425,3.008-3.488,5.44l-2.416,2.864h6.896V454.704z"/>
			</g>
		</g>
		<g clip-path="url(#SVGID_16_)">
			<g>
				<defs>
					<rect id="SVGID_19_" x="666.496" y="443.448" width="35.152" height="13.855"/>
				</defs>
				<clipPath id="SVGID_20_">
					<use xlink:href="#SVGID_19_"  overflow="visible"/>
				</clipPath>
				<path clip-path="url(#SVGID_20_)" fill="#F9A25E" d="M688.696,456.305c2.399,0,3.952-2.128,3.952-5.937
					c0-3.808-1.536-5.92-3.984-5.92c-2.384,0-3.952,2.145-3.952,5.92C684.712,454.145,686.28,456.305,688.696,456.305
					 M688.68,455.185c-1.584,0-2.56-1.729-2.56-4.832c0-3.088,0.976-4.8,2.56-4.8c1.664,0,2.561,1.647,2.561,4.832
					C691.24,453.553,690.344,455.185,688.68,455.185 M682.392,454.704h-4.336l1.792-1.936c1.84-2,2.896-3.504,2.896-5.152
					c0-1.968-1.312-3.168-3.552-3.168c-2.257,0-3.584,1.264-3.584,3.424c0,0.097,0.016,0.209,0.016,0.305h1.28v-0.128
					c0-1.521,0.8-2.353,2.239-2.353c1.376,0,2.257,0.848,2.257,2c0,1.488-1.425,3.008-3.488,5.44l-2.416,2.864h6.896V454.704z"/>
			</g>
		</g>
		<g clip-path="url(#SVGID_16_)">
			<g>
				<defs>
					<rect id="SVGID_21_" x="553.632" y="443.112" width="33.792" height="14.191"/>
				</defs>
				<clipPath id="SVGID_22_">
					<use xlink:href="#SVGID_21_"  overflow="visible"/>
				</clipPath>
				<path clip-path="url(#SVGID_22_)" fill="#F9A25E" d="M572.296,452.673c0-1.504,0.928-2.545,2.288-2.545
					c1.52,0,2.432,0.977,2.432,2.529c0,1.52-0.943,2.512-2.352,2.512C573.224,455.169,572.296,454.225,572.296,452.673
					 M573.208,449.536l3.696-4.799l-1.185-0.625l-2.607,3.68c-1.265,1.793-2.225,3.121-2.225,4.769c0,2.24,1.408,3.744,3.504,3.744
					c2.496,0,4.032-1.488,4.032-3.776c0-2.096-1.408-3.535-3.456-3.535C574.328,448.993,573.768,449.169,573.208,449.536
					 M564.968,456.001h1.328v-11.328H563.4l-0.769,1.184h2.336V456.001z"/>
			</g>
		</g>
		<g clip-path="url(#SVGID_16_)">
			<g>
				<defs>
					<rect id="SVGID_23_" x="439.632" y="443.448" width="33.472" height="13.552"/>
				</defs>
				<clipPath id="SVGID_24_">
					<use xlink:href="#SVGID_23_"  overflow="visible"/>
				</clipPath>
				<path clip-path="url(#SVGID_24_)" fill="#F9A25E" d="M463.752,454.704h-4.336l1.792-1.936c1.84-2,2.896-3.504,2.896-5.152
					c0-1.968-1.312-3.168-3.552-3.168c-2.256,0-3.584,1.264-3.584,3.424c0,0.097,0.017,0.209,0.017,0.305h1.279v-0.128
					c0-1.521,0.801-2.353,2.24-2.353c1.376,0,2.256,0.848,2.256,2c0,1.488-1.424,3.008-3.488,5.44l-2.416,2.864h6.896V454.704z
					 M450.968,456.001h1.328v-11.328H449.4l-0.769,1.184h2.336V456.001z"/>
			</g>
		</g>
		<g clip-path="url(#SVGID_16_)">
			<g>
				<defs>
					<rect id="SVGID_25_" x="329.16" y="443.448" width="25.696" height="13.855"/>
				</defs>
				<clipPath id="SVGID_26_">
					<use xlink:href="#SVGID_25_"  overflow="visible"/>
				</clipPath>
				<path clip-path="url(#SVGID_26_)" fill="#F9A25E" d="M342.016,445.489c1.248,0,2.017,0.719,2.017,1.903
					c0,1.151-0.736,1.856-2.048,1.856c-1.28,0-2-0.721-2-1.856C339.984,446.225,340.752,445.489,342.016,445.489 M342,455.2
					c-1.536,0-2.4-0.879-2.4-2.304c0-1.44,0.896-2.353,2.4-2.353s2.4,0.896,2.4,2.353C344.4,454.321,343.536,455.2,342,455.2
					 M340.512,449.952c-1.504,0.416-2.352,1.537-2.352,3.041c0,1.983,1.424,3.312,3.855,3.312c2.448,0,3.841-1.296,3.841-3.345
					c0-1.471-0.849-2.575-2.353-3.008c1.232-0.367,1.937-1.295,1.937-2.527c0-1.776-1.297-2.977-3.425-2.977
					c-2.096,0-3.439,1.232-3.439,2.864C338.576,448.673,339.232,449.553,340.512,449.952"/>
			</g>
		</g>
		<g clip-path="url(#SVGID_16_)">
			<g>
				<defs>
					<rect id="SVGID_27_" x="214.632" y="443.448" width="26.048" height="13.552"/>
				</defs>
				<clipPath id="SVGID_28_">
					<use xlink:href="#SVGID_27_"  overflow="visible"/>
				</clipPath>
				<path clip-path="url(#SVGID_28_)" fill="#F9A25E" d="M228.992,456.001h1.344v-2.465h1.344v-1.104h-1.344v-7.984h-0.576
					l-6.128,9.088h5.36V456.001z M228.992,452.433h-3.344l3.344-5.023V452.433z"/>
			</g>
		</g>
		<g clip-path="url(#SVGID_16_)">
			<g>
				<defs>
					<rect id="SVGID_29_" x="101.032" y="443.448" width="25.936" height="13.855"/>
				</defs>
				<clipPath id="SVGID_30_">
					<use xlink:href="#SVGID_29_"  overflow="visible"/>
				</clipPath>
				<path clip-path="url(#SVGID_30_)" fill="#F9A25E" d="M114.016,456.305c2.4,0,3.952-2.128,3.952-5.937
					c0-3.808-1.536-5.92-3.983-5.92c-2.385,0-3.952,2.145-3.952,5.92C110.032,454.145,111.6,456.305,114.016,456.305 M114,455.185
					c-1.584,0-2.56-1.729-2.56-4.832c0-3.088,0.976-4.8,2.56-4.8c1.664,0,2.56,1.647,2.56,4.832
					C116.56,453.553,115.664,455.185,114,455.185"/>
			</g>
		</g>
		<path clip-path="url(#SVGID_16_)" fill="#F9A25E" d="M472.552,506.801c0.561,1.008,1.488,1.504,2.816,1.504
			c1.584,0,2.608-0.944,2.608-2.272c0-1.168-0.688-1.68-2.08-2.128c-1.185-0.384-1.84-0.479-1.84-1.231
			c0-0.624,0.495-1.072,1.216-1.072c0.752,0,1.344,0.368,1.632,1.024l0.992-0.608c-0.385-0.912-1.312-1.424-2.544-1.424
			c-1.521,0-2.528,0.912-2.528,2.16c0,1.407,1.056,1.712,2.816,2.319c0.752,0.257,1.119,0.544,1.119,1.088
			c0,0.624-0.527,1.072-1.344,1.072c-0.815,0-1.424-0.368-1.824-1.136L472.552,506.801z M465.512,508.001h1.217l0.016-3.776
			l3.68,3.776h1.712l-3.888-3.872l3.568-3.28h-1.632l-3.44,3.248l-0.016-8.208h-1.217V508.001z M462.424,503.616h-4.352
			c0.128-1.216,1.008-1.968,2.176-1.968C461.544,501.648,462.344,502.353,462.424,503.616 M463.736,504.608v-0.24
			c0-2.367-1.344-3.792-3.44-3.792c-2.08,0-3.567,1.568-3.567,3.824c0,2.336,1.472,3.904,3.647,3.904
			c1.473,0,2.592-0.656,3.312-1.952l-0.929-0.624c-0.592,1.04-1.359,1.552-2.319,1.552c-1.376,0-2.368-1.008-2.368-2.56v-0.112
			H463.736z M454.28,503.616h-4.353c0.129-1.216,1.009-1.968,2.177-1.968C453.4,501.648,454.2,502.353,454.28,503.616
			 M455.592,504.608v-0.24c0-2.367-1.344-3.792-3.439-3.792c-2.08,0-3.568,1.568-3.568,3.824c0,2.336,1.473,3.904,3.648,3.904
			c1.472,0,2.592-0.656,3.312-1.952l-0.928-0.624c-0.592,1.04-1.36,1.552-2.32,1.552c-1.376,0-2.368-1.008-2.368-2.56v-0.112
			H455.592z M433.32,496.561l4.432,11.888l2.977-8.848l2.991,8.848l4.433-11.888h-1.473l-2.911,8.416l-3.057-8.864l-3.023,8.864
			l-2.896-8.416H433.32z"/>
	</g>
	<polygon clip-path="url(#SVGID_2_)" fill="#F9A25E" points="341.765,78.409 342.735,78.409 342.735,71.353 344.872,71.353 
		344.872,70.514 342.735,70.514 342.735,67.227 341.765,67.227 341.765,70.514 339.629,70.514 339.629,71.353 341.765,71.353 	"/>
	<polygon clip-path="url(#SVGID_2_)" fill="none" stroke="#F9A25E" points="341.765,78.409 342.735,78.409 342.735,71.353 
		344.872,71.353 344.872,70.514 342.735,70.514 342.735,67.227 341.765,67.227 341.765,70.514 339.629,70.514 339.629,71.353 
		341.765,71.353 	"/>
	<polygon clip-path="url(#SVGID_2_)" fill="#F9A25E" points="341.765,256.996 342.735,256.996 342.735,249.94 344.872,249.94 
		344.872,249.101 342.735,249.101 342.735,245.814 341.765,245.814 341.765,249.101 339.629,249.101 339.629,249.94 341.765,249.94 
			"/>
	<polygon clip-path="url(#SVGID_2_)" fill="none" stroke="#F9A25E" points="341.765,256.996 342.735,256.996 342.735,249.94 
		344.872,249.94 344.872,249.101 342.735,249.101 342.735,245.814 341.765,245.814 341.765,249.101 339.629,249.101 339.629,249.94 
		341.765,249.94 	"/>
	<polygon clip-path="url(#SVGID_2_)" fill="#F9A25E" points="683.765,199.171 684.735,199.171 684.735,192.115 686.872,192.115 
		686.872,191.276 684.735,191.276 684.735,187.989 683.765,187.989 683.765,191.276 681.629,191.276 681.629,192.115 
		683.765,192.115 	"/>
	<polygon clip-path="url(#SVGID_2_)" fill="none" stroke="#F9A25E" points="683.765,199.171 684.735,199.171 684.735,192.115 
		686.872,192.115 686.872,191.276 684.735,191.276 684.735,187.989 683.765,187.989 683.765,191.276 681.629,191.276 
		681.629,192.115 683.765,192.115 	"/>
	<polygon clip-path="url(#SVGID_2_)" fill="#F9A25E" points="798.158,216.051 799.129,216.051 799.129,208.995 801.265,208.995 
		801.265,208.156 799.129,208.156 799.129,204.869 798.158,204.869 798.158,208.156 796.021,208.156 796.021,208.995 
		798.158,208.995 	"/>
	<polygon clip-path="url(#SVGID_2_)" fill="none" stroke="#F9A25E" points="798.158,216.051 799.129,216.051 799.129,208.995 
		801.265,208.995 801.265,208.156 799.129,208.156 799.129,204.869 798.158,204.869 798.158,208.156 796.021,208.156 
		796.021,208.995 798.158,208.995 	"/>
	<polygon clip-path="url(#SVGID_2_)" fill="#F9A25E" points="683.765,311.173 684.735,311.173 684.735,304.117 686.872,304.117 
		686.872,303.278 684.735,303.278 684.735,299.99 683.765,299.99 683.765,303.278 681.629,303.278 681.629,304.117 683.765,304.117 
			"/>
	<polygon clip-path="url(#SVGID_2_)" fill="none" stroke="#F9A25E" points="683.765,311.173 684.735,311.173 684.735,304.117 
		686.872,304.117 686.872,303.278 684.735,303.278 684.735,299.99 683.765,299.99 683.765,303.278 681.629,303.278 681.629,304.117 
		683.765,304.117 	"/>
	<g clip-path="url(#SVGID_2_)">
		<defs>
			<rect id="SVGID_31_" x="-9" y="-1" width="930" height="567.282"/>
		</defs>
		<clipPath id="SVGID_32_">
			<use xlink:href="#SVGID_31_"  overflow="visible"/>
		</clipPath>
		<path clip-path="url(#SVGID_32_)" fill="#006227" d="M848.016,129.042c2.4,0,3.952-2.128,3.952-5.936
			c0-3.808-1.536-5.92-3.983-5.92c-2.385,0-3.952,2.144-3.952,5.92C844.032,126.883,845.6,129.042,848.016,129.042 M848,127.923
			c-1.584,0-2.56-1.728-2.56-4.832c0-3.088,0.976-4.8,2.56-4.8c1.664,0,2.56,1.648,2.56,4.832
			C850.56,126.291,849.664,127.923,848,127.923 M841.712,127.442h-4.336l1.792-1.936c1.84-2,2.896-3.504,2.896-5.152
			c0-1.968-1.312-3.168-3.553-3.168c-2.256,0-3.584,1.264-3.584,3.424c0,0.096,0.017,0.208,0.017,0.304h1.279v-0.128
			c0-1.52,0.801-2.352,2.24-2.352c1.376,0,2.256,0.848,2.256,2c0,1.488-1.424,3.008-3.487,5.44l-2.416,2.864h6.896V127.442z
			 M826.816,128.739h1.359v-5.456h0.16l4.176,5.456h1.729l-4.368-5.456h0.24c2.016,0,3.088-0.992,3.088-2.864
			c0-1.12-0.416-2.032-1.072-2.544c-0.704-0.544-1.536-0.576-2.624-0.576h-2.688V128.739z M828.176,118.451h1.008
			c1.809,0,2.672,0.32,2.672,1.984c0,1.584-0.88,1.84-2.672,1.84h-1.008V118.451z M824.576,120.035v-1.776
			c-1.185-0.816-2.4-1.232-3.76-1.232c-1.681,0-3.089,0.56-4.257,1.68c-1.199,1.168-1.792,2.592-1.792,4.368
			c0,2.032,0.912,3.76,2.576,4.912c0.992,0.688,2.16,1.056,3.376,1.056c1.393,0,2.721-0.432,3.856-1.248v-1.808
			c-1.04,1.216-2.305,1.808-3.744,1.808c-1.552,0-2.944-0.736-3.856-2.032c-0.527-0.752-0.783-1.648-0.783-2.704
			c0-1.344,0.432-2.464,1.312-3.376c0.848-0.88,2.064-1.392,3.264-1.392C822.256,118.291,823.472,118.834,824.576,120.035
			 M808.992,119.858l1.824,4.208h-3.648L808.992,119.858z M808.992,116.851l-5.185,11.888h1.473l1.487-3.504h4.465l1.487,3.504
			h1.473L808.992,116.851z"/>
		<path clip-path="url(#SVGID_32_)" fill="#006227" d="M848.016,149.042c2.4,0,3.952-2.128,3.952-5.936
			c0-3.808-1.536-5.92-3.983-5.92c-2.385,0-3.952,2.144-3.952,5.92C844.032,146.883,845.6,149.042,848.016,149.042 M848,147.923
			c-1.584,0-2.56-1.728-2.56-4.832c0-3.088,0.976-4.8,2.56-4.8c1.664,0,2.56,1.648,2.56,4.832
			C850.56,146.291,849.664,147.923,848,147.923 M841.712,147.442h-4.336l1.792-1.936c1.84-2,2.896-3.504,2.896-5.152
			c0-1.968-1.312-3.168-3.553-3.168c-2.256,0-3.584,1.264-3.584,3.424c0,0.096,0.017,0.208,0.017,0.304h1.279v-0.128
			c0-1.52,0.801-2.352,2.24-2.352c1.376,0,2.256,0.848,2.256,2c0,1.488-1.424,3.008-3.487,5.44l-2.416,2.864h6.896V147.442z
			 M826.816,148.739h1.359v-5.456h0.16l4.176,5.456h1.729l-4.368-5.456h0.24c2.016,0,3.088-0.992,3.088-2.864
			c0-1.12-0.416-2.032-1.072-2.544c-0.704-0.544-1.536-0.576-2.624-0.576h-2.688V148.739z M828.176,138.451h1.008
			c1.809,0,2.672,0.32,2.672,1.984c0,1.584-0.88,1.84-2.672,1.84h-1.008V138.451z M824.576,140.035v-1.776
			c-1.185-0.816-2.4-1.232-3.76-1.232c-1.681,0-3.089,0.56-4.257,1.68c-1.199,1.168-1.792,2.592-1.792,4.368
			c0,2.032,0.912,3.76,2.576,4.912c0.992,0.688,2.16,1.056,3.376,1.056c1.393,0,2.721-0.432,3.856-1.248v-1.808
			c-1.04,1.216-2.305,1.808-3.744,1.808c-1.552,0-2.944-0.736-3.856-2.032c-0.527-0.752-0.783-1.648-0.783-2.704
			c0-1.344,0.432-2.464,1.312-3.376c0.848-0.88,2.064-1.392,3.264-1.392C822.256,138.291,823.472,138.834,824.576,140.035
			 M808.992,139.858l1.824,4.208h-3.648L808.992,139.858z M808.992,136.851l-5.185,11.888h1.473l1.487-3.504h4.465l1.487,3.504
			h1.473L808.992,136.851z"/>
		<path clip-path="url(#SVGID_32_)" fill="#F9A25E" d="M848.016,206.024c2.4,0,3.952-2.128,3.952-5.936
			c0-3.808-1.536-5.92-3.983-5.92c-2.385,0-3.952,2.144-3.952,5.92C844.032,203.865,845.6,206.024,848.016,206.024 M848,204.905
			c-1.584,0-2.56-1.728-2.56-4.832c0-3.088,0.976-4.8,2.56-4.8c1.664,0,2.56,1.648,2.56,4.832
			C850.56,203.272,849.664,204.905,848,204.905 M835.584,200.009c0.704-0.544,1.536-0.816,2.432-0.816
			c1.761,0,2.849,1.12,2.849,2.752c0,1.776-1.104,2.896-2.736,2.896c-1.12,0-2-0.56-2.512-1.616l-0.96,1.12
			c0.784,1.152,1.888,1.68,3.439,1.68c2.624,0,4.208-1.632,4.208-4.208c0-2.288-1.392-3.728-3.632-3.728
			c-0.64,0-1.231,0.128-1.775,0.416l0.72-2.944h4.096v-1.168h-5.024l-1.359,5.568L835.584,200.009z M826.816,205.721h1.359v-5.456
			h0.16l4.176,5.456h1.729l-4.368-5.456h0.24c2.016,0,3.088-0.992,3.088-2.864c0-1.12-0.416-2.032-1.072-2.544
			c-0.704-0.544-1.536-0.576-2.624-0.576h-2.688V205.721z M828.176,195.433h1.008c1.809,0,2.672,0.32,2.672,1.984
			c0,1.584-0.88,1.84-2.672,1.84h-1.008V195.433z M824.576,197.017v-1.776c-1.185-0.816-2.4-1.232-3.76-1.232
			c-1.681,0-3.089,0.56-4.257,1.68c-1.199,1.168-1.792,2.592-1.792,4.368c0,2.032,0.912,3.76,2.576,4.912
			c0.992,0.688,2.16,1.056,3.376,1.056c1.393,0,2.721-0.432,3.856-1.248v-1.808c-1.04,1.216-2.305,1.808-3.744,1.808
			c-1.552,0-2.944-0.736-3.856-2.032c-0.527-0.752-0.783-1.648-0.783-2.704c0-1.344,0.432-2.464,1.312-3.376
			c0.848-0.88,2.064-1.392,3.264-1.392C822.256,195.272,823.472,195.816,824.576,197.017 M808.992,196.841l1.824,4.208h-3.648
			L808.992,196.841z M808.992,193.833l-5.185,11.888h1.473l1.487-3.504h4.465l1.487,3.504h1.473L808.992,193.833z"/>
		<path clip-path="url(#SVGID_32_)" fill="#F9A25E" d="M848.016,276.024c2.4,0,3.952-2.128,3.952-5.936
			c0-3.808-1.536-5.92-3.983-5.92c-2.385,0-3.952,2.144-3.952,5.92C844.032,273.865,845.6,276.024,848.016,276.024 M848,274.905
			c-1.584,0-2.56-1.728-2.56-4.832c0-3.088,0.976-4.8,2.56-4.8c1.664,0,2.56,1.648,2.56,4.832
			C850.56,273.272,849.664,274.905,848,274.905 M835.584,270.009c0.704-0.544,1.536-0.816,2.432-0.816
			c1.761,0,2.849,1.12,2.849,2.752c0,1.776-1.104,2.896-2.736,2.896c-1.12,0-2-0.56-2.512-1.616l-0.96,1.12
			c0.784,1.152,1.888,1.68,3.439,1.68c2.624,0,4.208-1.632,4.208-4.208c0-2.288-1.392-3.728-3.632-3.728
			c-0.64,0-1.231,0.128-1.775,0.416l0.72-2.944h4.096v-1.168h-5.024l-1.359,5.568L835.584,270.009z M826.816,275.721h1.359v-5.456
			h0.16l4.176,5.456h1.729l-4.368-5.456h0.24c2.016,0,3.088-0.992,3.088-2.864c0-1.12-0.416-2.032-1.072-2.544
			c-0.704-0.544-1.536-0.576-2.624-0.576h-2.688V275.721z M828.176,265.433h1.008c1.809,0,2.672,0.32,2.672,1.984
			c0,1.584-0.88,1.84-2.672,1.84h-1.008V265.433z M824.576,267.017v-1.776c-1.185-0.816-2.4-1.232-3.76-1.232
			c-1.681,0-3.089,0.56-4.257,1.68c-1.199,1.168-1.792,2.592-1.792,4.368c0,2.032,0.912,3.76,2.576,4.912
			c0.992,0.688,2.16,1.056,3.376,1.056c1.393,0,2.721-0.432,3.856-1.248v-1.808c-1.04,1.216-2.305,1.808-3.744,1.808
			c-1.552,0-2.944-0.736-3.856-2.032c-0.527-0.752-0.783-1.648-0.783-2.704c0-1.344,0.432-2.464,1.312-3.376
			c0.848-0.88,2.064-1.392,3.264-1.392C822.256,265.272,823.472,265.816,824.576,267.017 M808.992,266.841l1.824,4.208h-3.648
			L808.992,266.841z M808.992,263.833l-5.185,11.888h1.473l1.487-3.504h4.465l1.487,3.504h1.473L808.992,263.833z"/>
		<path clip-path="url(#SVGID_32_)" fill="#808285" d="M848.016,307.772c2.4,0,3.952-2.129,3.952-5.936
			c0-3.809-1.536-5.921-3.983-5.921c-2.385,0-3.952,2.144-3.952,5.921C844.032,305.612,845.6,307.772,848.016,307.772 M848,306.652
			c-1.584,0-2.56-1.728-2.56-4.832c0-3.088,0.976-4.8,2.56-4.8c1.664,0,2.56,1.648,2.56,4.832
			C850.56,305.021,849.664,306.652,848,306.652 M835.728,307.324l1.12,0.576l5.712-11.761h-7.248v1.185h5.297L835.728,307.324z
			 M826.816,307.468h1.359v-5.455h0.16l4.176,5.455h1.729l-4.368-5.455h0.24c2.016,0,3.088-0.992,3.088-2.864
			c0-1.12-0.416-2.032-1.072-2.544c-0.704-0.545-1.536-0.576-2.624-0.576h-2.688V307.468z M828.176,297.181h1.008
			c1.809,0,2.672,0.319,2.672,1.983c0,1.584-0.88,1.841-2.672,1.841h-1.008V297.181z M824.576,298.765v-1.776
			c-1.185-0.815-2.4-1.231-3.76-1.231c-1.681,0-3.089,0.56-4.257,1.68c-1.199,1.168-1.792,2.592-1.792,4.367
			c0,2.033,0.912,3.761,2.576,4.912c0.992,0.688,2.16,1.057,3.376,1.057c1.393,0,2.721-0.432,3.856-1.248v-1.809
			c-1.04,1.217-2.305,1.809-3.744,1.809c-1.552,0-2.944-0.736-3.856-2.032c-0.527-0.752-0.783-1.647-0.783-2.704
			c0-1.344,0.432-2.464,1.312-3.376c0.848-0.88,2.064-1.392,3.264-1.392C822.256,297.021,823.472,297.564,824.576,298.765
			 M808.992,298.589l1.824,4.207h-3.648L808.992,298.589z M808.992,295.58l-5.185,11.888h1.473l1.487-3.504h4.465l1.487,3.504h1.473
			L808.992,295.58z"/>
		<path clip-path="url(#SVGID_32_)" fill="#808285" d="M848.016,351.024c2.4,0,3.952-2.128,3.952-5.936
			c0-3.809-1.536-5.92-3.983-5.92c-2.385,0-3.952,2.144-3.952,5.92C844.032,348.864,845.6,351.024,848.016,351.024 M848,349.905
			c-1.584,0-2.56-1.729-2.56-4.832c0-3.088,0.976-4.801,2.56-4.801c1.664,0,2.56,1.648,2.56,4.832
			C850.56,348.272,849.664,349.905,848,349.905 M835.728,350.577l1.12,0.576l5.712-11.761h-7.248v1.185h5.297L835.728,350.577z
			 M826.816,350.721h1.359v-5.456h0.16l4.176,5.456h1.729l-4.368-5.456h0.24c2.016,0,3.088-0.992,3.088-2.864
			c0-1.12-0.416-2.032-1.072-2.544c-0.704-0.544-1.536-0.576-2.624-0.576h-2.688V350.721z M828.176,340.433h1.008
			c1.809,0,2.672,0.32,2.672,1.984c0,1.584-0.88,1.84-2.672,1.84h-1.008V340.433z M824.576,342.017v-1.775
			c-1.185-0.816-2.4-1.232-3.76-1.232c-1.681,0-3.089,0.561-4.257,1.68c-1.199,1.168-1.792,2.592-1.792,4.368
			c0,2.032,0.912,3.76,2.576,4.912c0.992,0.688,2.16,1.056,3.376,1.056c1.393,0,2.721-0.432,3.856-1.248v-1.808
			c-1.04,1.216-2.305,1.808-3.744,1.808c-1.552,0-2.944-0.736-3.856-2.031c-0.527-0.752-0.783-1.648-0.783-2.705
			c0-1.344,0.432-2.463,1.312-3.375c0.848-0.881,2.064-1.393,3.264-1.393C822.256,340.272,823.472,340.816,824.576,342.017
			 M808.992,341.841l1.824,4.208h-3.648L808.992,341.841z M808.992,338.833l-5.185,11.888h1.473l1.487-3.504h4.465l1.487,3.504
			h1.473L808.992,338.833z"/>
		<path clip-path="url(#SVGID_32_)" fill="#F9A25E" d="M733.445,28.792l0.832,0.432c1.231-2.288,1.855-4.864,1.855-7.728
			c0-2.96-0.576-5.504-1.855-7.76l-0.832,0.384c1.151,2.272,1.647,4.64,1.647,7.376C735.093,24.312,734.597,26.681,733.445,28.792
			 M731.253,24.425h-4.336l1.792-1.936c1.84-2,2.896-3.504,2.896-5.152c0-1.968-1.312-3.168-3.553-3.168
			c-2.256,0-3.584,1.264-3.584,3.424c0,0.096,0.017,0.208,0.017,0.304h1.279v-0.128c0-1.52,0.8-2.352,2.24-2.352
			c1.376,0,2.256,0.848,2.256,2c0,1.488-1.424,3.008-3.487,5.44l-2.416,2.864h6.896V24.425z M718.837,15.208
			c1.248,0,2.016,0.72,2.016,1.904c0,1.152-0.735,1.856-2.048,1.856c-1.279,0-2-0.72-2-1.856
			C716.805,15.945,717.573,15.208,718.837,15.208 M718.821,24.921c-1.536,0-2.4-0.88-2.4-2.304c0-1.44,0.896-2.352,2.4-2.352
			s2.399,0.896,2.399,2.352C721.221,24.041,720.357,24.921,718.821,24.921 M717.333,19.673c-1.504,0.416-2.353,1.536-2.353,3.04
			c0,1.984,1.425,3.312,3.856,3.312c2.448,0,3.84-1.296,3.84-3.344c0-1.472-0.848-2.576-2.352-3.008
			c1.231-0.368,1.936-1.296,1.936-2.528c0-1.776-1.296-2.976-3.424-2.976c-2.096,0-3.44,1.232-3.44,2.864
			C715.396,18.393,716.053,19.272,717.333,19.673 M712.198,21.993h-9.36v0.912h9.36V21.993z M712.198,19h-9.36v0.912h9.36V19z
			 M693.27,25.721h1.217v-3.696c0-0.784,0-1.376,0.416-1.888c0.399-0.496,1.023-0.768,1.744-0.768c1.279,0,1.903,0.704,1.903,2.144
			v4.208h1.216v-4.864c0-1.616-1.023-2.544-2.688-2.544c-1.12,0-1.984,0.432-2.592,1.36v-1.104h-1.217V25.721z M691.478,28.792
			c-1.151-2.112-1.647-4.48-1.647-7.296c0-2.736,0.496-5.104,1.647-7.376l-0.831-0.384c-1.28,2.256-1.856,4.8-1.856,7.76
			c0,2.864,0.624,5.44,1.856,7.728L691.478,28.792z M676.214,22.169c0-1.696,0.928-2.672,2.4-2.672c1.424,0,2.319,1.024,2.319,2.816
			c0,1.584-0.88,2.512-2.304,2.512C677.189,24.825,676.214,23.785,676.214,22.169 M675.03,29.208h1.216v-4.784
			c0.544,1.056,1.424,1.6,2.607,1.6c2,0,3.377-1.44,3.377-3.855c0-2.353-1.377-3.856-3.425-3.856c-1.104,0-2.048,0.56-2.607,1.6
			v-1.344h-1.168V29.208z M667.478,18.569h-1.216v4.272c0,2.096,1.137,3.184,3.216,3.184c2.145,0,3.265-1.12,3.265-3.28v-4.176
			h-1.216v3.52c0,1.888-0.448,2.768-2.017,2.768c-1.567,0-2.032-0.88-2.032-2.768V18.569z M658.054,22.169
			c0-1.521,1.152-2.704,2.593-2.704c1.424,0,2.575,1.184,2.575,2.704c0,1.52-1.151,2.704-2.575,2.704
			C659.222,24.873,658.054,23.688,658.054,22.169 M656.758,22.169c0,1.04,0.384,1.968,1.136,2.72
			c0.736,0.736,1.696,1.136,2.753,1.136c1.039,0,2-0.416,2.752-1.152c0.735-0.72,1.136-1.664,1.136-2.704c0-1.04-0.4-2-1.136-2.72
			c-0.752-0.736-1.696-1.136-2.752-1.136c-1.057,0-2.017,0.384-2.753,1.12C657.142,20.169,656.758,21.129,656.758,22.169
			 M651.814,25.721h1.216v-3.488c0-1.872,0.64-2.8,1.936-2.8c0.224,0,0.48,0.048,0.752,0.144l0.416-1.104
			c-0.271-0.096-0.544-0.144-0.832-0.144c-1.088,0-1.76,0.512-2.399,1.728v-1.488h-1.088V25.721z M645.27,19.816v1.216h3.265
			c-0.16,2.24-1.856,3.76-4.128,3.76c-2.608,0-4.48-1.936-4.48-4.672c0-2.896,1.824-4.864,4.48-4.864c1.615,0,2.848,0.688,3.68,2.08
			l1.136-0.912c-1.071-1.616-2.688-2.4-4.863-2.4c-1.648,0-3.024,0.496-4.064,1.488c-1.232,1.168-1.84,2.704-1.84,4.608
			c0,2.32,1.072,4.208,2.944,5.232c0.768,0.416,1.743,0.672,2.88,0.672c3.487,0,5.712-2.176,5.712-5.824v-0.384H645.27z
			 M631.143,21.337h-4.352c0.128-1.216,1.008-1.968,2.175-1.968C630.263,19.369,631.062,20.073,631.143,21.337 M632.455,22.329
			v-0.24c0-2.368-1.344-3.792-3.44-3.792c-2.08,0-3.567,1.568-3.567,3.824c0,2.336,1.472,3.904,3.647,3.904
			c1.473,0,2.592-0.656,3.312-1.952l-0.929-0.624c-0.592,1.04-1.359,1.552-2.319,1.552c-1.376,0-2.368-1.008-2.368-2.56v-0.112
			H632.455z M618.887,24.521c0.561,1.008,1.488,1.504,2.816,1.504c1.584,0,2.607-0.944,2.607-2.271c0-1.168-0.688-1.68-2.08-2.128
			c-1.184-0.384-1.84-0.48-1.84-1.232c0-0.624,0.496-1.072,1.217-1.072c0.752,0,1.344,0.368,1.632,1.024l0.991-0.608
			c-0.384-0.912-1.312-1.424-2.544-1.424c-1.52,0-2.527,0.912-2.527,2.16c0,1.408,1.056,1.712,2.815,2.32
			c0.752,0.256,1.12,0.544,1.12,1.088c0,0.624-0.527,1.072-1.344,1.072s-1.424-0.368-1.824-1.136L618.887,24.521z M611.335,22.169
			c0-1.521,1.152-2.704,2.592-2.704c1.424,0,2.576,1.184,2.576,2.704c0,1.52-1.152,2.704-2.576,2.704S611.335,23.688,611.335,22.169
			 M610.039,22.169c0,1.04,0.384,1.968,1.136,2.72c0.736,0.736,1.696,1.136,2.752,1.136c1.04,0,2-0.416,2.752-1.152
			c0.736-0.72,1.136-1.664,1.136-2.704c0-1.04-0.399-2-1.136-2.72c-0.752-0.736-1.695-1.136-2.752-1.136
			c-1.056,0-2.016,0.384-2.752,1.12C610.423,20.169,610.039,21.129,610.039,22.169 M600.583,24.44v-8.896h0.88
			c1.968,0,3.328,0.032,4.272,0.832c0.943,0.784,1.439,2,1.439,3.616c0,1.616-0.512,2.864-1.439,3.632
			c-0.96,0.8-2.32,0.816-4.272,0.816H600.583z M599.223,25.721h2.688c1.855,0,3.36-0.048,4.688-1.072c1.312-1.008,2-2.592,2-4.64
			s-0.688-3.648-2-4.656c-1.392-1.072-3.04-1.072-5.184-1.072h-2.192V25.721z M590.871,22.169c0,1.647-0.896,2.608-2.336,2.608
			c-1.521,0-2.384-0.976-2.384-2.704c0-1.632,0.863-2.576,2.336-2.576C589.863,19.497,590.871,20.505,590.871,22.169
			 M592.087,18.569h-1.248v1.328c-0.528-1.04-1.439-1.584-2.624-1.584c-2,0-3.359,1.424-3.359,3.808c0,2.32,1.375,3.824,3.424,3.824
			c1.104,0,2.031-0.56,2.592-1.584v1.2c0,0.656-0.032,1.184-0.304,1.632c-0.368,0.624-1.072,0.944-2.049,0.944
			c-1.376,0-2.128-0.624-2.128-1.68v-0.096h-1.376c0.048,1.792,1.296,2.848,3.488,2.848c1.264,0,2.224-0.368,2.88-1.072
			c0.672-0.72,0.704-1.52,0.704-2.544V18.569z M576.567,25.721h1.216v-3.696c0-0.784,0-1.376,0.416-1.888
			c0.399-0.496,1.023-0.768,1.744-0.768c1.279,0,1.903,0.704,1.903,2.144v4.208h1.216v-4.864c0-1.616-1.023-2.544-2.688-2.544
			c-1.12,0-1.984,0.432-2.592,1.36v-1.104h-1.216V25.721z M572.551,15.129c0,0.512,0.4,0.896,0.896,0.896s0.896-0.384,0.896-0.88
			s-0.399-0.912-0.896-0.912S572.551,14.633,572.551,15.129 M572.839,25.721h1.216v-7.152h-1.216V25.721z M569.175,22.185
			c0,1.696-0.928,2.656-2.399,2.656c-1.425,0-2.32-1.024-2.32-2.816c0-1.584,0.88-2.496,2.304-2.496
			C568.199,19.529,569.175,20.569,569.175,22.185 M570.359,13.608h-1.217v6.304c-0.544-1.056-1.424-1.6-2.607-1.6
			c-2,0-3.376,1.456-3.376,3.856c0,2.336,1.376,3.855,3.424,3.855c1.104,0,2.032-0.576,2.592-1.6v1.296h1.185V13.608z
			 M560.152,22.217c0,1.648-0.896,2.592-2.336,2.592c-1.521,0-2.385-0.976-2.385-2.704c0-1.632,0.864-2.576,2.336-2.576
			C559.144,19.529,560.152,20.553,560.152,22.217 M561.336,18.569h-1.216v1.344c-0.544-1.056-1.424-1.6-2.624-1.6
			c-2,0-3.36,1.456-3.36,3.856c0,2.336,1.376,3.855,3.424,3.855c1.104,0,2.017-0.56,2.593-1.6v1.296h1.184V18.569z M546.376,22.169
			c0-1.521,1.152-2.704,2.592-2.704c1.424,0,2.576,1.184,2.576,2.704c0,1.52-1.152,2.704-2.576,2.704S546.376,23.688,546.376,22.169
			 M545.08,22.169c0,1.04,0.384,1.968,1.136,2.72c0.736,0.736,1.696,1.136,2.752,1.136c1.04,0,2-0.416,2.752-1.152
			c0.736-0.72,1.136-1.664,1.136-2.704c0-1.04-0.399-2-1.136-2.72c-0.752-0.736-1.695-1.136-2.752-1.136
			c-1.056,0-2.016,0.384-2.752,1.12C545.464,20.169,545.08,21.129,545.08,22.169 M538.568,25.721h5.68v-1.296h-4.32V14.281h-1.359
			V25.721z"/>
		<path clip-path="url(#SVGID_32_)" fill="#808285" d="M769.396,68.792l0.832,0.432c1.232-2.288,1.856-4.864,1.856-7.728
			c0-2.96-0.576-5.504-1.856-7.76l-0.832,0.384c1.152,2.272,1.648,4.64,1.648,7.376C771.045,64.312,770.549,66.681,769.396,68.792
			 M763.781,65.721h1.328V54.393h-2.896l-0.768,1.184h2.336V65.721z M752.389,62.393c0-1.504,0.929-2.544,2.288-2.544
			c1.521,0,2.433,0.976,2.433,2.528c0,1.52-0.944,2.512-2.353,2.512C753.317,64.889,752.389,63.945,752.389,62.393 M753.301,59.257
			l3.696-4.8l-1.185-0.624l-2.607,3.68c-1.264,1.792-2.225,3.12-2.225,4.768c0,2.24,1.408,3.744,3.505,3.744
			c2.495,0,4.031-1.488,4.031-3.776c0-2.096-1.407-3.536-3.456-3.536C754.421,58.712,753.861,58.889,753.301,59.257 M748.149,61.993
			h-9.36v0.912h9.36V61.993z M748.149,59h-9.36v0.912h9.36V59z M729.221,65.721h1.216v-3.696c0-0.784,0-1.376,0.416-1.888
			c0.4-0.496,1.024-0.768,1.744-0.768c1.28,0,1.904,0.704,1.904,2.144v4.208h1.216v-4.864c0-1.616-1.023-2.544-2.688-2.544
			c-1.12,0-1.984,0.432-2.593,1.36v-1.104h-1.216V65.721z M727.429,68.792c-1.151-2.112-1.647-4.48-1.647-7.296
			c0-2.736,0.496-5.104,1.647-7.376l-0.832-0.384c-1.279,2.256-1.855,4.8-1.855,7.76c0,2.864,0.624,5.44,1.855,7.728L727.429,68.792
			z M712.165,62.168c0-1.696,0.928-2.672,2.399-2.672c1.425,0,2.321,1.024,2.321,2.816c0,1.584-0.88,2.512-2.305,2.512
			C713.141,64.825,712.165,63.785,712.165,62.168 M710.98,69.208h1.217v-4.784c0.544,1.056,1.424,1.6,2.607,1.6
			c2,0,3.376-1.44,3.376-3.856c0-2.352-1.376-3.856-3.424-3.856c-1.104,0-2.048,0.56-2.607,1.6v-1.344h-1.169V69.208z
			 M703.43,58.569h-1.216v4.272c0,2.096,1.135,3.184,3.216,3.184c2.144,0,3.264-1.12,3.264-3.28v-4.176h-1.217v3.52
			c0,1.888-0.447,2.768-2.016,2.768c-1.567,0-2.031-0.88-2.031-2.768V58.569z M694.006,62.168c0-1.52,1.152-2.704,2.592-2.704
			c1.424,0,2.576,1.184,2.576,2.704s-1.152,2.704-2.576,2.704S694.006,63.688,694.006,62.168 M692.71,62.168
			c0,1.04,0.384,1.968,1.136,2.72c0.736,0.736,1.696,1.136,2.752,1.136c1.04,0,2-0.416,2.752-1.152
			c0.736-0.72,1.137-1.664,1.137-2.704s-0.4-2-1.137-2.72c-0.752-0.736-1.695-1.136-2.752-1.136c-1.056,0-2.016,0.384-2.752,1.12
			C693.094,60.168,692.71,61.128,692.71,62.168 M687.766,65.721h1.217v-3.488c0-1.872,0.64-2.8,1.936-2.8
			c0.224,0,0.48,0.048,0.752,0.144l0.416-1.104c-0.271-0.096-0.544-0.144-0.832-0.144c-1.088,0-1.76,0.512-2.4,1.728v-1.488h-1.088
			V65.721z M681.222,59.816v1.216h3.265c-0.16,2.24-1.856,3.76-4.128,3.76c-2.608,0-4.48-1.936-4.48-4.672
			c0-2.896,1.824-4.864,4.48-4.864c1.615,0,2.848,0.688,3.68,2.08l1.136-0.912c-1.072-1.616-2.688-2.4-4.864-2.4
			c-1.647,0-3.023,0.496-4.063,1.488c-1.232,1.168-1.84,2.704-1.84,4.608c0,2.32,1.071,4.208,2.943,5.232
			c0.769,0.416,1.744,0.672,2.881,0.672c3.487,0,5.712-2.176,5.712-5.824v-0.384H681.222z M667.094,61.336h-4.352
			c0.128-1.216,1.008-1.968,2.176-1.968C666.214,59.369,667.014,60.073,667.094,61.336 M668.406,62.329v-0.24
			c0-2.368-1.345-3.792-3.44-3.792c-2.08,0-3.567,1.568-3.567,3.824c0,2.336,1.472,3.904,3.647,3.904
			c1.472,0,2.592-0.656,3.312-1.952l-0.929-0.624C666.838,64.489,666.07,65,665.11,65c-1.376,0-2.368-1.008-2.368-2.56v-0.112
			H668.406z M654.838,64.521c0.561,1.008,1.488,1.504,2.816,1.504c1.584,0,2.607-0.944,2.607-2.272c0-1.168-0.688-1.68-2.08-2.128
			c-1.184-0.384-1.84-0.48-1.84-1.232c0-0.624,0.496-1.072,1.216-1.072c0.752,0,1.345,0.368,1.632,1.024l0.992-0.608
			c-0.384-0.912-1.312-1.424-2.544-1.424c-1.52,0-2.527,0.912-2.527,2.16c0,1.408,1.056,1.712,2.815,2.32
			c0.752,0.256,1.12,0.544,1.12,1.088c0,0.624-0.528,1.072-1.344,1.072c-0.816,0-1.424-0.368-1.824-1.136L654.838,64.521z
			 M647.286,62.168c0-1.52,1.151-2.704,2.592-2.704c1.424,0,2.576,1.184,2.576,2.704s-1.152,2.704-2.576,2.704
			S647.286,63.688,647.286,62.168 M645.99,62.168c0,1.04,0.384,1.968,1.136,2.72c0.736,0.736,1.696,1.136,2.752,1.136
			c1.04,0,2-0.416,2.752-1.152c0.736-0.72,1.136-1.664,1.136-2.704s-0.399-2-1.136-2.72c-0.752-0.736-1.696-1.136-2.752-1.136
			s-2.016,0.384-2.752,1.12C646.374,60.168,645.99,61.128,645.99,62.168 M636.534,64.44v-8.896h0.88
			c1.968,0,3.328,0.032,4.271,0.832c0.944,0.784,1.44,2,1.44,3.616c0,1.616-0.512,2.864-1.44,3.632
			c-0.96,0.8-2.319,0.816-4.271,0.816H636.534z M635.174,65.721h2.688c1.855,0,3.359-0.048,4.688-1.072c1.312-1.008,2-2.592,2-4.64
			c0-2.048-0.688-3.648-2-4.656c-1.392-1.072-3.04-1.072-5.184-1.072h-2.192V65.721z M626.822,62.168
			c0,1.648-0.896,2.608-2.336,2.608c-1.521,0-2.385-0.976-2.385-2.704c0-1.632,0.864-2.576,2.336-2.576
			C625.814,59.497,626.822,60.505,626.822,62.168 M628.038,58.569h-1.248v1.328c-0.528-1.04-1.44-1.584-2.624-1.584
			c-2,0-3.36,1.424-3.36,3.808c0,2.32,1.377,3.824,3.425,3.824c1.104,0,2.031-0.56,2.592-1.584v1.2c0,0.656-0.032,1.184-0.305,1.632
			c-0.367,0.624-1.071,0.944-2.048,0.944c-1.376,0-2.128-0.624-2.128-1.68v-0.096h-1.376c0.048,1.792,1.296,2.848,3.488,2.848
			c1.264,0,2.224-0.368,2.88-1.072c0.672-0.72,0.704-1.52,0.704-2.544V58.569z M612.519,65.721h1.217v-3.696
			c0-0.784,0-1.376,0.416-1.888c0.399-0.496,1.023-0.768,1.743-0.768c1.28,0,1.904,0.704,1.904,2.144v4.208h1.216v-4.864
			c0-1.616-1.023-2.544-2.688-2.544c-1.12,0-1.984,0.432-2.592,1.36v-1.104h-1.217V65.721z M608.503,55.128
			c0,0.512,0.4,0.896,0.896,0.896c0.495,0,0.896-0.384,0.896-0.88s-0.4-0.912-0.896-0.912
			C608.903,54.232,608.503,54.633,608.503,55.128 M608.791,65.721h1.216v-7.152h-1.216V65.721z M605.127,62.185
			c0,1.696-0.928,2.656-2.4,2.656c-1.424,0-2.319-1.024-2.319-2.816c0-1.584,0.88-2.496,2.304-2.496
			C604.151,59.529,605.127,60.569,605.127,62.185 M606.311,53.608h-1.216v6.304c-0.544-1.056-1.424-1.6-2.607-1.6
			c-2,0-3.376,1.456-3.376,3.856c0,2.336,1.376,3.856,3.424,3.856c1.104,0,2.032-0.576,2.592-1.6v1.296h1.184V53.608z
			 M596.103,62.217c0,1.648-0.896,2.592-2.336,2.592c-1.52,0-2.384-0.976-2.384-2.704c0-1.632,0.864-2.576,2.336-2.576
			C595.095,59.529,596.103,60.553,596.103,62.217 M597.287,58.569h-1.216v1.344c-0.544-1.056-1.425-1.6-2.624-1.6
			c-2,0-3.36,1.456-3.36,3.856c0,2.336,1.376,3.856,3.424,3.856c1.104,0,2.017-0.56,2.592-1.6v1.296h1.185V58.569z M582.327,62.168
			c0-1.52,1.151-2.704,2.592-2.704c1.424,0,2.576,1.184,2.576,2.704s-1.152,2.704-2.576,2.704S582.327,63.688,582.327,62.168
			 M581.031,62.168c0,1.04,0.384,1.968,1.136,2.72c0.736,0.736,1.696,1.136,2.752,1.136c1.04,0,2-0.416,2.752-1.152
			c0.736-0.72,1.136-1.664,1.136-2.704s-0.399-2-1.136-2.72c-0.752-0.736-1.696-1.136-2.752-1.136s-2.016,0.384-2.752,1.12
			C581.415,60.168,581.031,61.128,581.031,62.168 M574.52,65.721h5.681v-1.296h-4.32V54.281h-1.36V65.721z M568.472,62.777h3.648
			v-1.232h-3.648V62.777z M559.784,65.721H561v-3.696c0-0.784,0-1.376,0.416-1.888c0.4-0.496,1.023-0.768,1.744-0.768
			c1.279,0,1.904,0.704,1.904,2.144v4.208h1.216v-4.864c0-1.616-1.024-2.544-2.688-2.544c-1.12,0-1.983,0.432-2.592,1.36v-1.104
			h-1.216V65.721z M551.48,62.168c0-1.52,1.151-2.704,2.592-2.704c1.424,0,2.576,1.184,2.576,2.704s-1.152,2.704-2.576,2.704
			S551.48,63.688,551.48,62.168 M550.184,62.168c0,1.04,0.385,1.968,1.137,2.72c0.735,0.736,1.695,1.136,2.752,1.136
			c1.04,0,2-0.416,2.752-1.152c0.735-0.72,1.136-1.664,1.136-2.704s-0.4-2-1.136-2.72c-0.752-0.736-1.696-1.136-2.752-1.136
			c-1.057,0-2.017,0.384-2.752,1.12C550.568,60.168,550.184,61.128,550.184,62.168 M538.568,65.721h1.359v-8.592l8.305,9.04V54.281
			h-1.36v8.688l-8.304-9.136V65.721z"/>
	</g>
	<line clip-path="url(#SVGID_2_)" fill="none" stroke="#006227" stroke-width="2" x1="478" y1="14" x2="523" y2="14"/>
	
		<line clip-path="url(#SVGID_2_)" fill="none" stroke="#006227" stroke-width="2" stroke-dasharray="9,9" x1="478" y1="53.5" x2="523" y2="53.5"/>
	<line clip-path="url(#SVGID_2_)" fill="none" stroke="#808285" stroke-width="2" x1="478" y1="27" x2="523" y2="27"/>
	
		<line clip-path="url(#SVGID_2_)" fill="none" stroke="#808285" stroke-width="2" stroke-dasharray="9,9" x1="478" y1="66.5" x2="523" y2="66.5"/>
	<line clip-path="url(#SVGID_2_)" fill="none" stroke="#F9A25E" stroke-width="2" x1="478" y1="20.5" x2="523" y2="20.5"/>
	
		<line clip-path="url(#SVGID_2_)" fill="none" stroke="#F9A25E" stroke-width="2" stroke-dasharray="9,9" x1="478" y1="60" x2="523" y2="60"/>
	<g clip-path="url(#SVGID_2_)">
		<defs>
			<rect id="SVGID_33_" x="-9" y="-1" width="930" height="567.282"/>
		</defs>
		<clipPath id="SVGID_34_">
			<use xlink:href="#SVGID_33_"  overflow="visible"/>
		</clipPath>
		<path clip-path="url(#SVGID_34_)" fill="#808285" d="M811.309,558.002h0.725v-6.189h-1.581l-0.42,0.646h1.276V558.002z
			 M805.907,562.278c0,0.479,0.374,0.854,0.868,0.854s0.885-0.375,0.885-0.854c0-0.48-0.391-0.869-0.885-0.869
			C806.296,561.409,805.907,561.798,805.907,562.278 M796.622,560.283v0.195c0,1.696,1.26,2.804,3.255,2.804
			c2.28,0,3.598-1.198,3.598-3.119c0-1.456-0.764-2.431-2.038-2.64c1.199-0.315,1.903-1.23,1.903-2.505
			c0-1.741-1.213-2.85-3.208-2.85c-2.07,0-3.225,1.033-3.315,2.864h1.261c0.06-1.156,0.779-1.786,2.024-1.786
			c1.186,0,1.905,0.721,1.905,1.831c0,1.26-0.75,1.921-2.235,1.921c-0.119,0-0.225-0.015-0.345-0.015v1.048
			c0.135-0.015,0.255-0.015,0.375-0.015c1.545,0,2.34,0.72,2.34,2.101c0,1.305-0.795,2.071-2.22,2.071
			c-1.23,0-1.995-0.69-1.995-1.786v-0.12H796.622z M791.117,562.997h1.243v-10.618h-2.714l-0.72,1.108h2.19V562.997z
			 M782.686,563.282c2.251,0,3.704-1.993,3.704-5.563c0-3.571-1.438-5.55-3.733-5.55c-2.236,0-3.704,2.009-3.704,5.55
			S780.42,563.282,782.686,563.282 M782.671,562.234c-1.486,0-2.401-1.621-2.401-4.531c0-2.896,0.915-4.501,2.401-4.501
			c1.561,0,2.401,1.545,2.401,4.531C785.072,560.703,784.231,562.234,782.671,562.234 M776.775,561.784h-4.064l1.68-1.815
			c1.727-1.875,2.714-3.286,2.714-4.829c0-1.848-1.228-2.971-3.329-2.971c-2.115,0-3.358,1.184-3.358,3.21
			c0,0.09,0.015,0.194,0.015,0.283h1.198v-0.119c0-1.425,0.75-2.206,2.101-2.206c1.291,0,2.116,0.797,2.116,1.877
			c0,1.394-1.336,2.819-3.271,5.1l-2.264,2.684h6.464V561.784z M762.797,562.997h1.138v-11.353h-1.138V562.997z M759.407,559.713
			c0,1.546-0.841,2.432-2.191,2.432c-1.425,0-2.236-0.916-2.236-2.536c0-1.531,0.812-2.416,2.191-2.416
			C758.462,557.192,759.407,558.152,759.407,559.713 M760.515,556.294h-1.138v1.259c-0.51-0.99-1.335-1.498-2.461-1.498
			c-1.876,0-3.149,1.362-3.149,3.613c0,2.191,1.288,3.614,3.209,3.614c1.036,0,1.892-0.523,2.432-1.498v1.213h1.107V556.294z
			 M746.298,557.237v5.76h1.138v-5.76h1.261v-0.943h-1.261v-2.699h-1.138v2.699h-1.229v0.943H746.298z M743.238,558.89h-4.082
			c0.119-1.142,0.944-1.848,2.041-1.848C742.412,557.042,743.163,557.703,743.238,558.89 M744.466,559.817v-0.225
			c0-2.221-1.258-3.554-3.224-3.554c-1.951,0-3.345,1.469-3.345,3.583c0,2.191,1.378,3.66,3.419,3.66
			c1.381,0,2.431-0.614,3.104-1.829l-0.869-0.585c-0.554,0.976-1.274,1.456-2.175,1.456c-1.291,0-2.221-0.946-2.221-2.402v-0.104
			H744.466z M728.598,562.997h1.273v-9.51h3.029v-1.213h-7.332v1.213h3.029V562.997z M718.488,553.068
			c0,0.479,0.375,0.839,0.839,0.839s0.839-0.36,0.839-0.824c0-0.465-0.375-0.854-0.839-0.854S718.488,552.604,718.488,553.068
			 M718.758,562.997h1.138v-6.703h-1.138V562.997z M710.418,562.997h1.138v-3.464c0-0.735,0-1.291,0.392-1.771
			c0.375-0.466,0.96-0.721,1.635-0.721c1.201,0,1.786,0.66,1.786,2.012v3.943h1.138v-4.56c0-1.516-0.958-2.383-2.518-2.383
			c-1.052,0-1.861,0.403-2.447,1.272v-5.683h-1.123V562.997z M708.9,561.409c-0.704,0.51-1.35,0.766-2.069,0.766
			c-1.396,0-2.4-1.081-2.4-2.432c0-1.591,1.021-2.581,2.49-2.581c0.66,0,1.29,0.21,1.86,0.585v-1.229
			c-0.615-0.299-1.335-0.464-2.085-0.464c-2.011,0-3.493,1.468-3.493,3.658c0,2.116,1.363,3.569,3.447,3.569
			c0.87,0,1.636-0.18,2.25-0.539V561.409z M696.677,556.294h-1.139v4.004c0,1.967,1.063,2.984,3.014,2.984
			c2.011,0,3.061-1.048,3.061-3.074v-3.914h-1.14v3.3c0,1.771-0.42,2.596-1.891,2.596c-1.47,0-1.905-0.825-1.905-2.596V556.294z
			 M692.748,558.89h-4.081c0.12-1.142,0.945-1.848,2.041-1.848C691.923,557.042,692.673,557.703,692.748,558.89 M693.977,559.817
			v-0.225c0-2.221-1.259-3.554-3.224-3.554c-1.951,0-3.345,1.469-3.345,3.583c0,2.191,1.379,3.66,3.42,3.66
			c1.38,0,2.43-0.614,3.104-1.829l-0.869-0.585c-0.555,0.976-1.274,1.456-2.175,1.456c-1.291,0-2.221-0.946-2.221-2.402v-0.104
			H693.977z M680.688,562.997h1.139l0.015-3.539l3.45,3.539h1.604l-3.645-3.629l3.345-3.074h-1.53l-3.225,3.044l-0.015-7.693h-1.139
			V562.997z M677.344,559.713c0,1.546-0.841,2.432-2.19,2.432c-1.427,0-2.236-0.916-2.236-2.536c0-1.531,0.81-2.416,2.19-2.416
			C676.397,557.192,677.344,558.152,677.344,559.713 M678.452,556.294h-1.139v1.259c-0.51-0.99-1.336-1.498-2.461-1.498
			c-1.876,0-3.148,1.362-3.148,3.613c0,2.191,1.288,3.614,3.209,3.614c1.035,0,1.891-0.523,2.431-1.498v1.213h1.108V556.294z
			 M666.679,562.997h1.273v-9.51h3.029v-1.213h-7.333v1.213h3.03V562.997z M657.019,562.997h1.139v-4.56
			c0-1.516-0.898-2.383-2.385-2.383c-1.02,0-1.801,0.434-2.386,1.362c-0.389-0.898-1.168-1.362-2.249-1.362
			c-1.005,0-1.771,0.419-2.311,1.272v-1.034h-1.139v6.704h1.139v-3.464c0-0.165-0.016-0.33-0.016-0.479
			c0-0.512,0.061-0.932,0.346-1.291c0.36-0.466,0.916-0.721,1.53-0.721c1.142,0,1.666,0.66,1.666,2.012v3.943h1.139v-3.464
			c0-0.149-0.016-0.285-0.016-0.42c0-0.556,0.075-0.976,0.36-1.351c0.361-0.466,0.901-0.721,1.516-0.721
			c1.142,0,1.666,0.66,1.666,2.012V562.997z M639.902,559.668c0-1.426,1.08-2.535,2.431-2.535c1.336,0,2.416,1.109,2.416,2.535
			s-1.08,2.536-2.416,2.536C640.998,562.204,639.902,561.094,639.902,559.668 M638.688,559.668c0,0.976,0.36,1.847,1.064,2.552
			c0.69,0.688,1.59,1.062,2.58,1.062c0.976,0,1.876-0.389,2.581-1.078c0.688-0.675,1.062-1.561,1.062-2.536
			c0-0.975-0.374-1.876-1.062-2.551c-0.705-0.688-1.59-1.062-2.581-1.062c-0.99,0-1.89,0.358-2.58,1.048
			C639.049,557.792,638.688,558.693,638.688,559.668 M634.054,562.997h1.14v-3.269c0-1.756,0.599-2.626,1.814-2.626
			c0.209,0,0.45,0.045,0.705,0.135l0.389-1.033c-0.255-0.09-0.51-0.135-0.778-0.135c-1.021,0-1.651,0.479-2.25,1.618v-1.395h-1.02
			V562.997z M630.08,562.997h1.138v-5.76h1.785v-0.943h-1.785v-1.785c0-1.291,0.03-1.906,0.885-1.906c0.301,0,0.601,0.075,0.9,0.24
			v-1.184c-0.315-0.104-0.646-0.149-0.99-0.149c-1.604,0-1.933,0.838-1.933,2.849v1.936h-1.29v0.943h1.29V562.997z M622.055,559.684
			c0,1.59-0.871,2.491-2.251,2.491c-1.336,0-2.176-0.962-2.176-2.642c0-1.486,0.825-2.341,2.161-2.341
			C621.139,557.192,622.055,558.167,622.055,559.684 M623.163,551.645h-1.138v5.908c-0.512-0.989-1.337-1.498-2.446-1.498
			c-1.876,0-3.164,1.362-3.164,3.613c0,2.191,1.288,3.614,3.209,3.614c1.035,0,1.905-0.539,2.431-1.498v1.213h1.108V551.645z
			 M614.045,558.89h-4.082c0.12-1.142,0.945-1.848,2.041-1.848C613.219,557.042,613.97,557.703,614.045,558.89 M615.272,559.817
			v-0.225c0-2.221-1.258-3.554-3.224-3.554c-1.951,0-3.344,1.469-3.344,3.583c0,2.191,1.378,3.66,3.419,3.66
			c1.381,0,2.43-0.614,3.104-1.829l-0.868-0.585c-0.555,0.976-1.275,1.456-2.176,1.456c-1.291,0-2.221-0.946-2.221-2.402v-0.104
			H615.272z M605.66,557.237v5.76h1.138v-5.76h1.26v-0.943h-1.26v-2.699h-1.138v2.699h-1.23v0.943H605.66z M598.083,559.668
			c0-1.591,0.871-2.506,2.251-2.506c1.336,0,2.176,0.96,2.176,2.642c0,1.484-0.825,2.355-2.161,2.355
			C598.999,562.159,598.083,561.184,598.083,559.668 M596.975,566.252h1.139v-4.468c0.51,0.989,1.336,1.498,2.445,1.498
			c1.876,0,3.164-1.348,3.164-3.614c0-2.206-1.288-3.613-3.209-3.613c-1.035,0-1.921,0.523-2.445,1.498v-1.26h-1.094V566.252z
			 M593.645,559.713c0,1.546-0.84,2.432-2.19,2.432c-1.425,0-2.236-0.916-2.236-2.536c0-1.531,0.812-2.416,2.191-2.416
			C592.7,557.192,593.645,558.152,593.645,559.713 M594.753,556.294h-1.138v1.259c-0.511-0.99-1.335-1.498-2.461-1.498
			c-1.875,0-3.149,1.362-3.149,3.613c0,2.191,1.289,3.614,3.209,3.614c1.036,0,1.891-0.523,2.431-1.498v1.213h1.108V556.294z
			 M585.14,559.684c0,1.59-0.87,2.491-2.25,2.491c-1.336,0-2.176-0.962-2.176-2.642c0-1.486,0.825-2.341,2.161-2.341
			C584.225,557.192,585.14,558.167,585.14,559.684 M586.249,551.645h-1.14v5.908c-0.51-0.989-1.334-1.498-2.445-1.498
			c-1.875,0-3.164,1.362-3.164,3.613c0,2.191,1.289,3.614,3.209,3.614c1.036,0,1.906-0.539,2.431-1.498v1.213h1.109V551.645z
			 M574.22,554.673l1.709,3.946h-3.419L574.22,554.673z M574.22,551.854l-4.86,11.143h1.381l1.395-3.285h4.185l1.395,3.285h1.38
			L574.22,551.854z M562.176,562.278c0,0.479,0.374,0.854,0.869,0.854c0.494,0,0.884-0.375,0.884-0.854
			c0-0.48-0.39-0.869-0.884-0.869C562.564,561.409,562.176,561.798,562.176,562.278 M557.181,565.879l0.78,0.403
			c1.154-2.143,1.738-4.559,1.738-7.244c0-2.775-0.539-5.161-1.738-7.273l-0.78,0.357c1.08,2.13,1.545,4.352,1.545,6.916
			C558.726,561.679,558.261,563.899,557.181,565.879 M551.031,561.874c0.523,0.944,1.393,1.408,2.639,1.408
			c1.485,0,2.444-0.883,2.444-2.129c0-1.095-0.645-1.575-1.949-1.995c-1.111-0.36-1.727-0.45-1.727-1.156
			c0-0.585,0.466-1.005,1.142-1.005c0.705,0,1.261,0.346,1.529,0.96l0.93-0.569c-0.359-0.854-1.229-1.333-2.384-1.333
			c-1.427,0-2.369,0.853-2.369,2.022c0,1.321,0.987,1.606,2.639,2.176c0.705,0.24,1.051,0.511,1.051,1.021
			c0,0.586-0.496,1.006-1.261,1.006c-0.766,0-1.336-0.345-1.711-1.066L551.031,561.874z M547.971,553.068
			c0,0.479,0.375,0.839,0.839,0.839s0.839-0.36,0.839-0.824c0-0.465-0.375-0.854-0.839-0.854S547.971,552.604,547.971,553.068
			 M548.241,562.997h1.138v-6.703h-1.138V562.997z M541.446,561.874c0.523,0.944,1.393,1.408,2.639,1.408
			c1.486,0,2.444-0.883,2.444-2.129c0-1.095-0.645-1.575-1.949-1.995c-1.111-0.36-1.727-0.45-1.727-1.156
			c0-0.585,0.466-1.005,1.142-1.005c0.705,0,1.261,0.346,1.53,0.96l0.929-0.569c-0.359-0.854-1.229-1.333-2.384-1.333
			c-1.427,0-2.369,0.853-2.369,2.022c0,1.321,0.987,1.606,2.639,2.176c0.706,0.24,1.051,0.511,1.051,1.021
			c0,0.586-0.496,1.006-1.261,1.006c-0.766,0-1.336-0.345-1.71-1.066L541.446,561.874z M535.355,566.252h1.289l4.499-9.958h-1.26
			l-2.069,4.808l-1.948-4.808h-1.32l2.624,6.035L535.355,566.252z M532.131,562.997h1.138v-11.353h-1.138V562.997z M528.741,559.713
			c0,1.546-0.841,2.432-2.191,2.432c-1.425,0-2.235-0.916-2.235-2.536c0-1.531,0.811-2.416,2.19-2.416
			C527.796,557.192,528.741,558.152,528.741,559.713 M529.85,556.294h-1.139v1.259c-0.51-0.99-1.335-1.498-2.461-1.498
			c-1.875,0-3.149,1.362-3.149,3.613c0,2.191,1.289,3.614,3.209,3.614c1.036,0,1.892-0.523,2.432-1.498v1.213h1.108V556.294z
			 M515.332,562.997h1.138v-3.464c0-0.735,0-1.291,0.39-1.771c0.375-0.466,0.961-0.721,1.637-0.721c1.2,0,1.786,0.66,1.786,2.012
			v3.943h1.138v-4.56c0-1.516-0.959-2.383-2.52-2.383c-1.051,0-1.86,0.403-2.431,1.272v-1.034h-1.138V562.997z M512.002,559.713
			c0,1.546-0.841,2.432-2.191,2.432c-1.426,0-2.235-0.916-2.235-2.536c0-1.531,0.81-2.416,2.19-2.416
			C511.056,557.192,512.002,558.152,512.002,559.713 M513.109,556.294h-1.138v1.259c-0.51-0.99-1.336-1.498-2.461-1.498
			c-1.876,0-3.148,1.362-3.148,3.613c0,2.191,1.288,3.614,3.209,3.614c1.034,0,1.891-0.523,2.431-1.498v1.213h1.107V556.294z
			 M501.005,561.409c-0.705,0.51-1.35,0.766-2.07,0.766c-1.395,0-2.399-1.081-2.399-2.432c0-1.591,1.02-2.581,2.49-2.581
			c0.659,0,1.289,0.21,1.859,0.585v-1.229c-0.615-0.299-1.335-0.464-2.085-0.464c-2.01,0-3.493,1.468-3.493,3.658
			c0,2.116,1.363,3.569,3.448,3.569c0.87,0,1.635-0.18,2.25-0.539V561.409z M488.075,559.668c0-1.426,1.081-2.535,2.431-2.535
			c1.336,0,2.416,1.109,2.416,2.535s-1.08,2.536-2.416,2.536C489.171,562.204,488.075,561.094,488.075,559.668 M486.862,559.668
			c0,0.976,0.359,1.847,1.063,2.552c0.69,0.688,1.59,1.062,2.58,1.062c0.976,0,1.876-0.389,2.581-1.078
			c0.689-0.675,1.063-1.561,1.063-2.536c0-0.975-0.374-1.876-1.063-2.551c-0.705-0.688-1.59-1.062-2.581-1.062
			c-0.99,0-1.89,0.358-2.58,1.048C487.222,557.792,486.862,558.693,486.862,559.668 M479.122,562.997h1.138v-3.464
			c0-0.735,0-1.291,0.392-1.771c0.375-0.466,0.96-0.721,1.635-0.721c1.201,0,1.786,0.66,1.786,2.012v3.943h1.138v-4.56
			c0-1.516-0.958-2.383-2.519-2.383c-1.051,0-1.86,0.403-2.446,1.272v-5.683h-1.123V562.997z M471.143,557.237v5.76h1.139v-5.76
			h1.26v-0.943h-1.26v-2.699h-1.139v2.699h-1.229v0.943H471.143z M464.228,561.874c0.524,0.944,1.394,1.408,2.64,1.408
			c1.484,0,2.443-0.883,2.443-2.129c0-1.095-0.644-1.575-1.948-1.995c-1.111-0.36-1.727-0.45-1.727-1.156
			c0-0.585,0.465-1.005,1.142-1.005c0.704,0,1.26,0.346,1.529,0.96l0.93-0.569c-0.36-0.854-1.229-1.333-2.385-1.333
			c-1.426,0-2.369,0.853-2.369,2.022c0,1.321,0.988,1.606,2.64,2.176c0.705,0.24,1.051,0.511,1.051,1.021
			c0,0.586-0.496,1.006-1.261,1.006c-0.767,0-1.336-0.345-1.711-1.066L464.228,561.874z M457.146,559.668
			c0-1.426,1.08-2.535,2.432-2.535c1.335,0,2.416,1.109,2.416,2.535s-1.081,2.536-2.416,2.536
			C458.241,562.204,457.146,561.094,457.146,559.668 M455.933,559.668c0,0.976,0.359,1.847,1.063,2.552
			c0.689,0.688,1.59,1.062,2.581,1.062c0.975,0,1.876-0.389,2.581-1.078c0.688-0.675,1.062-1.561,1.062-2.536
			c0-0.975-0.375-1.876-1.062-2.551c-0.705-0.688-1.592-1.062-2.581-1.062c-0.991,0-1.892,0.358-2.581,1.048
			C456.292,557.792,455.933,558.693,455.933,559.668 M450.321,558.183h0.976c1.11,0,1.981-0.03,2.7-0.539
			c0.675-0.479,1.094-1.365,1.094-2.415c0-1.051-0.419-1.937-1.094-2.415c-0.719-0.509-1.605-0.539-2.7-0.539h-2.249v10.723h1.273
			V558.183z M450.321,557.029v-3.587h0.614c1.861,0,2.777,0.3,2.777,1.861c0,1.485-0.931,1.726-2.777,1.726H450.321z
			 M440.782,557.344c0,0.479,0.375,0.868,0.87,0.868c0.493,0,0.868-0.39,0.868-0.868c0-0.48-0.39-0.869-0.868-0.869
			C441.172,556.475,440.782,556.863,440.782,557.344 M439.658,565.129l0.824,0.328l1.813-3.885l-1.244-0.433L439.658,565.129z
			 M436.238,557.237v5.76h1.138v-5.76h1.26v-0.943h-1.26v-2.699h-1.138v2.699h-1.23v0.943H436.238z M429.323,561.874
			c0.524,0.944,1.393,1.408,2.639,1.408c1.486,0,2.444-0.883,2.444-2.129c0-1.095-0.644-1.575-1.948-1.995
			c-1.111-0.36-1.728-0.45-1.728-1.156c0-0.585,0.467-1.005,1.142-1.005c0.706,0,1.261,0.346,1.531,0.96l0.929-0.569
			c-0.36-0.854-1.229-1.333-2.385-1.333c-1.426,0-2.369,0.853-2.369,2.022c0,1.321,0.988,1.606,2.64,2.176
			c0.705,0.24,1.05,0.511,1.05,1.021c0,0.586-0.495,1.006-1.261,1.006c-0.765,0-1.335-0.345-1.71-1.066L429.323,561.874z
			 M427.147,558.89h-4.081c0.12-1.142,0.945-1.848,2.041-1.848C426.323,557.042,427.073,557.703,427.147,558.89 M428.377,559.817
			v-0.225c0-2.221-1.259-3.554-3.224-3.554c-1.951,0-3.346,1.469-3.346,3.583c0,2.191,1.379,3.66,3.42,3.66
			c1.38,0,2.431-0.614,3.104-1.829l-0.869-0.585c-0.555,0.976-1.275,1.456-2.175,1.456c-1.291,0-2.222-0.946-2.222-2.402v-0.104
			H428.377z M418.764,557.237v5.76h1.139v-5.76h1.26v-0.943h-1.26v-2.699h-1.139v2.699h-1.229v0.943H418.764z M410.604,557.237v5.76
			h1.139v-5.76h1.26v-0.943h-1.26v-2.699h-1.139v2.699h-1.229v0.943H410.604z M408.907,561.409c-0.705,0.51-1.351,0.766-2.07,0.766
			c-1.396,0-2.4-1.081-2.4-2.432c0-1.591,1.021-2.581,2.49-2.581c0.66,0,1.29,0.21,1.86,0.585v-1.229
			c-0.615-0.299-1.335-0.464-2.085-0.464c-2.011,0-3.493,1.468-3.493,3.658c0,2.116,1.363,3.569,3.448,3.569
			c0.87,0,1.635-0.18,2.25-0.539V561.409z M400.434,559.713c0,1.546-0.84,2.432-2.19,2.432c-1.425,0-2.236-0.916-2.236-2.536
			c0-1.531,0.812-2.416,2.191-2.416C399.489,557.192,400.434,558.152,400.434,559.713 M401.542,556.294h-1.138v1.259
			c-0.511-0.99-1.335-1.498-2.461-1.498c-1.877,0-3.149,1.362-3.149,3.613c0,2.191,1.288,3.614,3.209,3.614
			c1.036,0,1.891-0.523,2.431-1.498v1.213h1.108V556.294z M387.714,562.997h1.425l1.814-2.594l1.83,2.594h1.424l-2.594-3.464
			l2.519-3.239h-1.424l-1.755,2.399l-1.739-2.399h-1.425l2.504,3.239L387.714,562.997z M386.004,558.89h-4.082
			c0.121-1.142,0.946-1.848,2.041-1.848C385.179,557.042,385.929,557.703,386.004,558.89 M387.231,559.817v-0.225
			c0-2.221-1.258-3.554-3.224-3.554c-1.95,0-3.344,1.469-3.344,3.583c0,2.191,1.379,3.66,3.419,3.66
			c1.381,0,2.431-0.614,3.104-1.829l-0.868-0.585c-0.556,0.976-1.275,1.456-2.177,1.456c-1.29,0-2.221-0.946-2.221-2.402v-0.104
			H387.231z M370.164,561.874c0.524,0.944,1.394,1.408,2.639,1.408c1.486,0,2.445-0.883,2.445-2.129
			c0-1.095-0.645-1.575-1.949-1.995c-1.111-0.36-1.726-0.45-1.726-1.156c0-0.585,0.465-1.005,1.14-1.005
			c0.706,0,1.261,0.346,1.531,0.96l0.929-0.569c-0.36-0.854-1.229-1.333-2.385-1.333c-1.425,0-2.369,0.853-2.369,2.022
			c0,1.321,0.989,1.606,2.64,2.176c0.705,0.24,1.051,0.511,1.051,1.021c0,0.586-0.495,1.006-1.262,1.006
			c-0.765,0-1.335-0.345-1.71-1.066L370.164,561.874z M366.234,556.01l0.84,0.343l1.799-3.885l-1.245-0.434L366.234,556.01z
			 M361.344,562.997h1.139v-3.269c0-1.756,0.601-2.626,1.815-2.626c0.21,0,0.45,0.045,0.705,0.135l0.39-1.033
			c-0.255-0.09-0.51-0.135-0.779-0.135c-1.021,0-1.65,0.479-2.25,1.618v-1.395h-1.02V562.997z M358.45,558.89h-4.082
			c0.12-1.142,0.944-1.848,2.041-1.848C357.624,557.042,358.375,557.703,358.45,558.89 M359.678,559.817v-0.225
			c0-2.221-1.258-3.554-3.224-3.554c-1.951,0-3.344,1.469-3.344,3.583c0,2.191,1.378,3.66,3.419,3.66c1.38,0,2.43-0.614,3.104-1.829
			l-0.869-0.585c-0.554,0.976-1.274,1.456-2.175,1.456c-1.291,0-2.221-0.946-2.221-2.402v-0.104H359.678z M345.415,562.997h1.138
			v-3.464c0-0.735,0-1.291,0.391-1.771c0.375-0.466,0.961-0.721,1.636-0.721c1.2,0,1.786,0.66,1.786,2.012v3.943h1.138v-4.56
			c0-1.516-0.959-2.383-2.519-2.383c-1.051,0-1.861,0.403-2.446,1.272v-5.683h-1.123V562.997z M338.68,561.874
			c0.524,0.944,1.394,1.408,2.64,1.408c1.484,0,2.443-0.883,2.443-2.129c0-1.095-0.644-1.575-1.949-1.995
			c-1.11-0.36-1.726-0.45-1.726-1.156c0-0.585,0.465-1.005,1.141-1.005c0.705,0,1.262,0.346,1.531,0.96l0.928-0.569
			c-0.358-0.854-1.228-1.333-2.384-1.333c-1.426,0-2.369,0.853-2.369,2.022c0,1.321,0.988,1.606,2.64,2.176
			c0.705,0.24,1.051,0.511,1.051,1.021c0,0.586-0.496,1.006-1.261,1.006c-0.767,0-1.336-0.345-1.71-1.066L338.68,561.874z
			 M335.62,553.068c0,0.479,0.375,0.839,0.839,0.839s0.839-0.36,0.839-0.824c0-0.465-0.375-0.854-0.839-0.854
			S335.62,552.604,335.62,553.068 M335.89,562.997h1.139v-6.703h-1.139V562.997z M328.42,562.997h1.273v-5.295h4.38v-1.183h-4.38
			v-3.077h4.38v-1.168h-5.653V562.997z M326.618,565.879c-1.08-1.979-1.545-4.2-1.545-6.841c0-2.564,0.465-4.786,1.545-6.916
			l-0.78-0.357c-1.199,2.112-1.738,4.498-1.738,7.273c0,2.686,0.584,5.102,1.738,7.244L326.618,565.879z M312.309,559.668
			c0-1.591,0.87-2.506,2.25-2.506c1.336,0,2.177,0.96,2.177,2.642c0,1.484-0.825,2.355-2.161,2.355
			C313.224,562.159,312.309,561.184,312.309,559.668 M311.2,566.252h1.138v-4.468c0.511,0.989,1.336,1.498,2.446,1.498
			c1.876,0,3.164-1.348,3.164-3.614c0-2.206-1.288-3.613-3.208-3.613c-1.036,0-1.921,0.523-2.446,1.498v-1.26H311.2V566.252z
			 M304.118,556.294h-1.139v4.004c0,1.967,1.064,2.984,3.015,2.984c2.011,0,3.059-1.048,3.059-3.074v-3.914h-1.138v3.3
			c0,1.771-0.42,2.596-1.892,2.596c-1.47,0-1.905-0.825-1.905-2.596V556.294z M295.284,559.668c0-1.426,1.08-2.535,2.431-2.535
			c1.335,0,2.416,1.109,2.416,2.535s-1.081,2.536-2.416,2.536C296.379,562.204,295.284,561.094,295.284,559.668 M294.071,559.668
			c0,0.976,0.358,1.847,1.062,2.552c0.69,0.688,1.59,1.062,2.581,1.062c0.975,0,1.875-0.389,2.58-1.078
			c0.689-0.675,1.064-1.561,1.064-2.536c0-0.975-0.375-1.876-1.064-2.551c-0.705-0.688-1.59-1.062-2.58-1.062
			c-0.991,0-1.891,0.358-2.581,1.048C294.43,557.792,294.071,558.693,294.071,559.668 M289.436,562.997h1.139v-3.269
			c0-1.756,0.6-2.626,1.814-2.626c0.21,0,0.45,0.045,0.705,0.135l0.391-1.033c-0.256-0.09-0.511-0.135-0.78-0.135
			c-1.021,0-1.65,0.479-2.25,1.618v-1.395h-1.019V562.997z M286.061,559.668c0,1.546-0.841,2.446-2.19,2.446
			c-1.426,0-2.236-0.915-2.236-2.536c0-1.531,0.811-2.416,2.191-2.416C285.115,557.162,286.061,558.107,286.061,559.668
			 M287.199,556.294h-1.168v1.243c-0.496-0.975-1.352-1.482-2.461-1.482c-1.876,0-3.149,1.333-3.149,3.568
			c0,2.177,1.288,3.584,3.209,3.584c1.035,0,1.905-0.523,2.431-1.482v1.124c0,0.611-0.029,1.104-0.285,1.521
			c-0.346,0.582-1.006,0.88-1.921,0.88c-1.291,0-1.995-0.581-1.995-1.564v-0.09h-1.289c0.045,1.67,1.214,2.657,3.27,2.657
			c1.185,0,2.086-0.344,2.7-1.003c0.629-0.671,0.659-1.416,0.659-2.371V556.294z M273.701,558.89h-4.082
			c0.12-1.142,0.944-1.848,2.041-1.848C272.875,557.042,273.626,557.703,273.701,558.89 M274.929,559.817v-0.225
			c0-2.221-1.258-3.554-3.224-3.554c-1.951,0-3.344,1.469-3.344,3.583c0,2.191,1.378,3.66,3.419,3.66
			c1.381,0,2.43-0.614,3.104-1.829l-0.869-0.585c-0.554,0.976-1.274,1.456-2.175,1.456c-1.291,0-2.221-0.946-2.221-2.402v-0.104
			H274.929z M262.211,561.874c0.524,0.944,1.393,1.408,2.639,1.408c1.486,0,2.444-0.883,2.444-2.129
			c0-1.095-0.645-1.575-1.949-1.995c-1.11-0.36-1.726-0.45-1.726-1.156c0-0.585,0.465-1.005,1.141-1.005
			c0.705,0,1.261,0.346,1.531,0.96l0.928-0.569c-0.358-0.854-1.228-1.333-2.384-1.333c-1.426,0-2.369,0.853-2.369,2.022
			c0,1.321,0.988,1.606,2.639,2.176c0.706,0.24,1.052,0.511,1.052,1.021c0,0.586-0.496,1.006-1.262,1.006s-1.336-0.345-1.71-1.066
			L262.211,561.874z M255.129,559.668c0-1.426,1.081-2.535,2.431-2.535c1.336,0,2.416,1.109,2.416,2.535s-1.08,2.536-2.416,2.536
			C256.225,562.204,255.129,561.094,255.129,559.668 M253.916,559.668c0,0.976,0.359,1.847,1.062,2.552
			c0.69,0.688,1.592,1.062,2.581,1.062c0.976,0,1.876-0.389,2.581-1.078c0.689-0.675,1.063-1.561,1.063-2.536
			c0-0.975-0.374-1.876-1.063-2.551c-0.705-0.688-1.591-1.062-2.581-1.062c-0.989,0-1.891,0.358-2.581,1.048
			C254.275,557.792,253.916,558.693,253.916,559.668 M251.081,559.684c0,1.59-0.87,2.491-2.251,2.491
			c-1.335,0-2.176-0.962-2.176-2.642c0-1.486,0.825-2.341,2.16-2.341C250.166,557.192,251.081,558.167,251.081,559.684
			 M252.188,551.645h-1.138v5.908c-0.51-0.989-1.335-1.498-2.446-1.498c-1.876,0-3.164,1.362-3.164,3.613
			c0,2.191,1.288,3.614,3.209,3.614c1.036,0,1.906-0.539,2.432-1.498v1.213h1.107V551.645z M238.241,559.668
			c0,1.546-0.84,2.446-2.191,2.446c-1.425,0-2.236-0.915-2.236-2.536c0-1.531,0.812-2.416,2.191-2.416
			C237.296,557.162,238.241,558.107,238.241,559.668 M239.379,556.294h-1.168v1.243c-0.495-0.975-1.35-1.482-2.461-1.482
			c-1.876,0-3.149,1.333-3.149,3.568c0,2.177,1.288,3.584,3.209,3.584c1.036,0,1.906-0.523,2.432-1.482v1.124
			c0,0.611-0.03,1.104-0.285,1.521c-0.345,0.582-1.005,0.88-1.921,0.88c-1.29,0-1.996-0.581-1.996-1.564v-0.09h-1.288
			c0.045,1.67,1.213,2.657,3.269,2.657c1.187,0,2.086-0.344,2.7-1.003c0.629-0.671,0.659-1.416,0.659-2.371V556.294z
			 M224.831,562.997h1.138v-3.464c0-0.735,0-1.291,0.392-1.771c0.375-0.466,0.96-0.721,1.635-0.721c1.201,0,1.786,0.66,1.786,2.012
			v3.943h1.138v-4.56c0-1.516-0.958-2.383-2.518-2.383c-1.052,0-1.861,0.403-2.433,1.272v-1.034h-1.138V562.997z M221.066,553.068
			c0,0.479,0.374,0.839,0.84,0.839c0.464,0,0.839-0.36,0.839-0.824c0-0.465-0.375-0.854-0.839-0.854
			C221.44,552.229,221.066,552.604,221.066,553.068 M221.337,562.997h1.138v-6.703h-1.138V562.997z M217.902,559.684
			c0,1.59-0.871,2.491-2.251,2.491c-1.337,0-2.177-0.962-2.177-2.642c0-1.486,0.825-2.341,2.161-2.341
			C216.986,557.192,217.902,558.167,217.902,559.684 M219.01,551.645h-1.138v5.908c-0.511-0.989-1.336-1.498-2.446-1.498
			c-1.876,0-3.164,1.362-3.164,3.613c0,2.191,1.288,3.614,3.209,3.614c1.035,0,1.905-0.539,2.432-1.498v1.213h1.107V551.645z
			 M209.441,559.713c0,1.546-0.84,2.432-2.19,2.432c-1.426,0-2.236-0.916-2.236-2.536c0-1.531,0.811-2.416,2.191-2.416
			C208.497,557.192,209.441,558.152,209.441,559.713 M210.55,556.294h-1.138v1.259c-0.51-0.99-1.336-1.498-2.461-1.498
			c-1.876,0-3.149,1.362-3.149,3.613c0,2.191,1.288,3.614,3.209,3.614c1.035,0,1.892-0.523,2.431-1.498v1.213h1.108V556.294z
			 M196.525,559.668c0-1.426,1.08-2.535,2.431-2.535c1.336,0,2.416,1.109,2.416,2.535s-1.08,2.536-2.416,2.536
			C197.621,562.204,196.525,561.094,196.525,559.668 M195.312,559.668c0,0.976,0.36,1.847,1.063,2.552
			c0.689,0.688,1.591,1.062,2.581,1.062c0.976,0,1.876-0.389,2.581-1.078c0.688-0.675,1.062-1.561,1.062-2.536
			c0-0.975-0.374-1.876-1.062-2.551c-0.705-0.688-1.59-1.062-2.581-1.062c-0.99,0-1.892,0.358-2.581,1.048
			C195.672,557.792,195.312,558.693,195.312,559.668 M192.356,562.997h1.139v-11.353h-1.139V562.997z M180.161,559.668
			c0-1.426,1.08-2.535,2.431-2.535c1.335,0,2.416,1.109,2.416,2.535s-1.081,2.536-2.416,2.536
			C181.256,562.204,180.161,561.094,180.161,559.668 M178.948,559.668c0,0.976,0.358,1.847,1.062,2.552
			c0.69,0.688,1.59,1.062,2.581,1.062c0.975,0,1.875-0.389,2.58-1.078c0.689-0.675,1.064-1.561,1.064-2.536
			c0-0.975-0.375-1.876-1.064-2.551c-0.705-0.688-1.59-1.062-2.58-1.062c-0.991,0-1.891,0.358-2.581,1.048
			C179.307,557.792,178.948,558.693,178.948,559.668 M171.208,562.997h1.138v-3.464c0-0.735,0-1.291,0.391-1.771
			c0.375-0.466,0.96-0.721,1.636-0.721c1.2,0,1.786,0.66,1.786,2.012v3.943h1.138v-4.56c0-1.516-0.959-2.383-2.519-2.383
			c-1.052,0-1.861,0.403-2.432,1.272v-1.034h-1.138V562.997z M160.123,561.874c0.523,0.944,1.393,1.408,2.639,1.408
			c1.485,0,2.444-0.883,2.444-2.129c0-1.095-0.645-1.575-1.949-1.995c-1.111-0.36-1.726-0.45-1.726-1.156
			c0-0.585,0.465-1.005,1.141-1.005c0.705,0,1.261,0.346,1.53,0.96l0.929-0.569c-0.359-0.854-1.228-1.333-2.384-1.333
			c-1.426,0-2.369,0.853-2.369,2.022c0,1.321,0.988,1.606,2.639,2.176c0.705,0.24,1.052,0.511,1.052,1.021
			c0,0.586-0.496,1.006-1.262,1.006s-1.336-0.345-1.71-1.066L160.123,561.874z M156.372,563.417l3.299-7.123h-1.29l-2.024,4.68
			l-2.009-4.68h-1.29L156.372,563.417z M141.433,557.643c0.66-0.51,1.44-0.766,2.28-0.766c1.65,0,2.67,1.051,2.67,2.581
			c0,1.665-1.035,2.717-2.564,2.717c-1.051,0-1.875-0.525-2.355-1.517l-0.9,1.051c0.735,1.079,1.771,1.573,3.226,1.573
			c2.46,0,3.942-1.528,3.942-3.944c0-2.146-1.303-3.493-3.402-3.493c-0.601,0-1.155,0.119-1.665,0.389l0.675-2.761h3.839v-1.094
			h-4.709l-1.274,5.219L141.433,557.643z M135.537,563.282c2.251,0,3.704-1.993,3.704-5.563c0-3.571-1.438-5.55-3.734-5.55
			c-2.236,0-3.704,2.009-3.704,5.55S133.271,563.282,135.537,563.282 M135.521,562.234c-1.485,0-2.4-1.621-2.4-4.531
			c0-2.896,0.915-4.501,2.4-4.501c1.562,0,2.401,1.545,2.401,4.531C137.923,560.703,137.083,562.234,135.521,562.234
			 M128.083,562.278c0,0.479,0.375,0.854,0.869,0.854c0.495,0,0.884-0.375,0.884-0.854c0-0.48-0.389-0.869-0.884-0.869
			C128.473,561.409,128.083,561.798,128.083,562.278 M122.412,563.282c2.251,0,3.704-1.993,3.704-5.563
			c0-3.571-1.438-5.55-3.734-5.55c-2.236,0-3.704,2.009-3.704,5.55S120.146,563.282,122.412,563.282 M122.396,562.234
			c-1.484,0-2.4-1.621-2.4-4.531c0-2.896,0.916-4.501,2.4-4.501c1.562,0,2.401,1.545,2.401,4.531
			C124.798,560.703,123.958,562.234,122.396,562.234 M116.111,555.544v-0.93l-8.623,3.539v0.75l8.623,3.539v-0.945l-7.318-2.969
			L116.111,555.544z M99.327,559.668c0-1.591,0.87-2.506,2.25-2.506c1.336,0,2.176,0.96,2.176,2.642
			c0,1.484-0.825,2.355-2.161,2.355C100.242,562.159,99.327,561.184,99.327,559.668 M98.218,566.252h1.138v-4.468
			c0.512,0.989,1.337,1.498,2.447,1.498c1.875,0,3.163-1.348,3.163-3.614c0-2.206-1.288-3.613-3.209-3.613
			c-1.035,0-1.92,0.523-2.445,1.498v-1.26h-1.094V566.252z M94.442,559.9h0.706v-5.142h1.558v-0.611h-1.558v-2.396h-0.706v2.396
			h-1.558v0.611h1.558V559.9z"/>
	</g>
</g>
</svg>
