<?xml version="1.0" encoding="utf-8"?>
<!-- Generator: Adobe Illustrator 15.1.0, SVG Export Plug-In . SVG Version: 6.00 Build 0)  -->
<!DOCTYPE svg PUBLIC "-//W3C//DTD SVG 1.1//EN" "http://www.w3.org/Graphics/SVG/1.1/DTD/svg11.dtd">
<svg version="1.1" id="art" xmlns="http://www.w3.org/2000/svg" xmlns:xlink="http://www.w3.org/1999/xlink" x="0px" y="0px"
	 width="912px" height="535px" viewBox="0 0 912 535" enable-background="new 0 0 912 535" xml:space="preserve">
<g>
	<defs>
		<rect id="SVGID_1_" x="-9" width="930" height="533.302"/>
	</defs>
	<clipPath id="SVGID_2_">
		<use xlink:href="#SVGID_1_"  overflow="visible"/>
	</clipPath>
	<rect y="372.05" clip-path="url(#SVGID_2_)" fill="#F3E3D5" width="912" height="20"/>
	<rect y="52.05" clip-path="url(#SVGID_2_)" fill="#F3E3D5" width="912" height="40"/>
	<rect y="132.05" clip-path="url(#SVGID_2_)" fill="#F3E3D5" width="912" height="40"/>
	<rect y="212.05" clip-path="url(#SVGID_2_)" fill="#F3E3D5" width="912" height="40"/>
	<rect y="292.05" clip-path="url(#SVGID_2_)" fill="#F3E3D5" width="912" height="40"/>
	<line clip-path="url(#SVGID_2_)" fill="none" stroke="#D1D3D4" stroke-width="0.5" x1="228" y1="132.05" x2="228" y2="392.05"/>
	<line clip-path="url(#SVGID_2_)" fill="none" stroke="#D1D3D4" stroke-width="0.5" x1="113.5" y1="52.05" x2="113.5" y2="392.05"/>
	<line clip-path="url(#SVGID_2_)" fill="none" stroke="#D1D3D4" stroke-width="0.5" x1="342" y1="132.05" x2="342" y2="392.05"/>
	<line clip-path="url(#SVGID_2_)" fill="none" stroke="#D1D3D4" stroke-width="0.5" x1="570" y1="52.05" x2="570" y2="392.05"/>
	<line clip-path="url(#SVGID_2_)" fill="none" stroke="#D1D3D4" stroke-width="0.5" x1="684" y1="52.05" x2="684" y2="392.05"/>
	<line clip-path="url(#SVGID_2_)" fill="none" stroke="#6D6E71" stroke-dasharray="4,4" x1="798" y1="52.05" x2="798" y2="392.05"/>
	
		<line clip-path="url(#SVGID_2_)" fill="none" stroke="#6D6E71" stroke-dasharray="4,4" x1="142.5" y1="52.05" x2="142.5" y2="392.05"/>
	
		<line clip-path="url(#SVGID_2_)" fill="none" stroke="#6D6E71" stroke-dasharray="4,4" x1="456.052" y1="52.05" x2="456.052" y2="392.05"/>
	<g clip-path="url(#SVGID_2_)">
		<defs>
			<rect id="SVGID_3_" x="-9" width="930" height="533.302"/>
		</defs>
		<clipPath id="SVGID_4_">
			<use xlink:href="#SVGID_3_"  overflow="visible"/>
		</clipPath>
		<path clip-path="url(#SVGID_4_)" fill="#F9A25E" d="M47.072,187.116l0.432-0.832c-2.288-1.232-4.864-1.856-7.728-1.856
			c-2.96,0-5.504,0.576-7.76,1.856l0.384,0.832c2.272-1.152,4.64-1.648,7.376-1.648C42.592,185.468,44.96,185.964,47.072,187.116
			 M41.344,188.044c-1.888,0-2.96,0.88-2.96,2.336s1.072,2.352,2.96,2.352c1.888,0,2.96-0.896,2.96-2.352
			S43.232,188.044,41.344,188.044 M43.504,190.38c0,0.752-0.752,1.2-2.16,1.2c-1.408,0-2.16-0.448-2.16-1.2
			c0-0.784,0.72-1.2,2.16-1.2C42.752,189.18,43.504,189.628,43.504,190.38 M37.568,196.7c0,0.752-0.752,1.2-2.16,1.2
			c-1.408,0-2.176-0.448-2.176-1.2c0-0.784,0.736-1.2,2.176-1.2C36.816,195.5,37.568,195.948,37.568,196.7 M35.408,194.348
			c-1.888,0-2.96,0.896-2.96,2.352s1.072,2.352,2.96,2.352c1.888,0,2.944-0.896,2.944-2.352S37.296,194.348,35.408,194.348
			 M44.304,197.373v-0.976l-11.856-6.56v0.96L44.304,197.373z M47.072,200.044c-2.112,1.152-4.48,1.648-7.296,1.648
			c-2.736,0-5.104-0.496-7.376-1.648l-0.384,0.832c2.256,1.28,4.8,1.856,7.76,1.856c2.864,0,5.44-0.624,7.728-1.856L47.072,200.044z
			 M42.8,214.604c1.008-0.56,1.504-1.488,1.504-2.816c0-1.584-0.944-2.608-2.272-2.608c-1.168,0-1.68,0.688-2.128,2.08
			c-0.384,1.184-0.48,1.84-1.232,1.84c-0.624,0-1.072-0.496-1.072-1.216c0-0.752,0.368-1.344,1.024-1.632l-0.608-0.992
			c-0.912,0.384-1.424,1.312-1.424,2.544c0,1.52,0.912,2.528,2.16,2.528c1.408,0,1.712-1.056,2.32-2.816
			c0.256-0.752,0.544-1.12,1.088-1.12c0.624,0,1.072,0.528,1.072,1.344s-0.368,1.424-1.136,1.824L42.8,214.604z M37.856,217.725H44
			v-1.216h-6.144v-1.344h-1.008v1.344h-2.88v1.216h2.88v1.312h1.008V217.725z M44,226.749v-1.216h-3.696
			c-0.784,0-1.376,0-1.888-0.416c-0.496-0.4-0.768-1.024-0.768-1.744c0-1.28,0.704-1.904,2.144-1.904H44v-1.216h-4.864
			c-1.616,0-2.544,1.024-2.544,2.688c0,1.12,0.432,1.984,1.36,2.592h-1.104v1.216H44z M39.616,229.82v4.352
			c-1.216-0.128-1.968-1.008-1.968-2.176C37.648,230.7,38.352,229.9,39.616,229.82 M40.608,228.508h-0.24
			c-2.368,0-3.792,1.344-3.792,3.44c0,2.08,1.568,3.568,3.824,3.568c2.336,0,3.904-1.472,3.904-3.648
			c0-1.472-0.656-2.592-1.952-3.312l-0.624,0.928c1.04,0.592,1.552,1.36,1.552,2.32c0,1.376-1.008,2.368-2.56,2.368h-0.112V228.508z
			 M33.408,238.908c0.512,0,0.896-0.4,0.896-0.896c0-0.496-0.384-0.896-0.88-0.896c-0.496,0-0.912,0.4-0.912,0.896
			C32.512,238.508,32.912,238.908,33.408,238.908 M44,237.404h-7.152v1.216H44V237.404z M37.856,242.555H44v-1.216h-6.144v-1.344
			h-1.008v1.344h-2.88v1.216h2.88v1.312h1.008V242.555z M40.496,246.299c1.648,0,2.592,0.896,2.592,2.336
			c0,1.52-0.976,2.384-2.704,2.384c-1.632,0-2.576-0.864-2.576-2.336C37.808,247.308,38.832,246.299,40.496,246.299 M36.848,245.115
			v1.216h1.344c-1.056,0.544-1.6,1.424-1.6,2.624c0,2,1.456,3.36,3.856,3.36c2.336,0,3.856-1.376,3.856-3.424
			c0-1.104-0.56-2.016-1.6-2.592H44v-1.184H36.848z M38.864,258.331v-1.04c0-1.184-0.032-2.112-0.576-2.88
			c-0.512-0.72-1.456-1.168-2.576-1.168s-2.064,0.448-2.576,1.168c-0.544,0.768-0.576,1.712-0.576,2.88v2.4H44v-1.36H38.864z
			 M37.632,258.331h-3.824v-0.656c0-1.983,0.32-2.959,1.984-2.959c1.584,0,1.84,0.992,1.84,2.959V258.331z"/>
		<g clip-path="url(#SVGID_4_)">
			<g>
				<defs>
					<rect id="SVGID_5_" x="65.592" y="105.218" width="34.656" height="13.984"/>
				</defs>
				<clipPath id="SVGID_6_">
					<use xlink:href="#SVGID_5_"  overflow="visible"/>
				</clipPath>
				<path clip-path="url(#SVGID_6_)" fill="#F9A25E" d="M87.296,118.074c2.4,0,3.952-2.128,3.952-5.936s-1.536-5.92-3.984-5.92
					c-2.384,0-3.951,2.144-3.951,5.92S84.88,118.074,87.296,118.074 M87.28,116.954c-1.584,0-2.561-1.728-2.561-4.832
					c0-3.088,0.977-4.8,2.561-4.8c1.664,0,2.56,1.648,2.56,4.832C89.84,115.322,88.944,116.954,87.28,116.954 M75.008,117.626
					l1.12,0.576l5.712-11.76h-7.248v1.184h5.296L75.008,117.626z"/>
			</g>
		</g>
		<g clip-path="url(#SVGID_4_)">
			<g>
				<defs>
					<rect id="SVGID_7_" x="65.08" y="65.218" width="35.168" height="13.856"/>
				</defs>
				<clipPath id="SVGID_8_">
					<use xlink:href="#SVGID_7_"  overflow="visible"/>
				</clipPath>
				<path clip-path="url(#SVGID_8_)" fill="#F9A25E" d="M87.296,78.074c2.4,0,3.952-2.128,3.952-5.936s-1.536-5.92-3.984-5.92
					c-2.384,0-3.951,2.144-3.951,5.92S84.88,78.074,87.296,78.074 M87.28,76.954c-1.584,0-2.561-1.728-2.561-4.832
					c0-3.088,0.977-4.8,2.561-4.8c1.664,0,2.56,1.648,2.56,4.832C89.84,75.322,88.944,76.954,87.28,76.954 M77.937,67.258
					c1.248,0,2.016,0.72,2.016,1.904c0,1.152-0.736,1.856-2.048,1.856c-1.28,0-2-0.72-2-1.856
					C75.904,67.994,76.672,67.258,77.937,67.258 M77.92,76.97c-1.536,0-2.399-0.88-2.399-2.304c0-1.44,0.896-2.352,2.399-2.352
					s2.4,0.896,2.4,2.352C80.32,76.09,79.456,76.97,77.92,76.97 M76.432,71.722c-1.504,0.416-2.352,1.536-2.352,3.04
					c0,1.984,1.424,3.312,3.856,3.312c2.447,0,3.84-1.296,3.84-3.344c0-1.472-0.849-2.576-2.353-3.008
					c1.232-0.368,1.937-1.296,1.937-2.528c0-1.776-1.296-2.976-3.424-2.976c-2.097,0-3.44,1.232-3.44,2.864
					C74.496,70.442,75.152,71.322,76.432,71.722"/>
			</g>
		</g>
		<g clip-path="url(#SVGID_4_)">
			<g>
				<defs>
					<rect id="SVGID_9_" x="64.936" y="185.218" width="35.312" height="13.856"/>
				</defs>
				<clipPath id="SVGID_10_">
					<use xlink:href="#SVGID_9_"  overflow="visible"/>
				</clipPath>
				<path clip-path="url(#SVGID_10_)" fill="#F9A25E" d="M87.296,198.074c2.4,0,3.952-2.128,3.952-5.936s-1.536-5.92-3.984-5.92
					c-2.384,0-3.951,2.144-3.951,5.92S84.88,198.074,87.296,198.074 M87.28,196.954c-1.584,0-2.561-1.728-2.561-4.832
					c0-3.088,0.977-4.8,2.561-4.8c1.664,0,2.56,1.648,2.56,4.832C89.84,195.322,88.944,196.954,87.28,196.954 M74.864,192.058
					c0.704-0.544,1.536-0.816,2.432-0.816c1.76,0,2.849,1.12,2.849,2.752c0,1.776-1.104,2.896-2.736,2.896
					c-1.12,0-2-0.56-2.512-1.616l-0.96,1.12c0.783,1.152,1.888,1.68,3.439,1.68c2.624,0,4.208-1.632,4.208-4.208
					c0-2.288-1.392-3.728-3.632-3.728c-0.64,0-1.232,0.128-1.776,0.416l0.721-2.944h4.096v-1.168h-5.024l-1.359,5.568
					L74.864,192.058z"/>
			</g>
		</g>
		<g clip-path="url(#SVGID_4_)">
			<g>
				<defs>
					<rect id="SVGID_11_" x="65.128" y="144.882" width="35.12" height="14.192"/>
				</defs>
				<clipPath id="SVGID_12_">
					<use xlink:href="#SVGID_11_"  overflow="visible"/>
				</clipPath>
				<path clip-path="url(#SVGID_12_)" fill="#F9A25E" d="M87.296,158.074c2.4,0,3.952-2.128,3.952-5.936s-1.536-5.92-3.984-5.92
					c-2.384,0-3.951,2.144-3.951,5.92S84.88,158.074,87.296,158.074 M87.28,156.954c-1.584,0-2.561-1.728-2.561-4.832
					c0-3.088,0.977-4.8,2.561-4.8c1.664,0,2.56,1.648,2.56,4.832C89.84,155.322,88.944,156.954,87.28,156.954 M75.536,154.442
					c0-1.504,0.928-2.544,2.288-2.544c1.52,0,2.432,0.976,2.432,2.528c0,1.52-0.943,2.512-2.352,2.512
					C76.464,156.938,75.536,155.994,75.536,154.442 M76.448,151.306l3.696-4.8l-1.185-0.624l-2.607,3.68
					c-1.265,1.792-2.225,3.12-2.225,4.768c0,2.24,1.408,3.744,3.504,3.744c2.496,0,4.032-1.488,4.032-3.776
					c0-2.096-1.408-3.536-3.456-3.536C77.568,150.762,77.008,150.938,76.448,151.306"/>
			</g>
		</g>
		<g clip-path="url(#SVGID_4_)">
			<g>
				<defs>
					<rect id="SVGID_13_" x="65.08" y="265.218" width="35.168" height="13.855"/>
				</defs>
				<clipPath id="SVGID_14_">
					<use xlink:href="#SVGID_13_"  overflow="visible"/>
				</clipPath>
				<path clip-path="url(#SVGID_14_)" fill="#F9A25E" d="M87.296,278.074c2.4,0,3.952-2.128,3.952-5.937
					c0-3.808-1.536-5.92-3.984-5.92c-2.384,0-3.951,2.145-3.951,5.92C83.312,275.914,84.88,278.074,87.296,278.074 M87.28,276.954
					c-1.584,0-2.561-1.729-2.561-4.832c0-3.088,0.977-4.8,2.561-4.8c1.664,0,2.56,1.647,2.56,4.832
					C89.84,275.322,88.944,276.954,87.28,276.954 M74.08,274.874v0.208c0,1.808,1.344,2.992,3.472,2.992
					c2.433,0,3.841-1.28,3.841-3.328c0-1.552-0.816-2.592-2.177-2.815c1.28-0.336,2.032-1.312,2.032-2.672
					c0-1.856-1.296-3.041-3.424-3.041c-2.208,0-3.44,1.104-3.536,3.057h1.344c0.064-1.232,0.832-1.904,2.16-1.904
					c1.264,0,2.032,0.768,2.032,1.952c0,1.344-0.8,2.048-2.384,2.048c-0.128,0-0.24-0.016-0.368-0.016v1.119
					c0.144-0.016,0.271-0.016,0.399-0.016c1.648,0,2.496,0.768,2.496,2.24c0,1.393-0.848,2.208-2.368,2.208
					c-1.312,0-2.128-0.736-2.128-1.904v-0.128H74.08z"/>
			</g>
		</g>
		<g clip-path="url(#SVGID_4_)">
			<g>
				<defs>
					<rect id="SVGID_15_" x="64.552" y="225.218" width="35.696" height="13.856"/>
				</defs>
				<clipPath id="SVGID_16_">
					<use xlink:href="#SVGID_15_"  overflow="visible"/>
				</clipPath>
				<path clip-path="url(#SVGID_16_)" fill="#F9A25E" d="M87.296,238.074c2.4,0,3.952-2.128,3.952-5.936s-1.536-5.92-3.984-5.92
					c-2.384,0-3.951,2.144-3.951,5.92S84.88,238.074,87.296,238.074 M87.28,236.954c-1.584,0-2.561-1.728-2.561-4.832
					c0-3.088,0.977-4.8,2.561-4.8c1.664,0,2.56,1.648,2.56,4.832C89.84,235.322,88.944,236.954,87.28,236.954 M78.912,237.77h1.344
					v-2.464H81.6v-1.104h-1.344v-7.984H79.68l-6.128,9.088h5.36V237.77z M78.912,234.202h-3.344l3.344-5.024V234.202z"/>
			</g>
		</g>
		<g clip-path="url(#SVGID_4_)">
			<g>
				<defs>
					<rect id="SVGID_17_" x="66.232" y="345.218" width="34.016" height="13.855"/>
				</defs>
				<clipPath id="SVGID_18_">
					<use xlink:href="#SVGID_17_"  overflow="visible"/>
				</clipPath>
				<path clip-path="url(#SVGID_18_)" fill="#F9A25E" d="M87.296,358.074c2.4,0,3.952-2.128,3.952-5.937
					c0-3.808-1.536-5.92-3.984-5.92c-2.384,0-3.951,2.145-3.951,5.92C83.312,355.914,84.88,358.074,87.296,358.074 M87.28,356.954
					c-1.584,0-2.561-1.729-2.561-4.832c0-3.088,0.977-4.8,2.561-4.8c1.664,0,2.56,1.647,2.56,4.832
					C89.84,355.322,88.944,356.954,87.28,356.954 M77.568,357.771h1.328v-11.328H76l-0.768,1.184h2.336V357.771z"/>
			</g>
		</g>
		<g clip-path="url(#SVGID_4_)">
			<g>
				<defs>
					<rect id="SVGID_19_" x="65.096" y="305.218" width="35.152" height="13.855"/>
				</defs>
				<clipPath id="SVGID_20_">
					<use xlink:href="#SVGID_19_"  overflow="visible"/>
				</clipPath>
				<path clip-path="url(#SVGID_20_)" fill="#F9A25E" d="M87.296,318.074c2.4,0,3.952-2.128,3.952-5.937
					c0-3.808-1.536-5.92-3.984-5.92c-2.384,0-3.951,2.145-3.951,5.92C83.312,315.914,84.88,318.074,87.296,318.074 M87.28,316.954
					c-1.584,0-2.561-1.729-2.561-4.832c0-3.088,0.977-4.8,2.561-4.8c1.664,0,2.56,1.647,2.56,4.832
					C89.84,315.322,88.944,316.954,87.28,316.954 M80.992,316.474h-4.336l1.792-1.936c1.84-2,2.896-3.504,2.896-5.152
					c0-1.968-1.312-3.168-3.552-3.168c-2.256,0-3.584,1.264-3.584,3.424c0,0.097,0.016,0.209,0.016,0.305h1.28v-0.128
					c0-1.521,0.8-2.353,2.24-2.353c1.376,0,2.256,0.848,2.256,2c0,1.488-1.424,3.008-3.488,5.44l-2.416,2.864h6.896V316.474z"/>
			</g>
		</g>
	</g>
	<polyline clip-path="url(#SVGID_2_)" fill="none" stroke="#808285" stroke-width="2" points="114,391.15 142.5,356.05 171,341.05 
		228,340.05 342,301.05 456.552,298.581 570,289.116 627,286.05 684,288.113 798.007,294.05 	"/>
	<polyline clip-path="url(#SVGID_2_)" fill="none" stroke="#F9A25E" stroke-width="2" points="113.5,392.55 142.5,305.05 
		171,260.05 228,232.05 342,204.05 456.552,175.05 570,172.05 627,145.05 684,153.05 798.007,153.05 	"/>
	<line clip-path="url(#SVGID_2_)" fill="none" stroke="#F9A25E" stroke-width="3" x1="0" y1="392.05" x2="912" y2="392.05"/>
	<g clip-path="url(#SVGID_2_)">
		<defs>
			<rect id="SVGID_21_" x="-9" width="930" height="533.302"/>
		</defs>
		<clipPath id="SVGID_22_">
			<use xlink:href="#SVGID_21_"  overflow="visible"/>
		</clipPath>
		<g clip-path="url(#SVGID_22_)">
			<g>
				<defs>
					<rect id="SVGID_23_" x="780.496" y="415.497" width="34.864" height="13.553"/>
				</defs>
				<clipPath id="SVGID_24_">
					<use xlink:href="#SVGID_23_"  overflow="visible"/>
				</clipPath>
				<path clip-path="url(#SVGID_24_)" fill="#F9A25E" d="M803.672,428.05h1.344v-2.464h1.345v-1.104h-1.345v-7.983h-0.575
					l-6.128,9.088h5.359V428.05z M803.672,424.481h-3.344l3.344-5.023V424.481z M796.392,426.755h-4.336l1.792-1.937
					c1.84-2,2.896-3.505,2.896-5.152c0-1.968-1.312-3.168-3.552-3.168c-2.257,0-3.584,1.265-3.584,3.425
					c0,0.096,0.016,0.207,0.016,0.303h1.28v-0.127c0-1.521,0.8-2.353,2.239-2.353c1.376,0,2.257,0.849,2.257,2
					c0,1.488-1.425,3.009-3.488,5.44l-2.416,2.863h6.896V426.755z"/>
			</g>
		</g>
		<g clip-path="url(#SVGID_22_)">
			<g>
				<defs>
					<rect id="SVGID_25_" x="666.496" y="415.497" width="35.152" height="13.856"/>
				</defs>
				<clipPath id="SVGID_26_">
					<use xlink:href="#SVGID_25_"  overflow="visible"/>
				</clipPath>
				<path clip-path="url(#SVGID_26_)" fill="#F9A25E" d="M688.696,428.354c2.399,0,3.952-2.129,3.952-5.937s-1.536-5.92-3.984-5.92
					c-2.384,0-3.952,2.144-3.952,5.92S686.28,428.354,688.696,428.354 M688.68,427.234c-1.584,0-2.56-1.728-2.56-4.832
					c0-3.089,0.976-4.8,2.56-4.8c1.664,0,2.561,1.647,2.561,4.832C691.24,425.603,690.344,427.234,688.68,427.234 M682.392,426.755
					h-4.336l1.792-1.937c1.84-2,2.896-3.505,2.896-5.152c0-1.968-1.312-3.168-3.552-3.168c-2.257,0-3.584,1.265-3.584,3.425
					c0,0.096,0.016,0.207,0.016,0.303h1.28v-0.127c0-1.521,0.8-2.353,2.239-2.353c1.376,0,2.257,0.849,2.257,2
					c0,1.488-1.425,3.009-3.488,5.44l-2.416,2.863h6.896V426.755z"/>
			</g>
		</g>
		<g clip-path="url(#SVGID_22_)">
			<g>
				<defs>
					<rect id="SVGID_27_" x="553.632" y="415.161" width="33.792" height="14.192"/>
				</defs>
				<clipPath id="SVGID_28_">
					<use xlink:href="#SVGID_27_"  overflow="visible"/>
				</clipPath>
				<path clip-path="url(#SVGID_28_)" fill="#F9A25E" d="M572.296,424.722c0-1.504,0.928-2.543,2.288-2.543
					c1.52,0,2.432,0.976,2.432,2.527c0,1.52-0.943,2.512-2.352,2.512C573.224,427.218,572.296,426.274,572.296,424.722
					 M573.208,421.586l3.696-4.8l-1.185-0.624l-2.607,3.681c-1.265,1.791-2.225,3.119-2.225,4.768c0,2.24,1.408,3.744,3.504,3.744
					c2.496,0,4.032-1.488,4.032-3.776c0-2.097-1.408-3.536-3.456-3.536C574.328,421.042,573.768,421.218,573.208,421.586
					 M564.968,428.05h1.328v-11.328H563.4l-0.769,1.185h2.336V428.05z"/>
			</g>
		</g>
		<g clip-path="url(#SVGID_22_)">
			<g>
				<defs>
					<rect id="SVGID_29_" x="439.632" y="415.497" width="33.472" height="13.553"/>
				</defs>
				<clipPath id="SVGID_30_">
					<use xlink:href="#SVGID_29_"  overflow="visible"/>
				</clipPath>
				<path clip-path="url(#SVGID_30_)" fill="#F9A25E" d="M463.752,426.755h-4.336l1.792-1.937c1.84-2,2.896-3.505,2.896-5.152
					c0-1.968-1.312-3.168-3.552-3.168c-2.256,0-3.584,1.265-3.584,3.425c0,0.096,0.017,0.207,0.017,0.303h1.279v-0.127
					c0-1.521,0.801-2.353,2.24-2.353c1.376,0,2.256,0.849,2.256,2c0,1.488-1.424,3.009-3.488,5.44l-2.416,2.863h6.896V426.755z
					 M450.968,428.05h1.328v-11.328H449.4l-0.769,1.185h2.336V428.05z"/>
			</g>
		</g>
		<g clip-path="url(#SVGID_22_)">
			<g>
				<defs>
					<rect id="SVGID_31_" x="329.16" y="415.497" width="25.696" height="13.856"/>
				</defs>
				<clipPath id="SVGID_32_">
					<use xlink:href="#SVGID_31_"  overflow="visible"/>
				</clipPath>
				<path clip-path="url(#SVGID_32_)" fill="#F9A25E" d="M342.016,417.538c1.248,0,2.017,0.721,2.017,1.904
					c0,1.152-0.736,1.855-2.048,1.855c-1.28,0-2-0.72-2-1.855C339.984,418.274,340.752,417.538,342.016,417.538 M342,427.25
					c-1.536,0-2.4-0.88-2.4-2.304c0-1.439,0.896-2.352,2.4-2.352s2.4,0.896,2.4,2.352C344.4,426.37,343.536,427.25,342,427.25
					 M340.512,422.002c-1.504,0.416-2.352,1.536-2.352,3.04c0,1.984,1.424,3.312,3.855,3.312c2.448,0,3.841-1.297,3.841-3.344
					c0-1.473-0.849-2.576-2.353-3.009c1.232-0.368,1.937-1.296,1.937-2.528c0-1.775-1.297-2.976-3.425-2.976
					c-2.096,0-3.439,1.231-3.439,2.864C338.576,420.722,339.232,421.603,340.512,422.002"/>
			</g>
		</g>
		<g clip-path="url(#SVGID_22_)">
			<g>
				<defs>
					<rect id="SVGID_33_" x="214.632" y="415.497" width="26.048" height="13.553"/>
				</defs>
				<clipPath id="SVGID_34_">
					<use xlink:href="#SVGID_33_"  overflow="visible"/>
				</clipPath>
				<path clip-path="url(#SVGID_34_)" fill="#F9A25E" d="M228.992,428.05h1.344v-2.464h1.344v-1.104h-1.344v-7.983h-0.576
					l-6.128,9.088h5.36V428.05z M228.992,424.481h-3.344l3.344-5.023V424.481z"/>
			</g>
		</g>
		<g clip-path="url(#SVGID_22_)">
			<g>
				<defs>
					<rect id="SVGID_35_" x="101.032" y="415.497" width="25.936" height="13.856"/>
				</defs>
				<clipPath id="SVGID_36_">
					<use xlink:href="#SVGID_35_"  overflow="visible"/>
				</clipPath>
				<path clip-path="url(#SVGID_36_)" fill="#F9A25E" d="M114.016,428.354c2.4,0,3.952-2.129,3.952-5.937s-1.536-5.92-3.983-5.92
					c-2.385,0-3.952,2.144-3.952,5.92S111.6,428.354,114.016,428.354 M114,427.234c-1.584,0-2.56-1.728-2.56-4.832
					c0-3.089,0.976-4.8,2.56-4.8c1.664,0,2.56,1.647,2.56,4.832C116.56,425.603,115.664,427.234,114,427.234"/>
			</g>
		</g>
		<path clip-path="url(#SVGID_22_)" fill="#F9A25E" d="M472.552,478.851c0.561,1.008,1.488,1.504,2.816,1.504
			c1.584,0,2.608-0.944,2.608-2.272c0-1.168-0.688-1.68-2.08-2.128c-1.185-0.384-1.84-0.479-1.84-1.232
			c0-0.623,0.495-1.071,1.216-1.071c0.752,0,1.344,0.368,1.632,1.023l0.992-0.607c-0.385-0.912-1.312-1.424-2.544-1.424
			c-1.521,0-2.528,0.911-2.528,2.159c0,1.408,1.056,1.713,2.816,2.32c0.752,0.256,1.119,0.544,1.119,1.088
			c0,0.624-0.527,1.072-1.344,1.072c-0.815,0-1.424-0.368-1.824-1.136L472.552,478.851z M465.512,480.05h1.217l0.016-3.775
			l3.68,3.775h1.712l-3.888-3.872l3.568-3.279h-1.632l-3.44,3.248l-0.016-8.208h-1.217V480.05z M462.424,475.666h-4.352
			c0.128-1.216,1.008-1.968,2.176-1.968C461.544,473.698,462.344,474.402,462.424,475.666 M463.736,476.658v-0.24
			c0-2.368-1.344-3.792-3.44-3.792c-2.08,0-3.567,1.568-3.567,3.824c0,2.336,1.472,3.904,3.647,3.904
			c1.473,0,2.592-0.656,3.312-1.952l-0.929-0.624c-0.592,1.04-1.359,1.552-2.319,1.552c-1.376,0-2.368-1.008-2.368-2.56v-0.112
			H463.736z M454.28,475.666h-4.353c0.129-1.216,1.009-1.968,2.177-1.968C453.4,473.698,454.2,474.402,454.28,475.666
			 M455.592,476.658v-0.24c0-2.368-1.344-3.792-3.439-3.792c-2.08,0-3.568,1.568-3.568,3.824c0,2.336,1.473,3.904,3.648,3.904
			c1.472,0,2.592-0.656,3.312-1.952l-0.928-0.624c-0.592,1.04-1.36,1.552-2.32,1.552c-1.376,0-2.368-1.008-2.368-2.56v-0.112
			H455.592z M433.32,468.61l4.432,11.888l2.977-8.848l2.991,8.848l4.433-11.888h-1.473l-2.911,8.416l-3.057-8.864l-3.023,8.864
			l-2.896-8.416H433.32z"/>
	</g>
	<polygon clip-path="url(#SVGID_2_)" fill="#F9A25E" points="142.153,298.05 142.847,298.05 142.847,293.002 144.375,293.002 
		144.375,292.402 142.847,292.402 142.847,290.05 142.153,290.05 142.153,292.402 140.625,292.402 140.625,293.002 142.153,293.002 
			"/>
	<polygon clip-path="url(#SVGID_2_)" fill="none" stroke="#F9A25E" points="142.153,298.05 142.847,298.05 142.847,293.002 
		144.375,293.002 144.375,292.402 142.847,292.402 142.847,290.05 142.153,290.05 142.153,292.402 140.625,292.402 140.625,293.002 
		142.153,293.002 	"/>
	<polygon clip-path="url(#SVGID_2_)" fill="#F9A25E" points="170.652,254.05 171.347,254.05 171.347,249.002 172.875,249.002 
		172.875,248.402 171.347,248.402 171.347,246.05 170.652,246.05 170.652,248.402 169.125,248.402 169.125,249.002 170.652,249.002 
			"/>
	<polygon clip-path="url(#SVGID_2_)" fill="none" stroke="#F9A25E" points="170.652,254.05 171.347,254.05 171.347,249.002 
		172.875,249.002 172.875,248.402 171.347,248.402 171.347,246.05 170.652,246.05 170.652,248.402 169.125,248.402 169.125,249.002 
		170.652,249.002 	"/>
	<polygon clip-path="url(#SVGID_2_)" fill="#F9A25E" points="227.652,226.05 228.347,226.05 228.347,221.002 229.875,221.002 
		229.875,220.402 228.347,220.402 228.347,218.05 227.652,218.05 227.652,220.402 226.125,220.402 226.125,221.002 227.652,221.002 
			"/>
	<polygon clip-path="url(#SVGID_2_)" fill="none" stroke="#F9A25E" points="227.652,226.05 228.347,226.05 228.347,221.002 
		229.875,221.002 229.875,220.402 228.347,220.402 228.347,218.05 227.652,218.05 227.652,220.402 226.125,220.402 226.125,221.002 
		227.652,221.002 	"/>
	<polygon clip-path="url(#SVGID_2_)" fill="#F9A25E" points="341.652,198.05 342.347,198.05 342.347,193.002 343.875,193.002 
		343.875,192.402 342.347,192.402 342.347,190.05 341.652,190.05 341.652,192.402 340.125,192.402 340.125,193.002 341.652,193.002 
			"/>
	<polygon clip-path="url(#SVGID_2_)" fill="none" stroke="#F9A25E" points="341.652,198.05 342.347,198.05 342.347,193.002 
		343.875,193.002 343.875,192.402 342.347,192.402 342.347,190.05 341.652,190.05 341.652,192.402 340.125,192.402 340.125,193.002 
		341.652,193.002 	"/>
	<polygon clip-path="url(#SVGID_2_)" fill="#F9A25E" points="455.652,169.05 456.347,169.05 456.347,164.002 457.875,164.002 
		457.875,163.402 456.347,163.402 456.347,161.05 455.652,161.05 455.652,163.402 454.125,163.402 454.125,164.002 455.652,164.002 
			"/>
	<polygon clip-path="url(#SVGID_2_)" fill="none" stroke="#F9A25E" points="455.652,169.05 456.347,169.05 456.347,164.002 
		457.875,164.002 457.875,163.402 456.347,163.402 456.347,161.05 455.652,161.05 455.652,163.402 454.125,163.402 454.125,164.002 
		455.652,164.002 	"/>
	<polygon clip-path="url(#SVGID_2_)" fill="#F9A25E" points="569.652,166.05 570.347,166.05 570.347,161.002 571.875,161.002 
		571.875,160.402 570.347,160.402 570.347,158.05 569.652,158.05 569.652,160.402 568.125,160.402 568.125,161.002 569.652,161.002 
			"/>
	<polygon clip-path="url(#SVGID_2_)" fill="none" stroke="#F9A25E" points="569.652,166.05 570.347,166.05 570.347,161.002 
		571.875,161.002 571.875,160.402 570.347,160.402 570.347,158.05 569.652,158.05 569.652,160.402 568.125,160.402 568.125,161.002 
		569.652,161.002 	"/>
	<polygon clip-path="url(#SVGID_2_)" fill="#F9A25E" points="683.653,147.05 684.347,147.05 684.347,142.002 685.875,142.002 
		685.875,141.402 684.347,141.402 684.347,139.05 683.653,139.05 683.653,141.402 682.125,141.402 682.125,142.002 683.653,142.002 
			"/>
	<polygon clip-path="url(#SVGID_2_)" fill="none" stroke="#F9A25E" points="683.653,147.05 684.347,147.05 684.347,142.002 
		685.875,142.002 685.875,141.402 684.347,141.402 684.347,139.05 683.653,139.05 683.653,141.402 682.125,141.402 682.125,142.002 
		683.653,142.002 	"/>
	<polygon clip-path="url(#SVGID_2_)" fill="#F9A25E" points="797.653,147.05 798.347,147.05 798.347,142.002 799.875,142.002 
		799.875,141.402 798.347,141.402 798.347,139.05 797.653,139.05 797.653,141.402 796.125,141.402 796.125,142.002 797.653,142.002 
			"/>
	<polygon clip-path="url(#SVGID_2_)" fill="none" stroke="#F9A25E" points="797.653,147.05 798.347,147.05 798.347,142.002 
		799.875,142.002 799.875,141.402 798.347,141.402 798.347,139.05 797.653,139.05 797.653,141.402 796.125,141.402 796.125,142.002 
		797.653,142.002 	"/>
	<g clip-path="url(#SVGID_2_)">
		<defs>
			<rect id="SVGID_37_" x="-9" width="930" height="533.302"/>
		</defs>
		<clipPath id="SVGID_38_">
			<use xlink:href="#SVGID_37_"  overflow="visible"/>
		</clipPath>
		<path clip-path="url(#SVGID_38_)" fill="#F9A25E" d="M463.756,27.447v-0.832h-5.846l4.938-6.457
			c0.666-0.869,0.907-1.554,0.907-2.535c0-2.09-1.369-3.459-3.478-3.459c-2.184,0-3.479,1.498-3.479,3.459h0.943
			c0-1.849,1.166-2.626,2.535-2.626c1.591,0,2.533,1.054,2.533,2.626c0,0.759-0.222,1.388-0.739,2.054l-5.291,6.938v0.832H463.756z
			 M451.916,27.447V14.275h-0.943l-2.387,2.054v1.128l2.387-2.109v12.099H451.916z"/>
		<path clip-path="url(#SVGID_38_)" fill="#F9A25E" d="M806.621,25.284v-0.833h-1.758V20.27h-0.943v4.181h-4.218l4.847-10.175
			h-0.999l-4.847,10.175v0.833h5.217v2.164h0.943v-2.164H806.621z M796.89,27.447v-0.832h-5.846l4.94-6.457
			c0.666-0.869,0.905-1.554,0.905-2.535c0-2.09-1.368-3.459-3.478-3.459c-2.183,0-3.479,1.498-3.479,3.459h0.943
			c0-1.849,1.166-2.626,2.535-2.626c1.591,0,2.535,1.054,2.535,2.626c0,0.759-0.223,1.388-0.74,2.054l-5.291,6.938v0.832H796.89z"/>
		<path clip-path="url(#SVGID_38_)" fill="#F9A25E" d="M418.05,80.842l0.832,0.432c1.232-2.288,1.856-4.864,1.856-7.728
			c0-2.96-0.576-5.504-1.856-7.76l-0.832,0.384c1.152,2.272,1.648,4.64,1.648,7.376C419.698,76.362,419.202,78.73,418.05,80.842
			 M408.946,74.874v0.208c0,1.808,1.344,2.992,3.472,2.992c2.432,0,3.84-1.28,3.84-3.328c0-1.552-0.815-2.592-2.176-2.816
			c1.28-0.336,2.032-1.312,2.032-2.672c0-1.856-1.296-3.04-3.424-3.04c-2.208,0-3.44,1.104-3.536,3.056h1.344
			c0.064-1.232,0.832-1.904,2.16-1.904c1.264,0,2.032,0.768,2.032,1.952c0,1.344-0.801,2.048-2.385,2.048
			c-0.128,0-0.239-0.016-0.367-0.016v1.12c0.144-0.016,0.271-0.016,0.399-0.016c1.648,0,2.496,0.768,2.496,2.24
			c0,1.392-0.848,2.208-2.368,2.208c-1.312,0-2.128-0.736-2.128-1.904v-0.128H408.946z M400.514,77.626l1.12,0.576l5.712-11.76
			h-7.248v1.184h5.297L400.514,77.626z M397.138,76.474h-4.336l1.792-1.936c1.84-2,2.896-3.504,2.896-5.152
			c0-1.968-1.312-3.168-3.552-3.168c-2.257,0-3.584,1.264-3.584,3.424c0,0.096,0.016,0.208,0.016,0.304h1.28v-0.128
			c0-1.52,0.8-2.352,2.239-2.352c1.376,0,2.257,0.848,2.257,2c0,1.488-1.424,3.008-3.488,5.44l-2.416,2.864h6.896V76.474z
			 M387.443,74.042h-9.36v0.912h9.36V74.042z M387.443,71.05h-9.36v0.912h9.36V71.05z M368.515,77.77h1.217v-3.696
			c0-0.784,0-1.376,0.416-1.888c0.399-0.496,1.023-0.768,1.743-0.768c1.28,0,1.904,0.704,1.904,2.144v4.208h1.216v-4.864
			c0-1.616-1.023-2.544-2.688-2.544c-1.12,0-1.984,0.432-2.592,1.36v-1.104h-1.217V77.77z M366.723,80.842
			c-1.151-2.112-1.647-4.48-1.647-7.296c0-2.736,0.496-5.104,1.647-7.376l-0.832-0.384c-1.279,2.256-1.855,4.8-1.855,7.76
			c0,2.864,0.624,5.44,1.855,7.728L366.723,80.842z M355.747,74.234c0,1.696-0.928,2.656-2.4,2.656
			c-1.424,0-2.319-1.024-2.319-2.816c0-1.584,0.88-2.496,2.304-2.496C354.771,71.578,355.747,72.618,355.747,74.234 M356.931,65.658
			h-1.216v6.304c-0.544-1.056-1.424-1.6-2.607-1.6c-2,0-3.376,1.456-3.376,3.856c0,2.336,1.376,3.856,3.424,3.856
			c1.104,0,2.032-0.576,2.592-1.6v1.296h1.184V65.658z M347.203,73.386h-4.352c0.128-1.216,1.008-1.968,2.176-1.968
			C346.323,71.418,347.123,72.122,347.203,73.386 M348.515,74.378v-0.24c0-2.368-1.344-3.792-3.439-3.792
			c-2.08,0-3.568,1.568-3.568,3.824c0,2.336,1.473,3.904,3.648,3.904c1.472,0,2.592-0.656,3.312-1.952l-0.928-0.624
			c-0.592,1.04-1.36,1.552-2.32,1.552c-1.376,0-2.367-1.008-2.367-2.56v-0.112H348.515z M333.299,77.77h1.216v-3.696
			c0-0.784,0-1.376,0.416-1.888c0.4-0.496,1.024-0.768,1.744-0.768c1.28,0,1.904,0.704,1.904,2.144v4.208h1.216v-4.864
			c0-1.616-1.023-2.544-2.688-2.544c-1.12,0-1.984,0.432-2.593,1.36v-1.104h-1.216V77.77z M329.283,67.178
			c0,0.512,0.4,0.896,0.896,0.896c0.496,0,0.896-0.384,0.896-0.88s-0.4-0.912-0.896-0.912
			C329.684,66.282,329.283,66.682,329.283,67.178 M329.571,77.77h1.216v-7.152h-1.216V77.77z M321.604,74.234
			c0-1.616,0.991-2.656,2.432-2.656c1.424,0,2.304,0.912,2.304,2.496c0,1.792-0.912,2.816-2.336,2.816
			C322.532,76.89,321.604,75.93,321.604,74.234 M320.437,65.658V77.77h1.168v-1.296c0.56,1.024,1.504,1.6,2.607,1.6
			c2.048,0,3.424-1.52,3.424-3.856c0-2.4-1.376-3.856-3.376-3.856c-1.184,0-2.063,0.544-2.607,1.6v-6.304H320.437z M316.9,77.77
			h1.216v-4.864c0-1.616-0.96-2.544-2.544-2.544c-1.088,0-1.92,0.464-2.544,1.456c-0.416-0.96-1.248-1.456-2.4-1.456
			c-1.072,0-1.888,0.448-2.464,1.36v-1.104h-1.216v7.152h1.216v-3.696c0-0.176-0.016-0.352-0.016-0.512
			c0-0.544,0.063-0.992,0.367-1.376c0.385-0.496,0.977-0.768,1.633-0.768c1.216,0,1.775,0.704,1.775,2.144v4.208h1.216v-3.696
			c0-0.16-0.016-0.304-0.016-0.448c0-0.592,0.08-1.04,0.384-1.44c0.385-0.496,0.96-0.768,1.616-0.768
			c1.216,0,1.776,0.704,1.776,2.144V77.77z M298.645,74.218c0-1.52,1.151-2.704,2.592-2.704c1.424,0,2.576,1.184,2.576,2.704
			s-1.152,2.704-2.576,2.704S298.645,75.738,298.645,74.218 M297.348,74.218c0,1.04,0.385,1.968,1.137,2.72
			c0.735,0.736,1.695,1.136,2.752,1.136c1.04,0,2-0.416,2.752-1.152c0.735-0.72,1.136-1.664,1.136-2.704s-0.4-2-1.136-2.72
			c-0.752-0.736-1.696-1.136-2.752-1.136c-1.057,0-2.017,0.384-2.752,1.12C297.732,72.218,297.348,73.178,297.348,74.218
			 M295.812,69.066V67.29c-1.185-0.816-2.4-1.232-3.761-1.232c-1.68,0-3.088,0.56-4.256,1.68c-1.2,1.168-1.792,2.592-1.792,4.368
			c0,2.032,0.912,3.76,2.576,4.912c0.992,0.688,2.16,1.056,3.376,1.056c1.392,0,2.72-0.432,3.856-1.248v-1.808
			c-1.04,1.216-2.305,1.808-3.744,1.808c-1.553,0-2.944-0.736-3.856-2.032c-0.528-0.752-0.784-1.648-0.784-2.704
			c0-1.344,0.433-2.464,1.312-3.376c0.848-0.88,2.063-1.392,3.264-1.392C293.492,67.322,294.708,67.866,295.812,69.066
			 M278.212,74.266c0,1.648-0.896,2.592-2.336,2.592c-1.52,0-2.384-0.976-2.384-2.704c0-1.632,0.864-2.576,2.336-2.576
			C277.204,71.578,278.212,72.602,278.212,74.266 M279.396,70.618h-1.217v1.344c-0.544-1.056-1.424-1.6-2.624-1.6
			c-2,0-3.359,1.456-3.359,3.856c0,2.336,1.376,3.856,3.424,3.856c1.104,0,2.016-0.56,2.592-1.6v1.296h1.185V70.618z
			 M268.725,67.178c0,0.512,0.4,0.896,0.896,0.896s0.896-0.384,0.896-0.88s-0.4-0.912-0.896-0.912S268.725,66.682,268.725,67.178
			 M269.013,77.77h1.217v-7.152h-1.217V77.77z M261.125,77.77h6.224v-1.072h-4.063l4.096-6.08h-6v1.072h3.84L261.125,77.77z
			 M258.597,77.77h1.217v-4.864c0-1.616-0.96-2.544-2.544-2.544c-1.089,0-1.921,0.464-2.545,1.456
			c-0.416-0.96-1.247-1.456-2.399-1.456c-1.072,0-1.888,0.448-2.464,1.36v-1.104h-1.216v7.152h1.216v-3.696
			c0-0.176-0.017-0.352-0.017-0.512c0-0.544,0.064-0.992,0.368-1.376c0.384-0.496,0.977-0.768,1.632-0.768
			c1.217,0,1.776,0.704,1.776,2.144v4.208h1.216v-3.696c0-0.16-0.016-0.304-0.016-0.448c0-0.592,0.08-1.04,0.384-1.44
			c0.384-0.496,0.96-0.768,1.616-0.768c1.216,0,1.775,0.704,1.775,2.144V77.77z M244.629,67.178c0,0.512,0.4,0.896,0.896,0.896
			s0.896-0.384,0.896-0.88s-0.399-0.912-0.896-0.912S244.629,66.682,244.629,67.178 M244.917,77.77h1.216v-7.152h-1.216V77.77z
			 M242.741,69.066V67.29c-1.185-0.816-2.4-1.232-3.76-1.232c-1.681,0-3.088,0.56-4.257,1.68c-1.199,1.168-1.792,2.592-1.792,4.368
			c0,2.032,0.912,3.76,2.576,4.912c0.992,0.688,2.16,1.056,3.376,1.056c1.393,0,2.721-0.432,3.856-1.248v-1.808
			c-1.04,1.216-2.304,1.808-3.744,1.808c-1.552,0-2.944-0.736-3.856-2.032c-0.527-0.752-0.783-1.648-0.783-2.704
			c0-1.344,0.432-2.464,1.312-3.376c0.849-0.88,2.064-1.392,3.264-1.392C240.421,67.322,241.637,67.866,242.741,69.066"/>
		<path clip-path="url(#SVGID_38_)" fill="#808285" d="M346.243,120.842l0.832,0.432c1.231-2.288,1.855-4.864,1.855-7.728
			c0-2.96-0.575-5.504-1.855-7.76l-0.832,0.384c1.152,2.272,1.647,4.64,1.647,7.376C347.891,116.362,347.396,118.73,346.243,120.842
			 M338.595,114.442c0-1.504,0.929-2.544,2.288-2.544c1.521,0,2.433,0.976,2.433,2.528c0,1.52-0.944,2.512-2.353,2.512
			C339.523,116.938,338.595,115.994,338.595,114.442 M339.507,111.306l3.696-4.8l-1.184-0.624l-2.608,3.68
			c-1.264,1.792-2.224,3.12-2.224,4.768c0,2.24,1.407,3.744,3.504,3.744c2.496,0,4.031-1.488,4.031-3.776
			c0-2.096-1.407-3.536-3.455-3.536C340.627,110.762,340.067,110.938,339.507,111.306 M327.779,114.874v0.208
			c0,1.808,1.344,2.992,3.472,2.992c2.433,0,3.84-1.28,3.84-3.328c0-1.552-0.815-2.592-2.176-2.816
			c1.28-0.336,2.032-1.312,2.032-2.672c0-1.856-1.296-3.04-3.424-3.04c-2.208,0-3.44,1.104-3.536,3.056h1.344
			c0.064-1.232,0.832-1.904,2.16-1.904c1.264,0,2.032,0.768,2.032,1.952c0,1.344-0.801,2.048-2.385,2.048
			c-0.128,0-0.239-0.016-0.367-0.016v1.12c0.144-0.016,0.271-0.016,0.399-0.016c1.648,0,2.496,0.768,2.496,2.24
			c0,1.392-0.848,2.208-2.368,2.208c-1.312,0-2.128-0.736-2.128-1.904v-0.128H327.779z M321.907,117.77h1.328v-11.328h-2.896
			l-0.768,1.184h2.336V117.77z M315.636,114.042h-9.359v0.912h9.359V114.042z M315.636,111.05h-9.359v0.912h9.359V111.05z
			 M296.708,117.77h1.216v-3.696c0-0.784,0-1.376,0.416-1.888c0.4-0.496,1.024-0.768,1.744-0.768c1.28,0,1.904,0.704,1.904,2.144
			v4.208h1.216v-4.864c0-1.616-1.024-2.544-2.688-2.544c-1.119,0-1.983,0.432-2.592,1.36v-1.104h-1.216V117.77z M294.916,120.842
			c-1.152-2.112-1.647-4.48-1.647-7.296c0-2.736,0.495-5.104,1.647-7.376l-0.832-0.384c-1.28,2.256-1.855,4.8-1.855,7.76
			c0,2.864,0.624,5.44,1.855,7.728L294.916,120.842z M279.236,114.218c0-1.52,1.151-2.704,2.592-2.704
			c1.424,0,2.576,1.184,2.576,2.704s-1.152,2.704-2.576,2.704S279.236,115.738,279.236,114.218 M277.94,114.218
			c0,1.04,0.384,1.968,1.136,2.72c0.736,0.736,1.696,1.136,2.752,1.136c1.04,0,2-0.416,2.752-1.152
			c0.736-0.72,1.136-1.664,1.136-2.704s-0.399-2-1.136-2.72c-0.752-0.736-1.696-1.136-2.752-1.136s-2.016,0.384-2.752,1.12
			C278.324,112.218,277.94,113.178,277.94,114.218 M270.612,114.234c0-1.616,0.992-2.656,2.432-2.656
			c1.424,0,2.304,0.912,2.304,2.496c0,1.792-0.911,2.816-2.336,2.816C271.54,116.89,270.612,115.93,270.612,114.234
			 M269.444,105.658v12.112h1.168v-1.296c0.56,1.024,1.504,1.6,2.607,1.6c2.049,0,3.425-1.52,3.425-3.856
			c0-2.4-1.376-3.856-3.376-3.856c-1.185,0-2.064,0.544-2.608,1.6v-6.304H269.444z M266.372,113.386h-4.352
			c0.128-1.216,1.008-1.968,2.176-1.968C265.492,111.418,266.292,112.122,266.372,113.386 M267.684,114.378v-0.24
			c0-2.368-1.344-3.792-3.439-3.792c-2.08,0-3.568,1.568-3.568,3.824c0,2.336,1.473,3.904,3.648,3.904
			c1.472,0,2.592-0.656,3.312-1.952l-0.928-0.624c-0.592,1.04-1.36,1.552-2.32,1.552c-1.376,0-2.367-1.008-2.367-2.56v-0.112
			H267.684z M259.686,116.074c-0.752,0.544-1.44,0.816-2.208,0.816c-1.488,0-2.561-1.152-2.561-2.592
			c0-1.696,1.088-2.752,2.656-2.752c0.704,0,1.376,0.224,1.983,0.624v-1.312c-0.655-0.32-1.424-0.496-2.224-0.496
			c-2.144,0-3.728,1.568-3.728,3.904c0,2.256,1.456,3.808,3.68,3.808c0.928,0,1.744-0.192,2.4-0.576V116.074z M250.646,114.266
			c0,1.648-0.896,2.592-2.337,2.592c-1.52,0-2.384-0.976-2.384-2.704c0-1.632,0.864-2.576,2.336-2.576
			C249.637,111.578,250.646,112.602,250.646,114.266 M251.829,110.618h-1.216v1.344c-0.544-1.056-1.424-1.6-2.624-1.6
			c-2,0-3.36,1.456-3.36,3.856c0,2.336,1.376,3.856,3.424,3.856c1.104,0,2.017-0.56,2.593-1.6v1.296h1.184V110.618z M241.445,117.77
			h1.216v-12.112h-1.216V117.77z M234.821,112.634h1.04c1.184,0,2.111-0.032,2.88-0.576c0.72-0.512,1.168-1.456,1.168-2.576
			c0-1.12-0.448-2.064-1.168-2.576c-0.769-0.544-1.712-0.576-2.88-0.576h-2.4v11.44h1.36V112.634z M234.821,111.402v-3.824h0.656
			c1.983,0,2.96,0.32,2.96,1.984c0,1.584-0.992,1.84-2.96,1.84H234.821z"/>
	</g>
	
		<line clip-path="url(#SVGID_2_)" fill="none" stroke="#F9A25E" stroke-width="2" x1="172.894" y1="72.55" x2="217.894" y2="72.55"/>
	
		<line clip-path="url(#SVGID_2_)" fill="none" stroke="#F9A25E" stroke-width="2" x1="172.894" y1="112.05" x2="217.894" y2="112.05"/>
	<g clip-path="url(#SVGID_2_)">
		<defs>
			<rect id="SVGID_39_" x="-9" width="930" height="533.302"/>
		</defs>
		<clipPath id="SVGID_40_">
			<use xlink:href="#SVGID_39_"  overflow="visible"/>
		</clipPath>
		<path clip-path="url(#SVGID_40_)" fill="#FFFFFF" d="M142.5,40c11.046,0,20-8.954,20-20c0-11.046-8.954-20-20-20s-20,8.954-20,20
			C122.5,31.046,131.454,40,142.5,40"/>
		<path clip-path="url(#SVGID_40_)" fill="#FFFFFF" d="M140.991,45.903c0,0,1.531,2.58,3.062,0l4.911-8.273
			c0,0,1.531-2.58-1.469-2.58h-9.946c0,0-3,0-1.468,2.58L140.991,45.903z"/>
	</g>
	<polygon clip-path="url(#SVGID_2_)" fill="#F9A25E" points="143.536,27.447 143.536,14.275 142.593,14.275 140.206,16.33 
		140.206,17.458 142.593,15.349 142.593,27.447 	"/>
	<g clip-path="url(#SVGID_2_)">
		<defs>
			<rect id="SVGID_41_" x="-9" width="930" height="533.302"/>
		</defs>
		<clipPath id="SVGID_42_">
			<use xlink:href="#SVGID_41_"  overflow="visible"/>
		</clipPath>
		<path clip-path="url(#SVGID_42_)" fill="#808285" d="M567.948,523.47v0.114c0,0.988,0.734,1.634,1.897,1.634
			c1.329,0,2.099-0.698,2.099-1.818c0-0.849-0.446-1.417-1.189-1.538c0.7-0.184,1.11-0.718,1.11-1.461c0-1.015-0.707-1.66-1.87-1.66
			c-1.207,0-1.881,0.602-1.934,1.669h0.735c0.035-0.673,0.454-1.041,1.18-1.041c0.691,0,1.111,0.42,1.111,1.067
			c0,0.734-0.438,1.119-1.303,1.119c-0.07,0-0.131-0.008-0.201-0.008v0.611c0.078-0.01,0.147-0.01,0.218-0.01
			c0.901,0,1.364,0.421,1.364,1.226c0,0.761-0.463,1.207-1.294,1.207c-0.717,0-1.163-0.402-1.163-1.041v-0.07H567.948z
			 M564.453,529.328c0,0.479,0.374,0.854,0.869,0.854c0.493,0,0.884-0.375,0.884-0.854c0-0.48-0.391-0.869-0.884-0.869
			C564.842,528.459,564.453,528.848,564.453,529.328 M561.408,525.938h-4.082c0.12-1.141,0.944-1.847,2.041-1.847
			C560.582,524.092,561.333,524.753,561.408,525.938 M562.636,526.867v-0.226c0-2.22-1.258-3.553-3.224-3.553
			c-1.951,0-3.344,1.468-3.344,3.583c0,2.191,1.378,3.66,3.419,3.66c1.381,0,2.43-0.614,3.104-1.829l-0.869-0.585
			c-0.554,0.975-1.274,1.456-2.175,1.456c-1.291,0-2.221-0.946-2.221-2.402v-0.104H562.636z M553.158,530.047h1.138v-11.353h-1.138
			V530.047z M549.333,520.118c0,0.479,0.375,0.839,0.839,0.839s0.839-0.36,0.839-0.824c0-0.465-0.375-0.854-0.839-0.854
			S549.333,519.653,549.333,520.118 M549.603,530.047h1.139v-6.703h-1.139V530.047z M542.133,530.047h1.273v-5.295h4.38v-1.183
			h-4.38v-3.077h4.38v-1.168h-5.653V530.047z M529.383,530.047h1.139v-3.464c0-0.735,0-1.291,0.391-1.771
			c0.375-0.465,0.96-0.72,1.636-0.72c1.2,0,1.786,0.66,1.786,2.011v3.944h1.138v-4.56c0-1.516-0.959-2.384-2.519-2.384
			c-1.051,0-1.861,0.404-2.432,1.273v-1.034h-1.139V530.047z M521.597,526.718c0-1.426,1.08-2.536,2.432-2.536
			c1.335,0,2.416,1.11,2.416,2.536c0,1.425-1.081,2.536-2.416,2.536C522.691,529.254,521.597,528.143,521.597,526.718
			 M520.384,526.718c0,0.975,0.359,1.846,1.063,2.551c0.689,0.689,1.59,1.063,2.581,1.063c0.975,0,1.876-0.39,2.581-1.078
			c0.688-0.675,1.062-1.562,1.062-2.536s-0.375-1.876-1.062-2.551c-0.705-0.689-1.592-1.063-2.581-1.063
			c-0.991,0-1.892,0.359-2.581,1.049C520.743,524.842,520.384,525.743,520.384,526.718 M513.244,526.763
			c0,1.545-0.84,2.432-2.191,2.432c-1.425,0-2.236-0.916-2.236-2.536c0-1.531,0.812-2.416,2.191-2.416
			C512.299,524.242,513.244,525.202,513.244,526.763 M514.352,523.344h-1.138v1.258c-0.51-0.989-1.336-1.498-2.461-1.498
			c-1.876,0-3.149,1.363-3.149,3.614c0,2.191,1.288,3.614,3.209,3.614c1.035,0,1.892-0.524,2.432-1.498v1.213h1.107V523.344z
			 M504.484,524.287v5.76h1.138v-5.76h1.26v-0.943h-1.26v-2.7h-1.138v2.7h-1.23v0.943H504.484z M500.974,526.763
			c0,1.545-0.84,2.432-2.189,2.432c-1.427,0-2.236-0.916-2.236-2.536c0-1.531,0.81-2.416,2.19-2.416
			C500.029,524.242,500.974,525.202,500.974,526.763 M502.083,523.344h-1.139v1.258c-0.511-0.989-1.335-1.498-2.462-1.498
			c-1.875,0-3.148,1.363-3.148,3.614c0,2.191,1.289,3.614,3.209,3.614c1.036,0,1.891-0.524,2.431-1.498v1.213h1.109V523.344z
			 M486.438,528.849v-8.342h0.825c1.847,0,3.121,0.03,4.006,0.78c0.886,0.734,1.352,1.876,1.352,3.391s-0.481,2.686-1.352,3.406
			c-0.899,0.75-2.175,0.765-4.006,0.765H486.438z M485.165,530.047h2.518c1.741,0,3.151-0.045,4.396-1.003
			c1.229-0.945,1.874-2.431,1.874-4.352s-0.645-3.421-1.874-4.365c-1.306-1.003-2.851-1.003-4.861-1.003h-2.053V530.047z
			 M477.32,526.732c0,1.591-0.871,2.491-2.251,2.491c-1.337,0-2.177-0.961-2.177-2.641c0-1.486,0.825-2.341,2.161-2.341
			C476.404,524.242,477.32,525.217,477.32,526.732 M478.428,518.694h-1.138v5.907c-0.51-0.988-1.336-1.498-2.446-1.498
			c-1.876,0-3.164,1.363-3.164,3.614c0,2.191,1.288,3.614,3.209,3.614c1.035,0,1.906-0.539,2.432-1.498v1.213h1.107V518.694z
			 M463.91,530.047h1.138v-3.464c0-0.735,0-1.291,0.39-1.771c0.375-0.465,0.961-0.72,1.637-0.72c1.201,0,1.786,0.66,1.786,2.011
			v3.944h1.138v-4.56c0-1.516-0.958-2.384-2.52-2.384c-1.05,0-1.86,0.404-2.431,1.273v-1.034h-1.138V530.047z M460.58,526.763
			c0,1.545-0.84,2.432-2.191,2.432c-1.425,0-2.235-0.916-2.235-2.536c0-1.531,0.811-2.416,2.19-2.416
			C459.635,524.242,460.58,525.202,460.58,526.763 M461.688,523.344h-1.138v1.258c-0.51-0.989-1.335-1.498-2.461-1.498
			c-1.876,0-3.149,1.363-3.149,3.614c0,2.191,1.288,3.614,3.209,3.614c1.036,0,1.892-0.524,2.432-1.498v1.213h1.107V523.344z
			 M449.015,525.052h0.726v-6.189h-1.582l-0.419,0.646h1.275V525.052z M443.208,530.047h1.258v-2.31h1.26v-1.033h-1.26v-7.485
			h-0.539l-5.744,8.519h5.025V530.047z M443.208,526.704h-3.135l3.135-4.711V526.704z M433.173,530.047h1.244v-10.618h-2.714
			l-0.721,1.108h2.19V530.047z M424.743,530.332c2.25,0,3.704-1.993,3.704-5.564c0-3.57-1.439-5.549-3.734-5.549
			c-2.236,0-3.705,2.008-3.705,5.549S422.477,530.332,424.743,530.332 M424.728,529.284c-1.485,0-2.4-1.621-2.4-4.531
			c0-2.896,0.915-4.501,2.4-4.501c1.561,0,2.4,1.545,2.4,4.531C427.128,527.753,426.288,529.284,424.728,529.284 M418.832,528.834
			h-4.065l1.682-1.816c1.725-1.875,2.714-3.286,2.714-4.829c0-1.847-1.229-2.97-3.329-2.97c-2.116,0-3.359,1.184-3.359,3.21
			c0,0.089,0.016,0.194,0.016,0.283h1.197v-0.119c0-1.425,0.75-2.206,2.102-2.206c1.29,0,2.116,0.796,2.116,1.877
			c0,1.394-1.336,2.819-3.272,5.1l-2.263,2.684h6.463V528.834z M404.854,530.047h1.139v-11.353h-1.139V530.047z M401.464,526.763
			c0,1.545-0.84,2.432-2.191,2.432c-1.426,0-2.235-0.916-2.235-2.536c0-1.531,0.81-2.416,2.19-2.416
			C400.519,524.242,401.464,525.202,401.464,526.763 M402.572,523.344h-1.139v1.258c-0.51-0.989-1.336-1.498-2.461-1.498
			c-1.876,0-3.148,1.363-3.148,3.614c0,2.191,1.288,3.614,3.209,3.614c1.035,0,1.891-0.524,2.431-1.498v1.213h1.108V523.344z
			 M388.354,524.287v5.76h1.139v-5.76h1.26v-0.943h-1.26v-2.7h-1.139v2.7h-1.229v0.943H388.354z M385.294,525.938h-4.082
			c0.12-1.141,0.946-1.847,2.041-1.847C384.469,524.092,385.219,524.753,385.294,525.938 M386.521,526.867v-0.226
			c0-2.22-1.258-3.553-3.224-3.553c-1.951,0-3.344,1.468-3.344,3.583c0,2.191,1.378,3.66,3.419,3.66c1.381,0,2.43-0.614,3.104-1.829
			l-0.867-0.585c-0.556,0.975-1.275,1.456-2.177,1.456c-1.29,0-2.221-0.946-2.221-2.402v-0.104H386.521z M373.309,525.938h-4.081
			c0.12-1.141,0.945-1.847,2.04-1.847C372.484,524.092,373.234,524.753,373.309,525.938 M374.538,526.867v-0.226
			c0-2.22-1.259-3.553-3.225-3.553c-1.95,0-3.345,1.468-3.345,3.583c0,2.191,1.379,3.66,3.42,3.66c1.38,0,2.431-0.614,3.104-1.829
			l-0.869-0.585c-0.555,0.975-1.275,1.456-2.175,1.456c-1.291,0-2.222-0.946-2.222-2.402v-0.104H374.538z M361.819,528.924
			c0.524,0.944,1.394,1.408,2.639,1.408c1.486,0,2.445-0.883,2.445-2.129c0-1.096-0.645-1.575-1.949-1.995
			c-1.111-0.36-1.727-0.45-1.727-1.156c0-0.585,0.466-1.005,1.141-1.005c0.706,0,1.261,0.345,1.53,0.96l0.93-0.57
			c-0.36-0.854-1.229-1.333-2.385-1.333c-1.426,0-2.369,0.854-2.369,2.023c0,1.321,0.988,1.605,2.64,2.176
			c0.705,0.24,1.05,0.51,1.05,1.021c0,0.586-0.495,1.006-1.261,1.006c-0.765,0-1.335-0.346-1.71-1.066L361.819,528.924z
			 M359.195,526.763c0,1.545-0.842,2.432-2.191,2.432c-1.426,0-2.236-0.916-2.236-2.536c0-1.531,0.811-2.416,2.191-2.416
			C358.249,524.242,359.195,525.202,359.195,526.763 M360.303,523.344h-1.138v1.258c-0.511-0.989-1.336-1.498-2.461-1.498
			c-1.876,0-3.149,1.363-3.149,3.614c0,2.191,1.288,3.614,3.209,3.614c1.035,0,1.891-0.524,2.432-1.498v1.213h1.107V523.344z
			 M351.185,525.938h-4.082c0.12-1.141,0.945-1.847,2.041-1.847C350.359,524.092,351.11,524.753,351.185,525.938 M352.413,526.867
			v-0.226c0-2.22-1.258-3.553-3.225-3.553c-1.95,0-3.344,1.468-3.344,3.583c0,2.191,1.378,3.66,3.419,3.66
			c1.381,0,2.431-0.614,3.104-1.829l-0.869-0.585c-0.554,0.975-1.275,1.456-2.175,1.456c-1.291,0-2.222-0.946-2.222-2.402v-0.104
			H352.413z M339.049,530.467l3.314-7.709l1.364,7.289h1.245l-2.175-11.143l-3.749,8.863l-3.75-8.863l-2.174,11.143h1.245
			l1.349-7.289L339.049,530.467z M326.27,530.047h1.139v-4.56c0-1.516-0.898-2.384-2.385-2.384c-1.02,0-1.801,0.435-2.386,1.363
			c-0.389-0.899-1.168-1.363-2.249-1.363c-1.005,0-1.771,0.419-2.311,1.273v-1.034h-1.139v6.704h1.139v-3.464
			c0-0.165-0.016-0.33-0.016-0.48c0-0.511,0.061-0.931,0.346-1.291c0.359-0.465,0.916-0.72,1.53-0.72
			c1.142,0,1.666,0.66,1.666,2.011v3.944h1.139v-3.464c0-0.15-0.016-0.285-0.016-0.42c0-0.557,0.075-0.977,0.36-1.352
			c0.36-0.465,0.901-0.72,1.516-0.72c1.142,0,1.666,0.66,1.666,2.011V530.047z M309.153,526.718c0-1.426,1.081-2.536,2.431-2.536
			c1.336,0,2.416,1.11,2.416,2.536c0,1.425-1.08,2.536-2.416,2.536C310.249,529.254,309.153,528.143,309.153,526.718
			 M307.939,526.718c0,0.975,0.36,1.846,1.064,2.551c0.69,0.689,1.59,1.063,2.58,1.063c0.976,0,1.876-0.39,2.581-1.078
			c0.688-0.675,1.062-1.562,1.062-2.536s-0.374-1.876-1.062-2.551c-0.705-0.689-1.59-1.063-2.581-1.063
			c-0.99,0-1.89,0.359-2.58,1.049C308.3,524.842,307.939,525.743,307.939,526.718 M303.305,530.047h1.139v-3.269
			c0-1.757,0.6-2.626,1.814-2.626c0.21,0,0.45,0.045,0.705,0.135l0.39-1.033c-0.255-0.09-0.51-0.135-0.779-0.135
			c-1.021,0-1.65,0.479-2.249,1.618v-1.395h-1.02V530.047z M299.33,530.047h1.139v-5.76h1.785v-0.943h-1.785v-1.786
			c0-1.291,0.03-1.905,0.885-1.905c0.301,0,0.601,0.074,0.9,0.239v-1.183c-0.315-0.105-0.645-0.15-0.99-0.15
			c-1.604,0-1.934,0.838-1.934,2.85v1.936h-1.29v0.943h1.29V530.047z M291.306,526.732c0,1.591-0.871,2.491-2.251,2.491
			c-1.336,0-2.176-0.961-2.176-2.641c0-1.486,0.825-2.341,2.161-2.341C290.39,524.242,291.306,525.217,291.306,526.732
			 M292.414,518.694h-1.139v5.907c-0.511-0.988-1.336-1.498-2.445-1.498c-1.876,0-3.164,1.363-3.164,3.614
			c0,2.191,1.288,3.614,3.209,3.614c1.035,0,1.905-0.539,2.431-1.498v1.213h1.108V518.694z M283.296,525.938h-4.082
			c0.12-1.141,0.945-1.847,2.041-1.847C282.47,524.092,283.221,524.753,283.296,525.938 M284.523,526.867v-0.226
			c0-2.22-1.258-3.553-3.224-3.553c-1.951,0-3.344,1.468-3.344,3.583c0,2.191,1.378,3.66,3.419,3.66c1.38,0,2.43-0.614,3.104-1.829
			l-0.868-0.585c-0.555,0.975-1.275,1.456-2.176,1.456c-1.291,0-2.221-0.946-2.221-2.402v-0.104H284.523z M274.911,524.287v5.76
			h1.138v-5.76h1.26v-0.943h-1.26v-2.7h-1.138v2.7h-1.23v0.943H274.911z M267.334,526.718c0-1.591,0.87-2.506,2.251-2.506
			c1.336,0,2.176,0.96,2.176,2.641c0,1.485-0.825,2.356-2.161,2.356C268.25,529.209,267.334,528.232,267.334,526.718
			 M266.226,533.302h1.139v-4.468c0.51,0.989,1.336,1.498,2.445,1.498c1.876,0,3.164-1.349,3.164-3.614
			c0-2.206-1.288-3.614-3.209-3.614c-1.035,0-1.921,0.524-2.445,1.498v-1.259h-1.094V533.302z M262.896,526.763
			c0,1.545-0.84,2.432-2.19,2.432c-1.425,0-2.236-0.916-2.236-2.536c0-1.531,0.812-2.416,2.191-2.416
			C261.951,524.242,262.896,525.202,262.896,526.763 M264.004,523.344h-1.138v1.258c-0.511-0.989-1.335-1.498-2.461-1.498
			c-1.876,0-3.149,1.363-3.149,3.614c0,2.191,1.288,3.614,3.209,3.614c1.036,0,1.891-0.524,2.431-1.498v1.213h1.108V523.344z
			 M254.391,526.732c0,1.591-0.87,2.491-2.251,2.491c-1.335,0-2.175-0.961-2.175-2.641c0-1.486,0.825-2.341,2.16-2.341
			C253.476,524.242,254.391,525.217,254.391,526.732 M255.5,518.694h-1.139v5.907c-0.511-0.988-1.336-1.498-2.446-1.498
			c-1.875,0-3.164,1.363-3.164,3.614c0,2.191,1.289,3.614,3.209,3.614c1.036,0,1.906-0.539,2.431-1.498v1.213h1.109V518.694z
			 M243.47,521.723l1.71,3.946h-3.419L243.47,521.723z M243.47,518.904l-4.858,11.143h1.38l1.395-3.285h4.185l1.395,3.285h1.38
			L243.47,518.904z M231.426,529.328c0,0.479,0.375,0.854,0.87,0.854c0.494,0,0.884-0.375,0.884-0.854
			c0-0.48-0.39-0.869-0.884-0.869C231.815,528.459,231.426,528.848,231.426,529.328 M223.475,526.718
			c0-1.426,1.08-2.536,2.432-2.536c1.335,0,2.416,1.11,2.416,2.536c0,1.425-1.081,2.536-2.416,2.536
			C224.57,529.254,223.475,528.143,223.475,526.718 M222.262,526.718c0,0.975,0.359,1.846,1.063,2.551
			c0.689,0.689,1.59,1.063,2.581,1.063c0.975,0,1.875-0.39,2.58-1.078c0.688-0.675,1.063-1.562,1.063-2.536
			s-0.375-1.876-1.063-2.551c-0.705-0.689-1.591-1.063-2.58-1.063c-0.991,0-1.892,0.359-2.581,1.049
			C222.621,524.842,222.262,525.743,222.262,526.718 M215.39,526.732c0-1.516,0.931-2.49,2.281-2.49
			c1.335,0,2.161,0.854,2.161,2.341c0,1.68-0.856,2.641-2.191,2.641C216.26,529.224,215.39,528.323,215.39,526.732 M214.297,518.694
			v11.353h1.093v-1.213c0.525,0.96,1.411,1.498,2.446,1.498c1.921,0,3.209-1.423,3.209-3.614c0-2.251-1.288-3.614-3.164-3.614
			c-1.11,0-1.936,0.51-2.446,1.498v-5.907H214.297z M211.417,525.938h-4.082c0.12-1.141,0.945-1.847,2.041-1.847
			C210.592,524.092,211.342,524.753,211.417,525.938 M212.645,526.867v-0.226c0-2.22-1.258-3.553-3.224-3.553
			c-1.951,0-3.344,1.468-3.344,3.583c0,2.191,1.378,3.66,3.419,3.66c1.381,0,2.43-0.614,3.104-1.829l-0.869-0.585
			c-0.554,0.975-1.274,1.456-2.175,1.456c-1.291,0-2.221-0.946-2.221-2.402v-0.104H212.645z M205.145,528.459
			c-0.705,0.51-1.35,0.765-2.069,0.765c-1.396,0-2.4-1.081-2.4-2.431c0-1.591,1.021-2.581,2.49-2.581c0.66,0,1.29,0.21,1.86,0.585
			v-1.229c-0.615-0.299-1.336-0.464-2.086-0.464c-2.01,0-3.492,1.469-3.492,3.659c0,2.116,1.362,3.569,3.447,3.569
			c0.87,0,1.636-0.18,2.25-0.539V528.459z M196.672,526.763c0,1.545-0.84,2.432-2.191,2.432c-1.425,0-2.235-0.916-2.235-2.536
			c0-1.531,0.811-2.416,2.19-2.416C195.727,524.242,196.672,525.202,196.672,526.763 M197.78,523.344h-1.139v1.258
			c-0.51-0.989-1.335-1.498-2.461-1.498c-1.876,0-3.148,1.363-3.148,3.614c0,2.191,1.288,3.614,3.209,3.614
			c1.036,0,1.891-0.524,2.431-1.498v1.213h1.108V523.344z M188.047,530.047h1.138v-11.353h-1.138V530.047z M180.591,526.718
			c0-1.591,0.87-2.506,2.251-2.506c1.335,0,2.176,0.96,2.176,2.641c0,1.485-0.826,2.356-2.161,2.356
			C181.506,529.209,180.591,528.232,180.591,526.718 M179.482,533.302h1.139v-4.468c0.51,0.989,1.335,1.498,2.445,1.498
			c1.877,0,3.164-1.349,3.164-3.614c0-2.206-1.287-3.614-3.209-3.614c-1.035,0-1.921,0.524-2.445,1.498v-1.259h-1.094V533.302z
			 M168.397,528.924c0.524,0.944,1.394,1.408,2.64,1.408c1.484,0,2.443-0.883,2.443-2.129c0-1.096-0.644-1.575-1.948-1.995
			c-1.111-0.36-1.727-0.45-1.727-1.156c0-0.585,0.465-1.005,1.142-1.005c0.705,0,1.261,0.345,1.529,0.96l0.93-0.57
			c-0.359-0.854-1.229-1.333-2.385-1.333c-1.426,0-2.368,0.854-2.368,2.023c0,1.321,0.987,1.605,2.639,2.176
			c0.705,0.24,1.051,0.51,1.051,1.021c0,0.586-0.496,1.006-1.261,1.006c-0.767,0-1.336-0.346-1.711-1.066L168.397,528.924z
			 M164.646,530.467l3.3-7.123h-1.29l-2.024,4.679l-2.01-4.679h-1.289L164.646,530.467z M152.243,530.047h1.243v-10.618h-2.714
			l-0.72,1.108h2.19V530.047z M143.812,530.332c2.251,0,3.704-1.993,3.704-5.564c0-3.57-1.438-5.549-3.733-5.549
			c-2.236,0-3.704,2.008-3.704,5.549S141.546,530.332,143.812,530.332 M143.797,529.284c-1.486,0-2.401-1.621-2.401-4.531
			c0-2.896,0.915-4.501,2.401-4.501c1.561,0,2.401,1.545,2.401,4.531C146.198,527.753,145.357,529.284,143.797,529.284
			 M135.037,530.332c2.251,0,3.704-1.993,3.704-5.564c0-3.57-1.438-5.549-3.734-5.549c-2.236,0-3.704,2.008-3.704,5.549
			S132.771,530.332,135.037,530.332 M135.021,529.284c-1.485,0-2.4-1.621-2.4-4.531c0-2.896,0.915-4.501,2.4-4.501
			c1.562,0,2.401,1.545,2.401,4.531C137.423,527.753,136.583,529.284,135.021,529.284 M127.583,529.328
			c0,0.479,0.375,0.854,0.869,0.854c0.495,0,0.884-0.375,0.884-0.854c0-0.48-0.389-0.869-0.884-0.869
			C127.973,528.459,127.583,528.848,127.583,529.328 M121.912,530.332c2.251,0,3.704-1.993,3.704-5.564
			c0-3.57-1.438-5.549-3.734-5.549c-2.236,0-3.704,2.008-3.704,5.549S119.646,530.332,121.912,530.332 M121.896,529.284
			c-1.484,0-2.4-1.621-2.4-4.531c0-2.896,0.916-4.501,2.4-4.501c1.562,0,2.401,1.545,2.401,4.531
			C124.298,527.753,123.458,529.284,121.896,529.284 M115.611,522.594v-0.93l-8.623,3.539v0.75l8.623,3.539v-0.945l-7.318-2.969
			L115.611,522.594z M98.827,526.718c0-1.591,0.87-2.506,2.25-2.506c1.336,0,2.176,0.96,2.176,2.641
			c0,1.485-0.825,2.356-2.161,2.356C99.742,529.209,98.827,528.232,98.827,526.718 M97.718,533.302h1.138v-4.468
			c0.512,0.989,1.337,1.498,2.447,1.498c1.875,0,3.163-1.349,3.163-3.614c0-2.206-1.288-3.614-3.209-3.614
			c-1.035,0-1.92,0.524-2.445,1.498v-1.259h-1.094V533.302z M93.942,526.95h0.706v-5.143h1.558v-0.61h-1.558v-2.396h-0.706v2.396
			h-1.558v0.61h1.558V526.95z"/>
	</g>
</g>
</svg>
