<?xml version="1.0" encoding="utf-8"?>
<!-- Generator: Adobe Illustrator 15.1.0, SVG Export Plug-In . SVG Version: 6.00 Build 0)  -->
<!DOCTYPE svg PUBLIC "-//W3C//DTD SVG 1.1//EN" "http://www.w3.org/Graphics/SVG/1.1/DTD/svg11.dtd">
<svg version="1.1" id="art" xmlns="http://www.w3.org/2000/svg" xmlns:xlink="http://www.w3.org/1999/xlink" x="0px" y="0px"
	 width="912px" height="313px" viewBox="0 0 912 313" enable-background="new 0 0 912 313" xml:space="preserve">
<rect x="537.011" y="51.117" fill="#CCE0D4" width="173.593" height="260.39"/>
<rect x="201.397" y="22.185" fill="#C0C1C2" width="109.942" height="28.933"/>
<rect x="201.397" y="51.117" fill="#E6E6E7" width="109.942" height="260.39"/>
<rect x="312.786" y="22.185" fill="#F9A25E" width="110.666" height="28.933"/>
<rect x="424.898" y="22.185" fill="#F9A25E" width="110.665" height="28.933"/>
<rect x="537.011" y="22.185" fill="#006227" width="173.593" height="28.933"/>
<rect x="312.786" y="51.117" fill="#FBDAC1" width="110.666" height="260.39"/>
<rect x="424.898" y="51.117" fill="#FBDAC1" width="110.665" height="260.39"/>
<g opacity="0.3">
	<g>
		<defs>
			<rect id="SVGID_1_" x="312.37" y="214.223" width="398.958" height="13.742"/>
		</defs>
		<clipPath id="SVGID_2_">
			<use xlink:href="#SVGID_1_"  overflow="visible"/>
		</clipPath>
		<line clip-path="url(#SVGID_2_)" fill="none" stroke="#6D6E71" x1="710.604" y1="221.094" x2="313.093" y2="221.094"/>
	</g>
</g>
<path fill="none" stroke="#A8A8AA" stroke-width="5" d="M392.876,250.026h-6.361c0,0-3.588,0-3.588,3.586v12.688"/>
<path fill="none" stroke="#A8A8AA" stroke-width="5" d="M392.876,282.574h-6.361c0,0-3.588,0-3.588-3.587v-81.038"/>
<path fill="#FFFFFF" d="M220.204,91.803c0,0-2.894,0-2.894,2.16v86.095c0,0,0,2.158,2.894,2.158h57.864c0,0,2.894,0,2.894-2.158
	V93.962c0,0,0-2.16-2.894-2.16H220.204z"/>
<path fill="none" stroke="#A8A8AA" stroke-width="5" d="M312.786,90.899h-12.14c0,0-3.587,0-3.58,3.589l0.063,32.604
	c0,0,0.008,3.588-3.581,3.588h-12.325"/>
<path fill="none" stroke="#A8A8AA" stroke-width="5" d="M312.786,183.12h-12.14c0,0-3.587,0-3.582-3.588l0.067-45.263
	c0,0,0.006-3.588-3.583-3.588h-12.325"/>
<path fill="#FFFFFF" d="M315.68,168.653c0,0-2.894,0-2.894,2.894v23.146c0,0,0,2.893,2.894,2.893h89.689c0,0,2.894,0,2.894-2.893
	v-23.146c0,0,0-2.894-2.894-2.894H315.68z"/>
<path fill="none" stroke="#A8A8AA" stroke-width="5" d="M424.175,166.846h-6.361c0,0-3.588,0-3.588,3.588v10.517
	c0,0,0,2.17-2.17,2.17h-3.793"/>
<line fill="none" stroke="#A8A8AA" stroke-width="5" x1="280.961" y1="130.681" x2="312.786" y2="130.681"/>
<path fill="#FFFFFF" d="M315.68,116.214c0,0-2.894,0-2.894,2.893v23.146c0,0,0,2.893,2.894,2.893h376.118c0,0,2.893,0,2.893-2.893
	v-23.146c0,0,0-2.893-2.893-2.893H315.68z"/>
<path fill="#ECECED" d="M344.612,145.146v-28.932H315.68c0,0-2.894,0-2.894,2.893v23.146c0,0,0,2.893,2.894,2.893H344.612z"/>
<path fill="#FFFFFF" d="M315.68,76.433c0,0-2.894,0-2.894,2.893v23.146c0,0,0,2.894,2.894,2.894h376.118c0,0,2.893,0,2.893-2.894
	V79.326c0,0,0-2.893-2.893-2.893H315.68z"/>
<path fill="#ECECED" d="M344.612,105.365V76.433H315.68c0,0-2.894,0-2.894,2.893v23.146c0,0,0,2.894,2.894,2.894H344.612z"/>
<path fill="#FFFFFF" d="M427.069,155.997c0,0-2.894,0-2.894,2.892v15.913c0,0,0,2.894,2.894,2.894h264.729c0,0,2.893,0,2.893-2.894
	v-15.913c0,0,0-2.892-2.893-2.892H427.069z"/>
<path fill="#ECECED" d="M456,177.695v-21.699h-28.932c0,0-2.894,0-2.894,2.892v15.913c0,0,0,2.894,2.894,2.894H456z"/>
<path fill="#FFFFFF" d="M395.243,239.176c0,0-2.894,0-2.894,2.894v15.913c0,0,0,2.893,2.894,2.893h296.555c0,0,2.893,0,2.893-2.893
	v-15.913c0,0,0-2.894-2.893-2.894H395.243z"/>
<path fill="#ECECED" d="M419.112,260.875v-21.699h-23.869c0,0-2.894,0-2.894,2.894v15.913c0,0,0,2.893,2.894,2.893H419.112z"/>
<path fill="#FFFFFF" d="M427.069,188.545c0,0-2.894,0-2.894,2.894v15.912c0,0,0,2.894,2.894,2.894h264.729c0,0,2.893,0,2.893-2.894
	v-15.912c0,0,0-2.894-2.893-2.894H427.069z"/>
<path fill="#ECECED" d="M456,210.244v-21.699h-28.932c0,0-2.894,0-2.894,2.894v15.912c0,0,0,2.894,2.894,2.894H456z"/>
<path fill="#FFFFFF" d="M395.243,271.726c0,0-2.894,0-2.894,2.892v15.913c0,0,0,2.894,2.894,2.894h296.555c0,0,2.893,0,2.893-2.894
	v-15.913c0,0,0-2.892-2.893-2.892H395.243z"/>
<path fill="#ECECED" d="M419.112,293.424v-21.698h-23.869c0,0-2.894,0-2.894,2.892v15.913c0,0,0,2.894,2.894,2.894H419.112z"/>
<path fill="none" stroke="#A8A8AA" stroke-width="5" d="M424.175,199.395h-6.361c0,0-3.588,0-3.588-3.588V185.29
	c0,0,0-2.17-2.17-2.17h-3.793"/>
<polygon fill="#A7A8AA" points="312.786,94.762 316.648,90.899 312.786,87.036 "/>
<polygon fill="#A7A8AA" points="312.786,134.543 316.648,130.681 312.786,126.818 "/>
<polygon fill="#A7A8AA" points="312.786,186.981 316.648,183.12 312.786,179.258 "/>
<polygon fill="#A7A8AA" points="424.175,170.708 428.038,166.846 424.175,162.983 "/>
<polygon fill="#A7A8AA" points="392.35,253.888 396.212,250.026 392.35,246.164 "/>
<polygon fill="#A7A8AA" points="392.35,286.436 396.212,282.574 392.35,278.712 "/>
<polygon fill="#A7A8AA" points="424.175,203.258 428.038,199.395 424.175,195.532 "/>
<line fill="none" stroke="#F9A25E" stroke-width="3" x1="201.397" y1="311.507" x2="535.563" y2="311.507"/>
<line fill="none" stroke="#F9A25E" stroke-width="3" x1="596.332" y1="311.507" x2="604.288" y2="311.507"/>
<line fill="none" stroke="#F9A25E" stroke-width="3" x1="694.69" y1="311.507" x2="710.604" y2="311.507"/>
<path fill="#F9A25E" d="M586.178,311.507c0-0.826,0.667-1.492,1.493-1.492l0,0c0.816,0,1.492,0.666,1.492,1.492l0,0
	c0,0.826-0.676,1.493-1.492,1.493l0,0C586.845,313,586.178,312.333,586.178,311.507z M580.037,311.507
	c0-0.826,0.667-1.492,1.493-1.492l0,0c0.826,0,1.492,0.666,1.492,1.492l0,0c0,0.826-0.666,1.493-1.492,1.493l0,0
	C580.704,313,580.037,312.333,580.037,311.507z M573.896,311.507c0-0.826,0.667-1.492,1.493-1.492l0,0
	c0.826,0,1.493,0.666,1.493,1.492l0,0c0,0.826-0.667,1.493-1.493,1.493l0,0C574.563,313,573.896,312.333,573.896,311.507z
	 M567.756,311.507c0-0.826,0.677-1.492,1.503-1.492l0,0c0.816,0,1.493,0.666,1.493,1.492l0,0c0,0.826-0.677,1.493-1.493,1.493l0,0
	C568.433,313,567.756,312.333,567.756,311.507z M561.625,311.507c0-0.826,0.667-1.492,1.493-1.492l0,0
	c0.826,0,1.493,0.666,1.493,1.492l0,0c0,0.826-0.667,1.493-1.493,1.493l0,0C562.292,313,561.625,312.333,561.625,311.507z
	 M555.485,311.507c0-0.826,0.666-1.492,1.492-1.492l0,0c0.826,0,1.493,0.666,1.493,1.492l0,0c0,0.826-0.667,1.493-1.493,1.493l0,0
	C556.151,313,555.485,312.333,555.485,311.507z M549.345,311.507c0-0.826,0.666-1.492,1.492-1.492l0,0
	c0.826,0,1.493,0.666,1.493,1.492l0,0c0,0.826-0.667,1.493-1.493,1.493l0,0C550.011,313,549.345,312.333,549.345,311.507z
	 M543.214,311.507c0-0.826,0.667-1.492,1.493-1.492l0,0c0.825,0,1.492,0.666,1.492,1.492l0,0c0,0.826-0.667,1.493-1.492,1.493l0,0
	C543.881,313,543.214,312.333,543.214,311.507z"/>
<path fill="none" stroke="#F9A25E" stroke-width="3" stroke-linecap="round" stroke-linejoin="round" d="M593.768,311.507
	L593.768,311.507 M540.243,311.507L540.243,311.507"/>
<path fill="#F9A25E" d="M682.158,311.507c0-0.826,0.667-1.492,1.493-1.492l0,0c0.815,0,1.492,0.666,1.492,1.492l0,0
	c0,0.826-0.677,1.493-1.492,1.493l0,0C682.825,313,682.158,312.333,682.158,311.507z M676.316,311.507
	c0-0.826,0.666-1.492,1.492-1.492l0,0c0.826,0,1.493,0.666,1.493,1.492l0,0c0,0.826-0.667,1.493-1.493,1.493l0,0
	C676.982,313,676.316,312.333,676.316,311.507z M670.483,311.507c0-0.826,0.667-1.492,1.493-1.492l0,0
	c0.826,0,1.493,0.666,1.493,1.492l0,0c0,0.826-0.667,1.493-1.493,1.493l0,0C671.15,313,670.483,312.333,670.483,311.507z
	 M664.651,311.507c0-0.826,0.657-1.492,1.493-1.492l0,0c0.816,0,1.482,0.666,1.482,1.492l0,0c0,0.826-0.666,1.493-1.482,1.493l0,0
	C665.309,313,664.651,312.333,664.651,311.507z M658.811,311.507c0-0.826,0.666-1.492,1.492-1.492l0,0
	c0.825,0,1.493,0.666,1.493,1.492l0,0c0,0.826-0.668,1.493-1.493,1.493l0,0C659.477,313,658.811,312.333,658.811,311.507z
	 M652.978,311.507c0-0.826,0.667-1.492,1.493-1.492l0,0c0.826,0,1.492,0.666,1.492,1.492l0,0c0,0.826-0.666,1.493-1.492,1.493l0,0
	C653.645,313,652.978,312.333,652.978,311.507z M647.136,311.507c0-0.826,0.667-1.492,1.493-1.492l0,0
	c0.825,0,1.492,0.666,1.492,1.492l0,0c0,0.826-0.667,1.493-1.492,1.493l0,0C647.803,313,647.136,312.333,647.136,311.507z
	 M641.303,311.507c0-0.826,0.667-1.492,1.493-1.492l0,0c0.826,0,1.493,0.666,1.493,1.492l0,0c0,0.826-0.667,1.493-1.493,1.493l0,0
	C641.97,313,641.303,312.333,641.303,311.507z M635.461,311.507c0-0.826,0.678-1.492,1.493-1.492l0,0
	c0.826,0,1.492,0.666,1.492,1.492l0,0c0,0.826-0.666,1.493-1.492,1.493l0,0C636.139,313,635.461,312.333,635.461,311.507z
	 M629.63,311.507c0-0.826,0.666-1.492,1.492-1.492l0,0c0.826,0,1.493,0.666,1.493,1.492l0,0c0,0.826-0.667,1.493-1.493,1.493l0,0
	C630.296,313,629.63,312.333,629.63,311.507z M623.797,311.507c0-0.826,0.667-1.492,1.493-1.492l0,0
	c0.816,0,1.493,0.666,1.493,1.492l0,0c0,0.826-0.677,1.493-1.493,1.493l0,0C624.464,313,623.797,312.333,623.797,311.507z
	 M617.955,311.507c0-0.826,0.667-1.492,1.493-1.492l0,0c0.826,0,1.492,0.666,1.492,1.492l0,0c0,0.826-0.666,1.493-1.492,1.493l0,0
	C618.622,313,617.955,312.333,617.955,311.507z M612.124,311.507c0-0.826,0.666-1.492,1.492-1.492l0,0
	c0.826,0,1.493,0.666,1.493,1.492l0,0c0,0.826-0.667,1.493-1.493,1.493l0,0C612.79,313,612.124,312.333,612.124,311.507z"/>
<path fill="none" stroke="#F9A25E" stroke-width="3" stroke-linecap="round" stroke-linejoin="round" d="M689.968,311.507
	L689.968,311.507 M609.374,311.507L609.374,311.507"/>
<path fill="#F9A25E" d="M271.859,6.191c0,1.192-0.648,1.887-1.69,1.887c-1.1,0-1.725-0.706-1.725-1.956
	c0-1.181,0.625-1.864,1.69-1.864C271.13,4.258,271.859,4.988,271.859,6.191 M272.738,3.588h-0.902v0.96
	c-0.382-0.752-1.042-1.146-1.898-1.146c-1.447,0-2.43,1.03-2.43,2.754c0,1.678,0.995,2.766,2.476,2.766
	c0.799,0,1.47-0.405,1.875-1.145v0.868c0,0.474-0.023,0.856-0.221,1.181c-0.266,0.451-0.774,0.683-1.48,0.683
	c-0.996,0-1.539-0.452-1.539-1.216V9.223h-0.996c0.035,1.296,0.937,2.061,2.522,2.061c0.915,0,1.609-0.266,2.083-0.775
	c0.486-0.521,0.509-1.1,0.509-1.84V3.588z M261.512,8.761h0.88V6.087c0-0.567,0-0.995,0.301-1.365
	c0.289-0.359,0.741-0.556,1.261-0.556c0.926,0,1.377,0.509,1.377,1.551v3.044h0.879V5.243c0-1.169-0.74-1.84-1.944-1.84
	c-0.81,0-1.434,0.313-1.874,0.983V3.588h-0.88V8.761z M258.608,1.1c0,0.37,0.289,0.648,0.648,0.648c0.358,0,0.648-0.278,0.648-0.637
	c0-0.358-0.29-0.659-0.648-0.659C258.897,0.452,258.608,0.741,258.608,1.1 M258.816,8.761h0.879V3.588h-0.879V8.761z M252.381,8.761
	h0.879V6.087c0-0.567,0-0.995,0.301-1.365c0.29-0.359,0.741-0.556,1.261-0.556c0.926,0,1.378,0.509,1.378,1.551v3.044h0.879V5.243
	c0-1.169-0.74-1.84-1.944-1.84c-0.81,0-1.435,0.313-1.875,0.983V3.588h-0.879V8.761z M250.16,5.59h-3.148
	c0.093-0.879,0.729-1.424,1.574-1.424C249.523,4.166,250.102,4.675,250.16,5.59 M251.109,6.307V6.134
	c0-1.713-0.973-2.743-2.488-2.743c-1.504,0-2.581,1.134-2.581,2.766c0,1.689,1.065,2.824,2.639,2.824
	c1.065,0,1.875-0.474,2.396-1.412l-0.671-0.452c-0.427,0.752-0.983,1.123-1.677,1.123c-0.996,0-1.713-0.729-1.713-1.852V6.307
	H251.109z M244.27,5.59h-3.148c0.093-0.879,0.729-1.424,1.574-1.424C243.633,4.166,244.211,4.675,244.27,5.59 M245.218,6.307V6.134
	c0-1.713-0.972-2.743-2.488-2.743c-1.504,0-2.581,1.134-2.581,2.766c0,1.689,1.065,2.824,2.639,2.824
	c1.065,0,1.875-0.474,2.396-1.412l-0.672-0.452c-0.428,0.752-0.983,1.123-1.677,1.123c-0.996,0-1.713-0.729-1.713-1.852V6.307
	H245.218z M236.608,8.761h0.879V6.238c0-1.354,0.464-2.026,1.4-2.026c0.163,0,0.348,0.035,0.544,0.104l0.301-0.799
	c-0.196-0.069-0.393-0.104-0.602-0.104c-0.787,0-1.272,0.371-1.735,1.25V3.588h-0.787V8.761z M235.428,7.534
	c-0.543,0.393-1.042,0.59-1.597,0.59c-1.076,0-1.852-0.833-1.852-1.875c0-1.227,0.788-1.991,1.921-1.991
	c0.509,0,0.996,0.163,1.435,0.452V3.761c-0.474-0.232-1.03-0.359-1.609-0.359c-1.55,0-2.696,1.134-2.696,2.824
	c0,1.632,1.053,2.754,2.662,2.754c0.672,0,1.262-0.139,1.736-0.417V7.534z M228.669,4.166l-1.181-0.521
	c-0.751-0.335-1.11-0.741-1.11-1.331c0-0.706,0.521-1.204,1.261-1.204c0.59,0,1.042,0.324,1.4,0.949l0.81-0.521
	c-0.405-0.822-1.146-1.25-2.141-1.25c-1.377,0-2.326,0.88-2.326,2.037c0,1.007,0.532,1.724,1.632,2.187l1.007,0.428
	c0.856,0.371,1.285,0.915,1.285,1.655c0,0.902-0.66,1.539-1.655,1.539c-0.833,0-1.4-0.521-1.644-1.528l-0.891,0.44
	c0.312,1.227,1.227,1.921,2.534,1.921c1.597,0,2.65-1.018,2.65-2.534C230.301,5.393,229.745,4.641,228.669,4.166"/>
<path fill="#F9A25E" d="M530.374,6.203c0,1.227-0.672,1.921-1.737,1.921c-1.03,0-1.677-0.74-1.677-2.037
	c0-1.146,0.635-1.805,1.666-1.805C529.667,4.282,530.374,5.034,530.374,6.203 M531.229,0h-0.879v4.56
	c-0.394-0.764-1.03-1.157-1.888-1.157c-1.446,0-2.44,1.053-2.44,2.789c0,1.69,0.994,2.789,2.476,2.789
	c0.799,0,1.471-0.417,1.876-1.157v0.938h0.855V0z M520.41,6.191c0-1.1,0.833-1.956,1.873-1.956c1.03,0,1.863,0.856,1.863,1.956
	c0,1.099-0.833,1.956-1.863,1.956C521.255,8.147,520.41,7.291,520.41,6.191 M519.472,6.191c0,0.752,0.277,1.423,0.821,1.967
	c0.533,0.533,1.228,0.822,1.99,0.822c0.753,0,1.446-0.301,1.991-0.833c0.532-0.521,0.821-1.203,0.821-1.956
	c0-0.752-0.289-1.447-0.821-1.967c-0.545-0.532-1.227-0.822-1.991-0.822c-0.763,0-1.457,0.278-1.99,0.81
	C519.749,4.745,519.472,5.439,519.472,6.191 M516.982,1.1c0,0.37,0.29,0.648,0.649,0.648s0.647-0.278,0.647-0.637
	c0-0.358-0.288-0.659-0.647-0.659S516.982,0.741,516.982,1.1 M517.191,8.761h0.879V3.588h-0.879V8.761z M513.152,8.761h0.88V6.238
	c0-1.354,0.463-2.026,1.4-2.026c0.161,0,0.347,0.035,0.544,0.104l0.301-0.799c-0.197-0.069-0.393-0.104-0.602-0.104
	c-0.786,0-1.273,0.371-1.736,1.25V3.588h-0.787V8.761z M510.919,5.59h-3.147c0.093-0.879,0.729-1.424,1.574-1.424
	C510.282,4.166,510.862,4.675,510.919,5.59 M511.869,6.307V6.134c0-1.713-0.974-2.743-2.489-2.743c-1.504,0-2.581,1.134-2.581,2.766
	c0,1.689,1.065,2.824,2.64,2.824c1.063,0,1.874-0.474,2.396-1.412l-0.672-0.452c-0.428,0.752-0.983,1.123-1.678,1.123
	c-0.996,0-1.713-0.729-1.713-1.852V6.307H511.869z M502.507,5.045h0.751c0.856,0,1.528-0.022,2.084-0.416
	c0.521-0.371,0.844-1.053,0.844-1.863s-0.323-1.493-0.844-1.864c-0.556-0.393-1.239-0.417-2.084-0.417h-1.736v8.275h0.985V5.045z
	 M502.507,4.155V1.389h0.473c1.436,0,2.143,0.231,2.143,1.435c0,1.146-0.718,1.332-2.143,1.332H502.507z M495.377,8.761h0.879V0
	h-0.879V8.761z M492.763,6.226c0,1.192-0.647,1.875-1.69,1.875c-1.1,0-1.725-0.706-1.725-1.955c0-1.181,0.625-1.863,1.69-1.863
	C492.032,4.282,492.763,5.023,492.763,6.226 M493.618,3.588h-0.878V4.56c-0.396-0.764-1.03-1.157-1.898-1.157
	c-1.447,0-2.432,1.053-2.432,2.789c0,1.69,0.996,2.789,2.478,2.789c0.799,0,1.457-0.405,1.875-1.157v0.938h0.855V3.588z
	 M485.899,1.1c0,0.37,0.289,0.648,0.648,0.648c0.358,0,0.648-0.278,0.648-0.637c0-0.358-0.29-0.659-0.648-0.659
	C486.188,0.452,485.899,0.741,485.899,1.1 M486.107,8.761h0.88V3.588h-0.88V8.761z M482.069,8.761h0.88V6.238
	c0-1.354,0.462-2.026,1.399-2.026c0.162,0,0.348,0.035,0.544,0.104l0.301-0.799c-0.197-0.069-0.395-0.104-0.603-0.104
	c-0.786,0-1.272,0.371-1.734,1.25V3.588h-0.787V8.761z M477.787,8.761h0.983V1.423h2.338V0.486h-5.66v0.938h2.339V8.761z"/>
<path fill="#808285" d="M382.925,233.571c1.997,0,3.616-1.619,3.616-3.616c0-1.999-1.62-3.617-3.616-3.617
	c-1.998,0-3.617,1.618-3.617,3.617C379.308,231.952,380.928,233.571,382.925,233.571"/>
<path fill="#808285" d="M328.945,132.688v-4.021h0.398c0.89,0,1.504,0.014,1.932,0.375c0.427,0.354,0.651,0.904,0.651,1.636
	c0,0.73-0.231,1.294-0.651,1.642c-0.435,0.362-1.05,0.369-1.932,0.369H328.945z M328.331,133.266h1.215
	c0.839,0,1.519-0.021,2.12-0.483c0.592-0.456,0.903-1.172,0.903-2.098c0-0.927-0.311-1.649-0.903-2.106
	c-0.629-0.483-1.375-0.483-2.344-0.483h-0.99V133.266z M325.069,133.266h2.566v-0.584h-1.952v-4.585h-0.614V133.266z"/>
<path fill="#808285" d="M328.945,92.906v-4.022h0.398c0.89,0,1.504,0.014,1.932,0.376c0.427,0.354,0.651,0.904,0.651,1.636
	c0,0.73-0.231,1.294-0.651,1.642c-0.435,0.361-1.05,0.368-1.932,0.368H328.945z M328.331,93.484h1.215
	c0.839,0,1.519-0.021,2.12-0.483c0.592-0.456,0.903-1.171,0.903-2.098s-0.311-1.65-0.903-2.106
	c-0.629-0.483-1.375-0.483-2.344-0.483h-0.99V93.484z M325.069,93.484h2.566v-0.585h-1.952v-4.585h-0.614V93.484z"/>
<path fill="#808285" d="M440.333,168.854v-4.022h0.397c0.891,0,1.505,0.014,1.932,0.376c0.426,0.355,0.651,0.904,0.651,1.636
	c0,0.73-0.232,1.294-0.651,1.642c-0.434,0.361-1.049,0.369-1.932,0.369H440.333z M439.719,169.432h1.215
	c0.839,0,1.52-0.021,2.12-0.484c0.593-0.456,0.903-1.172,0.903-2.097c0-0.927-0.311-1.65-0.903-2.106
	c-0.629-0.483-1.375-0.483-2.344-0.483h-0.991V169.432z M436.457,169.432h2.567v-0.586h-1.953v-4.585h-0.614V169.432z"/>
<path fill="#808285" d="M405.977,252.033v-4.022h0.398c0.89,0,1.504,0.015,1.932,0.377c0.426,0.354,0.651,0.904,0.651,1.636
	c0,0.729-0.231,1.294-0.651,1.641c-0.434,0.362-1.05,0.369-1.932,0.369H405.977z M405.362,252.611h1.215
	c0.838,0,1.519-0.021,2.12-0.483c0.592-0.457,0.903-1.173,0.903-2.098c0-0.927-0.311-1.65-0.903-2.106
	c-0.63-0.483-1.376-0.483-2.345-0.483h-0.99V252.611z M402.101,252.611h2.566v-0.585h-1.952v-4.586h-0.614V252.611z"/>
<path fill="#808285" d="M440.333,201.402v-4.022h0.397c0.891,0,1.505,0.015,1.932,0.377c0.426,0.354,0.651,0.903,0.651,1.636
	c0,0.729-0.232,1.293-0.651,1.641c-0.434,0.362-1.049,0.369-1.932,0.369H440.333z M439.719,201.98h1.215
	c0.839,0,1.52-0.021,2.12-0.485c0.593-0.455,0.903-1.171,0.903-2.097c0-0.927-0.311-1.649-0.903-2.106
	c-0.629-0.482-1.375-0.482-2.344-0.482h-0.991V201.98z M436.457,201.98h2.567v-0.585h-1.953v-4.586h-0.614V201.98z"/>
<path fill="#808285" d="M405.977,284.582v-4.021h0.398c0.89,0,1.504,0.014,1.932,0.375c0.426,0.355,0.651,0.904,0.651,1.636
	c0,0.73-0.231,1.294-0.651,1.643c-0.434,0.36-1.05,0.368-1.932,0.368H405.977z M405.362,285.16h1.215
	c0.838,0,1.519-0.021,2.12-0.484c0.592-0.455,0.903-1.172,0.903-2.097c0-0.928-0.311-1.65-0.903-2.105
	c-0.63-0.483-1.376-0.483-2.345-0.483h-0.99V285.16z M402.101,285.16h2.566v-0.586h-1.952v-4.584h-0.614V285.16z"/>
<path fill="#FFFFFF" d="M293.144,39.753h0.72v-6.144h-1.571l-0.416,0.642h1.267V39.753z M288.935,36.482
	c0,0.277,0.216,0.503,0.502,0.503c0.286,0,0.502-0.226,0.502-0.503c0-0.278-0.225-0.503-0.502-0.503
	C289.159,35.979,288.935,36.204,288.935,36.482 M288.935,39.329c0,0.277,0.216,0.502,0.502,0.502c0.286,0,0.502-0.226,0.502-0.502
	c0-0.277-0.225-0.495-0.502-0.495C289.159,38.834,288.935,39.052,288.935,39.329 M285.342,39.753h0.719v-6.144h-1.569l-0.417,0.642
	h1.268V39.753z M281.132,36.482c0,0.277,0.216,0.503,0.502,0.503s0.503-0.226,0.503-0.503c0-0.278-0.225-0.503-0.503-0.503
	C281.357,35.979,281.132,36.204,281.132,36.482 M281.132,39.329c0,0.277,0.216,0.502,0.502,0.502s0.503-0.226,0.503-0.502
	c0-0.277-0.225-0.495-0.503-0.495C281.357,38.834,281.132,39.052,281.132,39.329 M277.539,39.753h0.718v-6.144h-1.569l-0.416,0.642
	h1.267V39.753z M268.537,39.753h0.659v-2.004c0-0.426,0-0.747,0.227-1.024c0.217-0.27,0.555-0.417,0.946-0.417
	c0.695,0,1.034,0.382,1.034,1.164v2.282h0.658v-2.638c0-0.877-0.554-1.38-1.458-1.38c-0.608,0-1.076,0.235-1.407,0.737v-0.598
	h-0.659V39.753z M264.032,37.827c0-0.825,0.625-1.467,1.406-1.467c0.773,0,1.398,0.643,1.398,1.467c0,0.825-0.625,1.468-1.398,1.468
	C264.665,39.295,264.032,38.652,264.032,37.827 M263.33,37.827c0,0.564,0.208,1.068,0.616,1.477
	c0.399,0.398,0.919,0.615,1.493,0.615c0.564,0,1.086-0.226,1.494-0.624c0.398-0.391,0.615-0.903,0.615-1.468
	c0-0.565-0.217-1.086-0.615-1.476c-0.408-0.399-0.92-0.616-1.494-0.616s-1.094,0.209-1.493,0.607
	C263.539,36.741,263.33,37.262,263.33,37.827 M261.463,34.008c0,0.277,0.217,0.485,0.486,0.485c0.27,0,0.485-0.208,0.485-0.476
	c0-0.269-0.216-0.494-0.485-0.494C261.681,33.523,261.463,33.739,261.463,34.008 M261.62,39.753h0.659v-3.878h-0.659V39.753z
	 M259.484,36.421v3.333h0.659v-3.333h0.729v-0.546h-0.729v-1.562h-0.659v1.562h-0.712v0.546H259.484z M257.454,37.853
	c0,0.895-0.486,1.407-1.267,1.407c-0.826,0-1.294-0.529-1.294-1.467c0-0.886,0.469-1.398,1.268-1.398
	C256.907,36.395,257.454,36.95,257.454,37.853 M258.096,35.875h-0.659v0.728c-0.296-0.573-0.773-0.867-1.424-0.867
	c-1.085,0-1.822,0.79-1.822,2.092c0,1.268,0.745,2.091,1.857,2.091c0.599,0,1.093-0.303,1.406-0.867v0.702h0.642V35.875z
	 M250.589,39.103c0.303,0.547,0.806,0.815,1.527,0.815c0.859,0,1.414-0.512,1.414-1.232c0-0.633-0.373-0.911-1.127-1.154
	c-0.643-0.209-0.999-0.261-0.999-0.67c0-0.338,0.269-0.581,0.66-0.581c0.408,0,0.729,0.199,0.886,0.555l0.538-0.329
	c-0.208-0.494-0.711-0.772-1.379-0.772c-0.826,0-1.371,0.494-1.371,1.171c0,0.765,0.572,0.93,1.527,1.259
	c0.408,0.139,0.608,0.296,0.608,0.591c0,0.338-0.287,0.582-0.73,0.582s-0.773-0.2-0.989-0.617L250.589,39.103z M248.818,34.008
	c0,0.277,0.217,0.485,0.485,0.485s0.485-0.208,0.485-0.476c0-0.269-0.217-0.494-0.485-0.494S248.818,33.739,248.818,34.008
	 M248.975,39.753h0.659v-3.878h-0.659V39.753z M247.021,39.753h0.658v-2.638c0-0.877-0.52-1.38-1.379-1.38
	c-0.59,0-1.042,0.252-1.381,0.79c-0.225-0.52-0.675-0.79-1.301-0.79c-0.582,0-1.024,0.244-1.337,0.737v-0.598h-0.658v3.879h0.658
	v-2.004c0-0.095-0.009-0.191-0.009-0.277c0-0.296,0.035-0.539,0.2-0.747c0.208-0.27,0.53-0.417,0.886-0.417
	c0.66,0,0.964,0.382,0.964,1.164v2.282h0.659v-2.004c0-0.086-0.009-0.165-0.009-0.243c0-0.322,0.043-0.565,0.208-0.782
	c0.209-0.27,0.521-0.417,0.877-0.417c0.66,0,0.964,0.382,0.964,1.164V39.753z M237.117,37.827c0-0.825,0.626-1.467,1.407-1.467
	c0.772,0,1.397,0.643,1.397,1.467c0,0.825-0.625,1.468-1.397,1.468C237.751,39.295,237.117,38.652,237.117,37.827 M236.416,37.827
	c0,0.564,0.208,1.068,0.615,1.477c0.399,0.398,0.92,0.615,1.493,0.615c0.565,0,1.085-0.226,1.493-0.624
	c0.398-0.391,0.615-0.903,0.615-1.468c0-0.565-0.217-1.086-0.615-1.476c-0.408-0.399-0.919-0.616-1.493-0.616
	c-0.573,0-1.094,0.209-1.493,0.607C236.623,36.741,236.416,37.262,236.416,37.827 M234.775,37.836c0,0.92-0.504,1.44-1.303,1.44
	c-0.773,0-1.259-0.556-1.259-1.528c0-0.86,0.477-1.354,1.25-1.354C234.245,36.395,234.775,36.958,234.775,37.836 M235.417,33.184
	h-0.659v3.418c-0.295-0.572-0.772-0.867-1.416-0.867c-1.084,0-1.831,0.79-1.831,2.092c0,1.268,0.746,2.091,1.856,2.091
	c0.6,0,1.104-0.312,1.407-0.867v0.702h0.642V33.184z M227.015,39.753h0.659v-2.004c0-0.426,0-0.747,0.226-1.024
	c0.216-0.27,0.555-0.417,0.946-0.417c0.695,0,1.034,0.382,1.034,1.164v2.282h0.659v-2.638c0-0.877-0.554-1.38-1.458-1.38
	c-0.608,0-1.077,0.235-1.406,0.737v-0.598h-0.659V39.753z M225.088,37.853c0,0.895-0.486,1.407-1.268,1.407
	c-0.825,0-1.293-0.529-1.293-1.467c0-0.886,0.468-1.398,1.268-1.398C224.542,36.395,225.088,36.95,225.088,37.853 M225.73,35.875
	h-0.659v0.728c-0.295-0.573-0.772-0.867-1.423-0.867c-1.086,0-1.823,0.79-1.823,2.092c0,1.268,0.747,2.091,1.858,2.091
	c0.599,0,1.094-0.303,1.406-0.867v0.702h0.642V35.875z M217.589,39.753h0.737v-2.959h0.086l2.266,2.959h0.937l-2.369-2.959h0.13
	c1.094,0,1.675-0.538,1.675-1.553c0-0.609-0.226-1.103-0.581-1.38c-0.382-0.294-0.833-0.311-1.424-0.311h-1.458V39.753z
	 M218.326,34.173h0.546c0.981,0,1.452,0.173,1.452,1.077c0,0.859-0.479,0.999-1.452,0.999h-0.546V34.173z"/>
<path fill="#FFFFFF" d="M391.385,37.836c0,0.92-0.502,1.44-1.302,1.44c-0.772,0-1.259-0.556-1.259-1.528
	c0-0.86,0.478-1.354,1.251-1.354C390.855,36.395,391.385,36.958,391.385,37.836 M392.026,33.184h-0.658v3.418
	c-0.295-0.572-0.774-0.867-1.416-0.867c-1.086,0-1.831,0.79-1.831,2.092c0,1.268,0.745,2.091,1.857,2.091
	c0.599,0,1.103-0.312,1.406-0.867v0.702h0.642V33.184z M383.626,39.753h0.658v-2.004c0-0.426,0-0.747,0.226-1.024
	c0.217-0.27,0.556-0.417,0.947-0.417c0.695,0,1.033,0.382,1.033,1.164v2.282h0.658v-2.638c0-0.877-0.554-1.38-1.458-1.38
	c-0.607,0-1.076,0.235-1.406,0.737v-0.598h-0.658V39.753z M381.447,34.008c0,0.277,0.217,0.485,0.486,0.485s0.486-0.208,0.486-0.476
	c0-0.269-0.217-0.495-0.486-0.495S381.447,33.739,381.447,34.008 M381.604,39.753h0.658v-3.878h-0.658V39.753z M379.547,39.753
	h0.657v-6.569h-0.657V39.753z M375.223,37.836c0-0.878,0.539-1.442,1.32-1.442c0.773,0,1.25,0.495,1.25,1.354
	c0,0.972-0.495,1.528-1.267,1.528C375.726,39.277,375.223,38.756,375.223,37.836 M374.59,33.184v6.569h0.633v-0.702
	c0.304,0.555,0.815,0.867,1.416,0.867c1.111,0,1.856-0.824,1.856-2.091c0-1.302-0.746-2.092-1.831-2.092
	c-0.643,0-1.121,0.295-1.416,0.867v-3.418H374.59z M371.378,38.156h1.978V37.49h-1.978V38.156z M369.791,37.377h-2.362
	c0.07-0.66,0.547-1.069,1.182-1.069C369.312,36.308,369.747,36.69,369.791,37.377 M370.501,37.914v-0.13
	c0-1.285-0.728-2.056-1.865-2.056c-1.129,0-1.936,0.85-1.936,2.073c0,1.268,0.798,2.118,1.979,2.118
	c0.798,0,1.406-0.355,1.796-1.058l-0.503-0.338c-0.321,0.564-0.738,0.842-1.259,0.842c-0.747,0-1.285-0.547-1.285-1.39v-0.061
	H370.501z M365.017,39.753h0.659v-6.569h-0.659V39.753z M360.693,37.836c0-0.878,0.538-1.442,1.32-1.442
	c0.772,0,1.25,0.495,1.25,1.354c0,0.972-0.495,1.528-1.268,1.528C361.197,39.277,360.693,38.756,360.693,37.836 M360.061,33.184
	v6.569h0.633v-0.702c0.303,0.555,0.816,0.867,1.415,0.867c1.112,0,1.857-0.824,1.857-2.091c0-1.302-0.745-2.092-1.831-2.092
	c-0.642,0-1.12,0.295-1.416,0.867v-3.418H360.061z M355.962,35.875h-0.658v2.317c0,1.137,0.615,1.726,1.744,1.726
	c1.164,0,1.77-0.607,1.77-1.779v-2.265h-0.658v1.909c0,1.024-0.243,1.501-1.094,1.501c-0.852,0-1.104-0.478-1.104-1.501V35.875z
	 M350.851,37.827c0-0.825,0.625-1.467,1.407-1.467c0.773,0,1.398,0.643,1.398,1.467c0,0.825-0.625,1.468-1.398,1.468
	S350.851,38.652,350.851,37.827 M350.148,37.827c0,0.564,0.208,1.068,0.616,1.477c0.399,0.398,0.92,0.615,1.493,0.615
	c0.564,0,1.085-0.226,1.494-0.624c0.398-0.391,0.615-0.903,0.615-1.468c0-0.565-0.216-1.086-0.615-1.476
	c-0.409-0.399-0.921-0.616-1.494-0.616s-1.093,0.209-1.493,0.607C350.356,36.741,350.148,37.262,350.148,37.827 M345.019,39.061
	v-4.828h0.477c1.068,0,1.806,0.018,2.318,0.452c0.512,0.425,0.782,1.084,0.782,1.962c0,0.877-0.279,1.554-0.782,1.971
	c-0.522,0.435-1.259,0.443-2.318,0.443H345.019z M344.281,39.753h1.458c1.006,0,1.823-0.025,2.543-0.58
	c0.711-0.547,1.084-1.407,1.084-2.518c0-1.112-0.373-1.979-1.084-2.526c-0.755-0.58-1.65-0.58-2.813-0.58h-1.188V39.753z"/>
<path fill="#FFFFFF" d="M499.4,37.836c0,0.92-0.503,1.44-1.303,1.44c-0.773,0-1.26-0.556-1.26-1.528c0-0.86,0.479-1.354,1.251-1.354
	C498.871,36.395,499.4,36.958,499.4,37.836 M500.043,33.184h-0.659v3.418c-0.296-0.572-0.772-0.867-1.417-0.867
	c-1.084,0-1.83,0.79-1.83,2.092c0,1.268,0.746,2.091,1.857,2.091c0.6,0,1.103-0.312,1.406-0.867v0.702h0.643V33.184z
	 M491.641,39.753h0.659v-2.004c0-0.426,0-0.747,0.226-1.024c0.217-0.27,0.556-0.417,0.946-0.417c0.694,0,1.033,0.382,1.033,1.164
	v2.282h0.659v-2.638c0-0.877-0.555-1.38-1.458-1.38c-0.607,0-1.077,0.235-1.406,0.737v-0.598h-0.659V39.753z M489.463,34.008
	c0,0.277,0.217,0.485,0.485,0.485s0.486-0.208,0.486-0.476c0-0.269-0.218-0.495-0.486-0.495S489.463,33.739,489.463,34.008
	 M489.619,39.753h0.658v-3.878h-0.658V39.753z M487.562,39.753h0.658v-6.569h-0.658V39.753z M483.238,37.836
	c0-0.878,0.538-1.442,1.32-1.442c0.772,0,1.25,0.495,1.25,1.354c0,0.972-0.495,1.528-1.268,1.528
	C483.742,39.277,483.238,38.756,483.238,37.836 M482.606,33.184v6.569h0.632v-0.702c0.304,0.555,0.815,0.867,1.415,0.867
	c1.112,0,1.857-0.824,1.857-2.091c0-1.302-0.745-2.092-1.831-2.092c-0.642,0-1.12,0.295-1.415,0.867v-3.418H482.606z
	 M479.395,38.156h1.977V37.49h-1.977V38.156z M477.807,37.377h-2.363c0.069-0.66,0.549-1.069,1.182-1.069
	C477.328,36.308,477.762,36.69,477.807,37.377 M478.516,37.914v-0.13c0-1.285-0.728-2.056-1.865-2.056
	c-1.129,0-1.934,0.85-1.934,2.073c0,1.268,0.796,2.118,1.978,2.118c0.798,0,1.406-0.355,1.796-1.058l-0.503-0.338
	c-0.32,0.564-0.737,0.842-1.258,0.842c-0.747,0-1.286-0.547-1.286-1.39v-0.061H478.516z M471.157,39.103
	c0.304,0.547,0.806,0.815,1.527,0.815c0.858,0,1.414-0.512,1.414-1.232c0-0.633-0.373-0.911-1.128-1.154
	c-0.642-0.209-0.999-0.261-0.999-0.669c0-0.338,0.27-0.582,0.66-0.582c0.409,0,0.73,0.199,0.887,0.555l0.536-0.329
	c-0.208-0.494-0.709-0.772-1.379-0.772c-0.826,0-1.371,0.494-1.371,1.171c0,0.765,0.571,0.93,1.527,1.259
	c0.407,0.139,0.608,0.296,0.608,0.591c0,0.338-0.287,0.582-0.729,0.582c-0.443,0-0.773-0.2-0.989-0.617L471.157,39.103z
	 M467.06,37.827c0-0.825,0.624-1.467,1.407-1.467c0.773,0,1.397,0.643,1.397,1.467c0,0.825-0.624,1.468-1.397,1.468
	C467.692,39.295,467.06,38.652,467.06,37.827 M466.358,37.827c0,0.564,0.207,1.068,0.614,1.477c0.399,0.398,0.92,0.615,1.494,0.615
	c0.563,0,1.085-0.226,1.493-0.624c0.398-0.391,0.614-0.903,0.614-1.468c0-0.565-0.216-1.086-0.614-1.476
	c-0.408-0.399-0.921-0.616-1.493-0.616c-0.574,0-1.095,0.209-1.494,0.607C466.565,36.741,466.358,37.262,466.358,37.827
	 M461.227,39.061v-4.828h0.479c1.067,0,1.804,0.018,2.316,0.452c0.513,0.425,0.782,1.084,0.782,1.962
	c0,0.877-0.277,1.554-0.782,1.971c-0.521,0.435-1.257,0.443-2.316,0.443H461.227z M460.49,39.753h1.458
	c1.007,0,1.822-0.025,2.543-0.58c0.713-0.547,1.084-1.407,1.084-2.518c0-1.112-0.371-1.979-1.084-2.526
	c-0.755-0.58-1.65-0.58-2.812-0.58h-1.188V39.753z"/>
<path fill="#FFFFFF" d="M659.91,39.753h0.658v-2.004c0-0.425,0-0.747,0.226-1.024c0.218-0.27,0.557-0.417,0.946-0.417
	c0.695,0,1.034,0.382,1.034,1.164v2.282h0.658v-2.638c0-0.877-0.555-1.38-1.457-1.38c-0.607,0-1.078,0.234-1.407,0.736v-0.598
	h-0.658V39.753z M655.403,37.827c0-0.825,0.626-1.467,1.407-1.467c0.773,0,1.398,0.643,1.398,1.467c0,0.825-0.625,1.468-1.398,1.468
	C656.039,39.295,655.403,38.652,655.403,37.827 M654.702,37.827c0,0.564,0.208,1.068,0.616,1.477
	c0.399,0.398,0.919,0.615,1.492,0.615c0.564,0,1.085-0.226,1.494-0.624c0.397-0.391,0.614-0.903,0.614-1.468
	c0-0.564-0.217-1.086-0.614-1.476c-0.409-0.398-0.92-0.615-1.494-0.615c-0.573,0-1.093,0.208-1.492,0.606
	C654.91,36.741,654.702,37.263,654.702,37.827 M652.836,34.008c0,0.277,0.218,0.485,0.484,0.485c0.27,0,0.487-0.208,0.487-0.477
	c0-0.269-0.218-0.494-0.487-0.494C653.054,33.522,652.836,33.739,652.836,34.008 M652.993,39.753h0.658v-3.878h-0.658V39.753z
	 M649.061,39.104c0.304,0.546,0.807,0.814,1.527,0.814c0.859,0,1.414-0.511,1.414-1.232c0-0.633-0.373-0.911-1.127-1.154
	c-0.644-0.208-0.999-0.261-0.999-0.668c0-0.339,0.269-0.582,0.659-0.582c0.409,0,0.73,0.199,0.886,0.556l0.537-0.33
	c-0.207-0.494-0.709-0.771-1.379-0.771c-0.825,0-1.371,0.494-1.371,1.171c0,0.764,0.572,0.929,1.527,1.258
	c0.408,0.139,0.607,0.296,0.607,0.591c0,0.338-0.286,0.582-0.729,0.582c-0.442,0-0.771-0.2-0.988-0.618L649.061,39.104z
	 M644.678,39.753h0.659v-2.004c0-0.425,0-0.747,0.225-1.024c0.218-0.27,0.556-0.417,0.946-0.417c0.695,0,1.035,0.382,1.035,1.164
	v2.282h0.658v-2.638c0-0.877-0.556-1.38-1.458-1.38c-0.608,0-1.077,0.234-1.406,0.736v-0.598h-0.659V39.753z M643.01,37.376h-2.36
	c0.068-0.66,0.547-1.069,1.181-1.069C642.534,36.308,642.967,36.69,643.01,37.376 M643.723,37.914v-0.13
	c0-1.284-0.729-2.056-1.866-2.056c-1.129,0-1.936,0.85-1.936,2.074c0,1.267,0.797,2.117,1.978,2.117c0.8,0,1.407-0.355,1.798-1.058
	l-0.504-0.339c-0.319,0.564-0.737,0.843-1.259,0.843c-0.746,0-1.284-0.547-1.284-1.39v-0.061H643.723z M638.159,36.421v3.333h0.658
	v-3.333h0.729v-0.546h-0.729v-1.562h-0.658v1.562h-0.713v0.546H638.159z M633.663,39.753h0.825l1.05-1.501l1.059,1.501h0.823
	l-1.5-2.004l1.457-1.874h-0.824l-1.015,1.388l-1.007-1.388h-0.824l1.449,1.874L633.663,39.753z M629.931,39.753h3.271v-0.684h-2.534
	V36.69h2.534v-0.685h-2.534v-1.781h2.534v-0.675h-3.271V39.753z M625.322,39.753h0.658v-6.569h-0.658V39.753z M623.621,37.376
	h-2.361c0.068-0.66,0.547-1.069,1.181-1.069C623.144,36.308,623.578,36.69,623.621,37.376 M624.332,37.914v-0.13
	c0-1.284-0.729-2.056-1.865-2.056c-1.13,0-1.937,0.85-1.937,2.074c0,1.267,0.798,2.117,1.979,2.117c0.8,0,1.406-0.355,1.797-1.058
	l-0.504-0.339c-0.32,0.564-0.737,0.843-1.26,0.843c-0.744,0-1.283-0.547-1.283-1.39v-0.061H624.332z M616.581,37.836
	c0-0.877,0.538-1.442,1.319-1.442c0.773,0,1.251,0.495,1.251,1.354c0,0.972-0.495,1.528-1.268,1.528
	C617.085,39.277,616.581,38.756,616.581,37.836 M615.948,33.184v6.569h0.633v-0.702c0.304,0.556,0.816,0.867,1.415,0.867
	c1.111,0,1.857-0.824,1.857-2.091c0-1.302-0.746-2.091-1.831-2.091c-0.643,0-1.121,0.294-1.416,0.867v-3.418H615.948z
	 M614.021,37.853c0,0.895-0.486,1.407-1.268,1.407c-0.825,0-1.294-0.53-1.294-1.468c0-0.885,0.469-1.398,1.268-1.398
	C613.475,36.395,614.021,36.951,614.021,37.853 M614.663,35.875h-0.659v0.728c-0.295-0.573-0.772-0.867-1.424-0.867
	c-1.084,0-1.822,0.789-1.822,2.091c0,1.268,0.746,2.091,1.857,2.091c0.6,0,1.094-0.303,1.406-0.867v0.702h0.642V35.875z
	 M609.031,39.753h0.658v-6.569h-0.658V39.753z M605.784,38.156h1.979V37.49h-1.979V38.156z M601.072,39.753h0.659v-2.004
	c0-0.425,0-0.747,0.226-1.024c0.215-0.27,0.556-0.417,0.946-0.417c0.694,0,1.033,0.382,1.033,1.164v2.282h0.659v-2.638
	c0-0.877-0.557-1.38-1.458-1.38c-0.608,0-1.077,0.234-1.406,0.736v-0.598h-0.659V39.753z M599.405,37.376h-2.361
	c0.068-0.66,0.546-1.069,1.181-1.069C598.928,36.308,599.361,36.69,599.405,37.376 M600.116,37.914v-0.13
	c0-1.284-0.729-2.056-1.866-2.056c-1.128,0-1.935,0.85-1.935,2.074c0,1.267,0.797,2.117,1.979,2.117
	c0.799,0,1.405-0.355,1.795-1.058l-0.503-0.339c-0.32,0.564-0.737,0.843-1.258,0.843c-0.748,0-1.285-0.547-1.285-1.39v-0.061
	H600.116z M592.374,37.827c0-0.92,0.503-1.45,1.302-1.45c0.772,0,1.26,0.556,1.26,1.528c0,0.86-0.479,1.364-1.25,1.364
	C592.903,39.269,592.374,38.704,592.374,37.827 M591.732,41.637h0.659v-2.585c0.295,0.572,0.771,0.867,1.415,0.867
	c1.084,0,1.831-0.78,1.831-2.091c0-1.277-0.747-2.091-1.856-2.091c-0.601,0-1.112,0.303-1.415,0.867v-0.729h-0.634V41.637z
	 M587.323,39.226c-0.686,0-1.303-0.26-1.798-0.755c-0.485-0.496-0.747-1.112-0.747-1.806c0-0.694,0.262-1.328,0.747-1.823
	c0.478-0.486,1.112-0.747,1.798-0.747s1.311,0.261,1.796,0.747c0.486,0.486,0.748,1.129,0.748,1.823
	c0,0.694-0.262,1.319-0.748,1.806C588.625,38.965,588,39.226,587.323,39.226 M590.638,36.664c0-0.885-0.328-1.693-0.962-2.309
	c-0.625-0.607-1.476-0.945-2.353-0.945s-1.72,0.338-2.345,0.945c-0.632,0.616-0.971,1.424-0.971,2.309s0.339,1.685,0.971,2.301
	c0.625,0.607,1.468,0.953,2.345,0.953c0.868,0,1.719-0.337,2.353-0.953C590.3,38.357,590.638,37.549,590.638,36.664"/>
</svg>
