<?xml version="1.0" encoding="utf-8"?>
<!-- Generator: Adobe Illustrator 15.1.0, SVG Export Plug-In . SVG Version: 6.00 Build 0)  -->
<!DOCTYPE svg PUBLIC "-//W3C//DTD SVG 1.1//EN" "http://www.w3.org/Graphics/SVG/1.1/DTD/svg11.dtd">
<svg version="1.1" id="Layer_1" xmlns="http://www.w3.org/2000/svg" xmlns:xlink="http://www.w3.org/1999/xlink" x="0px" y="0px"
	 width="912px" height="341.367px" viewBox="0 0 912 341.367" enable-background="new 0 0 912 341.367" xml:space="preserve">
<rect fill="#F3E3D5" width="912" height="40"/>
<rect y="320" fill="#F3E3D5" width="912" height="20"/>
<rect y="80" fill="#F3E3D5" width="912" height="40"/>
<rect y="160" fill="#F3E3D5" width="912" height="40"/>
<rect y="240" fill="#F3E3D5" width="912" height="40"/>
<g>
	<defs>
		<rect id="SVGID_1_" x="-9" y="-1" width="930" height="342.5"/>
	</defs>
	<clipPath id="SVGID_2_">
		<use xlink:href="#SVGID_1_"  overflow="visible"/>
	</clipPath>
	
		<line clip-path="url(#SVGID_2_)" fill="none" stroke="#6D6E71" stroke-dasharray="4,4" x1="354.667" y1="0" x2="354.667" y2="340"/>
	
		<line clip-path="url(#SVGID_2_)" fill="none" stroke="#6D6E71" stroke-dasharray="4,4" x1="597.333" y1="0" x2="597.333" y2="340"/>
</g>
<rect x="132.161" y="102.8" fill="#F9A25E" width="45.714" height="237.2"/>
<rect x="374.491" y="162.4" fill="#F9A25E" width="45.714" height="177.6"/>
<rect x="617.158" y="236.4" fill="#F9A25E" width="45.714" height="103.6"/>
<rect x="243.75" y="294" fill="#9A9B9D" width="45.714" height="46"/>
<rect x="486.08" y="324.8" fill="#9A9B9D" width="45.714" height="15.2"/>
<rect x="728.747" y="324.8" fill="#9A9B9D" width="45.714" height="15.2"/>
<rect x="177.875" y="98.8" fill="#FCD1AE" width="45.714" height="241.2"/>
<rect x="420.205" y="173.6" fill="#FCD1AE" width="45.714" height="166.4"/>
<rect x="662.872" y="236" fill="#FCD1AE" width="45.714" height="104"/>
<rect x="289.464" y="234.4" fill="#D1D3D4" width="45.714" height="105.6"/>
<rect x="531.795" y="282" fill="#D1D3D4" width="45.714" height="58"/>
<rect x="774.461" y="322" fill="#D1D3D4" width="45.714" height="18"/>
<g>
	<defs>
		<rect id="SVGID_3_" x="-9" y="-1" width="930" height="342.5"/>
	</defs>
	<clipPath id="SVGID_4_">
		<use xlink:href="#SVGID_3_"  overflow="visible"/>
	</clipPath>
	<line clip-path="url(#SVGID_4_)" fill="none" stroke="#F9A25E" stroke-width="3" x1="0" y1="340" x2="912" y2="340"/>
</g>
</svg>
