<?xml version="1.0" encoding="utf-8"?>
<!-- Generator: Adobe Illustrator 15.1.0, SVG Export Plug-In . SVG Version: 6.00 Build 0)  -->
<!DOCTYPE svg PUBLIC "-//W3C//DTD SVG 1.1//EN" "http://www.w3.org/Graphics/SVG/1.1/DTD/svg11.dtd">
<svg version="1.1" id="art" xmlns="http://www.w3.org/2000/svg" xmlns:xlink="http://www.w3.org/1999/xlink" x="0px" y="0px"
	 width="912px" height="535px" viewBox="0 0 912 535" enable-background="new 0 0 912 535" xml:space="preserve">
<g>
	<defs>
		<rect id="SVGID_1_" width="912" height="393.55"/>
	</defs>
	<clipPath id="SVGID_2_">
		<use xlink:href="#SVGID_1_"  overflow="visible"/>
	</clipPath>
	<line clip-path="url(#SVGID_2_)" fill="none" stroke="#F9A25E" stroke-width="3" x1="0" y1="392.05" x2="912" y2="392.05"/>
	<path clip-path="url(#SVGID_2_)" fill="#F9A25E" d="M456.052,40c11.046,0,20-8.954,20-20c0-11.046-8.954-20-20-20s-20,8.954-20,20
		C436.052,31.046,445.006,40,456.052,40"/>
	<path clip-path="url(#SVGID_2_)" fill="#F9A25E" d="M454.543,45.903c0,0,1.531,2.58,3.062,0l4.91-8.273c0,0,1.531-2.58-1.469-2.58
		h-9.946c0,0-3,0-1.468,2.58L454.543,45.903z"/>
	<path clip-path="url(#SVGID_2_)" fill="#FFFFFF" d="M463.756,27.447v-0.832h-5.846l4.938-6.457c0.666-0.87,0.907-1.554,0.907-2.534
		c0-2.091-1.369-3.46-3.478-3.46c-2.184,0-3.479,1.499-3.479,3.46h0.943c0-1.85,1.166-2.628,2.535-2.628
		c1.591,0,2.533,1.055,2.533,2.628c0,0.758-0.222,1.387-0.739,2.053l-5.291,6.938v0.832H463.756z M451.916,27.447V14.275h-0.943
		l-2.387,2.054v1.128l2.387-2.109v12.099H451.916z"/>
	<path clip-path="url(#SVGID_2_)" fill="#006227" d="M456.106,178.294c2.199,0,3.982-1.783,3.982-3.982
		c0-2.199-1.783-3.982-3.982-3.982c-2.198,0-3.981,1.783-3.981,3.982C452.125,176.511,453.908,178.294,456.106,178.294"/>
	<path clip-path="url(#SVGID_2_)" fill="#006227" d="M456.106,302.562c2.199,0,3.982-1.783,3.982-3.982
		c0-2.198-1.783-3.981-3.982-3.981c-2.198,0-3.981,1.783-3.981,3.981C452.125,300.779,453.908,302.562,456.106,302.562"/>
	<path clip-path="url(#SVGID_2_)" fill="#FFFFFF" d="M481.106,160.28v-34c0-3-3-3-3-3h-44c-3,0-3,3-3,3v34c0,3,3,3,3,3h16.943
		l3.504,5.903c1.531,2.58,3.062,0,3.062,0l3.504-5.903h16.986C481.106,163.28,481.106,160.28,481.106,160.28"/>
	<path clip-path="url(#SVGID_2_)" fill="none" stroke="#D1D3D4" d="M481.106,160.28v-34c0-3-3-3-3-3h-44c-3,0-3,3-3,3v34
		c0,3,3,3,3,3h16.943l3.504,5.903c1.531,2.58,3.062,0,3.062,0l3.504-5.903h16.986C481.106,163.28,481.106,160.28,481.106,160.28z"/>
	<path clip-path="url(#SVGID_2_)" fill="#FFFFFF" d="M481.106,284.524v-34c0-3-3-3-3-3h-44c-3,0-3,3-3,3v34c0,3,3,3,3,3h16.943
		l3.504,5.903c1.531,2.58,3.062,0,3.062,0l3.504-5.903h16.986C481.106,287.524,481.106,284.524,481.106,284.524"/>
	<path clip-path="url(#SVGID_2_)" fill="none" stroke="#D1D3D4" d="M481.106,284.524v-34c0-3-3-3-3-3h-44c-3,0-3,3-3,3v34
		c0,3,3,3,3,3h16.943l3.504,5.903c1.531,2.58,3.062,0,3.062,0l3.504-5.903h16.986C481.106,287.524,481.106,284.524,481.106,284.524z
		"/>
	<path clip-path="url(#SVGID_2_)" fill="#F9A25E" d="M471.167,147.103c-0.541,0-0.853-0.54-0.853-1.56
		c0-1.045,0.3-1.573,0.877-1.573c0.54,0,0.852,0.54,0.852,1.561C472.043,146.587,471.743,147.103,471.167,147.103 M469.271,145.531
		c0,1.428,0.706,2.267,1.907,2.267c1.2,0,1.919-0.839,1.919-2.267c0-1.453-0.707-2.256-1.906-2.256
		C469.99,143.275,469.271,144.102,469.271,145.531 M464.255,141.163c0,1.44,0.719,2.256,1.92,2.256c1.2,0,1.907-0.828,1.907-2.256
		c0-1.453-0.707-2.256-1.907-2.256C464.974,138.907,464.255,139.734,464.255,141.163 M466.163,142.735
		c-0.541,0-0.854-0.54-0.854-1.56c0-1.045,0.301-1.585,0.877-1.585c0.54,0,0.841,0.552,0.841,1.573
		C467.027,142.219,466.739,142.735,466.163,142.735 M466.583,147.798l5.004-8.891h-0.805l-5.004,8.891H466.583z M461.88,141.751
		c0,1.02-0.637,1.728-1.549,1.728c-1.033,0-1.633-0.66-1.633-1.728c0-1.045,0.624-1.705,1.657-1.705
		C461.243,140.046,461.88,140.706,461.88,141.751 M461.099,144.342l-2.473,3.229l1.057,0.539l1.513-2.123
		c1.151-1.621,2.026-2.784,2.026-4.224c0-1.705-1.127-2.856-2.843-2.856c-1.825,0-3.035,1.175-3.035,2.94
		c0,1.644,1.126,2.759,2.64,2.759C460.355,144.606,460.727,144.522,461.099,144.342 M454.212,146.923
		c0,0.419,0.335,0.755,0.767,0.755c0.433,0,0.768-0.336,0.768-0.755c0-0.432-0.335-0.78-0.768-0.78
		C454.547,146.143,454.212,146.491,454.212,146.923 M450.288,141.775c-0.036,0.492-0.036,0.78-0.036,0.852v2.232h-2.148
		L450.288,141.775z M450.252,147.57h1.27v-1.74h1.045v-0.971h-1.045v-5.952h-0.395l-4.991,6.923h4.116V147.57z M440.172,145.519
		l-0.924,1.02c0.636,0.863,1.5,1.259,2.676,1.259c2.04,0,3.298-1.259,3.298-3.155c0-1.681-1.126-2.832-2.758-2.832
		c-0.444,0-0.876,0.096-1.332,0.288l0.504-1.897h3.215v-1.127h-4.055l-1.068,4.355l0.349,0.072c0.468-0.48,1.092-0.732,1.812-0.732
		c1.2,0,2.004,0.792,2.004,1.921c0,1.188-0.779,1.968-1.907,1.968C441.228,146.659,440.58,146.263,440.172,145.519"/>
	<path clip-path="url(#SVGID_2_)" fill="#F9A25E" d="M471.166,271.348c-0.539,0-0.853-0.54-0.853-1.562
		c0-1.043,0.301-1.571,0.877-1.571c0.541,0,0.854,0.54,0.854,1.56C472.044,270.831,471.743,271.348,471.166,271.348
		 M469.271,269.774c0,1.43,0.707,2.268,1.907,2.268s1.919-0.838,1.919-2.268c0-1.451-0.707-2.255-1.907-2.255
		S469.271,268.347,469.271,269.774 M464.256,265.407c0,1.44,0.719,2.256,1.919,2.256c1.199,0,1.906-0.828,1.906-2.256
		c0-1.453-0.707-2.256-1.906-2.256C464.975,263.151,464.256,263.979,464.256,265.407 M466.162,266.979
		c-0.54,0-0.853-0.54-0.853-1.561c0-1.045,0.301-1.584,0.877-1.584c0.541,0,0.841,0.552,0.841,1.572
		C467.027,266.464,466.739,266.979,466.162,266.979 M466.584,272.042l5.004-8.891h-0.806l-5.004,8.891H466.584z M457.283,269.522
		c0.048,1.549,1.141,2.52,2.784,2.52c1.86,0,2.963-0.994,2.963-2.483c0-1.26-0.588-2.028-1.667-2.22
		c0.936-0.145,1.476-0.863,1.476-1.908c0-1.393-0.972-2.279-2.556-2.279c-1.644,0-2.567,0.815-2.651,2.268h1.26
		c0.023-0.732,0.516-1.152,1.355-1.152c0.78,0,1.284,0.468,1.284,1.2c0,0.841-0.527,1.261-1.536,1.261
		c-0.084,0-0.168-0.012-0.252-0.012v1.127c0.097,0,0.181-0.012,0.265-0.012c1.151,0,1.739,0.516,1.739,1.547
		c0,0.974-0.588,1.514-1.632,1.514c-0.924,0-1.5-0.516-1.5-1.297v-0.072H457.283z M454.212,271.167c0,0.42,0.336,0.756,0.767,0.756
		c0.432,0,0.768-0.336,0.768-0.756c0-0.432-0.336-0.779-0.768-0.779C454.548,270.388,454.212,270.735,454.212,271.167
		 M450.287,266.019c-0.035,0.492-0.035,0.78-0.035,0.852v2.233h-2.148L450.287,266.019z M450.252,271.814h1.271v-1.741h1.044v-0.97
		h-1.044v-5.952h-0.396l-4.991,6.922h4.116V271.814z M444.79,270.7h-3.263l1.092-1.261c1.309-1.501,2.159-2.569,2.159-3.913
		c0-1.464-1.019-2.375-2.675-2.375c-1.752,0-2.856,0.995-2.856,2.531h1.345c0.06-0.805,0.611-1.332,1.392-1.332
		c0.888,0,1.416,0.527,1.416,1.368c0,0.624-0.395,1.344-1.152,2.256l-3.203,3.84h5.746V270.7z"/>
</g>
</svg>
