<?xml version="1.0" encoding="utf-8"?>
<!-- Generator: Adobe Illustrator 15.1.0, SVG Export Plug-In . SVG Version: 6.00 Build 0)  -->
<!DOCTYPE svg PUBLIC "-//W3C//DTD SVG 1.1//EN" "http://www.w3.org/Graphics/SVG/1.1/DTD/svg11.dtd">
<svg version="1.1" id="art" xmlns="http://www.w3.org/2000/svg" xmlns:xlink="http://www.w3.org/1999/xlink" x="0px" y="0px"
	 width="912px" height="490px" viewBox="0 0 912 490" enable-background="new 0 0 912 490" xml:space="preserve">
<g>
	<defs>
		<rect id="SVGID_1_" x="-9" y="-1" width="930" height="490.252"/>
	</defs>
	<clipPath id="SVGID_2_">
		<use xlink:href="#SVGID_1_"  overflow="visible"/>
	</clipPath>
	<rect y="320" clip-path="url(#SVGID_2_)" fill="#F3E3D5" width="912" height="20"/>
	<rect clip-path="url(#SVGID_2_)" fill="#F3E3D5" width="912" height="40"/>
	<rect y="80" clip-path="url(#SVGID_2_)" fill="#F3E3D5" width="912" height="40"/>
	<rect y="160" clip-path="url(#SVGID_2_)" fill="#F3E3D5" width="912" height="40"/>
	<rect y="240" clip-path="url(#SVGID_2_)" fill="#F3E3D5" width="912" height="40"/>
	<line clip-path="url(#SVGID_2_)" fill="none" stroke="#D1D3D4" stroke-width="0.5" x1="228" y1="80" x2="228" y2="340"/>
	<line clip-path="url(#SVGID_2_)" fill="none" stroke="#D1D3D4" stroke-width="0.5" x1="114" y1="0" x2="114" y2="340"/>
	<line clip-path="url(#SVGID_2_)" fill="none" stroke="#D1D3D4" stroke-width="0.5" x1="342" y1="80" x2="342" y2="340"/>
	<line clip-path="url(#SVGID_2_)" fill="none" stroke="#D1D3D4" stroke-width="0.5" x1="456" y1="0" x2="456" y2="340"/>
	<line clip-path="url(#SVGID_2_)" fill="none" stroke="#D1D3D4" stroke-width="0.5" x1="570" y1="0" x2="570" y2="340"/>
	<line clip-path="url(#SVGID_2_)" fill="none" stroke="#D1D3D4" stroke-width="0.5" x1="684" y1="0" x2="684" y2="340"/>
	<line clip-path="url(#SVGID_2_)" fill="none" stroke="#D1D3D4" stroke-width="0.5" x1="798" y1="0" x2="798" y2="340"/>
	<g clip-path="url(#SVGID_2_)">
		<defs>
			<rect id="SVGID_3_" x="-9" y="-1" width="930" height="490.252"/>
		</defs>
		<clipPath id="SVGID_4_">
			<use xlink:href="#SVGID_3_"  overflow="visible"/>
		</clipPath>
		<path clip-path="url(#SVGID_4_)" fill="#F9A25E" d="M47.072,111.58l0.432-0.832c-2.288-1.232-4.864-1.856-7.728-1.856
			c-2.96,0-5.504,0.576-7.76,1.856l0.384,0.832c2.272-1.152,4.64-1.648,7.376-1.648C42.592,109.932,44.96,110.427,47.072,111.58
			 M41.344,112.507c-1.888,0-2.96,0.88-2.96,2.336c0,1.456,1.072,2.352,2.96,2.352c1.888,0,2.96-0.896,2.96-2.352
			C44.304,113.388,43.232,112.507,41.344,112.507 M43.504,114.843c0,0.752-0.752,1.2-2.16,1.2c-1.408,0-2.16-0.448-2.16-1.2
			c0-0.784,0.72-1.2,2.16-1.2C42.752,113.644,43.504,114.091,43.504,114.843 M37.568,121.164c0,0.752-0.752,1.2-2.16,1.2
			c-1.408,0-2.176-0.448-2.176-1.2c0-0.784,0.736-1.2,2.176-1.2C36.816,119.963,37.568,120.412,37.568,121.164 M35.408,118.812
			c-1.888,0-2.96,0.896-2.96,2.352s1.072,2.352,2.96,2.352c1.888,0,2.944-0.896,2.944-2.352S37.296,118.812,35.408,118.812
			 M44.304,121.835v-0.976l-11.856-6.56v0.96L44.304,121.835z M47.072,124.506c-2.112,1.152-4.48,1.648-7.296,1.648
			c-2.736,0-5.104-0.496-7.376-1.648l-0.384,0.832c2.256,1.28,4.8,1.857,7.76,1.857c2.864,0,5.44-0.625,7.728-1.857L47.072,124.506z
			 M39.616,134.955v4.352c-1.216-0.128-1.968-1.008-1.968-2.176C37.648,135.834,38.352,135.035,39.616,134.955 M40.608,133.643
			h-0.24c-2.368,0-3.792,1.344-3.792,3.44c0,2.08,1.568,3.568,3.824,3.568c2.336,0,3.904-1.472,3.904-3.648
			c0-1.472-0.656-2.592-1.952-3.312l-0.624,0.928c1.04,0.592,1.552,1.36,1.552,2.32c0,1.376-1.008,2.368-2.56,2.368h-0.112V133.643z
			 M42.8,147.21c1.008-0.56,1.504-1.488,1.504-2.816c0-1.584-0.944-2.608-2.272-2.608c-1.168,0-1.68,0.688-2.128,2.08
			c-0.384,1.184-0.48,1.84-1.232,1.84c-0.624,0-1.072-0.496-1.072-1.216c0-0.752,0.368-1.344,1.024-1.632l-0.608-0.992
			c-0.912,0.384-1.424,1.312-1.424,2.544c0,1.52,0.912,2.528,2.16,2.528c1.408,0,1.712-1.056,2.32-2.816
			c0.256-0.752,0.544-1.12,1.088-1.12c0.624,0,1.072,0.528,1.072,1.344c0,0.816-0.368,1.424-1.136,1.824L42.8,147.21z M44,155.291
			v-1.216h-3.696c-0.784,0-1.376,0-1.888-0.416c-0.496-0.4-0.768-1.024-0.768-1.744c0-1.28,0.704-1.904,2.144-1.904H44v-1.216
			h-4.864c-1.616,0-2.544,1.024-2.544,2.688c0,1.12,0.432,1.984,1.36,2.592h-1.104v1.216H44z M40.448,163.594
			c-1.52,0-2.704-1.152-2.704-2.592c0-1.424,1.184-2.576,2.704-2.576c1.52,0,2.704,1.152,2.704,2.576S41.968,163.594,40.448,163.594
			 M40.448,164.891c1.04,0,1.968-0.384,2.72-1.136c0.736-0.736,1.136-1.696,1.136-2.752c0-1.04-0.416-2-1.152-2.752
			c-0.72-0.736-1.664-1.136-2.704-1.136c-1.04,0-2,0.4-2.72,1.136c-0.736,0.752-1.136,1.696-1.136,2.752s0.384,2.016,1.12,2.752
			C38.448,164.506,39.408,164.891,40.448,164.891 M40.448,172.203c-1.696,0-2.672-0.928-2.672-2.4c0-1.424,1.024-2.32,2.816-2.32
			c1.584,0,2.512,0.88,2.512,2.304C43.104,171.227,42.064,172.203,40.448,172.203 M47.488,173.386v-1.216h-4.784
			c1.056-0.544,1.6-1.424,1.6-2.608c0-2-1.44-3.376-3.856-3.376c-2.352,0-3.856,1.376-3.856,3.424c0,1.104,0.56,2.048,1.6,2.608
			h-1.344v1.168H47.488z M42.8,180.57c1.008-0.56,1.504-1.488,1.504-2.816c0-1.584-0.944-2.608-2.272-2.608
			c-1.168,0-1.68,0.688-2.128,2.08c-0.384,1.184-0.48,1.84-1.232,1.84c-0.624,0-1.072-0.496-1.072-1.216
			c0-0.752,0.368-1.344,1.024-1.632l-0.608-0.992c-0.912,0.384-1.424,1.312-1.424,2.544c0,1.52,0.912,2.528,2.16,2.528
			c1.408,0,1.712-1.056,2.32-2.816c0.256-0.752,0.544-1.12,1.088-1.12c0.624,0,1.072,0.528,1.072,1.344s-0.368,1.424-1.136,1.824
			L42.8,180.57z M39.616,182.891v4.352c-1.216-0.128-1.968-1.008-1.968-2.176C37.648,183.771,38.352,182.971,39.616,182.891
			 M40.608,181.579h-0.24c-2.368,0-3.792,1.344-3.792,3.44c0,2.08,1.568,3.568,3.824,3.568c2.336,0,3.904-1.472,3.904-3.648
			c0-1.472-0.656-2.592-1.952-3.312l-0.624,0.928c1.04,0.592,1.552,1.36,1.552,2.32c0,1.376-1.008,2.368-2.56,2.368h-0.112V181.579z
			 M44,196.313v-1.36h-5.456v-0.16L44,190.618v-1.728l-5.456,4.368v-0.24c0-2.016-0.992-3.088-2.864-3.088
			c-1.12,0-2.032,0.416-2.544,1.072c-0.544,0.704-0.576,1.536-0.576,2.624v2.688H44z M33.712,194.954v-1.008
			c0-1.808,0.32-2.672,1.984-2.672c1.584,0,1.84,0.88,1.84,2.672v1.008H33.712z M44,203.642H32.56v1.36H44V203.642z M37.648,209.001
			l-0.72,1.632c-0.464,1.04-1.024,1.536-1.84,1.536c-0.976,0-1.664-0.72-1.664-1.744c0-0.816,0.448-1.44,1.312-1.936l-0.72-1.12
			c-1.136,0.56-1.728,1.584-1.728,2.96c0,1.904,1.216,3.216,2.816,3.216c1.392,0,2.384-0.736,3.024-2.256l0.592-1.392
			c0.512-1.184,1.264-1.776,2.288-1.776c1.248,0,2.128,0.912,2.128,2.288c0,1.152-0.72,1.936-2.112,2.272l0.608,1.232
			c1.696-0.432,2.656-1.696,2.656-3.504c0-2.208-1.408-3.664-3.504-3.664C39.344,206.746,38.304,207.514,37.648,209.001
			 M35.12,219.465l4.208-1.824v3.648L35.12,219.465z M32.112,219.465L44,224.649v-1.472l-3.504-1.488v-4.464L44,215.737v-1.472
			L32.112,219.465z M38.864,229.77v-1.04c0-1.184-0.032-2.112-0.576-2.88c-0.512-0.72-1.456-1.168-2.576-1.168
			s-2.064,0.448-2.576,1.168c-0.544,0.768-0.576,1.712-0.576,2.88v2.4H44v-1.36H38.864z M37.632,229.77h-3.824v-0.656
			c0-1.984,0.32-2.96,1.984-2.96c1.584,0,1.84,0.992,1.84,2.96V229.77z"/>
		<g clip-path="url(#SVGID_4_)">
			<g>
				<defs>
					<rect id="SVGID_5_" x="65.592" y="53.168" width="34.656" height="13.984"/>
				</defs>
				<clipPath id="SVGID_6_">
					<use xlink:href="#SVGID_5_"  overflow="visible"/>
				</clipPath>
				<path clip-path="url(#SVGID_6_)" fill="#F9A25E" d="M87.296,66.024c2.4,0,3.952-2.128,3.952-5.936s-1.536-5.92-3.984-5.92
					c-2.384,0-3.951,2.144-3.951,5.92S84.88,66.024,87.296,66.024 M87.28,64.904c-1.584,0-2.561-1.728-2.561-4.832
					c0-3.088,0.977-4.8,2.561-4.8c1.664,0,2.56,1.648,2.56,4.832C89.84,63.272,88.944,64.904,87.28,64.904 M75.008,65.576
					l1.12,0.576l5.712-11.76h-7.248v1.184h5.296L75.008,65.576z"/>
			</g>
		</g>
		<g clip-path="url(#SVGID_4_)">
			<g>
				<defs>
					<rect id="SVGID_7_" x="65.08" y="13.168" width="35.168" height="13.856"/>
				</defs>
				<clipPath id="SVGID_8_">
					<use xlink:href="#SVGID_7_"  overflow="visible"/>
				</clipPath>
				<path clip-path="url(#SVGID_8_)" fill="#F9A25E" d="M87.296,26.024c2.4,0,3.952-2.128,3.952-5.936s-1.536-5.92-3.984-5.92
					c-2.384,0-3.951,2.144-3.951,5.92S84.88,26.024,87.296,26.024 M87.28,24.904c-1.584,0-2.561-1.728-2.561-4.832
					c0-3.088,0.977-4.8,2.561-4.8c1.664,0,2.56,1.648,2.56,4.832C89.84,23.272,88.944,24.904,87.28,24.904 M77.937,15.208
					c1.248,0,2.016,0.72,2.016,1.904c0,1.152-0.736,1.856-2.048,1.856c-1.28,0-2-0.72-2-1.856
					C75.904,15.944,76.672,15.208,77.937,15.208 M77.92,24.92c-1.536,0-2.399-0.88-2.399-2.304c0-1.44,0.896-2.352,2.399-2.352
					s2.4,0.896,2.4,2.352C80.32,24.041,79.456,24.92,77.92,24.92 M76.432,19.672c-1.504,0.416-2.352,1.536-2.352,3.04
					c0,1.984,1.424,3.312,3.856,3.312c2.447,0,3.84-1.296,3.84-3.344c0-1.472-0.849-2.576-2.353-3.008
					c1.232-0.368,1.937-1.296,1.937-2.528c0-1.776-1.296-2.976-3.424-2.976c-2.097,0-3.44,1.232-3.44,2.864
					C74.496,18.393,75.152,19.272,76.432,19.672"/>
			</g>
		</g>
		<g clip-path="url(#SVGID_4_)">
			<g>
				<defs>
					<rect id="SVGID_9_" x="64.936" y="133.168" width="35.312" height="13.856"/>
				</defs>
				<clipPath id="SVGID_10_">
					<use xlink:href="#SVGID_9_"  overflow="visible"/>
				</clipPath>
				<path clip-path="url(#SVGID_10_)" fill="#F9A25E" d="M87.296,146.024c2.4,0,3.952-2.128,3.952-5.936s-1.536-5.92-3.984-5.92
					c-2.384,0-3.951,2.144-3.951,5.92S84.88,146.024,87.296,146.024 M87.28,144.904c-1.584,0-2.561-1.728-2.561-4.832
					c0-3.088,0.977-4.8,2.561-4.8c1.664,0,2.56,1.648,2.56,4.832C89.84,143.272,88.944,144.904,87.28,144.904 M74.864,140.008
					c0.704-0.544,1.536-0.816,2.432-0.816c1.76,0,2.849,1.12,2.849,2.752c0,1.776-1.104,2.896-2.736,2.896
					c-1.12,0-2-0.56-2.512-1.616l-0.96,1.12c0.783,1.152,1.888,1.68,3.439,1.68c2.624,0,4.208-1.632,4.208-4.208
					c0-2.288-1.392-3.728-3.632-3.728c-0.64,0-1.232,0.128-1.776,0.416l0.721-2.944h4.096v-1.168h-5.024l-1.359,5.568
					L74.864,140.008z"/>
			</g>
		</g>
		<g clip-path="url(#SVGID_4_)">
			<g>
				<defs>
					<rect id="SVGID_11_" x="65.128" y="92.832" width="35.12" height="14.192"/>
				</defs>
				<clipPath id="SVGID_12_">
					<use xlink:href="#SVGID_11_"  overflow="visible"/>
				</clipPath>
				<path clip-path="url(#SVGID_12_)" fill="#F9A25E" d="M87.296,106.024c2.4,0,3.952-2.128,3.952-5.936s-1.536-5.92-3.984-5.92
					c-2.384,0-3.951,2.144-3.951,5.92S84.88,106.024,87.296,106.024 M87.28,104.904c-1.584,0-2.561-1.728-2.561-4.832
					c0-3.088,0.977-4.8,2.561-4.8c1.664,0,2.56,1.648,2.56,4.832C89.84,103.272,88.944,104.904,87.28,104.904 M75.536,102.393
					c0-1.504,0.928-2.544,2.288-2.544c1.52,0,2.432,0.976,2.432,2.528c0,1.52-0.943,2.512-2.352,2.512
					C76.464,104.888,75.536,103.944,75.536,102.393 M76.448,99.256l3.696-4.8l-1.185-0.624l-2.607,3.68
					c-1.265,1.792-2.225,3.12-2.225,4.768c0,2.24,1.408,3.744,3.504,3.744c2.496,0,4.032-1.488,4.032-3.776
					c0-2.096-1.408-3.536-3.456-3.536C77.568,98.712,77.008,98.888,76.448,99.256"/>
			</g>
		</g>
		<g clip-path="url(#SVGID_4_)">
			<g>
				<defs>
					<rect id="SVGID_13_" x="65.08" y="213.168" width="35.168" height="13.856"/>
				</defs>
				<clipPath id="SVGID_14_">
					<use xlink:href="#SVGID_13_"  overflow="visible"/>
				</clipPath>
				<path clip-path="url(#SVGID_14_)" fill="#F9A25E" d="M87.296,226.024c2.4,0,3.952-2.128,3.952-5.936s-1.536-5.92-3.984-5.92
					c-2.384,0-3.951,2.144-3.951,5.92S84.88,226.024,87.296,226.024 M87.28,224.904c-1.584,0-2.561-1.728-2.561-4.832
					c0-3.088,0.977-4.8,2.561-4.8c1.664,0,2.56,1.648,2.56,4.832C89.84,223.272,88.944,224.904,87.28,224.904 M74.08,222.824v0.208
					c0,1.808,1.344,2.992,3.472,2.992c2.433,0,3.841-1.28,3.841-3.328c0-1.552-0.816-2.592-2.177-2.816
					c1.28-0.336,2.032-1.312,2.032-2.672c0-1.856-1.296-3.04-3.424-3.04c-2.208,0-3.44,1.104-3.536,3.056h1.344
					c0.064-1.232,0.832-1.904,2.16-1.904c1.264,0,2.032,0.768,2.032,1.952c0,1.344-0.8,2.048-2.384,2.048
					c-0.128,0-0.24-0.016-0.368-0.016v1.12c0.144-0.016,0.271-0.016,0.399-0.016c1.648,0,2.496,0.768,2.496,2.24
					c0,1.392-0.848,2.208-2.368,2.208c-1.312,0-2.128-0.736-2.128-1.904v-0.128H74.08z"/>
			</g>
		</g>
		<g clip-path="url(#SVGID_4_)">
			<g>
				<defs>
					<rect id="SVGID_15_" x="64.552" y="173.168" width="35.696" height="13.856"/>
				</defs>
				<clipPath id="SVGID_16_">
					<use xlink:href="#SVGID_15_"  overflow="visible"/>
				</clipPath>
				<path clip-path="url(#SVGID_16_)" fill="#F9A25E" d="M87.296,186.024c2.4,0,3.952-2.128,3.952-5.936s-1.536-5.92-3.984-5.92
					c-2.384,0-3.951,2.144-3.951,5.92S84.88,186.024,87.296,186.024 M87.28,184.904c-1.584,0-2.561-1.728-2.561-4.832
					c0-3.088,0.977-4.8,2.561-4.8c1.664,0,2.56,1.648,2.56,4.832C89.84,183.272,88.944,184.904,87.28,184.904 M78.912,185.72h1.344
					v-2.464H81.6v-1.104h-1.344v-7.984H79.68l-6.128,9.088h5.36V185.72z M78.912,182.152h-3.344l3.344-5.024V182.152z"/>
			</g>
		</g>
		<g clip-path="url(#SVGID_4_)">
			<g>
				<defs>
					<rect id="SVGID_17_" x="66.232" y="293.168" width="34.016" height="13.855"/>
				</defs>
				<clipPath id="SVGID_18_">
					<use xlink:href="#SVGID_17_"  overflow="visible"/>
				</clipPath>
				<path clip-path="url(#SVGID_18_)" fill="#F9A25E" d="M87.296,306.024c2.4,0,3.952-2.128,3.952-5.937
					c0-3.808-1.536-5.92-3.984-5.92c-2.384,0-3.951,2.145-3.951,5.92C83.312,303.864,84.88,306.024,87.296,306.024 M87.28,304.904
					c-1.584,0-2.561-1.729-2.561-4.832c0-3.088,0.977-4.8,2.561-4.8c1.664,0,2.56,1.647,2.56,4.832
					C89.84,303.272,88.944,304.904,87.28,304.904 M77.568,305.721h1.328v-11.328H76l-0.768,1.184h2.336V305.721z"/>
			</g>
		</g>
		<g clip-path="url(#SVGID_4_)">
			<g>
				<defs>
					<rect id="SVGID_19_" x="65.096" y="253.168" width="35.152" height="13.855"/>
				</defs>
				<clipPath id="SVGID_20_">
					<use xlink:href="#SVGID_19_"  overflow="visible"/>
				</clipPath>
				<path clip-path="url(#SVGID_20_)" fill="#F9A25E" d="M87.296,266.024c2.4,0,3.952-2.128,3.952-5.937
					c0-3.808-1.536-5.92-3.984-5.92c-2.384,0-3.951,2.145-3.951,5.92C83.312,263.864,84.88,266.024,87.296,266.024 M87.28,264.904
					c-1.584,0-2.561-1.729-2.561-4.832c0-3.088,0.977-4.8,2.561-4.8c1.664,0,2.56,1.647,2.56,4.832
					C89.84,263.272,88.944,264.904,87.28,264.904 M80.992,264.424h-4.336l1.792-1.936c1.84-2,2.896-3.504,2.896-5.152
					c0-1.968-1.312-3.168-3.552-3.168c-2.256,0-3.584,1.264-3.584,3.424c0,0.097,0.016,0.209,0.016,0.305h1.28v-0.128
					c0-1.521,0.8-2.353,2.24-2.353c1.376,0,2.256,0.848,2.256,2c0,1.488-1.424,3.008-3.488,5.44l-2.416,2.864h6.896V264.424z"/>
			</g>
		</g>
	</g>
	
		<line clip-path="url(#SVGID_2_)" fill="none" stroke="#006227" stroke-width="2" stroke-dasharray="10.213,5.213" x1="123.699" y1="336.248" x2="135.438" y2="331.096"/>
	
		<line clip-path="url(#SVGID_2_)" fill="none" stroke="#006227" stroke-width="2" stroke-dasharray="9.894,4.894" x1="148.822" y1="320.455" x2="166.25" y2="299.666"/>
	
		<line clip-path="url(#SVGID_2_)" fill="none" stroke="#006227" stroke-width="2" stroke-dasharray="9.756,4.756" x1="180.46" y1="292.18" x2="220.875" y2="284.398"/>
	
		<line clip-path="url(#SVGID_2_)" fill="none" stroke="#006227" stroke-width="2" stroke-dasharray="9.991,4.991" x1="237.499" y1="279.942" x2="334.875" y2="248.314"/>
	
		<line clip-path="url(#SVGID_2_)" fill="none" stroke="#006227" stroke-width="2" stroke-dasharray="9.713,4.713" x1="351.498" y1="244.834" x2="449.393" y2="232.813"/>
	
		<line clip-path="url(#SVGID_2_)" fill="none" stroke="#006227" stroke-width="2" stroke-dasharray="9.591,4.591" x1="465.938" y1="231.939" x2="562.909" y2="231.996"/>
	
		<line clip-path="url(#SVGID_2_)" fill="none" stroke="#006227" stroke-width="2" stroke-dasharray="9.695,4.695" x1="579.449" y1="233.326" x2="676.875" y2="247"/>
	
		<line clip-path="url(#SVGID_2_)" fill="none" stroke="#006227" stroke-width="2" stroke-dasharray="9.724,4.724" x1="693.455" y1="246.425" x2="790.882" y2="230.188"/>
	<path clip-path="url(#SVGID_2_)" fill="none" stroke="#006227" stroke-width="2" d="M793.211,229.8l4.796-0.799 M679.2,247.326
		L684,248l4.796-0.799 M565.205,231.997L570,232l4.8,0.674 M451.731,232.526l4.82-0.592l4.795,0.003 M337.249,247.543L342,246
		l4.82-0.592 M223.21,283.949l4.79-0.922l4.751-1.543 M167.822,297.791L171,294l4.79-0.922 M137.824,330.047l4.676-2.051
		l3.178-3.791 M114.25,340.396l4.676-2.052"/>
	
		<line clip-path="url(#SVGID_2_)" fill="none" stroke="#F9A25E" stroke-width="2" stroke-dasharray="9.646,4.646" x1="151.858" y1="331.555" x2="163.688" y2="329.729"/>
	
		<line clip-path="url(#SVGID_2_)" fill="none" stroke="#F9A25E" stroke-width="2" stroke-dasharray="10.285,5.285" x1="181.177" y1="328.446" x2="334.217" y2="325.637"/>
	
		<line clip-path="url(#SVGID_2_)" fill="none" stroke="#F9A25E" stroke-width="2" stroke-dasharray="10.094,5.094" x1="351.561" y1="322.113" x2="449.393" y2="287.531"/>
	
		<line clip-path="url(#SVGID_2_)" fill="none" stroke="#F9A25E" stroke-width="2" stroke-dasharray="9.607,4.607" x1="465.961" y1="284.835" x2="563.145" y2="283.127"/>
	
		<line clip-path="url(#SVGID_2_)" fill="none" stroke="#F9A25E" stroke-width="2" stroke-dasharray="9.638,4.638" x1="579.689" y1="283.581" x2="677.125" y2="289.563"/>
	
		<line clip-path="url(#SVGID_2_)" fill="none" stroke="#F9A25E" stroke-width="2" stroke-dasharray="9.637,4.637" x1="693.669" y1="289.172" x2="790.891" y2="280.625"/>
	<path clip-path="url(#SVGID_2_)" fill="none" stroke="#F9A25E" stroke-width="2" d="M793.2,280.422L798,280 M679.44,289.705
		l4.81,0.295l4.8-0.422 M565.447,283.086l4.803-0.084l4.811,0.295 M451.793,286.682l4.759-1.682l4.804-0.084 M336.858,325.588
		l5.142-0.095l4.758-1.683 M165.983,329.374l4.767-0.735l5.143-0.096 M142.5,333l4.768-0.736"/>
	
		<line clip-path="url(#SVGID_2_)" fill="none" stroke="#808285" stroke-width="2" stroke-dasharray="9.698,4.698" x1="151.724" y1="337.654" x2="221.08" y2="331.48"/>
	
		<line clip-path="url(#SVGID_2_)" fill="none" stroke="#808285" stroke-width="2" stroke-dasharray="9.61,4.61" x1="237.644" y1="331.476" x2="334.656" y2="338.021"/>
	
		<line clip-path="url(#SVGID_2_)" fill="none" stroke="#808285" stroke-width="2" stroke-dasharray="9.699,4.699" x1="351.2" y1="337.133" x2="448.625" y2="323.031"/>
	
		<line clip-path="url(#SVGID_2_)" fill="none" stroke="#808285" stroke-width="2" stroke-dasharray="9.662,4.662" x1="465.235" y1="322.374" x2="563.094" y2="326.229"/>
	
		<line clip-path="url(#SVGID_2_)" fill="none" stroke="#808285" stroke-width="2" stroke-dasharray="10.111,5.111" x1="580.405" y1="326.021" x2="790.718" y2="315.877"/>
	<path clip-path="url(#SVGID_2_)" fill="none" stroke="#808285" stroke-width="2" d="M793.271,315.756l5.05-0.244 M565.423,326.321
		l4.827,0.19l5.05-0.244 M450.95,322.695l4.8-0.695l4.827,0.19 M336.956,338.178l4.794,0.322l4.799-0.695 M223.42,331.271l4.83-0.43
		l4.794,0.323 M142.214,338.5l4.83-0.43"/>
	<polyline clip-path="url(#SVGID_2_)" fill="none" stroke="#006227" stroke-width="2" points="114.25,339.506 142.5,310 171,256 
		228,192 342,115 456.552,76 570,74.936 684,66.5 798.007,46 	"/>
	<polyline clip-path="url(#SVGID_2_)" fill="none" stroke="#F9A25E" stroke-width="2" points="113.75,339.42 142.5,334.014 171,307 
		228,282 342.25,237 456.552,154 570,151 684,117 798.007,95 	"/>
	<polyline clip-path="url(#SVGID_2_)" fill="none" stroke="#808285" stroke-width="2" points="114.25,339.506 142.5,334.014 
		171,325.512 228,319 342,293.027 456.552,257 570.25,230 684,188 798.007,175.971 	"/>
	<line clip-path="url(#SVGID_2_)" fill="none" stroke="#F9A25E" stroke-width="3" x1="0" y1="340" x2="912" y2="340"/>
	<g clip-path="url(#SVGID_2_)">
		<defs>
			<rect id="SVGID_21_" x="-9" y="-1" width="930" height="490.252"/>
		</defs>
		<clipPath id="SVGID_22_">
			<use xlink:href="#SVGID_21_"  overflow="visible"/>
		</clipPath>
		<g clip-path="url(#SVGID_22_)">
			<g>
				<defs>
					<rect id="SVGID_23_" x="780.496" y="363.447" width="34.864" height="13.553"/>
				</defs>
				<clipPath id="SVGID_24_">
					<use xlink:href="#SVGID_23_"  overflow="visible"/>
				</clipPath>
				<path clip-path="url(#SVGID_24_)" fill="#F9A25E" d="M803.672,376h1.344v-2.464h1.345v-1.104h-1.345v-7.983h-0.575l-6.128,9.088
					h5.359V376z M803.672,372.432h-3.344l3.344-5.023V372.432z M796.392,374.705h-4.336l1.792-1.937c1.84-2,2.896-3.505,2.896-5.152
					c0-1.968-1.312-3.168-3.552-3.168c-2.257,0-3.584,1.265-3.584,3.425c0,0.096,0.016,0.207,0.016,0.303h1.28v-0.127
					c0-1.521,0.8-2.353,2.239-2.353c1.376,0,2.257,0.849,2.257,2c0,1.488-1.425,3.009-3.488,5.44L789.496,376h6.896V374.705z"/>
			</g>
		</g>
		<g clip-path="url(#SVGID_22_)">
			<g>
				<defs>
					<rect id="SVGID_25_" x="666.496" y="363.447" width="35.152" height="13.856"/>
				</defs>
				<clipPath id="SVGID_26_">
					<use xlink:href="#SVGID_25_"  overflow="visible"/>
				</clipPath>
				<path clip-path="url(#SVGID_26_)" fill="#F9A25E" d="M688.696,376.305c2.399,0,3.952-2.129,3.952-5.937s-1.536-5.92-3.984-5.92
					c-2.384,0-3.952,2.144-3.952,5.92S686.28,376.305,688.696,376.305 M688.68,375.185c-1.584,0-2.56-1.728-2.56-4.832
					c0-3.089,0.976-4.8,2.56-4.8c1.664,0,2.561,1.647,2.561,4.832C691.24,373.553,690.344,375.185,688.68,375.185 M682.392,374.705
					h-4.336l1.792-1.937c1.84-2,2.896-3.505,2.896-5.152c0-1.968-1.312-3.168-3.552-3.168c-2.257,0-3.584,1.265-3.584,3.425
					c0,0.096,0.016,0.207,0.016,0.303h1.28v-0.127c0-1.521,0.8-2.353,2.239-2.353c1.376,0,2.257,0.849,2.257,2
					c0,1.488-1.425,3.009-3.488,5.44L675.496,376h6.896V374.705z"/>
			</g>
		</g>
		<g clip-path="url(#SVGID_22_)">
			<g>
				<defs>
					<rect id="SVGID_27_" x="553.632" y="363.111" width="33.792" height="14.192"/>
				</defs>
				<clipPath id="SVGID_28_">
					<use xlink:href="#SVGID_27_"  overflow="visible"/>
				</clipPath>
				<path clip-path="url(#SVGID_28_)" fill="#F9A25E" d="M572.296,372.672c0-1.504,0.928-2.543,2.288-2.543
					c1.52,0,2.432,0.976,2.432,2.527c0,1.52-0.943,2.512-2.352,2.512C573.224,375.168,572.296,374.225,572.296,372.672
					 M573.208,369.536l3.696-4.8l-1.185-0.624l-2.607,3.681c-1.265,1.791-2.225,3.119-2.225,4.768c0,2.24,1.408,3.744,3.504,3.744
					c2.496,0,4.032-1.488,4.032-3.776c0-2.097-1.408-3.536-3.456-3.536C574.328,368.992,573.768,369.168,573.208,369.536
					 M564.968,376h1.328v-11.328H563.4l-0.769,1.185h2.336V376z"/>
			</g>
		</g>
		<g clip-path="url(#SVGID_22_)">
			<g>
				<defs>
					<rect id="SVGID_29_" x="439.632" y="363.447" width="33.472" height="13.553"/>
				</defs>
				<clipPath id="SVGID_30_">
					<use xlink:href="#SVGID_29_"  overflow="visible"/>
				</clipPath>
				<path clip-path="url(#SVGID_30_)" fill="#F9A25E" d="M463.752,374.705h-4.336l1.792-1.937c1.84-2,2.896-3.505,2.896-5.152
					c0-1.968-1.312-3.168-3.552-3.168c-2.256,0-3.584,1.265-3.584,3.425c0,0.096,0.017,0.207,0.017,0.303h1.279v-0.127
					c0-1.521,0.801-2.353,2.24-2.353c1.376,0,2.256,0.849,2.256,2c0,1.488-1.424,3.009-3.488,5.44L456.855,376h6.896V374.705z
					 M450.968,376h1.328v-11.328H449.4l-0.769,1.185h2.336V376z"/>
			</g>
		</g>
		<g clip-path="url(#SVGID_22_)">
			<g>
				<defs>
					<rect id="SVGID_31_" x="329.16" y="363.447" width="25.696" height="13.856"/>
				</defs>
				<clipPath id="SVGID_32_">
					<use xlink:href="#SVGID_31_"  overflow="visible"/>
				</clipPath>
				<path clip-path="url(#SVGID_32_)" fill="#F9A25E" d="M342.016,365.488c1.248,0,2.017,0.721,2.017,1.904
					c0,1.152-0.736,1.855-2.048,1.855c-1.28,0-2-0.72-2-1.855C339.984,366.225,340.752,365.488,342.016,365.488 M342,375.2
					c-1.536,0-2.4-0.88-2.4-2.304c0-1.439,0.896-2.352,2.4-2.352s2.4,0.896,2.4,2.352C344.4,374.32,343.536,375.2,342,375.2
					 M340.512,369.952c-1.504,0.416-2.352,1.536-2.352,3.04c0,1.984,1.424,3.312,3.855,3.312c2.448,0,3.841-1.297,3.841-3.344
					c0-1.473-0.849-2.576-2.353-3.009c1.232-0.368,1.937-1.296,1.937-2.528c0-1.775-1.297-2.976-3.425-2.976
					c-2.096,0-3.439,1.231-3.439,2.864C338.576,368.672,339.232,369.553,340.512,369.952"/>
			</g>
		</g>
		<g clip-path="url(#SVGID_22_)">
			<g>
				<defs>
					<rect id="SVGID_33_" x="214.632" y="363.447" width="26.048" height="13.553"/>
				</defs>
				<clipPath id="SVGID_34_">
					<use xlink:href="#SVGID_33_"  overflow="visible"/>
				</clipPath>
				<path clip-path="url(#SVGID_34_)" fill="#F9A25E" d="M228.992,376h1.344v-2.464h1.344v-1.104h-1.344v-7.983h-0.576l-6.128,9.088
					h5.36V376z M228.992,372.432h-3.344l3.344-5.023V372.432z"/>
			</g>
		</g>
		<g clip-path="url(#SVGID_22_)">
			<g>
				<defs>
					<rect id="SVGID_35_" x="101.032" y="363.447" width="25.936" height="13.856"/>
				</defs>
				<clipPath id="SVGID_36_">
					<use xlink:href="#SVGID_35_"  overflow="visible"/>
				</clipPath>
				<path clip-path="url(#SVGID_36_)" fill="#F9A25E" d="M114.016,376.305c2.4,0,3.952-2.129,3.952-5.937s-1.536-5.92-3.983-5.92
					c-2.385,0-3.952,2.144-3.952,5.92S111.6,376.305,114.016,376.305 M114,375.185c-1.584,0-2.56-1.728-2.56-4.832
					c0-3.089,0.976-4.8,2.56-4.8c1.664,0,2.56,1.647,2.56,4.832C116.56,373.553,115.664,375.185,114,375.185"/>
			</g>
		</g>
		<path clip-path="url(#SVGID_22_)" fill="#F9A25E" d="M472.552,426.801c0.561,1.008,1.488,1.504,2.816,1.504
			c1.584,0,2.608-0.944,2.608-2.272c0-1.168-0.688-1.68-2.08-2.128c-1.185-0.384-1.84-0.479-1.84-1.232
			c0-0.623,0.495-1.071,1.216-1.071c0.752,0,1.344,0.368,1.632,1.023l0.992-0.607c-0.385-0.912-1.312-1.424-2.544-1.424
			c-1.521,0-2.528,0.911-2.528,2.159c0,1.408,1.056,1.713,2.816,2.32c0.752,0.256,1.119,0.544,1.119,1.088
			c0,0.624-0.527,1.072-1.344,1.072c-0.815,0-1.424-0.368-1.824-1.136L472.552,426.801z M465.512,428h1.217l0.016-3.775l3.68,3.775
			h1.712l-3.888-3.872l3.568-3.279h-1.632l-3.44,3.248l-0.016-8.208h-1.217V428z M462.424,423.616h-4.352
			c0.128-1.216,1.008-1.968,2.176-1.968C461.544,421.648,462.344,422.353,462.424,423.616 M463.736,424.608v-0.24
			c0-2.368-1.344-3.792-3.44-3.792c-2.08,0-3.567,1.568-3.567,3.824c0,2.336,1.472,3.904,3.647,3.904
			c1.473,0,2.592-0.656,3.312-1.952l-0.929-0.624c-0.592,1.04-1.359,1.552-2.319,1.552c-1.376,0-2.368-1.008-2.368-2.56v-0.112
			H463.736z M454.28,423.616h-4.353c0.129-1.216,1.009-1.968,2.177-1.968C453.4,421.648,454.2,422.353,454.28,423.616
			 M455.592,424.608v-0.24c0-2.368-1.344-3.792-3.439-3.792c-2.08,0-3.568,1.568-3.568,3.824c0,2.336,1.473,3.904,3.648,3.904
			c1.472,0,2.592-0.656,3.312-1.952l-0.928-0.624c-0.592,1.04-1.36,1.552-2.32,1.552c-1.376,0-2.368-1.008-2.368-2.56v-0.112
			H455.592z M433.32,416.561l4.432,11.888l2.977-8.848l2.991,8.848l4.433-11.888h-1.473l-2.911,8.416l-3.057-8.864l-3.023,8.864
			l-2.896-8.416H433.32z"/>
	</g>
	<polygon clip-path="url(#SVGID_2_)" fill="#F9A25E" points="227.653,276 228.347,276 228.347,270.952 229.875,270.952 
		229.875,270.353 228.347,270.353 228.347,268 227.653,268 227.653,270.353 226.125,270.353 226.125,270.952 227.653,270.952 	"/>
	<polygon clip-path="url(#SVGID_2_)" fill="none" stroke="#F9A25E" points="227.653,276 228.347,276 228.347,270.952 
		229.875,270.952 229.875,270.353 228.347,270.353 228.347,268 227.653,268 227.653,270.353 226.125,270.353 226.125,270.952 
		227.653,270.952 	"/>
	<polygon clip-path="url(#SVGID_2_)" fill="#F9A25E" points="341.653,231 342.347,231 342.347,225.952 343.875,225.952 
		343.875,225.353 342.347,225.353 342.347,223 341.653,223 341.653,225.353 340.125,225.353 340.125,225.952 341.653,225.952 	"/>
	<polygon clip-path="url(#SVGID_2_)" fill="none" stroke="#F9A25E" points="341.653,231 342.347,231 342.347,225.952 
		343.875,225.952 343.875,225.353 342.347,225.353 342.347,223 341.653,223 341.653,225.353 340.125,225.353 340.125,225.952 
		341.653,225.952 	"/>
	<polygon clip-path="url(#SVGID_2_)" fill="#F9A25E" points="341.653,287 342.347,287 342.347,281.952 343.875,281.952 
		343.875,281.353 342.347,281.353 342.347,279 341.653,279 341.653,281.353 340.125,281.353 340.125,281.952 341.653,281.952 	"/>
	<polygon clip-path="url(#SVGID_2_)" fill="none" stroke="#F9A25E" points="341.653,287 342.347,287 342.347,281.952 
		343.875,281.952 343.875,281.353 342.347,281.353 342.347,279 341.653,279 341.653,281.353 340.125,281.353 340.125,281.952 
		341.653,281.952 	"/>
	<polygon clip-path="url(#SVGID_2_)" fill="#F9A25E" points="455.653,148 456.347,148 456.347,142.952 457.875,142.952 
		457.875,142.353 456.347,142.353 456.347,140 455.653,140 455.653,142.353 454.125,142.353 454.125,142.952 455.653,142.952 	"/>
	<polygon clip-path="url(#SVGID_2_)" fill="none" stroke="#F9A25E" points="455.653,148 456.347,148 456.347,142.952 
		457.875,142.952 457.875,142.353 456.347,142.353 456.347,140 455.653,140 455.653,142.353 454.125,142.353 454.125,142.952 
		455.653,142.952 	"/>
	<polygon clip-path="url(#SVGID_2_)" fill="#F9A25E" points="455.653,190 456.347,190 456.347,184.952 457.875,184.952 
		457.875,184.353 456.347,184.353 456.347,182 455.653,182 455.653,184.353 454.125,184.353 454.125,184.952 455.653,184.952 	"/>
	<polygon clip-path="url(#SVGID_2_)" fill="none" stroke="#F9A25E" points="455.653,190 456.347,190 456.347,184.952 
		457.875,184.952 457.875,184.353 456.347,184.353 456.347,182 455.653,182 455.653,184.353 454.125,184.353 454.125,184.952 
		455.653,184.952 	"/>
	<polygon clip-path="url(#SVGID_2_)" fill="#F9A25E" points="455.653,251 456.347,251 456.347,245.952 457.875,245.952 
		457.875,245.353 456.347,245.353 456.347,243 455.653,243 455.653,245.353 454.125,245.353 454.125,245.952 455.653,245.952 	"/>
	<polygon clip-path="url(#SVGID_2_)" fill="none" stroke="#F9A25E" points="455.653,251 456.347,251 456.347,245.952 
		457.875,245.952 457.875,245.353 456.347,245.353 456.347,243 455.653,243 455.653,245.353 454.125,245.353 454.125,245.952 
		455.653,245.952 	"/>
	<polygon clip-path="url(#SVGID_2_)" fill="#F9A25E" points="569.653,145 570.347,145 570.347,139.952 571.875,139.952 
		571.875,139.353 570.347,139.353 570.347,137 569.653,137 569.653,139.353 568.125,139.353 568.125,139.952 569.653,139.952 	"/>
	<polygon clip-path="url(#SVGID_2_)" fill="none" stroke="#F9A25E" points="569.653,145 570.347,145 570.347,139.952 
		571.875,139.952 571.875,139.353 570.347,139.353 570.347,137 569.653,137 569.653,139.353 568.125,139.353 568.125,139.952 
		569.653,139.952 	"/>
	<polygon clip-path="url(#SVGID_2_)" fill="#F9A25E" points="569.653,224 570.347,224 570.347,218.952 571.875,218.952 
		571.875,218.353 570.347,218.353 570.347,216 569.653,216 569.653,218.353 568.125,218.353 568.125,218.952 569.653,218.952 	"/>
	<polygon clip-path="url(#SVGID_2_)" fill="none" stroke="#F9A25E" points="569.653,224 570.347,224 570.347,218.952 
		571.875,218.952 571.875,218.353 570.347,218.353 570.347,216 569.653,216 569.653,218.353 568.125,218.353 568.125,218.952 
		569.653,218.952 	"/>
	<polygon clip-path="url(#SVGID_2_)" fill="#F9A25E" points="683.653,111 684.347,111 684.347,105.952 685.875,105.952 
		685.875,105.353 684.347,105.353 684.347,103 683.653,103 683.653,105.353 682.125,105.353 682.125,105.952 683.653,105.952 	"/>
	<polygon clip-path="url(#SVGID_2_)" fill="none" stroke="#F9A25E" points="683.653,111 684.347,111 684.347,105.952 
		685.875,105.952 685.875,105.353 684.347,105.353 684.347,103 683.653,103 683.653,105.353 682.125,105.353 682.125,105.952 
		683.653,105.952 	"/>
	<polygon clip-path="url(#SVGID_2_)" fill="#F9A25E" points="683.653,182 684.347,182 684.347,176.952 685.875,176.952 
		685.875,176.353 684.347,176.353 684.347,174 683.653,174 683.653,176.353 682.125,176.353 682.125,176.952 683.653,176.952 	"/>
	<polygon clip-path="url(#SVGID_2_)" fill="none" stroke="#F9A25E" points="683.653,182 684.347,182 684.347,176.952 
		685.875,176.952 685.875,176.353 684.347,176.353 684.347,174 683.653,174 683.653,176.353 682.125,176.353 682.125,176.952 
		683.653,176.952 	"/>
	<polygon clip-path="url(#SVGID_2_)" fill="#F9A25E" points="797.653,90 798.347,90 798.347,84.952 799.875,84.952 799.875,84.353 
		798.347,84.353 798.347,82 797.653,82 797.653,84.353 796.125,84.353 796.125,84.952 797.653,84.952 	"/>
	<polygon clip-path="url(#SVGID_2_)" fill="none" stroke="#F9A25E" points="797.653,90 798.347,90 798.347,84.952 799.875,84.952 
		799.875,84.353 798.347,84.353 798.347,82 797.653,82 797.653,84.353 796.125,84.353 796.125,84.952 797.653,84.952 	"/>
	<polygon clip-path="url(#SVGID_2_)" fill="#F9A25E" points="797.653,170 798.347,170 798.347,164.952 799.875,164.952 
		799.875,164.353 798.347,164.353 798.347,162 797.653,162 797.653,164.353 796.125,164.353 796.125,164.952 797.653,164.952 	"/>
	<polygon clip-path="url(#SVGID_2_)" fill="none" stroke="#F9A25E" points="797.653,170 798.347,170 798.347,164.952 
		799.875,164.952 799.875,164.353 798.347,164.353 798.347,162 797.653,162 797.653,164.353 796.125,164.353 796.125,164.952 
		797.653,164.952 	"/>
	<polygon clip-path="url(#SVGID_2_)" fill="#F9A25E" points="169.671,314.76 170.771,314.12 170.771,315.359 171.27,315.359 
		171.27,314.141 172.33,314.75 172.569,314.311 171.5,313.7 172.569,313.079 172.33,312.639 171.26,313.249 171.27,312 170.771,312 
		170.781,313.279 169.681,312.639 169.431,313.069 170.521,313.7 169.431,314.33 	"/>
	<polygon clip-path="url(#SVGID_2_)" fill="none" stroke="#F9A25E" points="169.671,314.76 170.771,314.12 170.771,315.359 
		171.27,315.359 171.27,314.141 172.33,314.75 172.569,314.311 171.5,313.7 172.569,313.079 172.33,312.639 171.26,313.249 
		171.27,312 170.771,312 170.781,313.279 169.681,312.639 169.431,313.069 170.521,313.7 169.431,314.33 	"/>
	<g clip-path="url(#SVGID_2_)">
		<defs>
			<rect id="SVGID_37_" x="-9" y="-1" width="930" height="490.252"/>
		</defs>
		<clipPath id="SVGID_38_">
			<use xlink:href="#SVGID_37_"  overflow="visible"/>
		</clipPath>
		<path clip-path="url(#SVGID_38_)" fill="#F9A25E" d="M397.654,28.792l0.832,0.432c1.232-2.288,1.856-4.864,1.856-7.728
			c0-2.96-0.576-5.504-1.856-7.76l-0.832,0.384c1.152,2.272,1.648,4.64,1.648,7.376C399.303,24.312,398.807,26.68,397.654,28.792
			 M390.007,22.393c0-1.504,0.928-2.544,2.288-2.544c1.52,0,2.432,0.976,2.432,2.528c0,1.52-0.944,2.512-2.352,2.512
			C390.935,24.888,390.007,23.944,390.007,22.393 M390.919,19.256l3.695-4.8l-1.184-0.624l-2.608,3.68
			c-1.264,1.792-2.224,3.12-2.224,4.768c0,2.24,1.408,3.744,3.504,3.744c2.496,0,4.032-1.488,4.032-3.776
			c0-2.096-1.408-3.536-3.456-3.536C392.039,18.712,391.479,18.888,390.919,19.256 M380.646,22.393c0-1.504,0.928-2.544,2.288-2.544
			c1.521,0,2.432,0.976,2.432,2.528c0,1.52-0.943,2.512-2.352,2.512C381.574,24.888,380.646,23.944,380.646,22.393 M381.559,19.256
			l3.696-4.8l-1.185-0.624l-2.607,3.68c-1.265,1.792-2.225,3.12-2.225,4.768c0,2.24,1.408,3.744,3.504,3.744
			c2.496,0,4.032-1.488,4.032-3.776c0-2.096-1.408-3.536-3.456-3.536C382.679,18.712,382.118,18.888,381.559,19.256 M373.318,25.72
			h1.328V14.393h-2.896l-0.769,1.184h2.336V25.72z M367.048,21.992h-9.36v0.912h9.36V21.992z M367.048,19h-9.36v0.912h9.36V19z
			 M348.119,25.72h1.217v-3.696c0-0.784,0-1.376,0.416-1.888c0.399-0.496,1.023-0.768,1.743-0.768c1.28,0,1.904,0.704,1.904,2.144
			v4.208h1.216v-4.864c0-1.616-1.023-2.544-2.688-2.544c-1.12,0-1.984,0.432-2.592,1.36v-1.104h-1.217V25.72z M346.327,28.792
			c-1.151-2.112-1.647-4.48-1.647-7.296c0-2.736,0.496-5.104,1.647-7.376l-0.832-0.384c-1.279,2.256-1.855,4.8-1.855,7.76
			c0,2.864,0.624,5.44,1.855,7.728L346.327,28.792z M335.352,22.185c0,1.696-0.928,2.656-2.4,2.656
			c-1.424,0-2.319-1.024-2.319-2.816c0-1.584,0.88-2.496,2.304-2.496C334.376,19.528,335.352,20.568,335.352,22.185 M336.535,13.608
			h-1.216v6.304c-0.544-1.056-1.424-1.6-2.607-1.6c-2,0-3.376,1.456-3.376,3.856c0,2.336,1.376,3.856,3.424,3.856
			c1.104,0,2.032-0.576,2.592-1.6v1.296h1.184V13.608z M326.808,21.336h-4.352c0.128-1.216,1.008-1.968,2.176-1.968
			C325.928,19.368,326.728,20.072,326.808,21.336 M328.119,22.328v-0.24c0-2.368-1.344-3.792-3.439-3.792
			c-2.08,0-3.568,1.568-3.568,3.824c0,2.336,1.473,3.904,3.648,3.904c1.472,0,2.592-0.656,3.312-1.952l-0.928-0.624
			c-0.592,1.04-1.36,1.552-2.32,1.552c-1.376,0-2.367-1.008-2.367-2.56v-0.112H328.119z M312.903,25.72h1.216v-3.696
			c0-0.784,0-1.376,0.416-1.888c0.4-0.496,1.024-0.768,1.744-0.768c1.28,0,1.904,0.704,1.904,2.144v4.208h1.216v-4.864
			c0-1.616-1.023-2.544-2.688-2.544c-1.12,0-1.984,0.432-2.593,1.36v-1.104h-1.216V25.72z M308.888,15.128
			c0,0.512,0.399,0.896,0.896,0.896s0.896-0.384,0.896-0.88s-0.4-0.912-0.896-0.912S308.888,14.632,308.888,15.128 M309.176,25.72
			h1.216v-7.152h-1.216V25.72z M301.209,22.185c0-1.616,0.991-2.656,2.432-2.656c1.424,0,2.304,0.912,2.304,2.496
			c0,1.792-0.912,2.816-2.336,2.816C302.137,24.84,301.209,23.88,301.209,22.185 M300.041,13.608V25.72h1.168v-1.296
			c0.56,1.024,1.504,1.6,2.607,1.6c2.048,0,3.424-1.52,3.424-3.856c0-2.4-1.376-3.856-3.376-3.856c-1.184,0-2.063,0.544-2.607,1.6
			v-6.304H300.041z M296.505,25.72h1.216v-4.864c0-1.616-0.96-2.544-2.544-2.544c-1.088,0-1.92,0.464-2.544,1.456
			c-0.416-0.96-1.248-1.456-2.4-1.456c-1.072,0-1.888,0.448-2.464,1.36v-1.104h-1.216v7.152h1.216v-3.696
			c0-0.176-0.016-0.352-0.016-0.512c0-0.544,0.063-0.992,0.367-1.376c0.385-0.496,0.977-0.768,1.633-0.768
			c1.216,0,1.775,0.704,1.775,2.144v4.208h1.216v-3.696c0-0.16-0.016-0.304-0.016-0.448c0-0.592,0.08-1.04,0.384-1.44
			c0.384-0.496,0.96-0.768,1.616-0.768c1.216,0,1.776,0.704,1.776,2.144V25.72z M278.249,22.168c0-1.52,1.151-2.704,2.592-2.704
			c1.424,0,2.576,1.184,2.576,2.704s-1.152,2.704-2.576,2.704S278.249,23.688,278.249,22.168 M276.952,22.168
			c0,1.04,0.385,1.968,1.137,2.72c0.735,0.736,1.695,1.136,2.752,1.136c1.04,0,2-0.416,2.752-1.152
			c0.735-0.72,1.136-1.664,1.136-2.704s-0.4-2-1.136-2.72c-0.752-0.736-1.696-1.136-2.752-1.136c-1.057,0-2.017,0.384-2.752,1.12
			C277.337,20.168,276.952,21.128,276.952,22.168 M275.417,17.017V15.24c-1.185-0.816-2.4-1.232-3.761-1.232
			c-1.68,0-3.088,0.56-4.256,1.68c-1.2,1.168-1.792,2.592-1.792,4.368c0,2.032,0.912,3.76,2.576,4.912
			c0.992,0.688,2.16,1.056,3.376,1.056c1.392,0,2.72-0.432,3.856-1.248v-1.808c-1.04,1.216-2.305,1.808-3.744,1.808
			c-1.553,0-2.944-0.736-3.856-2.032c-0.527-0.752-0.784-1.648-0.784-2.704c0-1.344,0.433-2.464,1.312-3.376
			c0.848-0.88,2.063-1.392,3.264-1.392C273.097,15.272,274.312,15.816,275.417,17.017 M257.816,22.216
			c0,1.648-0.896,2.592-2.336,2.592c-1.52,0-2.384-0.976-2.384-2.704c0-1.632,0.864-2.576,2.336-2.576
			C256.809,19.528,257.816,20.552,257.816,22.216 M259.001,18.568h-1.217v1.344c-0.544-1.056-1.424-1.6-2.624-1.6
			c-2,0-3.359,1.456-3.359,3.856c0,2.336,1.376,3.856,3.424,3.856c1.104,0,2.016-0.56,2.592-1.6v1.296h1.185V18.568z M248.33,15.128
			c0,0.512,0.399,0.896,0.896,0.896s0.896-0.384,0.896-0.88s-0.399-0.912-0.896-0.912S248.33,14.632,248.33,15.128 M248.617,25.72
			h1.217v-7.152h-1.217V25.72z M240.729,25.72h6.224v-1.072h-4.063l4.096-6.08h-6v1.072h3.84L240.729,25.72z M238.201,25.72h1.217
			v-4.864c0-1.616-0.96-2.544-2.544-2.544c-1.089,0-1.921,0.464-2.544,1.456c-0.416-0.96-1.248-1.456-2.4-1.456
			c-1.072,0-1.888,0.448-2.464,1.36v-1.104h-1.216v7.152h1.216v-3.696c0-0.176-0.017-0.352-0.017-0.512
			c0-0.544,0.064-0.992,0.368-1.376c0.384-0.496,0.977-0.768,1.632-0.768c1.217,0,1.776,0.704,1.776,2.144v4.208h1.216v-3.696
			c0-0.16-0.016-0.304-0.016-0.448c0-0.592,0.08-1.04,0.384-1.44c0.384-0.496,0.96-0.768,1.616-0.768
			c1.216,0,1.775,0.704,1.775,2.144V25.72z M224.233,15.128c0,0.512,0.4,0.896,0.896,0.896s0.896-0.384,0.896-0.88
			s-0.399-0.912-0.896-0.912S224.233,14.632,224.233,15.128 M224.521,25.72h1.216v-7.152h-1.216V25.72z M222.346,17.017V15.24
			c-1.185-0.816-2.4-1.232-3.76-1.232c-1.681,0-3.088,0.56-4.256,1.68c-1.2,1.168-1.793,2.592-1.793,4.368
			c0,2.032,0.912,3.76,2.576,4.912c0.992,0.688,2.16,1.056,3.376,1.056c1.393,0,2.721-0.432,3.856-1.248v-1.808
			c-1.04,1.216-2.304,1.808-3.744,1.808c-1.552,0-2.944-0.736-3.856-2.032c-0.527-0.752-0.783-1.648-0.783-2.704
			c0-1.344,0.432-2.464,1.312-3.376c0.848-0.88,2.064-1.392,3.264-1.392C220.025,15.272,221.241,15.816,222.346,17.017"/>
		<path clip-path="url(#SVGID_38_)" fill="#808285" d="M316.487,68.792l0.832,0.432c1.232-2.288,1.856-4.864,1.856-7.728
			c0-2.96-0.576-5.504-1.856-7.76l-0.832,0.384c1.152,2.272,1.648,4.64,1.648,7.376C318.136,64.312,317.64,66.68,316.487,68.792
			 M308.84,62.393c0-1.504,0.928-2.544,2.288-2.544c1.52,0,2.432,0.976,2.432,2.528c0,1.52-0.944,2.512-2.352,2.512
			C309.768,64.888,308.84,63.944,308.84,62.393 M309.752,59.256l3.695-4.8l-1.184-0.624l-2.608,3.68
			c-1.264,1.792-2.224,3.12-2.224,4.768c0,2.24,1.408,3.744,3.504,3.744c2.496,0,4.032-1.488,4.032-3.776
			c0-2.096-1.408-3.536-3.456-3.536C310.871,58.712,310.312,58.888,309.752,59.256 M301.88,55.208c1.248,0,2.016,0.72,2.016,1.904
			c0,1.152-0.736,1.856-2.048,1.856c-1.28,0-2-0.72-2-1.856C299.848,55.944,300.615,55.208,301.88,55.208 M301.863,64.92
			c-1.536,0-2.399-0.88-2.399-2.304c0-1.44,0.896-2.352,2.399-2.352s2.4,0.896,2.4,2.352
			C304.264,64.041,303.399,64.92,301.863,64.92 M300.376,59.672c-1.505,0.416-2.353,1.536-2.353,3.04
			c0,1.984,1.424,3.312,3.856,3.312c2.447,0,3.84-1.296,3.84-3.344c0-1.472-0.849-2.576-2.353-3.008
			c1.232-0.368,1.937-1.296,1.937-2.528c0-1.776-1.296-2.976-3.424-2.976c-2.097,0-3.44,1.232-3.44,2.864
			C298.439,58.393,299.097,59.272,300.376,59.672 M295.24,61.992h-9.359v0.912h9.359V61.992z M295.24,59h-9.359v0.912h9.359V59z
			 M276.312,65.72h1.216v-3.696c0-0.784,0-1.376,0.416-1.888c0.4-0.496,1.024-0.768,1.744-0.768c1.28,0,1.904,0.704,1.904,2.144
			v4.208h1.216v-4.864c0-1.616-1.024-2.544-2.688-2.544c-1.119,0-1.983,0.432-2.592,1.36v-1.104h-1.216V65.72z M274.521,68.792
			c-1.152-2.112-1.647-4.48-1.647-7.296c0-2.736,0.495-5.104,1.647-7.376l-0.832-0.384c-1.28,2.256-1.855,4.8-1.855,7.76
			c0,2.864,0.624,5.44,1.855,7.728L274.521,68.792z M258.841,62.168c0-1.52,1.151-2.704,2.592-2.704
			c1.424,0,2.576,1.184,2.576,2.704s-1.152,2.704-2.576,2.704S258.841,63.688,258.841,62.168 M257.545,62.168
			c0,1.04,0.384,1.968,1.136,2.72c0.736,0.736,1.696,1.136,2.752,1.136c1.04,0,2-0.416,2.752-1.152
			c0.736-0.72,1.136-1.664,1.136-2.704s-0.399-2-1.136-2.72c-0.752-0.736-1.696-1.136-2.752-1.136s-2.016,0.384-2.752,1.12
			C257.929,60.168,257.545,61.128,257.545,62.168 M250.217,62.185c0-1.616,0.992-2.656,2.432-2.656c1.424,0,2.304,0.912,2.304,2.496
			c0,1.792-0.911,2.816-2.336,2.816C251.145,64.84,250.217,63.88,250.217,62.185 M249.049,53.608V65.72h1.168v-1.296
			c0.56,1.024,1.504,1.6,2.607,1.6c2.049,0,3.425-1.52,3.425-3.856c0-2.4-1.376-3.856-3.376-3.856c-1.185,0-2.064,0.544-2.608,1.6
			v-6.304H249.049z M245.977,61.336h-4.352c0.128-1.216,1.008-1.968,2.176-1.968C245.097,59.368,245.896,60.072,245.977,61.336
			 M247.289,62.328v-0.24c0-2.368-1.345-3.792-3.44-3.792c-2.08,0-3.568,1.568-3.568,3.824c0,2.336,1.473,3.904,3.648,3.904
			c1.472,0,2.592-0.656,3.312-1.952l-0.928-0.624c-0.592,1.04-1.36,1.552-2.32,1.552c-1.376,0-2.367-1.008-2.367-2.56v-0.112
			H247.289z M239.29,64.024c-0.753,0.544-1.44,0.816-2.208,0.816c-1.488,0-2.561-1.152-2.561-2.592c0-1.696,1.088-2.752,2.656-2.752
			c0.704,0,1.376,0.224,1.983,0.624v-1.312c-0.655-0.32-1.424-0.496-2.224-0.496c-2.144,0-3.728,1.568-3.728,3.904
			c0,2.256,1.456,3.808,3.68,3.808c0.928,0,1.744-0.192,2.4-0.576V64.024z M230.25,62.216c0,1.648-0.896,2.592-2.336,2.592
			c-1.521,0-2.385-0.976-2.385-2.704c0-1.632,0.864-2.576,2.336-2.576C229.241,59.528,230.25,60.552,230.25,62.216 M231.434,58.568
			h-1.216v1.344c-0.544-1.056-1.424-1.6-2.624-1.6c-2,0-3.36,1.456-3.36,3.856c0,2.336,1.376,3.856,3.424,3.856
			c1.104,0,2.017-0.56,2.593-1.6v1.296h1.184V58.568z M221.05,65.72h1.216V53.608h-1.216V65.72z M214.426,60.584h1.04
			c1.184,0,2.111-0.032,2.88-0.576c0.72-0.512,1.168-1.456,1.168-2.576c0-1.12-0.448-2.064-1.168-2.576
			c-0.769-0.544-1.712-0.576-2.88-0.576h-2.4v11.44h1.36V60.584z M214.426,59.353v-3.824h0.656c1.983,0,2.96,0.32,2.96,1.984
			c0,1.584-0.992,1.84-2.96,1.84H214.426z"/>
	</g>
	<line clip-path="url(#SVGID_2_)" fill="none" stroke="#006227" stroke-width="2" x1="152.498" y1="14" x2="197.498" y2="14"/>
	
		<line clip-path="url(#SVGID_2_)" fill="none" stroke="#006227" stroke-width="2" stroke-dasharray="9,9" x1="152.498" y1="53.5" x2="197.498" y2="53.5"/>
	<line clip-path="url(#SVGID_2_)" fill="none" stroke="#808285" stroke-width="2" x1="152.498" y1="27" x2="197.498" y2="27"/>
	
		<line clip-path="url(#SVGID_2_)" fill="none" stroke="#808285" stroke-width="2" stroke-dasharray="9,9" x1="152.498" y1="66.5" x2="197.498" y2="66.5"/>
	<line clip-path="url(#SVGID_2_)" fill="none" stroke="#F9A25E" stroke-width="2" x1="152.498" y1="20.5" x2="197.498" y2="20.5"/>
	
		<line clip-path="url(#SVGID_2_)" fill="none" stroke="#F9A25E" stroke-width="2" stroke-dasharray="9,9" x1="152.498" y1="60" x2="197.498" y2="60"/>
	<g clip-path="url(#SVGID_2_)">
		<defs>
			<rect id="SVGID_39_" x="-9" y="-1" width="930" height="490.252"/>
		</defs>
		<clipPath id="SVGID_40_">
			<use xlink:href="#SVGID_39_"  overflow="visible"/>
		</clipPath>
		<path clip-path="url(#SVGID_40_)" fill="#006227" d="M864.271,55.024c2.4,0,3.952-2.128,3.952-5.936s-1.536-5.92-3.983-5.92
			c-2.384,0-3.952,2.144-3.952,5.92S861.856,55.024,864.271,55.024 M864.256,53.904c-1.584,0-2.56-1.728-2.56-4.832
			c0-3.088,0.976-4.8,2.56-4.8c1.664,0,2.561,1.648,2.561,4.832C866.816,52.272,865.92,53.904,864.256,53.904 M851.84,49.008
			c0.704-0.544,1.536-0.816,2.432-0.816c1.761,0,2.849,1.12,2.849,2.752c0,1.776-1.104,2.896-2.736,2.896
			c-1.12,0-2-0.56-2.512-1.616l-0.96,1.12c0.784,1.152,1.888,1.68,3.439,1.68c2.624,0,4.208-1.632,4.208-4.208
			c0-2.288-1.392-3.728-3.632-3.728c-0.64,0-1.231,0.128-1.775,0.416l0.72-2.944h4.096v-1.168h-5.023l-1.36,5.568L851.84,49.008z
			 M847.504,54.72h1.36V43.28h-1.36V54.72z M843.504,48.368l-1.632-0.72c-1.04-0.464-1.536-1.024-1.536-1.84
			c0-0.976,0.72-1.664,1.744-1.664c0.816,0,1.439,0.448,1.936,1.312l1.12-0.72c-0.56-1.136-1.584-1.728-2.96-1.728
			c-1.904,0-3.216,1.216-3.216,2.816c0,1.392,0.736,2.384,2.256,3.024l1.393,0.592c1.184,0.512,1.775,1.264,1.775,2.288
			c0,1.248-0.912,2.128-2.288,2.128c-1.151,0-1.936-0.72-2.271-2.112l-1.232,0.608c0.433,1.696,1.696,2.656,3.504,2.656
			c2.208,0,3.664-1.408,3.664-3.504C845.76,50.064,844.992,49.024,843.504,48.368 M833.04,45.84l1.824,4.208h-3.648L833.04,45.84z
			 M833.04,42.833l-5.184,11.888h1.472l1.488-3.504h4.464l1.487,3.504h1.473L833.04,42.833z M822.736,49.584h1.04
			c1.184,0,2.111-0.032,2.88-0.576c0.72-0.512,1.168-1.456,1.168-2.576c0-1.12-0.448-2.064-1.168-2.576
			c-0.769-0.544-1.712-0.576-2.88-0.576h-2.4v11.44h1.36V49.584z M822.736,48.353v-3.824h0.655c1.984,0,2.96,0.32,2.96,1.984
			c0,1.584-0.991,1.84-2.96,1.84H822.736z"/>
		<path clip-path="url(#SVGID_40_)" fill="#F9A25E" d="M861.432,93.008c0.704-0.544,1.536-0.816,2.432-0.816
			c1.761,0,2.849,1.12,2.849,2.752c0,1.776-1.104,2.896-2.736,2.896c-1.12,0-2-0.56-2.512-1.616l-0.96,1.12
			c0.784,1.152,1.888,1.68,3.439,1.68c2.624,0,4.208-1.632,4.208-4.208c0-2.288-1.392-3.728-3.632-3.728
			c-0.641,0-1.231,0.128-1.775,0.416l0.72-2.944h4.096v-1.168h-5.023l-1.36,5.568L861.432,93.008z M852.216,98.576l1.12,0.576
			l5.712-11.76H851.8v1.184h5.296L852.216,98.576z M847.735,98.72h1.36V87.28h-1.36V98.72z M843.735,92.368l-1.632-0.72
			c-1.04-0.464-1.536-1.024-1.536-1.84c0-0.976,0.721-1.664,1.744-1.664c0.816,0,1.44,0.448,1.937,1.312l1.119-0.72
			c-0.56-1.136-1.584-1.728-2.96-1.728c-1.903,0-3.216,1.216-3.216,2.816c0,1.392,0.736,2.384,2.256,3.024l1.393,0.592
			c1.184,0.512,1.775,1.264,1.775,2.288c0,1.248-0.911,2.128-2.287,2.128c-1.152,0-1.937-0.72-2.272-2.112l-1.232,0.608
			c0.433,1.696,1.696,2.656,3.505,2.656c2.208,0,3.664-1.408,3.664-3.504C845.992,94.064,845.224,93.024,843.735,92.368
			 M833.271,89.84l1.824,4.208h-3.648L833.271,89.84z M833.271,86.833l-5.184,11.888h1.472l1.488-3.504h4.464L837,98.72h1.472
			L833.271,86.833z M822.968,93.584h1.04c1.184,0,2.112-0.032,2.88-0.576c0.72-0.512,1.168-1.456,1.168-2.576
			c0-1.12-0.448-2.064-1.168-2.576c-0.768-0.544-1.712-0.576-2.88-0.576h-2.4v11.44h1.36V93.584z M822.968,92.353v-3.824h0.656
			c1.983,0,2.96,0.32,2.96,1.984c0,1.584-0.992,1.84-2.96,1.84H822.968z"/>
		<path clip-path="url(#SVGID_40_)" fill="#808285" d="M864.271,181c2.4,0,3.952-2.128,3.952-5.936c0-3.808-1.536-5.92-3.983-5.92
			c-2.384,0-3.952,2.144-3.952,5.92C860.288,178.841,861.856,181,864.271,181 M864.256,179.881c-1.584,0-2.56-1.728-2.56-4.832
			c0-3.088,0.976-4.8,2.56-4.8c1.664,0,2.561,1.648,2.561,4.832C866.816,178.249,865.92,179.881,864.256,179.881 M857.2,172.777
			c0,1.504-0.944,2.528-2.304,2.528c-1.521,0-2.416-0.976-2.416-2.528c0-1.52,0.943-2.512,2.352-2.512
			C856.271,170.265,857.2,171.225,857.2,172.777 M856.288,175.896l-3.696,4.816l1.185,0.608l2.607-3.68
			c1.265-1.792,2.208-3.104,2.208-4.752c0-2.24-1.408-3.744-3.504-3.744c-2.496,0-4.016,1.472-4.016,3.76
			c0,2.096,1.408,3.536,3.456,3.536C855.168,176.44,855.728,176.265,856.288,175.896 M847.504,180.697h1.36v-11.44h-1.36V180.697z
			 M843.504,174.345l-1.632-0.72c-1.04-0.464-1.536-1.024-1.536-1.84c0-0.976,0.72-1.664,1.744-1.664
			c0.816,0,1.439,0.448,1.936,1.312l1.12-0.72c-0.56-1.136-1.584-1.728-2.96-1.728c-1.904,0-3.216,1.216-3.216,2.816
			c0,1.392,0.736,2.384,2.256,3.024l1.393,0.592c1.184,0.512,1.775,1.264,1.775,2.288c0,1.248-0.912,2.128-2.288,2.128
			c-1.151,0-1.936-0.72-2.271-2.112l-1.232,0.608c0.433,1.696,1.696,2.656,3.504,2.656c2.208,0,3.664-1.408,3.664-3.504
			C845.76,176.041,844.992,175,843.504,174.345 M833.04,171.816l1.824,4.208h-3.648L833.04,171.816z M833.04,168.809l-5.184,11.888
			h1.472l1.488-3.504h4.464l1.487,3.504h1.473L833.04,168.809z M822.736,175.561h1.04c1.184,0,2.111-0.032,2.88-0.576
			c0.72-0.512,1.168-1.456,1.168-2.576s-0.448-2.064-1.168-2.576c-0.769-0.544-1.712-0.576-2.88-0.576h-2.4v11.44h1.36V175.561z
			 M822.736,174.329v-3.824h0.655c1.984,0,2.96,0.32,2.96,1.984c0,1.584-0.991,1.84-2.96,1.84H822.736z"/>
		<path clip-path="url(#SVGID_40_)" fill="#006227" d="M864.271,234.038c2.4,0,3.952-2.128,3.952-5.936s-1.536-5.92-3.983-5.92
			c-2.384,0-3.952,2.144-3.952,5.92S861.856,234.038,864.271,234.038 M864.256,232.918c-1.584,0-2.56-1.728-2.56-4.832
			c0-3.088,0.976-4.8,2.56-4.8c1.664,0,2.561,1.648,2.561,4.832C866.816,231.286,865.92,232.918,864.256,232.918 M851.84,228.022
			c0.704-0.544,1.536-0.816,2.432-0.816c1.761,0,2.849,1.12,2.849,2.752c0,1.776-1.104,2.896-2.736,2.896
			c-1.12,0-2-0.56-2.512-1.616l-0.96,1.12c0.784,1.152,1.888,1.68,3.439,1.68c2.624,0,4.208-1.632,4.208-4.208
			c0-2.288-1.392-3.728-3.632-3.728c-0.64,0-1.231,0.128-1.775,0.416l0.72-2.944h4.096v-1.168h-5.023l-1.36,5.568L851.84,228.022z
			 M847.504,233.734h1.36v-11.44h-1.36V233.734z M843.504,227.382l-1.632-0.72c-1.04-0.464-1.536-1.024-1.536-1.84
			c0-0.976,0.72-1.664,1.744-1.664c0.816,0,1.439,0.448,1.936,1.312l1.12-0.72c-0.56-1.136-1.584-1.728-2.96-1.728
			c-1.904,0-3.216,1.216-3.216,2.816c0,1.392,0.736,2.384,2.256,3.024l1.393,0.592c1.184,0.512,1.775,1.264,1.775,2.288
			c0,1.248-0.912,2.128-2.288,2.128c-1.151,0-1.936-0.72-2.271-2.112l-1.232,0.608c0.433,1.696,1.696,2.656,3.504,2.656
			c2.208,0,3.664-1.408,3.664-3.504C845.76,229.078,844.992,228.038,843.504,227.382 M833.04,224.854l1.824,4.208h-3.648
			L833.04,224.854z M833.04,221.846l-5.184,11.888h1.472l1.488-3.504h4.464l1.487,3.504h1.473L833.04,221.846z M822.736,228.598
			h1.04c1.184,0,2.111-0.032,2.88-0.576c0.72-0.512,1.168-1.456,1.168-2.576c0-1.12-0.448-2.064-1.168-2.576
			c-0.769-0.544-1.712-0.576-2.88-0.576h-2.4v11.44h1.36V228.598z M822.736,227.366v-3.824h0.655c1.984,0,2.96,0.32,2.96,1.984
			c0,1.584-0.991,1.84-2.96,1.84H822.736z"/>
		<path clip-path="url(#SVGID_40_)" fill="#F9A25E" d="M861.2,283.035c0.704-0.544,1.536-0.816,2.432-0.816
			c1.76,0,2.849,1.121,2.849,2.752c0,1.776-1.104,2.896-2.736,2.896c-1.12,0-2-0.561-2.512-1.615l-0.961,1.119
			c0.784,1.152,1.889,1.68,3.44,1.68c2.624,0,4.208-1.631,4.208-4.207c0-2.289-1.392-3.729-3.632-3.729
			c-0.642,0-1.232,0.128-1.776,0.416l0.721-2.943h4.095v-1.168h-5.023l-1.359,5.567L861.2,283.035z M851.984,288.604l1.119,0.576
			l5.713-11.76h-7.248v1.184h5.296L851.984,288.604z M847.504,288.747h1.36v-11.44h-1.36V288.747z M843.504,282.396l-1.632-0.72
			c-1.04-0.465-1.536-1.024-1.536-1.84c0-0.977,0.72-1.664,1.744-1.664c0.816,0,1.439,0.447,1.936,1.312l1.12-0.72
			c-0.56-1.137-1.584-1.729-2.96-1.729c-1.904,0-3.216,1.217-3.216,2.816c0,1.392,0.736,2.384,2.256,3.023l1.393,0.592
			c1.184,0.513,1.775,1.265,1.775,2.289c0,1.248-0.912,2.127-2.288,2.127c-1.151,0-1.936-0.72-2.271-2.111l-1.232,0.607
			c0.433,1.696,1.696,2.656,3.504,2.656c2.208,0,3.664-1.408,3.664-3.504C845.76,284.092,844.992,283.051,843.504,282.396
			 M833.04,279.867l1.824,4.208h-3.648L833.04,279.867z M833.04,276.859l-5.184,11.888h1.472l1.488-3.504h4.464l1.487,3.504h1.473
			L833.04,276.859z M822.736,283.611h1.04c1.184,0,2.111-0.032,2.88-0.576c0.72-0.512,1.168-1.456,1.168-2.576
			c0-1.119-0.448-2.063-1.168-2.576c-0.769-0.543-1.712-0.576-2.88-0.576h-2.4v11.44h1.36V283.611z M822.736,282.379v-3.824h0.655
			c1.984,0,2.96,0.32,2.96,1.984c0,1.584-0.991,1.84-2.96,1.84H822.736z"/>
		<path clip-path="url(#SVGID_40_)" fill="#808285" d="M864.271,321.535c2.4,0,3.952-2.128,3.952-5.936
			c0-3.809-1.536-5.92-3.983-5.92c-2.384,0-3.952,2.144-3.952,5.92C860.288,319.375,861.856,321.535,864.271,321.535
			 M864.256,320.416c-1.584,0-2.56-1.729-2.56-4.832c0-3.089,0.976-4.801,2.56-4.801c1.664,0,2.561,1.648,2.561,4.832
			C866.816,318.783,865.92,320.416,864.256,320.416 M857.2,313.312c0,1.504-0.944,2.528-2.304,2.528
			c-1.521,0-2.416-0.977-2.416-2.528c0-1.521,0.943-2.513,2.352-2.513C856.271,310.799,857.2,311.76,857.2,313.312 M856.288,316.432
			l-3.696,4.816l1.185,0.607l2.607-3.68c1.265-1.793,2.208-3.104,2.208-4.752c0-2.24-1.408-3.744-3.504-3.744
			c-2.496,0-4.016,1.472-4.016,3.76c0,2.096,1.408,3.536,3.456,3.536C855.168,316.976,855.728,316.799,856.288,316.432
			 M847.504,321.231h1.36v-11.44h-1.36V321.231z M843.504,314.879l-1.632-0.72c-1.04-0.464-1.536-1.024-1.536-1.84
			c0-0.976,0.72-1.664,1.744-1.664c0.816,0,1.439,0.448,1.936,1.312l1.12-0.719c-0.56-1.137-1.584-1.729-2.96-1.729
			c-1.904,0-3.216,1.216-3.216,2.816c0,1.392,0.736,2.383,2.256,3.023l1.393,0.592c1.184,0.512,1.775,1.264,1.775,2.288
			c0,1.248-0.912,2.128-2.288,2.128c-1.151,0-1.936-0.72-2.271-2.111l-1.232,0.607c0.433,1.696,1.696,2.656,3.504,2.656
			c2.208,0,3.664-1.408,3.664-3.504C845.76,316.575,844.992,315.535,843.504,314.879 M833.04,312.352l1.824,4.208h-3.648
			L833.04,312.352z M833.04,309.344l-5.184,11.888h1.472l1.488-3.504h4.464l1.487,3.504h1.473L833.04,309.344z M822.736,316.096
			h1.04c1.184,0,2.111-0.032,2.88-0.576c0.72-0.512,1.168-1.456,1.168-2.576s-0.448-2.064-1.168-2.576
			c-0.769-0.544-1.712-0.576-2.88-0.576h-2.4v11.44h1.36V316.096z M822.736,314.863v-3.824h0.655c1.984,0,2.96,0.32,2.96,1.984
			c0,1.584-0.991,1.84-2.96,1.84H822.736z"/>
	</g>
	<line clip-path="url(#SVGID_2_)" fill="none" stroke="#D1D3D4" stroke-width="0.5" x1="142.214" y1="80" x2="142.214" y2="340"/>
	<g clip-path="url(#SVGID_2_)">
		<defs>
			<rect id="SVGID_41_" x="-9" y="-1" width="930" height="490.252"/>
		</defs>
		<clipPath id="SVGID_42_">
			<use xlink:href="#SVGID_41_"  overflow="visible"/>
		</clipPath>
		<path clip-path="url(#SVGID_42_)" fill="#808285" d="M307.075,481.003h0.725v-6.191h-1.582l-0.42,0.646h1.277V481.003z
			 M301.673,485.278c0,0.479,0.374,0.854,0.869,0.854c0.494,0,0.884-0.374,0.884-0.854s-0.39-0.869-0.884-0.869
			C302.062,484.409,301.673,484.799,301.673,485.278 M296.918,485.997h1.258v-2.311h1.26v-1.032h-1.26v-7.485h-0.539l-5.744,8.518
			h5.025V485.997z M296.918,482.654h-3.135l3.135-4.712V482.654z M286.883,485.997h1.243v-10.618h-2.713l-0.72,1.108h2.189V485.997z
			 M278.452,486.282c2.251,0,3.704-1.993,3.704-5.564s-1.438-5.549-3.734-5.549c-2.236,0-3.704,2.008-3.704,5.549
			S276.186,486.282,278.452,486.282 M278.437,485.233c-1.485,0-2.4-1.619-2.4-4.53c0-2.896,0.915-4.501,2.4-4.501
			c1.562,0,2.401,1.545,2.401,4.53C280.838,483.704,279.998,485.233,278.437,485.233 M272.542,484.784h-4.065l1.681-1.816
			c1.726-1.875,2.714-3.286,2.714-4.829c0-1.847-1.229-2.97-3.329-2.97c-2.116,0-3.359,1.183-3.359,3.21
			c0,0.089,0.016,0.194,0.016,0.283h1.198v-0.119c0-1.425,0.75-2.206,2.101-2.206c1.291,0,2.116,0.796,2.116,1.877
			c0,1.393-1.336,2.819-3.271,5.1l-2.264,2.684h6.464V484.784z M258.562,485.997h1.139v-11.354h-1.139V485.997z M255.173,482.713
			c0,1.546-0.84,2.431-2.189,2.431c-1.427,0-2.236-0.915-2.236-2.536c0-1.529,0.81-2.416,2.19-2.416
			C254.228,480.191,255.173,481.153,255.173,482.713 M256.282,479.294h-1.139v1.258c-0.511-0.99-1.336-1.498-2.462-1.498
			c-1.875,0-3.147,1.363-3.147,3.614c0,2.19,1.288,3.614,3.208,3.614c1.036,0,1.891-0.523,2.431-1.498v1.213h1.109V479.294z
			 M242.064,480.237v5.76h1.138v-5.76h1.26v-0.943h-1.26v-2.7h-1.138v2.7h-1.23v0.943H242.064z M239.004,481.889h-4.082
			c0.12-1.141,0.945-1.847,2.041-1.847C238.178,480.042,238.929,480.703,239.004,481.889 M240.232,482.816v-0.224
			c0-2.221-1.259-3.554-3.225-3.554c-1.951,0-3.344,1.469-3.344,3.584c0,2.19,1.378,3.659,3.419,3.659
			c1.381,0,2.43-0.614,3.104-1.829l-0.868-0.585c-0.555,0.976-1.275,1.456-2.176,1.456c-1.291,0-2.221-0.946-2.221-2.402v-0.105
			H240.232z M227.019,481.889h-4.082c0.12-1.141,0.946-1.847,2.041-1.847C226.194,480.042,226.944,480.703,227.019,481.889
			 M228.247,482.816v-0.224c0-2.221-1.258-3.554-3.224-3.554c-1.951,0-3.345,1.469-3.345,3.584c0,2.19,1.378,3.659,3.419,3.659
			c1.381,0,2.431-0.614,3.104-1.829l-0.868-0.585c-0.555,0.976-1.275,1.456-2.176,1.456c-1.29,0-2.222-0.946-2.222-2.402v-0.105
			H228.247z M215.529,484.874c0.524,0.943,1.393,1.408,2.639,1.408c1.486,0,2.444-0.884,2.444-2.128
			c0-1.097-0.645-1.576-1.949-1.996c-1.11-0.36-1.727-0.45-1.727-1.156c0-0.585,0.466-1.005,1.142-1.005
			c0.705,0,1.261,0.345,1.531,0.96l0.928-0.57c-0.359-0.854-1.229-1.333-2.384-1.333c-1.427,0-2.369,0.854-2.369,2.024
			c0,1.319,0.988,1.604,2.639,2.175c0.706,0.24,1.051,0.51,1.051,1.021c0,0.585-0.495,1.006-1.261,1.006
			c-0.765,0-1.336-0.346-1.71-1.065L215.529,484.874z M212.904,482.713c0,1.546-0.84,2.431-2.191,2.431
			c-1.425,0-2.236-0.915-2.236-2.536c0-1.529,0.812-2.416,2.191-2.416C211.959,480.191,212.904,481.153,212.904,482.713
			 M214.012,479.294h-1.138v1.258c-0.51-0.99-1.335-1.498-2.461-1.498c-1.876,0-3.149,1.363-3.149,3.614
			c0,2.19,1.288,3.614,3.209,3.614c1.036,0,1.892-0.523,2.432-1.498v1.213h1.107V479.294z M204.894,481.889h-4.082
			c0.121-1.141,0.946-1.847,2.041-1.847C204.069,480.042,204.819,480.703,204.894,481.889 M206.122,482.816v-0.224
			c0-2.221-1.258-3.554-3.224-3.554c-1.95,0-3.345,1.469-3.345,3.584c0,2.19,1.379,3.659,3.419,3.659
			c1.381,0,2.432-0.614,3.105-1.829l-0.869-0.585c-0.555,0.976-1.275,1.456-2.176,1.456c-1.29,0-2.222-0.946-2.222-2.402v-0.105
			H206.122z M192.758,486.417l3.315-7.709l1.365,7.289h1.244l-2.175-11.144l-3.75,8.865l-3.749-8.865l-2.175,11.144h1.245
			l1.35-7.289L192.758,486.417z M179.98,485.997h1.138v-4.56c0-1.516-0.899-2.384-2.384-2.384c-1.021,0-1.802,0.435-2.387,1.363
			c-0.39-0.899-1.169-1.363-2.249-1.363c-1.006,0-1.771,0.419-2.311,1.273v-1.033h-1.138v6.703h1.138v-3.464
			c0-0.165-0.015-0.33-0.015-0.48c0-0.51,0.06-0.931,0.345-1.291c0.359-0.465,0.915-0.72,1.531-0.72c1.14,0,1.666,0.66,1.666,2.011
			v3.944h1.138v-3.464c0-0.15-0.015-0.285-0.015-0.42c0-0.556,0.074-0.977,0.359-1.352c0.36-0.465,0.9-0.72,1.517-0.72
			c1.14,0,1.666,0.66,1.666,2.011V485.997z M162.863,482.668c0-1.425,1.08-2.536,2.431-2.536c1.335,0,2.416,1.111,2.416,2.536
			c0,1.426-1.081,2.536-2.416,2.536C163.958,485.204,162.863,484.094,162.863,482.668 M161.65,482.668
			c0,0.975,0.358,1.846,1.062,2.551c0.69,0.689,1.59,1.063,2.581,1.063c0.975,0,1.876-0.39,2.581-1.078
			c0.688-0.675,1.063-1.562,1.063-2.536c0-0.976-0.375-1.876-1.063-2.551c-0.705-0.689-1.591-1.063-2.581-1.063
			c-0.991,0-1.891,0.359-2.581,1.048C162.009,480.792,161.65,481.692,161.65,482.668 M157.015,485.997h1.139v-3.27
			c0-1.756,0.6-2.626,1.814-2.626c0.21,0,0.45,0.045,0.705,0.136l0.39-1.033c-0.255-0.09-0.51-0.135-0.779-0.135
			c-1.021,0-1.65,0.479-2.25,1.617v-1.393h-1.019V485.997z M153.04,485.997h1.138v-5.76h1.785v-0.943h-1.785v-1.786
			c0-1.291,0.03-1.906,0.885-1.906c0.301,0,0.601,0.075,0.9,0.24v-1.183c-0.314-0.105-0.645-0.15-0.99-0.15
			c-1.604,0-1.933,0.839-1.933,2.849v1.937h-1.29v0.943h1.29V485.997z M145.015,482.683c0,1.591-0.87,2.491-2.251,2.491
			c-1.335,0-2.176-0.96-2.176-2.641c0-1.486,0.826-2.342,2.161-2.342C144.1,480.191,145.015,481.167,145.015,482.683
			 M146.123,474.644h-1.138v5.908c-0.511-0.989-1.335-1.498-2.446-1.498c-1.876,0-3.164,1.363-3.164,3.614
			c0,2.19,1.288,3.614,3.209,3.614c1.036,0,1.906-0.539,2.431-1.498v1.214h1.108V474.644z M137.005,481.889h-4.082
			c0.12-1.141,0.946-1.847,2.041-1.847C136.18,480.042,136.93,480.703,137.005,481.889 M138.233,482.816v-0.224
			c0-2.221-1.259-3.554-3.225-3.554c-1.951,0-3.344,1.469-3.344,3.584c0,2.19,1.378,3.659,3.419,3.659
			c1.381,0,2.43-0.614,3.104-1.829l-0.867-0.585c-0.556,0.976-1.275,1.456-2.177,1.456c-1.29,0-2.221-0.946-2.221-2.402v-0.105
			H138.233z M128.62,480.237v5.76h1.139v-5.76h1.26v-0.943h-1.26v-2.7h-1.139v2.7h-1.23v0.943H128.62z M121.044,482.668
			c0-1.591,0.87-2.506,2.251-2.506c1.335,0,2.176,0.96,2.176,2.641c0,1.486-0.826,2.356-2.161,2.356
			C121.959,485.159,121.044,484.184,121.044,482.668 M119.936,489.252h1.139v-4.468c0.51,0.988,1.335,1.498,2.445,1.498
			c1.877,0,3.164-1.349,3.164-3.614c0-2.206-1.287-3.614-3.209-3.614c-1.035,0-1.921,0.524-2.445,1.498v-1.258h-1.094V489.252z
			 M116.606,482.713c0,1.546-0.842,2.431-2.191,2.431c-1.426,0-2.236-0.915-2.236-2.536c0-1.529,0.811-2.416,2.191-2.416
			C115.66,480.191,116.606,481.153,116.606,482.713 M117.714,479.294h-1.138v1.258c-0.51-0.99-1.336-1.498-2.461-1.498
			c-1.876,0-3.149,1.363-3.149,3.614c0,2.19,1.288,3.614,3.209,3.614c1.035,0,1.892-0.523,2.432-1.498v1.213h1.107V479.294z
			 M108.101,482.683c0,1.591-0.869,2.491-2.251,2.491c-1.336,0-2.176-0.96-2.176-2.641c0-1.486,0.825-2.342,2.161-2.342
			C107.186,480.191,108.101,481.167,108.101,482.683 M109.209,474.644h-1.138v5.908c-0.511-0.989-1.336-1.498-2.446-1.498
			c-1.876,0-3.164,1.363-3.164,3.614c0,2.19,1.288,3.614,3.209,3.614c1.035,0,1.906-0.539,2.431-1.498v1.214h1.108V474.644z
			 M97.18,477.673l1.71,3.946h-3.42L97.18,477.673z M97.18,474.854l-4.858,11.144h1.38l1.394-3.285h4.186l1.394,3.285h1.38
			L97.18,474.854z"/>
		<path clip-path="url(#SVGID_42_)" fill="#808285" d="M751.097,467.278c0,0.479,0.375,0.854,0.87,0.854
			c0.494,0,0.884-0.375,0.884-0.854c0-0.48-0.39-0.869-0.884-0.869C751.487,466.409,751.097,466.798,751.097,467.278
			 M748.053,463.889h-4.082c0.12-1.141,0.945-1.847,2.041-1.847C747.227,462.042,747.978,462.703,748.053,463.889 M749.281,464.817
			v-0.226c0-2.22-1.259-3.553-3.225-3.553c-1.951,0-3.344,1.468-3.344,3.583c0,2.191,1.378,3.66,3.419,3.66
			c1.38,0,2.43-0.614,3.104-1.829l-0.869-0.585c-0.555,0.975-1.275,1.456-2.176,1.456c-1.291,0-2.221-0.946-2.221-2.402v-0.104
			H749.281z M736.562,466.874c0.524,0.944,1.394,1.408,2.64,1.408c1.484,0,2.443-0.883,2.443-2.129c0-1.096-0.644-1.575-1.948-1.995
			c-1.111-0.36-1.727-0.45-1.727-1.156c0-0.585,0.465-1.005,1.142-1.005c0.704,0,1.261,0.345,1.529,0.96l0.93-0.57
			c-0.359-0.854-1.229-1.333-2.385-1.333c-1.426,0-2.368,0.854-2.368,2.023c0,1.321,0.987,1.605,2.639,2.176
			c0.705,0.24,1.051,0.51,1.051,1.021c0,0.586-0.496,1.006-1.261,1.006c-0.767,0-1.336-0.346-1.71-1.066L736.562,466.874z
			 M728.988,467.997h1.138v-3.464c0-0.735,0-1.291,0.39-1.771c0.375-0.465,0.961-0.72,1.637-0.72c1.2,0,1.785,0.66,1.785,2.011
			v3.944h1.139v-4.56c0-1.516-0.958-2.384-2.52-2.384c-1.05,0-1.86,0.404-2.431,1.273v-1.034h-1.138V467.997z M721.201,464.668
			c0-1.426,1.081-2.536,2.431-2.536c1.336,0,2.416,1.11,2.416,2.536c0,1.425-1.08,2.536-2.416,2.536
			C722.297,467.204,721.201,466.093,721.201,464.668 M719.988,464.668c0,0.975,0.358,1.846,1.062,2.551
			c0.69,0.689,1.591,1.063,2.581,1.063c0.975,0,1.876-0.39,2.581-1.078c0.689-0.675,1.062-1.562,1.062-2.536
			s-0.373-1.876-1.062-2.551c-0.705-0.689-1.591-1.063-2.581-1.063s-1.891,0.359-2.581,1.049
			C720.347,462.792,719.988,463.693,719.988,464.668 M713.131,464.668c0-1.591,0.871-2.506,2.251-2.506
			c1.336,0,2.176,0.96,2.176,2.641c0,1.485-0.825,2.356-2.161,2.356C714.047,467.159,713.131,466.183,713.131,464.668
			 M712.022,471.252h1.139v-4.468c0.51,0.989,1.336,1.498,2.445,1.498c1.876,0,3.164-1.349,3.164-3.614
			c0-2.206-1.288-3.614-3.209-3.614c-1.034,0-1.921,0.524-2.445,1.498v-1.259h-1.094V471.252z M705.288,466.874
			c0.524,0.944,1.393,1.408,2.639,1.408c1.486,0,2.444-0.883,2.444-2.129c0-1.096-0.645-1.575-1.948-1.995
			c-1.111-0.36-1.727-0.45-1.727-1.156c0-0.585,0.466-1.005,1.141-1.005c0.706,0,1.261,0.345,1.531,0.96l0.928-0.57
			c-0.359-0.854-1.228-1.333-2.384-1.333c-1.425,0-2.369,0.854-2.369,2.023c0,1.321,0.989,1.605,2.639,2.176
			c0.706,0.24,1.051,0.51,1.051,1.021c0,0.586-0.494,1.006-1.261,1.006c-0.765,0-1.336-0.346-1.71-1.066L705.288,466.874z
			 M703.113,463.889h-4.082c0.119-1.141,0.945-1.847,2.041-1.847C702.288,462.042,703.038,462.703,703.113,463.889 M704.341,464.817
			v-0.226c0-2.22-1.258-3.553-3.224-3.553c-1.95,0-3.345,1.468-3.345,3.583c0,2.191,1.378,3.66,3.419,3.66
			c1.382,0,2.432-0.614,3.105-1.829l-0.869-0.585c-0.555,0.975-1.274,1.456-2.175,1.456c-1.291,0-2.222-0.946-2.222-2.402v-0.104
			H704.341z M693.183,467.997h1.14v-3.269c0-1.757,0.6-2.626,1.814-2.626c0.209,0,0.45,0.045,0.705,0.135l0.39-1.033
			c-0.255-0.09-0.511-0.135-0.779-0.135c-1.021,0-1.65,0.479-2.25,1.618v-1.395h-1.02V467.997z M683.312,468.282
			c2.251,0,3.705-1.993,3.705-5.564c0-3.57-1.438-5.549-3.734-5.549c-2.235,0-3.704,2.008-3.704,5.549
			S681.047,468.282,683.312,468.282 M683.297,467.234c-1.485,0-2.4-1.621-2.4-4.531c0-2.896,0.915-4.501,2.4-4.501
			c1.561,0,2.401,1.545,2.401,4.531C685.698,465.703,684.857,467.234,683.297,467.234 M671.659,462.642
			c0.659-0.51,1.439-0.765,2.278-0.765c1.65,0,2.672,1.05,2.672,2.581c0,1.665-1.036,2.716-2.565,2.716
			c-1.051,0-1.875-0.524-2.356-1.516l-0.898,1.051c0.733,1.079,1.769,1.573,3.224,1.573c2.461,0,3.944-1.528,3.944-3.944
			c0-2.146-1.304-3.494-3.404-3.494c-0.6,0-1.155,0.12-1.665,0.39l0.675-2.762h3.84v-1.093h-4.709l-1.274,5.218L671.659,462.642z
			 M667.594,467.997h1.273v-10.723h-1.273V467.997z M663.843,462.043l-1.53-0.675c-0.976-0.436-1.44-0.961-1.44-1.727
			c0-0.914,0.675-1.56,1.636-1.56c0.765,0,1.35,0.42,1.816,1.23l1.049-0.676c-0.524-1.063-1.485-1.617-2.775-1.617
			c-1.786,0-3.014,1.138-3.014,2.638c0,1.306,0.688,2.235,2.113,2.836l1.306,0.555c1.111,0.48,1.666,1.186,1.666,2.146
			c0,1.171-0.856,1.996-2.146,1.996c-1.081,0-1.815-0.676-2.13-1.981l-1.153,0.571c0.404,1.59,1.588,2.487,3.283,2.487
			c2.071,0,3.435-1.317,3.435-3.283C665.957,463.633,665.238,462.658,663.843,462.043 M654.033,459.673l1.709,3.946h-3.419
			L654.033,459.673z M654.033,456.854l-4.859,11.143h1.379l1.396-3.285h4.184l1.396,3.285h1.38L654.033,456.854z M644.372,463.182
			h0.975c1.111,0,1.982-0.029,2.701-0.539c0.675-0.479,1.094-1.364,1.094-2.414c0-1.052-0.419-1.937-1.094-2.415
			c-0.719-0.51-1.604-0.539-2.701-0.539h-2.248v10.723h1.273V463.182z M644.372,462.029v-3.587h0.615c1.86,0,2.776,0.3,2.776,1.86
			c0,1.486-0.931,1.727-2.776,1.727H644.372z M630.349,467.997h1.139v-3.464c0-0.735,0-1.291,0.39-1.771
			c0.376-0.465,0.961-0.72,1.636-0.72c1.201,0,1.786,0.66,1.786,2.011v3.944h1.138v-4.56c0-1.516-0.958-2.384-2.519-2.384
			c-1.05,0-1.861,0.404-2.431,1.273v-1.034h-1.139V467.997z M622.562,464.668c0-1.426,1.081-2.536,2.432-2.536
			c1.336,0,2.416,1.11,2.416,2.536c0,1.425-1.08,2.536-2.416,2.536C623.658,467.204,622.562,466.093,622.562,464.668
			 M621.349,464.668c0,0.975,0.36,1.846,1.064,2.551c0.689,0.689,1.59,1.063,2.58,1.063c0.976,0,1.876-0.39,2.581-1.078
			c0.688-0.675,1.062-1.562,1.062-2.536s-0.374-1.876-1.062-2.551c-0.705-0.689-1.59-1.063-2.581-1.063
			c-0.99,0-1.891,0.359-2.58,1.049C621.709,462.792,621.349,463.693,621.349,464.668 M614.164,464.683
			c0,1.591-0.87,2.491-2.251,2.491c-1.335,0-2.176-0.961-2.176-2.641c0-1.486,0.825-2.341,2.16-2.341
			C613.249,462.192,614.164,463.167,614.164,464.683 M615.271,456.645h-1.138v5.907c-0.51-0.988-1.335-1.498-2.446-1.498
			c-1.876,0-3.164,1.363-3.164,3.614c0,2.191,1.288,3.614,3.209,3.614c1.036,0,1.906-0.539,2.432-1.498v1.213h1.107V456.645z
			 M606.155,463.889h-4.082c0.12-1.141,0.944-1.847,2.041-1.847C605.329,462.042,606.079,462.703,606.155,463.889 M607.383,464.817
			v-0.226c0-2.22-1.258-3.553-3.224-3.553c-1.951,0-3.345,1.468-3.345,3.583c0,2.191,1.379,3.66,3.42,3.66
			c1.38,0,2.43-0.614,3.104-1.829l-0.869-0.585c-0.555,0.975-1.274,1.456-2.175,1.456c-1.291,0-2.221-0.946-2.221-2.402v-0.104
			H607.383z M597.77,462.237v5.76h1.139v-5.76h1.26v-0.943h-1.26v-2.7h-1.139v2.7h-1.229v0.943H597.77z M596.073,466.409
			c-0.705,0.51-1.351,0.765-2.07,0.765c-1.396,0-2.4-1.081-2.4-2.431c0-1.591,1.021-2.581,2.49-2.581c0.66,0,1.29,0.21,1.86,0.585
			v-1.229c-0.615-0.299-1.335-0.464-2.085-0.464c-2.011,0-3.493,1.469-3.493,3.659c0,2.116,1.363,3.569,3.448,3.569
			c0.87,0,1.635-0.18,2.25-0.539V466.409z M583.848,461.294h-1.138v4.004c0,1.966,1.062,2.984,3.014,2.984
			c2.011,0,3.06-1.048,3.06-3.074v-3.914h-1.139v3.299c0,1.771-0.42,2.597-1.891,2.597s-1.906-0.825-1.906-2.597V461.294z
			 M579.425,464.683c0,1.591-0.87,2.491-2.251,2.491c-1.336,0-2.176-0.961-2.176-2.641c0-1.486,0.825-2.341,2.161-2.341
			C578.51,462.192,579.425,463.167,579.425,464.683 M580.533,456.645h-1.139v5.907c-0.51-0.988-1.336-1.498-2.445-1.498
			c-1.876,0-3.164,1.363-3.164,3.614c0,2.191,1.288,3.614,3.209,3.614c1.035,0,1.906-0.539,2.431-1.498v1.213h1.108V456.645z
			 M566.015,467.997h1.139v-3.464c0-0.735,0-1.291,0.39-1.771c0.376-0.465,0.961-0.72,1.636-0.72c1.201,0,1.786,0.66,1.786,2.011
			v3.944h1.138v-4.56c0-1.516-0.958-2.384-2.519-2.384c-1.05,0-1.86,0.404-2.431,1.273v-1.034h-1.139V467.997z M558.228,464.668
			c0-1.426,1.081-2.536,2.432-2.536c1.336,0,2.416,1.11,2.416,2.536c0,1.425-1.08,2.536-2.416,2.536
			C559.324,467.204,558.228,466.093,558.228,464.668 M557.015,464.668c0,0.975,0.36,1.846,1.064,2.551
			c0.689,0.689,1.59,1.063,2.58,1.063c0.976,0,1.876-0.39,2.581-1.078c0.688-0.675,1.063-1.562,1.063-2.536
			s-0.375-1.876-1.063-2.551c-0.705-0.689-1.59-1.063-2.581-1.063c-0.99,0-1.891,0.359-2.58,1.049
			C557.375,462.792,557.015,463.693,557.015,464.668 M556.039,466.409c-0.705,0.51-1.351,0.765-2.07,0.765
			c-1.395,0-2.399-1.081-2.399-2.431c0-1.591,1.02-2.581,2.489-2.581c0.66,0,1.29,0.21,1.86,0.585v-1.229
			c-0.615-0.299-1.335-0.464-2.085-0.464c-2.01,0-3.493,1.469-3.493,3.659c0,2.116,1.363,3.569,3.448,3.569
			c0.87,0,1.635-0.18,2.25-0.539V466.409z M539.811,466.874c0.524,0.944,1.394,1.408,2.64,1.408c1.484,0,2.443-0.883,2.443-2.129
			c0-1.096-0.644-1.575-1.948-1.995c-1.111-0.36-1.727-0.45-1.727-1.156c0-0.585,0.465-1.005,1.141-1.005
			c0.705,0,1.261,0.345,1.53,0.96l0.93-0.57c-0.36-0.854-1.229-1.333-2.385-1.333c-1.426,0-2.369,0.854-2.369,2.023
			c0,1.321,0.988,1.605,2.64,2.176c0.705,0.24,1.051,0.51,1.051,1.021c0,0.586-0.496,1.006-1.261,1.006
			c-0.767,0-1.336-0.346-1.711-1.066L539.811,466.874z M537.186,464.713c0,1.545-0.841,2.432-2.19,2.432
			c-1.426,0-2.236-0.916-2.236-2.536c0-1.531,0.811-2.416,2.191-2.416C536.24,462.192,537.186,463.152,537.186,464.713
			 M538.294,461.294h-1.138v1.258c-0.511-0.989-1.336-1.498-2.461-1.498c-1.876,0-3.149,1.363-3.149,3.614
			c0,2.191,1.288,3.614,3.209,3.614c1.035,0,1.891-0.524,2.431-1.498v1.213h1.108V461.294z M525.859,461.054h-0.18l-2.04,4.814
			l-1.784-4.574h-1.274l2.983,7.123l2.205-5.145l2.205,5.145l2.984-7.123h-1.29l-1.799,4.574L525.859,461.054z M510.666,466.874
			c0.524,0.944,1.393,1.408,2.639,1.408c1.486,0,2.444-0.883,2.444-2.129c0-1.096-0.645-1.575-1.949-1.995
			c-1.11-0.36-1.726-0.45-1.726-1.156c0-0.585,0.465-1.005,1.141-1.005c0.706,0,1.261,0.345,1.531,0.96l0.928-0.57
			c-0.359-0.854-1.228-1.333-2.384-1.333c-1.425,0-2.369,0.854-2.369,2.023c0,1.321,0.988,1.605,2.639,2.176
			c0.706,0.24,1.052,0.51,1.052,1.021c0,0.586-0.495,1.006-1.262,1.006c-0.765,0-1.336-0.346-1.71-1.066L510.666,466.874z
			 M507.605,458.068c0,0.479,0.375,0.839,0.84,0.839c0.464,0,0.839-0.36,0.839-0.824c0-0.465-0.375-0.854-0.839-0.854
			C507.98,457.229,507.605,457.604,507.605,458.068 M507.876,467.997h1.138v-6.703h-1.138V467.997z M501.081,466.874
			c0.524,0.944,1.393,1.408,2.639,1.408c1.486,0,2.444-0.883,2.444-2.129c0-1.096-0.645-1.575-1.948-1.995
			c-1.111-0.36-1.727-0.45-1.727-1.156c0-0.585,0.466-1.005,1.141-1.005c0.706,0,1.261,0.345,1.531,0.96l0.929-0.57
			c-0.36-0.854-1.229-1.333-2.385-1.333c-1.425,0-2.369,0.854-2.369,2.023c0,1.321,0.989,1.605,2.639,2.176
			c0.706,0.24,1.051,0.51,1.051,1.021c0,0.586-0.494,1.006-1.261,1.006c-0.765,0-1.336-0.346-1.71-1.066L501.081,466.874z
			 M494.991,471.252h1.29l4.499-9.958h-1.261l-2.068,4.807l-1.95-4.807h-1.32l2.625,6.035L494.991,471.252z M491.767,467.997h1.139
			v-11.353h-1.139V467.997z M488.377,464.713c0,1.545-0.84,2.432-2.191,2.432c-1.426,0-2.235-0.916-2.235-2.536
			c0-1.531,0.81-2.416,2.19-2.416C487.431,462.192,488.377,463.152,488.377,464.713 M489.485,461.294h-1.139v1.258
			c-0.51-0.989-1.336-1.498-2.461-1.498c-1.876,0-3.148,1.363-3.148,3.614c0,2.191,1.288,3.614,3.209,3.614
			c1.034,0,1.891-0.524,2.431-1.498v1.213h1.108V461.294z M474.967,467.997h1.138v-3.464c0-0.735,0-1.291,0.391-1.771
			c0.375-0.465,0.961-0.72,1.636-0.72c1.201,0,1.786,0.66,1.786,2.011v3.944h1.138v-4.56c0-1.516-0.958-2.384-2.519-2.384
			c-1.05,0-1.861,0.404-2.432,1.273v-1.034h-1.138V467.997z M471.637,464.713c0,1.545-0.84,2.432-2.19,2.432
			c-1.426,0-2.236-0.916-2.236-2.536c0-1.531,0.811-2.416,2.191-2.416C470.691,462.192,471.637,463.152,471.637,464.713
			 M472.745,461.294h-1.139v1.258c-0.51-0.989-1.335-1.498-2.461-1.498c-1.876,0-3.148,1.363-3.148,3.614
			c0,2.191,1.288,3.614,3.209,3.614c1.036,0,1.891-0.524,2.431-1.498v1.213h1.108V461.294z M458.662,467.997h1.138v-11.353h-1.138
			V467.997z M455.272,464.713c0,1.545-0.841,2.432-2.19,2.432c-1.426,0-2.236-0.916-2.236-2.536c0-1.531,0.811-2.416,2.191-2.416
			C454.327,462.192,455.272,463.152,455.272,464.713 M456.381,461.294h-1.138v1.258c-0.512-0.989-1.336-1.498-2.461-1.498
			c-1.876,0-3.149,1.363-3.149,3.614c0,2.191,1.288,3.614,3.209,3.614c1.035,0,1.89-0.524,2.431-1.498v1.213h1.108V461.294z
			 M448.626,466.409c-0.705,0.51-1.35,0.765-2.07,0.765c-1.395,0-2.399-1.081-2.399-2.431c0-1.591,1.02-2.581,2.489-2.581
			c0.66,0,1.29,0.21,1.86,0.585v-1.229c-0.615-0.299-1.335-0.464-2.085-0.464c-2.01,0-3.493,1.469-3.493,3.659
			c0,2.116,1.363,3.569,3.448,3.569c0.87,0,1.635-0.18,2.25-0.539V466.409z M439.718,458.068c0,0.479,0.375,0.839,0.839,0.839
			s0.839-0.36,0.839-0.824c0-0.465-0.375-0.854-0.839-0.854S439.718,457.604,439.718,458.068 M439.988,467.997h1.138v-6.703h-1.138
			V467.997z M436.298,462.237v5.76h1.138v-5.76h1.261v-0.943h-1.261v-2.7h-1.138v2.7h-1.229v0.943H436.298z M429.383,466.874
			c0.525,0.944,1.394,1.408,2.639,1.408c1.486,0,2.444-0.883,2.444-2.129c0-1.096-0.644-1.575-1.948-1.995
			c-1.11-0.36-1.727-0.45-1.727-1.156c0-0.585,0.466-1.005,1.141-1.005c0.706,0,1.262,0.345,1.531,0.96l0.928-0.57
			c-0.358-0.854-1.228-1.333-2.384-1.333c-1.425,0-2.369,0.854-2.369,2.023c0,1.321,0.989,1.605,2.64,2.176
			c0.705,0.24,1.051,0.51,1.051,1.021c0,0.586-0.495,1.006-1.262,1.006c-0.765,0-1.336-0.346-1.71-1.066L429.383,466.874z
			 M426.323,458.068c0,0.479,0.375,0.839,0.839,0.839c0.465,0,0.839-0.36,0.839-0.824c0-0.465-0.374-0.854-0.839-0.854
			C426.698,457.229,426.323,457.604,426.323,458.068 M426.593,467.997h1.138v-6.703h-1.138V467.997z M422.903,462.237v5.76h1.139
			v-5.76h1.26v-0.943h-1.26v-2.7h-1.139v2.7h-1.23v0.943H422.903z M419.394,464.713c0,1.545-0.841,2.432-2.19,2.432
			c-1.426,0-2.236-0.916-2.236-2.536c0-1.531,0.811-2.416,2.191-2.416C418.448,462.192,419.394,463.152,419.394,464.713
			 M420.502,461.294h-1.138v1.258c-0.511-0.989-1.336-1.498-2.461-1.498c-1.876,0-3.149,1.363-3.149,3.614
			c0,2.191,1.288,3.614,3.209,3.614c1.035,0,1.891-0.524,2.431-1.498v1.213h1.108V461.294z M410.634,462.237v5.76h1.138v-5.76h1.261
			v-0.943h-1.261v-2.7h-1.138v2.7h-1.229v0.943H410.634z M403.719,466.874c0.525,0.944,1.394,1.408,2.639,1.408
			c1.486,0,2.444-0.883,2.444-2.129c0-1.096-0.644-1.575-1.949-1.995c-1.109-0.36-1.726-0.45-1.726-1.156
			c0-0.585,0.465-1.005,1.141-1.005c0.705,0,1.262,0.345,1.531,0.96l0.928-0.57c-0.358-0.854-1.228-1.333-2.384-1.333
			c-1.426,0-2.369,0.854-2.369,2.023c0,1.321,0.988,1.605,2.64,2.176c0.706,0.24,1.051,0.51,1.051,1.021
			c0,0.586-0.495,1.006-1.261,1.006c-0.767,0-1.337-0.346-1.71-1.066L403.719,466.874z M392.287,464.668
			c0-1.426,1.081-2.536,2.431-2.536c1.336,0,2.416,1.11,2.416,2.536c0,1.425-1.08,2.536-2.416,2.536
			C393.383,467.204,392.287,466.093,392.287,464.668 M391.074,464.668c0,0.975,0.359,1.846,1.063,2.551
			c0.69,0.689,1.59,1.063,2.58,1.063c0.977,0,1.876-0.39,2.581-1.078c0.689-0.675,1.063-1.562,1.063-2.536s-0.374-1.876-1.063-2.551
			c-0.705-0.689-1.59-1.063-2.581-1.063c-0.99,0-1.89,0.359-2.58,1.049C391.434,462.792,391.074,463.693,391.074,464.668
			 M380.184,467.997h1.273v-8.055l7.785,8.475v-11.143h-1.273v8.144l-7.785-8.563V467.997z M371.529,467.278
			c0,0.479,0.375,0.854,0.868,0.854c0.495,0,0.885-0.375,0.885-0.854c0-0.48-0.39-0.869-0.885-0.869
			C371.919,466.409,371.529,466.798,371.529,467.278 M363.578,464.668c0-1.426,1.08-2.536,2.431-2.536
			c1.335,0,2.416,1.11,2.416,2.536c0,1.425-1.081,2.536-2.416,2.536C364.673,467.204,363.578,466.093,363.578,464.668
			 M362.365,464.668c0,0.975,0.358,1.846,1.062,2.551c0.69,0.689,1.59,1.063,2.581,1.063c0.976,0,1.875-0.39,2.58-1.078
			c0.689-0.675,1.064-1.562,1.064-2.536s-0.375-1.876-1.064-2.551c-0.705-0.689-1.59-1.063-2.58-1.063
			c-0.991,0-1.891,0.359-2.581,1.049C362.724,462.792,362.365,463.693,362.365,464.668 M355.493,464.683
			c0-1.516,0.93-2.49,2.28-2.49c1.336,0,2.161,0.854,2.161,2.341c0,1.68-0.855,2.641-2.19,2.641
			C356.363,467.174,355.493,466.273,355.493,464.683 M354.4,456.645v11.353h1.093v-1.213c0.524,0.96,1.41,1.498,2.445,1.498
			c1.922,0,3.209-1.423,3.209-3.614c0-2.251-1.287-3.614-3.163-3.614c-1.111,0-1.937,0.51-2.446,1.498v-5.907H354.4z
			 M351.52,463.889h-4.082c0.12-1.141,0.945-1.847,2.041-1.847C350.694,462.042,351.445,462.703,351.52,463.889 M352.748,464.817
			v-0.226c0-2.22-1.258-3.553-3.225-3.553c-1.95,0-3.344,1.468-3.344,3.583c0,2.191,1.378,3.66,3.419,3.66
			c1.381,0,2.431-0.614,3.104-1.829l-0.869-0.585c-0.554,0.975-1.275,1.456-2.175,1.456c-1.291,0-2.222-0.946-2.222-2.402v-0.104
			H352.748z M345.248,466.409c-0.705,0.51-1.351,0.765-2.07,0.765c-1.395,0-2.399-1.081-2.399-2.431c0-1.591,1.02-2.581,2.489-2.581
			c0.66,0,1.29,0.21,1.86,0.585v-1.229c-0.615-0.299-1.335-0.464-2.085-0.464c-2.01,0-3.493,1.469-3.493,3.659
			c0,2.116,1.363,3.569,3.448,3.569c0.87,0,1.635-0.18,2.25-0.539V466.409z M336.774,464.713c0,1.545-0.84,2.432-2.19,2.432
			c-1.425,0-2.236-0.916-2.236-2.536c0-1.531,0.812-2.416,2.191-2.416C335.83,462.192,336.774,463.152,336.774,464.713
			 M337.883,461.294h-1.138v1.258c-0.51-0.989-1.335-1.498-2.461-1.498c-1.876,0-3.149,1.363-3.149,3.614
			c0,2.191,1.288,3.614,3.209,3.614c1.036,0,1.892-0.524,2.431-1.498v1.213h1.108V461.294z M328.149,467.997h1.139v-11.353h-1.139
			V467.997z M320.694,464.668c0-1.591,0.869-2.506,2.251-2.506c1.335,0,2.175,0.96,2.175,2.641c0,1.485-0.825,2.356-2.16,2.356
			C321.609,467.159,320.694,466.183,320.694,464.668 M319.586,471.252h1.138v-4.468c0.511,0.989,1.335,1.498,2.446,1.498
			c1.875,0,3.164-1.349,3.164-3.614c0-2.206-1.289-3.614-3.209-3.614c-1.036,0-1.921,0.524-2.446,1.498v-1.259h-1.093V471.252z
			 M308.501,466.874c0.523,0.944,1.393,1.408,2.639,1.408c1.485,0,2.444-0.883,2.444-2.129c0-1.096-0.645-1.575-1.949-1.995
			c-1.111-0.36-1.726-0.45-1.726-1.156c0-0.585,0.465-1.005,1.14-1.005c0.706,0,1.261,0.345,1.531,0.96l0.929-0.57
			c-0.36-0.854-1.229-1.333-2.384-1.333c-1.426,0-2.369,0.854-2.369,2.023c0,1.321,0.988,1.605,2.639,2.176
			c0.705,0.24,1.052,0.51,1.052,1.021c0,0.586-0.496,1.006-1.262,1.006s-1.336-0.346-1.711-1.066L308.501,466.874z M304.75,468.417
			l3.299-7.123h-1.29l-2.023,4.679l-2.011-4.679h-1.289L304.75,468.417z M289.811,462.642c0.66-0.51,1.44-0.765,2.28-0.765
			c1.65,0,2.67,1.05,2.67,2.581c0,1.665-1.035,2.716-2.564,2.716c-1.051,0-1.875-0.524-2.355-1.516l-0.9,1.051
			c0.735,1.079,1.771,1.573,3.226,1.573c2.46,0,3.943-1.528,3.943-3.944c0-2.146-1.304-3.494-3.403-3.494
			c-0.601,0-1.155,0.12-1.665,0.39l0.675-2.762h3.839v-1.093h-4.709l-1.274,5.218L289.811,462.642z M283.915,468.282
			c2.251,0,3.704-1.993,3.704-5.564c0-3.57-1.438-5.549-3.734-5.549c-2.236,0-3.704,2.008-3.704,5.549
			S281.648,468.282,283.915,468.282 M283.899,467.234c-1.485,0-2.4-1.621-2.4-4.531c0-2.896,0.915-4.501,2.4-4.501
			c1.562,0,2.401,1.545,2.401,4.531C286.301,465.703,285.461,467.234,283.899,467.234 M276.461,467.278
			c0,0.479,0.374,0.854,0.869,0.854c0.494,0,0.884-0.375,0.884-0.854c0-0.48-0.39-0.869-0.884-0.869
			C276.85,466.409,276.461,466.798,276.461,467.278 M270.79,468.282c2.251,0,3.704-1.993,3.704-5.564
			c0-3.57-1.438-5.549-3.734-5.549c-2.236,0-3.704,2.008-3.704,5.549S268.523,468.282,270.79,468.282 M270.774,467.234
			c-1.485,0-2.4-1.621-2.4-4.531c0-2.896,0.915-4.501,2.4-4.501c1.562,0,2.401,1.545,2.401,4.531
			C273.176,465.703,272.336,467.234,270.774,467.234 M264.489,460.544v-0.93l-8.623,3.539v0.75l8.623,3.539v-0.945l-7.318-2.969
			L264.489,460.544z M247.704,464.668c0-1.591,0.871-2.506,2.251-2.506c1.336,0,2.176,0.96,2.176,2.641
			c0,1.485-0.825,2.356-2.161,2.356C248.62,467.159,247.704,466.183,247.704,464.668 M246.596,471.252h1.139v-4.468
			c0.511,0.989,1.336,1.498,2.445,1.498c1.876,0,3.164-1.349,3.164-3.614c0-2.206-1.288-3.614-3.209-3.614
			c-1.035,0-1.92,0.524-2.446,1.498v-1.259h-1.093V471.252z M240.401,461.414l1.649-0.961v1.859h0.748v-1.829l1.591,0.916
			l0.36-0.661l-1.606-0.915l1.606-0.932l-0.36-0.659l-1.604,0.916l0.014-1.874h-0.748l0.015,1.919l-1.649-0.961l-0.375,0.645
			l1.635,0.946l-1.635,0.944L240.401,461.414z M231.476,470.129l0.84,0.328l1.8-3.885l-1.245-0.434L231.476,470.129z
			 M223.975,464.668c0-1.426,1.08-2.536,2.432-2.536c1.335,0,2.416,1.11,2.416,2.536c0,1.425-1.081,2.536-2.416,2.536
			C225.07,467.204,223.975,466.093,223.975,464.668 M222.762,464.668c0,0.975,0.359,1.846,1.063,2.551
			c0.689,0.689,1.59,1.063,2.581,1.063c0.975,0,1.875-0.39,2.58-1.078c0.688-0.675,1.063-1.562,1.063-2.536
			s-0.375-1.876-1.063-2.551c-0.705-0.689-1.591-1.063-2.58-1.063c-0.991,0-1.892,0.359-2.581,1.049
			C223.121,462.792,222.762,463.693,222.762,464.668 M215.89,464.683c0-1.516,0.931-2.49,2.281-2.49
			c1.335,0,2.161,0.854,2.161,2.341c0,1.68-0.856,2.641-2.191,2.641C216.76,467.174,215.89,466.273,215.89,464.683 M214.797,456.645
			v11.353h1.093v-1.213c0.525,0.96,1.411,1.498,2.446,1.498c1.921,0,3.209-1.423,3.209-3.614c0-2.251-1.288-3.614-3.164-3.614
			c-1.11,0-1.936,0.51-2.446,1.498v-5.907H214.797z M211.917,463.889h-4.082c0.12-1.141,0.945-1.847,2.041-1.847
			C211.092,462.042,211.842,462.703,211.917,463.889 M213.145,464.817v-0.226c0-2.22-1.258-3.553-3.224-3.553
			c-1.951,0-3.344,1.468-3.344,3.583c0,2.191,1.378,3.66,3.419,3.66c1.381,0,2.43-0.614,3.104-1.829l-0.869-0.585
			c-0.554,0.975-1.274,1.456-2.175,1.456c-1.291,0-2.221-0.946-2.221-2.402v-0.104H213.145z M205.645,466.409
			c-0.705,0.51-1.35,0.765-2.069,0.765c-1.396,0-2.4-1.081-2.4-2.431c0-1.591,1.021-2.581,2.49-2.581c0.66,0,1.29,0.21,1.86,0.585
			v-1.229c-0.615-0.299-1.336-0.464-2.086-0.464c-2.01,0-3.492,1.469-3.492,3.659c0,2.116,1.362,3.569,3.447,3.569
			c0.87,0,1.636-0.18,2.25-0.539V466.409z M197.172,464.713c0,1.545-0.84,2.432-2.191,2.432c-1.425,0-2.235-0.916-2.235-2.536
			c0-1.531,0.811-2.416,2.19-2.416C196.227,462.192,197.172,463.152,197.172,464.713 M198.28,461.294h-1.139v1.258
			c-0.51-0.989-1.335-1.498-2.461-1.498c-1.876,0-3.148,1.363-3.148,3.614c0,2.191,1.288,3.614,3.209,3.614
			c1.036,0,1.891-0.524,2.431-1.498v1.213h1.108V461.294z M188.547,467.997h1.138v-11.353h-1.138V467.997z M181.091,464.668
			c0-1.591,0.87-2.506,2.251-2.506c1.335,0,2.176,0.96,2.176,2.641c0,1.485-0.826,2.356-2.161,2.356
			C182.006,467.159,181.091,466.183,181.091,464.668 M179.982,471.252h1.139v-4.468c0.51,0.989,1.335,1.498,2.445,1.498
			c1.877,0,3.164-1.349,3.164-3.614c0-2.206-1.287-3.614-3.209-3.614c-1.035,0-1.921,0.524-2.445,1.498v-1.259h-1.094V471.252z
			 M168.897,466.874c0.524,0.944,1.394,1.408,2.64,1.408c1.484,0,2.443-0.883,2.443-2.129c0-1.096-0.644-1.575-1.948-1.995
			c-1.111-0.36-1.727-0.45-1.727-1.156c0-0.585,0.465-1.005,1.142-1.005c0.705,0,1.261,0.345,1.529,0.96l0.93-0.57
			c-0.359-0.854-1.229-1.333-2.385-1.333c-1.426,0-2.368,0.854-2.368,2.023c0,1.321,0.987,1.605,2.639,2.176
			c0.705,0.24,1.051,0.51,1.051,1.021c0,0.586-0.496,1.006-1.261,1.006c-0.767,0-1.336-0.346-1.711-1.066L168.897,466.874z
			 M165.146,468.417l3.3-7.123h-1.29l-2.024,4.679l-2.01-4.679h-1.289L165.146,468.417z M152.743,467.997h1.243v-10.618h-2.714
			l-0.72,1.108h2.19V467.997z M144.312,468.282c2.251,0,3.704-1.993,3.704-5.564c0-3.57-1.438-5.549-3.733-5.549
			c-2.236,0-3.704,2.008-3.704,5.549S142.046,468.282,144.312,468.282 M144.297,467.234c-1.486,0-2.401-1.621-2.401-4.531
			c0-2.896,0.915-4.501,2.401-4.501c1.561,0,2.401,1.545,2.401,4.531C146.698,465.703,145.857,467.234,144.297,467.234
			 M135.537,468.282c2.251,0,3.704-1.993,3.704-5.564c0-3.57-1.438-5.549-3.734-5.549c-2.236,0-3.704,2.008-3.704,5.549
			S133.271,468.282,135.537,468.282 M135.521,467.234c-1.485,0-2.4-1.621-2.4-4.531c0-2.896,0.915-4.501,2.4-4.501
			c1.562,0,2.401,1.545,2.401,4.531C137.923,465.703,137.083,467.234,135.521,467.234 M128.083,467.278
			c0,0.479,0.375,0.854,0.869,0.854c0.495,0,0.884-0.375,0.884-0.854c0-0.48-0.389-0.869-0.884-0.869
			C128.473,466.409,128.083,466.798,128.083,467.278 M122.412,468.282c2.251,0,3.704-1.993,3.704-5.564
			c0-3.57-1.438-5.549-3.734-5.549c-2.236,0-3.704,2.008-3.704,5.549S120.146,468.282,122.412,468.282 M122.396,467.234
			c-1.484,0-2.4-1.621-2.4-4.531c0-2.896,0.916-4.501,2.4-4.501c1.562,0,2.401,1.545,2.401,4.531
			C124.798,465.703,123.958,467.234,122.396,467.234 M116.111,460.544v-0.93l-8.623,3.539v0.75l8.623,3.539v-0.945l-7.318-2.969
			L116.111,460.544z M99.327,464.668c0-1.591,0.87-2.506,2.25-2.506c1.336,0,2.176,0.96,2.176,2.641
			c0,1.485-0.825,2.356-2.161,2.356C100.242,467.159,99.327,466.183,99.327,464.668 M98.218,471.252h1.138v-4.468
			c0.512,0.989,1.337,1.498,2.447,1.498c1.875,0,3.163-1.349,3.163-3.614c0-2.206-1.288-3.614-3.209-3.614
			c-1.035,0-1.92,0.524-2.445,1.498v-1.259h-1.094V471.252z M94.442,464.9h0.706v-5.143h1.558v-0.61h-1.558v-2.396h-0.706v2.396
			h-1.558v0.61h1.558V464.9z"/>
	</g>
</g>
</svg>
